<?xml version="1.0" encoding="UTF-8" standalone="no"?>
<!-- Generator: Adobe Illustrator 22.0.1, SVG Export Plug-In . SVG Version: 6.00 Build 0)  -->

<svg
   xmlns:dc="http://purl.org/dc/elements/1.1/"
   xmlns:cc="http://creativecommons.org/ns#"
   xmlns:rdf="http://www.w3.org/1999/02/22-rdf-syntax-ns#"
   xmlns:svg="http://www.w3.org/2000/svg"
   xmlns="http://www.w3.org/2000/svg"
   xmlns:sodipodi="http://sodipodi.sourceforge.net/DTD/sodipodi-0.dtd"
   xmlns:inkscape="http://www.inkscape.org/namespaces/inkscape"
   version="1.1"
   id="Layer_1"
   x="0px"
   y="0px"
   viewBox="0 0 478 272"
   xml:space="preserve"
   inkscape:version="0.91 r13725"
   sodipodi:docname="private_vds_portgroups_and_uplinks.svg"
   width="478"
   height="272"><metadata
   id="metadata325"><rdf:RDF><cc:Work
       rdf:about=""><dc:format>image/svg+xml</dc:format><dc:type
         rdf:resource="http://purl.org/dc/dcmitype/StillImage" /><dc:title></dc:title></cc:Work></rdf:RDF></metadata><defs
   id="defs323">
	
	
</defs><sodipodi:namedview
   pagecolor="#ffffff"
   bordercolor="#666666"
   borderopacity="1"
   objecttolerance="10"
   gridtolerance="10"
   guidetolerance="10"
   inkscape:pageopacity="0"
   inkscape:pageshadow="2"
   inkscape:window-width="1920"
   inkscape:window-height="1020"
   id="namedview321"
   showgrid="false"
   inkscape:zoom="1.392"
   inkscape:cx="217.5434"
   inkscape:cy="160.5761"
   inkscape:window-x="-4"
   inkscape:window-y="-4"
   inkscape:window-maximized="1"
   inkscape:current-layer="Layer_1" />
<style
   type="text/css"
   id="style3">
	.st0{fill:#FFFFFF;}
	.st1{font-family:'IBMPlexSans';}
	.st2{font-size:12px;}
	.st3{fill:#006837;}
	.st4{fill:#FBB03B;}
	.st5{fill:#534741;}
	.st6{fill:#333333;}
	.st7{font-size:14px;}
	.st8{font-size:10px;}
	.st9{fill:#B3B3B3;}
	.st10{fill:#808080;}
	.st11{fill:none;stroke:#000000;stroke-miterlimit:10;}
</style>
<g
   id="g7"
   transform="translate(0,-28)">
		<rect
   style="fill:#ffffff"
   id="rect9"
   height="53"
   width="180"
   class="st0"
   y="57.5"
   x="16.5" />
		<path
   inkscape:connector-curvature="0"
   id="path11"
   d="m 196,58 0,52 -179,0 0,-52 179,0 m 1,-1 -181,0 0,54 181,0 0,-54 0,0 z" />
	</g><text
   id="text13"
   x="22.887083"
   y="45.728008"
   transform="scale(0.98339807,1.0168822)"
   style="font-size:11.80077648px"><tspan
     style="font-size:11.80077648px;font-family:IBMPlexSans"
     id="tspan15"
     class="st1 st2"
     y="45.728008"
     x="22.887083">SDDC-DPG-Mgmt</tspan><tspan
     style="font-size:11.80077648px;font-family:IBMPlexSans"
     id="tspan17"
     class="st1 st2"
     y="59.888943"
     x="22.887083">VLAN ID : --</tspan><tspan
     style="font-size:11.80077648px;font-family:IBMPlexSans"
     id="tspan19"
     class="st1 st2"
     y="74.049873"
     x="22.887083">vmk0 : Adresse privée principale</tspan></text>

<g
   id="g21"
   transform="translate(0,-28)">
	<g
   id="g23">
		<rect
   x="232.5"
   y="71"
   class="st0"
   width="233"
   height="102"
   id="rect25"
   style="fill:#ffffff" />
		<path
   d="m 465,71.5 0,101 -232,0 0,-101 232,0 m 1,-1 -234,0 0,103 234,0 0,-103 0,0 z"
   id="path27"
   inkscape:connector-curvature="0" />
	</g>
</g>
<g
   id="g29"
   transform="translate(0,-28)">
	<g
   id="g31">
		<rect
   x="17.5"
   y="130.5"
   class="st0"
   width="180"
   height="53"
   id="rect33"
   style="fill:#ffffff" />
		<path
   d="m 197,131 0,52 -179,0 0,-52 179,0 m 1,-1 -181,0 0,54 181,0 0,-54 0,0 z"
   id="path35"
   inkscape:connector-curvature="0" />
	</g>
	<text
   transform="translate(23.5,147.5)"
   id="text37"><tspan
     x="0"
     y="0"
     class="st1 st2"
     id="tspan39"
     style="font-size:12px;font-family:IBMPlexSans">SDDC-DPG-vMotion</tspan><tspan
     x="0"
     y="14.4"
     class="st1 st2"
     id="tspan41"
     style="font-size:12px;font-family:IBMPlexSans">VLAN ID : --</tspan><tspan
     x="0"
     y="28.799999"
     class="st1 st2"
     id="tspan43"
     style="font-size:12px;font-family:IBMPlexSans">vmk1 : Adresse privée portable</tspan></text>

</g>
<g
   id="g45"
   transform="translate(0,-28)">
	<g
   id="g47">
		<rect
   x="16.5"
   y="201.5"
   class="st0"
   width="180"
   height="53"
   id="rect49"
   style="fill:#ffffff" />
		<path
   d="m 196,202 0,52 -179,0 0,-52 179,0 m 1,-1 -181,0 0,54 181,0 0,-54 0,0 z"
   id="path51"
   inkscape:connector-curvature="0" />
	</g>
	<text
   transform="translate(23.5,218.5)"
   id="text53"><tspan
     x="0"
     y="0"
     class="st1 st2"
     id="tspan55"
     style="font-size:12px;font-family:IBMPlexSans">SDDC-DPG-NFS</tspan><tspan
     x="0"
     y="14.4"
     class="st1 st2"
     id="tspan57"
     style="font-size:12px;font-family:IBMPlexSans">VLAN ID : &lt;VLAN privé B&gt;</tspan><tspan
     x="0"
     y="28.799999"
     class="st1 st2"
     id="tspan59"
     style="font-size:12px;font-family:IBMPlexSans">vmk2 : Adresse privée portable</tspan></text>

</g>
<g
   id="g61"
   transform="translate(0,-28)">
	<g
   id="g63">
		<g
   id="g65">
			<g
   id="g67">
				<g
   id="g69">
					<rect
   x="272.10001"
   y="81.699997"
   class="st3"
   width="34.5"
   height="21.200001"
   id="rect71"
   style="fill:#006837" />
					<rect
   x="276.20001"
   y="102.9"
   class="st3"
   width="13.3"
   height="5.0999999"
   id="rect73"
   style="fill:#006837" />
				</g>
				<rect
   x="277.20001"
   y="102.9"
   class="st4"
   width="1"
   height="4.4000001"
   id="rect75"
   style="fill:#fbb03b" />
				<rect
   x="279.20001"
   y="102.9"
   class="st4"
   width="1"
   height="4.4000001"
   id="rect77"
   style="fill:#fbb03b" />
				<rect
   x="281.29999"
   y="102.9"
   class="st4"
   width="1"
   height="4.4000001"
   id="rect79"
   style="fill:#fbb03b" />
				<rect
   x="283.29999"
   y="102.9"
   class="st4"
   width="1"
   height="4.4000001"
   id="rect81"
   style="fill:#fbb03b" />
				<rect
   x="285.39999"
   y="102.9"
   class="st4"
   width="1"
   height="4.4000001"
   id="rect83"
   style="fill:#fbb03b" />
				<rect
   x="287.39999"
   y="102.9"
   class="st4"
   width="1"
   height="4.4000001"
   id="rect85"
   style="fill:#fbb03b" />
			</g>
			<g
   id="g87">
				<rect
   x="271"
   y="80"
   class="st5"
   width="1"
   height="24.6"
   id="rect89"
   style="fill:#534741" />
				<rect
   x="269"
   y="80"
   class="st5"
   width="2"
   height="1.1"
   id="rect91"
   style="fill:#534741" />
			</g>
		</g>
		<rect
   x="278.89999"
   y="89.900002"
   class="st6"
   width="5.5"
   height="3.4000001"
   id="rect93"
   style="fill:#333333" />
		<rect
   x="293.89999"
   y="87.900002"
   class="st6"
   width="5.5"
   height="2"
   id="rect95"
   style="fill:#333333" />
		<rect
   x="286.10001"
   y="85.099998"
   class="st6"
   width="5.5"
   height="2"
   id="rect97"
   style="fill:#333333" />
		<rect
   x="278.89999"
   y="96.400002"
   class="st6"
   width="5.5"
   height="3.4000001"
   id="rect99"
   style="fill:#333333" />
		<rect
   x="293.89999"
   y="93.300003"
   class="st6"
   width="5.5"
   height="3.4000001"
   id="rect101"
   style="fill:#333333" />
	</g>
	<rect
   x="272.10001"
   y="97.800003"
   class="st4"
   width="6.8000002"
   height="0.69999999"
   id="rect103"
   style="fill:#fbb03b" />
	<rect
   x="272.10001"
   y="88.5"
   class="st4"
   width="8.1999998"
   height="0.69999999"
   id="rect105"
   style="fill:#fbb03b" />
	<rect
   x="281"
   y="85.800003"
   class="st4"
   width="5.0999999"
   height="0.69999999"
   id="rect107"
   style="fill:#fbb03b" />
	
		<rect
   x="278.89999"
   y="87.199997"
   transform="matrix(0,-1,1,0,193.0975,368.1219)"
   class="st4"
   width="3.4000001"
   height="0.69999999"
   id="rect109"
   style="fill:#fbb03b" />
	
		<rect
   x="289.70001"
   y="90.099998"
   transform="matrix(0,-1,1,0,200.7805,381.6097)"
   class="st4"
   width="3.0999999"
   height="0.69999999"
   id="rect111"
   style="fill:#fbb03b" />
	
		<rect
   x="276.20001"
   y="89.599998"
   transform="matrix(0,-1,1,0,187.6341,367.439)"
   class="st4"
   width="2.7"
   height="0.69999999"
   id="rect113"
   style="fill:#fbb03b" />
	
		<rect
   x="289.10001"
   y="95.699997"
   transform="matrix(0,-1,1,0,194.8048,386.9024)"
   class="st4"
   width="3.4000001"
   height="0.69999999"
   id="rect115"
   style="fill:#fbb03b" />
	
		<rect
   x="290.5"
   y="97.400002"
   transform="matrix(0,-1,1,0,194.4634,389.9756)"
   class="st4"
   width="3.4000001"
   height="0.69999999"
   id="rect117"
   style="fill:#fbb03b" />
	<rect
   x="277.20001"
   y="91.300003"
   class="st4"
   width="1.7"
   height="0.69999999"
   id="rect119"
   style="fill:#fbb03b" />
	<rect
   x="284.39999"
   y="98.800003"
   class="st4"
   width="7.5"
   height="0.69999999"
   id="rect121"
   style="fill:#fbb03b" />
	<rect
   x="284.39999"
   y="97.099998"
   class="st4"
   width="6.8000002"
   height="0.69999999"
   id="rect123"
   style="fill:#fbb03b" />
	<rect
   x="290.5"
   y="94"
   class="st4"
   width="3.4000001"
   height="0.69999999"
   id="rect125"
   style="fill:#fbb03b" />
	<rect
   x="290.89999"
   y="88.5"
   class="st4"
   width="3.0999999"
   height="0.69999999"
   id="rect127"
   style="fill:#fbb03b" />
	<rect
   x="291.89999"
   y="95.400002"
   class="st4"
   width="2"
   height="0.69999999"
   id="rect129"
   style="fill:#fbb03b" />
	<rect
   x="284.39999"
   y="91.300003"
   class="st4"
   width="6.8000002"
   height="0.69999999"
   id="rect131"
   style="fill:#fbb03b" />
</g>
<g
   id="g133"
   transform="translate(0,-28)">
	<g
   id="g135">
		<g
   id="g137">
			<g
   id="g139">
				<g
   id="g141">
					<rect
   x="271.10001"
   y="131.7"
   class="st3"
   width="34.5"
   height="21.200001"
   id="rect143"
   style="fill:#006837" />
					<rect
   x="275.20001"
   y="152.89999"
   class="st3"
   width="13.3"
   height="5.0999999"
   id="rect145"
   style="fill:#006837" />
				</g>
				<rect
   x="276.20001"
   y="152.89999"
   class="st4"
   width="1"
   height="4.4000001"
   id="rect147"
   style="fill:#fbb03b" />
				<rect
   x="278.20001"
   y="152.89999"
   class="st4"
   width="1"
   height="4.4000001"
   id="rect149"
   style="fill:#fbb03b" />
				<rect
   x="280.29999"
   y="152.89999"
   class="st4"
   width="1"
   height="4.4000001"
   id="rect151"
   style="fill:#fbb03b" />
				<rect
   x="282.29999"
   y="152.89999"
   class="st4"
   width="1"
   height="4.4000001"
   id="rect153"
   style="fill:#fbb03b" />
				<rect
   x="284.39999"
   y="152.89999"
   class="st4"
   width="1"
   height="4.4000001"
   id="rect155"
   style="fill:#fbb03b" />
				<rect
   x="286.39999"
   y="152.89999"
   class="st4"
   width="1"
   height="4.4000001"
   id="rect157"
   style="fill:#fbb03b" />
			</g>
			<g
   id="g159">
				<rect
   x="270"
   y="130"
   class="st5"
   width="1"
   height="24.6"
   id="rect161"
   style="fill:#534741" />
				<rect
   x="268"
   y="130"
   class="st5"
   width="2"
   height="1.1"
   id="rect163"
   style="fill:#534741" />
			</g>
		</g>
		<rect
   x="277.89999"
   y="139.89999"
   class="st6"
   width="5.5"
   height="3.4000001"
   id="rect165"
   style="fill:#333333" />
		<rect
   x="292.89999"
   y="137.89999"
   class="st6"
   width="5.5"
   height="2"
   id="rect167"
   style="fill:#333333" />
		<rect
   x="285.10001"
   y="135.10001"
   class="st6"
   width="5.5"
   height="2"
   id="rect169"
   style="fill:#333333" />
		<rect
   x="277.89999"
   y="146.39999"
   class="st6"
   width="5.5"
   height="3.4000001"
   id="rect171"
   style="fill:#333333" />
		<rect
   x="292.89999"
   y="143.3"
   class="st6"
   width="5.5"
   height="3.4000001"
   id="rect173"
   style="fill:#333333" />
	</g>
	<rect
   x="271.10001"
   y="147.8"
   class="st4"
   width="6.8000002"
   height="0.69999999"
   id="rect175"
   style="fill:#fbb03b" />
	<rect
   x="271.10001"
   y="138.5"
   class="st4"
   width="8.1999998"
   height="0.69999999"
   id="rect177"
   style="fill:#fbb03b" />
	<rect
   x="280"
   y="135.8"
   class="st4"
   width="5.0999999"
   height="0.69999999"
   id="rect179"
   style="fill:#fbb03b" />
	
		<rect
   x="277.89999"
   y="137.2"
   transform="matrix(0,-1,1,0,142.0975,417.1219)"
   class="st4"
   width="3.4000001"
   height="0.69999999"
   id="rect181"
   style="fill:#fbb03b" />
	
		<rect
   x="288.70001"
   y="140.10001"
   transform="matrix(0,-1,1,0,149.7805,430.6097)"
   class="st4"
   width="3.0999999"
   height="0.69999999"
   id="rect183"
   style="fill:#fbb03b" />
	
		<rect
   x="275.20001"
   y="139.60001"
   transform="matrix(0,-1,1,0,136.6341,416.439)"
   class="st4"
   width="2.7"
   height="0.69999999"
   id="rect185"
   style="fill:#fbb03b" />
	
		<rect
   x="288.10001"
   y="145.7"
   transform="matrix(0,-1,1,0,143.8048,435.9024)"
   class="st4"
   width="3.4000001"
   height="0.69999999"
   id="rect187"
   style="fill:#fbb03b" />
	
		<rect
   x="289.5"
   y="147.39999"
   transform="matrix(0,-1,1,0,143.4634,438.9756)"
   class="st4"
   width="3.4000001"
   height="0.69999999"
   id="rect189"
   style="fill:#fbb03b" />
	<rect
   x="276.20001"
   y="141.3"
   class="st4"
   width="1.7"
   height="0.69999999"
   id="rect191"
   style="fill:#fbb03b" />
	<rect
   x="283.39999"
   y="148.8"
   class="st4"
   width="7.5"
   height="0.69999999"
   id="rect193"
   style="fill:#fbb03b" />
	<rect
   x="283.39999"
   y="147.10001"
   class="st4"
   width="6.8000002"
   height="0.69999999"
   id="rect195"
   style="fill:#fbb03b" />
	<rect
   x="289.5"
   y="144"
   class="st4"
   width="3.4000001"
   height="0.69999999"
   id="rect197"
   style="fill:#fbb03b" />
	<rect
   x="289.89999"
   y="138.5"
   class="st4"
   width="3.0999999"
   height="0.69999999"
   id="rect199"
   style="fill:#fbb03b" />
	<rect
   x="290.89999"
   y="145.39999"
   class="st4"
   width="2"
   height="0.69999999"
   id="rect201"
   style="fill:#fbb03b" />
	<rect
   x="283.39999"
   y="141.3"
   class="st4"
   width="6.8000002"
   height="0.69999999"
   id="rect203"
   style="fill:#fbb03b" />
</g>
<text
   class="st1 st7"
   id="text205"
   style="font-size:14px;font-family:IBMPlexSans"
   x="176.5"
   y="17">SDDC-Dswitch-Private</text>

<text
   class="st1 st2"
   id="text207"
   style="font-size:12px;font-family:IBMPlexSans"
   x="317.5"
   y="68.5">uplink1 (adaptateur 1NIC)</text>

<text
   class="st1 st2"
   id="text209"
   style="font-size:12px;font-family:IBMPlexSans"
   x="318.5"
   y="117.5">uplink2 (adaptateur 1NIC)</text>

<text
   class="st1 st8"
   id="text211"
   style="font-size:10px;font-family:IBMPlexSans"
   x="271"
   y="89">vm nic0</text>

<text
   class="st1 st8"
   id="text213"
   style="font-size:10px;font-family:IBMPlexSans"
   x="270"
   y="139">vm nic2</text>

<g
   id="g215"
   transform="translate(0,-28)">
	<rect
   x="238"
   y="87"
   class="st9"
   width="18"
   height="4"
   id="rect217"
   style="fill:#b3b3b3" />
	<rect
   x="238"
   y="92"
   width="18"
   height="8"
   id="rect219" />
	<rect
   x="241"
   y="90"
   width="12"
   height="2"
   id="rect221" />
	<rect
   x="242"
   y="89"
   width="10"
   height="1"
   id="rect223" />
	<rect
   x="244"
   y="87"
   width="6"
   height="2"
   id="rect225" />
	<rect
   x="240"
   y="96"
   class="st6"
   width="14"
   height="3"
   id="rect227"
   style="fill:#333333" />
	<rect
   x="239"
   y="88"
   class="st10"
   width="3"
   height="2"
   id="rect229"
   style="fill:#808080" />
	<rect
   x="252"
   y="88"
   class="st10"
   width="3"
   height="2"
   id="rect231"
   style="fill:#808080" />
</g>
<g
   id="g233"
   transform="translate(0,-28)">
	<rect
   x="187"
   y="78"
   class="st9"
   width="18"
   height="4"
   id="rect235"
   style="fill:#b3b3b3" />
	<rect
   x="187"
   y="83"
   width="18"
   height="8"
   id="rect237" />
	<rect
   x="190"
   y="81"
   width="12"
   height="2"
   id="rect239" />
	<rect
   x="191"
   y="80"
   width="10"
   height="1"
   id="rect241" />
	<rect
   x="193"
   y="78"
   width="6"
   height="2"
   id="rect243" />
	<rect
   x="189"
   y="87"
   class="st6"
   width="14"
   height="3"
   id="rect245"
   style="fill:#333333" />
	<rect
   x="188"
   y="79"
   class="st10"
   width="3"
   height="2"
   id="rect247"
   style="fill:#808080" />
	<rect
   x="201"
   y="79"
   class="st10"
   width="3"
   height="2"
   id="rect249"
   style="fill:#808080" />
</g>
<g
   id="g251"
   transform="translate(0,-28)">
	<rect
   x="239"
   y="136"
   class="st9"
   width="18"
   height="4"
   id="rect253"
   style="fill:#b3b3b3" />
	<rect
   x="239"
   y="141"
   width="18"
   height="8"
   id="rect255" />
	<rect
   x="242"
   y="139"
   width="12"
   height="2"
   id="rect257" />
	<rect
   x="243"
   y="138"
   width="10"
   height="1"
   id="rect259" />
	<rect
   x="245"
   y="136"
   width="6"
   height="2"
   id="rect261" />
	<rect
   x="241"
   y="145"
   class="st6"
   width="14"
   height="3"
   id="rect263"
   style="fill:#333333" />
	<rect
   x="240"
   y="137"
   class="st10"
   width="3"
   height="2"
   id="rect265"
   style="fill:#808080" />
	<rect
   x="253"
   y="137"
   class="st10"
   width="3"
   height="2"
   id="rect267"
   style="fill:#808080" />
</g>
<g
   id="g269"
   transform="translate(0,-28)">
	<rect
   x="188"
   y="150"
   class="st9"
   width="18"
   height="4"
   id="rect271"
   style="fill:#b3b3b3" />
	<rect
   x="188"
   y="155"
   width="18"
   height="8"
   id="rect273" />
	<rect
   x="191"
   y="153"
   width="12"
   height="2"
   id="rect275" />
	<rect
   x="192"
   y="152"
   width="10"
   height="1"
   id="rect277" />
	<rect
   x="194"
   y="150"
   width="6"
   height="2"
   id="rect279" />
	<rect
   x="190"
   y="159"
   class="st6"
   width="14"
   height="3"
   id="rect281"
   style="fill:#333333" />
	<rect
   x="189"
   y="151"
   class="st10"
   width="3"
   height="2"
   id="rect283"
   style="fill:#808080" />
	<rect
   x="202"
   y="151"
   class="st10"
   width="3"
   height="2"
   id="rect285"
   style="fill:#808080" />
</g>
<g
   id="g287"
   transform="translate(0,-28)">
	<rect
   x="188"
   y="221"
   class="st9"
   width="18"
   height="4"
   id="rect289"
   style="fill:#b3b3b3" />
	<rect
   x="188"
   y="226"
   width="18"
   height="8"
   id="rect291" />
	<rect
   x="191"
   y="224"
   width="12"
   height="2"
   id="rect293" />
	<rect
   x="192"
   y="223"
   width="10"
   height="1"
   id="rect295" />
	<rect
   x="194"
   y="221"
   width="6"
   height="2"
   id="rect297" />
	<rect
   x="190"
   y="230"
   class="st6"
   width="14"
   height="3"
   id="rect299"
   style="fill:#333333" />
	<rect
   x="189"
   y="222"
   class="st10"
   width="3"
   height="2"
   id="rect301"
   style="fill:#808080" />
	<rect
   x="202"
   y="222"
   class="st10"
   width="3"
   height="2"
   id="rect303"
   style="fill:#808080" />
</g>
<line
   class="st11"
   x1="205"
   y1="57"
   x2="232"
   y2="57"
   id="line305"
   style="fill:none;stroke:#000000;stroke-miterlimit:10" />
<line
   class="st11"
   x1="205"
   y1="129.5"
   x2="232"
   y2="129.5"
   id="line307"
   style="fill:none;stroke:#000000;stroke-miterlimit:10" />
<line
   class="st11"
   x1="206"
   y1="199.5"
   x2="216.5"
   y2="199.5"
   id="line309"
   style="fill:none;stroke:#000000;stroke-miterlimit:10" />
<line
   class="st11"
   x1="256.5"
   y1="65.5"
   x2="270.5"
   y2="65.5"
   id="line311"
   style="fill:none;stroke:#000000;stroke-miterlimit:10" />
<line
   class="st11"
   x1="256.5"
   y1="114.5"
   x2="269.5"
   y2="114.5"
   id="line313"
   style="fill:none;stroke:#000000;stroke-miterlimit:10" />
<line
   class="st11"
   x1="261.5"
   y1="43.5"
   x2="261.5"
   y2="144.5"
   id="line315"
   style="fill:none;stroke:#000000;stroke-miterlimit:10" />
<line
   class="st11"
   x1="216.5"
   y1="137.5"
   x2="216.5"
   y2="199.5"
   id="line317"
   style="fill:none;stroke:#000000;stroke-miterlimit:10" />
<line
   class="st11"
   x1="233"
   y1="137.5"
   x2="216.5"
   y2="137.5"
   id="line319"
   style="fill:none;stroke:#000000;stroke-miterlimit:10" />
</svg>
