<?xml version="1.0" encoding="utf-8"?>
<!-- Generator: Adobe Illustrator 21.0.0, SVG Export Plug-In . SVG Version: 6.00 Build 0)  -->
<svg version="1.1" id="Layer_1" xmlns="http://www.w3.org/2000/svg" xmlns:xlink="http://www.w3.org/1999/xlink" x="0px" y="0px"
	 viewBox="0 0 850 608" style="enable-background:new 0 0 850 608;" xml:space="preserve">
<style type="text/css">
	.st0{fill:#F59C57;}
	.st1{fill-rule:evenodd;clip-rule:evenodd;fill:#F1F2F1;}
	.st2{fill-rule:evenodd;clip-rule:evenodd;fill:#1DA78D;}
	.st3{fill-rule:evenodd;clip-rule:evenodd;fill:#4C84C5;}
	.st4{fill-rule:evenodd;clip-rule:evenodd;fill:#8D44FF;}
	.st5{fill:#606060;stroke:#606060;stroke-width:2;stroke-miterlimit:10;}
	.st6{fill-rule:evenodd;clip-rule:evenodd;fill:#606060;}
	.st7{clip-path:url(#SVGID_2_);}
	.st8{clip-path:url(#SVGID_4_);}
	.st9{fill:#606060;stroke:#4D4D4D;stroke-width:2;stroke-miterlimit:8;}
	.st10{fill-rule:evenodd;clip-rule:evenodd;fill:none;}
	.st11{fill:#FFFFFF;}
	.st12{font-family:'IBMPlexSans-Bold';}
	.st13{font-size:24px;}
	.st14{font-family:'IBMPlexSans';}
	.st15{font-size:21px;}
	.st16{font-size:18px;}
</style>
<rect x="97.3" y="393.9" class="st0" width="186.9" height="163.1"/>
<polygon class="st1" points="65.3,20 795.9,20 795.9,313.8 65.3,313.8 65.3,20 "/>
<polygon class="st2" points="99.4,185.4 745.5,185.4 745.5,281.1 99.4,281.1 99.4,185.4 "/>
<polygon class="st3" points="99.4,65.3 745.5,65.3 745.5,161.7 99.4,161.7 99.4,65.3 "/>
<polygon class="st4" points="552.6,393.9 748,393.9 748,549 552.6,549 552.6,393.9 "/>
<g>
	<line class="st5" x1="192.2" y1="292.3" x2="192.2" y2="381"/>
	<polygon class="st6" points="198.8,378.7 192.2,392.1 185.5,378.7 198.8,378.7 	"/>
	<polygon class="st6" points="185.5,294.5 192.2,281.1 198.8,294.5 185.5,294.5 	"/>
</g>
<g>
	<defs>
		<polygon id="SVGID_1_" points="65.3,589 795.9,589 795.9,20 65.3,20 65.3,589 		"/>
	</defs>
	<clipPath id="SVGID_2_">
		<use xlink:href="#SVGID_1_"  style="overflow:visible;"/>
	</clipPath>
	<g class="st7">
		<defs>
			<polygon id="SVGID_3_" points="65.3,589 795.9,589 795.9,20 65.3,20 65.3,589 			"/>
		</defs>
		<clipPath id="SVGID_4_">
			<use xlink:href="#SVGID_3_"  style="overflow:visible;"/>
		</clipPath>
		<g class="st8">
			<line class="st9" x1="539.7" y1="489.6" x2="296.3" y2="489.6"/>
			<polygon class="st6" points="298.6,482.9 285,489.6 298.6,496.3 298.6,482.9 			"/>
			<polygon class="st6" points="537.4,496.3 551,489.6 537.4,482.9 537.4,496.3 			"/>
		</g>
	</g>
</g>
<rect x="279" y="87" class="st10" width="329" height="45"/>
<text transform="matrix(1 0 0 1 279 104.7598)" class="st11 st12 st13">Infrastructure Management</text>
<rect x="302" y="206" class="st10" width="283" height="45"/>
<text transform="matrix(1 0 0 1 302 223.7598)" class="st11 st12 st13">Virtual Infrastructure </text>
<text transform="matrix(1 0 0 1 325 143)" class="st11 st14 st15">VMware vCenter Server</text>
<text transform="matrix(1 0 0 1 346 260)" class="st11 st14 st15">VMware vSphere</text>
<rect x="115" y="426" class="st10" width="168" height="45"/>
<text transform="matrix(1 0 0 1 115 439.3198)" class="st11 st12 st16">Common Services</text>
<text transform="matrix(1 0 0 1 123 488)" class="st11 st14 st16">Active Directory</text>
<text transform="matrix(1 0 0 1 166 523)" class="st11 st14 st16">DNS</text>
<rect x="569" y="424" class="st10" width="168" height="45"/>
<text transform="matrix(1 0 0 1 569 437.3198)" class="st11 st12 st16">IBM Cloud Services</text>
<text transform="matrix(1 0 0 1 626 487)" class="st11 st14 st16">DNS</text>
<text transform="matrix(1 0 0 1 627 522)" class="st11 st14 st16">NTP</text>
<text transform="matrix(1 0 0 1 195 340)"><tspan x="0" y="0" class="st14 st15">Authentication</tspan><tspan x="0" y="25.2" class="st14 st15">Domain Name Resolution</tspan></text>
<text transform="matrix(1 0 0 1 490 338)"><tspan x="0" y="0" class="st14 st15">Network time</tspan><tspan x="0" y="25.2" class="st14 st15">Synchronization</tspan></text>
<text transform="matrix(1 0 0 1 301 473)" class="st14 st15">Domain Name Resolution</text>
<g>
	<line class="st5" x1="645.2" y1="293.3" x2="645.2" y2="382"/>
	<polygon class="st6" points="651.8,379.7 645.2,393.1 638.5,379.7 651.8,379.7 	"/>
	<polygon class="st6" points="638.5,295.5 645.2,282.1 651.8,295.5 638.5,295.5 	"/>
</g>
</svg>
