<?xml version="1.0" encoding="utf-8"?>
<!-- Generator: Adobe Illustrator 21.0.0, SVG Export Plug-In . SVG Version: 6.00 Build 0)  -->
<svg version="1.1" id="Layer_1" xmlns="http://www.w3.org/2000/svg" xmlns:xlink="http://www.w3.org/1999/xlink" x="0px" y="0px"
	 viewBox="0 0 850 608" style="enable-background:new 0 0 850 608;" xml:space="preserve">
<style type="text/css">
	.st0{fill-rule:evenodd;clip-rule:evenodd;fill:#F1F2F1;}
	.st1{fill-rule:evenodd;clip-rule:evenodd;fill:#1DA78D;}
	.st2{fill-rule:evenodd;clip-rule:evenodd;fill:#4C84C5;}
	.st3{opacity:0.502;fill-rule:evenodd;clip-rule:evenodd;fill:#959595;}
	.st4{opacity:0.502;fill-rule:evenodd;clip-rule:evenodd;fill:#748DB9;}
	.st5{fill:none;stroke:#BFBFBF;stroke-width:3;stroke-miterlimit:8;}
	.st6{fill-rule:evenodd;clip-rule:evenodd;fill:#BFBFBF;}
	.st7{clip-path:url(#SVGID_2_);fill:none;stroke:#BFBFBF;stroke-width:3;stroke-miterlimit:8;}
	.st8{clip-path:url(#SVGID_2_);fill-rule:evenodd;clip-rule:evenodd;fill:#BFBFBF;}
	.st9{clip-path:url(#SVGID_2_);}
	.st10{clip-path:url(#SVGID_4_);fill:none;stroke:#BFBFBF;stroke-width:3;stroke-miterlimit:8;}
	.st11{clip-path:url(#SVGID_4_);fill-rule:evenodd;clip-rule:evenodd;fill:#BFBFBF;}
	.st12{fill-rule:evenodd;clip-rule:evenodd;fill:none;}
	.st13{fill:#FFFFFF;}
	.st14{font-family:'MyriadPro-Regular';}
	.st15{font-size:18px;}
	.st16{font-size:14px;}
</style>
<g>
	<polygon class="st0" points="65.3,20 795.9,20 795.9,313.8 65.3,313.8 65.3,20 	"/>
	<polygon class="st1" points="99.4,185.4 745.5,185.4 745.5,281.1 99.4,281.1 99.4,185.4 	"/>
	<polygon class="st2" points="99.4,65.3 745.5,65.3 745.5,161.7 99.4,161.7 99.4,65.3 	"/>
	<polygon class="st3" points="99.4,392.4 292.3,392.4 292.3,589 99.4,589 99.4,392.4 	"/>
	<polygon class="st4" points="552.6,392.4 745.5,392.4 745.5,589 552.6,589 552.6,392.4 	"/>
	<line class="st5" x1="192.2" y1="292.3" x2="192.2" y2="381"/>
	<polygon class="st6" points="198.8,378.7 192.2,392.1 185.5,378.7 198.8,378.7 	"/>
	<polygon class="st6" points="185.5,294.5 192.2,281.1 198.8,294.5 185.5,294.5 	"/>
	<g>
		<defs>
			<polygon id="SVGID_1_" points="65.3,589 795.9,589 795.9,20 65.3,20 65.3,589 			"/>
		</defs>
		<clipPath id="SVGID_2_">
			<use xlink:href="#SVGID_1_"  style="overflow:visible;"/>
		</clipPath>
		<line class="st7" x1="649.1" y1="292.3" x2="649.1" y2="381"/>
		<polygon class="st8" points="655.7,378.7 649.1,392.1 642.4,378.7 655.7,378.7 		"/>
		<polygon class="st8" points="642.4,294.5 649.1,281.1 655.7,294.5 642.4,294.5 		"/>
		<g class="st9">
			<defs>
				<polygon id="SVGID_3_" points="65.3,589 795.9,589 795.9,20 65.3,20 65.3,589 				"/>
			</defs>
			<clipPath id="SVGID_4_">
				<use xlink:href="#SVGID_3_"  style="overflow:visible;"/>
			</clipPath>
			<line class="st10" x1="542.1" y1="489.6" x2="303.4" y2="489.6"/>
			<polygon class="st11" points="305.6,482.9 292.3,489.6 305.6,496.3 305.6,482.9 			"/>
			<polygon class="st11" points="539.8,496.3 553.2,489.6 539.8,482.9 539.8,496.3 			"/>
		</g>
	</g>
</g>
<rect x="109" y="73" class="st12" width="283" height="45"/>
<text transform="matrix(1 0 0 1 109 85.7798)" class="st13 st14 st15">Infrastructure Management</text>
<rect x="109" y="193" class="st12" width="283" height="45"/>
<text transform="matrix(1 0 0 1 109 205.7798)" class="st13 st14 st15">Virtual Infrastructure </text>
<text transform="matrix(1 0 0 1 358 128)" class="st13 st14 st16">VMware vCenter Server</text>
<text transform="matrix(1 0 0 1 358 247)" class="st13 st14 st16">VMware vSphere</text>
<rect x="112" y="409" class="st12" width="168" height="45"/>
<text transform="matrix(1 0 0 1 112 421.7798)" class="st13 st14 st15">Common Services</text>
<text transform="matrix(1 0 0 1 112 477)" class="st13 st14 st16">Active Directory</text>
<text transform="matrix(1 0 0 1 112 520)" class="st13 st14 st16">DNS</text>
<rect x="565" y="409" class="st12" width="168" height="45"/>
<text transform="matrix(1 0 0 1 565 421.7798)" class="st13 st14 st15">IBM Cloud Services</text>
<text transform="matrix(1 0 0 1 565 473)" class="st13 st14 st16">DNS</text>
<text transform="matrix(1 0 0 1 565 520)" class="st13 st14 st16">NTP</text>
<text transform="matrix(1 0 0 1 206 345)"><tspan x="0" y="0" class="st14 st16">Authentication</tspan><tspan x="0" y="16.8" class="st14 st16">Domain Name Resolution</tspan></text>
<text transform="matrix(1 0 0 1 516 345)"><tspan x="0" y="0" class="st14 st16">Network time</tspan><tspan x="0" y="16.8" class="st14 st16">Synchronization</tspan></text>
<text transform="matrix(1 0 0 1 310 473)" class="st14 st16">Domain Name Resolution</text>
</svg>
