<?xml version="1.0" encoding="utf-8"?>
<!-- Generator: Adobe Illustrator 21.0.0, SVG Export Plug-In . SVG Version: 6.00 Build 0)  -->
<svg version="1.1" id="Layer_1" xmlns="http://www.w3.org/2000/svg" xmlns:xlink="http://www.w3.org/1999/xlink" x="0px" y="0px"
	 viewBox="0 0 851 408" style="enable-background:new 0 0 851 408;" xml:space="preserve">
<style type="text/css">
	.st0{opacity:0.502;fill-rule:evenodd;clip-rule:evenodd;fill:#959595;}
	.st1{fill-rule:evenodd;clip-rule:evenodd;fill:#1DA78D;}
	.st2{fill-rule:evenodd;clip-rule:evenodd;fill:#4C84C5;}
	.st3{fill-rule:evenodd;clip-rule:evenodd;fill:#959595;}
	.st4{fill-rule:evenodd;clip-rule:evenodd;fill:none;}
	.st5{fill:#FFFFFF;}
	.st6{font-family:'MyriadPro-Regular';}
	.st7{font-size:18px;}
	.st8{font-size:14px;}
	.st9{fill:none;stroke:#FFFFFF;stroke-width:2;stroke-miterlimit:8;}
	.st10{clip-path:url(#SVGID_2_);fill:none;stroke:#FFFFFF;stroke-width:2;stroke-miterlimit:8;}
	.st11{clip-path:url(#SVGID_2_);}
	.st12{clip-path:url(#SVGID_4_);fill:none;stroke:#FFFFFF;stroke-width:2;stroke-miterlimit:8;}
	.st13{clip-path:url(#SVGID_4_);}
	.st14{clip-path:url(#SVGID_6_);fill:none;stroke:#FFFFFF;stroke-width:2;stroke-miterlimit:8;}
	.st15{clip-path:url(#SVGID_8_);fill:none;stroke:#FFFFFF;stroke-width:2;stroke-miterlimit:8;}
	.st16{clip-path:url(#SVGID_8_);}
	.st17{clip-path:url(#SVGID_10_);fill:none;stroke:#FFFFFF;stroke-width:2;stroke-miterlimit:8;}
	.st18{clip-path:url(#SVGID_10_);}
	.st19{clip-path:url(#SVGID_12_);fill:none;stroke:#FFFFFF;stroke-width:2;stroke-miterlimit:8;}
	.st20{clip-path:url(#SVGID_12_);}
	.st21{clip-path:url(#SVGID_14_);fill:none;stroke:#FFFFFF;stroke-width:2;stroke-miterlimit:8;}
	.st22{clip-path:url(#SVGID_14_);}
	.st23{clip-path:url(#SVGID_16_);fill:none;stroke:#FFFFFF;stroke-width:2;stroke-miterlimit:8;}
	.st24{clip-path:url(#SVGID_18_);}
	.st25{clip-path:url(#SVGID_20_);fill:#FFFFFF;}
	.st26{fill-rule:evenodd;clip-rule:evenodd;fill:#F2F2F2;}
	.st27{clip-path:url(#SVGID_22_);}
	.st28{clip-path:url(#SVGID_24_);fill:#FFFFFF;}
	.st29{clip-path:url(#SVGID_24_);fill:none;stroke:#FFFFFF;stroke-width:0.5;stroke-miterlimit:8;}
</style>
<polygon class="st0" points="9.6,24.5 196.8,24.5 196.8,260 9.6,260 9.6,24.5 "/>
<polygon class="st1" points="211.9,148.4 839.2,148.4 839.2,260 211.9,260 211.9,148.4 "/>
<polygon class="st2" points="211.9,24.5 839.2,24.5 839.2,136.1 211.9,136.1 211.9,24.5 "/>
<polygon class="st3" points="9.6,272.3 839.2,272.3 839.2,383 9.6,383 9.6,272.3 "/>
<rect x="15" y="45" class="st4" width="168" height="45"/>
<text transform="matrix(1 0 0 1 15 57.7798)" class="st5 st6 st7">Common Services</text>
<text transform="matrix(1 0 0 1 24 96)" class="st5 st6 st8">Authentication</text>
<text transform="matrix(1 0 0 1 24 136)" class="st5 st6 st8">DNS</text>
<text transform="matrix(1 0 0 1 24 182)" class="st5 st6 st8">NTP</text>
<text transform="matrix(1 0 0 1 24 223)" class="st5 st6 st8">Certification Authority</text>
<rect x="267" y="48" class="st4" width="283" height="45"/>
<text transform="matrix(1 0 0 1 267 60.7798)" class="st5 st6 st7">Infrastructure Management</text>
<rect x="267" y="159" class="st4" width="283" height="45"/>
<text transform="matrix(1 0 0 1 267 171.7798)" class="st5 st6 st7">Virtual Infrastructure </text>
<rect x="70" y="289" class="st4" width="283" height="45"/>
<text transform="matrix(1 0 0 1 70 301.7798)" class="st5 st6 st7">Physical Infrastructure</text>
<text transform="matrix(1 0 0 1 224 119)" class="st5 st6 st8">Platform Services Controller</text>
<text transform="matrix(1 0 0 1 645 119)" class="st5 st6 st8">VMware vCenter Server</text>
<text transform="matrix(1 0 0 1 259 243)" class="st5 st6 st8">VMware vSphere</text>
<text transform="matrix(1 0 0 1 461 243)" class="st5 st6 st8">VMware NSX</text>
<text transform="matrix(1 0 0 1 645 243)" class="st5 st6 st8">VMware vSAN (optional)</text>
<g>
	<polygon class="st9" points="633.6,224.6 633.6,224.6 633.6,224.3 633.4,223.8 632.8,223.2 631.7,222.5 630.4,221.9 628.8,221.5 
		627,221.1 625.1,220.8 622.9,220.8 620.7,220.8 618.8,221.1 616.9,221.5 615.3,221.9 614,222.5 613,223.2 612.4,223.8 612.2,224.3 
		612.2,224.6 612.2,230.9 612.2,231.2 612.4,231.7 613,232.4 614,233 615.3,233.6 616.9,234.1 618.8,234.4 620.7,234.7 622.9,234.7 
		625.1,234.7 627,234.4 628.8,234.1 630.4,233.6 631.7,233 632.8,232.4 633.4,231.7 633.6,231.2 633.6,230.9 633.6,224.6 
		633.6,224.6 	"/>
	<g>
		<defs>
			<polygon id="SVGID_1_" points="611.9,247.5 633.8,247.5 633.8,220.5 611.9,220.5 611.9,247.5 			"/>
		</defs>
		<clipPath id="SVGID_2_">
			<use xlink:href="#SVGID_1_"  style="overflow:visible;"/>
		</clipPath>
		<polyline class="st10" points="612.2,224.7 612.2,224.7 612.2,224.9 612.4,225.5 613,226.1 614,226.7 615.3,227.4 616.9,227.9 
			618.8,228.2 620.7,228.5 622.9,228.5 625.1,228.5 627,228.2 628.8,227.9 630.4,227.4 631.7,226.7 632.8,226.1 633.4,225.5 
			633.6,224.9 633.6,224.7 		"/>
		<g class="st11">
			<defs>
				<polygon id="SVGID_3_" points="611.9,247.5 633.8,247.5 633.8,220.5 611.9,220.5 611.9,247.5 				"/>
			</defs>
			<clipPath id="SVGID_4_">
				<use xlink:href="#SVGID_3_"  style="overflow:visible;"/>
			</clipPath>
			<polyline class="st12" points="612.2,233.6 612.2,237.2 612.2,237.6 612.4,238 613,238.7 614,239.3 615.3,239.9 616.9,240.3 
				618.8,240.6 620.7,241 622.9,241 625.1,241 627,240.6 628.8,240.3 630.4,239.9 631.7,239.3 632.8,238.7 633.4,238 633.6,237.6 
				633.6,237.2 633.6,233.6 			"/>
			<g class="st13">
				<defs>
					<polygon id="SVGID_5_" points="611.9,247.5 633.8,247.5 633.8,220.5 611.9,220.5 611.9,247.5 					"/>
				</defs>
				<clipPath id="SVGID_6_">
					<use xlink:href="#SVGID_5_"  style="overflow:visible;"/>
				</clipPath>
				<polyline class="st14" points="612.2,239.8 612.2,243.5 612.2,243.8 612.4,244.3 613,244.9 614,245.5 615.3,246.2 616.9,246.6 
					618.8,246.9 620.7,247.2 622.9,247.2 625.1,247.2 627,246.9 628.8,246.6 630.4,246.2 631.7,245.5 632.8,244.9 633.4,244.3 
					633.6,243.8 633.6,243.5 633.6,239.8 				"/>
			</g>
		</g>
	</g>
</g>
<g>
	<polygon class="st9" points="221.9,246.4 221.9,218.3 221.9,218 222.1,217.8 222.3,217.6 222.6,217.6 249.9,217.6 250.2,217.6 
		250.4,217.8 250.6,218 250.6,218.3 250.6,246.4 250.6,246.8 250.4,246.9 250.2,247.1 249.9,247.1 222.6,247.1 222.3,247.1 
		222.1,246.9 221.9,246.8 221.9,246.4 221.9,246.4 	"/>
	<g>
		<defs>
			<polygon id="SVGID_7_" points="221.5,247.5 251,247.5 251,217.2 221.5,217.2 221.5,247.5 			"/>
		</defs>
		<clipPath id="SVGID_8_">
			<use xlink:href="#SVGID_7_"  style="overflow:visible;"/>
		</clipPath>
		<line class="st15" x1="221.9" y1="222" x2="250.6" y2="222.4"/>
		<g class="st16">
			<defs>
				<polygon id="SVGID_9_" points="221.5,247.5 251,247.5 251,217.2 221.5,217.2 221.5,247.5 				"/>
			</defs>
			<clipPath id="SVGID_10_">
				<use xlink:href="#SVGID_9_"  style="overflow:visible;"/>
			</clipPath>
			<line class="st17" x1="223.9" y1="219.6" x2="225.1" y2="220"/>
			<g class="st18">
				<defs>
					<polygon id="SVGID_11_" points="221.5,247.5 251,247.5 251,217.2 221.5,217.2 221.5,247.5 					"/>
				</defs>
				<clipPath id="SVGID_12_">
					<use xlink:href="#SVGID_11_"  style="overflow:visible;"/>
				</clipPath>
				<line class="st19" x1="226.7" y1="219.6" x2="227.9" y2="220"/>
				<g class="st20">
					<defs>
						<polygon id="SVGID_13_" points="221.5,247.5 251,247.5 251,217.2 221.5,217.2 221.5,247.5 						"/>
					</defs>
					<clipPath id="SVGID_14_">
						<use xlink:href="#SVGID_13_"  style="overflow:visible;"/>
					</clipPath>
					<polygon class="st21" points="244.6,232.3 243.4,229.6 241.8,230.2 241.1,229.3 240.2,228.6 240.7,227 238.1,226 237.4,227.4 
						236.2,227.4 235.1,227.4 234.4,226 231.8,227 232.3,228.6 231.4,229.3 230.7,230.2 229,229.6 227.9,232.3 229.5,233.1 
						229.3,234.2 229.5,235.2 227.9,236.1 229,238.7 230.7,238.2 231.4,239 232.3,239.7 231.8,241.3 234.4,242.3 235.1,241 
						236.2,241 237.4,241 238.1,242.3 240.7,241.3 240.2,239.7 241.1,239 241.8,238.2 243.4,238.7 244.6,236.1 243,235.2 
						243.2,234.2 243,233.1 244.6,232.3 244.6,232.3 					"/>
					<g class="st22">
						<defs>
							<polygon id="SVGID_15_" points="221.5,247.5 251,247.5 251,217.2 221.5,217.2 221.5,247.5 							"/>
						</defs>
						<clipPath id="SVGID_16_">
							<use xlink:href="#SVGID_15_"  style="overflow:visible;"/>
						</clipPath>
						<polygon class="st23" points="238.6,233.9 238.6,233.9 238.4,234.8 237.9,235.7 237,236.2 236.1,236.3 235.2,236.2 
							234.2,235.7 233.7,234.8 233.5,233.9 233.7,233.1 234.2,232.2 235.2,231.7 236.1,231.6 237,231.7 237.9,232.2 238.4,233.1 
							238.6,233.9 238.6,233.9 						"/>
					</g>
				</g>
			</g>
		</g>
	</g>
</g>
<g>
	<g>
		<defs>
			<polygon id="SVGID_17_" points="419.5,247.5 451,247.5 451,214.7 419.5,214.7 419.5,247.5 			"/>
		</defs>
		<clipPath id="SVGID_18_">
			<use xlink:href="#SVGID_17_"  style="overflow:visible;"/>
		</clipPath>
		<g class="st24">
			<defs>
				<polygon id="SVGID_19_" points="419.5,247.5 451,247.5 451,214.7 419.5,214.7 419.5,247.5 				"/>
			</defs>
			<clipPath id="SVGID_20_">
				<use xlink:href="#SVGID_19_"  style="overflow:visible;"/>
			</clipPath>
			<path class="st25" d="M447.6,239.3v-8.2h-12.3v-8.3c1.9-0.3,3.4-1.9,3.4-4c0-2.3-1.8-4.1-4.1-4.1c-2.3,0-4.1,1.8-4.1,4.1
				c0,2.1,1.5,3.7,3.4,4v8.3h-11v8.3c-1.9,0.4-3.4,2.1-3.4,4c0,2.3,1.8,4.1,4.1,4.1c2.3,0,4.1-1.8,4.1-4.1c0-2.1-1.5-3.7-3.4-4v-7
				h21.9v7c-1.9,0.3-3.4,2.1-3.4,4c0,2.3,1.8,4.1,4.1,4.1c2.3,0,4.1-1.8,4.1-4.1C451,241.4,449.6,239.6,447.6,239.3L447.6,239.3z
				 M431.8,218.8c0-1.5,1.2-2.7,2.7-2.7c1.5,0,2.7,1.2,2.7,2.7c0,1.5-1.2,2.7-2.7,2.7C433.1,221.5,431.8,220.3,431.8,218.8
				L431.8,218.8z M426.4,243.4c0,1.5-1.2,2.7-2.7,2.7c-1.5,0-2.7-1.2-2.7-2.7c0-1.5,1.2-2.7,2.7-2.7
				C425.1,240.7,426.4,241.9,426.4,243.4L426.4,243.4z M446.9,246.1c-1.5,0-2.7-1.2-2.7-2.7c0-1.5,1.2-2.7,2.7-2.7
				c1.5,0,2.7,1.2,2.7,2.7C449.6,244.9,448.4,246.1,446.9,246.1L446.9,246.1z"/>
		</g>
	</g>
</g>
<text transform="matrix(1 0 0 1 31 363)" class="st5 st6 st8">Physical Compute</text>
<text transform="matrix(1 0 0 1 316 363)" class="st5 st6 st8">Physical Network</text>
<text transform="matrix(1 0 0 1 647 363)" class="st5 st6 st8">Physical Storage</text>
<g>
	<path class="st26" d="M229.6,59.3h-3.5l-1.1-1.1l-0.1-0.1l-0.1-0.1l-0.1,0h-0.1h-2.5l-0.1,0l-0.1,0l-0.1,0.1l-0.1,0.1l-0.1,0.1
		l-0.1,0.1l0,0.1l0,0.1V65l0,0.1l0,0.1l0.1,0.1l0.1,0.1l0.1,0.1l0.1,0.1l0.1,0l0.1,0h7.5l0.1,0l0.1,0l0.1-0.1l0.1-0.1l0.1-0.1l0-0.1
		l0-0.1l0-0.1v-5l0-0.1l0-0.1l0-0.1l-0.1-0.1l-0.1-0.1l-0.1-0.1l-0.1,0H229.6L229.6,59.3L229.6,59.3z M229,64.3h-6.2v-5h1.6l1.1,1.1
		l0.1,0.1l0.1,0.1l0.1,0l0.1,0h3.1V64.3L229,64.3L229,64.3z"/>
	<path class="st26" d="M253.4,59.3h-3.5l-1.1-1.1l-0.1-0.1l-0.1-0.1l-0.1,0h-0.1h-2.5l-0.1,0l-0.1,0l-0.1,0.1l-0.1,0.1l-0.1,0.1
		l0,0.1l0,0.1l0,0.1V65l0,0.1l0,0.1l0,0.1l0.1,0.1l0.1,0.1l0.1,0.1l0.1,0l0.1,0h7.5l0.1,0l0.1,0l0.1-0.1l0.1-0.1l0.1-0.1l0.1-0.1
		l0-0.1V65v-5v-0.1l0-0.1l-0.1-0.1l-0.1-0.1l-0.1-0.1l-0.1-0.1l-0.1,0H253.4L253.4,59.3L253.4,59.3z M252.8,64.3h-6.2v-5h1.6
		l1.1,1.1l0.1,0.1l0.1,0.1l0.1,0l0.1,0h3.1V64.3L252.8,64.3L252.8,64.3z"/>
	<path class="st26" d="M242.9,63.5h-5.2l-0.5-0.9l0-0.1l-0.1-0.1l-0.1-0.1l-0.1,0l-0.1,0l-0.1,0l-0.1,0h-0.1H233l-0.1,0l-0.1,0
		l-0.1,0.1l-0.1,0.1l-0.1,0.1l-0.1,0.1l0,0.1l0,0.1v7.5l0,0.1l0,0.1l0.1,0.1l0.1,0.1l0.1,0.1l0.1,0l0.1,0l0.1,0h10l0.1,0l0.1,0
		l0.1,0l0.1-0.1l0.1-0.1l0.1-0.1l0-0.1l0-0.1v-6.2l0-0.1l0-0.1l-0.1-0.1l-0.1-0.1l-0.1-0.1l-0.1-0.1l-0.1,0H242.9L242.9,63.5
		L242.9,63.5z M242.3,69.7h-8.7v-6.2h2.7l0.5,0.9l0,0.1l0,0.1l0.1,0.1l0.1,0l0.1,0l0.1,0l0.1,0l0.1,0h5V69.7L242.3,69.7L242.3,69.7z
		"/>
	<path class="st26" d="M231.1,51.1h6.3v2.6l-0.2,0l-0.1,0.1l-0.2,0.1l-0.1,0.1l-0.2,0.1l-0.1,0.1l-0.1,0.1l-0.1,0.1l-0.1,0.1
		l-0.1,0.1l-0.1,0.1l-0.1,0.1l-0.1,0.2l-0.1,0.1l0,0.2l-0.1,0.2h-9.5l-0.1,0l-0.1,0l-0.1,0.1l-0.1,0.1l-0.1,0.1l-0.1,0.1l0,0.1
		l0,0.1v1.2l0,0.1l0,0.1l0.1,0.1l0.1,0.1l0.1,0.1l0.1,0l0.1,0l0.1,0l0.1,0l0.1,0l0.1,0l0.1-0.1l0.1-0.1l0-0.1l0-0.1v-0.1v-0.6h8.8
		l0.1,0.2l0,0.1l0.1,0.2l0.1,0.1l0.1,0.1l0.1,0.1l0.1,0.1l0.1,0.1l0.1,0.1l0.1,0.1l0.1,0.1l0.2,0.1l0.1,0.1l0.2,0.1l0.1,0.1l0.2,0
		v2.6v0.1l0,0.1l0.1,0.1l0.1,0.1l0.1,0.1l0.1,0.1l0.1,0h0.1h0.1l0.1,0l0.1-0.1l0.1-0.1l0.1-0.1l0.1-0.1l0-0.1v-0.1v-2.6l0.2,0
		l0.2-0.1l0.1-0.1l0.1-0.1l0.2-0.1l0.1-0.1l0.1-0.1l0.1-0.1l0.1-0.1l0.1-0.1l0.1-0.1l0.1-0.1l0.1-0.1l0.1-0.2l0-0.1l0.1-0.2h8.8v0.6
		v0.1l0,0.1l0.1,0.1l0.1,0.1l0.1,0.1l0.1,0l0.1,0l0.1,0l0.1,0l0.1,0l0.1,0l0.1-0.1l0.1-0.1l0-0.1l0-0.1l0-0.1v-1.2l0-0.1l0-0.1
		l0-0.1l-0.1-0.1l-0.1-0.1l-0.1-0.1l-0.1,0l-0.1,0h-9.5l-0.1-0.2l0-0.2l-0.1-0.1l-0.1-0.2l-0.1-0.1l-0.1-0.1l-0.1-0.1l-0.1-0.1
		l-0.1-0.1l-0.1-0.1l-0.1-0.1l-0.2-0.1l-0.1-0.1l-0.1-0.1l-0.2-0.1l-0.2,0v-2.6h6.9h0.3l0.3,0l0.3,0l0.3,0l0.3-0.1l0.3-0.1l0.3-0.1
		l0.2-0.1l0.3-0.1l0.2-0.1l0.3-0.2l0.2-0.1l0.2-0.2l0.2-0.2l0.2-0.2l0.2-0.2l0.2-0.2l0.2-0.2l0.2-0.2l0.2-0.2l0.1-0.2l0.1-0.2
		l0.1-0.3l0.1-0.3l0.1-0.3l0.1-0.3l0.1-0.3l0.1-0.3l0.1-0.3l0-0.3l0-0.3v-0.3v-0.3l0-0.3l0-0.3l0-0.3l0-0.2l-0.1-0.3l-0.1-0.2
		l-0.1-0.3l-0.1-0.3l-0.1-0.2l-0.1-0.2l-0.1-0.2l-0.1-0.2l-0.2-0.2l-0.1-0.2l-0.2-0.2l-0.2-0.2l-0.2-0.2l-0.2-0.2l-0.2-0.2l-0.2-0.2
		l-0.2-0.1l-0.2-0.1l-0.2-0.1l-0.2-0.1l-0.3-0.1l-0.2-0.1l-0.3-0.1l-0.2-0.1l-0.3,0l-0.3,0l-0.3,0l-0.1-0.3l-0.1-0.3l-0.1-0.3
		l-0.1-0.3l-0.2-0.3l-0.2-0.3l-0.2-0.2l-0.2-0.2l-0.3-0.2l-0.3-0.2L244,37l-0.3-0.1l-0.3-0.1l-0.3-0.1l-0.3,0l-0.4,0l-0.2,0l-0.2,0
		l-0.3-0.4l-0.3-0.3l-0.3-0.3l-0.3-0.3l-0.3-0.3l-0.3-0.3l-0.4-0.2l-0.4-0.2l-0.4-0.2l-0.4-0.2l-0.4-0.1l-0.4-0.1l-0.4-0.1l-0.4-0.1
		l-0.4,0l-0.4,0h-0.3l-0.3,0l-0.3,0l-0.3,0l-0.3,0.1l-0.3,0.1l-0.3,0.1l-0.3,0.1l-0.3,0.1l-0.3,0.1l-0.3,0.1l-0.3,0.1l-0.2,0.1
		l-0.3,0.2l-0.2,0.2l-0.2,0.2l-0.2,0.2l-0.2,0.2l-0.2,0.2l-0.2,0.2l-0.2,0.2l-0.2,0.2l-0.2,0.2l-0.1,0.2l-0.2,0.2l-0.2,0.3l-0.1,0.3
		l-0.1,0.3l-0.1,0.3l-0.1,0.3l-0.1,0.3l-0.1,0.3l-0.3,0.1l-0.2,0.1l-0.3,0.1l-0.2,0.1l-0.2,0.1l-0.2,0.1l-0.2,0.1l-0.2,0.1l-0.2,0.1
		l-0.2,0.2l-0.2,0.2l-0.2,0.2l-0.2,0.2l-0.2,0.2l-0.2,0.2l-0.2,0.2l-0.1,0.2l-0.2,0.2l-0.1,0.2l-0.1,0.2l-0.1,0.2l-0.1,0.2l-0.1,0.2
		l-0.1,0.3l-0.1,0.2l-0.1,0.3l-0.1,0.3l0,0.2l0,0.3l0,0.3l0,0.3v0.3v0.3l0,0.3l0,0.3l0,0.3l0.1,0.3l0.1,0.3l0.1,0.3l0.1,0.3l0.1,0.3
		l0.1,0.3l0.1,0.3l0.2,0.3l0.2,0.2l0.2,0.2l0.2,0.2l0.2,0.2l0.2,0.2l0.2,0.2l0.2,0.2l0.3,0.2l0.2,0.2l0.3,0.2l0.3,0.1l0.3,0.1
		l0.3,0.1l0.3,0.1l0.3,0.1l0.3,0l0.3,0.1l0.3,0l0.3,0H231.1L231.1,51.1L231.1,51.1z M239.2,56.2v0.1l0,0.1l0,0.1l0,0.1l-0.1,0.1
		l-0.1,0.1l0,0.1l-0.1,0.1l-0.1,0.1l-0.1,0.1l-0.1,0.1l-0.1,0l-0.1,0l-0.1,0l-0.1,0H238h-0.1l-0.1,0l-0.1,0l-0.1,0l-0.1,0l-0.1-0.1
		l-0.1-0.1l-0.1-0.1L237,57l0-0.1l-0.1-0.1l-0.1-0.1l0-0.1l0-0.1l0-0.1l0-0.1l0-0.1l0-0.1l0-0.1l0-0.1l0.1-0.1l0.1-0.1l0-0.1
		l0.1-0.1l0.1-0.1l0.1-0.1l0.1,0l0.1-0.1l0.1,0l0.1,0l0.1,0h0.1h0.1l0.1,0l0.1,0l0.1,0l0.1,0.1l0.1,0l0.1,0.1l0.1,0.1l0.1,0.1l0,0.1
		l0.1,0.1l0.1,0.1l0,0.1l0,0.1l0,0.1V56.2L239.2,56.2L239.2,56.2z M230.1,39.9L230.1,39.9l0.2-0.1l0.1,0l0.1-0.1l0.1-0.1l0-0.1
		l0-0.1l0-0.1l0-0.2l0.1-0.3l0.1-0.2l0.1-0.2l0.1-0.2L231,38l0.1-0.2l0.1-0.2l0.1-0.2l0.1-0.2l0.1-0.2l0.2-0.2l0.2-0.2l0.2-0.2
		l0.2-0.2l0.2-0.2l0.2-0.1l0.2-0.1l0.2-0.1l0.2-0.1l0.2-0.1l0.2-0.1l0.2-0.1l0.2-0.1l0.2-0.1l0.2-0.1l0.3,0l0.2,0l0.3,0l0.3,0l0.2,0
		h0.3l0.4,0l0.4,0l0.4,0l0.4,0.1l0.3,0.1l0.3,0.1l0.3,0.1l0.3,0.2l0.3,0.2l0.3,0.2l0.3,0.2l0.3,0.3l0.3,0.3l0.2,0.3l0.2,0.3l0.2,0.3
		l0,0.1l0.1,0.1l0.1,0.1l0.1,0l0.1,0l0.1,0h0.1l0.1,0l0.2,0l0.1,0l0.2,0h0.1l0.3,0l0.3,0l0.2,0l0.2,0.1l0.2,0.1l0.2,0.1l0.2,0.2
		l0.2,0.2l0.2,0.2l0.1,0.2l0.1,0.2l0.1,0.2l0.1,0.2l0,0.3l0,0.2l0,0.3v0.1l0,0.1l0.1,0.1l0.1,0.1l0.1,0.1l0.1,0.1l0.1,0h0.1h0.2
		l0.2,0l0.2,0l0.2,0l0.2,0l0.2,0.1l0.2,0l0.2,0.1l0.2,0.1l0.2,0.1l0.2,0.1l0.2,0.1l0.2,0.1l0.2,0.1l0.2,0.1l0.2,0.1l0.1,0.2l0.2,0.1
		l0.1,0.2l0.1,0.2l0.1,0.2l0.1,0.2l0.1,0.2l0.1,0.2l0.1,0.2l0.1,0.2l0.1,0.2l0,0.2l0.1,0.2l0,0.2l0,0.2v0.2v0.2l0,0.2l0,0.2
		l-0.1,0.2l0,0.2l-0.1,0.2l-0.1,0.2l-0.1,0.2l-0.1,0.2l-0.1,0.2l-0.1,0.2l-0.1,0.2l-0.1,0.2l-0.1,0.2l-0.2,0.1l-0.1,0.2l-0.2,0.1
		l-0.2,0.1l-0.2,0.1l-0.2,0.1l-0.2,0.1l-0.2,0.1l-0.2,0.1l-0.2,0.1l-0.2,0.1l-0.2,0.1l-0.2,0l-0.2,0l-0.2,0l-0.2,0l-0.2,0h-0.2
		h-14.4h-0.2l-0.3,0l-0.2,0l-0.3,0l-0.2-0.1l-0.2-0.1l-0.3-0.1l-0.2-0.1l-0.2-0.1l-0.2-0.1l-0.2-0.1l-0.2-0.1l-0.2-0.1l-0.2-0.1
		l-0.2-0.2l-0.2-0.2l-0.2-0.2l-0.2-0.2l-0.2-0.2l-0.1-0.2l-0.1-0.2l-0.1-0.2l-0.1-0.2l-0.1-0.2l-0.1-0.2l-0.1-0.2l-0.1-0.2l-0.1-0.2
		l0-0.3l0-0.3l0-0.2v-0.3v-0.2l0-0.2l0-0.2l0-0.2l0.1-0.4l0.1-0.4l0.2-0.4l0.2-0.4L227,42l0.3-0.3l0.3-0.3l0.3-0.3l0.3-0.3l0.4-0.2
		l0.4-0.2l0.4-0.2l0.2-0.1l0.2,0l0.2-0.1L230.1,39.9L230.1,39.9L230.1,39.9z"/>
</g>
<g>
	<g>
		<defs>
			<polygon id="SVGID_21_" points="23.5,324 64,324 64,283.5 23.5,283.5 23.5,324 			"/>
		</defs>
		<clipPath id="SVGID_22_">
			<use xlink:href="#SVGID_21_"  style="overflow:visible;"/>
		</clipPath>
		<g class="st27">
			<defs>
				<polygon id="SVGID_23_" points="23.5,324 64,324 64,283.5 23.5,283.5 23.5,324 				"/>
			</defs>
			<clipPath id="SVGID_24_">
				<use xlink:href="#SVGID_23_"  style="overflow:visible;"/>
			</clipPath>
			<path class="st28" d="M47.1,285.2v37.1H25.2v-37.1H47.1L47.1,285.2L47.1,285.2z M48.8,283.5H23.5V324h25.3V283.5L48.8,283.5
				L48.8,283.5z M62.3,285.2v37.1h-8.4v-37.1H62.3L62.3,285.2L62.3,285.2z M64,283.5H52.2V324H64V283.5L64,283.5L64,283.5z"/>
			<path class="st29" d="M47.1,285.2v37.1H25.2v-37.1H47.1L47.1,285.2L47.1,285.2z M48.8,283.5H23.5V324h25.3V283.5L48.8,283.5
				L48.8,283.5z M62.3,285.2v37.1h-8.4v-37.1H62.3L62.3,285.2L62.3,285.2z M64,283.5H52.2V324H64V283.5L64,283.5L64,283.5z"/>
			<path class="st28" d="M43.8,290.2v6.8H28.6v-6.8H43.8L43.8,290.2L43.8,290.2z M45.5,288.6H26.9v10.1h18.6V288.6L45.5,288.6
				L45.5,288.6z M59,288.6v1.7h-1.7v-1.7H59L59,288.6L59,288.6z M60.6,286.9h-5.1v5.1h5.1V286.9L60.6,286.9L60.6,286.9z M59,295.3
				v1.7h-1.7v-1.7H59L59,295.3L59,295.3z M60.6,293.6h-5.1v5.1h5.1V293.6L60.6,293.6L60.6,293.6z M59,302.1v1.7h-1.7v-1.7H59
				L59,302.1L59,302.1z M60.6,300.4h-5.1v5.1h5.1V300.4L60.6,300.4L60.6,300.4z M59,308.8v1.7h-1.7v-1.7H59L59,308.8L59,308.8z
				 M60.6,307.1h-5.1v5.1h5.1V307.1L60.6,307.1L60.6,307.1z M59,315.6v1.7h-1.7v-1.7H59L59,315.6L59,315.6z M60.6,313.9h-5.1v5.1
				h5.1V313.9L60.6,313.9L60.6,313.9z"/>
			<path class="st29" d="M43.8,290.2v6.8H28.6v-6.8H43.8L43.8,290.2L43.8,290.2z M45.5,288.6H26.9v10.1h18.6V288.6L45.5,288.6
				L45.5,288.6z M59,288.6v1.7h-1.7v-1.7H59L59,288.6L59,288.6z M60.6,286.9h-5.1v5.1h5.1V286.9L60.6,286.9L60.6,286.9z M59,295.3
				v1.7h-1.7v-1.7H59L59,295.3L59,295.3z M60.6,293.6h-5.1v5.1h5.1V293.6L60.6,293.6L60.6,293.6z M59,302.1v1.7h-1.7v-1.7H59
				L59,302.1L59,302.1z M60.6,300.4h-5.1v5.1h5.1V300.4L60.6,300.4L60.6,300.4z M59,308.8v1.7h-1.7v-1.7H59L59,308.8L59,308.8z
				 M60.6,307.1h-5.1v5.1h5.1V307.1L60.6,307.1L60.6,307.1z M59,315.6v1.7h-1.7v-1.7H59L59,315.6L59,315.6z M60.6,313.9h-5.1v5.1
				h5.1V313.9L60.6,313.9L60.6,313.9z"/>
		</g>
	</g>
</g>
</svg>
