<?xml version="1.0" encoding="utf-8"?>
<!-- Generator: Adobe Illustrator 21.0.0, SVG Export Plug-In . SVG Version: 6.00 Build 0)  -->
<svg version="1.1" id="Layer_1" xmlns="http://www.w3.org/2000/svg" xmlns:xlink="http://www.w3.org/1999/xlink" x="0px" y="0px"
	 viewBox="0 0 850 448" style="enable-background:new 0 0 850 448;" xml:space="preserve">
<style type="text/css">
	.st0{opacity:0.502;fill:#999999;enable-background:new    ;}
	.st1{fill:#B3B3B3;}
	.st2{fill:none;}
	.st3{font-family:'ArialMT';}
	.st4{font-size:14px;}
	.st5{fill:none;stroke:#00FFFF;stroke-width:2;stroke-miterlimit:8;}
	.st6{fill:none;stroke:#00FFFF;stroke-width:2;stroke-miterlimit:8;stroke-dasharray:10.6429,10.6429;}
	.st7{font-size:18px;}
	.st8{fill:none;stroke:#29ABE2;stroke-width:2;stroke-miterlimit:8;}
	.st9{fill:none;stroke:#39B54A;stroke-width:2;stroke-miterlimit:8;}
	.st10{fill:none;stroke:#8CC63F;stroke-width:2;stroke-miterlimit:8;}
</style>
<polygon class="st0" points="318.4,287.1 510.9,287.1 510.9,355.7 318.4,355.7 "/>
<path class="st1" d="M434.1,90.1l-0.1-0.8l-0.2-0.8l-0.1-0.8l-0.3-0.7l-0.3-0.8l-0.2-0.7l-0.3-0.7l-0.3-0.8l-0.4-0.6l-0.4-0.6
	l-0.4-0.6l-0.4-0.5l-0.5-0.6l-0.5-0.5l-0.5-0.6l-0.6-0.5l-0.5-0.5l-0.6-0.4l-0.6-0.4l-0.6-0.4l-0.6-0.4L425,77l-0.7-0.3l-0.7-0.3
	l-0.8-0.3l-0.7-0.3l-0.8-0.2l-0.8-0.2l-0.8-0.1l-0.8-0.2L418,75h-0.8l-0.5-0.9l-0.5-0.9l-0.5-0.8l-0.6-0.9l-1.2-1.6l-1.3-1.4
	l-1.4-1.3l-1.6-1.2l-1.5-1.1l-1.7-1l-1.7-0.9l-1.7-0.8l-1.9-0.7l-1.9-0.5l-1.9-0.5l-1.9-0.3l-1-0.1l-1-0.1l-1.1-0.1h-0.9H390
	l-1.4,0.2l-1.4,0.1l-1.4,0.3l-1.3,0.3l-1.3,0.4l-1.3,0.4l-1.3,0.5l-1.3,0.5l-1.2,0.6l-1.2,0.6l-1.1,0.7l-1.2,0.7l-1.1,0.8l-1,0.9
	l-1,0.9l-1.1,0.9l-0.9,1l-0.9,1l-0.9,1.1l-0.8,1l-0.8,1.1l-0.7,1.1l-0.6,1.2l-0.5,1.2l-0.6,1.2l-0.5,1.3l-0.4,1.3l-0.4,1.3l-0.3,1.3
	l-0.3,1.3l-0.3,1.4l-1,0.3l-1,0.4l-1,0.3l-1,0.5l-1,0.4l-1,0.4l-0.9,0.6l-0.9,0.5l-0.9,0.6l-0.9,0.6l-0.8,0.7l-0.8,0.6l-0.8,0.8
	L349,94l-0.7,0.8l-0.8,0.8l-0.5,0.9l-0.6,0.8l-0.6,0.9l-0.5,0.9l-0.4,1l-0.4,1l-0.5,1l-0.4,1l-0.3,1l-0.3,1l-0.3,1l-0.2,1.1
	l-0.2,1.1l-0.1,1.1l-0.1,1.1v1.1v1.3l0.1,1.3l0.2,1.3l0.2,1.3l0.3,1.2l0.4,1.2l0.4,1.2l0.5,1.1l0.5,1.2l0.6,1.1l0.6,1.1l0.6,1l0.8,1
	l0.8,1l0.8,1l0.9,0.9l0.9,0.9l1,0.9l1,0.8l1,0.7l1.1,0.6l1.1,0.6l1.1,0.6l1.2,0.5l1.1,0.5l1.2,0.4l1.2,0.4l1.2,0.3l1.3,0.3l1.3,0.1
	l1.3,0.1h1.3H381h0.4l0.4-0.1l0.3-0.2l0.3-0.2l0.3-0.3l0.2-0.4l0.1-0.4l0.1-0.4v-15l-0.1-0.4l-0.1-0.4l-0.2-0.4l-0.3-0.3l-0.3-0.2
	l-0.3-0.2l-0.4-0.1l-0.4-0.1h-4.4l12.9-17.8l12.9,17.8h-4.3l-0.4,0.1l-0.4,0.1l-0.4,0.2l-0.3,0.2l-0.2,0.3l-0.2,0.4l-0.1,0.4v0.4v15
	V148h-6.5l-0.3,0.1l-0.3,0.1l-0.3,0.1l-0.2,0.1l-0.3,0.2l-0.2,0.2l-0.2,0.3l-0.2,0.3l-0.1,0.3l-0.1,0.3l-0.1,0.3v0.3l0.1,0.3
	l0.1,0.3l0.1,0.3l0.2,0.3l17.2,23.6l0.3,0.4l0.4,0.3l0.5,0.2l0.5,0.1l0.5-0.1l0.4-0.2l0.4-0.3l0.4-0.4l17.1-23.6l0.2-0.3l0.1-0.3
	l0.1-0.3l0.1-0.3v-0.3l-0.1-0.3l-0.1-0.3l-0.1-0.3l-0.2-0.3l-0.2-0.3l-0.3-0.2l-0.2-0.2l-0.2-0.1l-0.3-0.1l-0.3-0.1l-0.3-0.1h-6.4
	v-10.7h15h1.2l1.1-0.1l1.2-0.1l1.2-0.2l1.1-0.3l1.1-0.3l1.1-0.4l1.1-0.4l1-0.5l1-0.5l1-0.6l1-0.6l1-0.6l0.9-0.7l0.8-0.7l0.9-0.9
	l0.8-0.8l0.8-0.9l0.6-0.9l0.7-0.9l0.6-1l0.5-1l0.5-1l0.5-1.1l0.4-1.1l0.4-1.1l0.3-1.2l0.3-1.1l0.2-1.2l0.2-1.2l0.1-1.2l0.1-1.2
	l-0.1-1.1l-0.1-1.2l-0.2-1.1l-0.2-1.2l-0.3-1.1l-0.3-1l-0.3-1l-0.4-1l-0.4-1l-0.5-1l-0.5-1l-0.6-1l-0.6-0.9l-0.6-0.9l-0.7-0.8
	l-0.7-0.9l-0.8-0.8l-0.8-0.7l-0.8-0.7l-0.9-0.6l-0.8-0.6l-0.9-0.6l-1-0.6l-1-0.5l-1-0.5l-1-0.4l-1-0.3l-1-0.3l-1.1-0.3l-1.1-0.2
	l-1.1-0.2L434.1,90.1L434.1,90.1L434.1,90.1z M432.1,133H415l-0.5,0.1l-0.4,0.2l-0.3,0.2l-0.3,0.3l-0.3,0.3l-0.2,0.4l-0.2,0.4
	l-0.1,0.4v15l0.1,0.4l0.2,0.4l0.2,0.4l0.3,0.3l0.3,0.2l0.3,0.2l0.4,0.1h0.5h4.3l-13,17.9l-12.9-17.9h4.3h0.5l0.4-0.1l0.4-0.2
	l0.3-0.2l0.3-0.3l0.2-0.4l0.2-0.4v-0.4v-15v-12.9h6.4h0.3l0.3-0.1l0.3-0.1l0.3-0.1l0.3-0.2l0.2-0.2l0.2-0.3l0.2-0.3l0.1-0.3l0.2-0.3
	v-0.3v-0.3l-0.1-0.2l-0.1-0.3l-0.1-0.3l-0.1-0.3L391,95.2l-0.3-0.3l-0.4-0.3l-0.5-0.2h-0.5h-0.5l-0.5,0.2l-0.4,0.3l-0.4,0.3
	l-17.2,23.6l-0.2,0.3l-0.1,0.3l-0.1,0.3v0.2v0.3v0.3l0.1,0.3l0.2,0.3l0.2,0.3l0.2,0.3l0.2,0.2l0.2,0.2l0.3,0.1l0.3,0.1l0.3,0.1h0.3
	h6.4V133h-10.7h-1.1l-1.1-0.1l-1.1-0.1l-1-0.2l-1-0.3l-1-0.3l-1-0.3l-1-0.4l-1-0.4l-0.9-0.5l-0.9-0.5l-0.9-0.6l-0.9-0.6l-0.8-0.6
	l-0.9-0.6l-0.7-0.8L352,126l-0.7-0.8l-0.6-0.9l-0.6-0.9l-0.6-0.9l-0.5-0.9l-0.5-0.9l-0.4-1l-0.4-1l-0.3-1l-0.3-1l-0.2-1.1l-0.2-1
	l-0.2-1.1l-0.1-1.1v-1.1v-1l0.1-1l0.1-1l0.2-0.9l0.2-1l0.2-0.9l0.3-0.9l0.3-0.9l0.4-0.9l0.3-0.8l0.4-0.9l0.5-0.8l0.4-0.9l0.5-0.7
	l0.5-0.8l0.6-0.7l0.6-0.7l0.6-0.6l0.6-0.6l0.7-0.6l0.7-0.6l0.7-0.5l0.8-0.5l0.8-0.5l0.9-0.4l0.8-0.4l0.9-0.4l0.9-0.4l0.9-0.3
	l0.9-0.2l1-0.3l0.9-0.2l0.4-0.1l0.3-0.1L365,90l0.3-0.3l0.2-0.3l0.1-0.3l0.2-0.4l0.1-0.3l0.1-1.3l0-1.1l0.3-1.2l0.2-1.2l0.3-1.1
	l0.5-1.2l0.4-1.1l0.5-1.1l0.5-1.1l0.6-1l0.6-1l0.7-1l0.7-1l0.8-0.9l0.8-0.9l0.9-0.8l0.8-0.9l1-0.7l1-0.8l1-0.6l1-0.6l1-0.6l1.1-0.5
	l1.1-0.5l1.2-0.4l1.1-0.4l1.2-0.3l1.2-0.3l1.2-0.2l1.3-0.1l1.2-0.1h1.3l1.8,0.1l1.7,0.2l1.8,0.3l1.7,0.4l1.7,0.5l1.6,0.6l1.6,0.8
	l1.4,0.9l1.5,1l1.3,1l1.3,1.2l1.2,1.2l1.1,1.3l1.1,1.5l1,1.5l0.9,1.6l0.2,0.3l0.2,0.2l0.3,0.3l0.3,0.2l0.3,0.1l0.3,0.1h0.3h0.3h0.2
	h0.3h0.3h0.6l0.6,0.1l0.6,0.1l0.6,0.1l1.2,0.3l1.2,0.4l1.1,0.6l1.1,0.6l1,0.8l1,0.9l0.9,0.9l0.7,1l0.6,1.1l0.5,1.1l0.4,1.2l0.3,1.2
	l0.1,0.6l0.1,0.6l0.1,0.6l0.1,0.6v0.4l0.1,0.4l0.2,0.4l0.2,0.3l0.3,0.3l0.4,0.2l0.4,0.1l0.4,0.1h1l1,0.1l1,0.1l0.9,0.2l1,0.2
	l0.9,0.3l0.9,0.3l0.9,0.3l0.9,0.4l0.8,0.4l0.9,0.5L443,98l0.8,0.6l0.8,0.6l0.7,0.6l0.7,0.6l0.6,0.6l0.6,0.7l0.5,0.8l0.5,0.7l0.5,0.9
	l0.5,0.8l0.4,0.9l0.4,0.9l0.4,0.9l0.2,0.9l0.3,1l0.3,0.9l0.1,1l0.2,1l0.1,1l0.1,1l-0.1,1l-0.1,1l-0.2,1l-0.1,1l-0.3,1l-0.3,0.9
	l-0.2,0.9l-0.4,0.9l-0.4,0.9l-0.4,0.8l-0.5,0.9l-0.5,0.8l-0.5,0.8L447,126l-0.6,0.7l-0.6,0.6l-0.7,0.6l-0.7,0.6l-0.8,0.6l-0.8,0.5
	l-0.8,0.5l-0.9,0.4l-0.8,0.5l-0.9,0.4l-0.9,0.3l-0.9,0.3l-0.9,0.3l-1,0.2l-0.9,0.2l-1,0.1l-1,0.1L432.1,133L432.1,133L432.1,133z"/>
<polygon class="st0" points="374.3,262.4 393.2,262.4 393.2,285.3 374.3,285.3 "/>
<polygon class="st0" points="373.5,357.3 392.4,357.3 392.4,379.4 373.5,379.4 "/>
<polygon class="st0" points="420.9,263.4 440.7,263.4 440.7,285.5 420.9,285.5 "/>
<polygon class="st0" points="420.9,357.9 440.7,357.9 440.7,380 420.9,380 "/>
<path class="st1" d="M737.7,191.1l-0.1-0.8l-0.2-0.8l-0.1-0.8L737,188l-0.3-0.8l-0.2-0.7l-0.3-0.7l-0.3-0.8l-0.4-0.6l-0.4-0.6
	l-0.4-0.6l-0.4-0.5l-0.5-0.6l-0.5-0.5l-0.5-0.6l-0.6-0.5l-0.5-0.5l-0.6-0.4l-0.6-0.4l-0.6-0.4l-0.6-0.4l-0.7-0.4l-0.7-0.3l-0.7-0.3
	l-0.8-0.3l-0.7-0.3l-0.8-0.2l-0.8-0.2l-0.8-0.1l-0.8-0.2l-0.9-0.1h-0.8l-0.5-0.9l-0.5-0.9l-0.5-0.8l-0.6-0.9l-1.2-1.6l-1.3-1.4
	l-1.4-1.3l-1.6-1.2l-1.5-1.1l-1.7-1l-1.7-0.9l-1.7-0.8l-1.9-0.7l-1.9-0.5l-1.9-0.5l-1.9-0.3l-1-0.1l-1-0.1l-1.1-0.1H695h-1.4
	l-1.4,0.2l-1.4,0.1l-1.4,0.3l-1.3,0.3l-1.3,0.4l-1.3,0.4l-1.3,0.5l-1.3,0.5l-1.2,0.6l-1.2,0.6l-1.1,0.7l-1.2,0.7l-1.1,0.8l-1,0.9
	l-1,0.9l-1.1,0.9l-0.9,1l-0.9,1l-0.9,1.1l-0.8,1l-0.8,1.1L669,176l-0.6,1.2l-0.5,1.2l-0.6,1.2l-0.5,1.3l-0.4,1.3l-0.4,1.3l-0.3,1.3
	l-0.3,1.3l-0.3,1.4l-1,0.3l-1,0.4l-1,0.3l-1,0.5l-1,0.4l-1,0.4l-0.9,0.6l-0.9,0.5l-0.9,0.6l-0.9,0.6l-0.8,0.7l-0.8,0.6l-0.8,0.8
	l-0.7,0.8l-0.7,0.8l-0.8,0.8l-0.5,0.9l-0.6,0.8l-0.6,0.9l-0.5,0.9l-0.4,1l-0.4,1l-0.5,1l-0.4,1l-0.3,1l-0.3,1l-0.3,1l-0.2,1.1
	l-0.2,1.1l-0.1,1.1l-0.1,1.1v1.1v1.3l0.1,1.3l0.2,1.3l0.2,1.3l0.3,1.2l0.4,1.2l0.4,1.2l0.5,1.1l0.5,1.2l0.6,1.1l0.6,1.1l0.6,1l0.8,1
	l0.8,1l0.8,1l0.9,0.9l0.9,0.9l1,0.9l1,0.8l1,0.7l1.1,0.6l1.1,0.6l1.1,0.6l1.2,0.5l1.1,0.5l1.2,0.4l1.2,0.4l1.2,0.3l1.3,0.3l1.3,0.1
	l1.3,0.1h1.3h12.9h0.4l0.4-0.1l0.3-0.2l0.3-0.2l0.3-0.3l0.2-0.4l0.1-0.4l0.1-0.4v-15l-0.1-0.4l-0.1-0.4l-0.2-0.4l-0.3-0.3l-0.3-0.2
	l-0.3-0.2l-0.4-0.1l-0.4-0.1H680l12.9-17.8l12.9,17.8h-4.3l-0.4,0.1l-0.4,0.1l-0.4,0.2L700,220l-0.2,0.3l-0.2,0.4l-0.1,0.4v0.4v15
	V249H693l-0.3,0.1l-0.3,0.1l-0.3,0.1l-0.2,0.1l-0.3,0.2l-0.2,0.2l-0.2,0.3l-0.2,0.3l-0.1,0.3l-0.1,0.3l-0.1,0.3v0.3l0.1,0.3l0.1,0.3
	l0.1,0.3l0.2,0.3l17.2,23.6l0.3,0.4l0.4,0.3l0.5,0.2l0.5,0.1l0.5-0.1l0.4-0.2l0.4-0.3l0.4-0.4l17.1-23.6l0.2-0.3l0.1-0.3l0.1-0.3
	l0.1-0.3v-0.3l-0.1-0.3l-0.1-0.3l-0.1-0.3l-0.2-0.3l-0.2-0.3l-0.3-0.2l-0.2-0.2l-0.2-0.1l-0.3-0.1l-0.3-0.1l-0.3-0.1h-6.4v-10.7h15
	h1.2l1.1-0.1l1.2-0.1l1.2-0.2l1.1-0.3l1.1-0.3l1.1-0.4l1.1-0.4l1-0.5l1-0.5l1-0.6l1-0.6l1-0.6l0.9-0.7l0.8-0.7l0.9-0.9l0.8-0.8
	l0.8-0.9l0.6-0.9l0.7-0.9l0.6-1l0.5-1l0.5-1l0.5-1.1l0.4-1.1l0.4-1.1l0.3-1.2l0.3-1.1l0.2-1.2l0.2-1.2l0.1-1.2l0.1-1.2l-0.1-1.1
	l-0.1-1.2l-0.2-1.1l-0.2-1.2l-0.3-1.1l-0.3-1l-0.3-1l-0.4-1l-0.4-1l-0.5-1l-0.5-1l-0.6-1l-0.6-0.9l-0.6-0.9l-0.7-0.8l-0.7-0.9
	l-0.8-0.8l-0.8-0.7l-0.8-0.7l-0.9-0.6l-0.8-0.6l-0.9-0.6l-1-0.6l-1-0.5l-1-0.5l-1-0.4l-1-0.3l-1-0.3l-1.1-0.3l-1.1-0.2l-1.1-0.2
	L737.7,191.1z M735.7,234h-17.1l-0.5,0.1l-0.4,0.2l-0.3,0.2l-0.3,0.3l-0.3,0.3l-0.2,0.4l-0.2,0.4l-0.1,0.4v15l0.1,0.4l0.2,0.4
	l0.2,0.4l0.3,0.3l0.3,0.2l0.3,0.2l0.4,0.1h0.5h4.3l-13,17.9L697,253.3h4.3h0.5l0.4-0.1l0.4-0.2l0.3-0.2l0.3-0.3l0.2-0.4l0.2-0.4
	v-0.4v-15v-12.9h6.4h0.3l0.3-0.1l0.3-0.1l0.3-0.1l0.3-0.2l0.2-0.2l0.2-0.3l0.2-0.3l0.1-0.3l0.2-0.3v-0.3v-0.3l-0.1-0.2l-0.1-0.3
	l-0.1-0.3l-0.1-0.3l-17.2-23.6l-0.3-0.3l-0.4-0.3l-0.5-0.2h-0.5h-0.5l-0.5,0.2l-0.4,0.3l-0.4,0.3l-17.2,23.6l-0.2,0.3l-0.1,0.3
	l-0.1,0.3v0.2v0.3v0.3l0.1,0.3l0.2,0.3l0.2,0.3l0.2,0.3l0.2,0.2l0.2,0.2l0.3,0.1l0.3,0.1l0.3,0.1h0.3h6.4V234h-10.7h-1.1l-1.1-0.1
	l-1.1-0.1l-1-0.2l-1-0.3l-1-0.3l-1-0.3l-1-0.4l-1-0.4l-0.9-0.5l-0.9-0.5l-0.9-0.6l-0.9-0.6l-0.8-0.6l-0.9-0.6l-0.7-0.8l-0.7-0.7
	l-0.7-0.8l-0.6-0.9l-0.6-0.9l-0.6-0.9l-0.5-0.9l-0.5-0.9l-0.4-1l-0.4-1l-0.3-1l-0.3-1l-0.2-1.1l-0.2-1l-0.2-1.1l-0.1-1.1v-1.1v-1
	l0.1-1l0.1-1l0.2-0.9l0.2-1l0.2-0.9l0.3-0.9l0.3-0.9l0.4-0.9l0.3-0.8l0.4-0.9l0.5-0.8l0.4-0.9l0.5-0.7l0.5-0.8l0.6-0.7l0.6-0.7
	l0.6-0.6l0.6-0.6l0.7-0.6l0.7-0.6l0.7-0.5l0.8-0.5l0.8-0.5l0.9-0.4l0.8-0.4l0.9-0.4l0.9-0.4l0.9-0.3l0.9-0.2l1-0.3l0.9-0.2l0.4-0.1
	l0.3-0.1l0.3-0.2l0.3-0.3l0.2-0.3l0.1-0.3l0.2-0.4l0.1-0.3l0.1-1.3l0.2-1.2l0.3-1.2l0.2-1.2l0.3-1.1l0.5-1.2l0.4-1.1l0.5-1.1
	l0.5-1.1l0.6-1l0.6-1l0.7-1l0.7-1l0.8-0.9l0.8-0.9l0.9-0.8l0.8-0.9l1-0.7l1-0.8l1-0.6l1-0.6l1-0.6l1.1-0.5l1.1-0.5l1.2-0.4l1.1-0.4
	l1.2-0.3l1.2-0.3l1.2-0.2l1.3-0.1l1.2-0.1h1.3l1.8,0.1l1.7,0.2l1.8,0.3l1.7,0.4l1.7,0.5l1.6,0.6l1.6,0.8l1.4,0.9l1.5,1l1.3,1
	l1.3,1.2l1.2,1.2l1.1,1.3l1.1,1.5l1,1.5l0.9,1.6l0.2,0.3l0.2,0.2l0.3,0.3l0.3,0.2l0.3,0.1l0.3,0.1h0.3h0.3h0.2h0.3h0.3h0.6l0.6,0.1
	l0.6,0.1l0.6,0.1l1.2,0.3l1.2,0.4l1.1,0.6l1.1,0.6l1,0.8l1,0.9l0.9,0.9l0.7,1l0.6,1.1l0.5,1.1l0.4,1.2l0.3,1.2l0.1,0.6l0.1,0.6
	l0.1,0.6l0.1,0.6v0.4l0.1,0.4l0.2,0.4l0.2,0.3l0.3,0.3l0.4,0.2l0.4,0.1l0.4,0.1h1l1,0.1l1,0.1l0.9,0.2l1,0.2l0.9,0.3l0.9,0.3
	l0.9,0.3l0.9,0.4l0.8,0.4l0.9,0.5l0.8,0.5l0.8,0.6l0.8,0.6l0.7,0.6l0.7,0.6l0.6,0.6l0.6,0.7l0.5,0.8l0.5,0.7l0.5,0.9l0.5,0.8
	l0.4,0.9l0.4,0.9l0.4,0.9l0.2,0.9l0.3,1l0.3,0.9l0.1,1l0.2,1l0.1,1l0.1,1l-0.1,1l-0.1,1l-0.2,1l-0.1,1l-0.3,1l-0.3,0.9l-0.2,0.9
	l-0.4,0.9l-0.4,0.9l-0.4,0.8l-0.5,0.9l-0.5,0.8l-0.5,0.8l-0.5,0.7l-0.6,0.7l-0.6,0.6l-0.7,0.6l-0.7,0.6l-0.8,0.6l-0.8,0.5l-0.8,0.5
	l-0.9,0.4l-0.8,0.5l-0.9,0.4l-0.9,0.3l-0.9,0.3l-0.9,0.3l-1,0.2l-0.9,0.2l-1,0.1l-1,0.1h-1.3V234L735.7,234z"/>
<path class="st1" d="M189.6,188.1l-0.1-0.8l-0.2-0.8l-0.1-0.8l-0.3-0.7l-0.3-0.8l-0.2-0.7l-0.3-0.7l-0.3-0.8l-0.4-0.6l-0.4-0.6
	l-0.4-0.6l-0.4-0.5l-0.5-0.6l-0.5-0.5l-0.5-0.6l-0.6-0.5l-0.5-0.5l-0.6-0.4l-0.6-0.4l-0.6-0.4l-0.6-0.4l-0.7-0.4l-0.7-0.3l-0.7-0.3
	l-0.8-0.3l-0.7-0.3l-0.8-0.2l-0.8-0.2l-0.8-0.1l-0.8-0.2l-0.9-0.1h-0.8l-0.5-0.9l-0.5-0.9l-0.5-0.8l-0.6-0.9l-1.2-1.6l-1.3-1.4
	l-1.4-1.3l-1.6-1.2l-1.5-1.1l-1.7-1l-1.7-0.9l-1.7-0.8l-1.9-0.7l-1.9-0.5l-1.9-0.5l-1.9-0.3l-1-0.1l-1-0.1l-1.1-0.1h-0.9h-1.4
	l-1.4,0.2l-1.4,0.1l-1.4,0.3l-1.3,0.3l-1.3,0.4l-1.3,0.4l-1.3,0.5l-1.3,0.5l-1.2,0.6l-1.2,0.6l-1.1,0.7l-1.2,0.7L129,164l-1,0.9
	l-1,0.9l-1.1,0.9l-0.9,1l-0.9,1l-0.9,1.1l-0.8,1l-0.8,1.1l-0.7,1.1l-0.6,1.2l-0.5,1.2l-0.6,1.2l-0.5,1.3l-0.4,1.3l-0.4,1.3l-0.3,1.3
	l-0.3,1.3l-0.3,1.4l-1,0.3l-1,0.4l-1,0.3l-1,0.5l-1,0.4l-1,0.4l-0.9,0.6l-0.9,0.5l-0.9,0.6l-0.9,0.6l-0.8,0.7l-0.8,0.6l-0.8,0.8
	l-0.7,0.8l-0.7,0.8l-0.8,0.8l-0.5,0.9l-0.6,0.8l-0.6,0.9l-0.5,0.9l-0.4,1l-0.4,1l-0.5,1l-0.4,1l-0.3,1l-0.3,1l-0.3,1l-0.2,1.1
	l-0.2,1.1l-0.1,1.1l-0.1,1.1v1.1v1.3l0.1,1.3l0.2,1.3l0.2,1.3l0.3,1.2l0.4,1.2l0.4,1.2l0.5,1.1l0.5,1.2l0.6,1.1l0.6,1.1l0.6,1l0.8,1
	l0.8,1l0.8,1l0.9,0.9l0.9,0.9l1,0.9l1,0.8l1,0.7l1.1,0.6l1.1,0.6l1.1,0.6l1.2,0.5l1.1,0.5l1.2,0.4l1.2,0.4l1.2,0.3l1.3,0.3l1.3,0.1
	l1.3,0.1h1.3h12.9h0.4l0.4-0.1l0.3-0.2l0.3-0.2l0.3-0.3l0.2-0.4l0.1-0.4l0.1-0.4v-15l-0.1-0.4l-0.1-0.4l-0.2-0.4l-0.3-0.3l-0.3-0.2
	l-0.3-0.2l-0.4-0.1l-0.4-0.1h-4.4l12.9-17.8l12.9,17.8h-4.3l-0.4,0.1l-0.4,0.1l-0.4,0.2l-0.3,0.2l-0.2,0.3l-0.2,0.4l-0.1,0.4v0.4v15
	V246h-6.5l-0.3,0.1l-0.3,0.1l-0.3,0.1l-0.2,0.1l-0.3,0.2l-0.2,0.2L143,247l-0.2,0.3l-0.1,0.3l-0.1,0.3l-0.1,0.3v0.3l0.1,0.3l0.1,0.3
	l0.1,0.3l0.2,0.3l17.2,23.6l0.3,0.4l0.4,0.3l0.5,0.2l0.5,0.1l0.5-0.1l0.4-0.2l0.4-0.3l0.4-0.4l17.1-23.6l0.2-0.3l0.1-0.3l0.1-0.3
	l0.1-0.3v-0.3l-0.1-0.3l-0.1-0.3l-0.1-0.3l-0.2-0.3l-0.2-0.3l-0.3-0.2l-0.2-0.2l-0.2-0.1l-0.3-0.1l-0.3-0.1l-0.2,0h-6.4v-10.7h15
	h1.2l1.1-0.1l1.2-0.1l1.2-0.2l1.1-0.3l1.1-0.3l1.1-0.4l1.1-0.4l1-0.5l1-0.5l1-0.6l1-0.6l1-0.6l0.9-0.7l0.8-0.7l0.9-0.9l0.8-0.8
	l0.8-0.9l0.6-0.9l0.7-0.9l0.6-1l0.5-1l0.5-1l0.5-1.1l0.4-1.1l0.4-1.1l0.3-1.2l0.3-1.1l0.2-1.2l0.2-1.2l0.1-1.2l0.1-1.2l-0.1-1.1
	l-0.1-1.2l-0.2-1.1l-0.2-1.2l-0.3-1.1l-0.3-1l-0.3-1l-0.4-1l-0.4-1l-0.5-1l-0.5-1l-0.6-1l-0.6-0.9l-0.6-0.9l-0.7-0.8l-0.7-0.9
	l-0.8-0.8l-0.8-0.7l-0.8-0.7l-0.9-0.6l-0.8-0.6l-0.9-0.6l-1-0.6l-1-0.5l-1-0.5l-1-0.4l-1-0.3l-1-0.3l-1.1-0.3l-1.1-0.2l-1.1-0.2
	L189.6,188.1L189.6,188.1L189.6,188.1z M187.6,231h-17.1H170l-0.4,0.2l-0.3,0.2l-0.3,0.3l-0.3,0.3l-0.2,0.4l-0.2,0.4l-0.1,0.4v15
	l0.1,0.4l0.2,0.4l0.2,0.4l0.3,0.3l0.3,0.2l0.3,0.2l0.4,0.1h0.5h4.3l-13,17.9l-12.9-17.9h4.3h0.5l0.4-0.1l0.4-0.2l0.3-0.2l0.3-0.3
	l0.2-0.4l0.2-0.4v-0.4v-15v-12.9h6.4h0.3l0.3-0.1l0.3-0.1l0.3-0.1l0.3-0.2l0.2-0.2l0.2-0.3l0.2-0.3l0.1-0.3l0.2-0.3v-0.3v-0.3
	l-0.1-0.2l-0.1-0.3L164,217l-0.1-0.3l-17.2-23.6l-0.3-0.3l-0.4-0.3l-0.5-0.2H145h-0.5l-0.5,0.2l-0.4,0.3l-0.4,0.3L126,216.7
	l-0.2,0.3l-0.1,0.3l-0.1,0.3v0.2v0.3v0.3l0.1,0.3l0.2,0.3l0.2,0.3l0.2,0.3l0.2,0.2l0.2,0.2l0.3,0.1l0.3,0.1l0.3,0.1h0.3h6.4V231
	h-10.7h-1.1l-1.1-0.1l-1.1-0.1l-1-0.2l-1-0.3l-1-0.3l-1-0.3l-1-0.4l-1-0.4l-0.9-0.5l-0.9-0.5l-0.9-0.6l-0.9-0.6l-0.8-0.6l-0.9-0.6
	l-0.7-0.8l-0.7-0.7l-0.7-0.8l-0.6-0.9l-0.6-0.9l-0.6-0.9l-0.5-0.9l-0.5-0.9l-0.4-1l-0.4-1l-0.3-1l-0.3-1l-0.2-1.1l-0.2-1l-0.2-1.1
	l-0.1-1.1v-1.1v-1l0.1-1l0.1-1l0.2-0.9l0.2-1l0.2-0.9l0.3-0.9l0.3-0.9l0.4-0.9l0.3-0.8l0.4-0.9l0.5-0.8l0.4-0.9l0.5-0.7l0.5-0.8
	l0.6-0.7l0.6-0.7l0.6-0.6l0.6-0.6l0.7-0.6l0.7-0.6l0.7-0.5l0.8-0.5l0.8-0.5l0.9-0.4l0.8-0.4l0.9-0.4l0.9-0.4l0.9-0.3l0.9-0.2l1-0.3
	l0.9-0.2l0.4-0.1l0.3-0.1l0.3-0.2l0.3-0.3l0.2-0.3l0.1-0.3l0.2-0.4l0.1-0.3l0.1-1.3l0.2-1.2l0.3-1.2l0.2-1.2l0.3-1.1l0.5-1.2
	l0.4-1.1l0.5-1.1l0.5-1.1l0.6-1l0.6-1l0.7-1l0.7-1l0.8-0.9l0.8-0.9l0.9-0.8l0.8-0.9l1-0.7l1-0.8l1-0.6l1-0.6l1-0.6l1.1-0.5l1.1-0.5
	l1.2-0.4l1.1-0.4l1.2-0.3l1.2-0.3l1.2-0.2l1.3-0.1l1.2-0.1h1.3l1.8,0.1l1.7,0.2l1.8,0.3l1.7,0.4l1.7,0.5l1.6,0.6l1.6,0.8l1.4,0.9
	l1.5,1l1.3,1l1.3,1.2l1.2,1.2l1.1,1.3l1.1,1.5l1,1.5l0.9,1.6l0.2,0.3l0.2,0.2l0.3,0.3l0.3,0.2l0.3,0.1l0.3,0.1h0.3h0.3h0.2h0.3h0.3
	h0.6l0.6,0.1l0.6,0.1l0.6,0.1l1.2,0.3l1.2,0.4l1.1,0.6l1.1,0.6l1,0.8l1,0.9l0.9,0.9l0.7,1l0.6,1.1l0.5,1.1l0.4,1.2l0.3,1.2l0.1,0.6
	l0.1,0.6l0.1,0.6l0.1,0.6v0.4l0.1,0.4l0.2,0.4l0.2,0.3l0.3,0.3l0.4,0.2l0.4,0.1l0.4,0.1h1l1,0.1l1,0.1l0.9,0.2l1,0.2l0.9,0.3
	l0.9,0.3l0.9,0.3l0.9,0.4l0.8,0.4l0.9,0.5l0.8,0.5l0.8,0.6l0.8,0.6l0.7,0.6l0.7,0.6l0.6,0.6l0.6,0.7l0.5,0.8l0.5,0.7l0.5,0.9
	l0.5,0.8l0.4,0.9l0.4,0.9l0.4,0.9l0.2,0.9l0.3,1l0.3,0.9l0.1,1l0.2,1l0.1,1l0.1,1l-0.1,1l-0.1,1l-0.2,1l-0.1,1l-0.3,1l-0.3,0.9
	l-0.2,0.9l-0.4,0.9l-0.4,0.9l-0.4,0.8l-0.5,0.9l-0.5,0.8l-0.5,0.8l-0.5,0.7l-0.6,0.7l-0.6,0.6l-0.7,0.6l-0.7,0.6l-0.8,0.6l-0.8,0.5
	l-0.8,0.5l-0.9,0.4l-0.8,0.5l-0.9,0.4l-0.9,0.3l-0.9,0.3l-0.9,0.3l-1,0.2l-0.9,0.2l-1,0.1l-1,0.1h-1.3V231L187.6,231z"/>
<polygon class="st0" points="294.7,325 294.7,306 317.6,306 317.6,325 "/>
<rect x="370" y="332" class="st2" width="48" height="23"/>
<text transform="matrix(1 0 0 1 370 341.9395)" class="st3 st4">eth0</text>
<rect x="417" y="332" class="st2" width="48" height="23"/>
<text transform="matrix(1 0 0 1 417 341.9395)" class="st3 st4">eth2</text>
<rect x="370" y="295" class="st2" width="48" height="23"/>
<text transform="matrix(1 0 0 1 370 304.9395)" class="st3 st4">eth1</text>
<rect x="418" y="295" class="st2" width="48" height="23"/>
<text transform="matrix(1 0 0 1 418 304.9395)" class="st3 st4">eth3</text>
<rect x="323" y="317" class="st2" width="48" height="23"/>
<text transform="matrix(1 0 0 1 323 326.9395)" class="st3 st4">IPMI</text>
<path d="M789,298"/>
<g>
	<g>
		<line class="st5" x1="382.5" y1="262.5" x2="382.5" y2="256.5"/>
		<line class="st6" x1="382.5" y1="245.9" x2="382.5" y2="187.3"/>
		<line class="st5" x1="382.5" y1="182" x2="382.5" y2="176"/>
	</g>
</g>
<g>
	<g>
		<line class="st5" x1="430.5" y1="262.5" x2="430.5" y2="256.5"/>
		<line class="st6" x1="430.5" y1="245.9" x2="430.5" y2="187.3"/>
		<line class="st5" x1="430.5" y1="182" x2="430.5" y2="176"/>
	</g>
</g>
<rect x="351" y="16" class="st2" width="127" height="44"/>
<text transform="matrix(1 0 0 1 351 28.7798)" class="st3 st7">IBM Cloud </text>
<text transform="matrix(1 0 0 1 351 50.3798)" class="st3 st7">Public Network</text>
<rect x="650" y="110" class="st2" width="145" height="44"/>
<text transform="matrix(1 0 0 1 650 122.7798)" class="st3 st7">IBM Cloud </text>
<text transform="matrix(1 0 0 1 650 144.3798)" class="st3 st7">Private Network</text>
<rect x="84" y="110" class="st2" width="177" height="44"/>
<text transform="matrix(1 0 0 1 84 122.7798)" class="st3 st7">IBM Cloud </text>
<text transform="matrix(1 0 0 1 84 144.3798)" class="st3 st7">Management Network</text>
<line class="st8" x1="430.5" y1="392" x2="683" y2="392"/>
<line class="st8" x1="383.5" y1="411.5" x2="722.5" y2="411.5"/>
<line class="st8" x1="683" y1="284" x2="683" y2="392.8"/>
<line class="st8" x1="722.5" y1="287.1" x2="722.5" y2="411.5"/>
<line class="st8" x1="382.5" y1="380" x2="382.5" y2="411.5"/>
<line class="st8" x1="430.5" y1="380" x2="430.5" y2="392"/>
<line class="st9" x1="146.3" y1="315.5" x2="294.7" y2="315.5"/>
<line class="st10" x1="146.3" y1="274" x2="146.3" y2="315.5"/>
</svg>
