<?xml version="1.0" encoding="utf-8"?>
<!-- Generator: Adobe Illustrator 21.0.0, SVG Export Plug-In . SVG Version: 6.00 Build 0)  -->
<svg version="1.1" id="Layer_1" xmlns="http://www.w3.org/2000/svg" xmlns:xlink="http://www.w3.org/1999/xlink" x="0px" y="0px"
	 viewBox="0 0 850 625" style="enable-background:new 0 0 850 625;" xml:space="preserve">
<style type="text/css">
	.st0{opacity:0.702;fill-rule:evenodd;clip-rule:evenodd;fill:#4C84C5;}
	.st1{fill:none;stroke:#FFFFFF;stroke-width:2;stroke-miterlimit:8;}
	.st2{clip-path:url(#SVGID_2_);fill:none;stroke:#FFFFFF;stroke-width:2;stroke-miterlimit:8;}
	.st3{clip-path:url(#SVGID_2_);}
	.st4{clip-path:url(#SVGID_4_);fill:none;stroke:#FFFFFF;stroke-width:2;stroke-miterlimit:8;}
	.st5{clip-path:url(#SVGID_4_);}
	.st6{clip-path:url(#SVGID_6_);fill:none;stroke:#FFFFFF;stroke-width:2;stroke-miterlimit:8;}
	.st7{clip-path:url(#SVGID_6_);}
	.st8{clip-path:url(#SVGID_8_);fill:none;stroke:#FFFFFF;stroke-width:2;stroke-miterlimit:8;}
	.st9{clip-path:url(#SVGID_8_);}
	.st10{clip-path:url(#SVGID_10_);fill:none;stroke:#FFFFFF;stroke-width:2;stroke-miterlimit:8;}
	.st11{clip-path:url(#SVGID_10_);}
	.st12{clip-path:url(#SVGID_12_);fill:none;stroke:#FFFFFF;stroke-width:2;stroke-miterlimit:8;}
	.st13{clip-path:url(#SVGID_12_);}
	.st14{opacity:0.702;clip-path:url(#SVGID_14_);fill-rule:evenodd;clip-rule:evenodd;fill:#4C84C5;}
	.st15{clip-path:url(#SVGID_14_);}
	.st16{clip-path:url(#SVGID_16_);fill:none;stroke:#FFFFFF;stroke-width:2;stroke-miterlimit:8;}
	.st17{clip-path:url(#SVGID_16_);}
	.st18{clip-path:url(#SVGID_18_);fill:none;stroke:#FFFFFF;stroke-width:2;stroke-miterlimit:8;stroke-dasharray:50800,38100;}
	.st19{clip-path:url(#SVGID_18_);}
	.st20{clip-path:url(#SVGID_20_);fill-rule:evenodd;clip-rule:evenodd;fill:#81A9D6;}
	.st21{clip-path:url(#SVGID_20_);fill:none;stroke:#FFFFFF;stroke-width:2;stroke-miterlimit:8;}
	.st22{clip-path:url(#SVGID_20_);}
	.st23{clip-path:url(#SVGID_22_);fill-rule:evenodd;clip-rule:evenodd;fill:#81A9D6;}
	.st24{clip-path:url(#SVGID_22_);fill:none;stroke:#FFFFFF;stroke-width:2;stroke-miterlimit:8;}
	.st25{clip-path:url(#SVGID_22_);}
	.st26{clip-path:url(#SVGID_24_);fill:none;stroke:#FFFFFF;stroke-width:2;stroke-miterlimit:8;}
	.st27{clip-path:url(#SVGID_24_);}
	.st28{clip-path:url(#SVGID_26_);fill-rule:evenodd;clip-rule:evenodd;fill:#81A9D6;}
	.st29{clip-path:url(#SVGID_26_);fill:none;stroke:#FFFFFF;stroke-width:2;stroke-miterlimit:8;}
	.st30{clip-path:url(#SVGID_26_);}
	.st31{clip-path:url(#SVGID_28_);fill:none;stroke:#FFFFFF;stroke-width:2;stroke-miterlimit:8;}
	.st32{clip-path:url(#SVGID_28_);}
	.st33{clip-path:url(#SVGID_30_);fill-rule:evenodd;clip-rule:evenodd;fill:#81A9D6;}
	.st34{clip-path:url(#SVGID_30_);fill:none;stroke:#FFFFFF;stroke-width:2;stroke-miterlimit:8;}
	.st35{clip-path:url(#SVGID_30_);}
	.st36{clip-path:url(#SVGID_32_);fill:none;stroke:#FFFFFF;stroke-width:2;stroke-miterlimit:8;}
	.st37{clip-path:url(#SVGID_32_);}
	.st38{clip-path:url(#SVGID_34_);fill-rule:evenodd;clip-rule:evenodd;fill:#81A9D6;}
	.st39{clip-path:url(#SVGID_34_);fill:none;stroke:#FFFFFF;stroke-width:2;stroke-miterlimit:8;}
	.st40{clip-path:url(#SVGID_34_);}
	.st41{clip-path:url(#SVGID_36_);fill:none;stroke:#FFFFFF;stroke-width:2;stroke-miterlimit:8;}
	.st42{clip-path:url(#SVGID_36_);}
	.st43{clip-path:url(#SVGID_38_);fill-rule:evenodd;clip-rule:evenodd;fill:#81A9D6;}
	.st44{clip-path:url(#SVGID_38_);fill:none;stroke:#FFFFFF;stroke-width:2;stroke-miterlimit:8;}
	.st45{clip-path:url(#SVGID_38_);}
	.st46{clip-path:url(#SVGID_40_);fill:none;stroke:#FFFFFF;stroke-width:2;stroke-miterlimit:8;}
	.st47{clip-path:url(#SVGID_40_);}
	.st48{opacity:0.702;clip-path:url(#SVGID_42_);fill-rule:evenodd;clip-rule:evenodd;fill:#4C84C5;}
	.st49{clip-path:url(#SVGID_42_);}
	.st50{opacity:0.702;clip-path:url(#SVGID_44_);fill-rule:evenodd;clip-rule:evenodd;fill:#4C84C5;}
	.st51{clip-path:url(#SVGID_44_);}
	.st52{opacity:0.702;clip-path:url(#SVGID_46_);fill-rule:evenodd;clip-rule:evenodd;fill:#1DA78D;}
	.st53{clip-path:url(#SVGID_46_);}
	.st54{opacity:0.702;clip-path:url(#SVGID_48_);fill-rule:evenodd;clip-rule:evenodd;fill:#4C84C5;}
	.st55{clip-path:url(#SVGID_48_);}
	.st56{clip-path:url(#SVGID_50_);fill:none;stroke:#81A9D6;stroke-width:2;stroke-miterlimit:8;}
	.st57{clip-path:url(#SVGID_50_);}
	.st58{clip-path:url(#SVGID_52_);fill:none;stroke:#81A9D6;stroke-width:2;stroke-miterlimit:8;}
	.st59{clip-path:url(#SVGID_52_);}
	.st60{clip-path:url(#SVGID_54_);fill:none;stroke:#81A9D6;stroke-width:2;stroke-miterlimit:8;}
	.st61{clip-path:url(#SVGID_54_);}
	.st62{clip-path:url(#SVGID_56_);fill:none;stroke:#81A9D6;stroke-width:2;stroke-miterlimit:8;}
	.st63{clip-path:url(#SVGID_56_);fill:none;}
	.st64{fill:none;stroke:#81A9D6;stroke-width:2;stroke-miterlimit:8;}
	.st65{fill-rule:evenodd;clip-rule:evenodd;fill:#FFFFFF;}
	.st66{clip-path:url(#SVGID_58_);fill:none;stroke:#FFFFFF;stroke-width:1.9999;stroke-miterlimit:8;}
	.st67{clip-path:url(#SVGID_58_);}
	.st68{clip-path:url(#SVGID_60_);fill:none;stroke:#FFFFFF;stroke-width:1.9999;stroke-miterlimit:8;}
	.st69{clip-path:url(#SVGID_60_);}
	.st70{clip-path:url(#SVGID_62_);fill:none;stroke:#FFFFFF;stroke-width:1.9999;stroke-miterlimit:8;}
	.st71{clip-path:url(#SVGID_62_);}
	.st72{clip-path:url(#SVGID_64_);fill:none;stroke:#FFFFFF;stroke-width:1.9999;stroke-miterlimit:8;}
	.st73{fill:none;}
	.st74{fill:#FFFFFF;}
	.st75{font-family:'MyriadPro-Regular';}
	.st76{font-size:14px;}
	.st77{fill:none;stroke:#81A9D6;stroke-width:3;stroke-miterlimit:8;}
	.st78{fill:none;stroke:#60C1AF;stroke-width:3;stroke-miterlimit:8;}
	.st79{fill:none;stroke:#4472C4;stroke-width:1.0009;stroke-miterlimit:8;}
	.st80{fill:#808080;}
	.st81{font-size:18px;}
</style>
<g>
	<polygon class="st0" points="79.5,75 419.8,75 419.8,348.1 79.5,348.1 79.5,75 	"/>
	<path class="st1" d="M89.1,84.8c0-0.9,0.7-1.6,1.6-1.6h318c0.9,0,1.6,0.7,1.6,1.6v34.6c0,0.9-0.7,1.6-1.6,1.6h-318
		c-0.9,0-1.6-0.7-1.6-1.6V84.8z"/>
	<g>
		<defs>
			<polygon id="SVGID_1_" points="78.8,607.5 770.4,607.5 770.4,75 78.8,75 78.8,607.5 			"/>
		</defs>
		<clipPath id="SVGID_2_">
			<use xlink:href="#SVGID_1_"  style="overflow:visible;"/>
		</clipPath>
		<path class="st2" d="M89.1,133.3c0-2.3,1.8-4.1,4.1-4.1h90.6c2.3,0,4.1,1.8,4.1,4.1v90.6c0,2.3-1.8,4.1-4.1,4.1H93.2
			c-2.3,0-4.1-1.8-4.1-4.1V133.3z"/>
		<g class="st3">
			<defs>
				<polygon id="SVGID_3_" points="78.8,607.5 770.4,607.5 770.4,75 78.8,75 78.8,607.5 				"/>
			</defs>
			<clipPath id="SVGID_4_">
				<use xlink:href="#SVGID_3_"  style="overflow:visible;"/>
			</clipPath>
			<path class="st4" d="M200.3,133.3c0-2.3,1.8-4.1,4.1-4.1H295c2.3,0,4.1,1.8,4.1,4.1v90.6c0,2.3-1.8,4.1-4.1,4.1h-90.6
				c-2.3,0-4.1-1.8-4.1-4.1V133.3z"/>
			<g class="st5">
				<defs>
					<polygon id="SVGID_5_" points="78.8,607.5 770.4,607.5 770.4,75 78.8,75 78.8,607.5 					"/>
				</defs>
				<clipPath id="SVGID_6_">
					<use xlink:href="#SVGID_5_"  style="overflow:visible;"/>
				</clipPath>
				<path class="st6" d="M311.4,134c0-2.3,1.8-4.1,4.1-4.1h90.6c2.3,0,4.1,1.8,4.1,4.1v90.6c0,2.3-1.8,4.1-4.1,4.1h-90.6
					c-2.3,0-4.1-1.8-4.1-4.1V134z"/>
				<g class="st7">
					<defs>
						<polygon id="SVGID_7_" points="78.8,607.5 770.4,607.5 770.4,75 78.8,75 78.8,607.5 						"/>
					</defs>
					<clipPath id="SVGID_8_">
						<use xlink:href="#SVGID_7_"  style="overflow:visible;"/>
					</clipPath>
					<path class="st8" d="M89.1,242.4c0-2.3,1.8-4.1,4.1-4.1h90.6c2.3,0,4.1,1.8,4.1,4.1V333c0,2.3-1.8,4.1-4.1,4.1H93.2
						c-2.3,0-4.1-1.8-4.1-4.1V242.4z"/>
					<g class="st9">
						<defs>
							<polygon id="SVGID_9_" points="78.8,607.5 770.4,607.5 770.4,75 78.8,75 78.8,607.5 							"/>
						</defs>
						<clipPath id="SVGID_10_">
							<use xlink:href="#SVGID_9_"  style="overflow:visible;"/>
						</clipPath>
						<path class="st10" d="M200.3,242.4c0-2.3,1.8-4.1,4.1-4.1H295c2.3,0,4.1,1.8,4.1,4.1V333c0,2.3-1.8,4.1-4.1,4.1h-90.6
							c-2.3,0-4.1-1.8-4.1-4.1V242.4z"/>
						<g class="st11">
							<defs>
								<polygon id="SVGID_11_" points="78.8,607.5 770.4,607.5 770.4,75 78.8,75 78.8,607.5 								"/>
							</defs>
							<clipPath id="SVGID_12_">
								<use xlink:href="#SVGID_11_"  style="overflow:visible;"/>
							</clipPath>
							<path class="st12" d="M311.4,242.4c0-2.3,1.8-4.1,4.1-4.1h90.6c2.3,0,4.1,1.8,4.1,4.1V333c0,2.3-1.8,4.1-4.1,4.1h-90.6
								c-2.3,0-4.1-1.8-4.1-4.1V242.4z"/>
							<g class="st13">
								<defs>
									<polygon id="SVGID_13_" points="78.8,607.5 770.4,607.5 770.4,75 78.8,75 78.8,607.5 									"/>
								</defs>
								<clipPath id="SVGID_14_">
									<use xlink:href="#SVGID_13_"  style="overflow:visible;"/>
								</clipPath>
								<polygon class="st14" points="429.4,75 770.4,75 770.4,348.1 429.4,348.1 429.4,75 								"/>
								<g class="st15">
									<defs>
										<polygon id="SVGID_15_" points="78.8,607.5 770.4,607.5 770.4,75 78.8,75 78.8,607.5 										"/>
									</defs>
									<clipPath id="SVGID_16_">
										<use xlink:href="#SVGID_15_"  style="overflow:visible;"/>
									</clipPath>
									<path class="st16" d="M439,84.8c0-0.9,0.7-1.6,1.6-1.6h318c0.9,0,1.6,0.7,1.6,1.6v34.6c0,0.9-0.7,1.6-1.6,1.6h-318
										c-0.9,0-1.6-0.7-1.6-1.6V84.8z"/>
									<g class="st17">
										<defs>
											<polygon id="SVGID_17_" points="78.8,607.5 770.4,607.5 770.4,75 78.8,75 78.8,607.5 											"/>
										</defs>
										<clipPath id="SVGID_18_">
											<use xlink:href="#SVGID_17_"  style="overflow:visible;"/>
										</clipPath>
										<path class="st18" d="M462.4,192.5c0-3.5,2.8-6.3,6.3-6.3h250.9c3.5,0,6.3,2.8,6.3,6.3v138.4c0,3.5-2.8,6.3-6.3,6.3H468.7
											c-3.5,0-6.3-2.8-6.3-6.3V192.5z"/>
										<g class="st19">
											<defs>
												<polygon id="SVGID_19_" points="78.8,607.5 770.4,607.5 770.4,75 78.8,75 78.8,607.5 												"/>
											</defs>
											<clipPath id="SVGID_20_">
												<use xlink:href="#SVGID_19_"  style="overflow:visible;"/>
											</clipPath>
											<path class="st20" d="M499.4,171.3c0-0.9,0.7-1.6,1.6-1.6h178.7c0.9,0,1.6,0.7,1.6,1.6v34.6c0,0.9-0.7,1.6-1.6,1.6H501
												c-0.9,0-1.6-0.7-1.6-1.6V171.3z"/>
											<path class="st21" d="M499.4,171.3c0-0.9,0.7-1.6,1.6-1.6h178.7c0.9,0,1.6,0.7,1.6,1.6v34.6c0,0.9-0.7,1.6-1.6,1.6H501
												c-0.9,0-1.6-0.7-1.6-1.6V171.3z"/>
											<g class="st22">
												<defs>
													<polygon id="SVGID_21_" points="78.8,607.5 770.4,607.5 770.4,75 78.8,75 78.8,607.5 													"/>
												</defs>
												<clipPath id="SVGID_22_">
													<use xlink:href="#SVGID_21_"  style="overflow:visible;"/>
												</clipPath>
												<path class="st23" d="M484.3,263.7c0-1.1,0.9-2.1,2.1-2.1h45.3c1.1,0,2.1,0.9,2.1,2.1V309c0,1.1-0.9,2.1-2.1,2.1h-45.3
													c-1.1,0-2.1-0.9-2.1-2.1V263.7z"/>
												<path class="st24" d="M484.3,263.7c0-1.1,0.9-2.1,2.1-2.1h45.3c1.1,0,2.1,0.9,2.1,2.1V309c0,1.1-0.9,2.1-2.1,2.1h-45.3
													c-1.1,0-2.1-0.9-2.1-2.1V263.7z"/>
												<g class="st25">
													<defs>
														<polygon id="SVGID_23_" points="78.8,607.5 770.4,607.5 770.4,75 78.8,75 78.8,607.5 														"/>
													</defs>
													<clipPath id="SVGID_24_">
														<use xlink:href="#SVGID_23_"  style="overflow:visible;"/>
													</clipPath>
													<line class="st26" x1="489.1" y1="286.4" x2="528.6" y2="286.4"/>
													<g class="st27">
														<defs>
															<polygon id="SVGID_25_" points="78.8,607.5 770.4,607.5 770.4,75 78.8,75 78.8,607.5 															"/>
														</defs>
														<clipPath id="SVGID_26_">
															<use xlink:href="#SVGID_25_"  style="overflow:visible;"/>
														</clipPath>
														<path class="st28" d="M569.4,263.7c0-1.1,0.9-2.1,2.1-2.1h45.3c1.1,0,2.1,0.9,2.1,2.1V309c0,1.1-0.9,2.1-2.1,2.1
															h-45.3c-1.1,0-2.1-0.9-2.1-2.1V263.7z"/>
														<path class="st29" d="M569.4,263.7c0-1.1,0.9-2.1,2.1-2.1h45.3c1.1,0,2.1,0.9,2.1,2.1V309c0,1.1-0.9,2.1-2.1,2.1
															h-45.3c-1.1,0-2.1-0.9-2.1-2.1V263.7z"/>
														<g class="st30">
															<defs>
																<polygon id="SVGID_27_" points="78.8,607.5 770.4,607.5 770.4,75 78.8,75 78.8,607.5 																"/>
															</defs>
															<clipPath id="SVGID_28_">
																<use xlink:href="#SVGID_27_"  style="overflow:visible;"/>
															</clipPath>
															<line class="st31" x1="574.2" y1="286.4" x2="613.7" y2="286.4"/>
															<g class="st32">
																<defs>
																	<polygon id="SVGID_29_" points="78.8,607.5 770.4,607.5 770.4,75 78.8,75 78.8,607.5 																	"/>
																</defs>
																<clipPath id="SVGID_30_">
																	<use xlink:href="#SVGID_29_"  style="overflow:visible;"/>
																</clipPath>
																<path class="st33" d="M651.7,263.7c0-1.1,0.9-2.1,2.1-2.1h45.3c1.1,0,2.1,0.9,2.1,2.1V309c0,1.1-0.9,2.1-2.1,2.1
																	h-45.3c-1.1,0-2.1-0.9-2.1-2.1V263.7z"/>
																<path class="st34" d="M651.7,263.7c0-1.1,0.9-2.1,2.1-2.1h45.3c1.1,0,2.1,0.9,2.1,2.1V309c0,1.1-0.9,2.1-2.1,2.1
																	h-45.3c-1.1,0-2.1-0.9-2.1-2.1V263.7z"/>
																<g class="st35">
																	<defs>
																		<polygon id="SVGID_31_" points="78.8,607.5 770.4,607.5 770.4,75 78.8,75 78.8,607.5 																		"/>
																	</defs>
																	<clipPath id="SVGID_32_">
																		<use xlink:href="#SVGID_31_"  style="overflow:visible;"/>
																	</clipPath>
																	<line class="st36" x1="656.5" y1="286.4" x2="696.1" y2="286.4"/>
																	<g class="st37">
																		<defs>
																			<polygon id="SVGID_33_" points="78.8,607.5 770.4,607.5 770.4,75 78.8,75 78.8,607.5 																			"/>
																		</defs>
																		<clipPath id="SVGID_34_">
																			<use xlink:href="#SVGID_33_"  style="overflow:visible;"/>
																		</clipPath>
																		<path class="st38" d="M225,279.5c0-1.1,0.9-2.1,2.1-2.1h45.3c1.1,0,2.1,0.9,2.1,2.1v45.3c0,1.1-0.9,2.1-2.1,2.1
																			H227c-1.1,0-2.1-0.9-2.1-2.1V279.5z"/>
																		<path class="st39" d="M225,279.5c0-1.1,0.9-2.1,2.1-2.1h45.3c1.1,0,2.1,0.9,2.1,2.1v45.3c0,1.1-0.9,2.1-2.1,2.1
																			H227c-1.1,0-2.1-0.9-2.1-2.1V279.5z"/>
																		<g class="st40">
																			<defs>
																				<polygon id="SVGID_35_" points="78.8,607.5 770.4,607.5 770.4,75 78.8,75 78.8,607.5 																				"/>
																			</defs>
																			<clipPath id="SVGID_36_">
																				<use xlink:href="#SVGID_35_"  style="overflow:visible;"/>
																			</clipPath>
																			<line class="st41" x1="229.8" y1="302.1" x2="269.3" y2="302.1"/>
																			<g class="st42">
																				<defs>
																					<polygon id="SVGID_37_" points="78.8,607.5 770.4,607.5 770.4,75 78.8,75 78.8,607.5 																					"/>
																				</defs>
																				<clipPath id="SVGID_38_">
																					<use xlink:href="#SVGID_37_"  style="overflow:visible;"/>
																				</clipPath>
																				<path class="st43" d="M336.1,279.5c0-1.1,0.9-2.1,2.1-2.1h45.3c1.1,0,2.1,0.9,2.1,2.1v45.3
																					c0,1.1-0.9,2.1-2.1,2.1h-45.3c-1.1,0-2.1-0.9-2.1-2.1V279.5z"/>
																				<path class="st44" d="M336.1,279.5c0-1.1,0.9-2.1,2.1-2.1h45.3c1.1,0,2.1,0.9,2.1,2.1v45.3
																					c0,1.1-0.9,2.1-2.1,2.1h-45.3c-1.1,0-2.1-0.9-2.1-2.1V279.5z"/>
																				<g class="st45">
																					<defs>
																						<polygon id="SVGID_39_" points="78.8,607.5 770.4,607.5 770.4,75 78.8,75 78.8,607.5 																						
																							"/>
																					</defs>
																					<clipPath id="SVGID_40_">
																						<use xlink:href="#SVGID_39_"  style="overflow:visible;"/>
																					</clipPath>
																					<line class="st46" x1="340.9" y1="302.1" x2="380.4" y2="302.1"/>
																					<g class="st47">
																						<defs>
																							<polygon id="SVGID_41_" points="78.8,607.5 770.4,607.5 770.4,75 78.8,75 78.8,607.5 
																																															"/>
																						</defs>
																						<clipPath id="SVGID_42_">
																							<use xlink:href="#SVGID_41_"  style="overflow:visible;"/>
																						</clipPath>
																						<polygon class="st48" points="78.8,360.5 419.8,360.5 419.8,412.6 78.8,412.6 78.8,360.5 
																																													"/>
																						<g class="st49">
																							<defs>
																								<polygon id="SVGID_43_" points="78.8,607.5 770.4,607.5 770.4,75 78.8,75 78.8,607.5 
																																																	"/>
																							</defs>
																							<clipPath id="SVGID_44_">
																								<use xlink:href="#SVGID_43_"  style="overflow:visible;"/>
																							</clipPath>
																							<polygon class="st50" points="429.4,359.8 770.4,359.8 770.4,411.9 429.4,411.9 429.4,359.8 
																																															"/>
																							<g class="st51">
																								<defs>
																									<polygon id="SVGID_45_" points="78.8,607.5 770.4,607.5 770.4,75 78.8,75 78.8,607.5 
																																																			"/>
																								</defs>
																								<clipPath id="SVGID_46_">
																									<use xlink:href="#SVGID_45_"  style="overflow:visible;"/>
																								</clipPath>
																								<polygon class="st52" points="78.8,455.9 770.4,455.9 770.4,508 78.8,508 78.8,455.9 
																																																	"/>
																								<g class="st53">
																									<defs>
																										<polygon id="SVGID_47_" points="78.8,607.5 770.4,607.5 770.4,75 78.8,75 78.8,607.5 
																																																					"/>
																									</defs>
																									<clipPath id="SVGID_48_">
																										<use xlink:href="#SVGID_47_"  style="overflow:visible;"/>
																									</clipPath>
																									<polygon class="st54" points="78.8,555.4 770.4,555.4 770.4,607.5 78.8,607.5 78.8,555.4 
																																																			"/>
																									<g class="st55">
																										<defs>
																											<polygon id="SVGID_49_" points="78.8,607.5 770.4,607.5 770.4,75 78.8,75 78.8,607.5 
																																																							"/>
																										</defs>
																										<clipPath id="SVGID_50_">
																											<use xlink:href="#SVGID_49_"  style="overflow:visible;"/>
																										</clipPath>
																										<path class="st56" d="M203.7,417.4c0-2.7,2.3-4.8,5.1-4.8c2.8,0,5.1,2.2,5.1,4.8c0,2.7-2.3,4.8-5.1,4.8
																											C206,422.2,203.7,420.1,203.7,417.4L203.7,417.4z"/>
																										<g class="st57">
																											<defs>
																												<polygon id="SVGID_51_" points="78.8,607.5 770.4,607.5 770.4,75 78.8,75 78.8,607.5 
																																																									"/>
																											</defs>
																											<clipPath id="SVGID_52_">
																												<use xlink:href="#SVGID_51_"  style="overflow:visible;"/>
																											</clipPath>
																											<path class="st58" d="M138.5,417.4c0-2.7,2.3-4.8,5.1-4.8c2.8,0,5.1,2.2,5.1,4.8c0,2.7-2.3,4.8-5.1,4.8
																												C140.8,422.2,138.5,420.1,138.5,417.4L138.5,417.4z"/>
																											<g class="st59">
																												<defs>
																													<polygon id="SVGID_53_" points="78.8,607.5 770.4,607.5 770.4,75 78.8,75 78.8,607.5 
																																																											"/>
																												</defs>
																												<clipPath id="SVGID_54_">
																													<use xlink:href="#SVGID_53_"  style="overflow:visible;"/>
																												</clipPath>
																												<path class="st60" d="M204.4,550.2c0-2.8,2.2-5.1,4.8-5.1s4.8,2.3,4.8,5.1c0,2.8-2.2,5.1-4.8,5.1
																													S204.4,553,204.4,550.2L204.4,550.2z"/>
																												<g class="st61">
																													<defs>
																														<polygon id="SVGID_55_" points="78.8,607.5 770.4,607.5 770.4,75 78.8,75 78.8,607.5 
																																																													"/>
																													</defs>
																													<clipPath id="SVGID_56_">
																														<use xlink:href="#SVGID_55_"  style="overflow:visible;"/>
																													</clipPath>
																													<path class="st62" d="M138.5,451.4c0-2.8,2.3-5.1,5.1-5.1c2.8,0,5.1,2.3,5.1,5.1s-2.3,5.1-5.1,5.1
																														C140.8,456.5,138.5,454.2,138.5,451.4L138.5,451.4z"/>
																													<polygon class="st63" points="78.8,607.5 770.4,607.5 770.4,75 78.8,75 78.8,607.5 
																																																											"/>
																												</g>
																											</g>
																										</g>
																									</g>
																								</g>
																							</g>
																						</g>
																					</g>
																				</g>
																			</g>
																		</g>
																	</g>
																</g>
															</g>
														</g>
													</g>
												</g>
											</g>
										</g>
									</g>
								</g>
							</g>
						</g>
					</g>
				</g>
			</g>
		</g>
	</g>
</g>
<g>
	<path class="st64" d="M481.2,418c0-2.8,2.2-5,5-5c2.8,0,5,2.2,5,5c0,2.8-2.2,5-5,5C483.5,423,481.2,420.8,481.2,418L481.2,418z"/>
</g>
<g>
	<path class="st65" d="M134.4,206L134.4,206h-0.5l0,0l-0.2-0.5l-0.3-0.3l0,0l-0.2-0.7l-0.2-0.5l-0.7-0.5l-0.7-0.2l0,0l-0.7,0.2
		l-0.8,0.5l-0.2,0.5l-0.2,0.7l0,0l-0.3,0.3l-0.2,0.5l0,0h-0.5h-0.3l-5.5-2.6l0,0l-0.2-0.5l-0.2-0.2l0,0v-0.5l0.2-0.5l0,0l0.2-0.2
		l0.3-0.7v-0.7l-0.5-0.7l0,0l-0.5-0.5h-0.7H121l-0.3,0.5l0,0l-0.5,0.2h-0.5l0,0l-0.2-0.2l-0.5-0.2l-2.7-5.4l0,0v-0.3v-0.5l0,0
		l0.5-0.2l0.3-0.3l0,0l0.7-0.2l0.5-0.2l0.5-0.8l0.2-0.7l0,0l-0.2-0.7l-0.5-0.7l-0.5-0.2l-0.7-0.2l0,0l-0.3-0.3l-0.3-0.2l0,0
		l-0.2-0.2v-0.5l0,0l0.5-1.6l0.8-1.5l1.5-2.5l0,0l0.3-0.2l0.2-0.2l0,0h0.5l0.5,0.2l0,0l0.3,0.5h0.7h0.7l0.5-0.5l0,0l0.5-0.7v-0.7
		l-0.3-0.7l-0.2-0.3l0,0l-0.2-0.3v-0.5l0,0l0.2-0.2l0.2-0.5l5.5-2.6l0,0h0.3h0.5l0,0l0.2,0.3l0.3,0.5l0,0l0.2,0.7l0.2,0.5l0.8,0.5
		l0.7,0.2l0,0l0.7-0.2l0.7-0.5l0.2-0.5l0.2-0.7l0,0l0.3-0.5l0.2-0.3l0,0h0.5h0.3l5.5,2.6l0,0l0.2,0.5l0.2,0.2l0,0v0.5l-0.2,0.3l0,0
		l-0.2,0.3l-0.3,0.7v0.7l0.5,0.7l0,0l0.5,0.5h0.7h0.7l0.5-0.5l0,0l0.3-0.2h0.5l0,0l0.2,0.2l0.5,0.2l2.7,5.4l0,0v0.3v0.5l0,0
		l-0.5,0.2l-0.3,0.3l0,0l-0.7,0.2l-0.5,0.2l-0.5,0.7l-0.2,0.7l0,0l0.2,0.7l0.5,0.8l0.5,0.2l0.7,0.2l0,0l0.3,0.3l0.5,0.2l0,0v0.5v0.3
		l-2.7,5.4l0,0l-0.5,0.2l-0.2,0.2l0,0h-0.5l-0.3-0.2l0,0l-0.5-0.5h-0.7H141l-0.5,0.5l0,0l-0.5,0.7v0.7l0.3,0.7l0.2,0.2l0,0l0.2,0.5
		v0.5l0,0l-0.2,0.2l-0.2,0.5l-5.5,2.6l0,0H134.4L134.4,206L134.4,206L134.4,206z M131.8,201.6L131.8,201.6l1,0.2l1,0.5l0.7,0.7
		l0.7,1l3.4-1.8l0,0l-0.2-1v-1l0.2-1l0.7-0.8l0,0l0.8-0.7l1-0.2h1.2l0.8,0.2l1.8-3.3l0,0l-1-0.7l-0.7-0.7l-0.3-1l-0.3-1.1l0,0l0.3-1
		l0.3-1l0.7-0.7l1-0.7l-1.8-3.3l0,0l-0.8,0.2H141l-1-0.2l-0.8-0.7l0,0l-0.7-0.8l-0.2-1v-1.1l0.2-0.8l-3.4-1.8l0,0l-0.7,1l-0.7,0.7
		l-1,0.3l-1,0.3l0,0l-1.2-0.3l-1-0.3l-0.7-0.7l-0.7-1l-3.4,1.8l0,0l0.3,0.8v1.1l-0.3,1l-0.7,0.8l0,0l-0.8,0.7l-1.2,0.2h-0.8
		l-1.2-0.2l0,0l-1,1.5l-0.8,1.8l0,0l0.8,0.5l1,0.8l0.5,1l0.2,1l0,0l-0.2,1.1l-0.5,1l-0.7,0.7l-1,0.7l1.8,3.3l0,0l1-0.2h1l1,0.2
		l0.8,0.7l0,0l0.7,0.8l0.3,1v1l-0.3,1l3.4,1.8l0,0l0.7-1l0.7-0.7l1-0.5L131.8,201.6L131.8,201.6L131.8,201.6L131.8,201.6z"/>
	<path class="st65" d="M131.8,198L131.8,198l-1.5-0.3l-1.3-0.3l-1.3-0.5l-1-1l-1-1l-0.3-1.3l-0.5-1.3l-0.3-1.4l0,0l0.3-1.3l0.5-1.3
		l0.3-1.3l1-1.1l1-0.8l1.3-0.5l1.3-0.3l1.5-0.3l0,0l1.3,0.3l1.3,0.3l1.3,0.5l1.2,0.8l0.8,1.1l0.5,1.3l0.3,1.3l0.3,1.3l0,0l-0.3,1.4
		l-0.3,1.3l-0.5,1.3l-0.8,1l-1.2,1l-1.3,0.5l-1.3,0.3L131.8,198L131.8,198L131.8,198L131.8,198z M131.8,185.8L131.8,185.8h-1.2
		l-1,0.5l-0.8,0.3l-0.8,0.8l-0.7,0.8l-0.5,0.8l-0.5,1v1l0,0v1.1l0.5,1l0.5,0.8l0.7,0.8l0.8,0.6l0.8,0.5l1,0.5h1.2l0,0h1l1-0.5
		l0.8-0.5l0.8-0.6l0.8-0.8l0.3-0.8l0.5-1v-1.1l0,0v-1l-0.5-1l-0.3-0.8l-0.8-0.8l-0.8-0.8l-0.8-0.3l-1-0.5H131.8L131.8,185.8
		L131.8,185.8L131.8,185.8z"/>
	<polygon class="st65" points="148.3,218 148.3,216.8 148.3,216.8 148,216.2 147.7,215.8 147.2,215.5 146.5,215.3 146.5,215.3 
		145.8,215.5 145.3,215.8 144.8,216.2 144.7,216.8 144.7,218 143.5,217.5 143.5,217.5 141.7,217.2 140,216.2 138.8,215.5 
		139.7,214.7 139.7,214.7 140,214.2 140.2,213.5 140.2,213.5 140,212.8 139.7,212.2 139,212 138.3,211.7 138.3,211.7 137.7,212 
		137.3,212.2 136.3,213.2 135.7,212 135.7,212 134.8,210.2 134.3,208.3 135.8,208 135.8,208 136.3,209 136.8,210.3 136.8,210.3 
		137.5,210 138.3,210 138.3,210 139,210 139.7,210.2 140.8,211 141.7,212.2 142,212.8 142,213.5 142,213.5 142,214.5 141.5,215.2 
		141.5,215.2 143.2,215.8 143.2,215.8 143.8,214.8 144.5,214.2 145.3,213.8 146.5,213.5 146.5,213.5 147.7,213.8 148.5,214.2 
		149.2,214.8 149.8,215.8 149.8,215.8 151.3,215.2 151.3,215.2 151,214.5 151,213.5 151,213.5 151,212.8 151.2,212.2 152,211 
		153.2,210.2 153.8,210 154.5,210 154.5,210 155.5,210 156.2,210.3 156.2,210.3 156.8,208.8 156.8,208.8 155.8,208.2 155.2,207.5 
		154.8,206.5 154.5,205.5 154.5,205.5 154.8,204.3 155.2,203.5 155.8,202.8 156.8,202 156.8,202 156.2,200.5 156.2,200.5 155.5,201 
		154.5,201 154.5,201 153.8,201 153.2,200.7 152,199.8 151.2,198.7 151,198 151,197.3 151,197.3 151,196.5 151.3,195.8 151.3,195.8 
		150,195.3 149,194.8 149.3,193.3 149.3,193.3 151.2,193.8 153,194.7 154.2,195.3 153.2,196.2 153.2,196.2 153,196.7 152.7,197.3 
		152.7,197.3 153,198 153.2,198.7 153.8,199 154.5,199.2 154.5,199.2 155.2,199 155.7,198.7 156.5,197.8 157.2,199 157.2,199 
		158.2,200.7 158.7,202.5 159,203.7 157.8,203.7 157.8,203.7 157.2,203.8 156.8,204.3 156.5,204.8 156.3,205.5 156.3,205.5 
		156.5,206.2 156.8,206.5 157.2,207 157.8,207.2 159,207.2 158.7,208.3 158.7,208.3 158.2,210.2 157.2,212 156.5,213.2 155.7,212.2 
		155.7,212.2 155.2,212 154.5,211.7 154.5,211.7 153.8,212 153.2,212.2 153,212.8 152.7,213.5 152.7,213.5 153,214.2 153.2,214.7 
		154.2,215.5 153,216.2 153,216.2 151.2,217.2 149.3,217.5 148.3,218 148.3,218 	"/>
	<path class="st65" d="M146.3,210L146.3,210h-1l-0.9-0.5l-0.7-0.2l-0.7-0.7l-0.7-0.7l-0.2-0.9l-0.5-0.9v-0.9l0,0v-1l0.5-0.9l0.2-0.7
		l0.7-0.7l0.7-0.7l0.7-0.3l0.9-0.3h1l0,0h0.9l1,0.3l0.7,0.3l0.7,0.7l0.7,0.7l0.2,0.7l0.5,0.9v1l0,0v0.9l-0.5,0.9l-0.2,0.9l-0.7,0.7
		l-0.7,0.7l-0.7,0.2l-1,0.5H146.3L146.3,210L146.3,210L146.3,210z M146.3,202.6L146.3,202.6l-1.2,0.2l-0.7,0.7l-0.7,0.7l-0.2,1.2
		l0,0l0.2,1l0.7,0.7l0.7,0.9l1.2,0.2l0,0l1.2-0.2l0.7-0.9l0.7-0.7l0.2-1l0,0l-0.2-1.2l-0.7-0.7l-0.7-0.7L146.3,202.6L146.3,202.6
		L146.3,202.6L146.3,202.6z"/>
</g>
<g>
	<path class="st65" d="M246.4,207L246.4,207h-0.5l0,0l-0.2-0.5l-0.3-0.3l0,0l-0.2-0.7l-0.2-0.5l-0.7-0.5l-0.7-0.2l0,0l-0.7,0.2
		l-0.8,0.5l-0.2,0.5l-0.2,0.7l0,0l-0.3,0.3l-0.2,0.5l0,0h-0.5h-0.3l-5.5-2.6l0,0l-0.2-0.5l-0.2-0.2l0,0v-0.5l0.2-0.5l0,0l0.2-0.2
		l0.3-0.7v-0.7l-0.5-0.7l0,0l-0.5-0.5h-0.7H233l-0.3,0.5l0,0l-0.5,0.2h-0.5l0,0l-0.2-0.2l-0.5-0.2l-2.7-5.4l0,0v-0.3v-0.5l0,0
		l0.5-0.2l0.3-0.3l0,0l0.7-0.2l0.5-0.2l0.5-0.8l0.2-0.7l0,0l-0.2-0.7l-0.5-0.7l-0.5-0.2l-0.7-0.2l0,0l-0.3-0.3l-0.3-0.2l0,0
		l-0.2-0.2v-0.5l0,0l0.5-1.6l0.8-1.5l1.5-2.5l0,0l0.3-0.2l0.2-0.2l0,0h0.5l0.5,0.2l0,0l0.3,0.5h0.7h0.7l0.5-0.5l0,0l0.5-0.7v-0.7
		l-0.3-0.7l-0.2-0.3l0,0l-0.2-0.3v-0.5l0,0l0.2-0.2l0.2-0.5l5.5-2.6l0,0h0.3h0.5l0,0l0.2,0.3l0.3,0.5l0,0l0.2,0.7l0.2,0.5l0.8,0.5
		l0.7,0.2l0,0l0.7-0.2l0.7-0.5l0.2-0.5l0.2-0.7l0,0l0.3-0.5l0.2-0.3l0,0h0.5h0.3l5.5,2.6l0,0l0.2,0.5l0.2,0.2l0,0v0.5l-0.2,0.3l0,0
		l-0.2,0.3l-0.3,0.7v0.7l0.5,0.7l0,0l0.5,0.5h0.7h0.7l0.5-0.5l0,0l0.3-0.2h0.5l0,0l0.2,0.2l0.5,0.2l2.7,5.4l0,0v0.3v0.5l0,0
		l-0.5,0.2l-0.3,0.3l0,0l-0.7,0.2l-0.5,0.2l-0.5,0.7l-0.2,0.7l0,0l0.2,0.7l0.5,0.8l0.5,0.2l0.7,0.2l0,0l0.3,0.3l0.5,0.2l0,0v0.5v0.3
		l-2.7,5.4l0,0l-0.5,0.2l-0.2,0.2l0,0h-0.5l-0.3-0.2l0,0l-0.5-0.5h-0.7H253l-0.5,0.5l0,0l-0.5,0.7v0.7l0.3,0.7l0.2,0.2l0,0l0.2,0.5
		v0.5l0,0l-0.2,0.2l-0.2,0.5l-5.5,2.6l0,0H246.4L246.4,207L246.4,207L246.4,207z M243.8,202.6L243.8,202.6l1,0.2l1,0.5l0.7,0.7
		l0.7,1l3.4-1.8l0,0l-0.2-1v-1l0.2-1l0.7-0.8l0,0l0.8-0.7l1-0.2h1.2l0.8,0.2l1.8-3.3l0,0l-1-0.7l-0.7-0.7l-0.3-1l-0.3-1.1l0,0l0.3-1
		l0.3-1l0.7-0.7l1-0.7l-1.8-3.3l0,0l-0.8,0.2H253l-1-0.2l-0.8-0.7l0,0l-0.7-0.8l-0.2-1v-1.1l0.2-0.8l-3.4-1.8l0,0l-0.7,1l-0.7,0.7
		l-1,0.3l-1,0.3l0,0l-1.2-0.3l-1-0.3l-0.7-0.7l-0.7-1l-3.4,1.8l0,0l0.3,0.8v1.1l-0.3,1l-0.7,0.8l0,0l-0.8,0.7l-1.2,0.2h-0.8
		l-1.2-0.2l0,0l-1,1.5l-0.8,1.8l0,0l0.8,0.5l1,0.8l0.5,1l0.2,1l0,0l-0.2,1.1l-0.5,1l-0.7,0.7l-1,0.7l1.8,3.3l0,0l1-0.2h1l1,0.2
		l0.8,0.7l0,0l0.7,0.8l0.3,1v1l-0.3,1l3.4,1.8l0,0l0.7-1l0.7-0.7l1-0.5L243.8,202.6L243.8,202.6L243.8,202.6L243.8,202.6z"/>
	<path class="st65" d="M243.8,199L243.8,199l-1.5-0.3l-1.3-0.3l-1.3-0.5l-1-1l-1-1l-0.3-1.3l-0.5-1.3l-0.3-1.4l0,0l0.3-1.3l0.5-1.3
		l0.3-1.3l1-1.1l1-0.8l1.3-0.5l1.3-0.3l1.5-0.3l0,0l1.3,0.3l1.3,0.3l1.3,0.5l1.2,0.8l0.8,1.1l0.5,1.3l0.3,1.3l0.3,1.3l0,0l-0.3,1.4
		l-0.3,1.3l-0.5,1.3l-0.8,1l-1.2,1l-1.3,0.5l-1.3,0.3L243.8,199L243.8,199L243.8,199L243.8,199z M243.8,186.8L243.8,186.8h-1.2
		l-1,0.5l-0.8,0.3l-0.8,0.8l-0.7,0.8l-0.5,0.8l-0.5,1v1l0,0v1.1l0.5,1l0.5,0.8l0.7,0.8l0.8,0.6l0.8,0.5l1,0.5h1.2l0,0h1l1-0.5
		l0.8-0.5l0.8-0.6l0.8-0.8l0.3-0.8l0.5-1v-1.1l0,0v-1l-0.5-1l-0.3-0.8l-0.8-0.8l-0.8-0.8l-0.8-0.3l-1-0.5H243.8L243.8,186.8
		L243.8,186.8L243.8,186.8z"/>
	<polygon class="st65" points="260.3,219 260.3,217.8 260.3,217.8 260,217.2 259.7,216.8 259.2,216.5 258.5,216.3 258.5,216.3 
		257.8,216.5 257.3,216.8 256.8,217.2 256.7,217.8 256.7,219 255.5,218.5 255.5,218.5 253.7,218.2 252,217.2 250.8,216.5 
		251.7,215.7 251.7,215.7 252,215.2 252.2,214.5 252.2,214.5 252,213.8 251.7,213.2 251,213 250.3,212.7 250.3,212.7 249.7,213 
		249.3,213.2 248.3,214.2 247.7,213 247.7,213 246.8,211.2 246.3,209.3 247.8,209 247.8,209 248.3,210 248.8,211.3 248.8,211.3 
		249.5,211 250.3,211 250.3,211 251,211 251.7,211.2 252.8,212 253.7,213.2 254,213.8 254,214.5 254,214.5 254,215.5 253.5,216.2 
		253.5,216.2 255.2,216.8 255.2,216.8 255.8,215.8 256.5,215.2 257.3,214.8 258.5,214.5 258.5,214.5 259.7,214.8 260.5,215.2 
		261.2,215.8 261.8,216.8 261.8,216.8 263.3,216.2 263.3,216.2 263,215.5 263,214.5 263,214.5 263,213.8 263.2,213.2 264,212 
		265.2,211.2 265.8,211 266.5,211 266.5,211 267.5,211 268.2,211.3 268.2,211.3 268.8,209.8 268.8,209.8 267.8,209.2 267.2,208.5 
		266.8,207.5 266.5,206.5 266.5,206.5 266.8,205.3 267.2,204.5 267.8,203.8 268.8,203 268.8,203 268.2,201.5 268.2,201.5 267.5,202 
		266.5,202 266.5,202 265.8,202 265.2,201.7 264,200.8 263.2,199.7 263,199 263,198.3 263,198.3 263,197.5 263.3,196.8 263.3,196.8 
		262,196.3 261,195.8 261.3,194.3 261.3,194.3 263.2,194.8 265,195.7 266.2,196.3 265.2,197.2 265.2,197.2 265,197.7 264.7,198.3 
		264.7,198.3 265,199 265.2,199.7 265.8,200 266.5,200.2 266.5,200.2 267.2,200 267.7,199.7 268.5,198.8 269.2,200 269.2,200 
		270.2,201.7 270.7,203.5 271,204.7 269.8,204.7 269.8,204.7 269.2,204.8 268.8,205.3 268.5,205.8 268.3,206.5 268.3,206.5 
		268.5,207.2 268.8,207.5 269.2,208 269.8,208.2 271,208.2 270.7,209.3 270.7,209.3 270.2,211.2 269.2,213 268.5,214.2 267.7,213.2 
		267.7,213.2 267.2,213 266.5,212.7 266.5,212.7 265.8,213 265.2,213.2 265,213.8 264.7,214.5 264.7,214.5 265,215.2 265.2,215.7 
		266.2,216.5 265,217.2 265,217.2 263.2,218.2 261.3,218.5 260.3,219 260.3,219 	"/>
	<path class="st65" d="M258.3,211L258.3,211h-1l-0.9-0.5l-0.7-0.2l-0.7-0.7l-0.7-0.7l-0.2-0.9l-0.5-0.9v-0.9l0,0v-1l0.5-0.9l0.2-0.7
		l0.7-0.7l0.7-0.7l0.7-0.3l0.9-0.3h1l0,0h0.9l1,0.3l0.7,0.3l0.7,0.7l0.7,0.7l0.2,0.7l0.5,0.9v1l0,0v0.9l-0.5,0.9l-0.2,0.9l-0.7,0.7
		l-0.7,0.7l-0.7,0.2l-1,0.5H258.3L258.3,211L258.3,211L258.3,211z M258.3,203.6L258.3,203.6l-1.2,0.2l-0.7,0.7l-0.7,0.7l-0.2,1.2
		l0,0l0.2,1l0.7,0.7l0.7,0.9l1.2,0.2l0,0l1.2-0.2l0.7-0.9l0.7-0.7l0.2-1l0,0l-0.2-1.2l-0.7-0.7l-0.7-0.7L258.3,203.6L258.3,203.6
		L258.3,203.6L258.3,203.6z"/>
</g>
<g>
	<path class="st65" d="M355.4,208L355.4,208h-0.5l0,0l-0.2-0.5l-0.3-0.3l0,0l-0.2-0.7l-0.2-0.5l-0.7-0.5l-0.7-0.2l0,0l-0.7,0.2
		l-0.8,0.5l-0.2,0.5l-0.2,0.7l0,0l-0.3,0.3l-0.2,0.5l0,0h-0.5h-0.3l-5.5-2.6l0,0l-0.2-0.5l-0.2-0.2l0,0v-0.5l0.2-0.5l0,0l0.2-0.2
		l0.3-0.7v-0.7l-0.5-0.7l0,0l-0.5-0.5h-0.7H342l-0.3,0.5l0,0l-0.5,0.2h-0.5l0,0l-0.2-0.2l-0.5-0.2l-2.7-5.4l0,0v-0.3v-0.5l0,0
		l0.5-0.2l0.3-0.3l0,0l0.7-0.2l0.5-0.2l0.5-0.8l0.2-0.7l0,0l-0.2-0.7l-0.5-0.7l-0.5-0.2l-0.7-0.2l0,0l-0.3-0.3l-0.3-0.2l0,0
		l-0.2-0.2v-0.5l0,0l0.5-1.6l0.8-1.5l1.5-2.5l0,0l0.3-0.2l0.2-0.2l0,0h0.5l0.5,0.2l0,0l0.3,0.5h0.7h0.7l0.5-0.5l0,0l0.5-0.7v-0.7
		l-0.3-0.7l-0.2-0.3l0,0l-0.2-0.3v-0.5l0,0l0.2-0.2l0.2-0.5l5.5-2.6l0,0h0.3h0.5l0,0l0.2,0.3l0.3,0.5l0,0l0.2,0.7l0.2,0.5l0.8,0.5
		l0.7,0.2l0,0l0.7-0.2l0.7-0.5l0.2-0.5l0.2-0.7l0,0l0.3-0.5l0.2-0.3l0,0h0.5h0.3l5.5,2.6l0,0l0.2,0.5l0.2,0.2l0,0v0.5l-0.2,0.3l0,0
		l-0.2,0.3l-0.3,0.7v0.7l0.5,0.7l0,0l0.5,0.5h0.7h0.7l0.5-0.5l0,0l0.3-0.2h0.5l0,0l0.2,0.2l0.5,0.2l2.7,5.4l0,0v0.3v0.5l0,0
		l-0.5,0.2l-0.3,0.3l0,0l-0.7,0.2l-0.5,0.2l-0.5,0.7l-0.2,0.7l0,0l0.2,0.7l0.5,0.8l0.5,0.2l0.7,0.2l0,0l0.3,0.3l0.5,0.2l0,0v0.5v0.3
		l-2.7,5.4l0,0l-0.5,0.2l-0.2,0.2l0,0h-0.5l-0.3-0.2l0,0l-0.5-0.5h-0.7H362l-0.5,0.5l0,0l-0.5,0.7v0.7l0.3,0.7l0.2,0.2l0,0l0.2,0.5
		v0.5l0,0l-0.2,0.2l-0.2,0.5l-5.5,2.6l0,0H355.4L355.4,208L355.4,208L355.4,208z M352.8,203.6L352.8,203.6l1,0.2l1,0.5l0.7,0.7
		l0.7,1l3.4-1.8l0,0l-0.2-1v-1l0.2-1l0.7-0.8l0,0l0.8-0.7l1-0.2h1.2l0.8,0.2l1.8-3.3l0,0l-1-0.7l-0.7-0.7l-0.3-1l-0.3-1.1l0,0l0.3-1
		l0.3-1l0.7-0.7l1-0.7l-1.8-3.3l0,0l-0.8,0.2H362l-1-0.2l-0.8-0.7l0,0l-0.7-0.8l-0.2-1v-1.1l0.2-0.8l-3.4-1.8l0,0l-0.7,1l-0.7,0.7
		l-1,0.3l-1,0.3l0,0l-1.2-0.3l-1-0.3l-0.7-0.7l-0.7-1l-3.4,1.8l0,0l0.3,0.8v1.1l-0.3,1l-0.7,0.8l0,0l-0.8,0.7l-1.2,0.2h-0.8
		l-1.2-0.2l0,0l-1,1.5l-0.8,1.8l0,0l0.8,0.5l1,0.8l0.5,1l0.2,1l0,0l-0.2,1.1l-0.5,1l-0.7,0.7l-1,0.7l1.8,3.3l0,0l1-0.2h1l1,0.2
		l0.8,0.7l0,0l0.7,0.8l0.3,1v1l-0.3,1l3.4,1.8l0,0l0.7-1l0.7-0.7l1-0.5L352.8,203.6L352.8,203.6L352.8,203.6L352.8,203.6z"/>
	<path class="st65" d="M352.8,200L352.8,200l-1.5-0.3l-1.3-0.3l-1.3-0.5l-1-1l-1-1l-0.3-1.3l-0.5-1.3l-0.3-1.4l0,0l0.3-1.3l0.5-1.3
		l0.3-1.3l1-1.1l1-0.8l1.3-0.5l1.3-0.3l1.5-0.3l0,0l1.3,0.3l1.3,0.3l1.3,0.5l1.2,0.8l0.8,1.1l0.5,1.3l0.3,1.3l0.3,1.3l0,0l-0.3,1.4
		l-0.3,1.3l-0.5,1.3l-0.8,1l-1.2,1l-1.3,0.5l-1.3,0.3L352.8,200L352.8,200L352.8,200L352.8,200z M352.8,187.8L352.8,187.8h-1.2
		l-1,0.5l-0.8,0.3l-0.8,0.8l-0.7,0.8l-0.5,0.8l-0.5,1v1l0,0v1.1l0.5,1l0.5,0.8l0.7,0.8l0.8,0.6l0.8,0.5l1,0.5h1.2l0,0h1l1-0.5
		l0.8-0.5l0.8-0.6l0.8-0.8l0.3-0.8l0.5-1v-1.1l0,0v-1l-0.5-1l-0.3-0.8l-0.8-0.8l-0.8-0.8l-0.8-0.3l-1-0.5H352.8L352.8,187.8
		L352.8,187.8L352.8,187.8z"/>
	<polygon class="st65" points="369.3,220 369.3,218.8 369.3,218.8 369,218.2 368.7,217.8 368.2,217.5 367.5,217.3 367.5,217.3 
		366.8,217.5 366.3,217.8 365.8,218.2 365.7,218.8 365.7,220 364.5,219.5 364.5,219.5 362.7,219.2 361,218.2 359.8,217.5 
		360.7,216.7 360.7,216.7 361,216.2 361.2,215.5 361.2,215.5 361,214.8 360.7,214.2 360,214 359.3,213.7 359.3,213.7 358.7,214 
		358.3,214.2 357.3,215.2 356.7,214 356.7,214 355.8,212.2 355.3,210.3 356.8,210 356.8,210 357.3,211 357.8,212.3 357.8,212.3 
		358.5,212 359.3,212 359.3,212 360,212 360.7,212.2 361.8,213 362.7,214.2 363,214.8 363,215.5 363,215.5 363,216.5 362.5,217.2 
		362.5,217.2 364.2,217.8 364.2,217.8 364.8,216.8 365.5,216.2 366.3,215.8 367.5,215.5 367.5,215.5 368.7,215.8 369.5,216.2 
		370.2,216.8 370.8,217.8 370.8,217.8 372.3,217.2 372.3,217.2 372,216.5 372,215.5 372,215.5 372,214.8 372.2,214.2 373,213 
		374.2,212.2 374.8,212 375.5,212 375.5,212 376.5,212 377.2,212.3 377.2,212.3 377.8,210.8 377.8,210.8 376.8,210.2 376.2,209.5 
		375.8,208.5 375.5,207.5 375.5,207.5 375.8,206.3 376.2,205.5 376.8,204.8 377.8,204 377.8,204 377.2,202.5 377.2,202.5 376.5,203 
		375.5,203 375.5,203 374.8,203 374.2,202.7 373,201.8 372.2,200.7 372,200 372,199.3 372,199.3 372,198.5 372.3,197.8 372.3,197.8 
		371,197.3 370,196.8 370.3,195.3 370.3,195.3 372.2,195.8 374,196.7 375.2,197.3 374.2,198.2 374.2,198.2 374,198.7 373.7,199.3 
		373.7,199.3 374,200 374.2,200.7 374.8,201 375.5,201.2 375.5,201.2 376.2,201 376.7,200.7 377.5,199.8 378.2,201 378.2,201 
		379.2,202.7 379.7,204.5 380,205.7 378.8,205.7 378.8,205.7 378.2,205.8 377.8,206.3 377.5,206.8 377.3,207.5 377.3,207.5 
		377.5,208.2 377.8,208.5 378.2,209 378.8,209.2 380,209.2 379.7,210.3 379.7,210.3 379.2,212.2 378.2,214 377.5,215.2 376.7,214.2 
		376.7,214.2 376.2,214 375.5,213.7 375.5,213.7 374.8,214 374.2,214.2 374,214.8 373.7,215.5 373.7,215.5 374,216.2 374.2,216.7 
		375.2,217.5 374,218.2 374,218.2 372.2,219.2 370.3,219.5 369.3,220 369.3,220 	"/>
	<path class="st65" d="M367.3,212L367.3,212h-1l-0.9-0.5l-0.7-0.2l-0.7-0.7l-0.7-0.7l-0.2-0.9l-0.5-0.9v-0.9l0,0v-1l0.5-0.9l0.2-0.7
		l0.7-0.7l0.7-0.7l0.7-0.3l0.9-0.3h1l0,0h0.9l1,0.3l0.7,0.3l0.7,0.7l0.7,0.7l0.2,0.7l0.5,0.9v1l0,0v0.9l-0.5,0.9l-0.2,0.9l-0.7,0.7
		l-0.7,0.7l-0.7,0.2l-1,0.5H367.3L367.3,212L367.3,212L367.3,212z M367.3,204.6L367.3,204.6l-1.2,0.2l-0.7,0.7l-0.7,0.7l-0.2,1.2
		l0,0l0.2,1l0.7,0.7l0.7,0.9l1.2,0.2l0,0l1.2-0.2l0.7-0.9l0.7-0.7l0.2-1l0,0l-0.2-1.2l-0.7-0.7l-0.7-0.7L367.3,204.6L367.3,204.6
		L367.3,204.6L367.3,204.6z"/>
</g>
<g>
	<path class="st1" d="M114.7,293.2c0-8.8,7.3-16,16.3-16c9,0,16.3,7.1,16.3,16s-7.3,16-16.3,16C122,309.1,114.7,302,114.7,293.2
		L114.7,293.2z"/>
	<g>
		<defs>
			<polygon id="SVGID_57_" points="114,309.8 148,309.8 148,276.5 114,276.5 114,309.8 			"/>
		</defs>
		<clipPath id="SVGID_58_">
			<use xlink:href="#SVGID_57_"  style="overflow:visible;"/>
		</clipPath>
		<line class="st66" x1="129.3" y1="294.2" x2="124.4" y2="298.9"/>
		<g class="st67">
			<defs>
				<polygon id="SVGID_59_" points="114,309.8 148,309.8 148,276.5 114,276.5 114,309.8 				"/>
			</defs>
			<clipPath id="SVGID_60_">
				<use xlink:href="#SVGID_59_"  style="overflow:visible;"/>
			</clipPath>
			<polygon class="st68" points="126.3,300.9 120.3,302.8 122.4,296.8 126.3,300.9 			"/>
			<g class="st69">
				<defs>
					<polygon id="SVGID_61_" points="114,309.8 148,309.8 148,276.5 114,276.5 114,309.8 					"/>
				</defs>
				<clipPath id="SVGID_62_">
					<use xlink:href="#SVGID_61_"  style="overflow:visible;"/>
				</clipPath>
				<line class="st70" x1="132.9" y1="291.5" x2="137.7" y2="286.7"/>
				<g class="st71">
					<defs>
						<polygon id="SVGID_63_" points="114,309.8 148,309.8 148,276.5 114,276.5 114,309.8 						"/>
					</defs>
					<clipPath id="SVGID_64_">
						<use xlink:href="#SVGID_63_"  style="overflow:visible;"/>
					</clipPath>
					<polygon class="st72" points="135.7,284.7 141.7,282.7 139.7,288.7 135.7,284.7 					"/>
				</g>
			</g>
		</g>
	</g>
</g>
<g>
	<path class="st65" d="M153.4,329l-0.2-0.2l-2.1-1l-1.6-1.2l-1.6-1.2l-1.4-1.3l-1.2-1.3l-1-1.3l-1-1.5l-0.6-1.3l-1-2.9l-0.6-2.7
		l-0.4-2.3v-2.1v-0.8l0.6-0.2l2.3-0.6l2.1-0.8l1.9-1.2l1.7-1l2.3-1.9l0.8-0.8l0.6-0.6l0.6,0.6l1,0.8l2.3,1.9l1.6,1l1.9,1.2l2.1,0.8
		l2.3,0.6l0.8,0.2l-0.2,0.8v2.1l-0.2,2.3l-0.6,2.7l-1.2,2.9l-0.6,1.3l-0.8,1.5l-1,1.3l-1.2,1.3l-1.4,1.3l-1.6,1.2l-1.7,1.2l-1.9,1
		L153.4,329L153.4,329L153.4,329z M142.6,309.2L142.6,309.2v1.7l0.4,2.3l0.6,2.3l1,2.7l0.6,1.2l0.8,1.3l0.8,1.2l1.2,1.3l1.2,1.2
		l1.4,1l1.4,1l1.7,1l1.7-1l1.6-1l1.4-1l1.2-1.2l1-1.3l1-1.2l0.8-1.3l0.6-1.2l1-2.7l0.4-2.3l0.4-2.3v-1.7l-1.9-0.6l-1.7-0.8l-1.7-0.8
		l-1.4-1l-2.5-1.7l-1.6-1.2l-1.6,1.2l-2.3,1.7l-1.6,1l-1.7,0.8l-1.7,0.8L142.6,309.2L142.6,309.2L142.6,309.2z"/>
	<path class="st65" d="M153.5,304.5L153.5,304.5l-0.4,0.2v0.4v0.2l0.4,0.2l0.4-0.2l0.2-0.2l-0.2-0.4L153.5,304.5L153.5,304.5
		L153.5,304.5z M153.5,325.3L153.5,325.3l-0.4,0.2v0.4v0.4l0.4,0.2l0.4-0.2l0.2-0.4l-0.2-0.4L153.5,325.3L153.5,325.3L153.5,325.3z
		 M144.1,309.3L144.1,309.3l-0.4,0.2l-0.2,0.2l0.2,0.4l0.4,0.2l0.4-0.2v-0.4v-0.2L144.1,309.3L144.1,309.3L144.1,309.3z
		 M163.1,309.3L163.1,309.3l-0.4,0.2l-0.2,0.2l0.2,0.4l0.4,0.2l0.4-0.2v-0.4v-0.2L163.1,309.3L163.1,309.3L163.1,309.3z"/>
	<path class="st65" d="M157.2,313.8h-0.4V312v-0.7l-0.2-0.6l-0.4-0.6l-0.4-0.6l-0.6-0.4l-0.6-0.2l-0.6-0.2l-0.7-0.2h-0.6l-0.7,0.2
		l-0.6,0.4l-0.4,0.4l-0.6,0.6l-0.2,0.6l-0.2,0.6l-0.2,0.7v1.9h-0.4l-0.4,0.2l-0.4,0.2l-0.2,0.4l-0.2,0.6v3.4l0.2,0.6l0.2,0.4
		l0.4,0.2l0.4,0.2h7.5l0.4-0.2l0.4-0.2l0.4-0.4v-0.6v-3.4v-0.6l-0.4-0.4l-0.4-0.2L157.2,313.8L157.2,313.8L157.2,313.8z M151.3,312
		L151.3,312l0.2-0.9l0.4-0.7l0.7-0.6l0.9-0.2l0.9,0.2l0.7,0.6l0.6,0.7l0.2,0.9v1.9h-4.7V312L151.3,312L151.3,312z M154.4,316.4
		L154.4,316.4l-0.2,0.4l-0.2,0.2v0.9l-0.2,0.4h-0.4h-0.4v-0.4V317l-0.4-0.2v-0.4v-0.4v-0.4l0.2-0.2l0.4-0.2h0.2h0.4l0.2,0.2l0.2,0.2
		l0.2,0.4V316.4L154.4,316.4L154.4,316.4z"/>
</g>
<g>
	<path class="st64" d="M481.2,451c0-3.9,4.5-6.8,8.7-3.7c3.1,4.1,0.3,8.7-3.7,8.7C483.5,456,481.2,453.8,481.2,451L481.2,451z"/>
</g>
<g>
	<path class="st64" d="M543.2,418c0-3.9,4.5-6.8,8.7-3.7c3.1,4.1,0.3,8.7-3.7,8.7C545.5,423,543.2,420.8,543.2,418L543.2,418z"/>
</g>
<g>
	<path class="st64" d="M543.2,550c0-3.9,4.5-6.8,8.7-3.7c3.1,4.1,0.3,8.7-3.7,8.7C545.5,555,543.2,552.8,543.2,550L543.2,550z"/>
</g>
<rect x="101" y="136" class="st73" width="76" height="48"/>
<text transform="matrix(1 0 0 1 101 145.9389)"><tspan x="0" y="0" class="st74 st75 st76">Virtual </tspan><tspan x="0" y="16.8" class="st74 st75 st76">Appliance</tspan></text>
<rect x="213" y="136" class="st73" width="76" height="48"/>
<text transform="matrix(1 0 0 1 213 145.9389)"><tspan x="0" y="0" class="st74 st75 st76">Virtual </tspan><tspan x="0" y="16.8" class="st74 st75 st76">Appliance</tspan></text>
<rect x="325" y="136" class="st73" width="76" height="48"/>
<text transform="matrix(1 0 0 1 325 145.9389)"><tspan x="0" y="0" class="st74 st75 st76">Virtual </tspan><tspan x="0" y="16.8" class="st74 st75 st76">Appliance</tspan></text>
<rect x="113" y="249" class="st73" width="46" height="17"/>
<text transform="matrix(1 0 0 1 113 258.9389)" class="st74 st75 st76">Edge</text>
<rect x="235" y="251" class="st73" width="38" height="15"/>
<text transform="matrix(1 0 0 1 235 260.9389)" class="st74 st75 st76">VM</text>
<rect x="235" y="283" class="st73" width="38" height="15"/>
<text transform="matrix(1 0 0 1 235 292.9384)" class="st74 st75 st76">APP</text>
<rect x="344" y="283" class="st73" width="38" height="15"/>
<text transform="matrix(1 0 0 1 344 292.9384)" class="st74 st75 st76">APP</text>
<rect x="491" y="267" class="st73" width="38" height="15"/>
<text transform="matrix(1 0 0 1 491 276.9389)" class="st74 st75 st76">APP</text>
<rect x="659" y="266" class="st73" width="38" height="15"/>
<text transform="matrix(1 0 0 1 659 275.9389)" class="st74 st75 st76">APP</text>
<rect x="575" y="266" class="st73" width="38" height="15"/>
<text transform="matrix(1 0 0 1 575 275.9389)" class="st74 st75 st76">APP</text>
<rect x="240" y="308" class="st73" width="38" height="15"/>
<text transform="matrix(1 0 0 1 240 317.9384)" class="st74 st75 st76">OS</text>
<rect x="348" y="308" class="st73" width="38" height="15"/>
<text transform="matrix(1 0 0 1 348 317.9384)" class="st74 st75 st76">OS</text>
<rect x="497" y="291" class="st73" width="38" height="15"/>
<text transform="matrix(1 0 0 1 497 300.9384)" class="st74 st75 st76">OS</text>
<rect x="581" y="291" class="st73" width="38" height="15"/>
<text transform="matrix(1 0 0 1 581 300.9384)" class="st74 st75 st76">OS</text>
<rect x="665" y="291" class="st73" width="38" height="15"/>
<text transform="matrix(1 0 0 1 665 300.9384)" class="st74 st75 st76">OS</text>
<rect x="344" y="251" class="st73" width="38" height="15"/>
<text transform="matrix(1 0 0 1 344 260.9389)" class="st74 st75 st76">VM</text>
<rect x="523" y="180" class="st73" width="126" height="19"/>
<text transform="matrix(1 0 0 1 523 189.9389)" class="st74 st75 st76">Virtual Machines</text>
<rect x="109" y="93" class="st73" width="281" height="19"/>
<text transform="matrix(1 0 0 1 109 102.9389)" class="st74 st75 st76">Management /  Edge Infrastructure</text>
<rect x="540" y="93" class="st73" width="92" height="19"/>
<text transform="matrix(1 0 0 1 540 102.9389)" class="st74 st75 st76">Workloads</text>
<rect x="189" y="376" class="st73" width="92" height="19"/>
<text transform="matrix(1 0 0 1 189 385.9384)" class="st74 st75 st76">ESXi Host</text>
<rect x="548" y="376" class="st73" width="92" height="19"/>
<text transform="matrix(1 0 0 1 548 385.9384)" class="st74 st75 st76">ESXi Host</text>
<rect x="379" y="474" class="st73" width="92" height="19"/>
<text transform="matrix(1 0 0 1 379 483.9384)" class="st74 st75 st76">VDS-Public</text>
<rect x="379" y="569" class="st73" width="92" height="19"/>
<text transform="matrix(1 0 0 1 379 578.9384)" class="st74 st75 st76">VDS-Private</text>
<line class="st77" x1="209" y1="422" x2="209" y2="545"/>
<line class="st77" x1="548" y1="422" x2="548" y2="545"/>
<g>
	<line class="st78" x1="143.5" y1="421" x2="143.5" y2="446"/>
</g>
<g>
	<line class="st78" x1="486.5" y1="421" x2="486.5" y2="446"/>
</g>
<g>
	<path class="st79" d="M87.5,62.5c0-8.6,1.8-15.5,4-15.5H766c2.2,0,4,6.9,4,15.5"/>
</g>
<rect x="273" y="16" class="st73" width="283" height="21"/>
<text transform="matrix(1 0 0 1 273 28.7798)" class="st80 st75 st81">Management / Edge / Compute</text>
</svg>
