<?xml version="1.0" encoding="UTF-8" standalone="no"?>
<!-- Generator: Adobe Illustrator 21.0.0, SVG Export Plug-In . SVG Version: 6.00 Build 0)  -->

<svg
   xmlns:dc="http://purl.org/dc/elements/1.1/"
   xmlns:cc="http://creativecommons.org/ns#"
   xmlns:rdf="http://www.w3.org/1999/02/22-rdf-syntax-ns#"
   xmlns:svg="http://www.w3.org/2000/svg"
   xmlns="http://www.w3.org/2000/svg"
   xmlns:xlink="http://www.w3.org/1999/xlink"
   xmlns:sodipodi="http://sodipodi.sourceforge.net/DTD/sodipodi-0.dtd"
   xmlns:inkscape="http://www.inkscape.org/namespaces/inkscape"
   version="1.1"
   id="Layer_1"
   x="0px"
   y="0px"
   viewBox="0 0 851 408"
   style="enable-background:new 0 0 851 408;"
   xml:space="preserve"
   sodipodi:docname="design_overview.svg"
   inkscape:version="0.92.3 (2405546, 2018-03-11)"><metadata
   id="metadata201"><rdf:RDF><cc:Work
       rdf:about=""><dc:format>image/svg+xml</dc:format><dc:type
         rdf:resource="http://purl.org/dc/dcmitype/StillImage" /></cc:Work></rdf:RDF></metadata><defs
   id="defs199" /><sodipodi:namedview
   pagecolor="#ffffff"
   bordercolor="#666666"
   borderopacity="1"
   objecttolerance="10"
   gridtolerance="10"
   guidetolerance="10"
   inkscape:pageopacity="0"
   inkscape:pageshadow="2"
   inkscape:window-width="1920"
   inkscape:window-height="1017"
   id="namedview197"
   showgrid="false"
   inkscape:zoom="1.6715726"
   inkscape:cx="437.93916"
   inkscape:cy="204.25"
   inkscape:window-x="-8"
   inkscape:window-y="-8"
   inkscape:window-maximized="1"
   inkscape:current-layer="Layer_1" />
<style
   type="text/css"
   id="style2">
	.st0{fill:#F59C57;}
	.st1{fill-rule:evenodd;clip-rule:evenodd;fill:#1DA78D;}
	.st2{fill-rule:evenodd;clip-rule:evenodd;fill:#4C84C5;}
	.st3{fill-rule:evenodd;clip-rule:evenodd;fill:#959595;}
	.st4{fill-rule:evenodd;clip-rule:evenodd;fill:none;}
	.st5{fill:#FFFFFF;}
	.st6{font-family:'IBMPlexSans-Bold';}
	.st7{font-size:18px;}
	.st8{font-family:'IBMPlexSans';}
	.st9{font-size:16px;}
	.st10{font-size:21px;}
	.st11{fill:none;stroke:#FFFFFF;stroke-width:2;stroke-miterlimit:8;}
	.st12{clip-path:url(#SVGID_2_);fill:none;stroke:#FFFFFF;stroke-width:2;stroke-miterlimit:8;}
	.st13{clip-path:url(#SVGID_2_);}
	.st14{clip-path:url(#SVGID_4_);fill:none;stroke:#FFFFFF;stroke-width:2;stroke-miterlimit:8;}
	.st15{clip-path:url(#SVGID_4_);}
	.st16{clip-path:url(#SVGID_6_);fill:none;stroke:#FFFFFF;stroke-width:2;stroke-miterlimit:8;}
	.st17{clip-path:url(#SVGID_8_);fill:none;stroke:#FFFFFF;stroke-width:2;stroke-miterlimit:8;}
	.st18{clip-path:url(#SVGID_8_);}
	.st19{clip-path:url(#SVGID_10_);fill:none;stroke:#FFFFFF;stroke-width:2;stroke-miterlimit:8;}
	.st20{clip-path:url(#SVGID_10_);}
	.st21{clip-path:url(#SVGID_12_);fill:none;stroke:#FFFFFF;stroke-width:2;stroke-miterlimit:8;}
	.st22{clip-path:url(#SVGID_12_);}
	.st23{clip-path:url(#SVGID_14_);fill:none;stroke:#FFFFFF;stroke-width:2;stroke-miterlimit:8;}
	.st24{clip-path:url(#SVGID_14_);}
	.st25{clip-path:url(#SVGID_16_);fill:none;stroke:#FFFFFF;stroke-width:2;stroke-miterlimit:8;}
	.st26{clip-path:url(#SVGID_18_);}
	.st27{clip-path:url(#SVGID_20_);fill:#FFFFFF;}
	.st28{fill-rule:evenodd;clip-rule:evenodd;fill:#F2F2F2;}
	.st29{clip-path:url(#SVGID_22_);}
	.st30{clip-path:url(#SVGID_24_);fill:#FFFFFF;}
	.st31{clip-path:url(#SVGID_24_);fill:none;stroke:#FFFFFF;stroke-width:0.5;stroke-miterlimit:8;}
</style>
<rect
   x="13.3"
   y="24.9"
   class="st0"
   width="186.9"
   height="237.1"
   id="rect4" />
<polygon
   class="st1"
   points="211.9,148.4 839.2,148.4 839.2,260 211.9,260 211.9,148.4 "
   id="polygon6" />
<polygon
   class="st2"
   points="211.9,24.5 839.2,24.5 839.2,136.1 211.9,136.1 211.9,24.5 "
   id="polygon8" />
<polygon
   class="st3"
   points="9.6,272.3 839.2,272.3 839.2,383 9.6,383 9.6,272.3 "
   id="polygon10" />
<rect
   x="31.5"
   y="62"
   class="st4"
   width="168"
   height="45"
   id="rect12" />
<text
   class="st5 st6 st7"
   id="text14"
   style="font-style:normal;font-variant:normal;font-weight:normal;font-stretch:normal;font-size:18.06266594px;font-family:'MS UI Gothic';-inkscape-font-specification:'MS UI Gothic, Normal';font-variant-ligatures:normal;font-variant-caps:normal;font-variant-numeric:normal;font-feature-settings:normal;text-align:start;writing-mode:lr-tb;text-anchor:start;fill:#ffffff"
   x="56.576542"
   y="74.123322">共通サービス</text>

<text
   class="st5 st8 st9"
   id="text16"
   style="font-style:normal;font-variant:normal;font-weight:normal;font-stretch:normal;font-size:18.06266594px;font-family:'MS UI Gothic';-inkscape-font-specification:'MS UI Gothic, Normal';font-variant-ligatures:normal;font-variant-caps:normal;font-variant-numeric:normal;font-feature-settings:normal;text-align:start;writing-mode:lr-tb;text-anchor:start;fill:#ffffff"
   x="85.08168"
   y="122.80352">認証</text>

<text
   class="st5 st8 st9"
   id="text18"
   style="font-style:normal;font-variant:normal;font-weight:normal;font-stretch:normal;font-size:18.06266594px;font-family:'MS UI Gothic';-inkscape-font-specification:'MS UI Gothic, Normal';font-variant-ligatures:normal;font-variant-caps:normal;font-variant-numeric:normal;font-feature-settings:normal;text-align:start;writing-mode:lr-tb;text-anchor:start;fill:#ffffff"
   x="85.963646"
   y="155.80353">DNS</text>

<text
   class="st5 st8 st9"
   id="text20"
   style="font-style:normal;font-variant:normal;font-weight:normal;font-stretch:normal;font-size:18.06266594px;font-family:'MS UI Gothic';-inkscape-font-specification:'MS UI Gothic, Normal';font-variant-ligatures:normal;font-variant-caps:normal;font-variant-numeric:normal;font-feature-settings:normal;text-align:start;writing-mode:lr-tb;text-anchor:start;fill:#ffffff"
   x="86.316437"
   y="191.80353">NTP</text>

<text
   class="st5 st8 st9"
   id="text22"
   style="font-style:normal;font-variant:normal;font-weight:normal;font-stretch:normal;font-size:18.06266594px;font-family:'MS UI Gothic';-inkscape-font-specification:'MS UI Gothic, Normal';font-variant-ligatures:normal;font-variant-caps:normal;font-variant-numeric:normal;font-feature-settings:normal;text-align:start;writing-mode:lr-tb;text-anchor:start;fill:#ffffff"
   x="76.403137"
   y="221.80353">認証局</text>

<rect
   x="389"
   y="43"
   class="st4"
   width="283"
   height="39"
   id="rect24" />
<text
   class="st5 st6 st10"
   id="text26"
   style="font-style:normal;font-variant:normal;font-weight:normal;font-stretch:normal;font-size:18.06266594px;font-family:'MS UI Gothic';-inkscape-font-specification:'MS UI Gothic, Normal';font-variant-ligatures:normal;font-variant-caps:normal;font-variant-numeric:normal;font-feature-settings:normal;text-align:start;writing-mode:lr-tb;text-anchor:start;fill:#ffffff"
   x="437"
   y="58.540001">インフラストラクチャー管理</text>

<rect
   x="406"
   y="172"
   class="st4"
   width="217"
   height="45"
   id="rect28" />
<text
   class="st5 st6 st10"
   id="text30"
   style="font-style:normal;font-variant:normal;font-weight:normal;font-stretch:normal;font-size:18.06266594px;font-family:'MS UI Gothic';-inkscape-font-specification:'MS UI Gothic, Normal';font-variant-ligatures:normal;font-variant-caps:normal;font-variant-numeric:normal;font-feature-settings:normal;text-align:start;writing-mode:lr-tb;text-anchor:start;fill:#ffffff"
   x="420"
   y="187.53999">仮想インフラストラクチャー </text>

<rect
   x="317"
   y="300"
   class="st4"
   width="230"
   height="45"
   id="rect32" />
<text
   transform="matrix(1 0 0 1 317 315.54)"
   class="st5 st6 st10"
   id="text34"
   style="-inkscape-font-specification:'MS UI Gothic, Normal';font-family:'MS UI Gothic';font-weight:normal;font-style:normal;font-stretch:normal;font-variant:normal;font-size:18.06266658px;text-anchor:start;text-align:start;writing-mode:lr;font-variant-ligatures:normal;font-variant-caps:normal;font-variant-numeric:normal;font-feature-settings:normal;">物理インフラストラクチャー</text>

<text
   transform="matrix(1 0 0 1 270 110)"
   class="st5 st8 st7"
   id="text36"
   style="-inkscape-font-specification:'MS UI Gothic, Normal';font-family:'MS UI Gothic';font-weight:normal;font-style:normal;font-stretch:normal;font-variant:normal;font-size:18.06266658px;text-anchor:start;text-align:start;writing-mode:lr;font-variant-ligatures:normal;font-variant-caps:normal;font-variant-numeric:normal;font-feature-settings:normal;">Platform Services Controller</text>

<text
   transform="matrix(1 0 0 1 568 110)"
   class="st5 st8 st7"
   id="text38"
   style="-inkscape-font-specification:'MS UI Gothic, Normal';font-family:'MS UI Gothic';font-weight:normal;font-style:normal;font-stretch:normal;font-variant:normal;font-size:18.06266658px;text-anchor:start;text-align:start;writing-mode:lr;font-variant-ligatures:normal;font-variant-caps:normal;font-variant-numeric:normal;font-feature-settings:normal;">VMware vCenter Server</text>

<text
   transform="matrix(1 0 0 1 261 234.0703)"
   class="st5 st8 st7"
   id="text40"
   style="-inkscape-font-specification:'MS UI Gothic, Normal';font-family:'MS UI Gothic';font-weight:normal;font-style:normal;font-stretch:normal;font-variant:normal;font-size:18.06266658px;text-anchor:start;text-align:start;writing-mode:lr;font-variant-ligatures:normal;font-variant-caps:normal;font-variant-numeric:normal;font-feature-settings:normal;">VMware vSphere</text>

<text
   class="st5 st8 st7"
   id="text42"
   style="font-style:normal;font-variant:normal;font-weight:normal;font-stretch:normal;font-size:18.06266594px;font-family:'MS UI Gothic';-inkscape-font-specification:'MS UI Gothic, Normal';font-variant-ligatures:normal;font-variant-caps:normal;font-variant-numeric:normal;font-feature-settings:normal;text-align:start;writing-mode:lr-tb;text-anchor:start;fill:#ffffff"
   x="464"
   y="234.0703">VMware NSX</text>

<text
   transform="matrix(1 0 0 1 629 234.0703)"
   class="st5 st8 st7"
   id="text44"
   style="-inkscape-font-specification:'MS UI Gothic, Normal';font-family:'MS UI Gothic';font-weight:normal;font-style:normal;font-stretch:normal;font-variant:normal;font-size:18.06266658px;text-anchor:start;text-align:start;writing-mode:lr;font-variant-ligatures:normal;font-variant-caps:normal;font-variant-numeric:normal;font-feature-settings:normal;">VMware vSAN (オプション)</text>

<g
   id="g78">
	<polygon
   class="st11"
   points="620.8,220.7 620.8,220.7 620.8,220.5 620.7,220.1 620.2,219.7 619.4,219.2 618.5,218.7 617.3,218.4    616,218.2 614.6,217.9 612.9,217.9 611.3,217.9 609.9,218.2 608.6,218.4 607.4,218.7 606.5,219.2 605.7,219.7 605.2,220.1    605.1,220.5 605.1,220.7 605.1,225.3 605.1,225.6 605.2,225.9 605.7,226.4 606.5,226.9 607.4,227.3 608.6,227.6 609.9,227.9    611.3,228.1 612.9,228.1 614.6,228.1 616,227.9 617.3,227.6 618.5,227.3 619.4,226.9 620.2,226.4 620.7,225.9 620.8,225.6    620.8,225.3 620.8,220.7 620.8,220.7  "
   id="polygon46" />
	<g
   id="g76">
		<defs
   id="defs49">
			<polygon
   id="SVGID_1_"
   points="604.9,237.5 621,237.5 621,217.7 604.9,217.7 604.9,237.5    " />
		</defs>
		<clipPath
   id="SVGID_2_">
			<use
   xlink:href="#SVGID_1_"
   style="overflow:visible;"
   id="use51" />
		</clipPath>
		<polyline
   class="st12"
   points="605.1,220.7 605.1,220.7 605.1,221 605.2,221.3 605.7,221.8 606.5,222.3 607.4,222.7 608.6,223.1     609.9,223.3 611.3,223.6 612.9,223.6 614.6,223.6 616,223.3 617.3,223.1 618.5,222.7 619.4,222.3 620.2,221.8 620.7,221.3     620.8,221 620.8,220.7   "
   clip-path="url(#SVGID_2_)"
   id="polyline54" />
		<g
   class="st13"
   clip-path="url(#SVGID_2_)"
   id="g74">
			<defs
   id="defs57">
				<polygon
   id="SVGID_3_"
   points="604.9,237.5 621,237.5 621,217.7 604.9,217.7 604.9,237.5     " />
			</defs>
			<clipPath
   id="SVGID_4_">
				<use
   xlink:href="#SVGID_3_"
   style="overflow:visible;"
   id="use59" />
			</clipPath>
			<polyline
   class="st14"
   points="605.1,227.3 605.1,230 605.1,230.2 605.2,230.5 605.7,231 606.5,231.5 607.4,231.9 608.6,232.2      609.9,232.5 611.3,232.7 612.9,232.7 614.6,232.7 616,232.5 617.3,232.2 618.5,231.9 619.4,231.5 620.2,231 620.7,230.5      620.8,230.2 620.8,230 620.8,227.3    "
   clip-path="url(#SVGID_4_)"
   id="polyline62" />
			<g
   class="st15"
   clip-path="url(#SVGID_4_)"
   id="g72">
				<defs
   id="defs65">
					<polygon
   id="SVGID_5_"
   points="604.9,237.5 621,237.5 621,217.7 604.9,217.7 604.9,237.5      " />
				</defs>
				<clipPath
   id="SVGID_6_">
					<use
   xlink:href="#SVGID_5_"
   style="overflow:visible;"
   id="use67" />
				</clipPath>
				<polyline
   class="st16"
   points="605.1,231.8 605.1,234.6 605.1,234.8 605.2,235.1 605.7,235.6 606.5,236.1 607.4,236.5       608.6,236.8 609.9,237.1 611.3,237.3 612.9,237.3 614.6,237.3 616,237.1 617.3,236.8 618.5,236.5 619.4,236.1 620.2,235.6       620.7,235.1 620.8,234.8 620.8,234.6 620.8,231.8     "
   clip-path="url(#SVGID_6_)"
   id="polyline70" />
			</g>
		</g>
	</g>
</g>
<g
   id="g132">
	<polygon
   class="st11"
   points="234.8,236.7 234.8,216.8 234.8,216.6 234.9,216.4 235.1,216.3 235.3,216.3 254.7,216.3 254.9,216.3    255,216.4 255.2,216.6 255.2,216.8 255.2,236.7 255.2,237 255,237.1 254.9,237.2 254.7,237.2 235.3,237.2 235.1,237.2 234.9,237.1    234.8,237 234.8,236.7 234.8,236.7  "
   id="polygon80" />
	<g
   id="g130">
		<defs
   id="defs83">
			<polygon
   id="SVGID_7_"
   points="234.5,237.5 255.4,237.5 255.4,216 234.5,216 234.5,237.5    " />
		</defs>
		<clipPath
   id="SVGID_8_">
			<use
   xlink:href="#SVGID_7_"
   style="overflow:visible;"
   id="use85" />
		</clipPath>
		<line
   class="st17"
   x1="234.8"
   y1="219.4"
   x2="255.2"
   y2="219.7"
   clip-path="url(#SVGID_8_)"
   id="line88" />
		<g
   class="st18"
   clip-path="url(#SVGID_8_)"
   id="g128">
			<defs
   id="defs91">
				<polygon
   id="SVGID_9_"
   points="234.5,237.5 255.4,237.5 255.4,216 234.5,216 234.5,237.5     " />
			</defs>
			<clipPath
   id="SVGID_10_">
				<use
   xlink:href="#SVGID_9_"
   style="overflow:visible;"
   id="use93" />
			</clipPath>
			<line
   class="st19"
   x1="236.2"
   y1="217.7"
   x2="237"
   y2="218"
   clip-path="url(#SVGID_10_)"
   id="line96" />
			<g
   class="st20"
   clip-path="url(#SVGID_10_)"
   id="g126">
				<defs
   id="defs99">
					<polygon
   id="SVGID_11_"
   points="234.5,237.5 255.4,237.5 255.4,216 234.5,216 234.5,237.5      " />
				</defs>
				<clipPath
   id="SVGID_12_">
					<use
   xlink:href="#SVGID_11_"
   style="overflow:visible;"
   id="use101" />
				</clipPath>
				<line
   class="st21"
   x1="238.2"
   y1="217.7"
   x2="239"
   y2="218"
   clip-path="url(#SVGID_12_)"
   id="line104" />
				<g
   class="st22"
   clip-path="url(#SVGID_12_)"
   id="g124">
					<defs
   id="defs107">
						<polygon
   id="SVGID_13_"
   points="234.5,237.5 255.4,237.5 255.4,216 234.5,216 234.5,237.5       " />
					</defs>
					<clipPath
   id="SVGID_14_">
						<use
   xlink:href="#SVGID_13_"
   style="overflow:visible;"
   id="use109" />
					</clipPath>
					<polygon
   class="st23"
   points="250.9,226.7 250,224.8 248.9,225.2 248.4,224.6 247.8,224.1 248.1,223 246.3,222.2 245.8,223.2        244.9,223.2 244.2,223.2 243.7,222.2 241.8,223 242.2,224.1 241.5,224.6 241,225.2 239.8,224.8 239,226.7 240.1,227.3 240,228        240.1,228.8 239,229.4 239.8,231.3 241,230.9 241.5,231.5 242.2,232 241.8,233.1 243.7,233.8 244.2,232.9 244.9,232.9        245.8,232.9 246.3,233.8 248.1,233.1 247.8,232 248.4,231.5 248.9,230.9 250,231.3 250.9,229.4 249.8,228.8 249.9,228        249.8,227.3 250.9,226.7 250.9,226.7      "
   clip-path="url(#SVGID_14_)"
   id="polygon112" />
					<g
   class="st24"
   clip-path="url(#SVGID_14_)"
   id="g122">
						<defs
   id="defs115">
							<polygon
   id="SVGID_15_"
   points="234.5,237.5 255.4,237.5 255.4,216 234.5,216 234.5,237.5        " />
						</defs>
						<clipPath
   id="SVGID_16_">
							<use
   xlink:href="#SVGID_15_"
   style="overflow:visible;"
   id="use117" />
						</clipPath>
						<polygon
   class="st25"
   points="246.7,227.9 246.7,227.9 246.5,228.5 246.2,229.1 245.5,229.5 244.9,229.6 244.2,229.5         243.5,229.1 243.1,228.5 243,227.9 243.1,227.3 243.5,226.7 244.2,226.3 244.9,226.2 245.5,226.3 246.2,226.7 246.5,227.3         246.7,227.9 246.7,227.9       "
   clip-path="url(#SVGID_16_)"
   id="polygon120" />
					</g>
				</g>
			</g>
		</g>
	</g>
</g>
<g
   id="g152"
   transform="translate(12)">
	<g
   id="g150">
		<defs
   id="defs135">
			<polygon
   id="SVGID_17_"
   points="446.1,216 425.5,216 425.5,237.5 446.1,237.5 " />
		</defs>
		<clipPath
   id="SVGID_18_">
			<use
   xlink:href="#SVGID_17_"
   style="overflow:visible"
   id="use137"
   x="0"
   y="0"
   width="100%"
   height="100%" />
		</clipPath>
		<g
   class="st26"
   clip-path="url(#SVGID_18_)"
   id="g148">
			<defs
   id="defs141">
				<polygon
   id="SVGID_19_"
   points="446.1,216 425.5,216 425.5,237.5 446.1,237.5 " />
			</defs>
			<clipPath
   id="SVGID_20_">
				<use
   xlink:href="#SVGID_19_"
   style="overflow:visible"
   id="use143"
   x="0"
   y="0"
   width="100%"
   height="100%" />
			</clipPath>
			<path
   class="st27"
   d="m 443.9,232.1 v -5.4 h -8.1 v -5.5 c 1.3,-0.2 2.2,-1.3 2.2,-2.6 0,-1.5 -1.2,-2.7 -2.7,-2.7 -1.5,0 -2.7,1.2 -2.7,2.7 0,1.3 1,2.4 2.2,2.6 v 5.5 h -7.2 v 5.5 c -1.3,0.3 -2.2,1.3 -2.2,2.6 0,1.5 1.2,2.7 2.7,2.7 1.5,0 2.7,-1.2 2.7,-2.7 0,-1.3 -1,-2.4 -2.2,-2.6 v -4.6 H 443 v 4.6 c -1.3,0.2 -2.2,1.3 -2.2,2.6 0,1.5 1.2,2.7 2.7,2.7 1.5,0 2.7,-1.2 2.7,-2.7 -0.1,-1.3 -0.9,-2.5 -2.3,-2.7 z m -10.3,-13.4 c 0,-1 0.8,-1.8 1.8,-1.8 1,0 1.8,0.8 1.8,1.8 0,1 -0.8,1.8 -1.8,1.8 -1,0 -1.8,-0.8 -1.8,-1.8 z m -3.6,16.1 c 0,1 -0.8,1.8 -1.8,1.8 -1,0 -1.8,-0.8 -1.8,-1.8 0,-1 0.8,-1.8 1.8,-1.8 1,0 1.8,0.8 1.8,1.8 z m 13.5,1.8 c -1,0 -1.8,-0.8 -1.8,-1.8 0,-1 0.8,-1.8 1.8,-1.8 1,0 1.8,0.8 1.8,1.8 0,1 -0.9,1.8 -1.8,1.8 z"
   clip-path="url(#SVGID_20_)"
   id="path146"
   inkscape:connector-curvature="0"
   style="fill:#ffffff" />
		</g>
	</g>
</g>
<text
   transform="matrix(1 0 0 1 81 355)"
   class="st5 st8 st7"
   id="text154"
   style="-inkscape-font-specification:'MS UI Gothic, Normal';font-family:'MS UI Gothic';font-weight:normal;font-style:normal;font-stretch:normal;font-variant:normal;font-size:18.06266658px;text-anchor:start;text-align:start;writing-mode:lr;font-variant-ligatures:normal;font-variant-caps:normal;font-variant-numeric:normal;font-feature-settings:normal;">物理コンピュート</text>

<text
   transform="matrix(1 0 0 1 358 355)"
   class="st5 st8 st7"
   id="text156"
   style="-inkscape-font-specification:'MS UI Gothic, Normal';font-family:'MS UI Gothic';font-weight:normal;font-style:normal;font-stretch:normal;font-variant:normal;font-size:18.06266658px;text-anchor:start;text-align:start;writing-mode:lr;font-variant-ligatures:normal;font-variant-caps:normal;font-variant-numeric:normal;font-feature-settings:normal;">物理ネットワーク</text>

<text
   transform="matrix(1 0 0 1 623 355)"
   class="st5 st8 st7"
   id="text158"
   style="-inkscape-font-specification:'MS UI Gothic, Normal';font-family:'MS UI Gothic';font-weight:normal;font-style:normal;font-stretch:normal;font-variant:normal;font-size:18.06266658px;text-anchor:start;text-align:start;writing-mode:lr;font-variant-ligatures:normal;font-variant-caps:normal;font-variant-numeric:normal;font-feature-settings:normal;">物理ストレージ</text>

<g
   id="g168"
   transform="translate(48)">
	<path
   class="st28"
   d="m 364.1,54.9 h -2.4 l -0.7,-0.7 -0.1,-0.1 h -0.1 -0.1 -0.1 -1.7 -0.1 -0.1 l -0.1,0.1 -0.1,0.1 -0.1,0.1 v 0.1 0.1 0.1 4.3 0.1 0.1 0.1 l 0.1,0.1 h 0.1 0.1 0.1 0.1 5.2 0.1 0.1 0.1 0.1 l 0.1,-0.1 V 59.2 59.1 59 55.5 55.4 55.3 55.2 l -0.1,-0.1 -0.1,-0.1 h -0.1 z m -0.4,3.5 h -4.3 v -3.5 h 1.1 l 0.7,0.7 0.1,0.1 h 0.1 0.1 0.1 2.2 v 2.7 z"
   id="path160"
   inkscape:connector-curvature="0"
   style="clip-rule:evenodd;fill:#f2f2f2;fill-rule:evenodd" />
	<path
   class="st28"
   d="m 380.6,54.9 h -2.4 l -0.7,-0.7 -0.1,-0.1 h -0.1 -0.1 -0.1 -1.7 -0.1 -0.1 l -0.1,0.1 -0.1,0.1 -0.1,0.1 v 0.1 0.1 0.1 4.3 0.1 0.1 0.1 l 0.1,0.1 h 0.1 0.1 0.1 0.1 5.2 0.1 0.1 0.1 0.1 l 0.1,-0.1 V 59.2 59.1 59 55.5 55.4 55.3 55.2 L 381,55.1 380.9,55 h -0.1 z m -0.5,3.5 h -4.3 v -3.5 h 1.1 l 0.7,0.7 0.1,0.1 h 0.1 0.1 0.1 2.2 v 2.7 z"
   id="path162"
   inkscape:connector-curvature="0"
   style="clip-rule:evenodd;fill:#f2f2f2;fill-rule:evenodd" />
	<path
   class="st28"
   d="m 373.3,57.8 h -3.6 l -0.3,-0.6 v 0 0 -0.1 0 h -0.1 -0.1 -0.1 -0.1 -2.6 -0.1 -0.1 l -0.1,0.1 -0.1,0.1 v 0.1 0.1 0.1 0.1 5.2 0.1 0.1 0.1 0.1 l 0.1,0.1 h 0.1 0.1 0.1 6.9 0.1 0.1 0.1 l 0.1,-0.1 V 63.2 63.1 63 62.9 58.6 58.5 58.4 58.3 58.2 l -0.1,-0.1 h -0.1 z m -0.4,4.3 h -6 v -4.3 h 1.9 l 0.3,0.6 v 0.1 0.1 0 h 0.1 v 0 h 0.1 0.1 0.1 3.4 z"
   id="path164"
   inkscape:connector-curvature="0"
   style="clip-rule:evenodd;fill:#f2f2f2;fill-rule:evenodd" />
	<path
   class="st28"
   d="m 365.1,49.2 h 4.3 V 51 h -0.1 -0.1 l -0.1,0.1 -0.1,0.1 -0.1,0.1 -0.1,0.1 -0.1,0.1 -0.1,0.1 -0.1,0.1 -0.1,0.1 -0.1,0.1 -0.1,0.1 -0.1,0.1 v 0.1 0.1 0.1 h -6.5 -0.1 -0.1 -0.1 l -0.1,0.1 v 0.1 0.1 0.1 0.1 0.9 0.1 0.1 0.1 0.1 l 0.1,0.1 h 0.1 0.1 0.1 0.1 0.1 0.1 l 0.1,-0.1 0.1,-0.1 V 54 53.9 53.8 53.4 h 6.1 v 0.1 0.1 0.1 l 0.1,0.1 0.1,0.1 0.1,0.1 0.1,0.1 0.1,0.1 0.1,0.1 0.1,0.1 0.1,0.1 0.1,0.1 0.1,0.1 h 0.1 0.1 0.1 v 1.8 0.1 0.1 0.1 l 0.1,0.1 0.1,0.1 h 0.1 0.1 0.1 0.1 0.1 0.1 l 0.1,-0.1 0.1,-0.1 v -0.1 -0.1 -0.1 -1.8 h 0.1 0.1 0.1 l 0.1,-0.1 0.1,-0.1 0.1,-0.1 -0.1,-0.4 0.1,-0.1 0.1,-0.1 0.1,-0.1 0.1,-0.1 0.1,-0.1 0.1,-0.1 v -0.1 -0.1 -0.1 h 6.1 v 0.4 0.1 0.1 0.1 l 0.1,0.1 0.1,0.1 h 0.1 0.1 0.1 0.1 0.1 0.1 l 0.1,-0.1 0.1,-0.1 v -0.1 -0.1 -0.1 -0.9 -0.1 -0.1 -0.1 l -0.1,-0.1 -0.1,-0.1 h -0.1 -0.1 -0.1 -6.5 V 52 51.9 51.8 l -0.1,-0.1 -0.1,-0.1 -0.1,-0.1 -0.1,-0.1 -0.1,-0.1 -0.1,-0.1 -0.1,-0.1 -0.1,-0.1 -0.1,-0.1 -0.1,-0.1 -0.1,-0.1 h -0.1 -0.1 v -1.8 h 4.8 0.2 0.2 0.2 0.2 0.2 l 0.2,-0.1 0.2,-0.1 0.2,-0.1 0.2,-0.1 0.2,-0.1 0.2,-0.1 0.2,-0.1 0.2,-0.1 0.2,-0.1 0.1,-0.1 0.1,-0.1 0.1,-0.1 0.1,-0.1 0.1,-0.1 0.1,-0.2 0.1,-0.2 0.1,-0.2 0.1,-0.2 0.1,-0.2 0.1,-0.2 0.1,-0.2 v -0.2 -0.2 -0.2 -0.2 -0.2 -0.2 -0.2 -0.2 -0.2 -0.2 -0.2 l -0.1,-0.2 -0.1,-0.2 -0.1,-0.2 -0.1,-0.2 -0.1,-0.2 -0.1,-0.2 -0.1,-0.2 -0.1,-0.1 -0.1,-0.1 -0.1,-0.1 -0.1,-0.1 -0.1,-0.1 -0.1,-0.1 -0.1,-0.1 -0.1,-0.1 -0.1,-0.1 -0.1,-0.1 -0.2,-0.1 -0.2,-0.1 -0.2,-0.1 -0.2,-0.1 -0.2,-0.1 -0.2,-0.1 -0.2,-0.1 h -0.2 -0.2 -0.2 l -0.1,-0.2 -0.1,-0.2 -0.1,-0.2 -0.1,-0.2 -0.1,-0.2 -0.1,-0.2 -0.2,-0.2 -0.2,-0.2 -0.2,-0.1 -0.2,-0.1 -0.2,-0.1 -0.2,-0.1 -0.2,-0.1 -0.2,-0.1 h -0.2 -0.2 -0.2 -0.2 l -0.2,-0.3 -0.2,-0.2 -0.2,-0.2 -0.2,-0.2 -0.2,-0.2 -0.2,-0.2 -0.2,-0.2 -0.3,-0.2 -0.2,-0.1 -0.3,-0.1 -0.3,-0.1 -0.3,-0.1 -0.3,-0.1 h -0.3 -0.3 -0.3 -0.2 -0.2 -0.2 -0.2 -0.2 -0.2 l -0.2,0.1 -0.2,0.1 -0.2,0.1 -0.2,0.1 -0.2,0.1 -0.2,0.1 -0.2,0.1 -0.2,0.1 -0.2,0.1 -0.2,0.1 -0.2,0.1 -0.1,0.1 -0.1,0.1 -0.1,0.1 -0.1,0.2 -0.1,0.1 -0.1,0.2 -0.1,0.2 -0.1,0.2 -0.1,0.2 -0.1,0.2 -0.1,0.2 -0.1,0.2 -0.1,0.2 -0.1,0.2 -0.1,0.2 -0.2,0.1 -0.2,0.1 -0.2,0.1 -0.2,0.1 -0.2,0.1 -0.2,0.1 -0.1,0.1 -0.2,0.1 -0.2,0.1 -0.1,0.1 -0.1,0.1 -0.1,0.1 -0.1,0.1 -0.1,0.1 -0.1,0.1 -0.1,0.1 -0.1,0.1 -0.1,0.2 -0.1,0.1 -0.1,0.2 -0.1,0.2 -0.1,0.2 -0.1,0.2 -0.1,0.2 v 0.2 l -0.1,0.2 v 0.2 0.2 0.2 0.2 0.2 0.2 0.2 0.2 0.2 0.2 l 0.7,0.5 0.1,0.2 0.1,0.2 0.1,0.2 0.1,0.2 0.1,0.2 0.1,0.2 0.1,0.2 0.1,0.2 0.1,0.2 0.1,0.2 0.1,0.2 0.2,0.2 0.2,0.1 0.2,0.1 0.2,0.1 0.2,0.1 0.2,0.1 0.2,0.1 0.2,0.1 0.2,0.1 0.2,0.1 0.2,0.1 h 0.2 0.2 0.2 0.2 v 0 z m 5.7,3.5 v 0 0.2 0.1 0.1 0.1 l -0.1,0.1 v 0.1 l -0.1,0.1 h -0.1 l -0.1,0.1 h -0.1 -0.1 -0.1 -0.1 -0.1 -0.1 -0.1 -0.1 -0.1 -0.1 -0.1 -0.1 l -0.1,-0.1 H 369 l -0.1,-0.1 v -0.1 l -0.1,-0.1 V 53.1 53 52.9 52.8 52.7 52.6 52.5 52.4 52.3 52.2 l 0.1,-0.1 V 52 l 0.1,-0.1 0.1,-0.1 0.1,-0.1 h 0.1 0.1 0.1 0.1 0.1 0.1 0.1 0.1 0.1 0.1 0.1 0.1 l 0.1,0.1 0.1,0.1 0.1,0.1 v 0.1 l 0.1,0.1 v 0.1 0.1 0.1 z m -6.4,-11.2 v 0 l 0.1,-0.1 v 0 l 0.1,-0.1 v 0 -0.1 -0.1 -0.1 -0.2 -0.2 l 0.1,-0.2 0.1,-0.2 0.1,-0.2 0.1,-0.2 0.1,-0.2 0.1,-0.2 0.1,-0.1 0.1,-0.1 0.1,-0.1 0.1,-0.1 0.1,-0.1 0.1,-0.1 0.1,-0.1 0.1,-0.1 0.1,-0.1 0.1,-0.1 0.1,-0.1 0.1,-0.1 0.2,-0.1 0.1,-0.1 0.2,-0.1 0.2,-0.1 0.2,-0.1 0.2,-0.1 h 0.2 0.2 0.2 0.2 0.2 0.2 0.3 0.3 0.3 l 0.3,0.1 0.2,0.1 0.2,0.1 0.2,0.1 0.2,0.1 0.2,0.1 0.2,0.2 0.2,0.2 0.2,0.2 0.2,0.2 0.2,0.2 0.2,0.2 0.1,0.2 v 0.1 h 0.1 l 0.1,0.1 h 0.1 0.1 0.1 0.1 0.1 0.1 0.1 0.1 0.1 0.2 0.2 0.2 l 0.2,0.1 0.2,0.1 0.1,0.1 0.1,0.1 0.1,0.1 0.1,0.1 0.1,0.1 0.1,0.1 0.1,0.2 0.1,0.2 v 0.2 0.2 0.2 0.1 0.1 0.1 l 0.1,0.1 v 0.1 h 0.1 0.1 0.1 0.2 0.2 0.2 0.1 0.2 0.1 0.1 l 0.1,0.1 0.1,0.1 0.1,0.1 0.1,0.1 0.1,0.1 0.1,0.1 -0.2,0.3 0.1,0.1 0.1,0.1 0.1,0.1 0.1,0.1 0.1,0.1 0.1,0.1 0.1,0.1 0.1,0.1 0.1,0.1 0.1,0.1 v 0.1 l 0.1,0.1 v 0.1 0.1 0.2 0.1 0.2 0.2 0.2 0.2 0.2 0.1 0.2 0.1 l -0.1,0.2 v 0.1 l -0.1,0.2 -0.1,0.1 -0.1,0.1 -0.1,0.1 -0.1,0.1 -0.1,0.1 -0.1,0.1 -0.1,0.1 -0.1,0.1 -0.1,0.1 -0.1,0.1 -0.1,0.1 -0.1,0.1 -0.1,0.1 -0.1,0.1 -0.1,0.1 -0.1,0.1 -0.1,0.1 h -0.1 -0.2 -0.1 -0.2 -0.2 -0.2 -10 -0.2 -0.2 -0.2 -0.2 -0.2 l -0.2,-0.1 -0.2,-0.1 -0.2,-0.1 -0.2,-0.1 -0.2,-0.1 -0.1,-0.1 -0.1,-0.1 -0.1,-0.1 -0.1,-0.1 -0.1,-0.1 -0.1,-0.1 -0.1,-0.1 -0.1,-0.1 -0.1,-0.1 -0.1,-0.2 -0.1,-0.1 -0.1,-0.1 -0.1,-0.1 -0.1,-0.2 -0.1,-0.2 -0.1,-0.2 V 45.6 45.4 45.2 45 44.8 44.6 44.4 44.2 44.1 43.9 l 0.1,-0.3 0.1,-0.3 0.1,-0.3 0.1,-0.3 0.2,-0.2 0.2,-0.2 0.2,-0.2 0.2,-0.2 0.2,-0.2 0.2,-0.2 0.2,-0.1 0.3,-0.1 0.1,-0.1 h 0.1 l 0.1,-0.1 z"
   id="path166"
   inkscape:connector-curvature="0"
   style="clip-rule:evenodd;fill:#f2f2f2;fill-rule:evenodd" />
</g>
<g
   id="g194">
	<g
   id="g192">
		<defs
   id="defs171">
			<polygon
   id="SVGID_21_"
   points="281.5,322 307,322 307,296.5 281.5,296.5 281.5,322    " />
		</defs>
		<clipPath
   id="SVGID_22_">
			<use
   xlink:href="#SVGID_21_"
   style="overflow:visible;"
   id="use173" />
		</clipPath>
		<g
   class="st29"
   clip-path="url(#SVGID_22_)"
   id="g190">
			<defs
   id="defs177">
				<polygon
   id="SVGID_23_"
   points="281.5,322 307,322 307,296.5 281.5,296.5 281.5,322     " />
			</defs>
			<clipPath
   id="SVGID_24_">
				<use
   xlink:href="#SVGID_23_"
   style="overflow:visible;"
   id="use179" />
			</clipPath>
			<path
   class="st30"
   d="M296.4,297.6v23.4h-13.8v-23.4H296.4L296.4,297.6L296.4,297.6z M297.4,296.5h-15.9V322h15.9V296.5     L297.4,296.5L297.4,296.5z M305.9,297.6v23.4h-5.3v-23.4H305.9L305.9,297.6L305.9,297.6z M307,296.5h-7.4V322h7.4V296.5     L307,296.5L307,296.5z"
   clip-path="url(#SVGID_24_)"
   id="path182" />
			<path
   class="st31"
   d="M296.4,297.6v23.4h-13.8v-23.4H296.4L296.4,297.6L296.4,297.6z M297.4,296.5h-15.9V322h15.9V296.5     L297.4,296.5L297.4,296.5z M305.9,297.6v23.4h-5.3v-23.4H305.9L305.9,297.6L305.9,297.6z M307,296.5h-7.4V322h7.4V296.5     L307,296.5L307,296.5z"
   clip-path="url(#SVGID_24_)"
   id="path184" />
			<path
   class="st30"
   d="M294.3,300.8v4.3h-9.6v-4.3H294.3L294.3,300.8L294.3,300.8z M295.3,299.7h-11.7v6.4h11.7V299.7L295.3,299.7     L295.3,299.7z M303.8,299.7v1.1h-1.1v-1.1H303.8L303.8,299.7L303.8,299.7z M304.9,298.6h-3.2v3.2h3.2V298.6L304.9,298.6     L304.9,298.6z M303.8,303.9v1.1h-1.1v-1.1H303.8L303.8,303.9L303.8,303.9z M304.9,302.9h-3.2v3.2h3.2V302.9L304.9,302.9     L304.9,302.9z M303.8,308.2v1.1h-1.1v-1.1H303.8L303.8,308.2L303.8,308.2z M304.9,307.1h-3.2v3.2h3.2V307.1L304.9,307.1     L304.9,307.1z M303.8,312.4v1.1h-1.1v-1.1H303.8L303.8,312.4L303.8,312.4z M304.9,311.4h-3.2v3.2h3.2V311.4L304.9,311.4     L304.9,311.4z M303.8,316.7v1.1h-1.1v-1.1H303.8L303.8,316.7L303.8,316.7z M304.9,315.6h-3.2v3.2h3.2V315.6L304.9,315.6     L304.9,315.6z"
   clip-path="url(#SVGID_24_)"
   id="path186" />
			<path
   class="st31"
   d="M294.3,300.8v4.3h-9.6v-4.3H294.3L294.3,300.8L294.3,300.8z M295.3,299.7h-11.7v6.4h11.7V299.7L295.3,299.7     L295.3,299.7z M303.8,299.7v1.1h-1.1v-1.1H303.8L303.8,299.7L303.8,299.7z M304.9,298.6h-3.2v3.2h3.2V298.6L304.9,298.6     L304.9,298.6z M303.8,303.9v1.1h-1.1v-1.1H303.8L303.8,303.9L303.8,303.9z M304.9,302.9h-3.2v3.2h3.2V302.9L304.9,302.9     L304.9,302.9z M303.8,308.2v1.1h-1.1v-1.1H303.8L303.8,308.2L303.8,308.2z M304.9,307.1h-3.2v3.2h3.2V307.1L304.9,307.1     L304.9,307.1z M303.8,312.4v1.1h-1.1v-1.1H303.8L303.8,312.4L303.8,312.4z M304.9,311.4h-3.2v3.2h3.2V311.4L304.9,311.4     L304.9,311.4z M303.8,316.7v1.1h-1.1v-1.1H303.8L303.8,316.7L303.8,316.7z M304.9,315.6h-3.2v3.2h3.2V315.6L304.9,315.6     L304.9,315.6z"
   clip-path="url(#SVGID_24_)"
   id="path188" />
		</g>
	</g>
</g>
</svg>
