<?xml version="1.0" encoding="utf-8"?>
<!-- Generator: Adobe Illustrator 21.0.0, SVG Export Plug-In . SVG Version: 6.00 Build 0)  -->
<svg version="1.1" id="Layer_1" xmlns="http://www.w3.org/2000/svg" xmlns:xlink="http://www.w3.org/1999/xlink" x="0px" y="0px"
	 viewBox="0 0 725 315" style="enable-background:new 0 0 725 315;" xml:space="preserve">
<style type="text/css">
	.st0{fill:#4B84C4;}
	.st1{fill:#959595;}
	.st2{fill:#1AA78D;}
	.st3{fill:#F59C57;}
	.st4{fill:#FFFFFF;}
	.st5{font-family:'Roboto-Light';}
	.st6{font-size:22.7167px;}
	.st7{font-size:15.7941px;}
	.st8{font-size:22.8137px;}
	.st9{font-size:18.4264px;}
	.st10{font-size:12.2843px;}
	.st11{font-size:10.5294px;}
	.st12{font-size:23px;}
	.st13{font-size:24.1667px;}
	.st14{font-size:31.4167px;}
	.st15{font-size:24px;}
	.st16{font-size:19px;}
</style>
<rect x="198.5" y="-2.2" class="st0" width="526.5" height="89.1"/>
<rect x="-2.7" y="194.1" class="st1" width="727.7" height="120.8"/>
<rect x="198.5" y="95.7" class="st2" width="170.7" height="89.9"/>
<rect x="375.4" y="96.7" class="st2" width="169.8" height="87.7"/>
<rect x="551.9" y="96.7" class="st2" width="173.1" height="87.7"/>
<g id="Layer_2">
	<rect x="-2.7" y="-2.2" class="st3" width="194.7" height="186.7"/>
</g>
<g id="Layer_4">
	<text transform="matrix(1 0 0 1 11.0529 35.8409)" class="st4 st5 st6">Common Services</text>
	<text transform="matrix(1 0 0 1 44.7579 75.3497)"><tspan x="0" y="0" class="st4 st5 st7">Authentication</tspan><tspan x="35.2" y="31.4" class="st4 st5 st7">DNS</tspan><tspan x="36.2" y="62.8" class="st4 st5 st7">NTP</tspan><tspan x="-17.1" y="94.3" class="st4 st5 st7">Certificate Authority</tspan></text>
</g>
<text transform="matrix(1 0 0 1 332.3229 35.8409)"><tspan x="0" y="0" class="st4 st5 st8">Virtualization Management</tspan><tspan x="34.5" y="29.8" class="st4 st5 st9">VMware vCenter Server </tspan><tspan x="217.8" y="27.2" class="st4 st5 st7">速</tspan></text>
<text transform="matrix(1 0 0 1 206.0548 136.9747)"><tspan x="0" y="0" class="st4 st5 st7">Compute Virtualization</tspan><tspan x="29.5" y="20.9" class="st4 st5 st10">VMware vSphere </tspan><tspan x="118.7" y="18.3" class="st4 st5 st11">速</tspan></text>
<text transform="matrix(1 0 0 1 562.7335 145.4337)" class="st4 st5 st7">NetApp  ONTAP  Select</text>
<text transform="matrix(1 0 0 1 388.2081 136.9747)"><tspan x="0" y="0" class="st4 st5 st7">Network Virtualization</tspan><tspan x="38.5" y="20.9" class="st4 st5 st10">VMware NSX</tspan><tspan x="104.1" y="18.3" class="st4 st5 st11">  </tspan></text>
<text transform="matrix(1 0 0 1 176.7052 246.7403)"><tspan x="0" y="0" class="st4 st5 st12">Physical Infrastructure on IBM </tspan><tspan x="288.6" y="-7.3" class="st4 st5 st13">速</tspan><tspan x="298.7" y="0" class="st4 st5 st14">  </tspan><tspan x="312.1" y="0" class="st4 st5 st15">Cloud</tspan></text>
<text transform="matrix(1 0 0 1 200.6517 294.1616)" class="st4 st5 st16">Compute</text>
<text transform="matrix(1 0 0 1 334.018 294.1616)" class="st4 st5 st16">Storage </text>
<text transform="matrix(1 0 0 1 449.0178 293.2401)" class="st4 st5 st16">Network</text>
<text transform="matrix(1 0 0 1 498.8579 155.1814)" class="st4 st5 st11">速</text>
</svg>
