<?xml version="1.0" encoding="UTF-8" standalone="no"?>
<!-- Generator: Adobe Illustrator 21.0.0, SVG Export Plug-In . SVG Version: 6.00 Build 0)  -->

<svg
   xmlns:dc="http://purl.org/dc/elements/1.1/"
   xmlns:cc="http://creativecommons.org/ns#"
   xmlns:rdf="http://www.w3.org/1999/02/22-rdf-syntax-ns#"
   xmlns:svg="http://www.w3.org/2000/svg"
   xmlns="http://www.w3.org/2000/svg"
   xmlns:sodipodi="http://sodipodi.sourceforge.net/DTD/sodipodi-0.dtd"
   xmlns:inkscape="http://www.inkscape.org/namespaces/inkscape"
   version="1.1"
   x="0px"
   y="0px"
   viewBox="0 0 686 689"
   style="enable-background:new 0 0 686 689;"
   xml:space="preserve"
   id="svg2"
   inkscape:version="0.47 r22583"
   width="100%"
   height="100%"
   sodipodi:docname="target_hybrid_cloud_services_appliance.svg"><metadata
   id="metadata328"><rdf:RDF><cc:Work
       rdf:about=""><dc:format>image/svg+xml</dc:format><dc:type
         rdf:resource="http://purl.org/dc/dcmitype/StillImage" /><dc:title></dc:title></cc:Work></rdf:RDF></metadata><defs
   id="defs326"><inkscape:perspective
     sodipodi:type="inkscape:persp3d"
     inkscape:vp_x="0 : 344.5 : 1"
     inkscape:vp_y="0 : 1000 : 0"
     inkscape:vp_z="686 : 344.5 : 1"
     inkscape:persp3d-origin="343 : 229.66667 : 1"
     id="perspective330" /></defs><sodipodi:namedview
   pagecolor="#ffffff"
   bordercolor="#666666"
   borderopacity="1"
   objecttolerance="10"
   gridtolerance="10"
   guidetolerance="10"
   inkscape:pageopacity="0"
   inkscape:pageshadow="2"
   inkscape:window-width="1440"
   inkscape:window-height="838"
   id="namedview324"
   showgrid="false"
   inkscape:zoom="0.3425254"
   inkscape:cx="343"
   inkscape:cy="344.5"
   inkscape:window-x="-8"
   inkscape:window-y="-8"
   inkscape:window-maximized="1"
   inkscape:current-layer="svg2" />
<style
   type="text/css"
   id="style4">
	.st0{fill:#FFFFFF;}
	.st1{fill:none;stroke:#000000;stroke-miterlimit:10;}
	.st2{fill:none;stroke:#000000;stroke-miterlimit:10;stroke-dasharray:7.9157,7.9157;}
	.st3{fill:none;stroke:#000000;stroke-miterlimit:10;stroke-dasharray:7.903,7.903;}
	.st4{fill:#AADFF2;}
	.st5{fill:none;stroke:#000000;stroke-miterlimit:10;stroke-dasharray:7.9718,7.9718;}
	.st6{fill:none;stroke:#000000;stroke-miterlimit:10;stroke-dasharray:8.1177,8.1177;}
	.st7{font-family:'MyriadPro-Regular';}
	.st8{font-size:21px;}
	.st9{fill:#E1E5BA;}
	.st10{fill:none;stroke:#000000;stroke-miterlimit:10;stroke-dasharray:8.1892,8.1892;}
	.st11{fill:#FFFFFF;stroke:#000000;stroke-width:3;stroke-miterlimit:10;}
	.st12{fill:#FF7BAC;}
	.st13{font-family:'IBMPlexSans';}
	.st14{fill:#EF7C26;}
	.st15{fill:#F4BA51;}
	.st16{fill:#169ADB;stroke:#9BCCDD;stroke-width:0.5;stroke-miterlimit:10;}
	.st17{fill:url(#SVGID_1_);}
	.st18{font-size:11.4646px;}
	.st19{fill:url(#SVGID_2_);}
	.st20{font-size:9.2282px;}
	.st21{font-size:18px;}
	.st22{fill:#2B6782;}
	.st23{fill:#1E4C66;}
	.st24{font-size:16.5319px;}
</style>
<g
   id="Outter_dash_rectangle">
	<g
   id="g7">
		<rect
   x="9"
   y="64"
   class="st0"
   width="665"
   height="537.5"
   id="rect9" />
		<g
   id="g11">
			<polyline
   class="st1"
   points="674,597.5 674,601.5 670,601.5    "
   id="polyline13" />
			<line
   class="st2"
   x1="662.1"
   y1="601.5"
   x2="17"
   y2="601.5"
   id="line15" />
			<polyline
   class="st1"
   points="13,601.5 9,601.5 9,597.5    "
   id="polyline17" />
			<line
   class="st3"
   x1="9"
   y1="589.6"
   x2="9"
   y2="72"
   id="line19" />
			<polyline
   class="st1"
   points="9,68 9,64 13,64    "
   id="polyline21" />
			<line
   class="st2"
   x1="20.9"
   y1="64"
   x2="666"
   y2="64"
   id="line23" />
			<polyline
   class="st1"
   points="670,64 674,64 674,68    "
   id="polyline25" />
			<line
   class="st3"
   x1="674"
   y1="75.9"
   x2="674"
   y2="593.5"
   id="line27" />
		</g>
	</g>
</g>
<g
   id="Public_address_space_rectangle">
	<g
   id="g30">
		<rect
   x="59.5"
   y="94.5"
   class="st4"
   width="574"
   height="146"
   id="rect32" />
		<g
   id="g34">
			<polyline
   class="st1"
   points="633.5,236.5 633.5,240.5 629.5,240.5    "
   id="polyline36" />
			<line
   class="st5"
   x1="621.5"
   y1="240.5"
   x2="67.5"
   y2="240.5"
   id="line38" />
			<polyline
   class="st1"
   points="63.5,240.5 59.5,240.5 59.5,236.5    "
   id="polyline40" />
			<line
   class="st6"
   x1="59.5"
   y1="228.4"
   x2="59.5"
   y2="102.6"
   id="line42" />
			<polyline
   class="st1"
   points="59.5,98.5 59.5,94.5 63.5,94.5    "
   id="polyline44" />
			<line
   class="st5"
   x1="71.5"
   y1="94.5"
   x2="625.5"
   y2="94.5"
   id="line46" />
			<polyline
   class="st1"
   points="629.5,94.5 633.5,94.5 633.5,98.5    "
   id="polyline48" />
			<line
   class="st6"
   x1="633.5"
   y1="106.6"
   x2="633.5"
   y2="232.4"
   id="line50" />
		</g>
	</g>
	<text
   transform="matrix(1 0 0 1 428 226)"
   class="st7 st8"
   id="text52"><tspan
     style="-inkscape-font-specification:SimHei;font-family:SimHei"
     id="tspan3140">公共地址空间</tspan></text>

</g>
<g
   id="Private_address_space_rectangle">
	<g
   id="g55">
		<rect
   x="59.5"
   y="251.5"
   class="st9"
   width="574"
   height="311"
   id="rect57" />
		<g
   id="g59">
			<polyline
   class="st1"
   points="633.5,558.5 633.5,562.5 629.5,562.5    "
   id="polyline61" />
			<line
   class="st5"
   x1="621.5"
   y1="562.5"
   x2="67.5"
   y2="562.5"
   id="line63" />
			<polyline
   class="st1"
   points="63.5,562.5 59.5,562.5 59.5,558.5    "
   id="polyline65" />
			<line
   class="st10"
   x1="59.5"
   y1="550.3"
   x2="59.5"
   y2="259.6"
   id="line67" />
			<polyline
   class="st1"
   points="59.5,255.5 59.5,251.5 63.5,251.5    "
   id="polyline69" />
			<line
   class="st5"
   x1="71.5"
   y1="251.5"
   x2="625.5"
   y2="251.5"
   id="line71" />
			<polyline
   class="st1"
   points="629.5,251.5 633.5,251.5 633.5,255.5    "
   id="polyline73" />
			<line
   class="st10"
   x1="633.5"
   y1="263.7"
   x2="633.5"
   y2="554.4"
   id="line75" />
		</g>
	</g>
	<text
   class="st7 st8"
   id="text77"
   x="437"
   y="547"
   style="font-size:21px;font-family:MyriadPro-Regular"><tspan
     style="font-family:SimHei;-inkscape-font-specification:SimHei"
     id="tspan3154">专用地址空间</tspan></text>

</g>
<g
   id="ibm_cloud">
	<path
   class="st11"
   d="M141.2,59.9c0-11.4-13.4-20.6-29.9-20.6c-1.6,0-3.2,0.1-4.7,0.3c-1-2.2-2.6-4.2-4.6-5.8   c-4.7-3.8-10.8-4.5-15.7-2.3C83.5,16.9,72,6,58.2,6C43.8,6,32,17.8,29.8,33.2c-0.1,0-0.2,0-0.4,0c-11.6,0-21,10.6-21,23.7   c0,10,5.5,18.5,13.2,22v0.9h2.4c1.7,0.5,3.5,0.8,5.3,0.8c1.8,0,3.6-0.3,5.3-0.8h68.4c2.6,0.5,5.3,0.8,8.1,0.8   c2.8,0,5.5-0.3,8.1-0.8h2.4v-0.5C133.1,76.3,141.2,68.8,141.2,59.9z"
   id="path80" />
	<text
   transform="matrix(1 0 0 1 21 62)"
   class="st7 st8"
   id="text82">IBM Cloud</text>

</g>
<g
   id="lines">
	<line
   class="st1"
   x1="128"
   y1="190"
   x2="128"
   y2="406.5"
   id="line85" />
	<line
   class="st1"
   x1="262.5"
   y1="381"
   x2="262.5"
   y2="407.5"
   id="line87" />
</g>
<g
   id="pubic_VLAN_native">
	<g
   id="g90">
		<g
   id="g92">
			<g
   id="g94">
				<g
   id="g96">
					<path
   class="st12"
   d="M103.5,190.5L103.5,190.5l-0.4-0.1c-7.7-1.1-13.6-10.3-13.6-21.4s5.8-20.3,13.6-21.4l0.4-0.1v0h485.3       l0.2,0c7.6,0.4,13.5,9.8,13.5,21.5s-5.9,21.1-13.5,21.5l-0.4,0H103.5z"
   id="path98" />
					<path
   d="M588.6,148l0.3,0c7.2,0.4,13.1,9.8,13.1,21s-5.9,20.6-13.1,21l-0.2,0H103.8l-0.7-0.1c-7.4-1-13.1-10.2-13.1-20.9       s5.8-19.9,13.1-20.9l0.7-0.1H588.6 M589,147H103v0.1c-7.9,1.1-14,10.5-14,21.9c0,11.4,6.1,20.8,14,21.9v0.1h486v0       c7.8-0.4,14-10.1,14-22C603,157.1,596.8,147.4,589,147L589,147L589,147z"
   id="path100" />
				</g>
				<g
   id="g102">
					<path
   class="st0"
   d="M587.5,186.9c-5.5,0-10-8.2-10-18.4c0-10.1,4.5-18.4,10-18.4c5.5,0,10,8.2,10,18.4       C597.5,178.7,593,186.9,587.5,186.9z"
   id="path104" />
					<path
   d="M587.5,150.7c5.1,0,9.5,8.2,9.5,17.9c0,9.7-4.4,17.9-9.5,17.9c-5.1,0-9.5-8.2-9.5-17.9       C578,158.9,582.4,150.7,587.5,150.7 M587.5,149.7c-5.8,0-10.5,8.4-10.5,18.9c0,10.4,4.7,18.9,10.5,18.9S598,179,598,168.6       C598,158.1,593.3,149.7,587.5,149.7L587.5,149.7z"
   id="path106" />
				</g>
			</g>
		</g>
		<text
   transform="matrix(1 0 0 1 247.75 175.75)"
   class="st13 st8"
   id="text108"><tspan
   style="-inkscape-font-specification:SimHei;font-family:SimHei"
   id="tspan3136">公用</tspan> VLAN<tspan
   style="-inkscape-font-specification:SimHei;font-family:SimHei"
   id="tspan3138">（本机）</tspan></text>

	</g>
</g>
<g
   id="security_lock_icon">
</g>
<g
   id="security_lock_bottom">
</g>
<g
   id="gear_bottom">
</g>
<g
   id="gear_icon">
</g>
<g
   id="vSAN_vMotion">
	<g
   id="Layer_7">
	</g>
	<g
   id="g116">
		<g
   id="g118">
			<g
   id="g120">
				<path
   class="st14"
   d="M103.5,506.5L103.5,506.5l-0.4-0.1c-7.7-1-13.6-10-13.6-20.9s5.8-19.9,13.6-20.9l0.4-0.1v0h485.3l0.2,0      c7.6,0.4,13.5,9.6,13.5,21s-5.9,20.6-13.5,21l-0.4,0H103.5z"
   id="path122" />
				<path
   d="M588.6,465l0.3,0c7.2,0.4,13.1,9.6,13.1,20.5s-5.9,20.1-13.1,20.5l-0.2,0H103.8l-0.7-0.1c-7.4-1-13.1-9.9-13.1-20.4      c0-10.5,5.8-19.4,13.1-20.4l0.7-0.1H588.6 M589,464H103v0.1c-7.9,1-14,10.2-14,21.4s6.1,20.4,14,21.4v0.1h486v0      c7.8-0.4,14-9.9,14-21.5S596.8,464.4,589,464L589,464L589,464z"
   id="path124" />
			</g>
			<g
   id="g126">
				<path
   class="st0"
   d="M587.5,503c-5.5,0-10-8-10-17.9c0-9.9,4.5-17.9,10-17.9c5.5,0,10,8,10,17.9C597.5,494.9,593,503,587.5,503z      "
   id="path128" />
				<path
   d="M587.5,467.6c5.1,0,9.5,8,9.5,17.4c0,9.4-4.4,17.4-9.5,17.4c-5.1,0-9.5-8-9.5-17.4C578,475.6,582.4,467.6,587.5,467.6       M587.5,466.6c-5.8,0-10.5,8.3-10.5,18.4c0,10.2,4.7,18.4,10.5,18.4s10.5-8.3,10.5-18.4C598,474.9,593.3,466.6,587.5,466.6      L587.5,466.6z"
   id="path130" />
			</g>
		</g>
		<text
   class="st7 st8"
   id="text132"
   x="189"
   y="494"
   style="font-size:21px;font-family:MyriadPro-Regular">vSAN <tspan
   style="font-family:SimHei;-inkscape-font-specification:SimHei"
   id="tspan3150">和</tspan> vMotion - <tspan
   style="font-family:SimHei;-inkscape-font-specification:SimHei"
   id="tspan3152">专用</tspan> VLAN B</text>

	</g>
</g>
<g
   id="Logical_swiitch">
	<g
   id="Layer_9">
	</g>
</g>
<g
   id="management_vxlan">
	<g
   id="Layer_6">
	</g>
	<g
   id="g138">
		<g
   id="g140">
			<path
   class="st15"
   d="M103.5,450.5L103.5,450.5l-0.4-0.1c-7.7-1.1-13.6-10.3-13.6-21.4s5.8-20.3,13.6-21.4l0.4-0.1v0h485.3l0.2,0     c7.6,0.4,13.5,9.8,13.5,21.5s-5.9,21.1-13.5,21.5l-0.4,0H103.5z"
   id="path142" />
			<path
   d="M588.6,408l0.3,0c7.2,0.4,13.1,9.8,13.1,21s-5.9,20.6-13.1,21l-0.2,0H103.8l-0.7-0.1c-7.4-1-13.1-10.2-13.1-20.9     s5.8-19.9,13.1-20.9l0.7-0.1H588.6 M589,407H103v0.1c-7.9,1.1-14,10.5-14,21.9c0,11.4,6.1,20.8,14,21.9v0.1h486v0     c7.8-0.4,14-10.1,14-22C603,417.1,596.8,407.4,589,407L589,407L589,407z"
   id="path144" />
		</g>
		<g
   id="g146">
			<path
   class="st0"
   d="M587.5,446.9c-5.5,0-10-8.2-10-18.4s4.5-18.4,10-18.4c5.5,0,10,8.2,10,18.4S593,446.9,587.5,446.9z"
   id="path148" />
			<path
   d="M587.5,410.7c5.1,0,9.5,8.2,9.5,17.9c0,9.7-4.4,17.9-9.5,17.9c-5.1,0-9.5-8.2-9.5-17.9     C578,418.9,582.4,410.7,587.5,410.7 M587.5,409.7c-5.8,0-10.5,8.4-10.5,18.9c0,10.4,4.7,18.9,10.5,18.9S598,439,598,428.6     C598,418.1,593.3,409.7,587.5,409.7L587.5,409.7z"
   id="path150" />
		</g>
	</g>
	<text
   class="st7 st8"
   id="text152"
   x="155"
   y="436"
   style="font-size:21px;font-family:MyriadPro-Regular"><tspan
   style="font-family:SimHei;-inkscape-font-specification:SimHei"
   id="tspan3144">管理和</tspan> VXLAN - <tspan
   style="font-family:SimHei;-inkscape-font-specification:SimHei"
   id="tspan3146">专用</tspan> VLAN A<tspan
   style="font-family:SimHei;-inkscape-font-specification:SimHei"
   id="tspan3148">（本机）</tspan></text>

</g>
<g
   id="P_x2F_V">
	<g
   id="g155">
		<g
   id="g157">
			<g
   id="g159">
				<rect
   x="104.5"
   y="280"
   class="st16"
   width="47.3"
   height="47.3"
   id="rect161" />
				<linearGradient
   id="SVGID_1_"
   gradientUnits="userSpaceOnUse"
   x1="135.9627"
   y1="296.7212"
   x2="124.5096"
   y2="338.8456">
					<stop
   offset="0"
   style="stop-color:#CCE0F4"
   id="stop164" />
					<stop
   offset="7.748766e-02"
   style="stop-color:#C5DDF3"
   id="stop166" />
					<stop
   offset="0.1918"
   style="stop-color:#B1D5EF"
   id="stop168" />
					<stop
   offset="0.329"
   style="stop-color:#90C9EA"
   id="stop170" />
					<stop
   offset="0.4838"
   style="stop-color:#63B7E2"
   id="stop172" />
					<stop
   offset="0.6515"
   style="stop-color:#2AA1D9"
   id="stop174" />
					<stop
   offset="0.6829"
   style="stop-color:#1E9CD7"
   id="stop176" />
					<stop
   offset="0.8652"
   style="stop-color:#0075BE"
   id="stop178" />
					<stop
   offset="0.9944"
   style="stop-color:#005B97"
   id="stop180" />
				</linearGradient>
				<polygon
   class="st17"
   points="106.3,325.5 150,281.8 150,325.5     "
   id="polygon182" />
			</g>
			<text
   transform="matrix(1 0 0 1 108.084 315.4692)"
   class="st0 st13 st18"
   id="text184">P</text>

			<text
   transform="matrix(1 0 0 1 116.6836 324.0688)"
   class="st0 st13 st18"
   id="text186">V</text>

			<g
   id="g188">
				<g
   id="g190">
					<g
   id="g192">
						<g
   id="g194">
							<polygon
   class="st0"
   points="110.1,288.6 112.8,297.8 119.2,291.8        "
   id="polygon196" />
						</g>
					</g>
				</g>
				<g
   id="g198">
					<g
   id="g200">
						<g
   id="g202">
							
								<rect
   x="117"
   y="293.5"
   transform="matrix(0.7268 -0.6868 0.6868 0.7268 -172.128 163.1521)"
   class="st0"
   width="4.1"
   height="9"
   id="rect204" />
						</g>
					</g>
				</g>
			</g>
			<g
   id="g206">
				<g
   id="g208">
					<g
   id="g210">
						<g
   id="g212">
							<polygon
   class="st0"
   points="142.6,322.1 132.5,318.2 139.2,311.8        "
   id="polygon214" />
						</g>
					</g>
				</g>
				<g
   id="g216">
					<g
   id="g218">
						<g
   id="g220">
							
								<rect
   x="130.2"
   y="306.1"
   transform="matrix(0.7268 -0.6868 0.6868 0.7268 -177.6229 175.9507)"
   class="st0"
   width="4.3"
   height="10.4"
   id="rect222" />
						</g>
					</g>
				</g>
			</g>
		</g>
	</g>
</g>
<g
   id="Layer_15">
	<g
   id="g225">
		<g
   id="g227">
			<g
   id="g229">
				<rect
   x="232.5"
   y="619.9"
   class="st16"
   width="38.1"
   height="38.1"
   id="rect231" />
				<linearGradient
   id="SVGID_2_"
   gradientUnits="userSpaceOnUse"
   x1="257.8253"
   y1="633.3933"
   x2="248.6063"
   y2="667.3004">
					<stop
   offset="0"
   style="stop-color:#CCE0F4"
   id="stop234" />
					<stop
   offset="7.748766e-02"
   style="stop-color:#C5DDF3"
   id="stop236" />
					<stop
   offset="0.1918"
   style="stop-color:#B1D5EF"
   id="stop238" />
					<stop
   offset="0.329"
   style="stop-color:#90C9EA"
   id="stop240" />
					<stop
   offset="0.4838"
   style="stop-color:#63B7E2"
   id="stop242" />
					<stop
   offset="0.6515"
   style="stop-color:#2AA1D9"
   id="stop244" />
					<stop
   offset="0.6829"
   style="stop-color:#1E9CD7"
   id="stop246" />
					<stop
   offset="0.8652"
   style="stop-color:#0075BE"
   id="stop248" />
					<stop
   offset="0.9944"
   style="stop-color:#005B97"
   id="stop250" />
				</linearGradient>
				<polygon
   class="st19"
   points="234,656.5 269.1,621.4 269.1,656.5     "
   id="polygon252" />
			</g>
			<text
   transform="matrix(1 0 0 1 235.3848 648.484)"
   class="st0 st13 st20"
   id="text254">P</text>

			<text
   transform="matrix(1 0 0 1 242.3071 655.4059)"
   class="st0 st13 st20"
   id="text256">V</text>

			<g
   id="g258">
				<g
   id="g260">
					<g
   id="g262">
						<g
   id="g264">
							<polygon
   class="st0"
   points="237,626.9 239.2,634.3 244.3,629.4        "
   id="polygon266" />
						</g>
					</g>
				</g>
				<g
   id="g268">
					<g
   id="g270">
						<g
   id="g272">
							
								<rect
   x="242.6"
   y="630.8"
   transform="matrix(0.7268 -0.6868 0.6868 0.7268 -369.0017 341.0172)"
   class="st0"
   width="3.3"
   height="7.2"
   id="rect274" />
						</g>
					</g>
				</g>
			</g>
			<g
   id="g276">
				<g
   id="g278">
					<g
   id="g280">
						<g
   id="g282">
							<polygon
   class="st0"
   points="263.2,653.9 255,650.7 260.4,645.5        "
   id="polygon284" />
						</g>
					</g>
				</g>
				<g
   id="g286">
					<g
   id="g288">
						<g
   id="g290">
							
								<rect
   x="253.2"
   y="640.9"
   transform="matrix(0.7268 -0.6868 0.6868 0.7268 -373.4311 351.3326)"
   class="st0"
   width="3.5"
   height="8.4"
   id="rect292" />
						</g>
					</g>
				</g>
			</g>
		</g>
	</g>
	<text
   transform="matrix(1 0 0 1 215 679)"
   class="st7 st21"
   id="text294">NSX Edge</text>

</g>
<g
   id="Layer_16">
	<g
   id="g297">
		<g
   id="g299">
			<rect
   x="347"
   y="621"
   class="st22"
   width="41.1"
   height="37"
   id="rect301" />
			<rect
   x="387.2"
   y="621"
   class="st23"
   width="89.8"
   height="37"
   id="rect303" />
		</g>
		<text
   transform="matrix(1 0 0 1 353.2979 645.4043)"
   class="st0 st7 st24"
   id="text305">VM</text>

		<text
   class="st0 st7 st24"
   id="text307"
   x="401.93649"
   y="645.4043"
   style="font-size:16.53190041px;fill:#ffffff;font-family:MyriadPro-Regular">HCX <tspan
   style="font-family:SimHei;-inkscape-font-specification:SimHei"
   id="tspan3156">云</tspan></text>

	</g>
	<text
   transform="matrix(1 0 0 1 353 679)"
   class="st7 st21"
   id="text309">HCX Manager</text>

</g>
<g
   id="VM_HCX">
	<g
   id="g312">
		<g
   id="g314">
			<rect
   x="186"
   y="333"
   class="st22"
   width="50.8"
   height="47"
   id="rect316" />
			<rect
   x="235.8"
   y="333"
   class="st23"
   width="111.2"
   height="47"
   id="rect318" />
		</g>
		<text
   transform="matrix(1 0 0 1 194 364)"
   class="st0 st7 st8"
   id="text320">VM</text>

		<text
   class="st0 st7 st8"
   id="text322"
   x="252"
   y="364"
   style="font-size:21px;fill:#ffffff;font-family:MyriadPro-Regular">HCX <tspan
   style="font-family:SimHei;-inkscape-font-specification:SimHei"
   id="tspan3142">云</tspan></text>

	</g>
</g>
</svg>
