<?xml version="1.0" encoding="UTF-8" standalone="no"?>
<svg
   xmlns:dc="http://purl.org/dc/elements/1.1/"
   xmlns:cc="http://creativecommons.org/ns#"
   xmlns:rdf="http://www.w3.org/1999/02/22-rdf-syntax-ns#"
   xmlns:svg="http://www.w3.org/2000/svg"
   xmlns="http://www.w3.org/2000/svg"
   xmlns:sodipodi="http://sodipodi.sourceforge.net/DTD/sodipodi-0.dtd"
   xmlns:inkscape="http://www.inkscape.org/namespaces/inkscape"
   width="633px"
   height="701px"
   version="1.1"
   id="svg2"
   inkscape:version="0.47 r22583"
   sodipodi:docname="vcsicp-acme-skateboards-app.svg">
  <defs
     id="defs158">
    <inkscape:perspective
       sodipodi:type="inkscape:persp3d"
       inkscape:vp_x="0 : 350.5 : 1"
       inkscape:vp_y="0 : 1000 : 0"
       inkscape:vp_z="633 : 350.5 : 1"
       inkscape:persp3d-origin="316.5 : 233.66667 : 1"
       id="perspective160" />
  </defs>
  <sodipodi:namedview
     pagecolor="#ffffff"
     bordercolor="#666666"
     borderopacity="1"
     objecttolerance="10"
     gridtolerance="10"
     guidetolerance="10"
     inkscape:pageopacity="0"
     inkscape:pageshadow="2"
     inkscape:window-width="1440"
     inkscape:window-height="838"
     id="namedview156"
     showgrid="false"
     inkscape:zoom="0.67332382"
     inkscape:cx="316.5"
     inkscape:cy="350.5"
     inkscape:window-x="-8"
     inkscape:window-y="-8"
     inkscape:window-maximized="1"
     inkscape:current-layer="svg2" />
  <metadata
     id="metadata4">
    <rdf:RDF>
      <cc:Work
         rdf:about="">
        <dc:format>image/svg+xml</dc:format>
        <dc:type
           rdf:resource="http://purl.org/dc/dcmitype/StillImage" />
        <dc:title></dc:title>
      </cc:Work>
    </rdf:RDF>
  </metadata>
  <g
     transform="translate(.5 .5)"
     id="g6">
    <g
       pointer-events="none"
       id="g8">
      <rect
         width="630"
         height="660"
         fill="#fff"
         stroke="#000"
         id="rect10" />
      <rect
         x="1.5"
         y="150"
         width="630"
         height="510"
         fill="#dae8fc"
         stroke="#6c8ebf"
         id="rect12" />
      <rect
         x="31.5"
         y="200"
         width="570"
         height="350"
         fill="#d5e8d4"
         stroke="#82b366"
         id="rect14" />
    </g>
    <g
       font-family="Helvetica"
       font-size="12px"
       font-weight="bold"
       text-anchor="middle"
       id="g16">
      <text
         x="74"
         y="223.5"
         id="text18">ICP <tspan
   style="-inkscape-font-specification:SimHei;font-family:SimHei"
   id="tspan2972">集群</tspan>
</text>
    </g>
    <g
       pointer-events="none"
       id="g20">
      <rect
         x="57"
         y="400"
         width="160"
         height="135"
         fill="#ccc"
         stroke="#00f"
         id="rect22" />
      <rect
         x="66.5"
         y="415"
         width="140"
         height="90"
         fill="#fff"
         stroke="#00f"
         id="rect24" />
      <rect
         x="79.5"
         y="425"
         width="117"
         height="60"
         fill="#dae8fc"
         stroke="#6c8ebf"
         id="rect26" />
    </g>
    <g
       font-family="Helvetica"
       font-size="12px"
       text-anchor="middle"
       id="g28">
      <text
         x="134"
         y="498.5"
         id="text30">pod</text>
    </g>
    <path
       d="m187 445h45v165h94v-40h-1"
       fill="none"
       pointer-events="none"
       stroke="#c60"
       stroke-miterlimit="10"
       stroke-width="3"
       id="path32" />
    <rect
       x="89.5"
       y="435"
       width="97"
       height="20"
       fill="#f5f5f5"
       pointer-events="none"
       stroke="#666"
       id="rect34" />
    <g
       font-family="Helvetica"
       font-size="12px"
       text-anchor="middle"
       id="g36">
      <text
         x="151.12059"
         y="408.83453"
         id="text38"
         transform="scale(0.90943023,1.0995896)"
         style="font-size:10.91316319px">Acme Web <tspan
   style="font-family:SimHei;-inkscape-font-specification:SimHei"
   id="tspan2978">应用程序</tspan>
</text>
      <text
         x="136"
         y="478.5"
         id="text40">
        <tspan
           style="-inkscape-font-specification:SimHei;font-family:SimHei"
           id="tspan2980">容器</tspan>
      </text>
      <text
         x="137.5"
         y="528.5"
         id="text42">
        <tspan
           style="-inkscape-font-specification:SimHei;font-family:SimHei"
           id="tspan2982">工作程序节点</tspan>
      </text>
    </g>
    <rect
       x="240"
       y="230"
       width="160"
       height="80"
       fill="#ccc"
       pointer-events="none"
       stroke="#00f"
       id="rect44" />
    <g
       font-family="Helvetica"
       font-size="12px"
       text-anchor="middle"
       id="g46">
      <text
         x="319.5"
         y="293.5"
         id="text48">
        <tspan
           style="-inkscape-font-specification:SimHei;font-family:SimHei"
           id="tspan2976">代理节点</tspan>
      </text>
    </g>
    <rect
       x="250"
       y="250"
       width="140"
       height="30"
       fill="#fff"
       pointer-events="none"
       stroke="#00f"
       id="rect50" />
    <g
       font-family="Helvetica"
       font-size="12px"
       text-anchor="middle"
       id="g52">
      <text
         x="319.5"
         y="268.5"
         id="text54">Ingress <tspan
   style="-inkscape-font-specification:SimHei;font-family:SimHei"
   id="tspan2974">控制器</tspan>
</text>
    </g>
    <g
       pointer-events="none"
       id="g56">
      <path
         d="m320 190v40"
         fill="none"
         stroke="#090"
         stroke-miterlimit="10"
         stroke-width="3"
         id="path58" />
      <path
         d="m320 160v-40h1v-10"
         fill="none"
         stroke="#090"
         stroke-miterlimit="10"
         stroke-width="3"
         id="path60" />
      <rect
         x="250"
         y="160"
         width="140"
         height="30"
         fill="#fff"
         stroke="#00f"
         id="rect62" />
    </g>
    <g
       font-family="Helvetica"
       font-size="12px"
       text-anchor="middle"
       id="g64">
      <text
         x="319.5"
         y="178.5"
         id="text66">NSX <tspan
   style="-inkscape-font-specification:SimHei;font-family:SimHei"
   id="tspan2968">网络</tspan>
 / <tspan
   style="-inkscape-font-specification:SimHei;font-family:SimHei"
   id="tspan2970">安全性</tspan>
</text>
    </g>
    <g
       pointer-events="none"
       id="g68">
      <rect
         x="242"
         y="400"
         width="160"
         height="135"
         fill="#ccc"
         stroke="#00f"
         id="rect70" />
      <rect
         x="252"
         y="415"
         width="140"
         height="90"
         fill="#fff"
         stroke="#00f"
         id="rect72" />
      <rect
         x="265"
         y="425"
         width="117"
         height="60"
         fill="#dae8fc"
         stroke="#6c8ebf"
         id="rect74" />
    </g>
    <g
       font-family="Helvetica"
       font-size="12px"
       text-anchor="middle"
       id="g76">
      <text
         x="319.5"
         y="498.5"
         id="text78">pod</text>
    </g>
    <path
       d="m275 445h-43v165h173v-5h-0.4"
       fill="none"
       pointer-events="none"
       stroke="#c60"
       stroke-miterlimit="10"
       stroke-width="3"
       id="path80" />
    <rect
       x="275"
       y="435"
       width="97"
       height="20"
       fill="#f5f5f5"
       pointer-events="none"
       stroke="#666"
       id="rect82" />
    <g
       font-family="Helvetica"
       font-size="12px"
       text-anchor="middle"
       id="g84">
      <text
         x="355.69754"
         y="407.87946"
         id="text86"
         transform="scale(0.90943022,1.0995896)"
         style="font-size:10.91316223px">Acme Web <tspan
   style="font-family:SimHei;-inkscape-font-specification:SimHei"
   id="tspan2984">应用程序</tspan>
</text>
      <text
         x="321.5"
         y="478.5"
         id="text88">
        <tspan
           style="-inkscape-font-specification:SimHei;font-family:SimHei"
           id="tspan2986">容器</tspan>
      </text>
      <text
         x="323"
         y="528.5"
         id="text90">
        <tspan
           style="-inkscape-font-specification:SimHei;font-family:SimHei"
           id="tspan2988">工作程序节点</tspan>
      </text>
    </g>
    <g
       pointer-events="none"
       id="g92">
      <rect
         x="423"
         y="400"
         width="160"
         height="135"
         fill="#ccc"
         stroke="#00f"
         id="rect94" />
      <rect
         x="433"
         y="415"
         width="140"
         height="90"
         fill="#fff"
         stroke="#00f"
         id="rect96" />
      <rect
         x="446"
         y="425"
         width="117"
         height="60"
         fill="#dae8fc"
         stroke="#6c8ebf"
         id="rect98" />
    </g>
    <g
       font-family="Helvetica"
       font-size="12px"
       text-anchor="middle"
       id="g100">
      <text
         x="500.5"
         y="498.5"
         id="text102">pod</text>
    </g>
    <path
       d="m456 445h-44v165h-12"
       fill="none"
       pointer-events="none"
       stroke="#c60"
       stroke-miterlimit="10"
       stroke-width="3"
       id="path104" />
    <rect
       x="456"
       y="435"
       width="97"
       height="20"
       fill="#f5f5f5"
       pointer-events="none"
       stroke="#666"
       id="rect106" />
    <g
       font-family="Helvetica"
       font-size="12px"
       text-anchor="middle"
       id="g108">
      <text
         x="554.72314"
         y="407.87946"
         id="text110"
         transform="scale(0.90943021,1.0995896)"
         style="font-size:10.91316319px">Acme Web <tspan
   style="font-family:SimHei;-inkscape-font-specification:SimHei"
   id="tspan2990">应用程序</tspan>
</text>
      <text
         x="502.5"
         y="478.5"
         id="text112">
        <tspan
           style="-inkscape-font-specification:SimHei;font-family:SimHei"
           id="tspan2992">容器</tspan>
      </text>
      <text
         x="504"
         y="528.5"
         id="text114">
        <tspan
           style="-inkscape-font-specification:SimHei;font-family:SimHei"
           id="tspan2994">工作程序节点</tspan>
      </text>
    </g>
    <rect
       x="244.6"
       y="570"
       width="160"
       height="70"
       fill="#ccc"
       pointer-events="none"
       stroke="#00f"
       id="rect116" />
    <rect
       x="254.6"
       y="590"
       width="140"
       height="20"
       fill="#fff"
       pointer-events="none"
       stroke="#00f"
       id="rect118" />
    <g
       font-family="Helvetica"
       font-size="12px"
       text-anchor="middle"
       id="g120">
      <text
         x="322.1"
         y="603.5"
         id="text122">MYSQL</text>
    </g>
    <g
       font-family="Helvetica"
       font-size="12px"
       text-anchor="middle"
       id="g124">
      <text
         x="323.60001"
         y="633.5"
         id="text126">
        <tspan
           style="font-family:SimHei;-inkscape-font-specification:SimHei"
           id="tspan2996">虚拟机</tspan>
      </text>
    </g>
    <g
       fill="none"
       pointer-events="none"
       stroke="#090"
       stroke-miterlimit="10"
       stroke-width="3"
       id="g128">
      <path
         d="m324 435-4-125"
         id="path130" />
      <path
         d="m505 435-185-125"
         id="path132" />
      <path
         d="m138 435 182-125"
         id="path134" />
    </g>
    <g
       font-family="Helvetica"
       font-size="12px"
       font-weight="bold"
       text-anchor="middle"
       id="g136">
      <text
         x="66"
         y="168.5"
         id="text138">VCS <tspan
   style="-inkscape-font-specification:SimHei;font-family:SimHei"
   id="tspan2966">集群</tspan>
</text>
    </g>
    <path
       d="m310.49 108c1.57 0 2.85-1.28 2.85-2.85s-1.27-2.84-2.85-2.84-2.85 1.27-2.85 2.84 1.27 2.85 2.85 2.85zm23.01-0.06c1.57 0 2.85-1.29 2.85-2.88 0-1.58-1.28-2.86-2.85-2.86s-2.84 1.28-2.84 2.86c-0.01 1.59 1.27 2.88 2.84 2.88zm-28.64-8.43s-1.67-0.09-1.67-1.81v-0.16c0-1.69 1.67-1.81 1.67-1.81h34.13s1.67 0.16 1.67 1.81v0.16c0 1.66-1.67 1.81-1.67 1.81h-34.13zm23.71-74.39c4.17 0 7.57-3.4 7.57-7.58 0-4.17-3.39-7.54-7.57-7.54-4.16 0-7.56 3.37-7.56 7.54 0.01 4.18 3.4 7.58 7.56 7.58zm-41.02 66.13c-0.35 0.67-0.55 1.43-0.55 2.25 0 2.66 2.16 4.83 4.84 4.83 1.92 0 3.58-1.12 4.36-2.73l16.5-28.38-6.85-6.85-18.3 30.88zm33.14-1.27c-0.71 1.61-2.23 2.73-4.01 2.73-2.44 0-4.44-2.17-4.44-4.83 0-0.83 0.19-1.59 0.51-2.26l6.63-12.63-12.91-13.94c-4.97-5.41-1.43-11.25-1.43-11.25l6.95-13.33-18.43 0.02c-2.04 0-3.66-1.78-3.66-3.97 0-2.16 1.62-3.96 3.66-3.96h55.8c2.01 0 3.64 1.79 3.64 3.98 0 2.18-1.62 3.95-3.64 3.95h-21.29l-10.15 19.31 10.34 11.09c3.61 3.78 1.27 8.02 1.27 8.02l-8.84 17.07z"
       pointer-events="none"
       id="path140" />
    <rect
       y="660"
       width="630"
       height="40"
       fill="#e1d5e7"
       pointer-events="none"
       stroke="#9673a6"
       id="rect142" />
    <g
       font-family="Helvetica"
       font-size="12px"
       text-anchor="middle"
       id="g144">
      <text
         x="314.5"
         y="683.5"
         id="text146">Watson Skateboards <tspan
   style="-inkscape-font-specification:SimHei;font-family:SimHei"
   id="tspan2998">服务</tspan>
</text>
    </g>
    <g
       fill="none"
       pointer-events="none"
       stroke="#000"
       stroke-miterlimit="10"
       stroke-width="2"
       id="g148">
      <path
         d="m138 658v-123"
         id="path150" />
      <path
         d="m506 661-1-126"
         id="path152" />
      <path
         d="m324 535v15q0 10 10 10h166"
         id="path154" />
    </g>
  </g>
</svg>
