<?xml version="1.0" encoding="UTF-8"?>
<svg xmlns="http://www.w3.org/2000/svg" xmlns:xlink="http://www.w3.org/1999/xlink" version="1.1" width="880px" height="601px" viewBox="-0.5 -0.5 880 601"><defs/><g><rect x="0" y="80" width="310" height="260" fill="#ffffff" stroke="#000000" pointer-events="none"/><g fill="#000000" font-family="Helvetica" text-anchor="middle" font-size="12px"><text x="154.5" y="129.5">vCenter </text><text x="154.5" y="143.5">Platform Services Controller</text><text x="154.5" y="157.5">Host vSphere</text><text x="154.5" y="171.5">NSX Manager </text><text x="154.5" y="185.5">Controller NSX</text><text x="154.5" y="199.5">Edge NSX</text><text x="154.5" y="213.5">HCX</text><text x="154.5" y="227.5">F5</text><text x="154.5" y="241.5">Router logici distribuiti NSX</text><text x="154.5" y="255.5">Router logici distribuiti universali NSX</text><text x="154.5" y="269.5">Modulo kernel ESXi del firewall distribuito NSX</text><text x="154.5" y="283.5">Nodi cluster di analitica vRealize Operations Manager</text><text x="154.5" y="297.5">Raccoglitori remoti vRealize Operations Manager</text></g><rect x="0" y="350" width="310" height="80" fill="#ffffff" stroke="#000000" pointer-events="none"/><g fill="#000000" font-family="Helvetica" text-anchor="middle" font-size="12px"><text x="154.5" y="393.5">VM</text><text x="154.5" y="407.5">vRealize Operations</text><text x="154.5" y="421.5">vRealize Business for Cloud</text></g><rect x="500" y="80" width="120" height="60" fill="#dae8fc" stroke="#6c8ebf" pointer-events="none"/><g fill="#000000" font-family="Helvetica" text-anchor="middle" font-size="12px"><text x="559.5" y="99.5">vRealize</text><text x="559.5" y="113.5">Operations</text><text x="559.5" y="127.5">Manager</text></g><rect x="500" y="180" width="120" height="60" fill="#d5e8d4" stroke="#82b366" pointer-events="none"/><g fill="#000000" font-family="Helvetica" text-anchor="middle" font-size="12px"><text x="559.5" y="206.5">vRealize</text><text x="559.5" y="220.5">Log Insight</text></g><rect x="500" y="280" width="120" height="60" fill="#ffe6cc" stroke="#d79b00" pointer-events="none"/><g fill="#000000" font-family="Helvetica" text-anchor="middle" font-size="12px"><text x="559.5" y="306.5">vRealize</text><text x="559.5" y="320.5">Network Insight</text></g><g fill="#000000" font-family="Helvetica" text-anchor="middle" font-size="12px"><text x="788.5" y="215">Inoltro di eventi da un altro vRLI</text></g><g fill="#000000" font-family="Helvetica" font-weight="bold" text-anchor="middle" font-size="12px"><text x="152.5" y="96.5">Origini di log e metriche</text></g><path d="M 310 210 L 390 210 Q 400 210 400 200 L 400 120 Q 400 110 410 110 L 493.63 110" fill="none" stroke="#000000" stroke-miterlimit="10" pointer-events="none"/><path d="M 498.88 110 L 491.88 113.5 L 493.63 110 L 491.88 106.5 Z" fill="#000000" stroke="#000000" stroke-miterlimit="10" pointer-events="none"/><path d="M 310 210 L 390 210 Q 400 210 410 210 L 493.63 210" fill="none" stroke="#000000" stroke-miterlimit="10" pointer-events="none"/><path d="M 498.88 210 L 491.88 213.5 L 493.63 210 L 491.88 206.5 Z" fill="#000000" stroke="#000000" stroke-miterlimit="10" pointer-events="none"/><path d="M 560 180 L 560 175 Q 560 170 560 160 L 560 146.37" fill="none" stroke="#000000" stroke-miterlimit="10" pointer-events="none"/><path d="M 560 141.12 L 563.5 148.12 L 560 146.37 L 556.5 148.12 Z" fill="#000000" stroke="#000000" stroke-miterlimit="10" pointer-events="none"/><path d="M 560 280 L 560 246.37" fill="none" stroke="#000000" stroke-miterlimit="10" pointer-events="none"/><path d="M 560 241.12 L 563.5 248.12 L 560 246.37 L 556.5 248.12 Z" fill="#000000" stroke="#000000" stroke-miterlimit="10" pointer-events="none"/><path d="M 310 210 L 390 210 Q 400 210 400 220 L 400 300 Q 400 310 410 310 L 493.63 310" fill="none" stroke="#000000" stroke-miterlimit="10" pointer-events="none"/><path d="M 498.88 310 L 491.88 313.5 L 493.63 310 L 491.88 306.5 Z" fill="#000000" stroke="#000000" stroke-miterlimit="10" pointer-events="none"/><path d="M 590 26.37 L 590 73.63" fill="none" stroke="#000000" stroke-miterlimit="10" pointer-events="none"/><path d="M 590 21.12 L 593.5 28.12 L 590 26.37 L 586.5 28.12 Z" fill="#000000" stroke="#000000" stroke-miterlimit="10" pointer-events="none"/><path d="M 590 78.88 L 586.5 71.88 L 590 73.63 L 593.5 71.88 Z" fill="#000000" stroke="#000000" stroke-miterlimit="10" pointer-events="none"/><g fill="#000000" font-family="Helvetica" text-anchor="middle" font-size="12px"><text x="589.5" y="13.5">Federazione da altri vROps Manager</text></g><path d="M 690 210 L 626.37 210" fill="none" stroke="#000000" stroke-miterlimit="10" pointer-events="none"/><path d="M 621.12 210 L 628.12 206.5 L 626.37 210 L 628.12 213.5 Z" fill="#000000" stroke="#000000" stroke-miterlimit="10" pointer-events="none"/><path d="M 620 110 L 683.63 110" fill="none" stroke="#000000" stroke-miterlimit="10" pointer-events="none"/><path d="M 688.88 110 L 681.88 113.5 L 683.63 110 L 681.88 106.5 Z" fill="#000000" stroke="#000000" stroke-miterlimit="10" pointer-events="none"/><g fill="#000000" font-family="Helvetica" text-anchor="middle" font-size="12px"><text x="759.5" y="103.5">Inoltro all'azienda</text><text x="759.5" y="117.5">Strumenti ITSM</text></g><g fill="#000000" font-family="Helvetica" font-weight="bold" text-anchor="middle" font-size="12px"><text x="152.5" y="363.5">Client configurato</text><text x="152.5" y="377.5">Origini di log e metriche</text></g><path d="M 310 390 L 350 390 Q 360 390 360 380 L 360 220 Q 360 210 370 210 L 390 210 Q 400 210 400 220 L 400 300 Q 400 310 410 310 L 493.63 310" fill="none" stroke="#000000" stroke-miterlimit="10" pointer-events="none"/><path d="M 498.88 310 L 491.88 313.5 L 493.63 310 L 491.88 306.5 Z" fill="#000000" stroke="#000000" stroke-miterlimit="10" pointer-events="none"/><rect x="500" y="540" width="120" height="60" fill="#e1d5e7" stroke="#9673a6" pointer-events="none"/><g fill="#000000" font-family="Helvetica" text-anchor="middle" font-size="12px"><text x="559.5" y="573.5">Proxy</text></g><rect x="500" y="460" width="120" height="60" fill="#f8cecc" stroke="#b85450" pointer-events="none"/><g fill="#000000" font-family="Helvetica" text-anchor="middle" font-size="12px"><text x="559.5" y="486.5">VMware Update</text><text x="559.5" y="500.5">Manager</text></g><path d="M 620 583 L 683.63 583" fill="none" stroke="#000000" stroke-miterlimit="10" pointer-events="none"/><path d="M 688.88 583 L 681.88 586.5 L 683.63 583 L 681.88 579.5 Z" fill="#000000" stroke="#000000" stroke-miterlimit="10" pointer-events="none"/><g fill="#000000" font-family="Helvetica" text-anchor="middle" font-size="12px"><text x="759.5" y="583.5">Repository Internet</text></g><path d="M 620 490 L 660 490 Q 670 490 670 500 L 670 545 Q 670 555 660 555 L 626.37 555" fill="none" stroke="#000000" stroke-miterlimit="10" pointer-events="none"/><path d="M 621.12 555 L 628.12 551.5 L 626.37 555 L 628.12 558.5 Z" fill="#000000" stroke="#000000" stroke-miterlimit="10" pointer-events="none"/><rect x="0" y="441" width="310" height="99" fill="#ffffff" stroke="#000000" pointer-events="none"/><g fill="#000000" font-family="Helvetica" text-anchor="middle" font-size="12px"><text x="154.5" y="480">Host vSphere</text><text x="154.5" y="494">Hardware VM</text><text x="154.5" y="508">VM Tools</text></g><g fill="#000000" font-family="Helvetica" font-weight="bold" text-anchor="middle" font-size="12px"><text x="152.5" y="461.5">Componenti</text></g><path d="M 500 490 L 316.37 490.97" fill="none" stroke="#000000" stroke-miterlimit="10" pointer-events="none"/><path d="M 311.12 490.99 L 318.1 487.46 L 316.37 490.97 L 318.14 494.46 Z" fill="#000000" stroke="#000000" stroke-miterlimit="10" pointer-events="none"/><path d="M 155 540 L 155 540" fill="none" stroke="#6666ff" stroke-miterlimit="10" pointer-events="none"/><path d="M 155 540 L 155 540 L 155 540 L 155 540 Z" fill="#6666ff" stroke="#6666ff" stroke-miterlimit="10" pointer-events="none"/><path d="M 620 195 L 687.63 195" fill="none" stroke="#000000" stroke-miterlimit="10" pointer-events="none"/><path d="M 692.88 195 L 685.88 198.5 L 687.63 195 L 685.88 191.5 Z" fill="#000000" stroke="#000000" stroke-miterlimit="10" pointer-events="none"/><g fill="#000000" font-family="Helvetica" text-anchor="middle" font-size="12px"><text x="778.5" y="198.5">Alla gestione log aziendale</text></g><path d="M 530 80 L 530 46.37" fill="none" stroke="#000000" stroke-miterlimit="10" pointer-events="none"/><path d="M 530 41.12 L 533.5 48.12 L 530 46.37 L 526.5 48.12 Z" fill="#000000" stroke="#000000" stroke-miterlimit="10" pointer-events="none"/><g fill="#000000" font-family="Helvetica" text-anchor="middle" font-size="12px"><text x="529" y="33.5">Active Directory</text></g></g></svg>
