<?xml version="1.0" encoding="UTF-8"?>
<svg width="633px" height="701px" version="1.1" xmlns="http://www.w3.org/2000/svg" xmlns:cc="http://creativecommons.org/ns#" xmlns:dc="http://purl.org/dc/elements/1.1/" xmlns:rdf="http://www.w3.org/1999/02/22-rdf-syntax-ns#">
 <metadata>
  <rdf:RDF>
   <cc:Work rdf:about="">
    <dc:format>image/svg+xml</dc:format>
    <dc:type rdf:resource="http://purl.org/dc/dcmitype/StillImage"/>
    <dc:title/>
   </cc:Work>
  </rdf:RDF>
 </metadata>
 <g transform="translate(.5 .5)">
  <g pointer-events="none">
   <rect width="630" height="660" fill="#fff" stroke="#000"/>
   <rect x="1.5" y="150" width="630" height="510" fill="#dae8fc" stroke="#6c8ebf"/>
   <rect x="31.5" y="200" width="570" height="350" fill="#d5e8d4" stroke="#82b366"/>
  </g>
  <g font-family="Helvetica" font-size="12px" font-weight="bold" text-anchor="middle">
   <text x="74" y="223.5">Cluster ICP</text>
  </g>
  <g pointer-events="none">
   <rect x="57" y="400" width="160" height="135" fill="#ccc" stroke="#00f"/>
   <rect x="66.5" y="415" width="140" height="90" fill="#fff" stroke="#00f"/>
   <rect x="79.5" y="425" width="117" height="60" fill="#dae8fc" stroke="#6c8ebf"/>
  </g>
  <g font-family="Helvetica" font-size="12px" text-anchor="middle">
   <text x="134" y="498.5">Pod</text>
  </g>
  <path d="m187 445h45v165h94v-40h-1" fill="none" pointer-events="none" stroke="#c60" stroke-miterlimit="10" stroke-width="3"/>
  <rect x="89.5" y="435" width="97" height="20" fill="#f5f5f5" pointer-events="none" stroke="#666"/>
  <g font-family="Helvetica" font-size="12px" text-anchor="middle">
   <text x="137.5" y="448.5">Applicazione web Acme</text>
   <text x="136" y="478.5">Contenitore</text>
   <text x="137.5" y="528.5">Nodo di lavoro</text>
  </g>
  <rect x="240" y="230" width="160" height="80" fill="#ccc" pointer-events="none" stroke="#00f"/>
  <g font-family="Helvetica" font-size="12px" text-anchor="middle">
   <text x="319.5" y="293.5">Nodo proxy</text>
  </g>
  <rect x="250" y="250" width="140" height="30" fill="#fff" pointer-events="none" stroke="#00f"/>
  <g font-family="Helvetica" font-size="12px" text-anchor="middle">
   <text x="319.5" y="268.5">Controller Ingress</text>
  </g>
  <g pointer-events="none">
   <path d="m320 190v40" fill="none" stroke="#090" stroke-miterlimit="10" stroke-width="3"/>
   <path d="m320 160v-40h1v-10" fill="none" stroke="#090" stroke-miterlimit="10" stroke-width="3"/>
   <rect x="250" y="160" width="140" height="30" fill="#fff" stroke="#00f"/>
  </g>
  <g font-family="Helvetica" font-size="12px" text-anchor="middle">
   <text x="319.5" y="178.5">Rete NSX / Sicurezza</text>
  </g>
  <g pointer-events="none">
   <rect x="242" y="400" width="160" height="135" fill="#ccc" stroke="#00f"/>
   <rect x="252" y="415" width="140" height="90" fill="#fff" stroke="#00f"/>
   <rect x="265" y="425" width="117" height="60" fill="#dae8fc" stroke="#6c8ebf"/>
  </g>
  <g font-family="Helvetica" font-size="12px" text-anchor="middle">
   <text x="319.5" y="498.5">Pod</text>
  </g>
  <path d="m275 445h-43v165h173v-5h-0.4" fill="none" pointer-events="none" stroke="#c60" stroke-miterlimit="10" stroke-width="3"/>
  <rect x="275" y="435" width="97" height="20" fill="#f5f5f5" pointer-events="none" stroke="#666"/>
  <g font-family="Helvetica" font-size="12px" text-anchor="middle">
   <text x="323" y="448.5">Applicazione web Acme</text>
   <text x="321.5" y="478.5">Contenitore</text>
   <text x="323" y="528.5">Nodo di lavoro</text>
  </g>
  <g pointer-events="none">
   <rect x="423" y="400" width="160" height="135" fill="#ccc" stroke="#00f"/>
   <rect x="433" y="415" width="140" height="90" fill="#fff" stroke="#00f"/>
   <rect x="446" y="425" width="117" height="60" fill="#dae8fc" stroke="#6c8ebf"/>
  </g>
  <g font-family="Helvetica" font-size="12px" text-anchor="middle">
   <text x="500.5" y="498.5">Pod</text>
  </g>
  <path d="m456 445h-44v165h-12" fill="none" pointer-events="none" stroke="#c60" stroke-miterlimit="10" stroke-width="3"/>
  <rect x="456" y="435" width="97" height="20" fill="#f5f5f5" pointer-events="none" stroke="#666"/>
  <g font-family="Helvetica" font-size="12px" text-anchor="middle">
   <text x="504" y="448.5">Applicazione web Acme</text>
   <text x="502.5" y="478.5">Contenitore</text>
   <text x="504" y="528.5">Nodo di lavoro</text>
  </g>
  <rect x="244.6" y="570" width="160" height="70" fill="#ccc" pointer-events="none" stroke="#00f"/>
  <rect x="254.6" y="590" width="140" height="20" fill="#fff" pointer-events="none" stroke="#00f"/>
  <g font-family="Helvetica" font-size="12px" text-anchor="middle">
   <text x="322.1" y="603.5">MYSQL</text>
  </g>
  <g font-family="Helvetica" font-size="12px" text-anchor="middle">
   <text x="325.6" y="633.5">VM (Virtual Machine)</text>
  </g>
  <g fill="none" pointer-events="none" stroke="#090" stroke-miterlimit="10" stroke-width="3">
   <path d="m324 435-4-125"/>
   <path d="m505 435-185-125"/>
   <path d="m138 435 182-125"/>
  </g>
  <g font-family="Helvetica" font-size="12px" font-weight="bold" text-anchor="middle">
   <text x="66" y="168.5">Cluster VCS</text>
  </g>
  <path d="m310.49 108c1.57 0 2.85-1.28 2.85-2.85s-1.27-2.84-2.85-2.84-2.85 1.27-2.85 2.84 1.27 2.85 2.85 2.85zm23.01-0.06c1.57 0 2.85-1.29 2.85-2.88 0-1.58-1.28-2.86-2.85-2.86s-2.84 1.28-2.84 2.86c-0.01 1.59 1.27 2.88 2.84 2.88zm-28.64-8.43s-1.67-0.09-1.67-1.81v-0.16c0-1.69 1.67-1.81 1.67-1.81h34.13s1.67 0.16 1.67 1.81v0.16c0 1.66-1.67 1.81-1.67 1.81h-34.13zm23.71-74.39c4.17 0 7.57-3.4 7.57-7.58 0-4.17-3.39-7.54-7.57-7.54-4.16 0-7.56 3.37-7.56 7.54 0.01 4.18 3.4 7.58 7.56 7.58zm-41.02 66.13c-0.35 0.67-0.55 1.43-0.55 2.25 0 2.66 2.16 4.83 4.84 4.83 1.92 0 3.58-1.12 4.36-2.73l16.5-28.38-6.85-6.85-18.3 30.88zm33.14-1.27c-0.71 1.61-2.23 2.73-4.01 2.73-2.44 0-4.44-2.17-4.44-4.83 0-0.83 0.19-1.59 0.51-2.26l6.63-12.63-12.91-13.94c-4.97-5.41-1.43-11.25-1.43-11.25l6.95-13.33-18.43 0.02c-2.04 0-3.66-1.78-3.66-3.97 0-2.16 1.62-3.96 3.66-3.96h55.8c2.01 0 3.64 1.79 3.64 3.98 0 2.18-1.62 3.95-3.64 3.95h-21.29l-10.15 19.31 10.34 11.09c3.61 3.78 1.27 8.02 1.27 8.02l-8.84 17.07z" pointer-events="none"/>
  <rect y="660" width="630" height="40" fill="#e1d5e7" pointer-events="none" stroke="#9673a6"/>
  <g font-family="Helvetica" font-size="12px" text-anchor="middle">
   <text x="314.5" y="683.5">Servizio Watson Skateboards</text>
  </g>
  <g fill="none" pointer-events="none" stroke="#000" stroke-miterlimit="10" stroke-width="2">
   <path d="m138 658v-123"/>
   <path d="m506 661-1-126"/>
   <path d="m324 535v15q0 10 10 10h166"/>
  </g>
 </g>
</svg>
