<?xml version="1.0" encoding="utf-8"?>
<!-- Generator: Adobe Illustrator 21.0.0, SVG Export Plug-In . SVG Version: 6.00 Build 0)  -->
<svg version="1.1"
	 id="Layer_1" xmlns:cc="http://creativecommons.org/ns#" xmlns:dc="http://purl.org/dc/elements/1.1/" xmlns:rdf="http://www.w3.org/1999/02/22-rdf-syntax-ns#" xmlns:xhtml="http://www.w3.org/1999/xhtml"
	 xmlns="http://www.w3.org/2000/svg" xmlns:xlink="http://www.w3.org/1999/xlink" x="0px" y="0px" viewBox="0 0 602 322"
	 style="enable-background:new 0 0 602 322;" xml:space="preserve">
<style type="text/css">
	.st0{fill:none;stroke:#7EA6E0;stroke-width:2;}
	.st1{font-family:'ArialMT';}
	.st2{font-size:10px;}
	.st3{fill:none;stroke:#000000;stroke-miterlimit:10;}
	.st4{stroke:#000000;stroke-miterlimit:10;}
	.st5{stroke:#000000;stroke-width:2;}
	.st6{fill:none;stroke:#000000;stroke-width:2;}
</style>
<g transform="translate(.5 .5)">
	<path pointer-events="none" class="st0" d="M8.5,81h75c4.1,0,7.5,3.4,7.5,7.5v35c0,4.1-3.4,7.5-7.5,7.5h-75c-4.1,0-7.5-3.4-7.5-7.5
		v-35C1,84.4,4.4,81,8.5,81z"/>
	<g>
		<text transform="matrix(1 0 0 1 16.8696 108.5)" class="st1 st2">base_combo</text>
	</g>
	<path pointer-events="none" class="st0" d="M188.5,81h75c4.1,0,7.5,3.4,7.5,7.5v35c0,4.1-3.4,7.5-7.5,7.5h-75
		c-4.1,0-7.5-3.4-7.5-7.5v-35C181,84.4,184.4,81,188.5,81z"/>
	<g>
		<text transform="matrix(1 0 0 1 198.2612 108.5)" class="st1 st2">next_combo</text>
	</g>
	<g pointer-events="none">
		<g>
			<g>
				<path class="st3" d="M131,116v192.7h381.9"/>
				<path class="st4" d="M519.9,308.7l-7,3.5v-7L519.9,308.7z"/>
				<path class="st3" d="M131,116v60c0,6.7,3.3,10,10,10h127.2"/>
				<path class="st4" d="M275.2,186l-7,3.5v-7L275.2,186z"/>
			</g>
			<circle class="st5" cx="131" cy="106" r="0"/>
			<g>
				<path class="st3" d="M321,211.3v72h191.9"/>
				<path class="st4" d="M519.9,283.3l-7,3.5v-7L519.9,283.3z"/>
				<path class="st3" d="M331,106h230v157.2"/>
				<path class="st4" d="M561,270.2l-3.5-7h7L561,270.2z"/>
			</g>
		</g>
		<path class="st0" d="M283.5,161h75c4.1,0,7.5,3.4,7.5,7.5v35c0,4.1-3.4,7.5-7.5,7.5h-75c-4.1,0-7.5-3.4-7.5-7.5v-35
			C276,164.4,279.4,161,283.5,161z"/>
	</g>
	<g>
		<text transform="matrix(1 0 0 1 286.5864 188.5)" class="st1 st2">landing_combo</text>
	</g>
	<rect x="521" y="271" pointer-events="none" class="st6" width="80" height="50"/>
	<g transform="translate(533.5,284.5)">
		<text transform="matrix(1 0 0 1 -1.4276 23.4827)" class="st1 st2">COMPLETE</text>
		<text transform="matrix(1 0 0 1 11.8305 12.1017)" class="st1 st2">TRICK</text>
	</g>
	<g pointer-events="none">
		<path class="st3" d="M91,106h30"/>
		<path class="st3" d="M140.9,105.9L181,106"/>
		<circle class="st5" cx="321" cy="106" r="0"/>
		<g>
			<path class="st3" d="M270.9,105.4h40"/>
			<path class="st3" d="M321,96V71c0-6.7-3.3-10-10-10h-79c-6.7,0-10,1.8-10.1,5.4l-0.1,5.4"/>
			<path class="st4" d="M221.7,78.9l-3.4-7.1l7,0.1L221.7,78.9z"/>
			<path class="st3" d="M321,153.2V116"/>
			<path class="st4" d="M321,160.2l-3.5-7h7L321,160.2z"/>
			<path class="st3" d="M46.3,51.3v21.9"/>
			<path class="st4" d="M46.3,80.2l-3.5-7h7L46.3,80.2z"/>
		</g>
		<rect x="11" y="1" class="st6" width="70" height="50"/>
	</g>
	<g>
		<text transform="matrix(1 0 0 1 30.5 19.5)" class="st1 st2">TRICK</text>
		<text transform="matrix(1 0 0 1 29.5723 31.5)" class="st1 st2">START</text>
	</g>
</g>
</svg>
