<?xml version="1.0" encoding="utf-8"?>
<!-- Generator: Adobe Illustrator 21.0.0, SVG Export Plug-In . SVG Version: 6.00 Build 0)  -->
<svg version="1.1" id="Layer_1" xmlns="http://www.w3.org/2000/svg" xmlns:xlink="http://www.w3.org/1999/xlink" x="0px" y="0px"
	 viewBox="0 0 450 247.8" style="enable-background:new 0 0 450 247.8;" xml:space="preserve">
<style type="text/css">
	.st0{fill:#00ABB0;stroke:#00ABB0;stroke-miterlimit:10;}
	.st1{fill:#FFFFFF;}
	.st2{font-family:'Roboto-Regular';}
	.st3{font-size:13.1137px;}
	.st4{fill:#118ACB;stroke:#118ACB;stroke-miterlimit:10;}
	.st5{fill:none;stroke:#118ACB;stroke-miterlimit:10;}
	.st6{fill:#118ACB;}
</style>
<g>
	<rect x="159" y="102.6" class="st0" width="130.6" height="40.1"/>
	<text transform="matrix(0.9982 0 0 1 174.1595 126.4508)" class="st1 st2 st3">プライマリー・インスタンス</text>
	<g>
		<rect x="4.7" y="4.2" class="st4" width="130.6" height="40.1"/>
		<text transform="matrix(0.9982 0 0 1 11.4759 28.0817)" class="st1 st2 st3">セカンダリー・インスタンス</text>
		<rect x="312.7" y="4.2" class="st4" width="130.6" height="40.1"/>
		<text transform="matrix(0.9982 0 0 1 319.5062 28.0817)" class="st1 st2 st3">セカンダリー・インスタンス</text>
	</g>
	<g>
		<rect x="4.7" y="201.8" class="st4" width="130.6" height="40.1"/>
		<text transform="matrix(0.9982 0 0 1 11.4759 225.6383)" class="st1 st2 st3">セカンダリー・インスタンス</text>
		<rect x="312.7" y="201.8" class="st4" width="130.6" height="40.1"/>
		<text transform="matrix(0.9982 0 0 1 319.5062 225.6383)" class="st1 st2 st3">セカンダリー・インスタンス</text>
	</g>
	<g>
		<g>
			<g>
				<line class="st5" x1="138.1" y1="24.2" x2="219.4" y2="97.8"/>
				<g>
					<path class="st6" d="M222.1,100.2c-1.7-0.7-4-1.3-5.7-1.3l2.7-1.4l1.1-2.8C220.4,96.4,221.2,98.6,222.1,100.2z"/>
				</g>
			</g>
		</g>
		<g>
			<g>
				<line class="st5" x1="309.6" y1="24.2" x2="228.3" y2="97.8"/>
				<g>
					<path class="st6" d="M225.6,100.2c0.8-1.6,1.7-3.8,1.9-5.6l1.1,2.8l2.7,1.4C229.6,98.9,227.3,99.5,225.6,100.2z"/>
				</g>
			</g>
		</g>
	</g>
	<g>
		<g>
			<g>
				<line class="st5" x1="138.1" y1="221.5" x2="219.4" y2="148"/>
				<g>
					<path class="st6" d="M222.1,145.6c-0.8,1.6-1.7,3.8-1.9,5.6l-1.1-2.8l-2.7-1.4C218.1,146.9,220.4,146.2,222.1,145.6z"/>
				</g>
			</g>
		</g>
		<g>
			<g>
				<line class="st5" x1="309.6" y1="221.5" x2="228.3" y2="148"/>
				<g>
					<path class="st6" d="M225.6,145.6c1.7,0.7,4,1.3,5.7,1.3l-2.7,1.4l-1.1,2.8C227.3,149.4,226.4,147.2,225.6,145.6z"/>
				</g>
			</g>
		</g>
	</g>
	<g>
		<ellipse class="st4" cx="63.1" cy="82.4" rx="2.3" ry="2.3"/>
		<ellipse class="st4" cx="63.1" cy="125.7" rx="2.3" ry="2.3"/>
		<ellipse class="st4" cx="63.1" cy="162.7" rx="2.3" ry="2.3"/>
	</g>
	<g>
		<ellipse class="st4" cx="373.2" cy="87.3" rx="2.3" ry="2.3"/>
		<ellipse class="st4" cx="373.2" cy="130.6" rx="2.3" ry="2.3"/>
		<ellipse class="st4" cx="373.2" cy="167.6" rx="2.3" ry="2.3"/>
	</g>
</g>
</svg>
