<?xml version="1.0" encoding="utf-8"?>
<!-- Generator: Adobe Illustrator 19.0.0, SVG Export Plug-In . SVG Version: 6.00 Build 0)  -->
<svg version="1.1" id="Layer_1" xmlns="http://www.w3.org/2000/svg" xmlns:xlink="http://www.w3.org/1999/xlink" x="0px" y="0px"
	 viewBox="0 0 600 325" style="enable-background:new 0 0 600 325;" xml:space="preserve">
<style type="text/css">
	.st0{fill:#00ABB0;stroke:#00ABB0;stroke-miterlimit:10;}
	.st1{fill:#FFFFFF;}
	.st2{font-family:'MS-Gothic';}
	.st3{font-size:14px;}
	.st4{fill:#0F8ACB;stroke:#0F8ACB;stroke-miterlimit:10;}
	.st5{fill:none;stroke:#0F8ACB;stroke-miterlimit:10;}
	.st6{fill:#0F8ACB;}
</style>
<rect x="211.1" y="134.5" class="st0" width="178.7" height="54.8"/>
<text transform="matrix(0.8722 0 0 1 221.8291 167.1816)" class="st1 st2 st3">プライマリー・インスタンス</text>
<rect class="st4" width="178.7" height="54.8"/>
<text transform="matrix(0.8846 0 0 1 9.3145 32.6348)" class="st1 st2 st3">セカンダリー・インスタンス</text>
<rect x="421.3" class="st4" width="178.7" height="54.8"/>
<text transform="matrix(0.8846 0 0 1 430.6318 32.6348)" class="st1 st2 st3">セカンダリー・インスタンス</text>
<rect y="270.2" class="st4" width="178.7" height="54.8"/>
<text transform="matrix(0.8846 0 0 1 9.3145 302.8486)" class="st1 st2 st3">セカンダリー・インスタンス</text>
<rect x="421.3" y="270.2" class="st4" width="178.7" height="54.8"/>
<text transform="matrix(0.8846 0 0 1 430.6318 302.8486)" class="st1 st2 st3">セカンダリー・インスタンス</text>
<g>
	<g>
		<g>
			<line class="st5" x1="182.4" y1="27.4" x2="294.7" y2="128.9"/>
			<g>
				<path class="st6" d="M297.4,131.3c-1.7-0.7-4-1.3-5.7-1.3l2.7-1.4l1.1-2.8C295.7,127.5,296.5,129.7,297.4,131.3z"/>
			</g>
		</g>
	</g>
	<g>
		<g>
			<line class="st5" x1="417.1" y1="27.4" x2="304.9" y2="128.9"/>
			<g>
				<path class="st6" d="M302.2,131.3c0.8-1.6,1.7-3.8,1.9-5.6l1.1,2.8l2.7,1.4C306.2,130,303.9,130.6,302.2,131.3z"/>
			</g>
		</g>
	</g>
</g>
<g>
	<g>
		<g>
			<line class="st5" x1="182.4" y1="297.2" x2="294.7" y2="195.8"/>
			<g>
				<path class="st6" d="M297.4,193.3c-0.8,1.6-1.7,3.8-1.9,5.6l-1.1-2.8l-2.7-1.4C293.4,194.6,295.7,194,297.4,193.3z"/>
			</g>
		</g>
	</g>
	<g>
		<g>
			<line class="st5" x1="417.1" y1="297.2" x2="304.9" y2="195.8"/>
			<g>
				<path class="st6" d="M302.2,193.3c1.7,0.7,4,1.3,5.7,1.3l-2.7,1.4l-1.1,2.8C303.9,197.2,303,194.9,302.2,193.3z"/>
			</g>
		</g>
	</g>
</g>
<g>
	<ellipse class="st4" cx="79.9" cy="106.9" rx="3.2" ry="3.2"/>
	<ellipse class="st4" cx="79.9" cy="166.1" rx="3.2" ry="3.2"/>
	<ellipse class="st4" cx="79.9" cy="216.7" rx="3.2" ry="3.2"/>
</g>
<g>
	<ellipse class="st4" cx="504.1" cy="113.6" rx="3.2" ry="3.2"/>
	<path class="st4" d="M507.3,172.8c0,1.8-1.4,3.2-3.2,3.2c-1.8,0-3.2-1.4-3.2-3.2c0-1.8,1.4-3.2,3.2-3.2
		C505.8,169.7,507.3,171.1,507.3,172.8z"/>
	<ellipse class="st4" cx="504.1" cy="223.4" rx="3.2" ry="3.2"/>
</g>
</svg>
