<?xml version="1.0" encoding="UTF-8" standalone="no"?>
<!-- Generator: Adobe Illustrator 21.0.0, SVG Export Plug-In . SVG Version: 6.00 Build 0)  -->

<svg
   xmlns:dc="http://purl.org/dc/elements/1.1/"
   xmlns:cc="http://creativecommons.org/ns#"
   xmlns:rdf="http://www.w3.org/1999/02/22-rdf-syntax-ns#"
   xmlns:svg="http://www.w3.org/2000/svg"
   xmlns="http://www.w3.org/2000/svg"
   xmlns:sodipodi="http://sodipodi.sourceforge.net/DTD/sodipodi-0.dtd"
   xmlns:inkscape="http://www.inkscape.org/namespaces/inkscape"
   version="1.1"
   id="Layer_1"
   x="0px"
   y="0px"
   viewBox="0 0 478 272"
   style="enable-background:new 0 0 478 272;"
   xml:space="preserve"
   sodipodi:docname="private_vds_portgroups_and_uplinks.svg"
   inkscape:version="0.92.2 (5c3e80d, 2017-08-06)"><metadata
     id="metadata325"><rdf:RDF><cc:Work
         rdf:about=""><dc:format>image/svg+xml</dc:format><dc:type
           rdf:resource="http://purl.org/dc/dcmitype/StillImage" /></cc:Work></rdf:RDF></metadata><defs
     id="defs323" /><sodipodi:namedview
     pagecolor="#ffffff"
     bordercolor="#666666"
     borderopacity="1"
     objecttolerance="10"
     gridtolerance="10"
     guidetolerance="10"
     inkscape:pageopacity="0"
     inkscape:pageshadow="2"
     inkscape:window-width="1920"
     inkscape:window-height="1027"
     id="namedview321"
     showgrid="false"
     inkscape:zoom="2.1479478"
     inkscape:cx="168.77101"
     inkscape:cy="105.16436"
     inkscape:window-x="-8"
     inkscape:window-y="-8"
     inkscape:window-maximized="1"
     inkscape:current-layer="Layer_1" /><style
     type="text/css"
     id="style2">
	.st0{fill:#FFFFFF;}
	.st1{font-family:'IBMPlexSans';}
	.st2{font-size:12px;}
	.st3{fill:#006837;}
	.st4{fill:#FBB03B;}
	.st5{fill:#534741;}
	.st6{fill:#333333;}
	.st7{font-size:14px;}
	.st8{font-size:10px;}
	.st9{fill:#B3B3B3;}
	.st10{fill:#808080;}
	.st11{fill:none;stroke:#000000;stroke-miterlimit:10;}
</style><g
     id="g18"><g
       id="g8"><rect
         x="16.5"
         y="57.5"
         class="st0"
         width="180"
         height="53"
         id="rect4" /><path
         d="M196,58v52H17V58H196 M197,57H16v54h181V57L197,57z"
         id="path6" /></g><text
       transform="scale(0.94103434,1.0626605)"
       id="text16"
       x="23.953333"
       y="70.107056"
       style="font-size:11.2924118px;stroke-width:0.94103432"><tspan
         x="23.953333"
         y="70.107056"
         class="st1 st2"
         id="tspan10"
         style="font-size:11.2924118px;font-family:IBMPlexSans;stroke-width:0.94103432">SDDC-DPG-Mgmt</tspan><tspan
         x="23.953333"
         y="83.657951"
         class="st1 st2"
         id="tspan12"
         style="font-size:11.2924118px;font-family:IBMPlexSans;stroke-width:0.94103432">ID VLAN: --</tspan><tspan
         x="23.953333"
         y="97.208847"
         class="st1 st2"
         id="tspan14"
         style="font-size:11.2924118px;font-family:IBMPlexSans;stroke-width:0.94103432">vmk0: Indirizzo primario privato</tspan></text>
</g><g
     id="g26"><g
       id="g24"><rect
         x="232.5"
         y="71"
         class="st0"
         width="233"
         height="102"
         id="rect20" /><path
         d="M465,71.5v101H233v-101H465 M466,70.5H232v103h234V70.5L466,70.5z"
         id="path22" /></g></g><g
     id="g42"><g
       id="g32"><rect
         x="17.5"
         y="130.5"
         class="st0"
         width="180"
         height="53"
         id="rect28" /><path
         d="M197,131v52H18v-52H197 M198,130H17v54h181V130L198,130z"
         id="path30" /></g><text
       transform="scale(0.94238194,1.0611409)"
       id="text40"
       x="24.979258"
       y="139.00134"
       style="font-size:11.30858326px;stroke-width:0.94238192"><tspan
         x="24.979258"
         y="139.00134"
         class="st1 st2"
         id="tspan34"
         style="font-size:11.30858326px;font-family:IBMPlexSans;stroke-width:0.94238192">SDDC-DPG-vMotion</tspan><tspan
         x="24.979258"
         y="152.57164"
         class="st1 st2"
         id="tspan36"
         style="font-size:11.30858326px;font-family:IBMPlexSans;stroke-width:0.94238192">ID VLAN: --</tspan><tspan
         x="24.979258"
         y="166.14194"
         class="st1 st2"
         id="tspan38"
         style="font-size:11.30858326px;font-family:IBMPlexSans;stroke-width:0.94238192">vmk1: Indirizzo privato portatile</tspan></text>
</g><g
     id="g58"><g
       id="g48"><rect
         x="16.5"
         y="201.5"
         class="st0"
         width="180"
         height="53"
         id="rect44" /><path
         d="M196,202v52H17v-52H196 M197,201H16v54h181V201L197,201z"
         id="path46" /></g><text
       transform="scale(0.9410902,1.0625974)"
       id="text56"
       x="25.014469"
       y="205.6282"
       style="font-size:11.29308224px;stroke-width:0.94109023"><tspan
         x="25.014469"
         y="205.6282"
         class="st1 st2"
         id="tspan50"
         style="font-size:11.29308224px;font-family:IBMPlexSans;stroke-width:0.94109023">SDDC-DPG-NFS</tspan><tspan
         x="25.014469"
         y="219.1799"
         class="st1 st2"
         id="tspan52"
         style="font-size:11.29308224px;font-family:IBMPlexSans;stroke-width:0.94109023">ID VLAN: &lt;VLAN B privata&gt;</tspan><tspan
         x="25.014469"
         y="232.73161"
         class="st1 st2"
         id="tspan54"
         style="font-size:11.29308224px;font-family:IBMPlexSans;stroke-width:0.94109023">vmk2: Indirizzo privato portatile</tspan></text>
</g><g
     id="g130"><g
       id="g98"><g
         id="g86"><g
           id="g78"><g
             id="g64"><rect
               x="272.1"
               y="81.7"
               class="st3"
               width="34.5"
               height="21.2"
               id="rect60" /><rect
               x="276.2"
               y="102.9"
               class="st3"
               width="13.3"
               height="5.1"
               id="rect62" /></g><rect
             x="277.2"
             y="102.9"
             class="st4"
             width="1"
             height="4.4"
             id="rect66" /><rect
             x="279.2"
             y="102.9"
             class="st4"
             width="1"
             height="4.4"
             id="rect68" /><rect
             x="281.3"
             y="102.9"
             class="st4"
             width="1"
             height="4.4"
             id="rect70" /><rect
             x="283.3"
             y="102.9"
             class="st4"
             width="1"
             height="4.4"
             id="rect72" /><rect
             x="285.4"
             y="102.9"
             class="st4"
             width="1"
             height="4.4"
             id="rect74" /><rect
             x="287.4"
             y="102.9"
             class="st4"
             width="1"
             height="4.4"
             id="rect76" /></g><g
           id="g84"><rect
             x="271"
             y="80"
             class="st5"
             width="1"
             height="24.6"
             id="rect80" /><rect
             x="269"
             y="80"
             class="st5"
             width="2"
             height="1.1"
             id="rect82" /></g></g><rect
         x="278.9"
         y="89.9"
         class="st6"
         width="5.5"
         height="3.4"
         id="rect88" /><rect
         x="293.9"
         y="87.9"
         class="st6"
         width="5.5"
         height="2"
         id="rect90" /><rect
         x="286.1"
         y="85.1"
         class="st6"
         width="5.5"
         height="2"
         id="rect92" /><rect
         x="278.9"
         y="96.4"
         class="st6"
         width="5.5"
         height="3.4"
         id="rect94" /><rect
         x="293.9"
         y="93.3"
         class="st6"
         width="5.5"
         height="3.4"
         id="rect96" /></g><rect
       x="272.1"
       y="97.8"
       class="st4"
       width="6.8"
       height="0.7"
       id="rect100" /><rect
       x="272.1"
       y="88.5"
       class="st4"
       width="8.2"
       height="0.7"
       id="rect102" /><rect
       x="281"
       y="85.8"
       class="st4"
       width="5.1"
       height="0.7"
       id="rect104" /><rect
       x="278.9"
       y="87.2"
       transform="matrix(6.123234e-17 -1 1 6.123234e-17 193.0976 368.1219)"
       class="st4"
       width="3.4"
       height="0.7"
       id="rect106" /><rect
       x="289.7"
       y="90.1"
       transform="matrix(6.123234e-17 -1 1 6.123234e-17 200.7805 381.6097)"
       class="st4"
       width="3.1"
       height="0.7"
       id="rect108" /><rect
       x="276.2"
       y="89.6"
       transform="matrix(6.123234e-17 -1 1 6.123234e-17 187.6341 367.439)"
       class="st4"
       width="2.7"
       height="0.7"
       id="rect110" /><rect
       x="289.1"
       y="95.7"
       transform="matrix(6.123234e-17 -1 1 6.123234e-17 194.8049 386.9024)"
       class="st4"
       width="3.4"
       height="0.7"
       id="rect112" /><rect
       x="290.5"
       y="97.4"
       transform="matrix(6.123234e-17 -1 1 6.123234e-17 194.4634 389.9756)"
       class="st4"
       width="3.4"
       height="0.7"
       id="rect114" /><rect
       x="277.2"
       y="91.3"
       class="st4"
       width="1.7"
       height="0.7"
       id="rect116" /><rect
       x="284.4"
       y="98.8"
       class="st4"
       width="7.5"
       height="0.7"
       id="rect118" /><rect
       x="284.4"
       y="97.1"
       class="st4"
       width="6.8"
       height="0.7"
       id="rect120" /><rect
       x="290.5"
       y="94"
       class="st4"
       width="3.4"
       height="0.7"
       id="rect122" /><rect
       x="290.9"
       y="88.5"
       class="st4"
       width="3.1"
       height="0.7"
       id="rect124" /><rect
       x="291.9"
       y="95.4"
       class="st4"
       width="2"
       height="0.7"
       id="rect126" /><rect
       x="284.4"
       y="91.3"
       class="st4"
       width="6.8"
       height="0.7"
       id="rect128" /></g><g
     id="g202"><g
       id="g170"><g
         id="g158"><g
           id="g150"><g
             id="g136"><rect
               x="271.1"
               y="131.7"
               class="st3"
               width="34.5"
               height="21.2"
               id="rect132" /><rect
               x="275.2"
               y="152.9"
               class="st3"
               width="13.3"
               height="5.1"
               id="rect134" /></g><rect
             x="276.2"
             y="152.9"
             class="st4"
             width="1"
             height="4.4"
             id="rect138" /><rect
             x="278.2"
             y="152.9"
             class="st4"
             width="1"
             height="4.4"
             id="rect140" /><rect
             x="280.3"
             y="152.9"
             class="st4"
             width="1"
             height="4.4"
             id="rect142" /><rect
             x="282.3"
             y="152.9"
             class="st4"
             width="1"
             height="4.4"
             id="rect144" /><rect
             x="284.4"
             y="152.9"
             class="st4"
             width="1"
             height="4.4"
             id="rect146" /><rect
             x="286.4"
             y="152.9"
             class="st4"
             width="1"
             height="4.4"
             id="rect148" /></g><g
           id="g156"><rect
             x="270"
             y="130"
             class="st5"
             width="1"
             height="24.6"
             id="rect152" /><rect
             x="268"
             y="130"
             class="st5"
             width="2"
             height="1.1"
             id="rect154" /></g></g><rect
         x="277.9"
         y="139.9"
         class="st6"
         width="5.5"
         height="3.4"
         id="rect160" /><rect
         x="292.9"
         y="137.9"
         class="st6"
         width="5.5"
         height="2"
         id="rect162" /><rect
         x="285.1"
         y="135.1"
         class="st6"
         width="5.5"
         height="2"
         id="rect164" /><rect
         x="277.9"
         y="146.4"
         class="st6"
         width="5.5"
         height="3.4"
         id="rect166" /><rect
         x="292.9"
         y="143.3"
         class="st6"
         width="5.5"
         height="3.4"
         id="rect168" /></g><rect
       x="271.1"
       y="147.8"
       class="st4"
       width="6.8"
       height="0.7"
       id="rect172" /><rect
       x="271.1"
       y="138.5"
       class="st4"
       width="8.2"
       height="0.7"
       id="rect174" /><rect
       x="280"
       y="135.8"
       class="st4"
       width="5.1"
       height="0.7"
       id="rect176" /><rect
       x="277.9"
       y="137.2"
       transform="matrix(6.123234e-17 -1 1 6.123234e-17 142.0976 417.1219)"
       class="st4"
       width="3.4"
       height="0.7"
       id="rect178" /><rect
       x="288.7"
       y="140.1"
       transform="matrix(6.123234e-17 -1 1 6.123234e-17 149.7805 430.6097)"
       class="st4"
       width="3.1"
       height="0.7"
       id="rect180" /><rect
       x="275.2"
       y="139.6"
       transform="matrix(6.123234e-17 -1 1 6.123234e-17 136.6341 416.439)"
       class="st4"
       width="2.7"
       height="0.7"
       id="rect182" /><rect
       x="288.1"
       y="145.7"
       transform="matrix(6.123234e-17 -1 1 6.123234e-17 143.8049 435.9024)"
       class="st4"
       width="3.4"
       height="0.7"
       id="rect184" /><rect
       x="289.5"
       y="147.4"
       transform="matrix(6.123234e-17 -1 1 6.123234e-17 143.4634 438.9756)"
       class="st4"
       width="3.4"
       height="0.7"
       id="rect186" /><rect
       x="276.2"
       y="141.3"
       class="st4"
       width="1.7"
       height="0.7"
       id="rect188" /><rect
       x="283.4"
       y="148.8"
       class="st4"
       width="7.5"
       height="0.7"
       id="rect190" /><rect
       x="283.4"
       y="147.1"
       class="st4"
       width="6.8"
       height="0.7"
       id="rect192" /><rect
       x="289.5"
       y="144"
       class="st4"
       width="3.4"
       height="0.7"
       id="rect194" /><rect
       x="289.9"
       y="138.5"
       class="st4"
       width="3.1"
       height="0.7"
       id="rect196" /><rect
       x="290.9"
       y="145.4"
       class="st4"
       width="2"
       height="0.7"
       id="rect198" /><rect
       x="283.4"
       y="141.3"
       class="st4"
       width="6.8"
       height="0.7"
       id="rect200" /></g><text
     transform="matrix(1 0 0 1 176.5 29)"
     class="st1 st7"
     id="text204">SDDC-Dswitch-Private</text>
<text
     transform="scale(0.96400862,1.0373351)"
     class="st1 st2"
     id="text206"
     x="329.42865"
     y="93.026833"
     style="font-size:11.56810379px;font-family:IBMPlexSans;stroke-width:0.96400863">uplink1 (Adattatore 1NIC)</text>
<text
     transform="scale(0.97036389,1.0305412)"
     class="st1 st2"
     id="text208"
     x="328.28873"
     y="141.18794"
     style="font-size:11.64436626px;font-family:IBMPlexSans;stroke-width:0.97036391">uplink2 (Adattatore 1NIC)</text>
<text
     transform="matrix(1 0 0 1 271 117)"
     class="st1 st8"
     id="text210">vm nic0</text>
<text
     transform="matrix(1 0 0 1 270 167)"
     class="st1 st8"
     id="text212">vm nic2</text>
<g
     id="g230"><rect
       x="238"
       y="87"
       class="st9"
       width="18"
       height="4"
       id="rect214" /><rect
       x="238"
       y="92"
       width="18"
       height="8"
       id="rect216" /><rect
       x="241"
       y="90"
       width="12"
       height="2"
       id="rect218" /><rect
       x="242"
       y="89"
       width="10"
       height="1"
       id="rect220" /><rect
       x="244"
       y="87"
       width="6"
       height="2"
       id="rect222" /><rect
       x="240"
       y="96"
       class="st6"
       width="14"
       height="3"
       id="rect224" /><rect
       x="239"
       y="88"
       class="st10"
       width="3"
       height="2"
       id="rect226" /><rect
       x="252"
       y="88"
       class="st10"
       width="3"
       height="2"
       id="rect228" /></g><g
     id="g248"><rect
       x="187"
       y="78"
       class="st9"
       width="18"
       height="4"
       id="rect232" /><rect
       x="187"
       y="83"
       width="18"
       height="8"
       id="rect234" /><rect
       x="190"
       y="81"
       width="12"
       height="2"
       id="rect236" /><rect
       x="191"
       y="80"
       width="10"
       height="1"
       id="rect238" /><rect
       x="193"
       y="78"
       width="6"
       height="2"
       id="rect240" /><rect
       x="189"
       y="87"
       class="st6"
       width="14"
       height="3"
       id="rect242" /><rect
       x="188"
       y="79"
       class="st10"
       width="3"
       height="2"
       id="rect244" /><rect
       x="201"
       y="79"
       class="st10"
       width="3"
       height="2"
       id="rect246" /></g><g
     id="g266"><rect
       x="239"
       y="136"
       class="st9"
       width="18"
       height="4"
       id="rect250" /><rect
       x="239"
       y="141"
       width="18"
       height="8"
       id="rect252" /><rect
       x="242"
       y="139"
       width="12"
       height="2"
       id="rect254" /><rect
       x="243"
       y="138"
       width="10"
       height="1"
       id="rect256" /><rect
       x="245"
       y="136"
       width="6"
       height="2"
       id="rect258" /><rect
       x="241"
       y="145"
       class="st6"
       width="14"
       height="3"
       id="rect260" /><rect
       x="240"
       y="137"
       class="st10"
       width="3"
       height="2"
       id="rect262" /><rect
       x="253"
       y="137"
       class="st10"
       width="3"
       height="2"
       id="rect264" /></g><g
     id="g284"><rect
       x="188"
       y="150"
       class="st9"
       width="18"
       height="4"
       id="rect268" /><rect
       x="188"
       y="155"
       width="18"
       height="8"
       id="rect270" /><rect
       x="191"
       y="153"
       width="12"
       height="2"
       id="rect272" /><rect
       x="192"
       y="152"
       width="10"
       height="1"
       id="rect274" /><rect
       x="194"
       y="150"
       width="6"
       height="2"
       id="rect276" /><rect
       x="190"
       y="159"
       class="st6"
       width="14"
       height="3"
       id="rect278" /><rect
       x="189"
       y="151"
       class="st10"
       width="3"
       height="2"
       id="rect280" /><rect
       x="202"
       y="151"
       class="st10"
       width="3"
       height="2"
       id="rect282" /></g><g
     id="g302"><rect
       x="188"
       y="221"
       class="st9"
       width="18"
       height="4"
       id="rect286" /><rect
       x="188"
       y="226"
       width="18"
       height="8"
       id="rect288" /><rect
       x="191"
       y="224"
       width="12"
       height="2"
       id="rect290" /><rect
       x="192"
       y="223"
       width="10"
       height="1"
       id="rect292" /><rect
       x="194"
       y="221"
       width="6"
       height="2"
       id="rect294" /><rect
       x="190"
       y="230"
       class="st6"
       width="14"
       height="3"
       id="rect296" /><rect
       x="189"
       y="222"
       class="st10"
       width="3"
       height="2"
       id="rect298" /><rect
       x="202"
       y="222"
       class="st10"
       width="3"
       height="2"
       id="rect300" /></g><line
     class="st11"
     x1="205"
     y1="85"
     x2="232"
     y2="85"
     id="line304" /><line
     class="st11"
     x1="205"
     y1="157.5"
     x2="232"
     y2="157.5"
     id="line306" /><line
     class="st11"
     x1="206"
     y1="227.5"
     x2="216.5"
     y2="227.5"
     id="line308" /><line
     class="st11"
     x1="256.5"
     y1="93.5"
     x2="270.5"
     y2="93.5"
     id="line310" /><line
     class="st11"
     x1="256.5"
     y1="142.5"
     x2="269.5"
     y2="142.5"
     id="line312" /><line
     class="st11"
     x1="261.5"
     y1="71.5"
     x2="261.5"
     y2="172.5"
     id="line314" /><line
     class="st11"
     x1="216.5"
     y1="165.5"
     x2="216.5"
     y2="227.5"
     id="line316" /><line
     class="st11"
     x1="233"
     y1="165.5"
     x2="216.5"
     y2="165.5"
     id="line318" /></svg>
