<?xml version="1.0" encoding="UTF-8" standalone="no"?>
<!-- Generator: Adobe Illustrator 21.0.0, SVG Export Plug-In . SVG Version: 6.00 Build 0)  -->

<svg
   xmlns:dc="http://purl.org/dc/elements/1.1/"
   xmlns:cc="http://creativecommons.org/ns#"
   xmlns:rdf="http://www.w3.org/1999/02/22-rdf-syntax-ns#"
   xmlns:svg="http://www.w3.org/2000/svg"
   xmlns="http://www.w3.org/2000/svg"
   xmlns:sodipodi="http://sodipodi.sourceforge.net/DTD/sodipodi-0.dtd"
   xmlns:inkscape="http://www.inkscape.org/namespaces/inkscape"
   version="1.1"
   x="0px"
   y="0px"
   viewBox="0 0 512 376"
   style="enable-background:new 0 0 512 376;"
   xml:space="preserve"
   id="svg90"
   sodipodi:docname="hcx_single_source.svg"
   inkscape:version="0.92.3 (2405546, 2018-03-11)"><metadata
   id="metadata96"><rdf:RDF><cc:Work
       rdf:about=""><dc:format>image/svg+xml</dc:format><dc:type
         rdf:resource="http://purl.org/dc/dcmitype/StillImage" /></cc:Work></rdf:RDF></metadata><defs
   id="defs94">
	

		
		
	
	

		
		
	
			
			
		</defs><sodipodi:namedview
   pagecolor="#ffffff"
   bordercolor="#666666"
   borderopacity="1"
   objecttolerance="10"
   gridtolerance="10"
   guidetolerance="10"
   inkscape:pageopacity="0"
   inkscape:pageshadow="2"
   inkscape:window-width="1920"
   inkscape:window-height="1017"
   id="namedview92"
   showgrid="false"
   inkscape:zoom="2.3855405"
   inkscape:cx="256.65"
   inkscape:cy="254.58325"
   inkscape:window-x="-8"
   inkscape:window-y="-8"
   inkscape:window-maximized="1"
   inkscape:current-layer="svg90" />
<style
   type="text/css"
   id="style2">
	.st0{fill:#E8CEB5;stroke:#000000;stroke-width:0.5;stroke-miterlimit:10;stroke-dasharray:5;}
	.st1{fill:#D0EFDF;}
	.st2{fill:none;stroke:#000000;stroke-width:0.5;stroke-miterlimit:10;}
	.st3{fill:none;stroke:#000000;stroke-width:0.5;stroke-miterlimit:10;stroke-dasharray:4.9744,4.9744;}
	.st4{fill:none;stroke:#000000;stroke-width:0.5;stroke-miterlimit:10;stroke-dasharray:4.9836,4.9836;}
	.st5{fill:#FFFFFF;stroke:#4D4D4D;stroke-width:2;stroke-miterlimit:10;}
	.st6{font-family:'MyriadPro-Regular';}
	.st7{font-size:18px;}
	.st8{fill:none;stroke:#000000;stroke-width:2;stroke-miterlimit:10;}
	.st9{fill:#8CC63F;stroke:#000000;stroke-width:0.25;stroke-miterlimit:10;}
	.st10{fill:#29ABE2;stroke:#000000;stroke-width:0.25;stroke-miterlimit:10;}
</style>
<g
   id="right_box">
	<rect
   x="226.5"
   y="11.5"
   class="st0"
   width="275"
   height="310"
   id="rect4" />
</g>
<g
   id="left_box">
	<g
   id="g27">
		<rect
   x="11.8"
   y="11"
   class="st1"
   width="199"
   height="309"
   id="rect7" />
		<g
   id="g25">
			<polyline
   class="st2"
   points="210.8,317.5 210.8,320 208.3,320    "
   id="polyline9" />
			<line
   class="st3"
   x1="203.3"
   y1="320"
   x2="16.8"
   y2="320"
   id="line11" />
			<polyline
   class="st2"
   points="14.3,320 11.8,320 11.8,317.5    "
   id="polyline13" />
			<line
   class="st4"
   x1="11.8"
   y1="312.5"
   x2="11.8"
   y2="16"
   id="line15" />
			<polyline
   class="st2"
   points="11.8,13.5 11.8,11 14.3,11    "
   id="polyline17" />
			<line
   class="st3"
   x1="19.3"
   y1="11"
   x2="205.8"
   y2="11"
   id="line19" />
			<polyline
   class="st2"
   points="208.3,11 210.8,11 210.8,13.5    "
   id="polyline21" />
			<line
   class="st4"
   x1="210.8"
   y1="18.5"
   x2="210.8"
   y2="315"
   id="line23" />
		</g>
	</g>
</g>
<g
   id="Layer_4">
	<g
   id="g34">
		<path
   class="st5"
   d="M453.5,149c-7.9,0-15.2,1.6-21.2,4.3c-2.2-15.9-17.1-28.3-35.2-28.3c-18.6,0-33.9,13-35.4,29.7    c-1.6-0.6-3.3-0.8-5.1-0.8c-9.5,0-17.2,8.6-17.2,19.2c0,10.6,7.7,19.2,17.2,19.2c2.1,0,4.1-0.4,5.9-1.2h79.3    c3.6,0.8,7.5,1.2,11.6,1.2c19.6,0,35.5-9.7,35.5-21.6C489,158.7,473.1,149,453.5,149z"
   id="path30" />
		<text
   transform="matrix(1 0 0 1 353 177.1221)"
   class="st6 st7"
   id="text32"
   style="-inkscape-font-specification:'MS UI Gothic, Normal';font-family:'MS UI Gothic';font-weight:normal;font-style:normal;font-stretch:normal;font-variant:normal;font-size:18px;text-anchor:start;text-align:start;writing-mode:lr;font-variant-ligatures:normal;font-variant-caps:normal;font-variant-numeric:normal;font-feature-settings:normal;">IBM Cloud DC 2</text>

	</g>
</g>
<g
   id="lines">
	<line
   class="st8"
   x1="274"
   y1="262"
   x2="199"
   y2="162"
   id="line37" />
	<line
   class="st8"
   x1="339"
   y1="168"
   x2="200"
   y2="163"
   id="line39" />
	<line
   class="st8"
   x1="201"
   y1="163"
   x2="267"
   y2="94"
   id="line41" />
</g>
<g
   id="Layer_8">
	<text
   transform="matrix(1 0 0 1 340.3586 310.333)"
   class="st6 st7"
   id="text44"
   style="-inkscape-font-specification:'MS UI Gothic, Normal';font-family:'MS UI Gothic';font-weight:normal;font-style:normal;font-stretch:normal;font-variant:normal;font-size:18px;text-anchor:start;text-align:start;writing-mode:lr;font-variant-ligatures:normal;font-variant-caps:normal;font-variant-numeric:normal;font-feature-settings:normal;">ターゲット</text>

	<text
   transform="matrix(1 0 0 1 85.5514 310.333)"
   class="st6 st7"
   id="text46"
   style="-inkscape-font-specification:'MS UI Gothic, Normal';font-family:'MS UI Gothic';font-weight:normal;font-style:normal;font-stretch:normal;font-variant:normal;font-size:18px;text-anchor:start;text-align:start;writing-mode:lr;font-variant-ligatures:normal;font-variant-caps:normal;font-variant-numeric:normal;font-feature-settings:normal;">ソース</text>

</g>
<g
   id="Layer_3">
	<g
   id="g53">
		<path
   class="st5"
   d="M388.5,240c-7.9,0-15.2,1.6-21.2,4.3c-2.2-15.9-17.1-28.3-35.2-28.3c-18.6,0-33.9,13-35.4,29.7    c-1.6-0.6-3.3-0.8-5.1-0.8c-9.5,0-17.2,8.6-17.2,19.2c0,10.6,7.7,19.2,17.2,19.2c2.1,0,4.1-0.4,5.9-1.2h79.3    c3.6,0.8,7.5,1.2,11.6,1.2c19.6,0,35.5-9.7,35.5-21.6C424,249.7,408.1,240,388.5,240z"
   id="path49" />
		<text
   transform="matrix(1 0 0 1 288 268.1221)"
   class="st6 st7"
   id="text51"
   style="-inkscape-font-specification:'MS UI Gothic, Normal';font-family:'MS UI Gothic';font-weight:normal;font-style:normal;font-stretch:normal;font-variant:normal;font-size:18px;text-anchor:start;text-align:start;writing-mode:lr;font-variant-ligatures:normal;font-variant-caps:normal;font-variant-numeric:normal;font-feature-settings:normal;">非 IBM Cloud</text>

	</g>
</g>
<path
   class="st5"
   d="m 377.5,58 c -7.9,0 -15.2,1.6 -21.2,4.3 -2.2,-16 -17.1,-28.3 -35.2,-28.3 -18.6,0 -33.9,13 -35.4,29.7 -1.6,-0.6 -3.3,-0.8 -5.1,-0.8 -9.5,0 -17.2,8.6 -17.2,19.2 0,10.6 7.7,19.2 17.2,19.2 2.1,0 4.1,-0.4 5.9,-1.2 h 79.3 c 3.6,0.8 7.5,1.2 11.6,1.2 19.6,0 35.5,-9.7 35.5,-21.6 C 413,67.7 397.1,58 377.5,58 Z"
   id="path56"
   inkscape:connector-curvature="0"
   style="fill:#ffffff;stroke:#4d4d4d;stroke-width:2;stroke-miterlimit:10" /><text
   class="st6 st7"
   id="text58"
   style="font-size:18px;font-family:'MS UI Gothic';-inkscape-font-specification:'MS UI Gothic, Normal';font-weight:normal;font-style:normal;font-stretch:normal;font-variant:normal;text-anchor:start;text-align:start;writing-mode:lr;font-variant-ligatures:normal;font-variant-caps:normal;font-variant-numeric:normal;font-feature-settings:normal;"
   x="277"
   y="86.122101">IBM Cloud DC 1</text>

<g
   id="DCa">
</g>
<g
   id="bottom_explanation">
	<g
   id="g72">
		<text
   transform="matrix(1 0 0 1 195 357)"
   class="st6 st7"
   id="text64"
   style="-inkscape-font-specification:'MS UI Gothic, Normal';font-family:'MS UI Gothic';font-weight:normal;font-style:normal;font-stretch:normal;font-variant:normal;font-size:18px;text-anchor:start;text-align:start;writing-mode:lr;font-variant-ligatures:normal;font-variant-caps:normal;font-variant-numeric:normal;font-feature-settings:normal;">ハイブリッド・クラウド・サービス</text>

		<g
   id="g70">
			<path
   class="st9"
   d="M177.9,353.6v-7.4c0-1.8-1.4-3.2-3-3.2h-4v-9.5h6.5c4.8,0,8.6,4.1,8.6,9.1v14.4c0,5-3.9,9.1-8.6,9.1h-6.5     v-9.2h4C176.5,356.8,177.9,355.3,177.9,353.6z"
   id="path66" />
			<path
   class="st10"
   d="M173.2,344.8h-3.9v-11.3h-6.1c-4.5,0-8.2,4.1-8.2,9.1v14.4c0,5,3.7,9.1,8.2,9.1h6.1v-10.6h3.9     c1.2,0,2.2-1.1,2.2-2.5v-5.7C175.4,345.9,174.4,344.8,173.2,344.8z"
   id="path68" />
		</g>
	</g>
</g>
<path
   id="path75"
   d="m 138.5,144 c -7.9,0 -15.2,1.6 -21.2,4.3 -2.2,-15.9 -17.1,-28.3 -35.2,-28.3 -18.6,0 -33.9,13 -35.4,29.7 -1.6,-0.6 -3.3,-0.8 -5.1,-0.8 -9.5,0 -17.2,8.6 -17.2,19.2 0,10.6 7.7,19.2 17.2,19.2 2.1,0 4.1,-0.4 5.9,-1.2 h 79.3 c 3.6,0.8 7.5,1.2 11.6,1.2 19.6,0 35.5,-9.7 35.5,-21.6 0.1,-12 -15.8,-21.7 -35.4,-21.7 z"
   class="st5"
   inkscape:connector-curvature="0"
   style="fill:#ffffff;stroke:#4d4d4d;stroke-width:2;stroke-miterlimit:10" /><text
   style="font-style:normal;font-variant:normal;font-weight:normal;font-stretch:normal;font-size:17.07743073px;font-family:'MS UI Gothic';-inkscape-font-specification:'MS UI Gothic, Normal';font-variant-ligatures:normal;font-variant-caps:normal;font-variant-numeric:normal;font-feature-settings:normal;text-align:start;writing-mode:lr-tb;text-anchor:start;stroke-width:0.94874614"
   id="text77"
   class="st6 st7"
   x="40.163895"
   y="163.30019"
   transform="scale(0.94874617,1.0540227)">データ・センター A</text>
<g
   id="g85">
			<path
   style="fill:#8cc63f;stroke:#000000;stroke-width:0.25;stroke-miterlimit:10"
   inkscape:connector-curvature="0"
   class="st9"
   d="m 184.3,169.5 v -9.8 c 0,-2.3 -1.8,-4.2 -4,-4.2 H 175 V 143 h 8.6 c 6.3,0 11.4,5.4 11.4,12 v 19 c 0,6.6 -5.1,12 -11.4,12 H 175 v -12.2 h 5.2 c 2.2,0 4.1,-1.9 4.1,-4.3 z"
   id="path81" />
			<path
   style="fill:#29abe2;stroke:#000000;stroke-width:0.25;stroke-miterlimit:10"
   inkscape:connector-curvature="0"
   class="st10"
   d="m 178.1,158 h -5.2 v -15 h -8.1 c -5.9,0 -10.8,5.4 -10.8,12 v 19 c 0,6.6 4.9,12 10.8,12 h 8.1 v -14 h 5.2 c 1.6,0 2.9,-1.5 2.9,-3.3 v -7.5 c 0,-1.7 -1.3,-3.2 -2.9,-3.2 z"
   id="path83" />
		</g>
</svg>
