<?xml version="1.0" encoding="UTF-8"?>
<svg width="871px" height="470px" version="1.1" xmlns="http://www.w3.org/2000/svg" xmlns:cc="http://creativecommons.org/ns#" xmlns:dc="http://purl.org/dc/elements/1.1/" xmlns:rdf="http://www.w3.org/1999/02/22-rdf-syntax-ns#">
 <metadata>
  <rdf:RDF>
   <cc:Work rdf:about="">
    <dc:format>image/svg+xml</dc:format>
    <dc:type rdf:resource="http://purl.org/dc/dcmitype/StillImage"/>
    <dc:title/>
   </cc:Work>
  </rdf:RDF>
 </metadata>
 <g transform="translate(.5 .5)">
  <g pointer-events="none">
   <rect width="870" height="469" fill="#f5f5f5" stroke="#666"/>
   <rect x="130" y="69" width="600" height="394" fill="#dae8fc" stroke="#6c8ebf"/>
   <rect x="570" y="149" width="150" height="310" fill="#dae8fc" stroke="#6c8ebf"/>
  </g>
  <g font-family="Helvetica" font-size="24px" text-anchor="middle">
   <text x="119.5" y="33.5">Stock Trader - 強化</text>
  </g>
  <rect x="160" y="149" width="400" height="310" fill="#fff2cc" pointer-events="none" stroke="#d6b656"/>
  <g font-family="Helvetica" font-size="16px">
   <text x="165.5" y="169.5">IBM Cloud Private Hosted</text>
  </g>
  <rect x="319" y="199" width="79" height="30" fill="#9f9" pointer-events="none" stroke="#36393d"/>
  <g font-family="Helvetica" font-size="10px" text-anchor="middle">
   <text x="359.5" y="214.5">DB2</text>
  </g>
  <rect x="460" y="169" width="79" height="30" fill="#9f9" pointer-events="none" stroke="#36393d"/>
  <g font-family="Helvetica" font-size="10px" text-anchor="middle">
   <text x="499" y="184.5">Redis</text>
  </g>
  <rect x="319" y="356.5" width="79" height="30" fill="#9f9" pointer-events="none" stroke="#36393d"/>
  <g font-family="Helvetica" font-size="10px" text-anchor="middle">
   <text x="359.5" y="372">MQ</text>
  </g>
  <rect x="175" y="278" width="79" height="30" fill="#9cf" pointer-events="none" stroke="#6c8ebf"/>
  <g font-family="Helvetica" font-size="10px" text-anchor="middle">
   <text x="214" y="293.5">Trader</text>
  </g>
  <rect x="319" y="278" width="79" height="30" fill="#9cf" pointer-events="none" stroke="#6c8ebf"/>
  <g font-family="Helvetica" font-size="10px" text-anchor="middle">
   <text x="359.5" y="293.5">組合</text>
  </g>
  <rect x="319" y="413" width="79" height="30" fill="#9cf" pointer-events="none" stroke="#6c8ebf"/>
  <g font-family="Helvetica" font-size="10px" text-anchor="middle">
   <text x="358" y="428.5">傳訊</text>
  </g>
  <rect x="460" y="232" width="79" height="30" fill="#9cf" pointer-events="none" stroke="#6c8ebf"/>
  <g font-family="Helvetica" font-size="10px" text-anchor="middle">
   <text x="499" y="247.5">股票報價</text>
  </g>
  <rect x="460" y="302" width="79" height="30" fill="#9cf" pointer-events="none" stroke="#6c8ebf"/>
  <g font-family="Helvetica" font-size="10px" text-anchor="middle">
   <text x="500" y="317.5">忠誠度層次</text>
  </g>
  <rect x="460" y="379.5" width="79" height="30" fill="#9cf" pointer-events="none" stroke="#6c8ebf"/>
  <g font-family="Helvetica" font-size="10px" text-anchor="middle">
   <text x="499" y="395">通知</text>
   <text x="499" y="407">Slack</text>
  </g>
  <rect x="460" y="421" width="79" height="30" fill="#9cf" pointer-events="none" stroke="#6c8ebf"/>
  <g font-family="Helvetica" font-size="10px" text-anchor="middle">
   <text x="499" y="436.5">通知</text>
   <text x="499" y="448.5">Twitter</text>
  </g>
  <g pointer-events="none" stroke="#000" stroke-miterlimit="10">
   <path d="m254 293h58.63" fill="none"/>
   <path d="m317.88 293-7 3.5 1.75-3.5-1.75-3.5z"/>
   <path d="m398 293 56.89-42.21" fill="none"/>
   <path d="m459.1 247.67-3.53 6.98-0.68-3.86-3.5-1.76z"/>
   <path d="m398 293 56.06 21.7" fill="none"/>
   <path d="m458.96 316.6-7.79 0.73 2.89-2.63-0.37-3.89z"/>
   <path d="m360 278v-42.63" fill="none"/>
   <path d="m360 230.12 3.5 7-3.5-1.75-3.5 1.75z"/>
   <path d="m500 232v-26.63" fill="none"/>
   <path d="m500 200.12 3.5 7-3.5-1.75-3.5 1.75z"/>
   <path d="m359 387v19.63" fill="none"/>
   <path d="m359 411.88-3.5-7 3.5 1.75 3.5-1.75z"/>
   <path d="m398 428 56.38-30.01" fill="none"/>
   <path d="m459.01 395.53-4.53 6.37-0.1-3.91-3.19-2.27z"/>
   <path d="m398 428 55.68 7.19" fill="none"/>
   <path d="m458.89 435.86-7.39 2.57 2.18-3.24-1.28-3.7z"/>
  </g>
  <g font-family="Helvetica" font-size="16px">
   <text x="135.5" y="89">IBM Cloud</text>
  </g>
  <g pointer-events="none" stroke="#000" stroke-miterlimit="10">
   <path d="m539 247h50.63" fill="none"/>
   <path d="m594.88 247-7 3.5 1.75-3.5-1.75-3.5z"/>
   <path d="m675 247h64.63" fill="none"/>
   <path d="m744.88 247-7 3.5 1.75-3.5-1.75-3.5z"/>
   <path d="m539 395h50.63" fill="none"/>
   <path d="m594.88 395-7 3.5 1.75-3.5-1.75-3.5z"/>
   <path d="m539 436h200.63" fill="none"/>
   <path d="m744.88 436-7 3.5 1.75-3.5-1.75-3.5z"/>
   <path d="m675 395h64.63" fill="none"/>
   <path d="m744.88 395-7 3.5 1.75-3.5-1.75-3.5z"/>
  </g>
  <g font-family="Helvetica" font-size="16px" text-anchor="middle">
   <text x="646.5" y="169.5">IBM Cloud 服務</text>
  </g>
  <rect x="595.5" y="379.5" width="79" height="30" fill="#f8cecc" pointer-events="none" stroke="#b85450"/>
  <g font-family="Helvetica" font-size="10px" text-anchor="middle">
   <text x="634.5" y="395">Functions</text>
   <text x="634.5" y="407">(OpenWhisk)</text>
  </g>
  <rect x="595.5" y="232" width="79" height="30" fill="#f8cecc" pointer-events="none" stroke="#b85450"/>
  <g font-family="Helvetica" font-size="10px" text-anchor="middle">
   <text x="634.5" y="247.5">API Connect</text>
  </g>
  <rect x="745.5" y="421" width="79" height="30" fill="#ccc" pointer-events="none" stroke="#666"/>
  <g font-family="Helvetica" font-size="10px" text-anchor="middle">
   <text x="784.5" y="436.5">Twitter</text>
  </g>
  <rect x="745.5" y="379.5" width="79" height="30" fill="#ccc" pointer-events="none" stroke="#666"/>
  <g font-family="Helvetica" font-size="10px" text-anchor="middle">
   <text x="784.5" y="395">Slack</text>
  </g>
  <rect x="30" y="332" width="79" height="30" fill="#ccc" pointer-events="none" stroke="#666"/>
  <g font-family="Helvetica" font-size="10px" text-anchor="middle">
   <text x="69" y="347.5">瀏覽器</text>
  </g>
  <rect x="30" y="272" width="79" height="30" fill="#ccc" pointer-events="none" stroke="#666"/>
  <g font-family="Helvetica" font-size="10px" text-anchor="middle">
   <text x="69" y="287.5">OIDC</text>
  </g>
  <g pointer-events="none">
   <g stroke="#000" stroke-miterlimit="10">
    <path d="m109 347 60.78-42.36" fill="none"/>
    <path d="m174.08 301.64-3.74 6.87-0.56-3.87-3.44-1.87z"/>
    <path d="m115.37 286.9 53.26-0.8" fill="none"/>
    <path d="m110.12 286.98 6.94-3.6-1.69 3.52 1.8 3.48z"/>
    <path d="m173.88 286.02-6.94 3.6 1.69-3.52-1.8-3.48z"/>
   </g>
   <rect x="745.5" y="232" width="79" height="30" fill="#ccc" stroke="#666"/>
  </g>
  <g font-family="Helvetica" font-size="10px" text-anchor="middle">
   <text x="784.5" y="250">股票服務</text>
  </g>
  <path d="m474 332-70.36 37.03" fill="none" pointer-events="none" stroke="#000" stroke-miterlimit="10"/>
  <path d="m398.99 371.48 4.56-6.36 0.09 3.91 3.17 2.29z" pointer-events="none" stroke="#000" stroke-miterlimit="10"/>
 </g>
</svg>
