<?xml version="1.0" encoding="UTF-8"?>
<!-- Generator: Adobe Illustrator 21.0.0, SVG Export Plug-In . SVG Version: 6.00 Build 0)  -->
<svg enable-background="new 0 0 725 345.4" version="1.1" viewBox="0 0 725 345.4" xml:space="preserve" xmlns="http://www.w3.org/2000/svg" xmlns:cc="http://creativecommons.org/ns#" xmlns:dc="http://purl.org/dc/elements/1.1/" xmlns:rdf="http://www.w3.org/1999/02/22-rdf-syntax-ns#"><metadata><rdf:RDF><cc:Work rdf:about=""><dc:format>image/svg+xml</dc:format><dc:type rdf:resource="http://purl.org/dc/dcmitype/StillImage"/><dc:title/></cc:Work></rdf:RDF></metadata>
<style type="text/css">
	.st0{fill:#4B84C4;}
	.st1{fill:#959595;}
	.st2{fill:#CBA8CC;}
	.st3{fill:#333333;}
	.st4{font-family:'IBMPlexSans';}
	.st5{font-size:14px;}
	.st6{fill:#FFFFFF;}
	.st7{font-size:12px;}
	.st8{font-family:'IBMPlexSans-Bold';}
	.st9{font-size:16px;}
	.st10{fill:#EFEC97;}
</style>
<rect class="st0" x="17.5" y="43.1" width="149.8" height="95.8"/>
<rect class="st0" x="17.8" y="142.5" width="149.8" height="97.1"/>
<rect class="st0" x="18.2" y="243.1" width="149.8" height="101.8"/>
<rect class="st1" x="172.2" y="142.2" width="133" height="99.3"/>
<rect class="st2" x="309.4" y="141.8" width="135.9" height="99.3"/>
	<rect class="st1" x="449.2" y="141.5" width="135.9" height="99.3"/>
<rect class="st1" x="171.9" y="245.1" width="273.5" height="99.3"/>
<rect class="st2" x="171.4" y="42.9" width="413.2" height="94.3"/>
<rect class="st2" x="589.2" y="42.6" width="135.9" height="93.9"/>
	<rect class="st3" x="17.3" y=".6" width="150.7" height="39.2"/>
	<rect class="st3" x="170.9" y=".6" width="136.1" height="39.2"/>
	<rect class="st3" x="310.1" y=".2" width="136.1" height="39.2"/>
	<rect class="st3" x="449" y=".2" width="136.1" height="39.2"/>
	<rect class="st3" x="588.9" y=".9" width="136.1" height="39.2"/>
	<text class="st4 st5" transform="translate(343 197.62)">お客様</text>
	<text class="st4 st5" transform="translate(220.17 197.62)">IBM</text>
	<text class="st4 st5" transform="translate(291.5 302.96)">IBM</text>
	<text class="st4 st5" transform="translate(626.5 93.957)">お客様</text>
	<text class="st4 st5" transform="translate(343 93.957)">お客様</text>
<g id="Bare_Metal">
	<text class="st6 st4 st5" transform="translate(52.834 330.29)">ベア・メタル</text>
</g>
<g id="Storage">
	<text class="st6 st4 st5" transform="translate(61.834 307.96)">ストレージ</text>
</g>
<g id="Network">
	<text class="st6 st4 st5" transform="translate(60.166 285.62)">ネットワーク</text>
</g>
<g id="data_center">
	<text class="st6 st4 st5" transform="translate(51.5 263.96)">データ・センター</text>
</g>
<g id="PSC">
	<text class="st6 st4 st5" transform="translate(73.5 221.96)">PSC</text>
</g>
<g id="NSX">
	<text class="st6 st4 st5" transform="translate(73.5 196.29)">NSX</text>
</g>
<g id="vCenter">
	<text class="st6 st4 st5" transform="translate(64.834 169.62)">vCenter</text>
</g>
<g id="Guest_OS">
	<text class="st6 st4 st5" transform="translate(62.101 124.58)">ゲスト OS</text>
</g>
<g id="IBM_middleware">
	<text class="st6 st4 st5" transform="translate(42.219 99.212)">IBM ミドルウェア</text>
</g>
<g id="Application_software">
	<text class="st6 st4 st5" transform="translate(28.722 70.951)">アプリケーション・ソフトウェア</text>
</g>
	<text class="st4 st7" transform="matrix(-.00344 -1 1 -.00344 15.294 334.12)">IBM Cloud IaaS</text>
<g id="vmware_vcs">
	<text class="st4 st7" transform="matrix(-.02045 -.9998 .9998 -.02045 14.726 223.46)">VMware VCS</text>
</g>
<g id="OS_x2F_APP">
	<text class="st4 st7" transform="matrix(.01087 -.9999 .9999 .01087 12.374 114.17)">OS/アプリ</text>
</g>
<g id="Admin_access">
	<text class="st6 st8 st9" transform="translate(611.3 24.16)">管理者アクセス</text>
</g>
<g id="Configure">
	<text class="st6 st8 st9" transform="translate(476.12 24.16)">構成</text>
</g>
<g id="Maintain">
	<text class="st6 st8 st9" transform="translate(345.36 24.16)">保守</text>
</g>
<g id="Install">
	<text class="st6 st8 st9" transform="translate(214.08 24.16)">インストール</text>
</g>
<g id="Activity">
	<text class="st6 st8 st9" transform="translate(63.559 24.16)">アクティビティー</text>
</g>
<polygon class="st10" points="449.2 141.5 585.2 240.8 449.2 240.8"/>
	<rect class="st1" x="448.9" y="244.4" width="135.9" height="99.3"/>
	<polygon class="st10" points="448.9 244.4 584.8 343.7 448.9 343.7"/>
	<rect class="st1" x="589.1" y="244.4" width="135.9" height="99.3"/>
	<polygon class="st10" points="589.1 244.4 725.1 343.7 589.1 343.7"/>
	<rect class="st1" x="589.5" y="141.5" width="135.9" height="99.3"/>
	<polygon class="st10" points="589.5 141.5 725.4 240.8 589.5 240.8"/>
	<text class="st4 st5" transform="translate(467.17 219.96)">お客様</text>
	<text class="st4 st5" transform="translate(467.17 325.62)">お客様</text>
	<text class="st4 st5" transform="translate(603.17 219.96)">お客様</text>
	<text class="st4 st5" transform="translate(603.17 325.62)">お客様</text>
	<text class="st4 st5" transform="translate(520.17 170.62)">IBM</text>
	<text class="st4 st5" transform="translate(520.17 270.96)">IBM</text>
	<text class="st4 st5" transform="translate(675.5 170.29)">IBM</text>
	<text class="st4 st5" transform="translate(676.83 269.96)">IBM</text>
</svg>
