<?xml version="1.0" encoding="utf-8"?>
<!-- Generator: Adobe Illustrator 19.0.0, SVG Export Plug-In . SVG Version: 6.00 Build 0)  -->
<svg version="1.1" id="Layer_1" xmlns="http://www.w3.org/2000/svg" xmlns:xlink="http://www.w3.org/1999/xlink" x="0px" y="0px"
	 viewBox="0 0 600 320" style="enable-background:new 0 0 600 320;" xml:space="preserve">
<style type="text/css">
	.st0{fill:#4C84C5;}
	.st1{fill:#F49C58;}
	.st2{fill:#959595;}
	.st3{fill:#1DA78D;}
	.st4{fill:#FFFFFF;}
	.st5{font-family:'MS-Gothic';}
	.st6{font-size:21px;}
	.st7{font-family:'ArialMT';}
	.st8{font-size:18px;}
	.st9{font-size:14px;}
	.st10{enable-background:new    ;}
</style>
<rect y="81.7" class="st0" width="600" height="75.3"/>
<rect x="0.6" y="0.6" class="st1" width="600" height="74.3"/>
<rect y="239.7" class="st2" width="600" height="80.3"/>
<rect y="164" class="st3" width="190" height="68"/>
<rect x="205" y="163.4" class="st3" width="190" height="68.6"/>
<rect x="410" y="164" class="st3" width="190" height="68"/>
<text transform="matrix(1 0 0 1 246.0576 110.3711)" class="st4 st5 st6">仮想化管理</text>
<text transform="matrix(1 0 0 1 202.4025 144.3711)" class="st4 st7 st8">VMware vCenter Server</text>
<text transform="matrix(1 0 0 1 3.5747 192.8755)" class="st4 st5 st8">コンピュートの仮想化</text>
<text transform="matrix(1 0 0 1 41.1747 216.7755)" class="st4 st7 st9">VMware vSphere</text>
<text transform="matrix(1 0 0 1 216.0037 192.8755)" class="st4 st5 st8">ストレージの仮想化</text>
<text transform="matrix(1 0 0 1 255.8037 216.7755)" class="st4 st7 st9">VMware vSAN</text>
<text transform="matrix(1 0 0 1 417.666 192.8755)" class="st4 st5 st8">ネットワークの仮想化</text>
<text transform="matrix(1 0 0 1 462.666 216.7755)" class="st4 st7 st9">VMware NSX </text>
<text transform="matrix(1 0 0 1 89.1212 272.5371)" class="st10"><tspan x="0" y="0" class="st4 st7 st6">IBM Cloud </tspan><tspan x="103.9" y="0" class="st4 st5 st6">上の物理インフラストラクチャー</tspan></text>
<text transform="matrix(1 0 0 1 99.0573 27.4924)" class="st4 st5 st6">インフラストラクチャーのハイブリッド化</text>
<text transform="matrix(1 0 0 1 141.5059 61.4924)" class="st4 st7 st8">VMware Hybrid Cloud Extension (HCX)</text>
<text transform="matrix(1 0 0 1 251.3247 303.3732)" class="st4 st5 st8">ストレージ</text>
<text transform="matrix(1 0 0 1 384.9552 303.3732)" class="st4 st5 st8">ネットワーク</text>
<text transform="matrix(1 0 0 1 112.5858 303.373)" class="st4 st5 st8">コンピュート</text>
</svg>
