<?xml version="1.0" encoding="utf-8"?>
<!-- Generator: Adobe Illustrator 19.0.0, SVG Export Plug-In . SVG Version: 6.00 Build 0)  -->
<svg version="1.1" id="Layer_1" xmlns="http://www.w3.org/2000/svg" xmlns:xlink="http://www.w3.org/1999/xlink" x="0px" y="0px"
	 viewBox="0 0 600 320" style="enable-background:new 0 0 600 320;" xml:space="preserve">
<style type="text/css">
	.st0{fill:#4C84C5;}
	.st1{fill:#959595;}
	.st2{fill:#1BA78D;}
	.st3{fill:#FFFFFF;}
	.st4{font-family:'MS-Gothic';}
	.st5{font-size:26px;}
	.st6{font-family:'ArialMT';}
	.st7{font-size:21px;}
</style>
<rect class="st0" width="600" height="100"/>
<rect y="220" class="st1" width="600" height="100"/>
<rect y="110" class="st2" width="297.5" height="100"/>
<rect x="305.3" y="110" class="st2" width="294.7" height="100"/>
<text transform="matrix(1 0 0 1 221.9995 43.3711)"><tspan x="0" y="0" class="st3 st4 st5">仮想化の管理</tspan><tspan x="-60.7" y="34" class="st3 st6 st5">VMware vCenter Server</tspan></text>
<text transform="matrix(1 0 0 1 15.2251 158.6688)"><tspan x="0" y="0" class="st3 st4 st5">コンピュートの仮想化</tspan><tspan x="30.3" y="23.9" class="st3 st6 st5">VMware vSphere</tspan></text>
<text transform="matrix(1 0 0 1 324.7793 159.7861)"><tspan x="0" y="0" class="st3 st4 st5">ネットワークの仮想化</tspan><tspan x="52" y="23.9" class="st3 st6 st5">VMware NSX</tspan></text>
<text transform="matrix(1 0 0 1 37.0859 263.5371)"><tspan x="0" y="0" class="st3 st6 st5">IBM Cloud </tspan><tspan x="128.6" y="0" class="st3 st4 st5">上の物理インフラストラクチャー</tspan><tspan x="518.6" y="0" class="st3 st6 st5"> </tspan></text>
<text transform="matrix(1 0 0 1 384.7922 302.2838)" class="st3 st4 st7">ネットワーク</text>
<text transform="matrix(1 0 0 1 255.3928 302.8424)" class="st3 st4 st7">ストレージ</text>
<text transform="matrix(1 0 0 1 92.2224 302.7475)" class="st3 st4 st7">コンピュート</text>
</svg>
