<svg id="Layer_1" data-name="Layer 1" xmlns="http://www.w3.org/2000/svg" viewBox="0 0 725.49 405.56"><defs><style>.cls-1{fill:#4b84c4;}.cls-2{fill:#959595;}.cls-3{fill:#1aa78d;}.cls-4{fill:#f59c57;}.cls-32,.cls-5{font-size:18px;}.cls-12,.cls-21,.cls-32,.cls-5{fill:#fff;}.cls-21,.cls-5{font-family:IBMPlexSans-Bold, IBM Plex Sans;font-weight:700;}.cls-6{letter-spacing:-0.01em;}.cls-7{letter-spacing:0em;}.cls-8{letter-spacing:-0.01em;}.cls-9{letter-spacing:0.01em;}.cls-10{letter-spacing:-0.01em;}.cls-11{letter-spacing:0em;}.cls-12{font-size:16px;}.cls-12,.cls-32{font-family:IBMPlexSans, IBM Plex Sans;}.cls-13{letter-spacing:-0.01em;}.cls-14{letter-spacing:0em;}.cls-15{letter-spacing:-0.01em;}.cls-16{letter-spacing:-0.01em;}.cls-17{letter-spacing:0em;}.cls-18{letter-spacing:0em;}.cls-19{letter-spacing:0em;}.cls-20{fill:#b97bba;}.cls-21{font-size:21px;}.cls-22{letter-spacing:-0.01em;}.cls-23{letter-spacing:0em;}.cls-24{letter-spacing:-0.01em;}.cls-25{letter-spacing:-0.01em;}.cls-26{letter-spacing:-0.01em;}.cls-27{letter-spacing:0em;}.cls-28{letter-spacing:0em;}.cls-29{letter-spacing:0.01em;}.cls-30{letter-spacing:0em;}.cls-31{letter-spacing:0em;}.cls-33{letter-spacing:-0.01em;}.cls-34{letter-spacing:0em;}.cls-35{letter-spacing:-0.01em;}.cls-36{letter-spacing:-0.01em;}.cls-37{letter-spacing:-0.01em;}.cls-38{letter-spacing:0em;}.cls-39{letter-spacing:-0.01em;}.cls-40{letter-spacing:-0.01em;}.cls-41{letter-spacing:0.01em;}.cls-42{letter-spacing:0em;}.cls-43{letter-spacing:0em;}</style></defs><title>architecture</title><rect class="cls-1" x="198.84" y="107.38" width="526.47" height="89.11"/><rect class="cls-2" y="309.18" width="725.31" height="96.38"/><rect class="cls-3" x="198.84" y="208.2" width="526.65" height="89.86"/><g id="Layer_2" data-name="Layer 2"><rect class="cls-4" x="0.64" y="107.53" width="186.94" height="190.53"/></g><g id="Layer_4" data-name="Layer 4"><text class="cls-5" transform="translate(7.75 142.43)">A<tspan class="cls-6" x="12.33" y="0">l</tspan><tspan class="cls-7" x="17.64" y="0">l</tspan><tspan class="cls-8" x="23.09" y="0">g</tspan><tspan x="32.92" y="0">emeine Se</tspan><tspan class="cls-9" x="120.83" y="0">r</tspan><tspan x="128.23" y="0">vi</tspan><tspan class="cls-10" x="143.06" y="0">c</tspan><tspan class="cls-11" x="152.28" y="0">es</tspan></text><text class="cls-12" transform="translate(30.92 181.94)">Authentifizierung<tspan x="45.98" y="31.42">DNS</tspan><tspan x="46.58" y="62.83">NTP</tspan><tspan class="cls-13" x="-9.56" y="94.25">Z</tspan><tspan x="-0.36" y="94.25">e</tspan><tspan class="cls-14" x="8.42" y="94.25">r</tspan><tspan x="14.36" y="94.25">tifizierung</tspan><tspan class="cls-15" x="85.75" y="94.25">s</tspan><tspan class="cls-16" x="93.45" y="94.25">s</tspan><tspan class="cls-17" x="101.13" y="94.25">t</tspan><tspan x="106.68" y="94.25">e</tspan><tspan class="cls-18" x="115.46" y="94.25">l</tspan><tspan class="cls-19" x="119.73" y="94.25">le</tspan></text><rect class="cls-20" x="0.65" width="724.84" height="97.39"/></g><text class="cls-21" transform="translate(332.42 145.43)">Inf<tspan class="cls-22" x="29.17" y="0">r</tspan><tspan class="cls-23" x="37.36" y="0">a</tspan><tspan class="cls-24" x="49.31" y="0">s</tspan><tspan x="59.72" y="0">tru</tspan><tspan class="cls-25" x="88.77" y="0">k</tspan><tspan x="100.67" y="0">turmana</tspan><tspan class="cls-26" x="184.9" y="0">g</tspan><tspan x="196.37" y="0">ement</tspan><tspan x="5.85" y="29.83" xml:space="preserve">   VM</tspan><tspan class="cls-22" x="51.56" y="29.83">w</tspan><tspan x="68.93" y="29.83">a</tspan><tspan class="cls-27" x="80.88" y="29.83">r</tspan><tspan x="89.26" y="29.83">e vCen</tspan><tspan class="cls-28" x="155.3" y="29.83">t</tspan><tspan x="163.26" y="29.83">er Se</tspan><tspan class="cls-29" x="213.41" y="29.83">r</tspan><tspan class="cls-24" x="222.04" y="29.83">v</tspan><tspan class="cls-23" x="233.17" y="29.83">er</tspan></text><text class="cls-21" transform="translate(344.08 241.72)">Vi<tspan class="cls-30" x="19.66" y="0">r</tspan><tspan x="28.22" y="0">tue</tspan><tspan class="cls-24" x="60.58" y="0">l</tspan><tspan x="66.78" y="0">le Inf</tspan><tspan class="cls-22" x="119.07" y="0">r</tspan><tspan x="127.26" y="0">a</tspan><tspan class="cls-24" x="139.21" y="0">s</tspan><tspan x="149.62" y="0">tru</tspan><tspan class="cls-25" x="178.67" y="0">k</tspan><tspan class="cls-31" x="190.57" y="0">tur</tspan></text><text class="cls-32" transform="translate(407.3 282.47)">VM<tspan class="cls-33" x="25.56" y="0">w</tspan><tspan x="39.22" y="0">a</tspan><tspan class="cls-34" x="48.83" y="0">r</tspan><tspan x="55.35" y="0">e vSAN</tspan></text><text class="cls-32" transform="translate(589.49 282.47)">VM<tspan class="cls-33" x="25.56" y="0">w</tspan><tspan x="39.22" y="0">a</tspan><tspan class="cls-34" x="48.83" y="0">r</tspan><tspan x="55.35" y="0" xml:space="preserve">e NSX  </tspan></text><text class="cls-32" transform="translate(212.71 282.47)">VM<tspan class="cls-33" x="25.56" y="0">w</tspan><tspan x="39.22" y="0">a</tspan><tspan class="cls-34" x="48.83" y="0">r</tspan><tspan x="55.35" y="0">e vSphe</tspan><tspan class="cls-34" x="119.34" y="0">r</tspan><tspan x="125.85" y="0" xml:space="preserve">e  </tspan></text><text class="cls-21" transform="translate(245.73 343.33)">P<tspan class="cls-24" x="13.78" y="0">h</tspan><tspan class="cls-35" x="26.12" y="0">y</tspan><tspan x="37.15" y="0">sische Inf</tspan><tspan class="cls-36" x="133.62" y="0">r</tspan><tspan x="141.81" y="0">a</tspan><tspan class="cls-24" x="153.76" y="0">s</tspan><tspan x="164.18" y="0">tru</tspan><tspan class="cls-25" x="193.22" y="0">k</tspan><tspan x="205.13" y="0">tur</tspan></text><text class="cls-21" transform="translate(231.06 37.45)">Cloud Net<tspan class="cls-37" x="97.17" y="0">w</tspan><tspan x="114.62" y="0">orking Se</tspan><tspan class="cls-29" x="207.04" y="0">r</tspan><tspan x="215.67" y="0">vi</tspan><tspan class="cls-38" x="232.97" y="0">c</tspan><tspan x="243.72" y="0">es</tspan></text><text class="cls-32" transform="translate(110.98 387.37)">Be<tspan class="cls-34" x="21.64" y="0">r</tspan><tspan x="28.15" y="0">echnung</tspan></text><text class="cls-32" transform="translate(331.62 387.37)">Speicher</text><text class="cls-32" transform="translate(249.22 76.91)">NSX <tspan class="cls-39" x="38.47" y="0">E</tspan><tspan x="48.78" y="0">d</tspan><tspan class="cls-40" x="59.22" y="0">g</tspan><tspan x="68.62" y="0">e Se</tspan><tspan class="cls-41" x="103.08" y="0">r</tspan><tspan class="cls-7" x="109.87" y="0">vi</tspan><tspan class="cls-8" x="123.23" y="0">c</tspan><tspan x="132.17" y="0">es Ga</tspan><tspan class="cls-42" x="177.19" y="0">t</tspan><tspan class="cls-43" x="183.44" y="0">e</tspan><tspan class="cls-33" x="193.23" y="0">w</tspan><tspan class="cls-43" x="206.89" y="0">a</tspan><tspan x="216.41" y="0">y</tspan></text><text class="cls-32" transform="translate(543.61 387.37)">Netz</text></svg>
