<?xml version="1.0" encoding="UTF-8"?>
<svg width="534px" height="464px" version="1.1" xmlns="http://www.w3.org/2000/svg" xmlns:cc="http://creativecommons.org/ns#" xmlns:dc="http://purl.org/dc/elements/1.1/" xmlns:rdf="http://www.w3.org/1999/02/22-rdf-syntax-ns#">
 <metadata>
  <rdf:RDF>
   <cc:Work rdf:about="">
    <dc:format>image/svg+xml</dc:format>
    <dc:type rdf:resource="http://purl.org/dc/dcmitype/StillImage"/>
    <dc:title/>
   </cc:Work>
  </rdf:RDF>
 </metadata>
 <g transform="translate(.5 .5)">
  <g fill="#fff" pointer-events="none">
   <rect x="2" y="2" width="210" height="270" rx="31.5" ry="31.5" stroke="#3ff" stroke-width="4"/>
   <rect x="12" y="22" width="220" height="290" rx="33" ry="33" stroke="#3ff" stroke-width="4"/>
   <g stroke-dasharray="6 6" stroke-width="2">
    <rect x="22" y="132" width="200" height="70" rx="10.5" ry="10.5" stroke="#000"/>
    <rect x="22" y="51" width="200" height="76" rx="11.4" ry="11.4" stroke="#00f"/>
    <rect x="22" y="208" width="200" height="80" rx="12" ry="12" stroke="#4d9900"/>
   </g>
   <rect x="2" y="382" width="220" height="80" rx="12" ry="12" stroke="#3ff" stroke-width="4"/>
  </g>
  <g font-family="Helvetica" font-size="12px" font-weight="bold" text-anchor="middle">
   <text x="111" y="401.5">共通サービス</text>
  </g>
  <rect x="22" y="417" width="100" height="30" fill="#fff" pointer-events="none" stroke="#000" stroke-width="2"/>
  <g font-family="Helvetica" font-size="12px" text-anchor="middle">
   <text x="71" y="435">アクティブ・ディレクトリー</text>
  </g>
  <rect x="132" y="417" width="70" height="30" fill="#fff" pointer-events="none" stroke="#000" stroke-width="2"/>
  <g font-family="Helvetica" font-size="12px" text-anchor="middle">
   <text x="166" y="435">DNS</text>
  </g>
  <path d="m122.89 376.76-0.78-56.52" fill="none" pointer-events="none" stroke="#000" stroke-miterlimit="10" stroke-width="2"/>
  <g>
   <path d="m122.97 382.76-4.11-7.94 4.03 1.94 3.97-2.05z" pointer-events="none" stroke="#000" stroke-miterlimit="10" stroke-width="2"/>
   <path d="m122.03 314.24 4.11 7.94-4.03-1.94-3.97 2.05z" pointer-events="none" stroke="#000" stroke-miterlimit="10" stroke-width="2"/>
   <g font-family="Helvetica" font-size="12px" text-anchor="middle">
    <text x="56.5" y="360.5">認証</text>
   </g>
   <g font-family="Helvetica" font-size="12px" text-anchor="middle">
    <text x="211.5" y="360.5">ドメイン・ネームの解決</text>
   </g>
  </g>
  <rect x="342" y="203" width="190" height="100" rx="15" ry="15" fill="#fff" pointer-events="none" stroke="#ffb570" stroke-width="4"/>
  <g font-family="Helvetica" font-size="12px" font-weight="bold" text-anchor="middle">
   <text x="436" y="222.5">IBM Cloud サービス</text>
  </g>
  <rect x="362" y="258" width="70" height="30" fill="#fff" pointer-events="none" stroke="#000" stroke-width="2"/>
  <g font-family="Helvetica" font-size="12px" text-anchor="middle">
   <text x="396" y="276">NTP</text>
  </g>
  <rect x="442" y="258" width="70" height="30" fill="#fff" pointer-events="none" stroke="#000" stroke-width="2"/>
  <g font-family="Helvetica" font-size="12px" text-anchor="middle">
   <text x="476" y="276">DNS</text>
  </g>
  <path d="m230.24 422h196.76q10 0 10-10v-100.76" fill="none" pointer-events="none" stroke="#000" stroke-miterlimit="10" stroke-width="2"/>
  <g>
   <path d="m224.24 422 8-4-2 4 2 4z" pointer-events="none" stroke="#000" stroke-miterlimit="10" stroke-width="2"/>
   <path d="m437 305.24 4 8-4-2-4 2z" pointer-events="none" stroke="#000" stroke-miterlimit="10" stroke-width="2"/>
   <g font-family="Helvetica" font-size="12px" text-anchor="middle">
    <text x="331.5" y="415.5">ドメイン・ネームの解決</text>
   </g>
  </g>
  <path d="m240.24 150h186.76q10 0 10 10v34.76" fill="none" pointer-events="none" stroke="#000" stroke-miterlimit="10" stroke-width="2"/>
  <g>
   <path d="m234.24 150 8-4-2 4 2 4z" pointer-events="none" stroke="#000" stroke-miterlimit="10" stroke-width="2"/>
   <path d="m437 200.76-4-8 4 2 4-2z" pointer-events="none" stroke="#000" stroke-miterlimit="10" stroke-width="2"/>
   <g font-family="Helvetica" font-size="12px" text-anchor="middle">
    <text x="336.5" y="160.5">ネットワーク時間の同期</text>
    <g font-weight="bold">
     <text x="121.5" y="227.5">仮想管理</text>
    </g>
    <g text-decoration="underline">
     <text x="121.5" y="263">VMware vSphere</text>
    </g>
    <g font-weight="bold">
     <text x="111.5" y="63.5">クラウド管理</text>
    </g>
    <g text-decoration="underline">
     <text x="111.5" y="92.5">Cloud Automation Manager</text>
    </g>
    <g text-decoration="underline">
     <text x="106.5" y="115">IBM Cloud Private</text>
    </g>
    <g font-weight="bold">
     <text x="121.5" y="143.67">インフラストラクチャー管理</text>
    </g>
    <g text-decoration="underline">
     <text x="116.5" y="179.17">VMware vCenter Server</text>
    </g>
   </g>
  </g>
 </g>
</svg>
