<svg id="Layer_1" data-name="Layer 1" xmlns="http://www.w3.org/2000/svg" xmlns:xlink="http://www.w3.org/1999/xlink" viewBox="0 0 730.63 537"><defs><style>.cls-1,.cls-2{fill:none;}.cls-1{clip-rule:evenodd;}.cls-2,.cls-4,.cls-5,.cls-6,.cls-7,.cls-9{fill-rule:evenodd;}.cls-3{fill:#f59c57;}.cls-4{fill:#f1f2f1;}.cls-5{fill:#1da78d;}.cls-6{fill:#4c84c5;}.cls-7{fill:#8d44ff;}.cls-11,.cls-8,.cls-9{fill:#606060;}.cls-8{stroke:#606060;}.cls-13,.cls-8{stroke-miterlimit:10;}.cls-11,.cls-8{stroke-width:2px;}.cls-10{clip-path:url(#clip-path);}.cls-11{stroke:#4d4d4d;stroke-miterlimit:8;}.cls-12,.cls-13{fill:#fff;}.cls-13{stroke:#fff;}</style><clipPath id="clip-path" transform="translate(-65.31 -20)"><polygon class="cls-1" points="65.31 589 795.94 589 795.94 20 65.31 20 65.31 589 65.31 589"/></clipPath></defs><title>commonservice_ntp</title><rect class="cls-3" x="32.02" y="373.94" width="186.94" height="163.06"/><polygon class="cls-4" points="0 0 730.63 0 730.63 293.77 0 293.77 0 0 0 0"/><polygon class="cls-5" points="34.12 165.43 680.19 165.43 680.19 261.13 34.12 261.13 34.12 165.43 34.12 165.43"/><polygon class="cls-6" points="34.12 45.25 680.19 45.25 680.19 141.69 34.12 141.69 34.12 45.25 34.12 45.25"/><polygon class="cls-7" points="487.33 373.94 682.69 373.94 682.69 529 487.33 529 487.33 373.94 487.33 373.94"/><line class="cls-8" x1="126.84" y1="272.26" x2="126.84" y2="360.97"/><polygon class="cls-9" points="133.52 358.74 126.84 372.1 120.17 358.74 133.52 358.74 133.52 358.74"/><polygon class="cls-9" points="120.17 274.48 126.84 261.13 133.52 274.48 120.17 274.48 120.17 274.48"/><g class="cls-10"><g class="cls-10"><line class="cls-11" x1="474.35" y1="469.59" x2="231.03" y2="469.59"/><polygon class="cls-9" points="233.3 462.91 219.69 469.59 233.3 476.26 233.3 462.91 233.3 462.91"/><polygon class="cls-9" points="472.08 476.26 485.69 469.59 472.08 462.91 472.08 476.26 472.08 476.26"/></g></g><path class="cls-12" d="M363.36,88.71a6.27,6.27,0,0,1,0,7.73,4.93,4.93,0,0,1-4,1.76,5.06,5.06,0,0,1-4.05-1.76,6.27,6.27,0,0,1,0-7.73,5.06,5.06,0,0,1,4.05-1.76A4.93,4.93,0,0,1,363.36,88.71Zm-7,.82a5.31,5.31,0,0,0,0,6.09,3.61,3.61,0,0,0,3,1.38,3.57,3.57,0,0,0,3-1.38,5.21,5.21,0,0,0,0-6.09,3.57,3.57,0,0,0-3-1.38A3.65,3.65,0,0,0,356.35,89.53Zm0.54,13.59a1.23,1.23,0,0,0,.23.87,1.42,1.42,0,0,0,.91.21h12.63a0.52,0.52,0,0,1,.59.59,0.53,0.53,0,0,1-.59.61H357.8a2.49,2.49,0,0,1-1.66-.52,1.91,1.91,0,0,1-.66-1.57v-3.12a0.79,0.79,0,0,1,.21-0.59,0.67,0.67,0,0,1,.49-0.19,0.64,0.64,0,0,1,.47.19,0.75,0.75,0,0,1,.23.59v2.93Zm13.43-2.65a0.64,0.64,0,0,1-.47.19,0.67,0.67,0,0,1-.49-0.19,0.76,0.76,0,0,1-.21-0.56V87a0.63,0.63,0,0,1,.21-0.49,0.72,0.72,0,0,1,.49-0.16,0.69,0.69,0,0,1,.47.16,0.54,0.54,0,0,1,.23.47V99.91A0.72,0.72,0,0,1,370.32,100.47Z" transform="translate(-65.31 -20)"/><path class="cls-12" d="M396.59,103.31a0.6,0.6,0,0,1,.07.84,0.47,0.47,0,0,1-.4.19H377.72a0.47,0.47,0,0,1-.4-0.19,0.58,0.58,0,0,1-.12-0.42,0.74,0.74,0,0,1,.19-0.42,0.76,0.76,0,0,1,.52-0.16h18.16A0.76,0.76,0,0,1,396.59,103.31Zm-1.41-6.42a0.51,0.51,0,0,1-.56.61H379.36a0.5,0.5,0,0,1-.54-0.61,0.53,0.53,0,0,1,.61-0.59h2.91l-0.73-6.4a0.6,0.6,0,0,1,.16-0.54,0.69,0.69,0,0,1,.45-0.19,0.75,0.75,0,0,1,.49.12,0.69,0.69,0,0,1,.28.49l0.73,6.52h6.56L391,89.81a0.65,0.65,0,0,1,.23-0.49,0.75,0.75,0,0,1,.49-0.12,0.65,0.65,0,0,1,.63.75l-0.73,6.35h2.91A0.53,0.53,0,0,1,395.18,96.88ZM395,87.16a0.57,0.57,0,0,1,.16.42,0.47,0.47,0,0,1-.14.4,0.53,0.53,0,0,1-.45.21H379.46a0.55,0.55,0,0,1-.63-0.61,0.54,0.54,0,0,1,.63-0.61h15A0.75,0.75,0,0,1,395,87.16Z" transform="translate(-65.31 -20)"/><path class="cls-12" d="M411.24,87.49a1.59,1.59,0,0,1,.61,1.34v4.55a1.7,1.7,0,0,1-.54,1.36,2.37,2.37,0,0,1-1.64.49h-5a1.07,1.07,0,0,0-.82.26,1.38,1.38,0,0,0-.21.87v5.25a1.21,1.21,0,0,0,.28.91,1.3,1.3,0,0,0,1,.3,28.65,28.65,0,0,0,5.23-.47,18,18,0,0,0,4.15-1.22,0.52,0.52,0,0,1,.84.26,0.62,0.62,0,0,1-.33.89,19.15,19.15,0,0,1-4.85,1.31,33.35,33.35,0,0,1-5.39.42,2.24,2.24,0,0,1-1.76-.66,2.42,2.42,0,0,1-.54-1.66V96.16A2,2,0,0,1,404.44,94h5a1.24,1.24,0,0,0,.8-0.19,0.79,0.79,0,0,0,.23-0.68v-4a0.81,0.81,0,0,0-.33-0.7,2,2,0,0,0-1-.21h-6.3a0.56,0.56,0,0,1-.7-0.59A0.6,0.6,0,0,1,402.9,87h6.7A2.72,2.72,0,0,1,411.24,87.49Zm9.21,8.09a0.5,0.5,0,0,1,.56.56,0.51,0.51,0,0,1-.56.59h-2.6v8.55a0.6,0.6,0,0,1-.23.49,0.68,0.68,0,0,1-.94,0,0.63,0.63,0,0,1-.21-0.49V87a0.63,0.63,0,0,1,.21-0.49,0.85,0.85,0,0,1,.94,0,0.6,0.6,0,0,1,.23.49v8.58h2.6Z" transform="translate(-65.31 -20)"/><path class="cls-12" d="M436.19,91.85a0.69,0.69,0,0,1,.47-0.16,0.65,0.65,0,0,1,.45.16,0.68,0.68,0,0,1,.21.54V97q1.5,0,3.61-.33t3.54-.59a0.93,0.93,0,0,1,.59,0,0.58,0.58,0,0,1,.28.33,0.53,0.53,0,0,1-.09.42,0.78,0.78,0,0,1-.42.3,41.2,41.2,0,0,1-5.91.87q-3.56.3-7.45,0.3a0.79,0.79,0,0,1-.59-0.21,0.51,0.51,0,0,1-.19-0.4,0.54,0.54,0,0,1,.19-0.42,0.85,0.85,0,0,1,.59-0.19l2,0,2.53,0V92.38A0.73,0.73,0,0,1,436.19,91.85Zm6.54-4.22a1.86,1.86,0,0,1,.63,1.5v0.75a15.38,15.38,0,0,1-.21,2.46,6.05,6.05,0,0,1-1.1,2.48,0.77,0.77,0,0,1-1,.23,0.53,0.53,0,0,1-.14-0.89,6,6,0,0,0,.91-2.18,9.62,9.62,0,0,0,.21-2.18V89.22a0.94,0.94,0,0,0-.26-0.73,1,1,0,0,0-.73-0.23h-8.67a0.6,0.6,0,1,1,0-1.2h8.51A2.76,2.76,0,0,1,442.73,87.63Zm-8.27,15.49a1.23,1.23,0,0,0,.23.87,1.37,1.37,0,0,0,.89.21H448a0.53,0.53,0,0,1,.61.59,0.54,0.54,0,0,1-.61.61h-12.8a2,2,0,0,1-1.52-.59,2.08,2.08,0,0,1-.56-1.5v-2.81a0.65,0.65,0,0,1,.21-0.52,0.68,0.68,0,0,1,.94,0,0.62,0.62,0,0,1,.23.52v2.63Zm15.63-9.89a0.53,0.53,0,0,1,.61.59,0.51,0.51,0,0,1-.57.61h-2.62v5.81a0.69,0.69,0,0,1-.23.54,0.68,0.68,0,0,1-.94,0,0.73,0.73,0,0,1-.21-0.54V87a0.63,0.63,0,0,1,.21-0.49,0.75,0.75,0,0,1,.94,0,0.54,0.54,0,0,1,.23.47v6.24h2.57Z" transform="translate(-65.31 -20)"/><path class="cls-12" d="M464.9,87.49a1.59,1.59,0,0,1,.61,1.34v4.55a1.7,1.7,0,0,1-.54,1.36,2.37,2.37,0,0,1-1.64.49h-5a1.07,1.07,0,0,0-.82.26,1.38,1.38,0,0,0-.21.87v5.25a1.21,1.21,0,0,0,.28.91,1.3,1.3,0,0,0,1,.3,28.65,28.65,0,0,0,5.23-.47,18,18,0,0,0,4.15-1.22,0.52,0.52,0,0,1,.84.26,0.62,0.62,0,0,1-.33.89,19.15,19.15,0,0,1-4.85,1.31,33.35,33.35,0,0,1-5.39.42,2.24,2.24,0,0,1-1.76-.66,2.42,2.42,0,0,1-.54-1.66V96.16A2,2,0,0,1,458.11,94h5a1.24,1.24,0,0,0,.8-0.19,0.79,0.79,0,0,0,.23-0.68v-4a0.81,0.81,0,0,0-.33-0.7,2,2,0,0,0-1-.21h-6.3a0.56,0.56,0,0,1-.7-0.59,0.6,0.6,0,0,1,.75-0.59h6.7A2.72,2.72,0,0,1,464.9,87.49ZM472,105.77a0.64,0.64,0,0,1-.47.19,0.67,0.67,0,0,1-.49-0.19,0.73,0.73,0,0,1-.21-0.54V87A0.63,0.63,0,0,1,471,86.5a0.8,0.8,0,0,1,.49-0.14,0.76,0.76,0,0,1,.47.14,0.6,0.6,0,0,1,.23.49v18.23A0.69,0.69,0,0,1,472,105.77Z" transform="translate(-65.31 -20)"/><path class="cls-12" d="M364.28,206.67a2.06,2.06,0,0,1,.66,1.62v2.77q0,5.39-2.84,8.53a9.77,9.77,0,0,1-6.94,3.21,0.57,0.57,0,0,1-.7-0.56,0.55,0.55,0,0,1,.61-0.63,9,9,0,0,0,6.19-2.93Q363.6,216,363.6,211v-2.74a1,1,0,0,0-.28-0.75,1.27,1.27,0,0,0-.84-0.26h-7a0.56,0.56,0,0,1-.66-0.61,0.53,0.53,0,0,1,.63-0.59h6.94A2.67,2.67,0,0,1,364.28,206.67Zm9.16,7.9a0.5,0.5,0,0,1,.56.56,0.51,0.51,0,0,1-.56.59h-2.6v8.55a0.6,0.6,0,0,1-.23.49,0.68,0.68,0,0,1-.94,0,0.63,0.63,0,0,1-.21-0.49V206a0.63,0.63,0,0,1,.21-0.49,0.85,0.85,0,0,1,.94,0,0.6,0.6,0,0,1,.23.49v8.58h2.6Z" transform="translate(-65.31 -20)"/><path class="cls-12" d="M384,205.88a0.75,0.75,0,0,1,.94,0,0.65,0.65,0,0,1,.23.54A7,7,0,0,1,385,208a12.67,12.67,0,0,1-.37,1.38,32.42,32.42,0,0,1,3.38,2.72,25.74,25.74,0,0,1,2.53,2.88,0.93,0.93,0,0,1,.19.61,0.67,0.67,0,0,1-.26.42,0.63,0.63,0,0,1-.49.12,0.78,0.78,0,0,1-.52-0.33A24.6,24.6,0,0,0,387,213a25.78,25.78,0,0,0-2.86-2.44,16.07,16.07,0,0,1-1.9,3.12,17.22,17.22,0,0,1-2.91,2.79,0.77,0.77,0,0,1-.56.14,0.5,0.5,0,0,1-.4-0.26,0.61,0.61,0,0,1-.12-0.49,0.75,0.75,0,0,1,.38-0.49,11.88,11.88,0,0,0,3.91-4.59,9.88,9.88,0,0,0,1.2-4.36A0.68,0.68,0,0,1,384,205.88Zm9.42,13a2.87,2.87,0,0,1,1.83,2.55,2.8,2.8,0,0,1-1.83,2.48,16.35,16.35,0,0,1-11.55,0,2.8,2.8,0,0,1-1.83-2.48,2.87,2.87,0,0,1,1.83-2.55A16.35,16.35,0,0,1,393.42,218.91Zm-10.52.82a2,2,0,0,0-1.48,1.73,1.91,1.91,0,0,0,1.48,1.66,13,13,0,0,0,4.76.68,12.67,12.67,0,0,0,4.71-.68,1.92,1.92,0,0,0,1.5-1.66,2,2,0,0,0-1.5-1.73,13.09,13.09,0,0,0-4.71-.66A13.26,13.26,0,0,0,382.89,219.73ZM397.35,211a0.63,0.63,0,0,1,.47.16,0.74,0.74,0,0,1,.19.42,0.69,0.69,0,0,1-.14.42,0.54,0.54,0,0,1-.42.19h-2.6v4.57a0.62,0.62,0,0,1-.23.52,0.75,0.75,0,0,1-.94,0,0.73,0.73,0,0,1-.21-0.54V206a0.7,0.7,0,0,1,1.38,0v5h2.51Z" transform="translate(-65.31 -20)"/><path class="cls-12" d="M418,207.71a6.27,6.27,0,0,1,0,7.73,4.93,4.93,0,0,1-4,1.76,5.06,5.06,0,0,1-4.05-1.76,6.27,6.27,0,0,1,0-7.73,5.06,5.06,0,0,1,4.05-1.76A4.93,4.93,0,0,1,418,207.71Zm-7,.82a5.31,5.31,0,0,0,0,6.09,3.61,3.61,0,0,0,3,1.38,3.57,3.57,0,0,0,3-1.38,5.21,5.21,0,0,0,0-6.09,3.57,3.57,0,0,0-3-1.38A3.65,3.65,0,0,0,411,208.53Zm0.54,13.59a1.23,1.23,0,0,0,.23.87,1.42,1.42,0,0,0,.91.21h12.63a0.52,0.52,0,0,1,.59.59,0.53,0.53,0,0,1-.59.61H412.46a2.49,2.49,0,0,1-1.66-.52,1.91,1.91,0,0,1-.66-1.57v-3.12a0.79,0.79,0,0,1,.21-0.59,0.67,0.67,0,0,1,.49-0.19,0.64,0.64,0,0,1,.47.19,0.75,0.75,0,0,1,.23.59v2.93ZM425,219.47a0.64,0.64,0,0,1-.47.19,0.67,0.67,0,0,1-.49-0.19,0.76,0.76,0,0,1-.21-0.56V206a0.63,0.63,0,0,1,.21-0.49,0.72,0.72,0,0,1,.49-0.16,0.69,0.69,0,0,1,.47.16,0.54,0.54,0,0,1,.23.47v12.92A0.72,0.72,0,0,1,425,219.47Z" transform="translate(-65.31 -20)"/><path class="cls-12" d="M451.25,222.31a0.6,0.6,0,0,1,.07.84,0.47,0.47,0,0,1-.4.19H432.39a0.47,0.47,0,0,1-.4-0.19,0.58,0.58,0,0,1-.12-0.42,0.74,0.74,0,0,1,.19-0.42,0.76,0.76,0,0,1,.52-0.16h18.16A0.76,0.76,0,0,1,451.25,222.31Zm-1.41-6.42a0.51,0.51,0,0,1-.56.61H434a0.5,0.5,0,0,1-.54-0.61,0.53,0.53,0,0,1,.61-0.59H437l-0.73-6.4a0.6,0.6,0,0,1,.16-0.54,0.69,0.69,0,0,1,.45-0.19,0.75,0.75,0,0,1,.49.12,0.69,0.69,0,0,1,.28.49l0.73,6.52h6.56l0.75-6.49a0.65,0.65,0,0,1,.23-0.49,0.75,0.75,0,0,1,.49-0.12,0.65,0.65,0,0,1,.63.75l-0.73,6.35h2.91A0.53,0.53,0,0,1,449.85,215.88Zm-0.19-9.73a0.57,0.57,0,0,1,.16.42,0.47,0.47,0,0,1-.14.4,0.53,0.53,0,0,1-.45.21H434.12a0.55,0.55,0,0,1-.63-0.61,0.54,0.54,0,0,1,.63-0.61h15A0.75,0.75,0,0,1,449.66,206.16Z" transform="translate(-65.31 -20)"/><path class="cls-12" d="M465.9,206.49a1.59,1.59,0,0,1,.61,1.34v4.55a1.7,1.7,0,0,1-.54,1.36,2.37,2.37,0,0,1-1.64.49h-5a1.07,1.07,0,0,0-.82.26,1.38,1.38,0,0,0-.21.87v5.25a1.21,1.21,0,0,0,.28.91,1.3,1.3,0,0,0,1,.3,28.65,28.65,0,0,0,5.23-.47,18,18,0,0,0,4.15-1.22,0.52,0.52,0,0,1,.84.26,0.62,0.62,0,0,1-.33.89,19.15,19.15,0,0,1-4.85,1.31,33.35,33.35,0,0,1-5.39.42,2.24,2.24,0,0,1-1.76-.66,2.42,2.42,0,0,1-.54-1.66v-5.53A2,2,0,0,1,459.1,213h5a1.24,1.24,0,0,0,.8-0.19,0.79,0.79,0,0,0,.23-0.68v-4a0.81,0.81,0,0,0-.33-0.7,2,2,0,0,0-1-.21h-6.3a0.56,0.56,0,0,1-.7-0.59,0.6,0.6,0,0,1,.75-0.59h6.7A2.72,2.72,0,0,1,465.9,206.49Zm9.21,8.09a0.5,0.5,0,0,1,.56.56,0.51,0.51,0,0,1-.56.59h-2.6v8.55a0.6,0.6,0,0,1-.23.49,0.68,0.68,0,0,1-.94,0,0.63,0.63,0,0,1-.21-0.49V206a0.63,0.63,0,0,1,.21-0.49,0.85,0.85,0,0,1,.94,0,0.6,0.6,0,0,1,.23.49v8.58h2.6Z" transform="translate(-65.31 -20)"/><path class="cls-12" d="M322.29,143l-4.87-14.66h1.89l2.42,7.39,1.62,5.5h0.1l1.66-5.5,2.44-7.39h1.83L324.43,143h-2.14Z" transform="translate(-65.31 -20)"/><path class="cls-12" d="M343.17,130.65h-0.1l-1.24,2.46-3.51,6.38-3.51-6.38-1.24-2.46h-0.1V143h-1.72V128.34h2.35l4.2,7.9h0.1l4.22-7.9h2.27V143h-1.72V130.65Z" transform="translate(-65.31 -20)"/><path class="cls-12" d="M347.49,132.16h1.64l1.15,4.68,1.16,4.75h0l1.32-4.75,1.37-4.68h1.49l1.41,4.68,1.34,4.75h0l1.11-4.75,1.18-4.68h1.58L359.44,143h-2.08l-1.51-5.21-0.94-3.3h0l-0.92,3.3L352.43,143h-2Z" transform="translate(-65.31 -20)"/><path class="cls-12" d="M372.44,143a1.65,1.65,0,0,1-1.35-.5,2.5,2.5,0,0,1-.51-1.26h-0.1a2.8,2.8,0,0,1-1.18,1.51,3.65,3.65,0,0,1-2,.5,3.8,3.8,0,0,1-2.68-.88,3.1,3.1,0,0,1-1-2.39,2.73,2.73,0,0,1,1.12-2.35,6,6,0,0,1,3.5-.82h2.14v-1.07a2.34,2.34,0,0,0-.63-1.76,2.69,2.69,0,0,0-1.93-.61,2.91,2.91,0,0,0-1.65.44,3.64,3.64,0,0,0-1.1,1.18l-1-.94a3.82,3.82,0,0,1,1.41-1.5,4.43,4.43,0,0,1,2.44-.62,4.48,4.48,0,0,1,3.07,1,3.39,3.39,0,0,1,1.09,2.68v6h1.24V143h-0.94Zm-4.83-1.18a4.27,4.27,0,0,0,1.15-.15,2.82,2.82,0,0,0,.9-0.42,2.08,2.08,0,0,0,.59-0.63,1.51,1.51,0,0,0,.21-0.78v-1.79h-2.23a4.06,4.06,0,0,0-2.11.42,1.36,1.36,0,0,0-.66,1.22v0.44a1.47,1.47,0,0,0,.58,1.24A2.52,2.52,0,0,0,367.61,141.82Z" transform="translate(-65.31 -20)"/><path class="cls-12" d="M375.78,143V132.16h1.68v2h0.1a3.28,3.28,0,0,1,1.05-1.39,3.23,3.23,0,0,1,2.08-.61h0.65v1.68h-1a3.79,3.79,0,0,0-2.13.51,1.52,1.52,0,0,0-.77,1.29V143h-1.68Z" transform="translate(-65.31 -20)"/><path class="cls-12" d="M387.45,143.25a4.87,4.87,0,0,1-2-.4,4.32,4.32,0,0,1-1.53-1.14,5.24,5.24,0,0,1-1-1.79,8,8,0,0,1,0-4.67,5.23,5.23,0,0,1,1-1.8,4.33,4.33,0,0,1,1.53-1.14,4.87,4.87,0,0,1,2-.4,4.61,4.61,0,0,1,2,.4,4.33,4.33,0,0,1,1.47,1.1,4.89,4.89,0,0,1,.93,1.66,6.55,6.55,0,0,1,.33,2.11V138h-7.79v0.5a3.71,3.71,0,0,0,.22,1.29,3.07,3.07,0,0,0,.63,1,2.88,2.88,0,0,0,1,.69,3.46,3.46,0,0,0,1.35.25,3.29,3.29,0,0,0,1.8-.48,3.16,3.16,0,0,0,1.19-1.39l1.2,0.87a4.18,4.18,0,0,1-1.64,1.81A4.94,4.94,0,0,1,387.45,143.25Zm0-9.93a3.2,3.2,0,0,0-1.26.24,2.83,2.83,0,0,0-1,.68,3.18,3.18,0,0,0-.64,1,3.57,3.57,0,0,0-.23,1.3v0.15h6v-0.23a3.3,3.3,0,0,0-.79-2.31A2.69,2.69,0,0,0,387.45,133.32Z" transform="translate(-65.31 -20)"/><path class="cls-12" d="M402.26,143l-3.8-10.84h1.68l1.89,5.38,1.18,3.7h0.1l1.18-3.7,1.93-5.38H408L404.21,143h-2Z" transform="translate(-65.31 -20)"/><path class="cls-12" d="M415.53,143.25a5.3,5.3,0,0,1-4.35-1.9,8.67,8.67,0,0,1-1.55-5.6,9,9,0,0,1,1.55-5.68,5.21,5.21,0,0,1,4.35-2,5.13,5.13,0,0,1,5,3.19l-1.43.86a4.07,4.07,0,0,0-1.34-1.82,3.66,3.66,0,0,0-2.27-.68,3.85,3.85,0,0,0-1.69.36,3.48,3.48,0,0,0-1.26,1,4.78,4.78,0,0,0-.79,1.58,7.18,7.18,0,0,0-.27,2.05v2.19a5.48,5.48,0,0,0,1.05,3.56,3.61,3.61,0,0,0,3,1.29,3.75,3.75,0,0,0,2.35-.72,4.18,4.18,0,0,0,1.39-1.92l1.41,0.88a5.64,5.64,0,0,1-2,2.44A5.49,5.49,0,0,1,415.53,143.25Z" transform="translate(-65.31 -20)"/><path class="cls-12" d="M427.31,143.25a4.87,4.87,0,0,1-2-.4,4.32,4.32,0,0,1-1.53-1.14,5.24,5.24,0,0,1-1-1.79,8,8,0,0,1,0-4.67,5.23,5.23,0,0,1,1-1.8,4.33,4.33,0,0,1,1.53-1.14,4.87,4.87,0,0,1,2-.4,4.61,4.61,0,0,1,2,.4,4.34,4.34,0,0,1,1.47,1.1,4.88,4.88,0,0,1,.93,1.66,6.54,6.54,0,0,1,.33,2.11V138H424.2v0.5a3.71,3.71,0,0,0,.22,1.29,3.07,3.07,0,0,0,.63,1,2.88,2.88,0,0,0,1,.69,3.46,3.46,0,0,0,1.35.25,3.29,3.29,0,0,0,1.8-.48,3.16,3.16,0,0,0,1.19-1.39l1.2,0.87a4.18,4.18,0,0,1-1.64,1.81A4.94,4.94,0,0,1,427.31,143.25Zm0-9.93a3.2,3.2,0,0,0-1.26.24,2.83,2.83,0,0,0-1,.68,3.18,3.18,0,0,0-.64,1,3.57,3.57,0,0,0-.23,1.3v0.15h6v-0.23a3.3,3.3,0,0,0-.79-2.31A2.69,2.69,0,0,0,427.31,133.32Z" transform="translate(-65.31 -20)"/><path class="cls-12" d="M434.77,143V132.16h1.68v1.74h0.08a3.54,3.54,0,0,1,1.12-1.46,3.17,3.17,0,0,1,1.94-.54,3.4,3.4,0,0,1,2.66,1.08,4.4,4.4,0,0,1,1,3.06v7h-1.68v-6.67q0-2.93-2.46-2.93a3.78,3.78,0,0,0-1,.13,2.84,2.84,0,0,0-.85.38,1.88,1.88,0,0,0-.6.64,1.82,1.82,0,0,0-.22.92V143h-1.68Z" transform="translate(-65.31 -20)"/><path class="cls-12" d="M449.09,143a1.72,1.72,0,0,1-1.33-.49,1.83,1.83,0,0,1-.45-1.29v-7.56h-1.79v-1.49h1a1,1,0,0,0,.75-0.22,1.15,1.15,0,0,0,.2-0.77v-2H449v3h2.37v1.49H449v7.85h2.2V143h-2.1Z" transform="translate(-65.31 -20)"/><path class="cls-12" d="M458.05,143.25a4.86,4.86,0,0,1-2-.4,4.32,4.32,0,0,1-1.53-1.14,5.26,5.26,0,0,1-1-1.79,8.07,8.07,0,0,1,0-4.67,5.25,5.25,0,0,1,1-1.8,4.33,4.33,0,0,1,1.53-1.14,4.86,4.86,0,0,1,2-.4,4.61,4.61,0,0,1,2,.4,4.33,4.33,0,0,1,1.47,1.1,4.88,4.88,0,0,1,.93,1.66,6.54,6.54,0,0,1,.33,2.11V138h-7.79v0.5a3.72,3.72,0,0,0,.22,1.29,3.07,3.07,0,0,0,.63,1,2.87,2.87,0,0,0,1,.69,3.46,3.46,0,0,0,1.35.25,3.29,3.29,0,0,0,1.79-.48,3.17,3.17,0,0,0,1.19-1.39l1.2,0.87a4.19,4.19,0,0,1-1.64,1.81A4.94,4.94,0,0,1,458.05,143.25Zm0-9.93a3.2,3.2,0,0,0-1.26.24,2.85,2.85,0,0,0-1,.68,3.2,3.2,0,0,0-.64,1,3.57,3.57,0,0,0-.23,1.3v0.15h6v-0.23a3.29,3.29,0,0,0-.79-2.31A2.69,2.69,0,0,0,458.05,133.32Z" transform="translate(-65.31 -20)"/><path class="cls-12" d="M465.51,143V132.16h1.68v2h0.11a3.28,3.28,0,0,1,1.05-1.39,3.22,3.22,0,0,1,2.08-.61h0.65v1.68h-1a3.79,3.79,0,0,0-2.13.51,1.52,1.52,0,0,0-.77,1.29V143h-1.68Z" transform="translate(-65.31 -20)"/><path class="cls-12" d="M482.46,143.25a6.31,6.31,0,0,1-3-.68,6.46,6.46,0,0,1-2.14-1.88l1.3-1.09a5.71,5.71,0,0,0,1.72,1.56,4.45,4.45,0,0,0,2.23.54,3.45,3.45,0,0,0,2.4-.76,2.6,2.6,0,0,0,.83-2,2.06,2.06,0,0,0-.63-1.62,4.74,4.74,0,0,0-2.08-.9l-1.2-.27a7,7,0,0,1-3.08-1.4,3.33,3.33,0,0,1-1.06-2.64,4,4,0,0,1,.36-1.72,3.45,3.45,0,0,1,1-1.26,4.51,4.51,0,0,1,1.53-.77,7,7,0,0,1,2-.26,6.16,6.16,0,0,1,2.85.61,5.48,5.48,0,0,1,2,1.78l-1.32,1a4.57,4.57,0,0,0-1.47-1.32,4.33,4.33,0,0,0-2.14-.48,3.65,3.65,0,0,0-2.22.6,2.09,2.09,0,0,0-.81,1.8,1.89,1.89,0,0,0,.68,1.59,5.28,5.28,0,0,0,2.07.85l1.2,0.27a6.23,6.23,0,0,1,3.13,1.47,3.6,3.6,0,0,1,1,2.63,4.65,4.65,0,0,1-.35,1.83,3.75,3.75,0,0,1-1,1.39,4.64,4.64,0,0,1-1.58.88A6.6,6.6,0,0,1,482.46,143.25Z" transform="translate(-65.31 -20)"/><path class="cls-12" d="M494.45,143.25a4.86,4.86,0,0,1-2-.4,4.32,4.32,0,0,1-1.53-1.14,5.26,5.26,0,0,1-1-1.79,8.07,8.07,0,0,1,0-4.67,5.25,5.25,0,0,1,1-1.8,4.33,4.33,0,0,1,1.53-1.14,4.86,4.86,0,0,1,2-.4,4.61,4.61,0,0,1,2,.4,4.33,4.33,0,0,1,1.47,1.1,4.88,4.88,0,0,1,.93,1.66,6.54,6.54,0,0,1,.33,2.11V138h-7.79v0.5a3.72,3.72,0,0,0,.22,1.29,3.07,3.07,0,0,0,.63,1,2.87,2.87,0,0,0,1,.69,3.46,3.46,0,0,0,1.35.25,3.29,3.29,0,0,0,1.79-.48,3.17,3.17,0,0,0,1.19-1.39l1.2,0.87a4.19,4.19,0,0,1-1.64,1.81A4.94,4.94,0,0,1,494.45,143.25Zm0-9.93a3.2,3.2,0,0,0-1.26.24,2.85,2.85,0,0,0-1,.68,3.2,3.2,0,0,0-.64,1,3.57,3.57,0,0,0-.23,1.3v0.15h6v-0.23a3.29,3.29,0,0,0-.79-2.31A2.69,2.69,0,0,0,494.45,133.32Z" transform="translate(-65.31 -20)"/><path class="cls-12" d="M501.9,143V132.16h1.68v2h0.11a3.28,3.28,0,0,1,1.05-1.39,3.22,3.22,0,0,1,2.08-.61h0.65v1.68h-1a3.79,3.79,0,0,0-2.13.51,1.52,1.52,0,0,0-.77,1.29V143H501.9Z" transform="translate(-65.31 -20)"/><path class="cls-12" d="M512.21,143l-3.8-10.84h1.68l1.89,5.38,1.18,3.7h0.11l1.18-3.7,1.93-5.38H518L514.17,143h-2Z" transform="translate(-65.31 -20)"/><path class="cls-12" d="M524.06,143.25a4.86,4.86,0,0,1-2-.4,4.32,4.32,0,0,1-1.53-1.14,5.26,5.26,0,0,1-1-1.79,8.07,8.07,0,0,1,0-4.67,5.25,5.25,0,0,1,1-1.8,4.33,4.33,0,0,1,1.53-1.14,4.86,4.86,0,0,1,2-.4,4.61,4.61,0,0,1,2,.4,4.33,4.33,0,0,1,1.47,1.1,4.88,4.88,0,0,1,.93,1.66,6.54,6.54,0,0,1,.33,2.11V138h-7.79v0.5a3.72,3.72,0,0,0,.22,1.29,3.07,3.07,0,0,0,.63,1,2.87,2.87,0,0,0,1,.69,3.46,3.46,0,0,0,1.35.25,3.29,3.29,0,0,0,1.79-.48,3.17,3.17,0,0,0,1.19-1.39l1.2,0.87a4.19,4.19,0,0,1-1.64,1.81A4.94,4.94,0,0,1,524.06,143.25Zm0-9.93a3.2,3.2,0,0,0-1.26.24,2.85,2.85,0,0,0-1,.68,3.2,3.2,0,0,0-.64,1,3.57,3.57,0,0,0-.23,1.3v0.15h6v-0.23a3.29,3.29,0,0,0-.79-2.31A2.69,2.69,0,0,0,524.06,133.32Z" transform="translate(-65.31 -20)"/><path class="cls-12" d="M531.51,143V132.16h1.68v2h0.11a3.28,3.28,0,0,1,1.05-1.39,3.22,3.22,0,0,1,2.08-.61h0.65v1.68h-1a3.79,3.79,0,0,0-2.13.51,1.52,1.52,0,0,0-.77,1.29V143h-1.68Z" transform="translate(-65.31 -20)"/><path class="cls-12" d="M346.29,260l-4.87-14.66h1.89l2.42,7.39,1.62,5.5h0.1l1.66-5.5,2.44-7.39h1.83L348.43,260h-2.14Z" transform="translate(-65.31 -20)"/><path class="cls-12" d="M367.17,247.65h-0.1l-1.24,2.46-3.51,6.38-3.51-6.38-1.24-2.46h-0.1V260h-1.72V245.34h2.35l4.2,7.9h0.1l4.22-7.9h2.27V260h-1.72V247.65Z" transform="translate(-65.31 -20)"/><path class="cls-12" d="M371.49,249.16h1.64l1.15,4.68,1.16,4.75h0l1.32-4.75,1.37-4.68h1.49l1.41,4.68,1.34,4.75h0l1.11-4.75,1.18-4.68h1.58L383.44,260h-2.08l-1.51-5.21-0.94-3.3h0l-0.92,3.3L376.43,260h-2Z" transform="translate(-65.31 -20)"/><path class="cls-12" d="M396.44,260a1.65,1.65,0,0,1-1.35-.5,2.5,2.5,0,0,1-.51-1.26h-0.1a2.8,2.8,0,0,1-1.18,1.51,3.65,3.65,0,0,1-2,.5,3.8,3.8,0,0,1-2.68-.88,3.1,3.1,0,0,1-1-2.39,2.73,2.73,0,0,1,1.12-2.35,6,6,0,0,1,3.5-.82h2.14v-1.07a2.34,2.34,0,0,0-.63-1.76,2.69,2.69,0,0,0-1.93-.61,2.91,2.91,0,0,0-1.65.44,3.64,3.64,0,0,0-1.1,1.18l-1-.94a3.82,3.82,0,0,1,1.41-1.5,4.43,4.43,0,0,1,2.44-.62,4.48,4.48,0,0,1,3.07,1,3.39,3.39,0,0,1,1.09,2.68v6h1.24V260h-0.94Zm-4.83-1.18a4.27,4.27,0,0,0,1.15-.15,2.82,2.82,0,0,0,.9-0.42,2.08,2.08,0,0,0,.59-0.63,1.51,1.51,0,0,0,.21-0.78v-1.79h-2.23a4.06,4.06,0,0,0-2.11.42,1.36,1.36,0,0,0-.66,1.22v0.44a1.47,1.47,0,0,0,.58,1.24A2.52,2.52,0,0,0,391.61,258.82Z" transform="translate(-65.31 -20)"/><path class="cls-12" d="M399.78,260V249.16h1.68v2h0.1a3.28,3.28,0,0,1,1.05-1.39,3.23,3.23,0,0,1,2.08-.61h0.65v1.68h-1a3.79,3.79,0,0,0-2.13.51,1.52,1.52,0,0,0-.77,1.29V260h-1.68Z" transform="translate(-65.31 -20)"/><path class="cls-12" d="M411.45,260.25a4.87,4.87,0,0,1-2-.4,4.32,4.32,0,0,1-1.53-1.14,5.24,5.24,0,0,1-1-1.79,8,8,0,0,1,0-4.67,5.23,5.23,0,0,1,1-1.8,4.33,4.33,0,0,1,1.53-1.14,4.87,4.87,0,0,1,2-.4,4.61,4.61,0,0,1,2,.4,4.33,4.33,0,0,1,1.47,1.1,4.89,4.89,0,0,1,.93,1.66,6.55,6.55,0,0,1,.33,2.11V255h-7.79v0.5a3.71,3.71,0,0,0,.22,1.29,3.07,3.07,0,0,0,.63,1,2.88,2.88,0,0,0,1,.69,3.46,3.46,0,0,0,1.35.25,3.29,3.29,0,0,0,1.8-.48,3.16,3.16,0,0,0,1.19-1.39l1.2,0.87a4.18,4.18,0,0,1-1.64,1.81A4.94,4.94,0,0,1,411.45,260.25Zm0-9.93a3.2,3.2,0,0,0-1.26.24,2.83,2.83,0,0,0-1,.68,3.18,3.18,0,0,0-.64,1,3.57,3.57,0,0,0-.23,1.3v0.15h6v-0.23a3.3,3.3,0,0,0-.79-2.31A2.69,2.69,0,0,0,411.45,250.32Z" transform="translate(-65.31 -20)"/><path class="cls-12" d="M426.26,260l-3.8-10.84h1.68l1.89,5.38,1.18,3.7h0.11l1.18-3.7,1.93-5.38H432L428.21,260h-2Z" transform="translate(-65.31 -20)"/><path class="cls-12" d="M438.48,260.25a6.31,6.31,0,0,1-3-.68,6.46,6.46,0,0,1-2.14-1.88l1.3-1.09a5.7,5.7,0,0,0,1.72,1.56,4.44,4.44,0,0,0,2.23.54,3.45,3.45,0,0,0,2.4-.76,2.6,2.6,0,0,0,.83-2,2.06,2.06,0,0,0-.63-1.62,4.74,4.74,0,0,0-2.08-.9l-1.2-.27a7,7,0,0,1-3.08-1.4,3.33,3.33,0,0,1-1.06-2.64,4,4,0,0,1,.36-1.72,3.45,3.45,0,0,1,1-1.26,4.51,4.51,0,0,1,1.53-.77,7,7,0,0,1,2-.26,6.16,6.16,0,0,1,2.85.61,5.48,5.48,0,0,1,2,1.78l-1.32,1a4.57,4.57,0,0,0-1.47-1.32,4.33,4.33,0,0,0-2.14-.48,3.65,3.65,0,0,0-2.22.6,2.09,2.09,0,0,0-.81,1.8,1.89,1.89,0,0,0,.68,1.59,5.28,5.28,0,0,0,2.07.85l1.2,0.27a6.22,6.22,0,0,1,3.13,1.47,3.59,3.59,0,0,1,1,2.63,4.65,4.65,0,0,1-.35,1.83,3.76,3.76,0,0,1-1,1.39,4.64,4.64,0,0,1-1.58.88A6.6,6.6,0,0,1,438.48,260.25Z" transform="translate(-65.31 -20)"/><path class="cls-12" d="M446.4,249.16h1.68v1.74h0.08a3.05,3.05,0,0,1,1.23-1.51,3.69,3.69,0,0,1,1.94-.49,4.12,4.12,0,0,1,1.83.4,4,4,0,0,1,1.4,1.13,5.21,5.21,0,0,1,.88,1.79,9.23,9.23,0,0,1,0,4.7,5.2,5.2,0,0,1-.88,1.79,4,4,0,0,1-1.4,1.13,4.12,4.12,0,0,1-1.83.4,3.28,3.28,0,0,1-3.17-2h-0.08v5.94H446.4v-15Zm4.47,9.6a2.89,2.89,0,0,0,2.25-.9,3.35,3.35,0,0,0,.82-2.35v-1.86a3.35,3.35,0,0,0-.82-2.35,2.89,2.89,0,0,0-2.25-.9,3.67,3.67,0,0,0-1.08.16,3,3,0,0,0-.89.43,2.08,2.08,0,0,0-.6.66,1.67,1.67,0,0,0-.22.83v4.05a2,2,0,0,0,.22.94,2.11,2.11,0,0,0,.6.7,2.7,2.7,0,0,0,.89.43A3.9,3.9,0,0,0,450.87,258.76Z" transform="translate(-65.31 -20)"/><path class="cls-12" d="M458.58,244.46h1.68v6.45h0.08a3.53,3.53,0,0,1,1.12-1.46,3.18,3.18,0,0,1,1.94-.54,3.4,3.4,0,0,1,2.66,1.08,4.4,4.4,0,0,1,1,3.06v7h-1.68v-6.67q0-2.93-2.46-2.93a3.78,3.78,0,0,0-1,.13,2.84,2.84,0,0,0-.85.38,1.87,1.87,0,0,0-.6.64,1.82,1.82,0,0,0-.22.92V260h-1.68V244.46Z" transform="translate(-65.31 -20)"/><path class="cls-12" d="M474.58,260.25a4.86,4.86,0,0,1-2-.4,4.31,4.31,0,0,1-1.53-1.14,5.24,5.24,0,0,1-1-1.79,8,8,0,0,1,0-4.67,5.24,5.24,0,0,1,1-1.8,4.32,4.32,0,0,1,1.53-1.14,4.86,4.86,0,0,1,2-.4,4.61,4.61,0,0,1,2,.4,4.33,4.33,0,0,1,1.47,1.1,4.9,4.9,0,0,1,.93,1.66,6.54,6.54,0,0,1,.33,2.11V255h-7.79v0.5a3.7,3.7,0,0,0,.22,1.29,3.05,3.05,0,0,0,.63,1,2.87,2.87,0,0,0,1,.69,3.46,3.46,0,0,0,1.35.25,3.29,3.29,0,0,0,1.79-.48,3.16,3.16,0,0,0,1.19-1.39l1.2,0.87a4.18,4.18,0,0,1-1.64,1.81A4.94,4.94,0,0,1,474.58,260.25Zm0-9.93a3.2,3.2,0,0,0-1.26.24,2.84,2.84,0,0,0-1,.68,3.2,3.2,0,0,0-.64,1,3.57,3.57,0,0,0-.23,1.3v0.15h6v-0.23a3.29,3.29,0,0,0-.79-2.31A2.69,2.69,0,0,0,474.58,250.32Z" transform="translate(-65.31 -20)"/><path class="cls-12" d="M482,260V249.16h1.68v2h0.11a3.28,3.28,0,0,1,1-1.39,3.23,3.23,0,0,1,2.08-.61h0.65v1.68h-1a3.8,3.8,0,0,0-2.13.51,1.52,1.52,0,0,0-.77,1.29V260H482Z" transform="translate(-65.31 -20)"/><path class="cls-12" d="M493.71,260.25a4.86,4.86,0,0,1-2-.4,4.31,4.31,0,0,1-1.53-1.14,5.24,5.24,0,0,1-1-1.79,8,8,0,0,1,0-4.67,5.24,5.24,0,0,1,1-1.8,4.32,4.32,0,0,1,1.53-1.14,4.86,4.86,0,0,1,2-.4,4.61,4.61,0,0,1,2,.4,4.33,4.33,0,0,1,1.47,1.1,4.9,4.9,0,0,1,.93,1.66,6.54,6.54,0,0,1,.33,2.11V255H490.6v0.5a3.7,3.7,0,0,0,.22,1.29,3.05,3.05,0,0,0,.63,1,2.87,2.87,0,0,0,1,.69,3.46,3.46,0,0,0,1.35.25,3.29,3.29,0,0,0,1.79-.48,3.16,3.16,0,0,0,1.19-1.39l1.2,0.87a4.18,4.18,0,0,1-1.64,1.81A4.94,4.94,0,0,1,493.71,260.25Zm0-9.93a3.2,3.2,0,0,0-1.26.24,2.84,2.84,0,0,0-1,.68,3.2,3.2,0,0,0-.64,1,3.57,3.57,0,0,0-.23,1.3v0.15h6v-0.23a3.29,3.29,0,0,0-.79-2.31A2.69,2.69,0,0,0,493.71,250.32Z" transform="translate(-65.31 -20)"/><path class="cls-13" d="M153.16,428.77a0.44,0.44,0,0,1,.53.46v3.18h7.14a0.43,0.43,0,0,1,.53.42,0.44,0.44,0,0,1-.53.44H147.18a0.43,0.43,0,0,1-.53-0.44,0.43,0.43,0,0,1,.53-0.42h5.47v-3.18A0.43,0.43,0,0,1,153.16,428.77Zm6.24-2.55a1.58,1.58,0,0,1,.54,1.28v0.86a6.49,6.49,0,0,1-.12,1.44,3.68,3.68,0,0,1-.53,1.14,0.5,0.5,0,0,1-.37.19,0.48,0.48,0,0,1-.35-0.11,0.56,0.56,0,0,1-.23-0.3,0.44,0.44,0,0,1,.11-0.4,2.56,2.56,0,0,0,.35-0.9,5.31,5.31,0,0,0,.09-1.11V427.6a0.82,0.82,0,0,0-.3-0.67,1.19,1.19,0,0,0-.77-0.23h-9.49a0.46,0.46,0,1,1,0-.91H158A2.15,2.15,0,0,1,159.4,426.22Zm-0.7,9.62a1.89,1.89,0,0,1,0,3.67,15.34,15.34,0,0,1-9.4,0,1.9,1.9,0,0,1,0-3.67,11.6,11.6,0,0,1,4.71-.74A11.47,11.47,0,0,1,158.7,435.84Zm-8.65.6a1.41,1.41,0,0,0-1.16,1.25,1.37,1.37,0,0,0,1.16,1.2,16.64,16.64,0,0,0,7.89,0,1.38,1.38,0,0,0,1.18-1.2,1.42,1.42,0,0,0-1.18-1.25A17.27,17.27,0,0,0,150,436.44Z" transform="translate(-65.31 -20)"/><path class="cls-13" d="M172.48,433.13h6.35a0.57,0.57,0,0,1,.39.12,0.4,0.4,0,0,1,.14.32,0.41,0.41,0,0,1-.12.3,0.5,0.5,0,0,1-.37.14H165.09a0.37,0.37,0,0,1-.44-0.44,0.44,0.44,0,0,1,.53-0.44h6.28v-2q0-.37.51-0.35a0.41,0.41,0,0,1,.51.4v1.9Zm4.22,2.71a1.89,1.89,0,0,1,0,3.67,15.34,15.34,0,0,1-9.4,0,1.9,1.9,0,0,1,0-3.67,11.6,11.6,0,0,1,4.71-.74A11.47,11.47,0,0,1,176.7,435.84Zm-10.2-5.22a1.42,1.42,0,0,1-.44-1.07v-2.36a1.4,1.4,0,0,1,.46-1.07,1.8,1.8,0,0,1,1.21-.4h9.9a0.54,0.54,0,0,1,.37.12,0.44,0.44,0,0,1,.14.32,0.51,0.51,0,0,1-.11.32,0.48,0.48,0,0,1-.35.14h-9.76a1.07,1.07,0,0,0-.6.14,0.54,0.54,0,0,0-.21.46v0.72h10.32a0.45,0.45,0,1,1,0,.9H167.12v0.63a0.68,0.68,0,0,0,.18.53,0.83,0.83,0,0,0,.6.18h9.77a0.41,0.41,0,0,1,.47.44,0.4,0.4,0,0,1-.46.46h-9.95A1.7,1.7,0,0,1,166.5,430.62Zm1.55,5.82a1.41,1.41,0,0,0-1.16,1.25,1.37,1.37,0,0,0,1.16,1.2,16.64,16.64,0,0,0,7.89,0,1.38,1.38,0,0,0,1.18-1.2,1.42,1.42,0,0,0-1.18-1.25A17.27,17.27,0,0,0,168,436.44Z" transform="translate(-65.31 -20)"/><path class="cls-13" d="M191.49,426a0.51,0.51,0,0,1,.7,0,0.47,0.47,0,0,1,.18.39,14.26,14.26,0,0,1-.21,2.29,26.52,26.52,0,0,1-.54,2.6q1.39,1.71,2.51,3.36a36.12,36.12,0,0,1,2,3.27,0.53,0.53,0,0,1,.05.47,0.47,0.47,0,0,1-.26.32,0.6,0.6,0,0,1-.4,0,0.53,0.53,0,0,1-.33-0.3,33.18,33.18,0,0,0-1.76-3,37.53,37.53,0,0,0-2.18-3.06,23.4,23.4,0,0,1-1.2,2.88,23.72,23.72,0,0,1-2.14,3.41,0.55,0.55,0,0,1-.37.19,0.49,0.49,0,0,1-.33-0.12,0.46,0.46,0,0,1-.16-0.32,0.65,0.65,0,0,1,.19-0.44,20.33,20.33,0,0,0,4.06-11.55A0.49,0.49,0,0,1,191.49,426Zm8.24,14a0.45,0.45,0,0,1-.35.16,0.47,0.47,0,0,1-.37-0.16,0.57,0.57,0,0,1-.16-0.42v-7h-4.68a0.64,0.64,0,0,1-.44-0.14,0.37,0.37,0,0,1-.16-0.3,0.4,0.4,0,0,1,.14-0.32,0.67,0.67,0,0,1,.42-0.12h4.71V426a0.51,0.51,0,0,1,.16-0.4,0.54,0.54,0,0,1,.37-0.12,0.52,0.52,0,0,1,.35.12,0.49,0.49,0,0,1,.18.4v13.59A0.54,0.54,0,0,1,199.73,440.06Z" transform="translate(-65.31 -20)"/><path class="cls-13" d="M212.62,425.94a0.45,0.45,0,0,1,.51.51v10.86a1.36,1.36,0,0,1-.39,1,1.43,1.43,0,0,1-1.05.4h-4.55a1.43,1.43,0,0,1-1.05-.4,1.38,1.38,0,0,1-.39-1V426.54a0.59,0.59,0,0,1,.16-0.44,0.45,0.45,0,0,1,.35-0.16,0.48,0.48,0,0,1,.35.14,0.56,0.56,0,0,1,.18.44v4.1h5.4v-4.18A0.44,0.44,0,0,1,212.62,425.94Zm-5.89,5.57v5.61a0.71,0.71,0,0,0,.18.54,0.76,0.76,0,0,0,.54.16h3.83a0.94,0.94,0,0,0,.62-0.18,0.6,0.6,0,0,0,.23-0.53v-5.61h-5.4Zm11,8.56a0.48,0.48,0,0,1-.35.14,0.5,0.5,0,0,1-.37-0.14,0.55,0.55,0,0,1-.16-0.4V426a0.47,0.47,0,0,1,.16-0.37,0.6,0.6,0,0,1,.37-0.11,0.57,0.57,0,0,1,.35.11,0.45,0.45,0,0,1,.18.37v13.68A0.52,0.52,0,0,1,217.73,440.08Z" transform="translate(-65.31 -20)"/><path class="cls-13" d="M237.46,438.23a0.43,0.43,0,0,1,0,.63,0.5,0.5,0,0,1-.37.14H223.43a0.44,0.44,0,0,1-.53-0.46,0.43,0.43,0,0,1,.53-0.44h13.64A0.57,0.57,0,0,1,237.46,438.23Zm-7.56-12.39a0.48,0.48,0,0,1,.35-0.14,0.46,0.46,0,0,1,.33.14,0.62,0.62,0,0,1,.18.46,6.37,6.37,0,0,0,1.81,4.59,7.34,7.34,0,0,0,3.88,2.11,0.66,0.66,0,0,1,.4.23,0.38,0.38,0,0,1,.07.35,0.42,0.42,0,0,1-.21.3,0.81,0.81,0,0,1-.51.05,7.88,7.88,0,0,1-3.76-2,7.66,7.66,0,0,1-2.2-3.27,7.14,7.14,0,0,1-2.2,3.27,7.93,7.93,0,0,1-3.87,2,0.66,0.66,0,0,1-.44-0.07,0.39,0.39,0,0,1-.09-0.62,0.6,0.6,0,0,1,.4-0.23,7.16,7.16,0,0,0,3.8-2.11,6.44,6.44,0,0,0,1.88-4.66A0.57,0.57,0,0,1,229.9,425.84Z" transform="translate(-65.31 -20)"/><path class="cls-12" d="M132.54,488l-1.26-3.71H126.2L124.94,488h-1.53l4.39-12.56h1.93L134.12,488h-1.58Zm-3.76-11.16h-0.09L126.56,483h4.34Z" transform="translate(-65.31 -20)"/><path class="cls-12" d="M139.52,488.22a4.28,4.28,0,0,1-1.75-.34,3.56,3.56,0,0,1-1.31-1,4.33,4.33,0,0,1-.81-1.53,7.43,7.43,0,0,1,0-4,4.33,4.33,0,0,1,.81-1.53,3.57,3.57,0,0,1,1.31-1,4.28,4.28,0,0,1,1.75-.34,3.72,3.72,0,0,1,2.22.6,3.67,3.67,0,0,1,1.25,1.57l-1.21.61a2.19,2.19,0,0,0-.83-1.12,2.49,2.49,0,0,0-1.44-.4,2.9,2.9,0,0,0-1.13.21,2.22,2.22,0,0,0-.81.58,2.43,2.43,0,0,0-.49.88,3.72,3.72,0,0,0-.16,1.13v1.58a3,3,0,0,0,.66,2,2.38,2.38,0,0,0,1.94.78,2.61,2.61,0,0,0,2.52-1.62l1,0.7a3.68,3.68,0,0,1-1.34,1.6A3.93,3.93,0,0,1,139.52,488.22Z" transform="translate(-65.31 -20)"/><path class="cls-12" d="M147.17,488a1.47,1.47,0,0,1-1.14-.42,1.57,1.57,0,0,1-.39-1.11V480h-1.53v-1.28H145a0.85,0.85,0,0,0,.64-0.19,1,1,0,0,0,.17-0.66v-1.73h1.3v2.57h2V480h-2v6.73H149V488h-1.8Z" transform="translate(-65.31 -20)"/><path class="cls-12" d="M152.16,476.53a0.88,0.88,0,0,1-.67-0.23,0.83,0.83,0,0,1-.21-0.58v-0.23a0.83,0.83,0,0,1,.21-0.59,1.13,1.13,0,0,1,1.35,0,0.83,0.83,0,0,1,.21.59v0.23a0.83,0.83,0,0,1-.21.58A0.88,0.88,0,0,1,152.16,476.53Zm-0.72,2.18h1.44V488h-1.44v-9.29Z" transform="translate(-65.31 -20)"/><path class="cls-12" d="M158,488l-3.26-9.29h1.44l1.62,4.61,1,3.17h0.09l1-3.17,1.66-4.61h1.39L159.67,488H158Z" transform="translate(-65.31 -20)"/><path class="cls-12" d="M168.14,488.22a4.17,4.17,0,0,1-1.72-.34,3.7,3.7,0,0,1-1.31-1,4.5,4.5,0,0,1-.85-1.53,6.9,6.9,0,0,1,0-4,4.5,4.5,0,0,1,.85-1.54,3.72,3.72,0,0,1,1.31-1,4.17,4.17,0,0,1,1.72-.34,3.94,3.94,0,0,1,1.67.34,3.72,3.72,0,0,1,1.26.94,4.19,4.19,0,0,1,.8,1.43,5.62,5.62,0,0,1,.28,1.81v0.68h-6.68v0.43a3.18,3.18,0,0,0,.19,1.11,2.62,2.62,0,0,0,.54.89,2.47,2.47,0,0,0,.86.59,3,3,0,0,0,1.16.21,2.81,2.81,0,0,0,1.54-.41,2.71,2.71,0,0,0,1-1.19l1,0.74a3.58,3.58,0,0,1-1.4,1.55A4.23,4.23,0,0,1,168.14,488.22Zm0-8.51a2.74,2.74,0,0,0-1.08.21,2.41,2.41,0,0,0-.84.58,2.73,2.73,0,0,0-.55.89,3.06,3.06,0,0,0-.2,1.12v0.13h5.13v-0.2a2.82,2.82,0,0,0-.67-2A2.3,2.3,0,0,0,168.14,479.7Z" transform="translate(-65.31 -20)"/><path class="cls-12" d="M178.93,475.44h4.21a5.49,5.49,0,0,1,2.12.4,4.28,4.28,0,0,1,1.63,1.18,5.36,5.36,0,0,1,1,2,10.64,10.64,0,0,1,0,5.49,5.37,5.37,0,0,1-1,2,4.29,4.29,0,0,1-1.63,1.18,5.48,5.48,0,0,1-2.12.4h-4.21V475.44Zm4.21,11.23a3.78,3.78,0,0,0,1.42-.26,3.06,3.06,0,0,0,1.12-.76,3.54,3.54,0,0,0,.73-1.23,4.93,4.93,0,0,0,.26-1.67v-2.05a4.93,4.93,0,0,0-.26-1.66,3.53,3.53,0,0,0-.73-1.23,3.06,3.06,0,0,0-1.12-.76,3.78,3.78,0,0,0-1.42-.26h-2.7v9.9h2.7Z" transform="translate(-65.31 -20)"/><path class="cls-12" d="M191.58,476.53a0.88,0.88,0,0,1-.67-0.23,0.83,0.83,0,0,1-.21-0.58v-0.23a0.83,0.83,0,0,1,.21-0.59,1.13,1.13,0,0,1,1.35,0,0.83,0.83,0,0,1,.21.59v0.23a0.83,0.83,0,0,1-.21.58A0.88,0.88,0,0,1,191.58,476.53Zm-0.72,2.18h1.44V488h-1.44v-9.29Z" transform="translate(-65.31 -20)"/><path class="cls-12" d="M195.36,488v-9.29h1.44v1.71h0.09a2.8,2.8,0,0,1,.9-1.19,2.77,2.77,0,0,1,1.78-.52h0.56v1.44h-0.85a3.25,3.25,0,0,0-1.83.44,1.3,1.3,0,0,0-.66,1.11V488h-1.44Z" transform="translate(-65.31 -20)"/><path class="cls-12" d="M205.37,488.22a4.17,4.17,0,0,1-1.72-.34,3.7,3.7,0,0,1-1.31-1,4.5,4.5,0,0,1-.85-1.53,6.9,6.9,0,0,1,0-4,4.5,4.5,0,0,1,.85-1.54,3.72,3.72,0,0,1,1.31-1,4.17,4.17,0,0,1,1.72-.34,3.94,3.94,0,0,1,1.67.34,3.72,3.72,0,0,1,1.26.94,4.19,4.19,0,0,1,.8,1.43,5.62,5.62,0,0,1,.28,1.81v0.68H202.7v0.43a3.18,3.18,0,0,0,.19,1.11,2.62,2.62,0,0,0,.54.89,2.47,2.47,0,0,0,.86.59,3,3,0,0,0,1.16.21,2.81,2.81,0,0,0,1.54-.41,2.71,2.71,0,0,0,1-1.19l1,0.74a3.58,3.58,0,0,1-1.4,1.55A4.23,4.23,0,0,1,205.37,488.22Zm0-8.51a2.74,2.74,0,0,0-1.08.21,2.41,2.41,0,0,0-.84.58,2.73,2.73,0,0,0-.55.89,3.06,3.06,0,0,0-.2,1.12v0.13h5.13v-0.2a2.82,2.82,0,0,0-.67-2A2.3,2.3,0,0,0,205.37,479.7Z" transform="translate(-65.31 -20)"/><path class="cls-12" d="M215.21,488.22a4.28,4.28,0,0,1-1.75-.34,3.56,3.56,0,0,1-1.31-1,4.33,4.33,0,0,1-.81-1.53,7.43,7.43,0,0,1,0-4,4.33,4.33,0,0,1,.81-1.53,3.57,3.57,0,0,1,1.31-1,4.28,4.28,0,0,1,1.75-.34,3.72,3.72,0,0,1,2.22.6,3.67,3.67,0,0,1,1.25,1.57l-1.21.61a2.19,2.19,0,0,0-.83-1.12,2.49,2.49,0,0,0-1.44-.4,2.9,2.9,0,0,0-1.13.21,2.22,2.22,0,0,0-.81.58,2.43,2.43,0,0,0-.49.88,3.72,3.72,0,0,0-.16,1.13v1.58a3,3,0,0,0,.66,2,2.38,2.38,0,0,0,1.94.78,2.61,2.61,0,0,0,2.52-1.62l1,0.7a3.68,3.68,0,0,1-1.34,1.6A3.93,3.93,0,0,1,215.21,488.22Z" transform="translate(-65.31 -20)"/><path class="cls-12" d="M222.86,488a1.47,1.47,0,0,1-1.14-.42,1.57,1.57,0,0,1-.39-1.11V480H219.8v-1.28h0.86a0.85,0.85,0,0,0,.64-0.19,1,1,0,0,0,.17-0.66v-1.73h1.3v2.57h2V480h-2v6.73h1.89V488h-1.8Z" transform="translate(-65.31 -20)"/><path class="cls-12" d="M230.57,488.22a4.19,4.19,0,0,1-1.71-.34,3.68,3.68,0,0,1-1.32-1,4.62,4.62,0,0,1-.85-1.53,6.72,6.72,0,0,1,0-4,4.62,4.62,0,0,1,.85-1.54,3.7,3.7,0,0,1,1.32-1,4.19,4.19,0,0,1,1.71-.34,4.13,4.13,0,0,1,1.7.34,3.8,3.8,0,0,1,1.32,1,4.54,4.54,0,0,1,.86,1.54,6.72,6.72,0,0,1,0,4,4.54,4.54,0,0,1-.86,1.53,3.78,3.78,0,0,1-1.32,1A4.13,4.13,0,0,1,230.57,488.22Zm0-1.28a2.62,2.62,0,0,0,1.91-.72,2.94,2.94,0,0,0,.74-2.2v-1.33a2.94,2.94,0,0,0-.74-2.2,2.89,2.89,0,0,0-3.82,0,2.94,2.94,0,0,0-.74,2.2V484a2.94,2.94,0,0,0,.74,2.2A2.62,2.62,0,0,0,230.57,486.94Z" transform="translate(-65.31 -20)"/><path class="cls-12" d="M237.14,488v-9.29h1.44v1.71h0.09a2.8,2.8,0,0,1,.9-1.19,2.77,2.77,0,0,1,1.78-.52h0.56v1.44h-0.85a3.25,3.25,0,0,0-1.83.44,1.3,1.3,0,0,0-.66,1.11V488h-1.44Z" transform="translate(-65.31 -20)"/><path class="cls-12" d="M249.65,478.71h1.42l-4.16,11.45a5.16,5.16,0,0,1-.32.69,1.36,1.36,0,0,1-.4.44,1.55,1.55,0,0,1-.58.23,4.27,4.27,0,0,1-.85.07H244v-1.28h1.46l0.7-2-3.47-9.63h1.44l2.23,6.31,0.43,1.51h0.09l0.5-1.51Z" transform="translate(-65.31 -20)"/><path class="cls-12" d="M167.67,510.44h4.21a5.49,5.49,0,0,1,2.12.4,4.28,4.28,0,0,1,1.63,1.18,5.36,5.36,0,0,1,1,2,10.64,10.64,0,0,1,0,5.49,5.37,5.37,0,0,1-1,2A4.29,4.29,0,0,1,174,522.6a5.48,5.48,0,0,1-2.12.4h-4.21V510.44Zm4.21,11.23a3.78,3.78,0,0,0,1.42-.26,3.06,3.06,0,0,0,1.12-.76,3.54,3.54,0,0,0,.73-1.23,4.93,4.93,0,0,0,.26-1.67v-2.05a4.93,4.93,0,0,0-.26-1.66,3.53,3.53,0,0,0-.73-1.23,3.06,3.06,0,0,0-1.12-.76,3.78,3.78,0,0,0-1.42-.26h-2.7v9.9h2.7Z" transform="translate(-65.31 -20)"/><path class="cls-12" d="M182.79,515.33l-1.51-2.79h-0.05V523h-1.48V510.44h1.75l4.59,7.67,1.51,2.79h0.05V510.44h1.48V523h-1.75Z" transform="translate(-65.31 -20)"/><path class="cls-12" d="M196,523.22a5.41,5.41,0,0,1-2.61-.58,5.53,5.53,0,0,1-1.84-1.61l1.12-.94a4.89,4.89,0,0,0,1.48,1.34,3.81,3.81,0,0,0,1.91.46,3,3,0,0,0,2.06-.65,2.22,2.22,0,0,0,.71-1.73,1.77,1.77,0,0,0-.54-1.39,4.06,4.06,0,0,0-1.78-.77l-1-.23a6,6,0,0,1-2.64-1.2,2.85,2.85,0,0,1-.91-2.26,3.41,3.41,0,0,1,.31-1.48,3,3,0,0,1,.85-1.08,3.88,3.88,0,0,1,1.31-.66,5.94,5.94,0,0,1,1.68-.22,5.29,5.29,0,0,1,2.44.52,4.7,4.7,0,0,1,1.72,1.53l-1.13.83a3.92,3.92,0,0,0-1.26-1.13,3.71,3.71,0,0,0-1.84-.41,3.13,3.13,0,0,0-1.9.51,1.79,1.79,0,0,0-.69,1.54A1.62,1.62,0,0,0,194,515a4.51,4.51,0,0,0,1.77.73l1,0.23a5.34,5.34,0,0,1,2.68,1.26,3.08,3.08,0,0,1,.83,2.25A4,4,0,0,1,200,521a3.2,3.2,0,0,1-.85,1.19,4,4,0,0,1-1.36.76A5.63,5.63,0,0,1,196,523.22Z" transform="translate(-65.31 -20)"/><path class="cls-12" d="M583.9,437.32v-2.18h1.62v-8.21H583.9v-2.18h6v2.18h-1.62v8.21h1.62v2.18h-6Z" transform="translate(-65.31 -20)"/><path class="cls-12" d="M592.16,424.76h6.1a3.28,3.28,0,0,1,2.44.88,3.18,3.18,0,0,1,.87,2.34,3.49,3.49,0,0,1-.19,1.22,2.34,2.34,0,0,1-.5.83,1.93,1.93,0,0,1-.74.48,3,3,0,0,1-.91.17v0.11a3.06,3.06,0,0,1,.95.16,2.7,2.7,0,0,1,.91.51,2.84,2.84,0,0,1,.69.91,3,3,0,0,1,.28,1.37,4,4,0,0,1-.24,1.39,3.56,3.56,0,0,1-.67,1.14,3.14,3.14,0,0,1-1,.77,3,3,0,0,1-1.3.28h-6.66V424.76Zm2.74,5.15h2.72a1.06,1.06,0,0,0,1.15-1.15v-0.54a1.06,1.06,0,0,0-1.15-1.15H594.9v2.84Zm0,5.11H598a1.19,1.19,0,0,0,.85-0.3,1.09,1.09,0,0,0,.32-0.84v-0.61a1.1,1.1,0,0,0-.32-0.84,1.19,1.19,0,0,0-.85-0.3H594.9V435Z" transform="translate(-65.31 -20)"/><path class="cls-12" d="M613.56,429.08h-0.05l-0.92,1.84-2.45,4.45-2.39-4.43-1-2h-0.05v8.37h-2.57V424.76h2.9l3.08,5.89h0l3-5.89h2.92v12.56h-2.57v-8.24Z" transform="translate(-65.31 -20)"/><path class="cls-12" d="M628.23,437.54a6.23,6.23,0,0,1-2.3-.4,4.55,4.55,0,0,1-1.75-1.21,5.54,5.54,0,0,1-1.12-2,8.91,8.91,0,0,1-.4-2.8,9.19,9.19,0,0,1,.4-2.82,5.89,5.89,0,0,1,1.12-2.07,4.65,4.65,0,0,1,1.75-1.27,5.88,5.88,0,0,1,2.3-.43,5.34,5.34,0,0,1,2.88.71,4.91,4.91,0,0,1,1.82,2.24l-2.36,1.22a2.8,2.8,0,0,0-.78-1.27,2.26,2.26,0,0,0-1.56-.48,2.52,2.52,0,0,0-1.94.78,3.23,3.23,0,0,0-.73,2.28v2a3.22,3.22,0,0,0,.73,2.28,2.52,2.52,0,0,0,1.94.78,2.3,2.3,0,0,0,1.61-.55,3.34,3.34,0,0,0,.89-1.32l2.23,1.29a5.58,5.58,0,0,1-1.84,2.22A5,5,0,0,1,628.23,437.54Z" transform="translate(-65.31 -20)"/><path class="cls-12" d="M637.38,437.32a2.31,2.31,0,0,1-2.65-2.59V424h2.66v11.25h1.19v2.07h-1.21Z" transform="translate(-65.31 -20)"/><path class="cls-12" d="M644,437.54a4.79,4.79,0,0,1-1.86-.34,3.7,3.7,0,0,1-1.39-1,4.49,4.49,0,0,1-.87-1.57,7,7,0,0,1,0-4.1,4.41,4.41,0,0,1,.87-1.56,3.77,3.77,0,0,1,1.39-1,5.25,5.25,0,0,1,3.73,0,3.78,3.78,0,0,1,1.39,1,4.44,4.44,0,0,1,.87,1.56,7,7,0,0,1,0,4.1,4.52,4.52,0,0,1-.87,1.57,3.72,3.72,0,0,1-1.39,1A4.79,4.79,0,0,1,644,437.54Zm0-2.11a1.55,1.55,0,0,0,1.22-.49,2,2,0,0,0,.43-1.39v-1.93a2,2,0,0,0-.43-1.39,1.78,1.78,0,0,0-2.45,0,2,2,0,0,0-.43,1.39v1.93a2,2,0,0,0,.43,1.39A1.55,1.55,0,0,0,644,435.43Z" transform="translate(-65.31 -20)"/><path class="cls-12" d="M655.92,435.74h-0.09a3.3,3.3,0,0,1-.33.68,2.31,2.31,0,0,1-.53.58,2.48,2.48,0,0,1-.76.4,3.27,3.27,0,0,1-1,.14,2.62,2.62,0,0,1-2.21-1,4.42,4.42,0,0,1-.75-2.76v-5.94h2.66v5.71a2.43,2.43,0,0,0,.31,1.33,1.15,1.15,0,0,0,1,.47,2.14,2.14,0,0,0,.61-0.09,1.71,1.71,0,0,0,.54-0.26,1.36,1.36,0,0,0,.38-0.42,1.18,1.18,0,0,0,.14-0.59v-6.14h2.66v9.45h-2.66v-1.58Z" transform="translate(-65.31 -20)"/><path class="cls-12" d="M666.86,435.74h-0.09a2.37,2.37,0,0,1-.34.71,2.48,2.48,0,0,1-.57.58,2.63,2.63,0,0,1-.76.38,2.86,2.86,0,0,1-.87.13,3.14,3.14,0,0,1-2.72-1.27,7.82,7.82,0,0,1,0-7.35,3.15,3.15,0,0,1,2.72-1.26,2.75,2.75,0,0,1,1.63.5,2.22,2.22,0,0,1,.91,1.29h0.09V424h2.66v13.32h-2.66v-1.58Zm-1.75-.36a2,2,0,0,0,1.25-.37,1.2,1.2,0,0,0,.5-1V431.2a1.2,1.2,0,0,0-.5-1,2,2,0,0,0-1.25-.37,1.64,1.64,0,0,0-1.25.53,2,2,0,0,0-.5,1.43v1.64a2,2,0,0,0,.5,1.43A1.64,1.64,0,0,0,665.12,435.38Z" transform="translate(-65.31 -20)"/><path class="cls-13" d="M681.26,424a0.51,0.51,0,0,1,.7,0,0.47,0.47,0,0,1,.18.39,14.26,14.26,0,0,1-.21,2.29,26.52,26.52,0,0,1-.54,2.6q1.39,1.71,2.51,3.36a36.12,36.12,0,0,1,2,3.27,0.53,0.53,0,0,1,.05.47,0.47,0.47,0,0,1-.26.32,0.6,0.6,0,0,1-.4,0,0.53,0.53,0,0,1-.33-0.3,33.18,33.18,0,0,0-1.76-3,37.53,37.53,0,0,0-2.18-3.06,23.4,23.4,0,0,1-1.2,2.88,23.72,23.72,0,0,1-2.14,3.41,0.55,0.55,0,0,1-.37.19,0.49,0.49,0,0,1-.33-0.12,0.46,0.46,0,0,1-.16-0.32A0.65,0.65,0,0,1,677,436a20.33,20.33,0,0,0,4.06-11.55A0.49,0.49,0,0,1,681.26,424Zm8.24,14a0.45,0.45,0,0,1-.35.16,0.47,0.47,0,0,1-.37-0.16,0.57,0.57,0,0,1-.16-0.42v-7h-4.68a0.64,0.64,0,0,1-.44-0.14,0.37,0.37,0,0,1-.16-0.3,0.4,0.4,0,0,1,.14-0.32,0.67,0.67,0,0,1,.42-0.12h4.71V424a0.51,0.51,0,0,1,.16-0.4,0.54,0.54,0,0,1,.37-0.12,0.52,0.52,0,0,1,.35.12,0.49,0.49,0,0,1,.18.4v13.59A0.54,0.54,0,0,1,689.5,438.06Z" transform="translate(-65.31 -20)"/><path class="cls-13" d="M702.38,423.94a0.45,0.45,0,0,1,.51.51v10.86a1.36,1.36,0,0,1-.39,1,1.43,1.43,0,0,1-1.05.4H696.9a1.43,1.43,0,0,1-1.05-.4,1.38,1.38,0,0,1-.39-1V424.54a0.59,0.59,0,0,1,.16-0.44,0.45,0.45,0,0,1,.35-0.16,0.48,0.48,0,0,1,.35.14,0.56,0.56,0,0,1,.18.44v4.1h5.4v-4.18A0.44,0.44,0,0,1,702.38,423.94Zm-5.89,5.57v5.61a0.71,0.71,0,0,0,.18.54,0.76,0.76,0,0,0,.54.16H701a0.94,0.94,0,0,0,.62-0.18,0.6,0.6,0,0,0,.23-0.53v-5.61h-5.4Zm11,8.56a0.48,0.48,0,0,1-.35.14,0.5,0.5,0,0,1-.37-0.14,0.55,0.55,0,0,1-.16-0.4V424a0.47,0.47,0,0,1,.16-0.37,0.6,0.6,0,0,1,.37-0.11,0.57,0.57,0,0,1,.35.11,0.45,0.45,0,0,1,.18.37v13.68A0.52,0.52,0,0,1,707.5,438.08Z" transform="translate(-65.31 -20)"/><path class="cls-13" d="M727.22,436.23a0.43,0.43,0,0,1,0,.63,0.5,0.5,0,0,1-.37.14H713.2a0.44,0.44,0,0,1-.53-0.46,0.43,0.43,0,0,1,.53-0.44h13.64A0.57,0.57,0,0,1,727.22,436.23Zm-7.56-12.39a0.48,0.48,0,0,1,.35-0.14,0.46,0.46,0,0,1,.33.14,0.62,0.62,0,0,1,.18.46,6.37,6.37,0,0,0,1.81,4.59,7.34,7.34,0,0,0,3.88,2.11,0.66,0.66,0,0,1,.4.23,0.38,0.38,0,0,1,.07.35,0.42,0.42,0,0,1-.21.3,0.81,0.81,0,0,1-.51.05,7.88,7.88,0,0,1-3.76-2,7.66,7.66,0,0,1-2.2-3.27,7.14,7.14,0,0,1-2.2,3.27,7.93,7.93,0,0,1-3.87,2,0.66,0.66,0,0,1-.44-0.07,0.39,0.39,0,0,1-.09-0.62,0.6,0.6,0,0,1,.4-0.23,7.16,7.16,0,0,0,3.8-2.11,6.44,6.44,0,0,0,1.88-4.66A0.57,0.57,0,0,1,719.66,423.84Z" transform="translate(-65.31 -20)"/><path class="cls-12" d="M627.67,474.44h4.21a5.49,5.49,0,0,1,2.12.4,4.27,4.27,0,0,1,1.63,1.18,5.36,5.36,0,0,1,1,2,10.64,10.64,0,0,1,0,5.49,5.36,5.36,0,0,1-1,2A4.28,4.28,0,0,1,634,486.6a5.48,5.48,0,0,1-2.12.4h-4.21V474.44Zm4.21,11.23a3.78,3.78,0,0,0,1.42-.26,3.07,3.07,0,0,0,1.12-.76,3.53,3.53,0,0,0,.73-1.23,4.93,4.93,0,0,0,.26-1.67v-2.05a4.93,4.93,0,0,0-.26-1.66,3.53,3.53,0,0,0-.73-1.23,3.07,3.07,0,0,0-1.12-.76,3.78,3.78,0,0,0-1.42-.26h-2.7v9.9h2.7Z" transform="translate(-65.31 -20)"/><path class="cls-12" d="M642.79,479.33l-1.51-2.79h-0.05V487h-1.48V474.44h1.75l4.59,7.67,1.51,2.79h0.05V474.44h1.47V487h-1.75Z" transform="translate(-65.31 -20)"/><path class="cls-12" d="M656,487.22a5.41,5.41,0,0,1-2.61-.58,5.53,5.53,0,0,1-1.84-1.61l1.12-.94a4.87,4.87,0,0,0,1.48,1.34,3.81,3.81,0,0,0,1.91.46,3,3,0,0,0,2.06-.65,2.23,2.23,0,0,0,.71-1.73,1.76,1.76,0,0,0-.54-1.39,4.06,4.06,0,0,0-1.78-.77l-1-.23a6,6,0,0,1-2.64-1.2,2.85,2.85,0,0,1-.91-2.26,3.4,3.4,0,0,1,.31-1.48,3,3,0,0,1,.85-1.08,3.88,3.88,0,0,1,1.31-.66,6,6,0,0,1,1.68-.22,5.29,5.29,0,0,1,2.44.52,4.7,4.7,0,0,1,1.72,1.53l-1.13.83a3.91,3.91,0,0,0-1.26-1.13,3.71,3.71,0,0,0-1.84-.41,3.13,3.13,0,0,0-1.9.51,1.79,1.79,0,0,0-.69,1.54A1.62,1.62,0,0,0,654,479a4.51,4.51,0,0,0,1.77.73l1,0.23a5.34,5.34,0,0,1,2.68,1.26,3.08,3.08,0,0,1,.83,2.25A4,4,0,0,1,660,485a3.22,3.22,0,0,1-.86,1.19,4,4,0,0,1-1.36.76A5.62,5.62,0,0,1,656,487.22Z" transform="translate(-65.31 -20)"/><path class="cls-12" d="M631.72,514.33l-1.51-2.79h-0.05V522h-1.48V509.44h1.75L635,517.1l1.51,2.79h0.05V509.44h1.48V522h-1.75Z" transform="translate(-65.31 -20)"/><path class="cls-12" d="M645.63,510.77V522h-1.51V510.77h-4v-1.33h9.5v1.33h-4Z" transform="translate(-65.31 -20)"/><path class="cls-12" d="M651.7,522V509.44h5a3.41,3.41,0,0,1,2.6,1,4.28,4.28,0,0,1,0,5.27,3.41,3.41,0,0,1-2.6,1h-3.49V522H651.7Zm1.51-6.7h3.49a2,2,0,0,0,1.4-.47,1.75,1.75,0,0,0,.5-1.33v-0.94a1.75,1.75,0,0,0-.5-1.33,2,2,0,0,0-1.4-.47h-3.49v4.54Z" transform="translate(-65.31 -20)"/><path d="M211.81,326a5.48,5.48,0,0,1,0,6.77,4.32,4.32,0,0,1-3.49,1.54,4.42,4.42,0,0,1-3.55-1.54,5.48,5.48,0,0,1,0-6.77,4.42,4.42,0,0,1,3.55-1.54A4.32,4.32,0,0,1,211.81,326Zm-6.13.72a4.65,4.65,0,0,0,0,5.33,3.16,3.16,0,0,0,2.65,1.21,3.12,3.12,0,0,0,2.6-1.21,4.56,4.56,0,0,0,0-5.33,3.12,3.12,0,0,0-2.6-1.21A3.2,3.2,0,0,0,205.68,326.67Zm0.47,11.89a1.07,1.07,0,0,0,.21.76,1.24,1.24,0,0,0,.8.18h11.05a0.45,0.45,0,0,1,.51.51,0.46,0.46,0,0,1-.51.53H206.95a2.18,2.18,0,0,1-1.46-.45,1.68,1.68,0,0,1-.57-1.37V336a0.69,0.69,0,0,1,.18-0.51,0.58,0.58,0,0,1,.43-0.16,0.56,0.56,0,0,1,.41.16,0.65,0.65,0,0,1,.21.51v2.56Zm11.75-2.32a0.56,0.56,0,0,1-.41.16,0.59,0.59,0,0,1-.43-0.16,0.67,0.67,0,0,1-.18-0.49V324.47a0.55,0.55,0,0,1,.18-0.43,0.63,0.63,0,0,1,.43-0.14,0.6,0.6,0,0,1,.41.14,0.47,0.47,0,0,1,.21.41v11.3A0.63,0.63,0,0,1,217.9,336.25Z" transform="translate(-65.31 -20)"/><path d="M241.07,332.78a0.48,0.48,0,0,1-.57.51H224.44a0.43,0.43,0,0,1-.51-0.51,0.51,0.51,0,0,1,.62-0.49h15.91A0.51,0.51,0,0,1,241.07,332.78Zm-1.42-7.87a0.46,0.46,0,0,1-.51.53h-6q0.1,1.39,2,2.46a12.1,12.1,0,0,0,4.7,1.35,0.57,0.57,0,0,1,.43.21,0.54,0.54,0,0,1,.08.41,0.6,0.6,0,0,1-.23.39,0.61,0.61,0,0,1-.49.12,13.82,13.82,0,0,1-4.57-1.27A5.58,5.58,0,0,1,232.5,327a5.44,5.44,0,0,1-2.52,2.11,13.58,13.58,0,0,1-4.53,1.27,0.75,0.75,0,0,1-.55-0.12,0.6,0.6,0,0,1-.23-0.39,0.44,0.44,0,0,1,.08-0.41,0.71,0.71,0,0,1,.51-0.21,11.67,11.67,0,0,0,4.57-1.33q1.95-1.09,2.07-2.48h-6a0.47,0.47,0,0,1-.55-0.53,0.48,0.48,0,0,1,.57-0.51h13.23A0.45,0.45,0,0,1,239.66,324.91Zm-1.68,11a2.21,2.21,0,0,1,0,4.29,17.9,17.9,0,0,1-11,0,2.21,2.21,0,0,1,0-4.29,13.54,13.54,0,0,1,5.5-.86A13.38,13.38,0,0,1,238,335.94Zm-10.09.7a1.64,1.64,0,0,0-1.35,1.46,1.6,1.6,0,0,0,1.35,1.39,19.42,19.42,0,0,0,9.21,0,1.61,1.61,0,0,0,1.37-1.39,1.65,1.65,0,0,0-1.37-1.46A20.14,20.14,0,0,0,227.89,336.64Z" transform="translate(-65.31 -20)"/><path d="M260.08,333.93a0.63,0.63,0,0,1,.8,0,0.55,0.55,0,0,1,.21.45v4.16h7.36a0.66,0.66,0,0,1,.45.14,0.5,0.5,0,0,1,0,.74,0.58,0.58,0,0,1-.43.16h-16.1a0.41,0.41,0,0,1-.35-0.16,0.51,0.51,0,0,1-.1-0.37,0.65,0.65,0,0,1,.16-0.37,0.66,0.66,0,0,1,.45-0.14h7.36v-4.25A0.49,0.49,0,0,1,260.08,333.93Zm7.18-9.33a0.58,0.58,0,0,1,.16.37,0.52,0.52,0,0,1-.12.35,0.39,0.39,0,0,1-.35.18h-11.3a1.05,1.05,0,0,0-.66.16,0.74,0.74,0,0,0-.21.57v5.21a0.71,0.71,0,0,0,.18.55,0.88,0.88,0,0,0,.64.18h11.5a0.46,0.46,0,0,1,.53.51,0.43,0.43,0,0,1-.49.51H255.51a1.94,1.94,0,0,1-1.44-.51,1.73,1.73,0,0,1-.51-1.31v-4.9a1.86,1.86,0,0,1,2.07-2.05h11.22A0.52,0.52,0,0,1,267.26,324.6Z" transform="translate(-65.31 -20)"/><path d="M280.2,325a1.57,1.57,0,0,1,.51,1.21v11.42a1.5,1.5,0,0,1-.55,1.23,2.18,2.18,0,0,1-1.46.45h-3.12a1.81,1.81,0,0,1-1.27-.43,1.65,1.65,0,0,1-.47-1.25V326.3a1.75,1.75,0,0,1,.49-1.29,2,2,0,0,1,1.42-.49h3.06A2,2,0,0,1,280.2,325Zm-0.9.76a0.93,0.93,0,0,0-.64-0.18h-2.81a0.79,0.79,0,0,0-.62.21,1,1,0,0,0-.18.68v11a0.81,0.81,0,0,0,.18.62,0.92,0.92,0,0,0,.66.18h2.67a1.19,1.19,0,0,0,.7-0.16,0.62,0.62,0,0,0,.25-0.55V326.36A0.79,0.79,0,0,0,279.3,325.75Zm4.43-1.7a0.63,0.63,0,0,1,.43-0.14,0.53,0.53,0,0,1,.41.12,0.47,0.47,0,0,1,.21.41v16a0.61,0.61,0,0,1-.21.47,0.56,0.56,0,0,1-.41.16,0.58,0.58,0,0,1-.43-0.16,0.64,0.64,0,0,1-.18-0.47v-8.35h-2.77a0.6,0.6,0,0,1-.47-0.18,0.45,0.45,0,0,1-.16-0.35,0.47,0.47,0,0,1,.16-0.37,0.61,0.61,0,0,1,.45-0.16h2.79v-6.52A0.51,0.51,0,0,1,283.73,324Zm4.7,16.84a0.54,0.54,0,0,1-.39.16,0.56,0.56,0,0,1-.41-0.16,0.64,0.64,0,0,1-.18-0.47V324.47a0.55,0.55,0,0,1,.18-0.43,0.6,0.6,0,0,1,.41-0.14,0.57,0.57,0,0,1,.39.14,0.47,0.47,0,0,1,.21.41v16A0.61,0.61,0,0,1,288.43,340.88Z" transform="translate(-65.31 -20)"/><path d="M302.8,326a5.48,5.48,0,0,1,0,6.77,4.32,4.32,0,0,1-3.49,1.54,4.42,4.42,0,0,1-3.55-1.54,5.48,5.48,0,0,1,0-6.77,4.42,4.42,0,0,1,3.55-1.54A4.32,4.32,0,0,1,302.8,326Zm-6.13.72a4.65,4.65,0,0,0,0,5.33,3.16,3.16,0,0,0,2.65,1.21,3.12,3.12,0,0,0,2.6-1.21,4.56,4.56,0,0,0,0-5.33,3.12,3.12,0,0,0-2.6-1.21A3.2,3.2,0,0,0,296.67,326.67Zm0.47,11.89a1.07,1.07,0,0,0,.21.76,1.24,1.24,0,0,0,.8.18H309.2a0.45,0.45,0,0,1,.51.51,0.46,0.46,0,0,1-.51.53H297.94a2.18,2.18,0,0,1-1.46-.45,1.68,1.68,0,0,1-.57-1.37V336a0.69,0.69,0,0,1,.18-0.51,0.58,0.58,0,0,1,.43-0.16,0.56,0.56,0,0,1,.41.16,0.65,0.65,0,0,1,.21.51v2.56Zm11.75-2.32a0.56,0.56,0,0,1-.41.16,0.59,0.59,0,0,1-.43-0.16,0.67,0.67,0,0,1-.18-0.49V324.47a0.55,0.55,0,0,1,.18-0.43,0.63,0.63,0,0,1,.43-0.14,0.6,0.6,0,0,1,.41.14,0.47,0.47,0,0,1,.21.41v11.3A0.63,0.63,0,0,1,308.89,336.25Z" transform="translate(-65.31 -20)"/><path d="M211.81,351.89a10.65,10.65,0,0,1,1.17,5.25,10.44,10.44,0,0,1-1.17,5.19,3.87,3.87,0,0,1-3.49,2.3,3.94,3.94,0,0,1-3.55-2.3,10.44,10.44,0,0,1-1.17-5.19,10.65,10.65,0,0,1,1.17-5.25,3.94,3.94,0,0,1,3.55-2.28A3.87,3.87,0,0,1,211.81,351.89Zm-6.11.72a12.25,12.25,0,0,0,0,9,2.71,2.71,0,0,0,5.21,0,12.25,12.25,0,0,0,0-9A2.71,2.71,0,0,0,205.7,352.61Zm12.2,13.47a0.56,0.56,0,0,1-.41.16,0.58,0.58,0,0,1-.43-0.16,0.64,0.64,0,0,1-.18-0.47v-16a0.55,0.55,0,0,1,.18-0.43,0.7,0.7,0,0,1,.43-0.12,0.66,0.66,0,0,1,.41.12,0.52,0.52,0,0,1,.21.43v16A0.61,0.61,0,0,1,217.9,366.08Z" transform="translate(-65.31 -20)"/><path d="M240.91,357.49a0.45,0.45,0,0,1,.16.35,0.52,0.52,0,0,1-.12.35,0.56,0.56,0,0,1-.41.16h-16a0.48,0.48,0,0,1-.57-0.51,0.51,0.51,0,0,1,.62-0.49h15.91A0.66,0.66,0,0,1,240.91,357.49Zm-2-7.85a1.1,1.1,0,0,1,.49.94v1.13a1.18,1.18,0,0,1-.45,1,1.86,1.86,0,0,1-1.17.31H227.6a1.11,1.11,0,0,0-.66.14,0.46,0.46,0,0,0-.14.37v0.55a0.46,0.46,0,0,0,.14.37,0.84,0.84,0,0,0,.59.16H239a0.66,0.66,0,0,1,.45.14,0.51,0.51,0,0,1,.16.37,0.55,0.55,0,0,1-.14.37,0.52,0.52,0,0,1-.41.16H227.23a1.9,1.9,0,0,1-1.25-.35,1.27,1.27,0,0,1-.41-1v-0.94a1.28,1.28,0,0,1,.43-1,2,2,0,0,1,1.23-.35h10a1.21,1.21,0,0,0,.68-0.16,0.44,0.44,0,0,0,.25-0.39v-0.49a0.5,0.5,0,0,0-.23-0.45,1.33,1.33,0,0,0-.66-0.12H226.18a0.51,0.51,0,0,1-.62-0.53,0.53,0.53,0,0,1,.64-0.51h11.46A2.24,2.24,0,0,1,238.94,349.63Zm0,10.81a1.25,1.25,0,0,1,.51,1v2.69a1.49,1.49,0,0,1-.45,1.13,1.61,1.61,0,0,1-1.19.45H227.27a1.75,1.75,0,0,1-1.25-.41,1.45,1.45,0,0,1-.45-1.13v-2.56a1.57,1.57,0,0,1,.45-1.19,1.81,1.81,0,0,1,1.27-.43h10.34A2,2,0,0,1,238.92,360.44Zm-0.94.8a1.19,1.19,0,0,0-.7-0.16h-9.62a1,1,0,0,0-.7.18,0.8,0.8,0,0,0-.16.57V364a0.74,0.74,0,0,0,.18.57,1.22,1.22,0,0,0,.74.16h9.6a1.17,1.17,0,0,0,.66-0.14,0.59,0.59,0,0,0,.23-0.51v-2.28A0.58,0.58,0,0,0,238,361.24Z" transform="translate(-65.31 -20)"/><path d="M267,358a0.46,0.46,0,0,1-.51.53h-7.46v3.28a0.63,0.63,0,0,1-.21.49,0.53,0.53,0,0,1-.39.16,0.6,0.6,0,0,1-.41-0.14,0.57,0.57,0,0,1-.18-0.45v-3.34H250.4a0.44,0.44,0,0,1-.51-0.53,0.52,0.52,0,0,1,.62-0.51h16A0.48,0.48,0,0,1,267,358Zm-15-3.24a1.52,1.52,0,0,1-.51-1.23v-3.59a0.67,0.67,0,0,1,.18-0.49,0.58,0.58,0,0,1,.43-0.16,0.56,0.56,0,0,1,.41.16,0.63,0.63,0,0,1,.21.49v1.25h11.4v-1.31a0.57,0.57,0,0,1,.18-0.45,0.58,0.58,0,0,1,.43-0.16,0.56,0.56,0,0,1,.41.16,0.55,0.55,0,0,1,.21.45v3.51a1.75,1.75,0,0,1-.51,1.35,2,2,0,0,1-1.46.47h-9.95A2.1,2.1,0,0,1,252,354.74Zm0.72,9a1.07,1.07,0,0,0,.21.76,1.2,1.2,0,0,0,.78.18h11.34a0.46,0.46,0,0,1,.53.51,0.47,0.47,0,0,1-.53.53H253.29a1.67,1.67,0,0,1-1.29-.51,1.79,1.79,0,0,1-.47-1.29v-2.3a0.83,0.83,0,0,1,.18-0.57,0.55,0.55,0,0,1,.43-0.18,0.53,0.53,0,0,1,.41.18,0.78,0.78,0,0,1,.21.57v2.11Zm0-11.55v1.13a0.82,0.82,0,0,0,.18.59,0.93,0.93,0,0,0,.68.21h9.6a1,1,0,0,0,.72-0.21,0.75,0.75,0,0,0,.23-0.62v-1.11h-11.4Z" transform="translate(-65.31 -20)"/><path d="M275.95,349.55a0.55,0.55,0,0,1,.43-0.14,0.63,0.63,0,0,1,.43.16,0.65,0.65,0,0,1,.21.51,6.34,6.34,0,0,1-.21,1.48,10.59,10.59,0,0,1-.49,1.62,20.35,20.35,0,0,1,2.79,2,22.63,22.63,0,0,1,2.48,2.5,0.64,0.64,0,0,1,.18.49,0.51,0.51,0,0,1-.21.41,0.55,0.55,0,0,1-.43.14,0.63,0.63,0,0,1-.47-0.27,18.75,18.75,0,0,0-2.4-2.54,15.32,15.32,0,0,0-2.38-1.76,14.09,14.09,0,0,1-1.54,2.34,14.72,14.72,0,0,1-2.44,2.34,0.8,0.8,0,0,1-.51.14,0.47,0.47,0,0,1-.37-0.16,0.42,0.42,0,0,1-.12-0.39,0.64,0.64,0,0,1,.31-0.45,13.16,13.16,0,0,0,3.53-4.14,8.24,8.24,0,0,0,1-3.81A0.57,0.57,0,0,1,275.95,349.55Zm9.6,11.42a1.67,1.67,0,0,1,.51,1.29v3.36a0.59,0.59,0,0,1-.62.62,0.63,0.63,0,0,1-.43-0.14,0.64,0.64,0,0,1-.18-0.47v-3.32a0.71,0.71,0,0,0-.18-0.55,1,1,0,0,0-.66-0.18H272.85a0.48,0.48,0,0,1-.55-0.53,0.47,0.47,0,0,1,.55-0.53h11.24A2.07,2.07,0,0,1,285.55,361Zm0.31-2.69a0.56,0.56,0,0,1-.41.16,0.58,0.58,0,0,1-.43-0.16,0.64,0.64,0,0,1-.18-0.47v-3.57h-5.19a0.71,0.71,0,0,1-.49-0.16,0.51,0.51,0,0,1-.16-0.37,0.55,0.55,0,0,1,.14-0.37,0.69,0.69,0,0,1,.47-0.14h5.23v-3.53a0.55,0.55,0,0,1,.18-0.43,0.63,0.63,0,0,1,.43-0.14,0.6,0.6,0,0,1,.41.14,0.47,0.47,0,0,1,.21.41v8.16A0.6,0.6,0,0,1,285.85,358.29Z" transform="translate(-65.31 -20)"/><path d="M509,322.6a0.66,0.66,0,0,1,.82,0,0.57,0.57,0,0,1,.21.47v11.75a1,1,0,0,0,.27.76,1.21,1.21,0,0,0,.78.21,18,18,0,0,0,2.81-.21,10.67,10.67,0,0,0,2.15-.49,0.52,0.52,0,0,1,.45,0,0.5,0.5,0,0,1,.25.31,0.67,0.67,0,0,1-.06.43,0.72,0.72,0,0,1-.39.33,12.5,12.5,0,0,1-2.36.49,24,24,0,0,1-3.16.18,1.82,1.82,0,0,1-1.44-.57,2,2,0,0,1-.51-1.48V323.09A0.67,0.67,0,0,1,509,322.6Zm10.09,16.28a0.6,0.6,0,0,1-.82,0,0.64,0.64,0,0,1-.18-0.47v-8.94h-3.57a0.71,0.71,0,0,1-.49-0.16,0.6,0.6,0,0,1-.18-0.37,0.55,0.55,0,0,1,.14-0.37,0.58,0.58,0,0,1,.43-0.14h3.67v-5.95a0.54,0.54,0,0,1,.18-0.43,0.66,0.66,0,0,1,.82,0,0.47,0.47,0,0,1,.21.41v16A0.61,0.61,0,0,1,519.13,338.88Zm4.31,0a0.54,0.54,0,0,1-.39.16,0.56,0.56,0,0,1-.41-0.16,0.64,0.64,0,0,1-.18-0.47V322.47a0.55,0.55,0,0,1,.18-0.43,0.6,0.6,0,0,1,.41-0.14,0.57,0.57,0,0,1,.39.14,0.47,0.47,0,0,1,.21.41v16A0.61,0.61,0,0,1,523.43,338.88Z" transform="translate(-65.31 -20)"/><path d="M545.89,336.73a0.52,0.52,0,0,1,.06.74,0.41,0.41,0,0,1-.35.16H529.38a0.41,0.41,0,0,1-.35-0.16,0.51,0.51,0,0,1-.1-0.37,0.65,0.65,0,0,1,.16-0.37,0.66,0.66,0,0,1,.45-0.14h15.89A0.66,0.66,0,0,1,545.89,336.73Zm-1.39-14.13a0.5,0.5,0,0,1,.14.37,0.41,0.41,0,0,1-.12.35,0.47,0.47,0,0,1-.39.18H532.8a1.21,1.21,0,0,0-.78.21,1,1,0,0,0-.23.72v2.28h12a0.49,0.49,0,0,1,.59.51,0.5,0.5,0,0,1-.59.53h-12v2.67a0.79,0.79,0,0,0,.21.62,1,1,0,0,0,.7.21h11.36a0.63,0.63,0,0,1,.43.14,0.55,0.55,0,0,1,.14.37,0.47,0.47,0,0,1-.12.37,0.49,0.49,0,0,1-.39.16H532.52a2,2,0,0,1-1.44-.47,1.67,1.67,0,0,1-.51-1.29v-6.23a1.82,1.82,0,0,1,.49-1.31,2.05,2.05,0,0,1,1.52-.53H544A0.65,0.65,0,0,1,544.49,322.6Z" transform="translate(-65.31 -20)"/><path d="M552.84,332.09l-2.62,0a0.43,0.43,0,0,1-.49-0.51,0.48,0.48,0,0,1,.55-0.51q3,0,5.8-.1,3.28-.08,5.58-0.27a0.66,0.66,0,0,1,.47.08,0.52,0.52,0,0,1,.21.33,0.48,0.48,0,0,1-.1.35,0.64,0.64,0,0,1-.39.21q-1.23.1-2.6,0.18t-2.46.12v2.48a6.52,6.52,0,0,1-.35,2.26,3.84,3.84,0,0,1-1,1.52,0.56,0.56,0,0,1-.84,0,0.49,0.49,0,0,1,0-.8,3,3,0,0,0,.72-1.23,5.63,5.63,0,0,0,.21-1.68v-2.5Zm7.4-8.63a2.83,2.83,0,0,1,1.35,2.36,2.8,2.8,0,0,1-1.35,2.32,8.15,8.15,0,0,1-8.06,0,2.82,2.82,0,0,1-1.31-2.32,2.85,2.85,0,0,1,1.31-2.36A8.29,8.29,0,0,1,560.24,323.46Zm-7.14.72a1.79,1.79,0,0,0,0,3.24,5.72,5.72,0,0,0,3.12.74,5.78,5.78,0,0,0,3.12-.74,1.92,1.92,0,0,0,1-1.6,2,2,0,0,0-1-1.64,5.91,5.91,0,0,0-3.12-.72A5.85,5.85,0,0,0,553.11,324.18Zm11.79,14.71a0.56,0.56,0,0,1-.41.16,0.58,0.58,0,0,1-.43-0.16,0.64,0.64,0,0,1-.18-0.47v-4H560a0.69,0.69,0,0,1-.51-0.18,0.43,0.43,0,0,1-.18-0.35,0.5,0.5,0,0,1,.14-0.37,0.71,0.71,0,0,1,.49-0.16h3.94V322.47a0.55,0.55,0,0,1,.18-0.43,0.63,0.63,0,0,1,.43-0.14,0.6,0.6,0,0,1,.41.14,0.47,0.47,0,0,1,.21.41v16A0.61,0.61,0,0,1,564.9,338.88Z" transform="translate(-65.31 -20)"/><path d="M587.89,336.73a0.52,0.52,0,0,1,.06.74,0.41,0.41,0,0,1-.35.16H571.38a0.41,0.41,0,0,1-.35-0.16,0.51,0.51,0,0,1-.1-0.37,0.65,0.65,0,0,1,.16-0.37,0.66,0.66,0,0,1,.45-0.14h15.89A0.66,0.66,0,0,1,587.89,336.73Zm-3-7.83a0.48,0.48,0,0,1-.47.57q-2.65.29-5.8,0.47t-6,.18a0.52,0.52,0,0,1-.59-0.53,0.48,0.48,0,0,1,.59-0.51q2.75,0,5.87-.16,3.4-.16,5.87-0.45A0.41,0.41,0,0,1,584.92,328.89Zm0.9-6a1.6,1.6,0,0,1,.62,1.31v3.88a31.94,31.94,0,0,1-.25,4.55,16.73,16.73,0,0,1-1.09,3.92h-1.25a14.91,14.91,0,0,0,1.15-3.9,33.59,33.59,0,0,0,.21-4.43v-4a0.69,0.69,0,0,0-.25-0.59,1.17,1.17,0,0,0-.76-0.21h-11a0.47,0.47,0,0,1-.53-0.53,0.48,0.48,0,0,1,.55-0.53h11A2.42,2.42,0,0,1,585.82,322.93Z" transform="translate(-65.31 -20)"/><path d="M602.2,322.5a0.59,0.59,0,0,1,.82,0,0.55,0.55,0,0,1,.21.45,18,18,0,0,1-.16,2.28q-0.14,1.23-.35,2.21a35.64,35.64,0,0,1,3,4.57,32.6,32.6,0,0,1,2,4.37,0.77,0.77,0,0,1,0,.57,0.56,0.56,0,0,1-.31.33,0.49,0.49,0,0,1-.43,0,0.81,0.81,0,0,1-.35-0.41q-0.8-2-1.87-4.14a24.66,24.66,0,0,0-2.38-4,26,26,0,0,1-1.68,4.51,20.5,20.5,0,0,1-2.6,4,0.56,0.56,0,0,1-.43.21,0.5,0.5,0,0,1-.39-0.12,0.51,0.51,0,0,1-.18-0.39,0.69,0.69,0,0,1,.23-0.49,17.76,17.76,0,0,0,3.61-6.69,22.61,22.61,0,0,0,1.09-6.79A0.57,0.57,0,0,1,602.2,322.5Zm9.66,16.39a0.56,0.56,0,0,1-.41.16,0.58,0.58,0,0,1-.43-0.16,0.64,0.64,0,0,1-.18-0.47v-16A0.55,0.55,0,0,1,611,322a0.7,0.7,0,0,1,.43-0.12,0.66,0.66,0,0,1,.41.12,0.52,0.52,0,0,1,.21.43v16A0.61,0.61,0,0,1,611.86,338.88Z" transform="translate(-65.31 -20)"/><path d="M626.7,323a1.63,1.63,0,0,1,.57,1.33v1.11a5.82,5.82,0,0,1-2.32,4.66,10.5,10.5,0,0,1-6.19,2.21,0.78,0.78,0,0,1-.49-0.14,0.54,0.54,0,0,1-.18-0.37,0.47,0.47,0,0,1,.12-0.37,0.71,0.71,0,0,1,.49-0.16,9.52,9.52,0,0,0,5.48-1.89,4.91,4.91,0,0,0,1.93-4v-1a0.78,0.78,0,0,0-.25-0.64,1,1,0,0,0-.68-0.21H619a0.49,0.49,0,0,1-.57-0.53,0.46,0.46,0,0,1,.55-0.51h6.15A2.35,2.35,0,0,1,626.7,323ZM621,336.56a1.07,1.07,0,0,0,.21.76,1.2,1.2,0,0,0,.78.18h10.46a0.46,0.46,0,0,1,.53.51,0.47,0.47,0,0,1-.53.53H621.84a2.15,2.15,0,0,1-1.52-.51,1.79,1.79,0,0,1-.51-1.35V334a0.72,0.72,0,0,1,.18-0.53,0.55,0.55,0,0,1,.82,0,0.68,0.68,0,0,1,.21.53v2.58Zm13.66-8.49a0.46,0.46,0,0,1,.53.51,0.47,0.47,0,0,1-.53.53h-2.24v4.68a0.55,0.55,0,0,1-.21.45,0.6,0.6,0,0,1-.82,0,0.57,0.57,0,0,1-.18-0.45V322.45a0.51,0.51,0,0,1,.59-0.55,0.52,0.52,0,0,1,.62.55v5.62h2.24Z" transform="translate(-65.31 -20)"/><path d="M524.91,355.94a0.5,0.5,0,0,1,0,.74,0.58,0.58,0,0,1-.43.16h-16.1a0.41,0.41,0,0,1-.35-0.16,0.51,0.51,0,0,1-.1-0.37,0.65,0.65,0,0,1,.16-0.37,0.66,0.66,0,0,1,.45-0.14h7.34v-2.21a0.51,0.51,0,0,1,.59-0.55,0.48,0.48,0,0,1,.59.51v2.26h7.38A0.66,0.66,0,0,1,524.91,355.94Zm-2.93,3.2a2.21,2.21,0,0,1,0,4.29,17.9,17.9,0,0,1-11,0,2.21,2.21,0,0,1,0-4.29,13.54,13.54,0,0,1,5.5-.86A13.38,13.38,0,0,1,522,359.14Zm-11.89-6.44a1.64,1.64,0,0,1-.51-1.27v-2.36a1.6,1.6,0,0,1,.49-1.21,2,2,0,0,1,1.37-.45h11.42a0.52,0.52,0,0,1,.41.16,0.58,0.58,0,0,1,.16.37,0.52,0.52,0,0,1-.12.35,0.39,0.39,0,0,1-.35.18H511.64a1,1,0,0,0-.64.16,0.62,0.62,0,0,0-.21.51v2.21a0.71,0.71,0,0,0,.18.55,0.88,0.88,0,0,0,.64.18h11.5a0.47,0.47,0,0,1,.53.53,0.44,0.44,0,0,1-.49.53H511.56A2.15,2.15,0,0,1,510.08,352.7Zm1.8,7.14a1.64,1.64,0,0,0-1.35,1.46,1.6,1.6,0,0,0,1.35,1.39,19.42,19.42,0,0,0,9.21,0,1.61,1.61,0,0,0,1.37-1.39,1.65,1.65,0,0,0-1.37-1.46A20.14,20.14,0,0,0,511.89,359.84Z" transform="translate(-65.31 -20)"/><path d="M537.75,348.25a1.8,1.8,0,0,1,.57,1.42v2.42a10.72,10.72,0,0,1-2.48,7.46,8.55,8.55,0,0,1-6.07,2.81,0.49,0.49,0,0,1-.62-0.49,0.48,0.48,0,0,1,.53-0.55,7.9,7.9,0,0,0,5.41-2.56,10,10,0,0,0,2.05-6.71v-2.4a0.85,0.85,0,0,0-.25-0.66,1.11,1.11,0,0,0-.74-0.23h-6.09a0.49,0.49,0,0,1-.57-0.53,0.46,0.46,0,0,1,.55-0.51h6.07A2.34,2.34,0,0,1,537.75,348.25Zm6.15,15.83a0.56,0.56,0,0,1-.41.16,0.58,0.58,0,0,1-.43-0.16,0.64,0.64,0,0,1-.18-0.47v-16a0.55,0.55,0,0,1,.18-0.43,0.7,0.7,0,0,1,.43-0.12,0.66,0.66,0,0,1,.41.12,0.52,0.52,0,0,1,.21.43v16A0.61,0.61,0,0,1,543.9,364.08Z" transform="translate(-65.31 -20)"/><path d="M559.1,361.46a22.13,22.13,0,0,0,2.69-.7,0.48,0.48,0,0,1,.72.27,0.51,0.51,0,0,1-.33.68,23.35,23.35,0,0,1-5.25,1.07,63.53,63.53,0,0,1-6.48.27,0.78,0.78,0,0,1-.53-0.16,0.49,0.49,0,0,1-.18-0.37,0.55,0.55,0,0,1,.14-0.37,0.75,0.75,0,0,1,.47-0.14l2.17,0,3-.08v-3.51h1.21v3.42A19.45,19.45,0,0,0,559.1,361.46Zm2.32-11.18a0.58,0.58,0,0,1,.16.37,0.47,0.47,0,0,1-.14.35,0.49,0.49,0,0,1-.41.18h-9.76a0.53,0.53,0,1,1,0-1.07h9.68A0.68,0.68,0,0,1,561.41,350.28Zm-1.89,3.18a2.76,2.76,0,0,1,1.15,2.21,2.84,2.84,0,0,1-1.15,2.26,5.18,5.18,0,0,1-3.38,1,5.37,5.37,0,0,1-3.47-1,2.81,2.81,0,0,1-1.13-2.26,2.74,2.74,0,0,1,1.13-2.21,5.5,5.5,0,0,1,3.47-1A5.3,5.3,0,0,1,559.53,353.46Zm0-5.27a0.46,0.46,0,0,1-.55.51h-5.72a0.52,0.52,0,1,1,0-1H559A0.49,0.49,0,0,1,559.55,348.19Zm-6,6a1.8,1.8,0,0,0-.8,1.5,1.87,1.87,0,0,0,.8,1.54,4.17,4.17,0,0,0,2.56.7,4,4,0,0,0,2.5-.7,1.87,1.87,0,0,0,.8-1.54,1.8,1.8,0,0,0-.8-1.5,4.09,4.09,0,0,0-2.5-.68A4.26,4.26,0,0,0,553.58,354.18Zm13.12,1.13a0.53,0.53,0,0,1,.58.49,0.52,0.52,0,0,1-.12.35,0.41,0.41,0,0,1-.35.16h-2.31v7.34a0.52,0.52,0,0,1-.21.43,0.59,0.59,0,0,1-.82,0,0.57,0.57,0,0,1-.18-0.45v-16a0.55,0.55,0,0,1,.18-0.43,0.66,0.66,0,0,1,.82,0,0.47,0.47,0,0,1,.21.41v7.65h2.21Z" transform="translate(-65.31 -20)"/><path d="M338.09,466.93a0.63,0.63,0,0,1,.8,0,0.55,0.55,0,0,1,.21.45v4.16h7.36a0.66,0.66,0,0,1,.45.14,0.5,0.5,0,0,1,0,.74,0.58,0.58,0,0,1-.43.16h-16.1a0.41,0.41,0,0,1-.35-0.16,0.51,0.51,0,0,1-.1-0.37,0.65,0.65,0,0,1,.16-0.37,0.66,0.66,0,0,1,.45-0.14h7.36v-4.25A0.49,0.49,0,0,1,338.09,466.93Zm7.18-9.33a0.58,0.58,0,0,1,.16.37,0.52,0.52,0,0,1-.12.35,0.39,0.39,0,0,1-.35.18h-11.3a1.05,1.05,0,0,0-.66.16,0.74,0.74,0,0,0-.21.57v5.21a0.71,0.71,0,0,0,.18.55,0.88,0.88,0,0,0,.64.18h11.5a0.46,0.46,0,0,1,.53.51,0.43,0.43,0,0,1-.49.51H333.52a1.94,1.94,0,0,1-1.44-.51,1.73,1.73,0,0,1-.51-1.31v-4.9a1.86,1.86,0,0,1,2.07-2.05h11.22A0.52,0.52,0,0,1,345.27,457.6Z" transform="translate(-65.31 -20)"/><path d="M358.21,458a1.57,1.57,0,0,1,.51,1.21v11.42a1.5,1.5,0,0,1-.55,1.23,2.18,2.18,0,0,1-1.46.45H353.6a1.81,1.81,0,0,1-1.27-.43,1.65,1.65,0,0,1-.47-1.25V459.3a1.75,1.75,0,0,1,.49-1.29,2,2,0,0,1,1.42-.49h3.06A2,2,0,0,1,358.21,458Zm-0.9.76a0.93,0.93,0,0,0-.64-0.18h-2.81a0.79,0.79,0,0,0-.62.21,1,1,0,0,0-.18.68v11a0.81,0.81,0,0,0,.18.62,0.92,0.92,0,0,0,.66.18h2.67a1.19,1.19,0,0,0,.7-0.16,0.62,0.62,0,0,0,.25-0.55V459.36A0.79,0.79,0,0,0,357.31,458.75Zm4.43-1.7a0.63,0.63,0,0,1,.43-0.14,0.53,0.53,0,0,1,.41.12,0.47,0.47,0,0,1,.21.41v16a0.61,0.61,0,0,1-.21.47,0.56,0.56,0,0,1-.41.16,0.58,0.58,0,0,1-.43-0.16,0.64,0.64,0,0,1-.18-0.47v-8.35h-2.77a0.6,0.6,0,0,1-.47-0.18,0.45,0.45,0,0,1-.16-0.35,0.47,0.47,0,0,1,.16-0.37,0.61,0.61,0,0,1,.45-0.16h2.79v-6.52A0.51,0.51,0,0,1,361.74,457Zm4.7,16.84a0.54,0.54,0,0,1-.39.16,0.56,0.56,0,0,1-.41-0.16,0.64,0.64,0,0,1-.18-0.47V457.47a0.55,0.55,0,0,1,.18-0.43,0.6,0.6,0,0,1,.41-0.14,0.57,0.57,0,0,1,.39.14,0.47,0.47,0,0,1,.21.41v16A0.61,0.61,0,0,1,366.43,473.88Z" transform="translate(-65.31 -20)"/><path d="M380.81,459a5.48,5.48,0,0,1,0,6.77,4.32,4.32,0,0,1-3.49,1.54,4.42,4.42,0,0,1-3.55-1.54,5.48,5.48,0,0,1,0-6.77,4.42,4.42,0,0,1,3.55-1.54A4.32,4.32,0,0,1,380.81,459Zm-6.13.72a4.65,4.65,0,0,0,0,5.33,3.16,3.16,0,0,0,2.65,1.21,3.12,3.12,0,0,0,2.6-1.21,4.56,4.56,0,0,0,0-5.33,3.12,3.12,0,0,0-2.6-1.21A3.2,3.2,0,0,0,374.68,459.67Zm0.47,11.89a1.07,1.07,0,0,0,.21.76,1.24,1.24,0,0,0,.8.18h11.05a0.45,0.45,0,0,1,.51.51,0.46,0.46,0,0,1-.51.53H375.95a2.18,2.18,0,0,1-1.46-.45,1.68,1.68,0,0,1-.57-1.37V469a0.69,0.69,0,0,1,.18-0.51,0.58,0.58,0,0,1,.43-0.16,0.56,0.56,0,0,1,.41.16,0.65,0.65,0,0,1,.21.51v2.56Zm11.75-2.32a0.56,0.56,0,0,1-.41.16,0.59,0.59,0,0,1-.43-0.16,0.67,0.67,0,0,1-.18-0.49V457.47a0.55,0.55,0,0,1,.18-0.43,0.63,0.63,0,0,1,.43-0.14,0.6,0.6,0,0,1,.41.14,0.47,0.47,0,0,1,.21.41v11.3A0.63,0.63,0,0,1,386.9,469.25Z" transform="translate(-65.31 -20)"/><path d="M406.77,459.69a10.65,10.65,0,0,1,1.17,5.25,10.44,10.44,0,0,1-1.17,5.19,3.87,3.87,0,0,1-3.49,2.3,3.94,3.94,0,0,1-3.55-2.3,10.44,10.44,0,0,1-1.17-5.19,10.65,10.65,0,0,1,1.17-5.25,3.94,3.94,0,0,1,3.55-2.28A3.87,3.87,0,0,1,406.77,459.69Zm-6.11.72a12.25,12.25,0,0,0,0,9,2.71,2.71,0,0,0,5.21,0,12.25,12.25,0,0,0,0-9A2.71,2.71,0,0,0,400.65,460.41Zm12.2,13.47a0.56,0.56,0,0,1-.41.16,0.58,0.58,0,0,1-.43-0.16,0.64,0.64,0,0,1-.18-0.47v-16A0.55,0.55,0,0,1,412,457a0.7,0.7,0,0,1,.43-0.12,0.66,0.66,0,0,1,.41.12,0.52,0.52,0,0,1,.21.43v16A0.61,0.61,0,0,1,412.86,473.88Z" transform="translate(-65.31 -20)"/><path d="M435.87,465.29a0.45,0.45,0,0,1,.16.35,0.52,0.52,0,0,1-.12.35,0.56,0.56,0,0,1-.41.16h-16a0.48,0.48,0,0,1-.57-0.51,0.51,0.51,0,0,1,.62-0.49h15.91A0.66,0.66,0,0,1,435.87,465.29Zm-2-7.85a1.1,1.1,0,0,1,.49.94v1.13a1.18,1.18,0,0,1-.45,1,1.86,1.86,0,0,1-1.17.31H422.56a1.11,1.11,0,0,0-.66.14,0.46,0.46,0,0,0-.14.37v0.55a0.46,0.46,0,0,0,.14.37,0.84,0.84,0,0,0,.59.16H434a0.66,0.66,0,0,1,.45.14,0.51,0.51,0,0,1,.16.37,0.55,0.55,0,0,1-.14.37,0.52,0.52,0,0,1-.41.16H422.19a1.9,1.9,0,0,1-1.25-.35,1.27,1.27,0,0,1-.41-1v-0.94a1.28,1.28,0,0,1,.43-1,2,2,0,0,1,1.23-.35h10a1.21,1.21,0,0,0,.68-0.16,0.44,0.44,0,0,0,.25-0.39v-0.49a0.5,0.5,0,0,0-.23-0.45,1.33,1.33,0,0,0-.66-0.12H421.14a0.51,0.51,0,0,1-.62-0.53,0.53,0.53,0,0,1,.64-0.51h11.46A2.24,2.24,0,0,1,433.9,457.43Zm0,10.81a1.25,1.25,0,0,1,.51,1V472a1.49,1.49,0,0,1-.45,1.13,1.61,1.61,0,0,1-1.19.45H422.23a1.75,1.75,0,0,1-1.25-.41,1.45,1.45,0,0,1-.45-1.13v-2.56a1.57,1.57,0,0,1,.45-1.19,1.81,1.81,0,0,1,1.27-.43h10.34A2,2,0,0,1,433.88,468.24Zm-0.94.8a1.19,1.19,0,0,0-.7-0.16h-9.62a1,1,0,0,0-.7.18,0.8,0.8,0,0,0-.16.57v2.13a0.74,0.74,0,0,0,.18.57,1.22,1.22,0,0,0,.74.16h9.6a1.17,1.17,0,0,0,.66-0.14,0.59,0.59,0,0,0,.23-0.51v-2.28A0.58,0.58,0,0,0,432.93,469Z" transform="translate(-65.31 -20)"/><path d="M462,465.78a0.46,0.46,0,0,1-.51.53H454v3.28a0.63,0.63,0,0,1-.21.49,0.53,0.53,0,0,1-.39.16,0.6,0.6,0,0,1-.41-0.14,0.57,0.57,0,0,1-.18-0.45v-3.34h-7.46a0.44,0.44,0,0,1-.51-0.53,0.52,0.52,0,0,1,.62-0.51h16A0.48,0.48,0,0,1,462,465.78Zm-15-3.24a1.52,1.52,0,0,1-.51-1.23v-3.59a0.67,0.67,0,0,1,.18-0.49,0.58,0.58,0,0,1,.43-0.16,0.56,0.56,0,0,1,.41.16,0.63,0.63,0,0,1,.21.49V459h11.4v-1.31a0.57,0.57,0,0,1,.18-0.45,0.58,0.58,0,0,1,.43-0.16,0.56,0.56,0,0,1,.41.16,0.55,0.55,0,0,1,.21.45v3.51a1.75,1.75,0,0,1-.51,1.35,2,2,0,0,1-1.46.47h-9.95A2.1,2.1,0,0,1,447,462.54Zm0.72,9a1.07,1.07,0,0,0,.21.76,1.2,1.2,0,0,0,.78.18H460a0.46,0.46,0,0,1,.53.51,0.47,0.47,0,0,1-.53.53H448.25A1.67,1.67,0,0,1,447,473a1.79,1.79,0,0,1-.47-1.29v-2.3a0.83,0.83,0,0,1,.18-0.57,0.55,0.55,0,0,1,.43-0.18,0.53,0.53,0,0,1,.41.18,0.78,0.78,0,0,1,.21.57v2.11Zm0-11.55v1.13a0.82,0.82,0,0,0,.18.59,0.93,0.93,0,0,0,.68.21h9.6a1,1,0,0,0,.72-0.21,0.75,0.75,0,0,0,.23-0.62V460h-11.4Z" transform="translate(-65.31 -20)"/><path d="M470.91,457.35a0.55,0.55,0,0,1,.43-0.14,0.63,0.63,0,0,1,.43.16,0.65,0.65,0,0,1,.21.51,6.34,6.34,0,0,1-.21,1.48,10.59,10.59,0,0,1-.49,1.62,20.35,20.35,0,0,1,2.79,2,22.63,22.63,0,0,1,2.48,2.5,0.64,0.64,0,0,1,.18.49,0.51,0.51,0,0,1-.21.41,0.55,0.55,0,0,1-.43.14,0.63,0.63,0,0,1-.47-0.27,18.75,18.75,0,0,0-2.4-2.54,15.32,15.32,0,0,0-2.38-1.76,14.09,14.09,0,0,1-1.54,2.34,14.72,14.72,0,0,1-2.44,2.34,0.8,0.8,0,0,1-.51.14,0.47,0.47,0,0,1-.37-0.16,0.42,0.42,0,0,1-.12-0.39,0.64,0.64,0,0,1,.31-0.45,13.16,13.16,0,0,0,3.53-4.14,8.24,8.24,0,0,0,1-3.81A0.57,0.57,0,0,1,470.91,457.35Zm9.6,11.42a1.67,1.67,0,0,1,.51,1.29v3.36a0.59,0.59,0,0,1-.62.62,0.63,0.63,0,0,1-.43-0.14,0.64,0.64,0,0,1-.18-0.47v-3.32a0.71,0.71,0,0,0-.18-0.55,1,1,0,0,0-.66-0.18H467.81a0.48,0.48,0,0,1-.55-0.53,0.47,0.47,0,0,1,.55-0.53H479A2.07,2.07,0,0,1,480.5,468.78Zm0.31-2.69a0.56,0.56,0,0,1-.41.16,0.58,0.58,0,0,1-.43-0.16,0.64,0.64,0,0,1-.18-0.47V462H474.6a0.71,0.71,0,0,1-.49-0.16,0.51,0.51,0,0,1-.16-0.37,0.55,0.55,0,0,1,.14-0.37,0.69,0.69,0,0,1,.47-0.14h5.23v-3.53A0.54,0.54,0,0,1,480,457a0.63,0.63,0,0,1,.43-0.14,0.6,0.6,0,0,1,.41.14,0.47,0.47,0,0,1,.21.41v8.17A0.61,0.61,0,0,1,480.81,466.09Z" transform="translate(-65.31 -20)"/><line class="cls-8" x1="579.84" y1="273.26" x2="579.84" y2="361.97"/><polygon class="cls-9" points="586.52 359.74 579.84 373.1 573.16 359.74 586.52 359.74 586.52 359.74"/><polygon class="cls-9" points="573.16 275.48 579.84 262.13 586.52 275.48 573.16 275.48 573.16 275.48"/></svg>
