<?xml version="1.0" encoding="UTF-8" standalone="no"?>
<!-- Generator: Adobe Illustrator 21.0.0, SVG Export Plug-In . SVG Version: 6.00 Build 0)  -->

<svg
   xmlns:dc="http://purl.org/dc/elements/1.1/"
   xmlns:cc="http://creativecommons.org/ns#"
   xmlns:rdf="http://www.w3.org/1999/02/22-rdf-syntax-ns#"
   xmlns:svg="http://www.w3.org/2000/svg"
   xmlns="http://www.w3.org/2000/svg"
   xmlns:xlink="http://www.w3.org/1999/xlink"
   xmlns:sodipodi="http://sodipodi.sourceforge.net/DTD/sodipodi-0.dtd"
   xmlns:inkscape="http://www.inkscape.org/namespaces/inkscape"
   version="1.1"
   id="Layer_1"
   x="0px"
   y="0px"
   viewBox="0 0 851 408"
   style="enable-background:new 0 0 851 408;"
   xml:space="preserve"
   inkscape:version="0.91 r13725"
   sodipodi:docname="design_overview.svg"
   inkscape:export-filename="L:\PUB\ABD207\ART\WORK\ship5\vmwaresolutions\archiref\solution\design_overview.png"
   inkscape:export-xdpi="90.291298"
   inkscape:export-ydpi="90.291298"><metadata
     id="metadata201"><rdf:RDF><cc:Work
         rdf:about=""><dc:format>image/svg+xml</dc:format><dc:type
           rdf:resource="http://purl.org/dc/dcmitype/StillImage" /></cc:Work></rdf:RDF></metadata><defs
     id="defs199" /><sodipodi:namedview
     pagecolor="#ffffff"
     bordercolor="#666666"
     borderopacity="1"
     objecttolerance="10"
     gridtolerance="10"
     guidetolerance="10"
     inkscape:pageopacity="0"
     inkscape:pageshadow="2"
     inkscape:window-width="1920"
     inkscape:window-height="1015"
     id="namedview197"
     showgrid="false"
     inkscape:zoom="1.5515759"
     inkscape:cx="435.29622"
     inkscape:cy="204.25"
     inkscape:window-x="-8"
     inkscape:window-y="-8"
     inkscape:window-maximized="1"
     inkscape:current-layer="Layer_1" /><style
     type="text/css"
     id="style3">
	.st0{fill:#F59C57;}
	.st1{fill-rule:evenodd;clip-rule:evenodd;fill:#1DA78D;}
	.st2{fill-rule:evenodd;clip-rule:evenodd;fill:#4C84C5;}
	.st3{fill-rule:evenodd;clip-rule:evenodd;fill:#959595;}
	.st4{fill-rule:evenodd;clip-rule:evenodd;fill:none;}
	.st5{fill:#FFFFFF;}
	.st6{font-family:'IBMPlexSans-Bold';}
	.st7{font-size:18px;}
	.st8{font-family:'IBMPlexSans';}
	.st9{font-size:16px;}
	.st10{font-size:21px;}
	.st11{fill:none;stroke:#FFFFFF;stroke-width:2;stroke-miterlimit:8;}
	.st12{clip-path:url(#SVGID_2_);fill:none;stroke:#FFFFFF;stroke-width:2;stroke-miterlimit:8;}
	.st13{clip-path:url(#SVGID_2_);}
	.st14{clip-path:url(#SVGID_4_);fill:none;stroke:#FFFFFF;stroke-width:2;stroke-miterlimit:8;}
	.st15{clip-path:url(#SVGID_4_);}
	.st16{clip-path:url(#SVGID_6_);fill:none;stroke:#FFFFFF;stroke-width:2;stroke-miterlimit:8;}
	.st17{clip-path:url(#SVGID_8_);fill:none;stroke:#FFFFFF;stroke-width:2;stroke-miterlimit:8;}
	.st18{clip-path:url(#SVGID_8_);}
	.st19{clip-path:url(#SVGID_10_);fill:none;stroke:#FFFFFF;stroke-width:2;stroke-miterlimit:8;}
	.st20{clip-path:url(#SVGID_10_);}
	.st21{clip-path:url(#SVGID_12_);fill:none;stroke:#FFFFFF;stroke-width:2;stroke-miterlimit:8;}
	.st22{clip-path:url(#SVGID_12_);}
	.st23{clip-path:url(#SVGID_14_);fill:none;stroke:#FFFFFF;stroke-width:2;stroke-miterlimit:8;}
	.st24{clip-path:url(#SVGID_14_);}
	.st25{clip-path:url(#SVGID_16_);fill:none;stroke:#FFFFFF;stroke-width:2;stroke-miterlimit:8;}
	.st26{clip-path:url(#SVGID_18_);}
	.st27{clip-path:url(#SVGID_20_);fill:#FFFFFF;}
	.st28{fill-rule:evenodd;clip-rule:evenodd;fill:#F2F2F2;}
	.st29{clip-path:url(#SVGID_22_);}
	.st30{clip-path:url(#SVGID_24_);fill:#FFFFFF;}
	.st31{clip-path:url(#SVGID_24_);fill:none;stroke:#FFFFFF;stroke-width:0.5;stroke-miterlimit:8;}
</style><rect
     x="13.3"
     y="24.9"
     class="st0"
     width="186.9"
     height="237.1"
     id="rect5" /><polygon
     class="st1"
     points="211.9,148.4 839.2,148.4 839.2,260 211.9,260 211.9,148.4 "
     id="polygon7" /><polygon
     class="st2"
     points="211.9,24.5 839.2,24.5 839.2,136.1 211.9,136.1 211.9,24.5 "
     id="polygon9" /><polygon
     class="st3"
     points="9.6,272.3 839.2,272.3 839.2,383 9.6,383 9.6,272.3 "
     id="polygon11" /><rect
     x="31.5"
     y="62"
     class="st4"
     width="168"
     height="45"
     id="rect13" /><text
     class="st5 st6 st7"
     id="text15"
     x="55.4505"
     y="75.319801"
     style="font-size:16.66625023px;font-family:IBMPlexSans;fill:#ffffff;-inkscape-font-specification:'IBMPlexSans, Normal';font-weight:normal;font-style:normal;font-stretch:normal;font-variant:normal;text-anchor:start;text-align:start;writing-mode:lr;line-height:125%;"
     sodipodi:linespacing="125%">공통 서비스</text>
<text
     class="st5 st8 st9"
     id="text17"
     x="86.166801"
     y="124"
     style="font-size:16.66625023px;font-family:IBMPlexSans;fill:#ffffff;-inkscape-font-specification:'IBMPlexSans, Normal';font-weight:normal;font-style:normal;font-stretch:normal;font-variant:normal;text-anchor:start;text-align:start;writing-mode:lr;line-height:125%;"
     sodipodi:linespacing="125%">인증</text>
<text
     transform="matrix(1 0 0 1 88.7376 157)"
     class="st5 st8 st9"
     id="text19">DNS</text>
<text
     transform="matrix(1 0 0 1 89.2557 193)"
     class="st5 st8 st9"
     id="text21">NTP</text>
<text
     class="st5 st8 st9"
     id="text23"
     x="64.389496"
     y="223"
     style="font-size:16.66625023px;font-family:IBMPlexSans;fill:#ffffff;-inkscape-font-specification:'IBMPlexSans, Normal';font-weight:normal;font-style:normal;font-stretch:normal;font-variant:normal;text-anchor:start;text-align:start;writing-mode:lr;line-height:125%;"
     sodipodi:linespacing="125%">인증 기관</text>
<rect
     x="389"
     y="43"
     class="st4"
     width="283"
     height="39"
     id="rect25" /><text
     class="st5 st6 st10"
     id="text27"
     x="469"
     y="58.540001"
     style="font-size:20.99999905px;font-family:Gulim;fill:#ffffff;-inkscape-font-specification:'Gulim, Normal';font-weight:normal;font-style:normal;font-stretch:normal;font-variant:normal;text-anchor:start;text-align:start;writing-mode:lr;line-height:125%;"
     sodipodi:linespacing="125%">인프라 관리</text>
<rect
     x="406"
     y="172"
     class="st4"
     width="217"
     height="45"
     id="rect29" /><text
     class="st5 st6 st10"
     id="text31"
     x="458"
     y="187.53999"
     style="font-size:20.99999905px;font-family:Gulim;fill:#ffffff;-inkscape-font-specification:'Gulim, Normal';font-weight:normal;font-style:normal;font-stretch:normal;font-variant:normal;text-anchor:start;text-align:start;writing-mode:lr;line-height:125%;"
     sodipodi:linespacing="125%">가상 인프라</text>
<rect
     x="317"
     y="300"
     class="st4"
     width="230"
     height="45"
     id="rect33" /><text
     class="st5 st6 st10"
     id="text35"
     x="363"
     y="315.54001"
     style="font-size:20.99999905px;font-family:Gulim;fill:#ffffff;-inkscape-font-specification:'Gulim, Normal';font-weight:normal;font-style:normal;font-stretch:normal;font-variant:normal;text-anchor:start;text-align:start;writing-mode:lr;line-height:125%;"
     sodipodi:linespacing="125%">실제 인프라</text>
<text
     transform="matrix(1 0 0 1 270 110)"
     class="st5 st8 st7"
     id="text37">Platform Services Controller</text>
<text
     transform="matrix(1 0 0 1 568 110)"
     class="st5 st8 st7"
     id="text39">VMware vCenter Server</text>
<text
     transform="matrix(1 0 0 1 261 234.0703)"
     class="st5 st8 st7"
     id="text41">VMware vSphere</text>
<text
     transform="matrix(1 0 0 1 452 234.0703)"
     class="st5 st8 st7"
     id="text43">VMware NSX</text>
<text
     transform="matrix(1 0 0 1 629 234.0703)"
     class="st5 st8 st7"
     id="text45"
     sodipodi:linespacing="125%">VMware vSAN(<tspan
   style="-inkscape-font-specification:'Gulim, Normal';font-family:Gulim;font-weight:normal;font-style:normal;font-stretch:normal;font-variant:normal;font-size:17.99999952px;text-anchor:start;text-align:start;writing-mode:lr;line-height:125%"
   id="tspan4408">선택사항</tspan>)</text>
<polygon
     style="fill:none;stroke:#ffffff;stroke-width:2;stroke-miterlimit:8"
     id="polygon49"
     points="620.8,220.5 620.7,220.1 620.2,219.7 619.4,219.2 618.5,218.7 617.3,218.4 616,218.2 614.6,217.9 612.9,217.9 611.3,217.9 609.9,218.2 608.6,218.4 607.4,218.7 606.5,219.2 605.7,219.7 605.2,220.1 605.1,220.5 605.1,220.7 605.1,225.3 605.1,225.6 605.2,225.9 605.7,226.4 606.5,226.9 607.4,227.3 608.6,227.6 609.9,227.9 611.3,228.1 612.9,228.1 614.6,228.1 616,227.9 617.3,227.6 618.5,227.3 619.4,226.9 620.2,226.4 620.7,225.9 620.8,225.6 620.8,225.3 620.8,220.7 620.8,220.7 620.8,220.7 620.8,220.7 "
     class="st11" /><g
     id="g51"><defs
       id="defs53"><polygon
         points="621,217.7 604.9,217.7 604.9,237.5 604.9,237.5 621,237.5 "
         id="SVGID_1_" /></defs><clipPath
       id="SVGID_2_"><use
         height="100%"
         width="100%"
         y="0"
         x="0"
         id="use57"
         style="overflow:visible"
         xlink:href="#SVGID_1_" /></clipPath><polyline
       style="fill:none;stroke:#ffffff;stroke-width:2;stroke-miterlimit:8"
       clip-path="url(#SVGID_2_)"
       id="polyline59"
       points="605.1,220.7 605.1,220.7 605.1,221 605.2,221.3 605.7,221.8 606.5,222.3 607.4,222.7 608.6,223.1     609.9,223.3 611.3,223.6 612.9,223.6 614.6,223.6 616,223.3 617.3,223.1 618.5,222.7 619.4,222.3 620.2,221.8 620.7,221.3     620.8,221 620.8,220.7   "
       class="st12" /><g
       clip-path="url(#SVGID_2_)"
       id="g61"
       class="st13"><defs
         id="defs63"><polygon
           points="621,217.7 604.9,217.7 604.9,237.5 604.9,237.5 621,237.5 "
           id="SVGID_3_" /></defs><clipPath
         id="SVGID_4_"><use
           height="100%"
           width="100%"
           y="0"
           x="0"
           id="use67"
           style="overflow:visible"
           xlink:href="#SVGID_3_" /></clipPath><polyline
         style="fill:none;stroke:#ffffff;stroke-width:2;stroke-miterlimit:8"
         clip-path="url(#SVGID_4_)"
         id="polyline69"
         points="605.1,227.3 605.1,230 605.1,230.2 605.2,230.5 605.7,231 606.5,231.5 607.4,231.9 608.6,232.2      609.9,232.5 611.3,232.7 612.9,232.7 614.6,232.7 616,232.5 617.3,232.2 618.5,231.9 619.4,231.5 620.2,231 620.7,230.5      620.8,230.2 620.8,230 620.8,227.3    "
         class="st14" /><g
         clip-path="url(#SVGID_4_)"
         id="g71"
         class="st15"><defs
           id="defs73"><polygon
             points="621,217.7 604.9,217.7 604.9,237.5 604.9,237.5 621,237.5 "
             id="SVGID_5_" /></defs><clipPath
           id="SVGID_6_"><use
             height="100%"
             width="100%"
             y="0"
             x="0"
             id="use77"
             style="overflow:visible"
             xlink:href="#SVGID_5_" /></clipPath><polyline
           style="fill:none;stroke:#ffffff;stroke-width:2;stroke-miterlimit:8"
           clip-path="url(#SVGID_6_)"
           id="polyline79"
           points="605.1,231.8 605.1,234.6 605.1,234.8 605.2,235.1 605.7,235.6 606.5,236.1 607.4,236.5       608.6,236.8 609.9,237.1 611.3,237.3 612.9,237.3 614.6,237.3 616,237.1 617.3,236.8 618.5,236.5 619.4,236.1 620.2,235.6       620.7,235.1 620.8,234.8 620.8,234.6 620.8,231.8     "
           class="st16" /></g></g></g><polygon
     style="fill:none;stroke:#ffffff;stroke-width:2;stroke-miterlimit:8"
     id="polygon83"
     points="234.8,216.6 234.9,216.4 235.1,216.3 235.3,216.3 254.7,216.3 254.9,216.3 255,216.4 255.2,216.6 255.2,216.8 255.2,236.7 255.2,237 255,237.1 254.9,237.2 254.7,237.2 235.3,237.2 235.1,237.2 234.9,237.1 234.8,237 234.8,236.7 234.8,236.7 234.8,236.7 234.8,216.8 "
     class="st11" /><g
     id="g85"><defs
       id="defs87"><polygon
         points="255.4,216 234.5,216 234.5,237.5 234.5,237.5 255.4,237.5 "
         id="SVGID_7_" /></defs><clipPath
       id="SVGID_8_"><use
         height="100%"
         width="100%"
         y="0"
         x="0"
         id="use91"
         style="overflow:visible"
         xlink:href="#SVGID_7_" /></clipPath><line
       style="fill:none;stroke:#ffffff;stroke-width:2;stroke-miterlimit:8"
       clip-path="url(#SVGID_8_)"
       id="line93"
       y2="219.7"
       x2="255.2"
       y1="219.39999"
       x1="234.8"
       class="st17" /><g
       clip-path="url(#SVGID_8_)"
       id="g95"
       class="st18"><defs
         id="defs97"><polygon
           points="255.4,216 234.5,216 234.5,237.5 234.5,237.5 255.4,237.5 "
           id="SVGID_9_" /></defs><clipPath
         id="SVGID_10_"><use
           height="100%"
           width="100%"
           y="0"
           x="0"
           id="use101"
           style="overflow:visible"
           xlink:href="#SVGID_9_" /></clipPath><line
         style="fill:none;stroke:#ffffff;stroke-width:2;stroke-miterlimit:8"
         clip-path="url(#SVGID_10_)"
         id="line103"
         y2="218"
         x2="237"
         y1="217.7"
         x1="236.2"
         class="st19" /><g
         clip-path="url(#SVGID_10_)"
         id="g105"
         class="st20"><defs
           id="defs107"><polygon
             points="255.4,216 234.5,216 234.5,237.5 234.5,237.5 255.4,237.5 "
             id="SVGID_11_" /></defs><clipPath
           id="SVGID_12_"><use
             height="100%"
             width="100%"
             y="0"
             x="0"
             id="use111"
             style="overflow:visible"
             xlink:href="#SVGID_11_" /></clipPath><line
           style="fill:none;stroke:#ffffff;stroke-width:2;stroke-miterlimit:8"
           clip-path="url(#SVGID_12_)"
           id="line113"
           y2="218"
           x2="239"
           y1="217.7"
           x1="238.2"
           class="st21" /><g
           clip-path="url(#SVGID_12_)"
           id="g115"
           class="st22"><defs
             id="defs117"><polygon
               points="255.4,216 234.5,216 234.5,237.5 234.5,237.5 255.4,237.5 "
               id="SVGID_13_" /></defs><clipPath
             id="SVGID_14_"><use
               height="100%"
               width="100%"
               y="0"
               x="0"
               id="use121"
               style="overflow:visible"
               xlink:href="#SVGID_13_" /></clipPath><polygon
             style="fill:none;stroke:#ffffff;stroke-width:2;stroke-miterlimit:8"
             clip-path="url(#SVGID_14_)"
             id="polygon123"
             points="248.9,225.2 248.4,224.6 247.8,224.1 248.1,223 246.3,222.2 245.8,223.2 244.9,223.2 244.2,223.2 243.7,222.2 241.8,223 242.2,224.1 241.5,224.6 241,225.2 239.8,224.8 239,226.7 240.1,227.3 240,228 240.1,228.8 239,229.4 239.8,231.3 241,230.9 241.5,231.5 242.2,232 241.8,233.1 243.7,233.8 244.2,232.9 244.9,232.9 245.8,232.9 246.3,233.8 248.1,233.1 247.8,232 248.4,231.5 248.9,230.9 250,231.3 250.9,229.4 249.8,228.8 249.9,228 249.8,227.3 250.9,226.7 250.9,226.7 250.9,226.7 250,224.8 "
             class="st23" /><g
             clip-path="url(#SVGID_14_)"
             id="g125"
             class="st24"><defs
               id="defs127"><polygon
                 points="255.4,216 234.5,216 234.5,237.5 234.5,237.5 255.4,237.5 "
                 id="SVGID_15_" /></defs><clipPath
               id="SVGID_16_"><use
                 height="100%"
                 width="100%"
                 y="0"
                 x="0"
                 id="use131"
                 style="overflow:visible"
                 xlink:href="#SVGID_15_" /></clipPath><polygon
               style="fill:none;stroke:#ffffff;stroke-width:2;stroke-miterlimit:8"
               clip-path="url(#SVGID_16_)"
               id="polygon133"
               points="246.5,228.5 246.2,229.1 245.5,229.5 244.9,229.6 244.2,229.5 243.5,229.1 243.1,228.5 243,227.9 243.1,227.3 243.5,226.7 244.2,226.3 244.9,226.2 245.5,226.3 246.2,226.7 246.5,227.3 246.7,227.9 246.7,227.9 246.7,227.9 246.7,227.9 "
               class="st25" /></g></g></g></g></g><g
     id="g137"><defs
       id="defs139"><polygon
         points="446.1,216 425.5,216 425.5,237.5 425.5,237.5 446.1,237.5 "
         id="SVGID_17_" /></defs><clipPath
       id="SVGID_18_"><use
         height="100%"
         width="100%"
         y="0"
         x="0"
         id="use143"
         style="overflow:visible"
         xlink:href="#SVGID_17_" /></clipPath><g
       clip-path="url(#SVGID_18_)"
       id="g145"
       class="st26"><defs
         id="defs147"><polygon
           points="446.1,216 425.5,216 425.5,237.5 425.5,237.5 446.1,237.5 "
           id="SVGID_19_" /></defs><clipPath
         id="SVGID_20_"><use
           height="100%"
           width="100%"
           y="0"
           x="0"
           id="use151"
           style="overflow:visible"
           xlink:href="#SVGID_19_" /></clipPath><path
         style="fill:#ffffff"
         inkscape:connector-curvature="0"
         clip-path="url(#SVGID_20_)"
         id="path153"
         d="m 443.9,232.1 0,-5.4 -8.1,0 0,-5.5 c 1.3,-0.2 2.2,-1.3 2.2,-2.6 0,-1.5 -1.2,-2.7 -2.7,-2.7 -1.5,0 -2.7,1.2 -2.7,2.7 0,1.3 1,2.4 2.2,2.6 l 0,5.5 -7.2,0 0,5.5 c -1.3,0.3 -2.2,1.3 -2.2,2.6 0,1.5 1.2,2.7 2.7,2.7 1.5,0 2.7,-1.2 2.7,-2.7 0,-1.3 -1,-2.4 -2.2,-2.6 l 0,-4.6 14.4,0 0,4.6 c -1.3,0.2 -2.2,1.3 -2.2,2.6 0,1.5 1.2,2.7 2.7,2.7 1.5,0 2.7,-1.2 2.7,-2.7 -0.1,-1.3 -0.9,-2.5 -2.3,-2.7 l 0,0 z m -10.3,-13.4 c 0,-1 0.8,-1.8 1.8,-1.8 1,0 1.8,0.8 1.8,1.8 0,1 -0.8,1.8 -1.8,1.8 -1,0 -1.8,-0.8 -1.8,-1.8 l 0,0 z m -3.6,16.1 c 0,1 -0.8,1.8 -1.8,1.8 -1,0 -1.8,-0.8 -1.8,-1.8 0,-1 0.8,-1.8 1.8,-1.8 1,0 1.8,0.8 1.8,1.8 l 0,0 z m 13.5,1.8 c -1,0 -1.8,-0.8 -1.8,-1.8 0,-1 0.8,-1.8 1.8,-1.8 1,0 1.8,0.8 1.8,1.8 0,1 -0.9,1.8 -1.8,1.8 l 0,0 z"
         class="st27" /></g></g><text
     transform="matrix(1 0 0 1 81 355)"
     class="st5 st8 st7"
     id="text155"
     style="-inkscape-font-specification:'Gulim, Normal';font-family:Gulim;font-weight:normal;font-style:normal;font-stretch:normal;font-variant:normal;font-size:17.99999952px;text-anchor:start;text-align:start;writing-mode:lr;line-height:125%;"
     sodipodi:linespacing="125%">실제 컴퓨팅</text>
<text
     transform="matrix(1 0 0 1 358 355)"
     class="st5 st8 st7"
     id="text157"
     style="-inkscape-font-specification:'Gulim, Normal';font-family:Gulim;font-weight:normal;font-style:normal;font-stretch:normal;font-variant:normal;font-size:17.99999952px;text-anchor:start;text-align:start;writing-mode:lr;line-height:125%;"
     sodipodi:linespacing="125%">실제 네트워크</text>
<text
     transform="matrix(1 0 0 1 623 355)"
     class="st5 st8 st7"
     id="text159"
     style="-inkscape-font-specification:'Gulim, Normal';font-family:Gulim;font-weight:normal;font-style:normal;font-stretch:normal;font-variant:normal;font-size:17.99999952px;text-anchor:start;text-align:start;writing-mode:lr;line-height:125%;"
     sodipodi:linespacing="125%">실제 스토리지</text>
<path
     style="clip-rule:evenodd;fill:#f2f2f2;fill-rule:evenodd"
     inkscape:connector-curvature="0"
     id="path163"
     d="m 444.1,54.9 -2.4,0 -0.7,-0.7 -0.1,-0.1 -0.1,0 -0.1,0 -0.1,0 -1.7,0 -0.1,0 -0.1,0 -0.1,0.1 -0.1,0.1 -0.1,0.1 0,0.1 0,0.1 0,0.1 0,4.3 0,0.1 0,0.1 0,0.1 0.1,0.1 0.1,0 0.1,0 0.1,0 0.1,0 5.2,0 0.1,0 0.1,0 0.1,0 0.1,0 0.1,-0.1 0,-0.1 0,-0.1 0,-0.1 0,-3.5 0,-0.1 0,-0.1 0,-0.1 -0.1,-0.1 -0.1,-0.1 -0.1,0 -0.2,-0.1 0,0 0,0 0,0 z m -0.4,3.5 -4.3,0 0,-3.5 1.1,0 0.7,0.7 0.1,0.1 0.1,0 0.1,0 0.1,0 2.2,0 0,2.7 -0.1,0 0,0 z"
     class="st28" /><path
     style="clip-rule:evenodd;fill:#f2f2f2;fill-rule:evenodd"
     inkscape:connector-curvature="0"
     id="path165"
     d="m 460.6,54.9 -2.4,0 -0.7,-0.7 -0.1,-0.1 -0.1,0 -0.1,0 -0.1,0 -1.7,0 -0.1,0 -0.1,0 -0.1,0.1 -0.1,0.1 -0.1,0.1 0,0.1 0,0.1 0,0.1 0,4.3 0,0.1 0,0.1 0,0.1 0.1,0.1 0.1,0 0.1,0 0.1,0 0.1,0 5.2,0 0.1,0 0.1,0 0.1,0 0.1,0 0.1,-0.1 0,-0.1 0,-0.1 0,-0.1 0,-3.5 0,-0.1 0,-0.1 0,-0.1 -0.1,-0.1 -0.1,-0.1 -0.1,0 -0.2,-0.1 0,0 0,0 0,0 z m -0.5,3.5 -4.3,0 0,-3.5 1.1,0 0.7,0.7 0.1,0.1 0.1,0 0.1,0 0.1,0 2.2,0 0,2.7 -0.1,0 0,0 z"
     class="st28" /><path
     style="clip-rule:evenodd;fill:#f2f2f2;fill-rule:evenodd"
     inkscape:connector-curvature="0"
     id="path167"
     d="m 453.3,57.8 -3.6,0 -0.3,-0.6 0,0 0,0 0,-0.1 0,0 -0.1,0 -0.1,0 -0.1,0 -0.1,0 -2.6,0 -0.1,0 -0.1,0 -0.1,0.1 -0.1,0.1 0,0.1 0,0.1 0,0.1 0,0.1 0,5.2 0,0.1 0,0.1 0,0.1 0,0.1 0.1,0.1 0.1,0 0.1,0 0.1,0 6.9,0 0.1,0 0.1,0 0.1,0 0.1,-0.1 0,-0.1 0,-0.1 0,-0.1 0,-0.1 0,-4.3 0,-0.1 0,-0.1 0,-0.1 0,-0.1 -0.1,-0.1 -0.1,0 -0.2,-0.3 0,0 0,0 0,0 z m -0.4,4.3 -6,0 0,-4.3 1.9,0 0.3,0.6 0,0.1 0,0.1 0,0 0.1,0 0,0 0.1,0 0.1,0 0.1,0 3.4,0 0,3.5 0,0 0,0 z"
     class="st28" /><path
     style="clip-rule:evenodd;fill:#f2f2f2;fill-rule:evenodd"
     inkscape:connector-curvature="0"
     id="path169"
     d="m 445.1,49.2 4.3,0 0,1.8 -0.1,0 -0.1,0 -0.1,0.1 -0.1,0.1 -0.1,0.1 -0.1,0.1 -0.1,0.1 -0.1,0.1 -0.1,0.1 -0.1,0.1 -0.1,0.1 -0.1,0.1 -0.1,0.1 0,0.1 0,0.1 0,0.1 -6.5,0 -0.1,0 -0.1,0 -0.1,0 -0.1,0.1 0,0.1 0,0.1 0,0.1 0,0.1 0,0.9 0,0.1 0,0.1 0,0.1 0,0.1 0.1,0.1 0.1,0 0.1,0 0.1,0 0.1,0 0.1,0 0.1,0 0.1,-0.1 0.1,-0.1 0,-0.1 0,-0.1 0,-0.1 0,-0.4 6.1,0 0,0.1 0,0.1 0,0.1 0.1,0.1 0.1,0.1 0.1,0.1 0.1,0.1 0.1,0.1 0.1,0.1 0.1,0.1 0.1,0.1 0.1,0.1 0.1,0.1 0.1,0 0.1,0 0.1,0 0,1.8 0,0.1 0,0.1 0,0.1 0.1,0.1 0.1,0.1 0.1,0 0.1,0 0.1,0 0.1,0 0.1,0 0.1,0 0.1,-0.1 0.1,-0.1 0,-0.1 0,-0.1 0,-0.1 0,-1.8 0.1,0 0.1,0 0.1,0 0.1,-0.1 0.1,-0.1 0.1,-0.1 -0.1,-0.4 0.1,-0.1 0.1,-0.1 0.1,-0.1 0.1,-0.1 0.1,-0.1 0.1,-0.1 0,-0.1 0,-0.1 0,-0.1 6.1,0 0,0.4 0,0.1 0,0.1 0,0.1 0.1,0.1 0.1,0.1 0.1,0 0.1,0 0.1,0 0.1,0 0.1,0 0.1,0 0.1,-0.1 0.1,-0.1 0,-0.1 0,-0.1 0,-0.1 0,-0.9 0,-0.1 0,-0.1 0,-0.1 -0.1,-0.1 -0.1,-0.1 -0.1,0 -0.1,0 -0.1,0 -6.5,0 0,-0.1 0,-0.1 0,-0.1 -0.1,-0.1 -0.1,-0.1 -0.1,-0.1 -0.1,-0.1 -0.1,-0.1 -0.1,-0.1 -0.1,-0.1 -0.1,-0.1 -0.1,-0.1 -0.1,-0.1 -0.1,-0.1 -0.1,0 -0.1,0 0,-1.8 4.8,0 0.2,0 0.2,0 0.2,0 0.2,0 0.2,0 0.2,-0.1 0.2,-0.1 0.2,-0.1 0.2,-0.1 0.2,-0.1 0.2,-0.1 0.2,-0.1 0.2,-0.1 0.2,-0.1 0.1,-0.1 0.1,-0.1 0.1,-0.1 0.1,-0.1 0.1,-0.1 0.1,-0.2 0.1,-0.2 0.1,-0.2 0.1,-0.2 0.1,-0.2 0.1,-0.2 0.1,-0.2 0,-0.2 0,-0.2 0,-0.2 0,-0.2 0,-0.2 0,-0.2 0,-0.2 0,-0.2 0,-0.2 0,-0.2 0,-0.2 -0.1,-0.2 -0.1,-0.2 -0.1,-0.2 -0.1,-0.2 -0.1,-0.2 -0.1,-0.2 -0.1,-0.2 -0.1,-0.1 -0.1,-0.1 -0.1,-0.1 -0.1,-0.1 -0.1,-0.1 -0.1,-0.1 -0.1,-0.1 -0.1,-0.1 -0.1,-0.1 -0.1,-0.1 -0.2,-0.1 -0.2,-0.1 -0.2,-0.1 -0.2,-0.1 -0.2,-0.1 -0.2,-0.1 -0.2,-0.1 -0.2,0 -0.2,0 -0.2,0 -0.1,-0.2 -0.1,-0.2 -0.1,-0.2 -0.1,-0.2 -0.1,-0.2 -0.1,-0.2 -0.2,-0.2 -0.2,-0.2 -0.2,-0.1 -0.2,-0.1 -0.2,-0.1 -0.2,-0.1 -0.2,-0.1 -0.2,-0.1 -0.2,0 -0.2,0 -0.2,0 -0.2,0 -0.2,-0.3 -0.2,-0.2 -0.2,-0.2 -0.2,-0.2 -0.2,-0.2 -0.2,-0.2 -0.2,-0.2 -0.3,-0.2 -0.2,-0.1 -0.3,-0.1 -0.3,-0.1 -0.3,-0.1 -0.3,-0.1 -0.3,0 -0.3,0 -0.3,0 -0.2,0 -0.2,0 -0.2,0 -0.2,0 -0.2,0 -0.2,0 -0.2,0.1 -0.2,0.1 -0.2,0.1 -0.2,0.1 -0.2,0.1 -0.2,0.1 -0.2,0.1 -0.2,0.1 -0.2,0.1 -0.2,0.1 -0.2,0.1 -0.1,0.1 -0.1,0.1 -0.1,0.1 -0.1,0.2 -0.1,0.1 -0.1,0.2 -0.1,0.2 -0.1,0.2 -0.1,0.2 -0.1,0.2 -0.1,0.2 -0.1,0.2 -0.1,0.2 -0.1,0.2 -0.1,0.2 -0.2,0.1 -0.2,0.1 -0.2,0.1 -0.2,0.1 -0.2,0.1 -0.2,0.1 -0.1,0.1 -0.2,0.1 -0.2,0.1 -0.1,0.1 -0.1,0.1 -0.1,0.1 -0.1,0.1 -0.1,0.1 -0.1,0.1 -0.1,0.1 -0.1,0.1 -0.1,0.2 -0.1,0.1 -0.1,0.2 -0.1,0.2 -0.1,0.2 -0.1,0.2 -0.1,0.2 0,0.2 -0.1,0.2 0,0.2 0,0.2 0,0.2 0,0.2 0,0.2 0,0.2 0,0.2 0,0.2 0,0.2 0,0.2 0.7,0.5 0.1,0.2 0.1,0.2 0.1,0.2 0.1,0.2 0.1,0.2 0.1,0.2 0.1,0.2 0.1,0.2 0.1,0.2 0.1,0.2 0.1,0.2 0.2,0.2 0.2,0.1 0.2,0.1 0.2,0.1 0.2,0.1 0.2,0.1 0.2,0.1 0.2,0.1 0.2,0.1 0.2,0.1 0.2,0.1 0.2,0 0.2,0 0.2,0 0.2,0 0,0 0,-0.2 0,0 z m 5.7,3.5 0,0 0,0.2 0,0.1 0,0.1 0,0.1 -0.1,0.1 0,0.1 -0.1,0.1 -0.1,0 -0.1,0.1 -0.1,0 -0.1,0 -0.1,0 -0.1,0 -0.1,0 -0.1,0 -0.1,0 -0.1,0 -0.1,0 -0.1,0 -0.1,0 -0.1,0 -0.1,-0.1 -0.1,0 -0.1,-0.1 0,-0.1 -0.1,-0.1 0,-0.1 0,-0.1 0,-0.1 0,-0.1 0,-0.1 0,-0.1 0,-0.1 0,-0.1 0,-0.1 0,-0.1 0.1,-0.1 0,-0.1 0.1,-0.1 0.1,-0.1 0.1,-0.1 0.1,0 0.1,0 0.1,0 0.1,0 0.1,0 0.1,0 0.1,0 0.1,0 0.1,0 0.1,0 0.1,0 0.1,0 0.1,0.1 0.1,0.1 0.1,0.1 0,0.1 0.1,0.1 0,0.1 0,0.1 0,0.1 0,0.2 0,0 0,0 0,0 z m -6.4,-11.2 0,0 0.1,-0.1 0,0 0.1,-0.1 0,0 0,-0.1 0,-0.1 0,-0.1 0,-0.2 0,-0.2 0.1,-0.2 0.1,-0.2 0.1,-0.2 0.1,-0.2 0.1,-0.2 0.1,-0.2 0.1,-0.1 0.1,-0.1 0.1,-0.1 0.1,-0.1 0.1,-0.1 0.1,-0.1 0.1,-0.1 0.1,-0.1 0.1,-0.1 0.1,-0.1 0.1,-0.1 0.1,-0.1 0.2,-0.1 0.1,-0.1 0.2,-0.1 0.2,-0.1 0.2,-0.1 0.2,-0.1 0.2,0 0.2,0 0.2,0 0.2,0 0.2,0 0.2,0 0.3,0 0.3,0 0.3,0 0.3,0.1 0.2,0.1 0.2,0.1 0.2,0.1 0.2,0.1 0.2,0.1 0.2,0.2 0.2,0.2 0.2,0.2 0.2,0.2 0.2,0.2 0.2,0.2 0.1,0.2 0,0.1 0.1,0 0.1,0.1 0.1,0 0.1,0 0.1,0 0.1,0 0.1,0 0.1,0 0.1,0 0.1,0 0.1,0 0.2,0 0.2,0 0.2,0 0.2,0.1 0.2,0.1 0.1,0.1 0.1,0.1 0.1,0.1 0.1,0.1 0.1,0.1 0.1,0.1 0.1,0.2 0.1,0.2 0,0.2 0,0.2 0,0.2 0,0.1 0,0.1 0,0.1 0.1,0.1 0,0.1 0.1,0 0.1,0 0.1,0 0.2,0 0.2,0 0.2,0 0.1,0 0.2,0 0.1,0 0.1,0 0.1,0.1 0.1,0.1 0.1,0.1 0.1,0.1 0.1,0.1 0.1,0.1 -0.2,0.3 0.1,0.1 0.1,0.1 0.1,0.1 0.1,0.1 0.1,0.1 0.1,0.1 0.1,0.1 0.1,0.1 0.1,0.1 0.1,0.1 0,0.1 0.1,0.1 0,0.1 0,0.1 0,0.2 0,0.1 0,0.2 0,0.2 0,0.2 0,0.2 0,0.2 0,0.1 0,0.2 0,0.1 -0.1,0.2 0,0.1 -0.1,0.2 -0.1,0.1 -0.1,0.1 -0.1,0.1 -0.1,0.1 -0.1,0.1 -0.1,0.1 -0.1,0.1 -0.1,0.1 -0.1,0.1 -0.1,0.1 -0.1,0.1 -0.1,0.1 -0.1,0.1 -0.1,0.1 -0.1,0.1 -0.1,0.1 -0.1,0.1 -0.1,0 -0.2,0 -0.1,0 -0.2,0 -0.2,0 -0.2,0 -10,0 -0.2,0 -0.2,0 -0.2,0 -0.2,0 -0.2,0 -0.2,-0.1 -0.2,-0.1 -0.2,-0.1 -0.2,-0.1 -0.2,-0.1 -0.1,-0.1 -0.1,-0.1 -0.1,-0.1 -0.1,-0.1 -0.1,-0.1 -0.1,-0.1 -0.1,-0.1 -0.1,-0.1 -0.1,-0.1 -0.1,-0.2 -0.1,-0.1 -0.1,-0.1 -0.1,-0.1 -0.1,-0.2 -0.1,-0.2 -0.1,-0.2 0,-0.2 0,-0.2 0,-0.2 0,-0.2 0,-0.2 0,-0.2 0,-0.2 0,-0.2 0,-0.1 0,-0.2 0.1,-0.3 0.1,-0.3 0.1,-0.3 0.1,-0.3 0.2,-0.2 0.2,-0.2 0.2,-0.2 0.2,-0.2 0.2,-0.2 0.2,-0.2 0.2,-0.1 0.3,-0.1 0.1,-0.1 0.1,0 0.1,-0.1 0.4,0.4 0,0 0,0 z"
     class="st28" /><g
     id="g173"
     transform="translate(46,0)"><defs
       id="defs175"><polygon
         points="281.5,322 307,322 307,296.5 281.5,296.5 281.5,322 "
         id="SVGID_21_" /></defs><clipPath
       id="SVGID_22_"><use
         height="100%"
         width="100%"
         y="0"
         x="0"
         id="use179"
         style="overflow:visible"
         xlink:href="#SVGID_21_" /></clipPath><g
       clip-path="url(#SVGID_22_)"
       id="g181"
       class="st29"><defs
         id="defs183"><polygon
           points="281.5,322 307,322 307,296.5 281.5,296.5 281.5,322 "
           id="SVGID_23_" /></defs><clipPath
         id="SVGID_24_"><use
           height="100%"
           width="100%"
           y="0"
           x="0"
           id="use187"
           style="overflow:visible"
           xlink:href="#SVGID_23_" /></clipPath><path
         style="fill:#ffffff"
         inkscape:connector-curvature="0"
         clip-path="url(#SVGID_24_)"
         id="path189"
         d="m 296.4,297.6 0,23.4 -13.8,0 0,-23.4 13.8,0 0,0 0,0 z m 1,-1.1 -15.9,0 0,25.5 15.9,0 0,-25.5 0,0 0,0 z m 8.5,1.1 0,23.4 -5.3,0 0,-23.4 5.3,0 0,0 0,0 z m 1.1,-1.1 -7.4,0 0,25.5 7.4,0 0,-25.5 0,0 0,0 z"
         class="st30" /><path
         style="fill:none;stroke:#ffffff;stroke-width:0.5;stroke-miterlimit:8"
         inkscape:connector-curvature="0"
         clip-path="url(#SVGID_24_)"
         id="path191"
         d="m 296.4,297.6 0,23.4 -13.8,0 0,-23.4 13.8,0 0,0 0,0 z m 1,-1.1 -15.9,0 0,25.5 15.9,0 0,-25.5 0,0 0,0 z m 8.5,1.1 0,23.4 -5.3,0 0,-23.4 5.3,0 0,0 0,0 z m 1.1,-1.1 -7.4,0 0,25.5 7.4,0 0,-25.5 0,0 0,0 z"
         class="st31" /><path
         style="fill:#ffffff"
         inkscape:connector-curvature="0"
         clip-path="url(#SVGID_24_)"
         id="path193"
         d="m 294.3,300.8 0,4.3 -9.6,0 0,-4.3 9.6,0 0,0 0,0 z m 1,-1.1 -11.7,0 0,6.4 11.7,0 0,-6.4 0,0 0,0 z m 8.5,0 0,1.1 -1.1,0 0,-1.1 1.1,0 0,0 0,0 z m 1.1,-1.1 -3.2,0 0,3.2 3.2,0 0,-3.2 0,0 0,0 z m -1.1,5.3 0,1.1 -1.1,0 0,-1.1 1.1,0 0,0 0,0 z m 1.1,-1 -3.2,0 0,3.2 3.2,0 0,-3.2 0,0 0,0 z m -1.1,5.3 0,1.1 -1.1,0 0,-1.1 1.1,0 0,0 0,0 z m 1.1,-1.1 -3.2,0 0,3.2 3.2,0 0,-3.2 0,0 0,0 z m -1.1,5.3 0,1.1 -1.1,0 0,-1.1 1.1,0 0,0 0,0 z m 1.1,-1 -3.2,0 0,3.2 3.2,0 0,-3.2 0,0 0,0 z m -1.1,5.3 0,1.1 -1.1,0 0,-1.1 1.1,0 0,0 0,0 z m 1.1,-1.1 -3.2,0 0,3.2 3.2,0 0,-3.2 0,0 0,0 z"
         class="st30" /><path
         style="fill:none;stroke:#ffffff;stroke-width:0.5;stroke-miterlimit:8"
         inkscape:connector-curvature="0"
         clip-path="url(#SVGID_24_)"
         id="path195"
         d="m 294.3,300.8 0,4.3 -9.6,0 0,-4.3 9.6,0 0,0 0,0 z m 1,-1.1 -11.7,0 0,6.4 11.7,0 0,-6.4 0,0 0,0 z m 8.5,0 0,1.1 -1.1,0 0,-1.1 1.1,0 0,0 0,0 z m 1.1,-1.1 -3.2,0 0,3.2 3.2,0 0,-3.2 0,0 0,0 z m -1.1,5.3 0,1.1 -1.1,0 0,-1.1 1.1,0 0,0 0,0 z m 1.1,-1 -3.2,0 0,3.2 3.2,0 0,-3.2 0,0 0,0 z m -1.1,5.3 0,1.1 -1.1,0 0,-1.1 1.1,0 0,0 0,0 z m 1.1,-1.1 -3.2,0 0,3.2 3.2,0 0,-3.2 0,0 0,0 z m -1.1,5.3 0,1.1 -1.1,0 0,-1.1 1.1,0 0,0 0,0 z m 1.1,-1 -3.2,0 0,3.2 3.2,0 0,-3.2 0,0 0,0 z m -1.1,5.3 0,1.1 -1.1,0 0,-1.1 1.1,0 0,0 0,0 z m 1.1,-1.1 -3.2,0 0,3.2 3.2,0 0,-3.2 0,0 0,0 z"
         class="st31" /></g></g></svg>
