<?xml version="1.0" encoding="UTF-8"?>
<svg width="496px" height="269px" version="1.1" xmlns="http://www.w3.org/2000/svg" xmlns:cc="http://creativecommons.org/ns#" xmlns:dc="http://purl.org/dc/elements/1.1/" xmlns:rdf="http://www.w3.org/1999/02/22-rdf-syntax-ns#">
 <metadata>
  <rdf:RDF>
   <cc:Work rdf:about="">
    <dc:format>image/svg+xml</dc:format>
    <dc:type rdf:resource="http://purl.org/dc/dcmitype/StillImage"/>
    <dc:title/>
   </cc:Work>
  </rdf:RDF>
 </metadata>
 <defs>
  <linearGradient id="mx-gradient-66b2ff-1-ffffff-1-s-0" x2="0%" y2="100%">
   <stop stop-color="#66B2FF" offset="0"/>
   <stop stop-color="#fff" offset="1"/>
  </linearGradient>
  <linearGradient id="mx-gradient-ffffff-1-009900-1-e-0" x1="100%" x2="0%">
   <stop stop-color="#090" offset="0"/>
   <stop stop-color="#fff" offset="1"/>
  </linearGradient>
  <linearGradient id="mx-gradient-009900-1-ffffff-1-s-0" x2="0%" y2="100%">
   <stop stop-color="#090" offset="0"/>
   <stop stop-color="#fff" offset="1"/>
  </linearGradient>
 </defs>
 <g transform="translate(.5 .5)">
  <rect x="265" width="230" height="268" rx="41.4" ry="41.4" fill="url(#mx-gradient-66b2ff-1-ffffff-1-s-0)" pointer-events="none" stroke="#6c8ebf"/>
  <g font-family="MS UI Gothic" font-size="12px" text-anchor="middle">
   <text x="379.5" y="18.17">NSX-T</text>
   <text x="379.5" y="88.17">L2</text>
   <text x="379.5" y="102.17">L3 (North/South)</text>
   <text x="379.5" y="116.17">L4 - セキュリティー・ポリシー</text>
   <text x="379.5" y="130.17">ロード・バランシング</text>
   <text x="379.5" y="144.17">VM と K8s の接続</text>
   <text x="379.5" y="228.17">エンドツーエンド</text>
   <text x="379.5" y="242.17">構成とトラブルシューティング</text>
   <text x="379.5" y="256.17001">運用ツールと中央の統計</text>
  </g>
  <rect transform="rotate(-90,131,64.5)" x="69" y="-66" width="124" height="261" rx="18.6" ry="18.6" fill="url(#mx-gradient-ffffff-1-009900-1-e-0)" pointer-events="none" stroke="#82b366"/>
  <g transform="rotate(-90,8.17,64.5)" font-family="MS UI Gothic" font-size="12px" text-anchor="middle">
   <text x="7.67" y="75">Canal</text>
  </g>
  <rect x="42" y="14" width="210" height="60" rx="9" ry="9" fill="url(#mx-gradient-009900-1-ffffff-1-s-0)" pointer-events="none" stroke="#82b366"/>
  <g font-family="MS UI Gothic" font-size="12px" text-anchor="middle">
   <text x="146.5" y="33.5">Flannel</text>
   <text x="146.5" y="47.5">L2 のみ (East/West ポッド・トラフィック)</text>
  </g>
  <rect x="44" y="80" width="210" height="40" rx="6" ry="6" fill="url(#mx-gradient-009900-1-ffffff-1-s-0)" pointer-events="none" stroke="#82b366"/>
  <g font-family="MS UI Gothic" font-size="12px" text-anchor="middle">
   <text x="148.5" y="89.5">Calico</text>
   <text x="148.5" y="103.5">L3/L4 (IP テーブル)</text>
  </g>
  <rect y="174" width="262" height="40" rx="6" ry="6" fill="#fff" pointer-events="none" stroke="#82b366"/>
  <g font-family="MS UI Gothic" font-size="12px" text-anchor="middle">
   <text x="130.5" y="190.5">Kubernetes ネットワークのみ</text>
  </g>
  <rect y="218" width="262" height="40" rx="6" ry="6" fill="#fff" pointer-events="none" stroke="#82b366"/>
  <g font-family="MS UI Gothic" font-size="12px" text-anchor="middle">
   <text x="130.5" y="227.5">新しい運用ツール + 統計のための異なるロケーション</text>
   <text x="130.5" y="241.5">エンドツーエンドの構成とトラブルシューティングはない</text>
  </g>
  <rect y="130" width="262" height="40" rx="6" ry="6" fill="url(#mx-gradient-009900-1-ffffff-1-s-0)" pointer-events="none" stroke="#82b366"/>
  <g font-family="MS UI Gothic" font-size="12px" text-anchor="middle">
   <text x="130.5" y="139.5">NGINX/HA プロキシー</text>
   <text x="130.5" y="153.5">ロード・バランシング</text>
  </g>
 </g>
</svg>
