<?xml version="1.0" encoding="UTF-8"?>
<svg width="746px" height="567px" style="background-color:rgb(255, 255, 255)" version="1.1" xmlns="http://www.w3.org/2000/svg" xmlns:cc="http://creativecommons.org/ns#" xmlns:dc="http://purl.org/dc/elements/1.1/" xmlns:rdf="http://www.w3.org/1999/02/22-rdf-syntax-ns#">
 <metadata>
  <rdf:RDF>
   <cc:Work rdf:about="">
    <dc:format>image/svg+xml</dc:format>
    <dc:type rdf:resource="http://purl.org/dc/dcmitype/StillImage"/>
    <dc:title/>
   </cc:Work>
  </rdf:RDF>
 </metadata>
 <g transform="translate(.5 .5)">
  <path d="m466 565.5" fill="none" pointer-events="none" stroke="#000" stroke-miterlimit="10"/>
  <path d="m153 131h588v-112h-588v112" fill="none" pointer-events="none" stroke="#39f" stroke-dasharray="6 6" stroke-miterlimit="10" stroke-width="2"/>
  <g fill="#39f" font-family="Helvetica" font-size="12px" text-anchor="middle">
   <text x="446" y="10.5">オーバーレイ・トランスポート・ゾーン</text>
  </g>
  <path d="m1 343h744v-190h-744v190" fill="none" pointer-events="none" stroke="#00c" stroke-dasharray="6 6" stroke-miterlimit="10" stroke-width="2"/>
  <g fill="#00c" font-family="Helvetica" font-size="12px" text-anchor="middle">
   <text x="372" y="144.5">VLAN トランスポート・ゾーン</text>
  </g>
  <path d="m387 462v-73h311v73z" fill="#4495d1" fill-opacity=".5" pointer-events="none"/>
  <path d="m648.24 425.99v-2.34h-18.38v2.34h3.45c0 0.32 1.38 1.03 5.53 1.03 3.87 0 5.81-0.71 5.81-1.03zm-25.71 0v-2.34h-18.38v2.34h3.45c0 0.32 1.38 1.03 5.53 1.03 3.87 0 5.81-0.71 5.81-1.03zm-184.94 4.6c-11.89 0-24.6-1.59-24.6-4.96v-5.22h234.01c14.65 0 25.15 1.94 25.15 4.96v5.22zm-2.35-3.05h118.32v-4.12h-118.32zm161.58-1.55v-2.34h-18.38v2.34h3.45c0 0.32 1.39 1.03 5.53 1.03 3.87 0 5.81-0.71 5.81-1.03z" fill="#4495d1" pointer-events="none"/>
  <g font-family="Helvetica" font-size="12px" text-anchor="middle">
   <text x="542" y="406.5">N-VDS</text>
   <text x="542" y="420.5">vmk0、vmk1、vmk2、vmk3</text>
  </g>
  <path d="m370 483h347v-102h-347v102" fill="none" pointer-events="none" stroke="#39f" stroke-dasharray="6 6" stroke-miterlimit="10" stroke-width="2"/>
  <g font-family="Helvetica" font-size="12px" text-anchor="middle">
   <text x="542.5" y="501.5">ESXi</text>
  </g>
  <g fill="none" pointer-events="none" stroke="#0070c0" stroke-miterlimit="10" stroke-width="2">
   <path d="m424 380v-103"/>
   <path d="m444 381v-147"/>
   <path d="m465 381v-22q0-10 0-20v-147"/>
   <path d="m485 381v-306"/>
   <path d="m696 381v-306"/>
   <path d="m672 381v-40q0-10 0-20v-129"/>
   <path d="m649 381v-147"/>
   <path d="m626 381v-104"/>
   <path d="m354 277h361"/>
  </g>
  <g font-family="Helvetica" font-size="12px" text-anchor="end">
   <rect x="75" y="275" width="242" height="15" fill="#fff" stroke-width="0"/>
   <text x="314.5" y="278">vmk2 VSAN-VLAN-Logical Switch MTU 9000</text>
  </g>
  <path d="m354 234h361" fill="none" pointer-events="none" stroke="#0070c0" stroke-miterlimit="10" stroke-width="2"/>
  <g font-family="Helvetica" font-size="12px" text-anchor="end">
   <rect x="67" y="230" width="251" height="15" fill="#fff" stroke-width="0"/>
   <text x="315.5" y="233">vmk1 vMotion-VLAN-Logical Switch MTU 9000</text>
  </g>
  <path d="m354 192h361" fill="none" pointer-events="none" stroke="#0070c0" stroke-miterlimit="10" stroke-width="2"/>
  <g font-family="Helvetica" font-size="12px" text-anchor="end">
   <rect x="35" y="187" width="279" height="15" fill="#fff" stroke-width="0"/>
   <text x="311.5" y="197">vmk0 Management-VLAN-Logical Switch MTU 9000</text>
  </g>
  <g fill="none" pointer-events="none" stroke="#0070c0" stroke-miterlimit="10" stroke-width="2">
   <path d="m354 75h361"/>
   <path d="m405 381v-66"/>
   <path d="m607 381v-66"/>
   <path d="m354 315h361"/>
  </g>
  <g font-family="Helvetica" font-size="12px">
   <g text-anchor="end">
    <rect x="84" y="313" width="233" height="15" fill="#fff" stroke-width="0"/>
    <text x="314.5" y="316">vmk3 NFS-VLAN-Logical Switch MTU 9000</text>
   </g>
   <g text-anchor="middle">
    <text x="372.5" y="363.5">vmnic0</text>
   </g>
   <g text-anchor="middle">
    <text x="575.5" y="363.5">vmnic2</text>
   </g>
  </g>
  <g fill="#39f" font-family="Helvetica" font-size="12px" text-anchor="middle">
   <text x="32" y="244.5">カーネル</text>
   <text x="32" y="258.5">インターフェース</text>
  </g>
 </g>
</svg>
