<?xml version="1.0" encoding="utf-8"?>
<!-- Generator: Adobe Illustrator 22.1.0, SVG Export Plug-In . SVG Version: 6.00 Build 0)  -->
<svg version="1.1" id="Layer_1" xmlns="http://www.w3.org/2000/svg" xmlns:xlink="http://www.w3.org/1999/xlink" x="0px" y="0px"
	 viewBox="0 0 500 300" style="enable-background:new 0 0 500 300;" xml:space="preserve">
<style type="text/css">
	.st0{fill:#FFFFFF;}
	.st1{font-family:'IBMPlexSans';}
	.st2{font-size:12px;}
	.st3{fill:#006837;}
	.st4{fill:#FBB03B;}
	.st5{fill:#534741;}
	.st6{fill:#333333;}
	.st7{font-size:14px;}
	.st8{font-size:10px;}
	.st9{fill:#B3B3B3;}
	.st10{fill:#808080;}
	.st11{fill:none;stroke:#000000;stroke-miterlimit:10;}
</style>
<g>
	<rect x="11.5" y="57.5" class="st0" width="195.9" height="53"/>
	<path d="M206.9,58v52H12V58H206.9 M207.9,57H11v54h196.9V57L207.9,57z"/>
</g>
<text transform="matrix(1 0 0 1 15.5 74.5)"><tspan x="0" y="0" class="st1 st2">SDDC-DPG-Mgmt</tspan><tspan x="0" y="14.4" class="st1 st2">VLAN-ID: --</tspan><tspan x="0" y="28.8" class="st1 st2">vmk0: Primäre private Adresse</tspan></text>
<g>
	<g>
		<rect x="232.5" y="71" class="st0" width="233" height="102"/>
		<path d="M465,71.5v101H233v-101H465 M466,70.5H232v103h234V70.5L466,70.5z"/>
	</g>
</g>
<g>
	<rect x="12.6" y="130.5" class="st0" width="195.9" height="53"/>
	<path d="M208,131v52H13.1v-52H208 M209,130H12.1v54H209V130L209,130z"/>
</g>
<text transform="matrix(1 0 0 1 16.5 147.5)"><tspan x="0" y="0" class="st1 st2">SDDC-DPG-vMotion</tspan><tspan x="0" y="14.4" class="st1 st2">VLAN-ID: --</tspan><tspan x="0" y="28.8" class="st1 st2">vmk1: Portierbare private Adresse</tspan></text>
<g>
	<rect x="11.5" y="201.5" class="st0" width="195.9" height="53"/>
	<path d="M206.9,202v52H12v-52H206.9 M207.9,201H11v54h196.9V201L207.9,201z"/>
</g>
<text transform="matrix(1 0 0 1 16.5 218.5)"><tspan x="0" y="0" class="st1 st2">SDDC-DPG-NFS</tspan><tspan x="0" y="14.4" class="st1 st2">VLAN-ID: &lt;Privates VLAN B&gt;</tspan><tspan x="0" y="28.8" class="st1 st2">vmk2: Portierbare private Adresse</tspan></text>
<g>
	<g>
		<g>
			<g>
				<g>
					<rect x="272.1" y="81.7" class="st3" width="34.5" height="21.2"/>
					<rect x="276.2" y="102.9" class="st3" width="13.3" height="5.1"/>
				</g>
				<rect x="277.2" y="102.9" class="st4" width="1" height="4.4"/>
				<rect x="279.2" y="102.9" class="st4" width="1" height="4.4"/>
				<rect x="281.3" y="102.9" class="st4" width="1" height="4.4"/>
				<rect x="283.3" y="102.9" class="st4" width="1" height="4.4"/>
				<rect x="285.4" y="102.9" class="st4" width="1" height="4.4"/>
				<rect x="287.4" y="102.9" class="st4" width="1" height="4.4"/>
			</g>
			<g>
				<rect x="271" y="80" class="st5" width="1" height="24.6"/>
				<rect x="269" y="80" class="st5" width="2" height="1.1"/>
			</g>
		</g>
		<rect x="278.9" y="89.9" class="st6" width="5.5" height="3.4"/>
		<rect x="293.9" y="87.9" class="st6" width="5.5" height="2"/>
		<rect x="286.1" y="85.1" class="st6" width="5.5" height="2"/>
		<rect x="278.9" y="96.4" class="st6" width="5.5" height="3.4"/>
		<rect x="293.9" y="93.3" class="st6" width="5.5" height="3.4"/>
	</g>
	<rect x="272.1" y="97.8" class="st4" width="6.8" height="0.7"/>
	<rect x="272.1" y="88.5" class="st4" width="8.2" height="0.7"/>
	<rect x="281" y="85.8" class="st4" width="5.1" height="0.7"/>
	
		<rect x="278.9" y="87.2" transform="matrix(6.123234e-17 -1 1 6.123234e-17 193.0975 368.1219)" class="st4" width="3.4" height="0.7"/>
	
		<rect x="289.7" y="90.1" transform="matrix(6.123234e-17 -1 1 6.123234e-17 200.7805 381.6097)" class="st4" width="3.1" height="0.7"/>
	
		<rect x="276.2" y="89.6" transform="matrix(6.123234e-17 -1 1 6.123234e-17 187.6341 367.439)" class="st4" width="2.7" height="0.7"/>
	
		<rect x="289.1" y="95.7" transform="matrix(6.123234e-17 -1 1 6.123234e-17 194.8048 386.9024)" class="st4" width="3.4" height="0.7"/>
	
		<rect x="290.5" y="97.4" transform="matrix(6.123234e-17 -1 1 6.123234e-17 194.4634 389.9756)" class="st4" width="3.4" height="0.7"/>
	<rect x="277.2" y="91.3" class="st4" width="1.7" height="0.7"/>
	<rect x="284.4" y="98.8" class="st4" width="7.5" height="0.7"/>
	<rect x="284.4" y="97.1" class="st4" width="6.8" height="0.7"/>
	<rect x="290.5" y="94" class="st4" width="3.4" height="0.7"/>
	<rect x="290.9" y="88.5" class="st4" width="3.1" height="0.7"/>
	<rect x="291.9" y="95.4" class="st4" width="2" height="0.7"/>
	<rect x="284.4" y="91.3" class="st4" width="6.8" height="0.7"/>
</g>
<g>
	<g>
		<g>
			<g>
				<g>
					<rect x="271.1" y="131.7" class="st3" width="34.5" height="21.2"/>
					<rect x="275.2" y="152.9" class="st3" width="13.3" height="5.1"/>
				</g>
				<rect x="276.2" y="152.9" class="st4" width="1" height="4.4"/>
				<rect x="278.2" y="152.9" class="st4" width="1" height="4.4"/>
				<rect x="280.3" y="152.9" class="st4" width="1" height="4.4"/>
				<rect x="282.3" y="152.9" class="st4" width="1" height="4.4"/>
				<rect x="284.4" y="152.9" class="st4" width="1" height="4.4"/>
				<rect x="286.4" y="152.9" class="st4" width="1" height="4.4"/>
			</g>
			<g>
				<rect x="270" y="130" class="st5" width="1" height="24.6"/>
				<rect x="268" y="130" class="st5" width="2" height="1.1"/>
			</g>
		</g>
		<rect x="277.9" y="139.9" class="st6" width="5.5" height="3.4"/>
		<rect x="292.9" y="137.9" class="st6" width="5.5" height="2"/>
		<rect x="285.1" y="135.1" class="st6" width="5.5" height="2"/>
		<rect x="277.9" y="146.4" class="st6" width="5.5" height="3.4"/>
		<rect x="292.9" y="143.3" class="st6" width="5.5" height="3.4"/>
	</g>
	<rect x="271.1" y="147.8" class="st4" width="6.8" height="0.7"/>
	<rect x="271.1" y="138.5" class="st4" width="8.2" height="0.7"/>
	<rect x="280" y="135.8" class="st4" width="5.1" height="0.7"/>
	
		<rect x="277.9" y="137.2" transform="matrix(6.123234e-17 -1 1 6.123234e-17 142.0975 417.1219)" class="st4" width="3.4" height="0.7"/>
	
		<rect x="288.7" y="140.1" transform="matrix(6.123234e-17 -1 1 6.123234e-17 149.7805 430.6097)" class="st4" width="3.1" height="0.7"/>
	
		<rect x="275.2" y="139.6" transform="matrix(6.123234e-17 -1 1 6.123234e-17 136.6341 416.439)" class="st4" width="2.7" height="0.7"/>
	
		<rect x="288.1" y="145.7" transform="matrix(6.123234e-17 -1 1 6.123234e-17 143.8048 435.9024)" class="st4" width="3.4" height="0.7"/>
	
		<rect x="289.5" y="147.4" transform="matrix(6.123234e-17 -1 1 6.123234e-17 143.4634 438.9756)" class="st4" width="3.4" height="0.7"/>
	<rect x="276.2" y="141.3" class="st4" width="1.7" height="0.7"/>
	<rect x="283.4" y="148.8" class="st4" width="7.5" height="0.7"/>
	<rect x="283.4" y="147.1" class="st4" width="6.8" height="0.7"/>
	<rect x="289.5" y="144" class="st4" width="3.4" height="0.7"/>
	<rect x="289.9" y="138.5" class="st4" width="3.1" height="0.7"/>
	<rect x="290.9" y="145.4" class="st4" width="2" height="0.7"/>
	<rect x="283.4" y="141.3" class="st4" width="6.8" height="0.7"/>
</g>
<text transform="matrix(1 0 0 1 176.5 29)" class="st1 st7">SDDC-Dswitch-Private</text>
<text transform="matrix(1 0 0 1 317.5 96.5)" class="st1 st2">uplink1 (1NIC-Adapter)</text>
<text transform="matrix(1 0 0 1 318.5 145.5)" class="st1 st2">uplink2 (1NIC-Adapter)</text>
<text transform="matrix(1 0 0 1 271 117)" class="st1 st8">vm nic0</text>
<text transform="matrix(1 0 0 1 270 167)" class="st1 st8">vm nic2</text>
<g>
	<rect x="238" y="87" class="st9" width="18" height="4"/>
	<rect x="238" y="92" width="18" height="8"/>
	<rect x="241" y="90" width="12" height="2"/>
	<rect x="242" y="89" width="10" height="1"/>
	<rect x="244" y="87" width="6" height="2"/>
	<rect x="240" y="96" class="st6" width="14" height="3"/>
	<rect x="239" y="88" class="st10" width="3" height="2"/>
	<rect x="252" y="88" class="st10" width="3" height="2"/>
</g>
<g>
	<rect x="187" y="78" class="st9" width="18" height="4"/>
	<rect x="187" y="83" width="18" height="8"/>
	<rect x="190" y="81" width="12" height="2"/>
	<rect x="191" y="80" width="10" height="1"/>
	<rect x="193" y="78" width="6" height="2"/>
	<rect x="189" y="87" class="st6" width="14" height="3"/>
	<rect x="188" y="79" class="st10" width="3" height="2"/>
	<rect x="201" y="79" class="st10" width="3" height="2"/>
</g>
<g>
	<rect x="239" y="136" class="st9" width="18" height="4"/>
	<rect x="239" y="141" width="18" height="8"/>
	<rect x="242" y="139" width="12" height="2"/>
	<rect x="243" y="138" width="10" height="1"/>
	<rect x="245" y="136" width="6" height="2"/>
	<rect x="241" y="145" class="st6" width="14" height="3"/>
	<rect x="240" y="137" class="st10" width="3" height="2"/>
	<rect x="253" y="137" class="st10" width="3" height="2"/>
</g>
<g>
	<rect x="188" y="150" class="st9" width="18" height="4"/>
	<rect x="188" y="155" width="18" height="8"/>
	<rect x="191" y="153" width="12" height="2"/>
	<rect x="192" y="152" width="10" height="1"/>
	<rect x="194" y="150" width="6" height="2"/>
	<rect x="190" y="159" class="st6" width="14" height="3"/>
	<rect x="189" y="151" class="st10" width="3" height="2"/>
	<rect x="202" y="151" class="st10" width="3" height="2"/>
</g>
<g>
	<rect x="188" y="221" class="st9" width="18" height="4"/>
	<rect x="188" y="226" width="18" height="8"/>
	<rect x="191" y="224" width="12" height="2"/>
	<rect x="192" y="223" width="10" height="1"/>
	<rect x="194" y="221" width="6" height="2"/>
	<rect x="190" y="230" class="st6" width="14" height="3"/>
	<rect x="189" y="222" class="st10" width="3" height="2"/>
	<rect x="202" y="222" class="st10" width="3" height="2"/>
</g>
<line class="st11" x1="205" y1="85" x2="232" y2="85"/>
<line class="st11" x1="205" y1="157.5" x2="232" y2="157.5"/>
<line class="st11" x1="206" y1="227.5" x2="216.5" y2="227.5"/>
<line class="st11" x1="256.5" y1="93.5" x2="270.5" y2="93.5"/>
<line class="st11" x1="256.5" y1="142.5" x2="269.5" y2="142.5"/>
<line class="st11" x1="261.5" y1="71.5" x2="261.5" y2="172.5"/>
<line class="st11" x1="216.5" y1="165.5" x2="216.5" y2="227.5"/>
<line class="st11" x1="233" y1="165.5" x2="216.5" y2="165.5"/>
</svg>
