<?xml version="1.0" encoding="utf-8"?>
<!-- Generator: Adobe Illustrator 16.0.0, SVG Export Plug-In . SVG Version: 6.00 Build 0)  -->
<!DOCTYPE svg PUBLIC "-//W3C//DTD SVG 1.1//EN" "http://www.w3.org/Graphics/SVG/1.1/DTD/svg11.dtd">
<svg version="1.1" id="Layer_1" xmlns="http://www.w3.org/2000/svg" xmlns:xlink="http://www.w3.org/1999/xlink" x="0px" y="0px"
	 width="500px" height="300px" viewBox="0 0 500 300" enable-background="new 0 0 500 300" xml:space="preserve">
<g>
	<rect x="6.847" y="57.513" fill="#FFFFFF" width="189.64" height="52.974"/>
	<path d="M195.974,58.026v51.947H7.36V58.026H195.974 M197,57H6.333v54H197V57L197,57z"/>
</g>
<text transform="matrix(1 0 0 1 12.834 74.5)"><tspan x="0" y="0" font-family="'IBMPlexSans'" font-size="12">SDDC-DPG-Mgmt</tspan><tspan x="0" y="14.4" font-family="'IBMPlexSans'" font-size="12">VLAN ID: --</tspan><tspan x="0" y="28.8" font-family="'IBMPlexSans'" font-size="12">vmk0: Primäre private Adresse</tspan></text>
<g>
	<g>
		<rect x="232.5" y="71" fill="#FFFFFF" width="233" height="102"/>
		<path d="M465,71.5v101H233v-101H465 M466,70.5H232v103h234V70.5L466,70.5z"/>
	</g>
</g>
<g>
	<rect x="6.848" y="130.515" fill="#FFFFFF" width="190.637" height="52.971"/>
	<path d="M196.971,131.029v51.941H7.362v-51.941H196.971 M198,130H6.333v54H198V130L198,130z"/>
</g>
<text transform="matrix(1 0 0 1 12.834 146.7314)"><tspan x="0" y="0" font-family="'IBMPlexSans'" font-size="12">SDDC-DPG-vMotion</tspan><tspan x="0" y="14.399" font-family="'IBMPlexSans'" font-size="12">VLAN ID: --</tspan><tspan x="0" y="28.8" font-family="'IBMPlexSans'" font-size="12">vmk1: Portierbare private Adresse</tspan></text>
<g>
	<rect x="6.847" y="201.513" fill="#FFFFFF" width="189.64" height="52.975"/>
	<path d="M195.974,202.026v51.947H7.36v-51.947H195.974 M197,201H6.333v54H197V201L197,201z"/>
</g>
<text transform="matrix(1 0 0 1 12.834 218.5)"><tspan x="0" y="0" font-family="'IBMPlexSans'" font-size="12">SDDC-DPG-NFS</tspan><tspan x="0" y="14.4" font-family="'IBMPlexSans'" font-size="12">VLAN ID: &lt;Privates VLAN B&gt;</tspan><tspan x="0" y="28.8" font-family="'IBMPlexSans'" font-size="12">vmk2: Portierbare private Adresse</tspan></text>
<g>
	<g>
		<g>
			<g>
				<g>
					<rect x="272.073" y="81.708" fill="#006837" width="34.487" height="21.17"/>
					<rect x="276.171" y="102.878" fill="#006837" width="13.317" height="5.122"/>
				</g>
				<rect x="277.195" y="102.878" fill="#FBB03B" width="1.024" height="4.439"/>
				<rect x="279.244" y="102.878" fill="#FBB03B" width="1.024" height="4.439"/>
				<rect x="281.293" y="102.878" fill="#FBB03B" width="1.024" height="4.439"/>
				<rect x="283.342" y="102.878" fill="#FBB03B" width="1.024" height="4.439"/>
				<rect x="285.391" y="102.878" fill="#FBB03B" width="1.024" height="4.439"/>
				<rect x="287.439" y="102.878" fill="#FBB03B" width="1.023" height="4.439"/>
			</g>
			<g>
				<rect x="271.049" y="80" fill="#534741" width="1.024" height="24.585"/>
				<rect x="269" y="80" fill="#534741" width="2.049" height="1.054"/>
			</g>
		</g>
		<rect x="278.902" y="89.902" fill="#333333" width="5.464" height="3.415"/>
		<rect x="293.927" y="87.854" fill="#333333" width="5.464" height="2.049"/>
		<rect x="286.073" y="85.122" fill="#333333" width="5.463" height="2.049"/>
		<rect x="278.902" y="96.39" fill="#333333" width="5.464" height="3.415"/>
		<rect x="293.927" y="93.317" fill="#333333" width="5.464" height="3.415"/>
	</g>
	<rect x="272.073" y="97.756" fill="#FBB03B" width="6.829" height="0.683"/>
	<rect x="272.073" y="88.537" fill="#FBB03B" width="8.195" height="0.683"/>
	<rect x="280.951" y="85.805" fill="#FBB03B" width="5.122" height="0.683"/>
	<rect x="280.269" y="85.805" fill="#FBB03B" width="0.683" height="3.415"/>
	<rect x="290.854" y="88.878" fill="#FBB03B" width="0.683" height="3.073"/>
	<rect x="277.195" y="88.537" fill="#FBB03B" width="0.683" height="2.731"/>
	<rect x="290.512" y="94.341" fill="#FBB03B" width="0.684" height="3.415"/>
	<rect x="291.878" y="96.049" fill="#FBB03B" width="0.683" height="3.415"/>
	<rect x="277.195" y="91.268" fill="#FBB03B" width="1.707" height="0.683"/>
	<rect x="284.366" y="98.78" fill="#FBB03B" width="7.512" height="0.683"/>
	<rect x="284.366" y="97.073" fill="#FBB03B" width="6.829" height="0.683"/>
	<rect x="290.512" y="94" fill="#FBB03B" width="3.415" height="0.683"/>
	<rect x="290.854" y="88.537" fill="#FBB03B" width="3.073" height="0.683"/>
	<rect x="291.878" y="95.366" fill="#FBB03B" width="2.049" height="0.683"/>
	<rect x="284.366" y="91.268" fill="#FBB03B" width="6.829" height="0.683"/>
</g>
<g>
	<g>
		<g>
			<g>
				<g>
					<rect x="271.073" y="131.708" fill="#006837" width="34.487" height="21.17"/>
					<rect x="275.171" y="152.878" fill="#006837" width="13.317" height="5.122"/>
				</g>
				<rect x="276.195" y="152.878" fill="#FBB03B" width="1.024" height="4.439"/>
				<rect x="278.244" y="152.878" fill="#FBB03B" width="1.024" height="4.439"/>
				<rect x="280.293" y="152.878" fill="#FBB03B" width="1.024" height="4.439"/>
				<rect x="282.342" y="152.878" fill="#FBB03B" width="1.024" height="4.439"/>
				<rect x="284.391" y="152.878" fill="#FBB03B" width="1.024" height="4.439"/>
				<rect x="286.439" y="152.878" fill="#FBB03B" width="1.023" height="4.439"/>
			</g>
			<g>
				<rect x="270.049" y="130" fill="#534741" width="1.024" height="24.585"/>
				<rect x="268" y="130" fill="#534741" width="2.049" height="1.054"/>
			</g>
		</g>
		<rect x="277.902" y="139.902" fill="#333333" width="5.464" height="3.415"/>
		<rect x="292.927" y="137.854" fill="#333333" width="5.464" height="2.049"/>
		<rect x="285.073" y="135.122" fill="#333333" width="5.463" height="2.049"/>
		<rect x="277.902" y="146.39" fill="#333333" width="5.464" height="3.415"/>
		<rect x="292.927" y="143.317" fill="#333333" width="5.464" height="3.415"/>
	</g>
	<rect x="271.073" y="147.756" fill="#FBB03B" width="6.829" height="0.683"/>
	<rect x="271.073" y="138.537" fill="#FBB03B" width="8.195" height="0.683"/>
	<rect x="279.951" y="135.805" fill="#FBB03B" width="5.122" height="0.683"/>
	<rect x="279.269" y="135.805" fill="#FBB03B" width="0.683" height="3.415"/>
	<rect x="289.854" y="138.878" fill="#FBB03B" width="0.683" height="3.073"/>
	<rect x="276.195" y="138.537" fill="#FBB03B" width="0.683" height="2.731"/>
	<rect x="289.512" y="144.341" fill="#FBB03B" width="0.684" height="3.415"/>
	<rect x="290.878" y="146.049" fill="#FBB03B" width="0.683" height="3.415"/>
	<rect x="276.195" y="141.268" fill="#FBB03B" width="1.707" height="0.683"/>
	<rect x="283.366" y="148.78" fill="#FBB03B" width="7.512" height="0.683"/>
	<rect x="283.366" y="147.073" fill="#FBB03B" width="6.829" height="0.683"/>
	<rect x="289.512" y="144" fill="#FBB03B" width="3.415" height="0.683"/>
	<rect x="289.854" y="138.537" fill="#FBB03B" width="3.073" height="0.683"/>
	<rect x="290.878" y="145.366" fill="#FBB03B" width="2.049" height="0.683"/>
	<rect x="283.366" y="141.268" fill="#FBB03B" width="6.829" height="0.683"/>
</g>
<text transform="matrix(1 0 0 1 176.5 29)" font-family="'IBMPlexSans'" font-size="14">SDDC-Dswitch-Private</text>
<text transform="matrix(1 0 0 1 317.5 96.5)" font-family="'IBMPlexSans'" font-size="12">uplink1 (1NIC-Adapter)</text>
<text transform="matrix(1 0 0 1 318.5 145.5)" font-family="'IBMPlexSans'" font-size="12">uplink2 (1NIC-Adapter)</text>
<text transform="matrix(1 0 0 1 271 117)" font-family="'IBMPlexSans'" font-size="10">vm nic0</text>
<text transform="matrix(1 0 0 1 270 167)" font-family="'IBMPlexSans'" font-size="10">vm nic2</text>
<g>
	<rect x="238" y="87" fill="#B3B3B3" width="18" height="4"/>
	<rect x="238" y="92" width="18" height="8"/>
	<rect x="241" y="90" width="12" height="2"/>
	<rect x="242" y="89" width="10" height="1"/>
	<rect x="244" y="87" width="6" height="2"/>
	<rect x="240" y="96" fill="#333333" width="14" height="3"/>
	<rect x="239" y="88" fill="#808080" width="3" height="2"/>
	<rect x="252" y="88" fill="#808080" width="3" height="2"/>
</g>
<g>
	<rect x="187" y="78" fill="#B3B3B3" width="18" height="4"/>
	<rect x="187" y="83" width="18" height="8"/>
	<rect x="190" y="81" width="12" height="2"/>
	<rect x="191" y="80" width="10" height="1"/>
	<rect x="193" y="78" width="6" height="2"/>
	<rect x="189" y="87" fill="#333333" width="14" height="3"/>
	<rect x="188" y="79" fill="#808080" width="3" height="2"/>
	<rect x="201" y="79" fill="#808080" width="3" height="2"/>
</g>
<g>
	<rect x="239" y="136" fill="#B3B3B3" width="18" height="4"/>
	<rect x="239" y="141" width="18" height="8"/>
	<rect x="242" y="139" width="12" height="2"/>
	<rect x="243" y="138" width="10" height="1"/>
	<rect x="245" y="136" width="6" height="2"/>
	<rect x="241" y="145" fill="#333333" width="14" height="3"/>
	<rect x="240" y="137" fill="#808080" width="3" height="2"/>
	<rect x="253" y="137" fill="#808080" width="3" height="2"/>
</g>
<g>
	<rect x="188" y="150" fill="#B3B3B3" width="18" height="4"/>
	<rect x="188" y="155" width="18" height="8"/>
	<rect x="191" y="153" width="12" height="2"/>
	<rect x="192" y="152" width="10" height="1"/>
	<rect x="194" y="150" width="6" height="2"/>
	<rect x="190" y="159" fill="#333333" width="14" height="3"/>
	<rect x="189" y="151" fill="#808080" width="3" height="2"/>
	<rect x="202" y="151" fill="#808080" width="3" height="2"/>
</g>
<g>
	<rect x="188" y="221" fill="#B3B3B3" width="18" height="4"/>
	<rect x="188" y="226" width="18" height="8"/>
	<rect x="191" y="224" width="12" height="2"/>
	<rect x="192" y="223" width="10" height="1"/>
	<rect x="194" y="221" width="6" height="2"/>
	<rect x="190" y="230" fill="#333333" width="14" height="3"/>
	<rect x="189" y="222" fill="#808080" width="3" height="2"/>
	<rect x="202" y="222" fill="#808080" width="3" height="2"/>
</g>
<line fill="none" stroke="#000000" stroke-miterlimit="10" x1="205" y1="85" x2="232" y2="85"/>
<line fill="none" stroke="#000000" stroke-miterlimit="10" x1="205" y1="157.5" x2="232" y2="157.5"/>
<line fill="none" stroke="#000000" stroke-miterlimit="10" x1="206" y1="227.5" x2="216.5" y2="227.5"/>
<line fill="none" stroke="#000000" stroke-miterlimit="10" x1="256.5" y1="93.5" x2="270.5" y2="93.5"/>
<line fill="none" stroke="#000000" stroke-miterlimit="10" x1="256.5" y1="142.5" x2="269.5" y2="142.5"/>
<line fill="none" stroke="#000000" stroke-miterlimit="10" x1="261.5" y1="71.5" x2="261.5" y2="172.5"/>
<line fill="none" stroke="#000000" stroke-miterlimit="10" x1="216.5" y1="165.5" x2="216.5" y2="227.5"/>
<line fill="none" stroke="#000000" stroke-miterlimit="10" x1="233" y1="165.5" x2="216.5" y2="165.5"/>
</svg>
