<?xml version="1.0" encoding="UTF-8"?>
<svg xmlns="http://www.w3.org/2000/svg" xmlns:xlink="http://www.w3.org/1999/xlink" version="1.1" width="1141px" height="631px" viewBox="-0.5 -0.5 1141 631"><defs/><g><rect x="0" y="0" width="880" height="630" rx="94.5" ry="94.5" fill="#f5f5f5" stroke="#666666" pointer-events="none"/><rect x="10" y="270" width="851" height="110" rx="16.5" ry="16.5" fill="#bac8d3" stroke="#23445d" pointer-events="none"/><rect x="890" y="0" width="250" height="630" rx="37.5" ry="37.5" fill="#dae8fc" stroke="#6c8ebf" pointer-events="none"/><rect x="282" y="164" width="570" height="70" fill="#b0e3e6" stroke="#0e8088" pointer-events="none"/><g fill="#000000" font-family="Helvetica" text-anchor="middle" font-size="12px"><text x="566.5" y="202.5">Agregación de sucesos</text></g><rect x="402" y="290" width="90" height="70" fill="#b0e3e6" stroke="#0e8088" pointer-events="none"/><g fill="#000000" font-family="Helvetica" text-anchor="middle" font-size="12px"><text x="446.5" y="321.5">Gestión de</text><text x="446.5" y="335.5">almacenamiento</text></g><rect x="282" y="290" width="90" height="70" fill="#b0e3e6" stroke="#0e8088" pointer-events="none"/><g fill="#000000" font-family="Helvetica" text-anchor="middle" font-size="12px"><text x="326.5" y="321.5">Gestión de copia</text><text x="326.5" y="335.5">de seguridad</text></g><rect x="522" y="290" width="90" height="70" fill="#b0e3e6" stroke="#0e8088" pointer-events="none"/><g fill="#000000" font-family="Helvetica" text-anchor="middle" font-size="12px"><text x="566.5" y="321.5">Supervisión de</text><text x="566.5" y="335.5">disponibilidad</text></g><rect x="642" y="290" width="90" height="70" fill="#b0e3e6" stroke="#0e8088" pointer-events="none"/><g fill="#000000" font-family="Helvetica" text-anchor="middle" font-size="12px"><text x="686.5" y="328.5">SNMP</text></g><rect x="152" y="290" width="90" height="70" fill="#b0e3e6" stroke="#0e8088" pointer-events="none"/><g fill="#000000" font-family="Helvetica" text-anchor="middle" font-size="12px"><text x="196.5" y="321.5">Capacidad y</text><text x="196.5" y="335.5">rendimiento</text></g><rect x="762" y="290" width="90" height="70" fill="#b0e3e6" stroke="#0e8088" pointer-events="none"/><g fill="#000000" font-family="Helvetica" text-anchor="middle" font-size="12px"><text x="806.5" y="321.5">Supervisión</text><text x="806.5" y="335.5">de SO</text></g><rect x="22" y="290" width="90" height="70" fill="#b0e3e6" stroke="#0e8088" pointer-events="none"/><g fill="#000000" font-family="Helvetica" text-anchor="middle" font-size="12px"><text x="66.5" y="321.5">Parches y</text><text x="66.5" y="335.5">conformidad</text></g><rect x="22" y="420" width="830" height="70" fill="#b0e3e6" stroke="#0e8088" pointer-events="none"/><g fill="#000000" font-family="Helvetica" text-anchor="middle" font-size="12px"><text x="436.5" y="458.5">Servidor, almacenamineto, red, SO, middleware, aplicaciones</text></g><rect x="522" y="38" width="90" height="70" fill="#b0e3e6" stroke="#0e8088" pointer-events="none"/><g fill="#000000" font-family="Helvetica" text-anchor="middle" font-size="12px"><text x="566.5" y="69.5">Herramienta de</text><text x="566.5" y="83.5">gestión incidencias</text></g><path d="M 66.11 413.63 L 66.89 366.37" fill="none" stroke="#000000" stroke-miterlimit="10" pointer-events="none"/><path d="M 66.02 418.88 L 62.64 411.82 L 66.11 413.63 L 69.63 411.94 Z" fill="#000000" stroke="#000000" stroke-miterlimit="10" pointer-events="none"/><path d="M 66.98 361.12 L 70.36 368.18 L 66.89 366.37 L 63.37 368.06 Z" fill="#000000" stroke="#000000" stroke-miterlimit="10" pointer-events="none"/><path d="M 197 412.63 L 197 366.37" fill="none" stroke="#000000" stroke-miterlimit="10" pointer-events="none"/><path d="M 197 417.88 L 193.5 410.88 L 197 412.63 L 200.5 410.88 Z" fill="#000000" stroke="#000000" stroke-miterlimit="10" pointer-events="none"/><path d="M 197 361.12 L 200.5 368.12 L 197 366.37 L 193.5 368.12 Z" fill="#000000" stroke="#000000" stroke-miterlimit="10" pointer-events="none"/><path d="M 327 411.63 L 327 366.37" fill="none" stroke="#000000" stroke-miterlimit="10" pointer-events="none"/><path d="M 327 416.88 L 323.5 409.88 L 327 411.63 L 330.5 409.88 Z" fill="#000000" stroke="#000000" stroke-miterlimit="10" pointer-events="none"/><path d="M 327 361.12 L 330.5 368.12 L 327 366.37 L 323.5 368.12 Z" fill="#000000" stroke="#000000" stroke-miterlimit="10" pointer-events="none"/><path d="M 447 412.63 L 447 366.37" fill="none" stroke="#000000" stroke-miterlimit="10" pointer-events="none"/><path d="M 447 417.88 L 443.5 410.88 L 447 412.63 L 450.5 410.88 Z" fill="#000000" stroke="#000000" stroke-miterlimit="10" pointer-events="none"/><path d="M 447 361.12 L 450.5 368.12 L 447 366.37 L 443.5 368.12 Z" fill="#000000" stroke="#000000" stroke-miterlimit="10" pointer-events="none"/><path d="M 567 412.63 L 567 366.37" fill="none" stroke="#000000" stroke-miterlimit="10" pointer-events="none"/><path d="M 567 417.88 L 563.5 410.88 L 567 412.63 L 570.5 410.88 Z" fill="#000000" stroke="#000000" stroke-miterlimit="10" pointer-events="none"/><path d="M 567 361.12 L 570.5 368.12 L 567 366.37 L 563.5 368.12 Z" fill="#000000" stroke="#000000" stroke-miterlimit="10" pointer-events="none"/><path d="M 687 415.63 L 687 366.37" fill="none" stroke="#000000" stroke-miterlimit="10" pointer-events="none"/><path d="M 687 420.88 L 683.5 413.88 L 687 415.63 L 690.5 413.88 Z" fill="#000000" stroke="#000000" stroke-miterlimit="10" pointer-events="none"/><path d="M 687 361.12 L 690.5 368.12 L 687 366.37 L 683.5 368.12 Z" fill="#000000" stroke="#000000" stroke-miterlimit="10" pointer-events="none"/><path d="M 807 412.63 L 807 366.37" fill="none" stroke="#000000" stroke-miterlimit="10" pointer-events="none"/><path d="M 807 417.88 L 803.5 410.88 L 807 412.63 L 810.5 410.88 Z" fill="#000000" stroke="#000000" stroke-miterlimit="10" pointer-events="none"/><path d="M 807 361.12 L 810.5 368.12 L 807 366.37 L 803.5 368.12 Z" fill="#000000" stroke="#000000" stroke-miterlimit="10" pointer-events="none"/><path d="M 327 284.63 L 327 239.37" fill="none" stroke="#000000" stroke-miterlimit="10" pointer-events="none"/><path d="M 327 289.88 L 323.5 282.88 L 327 284.63 L 330.5 282.88 Z" fill="#000000" stroke="#000000" stroke-miterlimit="10" pointer-events="none"/><path d="M 327 234.12 L 330.5 241.12 L 327 239.37 L 323.5 241.12 Z" fill="#000000" stroke="#000000" stroke-miterlimit="10" pointer-events="none"/><path d="M 447 285.63 L 447 239.37" fill="none" stroke="#000000" stroke-miterlimit="10" pointer-events="none"/><path d="M 447 290.88 L 443.5 283.88 L 447 285.63 L 450.5 283.88 Z" fill="#000000" stroke="#000000" stroke-miterlimit="10" pointer-events="none"/><path d="M 447 234.12 L 450.5 241.12 L 447 239.37 L 443.5 241.12 Z" fill="#000000" stroke="#000000" stroke-miterlimit="10" pointer-events="none"/><path d="M 567 285.63 L 567 239.37" fill="none" stroke="#000000" stroke-miterlimit="10" pointer-events="none"/><path d="M 567 290.88 L 563.5 283.88 L 567 285.63 L 570.5 283.88 Z" fill="#000000" stroke="#000000" stroke-miterlimit="10" pointer-events="none"/><path d="M 567 234.12 L 570.5 241.12 L 567 239.37 L 563.5 241.12 Z" fill="#000000" stroke="#000000" stroke-miterlimit="10" pointer-events="none"/><path d="M 687 288.63 L 687 239.37" fill="none" stroke="#000000" stroke-miterlimit="10" pointer-events="none"/><path d="M 687 293.88 L 683.5 286.88 L 687 288.63 L 690.5 286.88 Z" fill="#000000" stroke="#000000" stroke-miterlimit="10" pointer-events="none"/><path d="M 687 234.12 L 690.5 241.12 L 687 239.37 L 683.5 241.12 Z" fill="#000000" stroke="#000000" stroke-miterlimit="10" pointer-events="none"/><path d="M 807 285.63 L 807 239.37" fill="none" stroke="#000000" stroke-miterlimit="10" pointer-events="none"/><path d="M 807 290.88 L 803.5 283.88 L 807 285.63 L 810.5 283.88 Z" fill="#000000" stroke="#000000" stroke-miterlimit="10" pointer-events="none"/><path d="M 807 234.12 L 810.5 241.12 L 807 239.37 L 803.5 241.12 Z" fill="#000000" stroke="#000000" stroke-miterlimit="10" pointer-events="none"/><path d="M 566 157.63 L 566 111.37" fill="none" stroke="#000000" stroke-miterlimit="10" pointer-events="none"/><path d="M 566 162.88 L 562.5 155.88 L 566 157.63 L 569.5 155.88 Z" fill="#000000" stroke="#000000" stroke-miterlimit="10" pointer-events="none"/><path d="M 566 106.12 L 569.5 113.12 L 566 111.37 L 562.5 113.12 Z" fill="#000000" stroke="#000000" stroke-miterlimit="10" pointer-events="none"/><g fill="#000000" font-family="Helvetica" font-weight="bold" text-anchor="middle" font-size="12px"><text x="466.5" y="23.5">Capa existente de gestión de servicio de empresa </text></g><rect x="1019" y="290" width="90" height="70" fill="#fff2cc" stroke="#d6b656" pointer-events="none"/><g fill="#000000" font-family="Helvetica" text-anchor="middle" font-size="12px"><text x="1063.5" y="321.5">vROps</text></g><rect x="1019" y="420" width="90" height="70" fill="#e1d5e7" stroke="#9673a6" pointer-events="none"/><g fill="#000000" font-family="Helvetica" text-anchor="middle" font-size="12px"><text x="1063.5" y="451.5"> Instancia de</text><text x="1063.5" y="465.5">vCenter Server</text></g><path d="M 1064 413.63 L 1064 400 Q 1064 390 1064 380 L 1064 366.37" fill="none" stroke="#000000" stroke-miterlimit="10" pointer-events="none"/><path d="M 1064 418.88 L 1060.5 411.88 L 1064 413.63 L 1067.5 411.88 Z" fill="#000000" stroke="#000000" stroke-miterlimit="10" pointer-events="none"/><path d="M 1064 361.12 L 1067.5 368.12 L 1064 366.37 L 1060.5 368.12 Z" fill="#000000" stroke="#000000" stroke-miterlimit="10" pointer-events="none"/><path d="M 1064 290 L 1064 203 Q 1064 193 1054 193 L 858.37 193" fill="none" stroke="#000000" stroke-miterlimit="10" pointer-events="none"/><path d="M 853.12 193 L 860.12 189.5 L 858.37 193 L 860.12 196.5 Z" fill="#000000" stroke="#000000" stroke-miterlimit="10" pointer-events="none"/><g fill="#000000" font-family="Helvetica" font-weight="bold" text-anchor="middle" font-size="12px"><text x="1019.5" y="23.5">IBM Cloud</text></g><rect x="905" y="420" width="90" height="70" fill="#ffffff" stroke="#000000" pointer-events="none"/><g fill="#000000" font-family="Helvetica" text-anchor="middle" font-size="12px"><text x="949.5" y="444.5">SO,</text><text x="949.5" y="458.5">middleware,</text><text x="949.5" y="472.5">aplicaciones</text></g><rect x="905" y="290" width="90" height="70" fill="#bac8d3" stroke="#23445d" pointer-events="none"/><g fill="#000000" font-family="Helvetica" text-anchor="middle" font-size="12px"><text x="949.5" y="328.5">Proxies</text></g><path d="M 950 413.63 L 950 366.37" fill="none" stroke="#000000" stroke-miterlimit="10" pointer-events="none"/><path d="M 950 418.88 L 946.5 411.88 L 950 413.63 L 953.5 411.88 Z" fill="#000000" stroke="#000000" stroke-miterlimit="10" pointer-events="none"/><path d="M 950 361.12 L 953.5 368.12 L 950 366.37 L 946.5 368.12 Z" fill="#000000" stroke="#000000" stroke-miterlimit="10" pointer-events="none"/><path d="M 898.63 325 L 866.37 325" fill="none" stroke="#000000" stroke-miterlimit="10" pointer-events="none"/><path d="M 903.88 325 L 896.88 328.5 L 898.63 325 L 896.88 321.5 Z" fill="#000000" stroke="#000000" stroke-miterlimit="10" pointer-events="none"/><path d="M 861.12 325 L 868.12 321.5 L 866.37 325 L 868.12 328.5 Z" fill="#000000" stroke="#000000" stroke-miterlimit="10" pointer-events="none"/><rect x="402" y="548" width="90" height="70" fill="#b0e3e6" stroke="#0e8088" pointer-events="none"/><g fill="#000000" font-family="Helvetica" text-anchor="middle" font-size="12px"><text x="446.5" y="579.5">Registro</text><text x="446.5" y="593.5">empresarial</text></g><path d="M 447 543.63 L 447 491" fill="none" stroke="#000000" stroke-miterlimit="10" pointer-events="none"/><path d="M 447 548.88 L 443.5 541.88 L 447 543.63 L 450.5 541.88 Z" fill="#000000" stroke="#000000" stroke-miterlimit="10" pointer-events="none"/><rect x="1019" y="548" width="90" height="70" fill="#fff2cc" stroke="#d6b656" pointer-events="none"/><g fill="#000000" font-family="Helvetica" text-anchor="middle" font-size="12px"><text x="1063.5" y="579.5">vRLI</text></g><path d="M 1064 541.63 L 1064 490" fill="none" stroke="#000000" stroke-miterlimit="10" pointer-events="none"/><path d="M 1064 546.88 L 1060.5 539.88 L 1064 541.63 L 1067.5 539.88 Z" fill="#000000" stroke="#000000" stroke-miterlimit="10" pointer-events="none"/><path d="M 498.37 583 L 1019 583" fill="none" stroke="#000000" stroke-miterlimit="10" pointer-events="none"/><path d="M 493.12 583 L 500.12 579.5 L 498.37 583 L 500.12 586.5 Z" fill="#000000" stroke="#000000" stroke-miterlimit="10" pointer-events="none"/><path d="M 1115.37 325 L 1120.18 325 Q 1125 325 1125 335 L 1125 573 Q 1125 583 1117 583 L 1109 583" fill="none" stroke="#000000" stroke-miterlimit="10" pointer-events="none"/><path d="M 1110.12 325 L 1117.12 321.5 L 1115.37 325 L 1117.12 328.5 Z" fill="#000000" stroke="#000000" stroke-miterlimit="10" pointer-events="none"/></g></svg>
