<?xml version="1.0" encoding="UTF-8" standalone="no"?>
<!-- Generator: Adobe Illustrator 21.0.0, SVG Export Plug-In . SVG Version: 6.00 Build 0)  -->

<svg
   xmlns:dc="http://purl.org/dc/elements/1.1/"
   xmlns:cc="http://creativecommons.org/ns#"
   xmlns:rdf="http://www.w3.org/1999/02/22-rdf-syntax-ns#"
   xmlns:svg="http://www.w3.org/2000/svg"
   xmlns="http://www.w3.org/2000/svg"
   xmlns:sodipodi="http://sodipodi.sourceforge.net/DTD/sodipodi-0.dtd"
   xmlns:inkscape="http://www.inkscape.org/namespaces/inkscape"
   version="1.1"
   x="0px"
   y="0px"
   viewBox="0 0 666.9184 437.25208"
   xml:space="preserve"
   id="svg221"
   sodipodi:docname="kmip-key-protect.svg"
   inkscape:version="0.92.3 (2405546, 2018-03-11)"
   width="666.9184"
   height="437.25208"><metadata
   id="metadata227"><rdf:RDF><cc:Work
       rdf:about=""><dc:format>image/svg+xml</dc:format><dc:type
         rdf:resource="http://purl.org/dc/dcmitype/StillImage" /><dc:title></dc:title></cc:Work></rdf:RDF></metadata><defs
   id="defs225">
	

	

	

	

	
	

	

		
		
	
			
			
			
		
				
				

			
				
				

			
				
				

			</defs><sodipodi:namedview
   pagecolor="#ffffff"
   bordercolor="#666666"
   borderopacity="1"
   objecttolerance="10"
   gridtolerance="10"
   guidetolerance="10"
   inkscape:pageopacity="0"
   inkscape:pageshadow="2"
   inkscape:window-width="3391"
   inkscape:window-height="1376"
   id="namedview223"
   showgrid="false"
   inkscape:zoom="0.73839469"
   inkscape:cx="-195.5721"
   inkscape:cy="25.66492"
   inkscape:window-x="49"
   inkscape:window-y="27"
   inkscape:window-maximized="1"
   inkscape:current-layer="svg221"
   fit-margin-top="0"
   fit-margin-left="0"
   fit-margin-right="0"
   fit-margin-bottom="0" />
<style
   type="text/css"
   id="style2">
	.st0{fill:#B6CAEF;stroke:#0071BC;stroke-miterlimit:10;}
	.st1{font-family:'IBMPlexSans';}
	.st2{font-size:14px;}
	.st3{fill:#FFFFFF;}
	.st4{fill:#FFFFFF;stroke:#000000;stroke-miterlimit:10;}
	.st5{fill:#ABD6AD;stroke:#006837;stroke-miterlimit:10;}
	.st6{fill:none;stroke:#000000;stroke-miterlimit:10;}
	.st7{fill:none;stroke:#000000;stroke-miterlimit:10;stroke-dasharray:4.969,4.969;}
	.st8{fill:none;stroke:#000000;stroke-miterlimit:10;stroke-dasharray:5.0236,5.0236;}
</style>
<g
   id="vCenter_VM_ESXi"
   transform="translate(-10,-4.883297)">
	<g
   id="ESXi_1">
		<path
   class="st0"
   d="m 205.5,197.5 h -179 c -6.6,0 -12,-5.4 -12,-12 v -30 c 0,-6.6 5.4,-12 12,-12 h 179 c 6.6,0 12,5.4 12,12 v 30 c 0,6.6 -5.4,12 -12,12 z"
   id="path4"
   inkscape:connector-curvature="0"
   style="fill:#b6caef;stroke:#0071bc;stroke-miterlimit:10" />
		<text
   transform="translate(104.3335,177.6665)"
   class="st1 st2"
   id="text6"
   style="font-size:14px;font-family:IBMPlexSans"><tspan
     sodipodi:role="line"
     id="tspan7"
     x="0"
     y="0">ESXi</tspan></text>


	</g>
	<g
   id="ESXi_1_1_">
		<path
   class="st0"
   d="m 423.5,197.5 h -179 c -6.6,0 -12,-5.4 -12,-12 v -30 c 0,-6.6 5.4,-12 12,-12 h 179 c 6.6,0 12,5.4 12,12 v 30 c 0,6.6 -5.4,12 -12,12 z"
   id="path9"
   inkscape:connector-curvature="0"
   style="fill:#b6caef;stroke:#0071bc;stroke-miterlimit:10" />
		<text
   transform="translate(322.3335,177.6665)"
   class="st1 st2"
   id="text11"
   style="font-size:14px;font-family:IBMPlexSans"><tspan
     sodipodi:role="line"
     id="tspan12"
     x="0"
     y="0">ESXi</tspan></text>


	</g>
	<g
   id="ESXi_1_2_">
		<path
   class="st0"
   d="m 640.5,197.5 h -179 c -6.6,0 -12,-5.4 -12,-12 v -30 c 0,-6.6 5.4,-12 12,-12 h 179 c 6.6,0 12,5.4 12,12 v 30 c 0,6.6 -5.4,12 -12,12 z"
   id="path14"
   inkscape:connector-curvature="0"
   style="fill:#b6caef;stroke:#0071bc;stroke-miterlimit:10" />
		<text
   transform="translate(539.3335,177.6665)"
   class="st1 st2"
   id="text16"
   style="font-size:14px;font-family:IBMPlexSans"><tspan
     sodipodi:role="line"
     id="tspan17"
     x="0"
     y="0">ESXi</tspan></text>


	</g>
	<g
   id="vCenter">
		<g
   id="g23">
			<rect
   x="37.5"
   y="95.5"
   class="st3"
   width="61"
   height="61"
   id="rect19"
   style="fill:#ffffff" />
			<path
   d="m 98,96 v 60 H 38 V 96 h 60 m 1,-1 H 37 v 62 h 62 z"
   id="path21"
   inkscape:connector-curvature="0" />
		</g>
		<text
   transform="translate(43.5493,130.228)"
   class="st1 st2"
   id="text25"
   style="font-size:14px;font-family:IBMPlexSans"><tspan
     sodipodi:role="line"
     id="tspan24"
     x="0"
     y="0">vCenter</tspan></text>


	</g>
	<g
   id="VM1">
		<g
   id="g32">
			<rect
   x="138.5"
   y="95.5"
   class="st3"
   width="61"
   height="61"
   id="rect28"
   style="fill:#ffffff" />
			<path
   d="m 199,96 v 60 H 139 V 96 h 60 m 1,-1 h -62 v 62 h 62 z"
   id="path30"
   inkscape:connector-curvature="0" />
		</g>
		<text
   transform="translate(159.053,130.228)"
   class="st1 st2"
   id="text34"
   style="font-size:14px;font-family:IBMPlexSans"><tspan
     sodipodi:role="line"
     id="tspan31"
     x="0"
     y="0">VM</tspan></text>


	</g>
	<g
   id="VM2">
		<g
   id="g41">
			<rect
   x="255.5"
   y="95.5"
   class="st3"
   width="61"
   height="61"
   id="rect37"
   style="fill:#ffffff" />
			<path
   d="m 316,96 v 60 H 256 V 96 h 60 m 1,-1 h -62 v 62 h 62 z"
   id="path39"
   inkscape:connector-curvature="0" />
		</g>
		<text
   transform="translate(276.053,130.228)"
   class="st1 st2"
   id="text43"
   style="font-size:14px;font-family:IBMPlexSans"><tspan
     sodipodi:role="line"
     id="tspan38"
     x="0"
     y="0">VM</tspan></text>


	</g>
	<g
   id="VM3">
		<g
   id="g50">
			<rect
   x="349.5"
   y="95.5"
   class="st3"
   width="61"
   height="61"
   id="rect46"
   style="fill:#ffffff" />
			<path
   d="m 410,96 v 60 H 350 V 96 h 60 m 1,-1 h -62 v 62 h 62 z"
   id="path48"
   inkscape:connector-curvature="0" />
		</g>
		<text
   transform="translate(370.053,130.228)"
   class="st1 st2"
   id="text52"
   style="font-size:14px;font-family:IBMPlexSans"><tspan
     sodipodi:role="line"
     id="tspan45"
     x="0"
     y="0">VM</tspan></text>


	</g>
	<g
   id="VM4">
		<g
   id="g59">
			<rect
   x="470.5"
   y="95.5"
   class="st3"
   width="61"
   height="61"
   id="rect55"
   style="fill:#ffffff" />
			<path
   d="m 531,96 v 60 H 471 V 96 h 60 m 1,-1 h -62 v 62 h 62 z"
   id="path57"
   inkscape:connector-curvature="0" />
		</g>
		<text
   transform="translate(491.053,130.228)"
   class="st1 st2"
   id="text61"
   style="font-size:14px;font-family:IBMPlexSans"><tspan
     sodipodi:role="line"
     id="tspan52"
     x="0"
     y="0">VM</tspan></text>


	</g>
	<g
   id="VM5">
		<g
   id="g68">
			<rect
   x="562.5"
   y="95.5"
   class="st3"
   width="61"
   height="61"
   id="rect64"
   style="fill:#ffffff" />
			<path
   d="m 623,96 v 60 H 563 V 96 h 60 m 1,-1 h -62 v 62 h 62 z"
   id="path66"
   inkscape:connector-curvature="0" />
		</g>
		<text
   transform="translate(583.053,130.228)"
   class="st1 st2"
   id="text70"
   style="font-size:14px;font-family:IBMPlexSans"><tspan
     sodipodi:role="line"
     id="tspan59"
     x="0"
     y="0">VM</tspan></text>


	</g>
	<g
   id="certificate_top">
		<path
   class="st4"
   d="m 51,74 v 30.7 c 0,0 17.8,9.7 36.3,0 18.5,-9.7 38,0 38,0 V 74 Z"
   id="path73"
   inkscape:connector-curvature="0"
   style="fill:#ffffff;stroke:#000000;stroke-miterlimit:10" />
		<text
   transform="translate(56,92.5)"
   class="st1 st2"
   id="text75"
   style="font-size:14px;font-family:IBMPlexSans"><tspan
     sodipodi:role="line"
     id="tspan64"
     x="0"
     y="0">Zertifikat</tspan></text>


	</g>
</g>
<g
   id="KMIP"
   transform="translate(-10,-4.883297)">
	<g
   id="g98">
		<g
   id="g91">
			<g
   id="g83">
				<rect
   x="54.5"
   y="302.5"
   class="st5"
   width="127.7"
   height="48"
   id="rect79"
   style="fill:#abd6ad;stroke:#006837;stroke-miterlimit:10" />
				<text
   transform="translate(65,335.667)"
   class="st1 st2"
   id="text81"
   style="font-size:14px;font-family:IBMPlexSans"><tspan
     sodipodi:role="line"
     id="tspan70"
     x="0"
     y="0">KMIP for VMware</tspan></text>


			</g>
			<g
   id="g89">
				<rect
   x="37.5"
   y="287.5"
   class="st5"
   width="127.7"
   height="48"
   id="rect85"
   style="fill:#abd6ad;stroke:#006837;stroke-miterlimit:10" />
				<text
   transform="translate(48,320.667)"
   class="st1 st2"
   id="text87"
   style="font-size:14px;font-family:IBMPlexSans"><tspan
     sodipodi:role="line"
     id="tspan75"
     x="0"
     y="0">KMIP for VMware</tspan></text>


			</g>
		</g>
		<g
   id="certificate_top_1_">
			<path
   class="st4"
   d="m 108,268 v 30.7 c 0,0 17.8,9.7 36.3,0 18.6,-9.7 38,0 38,0 V 268 Z"
   id="path93"
   inkscape:connector-curvature="0"
   style="fill:#ffffff;stroke:#000000;stroke-miterlimit:10" />
			<text
   transform="translate(113,286.5)"
   class="st1 st2"
   id="text95"
   style="font-size:14px;font-family:IBMPlexSans"><tspan
     sodipodi:role="line"
     id="tspan81"
     x="0"
     y="0">Zertifikat</tspan></text>


		</g>
	</g>
</g>
<g
   id="Key_protect"
   transform="translate(-10,-4.883297)">
	<g
   id="g113">
		<g
   id="g105">
			<rect
   x="496.5"
   y="302.5"
   class="st5"
   width="127.7"
   height="48"
   id="rect101"
   style="fill:#abd6ad;stroke:#006837;stroke-miterlimit:10" />
			<text
   transform="translate(522,332.667)"
   class="st1 st2"
   id="text103"
   style="font-size:14px;font-family:IBMPlexSans"><tspan
     sodipodi:role="line"
     id="tspan88"
     x="0"
     y="0">Key Protect</tspan></text>


		</g>
		<g
   id="g111">
			<rect
   x="484.5"
   y="289.5"
   class="st5"
   width="127.7"
   height="48"
   id="rect107"
   style="fill:#abd6ad;stroke:#006837;stroke-miterlimit:10" />
			<text
   transform="translate(510,319.667)"
   class="st1 st2"
   id="text109"
   style="font-size:14px;font-family:IBMPlexSans"><tspan
     sodipodi:role="line"
     id="tspan93"
     x="0"
     y="0">Key Protect</tspan></text>


		</g>
	</g>
</g>
<g
   id="g308"
   transform="translate(-10,-4.883297)"><g
     id="g128">
			<g
   id="g120">
				<path
   style="fill:#b6caef;stroke:#0071bc;stroke-miterlimit:10"
   inkscape:connector-curvature="0"
   id="path116"
   d="m 605.5,441.5 h -96 c -6.6,0 -12,-5.4 -12,-12 v -30 c 0,-6.6 5.4,-12 12,-12 h 96 c 6.6,0 12,5.4 12,12 v 30 c 0,6.6 -5.4,12 -12,12 z"
   class="st0" />
				<text
   style="font-size:14px;font-family:IBMPlexSans"
   id="text118"
   class="st1 st2"
   transform="translate(530.333,419.667)"><tspan
     y="0"
     x="0"
     id="tspan100"
     sodipodi:role="line">CloudHSM</tspan></text>


			</g>
			<g
   id="g126">
				<path
   style="fill:#b6caef;stroke:#0071bc;stroke-miterlimit:10"
   inkscape:connector-curvature="0"
   id="path122"
   d="m 595.5,426.5 h -98 c -6.6,0 -12,-5.4 -12,-12 v -30 c 0,-6.6 5.4,-12 12,-12 h 98 c 6.6,0 12,5.4 12,12 v 30 c 0,6.6 -5.4,12 -12,12 z"
   class="st0" />
				<text
   style="font-size:14px;font-family:IBMPlexSans"
   id="text124"
   class="st1 st2"
   transform="translate(512.333,404.667)"><tspan
     y="0"
     x="0"
     id="tspan105"
     sodipodi:role="line">CloudHSM</tspan></text>


			</g>
		</g><g
     id="g284"><g
       id="g270"><path
         style="fill:#ffffff;stroke:#000000;stroke-width:1.28224897;stroke-miterlimit:10"
         inkscape:connector-curvature="0"
         id="path130"
         d="m 592.14136,417.6865 v 20.88817 c 0,0 20.16618,6.56485 41.15884,0 20.99266,-6.56486 42.9771,0 42.9771,0 V 417.6865 Z"
         class="st4" /><text
         y="431.04581"
         x="601.66663"
         style="font-size:14px;font-family:IBMPlexSans"
         id="text132"
         class="st1 st2"><tspan
           y="431.04581"
           x="601.66663"
           id="tspan111"
           sodipodi:role="line">Schlüssel</tspan></text>
</g><g
       id="g265"><path
         style="fill:#ffffff;stroke:#000000;stroke-width:1.28224897;stroke-miterlimit:10"
         inkscape:connector-curvature="0"
         id="path136"
         d="m 592.14136,402.76638 v 20.88817 c 0,0 20.16618,6.56485 41.15884,0 20.99266,-6.56485 42.9771,0 42.9771,0 v -20.88817 z"
         class="st4" /><text
         y="416.04581"
         x="601.66663"
         style="font-size:14px;font-family:IBMPlexSans"
         id="text138"
         class="st1 st2"><tspan
           y="416.04581"
           x="601.66663"
           id="tspan116"
           sodipodi:role="line">Schlüssel</tspan></text>
</g><g
       id="g260"><path
         style="fill:#ffffff;stroke:#000000;stroke-width:1.28224897;stroke-miterlimit:10"
         inkscape:connector-curvature="0"
         id="path142"
         d="m 592.14136,388.84094 v 20.88817 c 0,0 20.16618,6.56485 41.15884,0 20.99266,-6.56486 42.9771,0 42.9771,0 v -20.88817 z"
         class="st4" /><text
         y="402.04581"
         x="601.66663"
         style="font-size:14px;font-family:IBMPlexSans"
         id="text144"
         class="st1 st2"><tspan
           y="402.04581"
           x="601.66663"
           id="tspan121"
           sodipodi:role="line">Schlüssel</tspan></text>
</g></g></g>
<text
   style="font-size:14px;font-family:IBMPlexSans"
   id="text153"
   class="st1 st2"
   x="3.3334999"
   y="33.450203"><tspan
     y="33.450203"
     x="3.3334999"
     id="tspan128"
     sodipodi:role="line">Kundeninfrastrukturkonto</tspan></text>
<text
   style="font-size:14px;font-family:IBMPlexSans"
   id="text155"
   class="st1 st2"
   x="525"
   y="12.783203"><tspan
     y="12.783203"
     x="525"
     id="tspan131"
     sodipodi:role="line">Öffentliches Netz</tspan></text>
<text
   style="font-size:14px;font-family:IBMPlexSans"
   id="text157"
   class="st1 st2"
   x="483"
   y="223.1167"><tspan
     y="223.1167"
     x="483"
     id="tspan134"
     sodipodi:role="line">Privates Kundennetz</tspan></text>
<text
   style="font-size:14px;font-family:IBMPlexSans"
   id="text159"
   class="st1 st2"
   x="439.33301"
   y="244.44969"><tspan
     y="244.44969"
     x="439.33301"
     id="tspan137"
     sodipodi:role="line">IBM Cloud-Managementnetz</tspan></text>
<g
   id="top_dash_line"
   transform="translate(-10,-4.883297)">
		<g
   id="g167">
			<line
   style="fill:none;stroke:#000000;stroke-miterlimit:10"
   id="line161"
   y2="24"
   x2="12.5"
   y1="24"
   x1="10"
   class="st6" />
			<line
   style="fill:none;stroke:#000000;stroke-miterlimit:10;stroke-dasharray:4.969, 4.969"
   id="line163"
   y2="24"
   x2="651"
   y1="24"
   x1="17.5"
   class="st7" />
			<line
   style="fill:none;stroke:#000000;stroke-miterlimit:10"
   id="line165"
   y2="24"
   x2="656"
   y1="24"
   x1="653.5"
   class="st6" />
		</g>
	</g><g
   id="second_dash_line"
   transform="translate(-10,-4.883297)">
		<g
   id="g176">
			<line
   style="fill:none;stroke:#000000;stroke-miterlimit:10"
   id="line170"
   y2="234"
   x2="16.5"
   y1="234"
   x1="14"
   class="st6" />
			<line
   style="fill:none;stroke:#000000;stroke-miterlimit:10;stroke-dasharray:5.0236, 5.0236"
   id="line172"
   y2="234"
   x2="652"
   y1="234"
   x1="21.5"
   class="st8" />
			<line
   style="fill:none;stroke:#000000;stroke-miterlimit:10"
   id="line174"
   y2="234"
   x2="657"
   y1="234"
   x1="654.5"
   class="st6" />
		</g>
	</g>
<g
   id="arrows"
   transform="translate(-10,-4.883297)">
	<g
   id="g188">
		<g
   id="g186">
			<line
   class="st6"
   x1="65.5"
   y1="156.5"
   x2="65.5"
   y2="280.5"
   id="line180"
   style="fill:none;stroke:#000000;stroke-miterlimit:10" />
			<g
   id="g184">
				<path
   d="m 65.5,286.5 c -1.1,-2.8 -2.9,-6.4 -4.8,-8.5 l 4.8,1.7 4.8,-1.7 c -1.9,2.1 -3.7,5.7 -4.8,8.5 z"
   id="path182"
   inkscape:connector-curvature="0" />
			</g>
		</g>
	</g>
	<g
   id="g198">
		<g
   id="g196">
			<line
   class="st6"
   x1="86.5"
   y1="197.5"
   x2="86.5"
   y2="280.5"
   id="line190"
   style="fill:none;stroke:#000000;stroke-miterlimit:10" />
			<g
   id="g194">
				<path
   d="m 86.5,286.5 c -1.1,-2.8 -2.9,-6.4 -4.8,-8.5 l 4.8,1.7 4.8,-1.7 c -1.9,2.1 -3.7,5.7 -4.8,8.5 z"
   id="path192"
   inkscape:connector-curvature="0" />
			</g>
		</g>
	</g>
	<g
   id="g208">
		<g
   id="g206">
			<line
   class="st6"
   x1="181.5"
   y1="314.5"
   x2="477.5"
   y2="314.5"
   id="line200"
   style="fill:none;stroke:#000000;stroke-miterlimit:10" />
			<g
   id="g204">
				<path
   d="m 483.5,314.5 c -2.8,1.1 -6.4,2.9 -8.5,4.8 l 1.7,-4.8 -1.7,-4.8 c 2.1,1.9 5.7,3.7 8.5,4.8 z"
   id="path202"
   inkscape:connector-curvature="0" />
			</g>
		</g>
	</g>
	<g
   id="g218">
		<g
   id="g216">
			<line
   class="st6"
   x1="548.5"
   y1="336.5"
   x2="548.5"
   y2="366.5"
   id="line210"
   style="fill:none;stroke:#000000;stroke-miterlimit:10" />
			<g
   id="g214">
				<path
   d="m 548.5,372.5 c -1.1,-2.8 -2.9,-6.4 -4.8,-8.5 l 4.8,1.7 4.8,-1.7 c -1.9,2.1 -3.7,5.7 -4.8,8.5 z"
   id="path212"
   inkscape:connector-curvature="0" />
			</g>
		</g>
	</g>
</g>
</svg>
