<?xml version="1.0" encoding="utf-8"?>
<!-- Generator: Adobe Illustrator 19.0.0, SVG Export Plug-In . SVG Version: 6.00 Build 0)  -->
<svg version="1.1" xmlns="http://www.w3.org/2000/svg" xmlns:xlink="http://www.w3.org/1999/xlink" x="0px" y="0px"
	 viewBox="0 0 856 564" style="enable-background:new 0 0 856 564;" xml:space="preserve">
<style type="text/css">
	.st0{fill:none;stroke:#29ABE2;stroke-width:2;stroke-miterlimit:10;}
	.st1{fill:none;stroke:#22657C;stroke-width:2;stroke-miterlimit:10;}
	.st2{font-family:'ArialMT';}
	.st3{font-size:18px;}
	.st4{font-family:'MS-Gothic';}
	.st5{fill:url(#SVGID_1_);stroke:#000000;stroke-width:0.25;stroke-miterlimit:10;}
	.st6{fill:url(#SVGID_2_);}
	.st7{fill:url(#SVGID_3_);stroke:#000000;stroke-width:0.25;stroke-miterlimit:10;}
	.st8{fill:#808080;}
	.st9{fill:none;stroke:#FFFFFF;stroke-width:2;stroke-miterlimit:10;}
	.st10{fill:#FFFFFF;}
	.st11{font-size:8.1627px;}
	.st12{fill:none;stroke:#666666;stroke-width:4;stroke-miterlimit:10;}
	.st13{font-size:9.0653px;}
	.st14{fill:#808080;stroke:#666666;stroke-miterlimit:10;}
	.st15{fill:none;stroke:#666666;stroke-width:2;stroke-miterlimit:10;}
	.st16{fill:none;stroke:#0071BC;stroke-width:2;stroke-miterlimit:10;}
	.st17{fill:#29ABE2;}
	.st18{font-size:16px;}
	.st19{fill:#FFFFFF;stroke:#808080;stroke-width:2;stroke-miterlimit:10;}
	.st20{font-size:20.1767px;}
</style>
<g id="right_box">
	<rect x="528.5" y="49.5" class="st0" width="277.5" height="495.5"/>
</g>
<g id="left_box">
	<rect x="25" y="49" class="st1" width="292" height="497"/>
</g>
<g id="Layer_23">
	<text transform="matrix(1 0 0 1 31 22)"><tspan x="0" y="0" class="st2 st3">vSphere 5.5u3+</tspan><tspan x="0" y="21.6" class="st2 st3">vCenter</tspan></text>
</g>
<g id="Layer_24">
	<text transform="matrix(1 0 0 1 217 23)"><tspan x="0" y="0" class="st2 st3">Web </tspan><tspan x="42" y="0" class="st4 st3">クライアント</tspan></text>
</g>
<g id="right_HCX_on_VCF">
	<text transform="matrix(1 0 0 1 606 41)" class="st2 st3">HCX on VCF</text>
</g>
<g id="middle_bar">
	<g>
		<g>
			<linearGradient id="SVGID_1_" gradientUnits="userSpaceOnUse" x1="525.0101" y1="376" x2="525.0101" y2="297.7211">
				<stop  offset="0.1332" style="stop-color:#1E9CD7"/>
				<stop  offset="0.4442" style="stop-color:#B7E0F4"/>
				<stop  offset="0.4818" style="stop-color:#AEDAF1"/>
				<stop  offset="0.5443" style="stop-color:#94CCEA"/>
				<stop  offset="0.6241" style="stop-color:#6BB3DD"/>
				<stop  offset="0.7169" style="stop-color:#3292CD"/>
				<stop  offset="0.7899" style="stop-color:#0075BE"/>
				<stop  offset="0.9944" style="stop-color:#005B97"/>
			</linearGradient>
			<ellipse class="st5" cx="525" cy="341" rx="13" ry="35"/>
			<g>
				<linearGradient id="SVGID_2_" gradientUnits="userSpaceOnUse" x1="421.6809" y1="376" x2="421.6809" y2="297.7211">
					<stop  offset="0.1332" style="stop-color:#1E9CD7"/>
					<stop  offset="0.4442" style="stop-color:#B7E0F4"/>
					<stop  offset="0.4818" style="stop-color:#AEDAF1"/>
					<stop  offset="0.5443" style="stop-color:#94CCEA"/>
					<stop  offset="0.6241" style="stop-color:#6BB3DD"/>
					<stop  offset="0.7169" style="stop-color:#3292CD"/>
					<stop  offset="0.7899" style="stop-color:#0075BE"/>
					<stop  offset="0.9944" style="stop-color:#005B97"/>
				</linearGradient>
				<rect x="316" y="306" class="st6" width="211.4" height="70"/>
			</g>
			<linearGradient id="SVGID_3_" gradientUnits="userSpaceOnUse" x1="315.99" y1="376" x2="315.99" y2="297.7211">
				<stop  offset="0.1332" style="stop-color:#1E9CD7"/>
				<stop  offset="0.4442" style="stop-color:#B7E0F4"/>
				<stop  offset="0.4818" style="stop-color:#AEDAF1"/>
				<stop  offset="0.5443" style="stop-color:#94CCEA"/>
				<stop  offset="0.6241" style="stop-color:#6BB3DD"/>
				<stop  offset="0.7169" style="stop-color:#3292CD"/>
				<stop  offset="0.7899" style="stop-color:#0075BE"/>
				<stop  offset="0.9944" style="stop-color:#005B97"/>
			</linearGradient>
			<ellipse class="st7" cx="316" cy="341" rx="13" ry="35"/>
		</g>
		<g>
			<path class="st8" d="M471.3,329c-3.3,0-6.3,0.8-8.8,2.2c-0.9-8.1-7.1-14.4-14.6-14.4c-7.7,0-14,6.6-14.7,15.1
				c-0.7-0.3-1.4-0.4-2.1-0.4c-3.9,0-7.1,4.4-7.1,9.8c0,5.4,3.2,9.8,7.1,9.8c0.9,0,1.7-0.2,2.5-0.6h32.9c1.5,0.4,3.1,0.6,4.8,0.6
				c8.1,0,14.7-4.9,14.7-11C486,334,479.4,329,471.3,329z"/>
			<g>
				<path class="st9" d="M456.8,345.2h-16.7c-0.8,0-1.5-0.7-1.5-1.5v-13.4c0-0.8,0.7-1.5,1.5-1.5h16.7c0.8,0,1.5,0.7,1.5,1.5v13.4
					C458.2,344.5,457.6,345.2,456.8,345.2z"/>
				<text transform="matrix(1.1348 0 0 1 441.3848 340.4404)" class="st10 st2 st11">VM</text>
			</g>
		</g>
		<g>
			<path class="st12" d="M413.8,341.6c-3.8,0-7.4,0.9-10.3,2.5c-1.1-9.4-8.3-16.6-17.1-16.6c-9,0-16.4,7.7-17.2,17.4
				c-0.8-0.3-1.6-0.5-2.5-0.5c-4.6,0-8.3,5.1-8.3,11.3c0,6.2,3.7,11.3,8.3,11.3c1,0,2-0.3,2.9-0.7h38.5c1.8,0.4,3.7,0.7,5.6,0.7
				c9.5,0,17.2-5.7,17.2-12.7C431,347.3,423.3,341.6,413.8,341.6z"/>
			<g>
				<path d="M395.5,360.8h-17.6c-0.8,0-1.5-0.7-1.5-1.5v-16c0-0.8,0.7-1.5,1.5-1.5h17.6c0.8,0,1.5,0.7,1.5,1.5v16
					C397,360.1,396.3,360.8,395.5,360.8z"/>
				<text transform="matrix(1.0229 0 0 1 379.3701 355.5459)" class="st10 st2 st13">VM</text>
			</g>
		</g>
		<g>
			<polygon points="398,320 405,315 411,326 408,328 			"/>
			<polygon points="388.8,330.7 394.4,324.1 402.9,333.2 400.5,335.9 			"/>
			<polygon points="387,340.8 387.4,335.3 395.2,336.9 395,339.1 			"/>
			<polygon points="412.4,312.2 420.9,311 421.2,323.5 417.6,323.9 			"/>
			<polygon points="427.2,311.7 435.6,313.5 431.6,325.3 428.1,324.5 			"/>
			<polygon points="441.3,316.2 446.3,320.5 439.2,327 437.1,325.1 			"/>
		</g>
	</g>
</g>
<g id="right_VM_top_3">
	<g>
		<path class="st8" d="M616,144h-21.2c-6.6,0-12-5.4-12-12v-17.6c0-6.6,5.4-12,12-12H616c6.6,0,12,5.4,12,12V132
			C628,138.6,622.6,144,616,144z"/>
		<text transform="matrix(1 0 0 1 594.0488 129.2397)" class="st10 st2 st3">VM</text>
	</g>
	<g>
		<path class="st8" d="M671,144h-21.2c-6.6,0-12-5.4-12-12v-17.6c0-6.6,5.4-12,12-12H671c6.6,0,12,5.4,12,12V132
			C683,138.6,677.6,144,671,144z"/>
		<text transform="matrix(1 0 0 1 649.0488 129.2397)" class="st10 st2 st3">VM</text>
	</g>
	<g>
		<path class="st14" d="M726,144h-21.2c-6.6,0-12-5.4-12-12v-17.6c0-6.6,5.4-12,12-12H726c6.6,0,12,5.4,12,12V132
			C738,138.6,732.6,144,726,144z"/>
		<text transform="matrix(1 0 0 1 704.0488 129.2397)" class="st10 st2 st3">VM</text>
	</g>
</g>
<g id="lines_top">
	<line class="st15" x1="38" y1="84.5" x2="794" y2="84.5"/>
	<line class="st15" x1="144" y1="83" x2="144" y2="103"/>
	<line class="st15" x1="92" y1="85" x2="92" y2="101"/>
	<line class="st15" x1="602" y1="85" x2="602" y2="103"/>
	<line class="st15" x1="658" y1="85" x2="658" y2="101"/>
	<line class="st15" x1="717" y1="85" x2="717" y2="101"/>
</g>
<g id="line_left">
	<line class="st15" x1="51" y1="66" x2="51" y2="534"/>
</g>
<g id="line_right">
	<line class="st15" x1="784" y1="66" x2="784" y2="532"/>
</g>
<g id="lines_bottom">
	<line class="st15" x1="39" y1="519" x2="285" y2="519"/>
	<line class="st15" x1="559" y1="520" x2="795" y2="520"/>
	<line class="st15" x1="80" y1="506" x2="80" y2="518"/>
	<line class="st15" x1="133" y1="506" x2="133" y2="518"/>
	<line class="st15" x1="641" y1="506" x2="641" y2="520"/>
</g>
<g id="lines_row_3">
	<line class="st15" x1="40" y1="452" x2="284" y2="452"/>
	<line class="st15" x1="560" y1="449" x2="795" y2="449"/>
	<line class="st15" x1="432" y1="615" x2="432" y2="616"/>
	<line class="st15" x1="81" y1="438" x2="81" y2="451"/>
	<line class="st15" x1="132" y1="438" x2="132" y2="451"/>
	<line class="st16" x1="736" y1="368" x2="736" y2="378"/>
	<line class="st16" x1="92" y1="370" x2="92" y2="379"/>
	<line class="st15" x1="185" y1="438" x2="185" y2="451"/>
</g>
<g id="lines_row_2">
	<line class="st16" x1="39" y1="380" x2="282" y2="380"/>
	<line class="st16" x1="556" y1="378" x2="795" y2="378"/>
	<line class="st16" x1="192" y1="346" x2="317" y2="346"/>
	<line class="st16" x1="640" y1="346" x2="538" y2="346"/>
	<line class="st16" x1="251" y1="251" x2="251" y2="284"/>
	<line class="st16" x1="251" y1="321" x2="251" y2="327"/>
	<line class="st16" x1="250" y1="370" x2="250" y2="380"/>
	<line class="st16" x1="251" y1="438" x2="251" y2="451"/>
	<line class="st16" x1="252" y1="506" x2="252" y2="518"/>
	<line class="st16" x1="585" y1="368" x2="585" y2="378"/>
	<line class="st16" x1="585" y1="438" x2="585" y2="448"/>
	<line class="st16" x1="585" y1="506" x2="585" y2="520"/>
	<line class="st16" x1="275" y1="418" x2="562" y2="418"/>
	<line class="st16" x1="276" y1="487" x2="562" y2="487"/>
	<path class="st16" d="M249,169l-1-78c0,0-12-7,0-15V33"/>
</g>
<g id="right_WAN_opt">
	<g>
		<path class="st17" d="M675.3,369h-24.4c-6.6,0-12-5.4-12-12v-19.9c0-6.6,5.4-12,12-12h24.4c6.6,0,12,5.4,12,12V357
			C687.3,363.6,681.9,369,675.3,369z"/>
		<g>
			<g>
				<g>
					<g>
						<g>
							<ellipse class="st10" cx="662.9" cy="346.9" rx="13" ry="12.5"/>
							<ellipse class="st17" cx="662.9" cy="346.9" rx="5.8" ry="5.6"/>
						</g>
						<rect x="659" y="330.9" class="st10" width="7" height="4.5"/>
						<rect x="659.8" y="357.8" class="st10" width="6.3" height="5.4"/>
					</g>
					<rect x="674.3" y="343.9" class="st10" width="5.4" height="6.3"/>
					<rect x="646.5" y="343.9" class="st10" width="5.4" height="6.3"/>
				</g>
				
					<rect x="649.5" y="334.3" transform="matrix(0.7526 0.6585 -0.6585 0.7526 383.493 -346.1771)" class="st10" width="5.9" height="5.9"/>
				
					<rect x="669.3" y="354" transform="matrix(0.7526 0.6585 -0.6585 0.7526 401.6389 -354.975)" class="st10" width="7.7" height="5.9"/>
			</g>
			
				<rect x="671" y="334.6" transform="matrix(0.7071 0.7071 -0.7071 0.7071 436.3055 -377.5818)" class="st10" width="5.9" height="6.5"/>
			
				<rect x="650.2" y="354" transform="matrix(0.7071 0.7071 -0.7071 0.7071 443.6634 -357.2815)" class="st10" width="5.9" height="5.9"/>
		</g>
	</g>
	<text transform="matrix(1 0 0 1 642 297.3335)"><tspan x="0" y="0" class="st2 st18">WAN</tspan><tspan x="0" y="19.2" class="st4 st18">最適化</tspan></text>
</g>
<g id="left_WAN_opt">
	<g>
		<path class="st17" d="M181.3,369h-24.4c-6.6,0-12-5.4-12-12v-19.9c0-6.6,5.4-12,12-12h24.4c6.6,0,12,5.4,12,12V357
			C193.3,363.6,187.9,369,181.3,369z"/>
		<g>
			<g>
				<g>
					<g>
						<g>
							<ellipse class="st10" cx="168.9" cy="346.9" rx="13" ry="12.5"/>
							<ellipse class="st17" cx="168.9" cy="346.9" rx="5.8" ry="5.6"/>
						</g>
						<rect x="165" y="330.9" class="st10" width="7" height="4.5"/>
						<rect x="165.8" y="357.8" class="st10" width="6.3" height="5.4"/>
					</g>
					<rect x="180.3" y="343.9" class="st10" width="5.4" height="6.3"/>
					<rect x="152.5" y="343.9" class="st10" width="5.4" height="6.3"/>
				</g>
				
					<rect x="155.5" y="334.3" transform="matrix(0.7526 0.6585 -0.6585 0.7526 261.2628 -20.8722)" class="st10" width="5.9" height="5.9"/>
				
					<rect x="175.3" y="354" transform="matrix(0.7526 0.6585 -0.6585 0.7526 279.413 -29.6751)" class="st10" width="7.7" height="5.9"/>
			</g>
			
				<rect x="177" y="334.6" transform="matrix(0.7071 0.7071 -0.7071 0.7071 291.615 -28.2706)" class="st10" width="5.9" height="6.5"/>
			
				<rect x="156.2" y="354" transform="matrix(0.7071 0.7071 -0.7071 0.7071 298.9741 -7.9707)" class="st10" width="5.9" height="5.9"/>
		</g>
	</g>
	<text transform="matrix(1 0 0 1 148 297.3335)"><tspan x="0" y="0" class="st2 st18">WAN</tspan><tspan x="0" y="19.2" class="st4 st18">最適化</tspan></text>
</g>
<g id="right_lock_icon">
	<g>
		<path class="st17" d="M597,369h-22.5c-6.6,0-12-5.4-12-12v-18.2c0-6.6,5.4-12,12-12H597c6.6,0,12,5.4,12,12V357
			C609,363.6,603.6,369,597,369z"/>
		<g>
			<g>
				<path class="st10" d="M590.3,345.7h-8.2c-2.2,0-4.1-1.8-4.1-4.1v-3.9c0-2.2,1.8-4.1,4.1-4.1h8.2c2.2,0,4.1,1.8,4.1,4.1v3.9
					C594.4,343.9,592.6,345.7,590.3,345.7z"/>
				<path class="st17" d="M588.9,344h-5.4c-1.1,0-2.1-0.9-2.1-2.1v-2.9c0-1.1,0.9-2.1,2.1-2.1h5.4c1.1,0,2.1,0.9,2.1,2.1v2.9
					C591,343.1,590,344,588.9,344z"/>
				<path class="st10" d="M595.5,362.1h-18.6c-2.2,0-4.1-1.8-4.1-4.1v-10.8c0-2.2,1.8-4.1,4.1-4.1h18.6c2.2,0,4.1,1.8,4.1,4.1V358
					C599.6,360.3,597.7,362.1,595.5,362.1z"/>
			</g>
			<g>
				<ellipse class="st17" cx="586.7" cy="350.5" rx="3.4" ry="3"/>
				<path class="st17" d="M586.2,359.5L586.2,359.5c-0.7,0-1.3-0.6-1.3-1.3v-6c0-0.7,0.6-1.3,1.3-1.3l0,0c0.7,0,1.3,0.6,1.3,1.3v6
					C587.5,358.9,586.9,359.5,586.2,359.5z"/>
				<path class="st17" d="M588.8,355.2h-1.7c-0.2,0-0.4-0.2-0.4-0.4l0,0c0-0.2,0.2-0.4,0.4-0.4h1.7c0.2,0,0.4,0.2,0.4,0.4l0,0
					C589.2,355,589,355.2,588.8,355.2z"/>
				<path class="st17" d="M588.8,356.9h-1.7c-0.2,0-0.4-0.2-0.4-0.4l0,0c0-0.2,0.2-0.4,0.4-0.4h1.7c0.2,0,0.4,0.2,0.4,0.4l0,0
					C589.2,356.7,589,356.9,588.8,356.9z"/>
				<path class="st17" d="M588.8,358.7h-1.7c-0.2,0-0.4-0.2-0.4-0.4l0,0c0-0.2,0.2-0.4,0.4-0.4h1.7c0.2,0,0.4,0.2,0.4,0.4l0,0
					C589.2,358.5,589,358.7,588.8,358.7z"/>
			</g>
		</g>
	</g>
	<g>
		<path class="st17" d="M596,369h-22.5c-6.6,0-12-5.4-12-12v-18.2c0-6.6,5.4-12,12-12H596c6.6,0,12,5.4,12,12V357
			C608,363.6,602.6,369,596,369z"/>
		<g>
			<g>
				<path class="st10" d="M589.3,345.7h-8.2c-2.2,0-4.1-1.8-4.1-4.1v-3.9c0-2.2,1.8-4.1,4.1-4.1h8.2c2.2,0,4.1,1.8,4.1,4.1v3.9
					C593.4,343.9,591.6,345.7,589.3,345.7z"/>
				<path class="st17" d="M587.9,344h-5.4c-1.1,0-2.1-0.9-2.1-2.1v-2.9c0-1.1,0.9-2.1,2.1-2.1h5.4c1.1,0,2.1,0.9,2.1,2.1v2.9
					C590,343.1,589,344,587.9,344z"/>
				<path class="st10" d="M594.5,362.1h-18.6c-2.2,0-4.1-1.8-4.1-4.1v-10.8c0-2.2,1.8-4.1,4.1-4.1h18.6c2.2,0,4.1,1.8,4.1,4.1V358
					C598.6,360.3,596.7,362.1,594.5,362.1z"/>
			</g>
			<g>
				<ellipse class="st17" cx="585.7" cy="350.5" rx="3.4" ry="3"/>
				<path class="st17" d="M585.2,359.5L585.2,359.5c-0.7,0-1.3-0.6-1.3-1.3v-6c0-0.7,0.6-1.3,1.3-1.3l0,0c0.7,0,1.3,0.6,1.3,1.3v6
					C586.5,358.9,585.9,359.5,585.2,359.5z"/>
				<path class="st17" d="M587.8,355.2h-1.7c-0.2,0-0.4-0.2-0.4-0.4l0,0c0-0.2,0.2-0.4,0.4-0.4h1.7c0.2,0,0.4,0.2,0.4,0.4l0,0
					C588.2,355,588,355.2,587.8,355.2z"/>
				<path class="st17" d="M587.8,356.9h-1.7c-0.2,0-0.4-0.2-0.4-0.4l0,0c0-0.2,0.2-0.4,0.4-0.4h1.7c0.2,0,0.4,0.2,0.4,0.4l0,0
					C588.2,356.7,588,356.9,587.8,356.9z"/>
				<path class="st17" d="M587.8,358.7h-1.7c-0.2,0-0.4-0.2-0.4-0.4l0,0c0-0.2,0.2-0.4,0.4-0.4h1.7c0.2,0,0.4,0.2,0.4,0.4l0,0
					C588.2,358.5,588,358.7,587.8,358.7z"/>
			</g>
		</g>
	</g>
	<text transform="matrix(0.873 0 0 1 550.333 298.334)"><tspan x="0" y="0" class="st4 st18">クラウド・</tspan><tspan x="0" y="19.2" class="st4 st18">ゲートウェイ</tspan></text>
</g>
<g id="left_lock">
	<g>
		<path class="st17" d="M262,369h-22.5c-6.6,0-12-5.4-12-12v-18.2c0-6.6,5.4-12,12-12H262c6.6,0,12,5.4,12,12V357
			C274,363.6,268.6,369,262,369z"/>
		<g>
			<g>
				<path class="st10" d="M255.3,345.7h-8.2c-2.2,0-4.1-1.8-4.1-4.1v-3.9c0-2.2,1.8-4.1,4.1-4.1h8.2c2.2,0,4.1,1.8,4.1,4.1v3.9
					C259.4,343.9,257.6,345.7,255.3,345.7z"/>
				<path class="st17" d="M253.9,344h-5.4c-1.1,0-2.1-0.9-2.1-2.1v-2.9c0-1.1,0.9-2.1,2.1-2.1h5.4c1.1,0,2.1,0.9,2.1,2.1v2.9
					C256,343.1,255,344,253.9,344z"/>
				<path class="st10" d="M260.5,362.1h-18.6c-2.2,0-4.1-1.8-4.1-4.1v-10.8c0-2.2,1.8-4.1,4.1-4.1h18.6c2.2,0,4.1,1.8,4.1,4.1V358
					C264.6,360.3,262.7,362.1,260.5,362.1z"/>
			</g>
			<g>
				<ellipse class="st17" cx="251.7" cy="350.5" rx="3.4" ry="3"/>
				<path class="st17" d="M251.2,359.5L251.2,359.5c-0.7,0-1.3-0.6-1.3-1.3v-6c0-0.7,0.6-1.3,1.3-1.3l0,0c0.7,0,1.3,0.6,1.3,1.3v6
					C252.5,358.9,251.9,359.5,251.2,359.5z"/>
				<path class="st17" d="M253.8,355.2h-1.7c-0.2,0-0.4-0.2-0.4-0.4l0,0c0-0.2,0.2-0.4,0.4-0.4h1.7c0.2,0,0.4,0.2,0.4,0.4l0,0
					C254.2,355,254,355.2,253.8,355.2z"/>
				<path class="st17" d="M253.8,356.9h-1.7c-0.2,0-0.4-0.2-0.4-0.4l0,0c0-0.2,0.2-0.4,0.4-0.4h1.7c0.2,0,0.4,0.2,0.4,0.4l0,0
					C254.2,356.7,254,356.9,253.8,356.9z"/>
				<path class="st17" d="M253.8,358.7h-1.7c-0.2,0-0.4-0.2-0.4-0.4l0,0c0-0.2,0.2-0.4,0.4-0.4h1.7c0.2,0,0.4,0.2,0.4,0.4l0,0
					C254.2,358.5,254,358.7,253.8,358.7z"/>
			</g>
		</g>
	</g>
	<text transform="matrix(0.8988 0 0 1 218.3325 298.334)"><tspan x="0" y="0" class="st4 st18">クラウド・</tspan><tspan x="0" y="19.2" class="st4 st18">ゲートウェイ</tspan></text>
</g>
<g id="right_concentrator_1">
	<g>
		<path class="st17" d="M748.9,369h-23.1c-6.6,0-12-5.4-12-12v-18.8c0-6.6,5.4-12,12-12h23.1c6.6,0,12,5.4,12,12V357
			C760.9,363.6,755.5,369,748.9,369z"/>
		<g>
			<rect x="724.2" y="336.6" class="st10" width="26.2" height="13.9"/>
			<rect x="728.3" y="347.2" class="st10" width="18" height="6.5"/>
			<rect x="728.3" y="341.5" class="st17" width="18" height="1.6"/>
			<rect x="734.9" y="352.1" class="st10" width="4.9" height="11.5"/>
			<rect x="726.7" y="331.7" class="st10" width="4.9" height="9"/>
			<rect x="734" y="331.7" class="st10" width="2.5" height="3.3"/>
			<rect x="738.1" y="331.7" class="st10" width="2.5" height="3.3"/>
			<rect x="743" y="331.7" class="st10" width="4.9" height="9"/>
		</g>
	</g>
	<text transform="matrix(1 0 0 1 712.667 319.9336)"><tspan x="0" y="0" class="st2 st18">L2 </tspan><tspan x="22.2" y="0" class="st4 st18">拡張</tspan></text>
</g>
<g id="left_L2_ext">
	<g>
		<path class="st17" d="M104.9,369H81.8c-6.6,0-12-5.4-12-12v-18.8c0-6.6,5.4-12,12-12h23.1c6.6,0,12,5.4,12,12V357
			C116.9,363.6,111.5,369,104.9,369z"/>
		<g>
			<rect x="80.2" y="336.6" class="st10" width="26.2" height="13.9"/>
			<rect x="84.3" y="347.2" class="st10" width="18" height="6.5"/>
			<rect x="84.3" y="341.5" class="st17" width="18" height="1.6"/>
			<rect x="90.9" y="352.1" class="st10" width="4.9" height="11.5"/>
			<rect x="82.7" y="331.7" class="st10" width="4.9" height="9"/>
			<rect x="90" y="331.7" class="st10" width="2.5" height="3.3"/>
			<rect x="94.1" y="331.7" class="st10" width="2.5" height="3.3"/>
			<rect x="99" y="331.7" class="st10" width="4.9" height="9"/>
		</g>
	</g>
	<text transform="matrix(1 0 0 1 70.667 319.9336)"><tspan x="0" y="0" class="st2 st18">L2 </tspan><tspan x="22.2" y="0" class="st4 st18">拡張</tspan></text>
</g>
<g id="right_concentrator_2">
	<g>
		<path class="st17" d="M597.4,438h-23.1c-6.6,0-12-5.4-12-12v-18.8c0-6.6,5.4-12,12-12h23.1c6.6,0,12,5.4,12,12V426
			C609.4,432.6,604,438,597.4,438z"/>
		<g>
			<rect x="572.7" y="405.6" class="st10" width="26.2" height="13.9"/>
			<rect x="576.8" y="416.2" class="st10" width="18" height="6.5"/>
			<rect x="576.8" y="410.5" class="st17" width="18" height="1.6"/>
			<rect x="583.3" y="421.1" class="st10" width="4.9" height="11.5"/>
			<rect x="575.2" y="400.7" class="st10" width="4.9" height="9"/>
			<rect x="582.5" y="400.7" class="st10" width="2.5" height="3.3"/>
			<rect x="586.6" y="400.7" class="st10" width="2.5" height="3.3"/>
			<rect x="591.5" y="400.7" class="st10" width="4.9" height="9"/>
		</g>
	</g>
</g>
<g id="left_concentrator_2">
	<g>
		<path class="st17" d="M263.4,439h-23.1c-6.6,0-12-5.4-12-12v-18.8c0-6.6,5.4-12,12-12h23.1c6.6,0,12,5.4,12,12V427
			C275.4,433.6,270,439,263.4,439z"/>
		<g>
			<rect x="238.7" y="406.6" class="st10" width="26.2" height="13.9"/>
			<rect x="242.8" y="417.2" class="st10" width="18" height="6.5"/>
			<rect x="242.8" y="411.5" class="st17" width="18" height="1.6"/>
			<rect x="249.3" y="422.1" class="st10" width="4.9" height="11.5"/>
			<rect x="241.2" y="401.7" class="st10" width="4.9" height="9"/>
			<rect x="248.5" y="401.7" class="st10" width="2.5" height="3.3"/>
			<rect x="252.6" y="401.7" class="st10" width="2.5" height="3.3"/>
			<rect x="257.5" y="401.7" class="st10" width="4.9" height="9"/>
		</g>
	</g>
</g>
<g id="right_concentrator_3">
	<g>
		<path class="st17" d="M597.4,506h-23.1c-6.6,0-12-5.4-12-12v-18.8c0-6.6,5.4-12,12-12h23.1c6.6,0,12,5.4,12,12V494
			C609.4,500.6,604,506,597.4,506z"/>
		<g>
			<rect x="572.7" y="473.6" class="st10" width="26.2" height="13.9"/>
			<rect x="576.8" y="484.2" class="st10" width="18" height="6.5"/>
			<rect x="576.8" y="478.5" class="st17" width="18" height="1.6"/>
			<rect x="583.3" y="489.1" class="st10" width="4.9" height="11.5"/>
			<rect x="575.2" y="468.7" class="st10" width="4.9" height="9"/>
			<rect x="582.5" y="468.7" class="st10" width="2.5" height="3.3"/>
			<rect x="586.6" y="468.7" class="st10" width="2.5" height="3.3"/>
			<rect x="591.5" y="468.7" class="st10" width="4.9" height="9"/>
		</g>
	</g>
</g>
<g id="left_concentrator_bottom">
	<g>
		<path class="st17" d="M264.4,507h-23.1c-6.6,0-12-5.4-12-12v-18.8c0-6.6,5.4-12,12-12h23.1c6.6,0,12,5.4,12,12V495
			C276.4,501.6,271,507,264.4,507z"/>
		<g>
			<rect x="239.7" y="474.6" class="st10" width="26.2" height="13.9"/>
			<rect x="243.8" y="485.2" class="st10" width="18" height="6.5"/>
			<rect x="243.8" y="479.5" class="st17" width="18" height="1.6"/>
			<rect x="250.3" y="490.1" class="st10" width="4.9" height="11.5"/>
			<rect x="242.2" y="469.7" class="st10" width="4.9" height="9"/>
			<rect x="249.5" y="469.7" class="st10" width="2.5" height="3.3"/>
			<rect x="253.6" y="469.7" class="st10" width="2.5" height="3.3"/>
			<rect x="258.5" y="469.7" class="st10" width="4.9" height="9"/>
		</g>
	</g>
</g>
<g id="right_VM_bottom">
	<g>
		<path class="st8" d="M652,506h-21.2c-6.6,0-12-5.4-12-12v-17.6c0-6.6,5.4-12,12-12H652c6.6,0,12,5.4,12,12V494
			C664,500.6,658.6,506,652,506z"/>
		<text transform="matrix(1 0 0 1 630.0488 491.2397)" class="st10 st2 st3">VM</text>
	</g>
</g>
<g id="left_VM_bottom">
	<g>
		<path class="st8" d="M145,506h-21.2c-6.6,0-12-5.4-12-12v-17.6c0-6.6,5.4-12,12-12H145c6.6,0,12,5.4,12,12V494
			C157,500.6,151.6,506,145,506z"/>
		<text transform="matrix(1 0 0 1 123.0488 491.2397)" class="st10 st2 st3">VM</text>
	</g>
	<g>
		<path class="st8" d="M93,506H71.8c-6.6,0-12-5.4-12-12v-17.6c0-6.6,5.4-12,12-12H93c6.6,0,12,5.4,12,12V494
			C105,500.6,99.6,506,93,506z"/>
		<text transform="matrix(1 0 0 1 71.0488 491.2397)" class="st10 st2 st3">VM</text>
	</g>
</g>
<g id="left_VM_middle_3">
	<g>
		<path class="st8" d="M196,438h-21.2c-6.6,0-12-5.4-12-12v-17.6c0-6.6,5.4-12,12-12H196c6.6,0,12,5.4,12,12V426
			C208,432.6,202.6,438,196,438z"/>
		<text transform="matrix(1 0 0 1 174.0488 423.2397)" class="st10 st2 st3">VM</text>
	</g>
	<g>
		<path class="st8" d="M143,438h-21.2c-6.6,0-12-5.4-12-12v-17.6c0-6.6,5.4-12,12-12H143c6.6,0,12,5.4,12,12V426
			C155,432.6,149.6,438,143,438z"/>
		<text transform="matrix(1 0 0 1 121.0488 423.2397)" class="st10 st2 st3">VM</text>
	</g>
	<g>
		<path class="st8" d="M92,438H70.8c-6.6,0-12-5.4-12-12v-17.6c0-6.6,5.4-12,12-12H92c6.6,0,12,5.4,12,12V426
			C104,432.6,98.6,438,92,438z"/>
		<text transform="matrix(1 0 0 1 70.0488 423.2397)" class="st10 st2 st3">VM</text>
	</g>
</g>
<g id="arrow_icon">
	<g>
		<circle class="st17" cx="527.8" cy="84.8" r="22.2"/>
		<g>
			<polygon class="st10" points="521.7,90.4 512,84.8 521.7,79.2 			"/>
			<polygon class="st10" points="533.9,90.4 533.9,79.2 543.6,84.8 			"/>
			<rect x="520.6" y="82.6" class="st10" width="14.2" height="4.4"/>
		</g>
	</g>
	<g>
		<circle class="st17" cx="316.8" cy="84.8" r="22.2"/>
		<g>
			<polygon class="st10" points="310.7,90.4 301,84.8 310.7,79.2 			"/>
			<polygon class="st10" points="322.9,90.4 322.9,79.2 332.6,84.8 			"/>
			<rect x="309.6" y="82.6" class="st10" width="14.2" height="4.4"/>
		</g>
	</g>
</g>
<g id="left_hybrid_cloud_mngr">
	<g>
		<text transform="matrix(1 0 0 1 225 196)"><tspan x="0" y="0" class="st2 st3">Hybrid</tspan><tspan x="0" y="21.6" class="st2 st3">Cloud</tspan><tspan x="0" y="43.2" class="st2 st3">Manager</tspan></text>
		<path class="st0" d="M291,252h-74c-6.6,0-12-5.4-12-12v-57c0-6.6,5.4-12,12-12h74c6.6,0,12,5.4,12,12v57
			C303,246.6,297.6,252,291,252z"/>
	</g>
</g>
<g id="left_VM_top2">
	<g>
		<path class="st8" d="M156,144h-21.2c-6.6,0-12-5.4-12-12v-17.6c0-6.6,5.4-12,12-12H156c6.6,0,12,5.4,12,12V132
			C168,138.6,162.6,144,156,144z"/>
		<text transform="matrix(1 0 0 1 134.0488 129.2397)" class="st10 st2 st3">VM</text>
	</g>
	<g>
		<path class="st8" d="M103,144H81.8c-6.6,0-12-5.4-12-12v-17.6c0-6.6,5.4-12,12-12H103c6.6,0,12,5.4,12,12V132
			C115,138.6,109.6,144,103,144z"/>
		<text transform="matrix(1 0 0 1 77.0488 129.2397)" class="st10 st2 st3">VM</text>
	</g>
</g>
<g id="cloud">
	<path class="st19" d="M457.4,53.8c-6.4,0-12.3,1.6-17,4.3c-1.8-15.9-13.8-28.3-28.4-28.3c-15,0-27.3,13-28.5,29.7
		c-1.3-0.6-2.7-0.8-4.1-0.8c-7.6,0-13.8,8.6-13.8,19.2c0,10.6,6.2,19.2,13.8,19.2c1.7,0,3.3-0.4,4.8-1.2H448
		c2.9,0.8,6.1,1.2,9.3,1.2c15.8,0,28.6-9.7,28.6-21.6C486,63.5,473.2,53.8,457.4,53.8z"/>
	<text transform="matrix(0.6672 0 0 1 381.0938 81.3945)" class="st4 st20">インターネット</text>
</g>
</svg>
