<?xml version="1.0" encoding="utf-8"?>
<!-- Generator: Adobe Illustrator 19.0.0, SVG Export Plug-In . SVG Version: 6.00 Build 0)  -->
<svg version="1.1" xmlns="http://www.w3.org/2000/svg" xmlns:xlink="http://www.w3.org/1999/xlink" x="0px" y="0px"
	 viewBox="0 0 512 376" style="enable-background:new 0 0 512 376;" xml:space="preserve">
<style type="text/css">
	.st0{fill:#E8CEB5;stroke:#000000;stroke-width:0.5;stroke-miterlimit:10;stroke-dasharray:5;}
	.st1{fill:#D0EFDF;}
	.st2{fill:none;stroke:#000000;stroke-width:0.5;stroke-miterlimit:10;}
	.st3{fill:none;stroke:#000000;stroke-width:0.5;stroke-miterlimit:10;stroke-dasharray:4.9744,4.9744;}
	.st4{fill:none;stroke:#000000;stroke-width:0.5;stroke-miterlimit:10;stroke-dasharray:4.9483,4.9483;}
	.st5{fill:#FFFFFF;stroke:#4D4D4D;stroke-width:2;stroke-miterlimit:10;}
	.st6{font-family:'ArialMT';}
	.st7{font-size:18px;}
	.st8{fill:none;stroke:#009245;stroke-width:2;stroke-miterlimit:10;}
	.st9{fill:none;stroke:#000000;stroke-width:2;stroke-miterlimit:10;}
	.st10{font-family:'MS-Gothic';}
	.st11{fill:#8CC63F;stroke:#009245;stroke-width:0.25;stroke-miterlimit:10;}
	.st12{fill:#29ABE2;stroke:#0071BC;stroke-width:0.25;stroke-miterlimit:10;}
</style>
<g id="right_box">
	<rect x="226.5" y="10.5" class="st0" width="275" height="310"/>
</g>
<g id="left_box">
	<g>
		<rect x="11.8" y="171" class="st1" width="199" height="148.5"/>
		<g>
			<polyline class="st2" points="210.8,317 210.8,319.5 208.3,319.5 			"/>
			<line class="st3" x1="203.3" y1="319.5" x2="16.8" y2="319.5"/>
			<polyline class="st2" points="14.3,319.5 11.8,319.5 11.8,317 			"/>
			<line class="st4" x1="11.8" y1="312.1" x2="11.8" y2="176"/>
			<polyline class="st2" points="11.8,173.5 11.8,171 14.3,171 			"/>
			<line class="st3" x1="19.3" y1="171" x2="205.8" y2="171"/>
			<polyline class="st2" points="208.3,171 210.8,171 210.8,173.5 			"/>
			<line class="st4" x1="210.8" y1="178.4" x2="210.8" y2="314.5"/>
		</g>
	</g>
	<g>
		<rect x="11.8" y="11" class="st1" width="199" height="148.5"/>
		<g>
			<polyline class="st2" points="210.8,157 210.8,159.5 208.3,159.5 			"/>
			<line class="st3" x1="203.3" y1="159.5" x2="16.8" y2="159.5"/>
			<polyline class="st2" points="14.3,159.5 11.8,159.5 11.8,157 			"/>
			<line class="st4" x1="11.8" y1="152.1" x2="11.8" y2="16"/>
			<polyline class="st2" points="11.8,13.5 11.8,11 14.3,11 			"/>
			<line class="st3" x1="19.3" y1="11" x2="205.8" y2="11"/>
			<polyline class="st2" points="208.3,11 210.8,11 210.8,13.5 			"/>
			<line class="st4" x1="210.8" y1="18.4" x2="210.8" y2="154.5"/>
		</g>
	</g>
</g>
<g id="Layer_4">
	<g>
		<path class="st5" d="M453.5,149c-7.9,0-15.2,1.6-21.2,4.3c-2.2-15.9-17.1-28.3-35.2-28.3c-18.6,0-33.9,13-35.4,29.7
			c-1.6-0.6-3.3-0.8-5.1-0.8c-9.5,0-17.2,8.6-17.2,19.2c0,10.6,7.7,19.2,17.2,19.2c2.1,0,4.1-0.4,5.9-1.2h79.3
			c3.6,0.8,7.5,1.2,11.6,1.2c19.6,0,35.5-9.7,35.5-21.6C489,158.7,473.1,149,453.5,149z"/>
		<text transform="matrix(1 0 0 1 353 177.1221)" class="st6 st7">IBM Cloud DC2</text>
	</g>
</g>
<g id="lines">
	<line class="st8" x1="276" y1="255" x2="198" y2="253"/>
	<line class="st8" x1="337" y1="168" x2="198" y2="253"/>
	<line class="st8" x1="261" y1="82" x2="198" y2="253"/>
	<line class="st9" x1="276" y1="255" x2="197" y2="84"/>
	<line class="st9" x1="339" y1="168" x2="195" y2="82"/>
	<line class="st9" x1="195" y1="82" x2="261" y2="82"/>
</g>
<g id="Layer_8">
	<text transform="matrix(1 0 0 1 315.3586 310.333)" class="st10 st7">ターゲット</text>
	<text transform="matrix(1 0 0 1 75.5514 310.333)" class="st10 st7">ソース</text>
	<text transform="matrix(1 0 0 1 76.5514 142.333)" class="st10 st7">ソース</text>
</g>
<g id="Layer_3">
	<g>
		<path class="st5" d="M388.5,240c-7.9,0-15.2,1.6-21.2,4.3c-2.2-15.9-17.1-28.3-35.2-28.3c-18.6,0-33.9,13-35.4,29.7
			c-1.6-0.6-3.3-0.8-5.1-0.8c-9.5,0-17.2,8.6-17.2,19.2c0,10.6,7.7,19.2,17.2,19.2c2.1,0,4.1-0.4,5.9-1.2h79.3
			c3.6,0.8,7.5,1.2,11.6,1.2c19.6,0,35.5-9.7,35.5-21.6C424,249.7,408.1,240,388.5,240z"/>
		<text transform="matrix(1 0 0 1 288 268.1221)"><tspan x="0" y="0" class="st10 st7">非</tspan><tspan x="18" y="0" class="st6 st7"> IBM Cloud</tspan></text>
	</g>
</g>
<g id="Layer_2">
	<g>
		<path class="st5" d="M377.5,58c-7.9,0-15.2,1.6-21.2,4.3C354.1,46.3,339.2,34,321.1,34c-18.6,0-33.9,13-35.4,29.7
			c-1.6-0.6-3.3-0.8-5.1-0.8c-9.5,0-17.2,8.6-17.2,19.2c0,10.6,7.7,19.2,17.2,19.2c2.1,0,4.1-0.4,5.9-1.2h79.3
			c3.6,0.8,7.5,1.2,11.6,1.2c19.6,0,35.5-9.7,35.5-21.6C413,67.7,397.1,58,377.5,58z"/>
		<text transform="matrix(1 0 0 1 277 86.1221)" class="st6 st7">IBM Cloud DC 1</text>
	</g>
</g>
<g id="DCa">
</g>
<g id="bottom_explanation">
	<g>
		<text transform="matrix(1 0 0 1 195 357)" class="st10 st7">ハイブリッド・クラウド・サービス</text>
		<g>
			<path class="st11" d="M177.9,353.6v-7.4c0-1.8-1.4-3.2-3-3.2h-4v-9.5h6.5c4.8,0,8.6,4.1,8.6,9.1v14.4c0,5-3.9,9.1-8.6,9.1h-6.5
				v-9.2h4C176.5,356.8,177.9,355.3,177.9,353.6z"/>
			<path class="st12" d="M173.2,344.8h-3.9v-11.3h-6.1c-4.5,0-8.2,4.1-8.2,9.1v14.4c0,5,3.7,9.1,8.2,9.1h6.1v-10.6h3.9
				c1.2,0,2.2-1.1,2.2-2.5v-5.7C175.4,345.9,174.4,344.8,173.2,344.8z"/>
		</g>
	</g>
</g>
<g id="Hybrid_cloud_services">
	<path class="st5" d="M140.5,233c-7.9,0-15.2,1.6-21.2,4.3c-2.2-15.9-17.1-28.3-35.2-28.3c-18.6,0-33.9,13-35.4,29.7
		c-1.6-0.6-3.3-0.8-5.1-0.8c-9.5,0-17.2,8.6-17.2,19.2c0,10.6,7.7,19.2,17.2,19.2c2.1,0,4.1-0.4,5.9-1.2h79.3
		c3.6,0.8,7.5,1.2,11.6,1.2c19.6,0,35.5-9.7,35.5-21.6C176,242.7,160.1,233,140.5,233z"/>
	<g>
		<path d="M46,254.1h-4.8v-1.5H51v1.5h-3.9v0.9c0,3-0.7,5.4-2.2,7.3l-1-1.1c1.3-1.5,2-3.6,2-6.3V254.1z M42.9,249.8v-1.5h5.9v1.5
			H42.9z M50.8,249.4l-0.7,0.7c-0.4-0.9-0.9-1.8-1.3-2.5l0.7-0.6C49.8,247.5,50.3,248.3,50.8,249.4z M51.9,248.4l-0.7,0.7
			c-0.5-1-1-1.8-1.3-2.4l0.7-0.7C51,246.7,51.4,247.5,51.9,248.4z"/>
		<path d="M53,255.4v-1.5h10.7v1.5H53z"/>
		<path d="M69.6,249.7h3.2l0.5-0.3l0.6,0.9c0.1,0.2,0.1,0.4-0.2,0.6c-0.3,1.9-0.6,3.6-1.1,5.1l1.1,1.1l-0.7,1.5l-1.1-1.1
			c-0.9,2-2.2,3.6-4,4.9l-1.1-1.2c1.9-1.2,3.3-2.7,4.1-4.6c-0.8-0.7-1.6-1.4-2.3-2l0.6-1.3c1,0.7,1.8,1.3,2.4,1.8
			c0.5-1.5,0.8-2.7,0.9-3.9h-3.5c-0.6,1.6-1.4,3-2.2,4.4l-0.9-0.9c1.6-2.5,2.7-5.1,3.2-7.9l1.1,0.7c0.3,0.2,0.2,0.4-0.2,0.6
			C70,248.6,69.8,249.1,69.6,249.7z"/>
		<path d="M83.9,253.1v3h-2.1v-3H83.9z"/>
		<path d="M97.1,257.5l-0.9-0.9c0.7-1.3,1.4-2.6,2-3.9l-4,1.1v5.2c0,0.7,0.2,1,0.7,1h4.4l-0.1,1.5h-4.5c-1,0-1.5-0.7-1.5-2.3V254
			l-2.9,0.8l-0.4-1.6l3.3-0.8v-4.6h1c0.3,0.1,0.3,0.3,0.1,0.6v3.9l4.3-1.1l0.4-0.4l0.9,1.3c0.1,0.2,0.1,0.4-0.2,0.4
			C98.6,254.5,97.8,256.2,97.1,257.5z"/>
		<path d="M112.6,253c-1.7,5.2-4.5,7.9-8.5,8.2c-0.2,0.6-0.3,0.7-0.5,0.1l-0.4-1.8c4.1-0.1,6.9-2.6,8.4-7.5L112.6,253z M103.4,250.1
			l0.8-1.5c0.7,0.6,1.5,1.6,2.5,3l-0.9,1.3C105,251.8,104.2,250.8,103.4,250.1z"/>
		<path d="M118.6,249.7h3.2l0.5-0.3l0.6,0.9c0.1,0.2,0.1,0.4-0.2,0.6c-0.3,1.9-0.6,3.6-1.1,5.1l1.1,1.1l-0.7,1.5l-1.1-1.1
			c-0.9,2-2.2,3.6-4,4.9l-1.1-1.2c1.9-1.2,3.3-2.7,4.1-4.6c-0.8-0.7-1.6-1.4-2.3-2l0.6-1.3c1,0.7,1.8,1.3,2.4,1.8
			c0.5-1.5,0.8-2.7,0.9-3.9h-3.5c-0.6,1.6-1.4,3-2.2,4.4l-0.9-0.9c1.6-2.5,2.7-5.1,3.2-7.9l1.1,0.7c0.3,0.2,0.2,0.4-0.2,0.6
			C119,248.6,118.8,249.1,118.6,249.7z"/>
		<path d="M126.5,255.4v-1.5h10.7v1.5H126.5z"/>
		<path d="M142.2,261.1v-12.9h3.3c0.7,0,1.2,0.1,1.6,0.4c0.4,0.3,0.7,0.7,1,1.2c0.2,0.5,0.3,1.1,0.3,1.7c0,0.6-0.1,1.1-0.3,1.6
			c-0.2,0.5-0.5,0.9-0.9,1.2c0.5,0.2,0.9,0.6,1.2,1.2c0.3,0.6,0.4,1.2,0.4,2c0,0.6-0.1,1.2-0.3,1.7c-0.2,0.5-0.4,0.9-0.6,1.2
			s-0.6,0.5-1,0.6c-0.4,0.1-0.9,0.2-1.4,0.2H142.2z M143.4,253.7h1.9c0.5,0,0.9,0,1.1-0.1c0.3-0.1,0.5-0.3,0.7-0.6s0.2-0.7,0.2-1.1
			c0-0.4-0.1-0.8-0.2-1.1c-0.1-0.3-0.3-0.5-0.6-0.7c-0.3-0.1-0.7-0.2-1.3-0.2h-1.8V253.7z M143.4,259.6h2.2c0.4,0,0.6,0,0.8-0.1
			c0.3-0.1,0.5-0.2,0.7-0.4s0.3-0.4,0.4-0.7c0.1-0.3,0.2-0.7,0.2-1.1c0-0.5-0.1-0.9-0.3-1.3c-0.2-0.4-0.4-0.6-0.7-0.7
			s-0.7-0.2-1.3-0.2h-2V259.6z"/>
	</g>
	<g>
		<path class="st11" d="M186.3,258.5v-9.8c0-2.3-1.8-4.2-4-4.2H177V232h8.6c6.3,0,11.4,5.4,11.4,12v19c0,6.6-5.1,12-11.4,12H177
			v-12.2h5.2C184.4,262.8,186.3,260.9,186.3,258.5z"/>
		<path class="st12" d="M180.1,247h-5.2v-15h-8.1c-5.9,0-10.8,5.4-10.8,12v19c0,6.6,4.9,12,10.8,12h8.1v-14h5.2
			c1.6,0,2.9-1.5,2.9-3.3v-7.5C183,248.5,181.7,247,180.1,247z"/>
	</g>
	<path class="st5" d="M138.5,63c-7.9,0-15.2,1.6-21.2,4.3C115.1,51.3,100.2,39,82.1,39c-18.6,0-33.9,13-35.4,29.7
		c-1.6-0.6-3.3-0.8-5.1-0.8c-9.5,0-17.2,8.6-17.2,19.2c0,10.6,7.7,19.2,17.2,19.2c2.1,0,4.1-0.4,5.9-1.2h79.3
		c3.6,0.8,7.5,1.2,11.6,1.2c19.6,0,35.5-9.7,35.5-21.6C174,72.7,158.1,63,138.5,63z"/>
	<g>
		<path d="M44,84.1h-4.8v-1.5H49v1.5h-3.9V85c0,3-0.7,5.4-2.2,7.3l-1-1.1c1.3-1.5,2-3.6,2-6.3V84.1z M40.9,79.8v-1.5h5.9v1.5H40.9z
			 M48.8,79.4l-0.7,0.7c-0.4-0.9-0.9-1.8-1.3-2.5l0.7-0.6C47.9,77.5,48.3,78.3,48.8,79.4z M49.9,78.4l-0.7,0.7c-0.5-1-1-1.8-1.3-2.4
			l0.7-0.7C49,76.7,49.4,77.5,49.9,78.4z"/>
		<path d="M51,85.4v-1.5h10.7v1.5H51z"/>
		<path d="M67.7,79.7h3.2l0.5-0.3l0.6,0.9c0.1,0.2,0.1,0.4-0.2,0.6c-0.3,1.9-0.6,3.6-1.1,5.1l1.1,1.1l-0.7,1.5l-1.1-1.1
			c-0.9,2-2.3,3.6-4,4.9L65,91.2c1.9-1.2,3.3-2.7,4.1-4.6c-0.8-0.7-1.6-1.4-2.3-2l0.6-1.3c1,0.7,1.8,1.3,2.4,1.8
			c0.5-1.5,0.8-2.7,0.9-3.9h-3.5c-0.6,1.6-1.4,3-2.3,4.4L64,84.7c1.6-2.5,2.7-5.1,3.2-7.9l1.1,0.7c0.3,0.2,0.2,0.4-0.2,0.6
			C68.1,78.6,67.9,79.1,67.7,79.7z"/>
		<path d="M81.9,83.1v3h-2.1v-3H81.9z"/>
		<path d="M95.2,87.5l-0.9-0.9c0.7-1.3,1.4-2.6,2-3.9l-4,1.1v5.2c0,0.7,0.2,1,0.7,1h4.4l-0.1,1.5h-4.6c-1,0-1.5-0.7-1.5-2.3V84
			l-2.9,0.8L88,83.2l3.3-0.8v-4.6h1c0.3,0.1,0.3,0.3,0.1,0.6v3.9l4.3-1.1l0.4-0.4l0.9,1.3c0.1,0.2,0.1,0.4-0.2,0.4
			C96.7,84.5,95.9,86.2,95.2,87.5z"/>
		<path d="M110.7,83c-1.7,5.2-4.5,7.9-8.5,8.2c-0.2,0.6-0.3,0.7-0.5,0.1l-0.4-1.8c4.2-0.1,6.9-2.6,8.4-7.5L110.7,83z M101.5,80.1
			l0.8-1.5c0.7,0.6,1.5,1.6,2.5,3L104,83C103.1,81.8,102.3,80.8,101.5,80.1z"/>
		<path d="M116.8,79.7h3.2l0.5-0.3l0.6,0.9c0.1,0.2,0.1,0.4-0.2,0.6c-0.3,1.9-0.6,3.6-1.1,5.1l1.1,1.1l-0.7,1.5l-1.1-1.1
			c-0.9,2-2.3,3.6-4,4.9l-1.1-1.2c1.9-1.2,3.3-2.7,4.1-4.6c-0.8-0.7-1.6-1.4-2.3-2l0.6-1.3c1,0.7,1.8,1.3,2.4,1.8
			c0.5-1.5,0.8-2.7,0.9-3.9h-3.5c-0.6,1.6-1.4,3-2.3,4.4l-0.9-0.9c1.6-2.5,2.7-5.1,3.2-7.9l1.1,0.7c0.3,0.2,0.2,0.4-0.2,0.6
			C117.1,78.6,117,79.1,116.8,79.7z"/>
		<path d="M124.6,85.4v-1.5h10.7v1.5H124.6z"/>
		<path d="M138.8,91.1l3.4-12.9h1.3l3.6,12.9h-1.3l-1-3.9H141l-1,3.9H138.8z M141.4,85.8h3l-0.9-3.6c-0.3-1.1-0.5-2-0.6-2.7
			c-0.1,0.8-0.3,1.6-0.5,2.5L141.4,85.8z"/>
	</g>
	<g>
		<path class="st11" d="M184.3,88.5v-9.8c0-2.3-1.8-4.2-4-4.2H175V62h8.6c6.3,0,11.4,5.4,11.4,12v19c0,6.6-5.1,12-11.4,12H175V92.8
			h5.2C182.4,92.8,184.3,90.9,184.3,88.5z"/>
		<path class="st12" d="M178.1,77h-5.2V62h-8.1c-5.9,0-10.8,5.4-10.8,12v19c0,6.6,4.9,12,10.8,12h8.1V91h5.2c1.6,0,2.9-1.5,2.9-3.3
			v-7.5C181,78.5,179.7,77,178.1,77z"/>
	</g>
</g>
</svg>
