<?xml version="1.0" encoding="UTF-8" standalone="no"?>
<!-- Generator: Adobe Illustrator 21.0.0, SVG Export Plug-In . SVG Version: 6.00 Build 0)  -->

<svg
   xmlns:dc="http://purl.org/dc/elements/1.1/"
   xmlns:cc="http://creativecommons.org/ns#"
   xmlns:rdf="http://www.w3.org/1999/02/22-rdf-syntax-ns#"
   xmlns:svg="http://www.w3.org/2000/svg"
   xmlns="http://www.w3.org/2000/svg"
   xmlns:sodipodi="http://sodipodi.sourceforge.net/DTD/sodipodi-0.dtd"
   xmlns:inkscape="http://www.inkscape.org/namespaces/inkscape"
   version="1.1"
   x="0px"
   y="0px"
   viewBox="0 0 779 794"
   style="enable-background:new 0 0 779 794;"
   xml:space="preserve"
   id="svg547"
   sodipodi:docname="l2_concentrator_deployment.svg"
   inkscape:version="0.92.3 (2405546, 2018-03-11)"><metadata
   id="metadata553"><rdf:RDF><cc:Work
       rdf:about=""><dc:format>image/svg+xml</dc:format><dc:type
         rdf:resource="http://purl.org/dc/dcmitype/StillImage" /></cc:Work></rdf:RDF></metadata><defs
   id="defs551">
	

		
		
	
	
	

		
		
		
	
	
	
</defs><sodipodi:namedview
   pagecolor="#ffffff"
   bordercolor="#666666"
   borderopacity="1"
   objecttolerance="10"
   gridtolerance="10"
   guidetolerance="10"
   inkscape:pageopacity="0"
   inkscape:pageshadow="2"
   inkscape:window-width="1920"
   inkscape:window-height="1017"
   id="namedview549"
   showgrid="false"
   inkscape:zoom="1.0882709"
   inkscape:cx="436.84258"
   inkscape:cy="363.13556"
   inkscape:window-x="-8"
   inkscape:window-y="-8"
   inkscape:window-maximized="1"
   inkscape:current-layer="svg547" />
<style
   type="text/css"
   id="style2">
	.st0{fill:#FFFFFF;}
	.st1{fill:none;stroke:#000000;stroke-miterlimit:10;}
	.st2{fill:none;stroke:#000000;stroke-miterlimit:10;stroke-dasharray:8.0549,8.0549;}
	.st3{fill:none;stroke:#000000;stroke-miterlimit:10;stroke-dasharray:8.052,8.052;}
	.st4{fill:#AADFF2;}
	.st5{fill:none;stroke:#000000;stroke-miterlimit:10;stroke-dasharray:8.0706,8.0706;}
	.st6{fill:none;stroke:#000000;stroke-miterlimit:10;stroke-dasharray:8.1177,8.1177;}
	.st7{font-family:'MyriadPro-Regular';}
	.st8{font-size:21px;}
	.st9{fill:#E1E5BA;}
	.st10{fill:none;stroke:#000000;stroke-miterlimit:10;stroke-dasharray:8.1429,8.1429;}
	.st11{fill:#FFFFFF;stroke:#000000;stroke-width:3;stroke-miterlimit:10;}
	.st12{fill:#FF7BAC;}
	.st13{font-family:'IBMPlexSans';}
	.st14{fill:#29ABE2;}
	.st15{font-size:18px;}
	.st16{fill:#EF7C26;}
	.st17{fill:#C491F2;stroke:#000000;stroke-miterlimit:10;}
	.st18{fill:#FFFFFF;stroke:#000000;stroke-miterlimit:10;}
	.st19{fill:#F4BA51;}
	.st20{fill:#169ADB;stroke:#9BCCDD;stroke-width:0.5;stroke-miterlimit:10;}
	.st21{fill:url(#SVGID_1_);}
	.st22{font-size:11.4646px;}
	.st23{fill:url(#SVGID_2_);}
	.st24{font-size:9.2282px;}
	.st25{fill:#2B6782;}
	.st26{fill:#1E4C66;}
	.st27{font-size:16.5319px;}
</style>
<g
   id="Outter_dash_rectangle">
	<g
   id="g24">
		<rect
   x="21.5"
   y="64"
   class="st0"
   width="741"
   height="628"
   id="rect4" />
		<g
   id="g22">
			<polyline
   class="st1"
   points="762.5,688 762.5,692 758.5,692    "
   id="polyline6" />
			<line
   class="st2"
   x1="750.4"
   y1="692"
   x2="29.5"
   y2="692"
   id="line8" />
			<polyline
   class="st1"
   points="25.5,692 21.5,692 21.5,688    "
   id="polyline10" />
			<line
   class="st3"
   x1="21.5"
   y1="679.9"
   x2="21.5"
   y2="72"
   id="line12" />
			<polyline
   class="st1"
   points="21.5,68 21.5,64 25.5,64    "
   id="polyline14" />
			<line
   class="st2"
   x1="33.6"
   y1="64"
   x2="754.5"
   y2="64"
   id="line16" />
			<polyline
   class="st1"
   points="758.5,64 762.5,64 762.5,68    "
   id="polyline18" />
			<line
   class="st3"
   x1="762.5"
   y1="76.1"
   x2="762.5"
   y2="684"
   id="line20" />
		</g>
	</g>
</g>
<g
   id="Public_address_space_rectangle">
	<g
   id="g47">
		<rect
   x="45.5"
   y="94.5"
   class="st4"
   width="694"
   height="146"
   id="rect27" />
		<g
   id="g45">
			<polyline
   class="st1"
   points="739.5,236.5 739.5,240.5 735.5,240.5    "
   id="polyline29" />
			<line
   class="st5"
   x1="727.4"
   y1="240.5"
   x2="53.5"
   y2="240.5"
   id="line31" />
			<polyline
   class="st1"
   points="49.5,240.5 45.5,240.5 45.5,236.5    "
   id="polyline33" />
			<line
   class="st6"
   x1="45.5"
   y1="228.4"
   x2="45.5"
   y2="102.6"
   id="line35" />
			<polyline
   class="st1"
   points="45.5,98.5 45.5,94.5 49.5,94.5    "
   id="polyline37" />
			<line
   class="st5"
   x1="57.6"
   y1="94.5"
   x2="731.5"
   y2="94.5"
   id="line39" />
			<polyline
   class="st1"
   points="735.5,94.5 739.5,94.5 739.5,98.5    "
   id="polyline41" />
			<line
   class="st6"
   x1="739.5"
   y1="106.6"
   x2="739.5"
   y2="232.4"
   id="line43" />
		</g>
	</g>
	<text
   transform="matrix(1 0 0 1 522 226)"
   class="st7 st8"
   id="text49"
   style="-inkscape-font-specification:'MS UI Gothic, Normal';font-family:'MS UI Gothic';font-weight:normal;font-style:normal;font-stretch:normal;font-variant:normal;font-size:17.68799973px;text-anchor:start;text-align:start;writing-mode:lr;font-variant-ligatures:normal;font-variant-caps:normal;font-variant-numeric:normal;font-feature-settings:normal;">パブリック・アドレス・スペース</text>

</g>
<g
   id="Private_address_space_rectangle">
	<g
   id="g72">
		<rect
   x="46.5"
   y="251.5"
   class="st9"
   width="694"
   height="407"
   id="rect52" />
		<g
   id="g70">
			<polyline
   class="st1"
   points="740.5,654.5 740.5,658.5 736.5,658.5    "
   id="polyline54" />
			<line
   class="st5"
   x1="728.4"
   y1="658.5"
   x2="54.5"
   y2="658.5"
   id="line56" />
			<polyline
   class="st1"
   points="50.5,658.5 46.5,658.5 46.5,654.5    "
   id="polyline58" />
			<line
   class="st10"
   x1="46.5"
   y1="646.4"
   x2="46.5"
   y2="259.6"
   id="line60" />
			<polyline
   class="st1"
   points="46.5,255.5 46.5,251.5 50.5,251.5    "
   id="polyline62" />
			<line
   class="st5"
   x1="58.6"
   y1="251.5"
   x2="732.5"
   y2="251.5"
   id="line64" />
			<polyline
   class="st1"
   points="736.5,251.5 740.5,251.5 740.5,255.5    "
   id="polyline66" />
			<line
   class="st10"
   x1="740.5"
   y1="263.6"
   x2="740.5"
   y2="650.4"
   id="line68" />
		</g>
	</g>
	<text
   transform="matrix(1 0 0 1 519 643)"
   class="st7 st8"
   id="text74"
   style="-inkscape-font-specification:'MS UI Gothic, Normal';font-family:'MS UI Gothic';font-weight:normal;font-style:normal;font-stretch:normal;font-variant:normal;font-size:17.68799973px;text-anchor:start;text-align:start;writing-mode:lr;font-variant-ligatures:normal;font-variant-caps:normal;font-variant-numeric:normal;font-feature-settings:normal;">プライベート・アドレス・スペース</text>

</g>
<g
   id="ibm_cloud">
	<g
   id="g81">
		<path
   class="st11"
   d="M155.2,59.9c0-11.4-13.4-20.6-29.9-20.6c-1.6,0-3.2,0.1-4.7,0.3c-1-2.2-2.6-4.2-4.6-5.8    c-4.7-3.8-10.8-4.5-15.7-2.3C97.5,16.9,86,6,72.2,6C57.8,6,46,17.8,43.8,33.2c-0.1,0-0.2,0-0.4,0c-11.6,0-21,10.6-21,23.7    c0,10,5.5,18.5,13.2,22v0.9h2.4c1.7,0.5,3.5,0.8,5.3,0.8c1.8,0,3.6-0.3,5.3-0.8h68.4c2.6,0.5,5.3,0.8,8.1,0.8    c2.8,0,5.5-0.3,8.1-0.8h2.4v-0.5C147.1,76.3,155.2,68.8,155.2,59.9z"
   id="path77" />
		<text
   transform="matrix(1 0 0 1 35 62)"
   class="st7 st8"
   id="text79"
   style="-inkscape-font-specification:'MS UI Gothic, Normal';font-family:'MS UI Gothic';font-weight:normal;font-style:normal;font-stretch:normal;font-variant:normal;font-size:17.68799973px;text-anchor:start;text-align:start;writing-mode:lr;font-variant-ligatures:normal;font-variant-caps:normal;font-variant-numeric:normal;font-feature-settings:normal;">IBM Cloud</text>

	</g>
</g>
<g
   id="lines">
</g>
<g
   id="g99">
			<g
   id="g97">
				<g
   id="g89">
					<path
   class="st12"
   d="m 102.3,190.5 v 0 l -0.4,-0.1 C 92.6,189.3 85.5,180.1 85.5,169 c 0,-11.1 7,-20.3 16.4,-21.4 l 0.4,-0.1 v -0.1 h 583.6 0.2 c 9.2,0.4 16.4,9.8 16.4,21.5 0,11.7 -7.2,21.1 -16.4,21.5 h -0.4 -583.4 z"
   id="path85"
   inkscape:connector-curvature="0"
   style="fill:#ff7bac" />
					<path
   d="m 685.7,148 h 0.4 c 8.9,0.4 15.9,9.6 15.9,21 0,11.4 -7,20.6 -15.9,21 h -0.3 -583 l -0.9,-0.1 C 92.8,188.9 86,179.9 86,169 c 0,-10.9 6.9,-19.9 15.9,-20.9 l 0.9,-0.1 h 582.9 m 0.5,-1 H 101.8 v 0.1 C 92.4,148.2 85,157.6 85,169 c 0,11.4 7.4,20.8 16.8,21.9 v 0.1 h 584.3 v 0 c 9.3,-0.4 16.8,-10.1 16.8,-22 0.1,-11.9 -7.4,-21.6 -16.7,-22 z"
   id="path87"
   inkscape:connector-curvature="0" />
				</g>
				<g
   id="g95">
					<path
   class="st0"
   d="m 684.4,186.9 c -6.7,0 -12.1,-8.2 -12.1,-18.4 0,-10.1 5.4,-18.4 12.1,-18.4 6.7,0 12.1,8.2 12.1,18.4 0,10.2 -5.5,18.4 -12.1,18.4 z"
   id="path91"
   inkscape:connector-curvature="0"
   style="fill:#ffffff" />
					<path
   d="m 684.4,150.7 c 6.4,0 11.6,8 11.6,17.9 0,9.8 -5.2,17.9 -11.6,17.9 -6.4,0 -11.6,-8 -11.6,-17.9 -0.1,-9.9 5.2,-17.9 11.6,-17.9 m 0,-1 c -7,0 -12.6,8.4 -12.6,18.9 0,10.4 5.7,18.9 12.6,18.9 7,0 12.6,-8.4 12.6,-18.9 0,-10.5 -5.7,-18.9 -12.6,-18.9 z"
   id="path93"
   inkscape:connector-curvature="0" />
				</g>
			</g>
		</g><text
   class="st13 st8"
   id="text101"
   style="font-size:17.68799973px;font-family:'MS UI Gothic';-inkscape-font-specification:'MS UI Gothic, Normal';font-weight:normal;font-style:normal;font-stretch:normal;font-variant:normal;text-anchor:start;text-align:start;writing-mode:lr;font-variant-ligatures:normal;font-variant-caps:normal;font-variant-numeric:normal;font-feature-settings:normal;"
   x="308.75"
   y="175.75">パブリック VLAN (ネイティブ)</text>

<g
   id="security_lock_icon">
	<g
   id="g138">
		<line
   class="st1"
   x1="334.5"
   y1="190.5"
   x2="334.5"
   y2="565.5"
   id="line106" />
		<line
   class="st1"
   x1="319.5"
   y1="407.5"
   x2="319.5"
   y2="504.5"
   id="line108" />
		<line
   class="st1"
   x1="349.5"
   y1="407.5"
   x2="349.5"
   y2="438.5"
   id="line110" />
		<g
   id="g136">
			<path
   class="st14"
   d="M350,407.8h-30c-6.6,0-12-5.4-12-12v-25c0-6.6,5.4-12,12-12h30c6.6,0,12,5.4,12,12v25     C362,402.4,356.6,407.8,350,407.8z"
   id="path112" />
			<g
   id="g134">
				<g
   id="g120">
					<path
   class="st0"
   d="M340.9,380.8h-10.9c-2.2,0-4.1-1.8-4.1-4.1v-5.9c0-2.2,1.8-4.1,4.1-4.1h10.9c2.2,0,4.1,1.8,4.1,4.1v5.9       C345,378.9,343.2,380.8,340.9,380.8z"
   id="path114" />
					<path
   class="st14"
   d="M338.9,378.8h-6.9c-1.1,0-2.1-0.9-2.1-2.1v-4c0-1.1,0.9-2.1,2.1-2.1h6.9c1.1,0,2.1,0.9,2.1,2.1v4       C341,377.8,340.1,378.8,338.9,378.8z"
   id="path116" />
					<path
   class="st0"
   d="M346.9,399.8h-22.9c-2.2,0-4.1-1.8-4.1-4.1v-13.9c0-2.2,1.8-4.1,4.1-4.1h22.9c2.2,0,4.1,1.8,4.1,4.1v13.9       C351,397.9,349.2,399.8,346.9,399.8z"
   id="path118" />
				</g>
				<g
   id="g132">
					<ellipse
   class="st14"
   cx="336"
   cy="386.3"
   rx="4"
   ry="3.5"
   id="ellipse122" />
					<path
   class="st14"
   d="M335.5,396.8L335.5,396.8c-0.8,0-1.5-0.7-1.5-1.5v-7c0-0.8,0.7-1.5,1.5-1.5l0,0c0.8,0,1.5,0.7,1.5,1.5v7       C337,396.1,336.3,396.8,335.5,396.8z"
   id="path124" />
					<path
   class="st14"
   d="M338.5,391.8h-2c-0.3,0-0.5-0.2-0.5-0.5l0,0c0-0.3,0.2-0.5,0.5-0.5h2c0.3,0,0.5,0.2,0.5,0.5l0,0       C339,391.5,338.8,391.8,338.5,391.8z"
   id="path126" />
					<path
   class="st14"
   d="M338.5,393.8h-2c-0.3,0-0.5-0.2-0.5-0.5l0,0c0-0.3,0.2-0.5,0.5-0.5h2c0.3,0,0.5,0.2,0.5,0.5l0,0       C339,393.5,338.8,393.8,338.5,393.8z"
   id="path128" />
					<path
   class="st14"
   d="M338.5,395.8h-2c-0.3,0-0.5-0.2-0.5-0.5l0,0c0-0.3,0.2-0.5,0.5-0.5h2c0.3,0,0.5,0.2,0.5,0.5l0,0       C339,395.5,338.8,395.8,338.5,395.8z"
   id="path130" />
				</g>
			</g>
		</g>
	</g>
</g>
<g
   id="security_lock_bottom">
	<g
   id="g165">
		<path
   class="st14"
   d="M383,759h-19.2c-6.6,0-12-5.4-12-12v-15.2c0-6.6,5.4-12,12-12H383c6.6,0,12,5.4,12,12V747    C395,753.6,389.6,759,383,759z"
   id="path141" />
		<g
   id="g163">
			<g
   id="g149">
				<path
   class="st0"
   d="M377.3,737.4h-7.1c-2.2,0-4.1-1.8-4.1-4.1v-3.1c0-2.2,1.8-4.1,4.1-4.1h7.1c2.2,0,4.1,1.8,4.1,4.1v3.1      C381.4,735.6,379.6,737.4,377.3,737.4z"
   id="path143" />
				<path
   class="st14"
   d="M376.1,735.8h-4.7c-1.1,0-2.1-0.9-2.1-2.1v-2.4c0-1.1,0.9-2.1,2.1-2.1h4.7c1.1,0,2.1,0.9,2.1,2.1v2.4      C378.2,734.9,377.3,735.8,376.1,735.8z"
   id="path145" />
				<path
   class="st0"
   d="M382.1,752.6h-16.7c-2.2,0-4.1-1.8-4.1-4.1V739c0-2.2,1.8-4.1,4.1-4.1h16.7c2.2,0,4.1,1.8,4.1,4.1v9.5      C386.2,750.8,384.4,752.6,382.1,752.6z"
   id="path147" />
			</g>
			<g
   id="g161">
				<ellipse
   class="st14"
   cx="374.2"
   cy="741.8"
   rx="3.2"
   ry="2.8"
   id="ellipse151" />
				<path
   class="st14"
   d="M373.8,750.2L373.8,750.2c-0.7,0-1.2-0.5-1.2-1.2v-5.6c0-0.7,0.5-1.2,1.2-1.2h0c0.7,0,1.2,0.5,1.2,1.2v5.6      C375,749.7,374.4,750.2,373.8,750.2z"
   id="path153" />
				<path
   class="st14"
   d="M376.2,746.2h-1.6c-0.2,0-0.4-0.2-0.4-0.4v0c0-0.2,0.2-0.4,0.4-0.4h1.6c0.2,0,0.4,0.2,0.4,0.4v0      C376.6,746,376.4,746.2,376.2,746.2z"
   id="path155" />
				<path
   class="st14"
   d="M376.2,747.8h-1.6c-0.2,0-0.4-0.2-0.4-0.4v0c0-0.2,0.2-0.4,0.4-0.4h1.6c0.2,0,0.4,0.2,0.4,0.4v0      C376.6,747.6,376.4,747.8,376.2,747.8z"
   id="path157" />
				<path
   class="st14"
   d="M376.2,749.4h-1.6c-0.2,0-0.4-0.2-0.4-0.4v0c0-0.2,0.2-0.4,0.4-0.4h1.6c0.2,0,0.4,0.2,0.4,0.4v0      C376.6,749.2,376.4,749.4,376.2,749.4z"
   id="path159" />
			</g>
		</g>
	</g>
	<text
   transform="matrix(1 0 0 1 317 780)"
   class="st7 st15"
   id="text167"
   style="-inkscape-font-specification:'MS UI Gothic, Normal';font-family:'MS UI Gothic';font-weight:normal;font-style:normal;font-stretch:normal;font-variant:normal;font-size:17.68799973px;text-anchor:start;text-align:start;writing-mode:lr;font-variant-ligatures:normal;font-variant-caps:normal;font-variant-numeric:normal;font-feature-settings:normal;">クラウド・ゲートウェイ</text>

</g>
<g
   id="g202">
		<path
   style="fill:#29abe2"
   inkscape:connector-curvature="0"
   id="path170"
   d="m 533,759 h -21.8 c -6.6,0 -12,-5.4 -12,-12 v -17.5 c 0,-6.6 5.4,-12 12,-12 H 533 c 6.6,0 12,5.4 12,12 V 747 c 0,6.6 -5.4,12 -12,12 z"
   class="st14" />
		<g
   id="g200">
			<g
   id="g194">
				<g
   id="g188">
					<g
   id="g182">
						<g
   id="g176">
							<ellipse
   style="fill:#ffffff"
   id="ellipse172"
   ry="11.9"
   rx="12.3"
   cy="738.09998"
   cx="522"
   class="st0" />
							<ellipse
   style="fill:#29abe2"
   id="ellipse174"
   ry="5.3000002"
   rx="5.5"
   cy="738.09998"
   cx="522"
   class="st14" />
						</g>
						<rect
   style="fill:#ffffff"
   id="rect178"
   height="4.1999998"
   width="6.5999999"
   class="st0"
   y="723"
   x="518.29999" />
						<rect
   style="fill:#ffffff"
   id="rect180"
   height="5.0999999"
   width="5.9000001"
   class="st0"
   y="748.40002"
   x="519" />
					</g>
					<rect
   style="fill:#ffffff"
   id="rect184"
   height="5.9000001"
   width="5.0999999"
   class="st0"
   y="735.29999"
   x="532.70001" />
					<rect
   style="fill:#ffffff"
   id="rect186"
   height="5.9000001"
   width="5.0999999"
   class="st0"
   y="735.29999"
   x="506.5" />
				</g>
				
					<rect
   style="fill:#ffffff"
   id="rect190"
   height="5.5999999"
   width="5.5999999"
   class="st0"
   transform="matrix(0.7526,0.6585,-0.6585,0.7526,606.7064,-156.8211)"
   y="726.20001"
   x="509.29999" />
				
					<rect
   style="fill:#ffffff"
   id="rect192"
   height="5.5999999"
   width="7.3000002"
   class="st0"
   transform="matrix(0.7526,0.6585,-0.6585,0.7526,623.8824,-165.1461)"
   y="744.90002"
   x="528" />
			</g>
			
				<rect
   style="fill:#ffffff"
   id="rect196"
   height="6.0999999"
   width="5.5"
   class="st0"
   transform="matrix(0.7071,0.7071,-0.7071,0.7071,671.8127,-162.7813)"
   y="726.5"
   x="529.59998" />
			
				<rect
   style="fill:#ffffff"
   id="rect198"
   height="5.5"
   width="5.5"
   class="st0"
   transform="matrix(0.7071,0.7071,-0.7071,0.7071,678.7737,-143.5796)"
   y="744.79999"
   x="509.89999" />
		</g>
	</g><text
   style="font-style:normal;font-variant:normal;font-weight:normal;font-stretch:normal;font-size:16.09249306px;font-family:'MS UI Gothic';-inkscape-font-specification:'MS UI Gothic, Normal';font-variant-ligatures:normal;font-variant-caps:normal;font-variant-numeric:normal;font-feature-settings:normal;text-align:start;writing-mode:lr-tb;text-anchor:start;stroke-width:0.90979725"
   id="text204"
   class="st7 st15"
   x="512.22821"
   y="709.64185"
   transform="scale(0.90979727,1.099146)">WAN 最適化プログラム</text>

<g
   id="gear_icon">
	<g
   id="g243">
		<line
   class="st1"
   x1="402.5"
   y1="407.5"
   x2="402.5"
   y2="437.5"
   id="line207" />
		<g
   id="g241">
			<path
   class="st14"
   d="M418.3,407.8h-30c-6.6,0-12-5.4-12-12v-25c0-6.6,5.4-12,12-12h30c6.6,0,12,5.4,12,12v25     C430.3,402.4,424.9,407.8,418.3,407.8z"
   id="path209" />
			<g
   id="g239">
				<g
   id="g233">
					<g
   id="g227">
						<g
   id="g221">
							<g
   id="g215">
								<ellipse
   class="st0"
   cx="403.1"
   cy="383.1"
   rx="14.5"
   ry="14"
   id="ellipse211" />
								<ellipse
   class="st14"
   cx="403.1"
   cy="383.1"
   rx="6.5"
   ry="6.3"
   id="ellipse213" />
							</g>
							<rect
   x="398.8"
   y="365.3"
   class="st0"
   width="7.8"
   height="5"
   id="rect217" />
							<rect
   x="399.6"
   y="395.3"
   class="st0"
   width="7"
   height="6"
   id="rect219" />
						</g>
						<rect
   x="415.8"
   y="379.8"
   class="st0"
   width="6"
   height="7"
   id="rect223" />
						<rect
   x="384.8"
   y="379.8"
   class="st0"
   width="6"
   height="7"
   id="rect225" />
					</g>
					
						<rect
   x="388.1"
   y="369"
   transform="matrix(0.7526 0.6585 -0.6585 0.7526 341.9793 -165.5926)"
   class="st0"
   width="6.6"
   height="6.6"
   id="rect229" />
					
						<rect
   x="410.2"
   y="391"
   transform="matrix(0.7526 0.6585 -0.6585 0.7526 362.2429 -175.4187)"
   class="st0"
   width="8.6"
   height="6.6"
   id="rect231" />
				</g>
				
					<rect
   x="412.1"
   y="369.4"
   transform="matrix(0.7071 0.7071 -0.7071 0.7071 385.4124 -184.4679)"
   class="st0"
   width="6.5"
   height="7.2"
   id="rect235" />
				
					<rect
   x="388.9"
   y="391"
   transform="matrix(0.7071 0.7071 -0.7071 0.7071 393.6287 -161.8037)"
   class="st0"
   width="6.5"
   height="6.5"
   id="rect237" />
			</g>
		</g>
	</g>
</g>
<g
   id="L2_concentrator">
	<g
   id="g270">
		<line
   class="st1"
   x1="469.5"
   y1="408.5"
   x2="469.5"
   y2="437.5"
   id="line246" />
		<g
   id="g268">
			<path
   class="st14"
   d="M485.5,408.6h-30c-6.6,0-12-5.4-12-12v-25c0-6.6,5.4-12,12-12h30c6.6,0,12,5.4,12,12v25     C497.5,403.2,492.1,408.6,485.5,408.6z"
   id="path248" />
			<g
   id="g266">
				<rect
   x="455.5"
   y="371.5"
   class="st0"
   width="30"
   height="15.9"
   id="rect250" />
				<rect
   x="460.2"
   y="383.6"
   class="st0"
   width="20.6"
   height="7.5"
   id="rect252" />
				<rect
   x="460.2"
   y="377.1"
   class="st14"
   width="20.6"
   height="1.9"
   id="rect254" />
				<rect
   x="467.7"
   y="389.3"
   class="st0"
   width="5.6"
   height="13.1"
   id="rect256" />
				<rect
   x="458.3"
   y="365.8"
   class="st0"
   width="5.6"
   height="10.3"
   id="rect258" />
				<rect
   x="466.8"
   y="365.8"
   class="st0"
   width="2.8"
   height="3.8"
   id="rect260" />
				<rect
   x="471.4"
   y="365.8"
   class="st0"
   width="2.8"
   height="3.8"
   id="rect262" />
				<rect
   x="477.1"
   y="365.8"
   class="st0"
   width="5.6"
   height="10.3"
   id="rect264" />
			</g>
		</g>
	</g>
</g>
<g
   id="vSAN_vMotion">
	<g
   id="Layer_7">
	</g>
	<g
   id="g290">
		<g
   id="g286">
			<g
   id="g278">
				<path
   class="st16"
   d="M103.3,608.5L103.3,608.5l-0.4-0.1c-9.3-1-16.4-10-16.4-20.9s7-19.9,16.4-20.9l0.4,0v0h583.6l0.2,0      c9.2,0.4,16.4,9.6,16.4,21s-7.2,20.6-16.4,21l-0.4,0H103.3z"
   id="path274" />
				<path
   d="M686.7,567l0.4,0c8.9,0.4,15.9,9.4,15.9,20.5s-7,20.1-15.9,20.5l-0.3,0h-583l-0.9-0.1c-9.1-1-15.9-9.8-15.9-20.4      s6.9-19.4,15.9-20.4l0.9-0.1H686.7 M687.2,566H102.8v0.1c-9.4,1-16.8,10.2-16.8,21.4c0,11.2,7.4,20.4,16.8,21.4v0.1h584.3v0      c9.3-0.4,16.8-9.9,16.8-21.5S696.5,566.4,687.2,566L687.2,566L687.2,566z"
   id="path276" />
			</g>
			<g
   id="g284">
				<path
   class="st0"
   d="M685.4,605c-6.7,0-12.1-8-12.1-17.9c0-9.9,5.4-17.9,12.1-17.9s12.1,8,12.1,17.9      C697.5,596.9,692,605,685.4,605z"
   id="path280" />
				<path
   d="M685.4,569.6c6.4,0,11.6,7.8,11.6,17.4c0,9.6-5.2,17.4-11.6,17.4s-11.6-7.8-11.6-17.4      C673.7,577.5,679,569.6,685.4,569.6 M685.4,568.6c-7,0-12.6,8.3-12.6,18.4s5.7,18.4,12.6,18.4c7,0,12.6-8.3,12.6-18.4      S692.3,568.6,685.4,568.6L685.4,568.6z"
   id="path282" />
			</g>
		</g>
		<text
   transform="matrix(1 0 0 1 262 596)"
   class="st7 st8"
   id="text288"
   style="-inkscape-font-specification:'MS UI Gothic, Normal';font-family:'MS UI Gothic';font-weight:normal;font-style:normal;font-stretch:normal;font-variant:normal;font-size:17.68799973px;text-anchor:start;text-align:start;writing-mode:lr;font-variant-ligatures:normal;font-variant-caps:normal;font-variant-numeric:normal;font-feature-settings:normal;">vSAN &amp; vMotion -- プライベート VLAN B</text>

	</g>
</g>
<g
   id="Logical_swiitch">
	<g
   id="g311">
		<g
   id="g307">
			<g
   id="g305">
				<g
   id="g297">
					<path
   class="st14"
   d="M311.5,480.5L311.5,480.5l-0.4-0.1c-6-1-10.6-10.2-10.6-20.9s4.7-19.9,10.6-20.9l0.4-0.1v0h382.2l0.2,0       c5.8,0.4,10.6,9.8,10.6,21s-4.7,20.6-10.6,21l-0.3,0H311.5z"
   id="path293" />
					<path
   d="M693.6,439l0.3,0c5.6,0.4,10.1,9.5,10.1,20.5s-4.5,20.1-10.1,20.5l-0.2,0h-382l-0.5-0.1c-5.7-1-10.2-9.9-10.2-20.4       s4.5-19.4,10.2-20.4l0.5-0.1H693.6 M694,438H311v0.1c-6.2,1-11,10.2-11,21.4c0,11.2,4.8,20.4,11,21.4v0.1H694v0       c6.1-0.4,11-9.9,11-21.5S700.1,438.4,694,438L694,438L694,438z"
   id="path295" />
				</g>
				<g
   id="g303">
					<path
   class="st0"
   d="M688.2,477c-6.8,0-12.4-8-12.4-17.9c0-9.9,5.6-17.9,12.4-17.9c6.8,0,12.4,8,12.4,17.9       C700.6,468.9,695,477,688.2,477z"
   id="path299" />
					<path
   d="M688.2,441.6c6.6,0,11.9,7.8,11.9,17.4c0,9.6-5.3,17.4-11.9,17.4c-6.6,0-11.9-7.8-11.9-17.4       C676.3,449.5,681.6,441.6,688.2,441.6 M688.2,440.6c-7.1,0-12.9,8.3-12.9,18.4c0,10.2,5.8,18.4,12.9,18.4       c7.1,0,12.9-8.3,12.9-18.4C701.1,448.9,695.3,440.6,688.2,440.6L688.2,440.6z"
   id="path301" />
				</g>
			</g>
		</g>
		<text
   transform="matrix(1 0 0 1 359 467)"
   class="st7 st8"
   id="text309"
   style="-inkscape-font-specification:'MS UI Gothic, Normal';font-family:'MS UI Gothic';font-weight:normal;font-style:normal;font-stretch:normal;font-variant:normal;font-size:17.68799973px;text-anchor:start;text-align:start;writing-mode:lr;font-variant-ligatures:normal;font-variant-caps:normal;font-variant-numeric:normal;font-feature-settings:normal;">論理スイッチ・ネットワーク (VXLAN)</text>

	</g>
	<g
   id="Layer_9">
	</g>
</g>
<g
   id="extended_network">
	<g
   id="g323">
		<g
   id="g319">
			<path
   class="st17"
   d="M682.5,368.5H529c-9.4,0-17,8.3-17,18.5c0,10.2,7.6,18.5,17,18.5h153.5c9.4,0,17-8.3,17-18.5     C699.5,376.8,691.9,368.5,682.5,368.5z"
   id="path315" />
			<ellipse
   class="st18"
   cx="681.9"
   cy="387"
   rx="11.4"
   ry="15.5"
   id="ellipse317" />
		</g>
		<text
   transform="matrix(1 0 0 1 524.5 393)"
   class="st7 st15"
   id="text321"
   style="-inkscape-font-specification:'MS UI Gothic, Normal';font-family:'MS UI Gothic';font-weight:normal;font-style:normal;font-stretch:normal;font-variant:normal;font-size:17.68799973px;text-anchor:start;text-align:start;writing-mode:lr;font-variant-ligatures:normal;font-variant-caps:normal;font-variant-numeric:normal;font-feature-settings:normal;">拡張ネットワーク</text>

	</g>
</g>
<g
   id="management_vxlan">
	<g
   id="Layer_6">
	</g>
	<g
   id="g343">
		<g
   id="g339">
			<g
   id="g331">
				<path
   class="st19"
   d="M102.3,547.5L102.3,547.5l-0.4-0.1c-9.3-1.1-16.4-10.3-16.4-21.4s7-20.3,16.4-21.4l0.4-0.1v-0.1h583.6      l0.2,0c9.2,0.4,16.4,9.8,16.4,21.5s-7.2,21.1-16.4,21.5l-0.4,0H102.3z"
   id="path327" />
				<path
   d="M685.7,505l0.4,0c8.9,0.4,15.9,9.6,15.9,21s-7,20.6-15.9,21l-0.3,0h-583l-0.9-0.1c-9.1-1-15.9-10-15.9-20.9      s6.9-19.9,15.9-20.9l0.9-0.1H685.7 M686.2,504H101.8v0.1C92.4,505.2,85,514.6,85,526c0,11.4,7.4,20.8,16.8,21.9v0.1h584.3v0      c9.3-0.4,16.8-10.1,16.8-22C703,514.1,695.5,504.4,686.2,504L686.2,504L686.2,504z"
   id="path329" />
			</g>
			<g
   id="g337">
				<path
   class="st0"
   d="M684.4,543.9c-6.7,0-12.1-8.2-12.1-18.4c0-10.1,5.4-18.4,12.1-18.4s12.1,8.2,12.1,18.4      C696.5,535.7,691,543.9,684.4,543.9z"
   id="path333" />
				<path
   d="M684.4,507.7c6.4,0,11.6,8,11.6,17.9c0,9.8-5.2,17.9-11.6,17.9s-11.6-8-11.6-17.9C672.7,515.7,678,507.7,684.4,507.7       M684.4,506.7c-7,0-12.6,8.4-12.6,18.9c0,10.4,5.7,18.9,12.6,18.9c7,0,12.6-8.4,12.6-18.9C697,515.1,691.3,506.7,684.4,506.7      L684.4,506.7z"
   id="path335" />
			</g>
		</g>
		<text
   transform="matrix(1 0 0 1 203 533)"
   class="st7 st8"
   id="text341"
   style="-inkscape-font-specification:'MS UI Gothic, Normal';font-family:'MS UI Gothic';font-weight:normal;font-style:normal;font-stretch:normal;font-variant:normal;font-size:17.68799973px;text-anchor:start;text-align:start;writing-mode:lr;font-variant-ligatures:normal;font-variant-caps:normal;font-variant-numeric:normal;font-feature-settings:normal;">管理 &amp; VXLAN -- プライベート VLAN A (ネイティブ)</text>

	</g>
</g>
<g
   id="P_x2F_V">
	<g
   id="g417">
		<line
   class="st1"
   x1="121"
   y1="190"
   x2="121"
   y2="503.5"
   id="line346" />
		<g
   id="g415">
			<g
   id="g413">
				<g
   id="g371">
					<rect
   x="97.5"
   y="280"
   class="st20"
   width="47.3"
   height="47.3"
   id="rect348" />
					<linearGradient
   id="SVGID_1_"
   gradientUnits="userSpaceOnUse"
   x1="128.9627"
   y1="296.7212"
   x2="117.5096"
   y2="338.8456">
						<stop
   offset="0"
   style="stop-color:#CCE0F4"
   id="stop350" />
						<stop
   offset="7.748766e-02"
   style="stop-color:#C5DDF3"
   id="stop352" />
						<stop
   offset="0.1918"
   style="stop-color:#B1D5EF"
   id="stop354" />
						<stop
   offset="0.329"
   style="stop-color:#90C9EA"
   id="stop356" />
						<stop
   offset="0.4838"
   style="stop-color:#63B7E2"
   id="stop358" />
						<stop
   offset="0.6515"
   style="stop-color:#2AA1D9"
   id="stop360" />
						<stop
   offset="0.6829"
   style="stop-color:#1E9CD7"
   id="stop362" />
						<stop
   offset="0.8652"
   style="stop-color:#0075BE"
   id="stop364" />
						<stop
   offset="0.9944"
   style="stop-color:#005B97"
   id="stop366" />
					</linearGradient>
					<polygon
   class="st21"
   points="99.3,325.5 143,281.8 143,325.5      "
   id="polygon369" />
				</g>
				<text
   transform="matrix(1 0 0 1 101.084 315.4692)"
   class="st0 st13 st22"
   id="text373"
   style="-inkscape-font-specification:'MS UI Gothic, Normal';font-family:'MS UI Gothic';font-weight:normal;font-style:normal;font-stretch:normal;font-variant:normal;font-size:17.68799973px;text-anchor:start;text-align:start;writing-mode:lr;font-variant-ligatures:normal;font-variant-caps:normal;font-variant-numeric:normal;font-feature-settings:normal;">P</text>

				<text
   transform="matrix(1 0 0 1 109.6836 324.0688)"
   class="st0 st13 st22"
   id="text375"
   style="-inkscape-font-specification:'MS UI Gothic, Normal';font-family:'MS UI Gothic';font-weight:normal;font-style:normal;font-stretch:normal;font-variant:normal;font-size:17.68799973px;text-anchor:start;text-align:start;writing-mode:lr;font-variant-ligatures:normal;font-variant-caps:normal;font-variant-numeric:normal;font-feature-settings:normal;">V</text>

				<g
   id="g393">
					<g
   id="g383">
						<g
   id="g381">
							<g
   id="g379">
								<polygon
   class="st0"
   points="103.1,288.6 105.8,297.8 112.2,291.8         "
   id="polygon377" />
							</g>
						</g>
					</g>
					<g
   id="g391">
						<g
   id="g389">
							<g
   id="g387">
								
									<rect
   x="110"
   y="293.5"
   transform="matrix(0.7268 -0.6868 0.6868 0.7268 -174.0401 158.3445)"
   class="st0"
   width="4.1"
   height="9"
   id="rect385" />
							</g>
						</g>
					</g>
				</g>
				<g
   id="g411">
					<g
   id="g401">
						<g
   id="g399">
							<g
   id="g397">
								<polygon
   class="st0"
   points="135.6,322.1 125.5,318.2 132.2,311.8         "
   id="polygon395" />
							</g>
						</g>
					</g>
					<g
   id="g409">
						<g
   id="g407">
							<g
   id="g405">
								
									<rect
   x="123.2"
   y="306.1"
   transform="matrix(0.7268 -0.6868 0.6868 0.7268 -179.5351 171.1431)"
   class="st0"
   width="4.3"
   height="10.4"
   id="rect403" />
							</g>
						</g>
					</g>
				</g>
			</g>
		</g>
	</g>
</g>
<g
   id="Layer_15">
	<g
   id="g487">
		<g
   id="g485">
			<g
   id="g443">
				<rect
   x="50.5"
   y="720.9"
   class="st20"
   width="38.1"
   height="38.1"
   id="rect420" />
				<linearGradient
   id="SVGID_2_"
   gradientUnits="userSpaceOnUse"
   x1="75.8253"
   y1="734.3933"
   x2="66.6063"
   y2="768.3004">
					<stop
   offset="0"
   style="stop-color:#CCE0F4"
   id="stop422" />
					<stop
   offset="7.748766e-02"
   style="stop-color:#C5DDF3"
   id="stop424" />
					<stop
   offset="0.1918"
   style="stop-color:#B1D5EF"
   id="stop426" />
					<stop
   offset="0.329"
   style="stop-color:#90C9EA"
   id="stop428" />
					<stop
   offset="0.4838"
   style="stop-color:#63B7E2"
   id="stop430" />
					<stop
   offset="0.6515"
   style="stop-color:#2AA1D9"
   id="stop432" />
					<stop
   offset="0.6829"
   style="stop-color:#1E9CD7"
   id="stop434" />
					<stop
   offset="0.8652"
   style="stop-color:#0075BE"
   id="stop436" />
					<stop
   offset="0.9944"
   style="stop-color:#005B97"
   id="stop438" />
				</linearGradient>
				<polygon
   class="st23"
   points="52,757.5 87.1,722.4 87.1,757.5     "
   id="polygon441" />
			</g>
			<text
   transform="matrix(1 0 0 1 53.3848 749.484)"
   class="st0 st13 st24"
   id="text445"
   style="-inkscape-font-specification:'MS UI Gothic, Normal';font-family:'MS UI Gothic';font-weight:normal;font-style:normal;font-stretch:normal;font-variant:normal;font-size:17.68799973px;text-anchor:start;text-align:start;writing-mode:lr;font-variant-ligatures:normal;font-variant-caps:normal;font-variant-numeric:normal;font-feature-settings:normal;">P</text>

			<text
   transform="matrix(1 0 0 1 60.3071 756.4059)"
   class="st0 st13 st24"
   id="text447"
   style="-inkscape-font-specification:'MS UI Gothic, Normal';font-family:'MS UI Gothic';font-weight:normal;font-style:normal;font-stretch:normal;font-variant:normal;font-size:17.68799973px;text-anchor:start;text-align:start;writing-mode:lr;font-variant-ligatures:normal;font-variant-caps:normal;font-variant-numeric:normal;font-feature-settings:normal;">V</text>

			<g
   id="g465">
				<g
   id="g455">
					<g
   id="g453">
						<g
   id="g451">
							<polygon
   class="st0"
   points="55,727.9 57.2,735.3 62.3,730.4        "
   id="polygon449" />
						</g>
					</g>
				</g>
				<g
   id="g463">
					<g
   id="g461">
						<g
   id="g459">
							
								<rect
   x="60.6"
   y="731.8"
   transform="matrix(0.7268 -0.6868 0.6868 0.7268 -488.0847 243.6074)"
   class="st0"
   width="3.3"
   height="7.2"
   id="rect457" />
						</g>
					</g>
				</g>
			</g>
			<g
   id="g483">
				<g
   id="g473">
					<g
   id="g471">
						<g
   id="g469">
							<polygon
   class="st0"
   points="81.2,754.9 73,751.7 78.4,746.5        "
   id="polygon467" />
						</g>
					</g>
				</g>
				<g
   id="g481">
					<g
   id="g479">
						<g
   id="g477">
							
								<rect
   x="71.2"
   y="741.9"
   transform="matrix(0.7268 -0.6868 0.6868 0.7268 -492.5203 253.9219)"
   class="st0"
   width="3.5"
   height="8.4"
   id="rect475" />
						</g>
					</g>
				</g>
			</g>
		</g>
	</g>
	<text
   transform="matrix(1 0 0 1 38 780)"
   class="st7 st15"
   id="text489"
   style="-inkscape-font-specification:'MS UI Gothic, Normal';font-family:'MS UI Gothic';font-weight:normal;font-style:normal;font-stretch:normal;font-variant:normal;font-size:17.68799973px;text-anchor:start;text-align:start;writing-mode:lr;font-variant-ligatures:normal;font-variant-caps:normal;font-variant-numeric:normal;font-feature-settings:normal;">NSX Edge</text>

</g>
<g
   id="L2_concentrator_bottom">
	<g
   id="g512">
		<path
   class="st14"
   d="M693,757h-18.5c-6.6,0-12-5.4-12-12v-15c0-6.6,5.4-12,12-12H693c6.6,0,12,5.4,12,12v15    C705,751.6,699.6,757,693,757z"
   id="path492" />
		<g
   id="g510">
			<rect
   x="671.9"
   y="727.4"
   class="st0"
   width="23.6"
   height="12.7"
   id="rect494" />
			<rect
   x="675.6"
   y="737.1"
   class="st0"
   width="16.2"
   height="6"
   id="rect496" />
			<rect
   x="675.6"
   y="731.9"
   class="st14"
   width="16.2"
   height="1.5"
   id="rect498" />
			<rect
   x="681.5"
   y="741.6"
   class="st0"
   width="4.4"
   height="10.4"
   id="rect500" />
			<rect
   x="674.2"
   y="722.9"
   class="st0"
   width="4.4"
   height="8.2"
   id="rect502" />
			<rect
   x="680.8"
   y="722.9"
   class="st0"
   width="2.2"
   height="3"
   id="rect504" />
			<rect
   x="684.5"
   y="722.9"
   class="st0"
   width="2.2"
   height="3"
   id="rect506" />
			<rect
   x="688.9"
   y="722.9"
   class="st0"
   width="4.4"
   height="8.2"
   id="rect508" />
		</g>
	</g>
	<text
   transform="matrix(1 0 0 1 624 780)"
   class="st7 st15"
   id="text514"
   style="-inkscape-font-specification:'MS UI Gothic, Normal';font-family:'MS UI Gothic';font-weight:normal;font-style:normal;font-stretch:normal;font-variant:normal;font-size:17.68799973px;text-anchor:start;text-align:start;writing-mode:lr;font-variant-ligatures:normal;font-variant-caps:normal;font-variant-numeric:normal;font-feature-settings:normal;">L2 コンセントレーター</text>

</g>
<g
   id="g521">
			<rect
   x="164"
   y="722"
   class="st25"
   width="41.099998"
   height="37"
   id="rect517"
   style="fill:#2b6782" />
			<rect
   x="204.2"
   y="722"
   class="st26"
   width="89.800003"
   height="37"
   id="rect519"
   style="fill:#1e4c66" />
		</g><text
   class="st0 st7 st27"
   id="text523"
   style="font-style:normal;font-variant:normal;font-weight:normal;font-stretch:normal;font-size:17.68799973px;font-family:'MS UI Gothic';-inkscape-font-specification:'MS UI Gothic, Normal';font-variant-ligatures:normal;font-variant-caps:normal;font-variant-numeric:normal;font-feature-settings:normal;text-align:start;writing-mode:lr-tb;text-anchor:start;fill:#ffffff"
   x="170.2979"
   y="746.4043">VM</text>
<text
   class="st0 st7 st27"
   id="text525"
   style="font-style:normal;font-variant:normal;font-weight:normal;font-stretch:normal;font-size:16.43489075px;font-family:'MS UI Gothic';-inkscape-font-specification:'MS UI Gothic, Normal';font-variant-ligatures:normal;font-variant-caps:normal;font-variant-numeric:normal;font-feature-settings:normal;text-align:start;writing-mode:lr-tb;text-anchor:start;fill:#ffffff;stroke-width:0.92915487"
   x="225.05017"
   y="693.52521"
   transform="scale(0.92915487,1.0762468)">HCX クラウド</text>
<text
   style="font-style:normal;font-variant:normal;font-weight:normal;font-stretch:normal;font-size:17.68799973px;font-family:'MS UI Gothic';-inkscape-font-specification:'MS UI Gothic, Normal';font-variant-ligatures:normal;font-variant-caps:normal;font-variant-numeric:normal;font-feature-settings:normal;text-align:start;writing-mode:lr-tb;text-anchor:start"
   id="text529"
   class="st7 st15"
   x="176"
   y="780">HCX Manager</text>

<g
   id="VM_HCX">
	<g
   id="g544">
		<line
   class="st1"
   x1="212.5"
   y1="407.5"
   x2="212.5"
   y2="503.5"
   id="line532" />
		<g
   id="g538">
			<rect
   x="137"
   y="360.8"
   class="st25"
   width="48"
   height="47"
   id="rect534" />
			<rect
   x="184"
   y="360.8"
   class="st26"
   width="114"
   height="47"
   id="rect536" />
		</g>
		<text
   transform="matrix(1 0 0 1 145 391.75)"
   class="st0 st7 st8"
   id="text540"
   style="-inkscape-font-specification:'MS UI Gothic, Normal';font-family:'MS UI Gothic';font-weight:normal;font-style:normal;font-stretch:normal;font-variant:normal;font-size:17.68799973px;text-anchor:start;text-align:start;writing-mode:lr;font-variant-ligatures:normal;font-variant-caps:normal;font-variant-numeric:normal;font-feature-settings:normal;">VM</text>

		<text
   transform="matrix(1 0 0 1 189 391.75)"
   class="st0 st7 st8"
   id="text542"
   style="-inkscape-font-specification:'MS UI Gothic, Normal';font-family:'MS UI Gothic';font-weight:normal;font-style:normal;font-stretch:normal;font-variant:normal;font-size:17.68799973px;text-anchor:start;text-align:start;writing-mode:lr;font-variant-ligatures:normal;font-variant-caps:normal;font-variant-numeric:normal;font-feature-settings:normal;">HCX クラウド</text>

	</g>
</g>
</svg>
