<?xml version="1.0" encoding="utf-8"?>
<!-- Generator: Adobe Illustrator 19.0.0, SVG Export Plug-In . SVG Version: 6.00 Build 0)  -->
<svg version="1.1" xmlns="http://www.w3.org/2000/svg" xmlns:xlink="http://www.w3.org/1999/xlink" x="0px" y="0px"
	 viewBox="0 0 779 794" style="enable-background:new 0 0 779 794;" xml:space="preserve">
<style type="text/css">
	.st0{fill:#FFFFFF;}
	.st1{fill:none;stroke:#000000;stroke-miterlimit:10;}
	.st2{fill:none;stroke:#000000;stroke-miterlimit:10;stroke-dasharray:8.0549,8.0549;}
	.st3{fill:none;stroke:#000000;stroke-miterlimit:10;stroke-dasharray:8.052,8.052;}
	.st4{fill:#AADFF2;}
	.st5{fill:none;stroke:#000000;stroke-miterlimit:10;stroke-dasharray:8.0706,8.0706;}
	.st6{fill:none;stroke:#000000;stroke-miterlimit:10;stroke-dasharray:8.1177,8.1177;}
	.st7{fill:#E1E5BA;}
	.st8{fill:none;stroke:#000000;stroke-miterlimit:10;stroke-dasharray:8.1429,8.1429;}
	.st9{fill:#FFFFFF;stroke:#000000;stroke-width:3;stroke-miterlimit:10;}
	.st10{font-family:'ArialMT';}
	.st11{font-size:21px;}
	.st12{fill:#FF7BAC;}
	.st13{fill:#29ABE2;}
	.st14{font-family:'MS-Gothic';}
	.st15{font-size:14px;}
	.st16{fill:#EF7C26;}
	.st17{fill:#C491F2;stroke:#000000;stroke-miterlimit:10;}
	.st18{fill:#FFFFFF;stroke:#000000;stroke-miterlimit:10;}
	.st19{fill:#F4BA51;}
	.st20{fill:#169ADB;stroke:#9BCCDD;stroke-width:0.5;stroke-miterlimit:10;}
	.st21{fill:url(#SVGID_1_);}
	.st22{font-size:11.4646px;}
	.st23{fill:url(#SVGID_2_);}
	.st24{font-size:9.2282px;}
	.st25{fill:#2B6782;}
	.st26{fill:#1E4C66;}
	.st27{font-size:16.5319px;}
</style>
<g id="Outter_dash_rectangle">
	<g>
		<rect x="21.5" y="64" class="st0" width="741" height="628"/>
		<g>
			<polyline class="st1" points="762.5,688 762.5,692 758.5,692 			"/>
			<line class="st2" x1="750.4" y1="692" x2="29.5" y2="692"/>
			<polyline class="st1" points="25.5,692 21.5,692 21.5,688 			"/>
			<line class="st3" x1="21.5" y1="679.9" x2="21.5" y2="72"/>
			<polyline class="st1" points="21.5,68 21.5,64 25.5,64 			"/>
			<line class="st2" x1="33.6" y1="64" x2="754.5" y2="64"/>
			<polyline class="st1" points="758.5,64 762.5,64 762.5,68 			"/>
			<line class="st3" x1="762.5" y1="76.1" x2="762.5" y2="684"/>
		</g>
	</g>
</g>
<g id="Public_address_space_rectangle">
	<g>
		<rect x="45.5" y="94.5" class="st4" width="694" height="146"/>
		<g>
			<polyline class="st1" points="739.5,236.5 739.5,240.5 735.5,240.5 			"/>
			<line class="st5" x1="727.4" y1="240.5" x2="53.5" y2="240.5"/>
			<polyline class="st1" points="49.5,240.5 45.5,240.5 45.5,236.5 			"/>
			<line class="st6" x1="45.5" y1="228.4" x2="45.5" y2="102.6"/>
			<polyline class="st1" points="45.5,98.5 45.5,94.5 49.5,94.5 			"/>
			<line class="st5" x1="57.6" y1="94.5" x2="731.5" y2="94.5"/>
			<polyline class="st1" points="735.5,94.5 739.5,94.5 739.5,98.5 			"/>
			<line class="st6" x1="739.5" y1="106.6" x2="739.5" y2="232.4"/>
		</g>
	</g>
	<g>
		<path d="M403.9,215.1c0.4,0.3,0.4,0.5-0.2,0.7c-1,3.4-2.6,6.6-4.8,9.4l-1.9-1.2c2.4-2.9,4-6.2,4.8-9.8L403.9,215.1z M410.1,213.2
			c2.7,3.4,4.7,7.1,5.8,10.9l-2.2,0.7c-1.4-4.3-3.1-7.8-5.3-10.3L410.1,213.2z M411.8,213c-0.4-0.4-0.7-1-0.7-1.6s0.2-1.2,0.7-1.6
			c0.4-0.4,1-0.7,1.6-0.7s1.2,0.2,1.6,0.7c0.4,0.4,0.7,1,0.7,1.6s-0.2,1.2-0.7,1.6c-0.4,0.4-1,0.7-1.6,0.7S412.2,213.4,411.8,213z
			 M414.5,212.4c0.3-0.3,0.4-0.6,0.4-1.1c0-0.4-0.1-0.8-0.4-1.1c-0.3-0.3-0.6-0.4-1.1-0.4c-0.4,0-0.8,0.1-1.1,0.4
			c-0.3,0.3-0.4,0.6-0.4,1.1c0,0.4,0.1,0.8,0.4,1.1c0.3,0.3,0.6,0.4,1.1,0.4C413.8,212.8,414.2,212.7,414.5,212.4z"/>
		<path d="M420.5,213.8V212h12.4l1.2-0.2l0.9,0.8c-0.2,7.2-4,11.9-11.5,13.9l-1.5-1.8c6.8-1.5,10.4-5.2,10.7-10.9H420.5z
			 M433.4,211.7c-0.7-0.8-1.4-1.4-2.1-2.1l1-1c0.8,0.6,1.5,1.3,2.2,2.1L433.4,211.7z M436.4,211.5c-0.9-1-1.7-1.8-2.5-2.5l1-0.8
			c0.9,0.7,1.7,1.4,2.5,2.4L436.4,211.5z"/>
		<path d="M445.1,220.6h-1.9v-9.3h1.8c0.5,0.1,0.6,0.3,0.1,0.7V220.6z M453.6,218.8c0,4.1-1.9,7.1-5.7,8.9l-1.6-1.4
			c3.6-1.6,5.4-4.2,5.5-7.5v-8.2h1.7c0.5,0.1,0.6,0.3,0.2,0.7V218.8z"/>
		<path d="M463,216.3l1.6-0.8c0.8,1,1.4,2.3,2.1,3.8l-1.6,0.9C464.4,218.6,463.7,217.4,463,216.3z M473.3,223.7
			c-1.6,1.6-3.7,2.8-6.2,3.8l-1.1-1.6c2.5-0.8,4.5-1.9,5.9-3.4c1.5-1.5,2.4-4.1,2.6-7.8l1.7,0.6c0.5,0.2,0.5,0.4,0,0.7
			C475.8,219.5,474.9,222.1,473.3,223.7z M467.3,215.3l1.6-0.8c0.8,1,1.5,2.3,2.1,3.7l-1.7,0.8C468.6,217.5,467.9,216.2,467.3,215.3
			z"/>
		<path d="M486.2,227.6l-1.5-1.6c5.4-2.2,8.6-6,9.7-11.3h-6.6c-1.3,2.1-2.6,3.7-3.9,5l-1.6-1.1c2.8-2.6,4.7-5.6,5.5-9l1.9,0.7
			c0.3,0.2,0.3,0.3-0.2,0.5c-0.2,0.7-0.5,1.4-0.9,2.1h5.9l0.7-0.4l1.5,1.5c0.4,0.4,0.3,0.7-0.2,0.8C495.4,220.7,492,225,486.2,227.6
			z"/>
		<path d="M519.1,216.6v3.5h-3.5v-3.5H519.1z"/>
		<path d="M539,217.6c0.1,4.2-1.7,7.4-5.3,9.7l-1.4-1.6c3.2-1.7,4.8-4.2,4.8-7.4v-3.5h1.7c0.5,0.1,0.5,0.2,0.2,0.6V217.6
			c2-1.6,3.5-3,4.5-4.4l-13.4,0.5l-0.2-1.9l14.9-0.4l0.6-0.2l1.2,1.5c0.2,0.2,0,0.3-0.4,0.2c-1.6,2.1-3.6,4.1-5.9,6L539,217.6z"/>
		<path d="M565.7,221.2c-2.9-1.5-5.3-2.5-7.1-3v8.5h-1.9v-16.4h1.6c0.7,0.1,0.7,0.3,0.2,0.7v5.2c2.7,0.8,5.4,1.8,8.1,3.1
			L565.7,221.2z M565.5,213.9c-0.9-1.1-1.9-2.1-2.8-2.8l1.1-0.8c0.9,0.7,1.9,1.6,2.8,2.8L565.5,213.9z M567.5,212.4
			c-0.7-0.9-1.6-1.8-2.7-2.7l1.1-0.8c0.9,0.7,1.8,1.6,2.7,2.7L567.5,212.4z"/>
		<path d="M577.1,224.1c5-0.9,8.7-3.5,11-7.6l1.4,1.4c-2.6,4.6-7,7.4-13.1,8.4l-1.3-1l0.2-0.5v-13.6h1.8c0.5,0.1,0.5,0.2,0.1,0.6
			V224.1z"/>
		<path d="M609.6,224.8l-1.6,1.4c-2.3-2.4-4.5-4.4-6.6-6.1c-2.1,2.3-4.6,4.3-7.3,6.2l-1.6-1.4c5.8-3.8,9.5-7.5,11.2-11.3l-8.9,0.6
			l-0.2-2l9.5-0.4l1-0.2l1.3,1.3c0.4,0.4,0.3,0.6-0.3,0.7c-1,1.8-2.1,3.5-3.3,5C605,220.3,607.3,222.4,609.6,224.8z"/>
		<path d="M624.1,216.6v3.5h-3.5v-3.5H624.1z"/>
		<path d="M651.6,224.8l-1.6,1.4c-2.3-2.4-4.5-4.4-6.6-6.1c-2.1,2.3-4.6,4.3-7.3,6.2l-1.6-1.4c5.8-3.8,9.5-7.5,11.2-11.3l-8.9,0.6
			l-0.2-2l9.5-0.4l1-0.2l1.3,1.3c0.4,0.4,0.3,0.6-0.3,0.7c-1,1.8-2.1,3.5-3.3,5C647,220.3,649.3,222.4,651.6,224.8z"/>
		<path d="M673.5,222l-1.8,1.6c-2.8-2.6-5.5-5.1-8-7.4c-0.5-0.4-0.8-0.7-1-0.7c-0.3,0-0.6,0.2-1,0.7c-1.6,1.9-3.1,3.6-4.6,5.2
			l-1.6-1.8c2.1-2.1,4.2-4,6.1-5.9c0.3-0.3,0.7-0.5,1.1-0.5c0.4,0,0.8,0.1,1.1,0.4C666.4,215.9,669.6,218.6,673.5,222z M667.9,213.7
			c-0.4-0.4-0.7-1-0.7-1.6s0.2-1.2,0.7-1.6c0.4-0.4,1-0.7,1.6-0.7s1.2,0.2,1.6,0.7c0.4,0.4,0.7,1,0.7,1.6s-0.2,1.2-0.7,1.6
			c-0.4,0.4-1,0.7-1.6,0.7S668.3,214.1,667.9,213.7z M670.6,213.1c0.3-0.3,0.4-0.6,0.4-1.1c0-0.4-0.1-0.8-0.4-1.1
			c-0.3-0.3-0.6-0.4-1.1-0.4c-0.4,0-0.8,0.1-1.1,0.4c-0.3,0.3-0.4,0.6-0.4,1.1c0,0.4,0.1,0.8,0.4,1.1c0.3,0.3,0.6,0.4,1.1,0.4
			C669.9,213.5,670.3,213.4,670.6,213.1z"/>
		<path d="M676.1,219.3v-1.8h18.3v1.8H676.1z"/>
		<path d="M714.6,224.8l-1.6,1.4c-2.3-2.4-4.5-4.4-6.6-6.1c-2.1,2.3-4.6,4.3-7.3,6.2l-1.6-1.4c5.8-3.8,9.5-7.5,11.2-11.3l-8.9,0.6
			l-0.2-2l9.5-0.4l1-0.2l1.3,1.3c0.4,0.4,0.3,0.6-0.3,0.7c-1,1.8-2.1,3.5-3.3,5C710,220.3,712.3,222.4,714.6,224.8z"/>
	</g>
</g>
<g id="Private_address_space_rectangle">
	<g>
		<rect x="46.5" y="251.5" class="st7" width="694" height="407"/>
		<g>
			<polyline class="st1" points="740.5,654.5 740.5,658.5 736.5,658.5 			"/>
			<line class="st5" x1="728.4" y1="658.5" x2="54.5" y2="658.5"/>
			<polyline class="st1" points="50.5,658.5 46.5,658.5 46.5,654.5 			"/>
			<line class="st8" x1="46.5" y1="646.4" x2="46.5" y2="259.6"/>
			<polyline class="st1" points="46.5,255.5 46.5,251.5 50.5,251.5 			"/>
			<line class="st5" x1="58.6" y1="251.5" x2="732.5" y2="251.5"/>
			<polyline class="st1" points="736.5,251.5 740.5,251.5 740.5,255.5 			"/>
			<line class="st8" x1="740.5" y1="263.6" x2="740.5" y2="650.4"/>
		</g>
	</g>
	<g>
		<path d="M396.5,630.8V629h12.1l2.1,1.6c-0.3,6.6-4,10.9-11.2,13l-1.5-1.8c6.8-1.6,10.4-5.2,10.7-10.9H396.5z M409.6,629.1
			c-0.4-0.4-0.7-1-0.7-1.6s0.2-1.2,0.7-1.6c0.4-0.4,1-0.7,1.6-0.7s1.2,0.2,1.6,0.7c0.4,0.4,0.7,1,0.7,1.6s-0.2,1.2-0.7,1.6
			c-0.4,0.4-1,0.7-1.6,0.7S410,629.5,409.6,629.1z M412.3,628.5c0.3-0.3,0.4-0.6,0.4-1.1c0-0.4-0.1-0.8-0.4-1.1
			c-0.3-0.3-0.6-0.4-1.1-0.4c-0.4,0-0.8,0.1-1.1,0.4c-0.3,0.3-0.4,0.6-0.4,1.1c0,0.4,0.1,0.8,0.4,1.1c0.3,0.3,0.6,0.4,1.1,0.4
			C411.6,628.9,412,628.8,412.3,628.5z"/>
		<path d="M420.5,643.1c5.3-1.4,8.3-4.2,8.9-8.6H417v-1.8h12.6l0.7-0.2l1.5,0.9c0.3,0.3,0.3,0.5-0.2,0.7c-0.9,5.5-4.1,9-9.6,10.7
			L420.5,643.1z M429.8,629.8h-11.3V628h11.3V629.8z"/>
		<path d="M437.1,637c5.7-2.4,10.1-5.8,13-10.2l1.6,1.3c0.4,0.3,0.2,0.6-0.6,0.7c-1,1.4-2.4,2.8-4,4.2v11.2h-1.9v-9.6
			c-1.9,1.5-4.2,2.8-6.7,4L437.1,637z"/>
		<path d="M475.7,639l-1.8,1.6c-2.8-2.6-5.5-5.1-8-7.4c-0.5-0.4-0.8-0.7-1-0.7c-0.3,0-0.6,0.2-1,0.7c-1.6,1.9-3.1,3.6-4.6,5.2
			l-1.6-1.8c2.1-2.1,4.2-4,6.1-5.9c0.3-0.3,0.7-0.5,1.1-0.5c0.4,0,0.8,0.1,1.1,0.4C468.6,632.9,471.8,635.6,475.7,639z M469.3,628.2
			c0.9,0.7,1.8,1.6,2.8,2.6l-1,1c-1.1-1.1-2-1.9-2.8-2.5L469.3,628.2z M474,629l-1,1c-1-1.1-1.9-2-2.7-2.6l1-1
			C472.2,627.1,473.1,627.9,474,629z"/>
		<path d="M478.3,636.3v-1.8h18.3v1.8H478.3z"/>
		<path d="M516,636.3l-1,1.9c-2.9-1.5-5.3-2.5-7.1-3v8.5H506v-16.4h1.6c0.7,0.1,0.7,0.3,0.2,0.7v5.2
			C510.5,633.9,513.2,635,516,636.3z"/>
		<path d="M531.2,633.6v3.5h-3.5v-3.5H531.2z"/>
		<path d="M551.2,634.6c0.1,4.2-1.7,7.4-5.3,9.7l-1.4-1.6c3.2-1.8,4.8-4.2,4.8-7.4v-3.5h1.7c0.5,0.1,0.5,0.2,0.2,0.6V634.6
			c2-1.6,3.5-3,4.5-4.4l-13.4,0.5l-0.2-1.9l14.9-0.4l0.6-0.2l1.2,1.5c0.2,0.2,0,0.3-0.4,0.2c-1.6,2.1-3.6,4.1-5.9,6L551.2,634.6z"/>
		<path d="M577.8,638.2c-2.9-1.5-5.3-2.5-7.1-3v8.5h-1.9v-16.4h1.6c0.7,0.1,0.7,0.3,0.2,0.7v5.2c2.7,0.8,5.4,1.8,8.1,3.1
			L577.8,638.2z M577.7,630.9c-0.9-1.1-1.9-2.1-2.8-2.8l1.1-0.8c0.9,0.7,1.9,1.6,2.8,2.8L577.7,630.9z M579.6,629.4
			c-0.7-0.9-1.6-1.8-2.7-2.7l1.1-0.8c0.9,0.7,1.8,1.6,2.7,2.7L579.6,629.4z"/>
		<path d="M589.2,641.1c5-0.9,8.7-3.5,11-7.6l1.4,1.4c-2.6,4.6-7,7.4-13.1,8.4l-1.3-1l0.2-0.5v-13.6h1.8c0.5,0.1,0.5,0.2,0.1,0.6
			V641.1z"/>
		<path d="M621.8,641.8l-1.6,1.4c-2.3-2.4-4.5-4.4-6.6-6.1c-2.1,2.3-4.6,4.3-7.3,6.2l-1.6-1.4c5.8-3.8,9.5-7.5,11.2-11.3l-8.9,0.6
			l-0.2-2l9.5-0.4l1-0.2l1.3,1.3c0.4,0.4,0.3,0.6-0.3,0.7c-1,1.8-2.1,3.5-3.3,5C617.2,637.3,619.5,639.4,621.8,641.8z"/>
		<path d="M636.2,633.6v3.5h-3.5v-3.5H636.2z"/>
		<path d="M663.8,641.8l-1.6,1.4c-2.3-2.4-4.5-4.4-6.6-6.1c-2.1,2.3-4.6,4.3-7.3,6.2l-1.6-1.4c5.8-3.8,9.5-7.5,11.2-11.3l-8.9,0.6
			l-0.2-2l9.5-0.4l1-0.2l1.3,1.3c0.4,0.4,0.3,0.6-0.3,0.7c-1,1.8-2.1,3.5-3.3,5C659.2,637.3,661.5,639.4,663.8,641.8z"/>
		<path d="M685.7,639l-1.8,1.6c-2.8-2.6-5.5-5.1-8-7.4c-0.5-0.4-0.8-0.7-1-0.7c-0.3,0-0.6,0.2-1,0.7c-1.6,1.9-3.1,3.6-4.6,5.2
			l-1.6-1.8c2.1-2.1,4.2-4,6.1-5.9c0.3-0.3,0.7-0.5,1.1-0.5c0.4,0,0.8,0.1,1.1,0.4C678.6,632.9,681.8,635.6,685.7,639z M680,630.7
			c-0.4-0.4-0.7-1-0.7-1.6s0.2-1.2,0.7-1.6c0.4-0.4,1-0.7,1.6-0.7s1.2,0.2,1.6,0.7c0.4,0.4,0.7,1,0.7,1.6s-0.2,1.2-0.7,1.6
			c-0.4,0.4-1,0.7-1.6,0.7S680.5,631.1,680,630.7z M682.7,630.1c0.3-0.3,0.4-0.6,0.4-1.1c0-0.4-0.1-0.8-0.4-1.1
			c-0.3-0.3-0.6-0.4-1.1-0.4c-0.4,0-0.8,0.1-1.1,0.4c-0.3,0.3-0.4,0.6-0.4,1.1c0,0.4,0.1,0.8,0.4,1.1c0.3,0.3,0.6,0.4,1.1,0.4
			C682.1,630.5,682.5,630.4,682.7,630.1z"/>
		<path d="M688.3,636.3v-1.8h18.3v1.8H688.3z"/>
		<path d="M726.8,641.8l-1.6,1.4c-2.3-2.4-4.5-4.4-6.6-6.1c-2.1,2.3-4.6,4.3-7.3,6.2l-1.6-1.4c5.8-3.8,9.5-7.5,11.2-11.3l-8.9,0.6
			l-0.2-2l9.5-0.4l1-0.2l1.3,1.3c0.4,0.4,0.3,0.6-0.3,0.7c-1,1.8-2.1,3.5-3.3,5C722.2,637.3,724.5,639.4,726.8,641.8z"/>
	</g>
</g>
<g id="ibm_cloud">
	<g>
		<path class="st9" d="M155.2,59.9c0-11.4-13.4-20.6-29.9-20.6c-1.6,0-3.2,0.1-4.7,0.3c-1-2.2-2.6-4.2-4.6-5.8
			c-4.7-3.8-10.8-4.5-15.7-2.3C97.5,16.9,86,6,72.2,6C57.8,6,46,17.8,43.8,33.2c-0.1,0-0.2,0-0.4,0c-11.6,0-21,10.6-21,23.7
			c0,10,5.5,18.5,13.2,22v0.9h2.4c1.7,0.5,3.5,0.8,5.3,0.8c1.8,0,3.6-0.3,5.3-0.8h68.4c2.6,0.5,5.3,0.8,8.1,0.8
			c2.8,0,5.5-0.3,8.1-0.8h2.4v-0.5C147.1,76.3,155.2,68.8,155.2,59.9z"/>
		<text transform="matrix(1 0 0 1 35 62)" class="st10 st11">IBM Cloud</text>
	</g>
</g>
<g id="lines">
</g>
<g id="pubic_VLAN_native">
	<g>
		<g>
			<g>
				<path class="st12" d="M102.3,190.5L102.3,190.5l-0.4-0.1c-9.3-1.1-16.4-10.3-16.4-21.4s7-20.3,16.4-21.4l0.4-0.1v-0.1h583.6
					l0.2,0c9.2,0.4,16.4,9.8,16.4,21.5s-7.2,21.1-16.4,21.5l-0.4,0H102.3z"/>
				<path d="M685.7,148l0.4,0c8.9,0.4,15.9,9.6,15.9,21s-7,20.6-15.9,21l-0.3,0h-583l-0.9-0.1c-9.1-1-15.9-10-15.9-20.9
					s6.9-19.9,15.9-20.9l0.9-0.1H685.7 M686.2,147H101.8v0.1C92.4,148.2,85,157.6,85,169c0,11.4,7.4,20.8,16.8,21.9v0.1h584.3v0
					c9.3-0.4,16.8-10.1,16.8-22C703,157.1,695.5,147.4,686.2,147L686.2,147L686.2,147z"/>
			</g>
			<g>
				<path class="st0" d="M684.4,186.9c-6.7,0-12.1-8.2-12.1-18.4c0-10.1,5.4-18.4,12.1-18.4s12.1,8.2,12.1,18.4
					C696.5,178.7,691,186.9,684.4,186.9z"/>
				<path d="M684.4,150.7c6.4,0,11.6,8,11.6,17.9c0,9.8-5.2,17.9-11.6,17.9s-11.6-8-11.6-17.9C672.7,158.7,678,150.7,684.4,150.7
					 M684.4,149.7c-7,0-12.6,8.4-12.6,18.9c0,10.4,5.7,18.9,12.6,18.9c7,0,12.6-8.4,12.6-18.9C697,158.1,691.3,149.7,684.4,149.7
					L684.4,149.7z"/>
			</g>
		</g>
	</g>
	<g>
		<path d="M246.6,164.8c0.4,0.3,0.4,0.5-0.2,0.7c-1,3.4-2.6,6.6-4.8,9.4l-1.9-1.2c2.4-2.9,4-6.2,4.8-9.8L246.6,164.8z M252.9,163
			c2.7,3.4,4.7,7.1,5.8,10.9l-2.2,0.7c-1.4-4.3-3.1-7.8-5.3-10.3L252.9,163z M254.5,162.7c-0.4-0.4-0.7-1-0.7-1.6s0.2-1.2,0.7-1.6
			c0.4-0.4,1-0.7,1.6-0.7s1.2,0.2,1.6,0.7c0.4,0.4,0.7,1,0.7,1.6s-0.2,1.2-0.7,1.6c-0.4,0.4-1,0.7-1.6,0.7S254.9,163.1,254.5,162.7z
			 M257.2,162.1c0.3-0.3,0.4-0.6,0.4-1.1c0-0.4-0.1-0.8-0.4-1.1c-0.3-0.3-0.6-0.4-1.1-0.4c-0.4,0-0.8,0.1-1.1,0.4
			c-0.3,0.3-0.4,0.6-0.4,1.1c0,0.4,0.1,0.8,0.4,1.1c0.3,0.3,0.6,0.4,1.1,0.4C256.6,162.5,256.9,162.4,257.2,162.1z"/>
		<path d="M263.3,163.5v-1.8h12.4l1.2-0.2l0.9,0.8c-0.2,7.2-4,11.9-11.5,13.9l-1.5-1.8c6.8-1.5,10.4-5.2,10.7-10.9H263.3z
			 M276.2,161.5c-0.7-0.8-1.4-1.4-2.1-2.1l1-1c0.8,0.6,1.5,1.3,2.2,2.1L276.2,161.5z M279.1,161.2c-0.9-1-1.7-1.8-2.5-2.5l1-0.8
			c0.9,0.7,1.7,1.4,2.5,2.4L279.1,161.2z"/>
		<path d="M287.9,170.3H286v-9.3h1.8c0.5,0.1,0.6,0.3,0.1,0.7V170.3z M296.3,168.5c0,4.1-1.9,7.1-5.7,8.9L289,176
			c3.6-1.6,5.4-4.2,5.5-7.5v-8.2h1.7c0.5,0.1,0.6,0.3,0.2,0.7V168.5z"/>
		<path d="M305.8,166.1l1.6-0.8c0.8,1,1.4,2.3,2.1,3.8l-1.6,0.9C307.2,168.4,306.5,167.1,305.8,166.1z M316,173.5
			c-1.6,1.6-3.7,2.8-6.2,3.8l-1.1-1.6c2.5-0.8,4.5-1.9,5.9-3.4c1.5-1.5,2.4-4.1,2.6-7.8l1.7,0.6c0.5,0.2,0.5,0.4,0,0.7
			C318.6,169.3,317.6,171.9,316,173.5z M310,165l1.6-0.8c0.8,1,1.5,2.3,2.1,3.7l-1.7,0.8C311.3,167.2,310.7,166,310,165z"/>
		<path d="M329,177.3l-1.5-1.6c5.4-2.2,8.6-6,9.7-11.3h-6.6c-1.3,2.1-2.6,3.7-3.9,5l-1.6-1.1c2.8-2.6,4.7-5.6,5.5-9l1.9,0.7
			c0.3,0.2,0.3,0.3-0.2,0.5c-0.2,0.7-0.5,1.4-0.9,2.1h5.9l0.7-0.4l1.5,1.5c0.4,0.4,0.3,0.7-0.2,0.8
			C338.2,170.5,334.8,174.7,329,177.3z"/>
		<path d="M355.5,175.8l-5.8-15h2.2l3.9,10.9c0.3,0.9,0.6,1.7,0.8,2.5c0.2-0.8,0.5-1.6,0.8-2.5l4.1-10.9h2l-5.9,15H355.5z"/>
		<path d="M365.1,175.8v-15h2V174h7.4v1.8H365.1z"/>
		<path d="M375.2,175.8l5.8-15h2.1l6.2,15H387l-1.8-4.6H379l-1.7,4.6H375.2z M379.6,169.6h5.1l-1.6-4.2c-0.5-1.3-0.8-2.3-1.1-3.1
			c-0.2,1-0.5,1.9-0.8,2.9L379.6,169.6z"/>
		<path d="M390.9,175.8v-15h2l7.9,11.8v-11.8h1.9v15h-2l-7.9-11.8v11.8H390.9z"/>
		<path d="M415.2,180.2c-1-1.3-1.9-2.8-2.6-4.5c-0.7-1.7-1.1-3.5-1.1-5.4c0-1.6,0.3-3.2,0.8-4.7c0.6-1.7,1.6-3.5,2.9-5.2h1.3
			c-0.8,1.4-1.4,2.4-1.6,3c-0.4,0.9-0.7,1.9-1,3c-0.3,1.3-0.4,2.6-0.4,3.9c0,3.3,1,6.6,3.1,9.9H415.2z"/>
		<path d="M431.9,162.6l0.5-0.2l0.9,1.2c0.2,0.4,0.1,0.6-0.3,0.6c-1.1,1.2-2.7,2.5-4.5,4v8.6h-1.9v-7.3c-1.8,1.2-3.8,2.3-6.1,3.3
			l-1.4-1.5c4.5-1.7,8.3-4,11.2-7l-9.3,0.4l-0.2-1.8l5.8-0.2v-3.7h1.6c0.5,0.1,0.6,0.3,0.2,0.7v3L431.9,162.6z M430.1,169.3l1.2-1.6
			c2,1,3.7,2.2,5.2,3.5l-1.4,1.6C433.3,171.3,431.6,170.1,430.1,169.3z"/>
		<path d="M440.3,169.8c5.7-2.4,10.1-5.8,13-10.2l1.6,1.3c0.4,0.3,0.2,0.6-0.6,0.7c-1,1.4-2.4,2.8-4,4.2V177h-1.9v-9.6
			c-1.9,1.5-4.2,2.8-6.7,4L440.3,169.8z"/>
		<path d="M469.5,167.5h-8.2v-1.8h16.8v1.8h-6.7v1.1c0,3.4-1.2,6.3-3.7,8.5l-1.6-1.2c2.3-1.8,3.4-4.2,3.4-7.3V167.5z M464.3,162.5
			v-1.8h10.9v1.8H464.3z"/>
		<path d="M492.1,177.4h-1.6v-7.6c-1.2,0.9-3,2-5.4,3.2l-1.1-1.4c5.2-2.5,8.7-5.3,10.7-8.3l1.4,1.1c0.3,0.3,0.2,0.5-0.3,0.6
			c-0.9,1.1-2.1,2.3-3.5,3.5V177.4z"/>
		<path d="M504.8,163.5v-1.8h12.4l1.2-0.2l0.9,0.8c-0.2,7.2-4,11.9-11.5,13.9l-1.5-1.8c6.8-1.5,10.4-5.2,10.7-10.9H504.8z
			 M517.7,161.5c-0.7-0.8-1.4-1.4-2.1-2.1l1-1c0.8,0.6,1.5,1.3,2.2,2.1L517.7,161.5z M520.6,161.2c-0.9-1-1.7-1.8-2.5-2.5l1-0.8
			c0.9,0.7,1.7,1.4,2.5,2.4L520.6,161.2z"/>
		<path d="M524.9,180.2h-1.3c2-3.3,3.1-6.6,3.1-9.9c0-1.3-0.1-2.6-0.4-3.8c-0.2-1-0.6-2-1-3c-0.3-0.6-0.8-1.6-1.7-3.1h1.3
			c1.3,1.7,2.2,3.4,2.9,5.2c0.5,1.5,0.8,3,0.8,4.7c0,1.8-0.4,3.6-1.1,5.4C526.7,177.4,525.9,178.9,524.9,180.2z"/>
	</g>
</g>
<g id="security_lock_icon">
	<g>
		<line class="st1" x1="334.5" y1="190.5" x2="334.5" y2="565.5"/>
		<line class="st1" x1="319.5" y1="407.5" x2="319.5" y2="504.5"/>
		<line class="st1" x1="349.5" y1="407.5" x2="349.5" y2="438.5"/>
		<g>
			<path class="st13" d="M350,407.8h-30c-6.6,0-12-5.4-12-12v-25c0-6.6,5.4-12,12-12h30c6.6,0,12,5.4,12,12v25
				C362,402.4,356.6,407.8,350,407.8z"/>
			<g>
				<g>
					<path class="st0" d="M340.9,380.8h-10.9c-2.2,0-4.1-1.8-4.1-4.1v-5.9c0-2.2,1.8-4.1,4.1-4.1h10.9c2.2,0,4.1,1.8,4.1,4.1v5.9
						C345,378.9,343.2,380.8,340.9,380.8z"/>
					<path class="st13" d="M338.9,378.8h-6.9c-1.1,0-2.1-0.9-2.1-2.1v-4c0-1.1,0.9-2.1,2.1-2.1h6.9c1.1,0,2.1,0.9,2.1,2.1v4
						C341,377.8,340.1,378.8,338.9,378.8z"/>
					<path class="st0" d="M346.9,399.8h-22.9c-2.2,0-4.1-1.8-4.1-4.1v-13.9c0-2.2,1.8-4.1,4.1-4.1h22.9c2.2,0,4.1,1.8,4.1,4.1v13.9
						C351,397.9,349.2,399.8,346.9,399.8z"/>
				</g>
				<g>
					<ellipse class="st13" cx="336" cy="386.3" rx="4" ry="3.5"/>
					<path class="st13" d="M335.5,396.8L335.5,396.8c-0.8,0-1.5-0.7-1.5-1.5v-7c0-0.8,0.7-1.5,1.5-1.5l0,0c0.8,0,1.5,0.7,1.5,1.5v7
						C337,396.1,336.3,396.8,335.5,396.8z"/>
					<path class="st13" d="M338.5,391.8h-2c-0.3,0-0.5-0.2-0.5-0.5l0,0c0-0.3,0.2-0.5,0.5-0.5h2c0.3,0,0.5,0.2,0.5,0.5l0,0
						C339,391.5,338.8,391.8,338.5,391.8z"/>
					<path class="st13" d="M338.5,393.8h-2c-0.3,0-0.5-0.2-0.5-0.5l0,0c0-0.3,0.2-0.5,0.5-0.5h2c0.3,0,0.5,0.2,0.5,0.5l0,0
						C339,393.5,338.8,393.8,338.5,393.8z"/>
					<path class="st13" d="M338.5,395.8h-2c-0.3,0-0.5-0.2-0.5-0.5l0,0c0-0.3,0.2-0.5,0.5-0.5h2c0.3,0,0.5,0.2,0.5,0.5l0,0
						C339,395.5,338.8,395.8,338.5,395.8z"/>
				</g>
			</g>
		</g>
	</g>
</g>
<g id="security_lock_bottom">
	<g>
		<path class="st13" d="M383,759h-19.2c-6.6,0-12-5.4-12-12v-15.2c0-6.6,5.4-12,12-12H383c6.6,0,12,5.4,12,12V747
			C395,753.6,389.6,759,383,759z"/>
		<g>
			<g>
				<path class="st0" d="M377.3,737.4h-7.1c-2.2,0-4.1-1.8-4.1-4.1v-3.1c0-2.2,1.8-4.1,4.1-4.1h7.1c2.2,0,4.1,1.8,4.1,4.1v3.1
					C381.4,735.6,379.6,737.4,377.3,737.4z"/>
				<path class="st13" d="M376.1,735.8h-4.7c-1.1,0-2.1-0.9-2.1-2.1v-2.4c0-1.1,0.9-2.1,2.1-2.1h4.7c1.1,0,2.1,0.9,2.1,2.1v2.4
					C378.2,734.9,377.3,735.8,376.1,735.8z"/>
				<path class="st0" d="M382.1,752.6h-16.7c-2.2,0-4.1-1.8-4.1-4.1V739c0-2.2,1.8-4.1,4.1-4.1h16.7c2.2,0,4.1,1.8,4.1,4.1v9.5
					C386.2,750.8,384.4,752.6,382.1,752.6z"/>
			</g>
			<g>
				<ellipse class="st13" cx="374.2" cy="741.8" rx="3.2" ry="2.8"/>
				<path class="st13" d="M373.8,750.2L373.8,750.2c-0.7,0-1.2-0.5-1.2-1.2v-5.6c0-0.7,0.5-1.2,1.2-1.2h0c0.7,0,1.2,0.5,1.2,1.2v5.6
					C375,749.7,374.4,750.2,373.8,750.2z"/>
				<path class="st13" d="M376.2,746.2h-1.6c-0.2,0-0.4-0.2-0.4-0.4v0c0-0.2,0.2-0.4,0.4-0.4h1.6c0.2,0,0.4,0.2,0.4,0.4v0
					C376.6,746,376.4,746.2,376.2,746.2z"/>
				<path class="st13" d="M376.2,747.8h-1.6c-0.2,0-0.4-0.2-0.4-0.4v0c0-0.2,0.2-0.4,0.4-0.4h1.6c0.2,0,0.4,0.2,0.4,0.4v0
					C376.6,747.6,376.4,747.8,376.2,747.8z"/>
				<path class="st13" d="M376.2,749.4h-1.6c-0.2,0-0.4-0.2-0.4-0.4v0c0-0.2,0.2-0.4,0.4-0.4h1.6c0.2,0,0.4,0.2,0.4,0.4v0
					C376.6,749.2,376.4,749.4,376.2,749.4z"/>
			</g>
		</g>
	</g>
	<text transform="matrix(0.8417 0 0 1 310.1875 780)" class="st14 st15">クラウド・ゲートウェイ</text>
</g>
<g id="gear_bottom">
	<g>
		<path class="st13" d="M533,759h-21.8c-6.6,0-12-5.4-12-12v-17.5c0-6.6,5.4-12,12-12H533c6.6,0,12,5.4,12,12V747
			C545,753.6,539.6,759,533,759z"/>
		<g>
			<g>
				<g>
					<g>
						<g>
							<ellipse class="st0" cx="522" cy="738.1" rx="12.3" ry="11.9"/>
							<ellipse class="st13" cx="522" cy="738.1" rx="5.5" ry="5.3"/>
						</g>
						<rect x="518.3" y="723" class="st0" width="6.6" height="4.2"/>
						<rect x="519" y="748.4" class="st0" width="5.9" height="5.1"/>
					</g>
					<rect x="532.7" y="735.3" class="st0" width="5.1" height="5.9"/>
					<rect x="506.5" y="735.3" class="st0" width="5.1" height="5.9"/>
				</g>
				
					<rect x="509.3" y="726.2" transform="matrix(0.7526 0.6585 -0.6585 0.7526 606.7064 -156.8211)" class="st0" width="5.6" height="5.6"/>
				
					<rect x="528" y="744.9" transform="matrix(0.7526 0.6585 -0.6585 0.7526 623.8824 -165.1461)" class="st0" width="7.3" height="5.6"/>
			</g>
			
				<rect x="529.6" y="726.5" transform="matrix(0.7071 0.7071 -0.7071 0.7071 671.8127 -162.7813)" class="st0" width="5.5" height="6.1"/>
			
				<rect x="509.9" y="744.8" transform="matrix(0.7071 0.7071 -0.7071 0.7071 678.7737 -143.5796)" class="st0" width="5.5" height="5.5"/>
		</g>
	</g>
	<text transform="matrix(1 0 0 1 450 780)"><tspan x="0" y="0" class="st10 st15">WAN </tspan><tspan x="36.6" y="0" class="st14 st15">最適化プログラム</tspan></text>
</g>
<g id="gear_icon">
	<g>
		<line class="st1" x1="402.5" y1="407.5" x2="402.5" y2="437.5"/>
		<g>
			<path class="st13" d="M418.3,407.8h-30c-6.6,0-12-5.4-12-12v-25c0-6.6,5.4-12,12-12h30c6.6,0,12,5.4,12,12v25
				C430.3,402.4,424.9,407.8,418.3,407.8z"/>
			<g>
				<g>
					<g>
						<g>
							<g>
								<ellipse class="st0" cx="403.1" cy="383.1" rx="14.5" ry="14"/>
								<ellipse class="st13" cx="403.1" cy="383.1" rx="6.5" ry="6.3"/>
							</g>
							<rect x="398.8" y="365.3" class="st0" width="7.8" height="5"/>
							<rect x="399.6" y="395.3" class="st0" width="7" height="6"/>
						</g>
						<rect x="415.8" y="379.8" class="st0" width="6" height="7"/>
						<rect x="384.8" y="379.8" class="st0" width="6" height="7"/>
					</g>
					
						<rect x="388.1" y="369" transform="matrix(0.7526 0.6585 -0.6585 0.7526 341.9793 -165.5926)" class="st0" width="6.6" height="6.6"/>
					
						<rect x="410.2" y="391" transform="matrix(0.7526 0.6585 -0.6585 0.7526 362.2429 -175.4187)" class="st0" width="8.6" height="6.6"/>
				</g>
				
					<rect x="412.1" y="369.4" transform="matrix(0.7071 0.7071 -0.7071 0.7071 385.4124 -184.4679)" class="st0" width="6.5" height="7.2"/>
				
					<rect x="388.9" y="391" transform="matrix(0.7071 0.7071 -0.7071 0.7071 393.6287 -161.8037)" class="st0" width="6.5" height="6.5"/>
			</g>
		</g>
	</g>
</g>
<g id="L2_concentrator">
	<g>
		<line class="st1" x1="469.5" y1="408.5" x2="469.5" y2="437.5"/>
		<g>
			<path class="st13" d="M485.5,408.6h-30c-6.6,0-12-5.4-12-12v-25c0-6.6,5.4-12,12-12h30c6.6,0,12,5.4,12,12v25
				C497.5,403.2,492.1,408.6,485.5,408.6z"/>
			<g>
				<rect x="455.5" y="371.5" class="st0" width="30" height="15.9"/>
				<rect x="460.2" y="383.6" class="st0" width="20.6" height="7.5"/>
				<rect x="460.2" y="377.1" class="st13" width="20.6" height="1.9"/>
				<rect x="467.7" y="389.3" class="st0" width="5.6" height="13.1"/>
				<rect x="458.3" y="365.8" class="st0" width="5.6" height="10.3"/>
				<rect x="466.8" y="365.8" class="st0" width="2.8" height="3.8"/>
				<rect x="471.4" y="365.8" class="st0" width="2.8" height="3.8"/>
				<rect x="477.1" y="365.8" class="st0" width="5.6" height="10.3"/>
			</g>
		</g>
	</g>
</g>
<g id="vSAN_vMotion">
	<g id="Layer_7">
	</g>
	<g>
		<g>
			<path class="st16" d="M103.3,608.5L103.3,608.5l-0.4-0.1c-9.3-1-16.4-10-16.4-20.9s7-19.9,16.4-20.9l0.4,0v0h583.6l0.2,0
				c9.2,0.4,16.4,9.6,16.4,21s-7.2,20.6-16.4,21l-0.4,0H103.3z"/>
			<path d="M686.7,567l0.4,0c8.9,0.4,15.9,9.4,15.9,20.5s-7,20.1-15.9,20.5l-0.3,0h-583l-0.9-0.1c-9.1-1-15.9-9.8-15.9-20.4
				s6.9-19.4,15.9-20.4l0.9-0.1H686.7 M687.2,566H102.8v0.1c-9.4,1-16.8,10.2-16.8,21.4c0,11.2,7.4,20.4,16.8,21.4v0.1h584.3v0
				c9.3-0.4,16.8-9.9,16.8-21.5S696.5,566.4,687.2,566L687.2,566L687.2,566z"/>
		</g>
		<g>
			<path class="st0" d="M685.4,605c-6.7,0-12.1-8-12.1-17.9c0-9.9,5.4-17.9,12.1-17.9s12.1,8,12.1,17.9
				C697.5,596.9,692,605,685.4,605z"/>
			<path d="M685.4,569.6c6.4,0,11.6,7.8,11.6,17.4c0,9.6-5.2,17.4-11.6,17.4s-11.6-7.8-11.6-17.4C673.7,577.5,679,569.6,685.4,569.6
				 M685.4,568.6c-7,0-12.6,8.3-12.6,18.4s5.7,18.4,12.6,18.4c7,0,12.6-8.3,12.6-18.4S692.3,568.6,685.4,568.6L685.4,568.6z"/>
		</g>
	</g>
	<g>
		<path d="M265.8,596l-3.6-9.3h1.7l2,5.6c0.2,0.6,0.4,1.2,0.6,1.9c0.1-0.5,0.3-1.1,0.6-1.8l2.1-5.7h1.6l-3.5,9.3H265.8z"/>
		<path d="M271.8,591.9l1.6-0.1c0.1,0.6,0.3,1.2,0.5,1.6c0.3,0.4,0.7,0.7,1.3,1c0.6,0.3,1.2,0.4,2,0.4c0.7,0,1.2-0.1,1.7-0.3
			s0.9-0.5,1.1-0.8s0.4-0.7,0.4-1.1c0-0.4-0.1-0.8-0.4-1.1s-0.6-0.6-1.2-0.8c-0.3-0.1-1.1-0.3-2.3-0.6s-2-0.6-2.5-0.8
			c-0.6-0.3-1.1-0.7-1.4-1.2s-0.5-1-0.5-1.6c0-0.7,0.2-1.3,0.6-1.8s0.9-1,1.6-1.3s1.5-0.4,2.4-0.4c1,0,1.8,0.2,2.5,0.5
			c0.7,0.3,1.3,0.8,1.7,1.4s0.6,1.3,0.6,2l-1.6,0.1c-0.1-0.8-0.4-1.4-0.9-1.8s-1.3-0.6-2.2-0.6c-1,0-1.8,0.2-2.3,0.6
			c-0.5,0.4-0.7,0.8-0.7,1.4c0,0.5,0.2,0.8,0.5,1.1c0.3,0.3,1.2,0.6,2.6,0.9c1.4,0.3,2.3,0.6,2.9,0.8c0.8,0.3,1.3,0.8,1.7,1.3
			s0.5,1.1,0.5,1.8c0,0.7-0.2,1.3-0.6,1.9c-0.4,0.6-1,1.1-1.7,1.4c-0.7,0.3-1.6,0.5-2.5,0.5c-1.2,0-2.1-0.2-2.9-0.5
			s-1.4-0.9-1.9-1.5C272.1,593.5,271.8,592.7,271.8,591.9z"/>
		<path d="M283,596l4.9-12.9h1.8L295,596h-1.9l-1.5-3.9h-5.4l-1.4,3.9H283z M286.7,590.7h4.4l-1.3-3.6c-0.4-1.1-0.7-2-0.9-2.7
			c-0.2,0.8-0.4,1.6-0.7,2.5L286.7,590.7z"/>
		<path d="M296.4,596v-12.9h1.7l6.8,10.1v-10.1h1.6V596h-1.7l-6.8-10.1V596H296.4z"/>
		<path d="M321.6,594.5c-0.5,0.6-1.1,1-1.7,1.3c-0.6,0.3-1.3,0.4-2,0.4c-1.3,0-2.4-0.4-3.1-1.3c-0.6-0.7-0.9-1.5-0.9-2.4
			c0-0.8,0.3-1.5,0.8-2.2c0.5-0.6,1.3-1.2,2.3-1.7c-0.6-0.7-1-1.2-1.2-1.6s-0.3-0.8-0.3-1.2c0-0.8,0.3-1.4,0.9-2
			c0.6-0.6,1.4-0.9,2.3-0.9c0.9,0,1.6,0.3,2.2,0.8s0.8,1.2,0.8,1.9c0,1.2-0.8,2.3-2.4,3.1l2.3,2.9c0.3-0.5,0.5-1.1,0.6-1.8l1.6,0.4
			c-0.3,1.1-0.7,2.1-1.1,2.8c0.6,0.8,1.3,1.4,2,2l-1.1,1.3C322.9,595.9,322.2,595.3,321.6,594.5z M320.6,593.2l-2.9-3.6
			c-0.9,0.5-1.4,1-1.7,1.4s-0.4,0.9-0.4,1.3c0,0.5,0.2,1.1,0.6,1.6s1,0.8,1.8,0.8c0.5,0,1-0.1,1.5-0.4S320.3,593.7,320.6,593.2z
			 M318.3,587.8c0.7-0.4,1.1-0.8,1.3-1.1s0.3-0.6,0.3-1c0-0.4-0.1-0.8-0.4-1.1c-0.3-0.3-0.6-0.4-1-0.4c-0.4,0-0.8,0.1-1.1,0.4
			s-0.4,0.6-0.4,1c0,0.2,0.1,0.4,0.2,0.6c0.1,0.2,0.3,0.5,0.5,0.7L318.3,587.8z"/>
		<path d="M333.8,596l-3.6-9.3h1.7l2,5.6c0.2,0.6,0.4,1.2,0.6,1.9c0.1-0.5,0.3-1.1,0.6-1.8l2.1-5.7h1.6l-3.5,9.3H333.8z"/>
		<path d="M340.4,596v-12.9h2.6l3,9.1c0.3,0.8,0.5,1.5,0.6,1.9c0.1-0.5,0.4-1.2,0.7-2.1l3.1-9h2.3V596H351v-10.8l-3.7,10.8h-1.5
			l-3.7-11v11H340.4z"/>
		<path d="M354.6,591.3c0-1.7,0.5-3,1.4-3.8c0.8-0.7,1.8-1,2.9-1c1.3,0,2.3,0.4,3.1,1.3s1.2,2,1.2,3.5c0,1.2-0.2,2.1-0.5,2.8
			c-0.4,0.7-0.9,1.2-1.6,1.6c-0.7,0.4-1.4,0.6-2.3,0.6c-1.3,0-2.4-0.4-3.2-1.3S354.6,592.9,354.6,591.3z M356.2,591.3
			c0,1.2,0.3,2.1,0.8,2.7c0.5,0.6,1.2,0.9,2,0.9c0.8,0,1.4-0.3,2-0.9s0.8-1.5,0.8-2.7c0-1.2-0.3-2-0.8-2.6c-0.5-0.6-1.2-0.9-2-0.9
			c-0.8,0-1.4,0.3-2,0.9S356.2,590.1,356.2,591.3z"/>
		<path d="M368.7,594.6l0.2,1.4c-0.4,0.1-0.8,0.1-1.2,0.1c-0.6,0-1-0.1-1.3-0.3s-0.5-0.4-0.7-0.7s-0.2-0.9-0.2-1.9v-5.4h-1.2v-1.2
			h1.2v-2.3l1.6-0.9v3.3h1.6v1.2h-1.6v5.5c0,0.5,0,0.7,0.1,0.9c0.1,0.1,0.1,0.2,0.3,0.3c0.1,0.1,0.3,0.1,0.5,0.1
			C368.1,594.6,368.4,594.6,368.7,594.6z"/>
		<path d="M370.2,584.9v-1.8h1.6v1.8H370.2z M370.2,596v-9.3h1.6v9.3H370.2z"/>
		<path d="M373.6,591.3c0-1.7,0.5-3,1.4-3.8c0.8-0.7,1.8-1,2.9-1c1.3,0,2.3,0.4,3.1,1.3s1.2,2,1.2,3.5c0,1.2-0.2,2.1-0.5,2.8
			c-0.4,0.7-0.9,1.2-1.6,1.6c-0.7,0.4-1.4,0.6-2.3,0.6c-1.3,0-2.4-0.4-3.2-1.3C374,594.1,373.6,592.9,373.6,591.3z M375.2,591.3
			c0,1.2,0.3,2.1,0.8,2.7c0.5,0.6,1.2,0.9,2,0.9c0.8,0,1.4-0.3,2-0.9s0.8-1.5,0.8-2.7c0-1.2-0.3-2-0.8-2.6c-0.5-0.6-1.2-0.9-2-0.9
			c-0.8,0-1.4,0.3-2,0.9S375.2,590.1,375.2,591.3z"/>
		<path d="M384.2,596v-9.3h1.4v1.3c0.7-1,1.7-1.5,3-1.5c0.6,0,1.1,0.1,1.6,0.3c0.5,0.2,0.8,0.5,1.1,0.8s0.4,0.7,0.5,1.2
			c0.1,0.3,0.1,0.8,0.1,1.5v5.7h-1.6v-5.7c0-0.6-0.1-1.1-0.2-1.4s-0.3-0.6-0.7-0.8c-0.3-0.2-0.7-0.3-1.1-0.3c-0.7,0-1.3,0.2-1.7,0.6
			c-0.5,0.4-0.7,1.2-0.7,2.4v5.1H384.2z"/>
		<path d="M398.6,592.1v-1.6h4.9v1.6H398.6z"/>
		<path d="M404.6,592.1v-1.6h4.9v1.6H404.6z"/>
		<path d="M418.1,585.5V584h10.4l1.8,1.3c-0.2,5.7-3.4,9.4-9.6,11.1l-1.3-1.5c5.9-1.4,8.9-4.5,9.2-9.4H418.1z M429.2,584
			c-0.4-0.4-0.6-0.8-0.6-1.4s0.2-1,0.6-1.4c0.4-0.4,0.8-0.6,1.4-0.6s1,0.2,1.4,0.6c0.4,0.4,0.6,0.8,0.6,1.4s-0.2,1-0.6,1.4
			c-0.4,0.4-0.8,0.6-1.4,0.6S429.6,584.4,429.2,584z M431.6,583.6c0.2-0.2,0.4-0.5,0.4-0.9c0-0.4-0.1-0.7-0.4-0.9
			c-0.2-0.2-0.5-0.4-0.9-0.4c-0.4,0-0.7,0.1-0.9,0.4c-0.2,0.2-0.4,0.5-0.4,0.9c0,0.4,0.1,0.7,0.4,0.9c0.2,0.2,0.5,0.4,0.9,0.4
			C431,583.9,431.3,583.8,431.6,583.6z"/>
		<path d="M438.6,596.1c4.5-1.2,7.1-3.6,7.7-7.4h-10.7v-1.5h10.8l0.6-0.2l1.3,0.8c0.3,0.2,0.2,0.4-0.1,0.6c-0.8,4.7-3.5,7.7-8.2,9.1
			L438.6,596.1z M446.5,584.7h-9.7v-1.5h9.7V584.7z"/>
		<path d="M452.8,590.9c4.9-2.1,8.6-5,11.2-8.7l1.3,1.1c0.4,0.3,0.2,0.5-0.5,0.6c-0.9,1.2-2,2.4-3.4,3.6v9.6h-1.6v-8.2
			c-1.6,1.3-3.6,2.4-5.8,3.4L452.8,590.9z"/>
		<path d="M485.9,592.6l-1.5,1.4c-2.4-2.3-4.7-4.4-6.9-6.3c-0.4-0.4-0.7-0.6-0.8-0.6c-0.2,0-0.5,0.2-0.8,0.6
			c-1.4,1.6-2.7,3.1-3.9,4.4l-1.3-1.5c1.8-1.8,3.6-3.5,5.2-5.1c0.3-0.3,0.6-0.4,1-0.4c0.4,0,0.7,0.1,1,0.4
			C479.8,587.3,482.6,589.7,485.9,592.6z M480.4,583.3c0.7,0.6,1.5,1.4,2.4,2.3l-0.8,0.8c-0.9-0.9-1.7-1.7-2.4-2.2L480.4,583.3z
			 M484.4,584l-0.8,0.8c-0.9-1-1.7-1.7-2.3-2.3l0.8-0.8C482.9,582.3,483.7,583.1,484.4,584z"/>
		<path d="M488.2,590.2v-1.5h15.7v1.5H488.2z"/>
		<path d="M520.4,590.2l-0.8,1.6c-2.5-1.3-4.5-2.1-6.1-2.5v7.3h-1.6v-14.1h1.4c0.6,0,0.6,0.2,0.2,0.6v4.4
			C515.8,588.2,518.1,589.1,520.4,590.2z"/>
		<path d="M533.1,596l-5-12.9h1.8l3.3,9.4c0.3,0.8,0.5,1.5,0.7,2.1c0.2-0.7,0.4-1.4,0.7-2.1l3.5-9.4h1.7l-5,12.9H533.1z"/>
		<path d="M541.4,596v-12.9h1.7v11.4h6.3v1.5H541.4z"/>
		<path d="M550,596l4.9-12.9h1.8l5.3,12.9h-1.9l-1.5-3.9h-5.4l-1.4,3.9H550z M553.7,590.7h4.4l-1.3-3.6c-0.4-1.1-0.7-2-0.9-2.7
			c-0.2,0.8-0.4,1.6-0.7,2.5L553.7,590.7z"/>
		<path d="M563.4,596v-12.9h1.7l6.8,10.1v-10.1h1.6V596h-1.7l-6.8-10.1V596H563.4z"/>
		<path d="M581.4,596v-12.9h4.8c1,0,1.8,0.1,2.4,0.4c0.6,0.3,1.1,0.7,1.4,1.2s0.5,1.1,0.5,1.7c0,0.6-0.1,1.1-0.4,1.6
			s-0.8,0.9-1.4,1.2c0.8,0.2,1.4,0.6,1.8,1.2c0.4,0.6,0.6,1.2,0.6,2c0,0.6-0.1,1.2-0.4,1.7c-0.3,0.5-0.6,0.9-0.9,1.2
			s-0.8,0.5-1.4,0.6c-0.6,0.1-1.3,0.2-2.1,0.2H581.4z M583.1,588.5h2.8c0.8,0,1.3,0,1.6-0.1c0.4-0.1,0.8-0.3,1-0.6
			c0.2-0.3,0.3-0.7,0.3-1.1c0-0.4-0.1-0.8-0.3-1.1c-0.2-0.3-0.5-0.5-0.9-0.7s-1-0.2-2-0.2h-2.6V588.5z M583.1,594.5h3.2
			c0.6,0,0.9,0,1.2-0.1c0.4-0.1,0.7-0.2,1-0.4s0.5-0.4,0.7-0.7c0.2-0.3,0.3-0.7,0.3-1.1c0-0.5-0.1-0.9-0.4-1.3
			c-0.2-0.4-0.6-0.6-1-0.7c-0.4-0.1-1.1-0.2-1.9-0.2h-3V594.5z"/>
	</g>
</g>
<g id="Logical_swiitch">
	<g>
		<g>
			<g>
				<path class="st13" d="M311.5,480.5L311.5,480.5l-0.4-0.1c-6-1-10.6-10.2-10.6-20.9s4.7-19.9,10.6-20.9l0.4-0.1v0h382.2l0.2,0
					c5.8,0.4,10.6,9.8,10.6,21s-4.7,20.6-10.6,21l-0.3,0H311.5z"/>
				<path d="M693.6,439l0.3,0c5.6,0.4,10.1,9.5,10.1,20.5s-4.5,20.1-10.1,20.5l-0.2,0h-382l-0.5-0.1c-5.7-1-10.2-9.9-10.2-20.4
					s4.5-19.4,10.2-20.4l0.5-0.1H693.6 M694,438H311v0.1c-6.2,1-11,10.2-11,21.4c0,11.2,4.8,20.4,11,21.4v0.1H694v0
					c6.1-0.4,11-9.9,11-21.5S700.1,438.4,694,438L694,438L694,438z"/>
			</g>
			<g>
				<path class="st0" d="M688.2,477c-6.8,0-12.4-8-12.4-17.9c0-9.9,5.6-17.9,12.4-17.9c6.8,0,12.4,8,12.4,17.9
					C700.6,468.9,695,477,688.2,477z"/>
				<path d="M688.2,441.6c6.6,0,11.9,7.8,11.9,17.4c0,9.6-5.3,17.4-11.9,17.4c-6.6,0-11.9-7.8-11.9-17.4
					C676.3,449.5,681.6,441.6,688.2,441.6 M688.2,440.6c-7.1,0-12.9,8.3-12.9,18.4c0,10.2,5.8,18.4,12.9,18.4
					c7.1,0,12.9-8.3,12.9-18.4C701.1,448.9,695.3,440.6,688.2,440.6L688.2,440.6z"/>
			</g>
		</g>
	</g>
	<g>
		<path d="M351.1,455.3h5.8v1.3h-5.8V455.3z M356.1,468.3h-1.2v-0.5h-2.2v0.8h-1.2v-5.8h4.6V468.3z M351.9,452.8h3.9v1.3h-3.9V452.8
			z M351.9,457.7h3.9v1.3h-3.9V457.7z M351.9,460.3h3.9v1.3h-3.9V460.3z M352.7,464v2.7h2.2V464H352.7z M362.4,452.9
			c1.1,1.9,2.8,3.2,4.9,4.1l-0.8,1.4c-0.9-0.4-1.5-0.8-2-1.1v1.1h-5.4v-1.1c-0.6,0.6-1.3,1.1-2,1.6l-0.8-1.3c2-1.1,3.4-2.9,4.3-5.2
			l2,0.3C362.8,452.8,362.7,452.9,362.4,452.9z M357.4,459.4h8.9v8c0,0.7-0.3,1.1-0.8,1.1h-1.1l-0.3-1.1h0.7c0.2,0,0.3-0.1,0.3-0.3
			v-3h-1.5v3.9h-1.2v-3.9h-1.3v4h-1.2v-4h-1.3v4.4h-1.2V459.4z M358.6,460.5v2.5h1.3v-2.5H358.6z M364.1,457c-1-0.7-1.9-1.8-2.7-3.2
			c-0.6,1.3-1.3,2.4-2.1,3.2H364.1z M361.1,460.5v2.5h1.3v-2.5H361.1z M363.6,460.5v2.5h1.5v-2.5H363.6z"/>
		<path d="M375,464.3c-1.8,0.7-3.5,1.2-5.1,1.6c-0.1,0.4-0.3,0.4-0.4,0.2l-0.5-1.6l2.5-0.5v-3.9h-1.9v-1.3h1.9V455h-2.1v-1.3h5.6
			v1.3h-2.1v3.7h1.9v1.3h-1.9v3.5c0.4,0,1.1-0.2,2-0.6L375,464.3z M380.5,461v2h3.9v1.3h-3.9v2.2h4.6v1.3H374v-1.3h5.3v-2.2h-3.8
			V463h3.8v-2h-2.5v0.9h-1.2v-8.6h8.7v8.4h-1.2V461H380.5z M379.3,456.6v-2.3h-2.5v2.3H379.3z M379.3,457.7h-2.5v2.1h2.5V457.7z
			 M383.1,454.3h-2.6v2.3h2.6V454.3z M383.1,457.7h-2.6v2.1h2.6V457.7z"/>
		<path d="M402.1,465.9l-1.4,1.2c-2-2.1-3.9-3.8-5.7-5.2c-1.8,2-3.9,3.7-6.3,5.3l-1.3-1.2c5-3.2,8.2-6.5,9.6-9.7l-7.7,0.5l-0.2-1.7
			l8.2-0.4l0.8-0.2l1.1,1.1c0.3,0.3,0.2,0.5-0.3,0.6c-0.9,1.5-1.8,3-2.8,4.3C398.1,462.1,400.1,463.9,402.1,465.9z"/>
		<path d="M405.8,461.9c4.9-2.1,8.6-5,11.2-8.7l1.3,1.1c0.4,0.3,0.2,0.5-0.5,0.6c-0.9,1.2-2,2.4-3.4,3.6v9.6h-1.6v-8.2
			c-1.6,1.3-3.6,2.4-5.8,3.4L405.8,461.9z"/>
		<path d="M425.4,458.7l1.4-0.7c0.7,0.9,1.2,2,1.8,3.2l-1.4,0.8C426.6,460.7,426.1,459.6,425.4,458.7z M434.2,465
			c-1.4,1.4-3.1,2.4-5.3,3.2l-0.9-1.3c2.2-0.7,3.8-1.7,5.1-2.9c1.3-1.3,2.1-3.5,2.3-6.7l1.5,0.5c0.4,0.1,0.4,0.3,0,0.6
			C436.4,461.5,435.6,463.7,434.2,465z M429.1,457.8l1.3-0.7c0.7,0.9,1.3,1.9,1.8,3.2l-1.5,0.7C430.2,459.7,429.7,458.6,429.1,457.8
			z"/>
		<path d="M450.4,459.1h5.8v1.5h-5.8c0,3.3-1.5,5.7-4.4,7.4l-1.1-1.1c2.7-1.5,4-3.6,3.9-6.3h-7v-1.5h7v-2.7c-1.3,0.1-3,0.3-5.1,0.4
			l-0.6-1.5c4.5-0.1,8-0.5,10.5-1.3l0.8,1.5c0.1,0.3-0.1,0.4-0.6,0.1c-1,0.2-2.1,0.4-3.2,0.6V459.1z"/>
		<path d="M468.5,459v3h-3v-3H468.5z"/>
		<path d="M488.5,455.8l0.4-0.1l0.8,1.1c0.2,0.3,0.1,0.5-0.3,0.5c-1,1-2.3,2.2-3.9,3.4v7.4h-1.6v-6.3c-1.5,1-3.3,2-5.2,2.8l-1.2-1.3
			c3.9-1.5,7.1-3.4,9.6-6l-7.9,0.4l-0.2-1.5l5-0.1v-3.2h1.4c0.4,0.1,0.5,0.3,0.2,0.6v2.5L488.5,455.8z M487,461.4l1.1-1.3
			c1.7,0.9,3.2,1.9,4.4,3l-1.2,1.4C489.7,463.2,488.3,462.1,487,461.4z"/>
		<path d="M497.4,458.7l1.4-0.7c0.7,0.9,1.2,2,1.8,3.2l-1.4,0.8C498.6,460.7,498.1,459.6,497.4,458.7z M506.2,465
			c-1.4,1.4-3.1,2.4-5.3,3.2l-0.9-1.3c2.2-0.7,3.8-1.7,5.1-2.9c1.3-1.3,2.1-3.5,2.3-6.7l1.5,0.5c0.4,0.1,0.4,0.3,0,0.6
			C508.4,461.5,507.6,463.7,506.2,465z M501.1,457.8l1.3-0.7c0.7,0.9,1.3,1.9,1.8,3.2l-1.5,0.7C502.2,459.7,501.7,458.6,501.1,457.8
			z"/>
		<path d="M527.4,461.2l-0.8,1.6c-2.5-1.3-4.5-2.1-6.1-2.5v7.3h-1.6v-14.1h1.4c0.6,0,0.6,0.2,0.2,0.6v4.4
			C522.7,459.2,525.1,460.1,527.4,461.2z"/>
		<path d="M537.8,467.8l-1.3-1.4c2.8-1,4.6-2.4,5.6-4c0.9-1.5,1.3-3.6,1.3-6.3h-8.9v4.6h-1.6v-6.2h12.4c0,3.8-0.5,6.6-1.5,8.5
			C542.6,464.9,540.7,466.5,537.8,467.8z"/>
		<path d="M549.1,461.2v-1.5h15.7v1.5H549.1z"/>
		<path d="M571.3,468.3l-1.3-1.3c4.6-1.9,7.4-5.1,8.3-9.7h-5.6c-1.1,1.8-2.2,3.2-3.4,4.3l-1.4-0.9c2.4-2.2,4-4.8,4.7-7.7l1.6,0.6
			c0.3,0.1,0.2,0.3-0.1,0.4c-0.2,0.6-0.4,1.2-0.8,1.8h5.1l0.6-0.4l1.3,1.3c0.3,0.3,0.3,0.6-0.2,0.7
			C579.2,462.5,576.3,466.1,571.3,468.3z"/>
		<path d="M593.2,470.8c-0.9-1.1-1.6-2.4-2.2-3.9s-0.9-3-0.9-4.6c0-1.4,0.2-2.7,0.7-4c0.5-1.5,1.3-3,2.4-4.4h1.1
			c-0.7,1.2-1.2,2.1-1.4,2.6c-0.4,0.8-0.6,1.7-0.8,2.5c-0.3,1.1-0.4,2.2-0.4,3.3c0,2.8,0.9,5.6,2.6,8.4H593.2z"/>
		<path d="M600.1,467l-5-12.9h1.8l3.3,9.4c0.3,0.8,0.5,1.5,0.7,2.1c0.2-0.7,0.4-1.4,0.7-2.1l3.5-9.4h1.7l-5,12.9H600.1z"/>
		<path d="M607.1,467l5-6.7l-4.4-6.2h2l2.3,3.3c0.5,0.7,0.8,1.2,1,1.6c0.3-0.5,0.6-1,1-1.5l2.6-3.4h1.9l-4.5,6.1l4.9,6.8h-2.1
			l-3.2-4.6c-0.2-0.3-0.4-0.6-0.6-0.9c-0.3,0.5-0.5,0.8-0.6,1l-3.2,4.5H607.1z"/>
		<path d="M620.3,467v-12.9h1.7v11.4h6.3v1.5H620.3z"/>
		<path d="M629,467l4.9-12.9h1.8L641,467h-1.9l-1.5-3.9h-5.4l-1.4,3.9H629z M632.7,461.7h4.4l-1.3-3.6c-0.4-1.1-0.7-2-0.9-2.7
			c-0.2,0.8-0.4,1.6-0.7,2.5L632.7,461.7z"/>
		<path d="M642.4,467v-12.9h1.7l6.8,10.1v-10.1h1.6V467h-1.7l-6.8-10.1V467H642.4z"/>
		<path d="M656.2,470.8h-1.1c1.8-2.8,2.6-5.6,2.6-8.4c0-1.1-0.1-2.2-0.4-3.3c-0.2-0.9-0.5-1.7-0.8-2.5c-0.2-0.5-0.7-1.4-1.4-2.6h1.1
			c1.1,1.5,1.9,2.9,2.4,4.4c0.5,1.3,0.7,2.6,0.7,4c0,1.6-0.3,3.1-0.9,4.6C657.9,468.4,657.1,469.7,656.2,470.8z"/>
	</g>
	<g id="Layer_9">
	</g>
</g>
<g id="extended_network">
	<g>
		<path class="st17" d="M682.5,368.5H529c-9.4,0-17,8.3-17,18.5c0,10.2,7.6,18.5,17,18.5h153.5c9.4,0,17-8.3,17-18.5
			C699.5,376.8,691.9,368.5,682.5,368.5z"/>
		<ellipse class="st18" cx="681.9" cy="387" rx="11.4" ry="15.5"/>
	</g>
	<g>
		<path d="M529.1,386.5l1.8-0.6l0.3,1.3l-2,0.8v5.5c0,0.8-0.4,1.2-1.2,1.2h-1.3l-0.1-1.5h1c0.2,0,0.3-0.1,0.3-0.3v-4.4l-1.5,0.5
			c0,0.3-0.2,0.4-0.4,0.2l-0.5-1.6l2.3-0.6v-3.6h-2V382h2v-3.4h1.3c0.4,0,0.4,0.2,0.1,0.4v3h2.1v1.3h-2.1V386.5z M533.2,382.7v5.6
			c0,2.6-0.8,4.8-2.5,6.4l-0.9-1.3c1.3-1.2,2-3,2-5.3v-6.7h3.7v-2.8h1.3c0.4,0,0.4,0.2,0.1,0.4v2.4h4.2v1.3H533.2z M535.8,392.2
			c0.5,0,1.6-0.2,3.4-0.5c0-0.5-0.5-1.7-1.3-3.5l1.3-0.5c1.1,1.9,1.9,3.9,2.3,5.8l-1.6,0.6l-0.3-1.3c-1.8,0.3-3.7,0.7-5.6,1.1
			c-0.1,0.2-0.3,0.3-0.4,0.1l-0.4-1.6l1.1-0.1c0.8-2.8,1.3-5.7,1.6-8.6l1.5,0.3c0.3,0.1,0.3,0.3,0,0.5
			C537,387.3,536.4,389.9,535.8,392.2z"/>
		<path d="M545.1,394.3v-1.3h1.4c0.5,0,0.8-0.2,0.8-0.7l0.4-3.9h-2.5l-0.1,0.6l-1.3-0.3l0.7-5.8h3.1v-2.5h-3.8v-1.3h5.2v5.6h-1.4
			v-0.5h-1.8l-0.4,2.8h3.8l-0.6,5.8c-0.1,0.9-0.7,1.4-1.7,1.4H545.1z M555.4,392l0.2,1.3l-4.8,1.1c-0.1,0.3-0.2,0.4-0.3,0.2
			l-0.4-1.6l1.1-0.1v-5.1h-1.3v-1.3h1.3v-7.3h7.2v1.3h-5.8v1.1h5.1v1.3h-5.1v1.1h5.1v1.3h-5.1v1.1h6.8v1.3h-4.6
			c0.1,0.7,0.4,1.3,0.8,1.9l1.9-1.6l1.1,1.1c0,0.2-0.1,0.3-0.4,0.2l-1.8,1.3c0.9,0.9,2,1.7,3.3,2.3l-0.8,1.5c-3-1.7-4.8-3.9-5.3-6.7
			h-1v4.9L555.4,392z"/>
		<path d="M573,381.8l0.4-0.1l0.8,1.1c0.2,0.3,0.1,0.5-0.3,0.5c-1,1-2.3,2.2-3.9,3.4v7.4h-1.6v-6.3c-1.5,1-3.3,2-5.2,2.8l-1.2-1.3
			c3.9-1.5,7.1-3.4,9.6-6l-7.9,0.4l-0.2-1.5l5-0.1v-3.2h1.4c0.4,0.1,0.5,0.3,0.2,0.6v2.5L573,381.8z M571.5,387.4l1.1-1.3
			c1.7,0.9,3.2,1.9,4.4,3l-1.2,1.4C574.2,389.2,572.8,388.1,571.5,387.4z"/>
		<path d="M581.9,384.7l1.4-0.7c0.7,0.9,1.2,2,1.8,3.2l-1.4,0.8C583.1,386.7,582.6,385.6,581.9,384.7z M590.7,391
			c-1.4,1.4-3.1,2.4-5.3,3.2l-0.9-1.3c2.2-0.7,3.8-1.7,5.1-2.9c1.3-1.3,2.1-3.5,2.3-6.7l1.5,0.5c0.4,0.1,0.4,0.3,0,0.6
			C592.9,387.5,592.1,389.7,590.7,391z M585.6,383.8l1.3-0.7c0.7,0.9,1.3,1.9,1.8,3.2l-1.5,0.7C586.7,385.7,586.2,384.6,585.6,383.8
			z"/>
		<path d="M611.9,387.2l-0.8,1.6c-2.5-1.3-4.5-2.1-6.1-2.5v7.3h-1.6v-14.1h1.4c0.6,0,0.6,0.2,0.2,0.6v4.4
			C607.2,385.2,609.6,386.1,611.9,387.2z"/>
		<path d="M622.3,393.8l-1.3-1.4c2.8-1,4.6-2.4,5.6-4c0.9-1.5,1.3-3.6,1.3-6.3h-8.9v4.6h-1.6v-6.2h12.4c0,3.8-0.5,6.6-1.5,8.5
			C627.1,390.9,625.2,392.5,622.3,393.8z"/>
		<path d="M633.6,387.2v-1.5h15.7v1.5H633.6z"/>
		<path d="M655.8,394.3l-1.3-1.3c4.6-1.9,7.4-5.1,8.3-9.7h-5.6c-1.1,1.8-2.2,3.2-3.4,4.3l-1.4-0.9c2.4-2.2,4-4.8,4.7-7.7l1.6,0.6
			c0.3,0.1,0.2,0.3-0.1,0.4c-0.2,0.6-0.4,1.2-0.8,1.8h5.1l0.6-0.4l1.3,1.3c0.3,0.3,0.3,0.6-0.2,0.7
			C663.7,388.5,660.8,392.1,655.8,394.3z"/>
	</g>
</g>
<g id="management_vxlan">
	<g id="Layer_6">
	</g>
	<g>
		<g>
			<path class="st19" d="M102.3,547.5L102.3,547.5l-0.4-0.1c-9.3-1.1-16.4-10.3-16.4-21.4s7-20.3,16.4-21.4l0.4-0.1v-0.1h583.6
				l0.2,0c9.2,0.4,16.4,9.8,16.4,21.5s-7.2,21.1-16.4,21.5l-0.4,0H102.3z"/>
			<path d="M685.7,505l0.4,0c8.9,0.4,15.9,9.6,15.9,21s-7,20.6-15.9,21l-0.3,0h-583l-0.9-0.1c-9.1-1-15.9-10-15.9-20.9
				s6.9-19.9,15.9-20.9l0.9-0.1H685.7 M686.2,504H101.8v0.1C92.4,505.2,85,514.6,85,526c0,11.4,7.4,20.8,16.8,21.9v0.1h584.3v0
				c9.3-0.4,16.8-10.1,16.8-22C703,514.1,695.5,504.4,686.2,504L686.2,504L686.2,504z"/>
		</g>
		<g>
			<path class="st0" d="M684.4,543.9c-6.7,0-12.1-8.2-12.1-18.4c0-10.1,5.4-18.4,12.1-18.4s12.1,8.2,12.1,18.4
				C696.5,535.7,691,543.9,684.4,543.9z"/>
			<path d="M684.4,507.7c6.4,0,11.6,8,11.6,17.9c0,9.8-5.2,17.9-11.6,17.9s-11.6-8-11.6-17.9C672.7,515.7,678,507.7,684.4,507.7
				 M684.4,506.7c-7,0-12.6,8.4-12.6,18.9c0,10.4,5.7,18.9,12.6,18.9c7,0,12.6-8.4,12.6-18.9C697,515.1,691.3,506.7,684.4,506.7
				L684.4,506.7z"/>
		</g>
	</g>
	<g>
		<path d="M237.7,520v1.1h-3.4l0.7,1.4l-1.5,0.3l-0.6-1.7h-1.1c-0.3,0.5-0.6,0.9-1,1.3v0.9h6.6v3.2h-1.4v-2h-11.6v2h-1.4v-3.2h0.3
			l-0.9-1.1c1.4-1.1,2.3-2.4,2.9-3.9l1.5,0.1c0.2,0.1,0.2,0.3-0.1,0.4c-0.2,0.5-0.4,0.8-0.6,1.1h3.9v1.1h-2.2l0.6,1.4l-1.5,0.4
			l-0.5-1.8h-0.9c-0.5,0.8-1.2,1.5-2,2.3h6v-0.8l-0.3-0.4c1.2-1.2,2-2.5,2.3-3.9l1.5,0.1c0.2,0.1,0.1,0.3-0.1,0.4
			c-0.2,0.5-0.4,0.8-0.5,1.1H237.7z M234.6,525.5v3.7h-7.8v0.9h8.5v4.3h-1.4V534h-7.1v0.6h-1.4v-9H234.6z M233.2,526.7h-6.4v1.4h6.4
			V526.7z M233.9,531.2h-7.1v1.6h7.1V531.2z"/>
		<path d="M246,530.3c-1.8,0.7-3.5,1.2-5.1,1.6c-0.1,0.4-0.3,0.4-0.4,0.2l-0.5-1.6l2.5-0.5v-3.9h-1.9v-1.3h1.9V521h-2.1v-1.3h5.6
			v1.3h-2.1v3.7h1.9v1.3h-1.9v3.5c0.4,0,1.1-0.2,2-0.6L246,530.3z M251.5,527v2h3.9v1.3h-3.9v2.2h4.6v1.3H245v-1.3h5.3v-2.2h-3.8
			V529h3.8v-2h-2.5v0.9h-1.2v-8.6h8.7v8.4h-1.2V527H251.5z M250.3,522.6v-2.3h-2.5v2.3H250.3z M250.3,523.7h-2.5v2.1h2.5V523.7z
			 M254.1,520.3h-2.6v2.3h2.6V520.3z M254.1,523.7h-2.6v2.1h2.6V523.7z"/>
		<path d="M270.6,531.5c-0.5,0.6-1.1,1-1.7,1.3c-0.6,0.3-1.3,0.4-2,0.4c-1.3,0-2.4-0.4-3.1-1.3c-0.6-0.7-0.9-1.5-0.9-2.4
			c0-0.8,0.3-1.5,0.8-2.2c0.5-0.6,1.3-1.2,2.3-1.7c-0.6-0.7-1-1.2-1.2-1.6s-0.3-0.8-0.3-1.2c0-0.8,0.3-1.4,0.9-2
			c0.6-0.6,1.4-0.9,2.3-0.9c0.9,0,1.6,0.3,2.2,0.8s0.8,1.2,0.8,1.9c0,1.2-0.8,2.3-2.4,3.1l2.3,2.9c0.3-0.5,0.5-1.1,0.6-1.8l1.6,0.4
			c-0.3,1.1-0.7,2.1-1.1,2.8c0.6,0.8,1.3,1.4,2,2l-1.1,1.3C271.9,532.9,271.2,532.3,270.6,531.5z M269.6,530.2l-2.9-3.6
			c-0.9,0.5-1.4,1-1.7,1.4s-0.4,0.9-0.4,1.3c0,0.5,0.2,1.1,0.6,1.6s1,0.8,1.8,0.8c0.5,0,1-0.1,1.5-0.4S269.3,530.7,269.6,530.2z
			 M267.3,524.8c0.7-0.4,1.1-0.8,1.3-1.1s0.3-0.6,0.3-1c0-0.4-0.1-0.8-0.4-1.1c-0.3-0.3-0.6-0.4-1-0.4c-0.4,0-0.8,0.1-1.1,0.4
			s-0.4,0.6-0.4,1c0,0.2,0.1,0.4,0.2,0.6c0.1,0.2,0.3,0.5,0.5,0.7L267.3,524.8z"/>
		<path d="M284.1,533l-5-12.9h1.8l3.3,9.4c0.3,0.8,0.5,1.5,0.7,2.1c0.2-0.7,0.4-1.4,0.7-2.1l3.5-9.4h1.7l-5,12.9H284.1z"/>
		<path d="M291.1,533l5-6.7l-4.4-6.2h2l2.3,3.3c0.5,0.7,0.8,1.2,1,1.6c0.3-0.5,0.6-1,1-1.5l2.6-3.4h1.9l-4.5,6.1l4.9,6.8h-2.1
			l-3.2-4.6c-0.2-0.3-0.4-0.6-0.6-0.9c-0.3,0.5-0.5,0.8-0.6,1l-3.2,4.5H291.1z"/>
		<path d="M304.3,533v-12.9h1.7v11.4h6.3v1.5H304.3z"/>
		<path d="M313,533l4.9-12.9h1.8l5.3,12.9h-1.9l-1.5-3.9h-5.4l-1.4,3.9H313z M316.7,527.7h4.4l-1.3-3.6c-0.4-1.1-0.7-2-0.9-2.7
			c-0.2,0.8-0.4,1.6-0.7,2.5L316.7,527.7z"/>
		<path d="M326.4,533v-12.9h1.7l6.8,10.1v-10.1h1.6V533h-1.7l-6.8-10.1V533H326.4z"/>
		<path d="M343.6,529.1v-1.6h4.9v1.6H343.6z"/>
		<path d="M349.6,529.1v-1.6h4.9v1.6H349.6z"/>
		<path d="M363,522.5V521h10.4l1.8,1.3c-0.2,5.7-3.4,9.4-9.6,11.1l-1.3-1.5c5.9-1.4,8.9-4.5,9.2-9.4H363z M374.2,521
			c-0.4-0.4-0.6-0.8-0.6-1.4s0.2-1,0.6-1.4c0.4-0.4,0.8-0.6,1.4-0.6s1,0.2,1.4,0.6c0.4,0.4,0.6,0.8,0.6,1.4s-0.2,1-0.6,1.4
			c-0.4,0.4-0.8,0.6-1.4,0.6S374.6,521.4,374.2,521z M376.5,520.6c0.2-0.2,0.4-0.5,0.4-0.9c0-0.4-0.1-0.7-0.4-0.9
			c-0.2-0.2-0.5-0.4-0.9-0.4c-0.4,0-0.7,0.1-0.9,0.4c-0.2,0.2-0.4,0.5-0.4,0.9c0,0.4,0.1,0.7,0.4,0.9c0.2,0.2,0.5,0.4,0.9,0.4
			C376,520.9,376.3,520.8,376.5,520.6z"/>
		<path d="M383.6,533.1c4.5-1.2,7.1-3.6,7.7-7.4h-10.7v-1.5h10.8l0.6-0.2l1.3,0.8c0.3,0.2,0.2,0.4-0.1,0.6c-0.8,4.7-3.5,7.7-8.2,9.1
			L383.6,533.1z M391.5,521.7h-9.7v-1.5h9.7V521.7z"/>
		<path d="M397.8,527.9c4.9-2.1,8.6-5,11.2-8.7l1.3,1.1c0.4,0.3,0.2,0.5-0.5,0.6c-0.9,1.2-2,2.4-3.4,3.6v9.6h-1.6v-8.2
			c-1.6,1.3-3.6,2.4-5.8,3.4L397.8,527.9z"/>
		<path d="M430.9,529.6l-1.5,1.4c-2.4-2.3-4.7-4.4-6.9-6.3c-0.4-0.4-0.7-0.6-0.8-0.6c-0.2,0-0.5,0.2-0.8,0.6
			c-1.4,1.6-2.7,3.1-3.9,4.4l-1.3-1.5c1.8-1.8,3.6-3.5,5.2-5.1c0.3-0.3,0.6-0.4,1-0.4c0.4,0,0.7,0.1,1,0.4
			C424.8,524.3,427.6,526.7,430.9,529.6z M425.4,520.3c0.7,0.6,1.5,1.4,2.4,2.3l-0.8,0.8c-0.9-0.9-1.7-1.7-2.4-2.2L425.4,520.3z
			 M429.4,521l-0.8,0.8c-0.9-1-1.7-1.7-2.3-2.3l0.8-0.8C427.9,519.3,428.7,520.1,429.4,521z"/>
		<path d="M433.2,527.2v-1.5h15.7v1.5H433.2z"/>
		<path d="M465.4,527.2l-0.8,1.6c-2.5-1.3-4.5-2.1-6.1-2.5v7.3h-1.6v-14.1h1.4c0.6,0,0.6,0.2,0.2,0.6v4.4
			C460.8,525.2,463.1,526.1,465.4,527.2z"/>
		<path d="M478.1,533l-5-12.9h1.8l3.3,9.4c0.3,0.8,0.5,1.5,0.7,2.1c0.2-0.7,0.4-1.4,0.7-2.1l3.5-9.4h1.7l-5,12.9H478.1z"/>
		<path d="M486.4,533v-12.9h1.7v11.4h6.3v1.5H486.4z"/>
		<path d="M495,533l4.9-12.9h1.8l5.3,12.9h-1.9l-1.5-3.9h-5.4l-1.4,3.9H495z M498.7,527.7h4.4l-1.3-3.6c-0.4-1.1-0.7-2-0.9-2.7
			c-0.2,0.8-0.4,1.6-0.7,2.5L498.7,527.7z"/>
		<path d="M508.4,533v-12.9h1.7l6.8,10.1v-10.1h1.6V533h-1.7l-6.8-10.1V533H508.4z"/>
		<path d="M524,533l4.9-12.9h1.8l5.3,12.9h-1.9l-1.5-3.9h-5.4l-1.4,3.9H524z M527.7,527.7h4.4l-1.3-3.6c-0.4-1.1-0.7-2-0.9-2.7
			c-0.2,0.8-0.4,1.6-0.7,2.5L527.7,527.7z"/>
		<path d="M544.3,536.8c-0.9-1.1-1.6-2.4-2.2-3.9s-0.9-3-0.9-4.6c0-1.4,0.2-2.7,0.7-4c0.5-1.5,1.3-3,2.4-4.4h1.1
			c-0.7,1.2-1.2,2.1-1.4,2.6c-0.4,0.8-0.6,1.7-0.8,2.5c-0.3,1.1-0.4,2.2-0.4,3.3c0,2.8,0.9,5.6,2.6,8.4H544.3z"/>
		<path d="M558.6,521.8l0.4-0.1l0.8,1.1c0.2,0.3,0.1,0.5-0.3,0.5c-1,1-2.3,2.2-3.9,3.4v7.4H554v-6.3c-1.5,1-3.3,2-5.2,2.8l-1.2-1.3
			c3.9-1.5,7.1-3.4,9.6-6l-7.9,0.4l-0.2-1.5l5-0.1v-3.2h1.4c0.4,0.1,0.5,0.3,0.2,0.6v2.5L558.6,521.8z M557.1,527.4l1.1-1.3
			c1.7,0.9,3.2,1.9,4.4,3l-1.2,1.4C559.8,529.2,558.4,528.1,557.1,527.4z"/>
		<path d="M565.8,527.9c4.9-2.1,8.6-5,11.2-8.7l1.3,1.1c0.4,0.3,0.2,0.5-0.5,0.6c-0.9,1.2-2,2.4-3.4,3.6v9.6h-1.6v-8.2
			c-1.6,1.3-3.6,2.4-5.8,3.4L565.8,527.9z"/>
		<path d="M590.9,526h-7v-1.5h14.4v1.5h-5.8v0.9c0,3-1.1,5.4-3.2,7.3l-1.4-1.1c2-1.5,3-3.6,3-6.3V526z M586.4,521.7v-1.5h9.4v1.5
			H586.4z"/>
		<path d="M610.2,534.4h-1.4v-6.5c-1,0.8-2.6,1.7-4.6,2.7l-1-1.2c4.5-2.2,7.5-4.5,9.1-7.1l1.2,0.9c0.3,0.2,0.2,0.4-0.3,0.5
			c-0.8,1-1.8,2-3,3V534.4z"/>
		<path d="M621.1,522.5V521h10.6l1.1-0.2l0.8,0.7c-0.2,6.2-3.5,10.2-9.8,12l-1.3-1.5c5.9-1.3,8.9-4.4,9.2-9.4H621.1z M632.1,520.8
			c-0.6-0.7-1.2-1.2-1.8-1.8l0.8-0.8c0.7,0.5,1.3,1.1,1.9,1.8L632.1,520.8z M634.7,520.6c-0.8-0.8-1.5-1.5-2.1-2.1l0.8-0.7
			c0.7,0.6,1.5,1.2,2.1,2L634.7,520.6z"/>
		<path d="M638.3,536.8h-1.1c1.8-2.8,2.6-5.6,2.6-8.4c0-1.1-0.1-2.2-0.4-3.3c-0.2-0.9-0.5-1.7-0.8-2.5c-0.2-0.5-0.7-1.4-1.4-2.6h1.1
			c1.1,1.5,1.9,2.9,2.4,4.4c0.5,1.3,0.7,2.6,0.7,4c0,1.6-0.3,3.1-0.9,4.6C639.9,534.4,639.2,535.7,638.3,536.8z"/>
	</g>
</g>
<g id="P_x2F_V">
	<g>
		<line class="st1" x1="121" y1="190" x2="121" y2="503.5"/>
		<g>
			<g>
				<g>
					<rect x="97.5" y="280" class="st20" width="47.3" height="47.3"/>
					<linearGradient id="SVGID_1_" gradientUnits="userSpaceOnUse" x1="128.9627" y1="296.7212" x2="117.5096" y2="338.8456">
						<stop  offset="0" style="stop-color:#CCE0F4"/>
						<stop  offset="7.748766e-002" style="stop-color:#C5DDF3"/>
						<stop  offset="0.1918" style="stop-color:#B1D5EF"/>
						<stop  offset="0.329" style="stop-color:#90C9EA"/>
						<stop  offset="0.4838" style="stop-color:#63B7E2"/>
						<stop  offset="0.6515" style="stop-color:#2AA1D9"/>
						<stop  offset="0.6829" style="stop-color:#1E9CD7"/>
						<stop  offset="0.8652" style="stop-color:#0075BE"/>
						<stop  offset="0.9944" style="stop-color:#005B97"/>
					</linearGradient>
					<polygon class="st21" points="99.3,325.5 143,281.8 143,325.5 					"/>
				</g>
				<text transform="matrix(1 0 0 1 101.084 315.4692)" class="st0 st10 st22">P</text>
				<text transform="matrix(1 0 0 1 109.6836 324.0688)" class="st0 st10 st22">V</text>
				<g>
					<g>
						<g>
							<g>
								<polygon class="st0" points="103.1,288.6 105.8,297.8 112.2,291.8 								"/>
							</g>
						</g>
					</g>
					<g>
						<g>
							<g>
								
									<rect x="110" y="293.5" transform="matrix(0.7268 -0.6868 0.6868 0.7268 -174.0401 158.3445)" class="st0" width="4.1" height="9"/>
							</g>
						</g>
					</g>
				</g>
				<g>
					<g>
						<g>
							<g>
								<polygon class="st0" points="135.6,322.1 125.5,318.2 132.2,311.8 								"/>
							</g>
						</g>
					</g>
					<g>
						<g>
							<g>
								
									<rect x="123.2" y="306.1" transform="matrix(0.7268 -0.6868 0.6868 0.7268 -179.5351 171.1431)" class="st0" width="4.3" height="10.4"/>
							</g>
						</g>
					</g>
				</g>
			</g>
		</g>
	</g>
</g>
<g id="Layer_15">
	<g>
		<g>
			<g>
				<rect x="50.5" y="720.9" class="st20" width="38.1" height="38.1"/>
				<linearGradient id="SVGID_2_" gradientUnits="userSpaceOnUse" x1="75.8253" y1="734.3933" x2="66.6063" y2="768.3004">
					<stop  offset="0" style="stop-color:#CCE0F4"/>
					<stop  offset="7.748766e-002" style="stop-color:#C5DDF3"/>
					<stop  offset="0.1918" style="stop-color:#B1D5EF"/>
					<stop  offset="0.329" style="stop-color:#90C9EA"/>
					<stop  offset="0.4838" style="stop-color:#63B7E2"/>
					<stop  offset="0.6515" style="stop-color:#2AA1D9"/>
					<stop  offset="0.6829" style="stop-color:#1E9CD7"/>
					<stop  offset="0.8652" style="stop-color:#0075BE"/>
					<stop  offset="0.9944" style="stop-color:#005B97"/>
				</linearGradient>
				<polygon class="st23" points="52,757.5 87.1,722.4 87.1,757.5 				"/>
			</g>
			<text transform="matrix(1 0 0 1 53.3848 749.484)" class="st0 st10 st24">P</text>
			<text transform="matrix(1 0 0 1 60.3071 756.4059)" class="st0 st10 st24">V</text>
			<g>
				<g>
					<g>
						<g>
							<polygon class="st0" points="55,727.9 57.2,735.3 62.3,730.4 							"/>
						</g>
					</g>
				</g>
				<g>
					<g>
						<g>
							
								<rect x="60.6" y="731.8" transform="matrix(0.7268 -0.6868 0.6868 0.7268 -488.0847 243.6074)" class="st0" width="3.3" height="7.2"/>
						</g>
					</g>
				</g>
			</g>
			<g>
				<g>
					<g>
						<g>
							<polygon class="st0" points="81.2,754.9 73,751.7 78.4,746.5 							"/>
						</g>
					</g>
				</g>
				<g>
					<g>
						<g>
							
								<rect x="71.2" y="741.9" transform="matrix(0.7268 -0.6868 0.6868 0.7268 -492.5203 253.9218)" class="st0" width="3.5" height="8.4"/>
						</g>
					</g>
				</g>
			</g>
		</g>
	</g>
	<text transform="matrix(1 0 0 1 38 780)" class="st10 st15">NSX Edge</text>
</g>
<g id="L2_concentrator_bottom">
	<g>
		<path class="st13" d="M693,757h-18.5c-6.6,0-12-5.4-12-12v-15c0-6.6,5.4-12,12-12H693c6.6,0,12,5.4,12,12v15
			C705,751.6,699.6,757,693,757z"/>
		<g>
			<rect x="671.9" y="727.4" class="st0" width="23.6" height="12.7"/>
			<rect x="675.6" y="737.1" class="st0" width="16.2" height="6"/>
			<rect x="675.6" y="731.9" class="st13" width="16.2" height="1.5"/>
			<rect x="681.5" y="741.6" class="st0" width="4.4" height="10.4"/>
			<rect x="674.2" y="722.9" class="st0" width="4.4" height="8.2"/>
			<rect x="680.8" y="722.9" class="st0" width="2.2" height="3"/>
			<rect x="684.5" y="722.9" class="st0" width="2.2" height="3"/>
			<rect x="688.9" y="722.9" class="st0" width="4.4" height="8.2"/>
		</g>
	</g>
	<text transform="matrix(1 0 0 1 624 780)"><tspan x="0" y="0" class="st10 st15">L2 </tspan><tspan x="19.5" y="0" class="st14 st15">コンセントレーター</tspan></text>
</g>
<g id="Layer_16">
	<g>
		<rect x="164" y="722" class="st25" width="41.1" height="37"/>
		<rect x="204.2" y="722" class="st26" width="89.8" height="37"/>
	</g>
	<text transform="matrix(1 0 0 1 170.2979 746.4043)" class="st0 st10 st27">VM</text>
	<g>
		<path class="st0" d="M209.9,746.4v-11.8h1.2v4.9h4.6v-4.9h1.2v11.8h-1.2v-5.6h-4.6v5.6H209.9z"/>
		<path class="st0" d="M225.3,742.3l1.2,0.4c-0.2,1.3-0.7,2.3-1.3,2.9c-0.6,0.7-1.4,1-2.4,1c-1,0-1.7-0.3-2.3-0.8
			c-0.6-0.5-1.1-1.3-1.4-2.3c-0.3-1-0.5-2-0.5-3.2c0-1.2,0.2-2.3,0.5-3.2c0.4-0.9,0.9-1.6,1.5-2.1s1.4-0.7,2.2-0.7
			c0.9,0,1.6,0.3,2.3,0.9c0.6,0.6,1,1.5,1.3,2.5l-1.2,0.4c-0.2-0.9-0.5-1.5-0.9-1.9s-0.9-0.6-1.5-0.6c-0.7,0-1.3,0.2-1.7,0.7
			c-0.5,0.4-0.8,1-1,1.8s-0.3,1.5-0.3,2.3c0,1,0.1,1.9,0.3,2.6c0.2,0.8,0.6,1.3,1,1.7c0.5,0.4,1,0.6,1.5,0.6c0.7,0,1.2-0.3,1.7-0.8
			C224.8,744,225.1,743.3,225.3,742.3z"/>
		<path class="st0" d="M227,746.4l3.5-6.2l-3-5.7h1.4l1.6,3c0.3,0.6,0.6,1.1,0.7,1.5c0.2-0.4,0.4-0.9,0.7-1.3l1.8-3.1h1.3l-3.1,5.6
			l3.4,6.3h-1.5l-2.2-4.2c-0.1-0.2-0.3-0.5-0.4-0.8c-0.2,0.4-0.3,0.7-0.4,0.9l-2.2,4.1H227z"/>
		<path class="st0" d="M242.4,747.6l-0.9-1.2c3.2-1.7,5.1-4.7,5.7-8.9h-3.9c-0.7,1.6-1.5,3-2.3,3.9l-1-0.8c1.7-2,2.8-4.4,3.3-7.1
			l1.1,0.5c0.2,0.1,0.2,0.3-0.1,0.4c-0.1,0.6-0.3,1.1-0.5,1.7h3.5l0.4-0.3l0.9,1.2c0.2,0.3,0.2,0.5-0.1,0.6
			C247.9,742.3,245.9,745.6,242.4,747.6z"/>
		<path class="st0" d="M255,746.5c3.1-1.1,4.9-3.3,5.3-6.8h-7.4v-1.4h7.4l0.4-0.2l0.9,0.7c0.2,0.2,0.2,0.4-0.1,0.6
			c-0.5,4.3-2.4,7.1-5.7,8.4L255,746.5z M260.5,736h-6.7v-1.4h6.7V736z"/>
		<path class="st0" d="M274.5,737.3c0,4.7-1.7,8.2-5.1,10.4l-0.9-1.2c3.1-1.9,4.7-4.7,4.8-8.5h-6.8l0.1,3.8h-1.1l-0.1-5.2h3.8v-3.2
			h1c0.4,0,0.4,0.2,0.1,0.5v2.7h3.7L274.5,737.3z"/>
		<path class="st0" d="M286.1,742.6c-1.7-1.2-3.1-1.9-4.2-2.3v6.7h-1.1v-12.9h1c0.4,0,0.4,0.2,0.1,0.5v4.1c1.6,0.6,3.2,1.4,4.8,2.5
			L286.1,742.6z M286,736.9c-0.6-0.9-1.1-1.6-1.7-2.2l0.6-0.6c0.6,0.6,1.1,1.3,1.7,2.2L286,736.9z M287.1,735.7
			c-0.4-0.7-1-1.4-1.6-2.1l0.6-0.6c0.6,0.5,1.1,1.2,1.6,2.1L287.1,735.7z"/>
	</g>
	<text transform="matrix(1 0 0 1 176 780)" class="st10 st15">HCX Manager</text>
</g>
<g id="VM_HCX">
	<line class="st1" x1="212.5" y1="407.5" x2="212.5" y2="503.5"/>
	<g>
		<rect x="137" y="360.8" class="st25" width="48" height="47"/>
		<rect x="184" y="360.8" class="st26" width="114" height="47"/>
	</g>
	<text transform="matrix(1 0 0 1 145 391.75)" class="st0 st10 st11">VM</text>
	<g>
		<path class="st0" d="M190.3,391.8v-15h1.5v6.2h6v-6.2h1.5v15h-1.5v-7.1h-6v7.1H190.3z"/>
		<path class="st0" d="M210.2,386.5l1.5,0.5c-0.3,1.6-0.9,2.9-1.7,3.7c-0.8,0.9-1.9,1.3-3.1,1.3c-1.2,0-2.3-0.3-3-1
			c-0.8-0.7-1.4-1.6-1.8-2.9c-0.4-1.3-0.6-2.6-0.6-4c0-1.6,0.2-2.9,0.7-4.1c0.5-1.2,1.1-2.1,2-2.7c0.8-0.6,1.8-0.9,2.8-0.9
			c1.2,0,2.1,0.4,2.9,1.1c0.8,0.8,1.3,1.8,1.6,3.2l-1.5,0.5c-0.3-1.1-0.7-1.9-1.2-2.4s-1.2-0.7-1.9-0.7c-0.9,0-1.6,0.3-2.2,0.8
			s-1,1.3-1.3,2.2c-0.2,0.9-0.4,1.9-0.4,2.9c0,1.3,0.1,2.4,0.4,3.3c0.3,1,0.7,1.7,1.3,2.1s1.3,0.7,2,0.7c0.9,0,1.6-0.3,2.2-1
			C209.5,388.7,209.9,387.7,210.2,386.5z"/>
		<path class="st0" d="M212.4,391.8l4.5-7.8l-3.9-7.2h1.8l2.1,3.9c0.4,0.8,0.7,1.4,0.9,1.8c0.3-0.5,0.6-1.1,0.9-1.7l2.3-4h1.7
			l-4.1,7.1l4.4,7.9h-1.9l-2.9-5.4c-0.2-0.3-0.3-0.6-0.5-1c-0.3,0.5-0.4,0.9-0.6,1.1l-2.9,5.2H212.4z"/>
		<path class="st0" d="M232.4,393.3l-1.1-1.6c4.1-2.2,6.6-6,7.4-11.3h-5c-1,2.1-2,3.7-3,5l-1.3-1.1c2.2-2.6,3.6-5.6,4.2-9l1.5,0.7
			c0.3,0.2,0.2,0.3-0.1,0.5c-0.2,0.7-0.4,1.4-0.7,2.1h4.5l0.6-0.4l1.1,1.5c0.3,0.4,0.2,0.7-0.2,0.8
			C239.5,386.5,236.8,390.7,232.4,393.3z"/>
		<path class="st0" d="M248.7,391.8c4.1-1.4,6.4-4.2,6.9-8.6H246v-1.8h9.7l0.6-0.2l1.1,0.9c0.3,0.3,0.2,0.5-0.1,0.7
			c-0.7,5.5-3.1,9-7.4,10.7L248.7,391.8z M255.8,378.5h-8.7v-1.8h8.7V378.5z"/>
		<path class="st0" d="M274,380.2c0,6-2.2,10.4-6.6,13.2l-1.2-1.6c4.1-2.4,6.1-6,6.2-10.8h-8.8l0.1,4.8h-1.5l-0.2-6.6h5v-4.1h1.3
			c0.5,0.1,0.6,0.3,0.2,0.7v3.4h4.7L274,380.2z"/>
		<path class="st0" d="M289,386.9c-2.2-1.5-4.1-2.5-5.5-3v8.5H282v-16.4h1.3c0.5,0.1,0.6,0.3,0.2,0.7v5.2c2.1,0.8,4.1,1.8,6.2,3.1
			L289,386.9z M288.8,379.7c-0.7-1.1-1.4-2.1-2.1-2.8l0.8-0.8c0.7,0.7,1.4,1.6,2.1,2.8L288.8,379.7z M290.3,378.1
			c-0.5-0.9-1.2-1.8-2.1-2.7l0.8-0.8c0.7,0.7,1.4,1.6,2.1,2.7L290.3,378.1z"/>
	</g>
</g>
</svg>
