<?xml version="1.0" encoding="UTF-8" standalone="no"?>
<!-- Generator: Adobe Illustrator 21.0.0, SVG Export Plug-In . SVG Version: 6.00 Build 0)  -->

<svg
   xmlns:dc="http://purl.org/dc/elements/1.1/"
   xmlns:cc="http://creativecommons.org/ns#"
   xmlns:rdf="http://www.w3.org/1999/02/22-rdf-syntax-ns#"
   xmlns:svg="http://www.w3.org/2000/svg"
   xmlns="http://www.w3.org/2000/svg"
   xmlns:sodipodi="http://sodipodi.sourceforge.net/DTD/sodipodi-0.dtd"
   xmlns:inkscape="http://www.inkscape.org/namespaces/inkscape"
   version="1.1"
   x="0px"
   y="0px"
   viewBox="0 0 638 455"
   style="enable-background:new 0 0 638 455;"
   xml:space="preserve"
   id="svg184"
   sodipodi:docname="source_cloud_gateway.svg"
   inkscape:version="0.92.3 (2405546, 2018-03-11)"><metadata
   id="metadata190"><rdf:RDF><cc:Work
       rdf:about=""><dc:format>image/svg+xml</dc:format><dc:type
         rdf:resource="http://purl.org/dc/dcmitype/StillImage" /></cc:Work></rdf:RDF></metadata><defs
   id="defs188">
	

		
		
	
	
	

	
	

	
	
	
</defs><sodipodi:namedview
   pagecolor="#ffffff"
   bordercolor="#666666"
   borderopacity="1"
   objecttolerance="10"
   gridtolerance="10"
   guidetolerance="10"
   inkscape:pageopacity="0"
   inkscape:pageshadow="2"
   inkscape:window-width="1920"
   inkscape:window-height="1017"
   id="namedview186"
   showgrid="false"
   inkscape:zoom="1.4670523"
   inkscape:cx="298.56595"
   inkscape:cy="230.07577"
   inkscape:window-x="-8"
   inkscape:window-y="-8"
   inkscape:window-maximized="1"
   inkscape:current-layer="svg184" />
<style
   type="text/css"
   id="style2">
	.st0{fill:#E4EFCA;}
	.st1{fill:none;stroke:#000000;stroke-width:0.75;stroke-miterlimit:10;}
	.st2{fill:none;stroke:#000000;stroke-width:0.75;stroke-miterlimit:10;stroke-dasharray:5.0187,5.0187;}
	.st3{fill:none;stroke:#000000;stroke-width:0.75;stroke-miterlimit:10;stroke-dasharray:4.9182,4.9182;}
	.st4{fill:none;stroke:#000000;stroke-width:0.75;stroke-miterlimit:10;stroke-dasharray:5.0086,5.0086;}
	.st5{fill:none;stroke:#000000;stroke-width:0.75;stroke-miterlimit:10;stroke-dasharray:5.0308,5.0308;}
	.st6{fill:#29ABE2;}
	.st7{fill:#FFFFFF;}
	.st8{fill:#FFFFFF;stroke:#8CC63F;stroke-width:8;stroke-miterlimit:10;}
	.st9{fill:#F9C73D;}
	.st10{font-family:'MyriadPro-Regular';}
	.st11{font-size:18px;}
	.st12{fill:#8CC63F;stroke:#009245;stroke-width:0.25;stroke-miterlimit:10;}
	.st13{fill:#29ABE2;stroke:#0071BC;stroke-width:0.25;stroke-miterlimit:10;}
	.st14{fill:#F9C73D;stroke:#000000;stroke-width:0.75;stroke-miterlimit:10;}
	.st15{fill:#FFFFFF;stroke:#000000;stroke-width:0.75;stroke-miterlimit:10;}
	.st16{font-size:21px;}
	.st17{fill:#F7931E;stroke:#000000;stroke-width:0.75;stroke-miterlimit:10;}
	.st18{fill:#FFFFFF;stroke:#4D4D4D;stroke-width:2;stroke-miterlimit:10;}
</style>
<g
   id="inner_box">
	<g
   id="g24">
		<rect
   x="52.5"
   y="91"
   class="st0"
   width="542"
   height="275.5"
   id="rect4" />
		<g
   id="g22">
			<polyline
   class="st1"
   points="594.5,364 594.5,366.5 592,366.5    "
   id="polyline6" />
			<line
   class="st2"
   x1="587"
   y1="366.5"
   x2="57.5"
   y2="366.5"
   id="line8" />
			<polyline
   class="st1"
   points="55,366.5 52.5,366.5 52.5,364    "
   id="polyline10" />
			<line
   class="st3"
   x1="52.5"
   y1="359.1"
   x2="52.5"
   y2="96"
   id="line12" />
			<polyline
   class="st1"
   points="52.5,93.5 52.5,91 55,91    "
   id="polyline14" />
			<line
   class="st2"
   x1="60"
   y1="91"
   x2="589.5"
   y2="91"
   id="line16" />
			<polyline
   class="st1"
   points="592,91 594.5,91 594.5,93.5    "
   id="polyline18" />
			<line
   class="st3"
   x1="594.5"
   y1="98.4"
   x2="594.5"
   y2="361.5"
   id="line20" />
		</g>
	</g>
</g>
<g
   id="cloud_gateway">
</g>
<g
   id="outter_box">
	<g
   id="g46">
		<g
   id="g44">
			<polyline
   class="st1"
   points="616.5,388 616.5,390.5 614,390.5    "
   id="polyline28" />
			<line
   class="st4"
   x1="609"
   y1="390.5"
   x2="30.5"
   y2="390.5"
   id="line30" />
			<polyline
   class="st1"
   points="28,390.5 25.5,390.5 25.5,388    "
   id="polyline32" />
			<line
   class="st5"
   x1="25.5"
   y1="383"
   x2="25.5"
   y2="63.5"
   id="line34" />
			<polyline
   class="st1"
   points="25.5,61 25.5,58.5 28,58.5    "
   id="polyline36" />
			<line
   class="st4"
   x1="33"
   y1="58.5"
   x2="611.5"
   y2="58.5"
   id="line38" />
			<polyline
   class="st1"
   points="614,58.5 616.5,58.5 616.5,61    "
   id="polyline40" />
			<line
   class="st5"
   x1="616.5"
   y1="66"
   x2="616.5"
   y2="385.5"
   id="line42" />
		</g>
	</g>
</g>
<g
   id="lines">
	<g
   id="g79">
		<g
   id="g73">
			<path
   class="st6"
   d="M295,173.5h-27c-6.6,0-12-5.4-12-12v-22.3c0-6.6,5.4-12,12-12h27c6.6,0,12,5.4,12,12v22.3     C307,168.1,301.6,173.5,295,173.5z"
   id="path49" />
			<g
   id="g71">
				<g
   id="g57">
					<path
   class="st7"
   d="M286.9,148h-9.8c-2.2,0-4.1-1.8-4.1-4.1v-5.1c0-2.2,1.8-4.1,4.1-4.1h9.8c2.2,0,4.1,1.8,4.1,4.1v5.1       C290.9,146.1,289.1,148,286.9,148z"
   id="path51" />
					<path
   class="st6"
   d="M285.1,146.1h-6.3c-1.1,0-2.1-0.9-2.1-2.1v-3.5c0-1.1,0.9-2.1,2.1-2.1h6.3c1.1,0,2.1,0.9,2.1,2.1v3.5       C287.2,145.2,286.2,146.1,285.1,146.1z"
   id="path53" />
					<path
   class="st7"
   d="M292.5,165.9h-21.2c-2.2,0-4.1-1.8-4.1-4.1v-12.7c0-2.2,1.8-4.1,4.1-4.1h21.2c2.2,0,4.1,1.8,4.1,4.1v12.7       C296.6,164.1,294.8,165.9,292.5,165.9z"
   id="path55" />
				</g>
				<g
   id="g69">
					<ellipse
   class="st6"
   cx="282.4"
   cy="153.2"
   rx="3.8"
   ry="3.3"
   id="ellipse59" />
					<path
   class="st6"
   d="M282,163.1L282,163.1c-0.8,0-1.4-0.6-1.4-1.4v-6.6c0-0.8,0.6-1.4,1.4-1.4l0,0c0.8,0,1.4,0.6,1.4,1.4v6.6       C283.4,162.4,282.8,163.1,282,163.1z"
   id="path61" />
					<path
   class="st6"
   d="M284.8,158.4h-1.9c-0.3,0-0.5-0.2-0.5-0.5l0,0c0-0.3,0.2-0.5,0.5-0.5h1.9c0.3,0,0.5,0.2,0.5,0.5l0,0       C285.3,158.1,285.1,158.4,284.8,158.4z"
   id="path63" />
					<path
   class="st6"
   d="M284.8,160.3h-1.9c-0.3,0-0.5-0.2-0.5-0.5l0,0c0-0.3,0.2-0.5,0.5-0.5h1.9c0.3,0,0.5,0.2,0.5,0.5l0,0       C285.3,160,285.1,160.3,284.8,160.3z"
   id="path65" />
					<path
   class="st6"
   d="M284.8,162.1h-1.9c-0.3,0-0.5-0.2-0.5-0.5l0,0c0-0.3,0.2-0.5,0.5-0.5h1.9c0.3,0,0.5,0.2,0.5,0.5l0,0       C285.3,161.9,285.1,162.1,284.8,162.1z"
   id="path67" />
				</g>
			</g>
		</g>
		<line
   class="st1"
   x1="286.5"
   y1="173.5"
   x2="286.5"
   y2="286.5"
   id="line75" />
		<line
   class="st1"
   x1="275.5"
   y1="173.5"
   x2="275.5"
   y2="219.5"
   id="line77" />
	</g>
</g>
<g
   id="g92">
		<g
   id="g88">
			<path
   style="fill:#ffffff;stroke:#8cc63f;stroke-width:8;stroke-miterlimit:10"
   inkscape:connector-curvature="0"
   id="path82"
   d="M 90,403.8 H 79.1 c -3.3,0 -6,2.7 -6,6 v 4 h -4 c -3.3,0 -6,2.7 -6,6 V 430 c 0,3.3 2.7,6 6,6 h 10.3 c 3.3,0 6,-2.7 6,-6 v -2.6 H 90 c 3.3,0 6,-2.7 6,-6 v -11.6 c 0,-3.3 -2.7,-6 -6,-6 z"
   class="st8" />
			<path
   style="fill:#f9c73d"
   inkscape:connector-curvature="0"
   id="path84"
   d="m 77.8,429.6 h -7.3 c -0.9,0 -1.7,-0.8 -1.7,-1.7 v -6.6 c 0,-0.9 0.8,-1.7 1.7,-1.7 h 7.3 c 0.9,0 1.7,0.8 1.7,1.7 v 6.6 c 0,0.9 -0.8,1.7 -1.7,1.7 z"
   class="st9" />
			<path
   style="fill:#f9c73d"
   inkscape:connector-curvature="0"
   id="path86"
   d="m 87.8,421 h -7.3 c -0.9,0 -1.7,-0.8 -1.7,-1.7 V 412 c 0,-0.9 0.8,-1.7 1.7,-1.7 h 7.3 c 0.9,0 1.7,0.8 1.7,1.7 v 7.3 c 0,1 -0.7,1.7 -1.7,1.7 z"
   class="st9" />
		</g>
		<text
   style="font-style:normal;font-variant:normal;font-weight:normal;font-stretch:normal;font-size:19px;font-family:'MS UI Gothic';-inkscape-font-specification:'MS UI Gothic, Normal';font-variant-ligatures:normal;font-variant-caps:normal;font-variant-numeric:normal;font-feature-settings:normal;text-align:start;writing-mode:lr-tb;text-anchor:start"
   id="text90"
   class="st10 st11"
   transform="translate(104,428.1019)">vCenter</text>

	</g><g
   id="g102"
   transform="matrix(0.86903119,0,0,1,26.062794,0)">
		<g
   id="g98">
			<path
   style="fill:#8cc63f;stroke:#009245;stroke-width:0.25;stroke-miterlimit:10"
   inkscape:connector-curvature="0"
   id="path94"
   d="M 223.3,422.8 V 415 c 0,-1.9 -1.5,-3.4 -3.2,-3.4 h -4.2 v -10.1 h 6.9 c 5.1,0 9.2,4.3 9.2,9.7 v 15.3 c 0,5.3 -4.1,9.7 -9.2,9.7 h -6.9 v -9.8 h 4.2 c 1.8,-0.1 3.2,-1.7 3.2,-3.6 z"
   class="st12" />
			<path
   style="fill:#29abe2;stroke:#0071bc;stroke-width:0.25;stroke-miterlimit:10"
   inkscape:connector-curvature="0"
   id="path96"
   d="m 218.4,413.6 h -4.2 v -12.1 h -6.5 c -4.8,0 -8.7,4.3 -8.7,9.7 v 15.3 c 0,5.3 3.9,9.7 8.7,9.7 h 6.5 v -11.3 h 4.2 c 1.3,0 2.4,-1.2 2.4,-2.6 v -6 c -0.1,-1.6 -1.1,-2.7 -2.4,-2.7 z"
   class="st13" />
		</g>
		<text
   style="font-style:normal;font-variant:normal;font-weight:normal;font-stretch:normal;font-size:19px;font-family:'MS UI Gothic';-inkscape-font-specification:'MS UI Gothic, Normal';font-variant-ligatures:normal;font-variant-caps:normal;font-variant-numeric:normal;font-feature-settings:normal;text-align:start;writing-mode:lr-tb;text-anchor:start"
   id="text100"
   class="st10 st11"
   transform="translate(237,424.5165)">ハイブリッド・クラウド・サービス</text>

	</g><g
   id="g132">
		<g
   id="g128">
			<path
   style="fill:#29abe2"
   inkscape:connector-curvature="0"
   id="path104"
   d="m 459,436.1 h -13 c -6.6,0 -12,-5.4 -12,-12 v -9.6 c 0,-6.6 5.4,-12 12,-12 h 13 c 6.6,0 12,5.4 12,12 v 9.6 c 0,6.6 -5.4,12 -12,12 z"
   class="st6" />
			<g
   id="g126">
				<g
   id="g112">
					<path
   style="fill:#ffffff"
   inkscape:connector-curvature="0"
   id="path106"
   d="m 455.3,417.6 h -4.9 c -2.2,0 -4.1,-1.8 -4.1,-4.1 V 412 c 0,-2.2 1.8,-4.1 4.1,-4.1 h 4.9 c 2.2,0 4.1,1.8 4.1,4.1 v 1.5 c 0,2.3 -1.9,4.1 -4.1,4.1 z"
   class="st7" />
					<path
   style="fill:#29abe2"
   inkscape:connector-curvature="0"
   id="path108"
   d="m 454.5,416.2 h -3.4 c -1.1,0 -2.1,-0.9 -2.1,-2.1 v -1.4 c 0,-1.1 0.9,-2.1 2.1,-2.1 h 3.4 c 1.1,0 2.1,0.9 2.1,2.1 v 1.4 c 0,1.2 -0.9,2.1 -2.1,2.1 z"
   class="st6" />
					<path
   style="fill:#ffffff"
   inkscape:connector-curvature="0"
   id="path110"
   d="m 459.4,430.6 h -13.1 c -2.2,0 -4.1,-1.8 -4.1,-4.1 v -6.9 c 0,-2.2 1.8,-4.1 4.1,-4.1 h 13.1 c 2.2,0 4.1,1.8 4.1,4.1 v 6.9 c 0,2.3 -1.9,4.1 -4.1,4.1 z"
   class="st7" />
				</g>
				<g
   id="g124">
					<ellipse
   style="fill:#29abe2"
   id="ellipse114"
   ry="2.4000001"
   rx="2.7"
   cy="421.39999"
   cx="453.20001"
   class="st6" />
					<path
   style="fill:#29abe2"
   inkscape:connector-curvature="0"
   id="path116"
   d="m 452.8,428.6 v 0 c -0.6,0 -1,-0.5 -1,-1 v -4.8 c 0,-0.6 0.5,-1 1,-1 v 0 c 0.6,0 1,0.5 1,1 v 4.8 c 0.1,0.5 -0.4,1 -1,1 z"
   class="st6" />
					<path
   style="fill:#29abe2"
   inkscape:connector-curvature="0"
   id="path118"
   d="m 454.9,425.1 h -1.4 c -0.2,0 -0.3,-0.2 -0.3,-0.3 v 0 c 0,-0.2 0.2,-0.3 0.3,-0.3 h 1.4 c 0.2,0 0.3,0.2 0.3,0.3 v 0 c 0,0.2 -0.1,0.3 -0.3,0.3 z"
   class="st6" />
					<path
   style="fill:#29abe2"
   inkscape:connector-curvature="0"
   id="path120"
   d="m 454.9,426.5 h -1.4 c -0.2,0 -0.3,-0.2 -0.3,-0.3 v 0 c 0,-0.2 0.2,-0.3 0.3,-0.3 h 1.4 c 0.2,0 0.3,0.2 0.3,0.3 v 0 c 0,0.2 -0.1,0.3 -0.3,0.3 z"
   class="st6" />
					<path
   style="fill:#29abe2"
   inkscape:connector-curvature="0"
   id="path122"
   d="m 454.9,427.9 h -1.4 c -0.2,0 -0.3,-0.2 -0.3,-0.3 v 0 c 0,-0.2 0.2,-0.3 0.3,-0.3 h 1.4 c 0.2,0 0.3,0.2 0.3,0.3 v 0 c 0,0.1 -0.1,0.3 -0.3,0.3 z"
   class="st6" />
				</g>
			</g>
		</g>
		<text
   style="font-style:normal;font-variant:normal;font-weight:normal;font-stretch:normal;font-size:19px;font-family:'MS UI Gothic';-inkscape-font-specification:'MS UI Gothic, Normal';font-variant-ligatures:normal;font-variant-caps:normal;font-variant-numeric:normal;font-feature-settings:normal;text-align:start;writing-mode:lr-tb;text-anchor:start"
   id="text130"
   class="st10 st11"
   transform="translate(474.667,425.333)">クラウド・ゲートウェイ</text>

	</g>
<g
   id="hybrid_cloud_services">
	<g
   id="g143">
		<line
   class="st1"
   x1="214.5"
   y1="171.5"
   x2="214.5"
   y2="218.5"
   id="line135" />
		<g
   id="g141">
			<path
   class="st12"
   d="M223.7,154.3v-10.2c0-2.4-1.9-4.4-4.2-4.4H214v-13.1h9c6.6,0,12,5.7,12,12.6V159c0,6.9-5.4,12.6-12,12.6h-9     v-12.8h5.5C221.8,158.8,223.7,156.8,223.7,154.3z"
   id="path137" />
			<path
   class="st13"
   d="M217.2,142.2h-5.4v-15.7h-8.5c-6.2,0-11.3,5.7-11.3,12.6V159c0,6.9,5.1,12.6,11.3,12.6h8.5v-14.7h5.4     c1.7,0,3.1-1.5,3.1-3.4v-7.9C220.3,143.8,218.9,142.2,217.2,142.2z"
   id="path139" />
		</g>
	</g>
</g>
<g
   id="g150">
		<path
   style="fill:#f9c73d;stroke:#000000;stroke-width:0.75;stroke-miterlimit:10"
   inkscape:connector-curvature="0"
   id="path146"
   d="m 535,243.5 c 0,-12.7 -5.3,-23 -12,-23.5 v 0 H 88 v 0 c -6.7,0.5 -12,10.8 -12,23.5 0,12.7 5.3,23 12,23.5 v 0 h 435 v 0 c 6.7,-0.5 12,-10.8 12,-23.5 z"
   class="st14" />
		<ellipse
   style="fill:#ffffff;stroke:#000000;stroke-width:0.75;stroke-miterlimit:10"
   id="ellipse148"
   ry="19.5"
   rx="8.5"
   cy="244"
   cx="522"
   class="st15" />
	</g><text
   style="font-style:normal;font-variant:normal;font-weight:normal;font-stretch:normal;font-size:19px;font-family:'MS UI Gothic';-inkscape-font-specification:'MS UI Gothic, Normal';font-variant-ligatures:normal;font-variant-caps:normal;font-variant-numeric:normal;font-feature-settings:normal;text-align:start;writing-mode:lr-tb;text-anchor:start"
   id="text152"
   class="st10 st16"
   x="228"
   y="251">管理ネットワーク</text>

<g
   id="g159">
		<path
   style="fill:#f7931e;stroke:#000000;stroke-width:0.75;stroke-miterlimit:10"
   inkscape:connector-curvature="0"
   id="path155"
   d="m 534,310.5 c 0,-12.7 -5.3,-23 -12,-23.5 v 0 H 87 v 0 c -6.7,0.5 -12,10.8 -12,23.5 0,12.7 5.3,23 12,23.5 v 0 h 435 v 0 c 6.7,-0.5 12,-10.8 12,-23.5 z"
   class="st17" />
		<ellipse
   style="fill:#ffffff;stroke:#000000;stroke-width:0.75;stroke-miterlimit:10"
   id="ellipse157"
   ry="19.5"
   rx="8.5"
   cy="311"
   cx="521"
   class="st15" />
	</g><text
   style="font-style:normal;font-variant:normal;font-weight:normal;font-stretch:normal;font-size:19px;font-family:'MS UI Gothic';-inkscape-font-specification:'MS UI Gothic, Normal';font-variant-ligatures:normal;font-variant-caps:normal;font-variant-numeric:normal;font-feature-settings:normal;text-align:start;writing-mode:lr-tb;text-anchor:start"
   id="text161"
   class="st10 st16"
   x="213"
   y="319">vMotion ネットワーク</text>

<g
   id="vcenter">
	<g
   id="g174">
		<line
   class="st1"
   x1="135.5"
   y1="174.5"
   x2="135.5"
   y2="218.5"
   id="line164" />
		<g
   id="g172">
			<path
   class="st8"
   d="M158.6,125h-15.2c-4.6,0-8.4,3.8-8.4,8.4v5.6h-5.6c-4.6,0-8.4,3.8-8.4,8.4v14.2c0,4.6,3.8,8.4,8.4,8.4h14.3     c4.6,0,8.4-3.8,8.4-8.4V158h6.4c4.6,0,8.4-3.8,8.4-8.4v-16.2C167,128.8,163.2,125,158.6,125z"
   id="path166" />
			<path
   class="st9"
   d="M142.3,160.9h-11.6c-0.9,0-1.7-0.8-1.7-1.7v-10.5c0-0.9,0.8-1.7,1.7-1.7h11.6c0.9,0,1.7,0.8,1.7,1.7v10.5     C144,160.2,143.2,160.9,142.3,160.9z"
   id="path168" />
			<path
   class="st9"
   d="M156.3,149h-11.6c-0.9,0-1.7-0.8-1.7-1.7v-11.6c0-0.9,0.8-1.7,1.7-1.7h11.6c0.9,0,1.7,0.8,1.7,1.7v11.6     C158,148.2,157.2,149,156.3,149z"
   id="path170" />
		</g>
	</g>
</g>
<path
   class="st18"
   d="M 119.6,32.9 C 113,32.9 107,34.4 102.1,37 100.3,21.8 88,10 73,10 57.6,10 45,22.5 43.8,38.3 c -1.3,-0.5 -2.7,-0.8 -4.2,-0.8 -7.8,0 -14.2,8.2 -14.2,18.3 0,10.1 6.3,18.3 14.2,18.3 1.7,0 3.4,-0.4 4.9,-1.1 H 110 c 3,0.7 6.2,1.1 9.6,1.1 16.2,0 29.4,-9.2 29.4,-20.6 0,-11.4 -13.1,-20.6 -29.4,-20.6 z"
   id="path177"
   inkscape:connector-curvature="0"
   style="fill:#ffffff;stroke:#4d4d4d;stroke-width:2;stroke-miterlimit:10" /><text
   class="st10 st11"
   id="text179"
   style="font-style:normal;font-variant:normal;font-weight:normal;font-stretch:normal;font-size:17.90362358px;font-family:'MS UI Gothic';-inkscape-font-specification:'MS UI Gothic, Normal';font-variant-ligatures:normal;font-variant-caps:normal;font-variant-numeric:normal;font-feature-settings:normal;text-align:start;writing-mode:lr-tb;text-anchor:start;stroke-width:0.94229603"
   x="41.520683"
   y="55.659729"
   transform="scale(0.94229601,1.0612376)">データ・センター</text>

</svg>
