<?xml version="1.0" encoding="UTF-8" standalone="no"?>
<!-- Generator: Adobe Illustrator 21.0.0, SVG Export Plug-In . SVG Version: 6.00 Build 0)  -->

<svg
   xmlns:dc="http://purl.org/dc/elements/1.1/"
   xmlns:cc="http://creativecommons.org/ns#"
   xmlns:rdf="http://www.w3.org/1999/02/22-rdf-syntax-ns#"
   xmlns:svg="http://www.w3.org/2000/svg"
   xmlns="http://www.w3.org/2000/svg"
   xmlns:sodipodi="http://sodipodi.sourceforge.net/DTD/sodipodi-0.dtd"
   xmlns:inkscape="http://www.inkscape.org/namespaces/inkscape"
   version="1.1"
   x="0px"
   y="0px"
   viewBox="0 0 840 455"
   style="enable-background:new 0 0 840 455;"
   xml:space="preserve"
   id="svg259"
   sodipodi:docname="source_wan_optimizer.svg"
   inkscape:version="0.92.3 (2405546, 2018-03-11)"><metadata
   id="metadata265"><rdf:RDF><cc:Work
       rdf:about=""><dc:format>image/svg+xml</dc:format><dc:type
         rdf:resource="http://purl.org/dc/dcmitype/StillImage" /></cc:Work></rdf:RDF></metadata><defs
   id="defs263">
	

		
		
	
	
	
	
	

	
	

	
	
</defs><sodipodi:namedview
   pagecolor="#ffffff"
   bordercolor="#666666"
   borderopacity="1"
   objecttolerance="10"
   gridtolerance="10"
   guidetolerance="10"
   inkscape:pageopacity="0"
   inkscape:pageshadow="2"
   inkscape:window-width="1920"
   inkscape:window-height="1017"
   id="namedview261"
   showgrid="false"
   inkscape:zoom="1.0373626"
   inkscape:cx="424.82063"
   inkscape:cy="154.07878"
   inkscape:window-x="-8"
   inkscape:window-y="-8"
   inkscape:window-maximized="1"
   inkscape:current-layer="svg259" />
<style
   type="text/css"
   id="style2">
	.st0{fill:#E4EFCA;}
	.st1{fill:none;stroke:#000000;stroke-width:0.75;stroke-miterlimit:10;}
	.st2{fill:none;stroke:#000000;stroke-width:0.75;stroke-miterlimit:10;stroke-dasharray:4.9778,4.9778;}
	.st3{fill:none;stroke:#000000;stroke-width:0.75;stroke-miterlimit:10;stroke-dasharray:4.9182,4.9182;}
	.st4{fill:none;stroke:#000000;stroke-width:0.75;stroke-miterlimit:10;stroke-dasharray:4.9864,4.9864;}
	.st5{fill:none;stroke:#000000;stroke-width:0.75;stroke-miterlimit:10;stroke-dasharray:5.0308,5.0308;}
	.st6{fill:#29ABE2;}
	.st7{fill:#FFFFFF;}
	.st8{fill:#FFFFFF;stroke:#8CC63F;stroke-width:8;stroke-miterlimit:10;}
	.st9{fill:#F9C73D;}
	.st10{font-family:'MyriadPro-Regular';}
	.st11{font-size:18px;}
	.st12{fill:#8CC63F;stroke:#009245;stroke-width:0.25;stroke-miterlimit:10;}
	.st13{fill:#29ABE2;stroke:#0071BC;stroke-width:0.25;stroke-miterlimit:10;}
	.st14{fill:#F9C73D;stroke:#000000;stroke-width:0.75;stroke-miterlimit:10;}
	.st15{fill:#FFFFFF;stroke:#000000;stroke-width:0.75;stroke-miterlimit:10;}
	.st16{font-size:21px;}
	.st17{fill:#F7931E;stroke:#000000;stroke-width:0.75;stroke-miterlimit:10;}
	.st18{fill:#FFFFFF;stroke:#4D4D4D;stroke-width:2;stroke-miterlimit:10;}
</style>
<g
   id="inner_box">
	<g
   id="g24">
		<rect
   x="75.5"
   y="91"
   class="st0"
   width="677"
   height="275.5"
   id="rect4" />
		<g
   id="g22">
			<polyline
   class="st1"
   points="752.5,364 752.5,366.5 750,366.5    "
   id="polyline6" />
			<line
   class="st2"
   x1="745"
   y1="366.5"
   x2="80.5"
   y2="366.5"
   id="line8" />
			<polyline
   class="st1"
   points="78,366.5 75.5,366.5 75.5,364    "
   id="polyline10" />
			<line
   class="st3"
   x1="75.5"
   y1="359.1"
   x2="75.5"
   y2="96"
   id="line12" />
			<polyline
   class="st1"
   points="75.5,93.5 75.5,91 78,91    "
   id="polyline14" />
			<line
   class="st2"
   x1="83"
   y1="91"
   x2="747.5"
   y2="91"
   id="line16" />
			<polyline
   class="st1"
   points="750,91 752.5,91 752.5,93.5    "
   id="polyline18" />
			<line
   class="st3"
   x1="752.5"
   y1="98.4"
   x2="752.5"
   y2="361.5"
   id="line20" />
		</g>
	</g>
</g>
<g
   id="cloud_gateway">
</g>
<g
   id="outter_box">
	<g
   id="g46">
		<g
   id="g44">
			<polyline
   class="st1"
   points="783.5,388 783.5,390.5 781,390.5    "
   id="polyline28" />
			<line
   class="st4"
   x1="776"
   y1="390.5"
   x2="50.5"
   y2="390.5"
   id="line30" />
			<polyline
   class="st1"
   points="48,390.5 45.5,390.5 45.5,388    "
   id="polyline32" />
			<line
   class="st5"
   x1="45.5"
   y1="383"
   x2="45.5"
   y2="63.5"
   id="line34" />
			<polyline
   class="st1"
   points="45.5,61 45.5,58.5 48,58.5    "
   id="polyline36" />
			<line
   class="st4"
   x1="53"
   y1="58.5"
   x2="778.5"
   y2="58.5"
   id="line38" />
			<polyline
   class="st1"
   points="781,58.5 783.5,58.5 783.5,61    "
   id="polyline40" />
			<line
   class="st5"
   x1="783.5"
   y1="66"
   x2="783.5"
   y2="385.5"
   id="line42" />
		</g>
	</g>
</g>
<g
   id="lines">
	<g
   id="g79">
		<g
   id="g73">
			<path
   class="st6"
   d="M354,173.5h-27c-6.6,0-12-5.4-12-12v-22.3c0-6.6,5.4-12,12-12h27c6.6,0,12,5.4,12,12v22.3     C366,168.1,360.6,173.5,354,173.5z"
   id="path49" />
			<g
   id="g71">
				<g
   id="g57">
					<path
   class="st7"
   d="M345.9,148h-9.8c-2.2,0-4.1-1.8-4.1-4.1v-5.1c0-2.2,1.8-4.1,4.1-4.1h9.8c2.2,0,4.1,1.8,4.1,4.1v5.1       C349.9,146.1,348.1,148,345.9,148z"
   id="path51" />
					<path
   class="st6"
   d="M344.1,146.1h-6.3c-1.1,0-2.1-0.9-2.1-2.1v-3.5c0-1.1,0.9-2.1,2.1-2.1h6.3c1.1,0,2.1,0.9,2.1,2.1v3.5       C346.2,145.2,345.2,146.1,344.1,146.1z"
   id="path53" />
					<path
   class="st7"
   d="M351.5,165.9h-21.2c-2.2,0-4.1-1.8-4.1-4.1v-12.7c0-2.2,1.8-4.1,4.1-4.1h21.2c2.2,0,4.1,1.8,4.1,4.1v12.7       C355.6,164.1,353.8,165.9,351.5,165.9z"
   id="path55" />
				</g>
				<g
   id="g69">
					<ellipse
   class="st6"
   cx="341.4"
   cy="153.2"
   rx="3.8"
   ry="3.3"
   id="ellipse59" />
					<path
   class="st6"
   d="M341,163.1L341,163.1c-0.8,0-1.4-0.6-1.4-1.4v-6.6c0-0.8,0.6-1.4,1.4-1.4l0,0c0.8,0,1.4,0.6,1.4,1.4v6.6       C342.4,162.4,341.8,163.1,341,163.1z"
   id="path61" />
					<path
   class="st6"
   d="M343.8,158.4h-1.9c-0.3,0-0.5-0.2-0.5-0.5l0,0c0-0.3,0.2-0.5,0.5-0.5h1.9c0.3,0,0.5,0.2,0.5,0.5l0,0       C344.3,158.1,344.1,158.4,343.8,158.4z"
   id="path63" />
					<path
   class="st6"
   d="M343.8,160.3h-1.9c-0.3,0-0.5-0.2-0.5-0.5l0,0c0-0.3,0.2-0.5,0.5-0.5h1.9c0.3,0,0.5,0.2,0.5,0.5l0,0       C344.3,160,344.1,160.3,343.8,160.3z"
   id="path65" />
					<path
   class="st6"
   d="M343.8,162.1h-1.9c-0.3,0-0.5-0.2-0.5-0.5l0,0c0-0.3,0.2-0.5,0.5-0.5h1.9c0.3,0,0.5,0.2,0.5,0.5l0,0       C344.3,161.9,344.1,162.1,343.8,162.1z"
   id="path67" />
				</g>
			</g>
		</g>
		<line
   class="st1"
   x1="345.5"
   y1="173.5"
   x2="345.5"
   y2="286.5"
   id="line75" />
		<line
   class="st1"
   x1="334.5"
   y1="173.5"
   x2="334.5"
   y2="219.5"
   id="line77" />
	</g>
	<line
   class="st1"
   x1="426.5"
   y1="175.5"
   x2="426.5"
   y2="219.5"
   id="line81" />
</g>
<g
   id="g94">
		<g
   id="g90">
			<path
   style="fill:#ffffff;stroke:#8cc63f;stroke-width:8;stroke-miterlimit:10"
   inkscape:connector-curvature="0"
   id="path84"
   d="M 90,403.8 H 79.1 c -3.3,0 -6,2.7 -6,6 v 4 h -4 c -3.3,0 -6,2.7 -6,6 V 430 c 0,3.3 2.7,6 6,6 h 10.3 c 3.3,0 6,-2.7 6,-6 v -2.6 H 90 c 3.3,0 6,-2.7 6,-6 v -11.6 c 0,-3.3 -2.7,-6 -6,-6 z"
   class="st8" />
			<path
   style="fill:#f9c73d"
   inkscape:connector-curvature="0"
   id="path86"
   d="m 77.8,429.6 h -7.3 c -0.9,0 -1.7,-0.8 -1.7,-1.7 v -6.6 c 0,-0.9 0.8,-1.7 1.7,-1.7 h 7.3 c 0.9,0 1.7,0.8 1.7,1.7 v 6.6 c 0,0.9 -0.8,1.7 -1.7,1.7 z"
   class="st9" />
			<path
   style="fill:#f9c73d"
   inkscape:connector-curvature="0"
   id="path88"
   d="m 87.8,421 h -7.3 c -0.9,0 -1.7,-0.8 -1.7,-1.7 V 412 c 0,-0.9 0.8,-1.7 1.7,-1.7 h 7.3 c 0.9,0 1.7,0.8 1.7,1.7 v 7.3 c 0,1 -0.7,1.7 -1.7,1.7 z"
   class="st9" />
		</g>
		<text
   style="font-style:normal;font-variant:normal;font-weight:normal;font-stretch:normal;font-size:18.85733223px;font-family:'MS UI Gothic';-inkscape-font-specification:'MS UI Gothic, Normal';font-variant-ligatures:normal;font-variant-caps:normal;font-variant-numeric:normal;font-feature-settings:normal;text-align:start;writing-mode:lr-tb;text-anchor:start"
   id="text92"
   class="st10 st11"
   transform="translate(104,428.1019)">vCenter</text>

	</g><g
   id="g104"
   transform="matrix(0.84466279,0,0,1,32.310139,0)">
		<g
   id="g100">
			<path
   style="fill:#8cc63f;stroke:#009245;stroke-width:0.25;stroke-miterlimit:10"
   inkscape:connector-curvature="0"
   id="path96"
   d="M 232.3,422.8 V 415 c 0,-1.9 -1.5,-3.4 -3.2,-3.4 h -4.2 v -10.1 h 6.9 c 5.1,0 9.2,4.3 9.2,9.7 v 15.3 c 0,5.3 -4.1,9.7 -9.2,9.7 h -6.9 v -9.8 h 4.2 c 1.8,-0.1 3.2,-1.7 3.2,-3.6 z"
   class="st12" />
			<path
   style="fill:#29abe2;stroke:#0071bc;stroke-width:0.25;stroke-miterlimit:10"
   inkscape:connector-curvature="0"
   id="path98"
   d="m 227.4,413.6 h -4.2 v -12.1 h -6.5 c -4.8,0 -8.7,4.3 -8.7,9.7 v 15.3 c 0,5.3 3.9,9.7 8.7,9.7 h 6.5 v -11.3 h 4.2 c 1.3,0 2.4,-1.2 2.4,-2.6 v -6 c -0.1,-1.6 -1.1,-2.7 -2.4,-2.7 z"
   class="st13" />
		</g>
		<text
   style="font-style:normal;font-variant:normal;font-weight:normal;font-stretch:normal;font-size:18.85733223px;font-family:'MS UI Gothic';-inkscape-font-specification:'MS UI Gothic, Normal';font-variant-ligatures:normal;font-variant-caps:normal;font-variant-numeric:normal;font-feature-settings:normal;text-align:start;writing-mode:lr-tb;text-anchor:start"
   id="text102"
   class="st10 st11"
   transform="translate(246,424.5165)">ハイブリッド・クラウド・サービス</text>

	</g><g
   id="g134"
   transform="matrix(0.84898474,0,0,1,65.389608,0)">
		<g
   id="g130">
			<path
   style="fill:#29abe2"
   inkscape:connector-curvature="0"
   id="path106"
   d="m 458,436.1 h -13 c -6.6,0 -12,-5.4 -12,-12 v -9.6 c 0,-6.6 5.4,-12 12,-12 h 13 c 6.6,0 12,5.4 12,12 v 9.6 c 0,6.6 -5.4,12 -12,12 z"
   class="st6" />
			<g
   id="g128">
				<g
   id="g114">
					<path
   style="fill:#ffffff"
   inkscape:connector-curvature="0"
   id="path108"
   d="m 454.3,417.6 h -4.9 c -2.2,0 -4.1,-1.8 -4.1,-4.1 V 412 c 0,-2.2 1.8,-4.1 4.1,-4.1 h 4.9 c 2.2,0 4.1,1.8 4.1,4.1 v 1.5 c 0,2.3 -1.9,4.1 -4.1,4.1 z"
   class="st7" />
					<path
   style="fill:#29abe2"
   inkscape:connector-curvature="0"
   id="path110"
   d="m 453.5,416.2 h -3.4 c -1.1,0 -2.1,-0.9 -2.1,-2.1 v -1.4 c 0,-1.1 0.9,-2.1 2.1,-2.1 h 3.4 c 1.1,0 2.1,0.9 2.1,2.1 v 1.4 c 0,1.2 -0.9,2.1 -2.1,2.1 z"
   class="st6" />
					<path
   style="fill:#ffffff"
   inkscape:connector-curvature="0"
   id="path112"
   d="m 458.4,430.6 h -13.1 c -2.2,0 -4.1,-1.8 -4.1,-4.1 v -6.9 c 0,-2.2 1.8,-4.1 4.1,-4.1 h 13.1 c 2.2,0 4.1,1.8 4.1,4.1 v 6.9 c 0,2.3 -1.9,4.1 -4.1,4.1 z"
   class="st7" />
				</g>
				<g
   id="g126">
					<ellipse
   style="fill:#29abe2"
   id="ellipse116"
   ry="2.4000001"
   rx="2.7"
   cy="421.39999"
   cx="452.20001"
   class="st6" />
					<path
   style="fill:#29abe2"
   inkscape:connector-curvature="0"
   id="path118"
   d="m 451.8,428.6 v 0 c -0.6,0 -1,-0.5 -1,-1 v -4.8 c 0,-0.6 0.5,-1 1,-1 v 0 c 0.6,0 1,0.5 1,1 v 4.8 c 0.1,0.5 -0.4,1 -1,1 z"
   class="st6" />
					<path
   style="fill:#29abe2"
   inkscape:connector-curvature="0"
   id="path120"
   d="m 453.9,425.1 h -1.4 c -0.2,0 -0.3,-0.2 -0.3,-0.3 v 0 c 0,-0.2 0.2,-0.3 0.3,-0.3 h 1.4 c 0.2,0 0.3,0.2 0.3,0.3 v 0 c 0,0.2 -0.1,0.3 -0.3,0.3 z"
   class="st6" />
					<path
   style="fill:#29abe2"
   inkscape:connector-curvature="0"
   id="path122"
   d="m 453.9,426.5 h -1.4 c -0.2,0 -0.3,-0.2 -0.3,-0.3 v 0 c 0,-0.2 0.2,-0.3 0.3,-0.3 h 1.4 c 0.2,0 0.3,0.2 0.3,0.3 v 0 c 0,0.2 -0.1,0.3 -0.3,0.3 z"
   class="st6" />
					<path
   style="fill:#29abe2"
   inkscape:connector-curvature="0"
   id="path124"
   d="m 453.9,427.9 h -1.4 c -0.2,0 -0.3,-0.2 -0.3,-0.3 v 0 c 0,-0.2 0.2,-0.3 0.3,-0.3 h 1.4 c 0.2,0 0.3,0.2 0.3,0.3 v 0 c 0,0.1 -0.1,0.3 -0.3,0.3 z"
   class="st6" />
				</g>
			</g>
		</g>
		<text
   style="font-style:normal;font-variant:normal;font-weight:normal;font-stretch:normal;font-size:18.85733223px;font-family:'MS UI Gothic';-inkscape-font-specification:'MS UI Gothic, Normal';font-variant-ligatures:normal;font-variant-caps:normal;font-variant-numeric:normal;font-feature-settings:normal;text-align:start;writing-mode:lr-tb;text-anchor:start"
   id="text132"
   class="st10 st11"
   transform="translate(473.667,425.333)">クラウド・ゲートウェイ</text>

	</g><g
   id="g172">
		<g
   id="g168">
			<path
   style="fill:#29abe2"
   inkscape:connector-curvature="0"
   id="path136"
   d="m 636,438.8 h -18.8 c -6.6,0 -12,-5.4 -12,-12 V 412 c 0,-6.6 5.4,-12 12,-12 H 636 c 6.6,0 12,5.4 12,12 v 14.8 c 0,6.6 -5.4,12 -12,12 z"
   class="st6" />
			<g
   id="g166">
				<g
   id="g160">
					<g
   id="g154">
						<g
   id="g148">
							<g
   id="g142">
								<ellipse
   style="fill:#ffffff"
   id="ellipse138"
   ry="11.1"
   rx="11.5"
   cy="419.20001"
   cx="626.5"
   class="st7" />
								<ellipse
   style="fill:#29abe2"
   id="ellipse140"
   ry="5"
   rx="5.0999999"
   cy="419.20001"
   cx="626.5"
   class="st6" />
							</g>
							<rect
   style="fill:#ffffff"
   id="rect144"
   height="4"
   width="6.1999998"
   class="st7"
   y="405.10001"
   x="623.09998" />
							<rect
   style="fill:#ffffff"
   id="rect146"
   height="4.8000002"
   width="5.5"
   class="st7"
   y="428.89999"
   x="623.70001" />
						</g>
						<rect
   style="fill:#ffffff"
   id="rect150"
   height="5.5"
   width="4.8000002"
   class="st7"
   y="416.60001"
   x="636.5" />
						<rect
   style="fill:#ffffff"
   id="rect152"
   height="5.5"
   width="4.8000002"
   class="st7"
   y="416.60001"
   x="612" />
					</g>
					
						<rect
   style="fill:#ffffff"
   id="rect156"
   height="5.1999998"
   width="5.1999998"
   class="st7"
   transform="matrix(0.7526,0.6585,-0.6585,0.7526,423.1431,-304.8222)"
   y="408.10001"
   x="614.59998" />
					
						<rect
   style="fill:#ffffff"
   id="rect158"
   height="5.1999998"
   width="6.8000002"
   class="st7"
   transform="matrix(0.7526,0.6585,-0.6585,0.7526,439.1818,-312.5995)"
   y="425.5"
   x="632.20001" />
				</g>
				
					<rect
   style="fill:#ffffff"
   id="rect162"
   height="5.6999998"
   width="5.1999998"
   class="st7"
   transform="matrix(0.7071,0.7071,-0.7071,0.7071,477.1368,-329.4311)"
   y="408.39999"
   x="633.59998" />
				
					<rect
   style="fill:#ffffff"
   id="rect164"
   height="5.1999998"
   width="5.1999998"
   class="st7"
   transform="matrix(0.7071,0.7071,-0.7071,0.7071,483.6414,-311.4886)"
   y="425.5"
   x="615.20001" />
			</g>
		</g>
		<text
   style="font-style:normal;font-variant:normal;font-weight:normal;font-stretch:normal;font-size:18.85733223px;font-family:'MS UI Gothic';-inkscape-font-specification:'MS UI Gothic, Normal';font-variant-ligatures:normal;font-variant-caps:normal;font-variant-numeric:normal;font-feature-settings:normal;text-align:start;writing-mode:lr-tb;text-anchor:start"
   id="text170"
   class="st10 st11"
   transform="translate(653,426)">WAN 最適化プログラム</text>

	</g>
<g
   id="wan_optimizer">
	<g
   id="g207">
		<path
   class="st6"
   d="M442.3,175.8h-30c-6.6,0-12-5.4-12-12v-25c0-6.6,5.4-12,12-12h30c6.6,0,12,5.4,12,12v25    C454.3,170.4,448.9,175.8,442.3,175.8z"
   id="path175" />
		<g
   id="g205">
			<g
   id="g199">
				<g
   id="g193">
					<g
   id="g187">
						<g
   id="g181">
							<ellipse
   class="st7"
   cx="427.1"
   cy="151.1"
   rx="14.5"
   ry="14"
   id="ellipse177" />
							<ellipse
   class="st6"
   cx="427.1"
   cy="151.1"
   rx="6.5"
   ry="6.3"
   id="ellipse179" />
						</g>
						<rect
   x="422.8"
   y="133.3"
   class="st7"
   width="7.8"
   height="5"
   id="rect183" />
						<rect
   x="423.6"
   y="163.3"
   class="st7"
   width="7"
   height="6"
   id="rect185" />
					</g>
					<rect
   x="439.8"
   y="147.8"
   class="st7"
   width="6"
   height="7"
   id="rect189" />
					<rect
   x="408.8"
   y="147.8"
   class="st7"
   width="6"
   height="7"
   id="rect191" />
				</g>
				
					<rect
   x="412.1"
   y="137"
   transform="matrix(0.7526 0.6585 -0.6585 0.7526 195.1428 -238.8006)"
   class="st7"
   width="6.6"
   height="6.6"
   id="rect195" />
				
					<rect
   x="434.2"
   y="159"
   transform="matrix(0.7526 0.6585 -0.6585 0.7526 215.4081 -248.6248)"
   class="st7"
   width="8.6"
   height="6.6"
   id="rect197" />
			</g>
			
				<rect
   x="436.1"
   y="137.4"
   transform="matrix(0.7071 0.7071 -0.7071 0.7071 228.3931 -269.3897)"
   class="st7"
   width="6.5"
   height="7.2"
   id="rect201" />
			
				<rect
   x="412.9"
   y="159"
   transform="matrix(0.7071 0.7071 -0.7071 0.7071 236.6093 -246.7255)"
   class="st7"
   width="6.5"
   height="6.5"
   id="rect203" />
		</g>
	</g>
</g>
<g
   id="hybrid_cloud_services">
	<g
   id="g218">
		<line
   class="st1"
   x1="258.5"
   y1="171.5"
   x2="258.5"
   y2="218.5"
   id="line210" />
		<g
   id="g216">
			<path
   class="st12"
   d="M267.7,154.3v-10.2c0-2.4-1.9-4.4-4.2-4.4H258v-13.1h9c6.6,0,12,5.7,12,12.6V159c0,6.9-5.4,12.6-12,12.6h-9     v-12.8h5.5C265.8,158.8,267.7,156.8,267.7,154.3z"
   id="path212" />
			<path
   class="st13"
   d="M261.2,142.2h-5.4v-15.7h-8.5c-6.2,0-11.3,5.7-11.3,12.6V159c0,6.9,5.1,12.6,11.3,12.6h8.5v-14.7h5.4     c1.7,0,3.1-1.5,3.1-3.4v-7.9C264.3,143.8,262.9,142.2,261.2,142.2z"
   id="path214" />
		</g>
	</g>
</g>
<g
   id="g225">
		<path
   style="fill:#f9c73d;stroke:#000000;stroke-width:0.75;stroke-miterlimit:10"
   inkscape:connector-curvature="0"
   id="path221"
   d="m 700,243.5 c 0,-12.7 -6.7,-23 -15.1,-23.5 v 0 H 139.1 v 0 c -8.4,0.5 -15.1,10.8 -15.1,23.5 0,12.7 6.7,23 15.1,23.5 v 0 H 685 v 0 c 8.3,-0.5 15,-10.8 15,-23.5 z"
   class="st14" />
		<ellipse
   style="fill:#ffffff;stroke:#000000;stroke-width:0.75;stroke-miterlimit:10"
   id="ellipse223"
   ry="19.5"
   rx="10.7"
   cy="244"
   cx="683.70001"
   class="st15" />
	</g><text
   style="font-style:normal;font-variant:normal;font-weight:normal;font-stretch:normal;font-size:18.85733223px;font-family:'MS UI Gothic';-inkscape-font-specification:'MS UI Gothic, Normal';font-variant-ligatures:normal;font-variant-caps:normal;font-variant-numeric:normal;font-feature-settings:normal;text-align:start;writing-mode:lr-tb;text-anchor:start"
   id="text227"
   class="st10 st16"
   x="336"
   y="251">管理ネットワーク</text>

<g
   id="g234">
		<path
   style="fill:#f7931e;stroke:#000000;stroke-width:0.75;stroke-miterlimit:10"
   inkscape:connector-curvature="0"
   id="path230"
   d="m 701,310.5 c 0,-12.7 -6.7,-23 -15.1,-23.5 v 0 H 140.1 v 0 c -8.4,0.5 -15.1,10.8 -15.1,23.5 0,12.7 6.7,23 15.1,23.5 v 0 H 686 v 0 c 8.3,-0.5 15,-10.8 15,-23.5 z"
   class="st17" />
		<ellipse
   style="fill:#ffffff;stroke:#000000;stroke-width:0.75;stroke-miterlimit:10"
   id="ellipse232"
   ry="19.5"
   rx="10.7"
   cy="311"
   cx="684.70001"
   class="st15" />
	</g><text
   style="font-style:normal;font-variant:normal;font-weight:normal;font-stretch:normal;font-size:18.85733223px;font-family:'MS UI Gothic';-inkscape-font-specification:'MS UI Gothic, Normal';font-variant-ligatures:normal;font-variant-caps:normal;font-variant-numeric:normal;font-feature-settings:normal;text-align:start;writing-mode:lr-tb;text-anchor:start"
   id="text236"
   class="st10 st16"
   x="315"
   y="319">vMotion ネットワーク</text>

<g
   id="vcenter">
	<g
   id="g249">
		<line
   class="st1"
   x1="170.5"
   y1="174.5"
   x2="170.5"
   y2="218.5"
   id="line239" />
		<g
   id="g247">
			<path
   class="st8"
   d="M193.6,125h-15.2c-4.6,0-8.4,3.8-8.4,8.4v5.6h-5.6c-4.6,0-8.4,3.8-8.4,8.4v14.2c0,4.6,3.8,8.4,8.4,8.4h14.3     c4.6,0,8.4-3.8,8.4-8.4V158h6.4c4.6,0,8.4-3.8,8.4-8.4v-16.2C202,128.8,198.2,125,193.6,125z"
   id="path241" />
			<path
   class="st9"
   d="M177.3,160.9h-11.6c-0.9,0-1.7-0.8-1.7-1.7v-10.5c0-0.9,0.8-1.7,1.7-1.7h11.6c0.9,0,1.7,0.8,1.7,1.7v10.5     C179,160.2,178.2,160.9,177.3,160.9z"
   id="path243" />
			<path
   class="st9"
   d="M191.3,149h-11.6c-0.9,0-1.7-0.8-1.7-1.7v-11.6c0-0.9,0.8-1.7,1.7-1.7h11.6c0.9,0,1.7,0.8,1.7,1.7v11.6     C193,148.2,192.2,149,191.3,149z"
   id="path245" />
		</g>
	</g>
</g>
<path
   class="st18"
   d="M 139.6,32.9 C 133,32.9 127,34.4 122.1,37 120.3,21.8 108,10 93,10 77.6,10 65,22.5 63.8,38.3 c -1.3,-0.5 -2.7,-0.8 -4.2,-0.8 -7.8,0 -14.2,8.2 -14.2,18.3 0,10.1 6.3,18.3 14.2,18.3 1.7,0 3.4,-0.4 4.9,-1.1 H 130 c 3,0.7 6.2,1.1 9.6,1.1 16.2,0 29.4,-9.2 29.4,-20.6 0,-11.4 -13.1,-20.6 -29.4,-20.6 z"
   id="path252"
   inkscape:connector-curvature="0"
   style="fill:#ffffff;stroke:#4d4d4d;stroke-width:2;stroke-miterlimit:10" /><text
   class="st10 st11"
   id="text254"
   style="font-style:normal;font-variant:normal;font-weight:normal;font-stretch:normal;font-size:17.73652077px;font-family:'MS UI Gothic';-inkscape-font-specification:'MS UI Gothic, Normal';font-variant-ligatures:normal;font-variant-caps:normal;font-variant-numeric:normal;font-feature-settings:normal;text-align:start;writing-mode:lr-tb;text-anchor:start;stroke-width:0.94056362"
   x="62.863842"
   y="55.557396"
   transform="scale(0.94056359,1.0631923)">データ・センター</text>

</svg>
