<?xml version="1.0" encoding="utf-8"?>
<!-- Generator: Adobe Illustrator 19.0.0, SVG Export Plug-In . SVG Version: 6.00 Build 0)  -->
<svg version="1.1" xmlns="http://www.w3.org/2000/svg" xmlns:xlink="http://www.w3.org/1999/xlink" x="0px" y="0px"
	 viewBox="0 0 686 689" style="enable-background:new 0 0 686 689;" xml:space="preserve">
<style type="text/css">
	.st0{fill:#FFFFFF;}
	.st1{fill:none;stroke:#000000;stroke-miterlimit:10;}
	.st2{fill:none;stroke:#000000;stroke-miterlimit:10;stroke-dasharray:7.9157,7.9157;}
	.st3{fill:none;stroke:#000000;stroke-miterlimit:10;stroke-dasharray:7.903,7.903;}
	.st4{fill:#AADFF2;}
	.st5{fill:none;stroke:#000000;stroke-miterlimit:10;stroke-dasharray:7.9718,7.9718;}
	.st6{fill:none;stroke:#000000;stroke-miterlimit:10;stroke-dasharray:8.1177,8.1177;}
	.st7{fill:#E1E5BA;}
	.st8{fill:none;stroke:#000000;stroke-miterlimit:10;stroke-dasharray:8.1892,8.1892;}
	.st9{fill:#FFFFFF;stroke:#000000;stroke-width:3;stroke-miterlimit:10;}
	.st10{font-family:'ArialMT';}
	.st11{font-size:21px;}
	.st12{fill:#FF7BAC;}
	.st13{fill:#EF7C26;}
	.st14{fill:#F4BA51;}
	.st15{fill:#169ADB;stroke:#9BCCDD;stroke-width:0.5;stroke-miterlimit:10;}
	.st16{fill:url(#SVGID_1_);}
	.st17{font-size:11.4646px;}
	.st18{fill:url(#SVGID_2_);}
	.st19{font-size:9.2282px;}
	.st20{font-size:18px;}
	.st21{fill:#2B6782;}
	.st22{fill:#1E4C66;}
	.st23{font-size:16.5319px;}
</style>
<g id="Outter_dash_rectangle">
	<g>
		<rect x="9" y="64" class="st0" width="665" height="537.5"/>
		<g>
			<polyline class="st1" points="674,597.5 674,601.5 670,601.5 			"/>
			<line class="st2" x1="662.1" y1="601.5" x2="17" y2="601.5"/>
			<polyline class="st1" points="13,601.5 9,601.5 9,597.5 			"/>
			<line class="st3" x1="9" y1="589.6" x2="9" y2="72"/>
			<polyline class="st1" points="9,68 9,64 13,64 			"/>
			<line class="st2" x1="20.9" y1="64" x2="666" y2="64"/>
			<polyline class="st1" points="670,64 674,64 674,68 			"/>
			<line class="st3" x1="674" y1="75.9" x2="674" y2="593.5"/>
		</g>
	</g>
</g>
<g id="Public_address_space_rectangle">
	<g>
		<rect x="59.5" y="94.5" class="st4" width="574" height="146"/>
		<g>
			<polyline class="st1" points="633.5,236.5 633.5,240.5 629.5,240.5 			"/>
			<line class="st5" x1="621.5" y1="240.5" x2="67.5" y2="240.5"/>
			<polyline class="st1" points="63.5,240.5 59.5,240.5 59.5,236.5 			"/>
			<line class="st6" x1="59.5" y1="228.4" x2="59.5" y2="102.6"/>
			<polyline class="st1" points="59.5,98.5 59.5,94.5 63.5,94.5 			"/>
			<line class="st5" x1="71.5" y1="94.5" x2="625.5" y2="94.5"/>
			<polyline class="st1" points="629.5,94.5 633.5,94.5 633.5,98.5 			"/>
			<line class="st6" x1="633.5" y1="106.6" x2="633.5" y2="232.4"/>
		</g>
	</g>
	<g>
		<path d="M349.8,216.6c0.4,0.2,0.3,0.4-0.1,0.6c-0.8,3-2.2,5.6-4.1,8.1l-1.6-1.1c2.1-2.5,3.4-5.3,4.1-8.4L349.8,216.6z M355.1,215
			c2.3,3,4,6.1,5,9.4l-1.9,0.6c-1.2-3.7-2.7-6.7-4.6-8.9L355.1,215z M356.5,214.8c-0.4-0.4-0.6-0.8-0.6-1.4s0.2-1,0.6-1.4
			c0.4-0.4,0.8-0.6,1.4-0.6s1,0.2,1.4,0.6c0.4,0.4,0.6,0.8,0.6,1.4s-0.2,1-0.6,1.4c-0.4,0.4-0.8,0.6-1.4,0.6
			S356.9,215.2,356.5,214.8z M358.8,214.3c0.2-0.2,0.4-0.5,0.4-0.9c0-0.4-0.1-0.7-0.4-0.9c-0.2-0.2-0.5-0.4-0.9-0.4
			c-0.4,0-0.7,0.1-0.9,0.4c-0.2,0.2-0.4,0.5-0.4,0.9c0,0.4,0.1,0.7,0.4,0.9c0.2,0.2,0.5,0.4,0.9,0.4
			C358.3,214.7,358.6,214.6,358.8,214.3z"/>
		<path d="M364,215.5V214h10.6l1.1-0.2l0.8,0.7c-0.2,6.2-3.5,10.2-9.8,12l-1.3-1.5c5.9-1.3,8.9-4.4,9.2-9.4H364z M375.1,213.8
			c-0.6-0.7-1.2-1.2-1.8-1.8l0.8-0.8c0.7,0.5,1.3,1.1,1.9,1.8L375.1,213.8z M377.6,213.6c-0.8-0.8-1.5-1.5-2.1-2.1l0.8-0.7
			c0.7,0.6,1.5,1.2,2.1,2L377.6,213.6z"/>
		<path d="M385.1,221.4h-1.6v-7.9h1.5c0.5,0,0.5,0.2,0.1,0.6V221.4z M392.4,219.8c0,3.5-1.6,6-4.9,7.6l-1.4-1.2
			c3.1-1.4,4.7-3.6,4.7-6.5v-7h1.5c0.5,0.1,0.5,0.3,0.1,0.6V219.8z"/>
		<path d="M400.4,217.7l1.4-0.7c0.7,0.9,1.2,2,1.8,3.2l-1.4,0.8C401.6,219.7,401.1,218.6,400.4,217.7z M409.2,224
			c-1.4,1.4-3.1,2.4-5.3,3.2l-0.9-1.3c2.2-0.7,3.8-1.7,5.1-2.9c1.3-1.3,2.1-3.5,2.3-6.7l1.5,0.5c0.4,0.1,0.4,0.3,0,0.6
			C411.4,220.5,410.6,222.7,409.2,224z M404.1,216.8l1.3-0.7c0.7,0.9,1.3,1.9,1.8,3.2l-1.5,0.7C405.2,218.7,404.7,217.6,404.1,216.8
			z"/>
		<path d="M420.3,227.3l-1.3-1.3c4.6-1.9,7.4-5.1,8.3-9.7h-5.6c-1.1,1.8-2.2,3.2-3.4,4.3l-1.4-0.9c2.4-2.2,4-4.8,4.7-7.7l1.6,0.6
			c0.3,0.1,0.2,0.3-0.1,0.4c-0.2,0.6-0.4,1.2-0.8,1.8h5.1l0.6-0.4l1.3,1.3c0.3,0.3,0.3,0.6-0.2,0.7
			C428.2,221.5,425.3,225.1,420.3,227.3z"/>
		<path d="M448.5,218v3h-3v-3H448.5z"/>
		<path d="M465.6,218.8c0.1,3.6-1.4,6.3-4.6,8.3l-1.2-1.3c2.8-1.5,4.1-3.6,4.1-6.3v-3h1.5c0.4,0,0.5,0.2,0.1,0.5V218.8
			c1.7-1.3,3-2.6,3.9-3.8l-11.5,0.4l-0.1-1.6l12.8-0.4l0.5-0.1l1.1,1.3c0.1,0.2,0,0.3-0.4,0.2c-1.4,1.8-3.1,3.5-5.1,5.1L465.6,218.8
			z"/>
		<path d="M488.4,221.9c-2.5-1.3-4.5-2.1-6.1-2.5v7.3h-1.6v-14.1h1.4c0.6,0,0.6,0.2,0.2,0.6v4.4c2.3,0.7,4.6,1.5,7,2.7L488.4,221.9z
			 M488.3,215.7c-0.8-1-1.6-1.8-2.4-2.4l0.9-0.7c0.8,0.6,1.6,1.4,2.4,2.4L488.3,215.7z M490,214.3c-0.6-0.8-1.4-1.6-2.3-2.3l0.9-0.7
			c0.8,0.6,1.6,1.3,2.3,2.3L490,214.3z"/>
		<path d="M498.2,224.4c4.3-0.8,7.5-3,9.4-6.5l1.2,1.2c-2.3,3.9-6,6.4-11.3,7.2l-1.1-0.8l0.1-0.4v-11.7h1.5c0.4,0,0.4,0.2,0.1,0.5
			V224.4z"/>
		<path d="M526.1,224.9l-1.4,1.2c-2-2.1-3.9-3.8-5.7-5.2c-1.8,2-3.9,3.7-6.3,5.3l-1.3-1.2c5-3.2,8.2-6.5,9.6-9.7l-7.7,0.5l-0.2-1.7
			l8.2-0.4l0.8-0.2l1.1,1.1c0.3,0.3,0.2,0.5-0.3,0.6c-0.9,1.5-1.8,3-2.8,4.3C522.1,221.1,524.1,222.9,526.1,224.9z"/>
		<path d="M538.5,218v3h-3v-3H538.5z"/>
		<path d="M562.1,224.9l-1.4,1.2c-2-2.1-3.9-3.8-5.7-5.2c-1.8,2-3.9,3.7-6.3,5.3l-1.3-1.2c5-3.2,8.2-6.5,9.6-9.7l-7.7,0.5l-0.2-1.7
			l8.2-0.4l0.8-0.2l1.1,1.1c0.3,0.3,0.2,0.5-0.3,0.6c-0.9,1.5-1.8,3-2.8,4.3C558.1,221.1,560.1,222.9,562.1,224.9z"/>
		<path d="M580.9,222.6l-1.5,1.4c-2.4-2.3-4.7-4.4-6.9-6.3c-0.4-0.4-0.7-0.6-0.8-0.6c-0.2,0-0.5,0.2-0.8,0.6
			c-1.4,1.6-2.7,3.1-3.9,4.4l-1.3-1.5c1.8-1.8,3.6-3.5,5.2-5.1c0.3-0.3,0.6-0.4,1-0.4c0.4,0,0.7,0.1,1,0.4
			C574.8,217.3,577.5,219.7,580.9,222.6z M576,215.5c-0.4-0.4-0.6-0.8-0.6-1.4s0.2-1,0.6-1.4c0.4-0.4,0.8-0.6,1.4-0.6s1,0.2,1.4,0.6
			c0.4,0.4,0.6,0.8,0.6,1.4s-0.2,1-0.6,1.4c-0.4,0.4-0.8,0.6-1.4,0.6S576.4,215.8,576,215.5z M578.3,215c0.2-0.2,0.4-0.5,0.4-0.9
			c0-0.4-0.1-0.7-0.4-0.9c-0.2-0.2-0.5-0.4-0.9-0.4c-0.4,0-0.7,0.1-0.9,0.4c-0.2,0.2-0.4,0.5-0.4,0.9c0,0.4,0.1,0.7,0.4,0.9
			c0.2,0.2,0.5,0.4,0.9,0.4C577.8,215.3,578.1,215.2,578.3,215z"/>
		<path d="M583.1,220.2v-1.5h15.7v1.5H583.1z"/>
		<path d="M616.1,224.9l-1.4,1.2c-2-2.1-3.9-3.8-5.7-5.2c-1.8,2-3.9,3.7-6.3,5.3l-1.3-1.2c5-3.2,8.2-6.5,9.6-9.7l-7.7,0.5l-0.2-1.7
			l8.2-0.4l0.8-0.2l1.1,1.1c0.3,0.3,0.2,0.5-0.3,0.6c-0.9,1.5-1.8,3-2.8,4.3C612.1,221.1,614.1,222.9,616.1,224.9z"/>
	</g>
</g>
<g id="Private_address_space_rectangle">
	<g>
		<rect x="59.5" y="251.5" class="st7" width="574" height="311"/>
		<g>
			<polyline class="st1" points="633.5,558.5 633.5,562.5 629.5,562.5 			"/>
			<line class="st5" x1="621.5" y1="562.5" x2="67.5" y2="562.5"/>
			<polyline class="st1" points="63.5,562.5 59.5,562.5 59.5,558.5 			"/>
			<line class="st8" x1="59.5" y1="550.3" x2="59.5" y2="259.6"/>
			<polyline class="st1" points="59.5,255.5 59.5,251.5 63.5,251.5 			"/>
			<line class="st5" x1="71.5" y1="251.5" x2="625.5" y2="251.5"/>
			<polyline class="st1" points="629.5,251.5 633.5,251.5 633.5,255.5 			"/>
			<line class="st8" x1="633.5" y1="263.7" x2="633.5" y2="554.4"/>
		</g>
	</g>
	<g>
		<path d="M339,536.5V535h10.4l1.8,1.3c-0.2,5.7-3.4,9.4-9.6,11.1l-1.3-1.5c5.9-1.4,8.9-4.5,9.2-9.4H339z M350.2,535
			c-0.4-0.4-0.6-0.8-0.6-1.4s0.2-1,0.6-1.4c0.4-0.4,0.8-0.6,1.4-0.6s1,0.2,1.4,0.6c0.4,0.4,0.6,0.8,0.6,1.4s-0.2,1-0.6,1.4
			c-0.4,0.4-0.8,0.6-1.4,0.6S350.6,535.4,350.2,535z M352.5,534.6c0.2-0.2,0.4-0.5,0.4-0.9c0-0.4-0.1-0.7-0.4-0.9
			c-0.2-0.2-0.5-0.4-0.9-0.4c-0.4,0-0.7,0.1-0.9,0.4c-0.2,0.2-0.4,0.5-0.4,0.9c0,0.4,0.1,0.7,0.4,0.9c0.2,0.2,0.5,0.4,0.9,0.4
			C352,534.9,352.3,534.8,352.5,534.6z"/>
		<path d="M359.6,547.1c4.5-1.2,7.1-3.6,7.7-7.4h-10.7v-1.5h10.8l0.6-0.2l1.3,0.8c0.3,0.2,0.2,0.4-0.1,0.6c-0.8,4.7-3.5,7.7-8.2,9.1
			L359.6,547.1z M367.5,535.7h-9.7v-1.5h9.7V535.7z"/>
		<path d="M373.8,541.9c4.9-2.1,8.6-5,11.2-8.7l1.3,1.1c0.4,0.3,0.2,0.5-0.5,0.6c-0.9,1.2-2,2.4-3.4,3.6v9.6h-1.6v-8.2
			c-1.6,1.3-3.6,2.4-5.8,3.4L373.8,541.9z"/>
		<path d="M406.9,543.6l-1.5,1.4c-2.4-2.3-4.7-4.4-6.9-6.3c-0.4-0.4-0.7-0.6-0.8-0.6c-0.2,0-0.5,0.2-0.8,0.6
			c-1.4,1.6-2.7,3.1-3.9,4.4l-1.3-1.5c1.8-1.8,3.6-3.5,5.2-5.1c0.3-0.3,0.6-0.4,1-0.4c0.4,0,0.7,0.1,1,0.4
			C400.8,538.3,403.5,540.7,406.9,543.6z M401.4,534.3c0.7,0.6,1.5,1.4,2.4,2.3l-0.8,0.8c-0.9-0.9-1.7-1.7-2.4-2.2L401.4,534.3z
			 M405.4,535l-0.8,0.8c-0.9-1-1.7-1.7-2.3-2.3l0.8-0.8C403.9,533.3,404.6,534.1,405.4,535z"/>
		<path d="M409.1,541.2v-1.5h15.7v1.5H409.1z"/>
		<path d="M441.4,541.2l-0.8,1.6c-2.5-1.3-4.5-2.1-6.1-2.5v7.3h-1.6v-14.1h1.4c0.6,0,0.6,0.2,0.2,0.6v4.4
			C436.7,539.2,439.1,540.1,441.4,541.2z"/>
		<path d="M454.5,539v3h-3v-3H454.5z"/>
		<path d="M471.6,539.8c0.1,3.6-1.4,6.3-4.6,8.3l-1.2-1.3c2.8-1.5,4.1-3.6,4.1-6.3v-3h1.5c0.4,0,0.5,0.2,0.1,0.5V539.8
			c1.7-1.3,3-2.6,3.9-3.8l-11.5,0.4l-0.1-1.6l12.8-0.4l0.5-0.1l1.1,1.3c0.1,0.2,0,0.3-0.4,0.2c-1.4,1.8-3.1,3.5-5.1,5.1L471.6,539.8
			z"/>
		<path d="M494.4,542.9c-2.5-1.3-4.5-2.1-6.1-2.5v7.3h-1.6v-14.1h1.4c0.6,0,0.6,0.2,0.2,0.6v4.4c2.3,0.7,4.6,1.5,7,2.7L494.4,542.9z
			 M494.3,536.7c-0.8-1-1.6-1.8-2.4-2.4l0.9-0.7c0.8,0.6,1.6,1.4,2.4,2.4L494.3,536.7z M496,535.3c-0.6-0.8-1.4-1.6-2.3-2.3l0.9-0.7
			c0.8,0.6,1.6,1.3,2.3,2.3L496,535.3z"/>
		<path d="M504.2,545.4c4.3-0.8,7.5-3,9.4-6.5l1.2,1.2c-2.3,3.9-6,6.4-11.3,7.2l-1.1-0.8l0.1-0.4v-11.7h1.5c0.4,0,0.4,0.2,0.1,0.5
			V545.4z"/>
		<path d="M532.1,545.9l-1.4,1.2c-2-2.1-3.9-3.8-5.7-5.2c-1.8,2-3.9,3.7-6.3,5.3l-1.3-1.2c5-3.2,8.2-6.5,9.6-9.7l-7.7,0.5l-0.2-1.7
			l8.2-0.4l0.8-0.2l1.1,1.1c0.3,0.3,0.2,0.5-0.3,0.6c-0.9,1.5-1.8,3-2.8,4.3C528.1,542.1,530.1,543.9,532.1,545.9z"/>
		<path d="M544.5,539v3h-3v-3H544.5z"/>
		<path d="M568.1,545.9l-1.4,1.2c-2-2.1-3.9-3.8-5.7-5.2c-1.8,2-3.9,3.7-6.3,5.3l-1.3-1.2c5-3.2,8.2-6.5,9.6-9.7l-7.7,0.5l-0.2-1.7
			l8.2-0.4l0.8-0.2l1.1,1.1c0.3,0.3,0.2,0.5-0.3,0.6c-0.9,1.5-1.8,3-2.8,4.3C564.1,542.1,566.1,543.9,568.1,545.9z"/>
		<path d="M586.9,543.6l-1.5,1.4c-2.4-2.3-4.7-4.4-6.9-6.3c-0.4-0.4-0.7-0.6-0.8-0.6c-0.2,0-0.5,0.2-0.8,0.6
			c-1.4,1.6-2.7,3.1-3.9,4.4l-1.3-1.5c1.8-1.8,3.6-3.5,5.2-5.1c0.3-0.3,0.6-0.4,1-0.4c0.4,0,0.7,0.1,1,0.4
			C580.8,538.3,583.5,540.7,586.9,543.6z M582,536.5c-0.4-0.4-0.6-0.8-0.6-1.4s0.2-1,0.6-1.4c0.4-0.4,0.8-0.6,1.4-0.6s1,0.2,1.4,0.6
			c0.4,0.4,0.6,0.8,0.6,1.4s-0.2,1-0.6,1.4c-0.4,0.4-0.8,0.6-1.4,0.6S582.4,536.8,582,536.5z M584.3,536c0.2-0.2,0.4-0.5,0.4-0.9
			c0-0.4-0.1-0.7-0.4-0.9c-0.2-0.2-0.5-0.4-0.9-0.4c-0.4,0-0.7,0.1-0.9,0.4c-0.2,0.2-0.4,0.5-0.4,0.9c0,0.4,0.1,0.7,0.4,0.9
			c0.2,0.2,0.5,0.4,0.9,0.4C583.8,536.3,584.1,536.2,584.3,536z"/>
		<path d="M589.1,541.2v-1.5h15.7v1.5H589.1z"/>
		<path d="M622.1,545.9l-1.4,1.2c-2-2.1-3.9-3.8-5.7-5.2c-1.8,2-3.9,3.7-6.3,5.3l-1.3-1.2c5-3.2,8.2-6.5,9.6-9.7l-7.7,0.5l-0.2-1.7
			l8.2-0.4l0.8-0.2l1.1,1.1c0.3,0.3,0.2,0.5-0.3,0.6c-0.9,1.5-1.8,3-2.8,4.3C618.1,542.1,620.1,543.9,622.1,545.9z"/>
	</g>
</g>
<g id="ibm_cloud">
	<path class="st9" d="M141.2,59.9c0-11.4-13.4-20.6-29.9-20.6c-1.6,0-3.2,0.1-4.7,0.3c-1-2.2-2.6-4.2-4.6-5.8
		c-4.7-3.8-10.8-4.5-15.7-2.3C83.5,16.9,72,6,58.2,6C43.8,6,32,17.8,29.8,33.2c-0.1,0-0.2,0-0.4,0c-11.6,0-21,10.6-21,23.7
		c0,10,5.5,18.5,13.2,22v0.9h2.4c1.7,0.5,3.5,0.8,5.3,0.8c1.8,0,3.6-0.3,5.3-0.8h68.4c2.6,0.5,5.3,0.8,8.1,0.8
		c2.8,0,5.5-0.3,8.1-0.8h2.4v-0.5C133.1,76.3,141.2,68.8,141.2,59.9z"/>
	<text transform="matrix(1 0 0 1 21 62)" class="st10 st11">IBM Cloud</text>
</g>
<g id="lines">
	<line class="st1" x1="128" y1="190" x2="128" y2="406.5"/>
	<line class="st1" x1="262.5" y1="381" x2="262.5" y2="407.5"/>
</g>
<g id="pubic_VLAN_native">
	<g>
		<g>
			<g>
				<path class="st12" d="M103.5,190.5L103.5,190.5l-0.4-0.1c-7.7-1.1-13.6-10.3-13.6-21.4s5.8-20.3,13.6-21.4l0.4-0.1v0h485.3
					l0.2,0c7.6,0.4,13.5,9.8,13.5,21.5s-5.9,21.1-13.5,21.5l-0.4,0H103.5z"/>
				<path d="M588.6,148l0.3,0c7.2,0.4,13.1,9.8,13.1,21s-5.9,20.6-13.1,21l-0.2,0H103.8l-0.7-0.1c-7.4-1-13.1-10.2-13.1-20.9
					s5.8-19.9,13.1-20.9l0.7-0.1H588.6 M589,147H103v0.1c-7.9,1.1-14,10.5-14,21.9c0,11.4,6.1,20.8,14,21.9v0.1h486v0
					c7.8-0.4,14-10.1,14-22C603,157.1,596.8,147.4,589,147L589,147L589,147z"/>
			</g>
			<g>
				<path class="st0" d="M587.5,186.9c-5.5,0-10-8.2-10-18.4c0-10.1,4.5-18.4,10-18.4c5.5,0,10,8.2,10,18.4
					C597.5,178.7,593,186.9,587.5,186.9z"/>
				<path d="M587.5,150.7c5.1,0,9.5,8.2,9.5,17.9c0,9.7-4.4,17.9-9.5,17.9c-5.1,0-9.5-8.2-9.5-17.9
					C578,158.9,582.4,150.7,587.5,150.7 M587.5,149.7c-5.8,0-10.5,8.4-10.5,18.9c0,10.4,4.7,18.9,10.5,18.9S598,179,598,168.6
					C598,158.1,593.3,149.7,587.5,149.7L587.5,149.7z"/>
			</g>
		</g>
	</g>
	<g>
		<path d="M224.5,166.4c0.4,0.2,0.3,0.4-0.1,0.6c-0.8,3-2.2,5.6-4.1,8.1l-1.6-1.1c2.1-2.5,3.4-5.3,4.1-8.4L224.5,166.4z
			 M229.8,164.8c2.3,3,4,6.1,5,9.4l-1.9,0.6c-1.2-3.7-2.7-6.7-4.6-8.9L229.8,164.8z M231.3,164.6c-0.4-0.4-0.6-0.8-0.6-1.4
			s0.2-1,0.6-1.4c0.4-0.4,0.8-0.6,1.4-0.6s1,0.2,1.4,0.6c0.4,0.4,0.6,0.8,0.6,1.4s-0.2,1-0.6,1.4c-0.4,0.4-0.8,0.6-1.4,0.6
			S231.6,164.9,231.3,164.6z M233.6,164.1c0.2-0.2,0.4-0.5,0.4-0.9c0-0.4-0.1-0.7-0.4-0.9c-0.2-0.2-0.5-0.4-0.9-0.4
			c-0.4,0-0.7,0.1-0.9,0.4c-0.2,0.2-0.4,0.5-0.4,0.9c0,0.4,0.1,0.7,0.4,0.9c0.2,0.2,0.5,0.4,0.9,0.4
			C233,164.4,233.3,164.3,233.6,164.1z"/>
		<path d="M238.8,165.3v-1.5h10.6l1.1-0.2l0.8,0.7c-0.2,6.2-3.5,10.2-9.8,12l-1.3-1.5c5.9-1.3,8.9-4.4,9.2-9.4H238.8z M249.8,163.5
			c-0.6-0.7-1.2-1.2-1.8-1.8l0.8-0.8c0.7,0.5,1.3,1.1,1.9,1.8L249.8,163.5z M252.3,163.3c-0.8-0.8-1.5-1.5-2.1-2.1l0.8-0.7
			c0.7,0.6,1.5,1.2,2.1,2L252.3,163.3z"/>
		<path d="M259.9,171.1h-1.6v-7.9h1.5c0.5,0,0.5,0.2,0.1,0.6V171.1z M267.1,169.6c0,3.5-1.6,6-4.9,7.6l-1.4-1.2
			c3.1-1.4,4.7-3.6,4.7-6.5v-7h1.5c0.5,0.1,0.5,0.3,0.1,0.6V169.6z"/>
		<path d="M275.2,167.5l1.4-0.7c0.7,0.9,1.2,2,1.8,3.2l-1.4,0.8C276.4,169.4,275.8,168.3,275.2,167.5z M284,173.8
			c-1.4,1.4-3.1,2.4-5.3,3.2l-0.9-1.3c2.2-0.7,3.8-1.7,5.1-2.9c1.3-1.3,2.1-3.5,2.3-6.7l1.5,0.5c0.4,0.1,0.4,0.3,0,0.6
			C286.2,170.2,285.3,172.4,284,173.8z M278.9,166.5l1.3-0.7c0.7,0.9,1.3,1.9,1.8,3.2l-1.5,0.7C280,168.4,279.4,167.4,278.9,166.5z"
			/>
		<path d="M295.1,177.1l-1.3-1.3c4.6-1.9,7.4-5.1,8.3-9.7h-5.6c-1.1,1.8-2.2,3.2-3.4,4.3l-1.4-0.9c2.4-2.2,4-4.8,4.7-7.7l1.6,0.6
			c0.3,0.1,0.2,0.3-0.1,0.4c-0.2,0.6-0.4,1.2-0.8,1.8h5.1l0.6-0.4l1.3,1.3c0.3,0.3,0.3,0.6-0.2,0.7
			C303,171.2,300.1,174.9,295.1,177.1z"/>
		<path d="M317.8,175.8l-5-12.9h1.8l3.3,9.4c0.3,0.8,0.5,1.5,0.7,2.1c0.2-0.7,0.4-1.4,0.7-2.1l3.5-9.4h1.7l-5,12.9H317.8z"/>
		<path d="M326.1,175.8v-12.9h1.7v11.4h6.3v1.5H326.1z"/>
		<path d="M334.7,175.8l4.9-12.9h1.8l5.3,12.9h-1.9l-1.5-3.9H338l-1.4,3.9H334.7z M338.5,170.5h4.4l-1.3-3.6c-0.4-1.1-0.7-2-0.9-2.7
			c-0.2,0.8-0.4,1.6-0.7,2.5L338.5,170.5z"/>
		<path d="M348.1,175.8v-12.9h1.7l6.8,10.1v-10.1h1.6v12.9h-1.7l-6.8-10.1v10.1H348.1z"/>
		<path d="M369,179.5c-0.9-1.1-1.6-2.4-2.2-3.9s-0.9-3-0.9-4.6c0-1.4,0.2-2.7,0.7-4c0.5-1.5,1.3-3,2.4-4.4h1.1
			c-0.7,1.2-1.2,2.1-1.4,2.6c-0.4,0.8-0.6,1.7-0.8,2.5c-0.3,1.1-0.4,2.2-0.4,3.3c0,2.8,0.9,5.6,2.6,8.4H369z"/>
		<path d="M383.3,164.5l0.4-0.1l0.8,1.1c0.2,0.3,0.1,0.5-0.3,0.5c-1,1-2.3,2.2-3.9,3.4v7.4h-1.6v-6.3c-1.5,1-3.3,2-5.2,2.8l-1.2-1.3
			c3.9-1.5,7.1-3.4,9.6-6l-7.9,0.4l-0.2-1.5l5-0.1v-3.2h1.4c0.4,0.1,0.5,0.3,0.2,0.6v2.5L383.3,164.5z M381.8,170.2l1.1-1.3
			c1.7,0.9,3.2,1.9,4.4,3l-1.2,1.4C384.5,171.9,383.1,170.9,381.8,170.2z"/>
		<path d="M390.5,170.6c4.9-2.1,8.6-5,11.2-8.7l1.3,1.1c0.4,0.3,0.2,0.5-0.5,0.6c-0.9,1.2-2,2.4-3.4,3.6v9.6h-1.6v-8.2
			c-1.6,1.3-3.6,2.4-5.8,3.4L390.5,170.6z"/>
		<path d="M415.6,168.7h-7v-1.5h14.4v1.5h-5.8v0.9c0,3-1.1,5.4-3.2,7.3l-1.4-1.1c2-1.5,3-3.6,3-6.3V168.7z M411.1,164.4v-1.5h9.4
			v1.5H411.1z"/>
		<path d="M434.9,177.2h-1.4v-6.5c-1,0.8-2.6,1.7-4.6,2.7l-1-1.2c4.5-2.2,7.5-4.5,9.1-7.1l1.2,0.9c0.3,0.2,0.2,0.4-0.3,0.5
			c-0.8,1-1.8,2-3,3V177.2z"/>
		<path d="M445.8,165.3v-1.5h10.6l1.1-0.2l0.8,0.7c-0.2,6.2-3.5,10.2-9.8,12l-1.3-1.5c5.9-1.3,8.9-4.4,9.2-9.4H445.8z M456.8,163.5
			c-0.6-0.7-1.2-1.2-1.8-1.8l0.8-0.8c0.7,0.5,1.3,1.1,1.9,1.8L456.8,163.5z M459.4,163.3c-0.8-0.8-1.5-1.5-2.1-2.1l0.8-0.7
			c0.7,0.6,1.5,1.2,2.1,2L459.4,163.3z"/>
		<path d="M463,179.5h-1.1c1.8-2.8,2.6-5.6,2.6-8.4c0-1.1-0.1-2.2-0.4-3.3c-0.2-0.9-0.5-1.7-0.8-2.5c-0.2-0.5-0.7-1.4-1.4-2.6h1.1
			c1.1,1.5,1.9,2.9,2.4,4.4c0.5,1.3,0.7,2.6,0.7,4c0,1.6-0.3,3.1-0.9,4.6C464.6,177.1,463.9,178.4,463,179.5z"/>
	</g>
</g>
<g id="security_lock_icon">
</g>
<g id="security_lock_bottom">
</g>
<g id="gear_bottom">
</g>
<g id="gear_icon">
</g>
<g id="vSAN_vMotion">
	<g id="Layer_7">
	</g>
	<g>
		<g>
			<path class="st13" d="M103.5,506.5L103.5,506.5l-0.4-0.1c-7.7-1-13.6-10-13.6-20.9s5.8-19.9,13.6-20.9l0.4-0.1v0h485.3l0.2,0
				c7.6,0.4,13.5,9.6,13.5,21s-5.9,20.6-13.5,21l-0.4,0H103.5z"/>
			<path d="M588.6,465l0.3,0c7.2,0.4,13.1,9.6,13.1,20.5s-5.9,20.1-13.1,20.5l-0.2,0H103.8l-0.7-0.1c-7.4-1-13.1-9.9-13.1-20.4
				c0-10.5,5.8-19.4,13.1-20.4l0.7-0.1H588.6 M589,464H103v0.1c-7.9,1-14,10.2-14,21.4s6.1,20.4,14,21.4v0.1h486v0
				c7.8-0.4,14-9.9,14-21.5S596.8,464.4,589,464L589,464L589,464z"/>
		</g>
		<g>
			<path class="st0" d="M587.5,503c-5.5,0-10-8-10-17.9c0-9.9,4.5-17.9,10-17.9c5.5,0,10,8,10,17.9C597.5,494.9,593,503,587.5,503z"
				/>
			<path d="M587.5,467.6c5.1,0,9.5,8,9.5,17.4c0,9.4-4.4,17.4-9.5,17.4c-5.1,0-9.5-8-9.5-17.4C578,475.6,582.4,467.6,587.5,467.6
				 M587.5,466.6c-5.8,0-10.5,8.3-10.5,18.4c0,10.2,4.7,18.4,10.5,18.4s10.5-8.3,10.5-18.4C598,474.9,593.3,466.6,587.5,466.6
				L587.5,466.6z"/>
		</g>
	</g>
	<g>
		<path d="M223.8,494l-3.6-9.3h1.7l2,5.6c0.2,0.6,0.4,1.2,0.6,1.9c0.1-0.5,0.3-1.1,0.6-1.8l2.1-5.7h1.6l-3.5,9.3H223.8z"/>
		<path d="M229.8,489.9l1.6-0.1c0.1,0.6,0.3,1.2,0.5,1.6c0.3,0.4,0.7,0.7,1.3,1c0.6,0.3,1.2,0.4,2,0.4c0.7,0,1.2-0.1,1.7-0.3
			s0.9-0.5,1.1-0.8s0.4-0.7,0.4-1.1c0-0.4-0.1-0.8-0.4-1.1s-0.6-0.6-1.2-0.8c-0.3-0.1-1.1-0.3-2.3-0.6s-2-0.6-2.5-0.8
			c-0.6-0.3-1.1-0.7-1.4-1.2s-0.5-1-0.5-1.6c0-0.7,0.2-1.3,0.6-1.8s0.9-1,1.6-1.3s1.5-0.4,2.4-0.4c1,0,1.8,0.2,2.5,0.5
			c0.7,0.3,1.3,0.8,1.7,1.4s0.6,1.3,0.6,2l-1.6,0.1c-0.1-0.8-0.4-1.4-0.9-1.8s-1.3-0.6-2.2-0.6c-1,0-1.8,0.2-2.3,0.6
			c-0.5,0.4-0.7,0.8-0.7,1.4c0,0.5,0.2,0.8,0.5,1.1c0.3,0.3,1.2,0.6,2.6,0.9c1.4,0.3,2.3,0.6,2.9,0.8c0.8,0.3,1.3,0.8,1.7,1.3
			s0.5,1.1,0.5,1.8c0,0.7-0.2,1.3-0.6,1.9c-0.4,0.6-1,1.1-1.7,1.4c-0.7,0.3-1.6,0.5-2.5,0.5c-1.2,0-2.1-0.2-2.9-0.5
			s-1.4-0.9-1.9-1.5C230.1,491.5,229.8,490.7,229.8,489.9z"/>
		<path d="M241,494l4.9-12.9h1.8L253,494h-1.9l-1.5-3.9h-5.4l-1.4,3.9H241z M244.7,488.7h4.4l-1.3-3.6c-0.4-1.1-0.7-2-0.9-2.7
			c-0.2,0.8-0.4,1.6-0.7,2.5L244.7,488.7z"/>
		<path d="M254.4,494v-12.9h1.7l6.8,10.1v-10.1h1.6V494h-1.7l-6.8-10.1V494H254.4z"/>
		<path d="M279.6,492.5c-0.5,0.6-1.1,1-1.7,1.3c-0.6,0.3-1.3,0.4-2,0.4c-1.3,0-2.4-0.4-3.1-1.3c-0.6-0.7-0.9-1.5-0.9-2.4
			c0-0.8,0.3-1.5,0.8-2.2c0.5-0.6,1.3-1.2,2.3-1.7c-0.6-0.7-1-1.2-1.2-1.6s-0.3-0.8-0.3-1.2c0-0.8,0.3-1.4,0.9-2
			c0.6-0.6,1.4-0.9,2.3-0.9c0.9,0,1.6,0.3,2.2,0.8s0.8,1.2,0.8,1.9c0,1.2-0.8,2.3-2.4,3.1l2.3,2.9c0.3-0.5,0.5-1.1,0.6-1.8l1.6,0.4
			c-0.3,1.1-0.7,2.1-1.1,2.8c0.6,0.8,1.3,1.4,2,2l-1.1,1.3C280.9,493.9,280.2,493.3,279.6,492.5z M278.6,491.2l-2.9-3.6
			c-0.9,0.5-1.4,1-1.7,1.4s-0.4,0.9-0.4,1.3c0,0.5,0.2,1.1,0.6,1.6s1,0.8,1.8,0.8c0.5,0,1-0.1,1.5-0.4S278.3,491.7,278.6,491.2z
			 M276.3,485.8c0.7-0.4,1.1-0.8,1.3-1.1s0.3-0.6,0.3-1c0-0.4-0.1-0.8-0.4-1.1c-0.3-0.3-0.6-0.4-1-0.4c-0.4,0-0.8,0.1-1.1,0.4
			s-0.4,0.6-0.4,1c0,0.2,0.1,0.4,0.2,0.6c0.1,0.2,0.3,0.5,0.5,0.7L276.3,485.8z"/>
		<path d="M291.8,494l-3.6-9.3h1.7l2,5.6c0.2,0.6,0.4,1.2,0.6,1.9c0.1-0.5,0.3-1.1,0.6-1.8l2.1-5.7h1.6l-3.5,9.3H291.8z"/>
		<path d="M298.4,494v-12.9h2.6l3,9.1c0.3,0.8,0.5,1.5,0.6,1.9c0.1-0.5,0.4-1.2,0.7-2.1l3.1-9h2.3V494H309v-10.8l-3.7,10.8h-1.5
			l-3.7-11v11H298.4z"/>
		<path d="M312.6,489.3c0-1.7,0.5-3,1.4-3.8c0.8-0.7,1.8-1,2.9-1c1.3,0,2.3,0.4,3.1,1.3s1.2,2,1.2,3.5c0,1.2-0.2,2.1-0.5,2.8
			c-0.4,0.7-0.9,1.2-1.6,1.6c-0.7,0.4-1.4,0.6-2.3,0.6c-1.3,0-2.4-0.4-3.2-1.3C313,492.1,312.6,490.9,312.6,489.3z M314.2,489.3
			c0,1.2,0.3,2.1,0.8,2.7c0.5,0.6,1.2,0.9,2,0.9c0.8,0,1.4-0.3,2-0.9s0.8-1.5,0.8-2.7c0-1.2-0.3-2-0.8-2.6c-0.5-0.6-1.2-0.9-2-0.9
			c-0.8,0-1.4,0.3-2,0.9S314.2,488.1,314.2,489.3z"/>
		<path d="M326.7,492.6l0.2,1.4c-0.4,0.1-0.8,0.1-1.2,0.1c-0.6,0-1-0.1-1.3-0.3s-0.5-0.4-0.7-0.7s-0.2-0.9-0.2-1.9v-5.4h-1.2v-1.2
			h1.2v-2.3l1.6-0.9v3.3h1.6v1.2h-1.6v5.5c0,0.5,0,0.7,0.1,0.9c0.1,0.1,0.1,0.2,0.3,0.3c0.1,0.1,0.3,0.1,0.5,0.1
			C326.1,492.6,326.4,492.6,326.7,492.6z"/>
		<path d="M328.2,482.9v-1.8h1.6v1.8H328.2z M328.2,494v-9.3h1.6v9.3H328.2z"/>
		<path d="M331.6,489.3c0-1.7,0.5-3,1.4-3.8c0.8-0.7,1.8-1,2.9-1c1.3,0,2.3,0.4,3.1,1.3s1.2,2,1.2,3.5c0,1.2-0.2,2.1-0.5,2.8
			c-0.4,0.7-0.9,1.2-1.6,1.6c-0.7,0.4-1.4,0.6-2.3,0.6c-1.3,0-2.4-0.4-3.2-1.3C332,492.1,331.6,490.9,331.6,489.3z M333.2,489.3
			c0,1.2,0.3,2.1,0.8,2.7c0.5,0.6,1.2,0.9,2,0.9c0.8,0,1.4-0.3,2-0.9s0.8-1.5,0.8-2.7c0-1.2-0.3-2-0.8-2.6c-0.5-0.6-1.2-0.9-2-0.9
			c-0.8,0-1.4,0.3-2,0.9S333.2,488.1,333.2,489.3z"/>
		<path d="M342.2,494v-9.3h1.4v1.3c0.7-1,1.7-1.5,3-1.5c0.6,0,1.1,0.1,1.6,0.3c0.5,0.2,0.8,0.5,1.1,0.8s0.4,0.7,0.5,1.2
			c0.1,0.3,0.1,0.8,0.1,1.5v5.7h-1.6v-5.7c0-0.6-0.1-1.1-0.2-1.4s-0.3-0.6-0.7-0.8c-0.3-0.2-0.7-0.3-1.1-0.3c-0.7,0-1.3,0.2-1.7,0.6
			c-0.5,0.4-0.7,1.2-0.7,2.4v5.1H342.2z"/>
		<path d="M356.6,490.1v-1.6h4.9v1.6H356.6z"/>
		<path d="M362.6,490.1v-1.6h4.9v1.6H362.6z"/>
		<path d="M376.1,483.5V482h10.4l1.8,1.3c-0.2,5.7-3.4,9.4-9.6,11.1l-1.3-1.5c5.9-1.4,8.9-4.5,9.2-9.4H376.1z M387.2,482
			c-0.4-0.4-0.6-0.8-0.6-1.4s0.2-1,0.6-1.4c0.4-0.4,0.8-0.6,1.4-0.6s1,0.2,1.4,0.6c0.4,0.4,0.6,0.8,0.6,1.4s-0.2,1-0.6,1.4
			c-0.4,0.4-0.8,0.6-1.4,0.6S387.6,482.4,387.2,482z M389.6,481.6c0.2-0.2,0.4-0.5,0.4-0.9c0-0.4-0.1-0.7-0.4-0.9
			c-0.2-0.2-0.5-0.4-0.9-0.4c-0.4,0-0.7,0.1-0.9,0.4c-0.2,0.2-0.4,0.5-0.4,0.9c0,0.4,0.1,0.7,0.4,0.9c0.2,0.2,0.5,0.4,0.9,0.4
			C389,481.9,389.3,481.8,389.6,481.6z"/>
		<path d="M396.6,494.1c4.5-1.2,7.1-3.6,7.7-7.4h-10.7v-1.5h10.8l0.6-0.2l1.3,0.8c0.3,0.2,0.2,0.4-0.1,0.6c-0.8,4.7-3.5,7.7-8.2,9.1
			L396.6,494.1z M404.5,482.7h-9.7v-1.5h9.7V482.7z"/>
		<path d="M410.8,488.9c4.9-2.1,8.6-5,11.2-8.7l1.3,1.1c0.4,0.3,0.2,0.5-0.5,0.6c-0.9,1.2-2,2.4-3.4,3.6v9.6h-1.6v-8.2
			c-1.6,1.3-3.6,2.4-5.8,3.4L410.8,488.9z"/>
		<path d="M443.9,490.6l-1.5,1.4c-2.4-2.3-4.7-4.4-6.9-6.3c-0.4-0.4-0.7-0.6-0.8-0.6c-0.2,0-0.5,0.2-0.8,0.6
			c-1.4,1.6-2.7,3.1-3.9,4.4l-1.3-1.5c1.8-1.8,3.6-3.5,5.2-5.1c0.3-0.3,0.6-0.4,1-0.4c0.4,0,0.7,0.1,1,0.4
			C437.8,485.3,440.6,487.7,443.9,490.6z M438.4,481.3c0.7,0.6,1.5,1.4,2.4,2.3l-0.8,0.8c-0.9-0.9-1.7-1.7-2.4-2.2L438.4,481.3z
			 M442.4,482l-0.8,0.8c-0.9-1-1.7-1.7-2.3-2.3l0.8-0.8C440.9,480.3,441.7,481.1,442.4,482z"/>
		<path d="M446.2,488.2v-1.5h15.7v1.5H446.2z"/>
		<path d="M478.4,488.2l-0.8,1.6c-2.5-1.3-4.5-2.1-6.1-2.5v7.3h-1.6v-14.1h1.4c0.6,0,0.6,0.2,0.2,0.6v4.4
			C473.8,486.2,476.1,487.1,478.4,488.2z"/>
		<path d="M491.1,494l-5-12.9h1.8l3.3,9.4c0.3,0.8,0.5,1.5,0.7,2.1c0.2-0.7,0.4-1.4,0.7-2.1l3.5-9.4h1.7l-5,12.9H491.1z"/>
		<path d="M499.4,494v-12.9h1.7v11.4h6.3v1.5H499.4z"/>
		<path d="M508,494l4.9-12.9h1.8l5.3,12.9h-1.9l-1.5-3.9h-5.4l-1.4,3.9H508z M511.7,488.7h4.4l-1.3-3.6c-0.4-1.1-0.7-2-0.9-2.7
			c-0.2,0.8-0.4,1.6-0.7,2.5L511.7,488.7z"/>
		<path d="M521.4,494v-12.9h1.7l6.8,10.1v-10.1h1.6V494h-1.7l-6.8-10.1V494H521.4z"/>
		<path d="M539.4,494v-12.9h4.8c1,0,1.8,0.1,2.4,0.4c0.6,0.3,1.1,0.7,1.4,1.2s0.5,1.1,0.5,1.7c0,0.6-0.1,1.1-0.4,1.6
			s-0.8,0.9-1.4,1.2c0.8,0.2,1.4,0.6,1.8,1.2c0.4,0.6,0.6,1.2,0.6,2c0,0.6-0.1,1.2-0.4,1.7c-0.3,0.5-0.6,0.9-0.9,1.2
			s-0.8,0.5-1.4,0.6c-0.6,0.1-1.3,0.2-2.1,0.2H539.4z M541.1,486.5h2.8c0.8,0,1.3,0,1.6-0.1c0.4-0.1,0.8-0.3,1-0.6
			c0.2-0.3,0.3-0.7,0.3-1.1c0-0.4-0.1-0.8-0.3-1.1c-0.2-0.3-0.5-0.5-0.9-0.7s-1-0.2-2-0.2h-2.6V486.5z M541.1,492.5h3.2
			c0.6,0,0.9,0,1.2-0.1c0.4-0.1,0.7-0.2,1-0.4s0.5-0.4,0.7-0.7c0.2-0.3,0.3-0.7,0.3-1.1c0-0.5-0.1-0.9-0.4-1.3
			c-0.2-0.4-0.6-0.6-1-0.7c-0.4-0.1-1.1-0.2-1.9-0.2h-3V492.5z"/>
	</g>
</g>
<g id="Logical_swiitch">
	<g id="Layer_9">
	</g>
</g>
<g id="management_vxlan">
	<g id="Layer_6">
	</g>
	<g>
		<g>
			<path class="st14" d="M103.5,450.5L103.5,450.5l-0.4-0.1c-7.7-1.1-13.6-10.3-13.6-21.4s5.8-20.3,13.6-21.4l0.4-0.1v0h485.3l0.2,0
				c7.6,0.4,13.5,9.8,13.5,21.5s-5.9,21.1-13.5,21.5l-0.4,0H103.5z"/>
			<path d="M588.6,408l0.3,0c7.2,0.4,13.1,9.8,13.1,21s-5.9,20.6-13.1,21l-0.2,0H103.8l-0.7-0.1c-7.4-1-13.1-10.2-13.1-20.9
				s5.8-19.9,13.1-20.9l0.7-0.1H588.6 M589,407H103v0.1c-7.9,1.1-14,10.5-14,21.9c0,11.4,6.1,20.8,14,21.9v0.1h486v0
				c7.8-0.4,14-10.1,14-22C603,417.1,596.8,407.4,589,407L589,407L589,407z"/>
		</g>
		<g>
			<path class="st0" d="M587.5,446.9c-5.5,0-10-8.2-10-18.4s4.5-18.4,10-18.4c5.5,0,10,8.2,10,18.4S593,446.9,587.5,446.9z"/>
			<path d="M587.5,410.7c5.1,0,9.5,8.2,9.5,17.9c0,9.7-4.4,17.9-9.5,17.9c-5.1,0-9.5-8.2-9.5-17.9
				C578,418.9,582.4,410.7,587.5,410.7 M587.5,409.7c-5.8,0-10.5,8.4-10.5,18.9c0,10.4,4.7,18.9,10.5,18.9S598,439,598,428.6
				C598,418.1,593.3,409.7,587.5,409.7L587.5,409.7z"/>
		</g>
	</g>
	<g>
		<path d="M150.7,423v1.1h-3.4l0.7,1.4l-1.5,0.3l-0.6-1.7h-1.1c-0.3,0.5-0.6,0.9-1,1.3v0.9h6.6v3.2h-1.4v-2h-11.6v2h-1.4v-3.2h0.3
			l-0.9-1.1c1.4-1.1,2.3-2.4,2.9-3.9l1.5,0.1c0.2,0.1,0.2,0.3-0.1,0.4c-0.2,0.5-0.4,0.8-0.6,1.1h3.9v1.1h-2.2l0.6,1.4l-1.5,0.4
			l-0.5-1.8h-0.9c-0.5,0.8-1.2,1.5-2,2.3h6v-0.8l-0.3-0.4c1.2-1.2,2-2.5,2.3-3.9l1.5,0.1c0.2,0.1,0.1,0.3-0.1,0.4
			c-0.2,0.5-0.4,0.8-0.5,1.1H150.7z M147.6,428.5v3.7h-7.8v0.9h8.5v4.3h-1.4V437h-7.1v0.6h-1.4v-9H147.6z M146.2,429.7h-6.4v1.4h6.4
			V429.7z M146.9,434.2h-7.1v1.6h7.1V434.2z"/>
		<path d="M159,433.3c-1.8,0.7-3.5,1.2-5.1,1.6c-0.1,0.4-0.3,0.4-0.4,0.2l-0.5-1.6l2.5-0.5v-3.9h-1.9v-1.3h1.9V424h-2.1v-1.3h5.6
			v1.3h-2.1v3.7h1.9v1.3h-1.9v3.5c0.4,0,1.1-0.2,2-0.6L159,433.3z M164.5,430v2h3.9v1.3h-3.9v2.2h4.6v1.3H158v-1.3h5.3v-2.2h-3.8
			V432h3.8v-2h-2.5v0.9h-1.2v-8.6h8.7v8.4h-1.2V430H164.5z M163.3,425.6v-2.3h-2.5v2.3H163.3z M163.3,426.7h-2.5v2.1h2.5V426.7z
			 M167.1,423.3h-2.6v2.3h2.6V423.3z M167.1,426.7h-2.6v2.1h2.6V426.7z"/>
		<path d="M183.6,434.5c-0.5,0.6-1.1,1-1.7,1.3c-0.6,0.3-1.3,0.4-2,0.4c-1.3,0-2.4-0.4-3.1-1.3c-0.6-0.7-0.9-1.5-0.9-2.4
			c0-0.8,0.3-1.5,0.8-2.2c0.5-0.6,1.3-1.2,2.3-1.7c-0.6-0.7-1-1.2-1.2-1.6s-0.3-0.8-0.3-1.2c0-0.8,0.3-1.4,0.9-2
			c0.6-0.6,1.4-0.9,2.3-0.9c0.9,0,1.6,0.3,2.2,0.8s0.8,1.2,0.8,1.9c0,1.2-0.8,2.3-2.4,3.1l2.3,2.9c0.3-0.5,0.5-1.1,0.6-1.8l1.6,0.4
			c-0.3,1.1-0.7,2.1-1.1,2.8c0.6,0.8,1.3,1.4,2,2l-1.1,1.3C184.9,435.9,184.2,435.3,183.6,434.5z M182.6,433.2l-2.9-3.6
			c-0.9,0.5-1.4,1-1.7,1.4s-0.4,0.9-0.4,1.3c0,0.5,0.2,1.1,0.6,1.6s1,0.8,1.8,0.8c0.5,0,1-0.1,1.5-0.4S182.3,433.7,182.6,433.2z
			 M180.3,427.8c0.7-0.4,1.1-0.8,1.3-1.1s0.3-0.6,0.3-1c0-0.4-0.1-0.8-0.4-1.1c-0.3-0.3-0.6-0.4-1-0.4c-0.4,0-0.8,0.1-1.1,0.4
			s-0.4,0.6-0.4,1c0,0.2,0.1,0.4,0.2,0.6c0.1,0.2,0.3,0.5,0.5,0.7L180.3,427.8z"/>
		<path d="M197.1,436l-5-12.9h1.8l3.3,9.4c0.3,0.8,0.5,1.5,0.7,2.1c0.2-0.7,0.4-1.4,0.7-2.1l3.5-9.4h1.7l-5,12.9H197.1z"/>
		<path d="M204.1,436l5-6.7l-4.4-6.2h2l2.3,3.3c0.5,0.7,0.8,1.2,1,1.6c0.3-0.5,0.6-1,1-1.5l2.6-3.4h1.9l-4.5,6.1l4.9,6.8h-2.1
			l-3.2-4.6c-0.2-0.3-0.4-0.6-0.6-0.9c-0.3,0.5-0.5,0.8-0.6,1l-3.2,4.5H204.1z"/>
		<path d="M217.3,436v-12.9h1.7v11.4h6.3v1.5H217.3z"/>
		<path d="M226,436l4.9-12.9h1.8l5.3,12.9h-1.9l-1.5-3.9h-5.4l-1.4,3.9H226z M229.7,430.7h4.4l-1.3-3.6c-0.4-1.1-0.7-2-0.9-2.7
			c-0.2,0.8-0.4,1.6-0.7,2.5L229.7,430.7z"/>
		<path d="M239.4,436v-12.9h1.7l6.8,10.1v-10.1h1.6V436h-1.7l-6.8-10.1V436H239.4z"/>
		<path d="M256.6,432.1v-1.6h4.9v1.6H256.6z"/>
		<path d="M262.6,432.1v-1.6h4.9v1.6H262.6z"/>
		<path d="M276,425.5V424h10.4l1.8,1.3c-0.2,5.7-3.4,9.4-9.6,11.1l-1.3-1.5c5.9-1.4,8.9-4.5,9.2-9.4H276z M287.2,424
			c-0.4-0.4-0.6-0.8-0.6-1.4s0.2-1,0.6-1.4c0.4-0.4,0.8-0.6,1.4-0.6s1,0.2,1.4,0.6c0.4,0.4,0.6,0.8,0.6,1.4s-0.2,1-0.6,1.4
			c-0.4,0.4-0.8,0.6-1.4,0.6S287.6,424.4,287.2,424z M289.5,423.6c0.2-0.2,0.4-0.5,0.4-0.9c0-0.4-0.1-0.7-0.4-0.9
			c-0.2-0.2-0.5-0.4-0.9-0.4c-0.4,0-0.7,0.1-0.9,0.4c-0.2,0.2-0.4,0.5-0.4,0.9c0,0.4,0.1,0.7,0.4,0.9c0.2,0.2,0.5,0.4,0.9,0.4
			C289,423.9,289.3,423.8,289.5,423.6z"/>
		<path d="M296.6,436.1c4.5-1.2,7.1-3.6,7.7-7.4h-10.7v-1.5h10.8l0.6-0.2l1.3,0.8c0.3,0.2,0.2,0.4-0.1,0.6c-0.8,4.7-3.5,7.7-8.2,9.1
			L296.6,436.1z M304.5,424.7h-9.7v-1.5h9.7V424.7z"/>
		<path d="M310.8,430.9c4.9-2.1,8.6-5,11.2-8.7l1.3,1.1c0.4,0.3,0.2,0.5-0.5,0.6c-0.9,1.2-2,2.4-3.4,3.6v9.6h-1.6v-8.2
			c-1.6,1.3-3.6,2.4-5.8,3.4L310.8,430.9z"/>
		<path d="M343.9,432.6l-1.5,1.4c-2.4-2.3-4.7-4.4-6.9-6.3c-0.4-0.4-0.7-0.6-0.8-0.6c-0.2,0-0.5,0.2-0.8,0.6
			c-1.4,1.6-2.7,3.1-3.9,4.4l-1.3-1.5c1.8-1.8,3.6-3.5,5.2-5.1c0.3-0.3,0.6-0.4,1-0.4c0.4,0,0.7,0.1,1,0.4
			C337.8,427.3,340.6,429.7,343.9,432.6z M338.4,423.3c0.7,0.6,1.5,1.4,2.4,2.3l-0.8,0.8c-0.9-0.9-1.7-1.7-2.4-2.2L338.4,423.3z
			 M342.4,424l-0.8,0.8c-0.9-1-1.7-1.7-2.3-2.3l0.8-0.8C340.9,422.3,341.7,423.1,342.4,424z"/>
		<path d="M346.2,430.2v-1.5h15.7v1.5H346.2z"/>
		<path d="M378.4,430.2l-0.8,1.6c-2.5-1.3-4.5-2.1-6.1-2.5v7.3h-1.6v-14.1h1.4c0.6,0,0.6,0.2,0.2,0.6v4.4
			C373.8,428.2,376.1,429.1,378.4,430.2z"/>
		<path d="M391.1,436l-5-12.9h1.8l3.3,9.4c0.3,0.8,0.5,1.5,0.7,2.1c0.2-0.7,0.4-1.4,0.7-2.1l3.5-9.4h1.7l-5,12.9H391.1z"/>
		<path d="M399.4,436v-12.9h1.7v11.4h6.3v1.5H399.4z"/>
		<path d="M408,436l4.9-12.9h1.8l5.3,12.9h-1.9l-1.5-3.9h-5.4l-1.4,3.9H408z M411.7,430.7h4.4l-1.3-3.6c-0.4-1.1-0.7-2-0.9-2.7
			c-0.2,0.8-0.4,1.6-0.7,2.5L411.7,430.7z"/>
		<path d="M421.4,436v-12.9h1.7l6.8,10.1v-10.1h1.6V436h-1.7l-6.8-10.1V436H421.4z"/>
		<path d="M437,436l4.9-12.9h1.8l5.3,12.9h-1.9l-1.5-3.9h-5.4l-1.4,3.9H437z M440.7,430.7h4.4l-1.3-3.6c-0.4-1.1-0.7-2-0.9-2.7
			c-0.2,0.8-0.4,1.6-0.7,2.5L440.7,430.7z"/>
		<path d="M457.3,439.8c-0.9-1.1-1.6-2.4-2.2-3.9s-0.9-3-0.9-4.6c0-1.4,0.2-2.7,0.7-4c0.5-1.5,1.3-3,2.4-4.4h1.1
			c-0.7,1.2-1.2,2.1-1.4,2.6c-0.4,0.8-0.6,1.7-0.8,2.5c-0.3,1.1-0.4,2.2-0.4,3.3c0,2.8,0.9,5.6,2.6,8.4H457.3z"/>
		<path d="M471.6,424.8l0.4-0.1l0.8,1.1c0.2,0.3,0.1,0.5-0.3,0.5c-1,1-2.3,2.2-3.9,3.4v7.4H467v-6.3c-1.5,1-3.3,2-5.2,2.8l-1.2-1.3
			c3.9-1.5,7.1-3.4,9.6-6l-7.9,0.4l-0.2-1.5l5-0.1v-3.2h1.4c0.4,0.1,0.5,0.3,0.2,0.6v2.5L471.6,424.8z M470.1,430.4l1.1-1.3
			c1.7,0.9,3.2,1.9,4.4,3l-1.2,1.4C472.8,432.2,471.4,431.1,470.1,430.4z"/>
		<path d="M478.8,430.9c4.9-2.1,8.6-5,11.2-8.7l1.3,1.1c0.4,0.3,0.2,0.5-0.5,0.6c-0.9,1.2-2,2.4-3.4,3.6v9.6h-1.6v-8.2
			c-1.6,1.3-3.6,2.4-5.8,3.4L478.8,430.9z"/>
		<path d="M503.9,429h-7v-1.5h14.4v1.5h-5.8v0.9c0,3-1.1,5.4-3.2,7.3l-1.4-1.1c2-1.5,3-3.6,3-6.3V429z M499.4,424.7v-1.5h9.4v1.5
			H499.4z"/>
		<path d="M523.2,437.4h-1.4v-6.5c-1,0.8-2.6,1.7-4.6,2.7l-1-1.2c4.5-2.2,7.5-4.5,9.1-7.1l1.2,0.9c0.3,0.2,0.2,0.4-0.3,0.5
			c-0.8,1-1.8,2-3,3V437.4z"/>
		<path d="M534.1,425.5V424h10.6l1.1-0.2l0.8,0.7c-0.2,6.2-3.5,10.2-9.8,12l-1.3-1.5c5.9-1.3,8.9-4.4,9.2-9.4H534.1z M545.1,423.8
			c-0.6-0.7-1.2-1.2-1.8-1.8l0.8-0.8c0.7,0.5,1.3,1.1,1.9,1.8L545.1,423.8z M547.7,423.6c-0.8-0.8-1.5-1.5-2.1-2.1l0.8-0.7
			c0.7,0.6,1.5,1.2,2.1,2L547.7,423.6z"/>
		<path d="M551.3,439.8h-1.1c1.8-2.8,2.6-5.6,2.6-8.4c0-1.1-0.1-2.2-0.4-3.3c-0.2-0.9-0.5-1.7-0.8-2.5c-0.2-0.5-0.7-1.4-1.4-2.6h1.1
			c1.1,1.5,1.9,2.9,2.4,4.4c0.5,1.3,0.7,2.6,0.7,4c0,1.6-0.3,3.1-0.9,4.6C552.9,437.4,552.2,438.7,551.3,439.8z"/>
	</g>
</g>
<g id="P_x2F_V">
	<g>
		<g>
			<g>
				<rect x="104.5" y="280" class="st15" width="47.3" height="47.3"/>
				<linearGradient id="SVGID_1_" gradientUnits="userSpaceOnUse" x1="135.9627" y1="296.7212" x2="124.5096" y2="338.8456">
					<stop  offset="0" style="stop-color:#CCE0F4"/>
					<stop  offset="7.748766e-002" style="stop-color:#C5DDF3"/>
					<stop  offset="0.1918" style="stop-color:#B1D5EF"/>
					<stop  offset="0.329" style="stop-color:#90C9EA"/>
					<stop  offset="0.4838" style="stop-color:#63B7E2"/>
					<stop  offset="0.6515" style="stop-color:#2AA1D9"/>
					<stop  offset="0.6829" style="stop-color:#1E9CD7"/>
					<stop  offset="0.8652" style="stop-color:#0075BE"/>
					<stop  offset="0.9944" style="stop-color:#005B97"/>
				</linearGradient>
				<polygon class="st16" points="106.3,325.5 150,281.8 150,325.5 				"/>
			</g>
			<text transform="matrix(1 0 0 1 108.084 315.4692)" class="st0 st10 st17">P</text>
			<text transform="matrix(1 0 0 1 116.6836 324.0688)" class="st0 st10 st17">V</text>
			<g>
				<g>
					<g>
						<g>
							<polygon class="st0" points="110.1,288.6 112.8,297.8 119.2,291.8 							"/>
						</g>
					</g>
				</g>
				<g>
					<g>
						<g>
							
								<rect x="117" y="293.5" transform="matrix(0.7268 -0.6868 0.6868 0.7268 -172.128 163.1521)" class="st0" width="4.1" height="9"/>
						</g>
					</g>
				</g>
			</g>
			<g>
				<g>
					<g>
						<g>
							<polygon class="st0" points="142.6,322.1 132.5,318.2 139.2,311.8 							"/>
						</g>
					</g>
				</g>
				<g>
					<g>
						<g>
							
								<rect x="130.2" y="306.1" transform="matrix(0.7268 -0.6868 0.6868 0.7268 -177.623 175.9507)" class="st0" width="4.3" height="10.4"/>
						</g>
					</g>
				</g>
			</g>
		</g>
	</g>
</g>
<g id="Layer_15">
	<g>
		<g>
			<g>
				<rect x="232.5" y="619.9" class="st15" width="38.1" height="38.1"/>
				<linearGradient id="SVGID_2_" gradientUnits="userSpaceOnUse" x1="257.8253" y1="633.3933" x2="248.6063" y2="667.3004">
					<stop  offset="0" style="stop-color:#CCE0F4"/>
					<stop  offset="7.748766e-002" style="stop-color:#C5DDF3"/>
					<stop  offset="0.1918" style="stop-color:#B1D5EF"/>
					<stop  offset="0.329" style="stop-color:#90C9EA"/>
					<stop  offset="0.4838" style="stop-color:#63B7E2"/>
					<stop  offset="0.6515" style="stop-color:#2AA1D9"/>
					<stop  offset="0.6829" style="stop-color:#1E9CD7"/>
					<stop  offset="0.8652" style="stop-color:#0075BE"/>
					<stop  offset="0.9944" style="stop-color:#005B97"/>
				</linearGradient>
				<polygon class="st18" points="234,656.5 269.1,621.4 269.1,656.5 				"/>
			</g>
			<text transform="matrix(1 0 0 1 235.3848 648.484)" class="st0 st10 st19">P</text>
			<text transform="matrix(1 0 0 1 242.3071 655.4059)" class="st0 st10 st19">V</text>
			<g>
				<g>
					<g>
						<g>
							<polygon class="st0" points="237,626.9 239.2,634.3 244.3,629.4 							"/>
						</g>
					</g>
				</g>
				<g>
					<g>
						<g>
							
								<rect x="242.6" y="630.8" transform="matrix(0.7268 -0.6868 0.6868 0.7268 -369.0017 341.0172)" class="st0" width="3.3" height="7.2"/>
						</g>
					</g>
				</g>
			</g>
			<g>
				<g>
					<g>
						<g>
							<polygon class="st0" points="263.2,653.9 255,650.7 260.4,645.5 							"/>
						</g>
					</g>
				</g>
				<g>
					<g>
						<g>
							
								<rect x="253.2" y="640.9" transform="matrix(0.7268 -0.6868 0.6868 0.7268 -373.4311 351.3325)" class="st0" width="3.5" height="8.4"/>
						</g>
					</g>
				</g>
			</g>
		</g>
	</g>
	<text transform="matrix(1 0 0 1 215 679)" class="st10 st20">NSX Edge</text>
</g>
<g id="Layer_16">
	<g>
		<rect x="347" y="621" class="st21" width="41.1" height="37"/>
		<rect x="387.2" y="621" class="st22" width="89.8" height="37"/>
	</g>
	<text transform="matrix(1 0 0 1 353.2979 645.4043)" class="st0 st10 st23">VM</text>
	<g>
		<path class="st0" d="M393,645.4v-11.8h1.2v4.9h4.8v-4.9h1.2v11.8h-1.2v-5.6h-4.8v5.6H393z"/>
		<path class="st0" d="M408.7,641.3l1.2,0.4c-0.3,1.3-0.7,2.3-1.4,2.9c-0.7,0.7-1.5,1-2.4,1c-1,0-1.8-0.3-2.4-0.8
			c-0.6-0.5-1.1-1.3-1.4-2.3c-0.3-1-0.5-2-0.5-3.2c0-1.2,0.2-2.3,0.5-3.2c0.4-0.9,0.9-1.6,1.6-2.1s1.4-0.7,2.2-0.7
			c0.9,0,1.7,0.3,2.3,0.9c0.6,0.6,1.1,1.5,1.3,2.5l-1.2,0.4c-0.2-0.9-0.5-1.5-0.9-1.9s-0.9-0.6-1.5-0.6c-0.7,0-1.3,0.2-1.8,0.7
			c-0.5,0.4-0.8,1-1,1.8s-0.3,1.5-0.3,2.3c0,1,0.1,1.9,0.3,2.6c0.2,0.8,0.6,1.3,1.1,1.7s1,0.6,1.6,0.6c0.7,0,1.3-0.3,1.7-0.8
			C408.2,643,408.5,642.3,408.7,641.3z"/>
		<path class="st0" d="M410.4,645.4l3.5-6.2l-3.1-5.7h1.4l1.7,3c0.3,0.6,0.6,1.1,0.7,1.5c0.2-0.4,0.4-0.9,0.7-1.3l1.8-3.1h1.3
			l-3.2,5.6l3.5,6.3h-1.5l-2.3-4.2c-0.1-0.2-0.3-0.5-0.4-0.8c-0.2,0.4-0.3,0.7-0.4,0.9l-2.3,4.1H410.4z"/>
		<path class="st0" d="M426.3,646.6l-0.9-1.2c3.3-1.7,5.2-4.7,5.9-8.9h-4c-0.8,1.6-1.6,3-2.4,3.9l-1-0.8c1.7-2,2.8-4.4,3.3-7.1
			l1.1,0.5c0.2,0.1,0.2,0.3-0.1,0.4c-0.1,0.6-0.3,1.1-0.5,1.7h3.6l0.4-0.3l0.9,1.2c0.2,0.3,0.2,0.5-0.1,0.6
			C431.9,641.3,429.8,644.6,426.3,646.6z"/>
		<path class="st0" d="M439.2,645.5c3.2-1.1,5-3.3,5.4-6.8H437v-1.4h7.6l0.4-0.2l0.9,0.7c0.2,0.2,0.2,0.4-0.1,0.6
			c-0.5,4.3-2.5,7.1-5.8,8.4L439.2,645.5z M444.8,635h-6.9v-1.4h6.9V635z"/>
		<path class="st0" d="M459.2,636.3c0,4.7-1.7,8.2-5.2,10.4l-0.9-1.2c3.2-1.9,4.9-4.7,4.9-8.5H451l0.1,3.8h-1.1l-0.1-5.2h3.9v-3.2h1
			c0.4,0,0.4,0.2,0.1,0.5v2.7h3.7L459.2,636.3z"/>
		<path class="st0" d="M471,641.6c-1.8-1.2-3.2-1.9-4.3-2.3v6.7h-1.1v-12.9h1c0.4,0,0.4,0.2,0.1,0.5v4.1c1.6,0.6,3.3,1.4,4.9,2.5
			L471,641.6z M470.9,635.9c-0.6-0.9-1.1-1.6-1.7-2.2l0.6-0.6c0.6,0.6,1.1,1.3,1.7,2.2L470.9,635.9z M472.1,634.7
			c-0.4-0.7-1-1.4-1.6-2.1l0.6-0.6c0.6,0.5,1.1,1.2,1.6,2.1L472.1,634.7z"/>
	</g>
	<text transform="matrix(1 0 0 1 353 679)" class="st10 st20">HCX Manager</text>
</g>
<g id="VM_HCX">
	<g>
		<rect x="186" y="333" class="st21" width="50.8" height="47"/>
		<rect x="235.8" y="333" class="st22" width="111.2" height="47"/>
	</g>
	<text transform="matrix(1 0 0 1 194 364)" class="st0 st10 st11">VM</text>
	<g>
		<path class="st0" d="M243.2,364v-15h1.5v6.2h5.8V349h1.5v15h-1.5v-7.1h-5.8v7.1H243.2z"/>
		<path class="st0" d="M262.4,358.7l1.5,0.5c-0.3,1.6-0.9,2.9-1.7,3.7c-0.8,0.9-1.8,1.3-3,1.3c-1.2,0-2.2-0.3-2.9-1
			c-0.8-0.7-1.3-1.6-1.7-2.9c-0.4-1.3-0.6-2.6-0.6-4c0-1.6,0.2-2.9,0.7-4.1c0.4-1.2,1.1-2.1,1.9-2.7c0.8-0.6,1.7-0.9,2.7-0.9
			c1.1,0,2.1,0.4,2.8,1.1c0.8,0.8,1.3,1.8,1.6,3.2l-1.5,0.5c-0.3-1.1-0.6-1.9-1.1-2.4c-0.5-0.5-1.1-0.7-1.9-0.7
			c-0.9,0-1.6,0.3-2.2,0.8s-1,1.3-1.2,2.2c-0.2,0.9-0.4,1.9-0.4,2.9c0,1.3,0.1,2.4,0.4,3.3c0.3,1,0.7,1.7,1.3,2.1s1.2,0.7,1.9,0.7
			c0.8,0,1.5-0.3,2.1-1C261.8,360.9,262.2,360,262.4,358.7z"/>
		<path class="st0" d="M264.6,364l4.3-7.8l-3.8-7.2h1.8l2,3.9c0.4,0.8,0.7,1.4,0.9,1.8c0.2-0.5,0.5-1.1,0.9-1.7l2.2-4h1.6l-3.9,7.1
			l4.2,7.9H273l-2.8-5.4c-0.2-0.3-0.3-0.6-0.5-1c-0.2,0.5-0.4,0.9-0.5,1.1l-2.8,5.2H264.6z"/>
		<path class="st0" d="M283.9,365.6l-1.1-1.6c4-2.2,6.4-6,7.2-11.3h-4.9c-0.9,2.1-1.9,3.7-2.9,5l-1.2-1.1c2.1-2.6,3.5-5.6,4.1-9
			l1.4,0.7c0.2,0.2,0.2,0.3-0.1,0.5c-0.2,0.7-0.4,1.4-0.7,2.1h4.4l0.5-0.4l1.1,1.5c0.3,0.4,0.2,0.7-0.2,0.8
			C290.7,358.7,288.2,363,283.9,365.6z"/>
		<path class="st0" d="M299.7,364.1c3.9-1.4,6.2-4.2,6.6-8.6h-9.3v-1.8h9.3l0.5-0.2l1.1,0.9c0.2,0.3,0.2,0.5-0.1,0.7
			c-0.7,5.5-3,9-7.1,10.7L299.7,364.1z M306.6,350.8h-8.4V349h8.4V350.8z"/>
		<path class="st0" d="M324.1,352.4c0,6-2.1,10.4-6.4,13.2l-1.2-1.6c3.9-2.4,5.9-6,6-10.8h-8.5l0.1,4.8h-1.4l-0.2-6.6h4.8v-4.1h1.2
			c0.5,0.1,0.5,0.3,0.2,0.7v3.4h4.6L324.1,352.4z"/>
		<path class="st0" d="M338.6,359.2c-2.2-1.5-3.9-2.5-5.3-3v8.5h-1.4v-16.4h1.2c0.5,0.1,0.5,0.3,0.2,0.7v5.2c2,0.8,4,1.8,6,3.1
			L338.6,359.2z M338.4,351.9c-0.7-1.1-1.4-2.1-2.1-2.8l0.8-0.8c0.7,0.7,1.4,1.6,2.1,2.8L338.4,351.9z M339.9,350.4
			c-0.5-0.9-1.2-1.8-2-2.7l0.8-0.8c0.7,0.7,1.4,1.6,2,2.7L339.9,350.4z"/>
	</g>
</g>
</svg>
