<?xml version="1.0" encoding="utf-8"?>
<!-- Generator: Adobe Illustrator 19.0.0, SVG Export Plug-In . SVG Version: 6.00 Build 0)  -->
<svg version="1.1" xmlns="http://www.w3.org/2000/svg" xmlns:xlink="http://www.w3.org/1999/xlink" x="0px" y="0px"
	 viewBox="0 0 686 794" style="enable-background:new 0 0 686 794;" xml:space="preserve">
<style type="text/css">
	.st0{fill:#FFFFFF;}
	.st1{fill:none;stroke:#000000;stroke-miterlimit:10;}
	.st2{fill:none;stroke:#000000;stroke-miterlimit:10;stroke-dasharray:7.9157,7.9157;}
	.st3{fill:none;stroke:#000000;stroke-miterlimit:10;stroke-dasharray:8.052,8.052;}
	.st4{fill:#AADFF2;}
	.st5{fill:none;stroke:#000000;stroke-miterlimit:10;stroke-dasharray:7.9718,7.9718;}
	.st6{fill:none;stroke:#000000;stroke-miterlimit:10;stroke-dasharray:8.1177,8.1177;}
	.st7{font-family:'KozGoPr6N-Regular-90ms-RKSJ-H';}
	.st8{font-size:18px;}
	.st9{font-family:'ArialMT';}
	.st10{fill:#E1E5BA;}
	.st11{fill:none;stroke:#000000;stroke-miterlimit:10;stroke-dasharray:8.1429,8.1429;}
	.st12{fill:#FFFFFF;stroke:#000000;stroke-width:3;stroke-miterlimit:10;}
	.st13{font-size:21px;}
	.st14{fill:#FF7BAC;}
	.st15{fill:#29ABE2;}
	.st16{font-size:16px;}
	.st17{fill:#EF7C26;}
	.st18{fill:#F4BA51;}
	.st19{fill:#169ADB;stroke:#9BCCDD;stroke-width:0.5;stroke-miterlimit:10;}
	.st20{fill:url(#SVGID_1_);}
	.st21{font-size:11.4646px;}
	.st22{fill:url(#SVGID_2_);}
	.st23{font-size:9.2282px;}
	.st24{fill:#2B6782;}
	.st25{fill:#1E4C66;}
	.st26{font-size:16.5319px;}
</style>
<g id="Outter_dash_rectangle">
	<g>
		<rect x="9" y="64" class="st0" width="665" height="628"/>
		<g>
			<polyline class="st1" points="674,688 674,692 670,692 			"/>
			<line class="st2" x1="662.1" y1="692" x2="17" y2="692"/>
			<polyline class="st1" points="13,692 9,692 9,688 			"/>
			<line class="st3" x1="9" y1="679.9" x2="9" y2="72"/>
			<polyline class="st1" points="9,68 9,64 13,64 			"/>
			<line class="st2" x1="20.9" y1="64" x2="666" y2="64"/>
			<polyline class="st1" points="670,64 674,64 674,68 			"/>
			<line class="st3" x1="674" y1="76.1" x2="674" y2="684"/>
		</g>
	</g>
</g>
<g id="Public_address_space_rectangle">
	<g>
		<rect x="59.5" y="94.5" class="st4" width="574" height="146"/>
		<g>
			<polyline class="st1" points="633.5,236.5 633.5,240.5 629.5,240.5 			"/>
			<line class="st5" x1="621.5" y1="240.5" x2="67.5" y2="240.5"/>
			<polyline class="st1" points="63.5,240.5 59.5,240.5 59.5,236.5 			"/>
			<line class="st6" x1="59.5" y1="228.4" x2="59.5" y2="102.6"/>
			<polyline class="st1" points="59.5,98.5 59.5,94.5 63.5,94.5 			"/>
			<line class="st5" x1="71.5" y1="94.5" x2="625.5" y2="94.5"/>
			<polyline class="st1" points="629.5,94.5 633.5,94.5 633.5,98.5 			"/>
			<line class="st6" x1="633.5" y1="106.6" x2="633.5" y2="232.4"/>
		</g>
	</g>
	<text transform="matrix(1 0 0 1 380 226)"><tspan x="0" y="0" class="st7 st8">パブリック</tspan><tspan x="90" y="0" class="st9 st8"> </tspan><tspan x="95" y="0" class="st7 st8">・アドレス・スペース</tspan></text>
</g>
<g id="Private_address_space_rectangle">
	<g>
		<rect x="59.5" y="251.5" class="st10" width="574" height="407"/>
		<g>
			<polyline class="st1" points="633.5,654.5 633.5,658.5 629.5,658.5 			"/>
			<line class="st5" x1="621.5" y1="658.5" x2="67.5" y2="658.5"/>
			<polyline class="st1" points="63.5,658.5 59.5,658.5 59.5,654.5 			"/>
			<line class="st11" x1="59.5" y1="646.4" x2="59.5" y2="259.6"/>
			<polyline class="st1" points="59.5,255.5 59.5,251.5 63.5,251.5 			"/>
			<line class="st5" x1="71.5" y1="251.5" x2="625.5" y2="251.5"/>
			<polyline class="st1" points="629.5,251.5 633.5,251.5 633.5,255.5 			"/>
			<line class="st11" x1="633.5" y1="263.6" x2="633.5" y2="650.4"/>
		</g>
	</g>
	<text transform="matrix(1 0 0 1 373 643)" class="st7 st8">プライベート・アドレス・スペース</text>
</g>
<g id="ibm_cloud">
	<path class="st12" d="M141.2,59.9c0-11.4-13.4-20.6-29.9-20.6c-1.6,0-3.2,0.1-4.7,0.3c-1-2.2-2.6-4.2-4.6-5.8
		c-4.7-3.8-10.8-4.5-15.7-2.3C83.5,16.9,72,6,58.2,6C43.8,6,32,17.8,29.8,33.2c-0.1,0-0.2,0-0.4,0c-11.6,0-21,10.6-21,23.7
		c0,10,5.5,18.5,13.2,22v0.9h2.4c1.7,0.5,3.5,0.8,5.3,0.8c1.8,0,3.6-0.3,5.3-0.8h68.4c2.6,0.5,5.3,0.8,8.1,0.8
		c2.8,0,5.5-0.3,8.1-0.8h2.4v-0.5C133.1,76.3,141.2,68.8,141.2,59.9z"/>
	<text transform="matrix(1 0 0 1 21 62)" class="st9 st13">IBM Cloud</text>
</g>
<g id="lines">
	<line class="st1" x1="128" y1="190" x2="128" y2="503.5"/>
	<line class="st1" x1="221.5" y1="407.5" x2="221.5" y2="503.5"/>
	<line class="st1" x1="361.5" y1="190.5" x2="361.5" y2="565.5"/>
	<line class="st1" x1="346.5" y1="407.5" x2="346.5" y2="504.5"/>
	<line class="st1" x1="376.5" y1="407.5" x2="376.5" y2="438.5"/>
	<line class="st1" x1="450.5" y1="407.5" x2="450.5" y2="437.5"/>
</g>
<g id="pubic_VLAN_native">
	<g>
		<g>
			<g>
				<path class="st14" d="M103.5,190.5L103.5,190.5l-0.4-0.1c-7.7-1.1-13.6-10.3-13.6-21.4s5.8-20.3,13.6-21.4l0.4-0.1v0h485.3
					l0.2,0c7.6,0.4,13.5,9.8,13.5,21.5s-5.9,21.1-13.5,21.5l-0.4,0H103.5z"/>
				<path d="M588.6,148l0.3,0c7.2,0.4,13.1,9.8,13.1,21s-5.9,20.6-13.1,21l-0.2,0H103.8l-0.7-0.1c-7.4-1-13.1-10.2-13.1-20.9
					s5.8-19.9,13.1-20.9l0.7-0.1H588.6 M589,147H103v0.1c-7.9,1.1-14,10.5-14,21.9c0,11.4,6.1,20.8,14,21.9v0.1h486v0
					c7.8-0.4,14-10.1,14-22C603,157.1,596.8,147.4,589,147L589,147L589,147z"/>
			</g>
			<g>
				<path class="st0" d="M587.5,186.9c-5.5,0-10-8.2-10-18.4c0-10.1,4.5-18.4,10-18.4c5.5,0,10,8.2,10,18.4
					C597.5,178.7,593,186.9,587.5,186.9z"/>
				<path d="M587.5,150.7c5.1,0,9.5,8.2,9.5,17.9c0,9.7-4.4,17.9-9.5,17.9c-5.1,0-9.5-8.2-9.5-17.9
					C578,158.9,582.4,150.7,587.5,150.7 M587.5,149.7c-5.8,0-10.5,8.4-10.5,18.9c0,10.4,4.7,18.9,10.5,18.9S598,179,598,168.6
					C598,158.1,593.3,149.7,587.5,149.7L587.5,149.7z"/>
			</g>
		</g>
	</g>
	<g>
		<path d="M254.5,163.9c-0.1,0.1-0.2,0.3-0.5,0.3c-0.7,4.3-2.2,8.9-4.3,11.5c-0.3-0.3-0.8-0.5-1.2-0.6c2-2.4,3.6-7,4.2-11.5
			L254.5,163.9z M263.6,175.6c-0.8-3.2-2.9-8.3-4.8-11.6l1.2-0.6c1.9,3.2,4,8.3,4.9,11.6L263.6,175.6z M263.3,160.3c1.1,0,2,0.9,2,2
			c0,1.1-0.9,2-2,2s-2-0.9-2-2C261.3,161.1,262.3,160.3,263.3,160.3z M264.8,162.3c0-0.8-0.6-1.4-1.4-1.4c-0.8,0-1.4,0.6-1.4,1.4
			c0,0.8,0.6,1.4,1.4,1.4C264.2,163.7,264.8,163,264.8,162.3z"/>
		<path d="M279.3,163.2c-0.5-0.7-1.2-1.4-1.7-1.9l0.6-0.5c0.8,0.7,1.8,1.8,2.3,2.6l-0.3,0.3l0.1,0.1c-0.1,0.1-0.1,0.2-0.3,0.2
			c-1.4,6.8-4.9,10.8-10.8,12.9c-0.2-0.3-0.6-0.8-0.8-1c5.7-1.9,9-5.8,10-11.2H267v-1.2H279l0.2-0.2L279.3,163.2z M282.1,163.1
			c-0.5-0.8-1.5-2-2.2-2.6l0.7-0.5c0.8,0.7,1.7,1.8,2.3,2.6L282.1,163.1z"/>
		<path d="M285.4,171v-8.8l1.7,0.1c0,0.2-0.1,0.3-0.4,0.3v8.3H285.4z M295.4,161.6c0,0.2-0.1,0.3-0.4,0.3v5.7c0,3.8-1.3,7.2-6.5,9.2
			c-0.2-0.3-0.6-0.7-0.9-1c5-1.9,6.1-4.9,6.1-8.3v-6.1L295.4,161.6z"/>
		<path d="M300.2,165.9c0.5,1.1,1.1,2.8,1.3,3.9l-1,0.3c-0.2-1-0.8-2.7-1.3-3.8L300.2,165.9z M311,166c0,0.2-0.2,0.2-0.4,0.2
			c-1.4,5.3-4.1,8.5-8.4,10.2c-0.1-0.2-0.5-0.6-0.7-0.8c4.3-1.7,6.8-4.6,8.1-10L311,166z M304.6,165c0.4,1.2,0.7,2.9,0.8,4.1
			l-1.1,0.2c-0.1-1.2-0.4-2.8-0.8-4.1L304.6,165z"/>
		<path d="M326.6,164.5c-0.1,0.1-0.2,0.2-0.3,0.3c-1.9,5.8-4.8,9.6-9.8,12.1c-0.2-0.3-0.6-0.7-0.9-1c4.7-2.3,7.6-5.9,9.1-10.7h-6.4
			c-1,1.6-2.4,3.2-4,4.4c-0.3-0.3-0.7-0.6-1-0.8c2.4-1.9,4.5-4.6,5.7-7.8l1.7,0.5c-0.1,0.2-0.3,0.2-0.5,0.2
			c-0.4,0.8-0.7,1.5-1.2,2.3h6.3l0.2-0.1L326.6,164.5z"/>
		<path d="M337.9,175.8l-5-12.9h1.8l3.3,9.4c0.3,0.8,0.5,1.5,0.7,2.1c0.2-0.7,0.4-1.4,0.7-2.1l3.5-9.4h1.7l-5,12.9H337.9z"/>
		<path d="M346.2,175.8v-12.9h1.7v11.4h6.3v1.5H346.2z"/>
		<path d="M354.8,175.8l4.9-12.9h1.8l5.3,12.9H365l-1.5-3.9h-5.4l-1.4,3.9H354.8z M358.6,170.5h4.4l-1.3-3.6c-0.4-1.1-0.7-2-0.9-2.7
			c-0.2,0.8-0.4,1.6-0.7,2.5L358.6,170.5z"/>
		<path d="M368.2,175.8v-12.9h1.7l6.8,10.1v-10.1h1.6v12.9h-1.7l-6.8-10.1v10.1H368.2z"/>
		<path d="M389.1,179.5c-0.9-1.1-1.6-2.4-2.2-3.9s-0.9-3-0.9-4.6c0-1.4,0.2-2.7,0.7-4c0.5-1.5,1.3-3,2.4-4.4h1.1
			c-0.7,1.2-1.2,2.1-1.4,2.6c-0.4,0.8-0.6,1.7-0.8,2.5c-0.3,1.1-0.4,2.2-0.4,3.3c0,2.8,0.9,5.6,2.6,8.4H389.1z"/>
		<path d="M405.1,165.3c-0.1,0.1-0.2,0.1-0.3,0.2c-1.2,1.4-2.7,3-4.4,4.3l0.3,0.1c0,0.1-0.2,0.2-0.4,0.3v6.9H399v-6.2
			c-1.8,1.3-4.2,2.5-6.4,3.4c-0.1-0.1-0.7-0.9-0.8-1c4.4-1.6,8.5-4.3,11-7.2h-9.1v-1.2h10.3l0.2-0.1L405.1,165.3z M402.1,163.9
			c-1.6-0.8-4-1.6-5.9-2.2l0.6-1c1.9,0.5,4.4,1.3,6,2.1L402.1,163.9z M402.2,169.6c1.8,0.9,4,2.3,5.3,3.3l-0.9,1
			c-1.2-1-3.4-2.5-5.2-3.4L402.2,169.6z"/>
		<path d="M424.3,162.2c-0.1,0.1-0.2,0.1-0.3,0.1c-0.1,0-0.1,0-0.2,0c-1.4,1.4-3.4,3-5.1,4.3c0.1,0.1,0.4,0.2,0.4,0.2
			c0,0.1-0.2,0.2-0.4,0.2v9.7h-1.3v-9.3c-1.9,1.4-4.4,2.8-6.9,4c-0.2-0.3-0.5-0.7-0.8-1c4.9-2.3,10.3-6.1,13.2-9.3L424.3,162.2z"/>
		<path d="M440.8,168.1h-6.1l0.3,0.1c0,0.1-0.2,0.2-0.4,0.2c-0.5,3.3-1.7,6.3-5.6,8.2c-0.2-0.2-0.7-0.7-1-0.9
			c3.7-1.8,4.8-4.3,5.2-7.6h-7v-1.2h14.5V168.1z M439,163.1h-11.1v-1.2H439V163.1z"/>
		<path d="M454.1,165.3c-0.1,0.1-0.2,0.1-0.3,0.1c-0.1,0-0.2,0-0.3,0c-1.2,1.2-2.6,2.4-4,3.3c0.2,0.1,0.3,0.1,0.4,0.2
			c0,0.1-0.2,0.2-0.3,0.2v7.8h-1.1v-7.5c-1.5,1.1-4,2.5-5.9,3.4c-0.1-0.2-0.4-0.6-0.6-0.8c3.1-1.4,7.7-4.1,10.9-7.6L454.1,165.3z"/>
		<path d="M469.1,163.2c-0.5-0.7-1.2-1.4-1.7-1.9l0.6-0.5c0.8,0.7,1.8,1.8,2.3,2.6l-0.3,0.3l0.1,0.1c-0.1,0.1-0.1,0.2-0.3,0.2
			c-1.4,6.8-4.9,10.8-10.8,12.9c-0.2-0.3-0.6-0.8-0.8-1c5.7-1.9,9-5.8,10-11.2h-11.5v-1.2h11.9l0.2-0.2L469.1,163.2z M471.8,163.1
			c-0.5-0.8-1.5-2-2.2-2.6l0.7-0.5c0.8,0.7,1.7,1.8,2.3,2.6L471.8,163.1z"/>
		<path d="M474.8,179.5h-1.1c1.8-2.8,2.6-5.6,2.6-8.4c0-1.1-0.1-2.2-0.4-3.3c-0.2-0.9-0.5-1.7-0.8-2.5c-0.2-0.5-0.7-1.4-1.4-2.6h1.1
			c1.1,1.5,1.9,2.9,2.4,4.4c0.5,1.3,0.7,2.6,0.7,4c0,1.6-0.3,3.1-0.9,4.6C476.4,177.1,475.7,178.4,474.8,179.5z"/>
	</g>
</g>
<g id="security_lock_icon">
	<g>
		<path class="st15" d="M377,407.8h-30c-6.6,0-12-5.4-12-12v-25c0-6.6,5.4-12,12-12h30c6.6,0,12,5.4,12,12v25
			C389,402.4,383.6,407.8,377,407.8z"/>
		<g>
			<g>
				<path class="st0" d="M367.9,380.8h-10.9c-2.2,0-4.1-1.8-4.1-4.1v-5.9c0-2.2,1.8-4.1,4.1-4.1h10.9c2.2,0,4.1,1.8,4.1,4.1v5.9
					C372,378.9,370.2,380.8,367.9,380.8z"/>
				<path class="st15" d="M365.9,378.8h-6.9c-1.1,0-2.1-0.9-2.1-2.1v-4c0-1.1,0.9-2.1,2.1-2.1h6.9c1.1,0,2.1,0.9,2.1,2.1v4
					C368,377.8,367.1,378.8,365.9,378.8z"/>
				<path class="st0" d="M373.9,399.8h-22.9c-2.2,0-4.1-1.8-4.1-4.1v-13.9c0-2.2,1.8-4.1,4.1-4.1h22.9c2.2,0,4.1,1.8,4.1,4.1v13.9
					C378,397.9,376.2,399.8,373.9,399.8z"/>
			</g>
			<g>
				<ellipse class="st15" cx="363" cy="386.3" rx="4" ry="3.5"/>
				<path class="st15" d="M362.5,396.8L362.5,396.8c-0.8,0-1.5-0.7-1.5-1.5v-7c0-0.8,0.7-1.5,1.5-1.5l0,0c0.8,0,1.5,0.7,1.5,1.5v7
					C364,396.1,363.3,396.8,362.5,396.8z"/>
				<path class="st15" d="M365.5,391.8h-2c-0.3,0-0.5-0.2-0.5-0.5l0,0c0-0.3,0.2-0.5,0.5-0.5h2c0.3,0,0.5,0.2,0.5,0.5l0,0
					C366,391.5,365.8,391.8,365.5,391.8z"/>
				<path class="st15" d="M365.5,393.8h-2c-0.3,0-0.5-0.2-0.5-0.5l0,0c0-0.3,0.2-0.5,0.5-0.5h2c0.3,0,0.5,0.2,0.5,0.5l0,0
					C366,393.5,365.8,393.8,365.5,393.8z"/>
				<path class="st15" d="M365.5,395.8h-2c-0.3,0-0.5-0.2-0.5-0.5l0,0c0-0.3,0.2-0.5,0.5-0.5h2c0.3,0,0.5,0.2,0.5,0.5l0,0
					C366,395.5,365.8,395.8,365.5,395.8z"/>
			</g>
		</g>
	</g>
</g>
<g id="security_lock_bottom">
	<g>
		<path class="st15" d="M444,759h-19.2c-6.6,0-12-5.4-12-12v-15.2c0-6.6,5.4-12,12-12H444c6.6,0,12,5.4,12,12V747
			C456,753.6,450.6,759,444,759z"/>
		<g>
			<g>
				<path class="st0" d="M438.3,737.4h-7.1c-2.2,0-4.1-1.8-4.1-4.1v-3.1c0-2.2,1.8-4.1,4.1-4.1h7.1c2.2,0,4.1,1.8,4.1,4.1v3.1
					C442.4,735.6,440.6,737.4,438.3,737.4z"/>
				<path class="st15" d="M437.1,735.8h-4.7c-1.1,0-2.1-0.9-2.1-2.1v-2.4c0-1.1,0.9-2.1,2.1-2.1h4.7c1.1,0,2.1,0.9,2.1,2.1v2.4
					C439.2,734.9,438.3,735.8,437.1,735.8z"/>
				<path class="st0" d="M443.1,752.6h-16.7c-2.2,0-4.1-1.8-4.1-4.1V739c0-2.2,1.8-4.1,4.1-4.1h16.7c2.2,0,4.1,1.8,4.1,4.1v9.5
					C447.2,750.8,445.4,752.6,443.1,752.6z"/>
			</g>
			<g>
				<ellipse class="st15" cx="435.2" cy="741.8" rx="3.2" ry="2.8"/>
				<path class="st15" d="M434.8,750.2L434.8,750.2c-0.7,0-1.2-0.5-1.2-1.2v-5.6c0-0.7,0.5-1.2,1.2-1.2h0c0.7,0,1.2,0.5,1.2,1.2v5.6
					C436,749.7,435.4,750.2,434.8,750.2z"/>
				<path class="st15" d="M437.2,746.2h-1.6c-0.2,0-0.4-0.2-0.4-0.4v0c0-0.2,0.2-0.4,0.4-0.4h1.6c0.2,0,0.4,0.2,0.4,0.4v0
					C437.6,746,437.4,746.2,437.2,746.2z"/>
				<path class="st15" d="M437.2,747.8h-1.6c-0.2,0-0.4-0.2-0.4-0.4v0c0-0.2,0.2-0.4,0.4-0.4h1.6c0.2,0,0.4,0.2,0.4,0.4v0
					C437.6,747.6,437.4,747.8,437.2,747.8z"/>
				<path class="st15" d="M437.2,749.4h-1.6c-0.2,0-0.4-0.2-0.4-0.4v0c0-0.2,0.2-0.4,0.4-0.4h1.6c0.2,0,0.4,0.2,0.4,0.4v0
					C437.6,749.2,437.4,749.4,437.2,749.4z"/>
			</g>
		</g>
	</g>
	<text transform="matrix(0.7601 0 0 1 380.0001 780)" class="st7 st16">クラウド・ゲートウェイ</text>
</g>
<g id="gear_bottom">
	<g>
		<path class="st15" d="M586,759h-21.8c-6.6,0-12-5.4-12-12v-17.5c0-6.6,5.4-12,12-12H586c6.6,0,12,5.4,12,12V747
			C598,753.6,592.6,759,586,759z"/>
		<g>
			<g>
				<g>
					<g>
						<g>
							<ellipse class="st0" cx="575" cy="738.1" rx="12.3" ry="11.9"/>
							<ellipse class="st15" cx="575" cy="738.1" rx="5.5" ry="5.3"/>
						</g>
						<rect x="571.3" y="723" class="st0" width="6.6" height="4.2"/>
						<rect x="572" y="748.4" class="st0" width="5.9" height="5.1"/>
					</g>
					<rect x="585.7" y="735.3" class="st0" width="5.1" height="5.9"/>
					<rect x="559.5" y="735.3" class="st0" width="5.1" height="5.9"/>
				</g>
				
					<rect x="562.3" y="726.2" transform="matrix(0.7526 0.6585 -0.6585 0.7526 619.8199 -191.7219)" class="st0" width="5.6" height="5.6"/>
				
					<rect x="581" y="744.9" transform="matrix(0.7526 0.6585 -0.6585 0.7526 636.996 -200.0471)" class="st0" width="7.3" height="5.6"/>
			</g>
			
				<rect x="582.6" y="726.5" transform="matrix(0.7071 0.7071 -0.7071 0.7071 687.336 -200.2579)" class="st0" width="5.5" height="6.1"/>
			
				<rect x="562.9" y="744.8" transform="matrix(0.7071 0.7071 -0.7071 0.7071 694.2971 -181.0563)" class="st0" width="5.5" height="5.5"/>
		</g>
	</g>
	<text transform="matrix(0.9148 0 0 1 511 780)"><tspan x="0" y="0" class="st9 st16">WAN </tspan><tspan x="41.8" y="0" class="st7 st16">最適化プログラム</tspan></text>
</g>
<g id="gear_icon">
	<g>
		<path class="st15" d="M466.3,407.8h-30c-6.6,0-12-5.4-12-12v-25c0-6.6,5.4-12,12-12h30c6.6,0,12,5.4,12,12v25
			C478.3,402.4,472.9,407.8,466.3,407.8z"/>
		<g>
			<g>
				<g>
					<g>
						<g>
							<ellipse class="st0" cx="451.1" cy="383.1" rx="14.5" ry="14"/>
							<ellipse class="st15" cx="451.1" cy="383.1" rx="6.5" ry="6.3"/>
						</g>
						<rect x="446.8" y="365.3" class="st0" width="7.8" height="5"/>
						<rect x="447.6" y="395.3" class="st0" width="7" height="6"/>
					</g>
					<rect x="463.8" y="379.8" class="st0" width="6" height="7"/>
					<rect x="432.8" y="379.8" class="st0" width="6" height="7"/>
				</g>
				
					<rect x="436.1" y="369" transform="matrix(0.7526 0.6585 -0.6585 0.7526 353.8559 -197.2012)" class="st0" width="6.6" height="6.6"/>
				
					<rect x="458.2" y="391" transform="matrix(0.7526 0.6585 -0.6585 0.7526 374.1191 -207.0269)" class="st0" width="8.6" height="6.6"/>
			</g>
			
				<rect x="460.1" y="369.4" transform="matrix(0.7071 0.7071 -0.7071 0.7071 399.4713 -218.409)" class="st0" width="6.5" height="7.2"/>
			
				<rect x="436.9" y="391" transform="matrix(0.7071 0.7071 -0.7071 0.7071 407.6876 -195.7448)" class="st0" width="6.5" height="6.5"/>
		</g>
	</g>
</g>
<g id="vSAN_vMotion">
	<g id="Layer_7">
	</g>
	<g>
		<g>
			<path class="st17" d="M103.5,608.5L103.5,608.5l-0.4-0.1c-7.7-1-13.6-10-13.6-20.9s5.8-19.9,13.6-20.9l0.4-0.1v0h485.3l0.2,0
				c7.6,0.4,13.5,9.6,13.5,21s-5.9,20.6-13.5,21l-0.4,0H103.5z"/>
			<path d="M588.6,567l0.3,0c7.2,0.4,13.1,9.6,13.1,20.5s-5.9,20.1-13.1,20.5l-0.2,0H103.8l-0.7-0.1c-7.4-1-13.1-9.9-13.1-20.4
				c0-10.5,5.8-19.4,13.1-20.4l0.7-0.1H588.6 M589,566H103v0.1c-7.9,1-14,10.2-14,21.4s6.1,20.4,14,21.4v0.1h486v0
				c7.8-0.4,14-9.9,14-21.5S596.8,566.4,589,566L589,566L589,566z"/>
		</g>
		<g>
			<path class="st0" d="M587.5,605c-5.5,0-10-8-10-17.9c0-9.9,4.5-17.9,10-17.9c5.5,0,10,8,10,17.9C597.5,596.9,593,605,587.5,605z"
				/>
			<path d="M587.5,569.6c5.1,0,9.5,8,9.5,17.4c0,9.4-4.4,17.4-9.5,17.4c-5.1,0-9.5-8-9.5-17.4C578,577.6,582.4,569.6,587.5,569.6
				 M587.5,568.6c-5.8,0-10.5,8.3-10.5,18.4s4.7,18.4,10.5,18.4s10.5-8.3,10.5-18.4S593.3,568.6,587.5,568.6L587.5,568.6z"/>
		</g>
	</g>
	<g>
		<path d="M226.8,596l-3.6-9.3h1.7l2,5.6c0.2,0.6,0.4,1.2,0.6,1.9c0.1-0.5,0.3-1.1,0.6-1.8l2.1-5.7h1.6l-3.5,9.3H226.8z"/>
		<path d="M232.8,591.9l1.6-0.1c0.1,0.6,0.3,1.2,0.5,1.6c0.3,0.4,0.7,0.7,1.3,1c0.6,0.3,1.2,0.4,2,0.4c0.7,0,1.2-0.1,1.7-0.3
			s0.9-0.5,1.1-0.8s0.4-0.7,0.4-1.1c0-0.4-0.1-0.8-0.4-1.1s-0.6-0.6-1.2-0.8c-0.3-0.1-1.1-0.3-2.3-0.6s-2-0.6-2.5-0.8
			c-0.6-0.3-1.1-0.7-1.4-1.2s-0.5-1-0.5-1.6c0-0.7,0.2-1.3,0.6-1.8s0.9-1,1.6-1.3s1.5-0.4,2.4-0.4c1,0,1.8,0.2,2.5,0.5
			c0.7,0.3,1.3,0.8,1.7,1.4s0.6,1.3,0.6,2l-1.6,0.1c-0.1-0.8-0.4-1.4-0.9-1.8s-1.3-0.6-2.2-0.6c-1,0-1.8,0.2-2.3,0.6
			c-0.5,0.4-0.7,0.8-0.7,1.4c0,0.5,0.2,0.8,0.5,1.1c0.3,0.3,1.2,0.6,2.6,0.9c1.4,0.3,2.3,0.6,2.9,0.8c0.8,0.3,1.3,0.8,1.7,1.3
			s0.5,1.1,0.5,1.8c0,0.7-0.2,1.3-0.6,1.9c-0.4,0.6-1,1.1-1.7,1.4c-0.7,0.3-1.6,0.5-2.5,0.5c-1.2,0-2.1-0.2-2.9-0.5
			s-1.4-0.9-1.9-1.5C233.1,593.5,232.8,592.7,232.8,591.9z"/>
		<path d="M244,596l4.9-12.9h1.8L256,596h-1.9l-1.5-3.9h-5.4l-1.4,3.9H244z M247.7,590.7h4.4l-1.3-3.6c-0.4-1.1-0.7-2-0.9-2.7
			c-0.2,0.8-0.4,1.6-0.7,2.5L247.7,590.7z"/>
		<path d="M257.4,596v-12.9h1.7l6.8,10.1v-10.1h1.6V596h-1.7l-6.8-10.1V596H257.4z"/>
		<path d="M282.6,594.5c-0.5,0.6-1.1,1-1.7,1.3c-0.6,0.3-1.3,0.4-2,0.4c-1.3,0-2.4-0.4-3.1-1.3c-0.6-0.7-0.9-1.5-0.9-2.4
			c0-0.8,0.3-1.5,0.8-2.2c0.5-0.6,1.3-1.2,2.3-1.7c-0.6-0.7-1-1.2-1.2-1.6s-0.3-0.8-0.3-1.2c0-0.8,0.3-1.4,0.9-2
			c0.6-0.6,1.4-0.9,2.3-0.9c0.9,0,1.6,0.3,2.2,0.8s0.8,1.2,0.8,1.9c0,1.2-0.8,2.3-2.4,3.1l2.3,2.9c0.3-0.5,0.5-1.1,0.6-1.8l1.6,0.4
			c-0.3,1.1-0.7,2.1-1.1,2.8c0.6,0.8,1.3,1.4,2,2l-1.1,1.3C283.9,595.9,283.2,595.3,282.6,594.5z M281.6,593.2l-2.9-3.6
			c-0.9,0.5-1.4,1-1.7,1.4s-0.4,0.9-0.4,1.3c0,0.5,0.2,1.1,0.6,1.6s1,0.8,1.8,0.8c0.5,0,1-0.1,1.5-0.4S281.3,593.7,281.6,593.2z
			 M279.3,587.8c0.7-0.4,1.1-0.8,1.3-1.1s0.3-0.6,0.3-1c0-0.4-0.1-0.8-0.4-1.1c-0.3-0.3-0.6-0.4-1-0.4c-0.4,0-0.8,0.1-1.1,0.4
			s-0.4,0.6-0.4,1c0,0.2,0.1,0.4,0.2,0.6c0.1,0.2,0.3,0.5,0.5,0.7L279.3,587.8z"/>
		<path d="M294.8,596l-3.6-9.3h1.7l2,5.6c0.2,0.6,0.4,1.2,0.6,1.9c0.1-0.5,0.3-1.1,0.6-1.8l2.1-5.7h1.6l-3.5,9.3H294.8z"/>
		<path d="M301.4,596v-12.9h2.6l3,9.1c0.3,0.8,0.5,1.5,0.6,1.9c0.1-0.5,0.4-1.2,0.7-2.1l3.1-9h2.3V596H312v-10.8l-3.7,10.8h-1.5
			l-3.7-11v11H301.4z"/>
		<path d="M315.6,591.3c0-1.7,0.5-3,1.4-3.8c0.8-0.7,1.8-1,2.9-1c1.3,0,2.3,0.4,3.1,1.3s1.2,2,1.2,3.5c0,1.2-0.2,2.1-0.5,2.8
			c-0.4,0.7-0.9,1.2-1.6,1.6c-0.7,0.4-1.4,0.6-2.3,0.6c-1.3,0-2.4-0.4-3.2-1.3C316,594.1,315.6,592.9,315.6,591.3z M317.2,591.3
			c0,1.2,0.3,2.1,0.8,2.7c0.5,0.6,1.2,0.9,2,0.9c0.8,0,1.4-0.3,2-0.9s0.8-1.5,0.8-2.7c0-1.2-0.3-2-0.8-2.6c-0.5-0.6-1.2-0.9-2-0.9
			c-0.8,0-1.4,0.3-2,0.9S317.2,590.1,317.2,591.3z"/>
		<path d="M329.7,594.6l0.2,1.4c-0.4,0.1-0.8,0.1-1.2,0.1c-0.6,0-1-0.1-1.3-0.3s-0.5-0.4-0.7-0.7s-0.2-0.9-0.2-1.9v-5.4h-1.2v-1.2
			h1.2v-2.3l1.6-0.9v3.3h1.6v1.2h-1.6v5.5c0,0.5,0,0.7,0.1,0.9c0.1,0.1,0.1,0.2,0.3,0.3c0.1,0.1,0.3,0.1,0.5,0.1
			C329.1,594.6,329.4,594.6,329.7,594.6z"/>
		<path d="M331.2,584.9v-1.8h1.6v1.8H331.2z M331.2,596v-9.3h1.6v9.3H331.2z"/>
		<path d="M334.6,591.3c0-1.7,0.5-3,1.4-3.8c0.8-0.7,1.8-1,2.9-1c1.3,0,2.3,0.4,3.1,1.3s1.2,2,1.2,3.5c0,1.2-0.2,2.1-0.5,2.8
			c-0.4,0.7-0.9,1.2-1.6,1.6c-0.7,0.4-1.4,0.6-2.3,0.6c-1.3,0-2.4-0.4-3.2-1.3C335,594.1,334.6,592.9,334.6,591.3z M336.2,591.3
			c0,1.2,0.3,2.1,0.8,2.7c0.5,0.6,1.2,0.9,2,0.9c0.8,0,1.4-0.3,2-0.9s0.8-1.5,0.8-2.7c0-1.2-0.3-2-0.8-2.6c-0.5-0.6-1.2-0.9-2-0.9
			c-0.8,0-1.4,0.3-2,0.9S336.2,590.1,336.2,591.3z"/>
		<path d="M345.2,596v-9.3h1.4v1.3c0.7-1,1.7-1.5,3-1.5c0.6,0,1.1,0.1,1.6,0.3c0.5,0.2,0.8,0.5,1.1,0.8s0.4,0.7,0.5,1.2
			c0.1,0.3,0.1,0.8,0.1,1.5v5.7h-1.6v-5.7c0-0.6-0.1-1.1-0.2-1.4s-0.3-0.6-0.7-0.8c-0.3-0.2-0.7-0.3-1.1-0.3c-0.7,0-1.3,0.2-1.7,0.6
			c-0.5,0.4-0.7,1.2-0.7,2.4v5.1H345.2z"/>
		<path d="M359.6,592.1v-1.6h4.9v1.6H359.6z"/>
		<path d="M365.6,592.1v-1.6h4.9v1.6H365.6z"/>
		<path d="M377.4,583.5h11.5l0.1-0.1l1.2,0.9c-0.1,0.1-0.1,0.1-0.2,0.2c-1.5,6.8-4.6,10.3-10.1,12.4c-0.2-0.3-0.6-0.8-0.8-1.1
			c5.2-1.9,8.3-5.3,9.4-11.1h-11.1V583.5z M391.1,580.3c1.1,0,2,0.9,2,2c0,1.1-0.9,2-2,2c-1.1,0-2-0.9-2-2
			C389.2,581.1,390.1,580.3,391.1,580.3z M392.5,582.2c0-0.8-0.6-1.4-1.4-1.4s-1.4,0.6-1.4,1.4c0,0.8,0.6,1.4,1.4,1.4
			C391.9,583.6,392.5,583,392.5,582.2z"/>
		<path d="M408,587.2c0,0.1-0.1,0.1-0.2,0.2c-1.5,5.4-4.5,8.1-9.9,9.6c-0.2-0.3-0.5-0.8-0.8-1c4.9-1.2,7.9-3.7,9.1-7.9h-11.9v-1.2
			h12.5l0.2-0.1L408,587.2z M406.3,583.3H396v-1.2h10.3V583.3z"/>
		<path d="M424.9,582.5c-0.1,0.1-0.2,0.1-0.3,0.1c-0.1,0-0.1,0-0.2,0c-1.4,1.4-3.4,3-5.1,4.3c0.1,0.1,0.4,0.2,0.4,0.2
			c0,0.1-0.2,0.2-0.4,0.2v9.7H418v-9.3c-1.9,1.4-4.4,2.8-6.9,4c-0.2-0.3-0.5-0.7-0.8-1c4.9-2.3,10.3-6.1,13.2-9.3L424.9,582.5z"/>
		<path d="M426.7,590.2c1.4-1.4,4.2-4.6,5.2-5.7c0.5-0.5,0.9-0.7,1.4-0.7c0.5,0,1,0.3,1.5,0.7c2.3,2.1,6.1,6.3,8.8,9.8l-1.1,1
			c-2.6-3.5-6.3-7.8-8.3-9.7c-0.3-0.3-0.5-0.5-0.8-0.5c-0.2,0-0.5,0.2-0.7,0.5c-0.8,0.9-3.5,3.9-4.7,5.2c0,0,0,0.1,0,0.1
			c0,0.1-0.1,0.3-0.2,0.4L426.7,590.2z M438.6,582.7c0.8,0.7,1.7,1.8,2.3,2.6l-0.7,0.5c-0.5-0.8-1.5-2-2.3-2.6L438.6,582.7z
			 M440.7,581.1c0.8,0.7,1.8,1.8,2.3,2.6l-0.7,0.5c-0.5-0.8-1.5-1.9-2.3-2.6L440.7,581.1z"/>
		<path d="M445.3,588.2h15v1.3H446c-0.1,0.2-0.3,0.3-0.6,0.3L445.3,588.2z"/>
		<path d="M473.3,590.9c-1.8-1-4.4-2.2-6.3-2.9v9h-1.4v-15.6l1.8,0.1c0,0.2-0.2,0.3-0.5,0.4v5.3l0.3-0.4c2.1,0.8,4.9,2,6.8,3
			L473.3,590.9z"/>
		<path d="M486,596l-5-12.9h1.8l3.3,9.4c0.3,0.8,0.5,1.5,0.7,2.1c0.2-0.7,0.4-1.4,0.7-2.1l3.5-9.4h1.7l-5,12.9H486z"/>
		<path d="M494.3,596v-12.9h1.7v11.4h6.3v1.5H494.3z"/>
		<path d="M502.9,596l4.9-12.9h1.8L515,596H513l-1.5-3.9h-5.4l-1.4,3.9H502.9z M506.6,590.7h4.4l-1.3-3.6c-0.4-1.1-0.7-2-0.9-2.7
			c-0.2,0.8-0.4,1.6-0.7,2.5L506.6,590.7z"/>
		<path d="M516.3,596v-12.9h1.7l6.8,10.1v-10.1h1.6V596h-1.7l-6.8-10.1V596H516.3z"/>
		<path d="M534.3,596v-12.9h4.8c1,0,1.8,0.1,2.4,0.4c0.6,0.3,1.1,0.7,1.4,1.2s0.5,1.1,0.5,1.7c0,0.6-0.1,1.1-0.4,1.6
			s-0.8,0.9-1.4,1.2c0.8,0.2,1.4,0.6,1.8,1.2c0.4,0.6,0.6,1.2,0.6,2c0,0.6-0.1,1.2-0.4,1.7c-0.3,0.5-0.6,0.9-0.9,1.2
			s-0.8,0.5-1.4,0.6c-0.6,0.1-1.3,0.2-2.1,0.2H534.3z M536,588.5h2.8c0.8,0,1.3,0,1.6-0.1c0.4-0.1,0.8-0.3,1-0.6
			c0.2-0.3,0.3-0.7,0.3-1.1c0-0.4-0.1-0.8-0.3-1.1c-0.2-0.3-0.5-0.5-0.9-0.7s-1-0.2-2-0.2H536V588.5z M536,594.5h3.2
			c0.6,0,0.9,0,1.2-0.1c0.4-0.1,0.7-0.2,1-0.4s0.5-0.4,0.7-0.7c0.2-0.3,0.3-0.7,0.3-1.1c0-0.5-0.1-0.9-0.4-1.3
			c-0.2-0.4-0.6-0.6-1-0.7c-0.4-0.1-1.1-0.2-1.9-0.2h-3V594.5z"/>
	</g>
</g>
<g id="Logical_swiitch">
	<g>
		<g>
			<g>
				<path class="st15" d="M249.4,480.5L249.4,480.5l-0.4-0.1c-5.3-1-9.5-10.2-9.5-20.9s4.2-19.9,9.5-20.9l0.4-0.1v0h343.5l0.2,0
					c5.2,0.4,9.4,9.8,9.4,21s-4.2,20.6-9.4,21l-0.2,0H249.4z"/>
				<path d="M592.8,439l0.2,0c5,0.4,9,9.5,9,20.5s-4,20.1-9,20.5l-0.2,0H249.5l-0.5-0.1c-5.1-1-9.1-9.9-9.1-20.4s4-19.5,9.1-20.4
					l0.5-0.1H592.8 M593.1,438H248.9v0.1c-5.6,1-9.9,10.2-9.9,21.4s4.4,20.4,9.9,21.4v0.1h344.2v0c5.5-0.4,9.9-9.9,9.9-21.5
					S598.6,438.4,593.1,438L593.1,438L593.1,438z"/>
			</g>
			<g>
				<path class="st0" d="M589.2,477c-5.4,0-9.7-8-9.7-17.9c0-9.9,4.4-17.9,9.7-17.9c5.4,0,9.7,8,9.7,17.9
					C599,468.9,594.6,477,589.2,477z"/>
				<path d="M589.2,441.6c5,0,9.2,8,9.2,17.4c0,9.4-4.2,17.4-9.2,17.4c-5,0-9.2-8-9.2-17.4C580,449.6,584.2,441.6,589.2,441.6
					 M589.2,440.6c-5.6,0-10.2,8.3-10.2,18.4c0,10.2,4.6,18.4,10.2,18.4c5.6,0,10.2-8.3,10.2-18.4
					C599.5,448.9,594.9,440.6,589.2,440.6L589.2,440.6z"/>
			</g>
		</g>
	</g>
	<g>
		<path d="M282.8,453.8v1h-6.2v-1H282.8z M282.3,461.2v5.3h-3.9v0.9h-1v-6.1H282.3z M277.4,457.3v-1h4.9v1H277.4z M277.4,459.7v-1
			h4.9v1H277.4z M282.2,451.5v1h-4.7v-1H282.2z M281.2,462.2h-2.8v3.2h2.8V462.2z M288.9,450.9c0,0.1-0.1,0.2-0.3,0.2
			c1.2,1.7,3.2,3.7,5,4.8c-0.3,0.3-0.5,0.7-0.7,1.1c-1.8-1.3-3.9-3.3-5-5c-1,1.7-2.9,3.8-4.9,5.2c-0.1-0.3-0.4-0.7-0.7-1
			c2-1.3,4-3.5,5-5.4L288.9,450.9z M292.5,458.7v7.7c0,1.1-0.4,1.2-2.1,1.2c0-0.3-0.2-0.7-0.3-1c0.3,0,0.5,0,0.7,0
			c0.6,0,0.6,0,0.6-0.3v-2.9h-1.7v3.9h-0.9v-3.9h-1.7v3.9h-0.9v-3.9h-1.6v4.1h-1.1v-8.9H292.5z M284.6,462.4h1.6v-2.7h-1.6V462.4z
			 M284.9,456h6.1v1h-6.1V456z M287.1,462.4h1.7v-2.7h-1.7V462.4z M289.7,462.4h1.7v-2.7h-1.7V462.4z"/>
		<path d="M298.3,458.3v4.5l2.4-0.7c0,0.1,0,0.2,0.1,1c-2.1,0.7-4.3,1.4-5.7,1.8c0,0.1-0.1,0.2-0.2,0.3l-0.5-1.3
			c0.7-0.2,1.6-0.4,2.6-0.7v-4.8h-2.2v-1.1h2.2v-4.1h-2.4V452h5.9v1.2h-2.4v4.1h2.2v1.1H298.3z M306.5,465.8h5v1.1H300v-1.1h5.4V463
			h-4.2v-1.1h4.2v-2.1h-4.1v-8h9.5v8h-4.2v2.1h4.5v1.1h-4.5V465.8z M302.4,452.9v2.4h3v-2.4H302.4z M302.4,458.8h3v-2.4h-3V458.8z
			 M309.6,455.3v-2.4h-3.1v2.4H309.6z M309.6,458.8v-2.4h-3.1v2.4H309.6z"/>
		<path d="M325.1,453.2c0,0.1-0.1,0.2-0.2,0.2c-1,2.3-2.1,4.3-3.6,6.2c2,1.6,4.9,4.2,6.6,6.1l-1.1,1c-1.6-1.8-4.5-4.6-6.3-6
			c-1.6,1.9-4.3,4.6-6.9,6c-0.2-0.3-0.6-0.7-0.9-1c5-2.7,8.9-7.9,10.6-11.8h-8.8v-1.2h9.5l0.2-0.1L325.1,453.2z"/>
		<path d="M344.5,452.5c-0.1,0.1-0.2,0.1-0.3,0.1c-0.1,0-0.1,0-0.2,0c-1.4,1.4-3.4,3-5.1,4.3c0.1,0.1,0.4,0.2,0.4,0.2
			c0,0.1-0.2,0.2-0.4,0.2v9.7h-1.3v-9.3c-1.9,1.4-4.4,2.8-6.9,4c-0.2-0.3-0.5-0.7-0.8-1c4.9-2.3,10.3-6.1,13.2-9.3L344.5,452.5z"/>
		<path d="M348.3,456.1c0.5,1.1,1.1,2.8,1.4,3.9l-1,0.3c-0.2-1-0.8-2.7-1.3-3.8L348.3,456.1z M359,456.3c0,0.2-0.2,0.2-0.4,0.2
			c-1.4,5.3-4.1,8.5-8.4,10.2c-0.1-0.2-0.5-0.6-0.7-0.8c4.3-1.7,6.8-4.6,8.1-10L359,456.3z M352.7,455.3c0.4,1.2,0.7,2.9,0.8,4.1
			l-1.1,0.2c-0.1-1.2-0.5-2.8-0.8-4.1L352.7,455.3z"/>
		<path d="M376.9,459h-6.3c-0.4,3.5-1.6,6-5.1,8c-0.3-0.3-0.7-0.6-1-0.9c3.2-1.8,4.4-4,4.8-7.2H362v-1.2h7.4
			c0.1-1.2,0.1-2.4,0.1-3.9c-1.8,0.4-4.2,0.8-6.2,1c-0.1-0.3-0.2-0.7-0.4-1c6.3-0.8,10-2,11.2-2.5l1,1.1c-0.1,0-0.1,0.1-0.2,0.1
			c-0.1,0-0.1,0-0.2,0c-1,0.4-2.6,0.8-4,1.2l0.6,0.1c0,0.2-0.1,0.3-0.4,0.3c0,1.4,0,2.6-0.1,3.7h6.2V459z"/>
		<path d="M384.6,459.2c0,1-0.8,1.9-1.9,1.9s-1.9-0.8-1.9-1.9c0-1,0.8-1.9,1.9-1.9C383.8,457.3,384.6,458.2,384.6,459.2z"/>
		<path d="M401.4,455.5c-0.1,0.1-0.2,0.1-0.3,0.2c-1.2,1.4-2.7,3-4.4,4.3l0.3,0.1c0,0.1-0.2,0.2-0.4,0.3v6.9h-1.3v-6.2
			c-1.8,1.3-4.2,2.5-6.4,3.4c-0.1-0.1-0.7-0.9-0.8-1c4.4-1.6,8.5-4.3,11-7.2H390v-1.2h10.3l0.2-0.1L401.4,455.5z M398.5,454.1
			c-1.6-0.8-4-1.6-5.9-2.2l0.6-1c1.9,0.5,4.4,1.3,6,2.1L398.5,454.1z M398.6,459.9c1.8,0.9,4,2.3,5.3,3.3l-0.9,1
			c-1.2-1-3.4-2.5-5.2-3.4L398.6,459.9z"/>
		<path d="M407.5,456.1c0.5,1.1,1.1,2.8,1.4,3.9l-1,0.3c-0.2-1-0.8-2.7-1.3-3.8L407.5,456.1z M418.3,456.3c0,0.2-0.2,0.2-0.4,0.2
			c-1.4,5.3-4.1,8.5-8.4,10.2c-0.1-0.2-0.5-0.6-0.7-0.8c4.3-1.7,6.8-4.6,8.1-10L418.3,456.3z M411.9,455.3c0.4,1.2,0.7,2.9,0.8,4.1
			l-1.1,0.2c-0.1-1.2-0.5-2.8-0.8-4.1L411.9,455.3z"/>
		<path d="M431.4,460.9c-1.8-1-4.4-2.2-6.3-2.9v9h-1.4v-15.6l1.8,0.1c0,0.2-0.2,0.3-0.5,0.4v5.3l0.3-0.4c2.1,0.8,4.9,2,6.8,3
			L431.4,460.9z"/>
		<path d="M449,453.3c-0.1,0.1-0.1,0.1-0.2,0.2c-0.7,7-3.1,10.8-9.1,13.3c-0.2-0.3-0.6-0.7-0.9-1c5.7-2.3,8-5.8,8.6-11.7h-10.3v5
			h-1.2v-6.2h11.9l0.2-0.1L449,453.3z"/>
		<path d="M451.8,458.2h15v1.3h-14.4c-0.1,0.2-0.3,0.3-0.6,0.3L451.8,458.2z"/>
		<path d="M482.3,454.7c-0.1,0.1-0.2,0.2-0.3,0.3c-1.9,5.8-4.8,9.6-9.8,12.1c-0.2-0.3-0.6-0.7-0.9-1c4.7-2.3,7.6-5.9,9.1-10.7H474
			c-1,1.6-2.4,3.2-4,4.4c-0.3-0.3-0.7-0.6-1-0.8c2.4-1.9,4.5-4.6,5.7-7.8l1.7,0.5c-0.1,0.2-0.3,0.2-0.5,0.2
			c-0.4,0.8-0.7,1.5-1.2,2.3h6.3l0.2-0.1L482.3,454.7z"/>
		<path d="M492.8,469.8c-0.9-1.1-1.6-2.4-2.2-3.9s-0.9-3-0.9-4.6c0-1.4,0.2-2.7,0.7-4c0.5-1.5,1.3-3,2.4-4.4h1.1
			c-0.7,1.2-1.2,2.1-1.4,2.6c-0.4,0.8-0.6,1.7-0.8,2.5c-0.3,1.1-0.4,2.2-0.4,3.3c0,2.8,0.9,5.6,2.6,8.4H492.8z"/>
		<path d="M499.6,466l-5-12.9h1.8l3.3,9.4c0.3,0.8,0.5,1.5,0.7,2.1c0.2-0.7,0.4-1.4,0.7-2.1l3.5-9.4h1.7l-5,12.9H499.6z"/>
		<path d="M506.6,466l5-6.7l-4.4-6.2h2l2.3,3.3c0.5,0.7,0.8,1.2,1,1.6c0.3-0.5,0.6-1,1-1.5l2.6-3.4h1.9l-4.5,6.1l4.9,6.8h-2.1
			l-3.2-4.6c-0.2-0.3-0.4-0.6-0.6-0.9c-0.3,0.5-0.5,0.8-0.6,1l-3.2,4.5H506.6z"/>
		<path d="M519.9,466v-12.9h1.7v11.4h6.3v1.5H519.9z"/>
		<path d="M528.5,466l4.9-12.9h1.8l5.3,12.9h-1.9l-1.5-3.9h-5.4l-1.4,3.9H528.5z M532.3,460.7h4.4l-1.3-3.6c-0.4-1.1-0.7-2-0.9-2.7
			c-0.2,0.8-0.4,1.6-0.7,2.5L532.3,460.7z"/>
		<path d="M541.9,466v-12.9h1.7l6.8,10.1v-10.1h1.6V466h-1.7l-6.8-10.1V466H541.9z"/>
		<path d="M555.8,469.8h-1.1c1.8-2.8,2.6-5.6,2.6-8.4c0-1.1-0.1-2.2-0.4-3.3c-0.2-0.9-0.5-1.7-0.8-2.5c-0.2-0.5-0.7-1.4-1.4-2.6h1.1
			c1.1,1.5,1.9,2.9,2.4,4.4c0.5,1.3,0.7,2.6,0.7,4c0,1.6-0.3,3.1-0.9,4.6C557.4,467.4,556.7,468.7,555.8,469.8z"/>
	</g>
	<g id="Layer_9">
	</g>
</g>
<g id="management_vxlan">
	<g id="Layer_6">
	</g>
	<g>
		<g>
			<path class="st18" d="M103.5,547.5L103.5,547.5l-0.4-0.1c-7.7-1.1-13.6-10.3-13.6-21.4s5.8-20.3,13.6-21.4l0.4-0.1v0h485.3l0.2,0
				c7.6,0.4,13.5,9.8,13.5,21.5s-5.9,21.1-13.5,21.5l-0.4,0H103.5z"/>
			<path d="M588.6,505l0.3,0c7.2,0.4,13.1,9.8,13.1,21s-5.9,20.6-13.1,21l-0.2,0H103.8l-0.7-0.1c-7.4-1-13.1-10.2-13.1-20.9
				s5.8-19.9,13.1-20.9l0.7-0.1H588.6 M589,504H103v0.1c-7.9,1.1-14,10.5-14,21.9s6.1,20.8,14,21.9v0.1h486v0c7.8-0.4,14-10.1,14-22
				C603,514.1,596.8,504.4,589,504L589,504L589,504z"/>
		</g>
		<g>
			<path class="st0" d="M587.5,543.9c-5.5,0-10-8.2-10-18.4c0-10.1,4.5-18.4,10-18.4c5.5,0,10,8.2,10,18.4
				C597.5,535.7,593,543.9,587.5,543.9z"/>
			<path d="M587.5,507.7c5.1,0,9.5,8.2,9.5,17.9c0,9.7-4.4,17.9-9.5,17.9c-5.1,0-9.5-8.2-9.5-17.9
				C578,515.9,582.4,507.7,587.5,507.7 M587.5,506.7c-5.8,0-10.5,8.4-10.5,18.9c0,10.4,4.7,18.9,10.5,18.9S598,536,598,525.6
				C598,515.1,593.3,506.7,587.5,506.7L587.5,506.7z"/>
		</g>
	</g>
	<g>
		<path d="M147.9,522.2c-0.1-0.5-0.5-1.3-0.9-1.9h-0.9c-0.5,0.8-1.1,1.5-1.6,2c-0.2-0.2-0.6-0.5-0.9-0.6c1-0.9,2-2.4,2.6-3.9
			l1.4,0.5c-0.1,0.1-0.2,0.2-0.4,0.1c-0.1,0.3-0.3,0.6-0.4,0.9h5v1h-3.5c0.3,0.6,0.6,1.2,0.8,1.6L147.9,522.2z M160.3,519.2v1h-4.2
			c0.4,0.5,0.8,1.1,1,1.6l-1.1,0.4c-0.2-0.5-0.8-1.3-1.3-2h-1.6c-0.4,0.5-0.7,0.9-1.1,1.3l0.8,0.1c0,0.1-0.1,0.2-0.3,0.2v1.1h7.2
			v3.4h-1.2v-2.4h-13v2.4h-1.2v-3.4h7v-1c-0.3-0.2-0.6-0.4-0.8-0.5c1.1-0.8,2.2-2.2,2.8-3.7l1.4,0.4c0,0.1-0.2,0.2-0.4,0.2
			c-0.1,0.3-0.3,0.6-0.5,0.9H160.3z M148.2,528.7v1.4h10v4.4H157v-0.6h-8.8v0.6H147v-9.4h10.1v3.6H148.2z M155.9,526.1h-7.7v1.7h7.7
			V526.1z M157,531h-8.8v1.9h8.8V531z"/>
		<path d="M165.3,525.3v4.5l2.4-0.7c0,0.1,0,0.2,0.1,1c-2.1,0.7-4.3,1.4-5.7,1.8c0,0.1-0.1,0.2-0.2,0.3l-0.5-1.3
			c0.7-0.2,1.6-0.4,2.6-0.7v-4.8h-2.2v-1.1h2.2v-4.1h-2.4V519h5.9v1.2h-2.4v4.1h2.2v1.1H165.3z M173.5,532.8h5v1.1H167v-1.1h5.4V530
			h-4.2v-1.1h4.2v-2.1h-4.1v-8h9.5v8h-4.2v2.1h4.5v1.1h-4.5V532.8z M169.4,519.9v2.4h3v-2.4H169.4z M169.4,525.8h3v-2.4h-3V525.8z
			 M176.6,522.3v-2.4h-3.1v2.4H176.6z M176.6,525.8v-2.4h-3.1v2.4H176.6z"/>
		<path d="M192.6,531.5c-0.5,0.6-1.1,1-1.7,1.3c-0.6,0.3-1.3,0.4-2,0.4c-1.3,0-2.4-0.4-3.1-1.3c-0.6-0.7-0.9-1.5-0.9-2.4
			c0-0.8,0.3-1.5,0.8-2.2c0.5-0.6,1.3-1.2,2.3-1.7c-0.6-0.7-1-1.2-1.2-1.6s-0.3-0.8-0.3-1.2c0-0.8,0.3-1.4,0.9-2
			c0.6-0.6,1.4-0.9,2.3-0.9c0.9,0,1.6,0.3,2.2,0.8s0.8,1.2,0.8,1.9c0,1.2-0.8,2.3-2.4,3.1l2.3,2.9c0.3-0.5,0.5-1.1,0.6-1.8l1.6,0.4
			c-0.3,1.1-0.7,2.1-1.1,2.8c0.6,0.8,1.3,1.4,2,2l-1.1,1.3C193.9,532.9,193.2,532.3,192.6,531.5z M191.6,530.2l-2.9-3.6
			c-0.9,0.5-1.4,1-1.7,1.4s-0.4,0.9-0.4,1.3c0,0.5,0.2,1.1,0.6,1.6s1,0.8,1.8,0.8c0.5,0,1-0.1,1.5-0.4S191.3,530.7,191.6,530.2z
			 M189.3,524.8c0.7-0.4,1.1-0.8,1.3-1.1s0.3-0.6,0.3-1c0-0.4-0.1-0.8-0.4-1.1c-0.3-0.3-0.6-0.4-1-0.4c-0.4,0-0.8,0.1-1.1,0.4
			s-0.4,0.6-0.4,1c0,0.2,0.1,0.4,0.2,0.6c0.1,0.2,0.3,0.5,0.5,0.7L189.3,524.8z"/>
		<path d="M206.1,533l-5-12.9h1.8l3.3,9.4c0.3,0.8,0.5,1.5,0.7,2.1c0.2-0.7,0.4-1.4,0.7-2.1l3.5-9.4h1.7l-5,12.9H206.1z"/>
		<path d="M213.1,533l5-6.7l-4.4-6.2h2l2.3,3.3c0.5,0.7,0.8,1.2,1,1.6c0.3-0.5,0.6-1,1-1.5l2.6-3.4h1.9l-4.5,6.1l4.9,6.8h-2.1
			l-3.2-4.6c-0.2-0.3-0.4-0.6-0.6-0.9c-0.3,0.5-0.5,0.8-0.6,1l-3.2,4.5H213.1z"/>
		<path d="M226.3,533v-12.9h1.7v11.4h6.3v1.5H226.3z"/>
		<path d="M235,533l4.9-12.9h1.8l5.3,12.9h-1.9l-1.5-3.9h-5.4l-1.4,3.9H235z M238.7,527.7h4.4l-1.3-3.6c-0.4-1.1-0.7-2-0.9-2.7
			c-0.2,0.8-0.4,1.6-0.7,2.5L238.7,527.7z"/>
		<path d="M248.4,533v-12.9h1.7l6.8,10.1v-10.1h1.6V533h-1.7l-6.8-10.1V533H248.4z"/>
		<path d="M265.6,529.1v-1.6h4.9v1.6H265.6z"/>
		<path d="M271.6,529.1v-1.6h4.9v1.6H271.6z"/>
		<path d="M283.4,520.5h11.5l0.1-0.1l1.2,0.9c-0.1,0.1-0.1,0.1-0.2,0.2c-1.5,6.8-4.6,10.3-10.1,12.4c-0.2-0.3-0.6-0.8-0.8-1.1
			c5.2-1.9,8.3-5.3,9.4-11.1h-11.1V520.5z M297.1,517.3c1.1,0,2,0.9,2,2c0,1.1-0.9,2-2,2c-1.1,0-2-0.9-2-2
			C295.2,518.1,296.1,517.3,297.1,517.3z M298.5,519.2c0-0.8-0.6-1.4-1.4-1.4c-0.8,0-1.4,0.6-1.4,1.4c0,0.8,0.6,1.4,1.4,1.4
			C297.9,520.6,298.5,520,298.5,519.2z"/>
		<path d="M314,524.2c0,0.1-0.1,0.1-0.2,0.2c-1.5,5.4-4.5,8.1-9.9,9.6c-0.2-0.3-0.5-0.8-0.8-1c4.9-1.2,7.9-3.7,9.1-7.9h-11.9v-1.2
			h12.5l0.2-0.1L314,524.2z M312.3,520.3H302v-1.2h10.3V520.3z"/>
		<path d="M330.9,519.5c-0.1,0.1-0.2,0.1-0.3,0.1c-0.1,0-0.1,0-0.2,0c-1.4,1.4-3.4,3-5.1,4.3c0.1,0.1,0.4,0.2,0.4,0.2
			c0,0.1-0.2,0.2-0.4,0.2v9.7H324v-9.3c-1.9,1.4-4.4,2.8-6.9,4c-0.2-0.3-0.5-0.7-0.8-1c4.9-2.3,10.3-6.1,13.2-9.3L330.9,519.5z"/>
		<path d="M332.6,527.2c1.4-1.4,4.2-4.6,5.2-5.7c0.5-0.5,0.9-0.7,1.4-0.7c0.5,0,1,0.3,1.5,0.7c2.3,2.1,6.1,6.3,8.8,9.8l-1.1,1
			c-2.6-3.5-6.3-7.8-8.3-9.7c-0.3-0.3-0.5-0.5-0.8-0.5c-0.2,0-0.5,0.2-0.7,0.5c-0.8,0.9-3.5,3.9-4.7,5.2c0,0,0,0.1,0,0.1
			c0,0.1-0.1,0.3-0.2,0.4L332.6,527.2z M344.6,519.7c0.8,0.7,1.7,1.8,2.3,2.6l-0.7,0.5c-0.5-0.8-1.5-2-2.3-2.6L344.6,519.7z
			 M346.7,518.1c0.8,0.7,1.8,1.8,2.3,2.6l-0.7,0.5c-0.5-0.8-1.5-1.9-2.3-2.6L346.7,518.1z"/>
		<path d="M351.3,525.2h15v1.3H352c-0.1,0.2-0.3,0.3-0.6,0.3L351.3,525.2z"/>
		<path d="M379.3,527.9c-1.8-1-4.4-2.2-6.3-2.9v9h-1.4v-15.6l1.8,0.1c0,0.2-0.2,0.3-0.5,0.4v5.3l0.3-0.4c2.1,0.8,4.9,2,6.8,3
			L379.3,527.9z"/>
		<path d="M392,533l-5-12.9h1.8l3.3,9.4c0.3,0.8,0.5,1.5,0.7,2.1c0.2-0.7,0.4-1.4,0.7-2.1l3.5-9.4h1.7l-5,12.9H392z"/>
		<path d="M400.3,533v-12.9h1.7v11.4h6.3v1.5H400.3z"/>
		<path d="M408.9,533l4.9-12.9h1.8L421,533H419l-1.5-3.9h-5.4l-1.4,3.9H408.9z M412.6,527.7h4.4l-1.3-3.6c-0.4-1.1-0.7-2-0.9-2.7
			c-0.2,0.8-0.4,1.6-0.7,2.5L412.6,527.7z"/>
		<path d="M422.3,533v-12.9h1.7l6.8,10.1v-10.1h1.6V533h-1.7l-6.8-10.1V533H422.3z"/>
		<path d="M437.9,533l4.9-12.9h1.8L450,533H448l-1.5-3.9h-5.4l-1.4,3.9H437.9z M441.6,527.7h4.4l-1.3-3.6c-0.4-1.1-0.7-2-0.9-2.7
			c-0.2,0.8-0.4,1.6-0.7,2.5L441.6,527.7z"/>
		<path d="M458.2,536.8c-0.9-1.1-1.6-2.4-2.2-3.9s-0.9-3-0.9-4.6c0-1.4,0.2-2.7,0.7-4c0.5-1.5,1.3-3,2.4-4.4h1.1
			c-0.7,1.2-1.2,2.1-1.4,2.6c-0.4,0.8-0.6,1.7-0.8,2.5c-0.3,1.1-0.4,2.2-0.4,3.3c0,2.8,0.9,5.6,2.6,8.4H458.2z"/>
		<path d="M474.2,522.5c-0.1,0.1-0.2,0.1-0.3,0.2c-1.2,1.4-2.7,3-4.4,4.3l0.3,0.1c0,0.1-0.2,0.2-0.4,0.3v6.9h-1.3v-6.2
			c-1.8,1.3-4.2,2.5-6.4,3.4c-0.1-0.1-0.7-0.9-0.8-1c4.4-1.6,8.5-4.3,11-7.2h-9.1v-1.2H473l0.2-0.1L474.2,522.5z M471.2,521.1
			c-1.6-0.8-4-1.6-5.9-2.2l0.6-1c1.9,0.5,4.4,1.3,6,2.1L471.2,521.1z M471.3,526.9c1.8,0.9,4,2.3,5.3,3.3l-0.9,1
			c-1.2-1-3.4-2.5-5.2-3.4L471.3,526.9z"/>
		<path d="M493.4,519.5c-0.1,0.1-0.2,0.1-0.3,0.1c-0.1,0-0.1,0-0.2,0c-1.4,1.4-3.4,3-5.1,4.3c0.1,0.1,0.4,0.2,0.4,0.2
			c0,0.1-0.2,0.2-0.4,0.2v9.7h-1.3v-9.3c-1.9,1.4-4.4,2.8-6.9,4c-0.2-0.3-0.5-0.7-0.8-1c4.9-2.3,10.3-6.1,13.2-9.3L493.4,519.5z"/>
		<path d="M509.9,525.4h-6.1l0.3,0.1c0,0.1-0.2,0.2-0.4,0.2c-0.5,3.3-1.7,6.3-5.6,8.2c-0.2-0.2-0.7-0.7-1-0.9
			c3.7-1.8,4.8-4.3,5.2-7.6h-7v-1.2h14.5V525.4z M508.1,520.3H497v-1.2h11.1V520.3z"/>
		<path d="M523.2,522.5c-0.1,0.1-0.2,0.1-0.3,0.1c-0.1,0-0.2,0-0.3,0c-1.2,1.2-2.6,2.4-4,3.3c0.2,0.1,0.3,0.1,0.4,0.2
			c0,0.1-0.2,0.2-0.3,0.2v7.8h-1.1v-7.5c-1.5,1.1-4,2.5-5.9,3.4c-0.1-0.2-0.4-0.6-0.6-0.8c3.1-1.4,7.7-4.1,10.9-7.6L523.2,522.5z"/>
		<path d="M538.2,520.5c-0.5-0.7-1.2-1.4-1.7-1.9l0.6-0.5c0.8,0.7,1.8,1.8,2.3,2.6l-0.3,0.3l0.1,0.1c-0.1,0.1-0.1,0.2-0.3,0.2
			c-1.4,6.8-4.9,10.8-10.8,12.9c-0.2-0.3-0.6-0.8-0.8-1c5.7-1.9,9-5.8,10-11.2h-11.5v-1.2h11.9l0.2-0.2L538.2,520.5z M540.9,520.3
			c-0.5-0.8-1.5-2-2.2-2.6l0.7-0.5c0.8,0.7,1.7,1.8,2.3,2.6L540.9,520.3z"/>
		<path d="M543.9,536.8h-1.1c1.8-2.8,2.6-5.6,2.6-8.4c0-1.1-0.1-2.2-0.4-3.3c-0.2-0.9-0.5-1.7-0.8-2.5c-0.2-0.5-0.7-1.4-1.4-2.6h1.1
			c1.1,1.5,1.9,2.9,2.4,4.4c0.5,1.3,0.7,2.6,0.7,4c0,1.6-0.3,3.1-0.9,4.6C545.5,534.4,544.8,535.7,543.9,536.8z"/>
	</g>
</g>
<g id="P_x2F_V">
	<g>
		<g>
			<g>
				<rect x="104.5" y="280" class="st19" width="47.3" height="47.3"/>
				<linearGradient id="SVGID_1_" gradientUnits="userSpaceOnUse" x1="135.9627" y1="296.7212" x2="124.5096" y2="338.8456">
					<stop  offset="0" style="stop-color:#CCE0F4"/>
					<stop  offset="7.748766e-002" style="stop-color:#C5DDF3"/>
					<stop  offset="0.1918" style="stop-color:#B1D5EF"/>
					<stop  offset="0.329" style="stop-color:#90C9EA"/>
					<stop  offset="0.4838" style="stop-color:#63B7E2"/>
					<stop  offset="0.6515" style="stop-color:#2AA1D9"/>
					<stop  offset="0.6829" style="stop-color:#1E9CD7"/>
					<stop  offset="0.8652" style="stop-color:#0075BE"/>
					<stop  offset="0.9944" style="stop-color:#005B97"/>
				</linearGradient>
				<polygon class="st20" points="106.3,325.5 150,281.8 150,325.5 				"/>
			</g>
			<text transform="matrix(1 0 0 1 108.084 315.4692)" class="st0 st9 st21">P</text>
			<text transform="matrix(1 0 0 1 116.6836 324.0688)" class="st0 st9 st21">V</text>
			<g>
				<g>
					<g>
						<g>
							<polygon class="st0" points="110.1,288.6 112.8,297.8 119.2,291.8 							"/>
						</g>
					</g>
				</g>
				<g>
					<g>
						<g>
							
								<rect x="117" y="293.5" transform="matrix(0.7268 -0.6868 0.6868 0.7268 -172.128 163.1521)" class="st0" width="4.1" height="9"/>
						</g>
					</g>
				</g>
			</g>
			<g>
				<g>
					<g>
						<g>
							<polygon class="st0" points="142.6,322.1 132.5,318.2 139.2,311.8 							"/>
						</g>
					</g>
				</g>
				<g>
					<g>
						<g>
							
								<rect x="130.2" y="306.1" transform="matrix(0.7268 -0.6868 0.6868 0.7268 -177.623 175.9507)" class="st0" width="4.3" height="10.4"/>
						</g>
					</g>
				</g>
			</g>
		</g>
	</g>
</g>
<g id="Layer_15">
	<g>
		<g>
			<g>
				<rect x="108.5" y="720.9" class="st19" width="38.1" height="38.1"/>
				<linearGradient id="SVGID_2_" gradientUnits="userSpaceOnUse" x1="133.8253" y1="734.3933" x2="124.6063" y2="768.3004">
					<stop  offset="0" style="stop-color:#CCE0F4"/>
					<stop  offset="7.748766e-002" style="stop-color:#C5DDF3"/>
					<stop  offset="0.1918" style="stop-color:#B1D5EF"/>
					<stop  offset="0.329" style="stop-color:#90C9EA"/>
					<stop  offset="0.4838" style="stop-color:#63B7E2"/>
					<stop  offset="0.6515" style="stop-color:#2AA1D9"/>
					<stop  offset="0.6829" style="stop-color:#1E9CD7"/>
					<stop  offset="0.8652" style="stop-color:#0075BE"/>
					<stop  offset="0.9944" style="stop-color:#005B97"/>
				</linearGradient>
				<polygon class="st22" points="110,757.5 145.1,722.4 145.1,757.5 				"/>
			</g>
			<text transform="matrix(1 0 0 1 111.3848 749.484)" class="st0 st9 st23">P</text>
			<text transform="matrix(1 0 0 1 118.3071 756.4059)" class="st0 st9 st23">V</text>
			<g>
				<g>
					<g>
						<g>
							<polygon class="st0" points="113,727.9 115.2,735.3 120.3,730.4 							"/>
						</g>
					</g>
				</g>
				<g>
					<g>
						<g>
							
								<rect x="118.6" y="731.8" transform="matrix(0.7268 -0.6868 0.6868 0.7268 -472.2413 283.4423)" class="st0" width="3.3" height="7.2"/>
						</g>
					</g>
				</g>
			</g>
			<g>
				<g>
					<g>
						<g>
							<polygon class="st0" points="139.2,754.9 131,751.7 136.4,746.5 							"/>
						</g>
					</g>
				</g>
				<g>
					<g>
						<g>
							
								<rect x="129.2" y="741.9" transform="matrix(0.7268 -0.6868 0.6868 0.7268 -476.6754 293.7574)" class="st0" width="3.5" height="8.4"/>
						</g>
					</g>
				</g>
			</g>
		</g>
	</g>
	<text transform="matrix(1 0 0 1 91 780)" class="st9 st16">NSX Edge</text>
</g>
<g id="Layer_16">
	<g>
		<rect x="223" y="722" class="st24" width="42" height="37"/>
		<rect x="264.1" y="722" class="st25" width="91.9" height="37"/>
	</g>
	<text transform="matrix(1 0 0 1 229.2979 746.4043)" class="st0 st9 st26">VM</text>
	<text transform="matrix(0.7949 0 0 1 269.9365 746.4043)"><tspan x="0" y="0" class="st0 st9 st26">HCX </tspan><tspan x="39.5" y="0" class="st0 st7 st26">クラウド</tspan></text>
	<text transform="matrix(1 0 0 1 229 780)" class="st9 st16">HCX Manager</text>
</g>
<g id="VM_HCX">
	<g>
		<rect x="146" y="360.8" class="st24" width="52.1" height="47"/>
		<rect x="197" y="360.8" class="st25" width="114" height="47"/>
	</g>
	<text transform="matrix(1 0 0 1 154 391.75)" class="st0 st9 st13">VM</text>
	<text transform="matrix(0.7901 0 0 1 205 391.75)"><tspan x="0" y="0" class="st0 st9 st13">HCX </tspan><tspan x="50.2" y="0" class="st0 st7 st13">クラウド</tspan></text>
</g>
</svg>
