<?xml version="1.0" encoding="utf-8"?>
<!-- Generator: Adobe Illustrator 22.0.1, SVG Export Plug-In . SVG Version: 6.00 Build 0)  -->
<svg version="1.1" id="Layer_1" xmlns="http://www.w3.org/2000/svg" xmlns:xlink="http://www.w3.org/1999/xlink" x="0px" y="0px"
	 viewBox="0 0 600 320" style="enable-background:new 0 0 600 320;" xml:space="preserve">
<style type="text/css">
	.st0{fill:#4C84C5;}
	.st1{fill:#959595;}
	.st2{fill:#1DA78D;}
	.st3{fill:#FFFFFF;}
	.st4{font-family:'Roboto-Light';}
	.st5{font-size:26px;}
	.st6{font-size:21px;}
	.st7{font-size:17px;}
	.st8{font-size:14px;}
</style>
<rect class="st0" width="600" height="100"/>
<rect y="220" class="st1" width="600" height="100"/>
<rect y="110" class="st2" width="190" height="100"/>
<rect x="205" y="110" class="st2" width="190" height="100"/>
<rect x="410" y="110" class="st2" width="190" height="100"/>
<text transform="matrix(1 0 0 1 156.2998 43.3711)"><tspan x="0" y="0" class="st3 st4 st5">Gestion de la virtualisation</tspan><tspan x="41.5" y="34" class="st3 st4 st6">VMware vCenter Server</tspan></text>
<text transform="matrix(1 0 0 1 15.2656 155.8755)"><tspan x="0" y="0" class="st3 st4 st7">Virtualisation du calcul</tspan><tspan x="30.9" y="23.9" class="st3 st4 st8">VMware vSphere</tspan></text>
<text transform="matrix(1 0 0 1 208.4224 155.8755)"><tspan x="0" y="0" class="st3 st4 st7">Virtualisation du stockage</tspan><tspan x="50.5" y="23.9" class="st3 st4 st8">VMware vSAN</tspan></text>
<text transform="matrix(1 0 0 1 421.2266 155.8755)"><tspan x="0" y="0" class="st3 st4 st7">Virtualisation du réseau</tspan><tspan x="45.9" y="23.9" class="st3 st4 st8">VMware NSX</tspan></text>
<text transform="matrix(1 0 0 1 96.0977 263.5371)" class="st3 st4 st5">Infrastructure physique sur IBM Cloud</text>
<text transform="matrix(1 0 0 1 267.015 300.3732)" class="st3 st4 st6">Stockage</text>
<text transform="matrix(1 0 0 1 407.9196 300.3732)" class="st3 st4 st6">Réseau</text>
<text transform="matrix(1 0 0 1 143.224 299.2558)" class="st3 st4 st6">Calcul</text>
</svg>
