<?xml version="1.0" encoding="UTF-8" standalone="no"?>
<!-- Generator: Adobe Illustrator 21.0.0, SVG Export Plug-In . SVG Version: 6.00 Build 0)  -->

<svg
   xmlns:dc="http://purl.org/dc/elements/1.1/"
   xmlns:cc="http://creativecommons.org/ns#"
   xmlns:rdf="http://www.w3.org/1999/02/22-rdf-syntax-ns#"
   xmlns:svg="http://www.w3.org/2000/svg"
   xmlns="http://www.w3.org/2000/svg"
   xmlns:sodipodi="http://sodipodi.sourceforge.net/DTD/sodipodi-0.dtd"
   xmlns:inkscape="http://www.inkscape.org/namespaces/inkscape"
   version="1.1"
   id="Layer_1"
   x="0px"
   y="0px"
   viewBox="0 0 602 322"
   style="enable-background:new 0 0 602 322;"
   xml:space="preserve"
   inkscape:version="0.91 r13725"
   sodipodi:docname="vcscar-skate-language.svg"><metadata
     id="metadata95"><rdf:RDF><cc:Work
         rdf:about=""><dc:format>image/svg+xml</dc:format><dc:type
           rdf:resource="http://purl.org/dc/dcmitype/StillImage" /></cc:Work></rdf:RDF></metadata><defs
     id="defs93" /><sodipodi:namedview
     pagecolor="#ffffff"
     bordercolor="#666666"
     borderopacity="1"
     objecttolerance="10"
     gridtolerance="10"
     guidetolerance="10"
     inkscape:pageopacity="0"
     inkscape:pageshadow="2"
     inkscape:window-width="1920"
     inkscape:window-height="1015"
     id="namedview91"
     showgrid="false"
     inkscape:zoom="2.1943522"
     inkscape:cx="301.5"
     inkscape:cy="160.5"
     inkscape:window-x="-8"
     inkscape:window-y="-8"
     inkscape:window-maximized="1"
     inkscape:current-layer="Layer_1" /><style
     type="text/css"
     id="style3">
	.st0{fill:none;stroke:#7EA6E0;stroke-width:2;}
	.st1{font-family:'ArialMT';}
	.st2{font-size:10px;}
	.st3{fill:none;stroke:#000000;stroke-miterlimit:10;}
	.st4{stroke:#000000;stroke-miterlimit:10;}
	.st5{stroke:#000000;stroke-width:2;}
	.st6{fill:none;stroke:#000000;stroke-width:2;}
</style><g
     transform="translate(0.95571537,0.95571537)"
     id="g5"><path
       pointer-events="none"
       class="st0"
       d="m 8.5,81 75,0 c 4.1,0 7.5,3.4 7.5,7.5 l 0,35 c 0,4.1 -3.4,7.5 -7.5,7.5 l -75,0 C 4.4,131 1,127.6 1,123.5 l 0,-35 C 1,84.4 4.4,81 8.5,81 Z"
       id="path7"
       inkscape:connector-curvature="0"
       style="fill:none;stroke:#7ea6e0;stroke-width:2" /><g
       id="g9"><text
         transform="translate(16.8696,108.5)"
         class="st1 st2"
         id="text11"
         style="font-size:10px;font-family:ArialMT"><tspan
           style="font-style:normal;font-variant:normal;font-weight:normal;font-stretch:normal;font-family:Arial;-inkscape-font-specification:Arial"
           id="tspan4227">base_combo</tspan></text>
</g><path
       pointer-events="none"
       class="st0"
       d="m 188.5,81 75,0 c 4.1,0 7.5,3.4 7.5,7.5 l 0,35 c 0,4.1 -3.4,7.5 -7.5,7.5 l -75,0 c -4.1,0 -7.5,-3.4 -7.5,-7.5 l 0,-35 c 0,-4.1 3.4,-7.5 7.5,-7.5 z"
       id="path13"
       inkscape:connector-curvature="0"
       style="fill:none;stroke:#7ea6e0;stroke-width:2" /><g
       id="g15"><text
         transform="translate(198.2612,108.5)"
         class="st1 st2"
         id="text17"
         style="font-size:10px;font-family:ArialMT"><tspan
           style="font-style:normal;font-variant:normal;font-weight:normal;font-stretch:normal;font-family:Arial;-inkscape-font-specification:Arial"
           id="tspan4229">next_combo</tspan></text>
</g><g
       pointer-events="none"
       id="g19"><g
         id="g21"><g
           id="g23"><path
             class="st3"
             d="m 131,116 0,192.7 381.9,0"
             id="path25"
             inkscape:connector-curvature="0"
             style="fill:none;stroke:#000000;stroke-miterlimit:10" /><path
             class="st4"
             d="m 519.9,308.7 -7,3.5 0,-7 7,3.5 z"
             id="path27"
             inkscape:connector-curvature="0"
             style="stroke:#000000;stroke-miterlimit:10" /><path
             class="st3"
             d="m 131,116 0,60 c 0,6.7 3.3,10 10,10 l 127.2,0"
             id="path29"
             inkscape:connector-curvature="0"
             style="fill:none;stroke:#000000;stroke-miterlimit:10" /><path
             class="st4"
             d="m 275.2,186 -7,3.5 0,-7 7,3.5 z"
             id="path31"
             inkscape:connector-curvature="0"
             style="stroke:#000000;stroke-miterlimit:10" /></g><circle
           class="st5"
           cx="131"
           cy="106"
           r="0"
           id="circle33"
           style="stroke:#000000;stroke-width:2" /><g
           id="g35"><path
             class="st3"
             d="m 321,211.3 0,72 191.9,0"
             id="path37"
             inkscape:connector-curvature="0"
             style="fill:none;stroke:#000000;stroke-miterlimit:10" /><path
             class="st4"
             d="m 519.9,283.3 -7,3.5 0,-7 7,3.5 z"
             id="path39"
             inkscape:connector-curvature="0"
             style="stroke:#000000;stroke-miterlimit:10" /><path
             class="st3"
             d="m 331,106 230,0 0,157.2"
             id="path41"
             inkscape:connector-curvature="0"
             style="fill:none;stroke:#000000;stroke-miterlimit:10" /><path
             class="st4"
             d="m 561,270.2 -3.5,-7 7,0 -3.5,7 z"
             id="path43"
             inkscape:connector-curvature="0"
             style="stroke:#000000;stroke-miterlimit:10" /></g></g><path
         class="st0"
         d="m 283.5,161 75,0 c 4.1,0 7.5,3.4 7.5,7.5 l 0,35 c 0,4.1 -3.4,7.5 -7.5,7.5 l -75,0 c -4.1,0 -7.5,-3.4 -7.5,-7.5 l 0,-35 c 0,-4.1 3.4,-7.5 7.5,-7.5 z"
         id="path45"
         inkscape:connector-curvature="0"
         style="fill:none;stroke:#7ea6e0;stroke-width:2" /></g><g
       id="g47"><text
         transform="translate(286.5864,188.5)"
         class="st1 st2"
         id="text49"
         style="font-size:10px;font-family:ArialMT"><tspan
           style="font-style:normal;font-variant:normal;font-weight:normal;font-stretch:normal;font-family:Arial;-inkscape-font-specification:Arial"
           id="tspan4231">landing_combo</tspan></text>
</g><rect
       x="521"
       y="271"
       pointer-events="none"
       class="st6"
       width="80"
       height="50"
       id="rect51"
       style="fill:none;stroke:#000000;stroke-width:2" /><g
       transform="translate(533.5,284.5)"
       id="g53"><text
         class="st1 st2"
         id="text55"
         x="18.952415"
         y="21.65984"
         style="font-size:10px;font-family:ArialMT"><tspan
           style="font-style:normal;font-variant:normal;font-weight:normal;font-stretch:normal;font-family:Gulim;-inkscape-font-specification:Gulim"
           id="tspan4235">완료</tspan></text>
<text
         class="st1 st2"
         id="text57"
         style="font-size:10px;font-family:ArialMT"
         x="19.121946"
         y="9.823123"><tspan
           style="font-style:normal;font-variant:normal;font-weight:normal;font-stretch:normal;font-family:Gulim;-inkscape-font-specification:Gulim"
           id="tspan4233">트릭</tspan></text>
</g><g
       pointer-events="none"
       id="g59"><path
         class="st3"
         d="m 91,106 30,0"
         id="path61"
         inkscape:connector-curvature="0"
         style="fill:none;stroke:#000000;stroke-miterlimit:10" /><path
         class="st3"
         d="M 140.9,105.9 181,106"
         id="path63"
         inkscape:connector-curvature="0"
         style="fill:none;stroke:#000000;stroke-miterlimit:10" /><circle
         class="st5"
         cx="321"
         cy="106"
         r="0"
         id="circle65"
         style="stroke:#000000;stroke-width:2" /><g
         id="g67"><path
           class="st3"
           d="m 270.9,105.4 40,0"
           id="path69"
           inkscape:connector-curvature="0"
           style="fill:none;stroke:#000000;stroke-miterlimit:10" /><path
           class="st3"
           d="m 321,96 0,-25 c 0,-6.7 -3.3,-10 -10,-10 l -79,0 c -6.7,0 -10,1.8 -10.1,5.4 l -0.1,5.4"
           id="path71"
           inkscape:connector-curvature="0"
           style="fill:none;stroke:#000000;stroke-miterlimit:10" /><path
           class="st4"
           d="m 221.7,78.9 -3.4,-7.1 7,0.1 -3.6,7 z"
           id="path73"
           inkscape:connector-curvature="0"
           style="stroke:#000000;stroke-miterlimit:10" /><path
           class="st3"
           d="M 321,153.2 321,116"
           id="path75"
           inkscape:connector-curvature="0"
           style="fill:none;stroke:#000000;stroke-miterlimit:10" /><path
           class="st4"
           d="m 321,160.2 -3.5,-7 7,0 -3.5,7 z"
           id="path77"
           inkscape:connector-curvature="0"
           style="stroke:#000000;stroke-miterlimit:10" /><path
           class="st3"
           d="m 46.3,51.3 0,21.9"
           id="path79"
           inkscape:connector-curvature="0"
           style="fill:none;stroke:#000000;stroke-miterlimit:10" /><path
           class="st4"
           d="m 46.3,80.2 -3.5,-7 7,0 -3.5,7 z"
           id="path81"
           inkscape:connector-curvature="0"
           style="stroke:#000000;stroke-miterlimit:10" /></g><rect
         x="11"
         y="1"
         class="st6"
         width="70"
         height="50"
         id="rect83"
         style="fill:none;stroke:#000000;stroke-width:2" /></g><g
       id="g85"><text
         class="st1 st2"
         id="text87"
         x="33.690006"
         y="21.322861"
         style="font-size:10px;font-family:ArialMT"><tspan
           style="font-style:normal;font-variant:normal;font-weight:normal;font-stretch:normal;font-family:Gulim;-inkscape-font-specification:Gulim"
           id="tspan4225">트릭</tspan></text>
<text
         class="st1 st2"
         id="text89"
         x="33.673737"
         y="32.867146"
         style="font-size:10px;font-family:ArialMT"><tspan
           style="font-style:normal;font-variant:normal;font-weight:normal;font-stretch:normal;font-family:Gulim;-inkscape-font-specification:Gulim"
           id="tspan4223">시작</tspan></text>
</g></g></svg>
