<?xml version="1.0" encoding="utf-8"?>
<!-- Generator: Adobe Illustrator 19.2.1, SVG Export Plug-In . SVG Version: 6.00 Build 0)  -->
<svg version="1.1" id="Layer_1" xmlns="http://www.w3.org/2000/svg" xmlns:xlink="http://www.w3.org/1999/xlink" x="0px" y="0px"
	 viewBox="0 0 600 320" style="enable-background:new 0 0 600 320;" xml:space="preserve">
<style type="text/css">
	.st0{fill:#4C84C5;}
	.st1{fill:#959595;}
	.st2{fill:#1BA78D;}
	.st3{fill:#FFFFFF;}
	.st4{font-family:'Gulim';}
	.st5{font-size:26px;}
	.st6{font-family:'Roboto-Light';}
	.st7{font-size:18px;}
	.st8{font-size:21px;}
</style>
<rect class="st0" width="600" height="100"/>
<rect y="220" class="st1" width="600" height="100"/>
<rect y="110" class="st2" width="190" height="100"/>
<rect x="205" y="110" class="st2" width="190" height="100"/>
<rect x="410" y="110" class="st2" width="190" height="100"/>
<text transform="matrix(1 0 0 1 232.2437 43.3711)"><tspan x="0" y="0" class="st3 st4 st5">가상화</tspan><tspan x="78" y="0" class="st3 st6 st5"> </tspan><tspan x="83.5" y="0" class="st3 st4 st5">관리</tspan><tspan x="-58.8" y="34" class="st3 st6 st5">VMware vCenter Server</tspan></text>
<text transform="matrix(1 0 0 1 39.5967 155.8755)"><tspan x="0" y="0" class="st3 st4 st7">컴퓨팅</tspan><tspan x="54" y="0" class="st3 st6 st7"> </tspan><tspan x="57.8" y="0" class="st3 st4 st7">가상화</tspan><tspan x="-7.5" y="23.9" class="st3 st6 st7">VMware vSphere</tspan></text>
<text transform="matrix(1 0 0 1 235.0923 155.8755)"><tspan x="0" y="0" class="st3 st4 st7">스토리지</tspan><tspan x="72" y="0" class="st3 st6 st7"> </tspan><tspan x="75.8" y="0" class="st3 st4 st7">가상화</tspan><tspan x="12.1" y="23.9" class="st3 st6 st7">VMware vSAN</tspan></text>
<text transform="matrix(1 0 0 1 439.5923 155.8755)"><tspan x="0" y="0" class="st3 st4 st7">네트워크</tspan><tspan x="72" y="0" class="st3 st6 st7"> </tspan><tspan x="75.8" y="0" class="st3 st4 st7">가상화</tspan><tspan x="16.8" y="23.9" class="st3 st6 st7">VMware NSX</tspan></text>
<text transform="matrix(1 0 0 1 104.6255 263.5371)" class="st3 st6 st5">Physical Infrastructure on IBM Cloud</text>
<text transform="matrix(1 0 0 1 265.2503 300.3732)" class="st3 st4 st8">스토리지</text>
<text transform="matrix(1 0 0 1 397.0939 300.3732)" class="st3 st4 st8">네트워크</text>
<text transform="matrix(1 0 0 1 138.3202 299.2558)" class="st3 st4 st8">컴퓨팅</text>
</svg>
