<?xml version="1.0" encoding="utf-8"?>
<!-- Generator: Adobe Illustrator 19.2.1, SVG Export Plug-In . SVG Version: 6.00 Build 0)  -->
<svg version="1.1" id="Layer_1" xmlns="http://www.w3.org/2000/svg" xmlns:xlink="http://www.w3.org/1999/xlink" x="0px" y="0px"
	 viewBox="0 0 600 320" style="enable-background:new 0 0 600 320;" xml:space="preserve">
<style type="text/css">
	.st0{fill:#4C85C5;}
	.st1{fill:#969696;}
	.st2{fill:#1BA88E;}
	.st3{fill:#FFFFFF;}
</style>
<rect class="st0" width="600" height="100"/>
<rect y="220" class="st1" width="600" height="100"/>
<rect y="110" class="st2" width="190" height="100"/>
<rect x="205" y="110" class="st2" width="190" height="100"/>
<rect x="410" y="110" class="st2" width="190" height="100"/>
<g>
	<path class="st3" d="M245.5,24.9c0.5,0.4,0.7,1,0.7,1.8v3c0,3.9-1,7-3.1,9.2c-1.9,2.1-4.4,3.3-7.5,3.5c-0.5,0-0.7-0.2-0.8-0.6
		c0-0.4,0.2-0.7,0.7-0.7c2.9-0.3,5.1-1.4,6.7-3.2c1.7-2,2.5-4.7,2.5-8.3v-3c0-0.4-0.1-0.6-0.3-0.8c-0.2-0.2-0.5-0.3-0.9-0.3h-7.5
		c-0.5,0-0.7-0.2-0.7-0.7c0-0.4,0.2-0.6,0.7-0.6h7.5C244.4,24.2,245.1,24.4,245.5,24.9z M255.5,33.4c0.4,0,0.6,0.2,0.6,0.6
		c0,0.4-0.2,0.6-0.6,0.6h-2.8v9.3c0,0.2-0.1,0.4-0.3,0.5c-0.1,0.1-0.3,0.2-0.5,0.2s-0.4-0.1-0.5-0.2c-0.2-0.1-0.2-0.3-0.2-0.5V24.1
		c0-0.2,0.1-0.4,0.2-0.5c0.1-0.1,0.3-0.2,0.5-0.2s0.4,0.1,0.5,0.2c0.2,0.1,0.3,0.3,0.3,0.5v9.3H255.5z"/>
	<path class="st3" d="M266.9,24c0.1-0.1,0.3-0.2,0.5-0.2s0.4,0.1,0.5,0.2c0.2,0.1,0.3,0.3,0.3,0.6c0,0.5-0.1,1.1-0.2,1.7
		c-0.1,0.4-0.2,0.9-0.4,1.5c1.5,1.1,2.7,2,3.7,2.9c0.9,0.8,1.8,1.9,2.7,3.1c0.2,0.2,0.2,0.4,0.2,0.7c0,0.2-0.1,0.3-0.3,0.5
		c-0.2,0.1-0.3,0.2-0.5,0.1c-0.2,0-0.4-0.2-0.6-0.4c-0.8-1.1-1.7-2.1-2.6-3c-0.9-0.9-1.9-1.8-3.1-2.6c-0.7,1.4-1.3,2.5-2.1,3.4
		c-0.8,1-1.9,2-3.1,3c-0.2,0.1-0.4,0.2-0.6,0.2c-0.2,0-0.3-0.1-0.4-0.3c-0.1-0.2-0.2-0.3-0.1-0.5c0-0.2,0.2-0.4,0.4-0.5
		c1.8-1.2,3.2-2.9,4.2-5c0.9-1.7,1.3-3.3,1.3-4.7C266.7,24.3,266.7,24.1,266.9,24z M277.1,38.1c1.3,0.7,2,1.6,2,2.8
		c0,1.1-0.7,2-2,2.7c-1.5,0.8-3.5,1.1-6.2,1.1c-2.7,0-4.8-0.4-6.3-1.1c-1.3-0.7-2-1.6-2-2.7c0-1.2,0.7-2.1,2-2.8
		c1.5-0.8,3.5-1.1,6.3-1.1C273.6,37,275.7,37.4,277.1,38.1z M265.7,39c-1.1,0.5-1.6,1.1-1.6,1.9c0,0.8,0.5,1.4,1.6,1.8
		c1.2,0.5,2.9,0.7,5.2,0.7c2.2,0,3.9-0.2,5.1-0.7c1.1-0.4,1.6-1,1.6-1.8c0-0.8-0.5-1.4-1.6-1.9c-1.2-0.5-2.9-0.7-5.1-0.7
		C268.6,38.3,266.9,38.5,265.7,39z M281.4,29.6c0.2,0,0.4,0.1,0.5,0.2c0.1,0.1,0.2,0.3,0.2,0.5c0,0.2-0.1,0.3-0.2,0.5
		c-0.1,0.1-0.3,0.2-0.5,0.2h-2.8v5c0,0.2-0.1,0.4-0.3,0.6c-0.1,0.1-0.3,0.2-0.5,0.2s-0.4-0.1-0.5-0.2c-0.2-0.2-0.2-0.3-0.2-0.6V24.1
		c0-0.5,0.2-0.7,0.7-0.7c0.5,0,0.8,0.2,0.8,0.7v5.5H281.4z"/>
	<path class="st3" d="M298,41.2c1.1-0.2,2.2-0.5,3.3-0.9c0.5-0.2,0.8-0.1,0.9,0.3c0.1,0.4,0,0.7-0.4,0.8c-1.8,0.6-4,1.1-6.5,1.3
		c-2.1,0.2-4.7,0.3-8,0.3c-0.3,0-0.5-0.1-0.7-0.2c-0.2-0.1-0.2-0.3-0.2-0.5c0-0.2,0.1-0.3,0.2-0.5c0.2-0.1,0.3-0.2,0.6-0.2
		c0.8,0,1.7,0,2.7,0c1.3,0,2.5-0.1,3.7-0.1v-4.3h1.5v4.2C296,41.6,297,41.4,298,41.2z M300.8,27.4c0.1,0.1,0.2,0.3,0.2,0.5
		c0,0.2-0.1,0.3-0.2,0.4c-0.1,0.2-0.3,0.2-0.5,0.2h-12.1c-0.5,0-0.7-0.2-0.7-0.7c0-0.4,0.2-0.7,0.7-0.7h12
		C300.5,27.2,300.7,27.2,300.8,27.4z M298.5,31.3c0.9,0.8,1.4,1.7,1.4,2.7c0,1.1-0.5,2-1.4,2.8c-1,0.8-2.4,1.3-4.2,1.3
		c-1.8,0-3.2-0.4-4.3-1.3c-0.9-0.8-1.4-1.7-1.4-2.8c0-1.1,0.5-2,1.4-2.7c1.1-0.8,2.5-1.2,4.3-1.2C296.1,30.1,297.5,30.5,298.5,31.3z
		 M298.5,24.8c0,0.4-0.2,0.6-0.7,0.6h-7.1c-0.5,0-0.7-0.2-0.7-0.6c0-0.4,0.2-0.6,0.7-0.6h7C298.3,24.2,298.5,24.4,298.5,24.8z
		 M291.1,32.2c-0.7,0.5-1,1.1-1,1.9c0,0.8,0.3,1.4,1,1.9c0.8,0.6,1.8,0.9,3.2,0.9c1.3,0,2.4-0.3,3.1-0.9c0.7-0.5,1-1.1,1-1.9
		c0-0.7-0.3-1.4-1-1.9c-0.7-0.6-1.8-0.8-3.1-0.8C293,31.4,291.9,31.6,291.1,32.2z M307.4,33.6c0.2,0,0.4,0.1,0.5,0.2
		c0.1,0.1,0.2,0.3,0.2,0.4c0,0.2-0.1,0.3-0.2,0.4c-0.1,0.1-0.2,0.2-0.4,0.2h-2.9v9.1c0,0.2-0.1,0.4-0.3,0.5
		c-0.1,0.1-0.3,0.2-0.5,0.2s-0.4-0.1-0.5-0.2c-0.2-0.1-0.2-0.3-0.2-0.6V24.1c0-0.2,0.1-0.4,0.2-0.5c0.1-0.1,0.3-0.2,0.5-0.2
		s0.4,0.1,0.5,0.2c0.2,0.1,0.3,0.3,0.3,0.5v9.5H307.4z"/>
	<path class="st3" d="M323.9,29.4c0.1-0.1,0.3-0.2,0.5-0.2c0.2,0,0.3,0.1,0.5,0.2c0.2,0.1,0.2,0.3,0.2,0.6V35c1.1,0,2.4-0.2,3.9-0.4
		c1.5-0.2,2.8-0.4,3.8-0.6c0.3-0.1,0.5-0.1,0.6,0c0.2,0.1,0.3,0.2,0.3,0.4c0,0.2,0,0.3-0.1,0.5s-0.3,0.3-0.5,0.3
		c-1.6,0.4-3.7,0.7-6.4,0.9c-2.6,0.2-5.3,0.3-8.1,0.3c-0.3,0-0.5-0.1-0.6-0.2c-0.1-0.1-0.2-0.3-0.2-0.4c0-0.2,0.1-0.3,0.2-0.5
		c0.2-0.1,0.4-0.2,0.6-0.2c0.9,0,1.6,0,2.2,0c1.1,0,2,0,2.7,0V30C323.7,29.7,323.8,29.5,323.9,29.4z M331,24.8
		c0.5,0.4,0.7,0.9,0.7,1.6v0.8c0,1-0.1,1.9-0.2,2.7c-0.2,1.1-0.6,2-1.2,2.7c-0.3,0.4-0.7,0.5-1.1,0.3c-0.4-0.2-0.5-0.5-0.2-1
		c0.5-0.7,0.8-1.5,1-2.4c0.2-0.6,0.2-1.4,0.2-2.4v-0.6c0-0.4-0.1-0.6-0.3-0.8c-0.2-0.2-0.4-0.3-0.8-0.3h-9.4c-0.4,0-0.7-0.2-0.7-0.7
		c0-0.4,0.2-0.6,0.7-0.6h9.2C329.8,24.2,330.5,24.4,331,24.8z M322,41.6c0,0.5,0.1,0.8,0.3,0.9c0.2,0.2,0.5,0.2,1,0.2h13.4
		c0.4,0,0.7,0.2,0.7,0.6c0,0.4-0.2,0.7-0.7,0.7h-13.9c-0.7,0-1.2-0.2-1.7-0.6s-0.6-1-0.6-1.6v-3c0-0.2,0.1-0.4,0.2-0.6
		c0.1-0.1,0.3-0.2,0.5-0.2s0.4,0.1,0.5,0.2c0.2,0.1,0.3,0.3,0.3,0.6V41.6z M339,30.9c0.4,0,0.7,0.2,0.7,0.6c0,0.4-0.2,0.7-0.6,0.7
		h-2.8v6.3c0,0.2-0.1,0.4-0.3,0.6c-0.1,0.1-0.3,0.2-0.5,0.2s-0.4-0.1-0.5-0.2c-0.2-0.2-0.2-0.3-0.2-0.6V24.1c0-0.2,0.1-0.4,0.2-0.5
		c0.1-0.1,0.3-0.2,0.5-0.2s0.4,0.1,0.5,0.2c0.2,0.1,0.3,0.3,0.3,0.5v6.8H339z"/>
	<path class="st3" d="M355,24.7c0.4,0.3,0.7,0.8,0.7,1.4V31c0,0.6-0.2,1.1-0.6,1.5c-0.4,0.4-1,0.5-1.8,0.5h-5.4
		c-0.4,0-0.7,0.1-0.9,0.3c-0.2,0.2-0.2,0.5-0.2,0.9v5.7c0,0.5,0.1,0.8,0.3,1c0.2,0.2,0.6,0.3,1.1,0.3c1.9,0,3.8-0.2,5.7-0.5
		c1.8-0.3,3.3-0.8,4.5-1.3c0.4-0.2,0.7-0.1,0.9,0.3c0.2,0.4,0.1,0.7-0.4,1c-1.4,0.6-3.2,1.1-5.3,1.4c-1.9,0.3-3.8,0.5-5.8,0.5
		c-0.8,0-1.5-0.2-1.9-0.7c-0.4-0.4-0.6-1-0.6-1.8v-6c0-0.7,0.2-1.3,0.6-1.7c0.4-0.4,1-0.7,1.8-0.7h5.5c0.4,0,0.7-0.1,0.9-0.2
		c0.2-0.1,0.3-0.4,0.3-0.7v-4.3c0-0.3-0.1-0.6-0.4-0.8c-0.2-0.2-0.6-0.2-1.1-0.2h-6.8c-0.5,0-0.8-0.2-0.8-0.6c0-0.4,0.3-0.6,0.8-0.6
		h7.3C354,24.2,354.6,24.3,355,24.7z M362.7,44.5c-0.1,0.1-0.3,0.2-0.5,0.2c-0.2,0-0.4-0.1-0.5-0.2c-0.2-0.2-0.2-0.3-0.2-0.6V24.1
		c0-0.2,0.1-0.4,0.2-0.5c0.1-0.1,0.3-0.2,0.5-0.2c0.2,0,0.4,0.1,0.5,0.2c0.2,0.1,0.3,0.3,0.3,0.5v19.8
		C362.9,44.1,362.8,44.3,362.7,44.5z"/>
	<path class="st3" d="M179.3,77.4l-5.7-17.5h2.4l2.7,8.6c0.8,2.4,1.4,4.5,1.9,6.6h0.1c0.5-2,1.2-4.2,2-6.5l3-8.7h2.4l-6.3,17.5
		H179.3z"/>
	<path class="st3" d="M204.8,69.7c-0.1-2.4-0.3-5.4-0.3-7.6h-0.1c-0.6,2.1-1.3,4.2-2.2,6.7l-3.1,8.5h-1.7l-2.8-8.3
		c-0.8-2.5-1.5-4.7-2-6.8h-0.1c-0.1,2.2-0.2,5.1-0.3,7.7l-0.5,7.5h-2.2l1.2-17.5h2.9l3,8.5c0.7,2.2,1.3,4.1,1.8,5.9h0.1
		c0.4-1.8,1.1-3.7,1.8-5.9l3.1-8.5h2.9l1.1,17.5h-2.2L204.8,69.7z"/>
	<path class="st3" d="M211.9,64.8l1.7,6.4c0.4,1.4,0.7,2.7,0.9,4h0.1c0.3-1.3,0.7-2.6,1.1-4l2.1-6.4h1.9l2,6.3
		c0.5,1.5,0.8,2.8,1.1,4.1h0.1c0.2-1.3,0.5-2.6,1-4.1l1.8-6.3h2.3l-4.1,12.6h-2.1l-1.9-6c-0.4-1.4-0.8-2.7-1.1-4.1h-0.1
		c-0.3,1.5-0.7,2.8-1.1,4.2l-2,6h-2.1l-3.8-12.6H211.9z"/>
	<path class="st3" d="M237,77.4l-0.2-1.6h-0.1c-0.7,1-2.1,1.9-3.8,1.9c-2.5,0-3.8-1.8-3.8-3.6c0-3,2.7-4.7,7.6-4.7v-0.3
		c0-1-0.3-2.9-2.9-2.9c-1.2,0-2.4,0.4-3.3,0.9l-0.5-1.5c1-0.7,2.5-1.1,4.1-1.1c3.8,0,4.8,2.6,4.8,5.1v4.7c0,1.1,0.1,2.2,0.2,3H237z
		 M236.7,70.9c-2.5-0.1-5.3,0.4-5.3,2.8c0,1.5,1,2.2,2.2,2.2c1.6,0,2.7-1,3-2.1c0.1-0.2,0.1-0.5,0.1-0.7V70.9z"/>
	<path class="st3" d="M242.6,68.7c0-1.5,0-2.8-0.1-3.9h2l0.1,2.5h0.1c0.6-1.7,2-2.8,3.5-2.8c0.3,0,0.4,0,0.6,0.1v2.2
		c-0.2-0.1-0.5-0.1-0.8-0.1c-1.6,0-2.8,1.2-3.1,2.9c-0.1,0.3-0.1,0.7-0.1,1.1v6.7h-2.3V68.7z"/>
	<path class="st3" d="M252.1,71.5c0.1,3.1,2,4.4,4.3,4.4c1.6,0,2.6-0.3,3.5-0.6l0.4,1.6c-0.8,0.4-2.2,0.8-4.2,0.8
		c-3.9,0-6.2-2.5-6.2-6.3c0-3.8,2.2-6.8,5.9-6.8c4.1,0,5.2,3.6,5.2,5.9c0,0.5-0.1,0.8-0.1,1.1H252.1z M258.8,69.9
		c0-1.5-0.6-3.7-3.2-3.7c-2.3,0-3.3,2.1-3.5,3.7H258.8z"/>
	<path class="st3" d="M270.2,64.8l2.5,7.1c0.4,1.1,0.8,2.2,1,3.2h0.1c0.3-1,0.6-2.1,1.1-3.2l2.4-7.1h2.4l-4.9,12.6h-2.2l-4.8-12.6
		H270.2z"/>
	<path class="st3" d="M294.2,76.8c-0.8,0.4-2.5,0.8-4.6,0.8c-4.9,0-8.7-3.1-8.7-8.9c0-5.5,3.7-9.2,9.2-9.2c2.2,0,3.6,0.5,4.2,0.8
		l-0.5,1.8c-0.9-0.4-2.1-0.7-3.5-0.7c-4.1,0-6.8,2.6-6.8,7.2c0,4.3,2.5,7,6.7,7c1.4,0,2.8-0.3,3.7-0.7L294.2,76.8z"/>
	<path class="st3" d="M297.9,71.5c0.1,3.1,2,4.4,4.3,4.4c1.6,0,2.6-0.3,3.5-0.6l0.4,1.6c-0.8,0.4-2.2,0.8-4.2,0.8
		c-3.9,0-6.2-2.5-6.2-6.3c0-3.8,2.2-6.8,5.9-6.8c4.1,0,5.2,3.6,5.2,5.9c0,0.5-0.1,0.8-0.1,1.1H297.9z M304.6,69.9
		c0-1.5-0.6-3.7-3.2-3.7c-2.3,0-3.3,2.1-3.5,3.7H304.6z"/>
	<path class="st3" d="M309.7,68.2c0-1.3,0-2.4-0.1-3.4h2l0.1,2.1h0.1c0.6-1.2,2.1-2.4,4.2-2.4c1.7,0,4.4,1,4.4,5.4v7.5h-2.3v-7.3
		c0-2-0.8-3.7-2.9-3.7c-1.5,0-2.7,1.1-3.1,2.3c-0.1,0.3-0.2,0.7-0.2,1.1v7.6h-2.3V68.2z"/>
	<path class="st3" d="M326.7,61.2v3.6h3.3v1.7h-3.3v6.8c0,1.6,0.4,2.4,1.7,2.4c0.6,0,1-0.1,1.3-0.2l0.1,1.7c-0.4,0.2-1.1,0.3-2,0.3
		c-1.1,0-1.9-0.3-2.5-1c-0.7-0.7-0.9-1.8-0.9-3.3v-6.9h-1.9v-1.7h1.9v-3L326.7,61.2z"/>
	<path class="st3" d="M333.7,71.5c0.1,3.1,2,4.4,4.3,4.4c1.6,0,2.6-0.3,3.5-0.6l0.4,1.6c-0.8,0.4-2.2,0.8-4.2,0.8
		c-3.9,0-6.2-2.5-6.2-6.3c0-3.8,2.2-6.8,5.9-6.8c4.1,0,5.2,3.6,5.2,5.9c0,0.5-0.1,0.8-0.1,1.1H333.7z M340.4,69.9
		c0-1.5-0.6-3.7-3.2-3.7c-2.3,0-3.3,2.1-3.5,3.7H340.4z"/>
	<path class="st3" d="M345.5,68.7c0-1.5,0-2.8-0.1-3.9h2l0.1,2.5h0.1c0.6-1.7,2-2.8,3.5-2.8c0.3,0,0.4,0,0.6,0.1v2.2
		c-0.2-0.1-0.5-0.1-0.8-0.1c-1.6,0-2.8,1.2-3.1,2.9c-0.1,0.3-0.1,0.7-0.1,1.1v6.7h-2.3V68.7z"/>
	<path class="st3" d="M359.2,74.6c1,0.6,2.5,1.1,4.1,1.1c2.3,0,3.7-1.2,3.7-3c0-1.6-0.9-2.6-3.3-3.5c-2.9-1-4.6-2.5-4.6-5
		c0-2.7,2.3-4.8,5.7-4.8c1.8,0,3.1,0.4,3.9,0.9l-0.6,1.8c-0.6-0.3-1.7-0.8-3.3-0.8c-2.4,0-3.3,1.4-3.3,2.6c0,1.6,1.1,2.4,3.5,3.4
		c3,1.1,4.5,2.6,4.5,5.1c0,2.7-2,5-6.1,5c-1.7,0-3.5-0.5-4.5-1.1L359.2,74.6z"/>
	<path class="st3" d="M373.7,71.5c0.1,3.1,2,4.4,4.3,4.4c1.6,0,2.6-0.3,3.5-0.6l0.4,1.6c-0.8,0.4-2.2,0.8-4.2,0.8
		c-3.9,0-6.2-2.5-6.2-6.3c0-3.8,2.2-6.8,5.9-6.8c4.1,0,5.2,3.6,5.2,5.9c0,0.5-0.1,0.8-0.1,1.1H373.7z M380.4,69.9
		c0-1.5-0.6-3.7-3.2-3.7c-2.3,0-3.3,2.1-3.5,3.7H380.4z"/>
	<path class="st3" d="M385.5,68.7c0-1.5,0-2.8-0.1-3.9h2l0.1,2.5h0.1c0.6-1.7,2-2.8,3.5-2.8c0.3,0,0.4,0,0.7,0.1v2.2
		c-0.2-0.1-0.5-0.1-0.8-0.1c-1.6,0-2.8,1.2-3.1,2.9c-0.1,0.3-0.1,0.7-0.1,1.1v6.7h-2.3V68.7z"/>
	<path class="st3" d="M395.5,64.8l2.5,7.1c0.4,1.1,0.8,2.2,1,3.2h0.1c0.3-1,0.6-2.1,1.1-3.2l2.4-7.1h2.4L400,77.4h-2.2l-4.8-12.6
		H395.5z"/>
	<path class="st3" d="M408.1,71.5c0.1,3.1,2,4.4,4.3,4.4c1.6,0,2.6-0.3,3.5-0.6l0.4,1.6c-0.8,0.4-2.2,0.8-4.2,0.8
		c-3.9,0-6.2-2.5-6.2-6.3c0-3.8,2.2-6.8,5.9-6.8c4.1,0,5.2,3.6,5.2,5.9c0,0.5-0.1,0.8-0.1,1.1H408.1z M414.9,69.9
		c0-1.5-0.6-3.7-3.2-3.7c-2.3,0-3.3,2.1-3.5,3.7H414.9z"/>
	<path class="st3" d="M419.9,68.7c0-1.5,0-2.8-0.1-3.9h2l0.1,2.5h0.1c0.6-1.7,2-2.8,3.5-2.8c0.3,0,0.4,0,0.7,0.1v2.2
		c-0.2-0.1-0.5-0.1-0.8-0.1c-1.6,0-2.8,1.2-3.1,2.9c-0.1,0.3-0.1,0.7-0.1,1.1v6.7h-2.3V68.7z"/>
</g>
<g>
	<path class="st3" d="M47.8,145.3c0.1,0.1,0.2,0.1,0.2,0.3c0,0.1,0,0.2-0.1,0.3c-0.1,0.1-0.2,0.2-0.3,0.2c-0.9,0.2-1.8,0.3-2.8,0.4
		c-1.2,0.1-2.2,0.2-3,0.2c-0.3,0-0.5-0.2-0.5-0.5s0.2-0.5,0.5-0.5c0.9,0,1.8-0.1,2.9-0.2c1-0.1,1.9-0.2,2.7-0.4
		C47.6,145.2,47.7,145.3,47.8,145.3z M48.9,142.9c0.3,0.3,0.4,0.6,0.4,1.1v0.8c0,1.6-0.6,2.9-1.8,3.9c-1.3,1.1-3.1,1.7-5.6,1.9
		c-0.2,0-0.3,0-0.4-0.1c-0.1-0.1-0.1-0.2-0.2-0.3c0-0.1,0-0.2,0.1-0.3c0.1-0.1,0.2-0.1,0.4-0.1c2.2-0.1,3.8-0.6,5-1.6
		c1-0.9,1.4-2,1.4-3.3v-0.5c0-0.3-0.1-0.5-0.2-0.6s-0.4-0.2-0.7-0.2h-5.1c-0.2,0-0.3,0-0.4-0.1c-0.1-0.1-0.1-0.2-0.1-0.3
		s0-0.2,0.1-0.3c0.1-0.1,0.2-0.1,0.4-0.1h5.2C48.1,142.5,48.6,142.6,48.9,142.9z M53.8,151.6c0.3,0.2,0.4,0.5,0.4,0.9v2.5
		c0,0.4-0.1,0.8-0.4,1c-0.3,0.2-0.6,0.3-1.1,0.3h-8.1c-0.6,0-1-0.1-1.3-0.4c-0.2-0.2-0.4-0.6-0.4-1.1v-2.3c0-0.4,0.1-0.7,0.4-0.9
		s0.6-0.4,1-0.4h8.3C53.1,151.3,53.5,151.4,53.8,151.6z M53,152.3c-0.1-0.1-0.3-0.1-0.6-0.1h-7.6c-0.3,0-0.5,0.1-0.6,0.2
		c-0.1,0.1-0.1,0.3-0.1,0.5v2c0,0.2,0.1,0.4,0.2,0.5c0.1,0.1,0.3,0.1,0.6,0.1h7.6c0.3,0,0.5,0,0.6-0.1c0.1-0.1,0.2-0.2,0.2-0.4v-2.1
		C53.2,152.6,53.1,152.4,53,152.3z M54.1,150c-0.1,0.1-0.2,0.1-0.4,0.1c-0.2,0-0.3,0-0.4-0.1c-0.1-0.1-0.2-0.2-0.2-0.4V147H50
		c-0.2,0-0.3-0.1-0.4-0.2c-0.1-0.1-0.2-0.2-0.2-0.3c0-0.1,0-0.2,0.1-0.3c0.1-0.1,0.2-0.1,0.4-0.1h3.3v-3.5c0-0.2,0.1-0.3,0.2-0.4
		c0.1-0.1,0.2-0.1,0.4-0.1c0.1,0,0.3,0,0.4,0.1c0.1,0.1,0.2,0.2,0.2,0.4v6.9C54.3,149.7,54.2,149.8,54.1,150z"/>
	<path class="st3" d="M73.9,151.6c0,0.3-0.1,0.5-0.4,0.5h-2.8v4.1c0,0.2-0.1,0.3-0.2,0.4c-0.1,0.1-0.2,0.1-0.4,0.1s-0.3,0-0.4-0.1
		c-0.1-0.1-0.2-0.2-0.2-0.4v-4.1H64v1.7c0,0.6-0.1,1.2-0.3,1.7c-0.2,0.5-0.4,0.9-0.7,1.2c-0.1,0.1-0.3,0.2-0.4,0.2
		c-0.1,0-0.3,0-0.4-0.1s-0.2-0.2-0.2-0.3c0-0.2,0-0.3,0.2-0.4c0.3-0.3,0.5-0.6,0.5-0.9c0.1-0.3,0.1-0.7,0.1-1.2v-1.7h-3.3
		c-0.2,0-0.3-0.1-0.4-0.2c-0.1-0.1-0.1-0.2-0.1-0.3c0-0.1,0-0.2,0.1-0.3c0.1-0.1,0.2-0.1,0.4-0.1h13.7
		C73.8,151.2,73.9,151.3,73.9,151.6z M72.7,148.4c0,0.3-0.1,0.4-0.4,0.4H60.9c-0.3,0-0.4-0.1-0.4-0.4c0-0.3,0.2-0.4,0.5-0.4h2.3
		l-0.6-3.6c0-0.2,0-0.3,0.1-0.4c0.1-0.1,0.2-0.1,0.3-0.1s0.3,0,0.4,0.1c0.1,0.1,0.2,0.2,0.2,0.4l0.7,3.7H69l0.7-3.7
		c0-0.2,0.1-0.3,0.2-0.4c0.1-0.1,0.2-0.1,0.4-0.1c0.1,0,0.3,0.1,0.3,0.2c0.1,0.1,0.1,0.2,0.1,0.4L70,148h2.3
		C72.6,148,72.7,148.1,72.7,148.4z M72.6,142.7c0.1,0.1,0.1,0.2,0.1,0.3s0,0.2-0.1,0.3c-0.1,0.1-0.2,0.1-0.4,0.1H60.9
		c-0.3,0-0.5-0.2-0.5-0.5c0-0.3,0.1-0.4,0.5-0.4h11.3C72.4,142.5,72.5,142.6,72.6,142.7z"/>
	<path class="st3" d="M86,142.6c0.1,0.1,0.2,0.2,0.2,0.3s0,0.2-0.1,0.3c-0.1,0.1-0.2,0.1-0.4,0.1h-5.8c-0.3,0-0.5,0.1-0.6,0.2
		c-0.1,0.1-0.2,0.3-0.2,0.6v1.4h6.2c0.4,0,0.5,0.1,0.5,0.4c0,0.3-0.2,0.5-0.5,0.5h-6.2v1.9c0,0.3,0,0.5,0.1,0.6
		c0.1,0.1,0.3,0.2,0.6,0.2c1.5,0,2.8-0.1,4-0.2c1.3-0.1,2.4-0.3,3.3-0.6c0.2-0.1,0.3-0.1,0.4,0c0.1,0,0.2,0.1,0.2,0.2
		c0,0.1,0,0.2,0,0.4s-0.2,0.2-0.3,0.3c-0.9,0.2-2.1,0.4-3.5,0.6c-1.3,0.1-2.7,0.2-4.1,0.2c-0.7,0-1.1-0.1-1.5-0.4
		c-0.3-0.3-0.4-0.7-0.4-1.3V144c0-0.4,0.1-0.8,0.4-1.1c0.3-0.3,0.7-0.4,1.2-0.4h5.9C85.7,142.5,85.9,142.5,86,142.6z M89,152.2
		c0.9,0.5,1.4,1.1,1.4,1.9c0,0.8-0.5,1.4-1.4,1.9c-1,0.5-2.5,0.8-4.4,0.8s-3.4-0.3-4.4-0.8c-0.9-0.5-1.4-1.1-1.4-1.9
		c0-0.8,0.5-1.4,1.4-1.9c1-0.5,2.5-0.8,4.4-0.8S88,151.7,89,152.2z M81,152.9c-0.8,0.3-1.1,0.8-1.1,1.3c0,0.5,0.4,0.9,1.1,1.2
		c0.8,0.3,2,0.5,3.6,0.5c1.6,0,2.8-0.2,3.6-0.5c0.8-0.3,1.1-0.7,1.1-1.2c0-0.6-0.4-1-1.1-1.3c-0.8-0.3-2-0.5-3.6-0.5
		C83,152.4,81.8,152.5,81,152.9z M90.1,151c-0.1,0.1-0.2,0.1-0.4,0.1c-0.2,0-0.3,0-0.4-0.1c-0.1-0.1-0.2-0.2-0.2-0.4v-8
		c0-0.2,0.1-0.3,0.2-0.4c0.1-0.1,0.2-0.1,0.4-0.1c0.1,0,0.3,0,0.4,0.1c0.1,0.1,0.2,0.2,0.2,0.4v8.1C90.3,150.8,90.2,150.9,90.1,151z
		"/>
	<path class="st3" d="M106.6,143.1c0.3,0.3,0.5,0.7,0.5,1.2v2.1c0,2.7-0.7,4.8-2.1,6.4c-1.3,1.5-3,2.3-5.2,2.4
		c-0.3,0-0.5-0.1-0.5-0.4c0-0.3,0.1-0.5,0.5-0.5c2-0.2,3.6-0.9,4.6-2.2c1.2-1.4,1.8-3.3,1.8-5.7v-2.1c0-0.2-0.1-0.4-0.2-0.6
		c-0.2-0.1-0.4-0.2-0.6-0.2H100c-0.3,0-0.5-0.2-0.5-0.5c0-0.3,0.1-0.4,0.5-0.4h5.2C105.8,142.6,106.3,142.8,106.6,143.1z M113.5,149
		c0.3,0,0.4,0.1,0.4,0.4c0,0.3-0.1,0.4-0.4,0.4h-2v6.4c0,0.2-0.1,0.3-0.2,0.4c-0.1,0.1-0.2,0.1-0.4,0.1s-0.3,0-0.4-0.1
		c-0.1-0.1-0.2-0.2-0.2-0.4v-13.7c0-0.2,0.1-0.3,0.2-0.4c0.1-0.1,0.2-0.1,0.4-0.1s0.3,0,0.4,0.1c0.1,0.1,0.2,0.2,0.2,0.4v6.4H113.5z
		"/>
	<path class="st3" d="M121.4,142.5c0.1-0.1,0.2-0.1,0.4-0.1s0.3,0,0.4,0.1c0.1,0.1,0.2,0.2,0.2,0.4c0,0.4,0,0.8-0.1,1.2
		c-0.1,0.3-0.2,0.6-0.3,1c1,0.7,1.9,1.4,2.5,2c0.6,0.6,1.2,1.3,1.9,2.2c0.1,0.2,0.2,0.3,0.1,0.5c0,0.1-0.1,0.2-0.2,0.3
		c-0.1,0.1-0.2,0.1-0.4,0.1c-0.2,0-0.3-0.1-0.4-0.2c-0.6-0.8-1.2-1.5-1.8-2.1c-0.6-0.6-1.3-1.2-2.1-1.8c-0.5,0.9-0.9,1.7-1.4,2.3
		c-0.6,0.7-1.3,1.4-2.2,2.1c-0.1,0.1-0.3,0.1-0.4,0.1c-0.1,0-0.2-0.1-0.3-0.2c-0.1-0.1-0.1-0.2-0.1-0.4s0.1-0.3,0.3-0.4
		c1.2-0.8,2.2-2,2.9-3.4c0.6-1.2,0.9-2.3,0.9-3.3C121.2,142.7,121.3,142.6,121.4,142.5z M128.5,152.2c0.9,0.5,1.4,1.1,1.4,1.9
		c0,0.8-0.5,1.4-1.4,1.9c-1,0.5-2.4,0.8-4.3,0.8c-1.9,0-3.3-0.3-4.3-0.8c-0.9-0.5-1.4-1.1-1.4-1.9c0-0.8,0.5-1.4,1.4-1.9
		c1-0.5,2.5-0.8,4.3-0.8C126,151.4,127.5,151.7,128.5,152.2z M120.6,152.9c-0.7,0.3-1.1,0.8-1.1,1.3c0,0.5,0.4,0.9,1.1,1.2
		c0.8,0.3,2,0.5,3.6,0.5c1.5,0,2.7-0.2,3.5-0.5c0.8-0.3,1.1-0.7,1.1-1.2c0-0.6-0.4-1-1.1-1.3c-0.8-0.3-2-0.5-3.5-0.5
		C122.6,152.4,121.4,152.5,120.6,152.9z M131.4,146.3c0.2,0,0.3,0,0.4,0.1c0.1,0.1,0.1,0.2,0.1,0.3c0,0.1,0,0.2-0.1,0.3
		c-0.1,0.1-0.2,0.1-0.3,0.1h-2v3.4c0,0.2-0.1,0.3-0.2,0.4c-0.1,0.1-0.2,0.1-0.4,0.1s-0.3,0-0.4-0.1c-0.1-0.1-0.2-0.2-0.2-0.4v-8.1
		c0-0.3,0.2-0.5,0.5-0.5c0.4,0,0.5,0.2,0.5,0.5v3.8H131.4z"/>
	<path class="st3" d="M142.9,154.4c0.8-0.2,1.6-0.4,2.3-0.6c0.3-0.1,0.5,0,0.6,0.2c0.1,0.3,0,0.5-0.3,0.6c-1.3,0.4-2.8,0.7-4.5,0.9
		c-1.4,0.2-3.3,0.2-5.6,0.2c-0.2,0-0.4,0-0.5-0.1s-0.2-0.2-0.2-0.3s0-0.2,0.1-0.3c0.1-0.1,0.2-0.1,0.4-0.1c0.6,0,1.2,0,1.9,0
		c0.9,0,1.7,0,2.5-0.1v-3h1v2.9C141.6,154.6,142.3,154.5,142.9,154.4z M144.9,144.8c0.1,0.1,0.1,0.2,0.1,0.3c0,0.1,0,0.2-0.1,0.3
		c-0.1,0.1-0.2,0.2-0.4,0.2h-8.4c-0.3,0-0.5-0.2-0.5-0.5s0.2-0.5,0.5-0.5h8.3C144.7,144.7,144.8,144.7,144.9,144.8z M143.3,147.5
		c0.7,0.5,1,1.2,1,1.9c0,0.8-0.3,1.4-1,1.9c-0.7,0.6-1.7,0.9-2.9,0.9c-1.3,0-2.2-0.3-3-0.9c-0.6-0.5-1-1.2-1-1.9
		c0-0.8,0.3-1.4,1-1.9c0.7-0.6,1.7-0.9,3-0.9C141.6,146.7,142.6,147,143.3,147.5z M143.3,143c0,0.3-0.1,0.4-0.5,0.4h-4.9
		c-0.3,0-0.5-0.1-0.5-0.4s0.2-0.4,0.5-0.4h4.9C143.1,142.6,143.3,142.7,143.3,143z M138.2,148.1c-0.5,0.3-0.7,0.8-0.7,1.3
		c0,0.5,0.2,1,0.7,1.3c0.5,0.4,1.3,0.6,2.2,0.6c0.9,0,1.6-0.2,2.1-0.6c0.5-0.4,0.7-0.8,0.7-1.3c0-0.5-0.2-0.9-0.7-1.3
		c-0.5-0.4-1.2-0.6-2.1-0.6C139.5,147.6,138.7,147.8,138.2,148.1z M149.4,149.1c0.2,0,0.3,0,0.4,0.1c0.1,0.1,0.1,0.2,0.1,0.3
		c0,0.1,0,0.2-0.1,0.3c-0.1,0.1-0.2,0.1-0.3,0.1h-2v6.3c0,0.2-0.1,0.3-0.2,0.4c-0.1,0.1-0.2,0.1-0.4,0.1s-0.3,0-0.4-0.1
		c-0.1-0.1-0.2-0.2-0.2-0.4v-13.7c0-0.2,0.1-0.3,0.2-0.4c0.1-0.1,0.2-0.1,0.4-0.1s0.3,0,0.4,0.1c0.1,0.1,0.2,0.2,0.2,0.4v6.6H149.4z
		"/>
	<path class="st3" d="M36.3,179.7l-4-12.1H34l1.9,6c0.5,1.6,1,3.1,1.3,4.5h0c0.3-1.4,0.8-2.9,1.4-4.5l2.1-6h1.7L38,179.7H36.3z"/>
	<path class="st3" d="M53.9,174.4c-0.1-1.7-0.2-3.7-0.2-5.2h-0.1c-0.4,1.4-0.9,2.9-1.5,4.6l-2.1,5.9h-1.2l-2-5.8
		c-0.6-1.7-1.1-3.3-1.4-4.7h0c0,1.5-0.1,3.5-0.2,5.4l-0.3,5.2h-1.5l0.8-12.1h2l2.1,5.9c0.5,1.5,0.9,2.8,1.2,4.1h0.1
		c0.3-1.2,0.7-2.6,1.3-4.1l2.2-5.9h2l0.8,12.1h-1.5L53.9,174.4z"/>
	<path class="st3" d="M58.8,171l1.2,4.4c0.3,1,0.5,1.9,0.6,2.8h0.1c0.2-0.9,0.5-1.8,0.8-2.8l1.4-4.4h1.3l1.4,4.4
		c0.3,1,0.6,2,0.8,2.8h0.1c0.1-0.9,0.4-1.8,0.7-2.8l1.2-4.4h1.6l-2.8,8.7h-1.4l-1.3-4.2c-0.3-1-0.6-1.8-0.8-2.9h0
		c-0.2,1-0.5,1.9-0.8,2.9l-1.4,4.1h-1.4l-2.6-8.7H58.8z"/>
	<path class="st3" d="M76.2,179.7l-0.1-1.1H76c-0.5,0.7-1.4,1.3-2.7,1.3c-1.8,0-2.7-1.2-2.7-2.5c0-2.1,1.9-3.3,5.2-3.2V174
		c0-0.7-0.2-2-2-2c-0.8,0-1.7,0.3-2.3,0.6l-0.4-1c0.7-0.5,1.8-0.8,2.9-0.8c2.7,0,3.3,1.8,3.3,3.6v3.3c0,0.8,0,1.5,0.1,2.1H76.2z
		 M76,175.3c-1.7,0-3.7,0.3-3.7,2c0,1,0.7,1.5,1.5,1.5c1.1,0,1.9-0.7,2.1-1.5c0.1-0.2,0.1-0.3,0.1-0.5V175.3z"/>
	<path class="st3" d="M80,173.7c0-1,0-1.9-0.1-2.7h1.4l0.1,1.7h0.1c0.4-1.2,1.4-1.9,2.4-1.9c0.2,0,0.3,0,0.5,0.1v1.5
		c-0.2,0-0.3-0.1-0.5-0.1c-1.1,0-1.9,0.8-2.1,2c0,0.2-0.1,0.5-0.1,0.7v4.6H80V173.7z"/>
	<path class="st3" d="M86.6,175.7c0,2.1,1.4,3,3,3c1.1,0,1.8-0.2,2.4-0.5l0.3,1.1c-0.6,0.3-1.5,0.5-2.9,0.5c-2.7,0-4.3-1.8-4.3-4.4
		s1.5-4.7,4.1-4.7c2.8,0,3.6,2.5,3.6,4.1c0,0.3,0,0.6-0.1,0.7H86.6z M91.3,174.5c0-1-0.4-2.6-2.2-2.6c-1.6,0-2.3,1.5-2.4,2.6H91.3z"
		/>
	<path class="st3" d="M99.2,171l1.7,4.9c0.3,0.8,0.5,1.5,0.7,2.2h0.1c0.2-0.7,0.4-1.4,0.7-2.2l1.7-4.9h1.7l-3.4,8.7h-1.5l-3.3-8.7
		H99.2z"/>
	<path class="st3" d="M107.1,177.8c0.7,0.4,1.7,0.8,2.8,0.8c1.6,0,2.5-0.8,2.5-2.1c0-1.1-0.6-1.8-2.3-2.4c-2-0.7-3.2-1.7-3.2-3.4
		c0-1.9,1.6-3.3,3.9-3.3c1.2,0,2.1,0.3,2.7,0.6l-0.4,1.3c-0.4-0.2-1.2-0.6-2.3-0.6c-1.7,0-2.3,1-2.3,1.8c0,1.1,0.7,1.7,2.4,2.3
		c2.1,0.8,3.1,1.8,3.1,3.6c0,1.9-1.4,3.5-4.2,3.5c-1.2,0-2.4-0.3-3.1-0.8L107.1,177.8z"/>
	<path class="st3" d="M116.1,173.9c0-1.1,0-2-0.1-2.8h1.4l0.1,1.5h0c0.6-1.1,1.7-1.7,3.1-1.7c2.1,0,3.7,1.8,3.7,4.4
		c0,3.1-1.9,4.7-4,4.7c-1.2,0-2.2-0.5-2.7-1.4h0v4.7h-1.6V173.9z M117.7,176.2c0,0.2,0,0.5,0.1,0.6c0.3,1.1,1.2,1.9,2.4,1.9
		c1.7,0,2.6-1.4,2.6-3.4c0-1.7-0.9-3.2-2.6-3.2c-1.1,0-2.1,0.8-2.4,2c-0.1,0.2-0.1,0.4-0.1,0.6V176.2z"/>
	<path class="st3" d="M126.4,167h1.6v5.4h0c0.3-0.5,0.6-0.8,1.1-1.1c0.5-0.3,1-0.5,1.6-0.5c1.2,0,3,0.7,3,3.7v5.2h-1.6v-5
		c0-1.4-0.5-2.6-2-2.6c-1,0-1.8,0.7-2.1,1.6c-0.1,0.2-0.1,0.5-0.1,0.8v5.3h-1.6V167z"/>
	<path class="st3" d="M137.2,175.7c0,2.1,1.4,3,3,3c1.1,0,1.8-0.2,2.4-0.5l0.3,1.1c-0.6,0.3-1.5,0.5-2.9,0.5c-2.7,0-4.3-1.8-4.3-4.4
		s1.5-4.7,4.1-4.7c2.8,0,3.6,2.5,3.6,4.1c0,0.3,0,0.6-0.1,0.7H137.2z M141.9,174.5c0-1-0.4-2.6-2.2-2.6c-1.6,0-2.3,1.5-2.4,2.6
		H141.9z"/>
	<path class="st3" d="M145.4,173.7c0-1,0-1.9-0.1-2.7h1.4l0.1,1.7h0.1c0.4-1.2,1.4-1.9,2.4-1.9c0.2,0,0.3,0,0.5,0.1v1.5
		c-0.2,0-0.3-0.1-0.5-0.1c-1.1,0-1.9,0.8-2.1,2c0,0.2-0.1,0.5-0.1,0.7v4.6h-1.6V173.7z"/>
	<path class="st3" d="M152,175.7c0,2.1,1.4,3,3,3c1.1,0,1.8-0.2,2.4-0.5l0.3,1.1c-0.6,0.3-1.5,0.5-2.9,0.5c-2.7,0-4.3-1.8-4.3-4.4
		s1.5-4.7,4.1-4.7c2.8,0,3.6,2.5,3.6,4.1c0,0.3,0,0.6-0.1,0.7H152z M156.6,174.5c0-1-0.4-2.6-2.2-2.6c-1.6,0-2.3,1.5-2.4,2.6H156.6z
		"/>
</g>
<g>
	<path class="st3" d="M251.3,154.8c0.1,0.1,0.1,0.2,0.1,0.3s0,0.2-0.1,0.3s-0.2,0.1-0.4,0.1h-13.7c-0.4,0-0.5-0.2-0.5-0.5
		c0-0.3,0.2-0.4,0.5-0.4h13.6C251.1,154.7,251.2,154.7,251.3,154.8z M243.7,142.4c0.1-0.1,0.2-0.1,0.4-0.1c0.1,0,0.2,0,0.3,0.1
		c0.1,0.1,0.2,0.3,0.2,0.5c0,1.8,0.6,3.3,1.8,4.6c1.1,1.1,2.3,1.8,3.9,2.1c0.2,0,0.3,0.1,0.4,0.2c0.1,0.1,0.1,0.2,0.1,0.4
		c0,0.1-0.1,0.2-0.2,0.3c-0.1,0.1-0.3,0.1-0.5,0.1c-1.4-0.3-2.6-0.9-3.8-2c-1.1-1-1.8-2.1-2.2-3.3c-0.4,1.2-1.1,2.3-2.2,3.3
		c-1.2,1.1-2.4,1.7-3.9,2c-0.2,0-0.3,0-0.4-0.1c-0.1-0.1-0.2-0.2-0.2-0.3c0-0.1,0-0.2,0.1-0.3c0.1-0.1,0.2-0.2,0.4-0.2
		c1.5-0.3,2.7-1,3.8-2.1c1.3-1.3,1.9-2.8,1.9-4.7C243.6,142.6,243.6,142.5,243.7,142.4z"/>
	<path class="st3" d="M261.8,150.9c0.1-0.1,0.2-0.1,0.4-0.1c0.1,0,0.2,0,0.3,0.1c0.1,0.1,0.2,0.2,0.2,0.4v3.4h6.3
		c0.2,0,0.3,0,0.4,0.1c0.1,0.1,0.1,0.2,0.1,0.3s0,0.2-0.1,0.3s-0.2,0.1-0.4,0.1h-13.8c-0.1,0-0.2,0-0.3-0.1s-0.1-0.2-0.1-0.3
		s0.1-0.2,0.1-0.3c0.1-0.1,0.2-0.1,0.4-0.1h6.3v-3.4C261.6,151.1,261.7,151,261.8,150.9z M268.1,142.7c0.1,0.1,0.1,0.2,0.1,0.3
		c0,0.1,0,0.2-0.1,0.3c-0.1,0.1-0.2,0.2-0.3,0.2h-9.7c-0.3,0-0.5,0.1-0.7,0.2c-0.1,0.1-0.2,0.3-0.2,0.6v2h10.3
		c0.3,0,0.5,0.1,0.5,0.4c0,0.3-0.2,0.5-0.5,0.5h-10.3v2.3c0,0.2,0.1,0.4,0.2,0.5c0.1,0.1,0.3,0.2,0.6,0.2h9.7c0.2,0,0.3,0,0.4,0.1
		c0.1,0.1,0.1,0.2,0.1,0.3c0,0.1,0,0.2-0.1,0.3s-0.2,0.1-0.3,0.1h-9.9c-0.5,0-0.9-0.1-1.2-0.4s-0.4-0.6-0.4-1.1v-5.3
		c0-0.5,0.1-0.8,0.4-1.1c0.3-0.3,0.7-0.5,1.3-0.5h9.8C267.9,142.5,268,142.6,268.1,142.7z"/>
	<path class="st3" d="M280.3,142.9c0.3,0.2,0.5,0.6,0.5,1v3.4c0,0.4-0.1,0.8-0.4,1c-0.3,0.2-0.7,0.4-1.2,0.4h-3.7
		c-0.3,0-0.5,0.1-0.6,0.2c-0.1,0.1-0.2,0.3-0.2,0.7v3.9c0,0.3,0.1,0.6,0.2,0.7c0.1,0.2,0.4,0.2,0.7,0.2c1.3,0,2.7-0.1,3.9-0.4
		c1.2-0.2,2.3-0.5,3.1-0.9c0.3-0.2,0.5-0.1,0.6,0.2c0.1,0.3,0,0.5-0.2,0.7c-1,0.4-2.2,0.8-3.6,1c-1.3,0.2-2.6,0.3-4,0.3
		c-0.6,0-1-0.2-1.3-0.5c-0.3-0.3-0.4-0.7-0.4-1.2v-4.1c0-0.5,0.1-0.9,0.4-1.2c0.3-0.3,0.7-0.5,1.2-0.5h3.8c0.3,0,0.5,0,0.6-0.1
		c0.1-0.1,0.2-0.3,0.2-0.5v-3c0-0.2-0.1-0.4-0.2-0.5c-0.2-0.1-0.4-0.2-0.8-0.2H274c-0.4,0-0.5-0.1-0.5-0.4c0-0.3,0.2-0.4,0.6-0.4h5
		C279.6,142.6,280,142.7,280.3,142.9z M285.6,156.6c-0.1,0.1-0.2,0.1-0.4,0.1c-0.2,0-0.3,0-0.4-0.1c-0.1-0.1-0.2-0.2-0.2-0.4v-13.7
		c0-0.2,0.1-0.3,0.2-0.4c0.1-0.1,0.2-0.1,0.4-0.1c0.1,0,0.3,0,0.4,0.1c0.1,0.1,0.2,0.2,0.2,0.4v13.7
		C285.8,156.4,285.7,156.5,285.6,156.6z"/>
	<path class="st3" d="M300.4,143c0,0.3-0.1,0.5-0.4,0.5h-3.5v2.8c0,1.8,0.4,3.5,1.2,5c0.8,1.5,1.7,2.5,3,3.2
		c0.2,0.1,0.2,0.2,0.3,0.3s0,0.3,0,0.4c-0.1,0.1-0.2,0.2-0.3,0.2c-0.2,0-0.3,0-0.5-0.1c-0.9-0.5-1.8-1.3-2.6-2.5
		c-0.8-1.2-1.3-2.4-1.5-3.6c-0.2,1.2-0.7,2.4-1.5,3.6c-0.8,1.2-1.7,2-2.7,2.5c-0.1,0.1-0.3,0.1-0.4,0c-0.1,0-0.2-0.1-0.3-0.2
		c-0.1-0.1-0.1-0.3-0.1-0.4c0-0.1,0.1-0.2,0.3-0.3c1.2-0.6,2.2-1.7,2.9-3.1c0.8-1.5,1.2-3.2,1.2-5v-2.9H292c-0.3,0-0.5-0.2-0.5-0.5
		c0-0.3,0.2-0.4,0.5-0.4h8C300.3,142.6,300.4,142.8,300.4,143z M303.6,156.6c-0.1,0.1-0.2,0.1-0.4,0.1c-0.2,0-0.3,0-0.4-0.1
		c-0.1-0.1-0.2-0.2-0.2-0.4v-13.7c0-0.2,0.1-0.3,0.2-0.4c0.1-0.1,0.2-0.1,0.4-0.1c0.1,0,0.3,0,0.4,0.1c0.1,0.1,0.2,0.2,0.2,0.4v13.7
		C303.8,156.4,303.7,156.5,303.6,156.6z"/>
	<path class="st3" d="M320.1,143.1c0.3,0.3,0.5,0.7,0.5,1.2v2.1c0,2.7-0.7,4.8-2.1,6.4c-1.3,1.5-3,2.3-5.2,2.4
		c-0.3,0-0.5-0.1-0.5-0.4c0-0.3,0.1-0.5,0.5-0.5c2-0.2,3.6-0.9,4.6-2.2c1.2-1.4,1.8-3.3,1.8-5.7v-2.1c0-0.2-0.1-0.4-0.2-0.6
		c-0.2-0.1-0.4-0.2-0.6-0.2h-5.2c-0.3,0-0.5-0.2-0.5-0.5c0-0.3,0.1-0.4,0.5-0.4h5.2C319.3,142.6,319.8,142.8,320.1,143.1z M327,149
		c0.3,0,0.4,0.1,0.4,0.4c0,0.3-0.1,0.4-0.4,0.4h-2v6.4c0,0.2-0.1,0.3-0.2,0.4c-0.1,0.1-0.2,0.1-0.4,0.1s-0.3,0-0.4-0.1
		c-0.1-0.1-0.2-0.2-0.2-0.4v-13.7c0-0.2,0.1-0.3,0.2-0.4c0.1-0.1,0.2-0.1,0.4-0.1s0.3,0,0.4,0.1c0.1,0.1,0.2,0.2,0.2,0.4v6.4H327z"
		/>
	<path class="st3" d="M334.9,142.5c0.1-0.1,0.2-0.1,0.4-0.1s0.3,0,0.4,0.1c0.1,0.1,0.2,0.2,0.2,0.4c0,0.4,0,0.8-0.1,1.2
		c-0.1,0.3-0.2,0.6-0.3,1c1,0.7,1.9,1.4,2.5,2c0.6,0.6,1.2,1.3,1.9,2.2c0.1,0.2,0.2,0.3,0.1,0.5c0,0.1-0.1,0.2-0.2,0.3
		c-0.1,0.1-0.2,0.1-0.4,0.1c-0.2,0-0.3-0.1-0.4-0.2c-0.6-0.8-1.2-1.5-1.8-2.1c-0.6-0.6-1.3-1.2-2.1-1.8c-0.5,0.9-0.9,1.7-1.4,2.3
		c-0.6,0.7-1.3,1.4-2.2,2.1c-0.1,0.1-0.3,0.1-0.4,0.1c-0.1,0-0.2-0.1-0.3-0.2c-0.1-0.1-0.1-0.2-0.1-0.4s0.1-0.3,0.3-0.4
		c1.2-0.8,2.2-2,2.9-3.4c0.6-1.2,0.9-2.3,0.9-3.3C334.7,142.7,334.8,142.6,334.9,142.5z M342,152.2c0.9,0.5,1.4,1.1,1.4,1.9
		c0,0.8-0.5,1.4-1.4,1.9c-1,0.5-2.4,0.8-4.3,0.8c-1.9,0-3.3-0.3-4.3-0.8c-0.9-0.5-1.4-1.1-1.4-1.9c0-0.8,0.5-1.4,1.4-1.9
		c1-0.5,2.5-0.8,4.3-0.8C339.5,151.4,341,151.7,342,152.2z M334.1,152.9c-0.7,0.3-1.1,0.8-1.1,1.3c0,0.5,0.4,0.9,1.1,1.2
		c0.8,0.3,2,0.5,3.6,0.5c1.5,0,2.7-0.2,3.5-0.5c0.8-0.3,1.1-0.7,1.1-1.2c0-0.6-0.4-1-1.1-1.3c-0.8-0.3-2-0.5-3.5-0.5
		C336.1,152.4,334.9,152.5,334.1,152.9z M344.9,146.3c0.2,0,0.3,0,0.4,0.1c0.1,0.1,0.1,0.2,0.1,0.3c0,0.1,0,0.2-0.1,0.3
		c-0.1,0.1-0.2,0.1-0.3,0.1h-2v3.4c0,0.2-0.1,0.3-0.2,0.4c-0.1,0.1-0.2,0.1-0.4,0.1s-0.3,0-0.4-0.1c-0.1-0.1-0.2-0.2-0.2-0.4v-8.1
		c0-0.3,0.2-0.5,0.5-0.5c0.4,0,0.5,0.2,0.5,0.5v3.8H344.9z"/>
	<path class="st3" d="M356.4,154.4c0.8-0.2,1.6-0.4,2.3-0.6c0.3-0.1,0.5,0,0.6,0.2c0.1,0.3,0,0.5-0.3,0.6c-1.3,0.4-2.8,0.7-4.5,0.9
		c-1.4,0.2-3.3,0.2-5.6,0.2c-0.2,0-0.4,0-0.5-0.1s-0.2-0.2-0.2-0.3s0-0.2,0.1-0.3c0.1-0.1,0.2-0.1,0.4-0.1c0.6,0,1.2,0,1.9,0
		c0.9,0,1.7,0,2.5-0.1v-3h1v2.9C355.1,154.6,355.8,154.5,356.4,154.4z M358.4,144.8c0.1,0.1,0.1,0.2,0.1,0.3c0,0.1,0,0.2-0.1,0.3
		c-0.1,0.1-0.2,0.2-0.4,0.2h-8.4c-0.3,0-0.5-0.2-0.5-0.5s0.2-0.5,0.5-0.5h8.3C358.2,144.7,358.3,144.7,358.4,144.8z M356.8,147.5
		c0.7,0.5,1,1.2,1,1.9c0,0.8-0.3,1.4-1,1.9c-0.7,0.6-1.7,0.9-2.9,0.9c-1.3,0-2.2-0.3-3-0.9c-0.6-0.5-1-1.2-1-1.9
		c0-0.8,0.3-1.4,1-1.9c0.7-0.6,1.7-0.9,3-0.9C355.1,146.7,356.1,147,356.8,147.5z M356.8,143c0,0.3-0.1,0.4-0.5,0.4h-4.9
		c-0.3,0-0.5-0.1-0.5-0.4s0.2-0.4,0.5-0.4h4.9C356.6,142.6,356.8,142.7,356.8,143z M351.7,148.1c-0.5,0.3-0.7,0.8-0.7,1.3
		c0,0.5,0.2,1,0.7,1.3c0.5,0.4,1.3,0.6,2.2,0.6c0.9,0,1.6-0.2,2.1-0.6c0.5-0.4,0.7-0.8,0.7-1.3c0-0.5-0.2-0.9-0.7-1.3
		c-0.5-0.4-1.2-0.6-2.1-0.6C352.9,147.6,352.2,147.8,351.7,148.1z M362.9,149.1c0.2,0,0.3,0,0.4,0.1s0.1,0.2,0.1,0.3
		c0,0.1,0,0.2-0.1,0.3c-0.1,0.1-0.2,0.1-0.3,0.1h-2v6.3c0,0.2-0.1,0.3-0.2,0.4c-0.1,0.1-0.2,0.1-0.4,0.1s-0.3,0-0.4-0.1
		c-0.1-0.1-0.2-0.2-0.2-0.4v-13.7c0-0.2,0.1-0.3,0.2-0.4c0.1-0.1,0.2-0.1,0.4-0.1s0.3,0,0.4,0.1c0.1,0.1,0.2,0.2,0.2,0.4v6.6H362.9z
		"/>
	<path class="st3" d="M251.3,179.7l-4-12.1h1.7l1.9,6c0.5,1.6,1,3.1,1.3,4.5h0c0.3-1.4,0.8-2.9,1.4-4.5l2.1-6h1.7l-4.3,12.1H251.3z"
		/>
	<path class="st3" d="M268.9,174.4c-0.1-1.7-0.2-3.7-0.2-5.2h-0.1c-0.4,1.4-0.9,2.9-1.5,4.6l-2.1,5.9h-1.2l-2-5.8
		c-0.6-1.7-1.1-3.3-1.4-4.7h0c0,1.5-0.1,3.5-0.2,5.4l-0.3,5.2h-1.5l0.8-12.1h2l2.1,5.9c0.5,1.5,0.9,2.8,1.2,4.1h0.1
		c0.3-1.2,0.7-2.6,1.3-4.1l2.2-5.9h2l0.8,12.1h-1.5L268.9,174.4z"/>
	<path class="st3" d="M273.9,171l1.2,4.4c0.3,1,0.5,1.9,0.6,2.8h0.1c0.2-0.9,0.5-1.8,0.8-2.8l1.4-4.4h1.3l1.4,4.4
		c0.3,1,0.6,2,0.8,2.8h0.1c0.1-0.9,0.4-1.8,0.7-2.8l1.2-4.4h1.6l-2.8,8.7h-1.4l-1.3-4.2c-0.3-1-0.6-1.8-0.8-2.9h0
		c-0.2,1-0.5,1.9-0.8,2.9l-1.4,4.1h-1.4l-2.6-8.7H273.9z"/>
	<path class="st3" d="M291.2,179.7l-0.1-1.1h-0.1c-0.5,0.7-1.4,1.3-2.7,1.3c-1.8,0-2.7-1.2-2.7-2.5c0-2.1,1.9-3.3,5.2-3.2V174
		c0-0.7-0.2-2-2-2c-0.8,0-1.7,0.3-2.3,0.6l-0.4-1c0.7-0.5,1.8-0.8,2.9-0.8c2.7,0,3.3,1.8,3.3,3.6v3.3c0,0.8,0,1.5,0.1,2.1H291.2z
		 M291,175.3c-1.7,0-3.7,0.3-3.7,2c0,1,0.7,1.5,1.5,1.5c1.1,0,1.9-0.7,2.1-1.5c0.1-0.2,0.1-0.3,0.1-0.5V175.3z"/>
	<path class="st3" d="M295.1,173.7c0-1,0-1.9-0.1-2.7h1.4l0.1,1.7h0.1c0.4-1.2,1.4-1.9,2.4-1.9c0.2,0,0.3,0,0.5,0.1v1.5
		c-0.2,0-0.3-0.1-0.5-0.1c-1.1,0-1.9,0.8-2.1,2c0,0.2-0.1,0.5-0.1,0.7v4.6h-1.6V173.7z"/>
	<path class="st3" d="M301.7,175.7c0,2.1,1.4,3,3,3c1.1,0,1.8-0.2,2.4-0.5l0.3,1.1c-0.6,0.3-1.5,0.5-2.9,0.5c-2.7,0-4.3-1.8-4.3-4.4
		s1.5-4.7,4.1-4.7c2.8,0,3.6,2.5,3.6,4.1c0,0.3,0,0.6-0.1,0.7H301.7z M306.3,174.5c0-1-0.4-2.6-2.2-2.6c-1.6,0-2.3,1.5-2.4,2.6
		H306.3z"/>
	<path class="st3" d="M314.2,171l1.7,4.9c0.3,0.8,0.5,1.5,0.7,2.2h0.1c0.2-0.7,0.4-1.4,0.7-2.2l1.7-4.9h1.7l-3.4,8.7h-1.5l-3.3-8.7
		H314.2z"/>
	<path class="st3" d="M322.1,177.8c0.7,0.4,1.7,0.8,2.8,0.8c1.6,0,2.5-0.8,2.5-2.1c0-1.1-0.6-1.8-2.3-2.4c-2-0.7-3.2-1.7-3.2-3.4
		c0-1.9,1.6-3.3,3.9-3.3c1.2,0,2.1,0.3,2.7,0.6l-0.4,1.3c-0.4-0.2-1.2-0.6-2.3-0.6c-1.7,0-2.3,1-2.3,1.8c0,1.1,0.7,1.7,2.4,2.3
		c2.1,0.8,3.1,1.8,3.1,3.6c0,1.9-1.4,3.5-4.2,3.5c-1.2,0-2.4-0.3-3.1-0.8L322.1,177.8z"/>
	<path class="st3" d="M333.2,175.9l-1.3,3.8h-1.6l4.1-12.1h1.9l4.1,12.1h-1.7l-1.3-3.8H333.2z M337.2,174.7l-1.2-3.5
		c-0.3-0.8-0.5-1.5-0.6-2.2h0c-0.2,0.7-0.4,1.5-0.6,2.2l-1.2,3.5H337.2z"/>
	<path class="st3" d="M342.2,179.7v-12.1h1.7l3.9,6.1c0.9,1.4,1.6,2.7,2.2,3.9l0,0c-0.1-1.6-0.2-3.1-0.2-5v-5.1h1.5v12.1h-1.6
		l-3.9-6.2c-0.8-1.3-1.7-2.7-2.3-4.1l-0.1,0c0.1,1.5,0.1,3,0.1,5v5.2H342.2z"/>
</g>
<g>
	<path class="st3" d="M442.2,142.7c0.1-0.1,0.2-0.1,0.4-0.1s0.3,0,0.4,0.1c0.1,0.1,0.2,0.2,0.2,0.4v10.1c0,0.3,0.1,0.5,0.2,0.7
		c0.1,0.1,0.4,0.2,0.7,0.2c0.9,0,1.7-0.1,2.4-0.2c0.7-0.1,1.3-0.2,1.8-0.4c0.1-0.1,0.3-0.1,0.4,0c0.1,0.1,0.2,0.1,0.2,0.3
		c0,0.1,0,0.3-0.1,0.4c-0.1,0.1-0.2,0.2-0.3,0.3c-0.6,0.2-1.2,0.3-2,0.4c-0.8,0.1-1.7,0.2-2.7,0.2c-0.5,0-0.9-0.2-1.2-0.5
		c-0.3-0.3-0.4-0.7-0.4-1.3v-10C442,142.9,442.1,142.8,442.2,142.7z M450.8,156.6c-0.1,0.1-0.2,0.1-0.4,0.1s-0.3,0-0.4-0.1
		c-0.1-0.1-0.2-0.2-0.2-0.4v-7.7h-3.1c-0.2,0-0.3,0-0.4-0.1c-0.1-0.1-0.1-0.2-0.2-0.3c0-0.1,0-0.2,0.1-0.3c0.1-0.1,0.2-0.1,0.4-0.1
		h3.1v-5.1c0-0.2,0.1-0.3,0.2-0.4c0.1-0.1,0.2-0.1,0.4-0.1s0.3,0,0.4,0.1c0.1,0.1,0.2,0.2,0.2,0.4v13.7
		C451,156.4,451,156.5,450.8,156.6z M454.5,156.6c-0.1,0.1-0.2,0.1-0.3,0.1c-0.1,0-0.3,0-0.4-0.1c-0.1-0.1-0.2-0.2-0.2-0.4v-13.7
		c0-0.2,0.1-0.3,0.2-0.4c0.1-0.1,0.2-0.1,0.4-0.1c0.1,0,0.2,0,0.3,0.1c0.1,0.1,0.2,0.2,0.2,0.4v13.7
		C454.7,156.4,454.7,156.5,454.5,156.6z"/>
	<path class="st3" d="M473.8,154.8c0.1,0.1,0.1,0.2,0.2,0.3c0,0.1,0,0.2-0.1,0.3s-0.2,0.1-0.3,0.1h-13.9c-0.1,0-0.2,0-0.3-0.1
		s-0.1-0.2-0.1-0.3s0.1-0.2,0.1-0.3c0.1-0.1,0.2-0.1,0.4-0.1h13.6C473.6,154.7,473.7,154.7,473.8,154.8z M472.6,142.7
		c0.1,0.1,0.1,0.2,0.1,0.3c0,0.1,0,0.2-0.1,0.3c-0.1,0.1-0.2,0.2-0.3,0.2h-9.7c-0.3,0-0.5,0.1-0.7,0.2c-0.1,0.1-0.2,0.3-0.2,0.6v2
		H472c0.3,0,0.5,0.1,0.5,0.4c0,0.3-0.2,0.5-0.5,0.5h-10.3v2.3c0,0.2,0.1,0.4,0.2,0.5c0.1,0.1,0.3,0.2,0.6,0.2h9.7
		c0.2,0,0.3,0,0.4,0.1c0.1,0.1,0.1,0.2,0.1,0.3c0,0.1,0,0.2-0.1,0.3s-0.2,0.1-0.3,0.1h-9.9c-0.5,0-0.9-0.1-1.2-0.4s-0.4-0.6-0.4-1.1
		v-5.3c0-0.5,0.1-0.8,0.4-1.1c0.3-0.3,0.7-0.5,1.3-0.5h9.8C472.4,142.5,472.5,142.6,472.6,142.7z"/>
	<path class="st3" d="M479.7,150.8c-0.9,0-1.6,0-2.3,0c-0.3,0-0.4-0.1-0.4-0.4s0.2-0.4,0.5-0.4c1.7,0,3.3,0,5-0.1
		c1.9,0,3.5-0.1,4.8-0.2c0.2,0,0.3,0,0.4,0.1c0.1,0.1,0.2,0.2,0.2,0.3c0,0.1,0,0.2-0.1,0.3c-0.1,0.1-0.2,0.2-0.3,0.2
		c-0.7,0.1-1.4,0.1-2.2,0.2c-0.7,0-1.4,0.1-2.1,0.1v2.1c0,0.8-0.1,1.4-0.3,1.9c-0.2,0.5-0.5,0.9-0.8,1.3c-0.3,0.2-0.5,0.2-0.7,0
		c-0.2-0.2-0.2-0.4,0-0.7c0.3-0.3,0.5-0.7,0.6-1.1c0.1-0.4,0.2-0.8,0.2-1.4v-2.1C481.5,150.8,480.8,150.8,479.7,150.8z M486.1,143.4
		c0.8,0.6,1.2,1.2,1.2,2c0,0.8-0.4,1.4-1.2,2c-0.9,0.6-2,0.9-3.4,0.9c-1.5,0-2.6-0.3-3.5-0.9c-0.8-0.6-1.1-1.2-1.1-2
		c0-0.8,0.4-1.5,1.1-2c0.9-0.6,2-0.9,3.5-0.9C484.1,142.5,485.2,142.8,486.1,143.4z M480,144c-0.6,0.4-0.9,0.8-0.9,1.4
		c0,0.5,0.3,1,0.9,1.4c0.7,0.4,1.5,0.6,2.7,0.6c1.1,0,2-0.2,2.7-0.6c0.6-0.4,0.9-0.8,0.9-1.4c0-0.6-0.3-1-0.9-1.4
		c-0.7-0.4-1.6-0.6-2.7-0.6C481.5,143.4,480.6,143.6,480,144z M490.1,156.6c-0.1,0.1-0.2,0.1-0.4,0.1c-0.2,0-0.3,0-0.4-0.1
		c-0.1-0.1-0.2-0.2-0.2-0.4v-3.4h-3.3c-0.2,0-0.3-0.1-0.4-0.2c-0.1-0.1-0.2-0.2-0.2-0.3c0-0.1,0-0.2,0.1-0.3
		c0.1-0.1,0.2-0.1,0.4-0.1h3.4v-9.3c0-0.2,0.1-0.3,0.2-0.4c0.1-0.1,0.2-0.1,0.4-0.1c0.1,0,0.3,0,0.4,0.1c0.1,0.1,0.2,0.2,0.2,0.4
		v13.7C490.3,156.4,490.2,156.5,490.1,156.6z"/>
	<path class="st3" d="M509.8,154.8c0.1,0.1,0.1,0.2,0.2,0.3c0,0.1,0,0.2-0.1,0.3s-0.2,0.1-0.3,0.1h-13.9c-0.1,0-0.2,0-0.3-0.1
		s-0.1-0.2-0.1-0.3s0.1-0.2,0.1-0.3c0.1-0.1,0.2-0.1,0.4-0.1h13.6C509.6,154.7,509.7,154.7,509.8,154.8z M507.2,148.1
		c0,0.3-0.1,0.5-0.4,0.5c-1.5,0.2-3.2,0.3-5,0.4c-1.9,0.1-3.6,0.2-5.1,0.2c-0.3,0-0.5-0.2-0.5-0.5c0-0.3,0.2-0.4,0.5-0.4
		c1.6,0,3.2,0,5-0.1c1.9-0.1,3.6-0.2,5-0.4C507.1,147.7,507.2,147.8,507.2,148.1z M508,143c0.4,0.3,0.5,0.7,0.5,1.1v3.3
		c0,1.7-0.1,3-0.2,3.9c-0.2,1.1-0.5,2.2-0.9,3.4h-1.1c0.5-1.1,0.8-2.3,1-3.3c0.1-0.8,0.2-2.1,0.2-3.8v-3.4c0-0.2-0.1-0.4-0.2-0.5
		c-0.1-0.1-0.4-0.2-0.7-0.2h-9.4c-0.3,0-0.5-0.2-0.5-0.5s0.2-0.5,0.5-0.5h9.5C507.2,142.5,507.7,142.7,508,143z"/>
	<path class="st3" d="M524.6,143.1c0.3,0.3,0.5,0.7,0.5,1.2v2.1c0,2.7-0.7,4.8-2.1,6.4c-1.3,1.5-3,2.3-5.2,2.4
		c-0.3,0-0.5-0.1-0.5-0.4c0-0.3,0.1-0.5,0.5-0.5c2-0.2,3.6-0.9,4.6-2.2c1.2-1.4,1.8-3.3,1.8-5.7v-2.1c0-0.2-0.1-0.4-0.2-0.6
		c-0.2-0.1-0.4-0.2-0.6-0.2H518c-0.3,0-0.5-0.2-0.5-0.5c0-0.3,0.1-0.4,0.5-0.4h5.2C523.8,142.6,524.3,142.8,524.6,143.1z M531.5,149
		c0.3,0,0.4,0.1,0.4,0.4c0,0.3-0.1,0.4-0.4,0.4h-2v6.4c0,0.2-0.1,0.3-0.2,0.4c-0.1,0.1-0.2,0.1-0.4,0.1s-0.3,0-0.4-0.1
		c-0.1-0.1-0.2-0.2-0.2-0.4v-13.7c0-0.2,0.1-0.3,0.2-0.4c0.1-0.1,0.2-0.1,0.4-0.1s0.3,0,0.4,0.1c0.1,0.1,0.2,0.2,0.2,0.4v6.4H531.5z
		"/>
	<path class="st3" d="M539.4,142.5c0.1-0.1,0.2-0.1,0.4-0.1s0.3,0,0.4,0.1c0.1,0.1,0.2,0.2,0.2,0.4c0,0.4,0,0.8-0.1,1.2
		c-0.1,0.3-0.2,0.6-0.3,1c1,0.7,1.9,1.4,2.5,2c0.6,0.6,1.2,1.3,1.9,2.2c0.1,0.2,0.2,0.3,0.1,0.5c0,0.1-0.1,0.2-0.2,0.3
		c-0.1,0.1-0.2,0.1-0.4,0.1c-0.2,0-0.3-0.1-0.4-0.2c-0.6-0.8-1.2-1.5-1.8-2.1c-0.6-0.6-1.3-1.2-2.1-1.8c-0.5,0.9-0.9,1.7-1.4,2.3
		c-0.6,0.7-1.3,1.4-2.2,2.1c-0.1,0.1-0.3,0.1-0.4,0.1c-0.1,0-0.2-0.1-0.3-0.2c-0.1-0.1-0.1-0.2-0.1-0.4s0.1-0.3,0.3-0.4
		c1.2-0.8,2.2-2,2.9-3.4c0.6-1.2,0.9-2.3,0.9-3.3C539.2,142.7,539.3,142.6,539.4,142.5z M546.5,152.2c0.9,0.5,1.4,1.1,1.4,1.9
		c0,0.8-0.5,1.4-1.4,1.9c-1,0.5-2.4,0.8-4.3,0.8c-1.9,0-3.3-0.3-4.3-0.8c-0.9-0.5-1.4-1.1-1.4-1.9c0-0.8,0.5-1.4,1.4-1.9
		c1-0.5,2.5-0.8,4.3-0.8C544,151.4,545.5,151.7,546.5,152.2z M538.6,152.9c-0.7,0.3-1.1,0.8-1.1,1.3c0,0.5,0.4,0.9,1.1,1.2
		c0.8,0.3,2,0.5,3.6,0.5c1.5,0,2.7-0.2,3.5-0.5c0.8-0.3,1.1-0.7,1.1-1.2c0-0.6-0.4-1-1.1-1.3c-0.8-0.3-2-0.5-3.5-0.5
		C540.6,152.4,539.4,152.5,538.6,152.9z M549.4,146.3c0.2,0,0.3,0,0.4,0.1c0.1,0.1,0.1,0.2,0.1,0.3c0,0.1,0,0.2-0.1,0.3
		c-0.1,0.1-0.2,0.1-0.3,0.1h-2v3.4c0,0.2-0.1,0.3-0.2,0.4c-0.1,0.1-0.2,0.1-0.4,0.1s-0.3,0-0.4-0.1c-0.1-0.1-0.2-0.2-0.2-0.4v-8.1
		c0-0.3,0.2-0.5,0.5-0.5c0.4,0,0.5,0.2,0.5,0.5v3.8H549.4z"/>
	<path class="st3" d="M560.9,154.4c0.8-0.2,1.6-0.4,2.3-0.6c0.3-0.1,0.5,0,0.6,0.2c0.1,0.3,0,0.5-0.3,0.6c-1.3,0.4-2.8,0.7-4.5,0.9
		c-1.4,0.2-3.3,0.2-5.6,0.2c-0.2,0-0.4,0-0.5-0.1s-0.2-0.2-0.2-0.3s0-0.2,0.1-0.3c0.1-0.1,0.2-0.1,0.4-0.1c0.6,0,1.2,0,1.9,0
		c0.9,0,1.7,0,2.5-0.1v-3h1v2.9C559.6,154.6,560.3,154.5,560.9,154.4z M562.9,144.8c0.1,0.1,0.1,0.2,0.1,0.3c0,0.1,0,0.2-0.1,0.3
		c-0.1,0.1-0.2,0.2-0.4,0.2h-8.4c-0.3,0-0.5-0.2-0.5-0.5s0.2-0.5,0.5-0.5h8.3C562.7,144.7,562.8,144.7,562.9,144.8z M561.3,147.5
		c0.7,0.5,1,1.2,1,1.9c0,0.8-0.3,1.4-1,1.9c-0.7,0.6-1.7,0.9-2.9,0.9c-1.3,0-2.2-0.3-3-0.9c-0.6-0.5-1-1.2-1-1.9
		c0-0.8,0.3-1.4,1-1.9c0.7-0.6,1.7-0.9,3-0.9C559.6,146.7,560.6,147,561.3,147.5z M561.3,143c0,0.3-0.1,0.4-0.5,0.4h-4.9
		c-0.3,0-0.5-0.1-0.5-0.4s0.2-0.4,0.5-0.4h4.9C561.1,142.6,561.3,142.7,561.3,143z M556.2,148.1c-0.5,0.3-0.7,0.8-0.7,1.3
		c0,0.5,0.2,1,0.7,1.3c0.5,0.4,1.3,0.6,2.2,0.6c0.9,0,1.6-0.2,2.1-0.6c0.5-0.4,0.7-0.8,0.7-1.3c0-0.5-0.2-0.9-0.7-1.3
		c-0.5-0.4-1.2-0.6-2.1-0.6C557.4,147.6,556.7,147.8,556.2,148.1z M567.4,149.1c0.2,0,0.3,0,0.4,0.1s0.1,0.2,0.1,0.3
		c0,0.1,0,0.2-0.1,0.3c-0.1,0.1-0.2,0.1-0.3,0.1h-2v6.3c0,0.2-0.1,0.3-0.2,0.4c-0.1,0.1-0.2,0.1-0.4,0.1s-0.3,0-0.4-0.1
		c-0.1-0.1-0.2-0.2-0.2-0.4v-13.7c0-0.2,0.1-0.3,0.2-0.4c0.1-0.1,0.2-0.1,0.4-0.1s0.3,0,0.4,0.1c0.1,0.1,0.2,0.2,0.2,0.4v6.6H567.4z
		"/>
	<path class="st3" d="M460.5,179.7l-4-12.1h1.7l1.9,6c0.5,1.6,1,3.1,1.3,4.5h0c0.3-1.4,0.8-2.9,1.4-4.5l2.1-6h1.7l-4.3,12.1H460.5z"
		/>
	<path class="st3" d="M478.1,174.4c-0.1-1.7-0.2-3.7-0.2-5.2h-0.1c-0.4,1.4-0.9,2.9-1.5,4.6l-2.1,5.9H473l-2-5.8
		c-0.6-1.7-1.1-3.3-1.4-4.7h0c0,1.5-0.1,3.5-0.2,5.4l-0.3,5.2h-1.5l0.8-12.1h2l2.1,5.9c0.5,1.5,0.9,2.8,1.2,4.1h0.1
		c0.3-1.2,0.7-2.6,1.3-4.1l2.2-5.9h2l0.8,12.1h-1.5L478.1,174.4z"/>
	<path class="st3" d="M483.1,171l1.2,4.4c0.3,1,0.5,1.9,0.6,2.8h0.1c0.2-0.9,0.5-1.8,0.8-2.8l1.4-4.4h1.3l1.4,4.4
		c0.3,1,0.6,2,0.8,2.8h0.1c0.1-0.9,0.4-1.8,0.7-2.8l1.2-4.4h1.6l-2.8,8.7h-1.4l-1.3-4.2c-0.3-1-0.6-1.8-0.8-2.9h0
		c-0.2,1-0.5,1.9-0.8,2.9l-1.4,4.1h-1.4l-2.6-8.7H483.1z"/>
	<path class="st3" d="M500.4,179.7l-0.1-1.1h-0.1c-0.5,0.7-1.4,1.3-2.7,1.3c-1.8,0-2.7-1.2-2.7-2.5c0-2.1,1.9-3.3,5.2-3.2V174
		c0-0.7-0.2-2-2-2c-0.8,0-1.7,0.3-2.3,0.6l-0.4-1c0.7-0.5,1.8-0.8,2.9-0.8c2.7,0,3.3,1.8,3.3,3.6v3.3c0,0.8,0,1.5,0.1,2.1H500.4z
		 M500.2,175.3c-1.7,0-3.7,0.3-3.7,2c0,1,0.7,1.5,1.5,1.5c1.1,0,1.9-0.7,2.1-1.5c0.1-0.2,0.1-0.3,0.1-0.5V175.3z"/>
	<path class="st3" d="M504.3,173.7c0-1,0-1.9-0.1-2.7h1.4l0.1,1.7h0.1c0.4-1.2,1.3-1.9,2.4-1.9c0.2,0,0.3,0,0.5,0.1v1.5
		c-0.2,0-0.3-0.1-0.5-0.1c-1.1,0-1.9,0.8-2.1,2c0,0.2-0.1,0.5-0.1,0.7v4.6h-1.6V173.7z"/>
	<path class="st3" d="M510.9,175.7c0,2.1,1.4,3,3,3c1.1,0,1.8-0.2,2.4-0.5l0.3,1.1c-0.6,0.3-1.5,0.5-2.9,0.5c-2.7,0-4.3-1.8-4.3-4.4
		s1.5-4.7,4.1-4.7c2.8,0,3.6,2.5,3.6,4.1c0,0.3,0,0.6-0.1,0.7H510.9z M515.5,174.5c0-1-0.4-2.6-2.2-2.6c-1.6,0-2.3,1.5-2.4,2.6
		H515.5z"/>
	<path class="st3" d="M522.9,179.7v-12.1h1.7l3.9,6.1c0.9,1.4,1.6,2.7,2.2,3.9l0,0c-0.1-1.6-0.2-3.1-0.2-5v-5.1h1.5v12.1h-1.6
		l-3.9-6.2c-0.8-1.3-1.7-2.7-2.3-4.1l-0.1,0c0.1,1.5,0.1,3,0.1,5v5.2H522.9z"/>
	<path class="st3" d="M534.5,177.8c0.7,0.4,1.7,0.8,2.8,0.8c1.6,0,2.5-0.8,2.5-2.1c0-1.1-0.6-1.8-2.3-2.4c-2-0.7-3.2-1.7-3.2-3.4
		c0-1.9,1.6-3.3,3.9-3.3c1.2,0,2.1,0.3,2.7,0.6l-0.4,1.3c-0.4-0.2-1.2-0.6-2.3-0.6c-1.7,0-2.3,1-2.3,1.8c0,1.1,0.7,1.7,2.4,2.3
		c2.1,0.8,3.1,1.8,3.1,3.6c0,1.9-1.4,3.5-4.2,3.5c-1.2,0-2.4-0.3-3.1-0.8L534.5,177.8z"/>
	<path class="st3" d="M550.2,179.7l-1.5-2.7c-0.6-1-1-1.7-1.4-2.4h0c-0.3,0.7-0.7,1.3-1.3,2.4l-1.5,2.7h-1.8l3.7-6.1l-3.6-6h1.8
		l1.6,2.8c0.5,0.8,0.8,1.4,1.1,2.1h0.1c0.3-0.7,0.6-1.3,1.1-2.1l1.7-2.8h1.8l-3.7,5.9l3.8,6.2H550.2z"/>
</g>
<g>
	<path class="st3" d="M162,246v17.5h-2.3V246H162z"/>
	<path class="st3" d="M165.9,246.2c1-0.2,2.5-0.4,4.1-0.4c2.3,0,3.7,0.4,4.8,1.3c0.9,0.7,1.5,1.7,1.5,3.1c0,1.7-1.1,3.2-3,3.8v0.1
		c1.7,0.4,3.6,1.8,3.6,4.4c0,1.5-0.6,2.7-1.5,3.5c-1.2,1.1-3.2,1.6-6.1,1.6c-1.6,0-2.8-0.1-3.5-0.2V246.2z M168.2,253.4h2.1
		c2.4,0,3.8-1.2,3.8-2.9c0-2.1-1.6-2.9-3.8-2.9c-1,0-1.6,0.1-2,0.2V253.4z M168.2,261.8c0.4,0.1,1.1,0.1,1.9,0.1
		c2.3,0,4.5-0.9,4.5-3.4c0-2.4-2.1-3.4-4.5-3.4h-1.9V261.8z"/>
	<path class="st3" d="M194.8,255.8c-0.1-2.4-0.3-5.4-0.3-7.6h-0.1c-0.6,2.1-1.3,4.2-2.2,6.7l-3.1,8.5h-1.7l-2.8-8.3
		c-0.8-2.5-1.5-4.7-2-6.8h-0.1c-0.1,2.2-0.2,5.1-0.3,7.7l-0.5,7.5h-2.2l1.2-17.5h2.9l3,8.5c0.7,2.2,1.3,4.1,1.8,5.9h0.1
		c0.4-1.8,1.1-3.7,1.8-5.9l3.1-8.5h2.9l1.1,17.5h-2.2L194.8,255.8z"/>
	<path class="st3" d="M218.7,263c-0.8,0.4-2.5,0.8-4.6,0.8c-4.9,0-8.7-3.1-8.7-8.9c0-5.5,3.7-9.2,9.2-9.2c2.2,0,3.6,0.5,4.2,0.8
		l-0.5,1.8c-0.9-0.4-2.1-0.7-3.5-0.7c-4.1,0-6.8,2.6-6.8,7.2c0,4.3,2.5,7,6.7,7c1.4,0,2.8-0.3,3.7-0.7L218.7,263z"/>
	<path class="st3" d="M221.4,245.1h2.3v18.5h-2.3V245.1z"/>
	<path class="st3" d="M239,257.1c0,4.7-3.2,6.7-6.3,6.7c-3.4,0-6-2.5-6-6.5c0-4.2,2.8-6.7,6.2-6.7C236.5,250.7,239,253.3,239,257.1z
		 M229,257.3c0,2.8,1.6,4.8,3.8,4.8c2.2,0,3.8-2.1,3.8-4.9c0-2.1-1.1-4.8-3.8-4.8S229,254.9,229,257.3z"/>
	<path class="st3" d="M252.4,260.1c0,1.3,0,2.4,0.1,3.4h-2l-0.1-2.1h-0.1c-0.6,1-1.9,2.3-4.2,2.3c-2,0-4.3-1.1-4.3-5.5V251h2.3v7
		c0,2.4,0.7,4,2.8,4c1.5,0,2.6-1.1,3-2.1c0.1-0.3,0.2-0.8,0.2-1.2V251h2.3V260.1z"/>
	<path class="st3" d="M267,245.1v15.2c0,1.1,0,2.4,0.1,3.3h-2.1l-0.1-2.2h-0.1c-0.7,1.4-2.2,2.5-4.3,2.5c-3,0-5.4-2.6-5.4-6.4
		c0-4.2,2.6-6.8,5.6-6.8c1.9,0,3.2,0.9,3.8,1.9h0.1v-7.5H267z M264.8,256.1c0-0.3,0-0.7-0.1-1c-0.3-1.5-1.6-2.7-3.3-2.7
		c-2.4,0-3.8,2.1-3.8,4.9c0,2.5,1.2,4.7,3.7,4.7c1.5,0,2.9-1,3.4-2.7c0.1-0.3,0.1-0.6,0.1-1V256.1z"/>
	<path class="st3" d="M279.9,260.1c2.9-0.2,5.3-0.5,7.2-0.8c0.3-0.1,0.5-0.1,0.7,0c0.2,0.1,0.3,0.2,0.3,0.4c0,0.2,0,0.3-0.1,0.5
		c-0.1,0.2-0.3,0.3-0.5,0.3c-2,0.4-4.4,0.7-7.2,0.9c-2.3,0.2-5.1,0.2-8.3,0.2c-0.3,0-0.5-0.1-0.6-0.2c-0.1-0.1-0.2-0.3-0.2-0.4
		c0-0.2,0.1-0.3,0.2-0.5c0.2-0.1,0.4-0.2,0.6-0.2C274.8,260.3,277.5,260.3,279.9,260.1z M283.6,245.9c1,1,1.5,2.2,1.5,3.6
		c0,1.4-0.5,2.6-1.5,3.6c-1.1,1.1-2.7,1.6-4.6,1.6c-2,0-3.5-0.5-4.6-1.6c-1-1-1.5-2.2-1.5-3.6c0-1.4,0.5-2.6,1.5-3.6
		c1.2-1.1,2.7-1.6,4.6-1.6C280.9,244.3,282.4,244.9,283.6,245.9z M275.5,246.8c-0.7,0.7-1.1,1.7-1.1,2.8c0,1.1,0.4,2,1.1,2.7
		c0.8,0.8,2,1.2,3.6,1.2c1.5,0,2.6-0.4,3.5-1.2c0.7-0.7,1.1-1.6,1.1-2.7c0-1.1-0.4-2-1.1-2.8c-0.8-0.8-2-1.2-3.5-1.2
		C277.5,245.6,276.3,246,275.5,246.8z M289.9,264.6c-0.1,0.1-0.3,0.2-0.5,0.2c-0.2,0-0.4-0.1-0.5-0.2c-0.2-0.2-0.2-0.3-0.2-0.6
		v-19.7c0-0.2,0.1-0.4,0.2-0.5c0.1-0.1,0.3-0.2,0.5-0.2c0.2,0,0.4,0.1,0.5,0.2c0.2,0.1,0.3,0.3,0.3,0.5V264
		C290.1,264.3,290,264.5,289.9,264.6z"/>
	<path class="st3" d="M312.3,244.2c0.1-0.1,0.3-0.2,0.5-0.2s0.4,0.1,0.5,0.2c0.2,0.1,0.3,0.3,0.3,0.6c0,0.5-0.1,1-0.2,1.4
		c-0.1,0.3-0.2,0.7-0.4,1.2l-0.1,0.2c1.4,0.8,2.7,1.6,3.7,2.5c0.8,0.8,1.7,1.8,2.7,3.1c0.2,0.2,0.2,0.4,0.2,0.7
		c0,0.2-0.1,0.4-0.3,0.5c-0.2,0.1-0.3,0.1-0.5,0.1c-0.2,0-0.4-0.2-0.6-0.4c-0.8-1.2-1.7-2.2-2.6-3c-0.9-0.9-2-1.6-3.1-2.2
		c-0.7,1.2-1.4,2.2-2.1,3c-0.8,1-1.9,2-3.1,2.9c-0.2,0.1-0.4,0.2-0.6,0.2c-0.2,0-0.3-0.1-0.4-0.3c-0.1-0.2-0.2-0.3-0.1-0.5
		c0-0.2,0.2-0.4,0.4-0.5c1.8-1.3,3.2-2.8,4.2-4.7c0.9-1.6,1.3-3,1.3-4.2C312,244.5,312.1,244.3,312.3,244.2z M324.2,256.5
		c0.4,0.3,0.6,0.8,0.6,1.4v1.1c0,0.5-0.2,0.9-0.6,1.3c-0.4,0.3-0.9,0.5-1.5,0.5h-12c-0.3,0-0.6,0.1-0.7,0.2
		c-0.1,0.1-0.2,0.3-0.2,0.6v1c0,0.3,0.1,0.4,0.2,0.5c0.1,0.1,0.4,0.2,0.7,0.2h14c0.2,0,0.4,0.1,0.6,0.2c0.1,0.1,0.2,0.3,0.2,0.5
		c0,0.2-0.1,0.3-0.2,0.5c-0.1,0.1-0.3,0.2-0.5,0.2h-14.5c-0.6,0-1-0.2-1.4-0.5c-0.4-0.3-0.6-0.8-0.6-1.3v-1.5c0-0.6,0.2-1,0.5-1.3
		c0.4-0.3,0.8-0.5,1.4-0.5h12.1c0.3,0,0.5-0.1,0.7-0.2c0.2-0.1,0.3-0.3,0.3-0.5v-0.7c0-0.3-0.1-0.5-0.2-0.6
		c-0.2-0.1-0.4-0.2-0.8-0.2H309c-0.5,0-0.8-0.2-0.8-0.7c0-0.4,0.2-0.6,0.8-0.6h13.5C323.2,256,323.8,256.2,324.2,256.5z
		 M324.5,254.4c-0.1,0.1-0.3,0.2-0.5,0.2c-0.2,0-0.4-0.1-0.5-0.2c-0.2-0.1-0.2-0.3-0.2-0.5v-9.6c0-0.2,0.1-0.4,0.2-0.5
		c0.1-0.1,0.3-0.2,0.5-0.2c0.2,0,0.4,0.1,0.5,0.2c0.2,0.1,0.3,0.3,0.3,0.5v9.6C324.8,254.1,324.7,254.3,324.5,254.4z"/>
	<path class="st3" d="M342.9,245c0,0.4-0.2,0.7-0.6,0.7h-3.5v4.4c0,2.7,0.5,5.1,1.5,7.3c0.8,1.7,1.8,3.1,3.1,4.3
		c0.2,0.2,0.3,0.3,0.3,0.6c0,0.2-0.1,0.3-0.3,0.5c-0.2,0.2-0.3,0.2-0.5,0.3c-0.2,0-0.4,0-0.6-0.2c-1-0.9-1.9-2.1-2.6-3.5
		c-0.8-1.5-1.4-3.1-1.7-4.6c-0.3,1.6-0.9,3.1-1.7,4.6c-0.8,1.5-1.7,2.6-2.8,3.5c-0.2,0.1-0.4,0.2-0.6,0.2c-0.2,0-0.3-0.1-0.5-0.2
		c-0.1-0.1-0.2-0.3-0.2-0.5c0-0.2,0.1-0.4,0.4-0.6c1.2-1.1,2.3-2.5,3-4.3c1-2.2,1.5-4.6,1.5-7.3v-4.5h-3.5c-0.5,0-0.7-0.2-0.7-0.7
		c0-0.4,0.2-0.6,0.7-0.6h8.4C342.7,244.4,342.9,244.6,342.9,245z M345.4,243.8c0.1-0.1,0.3-0.2,0.5-0.2c0.2,0,0.4,0,0.5,0.2
		c0.2,0.1,0.3,0.3,0.3,0.5V264c0,0.2-0.1,0.4-0.3,0.6c-0.1,0.1-0.3,0.2-0.5,0.2c-0.2,0-0.4-0.1-0.5-0.2c-0.2-0.2-0.2-0.3-0.2-0.6
		v-10.3h-3.4c-0.3,0-0.4-0.1-0.6-0.2c-0.1-0.1-0.2-0.3-0.2-0.4c0-0.2,0.1-0.3,0.2-0.5c0.1-0.1,0.3-0.2,0.6-0.2h3.5v-8.1
		C345.1,244.1,345.2,243.9,345.4,243.8z M351.2,264.6c-0.1,0.1-0.3,0.2-0.5,0.2c-0.2,0-0.4-0.1-0.5-0.2c-0.2-0.2-0.2-0.3-0.2-0.6
		v-19.7c0-0.2,0.1-0.4,0.2-0.5c0.1-0.1,0.3-0.2,0.5-0.2c0.2,0,0.3,0.1,0.5,0.2c0.2,0.1,0.3,0.3,0.3,0.5V264
		C351.4,264.3,351.4,264.5,351.2,264.6z"/>
	<path class="st3" d="M377.6,246.1c1,1.1,1.4,2.5,1.4,4.2c0,1.7-0.5,3.1-1.4,4.2c-1.1,1.3-2.5,1.9-4.3,1.9c-1.8,0-3.3-0.6-4.4-1.9
		c-1-1.2-1.4-2.5-1.4-4.2c0-1.7,0.5-3.1,1.4-4.2c1.1-1.3,2.5-1.9,4.4-1.9C375.1,244.2,376.6,244.9,377.6,246.1z M370,247
		c-0.7,0.9-1,2-1,3.3s0.3,2.4,1,3.3c0.8,1,1.9,1.5,3.3,1.5c1.4,0,2.4-0.5,3.2-1.5c0.7-0.9,1.1-2,1.1-3.3s-0.4-2.4-1.1-3.3
		c-0.8-1-1.9-1.5-3.2-1.5C371.9,245.5,370.8,246,370,247z M370.6,261.8c0,0.5,0.1,0.8,0.3,0.9c0.2,0.2,0.5,0.2,1,0.2h13.7
		c0.4,0,0.6,0.2,0.6,0.6c0,0.4-0.2,0.7-0.6,0.7h-13.9c-0.8,0-1.4-0.2-1.8-0.6c-0.5-0.4-0.7-1-0.7-1.7v-3.4c0-0.3,0.1-0.5,0.2-0.6
		c0.1-0.1,0.3-0.2,0.5-0.2c0.2,0,0.4,0.1,0.5,0.2c0.2,0.2,0.3,0.4,0.3,0.6V261.8z M385.2,258.9c-0.1,0.1-0.3,0.2-0.5,0.2
		c-0.2,0-0.4-0.1-0.5-0.2c-0.2-0.2-0.2-0.4-0.2-0.6v-14c0-0.2,0.1-0.4,0.2-0.5c0.1-0.1,0.3-0.2,0.5-0.2c0.2,0,0.4,0.1,0.5,0.2
		c0.2,0.1,0.3,0.3,0.3,0.5v14C385.4,258.5,385.3,258.7,385.2,258.9z"/>
	<path class="st3" d="M413.6,262c0.1,0.1,0.2,0.3,0.2,0.5c0,0.2-0.1,0.3-0.2,0.5c-0.1,0.1-0.2,0.2-0.4,0.2h-20.1
		c-0.2,0-0.3-0.1-0.4-0.2c-0.1-0.1-0.1-0.3-0.1-0.5c0-0.2,0.1-0.3,0.2-0.5c0.1-0.1,0.3-0.2,0.6-0.2h19.7
		C413.3,261.8,413.5,261.8,413.6,262z M412.1,255c0,0.4-0.2,0.7-0.6,0.7H395c-0.4,0-0.6-0.2-0.6-0.7c0-0.4,0.2-0.6,0.7-0.6h3.1
		l-0.8-6.9c0-0.2,0-0.4,0.2-0.6c0.1-0.1,0.3-0.2,0.5-0.2c0.2,0,0.4,0,0.5,0.1c0.2,0.1,0.3,0.3,0.3,0.5l0.8,7.1h7.1l0.8-7
		c0-0.2,0.1-0.4,0.3-0.5c0.2-0.1,0.3-0.1,0.5-0.1c0.2,0,0.4,0.1,0.5,0.2c0.2,0.2,0.2,0.4,0.2,0.6l-0.8,6.9h3.1
		C411.9,254.4,412.1,254.6,412.1,255z M411.9,244.5c0.1,0.1,0.2,0.3,0.2,0.5c0,0.2,0,0.3-0.2,0.4c-0.1,0.2-0.3,0.2-0.5,0.2h-16.4
		c-0.5,0-0.7-0.2-0.7-0.7c0-0.4,0.2-0.7,0.7-0.7h16.3C411.6,244.3,411.8,244.3,411.9,244.5z"/>
	<path class="st3" d="M429.5,244.8c0.4,0.3,0.7,0.8,0.7,1.4v4.9c0,0.6-0.2,1.1-0.6,1.5c-0.4,0.4-1,0.5-1.8,0.5h-5.4
		c-0.4,0-0.7,0.1-0.9,0.3c-0.2,0.2-0.2,0.5-0.2,0.9v5.7c0,0.5,0.1,0.8,0.3,1c0.2,0.2,0.6,0.3,1.1,0.3c1.9,0,3.8-0.2,5.7-0.5
		c1.8-0.3,3.3-0.8,4.5-1.3c0.4-0.2,0.7-0.1,0.9,0.3c0.2,0.4,0.1,0.7-0.4,1c-1.4,0.6-3.2,1.1-5.3,1.4c-1.9,0.3-3.8,0.5-5.8,0.5
		c-0.8,0-1.5-0.2-1.9-0.7c-0.4-0.4-0.6-1-0.6-1.8v-6c0-0.7,0.2-1.3,0.6-1.7c0.4-0.4,1-0.7,1.8-0.7h5.5c0.4,0,0.7-0.1,0.9-0.2
		c0.2-0.1,0.3-0.4,0.3-0.7v-4.3c0-0.3-0.1-0.6-0.4-0.8c-0.2-0.2-0.6-0.2-1.1-0.2h-6.8c-0.5,0-0.8-0.2-0.8-0.6c0-0.4,0.3-0.6,0.8-0.6
		h7.3C428.5,244.3,429.1,244.5,429.5,244.8z M439.5,253.6c0.4,0,0.6,0.2,0.6,0.6c0,0.4-0.2,0.6-0.6,0.6h-2.8v9.3
		c0,0.2-0.1,0.4-0.3,0.5c-0.1,0.1-0.3,0.2-0.5,0.2s-0.4-0.1-0.5-0.2c-0.2-0.1-0.2-0.3-0.2-0.5v-19.8c0-0.2,0.1-0.4,0.2-0.5
		c0.1-0.1,0.3-0.2,0.5-0.2s0.4,0.1,0.5,0.2c0.2,0.1,0.3,0.3,0.3,0.5v9.3H439.5z"/>
</g>
<g>
	<path class="st3" d="M284.2,299.1c0.1,0.1,0.2,0.2,0.2,0.4s-0.1,0.3-0.2,0.4s-0.3,0.2-0.4,0.2h-15.9c-0.4,0-0.6-0.2-0.6-0.5
		c0-0.3,0.2-0.5,0.6-0.5h15.9C283.9,299,284,299,284.2,299.1z M275.3,284.6c0.1-0.1,0.2-0.2,0.4-0.2c0.2,0,0.3,0.1,0.4,0.2
		c0.1,0.1,0.2,0.3,0.2,0.5c0,2.1,0.7,3.9,2.1,5.4c1.2,1.3,2.7,2.1,4.5,2.5c0.2,0,0.4,0.1,0.5,0.3c0.1,0.1,0.1,0.3,0.1,0.4
		c0,0.2-0.1,0.3-0.2,0.3c-0.2,0.1-0.4,0.1-0.6,0.1c-1.6-0.3-3-1.1-4.4-2.3c-1.3-1.2-2.1-2.4-2.6-3.8c-0.4,1.4-1.3,2.7-2.6,3.8
		c-1.4,1.2-2.9,2-4.5,2.4c-0.2,0-0.4,0-0.5-0.1c-0.1-0.1-0.2-0.2-0.2-0.3c0-0.2,0-0.3,0.1-0.4c0.1-0.1,0.3-0.2,0.5-0.3
		c1.7-0.3,3.2-1.2,4.4-2.5c1.5-1.5,2.2-3.3,2.2-5.4C275.2,284.9,275.2,284.8,275.3,284.6z"/>
	<path class="st3" d="M296.4,294.5c0.1-0.1,0.2-0.1,0.4-0.1c0.2,0,0.3,0.1,0.4,0.2c0.1,0.1,0.2,0.3,0.2,0.5v3.9h7.3
		c0.2,0,0.3,0,0.5,0.1c0.1,0.1,0.2,0.2,0.2,0.4s-0.1,0.3-0.2,0.4s-0.3,0.2-0.4,0.2h-16.1c-0.2,0-0.3-0.1-0.3-0.2s-0.1-0.2-0.1-0.4
		s0.1-0.3,0.2-0.4c0.1-0.1,0.3-0.1,0.5-0.1h7.4v-4C296.2,294.8,296.2,294.6,296.4,294.5z M303.7,285c0.1,0.1,0.1,0.2,0.1,0.4
		c0,0.1,0,0.3-0.1,0.3c-0.1,0.1-0.2,0.2-0.4,0.2h-11.3c-0.4,0-0.6,0.1-0.8,0.2c-0.2,0.2-0.2,0.4-0.2,0.7v2.3h12
		c0.4,0,0.6,0.2,0.6,0.5c0,0.4-0.2,0.5-0.6,0.5h-12v2.7c0,0.3,0.1,0.5,0.2,0.6c0.1,0.1,0.4,0.2,0.7,0.2h11.4c0.2,0,0.3,0,0.4,0.1
		c0.1,0.1,0.1,0.2,0.1,0.4c0,0.1,0,0.3-0.1,0.4s-0.2,0.2-0.4,0.2h-11.6c-0.6,0-1.1-0.2-1.4-0.5s-0.5-0.7-0.5-1.3v-6.2
		c0-0.5,0.2-1,0.5-1.3c0.4-0.4,0.9-0.5,1.5-0.5h11.5C303.5,284.8,303.6,284.9,303.7,285z"/>
	<path class="st3" d="M318,285.3c0.4,0.3,0.5,0.7,0.5,1.2v4c0,0.5-0.2,0.9-0.5,1.2c-0.3,0.3-0.8,0.4-1.4,0.4h-4.4
		c-0.3,0-0.6,0.1-0.7,0.2c-0.1,0.2-0.2,0.4-0.2,0.8v4.6c0,0.4,0.1,0.6,0.2,0.8c0.2,0.2,0.5,0.3,0.9,0.3c1.6,0,3.1-0.1,4.6-0.4
		c1.4-0.3,2.6-0.6,3.6-1.1c0.4-0.2,0.6-0.1,0.7,0.2c0.2,0.3,0.1,0.6-0.3,0.8c-1.1,0.5-2.5,0.9-4.2,1.1c-1.5,0.2-3.1,0.4-4.7,0.4
		c-0.7,0-1.2-0.2-1.5-0.6c-0.3-0.4-0.5-0.8-0.5-1.5v-4.8c0-0.6,0.2-1,0.5-1.4c0.3-0.4,0.8-0.5,1.4-0.5h4.4c0.3,0,0.6-0.1,0.7-0.2
		c0.1-0.1,0.2-0.3,0.2-0.6v-3.5c0-0.3-0.1-0.5-0.3-0.6c-0.2-0.1-0.5-0.2-0.9-0.2h-5.5c-0.4,0-0.6-0.2-0.6-0.5c0-0.3,0.2-0.5,0.7-0.5
		h5.9C317.1,284.9,317.6,285,318,285.3z M324.1,301.3c-0.1,0.1-0.2,0.2-0.4,0.2c-0.2,0-0.3-0.1-0.4-0.2c-0.1-0.1-0.2-0.3-0.2-0.5
		v-16c0-0.2,0.1-0.3,0.2-0.4c0.1-0.1,0.3-0.1,0.4-0.1c0.2,0,0.3,0,0.4,0.1c0.1,0.1,0.2,0.3,0.2,0.4v16
		C324.4,301,324.3,301.1,324.1,301.3z"/>
	<path class="st3" d="M341.5,285.4c0,0.4-0.2,0.5-0.5,0.5h-4.1v3.3c0,2.1,0.5,4.1,1.4,5.8c0.9,1.7,2,2.9,3.5,3.7
		c0.2,0.1,0.3,0.2,0.3,0.4s0,0.3,0,0.5c-0.1,0.2-0.2,0.2-0.4,0.3c-0.2,0.1-0.4,0-0.6-0.1c-1.1-0.6-2.1-1.6-3-2.9
		c-0.9-1.4-1.5-2.7-1.7-4.1c-0.3,1.4-0.9,2.8-1.8,4.1c-0.9,1.4-1.9,2.3-3.1,2.9c-0.2,0.1-0.3,0.1-0.5,0c-0.1-0.1-0.2-0.2-0.3-0.3
		c-0.1-0.2-0.1-0.3-0.1-0.5c0.1-0.2,0.2-0.3,0.3-0.4c1.4-0.7,2.5-1.9,3.4-3.7c0.9-1.8,1.4-3.7,1.4-5.8v-3.3h-4.1
		c-0.4,0-0.6-0.2-0.6-0.5c0-0.3,0.2-0.5,0.6-0.5h9.3C341.3,284.9,341.5,285.1,341.5,285.4z M345.1,301.3c-0.1,0.1-0.2,0.2-0.4,0.2
		c-0.2,0-0.3-0.1-0.4-0.2c-0.1-0.1-0.2-0.3-0.2-0.5v-16c0-0.2,0.1-0.3,0.2-0.4c0.1-0.1,0.3-0.1,0.4-0.1c0.2,0,0.3,0,0.4,0.1
		c0.1,0.1,0.2,0.3,0.2,0.4v16C345.4,301,345.3,301.1,345.1,301.3z"/>
</g>
<g>
	<path class="st3" d="M400.1,285c0.1-0.1,0.2-0.1,0.4-0.1s0.3,0,0.4,0.1c0.1,0.1,0.2,0.3,0.2,0.5v11.8c0,0.4,0.1,0.6,0.3,0.8
		c0.2,0.1,0.4,0.2,0.8,0.2c1,0,1.9-0.1,2.8-0.2c0.8-0.1,1.5-0.3,2.2-0.5c0.2-0.1,0.3-0.1,0.5,0c0.1,0.1,0.2,0.2,0.2,0.3
		c0,0.2,0,0.3-0.1,0.4c-0.1,0.2-0.2,0.3-0.4,0.3c-0.7,0.2-1.5,0.4-2.4,0.5c-0.9,0.1-2,0.2-3.2,0.2c-0.6,0-1.1-0.2-1.4-0.6
		c-0.3-0.4-0.5-0.8-0.5-1.5v-11.7C399.9,285.3,400,285.1,400.1,285z M410.2,301.3c-0.1,0.1-0.2,0.2-0.4,0.2s-0.3-0.1-0.4-0.2
		c-0.1-0.1-0.2-0.3-0.2-0.5v-8.9h-3.6c-0.2,0-0.4-0.1-0.5-0.2c-0.1-0.1-0.2-0.2-0.2-0.4c0-0.1,0-0.3,0.1-0.4
		c0.1-0.1,0.2-0.1,0.4-0.1h3.7v-5.9c0-0.2,0.1-0.3,0.2-0.4c0.1-0.1,0.2-0.1,0.4-0.1s0.3,0,0.4,0.1c0.1,0.1,0.2,0.2,0.2,0.4v16
		C410.4,301,410.4,301.1,410.2,301.3z M414.5,301.3c-0.1,0.1-0.2,0.2-0.4,0.2c-0.2,0-0.3-0.1-0.4-0.2c-0.1-0.1-0.2-0.3-0.2-0.5
		v-15.9c0-0.2,0.1-0.3,0.2-0.4c0.1-0.1,0.2-0.1,0.4-0.1c0.2,0,0.3,0,0.4,0.1c0.1,0.1,0.2,0.2,0.2,0.4v16
		C414.7,301,414.7,301.1,414.5,301.3z"/>
	<path class="st3" d="M437,299.1c0.1,0.1,0.2,0.2,0.2,0.4c0,0.1,0,0.3-0.1,0.4s-0.2,0.2-0.3,0.2h-16.2c-0.2,0-0.3-0.1-0.3-0.2
		s-0.1-0.2-0.1-0.4s0.1-0.3,0.2-0.4c0.1-0.1,0.3-0.1,0.5-0.1h15.9C436.7,299,436.9,299,437,299.1z M435.6,285
		c0.1,0.1,0.1,0.2,0.1,0.4c0,0.1,0,0.3-0.1,0.3c-0.1,0.1-0.2,0.2-0.4,0.2h-11.3c-0.4,0-0.6,0.1-0.8,0.2c-0.2,0.2-0.2,0.4-0.2,0.7
		v2.3h12c0.4,0,0.6,0.2,0.6,0.5c0,0.4-0.2,0.5-0.6,0.5h-12v2.7c0,0.3,0.1,0.5,0.2,0.6c0.1,0.1,0.4,0.2,0.7,0.2h11.4
		c0.2,0,0.3,0,0.4,0.1c0.1,0.1,0.1,0.2,0.1,0.4c0,0.1,0,0.3-0.1,0.4s-0.2,0.2-0.4,0.2h-11.6c-0.6,0-1.1-0.2-1.4-0.5
		s-0.5-0.7-0.5-1.3v-6.2c0-0.5,0.2-1,0.5-1.3c0.4-0.4,0.9-0.5,1.5-0.5h11.5C435.3,284.8,435.5,284.9,435.6,285z"/>
	<path class="st3" d="M443.9,294.5c-1,0-1.9,0-2.6,0c-0.3,0-0.5-0.2-0.5-0.5s0.2-0.5,0.6-0.5c2,0,3.9,0,5.8-0.1
		c2.2-0.1,4-0.1,5.6-0.3c0.2,0,0.3,0,0.5,0.1c0.1,0.1,0.2,0.2,0.2,0.3c0,0.1,0,0.2-0.1,0.3c-0.1,0.1-0.2,0.2-0.4,0.2
		c-0.8,0.1-1.7,0.1-2.6,0.2c-0.8,0.1-1.7,0.1-2.5,0.1v2.5c0,0.9-0.1,1.6-0.3,2.3c-0.2,0.6-0.5,1.1-1,1.5c-0.3,0.3-0.6,0.3-0.8,0
		c-0.3-0.2-0.3-0.5,0-0.8c0.3-0.4,0.6-0.8,0.7-1.2c0.1-0.4,0.2-1,0.2-1.7v-2.5C446,294.4,445.1,294.5,443.9,294.5z M451.3,285.8
		c0.9,0.6,1.4,1.4,1.4,2.4c0,0.9-0.5,1.7-1.4,2.3c-1,0.7-2.3,1.1-4,1.1c-1.7,0-3-0.4-4-1.1c-0.9-0.6-1.3-1.4-1.3-2.3
		c0-0.9,0.4-1.7,1.3-2.4c1-0.7,2.3-1,4-1C449,284.8,450.3,285.1,451.3,285.8z M444.2,286.6c-0.7,0.4-1,1-1,1.6c0,0.6,0.3,1.1,1,1.6
		c0.8,0.5,1.8,0.7,3.1,0.7c1.3,0,2.3-0.2,3.1-0.7c0.7-0.5,1-1,1-1.6c0-0.6-0.3-1.2-1-1.6c-0.8-0.5-1.8-0.7-3.1-0.7
		C446,285.8,445,286.1,444.2,286.6z M456,301.3c-0.1,0.1-0.2,0.2-0.4,0.2c-0.2,0-0.3-0.1-0.4-0.2c-0.1-0.1-0.2-0.3-0.2-0.5v-4h-3.9
		c-0.2,0-0.4-0.1-0.5-0.2c-0.1-0.1-0.2-0.2-0.2-0.3c0-0.2,0-0.3,0.1-0.4c0.1-0.1,0.3-0.2,0.5-0.2h3.9v-10.8c0-0.2,0.1-0.3,0.2-0.4
		c0.1-0.1,0.3-0.1,0.4-0.1c0.2,0,0.3,0,0.4,0.1c0.1,0.1,0.2,0.2,0.2,0.4v16C456.2,301,456.1,301.1,456,301.3z"/>
	<path class="st3" d="M479,299.1c0.1,0.1,0.2,0.2,0.2,0.4c0,0.1,0,0.3-0.1,0.4s-0.2,0.2-0.3,0.2h-16.2c-0.2,0-0.3-0.1-0.3-0.2
		s-0.1-0.2-0.1-0.4s0.1-0.3,0.2-0.4c0.1-0.1,0.3-0.1,0.5-0.1h15.9C478.7,299,478.9,299,479,299.1z M476,291.3c0,0.3-0.1,0.5-0.5,0.6
		c-1.8,0.2-3.7,0.3-5.8,0.5c-2.2,0.1-4.2,0.2-6,0.2c-0.4,0-0.6-0.2-0.6-0.5c0-0.3,0.2-0.5,0.6-0.5c1.8,0,3.8-0.1,5.9-0.2
		c2.3-0.1,4.2-0.3,5.9-0.5C475.8,290.8,476,290.9,476,291.3z M476.9,285.3c0.4,0.3,0.6,0.8,0.6,1.3v3.9c0,2-0.1,3.5-0.2,4.6
		c-0.2,1.3-0.5,2.6-1.1,3.9h-1.3c0.6-1.3,1-2.6,1.1-3.9c0.1-0.9,0.2-2.4,0.2-4.4v-4c0-0.3-0.1-0.5-0.2-0.6c-0.2-0.1-0.4-0.2-0.8-0.2
		h-11c-0.4,0-0.5-0.2-0.5-0.5s0.2-0.5,0.6-0.5h11C476,284.8,476.5,285,476.9,285.3z"/>
</g>
<g>
	<path class="st3" d="M147.9,287c0.1,0.1,0.2,0.2,0.2,0.3c0,0.1,0,0.3-0.1,0.4c-0.1,0.1-0.2,0.2-0.4,0.2c-1,0.2-2.1,0.3-3.3,0.5
		c-1.4,0.2-2.5,0.2-3.5,0.2c-0.4,0-0.6-0.2-0.6-0.5s0.2-0.5,0.6-0.5c1,0,2.1-0.1,3.4-0.2c1.1-0.1,2.2-0.2,3.2-0.4
		C147.6,286.8,147.8,286.9,147.9,287z M149.1,284.1c0.3,0.3,0.5,0.7,0.5,1.3v0.9c0,1.9-0.7,3.4-2.1,4.6c-1.5,1.3-3.7,2-6.5,2.2
		c-0.2,0-0.4-0.1-0.5-0.2c-0.1-0.1-0.2-0.2-0.2-0.3c0-0.2,0-0.3,0.1-0.4c0.1-0.1,0.3-0.2,0.5-0.2c2.5-0.1,4.5-0.7,5.8-1.9
		c1.1-1,1.7-2.3,1.7-3.8v-0.6c0-0.3-0.1-0.6-0.2-0.7s-0.4-0.2-0.8-0.2h-5.9c-0.2,0-0.4-0.1-0.5-0.2c-0.1-0.1-0.1-0.2-0.1-0.4
		s0-0.3,0.1-0.4c0.1-0.1,0.3-0.1,0.5-0.1h6.1C148.2,283.6,148.8,283.8,149.1,284.1z M154.9,294.3c0.3,0.3,0.5,0.6,0.5,1v2.9
		c0,0.5-0.2,0.9-0.5,1.2c-0.3,0.3-0.7,0.4-1.3,0.4h-9.5c-0.7,0-1.2-0.2-1.5-0.5c-0.3-0.3-0.4-0.7-0.4-1.2v-2.7
		c0-0.4,0.2-0.8,0.5-1.1s0.7-0.4,1.2-0.4h9.6C154.1,293.9,154.6,294.1,154.9,294.3z M154,295.1c-0.1-0.1-0.4-0.1-0.7-0.1h-8.9
		c-0.3,0-0.6,0.1-0.7,0.2c-0.1,0.1-0.2,0.3-0.2,0.6v2.3c0,0.3,0.1,0.5,0.2,0.6c0.1,0.1,0.4,0.2,0.7,0.2h8.9c0.3,0,0.5,0,0.7-0.1
		c0.2-0.1,0.2-0.3,0.2-0.5v-2.4C154.2,295.4,154.1,295.2,154,295.1z M155.2,292.3c-0.1,0.1-0.2,0.2-0.4,0.2c-0.2,0-0.3-0.1-0.4-0.2
		c-0.1-0.1-0.2-0.3-0.2-0.5v-2.9h-3.7c-0.2,0-0.4-0.1-0.5-0.2c-0.1-0.1-0.2-0.2-0.2-0.3c0-0.2,0-0.3,0.1-0.4
		c0.1-0.1,0.3-0.2,0.5-0.2h3.8v-4.1c0-0.2,0.1-0.4,0.2-0.5c0.1-0.1,0.3-0.1,0.4-0.1c0.2,0,0.3,0,0.4,0.1c0.1,0.1,0.2,0.3,0.2,0.5
		v8.1C155.4,292.1,155.4,292.2,155.2,292.3z"/>
	<path class="st3" d="M178.4,294.3c0,0.4-0.2,0.5-0.5,0.5h-3.3v4.8c0,0.2-0.1,0.3-0.2,0.5c-0.1,0.1-0.2,0.2-0.4,0.2s-0.3,0-0.4-0.1
		c-0.1-0.1-0.2-0.3-0.2-0.5v-4.8h-6.5v1.9c0,0.7-0.1,1.3-0.3,1.9c-0.2,0.6-0.5,1-0.8,1.4c-0.1,0.1-0.3,0.2-0.5,0.2
		c-0.2,0-0.3-0.1-0.4-0.2s-0.2-0.2-0.2-0.4c0-0.2,0.1-0.3,0.2-0.5c0.3-0.3,0.5-0.7,0.6-1.1c0.1-0.3,0.1-0.8,0.1-1.5v-1.9h-3.9
		c-0.2,0-0.3-0.1-0.4-0.2c-0.1-0.1-0.1-0.2-0.1-0.3c0-0.2,0-0.3,0.1-0.4c0.1-0.1,0.3-0.2,0.5-0.2h16
		C178.2,293.8,178.4,294,178.4,294.3z M177,290.6c0,0.3-0.1,0.5-0.4,0.5h-13.4c-0.3,0-0.5-0.2-0.5-0.5c0-0.3,0.2-0.5,0.5-0.5h2.6
		l-0.7-4.2c0-0.2,0-0.3,0.1-0.5c0.1-0.1,0.2-0.2,0.4-0.2s0.3,0,0.5,0.1c0.1,0.1,0.2,0.2,0.2,0.4l0.8,4.3h5.5l0.8-4.3
		c0-0.2,0.1-0.3,0.2-0.4c0.1-0.1,0.3-0.1,0.5-0.1c0.2,0,0.3,0.1,0.4,0.2c0.1,0.1,0.2,0.3,0.1,0.5l-0.8,4.2h2.6
		C176.8,290,177,290.2,177,290.6z M176.8,283.8c0.1,0.1,0.2,0.2,0.2,0.4s0,0.3-0.1,0.4c-0.1,0.1-0.2,0.2-0.4,0.2h-13.2
		c-0.4,0-0.6-0.2-0.6-0.5c0-0.3,0.2-0.5,0.6-0.5h13.2C176.6,283.7,176.7,283.7,176.8,283.8z"/>
	<path class="st3" d="M192.4,283.8c0.1,0.1,0.2,0.2,0.2,0.4s-0.1,0.3-0.2,0.4c-0.1,0.1-0.3,0.2-0.5,0.2h-6.7c-0.3,0-0.5,0.1-0.7,0.2
		c-0.1,0.2-0.2,0.4-0.2,0.7v1.6h7.2c0.4,0,0.6,0.2,0.6,0.5c0,0.4-0.2,0.5-0.6,0.5h-7.2v2.2c0,0.3,0.1,0.6,0.2,0.7
		c0.1,0.2,0.4,0.2,0.7,0.2c1.7,0,3.3-0.1,4.7-0.2c1.5-0.2,2.8-0.4,3.8-0.7c0.2-0.1,0.4-0.1,0.5,0c0.1,0.1,0.2,0.2,0.3,0.3
		c0.1,0.1,0,0.3,0,0.4s-0.2,0.2-0.3,0.3c-1.1,0.3-2.5,0.5-4.1,0.7c-1.5,0.2-3.1,0.2-4.8,0.2c-0.8,0-1.3-0.2-1.7-0.5
		c-0.3-0.3-0.5-0.8-0.5-1.5v-5c0-0.5,0.2-0.9,0.5-1.2c0.4-0.3,0.8-0.5,1.4-0.5h6.8C192.2,283.6,192.3,283.7,192.4,283.8z M195.9,295
		c1.1,0.5,1.6,1.3,1.6,2.2c0,0.9-0.5,1.6-1.6,2.2c-1.2,0.6-2.9,0.9-5.1,0.9s-4-0.3-5.1-0.9c-1.1-0.5-1.6-1.3-1.6-2.2
		c0-0.9,0.5-1.7,1.6-2.2c1.2-0.6,2.9-0.9,5.1-0.9S194.8,294.4,195.9,295z M186.6,295.7c-0.9,0.4-1.3,0.9-1.3,1.5
		c0,0.6,0.4,1.1,1.3,1.5c1,0.4,2.4,0.6,4.2,0.6c1.9,0,3.3-0.2,4.2-0.6c0.9-0.4,1.3-0.8,1.3-1.5c0-0.6-0.4-1.1-1.3-1.5
		c-1-0.4-2.4-0.6-4.2-0.6C188.9,295.2,187.5,295.3,186.6,295.7z M197.2,293.6c-0.1,0.1-0.2,0.2-0.4,0.2c-0.2,0-0.3-0.1-0.4-0.2
		c-0.1-0.1-0.2-0.3-0.2-0.5v-9.4c0-0.2,0.1-0.3,0.2-0.4c0.1-0.1,0.3-0.1,0.4-0.1c0.2,0,0.3,0,0.4,0.1c0.1,0.1,0.2,0.2,0.2,0.4v9.4
		C197.4,293.3,197.4,293.5,197.2,293.6z"/>
</g>
<g>
</g>
<g>
</g>
</svg>
