<?xml version="1.0" encoding="utf-8"?>
<!-- Generator: Adobe Illustrator 22.1.0, SVG Export Plug-In . SVG Version: 6.00 Build 0)  -->
<svg version="1.1" id="Layer_1" xmlns="http://www.w3.org/2000/svg" xmlns:xlink="http://www.w3.org/1999/xlink" x="0px" y="0px"
	 viewBox="0 0 600 320" style="enable-background:new 0 0 600 320;" xml:space="preserve">
<style type="text/css">
	.st0{fill:#4C84C5;}
	.st1{fill:#959595;}
	.st2{fill:#1DA78D;}
	.st3{fill:#FFFFFF;}
	.st4{font-family:'Roboto-Light';}
	.st5{font-size:26px;}
	.st6{font-size:21px;}
	.st7{font-size:18px;}
	.st8{font-size:14px;}
</style>
<rect class="st0" width="600" height="100"/>
<rect y="220" class="st1" width="600" height="100"/>
<rect y="110" class="st2" width="193.6" height="100"/>
<rect x="205" y="110" class="st2" width="190" height="100"/>
<rect x="410" y="110" class="st2" width="190" height="100"/>
<text transform="matrix(1 0 0 1 147.2559 43.3711)"><tspan x="0" y="0" class="st3 st4 st5">Gestión de la virtualización</tspan><tspan x="44.6" y="34" class="st3 st4 st6">VMware vCenter Server</tspan></text>
<text transform="matrix(1 0 0 1 0.875 155.8755)"><tspan x="0" y="0" class="st3 st4 st7">Virtualización de cálculo</tspan><tspan x="43.5" y="23.9" class="st3 st4 st8">VMware vSphere</tspan></text>
<text transform="matrix(1 0 0 1 232.5791 140.8755)"><tspan x="0" y="0" class="st3 st4 st7">Virtualización de </tspan><tspan x="1" y="23.9" class="st3 st4 st7">almacenamiento</tspan><tspan x="23.5" y="47.7" class="st3 st4 st8">VMware vSAN</tspan></text>
<text transform="matrix(1 0 0 1 424.3657 155.8755)"><tspan x="0" y="0" class="st3 st4 st7">Virtualización de red</tspan><tspan x="39.6" y="23.9" class="st3 st4 st8">VMware NSX</tspan></text>
<text transform="matrix(1 0 0 1 102.3081 263.5371)" class="st3 st4 st5">Infraestructura física en IBM Cloud</text>
<text transform="matrix(1 0 0 1 229.0184 300.3732)" class="st3 st4 st6">Almacenamiento</text>
<text transform="matrix(1 0 0 1 420.9958 300.3732)" class="st3 st4 st6">Red</text>
<text transform="matrix(1 0 0 1 135.5824 299.2558)" class="st3 st4 st6">Cálculo</text>
</svg>
