<?xml version="1.0" encoding="utf-8"?>
<!-- Generator: Adobe Illustrator 21.0.0, SVG Export Plug-In . SVG Version: 6.00 Build 0)  -->
<svg version="1.1" id="Layer_1" xmlns="http://www.w3.org/2000/svg" xmlns:xlink="http://www.w3.org/1999/xlink" x="0px" y="0px"
	 viewBox="0 0 600 320" style="enable-background:new 0 0 600 320;" xml:space="preserve">
<style type="text/css">
	.st0{fill:#4C84C5;}
	.st1{fill:#959595;}
	.st2{fill:#1DA78D;}
	.st3{fill:#FFFFFF;}
	.st4{font-family:'Roboto-Light';}
	.st5{font-size:26px;}
	.st6{font-size:21px;}
	.st7{font-size:18px;}
	.st8{font-size:14px;}
</style>
<rect class="st0" width="600" height="100"/>
<rect y="220" class="st1" width="600" height="100"/>
<rect y="110" class="st2" width="190" height="100"/>
<rect x="205" y="110" class="st2" width="190" height="100"/>
<rect x="410" y="110" class="st2" width="190" height="100"/>
<text transform="matrix(1 0 0 1 152.4775 43.3711)"><tspan x="0" y="0" class="st3 st4 st5">Gestión de la virtualización</tspan><tspan x="45.3" y="34" class="st3 st4 st6">VMware vCenter Server</tspan></text>
<text transform="matrix(1 0 0 1 8.5747 155.8755)"><tspan x="-6" y="0" class="st3 st4 st7">Virtualización de cálculo</tspan><tspan x="37.6" y="23.9" class="st3 st4 st8">VMware vSphere</tspan></text>
<text transform="matrix(1 0 0 1 219.127 155.8755)"><tspan x="-6" y="0" class="st3 st4 st7">Virt. de almacenamiento</tspan><tspan x="39.8" y="23.9" class="st3 st4 st8">VMware vSAN</tspan></text>
<text transform="matrix(1 0 0 1 420.666 155.8755)"><tspan x="0" y="0" class="st3 st4 st7">Virtualización de red</tspan><tspan x="46.4" y="23.9" class="st3 st4 st8">VMware NSX</tspan></text>
<text transform="matrix(1 0 0 1 104.6255 263.5371)" class="st3 st4 st5">Infraestructura física en IBM Cloud</text>
<text transform="matrix(1 0 0 1 273.2098 300.3732)" class="st3 st4 st6"><tspan x="-40">Almacenamiento</tspan></text>
<text transform="matrix(1 0 0 1 401.5988 300.3732)" class="st3 st4 st6">Red</text>
<text transform="matrix(1 0 0 1 128.7132 299.2558)" class="st3 st4 st6">Cálculo</text>
</svg>
