<?xml version="1.0" encoding="UTF-8" standalone="no"?>
<!-- Generator: Adobe Illustrator 22.0.1, SVG Export Plug-In . SVG Version: 6.00 Build 0)  -->

<svg
   xmlns:dc="http://purl.org/dc/elements/1.1/"
   xmlns:cc="http://creativecommons.org/ns#"
   xmlns:rdf="http://www.w3.org/1999/02/22-rdf-syntax-ns#"
   xmlns:svg="http://www.w3.org/2000/svg"
   xmlns="http://www.w3.org/2000/svg"
   xmlns:xlink="http://www.w3.org/1999/xlink"
   xmlns:sodipodi="http://sodipodi.sourceforge.net/DTD/sodipodi-0.dtd"
   xmlns:inkscape="http://www.inkscape.org/namespaces/inkscape"
   version="1.1"
   id="Layer_1"
   x="0px"
   y="0px"
   viewBox="0 0 850 608"
   style="enable-background:new 0 0 850 608;"
   xml:space="preserve"
   inkscape:version="0.91 r13725"
   sodipodi:docname="commonservice_ntp.svg"><metadata
   id="metadata107"><rdf:RDF><cc:Work
       rdf:about=""><dc:format>image/svg+xml</dc:format><dc:type
         rdf:resource="http://purl.org/dc/dcmitype/StillImage" /><dc:title></dc:title></cc:Work></rdf:RDF></metadata><defs
   id="defs105" /><sodipodi:namedview
   pagecolor="#ffffff"
   bordercolor="#666666"
   borderopacity="1"
   objecttolerance="10"
   gridtolerance="10"
   guidetolerance="10"
   inkscape:pageopacity="0"
   inkscape:pageshadow="2"
   inkscape:window-width="1920"
   inkscape:window-height="1020"
   id="namedview103"
   showgrid="false"
   inkscape:zoom="0.38815789"
   inkscape:cx="425"
   inkscape:cy="301.42373"
   inkscape:window-x="-4"
   inkscape:window-y="-4"
   inkscape:window-maximized="1"
   inkscape:current-layer="Layer_1" />
<style
   type="text/css"
   id="style3">
	.st0{fill:#F59C57;}
	.st1{fill-rule:evenodd;clip-rule:evenodd;fill:#F1F2F1;}
	.st2{fill-rule:evenodd;clip-rule:evenodd;fill:#1DA78D;}
	.st3{fill-rule:evenodd;clip-rule:evenodd;fill:#4C84C5;}
	.st4{fill-rule:evenodd;clip-rule:evenodd;fill:#8D44FF;}
	.st5{fill:#606060;stroke:#606060;stroke-width:2;stroke-miterlimit:10;}
	.st6{fill-rule:evenodd;clip-rule:evenodd;fill:#606060;}
	.st7{clip-path:url(#SVGID_2_);}
	.st8{clip-path:url(#SVGID_4_);}
	.st9{fill:#606060;stroke:#4D4D4D;stroke-width:2;stroke-miterlimit:8;}
	.st10{fill-rule:evenodd;clip-rule:evenodd;fill:none;}
	.st11{fill:#FFFFFF;}
	.st12{font-family:'IBMPlexSans-Bold';}
	.st13{font-size:24px;}
	.st14{font-family:'IBMPlexSans';}
	.st15{font-size:21px;}
	.st16{font-size:18px;}
</style>
<rect
   x="97.3"
   y="393.9"
   class="st0"
   width="186.9"
   height="163.1"
   id="rect5" />
<polygon
   class="st1"
   points="65.3,20 795.9,20 795.9,313.8 65.3,313.8 65.3,20 "
   id="polygon7" />
<polygon
   class="st2"
   points="99.4,185.4 745.5,185.4 745.5,281.1 99.4,281.1 99.4,185.4 "
   id="polygon9" />
<polygon
   class="st3"
   points="99.4,65.3 745.5,65.3 745.5,161.7 99.4,161.7 99.4,65.3 "
   id="polygon11" />
<polygon
   class="st4"
   points="552.6,393.9 748,393.9 748,549 552.6,549 552.6,393.9 "
   id="polygon13" />
<g
   id="g15">
	<line
   class="st5"
   x1="192.2"
   y1="292.3"
   x2="192.2"
   y2="381"
   id="line17" />
	<polygon
   class="st6"
   points="198.8,378.7 192.2,392.1 185.5,378.7 198.8,378.7  "
   id="polygon19" />
	<polygon
   class="st6"
   points="185.5,294.5 192.2,281.1 198.8,294.5 185.5,294.5  "
   id="polygon21" />
</g>
<g
   id="g23">
	<defs
   id="defs25">
		<polygon
   id="SVGID_1_"
   points="65.3,589 795.9,589 795.9,20 65.3,20 65.3,589   " />
	</defs>
	<clipPath
   id="SVGID_2_">
		<use
   xlink:href="#SVGID_1_"
   style="overflow:visible;"
   id="use29" />
	</clipPath>
	<g
   class="st7"
   id="g31"
   clip-path="url(#SVGID_2_)">
		<defs
   id="defs33">
			<polygon
   id="SVGID_3_"
   points="65.3,589 795.9,589 795.9,20 65.3,20 65.3,589    " />
		</defs>
		<clipPath
   id="SVGID_4_">
			<use
   xlink:href="#SVGID_3_"
   style="overflow:visible;"
   id="use37" />
		</clipPath>
		<g
   class="st8"
   id="g39"
   clip-path="url(#SVGID_4_)">
			<line
   class="st9"
   x1="539.7"
   y1="489.6"
   x2="296.3"
   y2="489.6"
   id="line41" />
			<polygon
   class="st6"
   points="298.6,482.9 285,489.6 298.6,496.3 298.6,482.9    "
   id="polygon43" />
			<polygon
   class="st6"
   points="537.4,496.3 551,489.6 537.4,482.9 537.4,496.3    "
   id="polygon45" />
		</g>
	</g>
</g>
<rect
   x="300"
   y="87"
   class="st10"
   width="329"
   height="45"
   id="rect47" />
<text
   transform="matrix(1 0 0 1 300 104.7598)"
   class="st11 st12 st13"
   id="text49">Gestion d'infrastructure</text>

<rect
   x="302"
   y="206"
   class="st10"
   width="283"
   height="45"
   id="rect51" />
<text
   transform="matrix(1 0 0 1 302 223.7598)"
   class="st11 st12 st13"
   id="text53">Infrastructure virtuelle</text>

<text
   transform="matrix(1 0 0 1 325 143)"
   class="st11 st14 st15"
   id="text55">VMware vCenter Server</text>

<text
   transform="matrix(1 0 0 1 346 260)"
   class="st11 st14 st15"
   id="text57">VMware vSphere</text>

<rect
   x="115"
   y="426"
   class="st10"
   width="168"
   height="45"
   id="rect59" />
<text
   class="st11 st12 st16"
   id="text61"
   x="107"
   y="439.31979"
   style="font-size:18px;font-family:IBMPlexSans-Bold;fill:#ffffff">Services communs</text>

<text
   transform="matrix(1 0 0 1 123 488)"
   class="st11 st14 st16"
   id="text63">Active Directory</text>

<text
   transform="matrix(1 0 0 1 166 523)"
   class="st11 st14 st16"
   id="text65">DNS</text>

<rect
   x="569"
   y="424"
   class="st10"
   width="168"
   height="45"
   id="rect67" />
<text
   transform="matrix(1 0 0 1 569 437.3198)"
   class="st11 st12 st16"
   id="text69">IBM Cloud Services</text>

<text
   transform="matrix(1 0 0 1 626 487)"
   class="st11 st14 st16"
   id="text71">DNS</text>

<text
   transform="matrix(1 0 0 1 627 522)"
   class="st11 st14 st16"
   id="text73">NTP</text>

<text
   transform="matrix(1 0 0 1 204 334)"
   id="text75"><tspan
     x="0"
     y="0"
     class="st14 st15"
     id="tspan77">Résolution de </tspan><tspan
     x="0"
     y="25.2"
     class="st14 st15"
     id="tspan79">nom de domaine </tspan><tspan
     x="0"
     y="50.4"
     class="st14 st15"
     id="tspan81">d'authentification</tspan></text>

<text
   transform="matrix(1 0 0 1 461 338)"
   id="text83"><tspan
     x="0"
     y="0"
     class="st14 st15"
     id="tspan85">Synchronisation </tspan><tspan
     x="0"
     y="25.2"
     class="st14 st15"
     id="tspan87">de l'horloge réseau</tspan></text>

<text
   transform="matrix(1 0 0 1 324.2495 454)"
   id="text89"><tspan
     x="0"
     y="0"
     class="st14 st15"
     id="tspan91">Résolution de nom </tspan><tspan
     x="35.3"
     y="25.2"
     class="st14 st15"
     id="tspan93">de domaine</tspan></text>

<g
   id="g95">
	<line
   class="st5"
   x1="645.2"
   y1="293.3"
   x2="645.2"
   y2="382"
   id="line97" />
	<polygon
   class="st6"
   points="651.8,379.7 645.2,393.1 638.5,379.7 651.8,379.7  "
   id="polygon99" />
	<polygon
   class="st6"
   points="638.5,295.5 645.2,282.1 651.8,295.5 638.5,295.5  "
   id="polygon101" />
</g>
</svg>
