<?xml version="1.0" encoding="utf-8"?>
<!-- Generator: Adobe Illustrator 21.0.0, SVG Export Plug-In . SVG Version: 6.00 Build 0)  -->
<svg version="1.1" id="Layer_1" xmlns="http://www.w3.org/2000/svg" xmlns:xlink="http://www.w3.org/1999/xlink" x="0px" y="0px"
	 viewBox="0 0 600 320" style="enable-background:new 0 0 600 320;" xml:space="preserve">
<style type="text/css">
	.st0{fill:#4C84C5;}
	.st1{fill:#959595;}
	.st2{fill:#1DA78D;}
	.st3{fill:#FFFFFF;}
	.st4{font-family:'Roboto-Light';}
	.st5{font-size:26px;}
	.st6{font-size:21px;}
	.st7{font-size:18px;}
	.st8{font-size:14px;}
	.st9{font-size:12px;}
	.st10{font-size:20px;}
</style>
<rect class="st0" width="600" height="100"/>
<rect y="220" class="st1" width="600" height="100"/>
<rect y="110" class="st2" width="190" height="100"/>
<rect x="205" y="110" class="st2" width="190" height="100"/>
<rect x="410" y="110" class="st2" width="190" height="100"/>
<text transform="matrix(1 0 0 1 152.4775 43.3711)"><tspan x="0" y="0" class="st3 st4 st5">Virtualization Management</tspan><tspan x="39.3" y="34" class="st3 st4 st6">VMware vCenter Server </tspan><tspan x="248.2" y="31" class="st3 st4 st7">®</tspan></text>
<text transform="matrix(1 0 0 1 8.5747 155.8755)"><tspan x="0" y="0" class="st3 st4 st7">Compute Virtualization</tspan><tspan x="33.6" y="23.9" class="st3 st4 st8">VMware vSphere </tspan><tspan x="135.2" y="20.9" class="st3 st4 st9">®</tspan></text>
<text transform="matrix(1 0 0 1 219.127 155.8755)"><tspan x="0" y="0" class="st3 st4 st7">Storage Virtualization</tspan><tspan x="18.3" y="23.9" class="st3 st4 st8">VMware Virtual SAN™</tspan></text>
<text transform="matrix(1 0 0 1 420.666 155.8755)"><tspan x="0" y="0" class="st3 st4 st7">Network Virtualization</tspan><tspan x="41" y="23.9" class="st3 st4 st8">VMware NSX  </tspan><tspan x="121.7" y="20.9" class="st3 st4 st9">®</tspan></text>
<text transform="matrix(1 0 0 1 97.6797 263.5371)"><tspan x="0" y="0" class="st3 st4 st5">Physical Infrastructure on IBM </tspan><tspan x="326.3" y="-6" class="st3 st4 st10">®</tspan><tspan x="334.6" y="0" class="st3 st4 st5"> Cloud</tspan></text>
<text transform="matrix(1 0 0 1 273.2098 300.3732)" class="st3 st4 st6">Storage</text>
<text transform="matrix(1 0 0 1 401.5988 300.3732)" class="st3 st4 st6">Network</text>
<text transform="matrix(1 0 0 1 128.7132 299.2558)" class="st3 st4 st6">Compute</text>
</svg>
