<?xml version="1.0" encoding="UTF-8"?>
<svg width="816px" height="216px" version="1.1" viewBox="-.5 -.5 816 216" xmlns="http://www.w3.org/2000/svg" xmlns:cc="http://creativecommons.org/ns#" xmlns:dc="http://purl.org/dc/elements/1.1/" xmlns:rdf="http://www.w3.org/1999/02/22-rdf-syntax-ns#">
 <metadata>
  <rdf:RDF>
   <cc:Work rdf:about="">
    <dc:format>image/svg+xml</dc:format>
    <dc:type rdf:resource="http://purl.org/dc/dcmitype/StillImage"/>
    <dc:title/>
   </cc:Work>
  </rdf:RDF>
 </metadata>
 <g fill="#f5f5f5" pointer-events="none" stroke="#e6e6e6">
  <rect x="185" y="165.5" width="630" height="50"/>
  <rect x="185" y="110.5" width="630" height="50"/>
  <rect x="185" y="55.5" width="630" height="50"/>
  <rect x="185" y=".5" width="630" height="50"/>
 </g>
 <rect x="25" y=".5" width="160" height="50" fill="#007fff" pointer-events="none"/>
 <g fill="#fff" font-family="Helvetica" font-size="10px" text-anchor="middle">
  <text x="104.5" y="22">RiskForesight</text>
  <text x="104.5" y="34">Dashboard</text>
 </g>
 <rect x="25" y="55.5" width="160" height="50" fill="#007fff" pointer-events="none"/>
 <g fill="#fff" font-family="Helvetica" font-size="10px" text-anchor="middle">
  <text x="104.5" y="77">Orchestrazione delle politiche</text>
  <text x="104.5" y="89">e applicazione</text>
 </g>
 <rect x="25" y="110.5" width="160" height="50" fill="#007fff" pointer-events="none"/>
 <g fill="#fff" font-family="Helvetica" font-size="10px" text-anchor="middle">
  <text x="104.5" y="132">CaveoIQ</text>
  <text x="104.5" y="144">Motore di analisi</text>
 </g>
 <rect x="25" y="165.5" width="160" height="50" fill="#007fff" pointer-events="none"/>
 <g fill="#fff" font-family="Helvetica" font-size="10px" text-anchor="middle">
  <text x="104.5" y="187">Carico di lavoro, rete</text>
  <text x="104.5" y="199">e sicurezza</text>
 </g>
 <rect x="223" y="5.5" width="80" height="40" fill="#007fff" pointer-events="none"/>
 <g fill="#fff" font-family="Helvetica" font-size="10px" text-anchor="middle">
  <text x="262.5" y="22">Provider di servizi</text>
  <text x="262.5" y="34">Portale</text>
 </g>
 <rect x="343" y="5.5" width="80" height="40" fill="#007fff" pointer-events="none"/>
 <g fill="#fff" font-family="Helvetica" font-size="10px" text-anchor="middle">
  <text x="382.5" y="22">Tentant</text>
  <text x="382.5" y="34">Portale</text>
 </g>
 <rect x="463" y="5.5" width="80" height="40" fill="#007fff" pointer-events="none"/>
 <g fill="#fff" font-family="Helvetica" font-size="10px" text-anchor="middle">
  <text x="502.5" y="28">Rischio informatico</text>
 </g>
 <rect x="583" y="5.5" width="80" height="40" fill="#007fff" pointer-events="none"/>
 <g fill="#fff" font-family="Helvetica" font-size="10px" text-anchor="middle">
  <text x="622.5" y="22">Conformità</text>
  <text x="622.5" y="34">Rischio</text>
 </g>
 <rect x="703" y="5.5" width="80" height="40" fill="#007fff" pointer-events="none"/>
 <g fill="#fff" font-family="Helvetica" font-size="10px" text-anchor="middle">
  <text x="742.5" y="22">Indagine</text>
  <text x="742.5" y="34">Analisi</text>
 </g>
 <rect x="263" y="60.5" width="80" height="40" fill="#007fff" pointer-events="none"/>
 <g fill="#fff" font-family="Helvetica" font-size="10px" text-anchor="middle">
  <text x="302.5" y="83">RMCP</text>
 </g>
 <rect x="393" y="60.5" width="80" height="40" fill="#007fff" pointer-events="none"/>
 <g fill="#fff" font-family="Helvetica" font-size="10px" text-anchor="middle">
  <text x="432.5" y="77">Politica</text>
  <text x="432.5" y="89">Implementazione</text>
 </g>
 <rect x="523" y="60.5" width="80" height="40" fill="#007fff" pointer-events="none"/>
 <g fill="#fff" font-family="Helvetica" font-size="10px" text-anchor="middle">
  <text x="562.5" y="77">Politica</text>
  <text x="562.5" y="89">Analisi</text>
 </g>
 <rect x="653" y="60.5" width="80" height="40" fill="#007fff" pointer-events="none"/>
 <g fill="#fff" font-family="Helvetica" font-size="10px" text-anchor="middle">
  <text x="692.5" y="77">Politica</text>
  <text x="692.5" y="89">Modellazione</text>
 </g>
 <rect x="323" y="116.5" width="80" height="40" fill="#007fff" pointer-events="none"/>
 <g fill="#fff" font-family="Helvetica" font-size="10px" text-anchor="middle">
  <text x="362.5" y="133">Machine</text>
  <text x="362.5" y="145">Learning</text>
 </g>
 <rect x="463" y="116.5" width="80" height="40" fill="#007fff" pointer-events="none"/>
 <g fill="#fff" font-family="Helvetica" font-size="10px" text-anchor="middle">
  <text x="502.5" y="133">Multidimensionale</text>
  <text x="502.5" y="145">Analisi</text>
 </g>
 <rect x="603" y="116.5" width="80" height="40" fill="#007fff" pointer-events="none"/>
 <g fill="#fff" font-family="Helvetica" font-size="10px" text-anchor="middle">
  <text x="642.5" y="139">Analisi dei rischi</text>
 </g>
 <rect x="263" y="170.5" width="80" height="40" fill="#007fff" pointer-events="none"/>
 <g fill="#fff" font-family="Helvetica" font-size="10px" text-anchor="middle">
  <text x="302.5" y="187">Remoto</text>
  <text x="302.5" y="199">Raccoglitore</text>
 </g>
 <rect x="393" y="170.5" width="80" height="40" fill="#007fff" pointer-events="none"/>
 <g fill="#fff" font-family="Helvetica" font-size="10px" text-anchor="middle">
  <text x="432.5" y="187">VMware</text>
  <text x="432.5" y="199">Integrazione</text>
 </g>
 <rect x="523" y="170.5" width="80" height="40" fill="#007fff" pointer-events="none"/>
 <g fill="#fff" font-family="Helvetica" font-size="10px" text-anchor="middle">
  <text x="562.5" y="187">Contenitore</text>
  <text x="562.5" y="199">Integrazione</text>
 </g>
 <rect x="653" y="170.5" width="80" height="40" fill="#007fff" pointer-events="none"/>
 <g fill="#fff" font-family="Helvetica" font-size="10px" text-anchor="middle">
  <text x="692.5" y="187">Cloud pubblico</text>
  <text x="692.5" y="199">Integrazione</text>
 </g>
 <ellipse cx="26" cy="191" rx="25" ry="25" fill="#fff" pointer-events="none" stroke="#007fff"/>
 <g fill="#06c" font-family="Helvetica" font-size="12px" font-weight="bold" text-anchor="middle">
  <text x="25.5" y="194">Detect</text>
 </g>
 <ellipse cx="25" cy="136" rx="25" ry="25" fill="#fff" pointer-events="none" stroke="#007fff"/>
 <g fill="#06c" font-family="Helvetica" font-size="12px" font-weight="bold" text-anchor="middle">
  <text x="24.5" y="139">Predict</text>
 </g>
 <ellipse cx="26" cy="81" rx="25" ry="25" fill="#fff" pointer-events="none" stroke="#007fff"/>
 <g fill="#06c" font-family="Helvetica" font-size="12px" font-weight="bold" text-anchor="middle">
  <text x="25.5" y="84">Act</text>
 </g>
</svg>
