<?xml version="1.0" encoding="UTF-8" standalone="no"?>
<!-- Generator: Adobe Illustrator 21.0.0, SVG Export Plug-In . SVG Version: 6.00 Build 0)  -->

<svg
   xmlns:dc="http://purl.org/dc/elements/1.1/"
   xmlns:cc="http://creativecommons.org/ns#"
   xmlns:rdf="http://www.w3.org/1999/02/22-rdf-syntax-ns#"
   xmlns:svg="http://www.w3.org/2000/svg"
   xmlns="http://www.w3.org/2000/svg"
   xmlns:sodipodi="http://sodipodi.sourceforge.net/DTD/sodipodi-0.dtd"
   xmlns:inkscape="http://www.inkscape.org/namespaces/inkscape"
   version="1.1"
   id="Layer_1"
   x="0px"
   y="0px"
   viewBox="0 0 602 322"
   style="enable-background:new 0 0 602 322;"
   xml:space="preserve"
   sodipodi:docname="vcscar-skate-language.svg"
   inkscape:version="0.92.2 (5c3e80d, 2017-08-06)"><metadata
     id="metadata95"><rdf:RDF><cc:Work
         rdf:about=""><dc:format>image/svg+xml</dc:format><dc:type
           rdf:resource="http://purl.org/dc/dcmitype/StillImage" /></cc:Work></rdf:RDF></metadata><defs
     id="defs93" /><sodipodi:namedview
     pagecolor="#ffffff"
     bordercolor="#666666"
     borderopacity="1"
     objecttolerance="10"
     gridtolerance="10"
     guidetolerance="10"
     inkscape:pageopacity="0"
     inkscape:pageshadow="2"
     inkscape:window-width="1920"
     inkscape:window-height="1027"
     id="namedview91"
     showgrid="false"
     inkscape:zoom="1.7055134"
     inkscape:cx="267.19778"
     inkscape:cy="173.74131"
     inkscape:window-x="-8"
     inkscape:window-y="-8"
     inkscape:window-maximized="1"
     inkscape:current-layer="Layer_1" /><style
     type="text/css"
     id="style2">
	.st0{fill:none;stroke:#7EA6E0;stroke-width:2;}
	.st1{font-family:'ArialMT';}
	.st2{font-size:10px;}
	.st3{fill:none;stroke:#000000;stroke-miterlimit:10;}
	.st4{stroke:#000000;stroke-miterlimit:10;}
	.st5{stroke:#000000;stroke-width:2;}
	.st6{fill:none;stroke:#000000;stroke-width:2;}
</style><g
     transform="translate(.5 .5)"
     id="g88"><path
       pointer-events="none"
       class="st0"
       d="M8.5,81h75c4.1,0,7.5,3.4,7.5,7.5v35c0,4.1-3.4,7.5-7.5,7.5h-75c-4.1,0-7.5-3.4-7.5-7.5   v-35C1,84.4,4.4,81,8.5,81z"
       id="path4" /><g
       id="g8"><text
         transform="matrix(1 0 0 1 16.8696 108.5)"
         class="st1 st2"
         id="text6">base_combo</text>
</g><path
       pointer-events="none"
       class="st0"
       d="M188.5,81h75c4.1,0,7.5,3.4,7.5,7.5v35c0,4.1-3.4,7.5-7.5,7.5h-75   c-4.1,0-7.5-3.4-7.5-7.5v-35C181,84.4,184.4,81,188.5,81z"
       id="path10" /><g
       id="g14"><text
         transform="matrix(1 0 0 1 198.2612 108.5)"
         class="st1 st2"
         id="text12">next_combo</text>
</g><g
       pointer-events="none"
       id="g42"><g
         id="g38"><g
           id="g24"><path
             class="st3"
             d="M131,116v192.7h381.9"
             id="path16" /><path
             class="st4"
             d="M519.9,308.7l-7,3.5v-7L519.9,308.7z"
             id="path18" /><path
             class="st3"
             d="M131,116v60c0,6.7,3.3,10,10,10h127.2"
             id="path20" /><path
             class="st4"
             d="M275.2,186l-7,3.5v-7L275.2,186z"
             id="path22" /></g><circle
           class="st5"
           cx="131"
           cy="106"
           r="0"
           id="circle26" /><g
           id="g36"><path
             class="st3"
             d="M321,211.3v72h191.9"
             id="path28" /><path
             class="st4"
             d="M519.9,283.3l-7,3.5v-7L519.9,283.3z"
             id="path30" /><path
             class="st3"
             d="M331,106h230v157.2"
             id="path32" /><path
             class="st4"
             d="M561,270.2l-3.5-7h7L561,270.2z"
             id="path34" /></g></g><path
         class="st0"
         d="M283.5,161h75c4.1,0,7.5,3.4,7.5,7.5v35c0,4.1-3.4,7.5-7.5,7.5h-75c-4.1,0-7.5-3.4-7.5-7.5v-35    C276,164.4,279.4,161,283.5,161z"
         id="path40" /></g><g
       id="g46"><text
         transform="matrix(1 0 0 1 286.5864 188.5)"
         class="st1 st2"
         id="text44">landing_combo</text>
</g><rect
       x="521"
       y="271"
       pointer-events="none"
       class="st6"
       width="80"
       height="50"
       id="rect48" /><g
       transform="translate(533.5,284.5)"
       id="g54"><text
         transform="translate(-1.4276,23.4827)"
         class="st1 st2"
         id="text50"
         style="font-size:10px;font-family:ArialMT">COMPLETATO</text>
<text
         transform="matrix(1 0 0 1 11.8305 12.1017)"
         class="st1 st2"
         id="text52">TRICK</text>
</g><g
       pointer-events="none"
       id="g80"><path
         class="st3"
         d="M91,106h30"
         id="path56" /><path
         class="st3"
         d="M140.9,105.9L181,106"
         id="path58" /><circle
         class="st5"
         cx="321"
         cy="106"
         r="0"
         id="circle60" /><g
         id="g76"><path
           class="st3"
           d="M270.9,105.4h40"
           id="path62" /><path
           class="st3"
           d="M321,96V71c0-6.7-3.3-10-10-10h-79c-6.7,0-10,1.8-10.1,5.4l-0.1,5.4"
           id="path64" /><path
           class="st4"
           d="M221.7,78.9l-3.4-7.1l7,0.1L221.7,78.9z"
           id="path66" /><path
           class="st3"
           d="M321,153.2V116"
           id="path68" /><path
           class="st4"
           d="M321,160.2l-3.5-7h7L321,160.2z"
           id="path70" /><path
           class="st3"
           d="M46.3,51.3v21.9"
           id="path72" /><path
           class="st4"
           d="M46.3,80.2l-3.5-7h7L46.3,80.2z"
           id="path74" /></g><rect
         x="11"
         y="1"
         class="st6"
         width="70"
         height="50"
         id="rect78" /></g><g
       id="g86"><text
         transform="translate(30.5,19.5)"
         class="st1 st2"
         id="text82"
         style="font-size:10px;font-family:ArialMT">AVVIO</text>
<text
         transform="translate(29.5723,31.5)"
         class="st1 st2"
         id="text84"
         style="font-size:10px;font-family:ArialMT">TRICK</text>
</g></g></svg>
