<?xml version="1.0" encoding="UTF-8" standalone="no"?>
<!-- Generator: Adobe Illustrator 21.0.0, SVG Export Plug-In . SVG Version: 6.00 Build 0)  -->

<svg
   xmlns:dc="http://purl.org/dc/elements/1.1/"
   xmlns:cc="http://creativecommons.org/ns#"
   xmlns:rdf="http://www.w3.org/1999/02/22-rdf-syntax-ns#"
   xmlns:svg="http://www.w3.org/2000/svg"
   xmlns="http://www.w3.org/2000/svg"
   xmlns:sodipodi="http://sodipodi.sourceforge.net/DTD/sodipodi-0.dtd"
   xmlns:inkscape="http://www.inkscape.org/namespaces/inkscape"
   version="1.1"
   x="0px"
   y="0px"
   viewBox="0 0 500 254"
   style="enable-background:new 0 0 500 254;"
   xml:space="preserve"
   id="svg154"
   sodipodi:docname="vcscar-skate-language.svg"
   inkscape:version="0.92.2 (5c3e80d, 2017-08-06)"><metadata
     id="metadata160"><rdf:RDF><cc:Work
         rdf:about=""><dc:format>image/svg+xml</dc:format><dc:type
           rdf:resource="http://purl.org/dc/dcmitype/StillImage" /></cc:Work></rdf:RDF></metadata><defs
     id="defs158" /><sodipodi:namedview
     pagecolor="#ffffff"
     bordercolor="#666666"
     borderopacity="1"
     objecttolerance="10"
     gridtolerance="10"
     guidetolerance="10"
     inkscape:pageopacity="0"
     inkscape:pageshadow="2"
     inkscape:window-width="1920"
     inkscape:window-height="1027"
     id="namedview156"
     showgrid="false"
     inkscape:zoom="1.452"
     inkscape:cx="286.17814"
     inkscape:cy="193.09127"
     inkscape:window-x="-8"
     inkscape:window-y="-8"
     inkscape:window-maximized="1"
     inkscape:current-layer="svg154" /><style
     type="text/css"
     id="style2">
	.st0{fill:none;stroke:#000000;stroke-width:0.75;stroke-miterlimit:10;}
	.st1{fill:#FFFFFF;}
	.st2{font-family:'IBMPlexSans';}
	.st3{font-size:12px;}
	.st4{fill:#FFFFFF;stroke:#29ABE2;stroke-miterlimit:10;}
	.st5{font-size:14px;}
</style><g
     id="line_from_base_to_trick_complete"><g
       id="g16"><line
         class="st0"
         x1="108.5"
         y1="91.5"
         x2="453.5"
         y2="91.5"
         id="line4" /><g
         id="g14"><g
           id="g12"><line
             class="st0"
             x1="453.5"
             y1="91.5"
             x2="453.5"
             y2="202.1"
             id="line6" /><g
             id="g10"><polygon
               points="449.8,201 453.5,207.5 457.2,201      "
               id="polygon8" /></g></g></g></g></g><g
     id="trick_complete"><g
       id="g29"><g
         id="g23"><rect
           x="417.5"
           y="207.5"
           class="st1"
           width="74"
           height="42"
           id="rect19" /><path
           d="M491,208v41h-73v-41H491 M492,207h-75v43h75V207L492,207z"
           id="path21" /></g><text
         transform="matrix(1 0 0 1 423.5 240)"
         class="st2 st3"
         id="text25">COMPLETO</text>
<text
         transform="matrix(1 0 0 1 436 225)"
         class="st2 st3"
         id="text27">TRICK</text>
</g></g><g
     id="left_black_dot"><circle
       cx="139.5"
       cy="92.5"
       r="8.5"
       id="circle32" /></g><g
     id="right_black_dot"><circle
       cx="300.5"
       cy="92.5"
       r="8.5"
       id="circle35" /></g><g
     id="line_from_trick_start_to_base"><g
       id="g46"><g
         id="g44"><line
           class="st0"
           x1="55"
           y1="46"
           x2="55"
           y2="69.6"
           id="line38" /><g
           id="g42"><polygon
             points="51.3,68.5 55,75 58.7,68.5     "
             id="polygon40" /></g></g></g></g><g
     id="line_from_left_black_dot_to_trick_complete"><g
       id="g61"><g
         id="g57"><g
           id="g55"><line
             class="st0"
             x1="410.6"
             y1="236.5"
             x2="139.5"
             y2="236.5"
             id="line49" /><g
             id="g53"><polygon
               points="409.5,232.8 416,236.5 409.5,240.2      "
               id="polygon51" /></g></g></g><line
         class="st0"
         x1="139.5"
         y1="98.5"
         x2="139.5"
         y2="236.5"
         id="line59" /></g></g><g
     id="left_line_to_landing"><g
       id="g72"><g
         id="g70"><line
           class="st0"
           x1="152.5"
           y1="156.5"
           x2="238.1"
           y2="156.5"
           id="line64" /><g
           id="g68"><polygon
             points="237,160.2 243.5,156.5 237,152.8     "
             id="polygon66" /></g></g></g><path
       class="st0"
       d="M291,156.5H149c-5.2,0-9.5-4.3-9.5-9.5v-46c0-5.2,4.3-9.5,9.5-9.5h142c5.2,0,9.5,4.3,9.5,9.5v46   C300.5,152.2,296.2,156.5,291,156.5z"
       id="path74" /></g><g
     id="top_line_to_landing"><g
       id="g85"><g
         id="g83"><line
           class="st0"
           x1="300.5"
           y1="96.5"
           x2="300.5"
           y2="133.1"
           id="line77" /><g
           id="g81"><polygon
             points="296.8,132 300.5,138.5 304.2,132     "
             id="polygon79" /></g></g></g></g><g
     id="line_from_landing_to_complete"><g
       id="g100"><g
         id="g96"><g
           id="g94"><line
             class="st0"
             x1="411.1"
             y1="221.5"
             x2="300.5"
             y2="221.5"
             id="line88" /><g
             id="g92"><polygon
               points="410,217.8 416.5,221.5 410,225.2      "
               id="polygon90" /></g></g></g><line
         class="st0"
         x1="300.5"
         y1="171.5"
         x2="300.5"
         y2="221.5"
         id="line98" /></g></g><g
     id="Layer_16"><g
       id="g111"><g
         id="g109"><line
           class="st0"
           x1="218.5"
           y1="65.5"
           x2="218.5"
           y2="69.1"
           id="line103" /><g
           id="g107"><polygon
             points="214.8,68 218.5,74.5 222.2,68     "
             id="polygon105" /></g></g></g><path
       class="st0"
       d="M294.8,91.5h-70.5c-3.2,0-5.8-2.6-5.8-5.8V62.3c0-3.2,2.6-5.8,5.8-5.8h70.5c3.2,0,5.8,2.6,5.8,5.8v23.5   C300.5,88.9,297.9,91.5,294.8,91.5z"
       id="path113" /></g><g
     id="Layer_14" /><g
     id="base_combo"><g
       id="g121"><path
         class="st4"
         d="M97,107.5H23c-6.6,0-12-5.4-12-12V87c0-6.6,5.4-12,12-12h74c6.6,0,12,5.4,12,12v8.5    C109,102.1,103.6,107.5,97,107.5z"
         id="path117" /><text
         class="st2 st5"
         id="text119"
         x="16.3335"
         y="96"
         style="font-size:14px;font-family:IBMPlexSans">base_combo</text>
</g></g><g
     id="next_combo"><g
       id="g128"><path
         class="st4"
         d="M255,107.5h-74c-6.6,0-12-5.4-12-12V87c0-6.6,5.4-12,12-12h74c6.6,0,12,5.4,12,12v8.5    C267,102.1,261.6,107.5,255,107.5z"
         id="path124" /><text
         class="st2 st5"
         id="text126"
         x="175.6665"
         y="96"
         style="font-size:14px;font-family:IBMPlexSans">next_combo</text>
</g></g><g
     id="landing_combo"><g
       id="g135"><path
         class="st4"
         d="M344.5,171.5H257c-6.6,0-12-5.4-12-12V151c0-6.6,5.4-12,12-12h87.5c6.6,0,12,5.4,12,12v8.5    C356.5,166.1,351.1,171.5,344.5,171.5z"
         id="path131" /><text
         class="st2 st5"
         id="text133"
         x="246.66701"
         y="159.66701"
         style="font-size:14px;font-family:IBMPlexSans">landing_combo</text>
</g></g><g
     id="trick_start"><g
       id="g150"><g
         id="g142"><rect
           x="22.5"
           y="4.5"
           class="st1"
           width="74"
           height="41"
           id="rect138" /><path
           d="M96,5v40H23V5H96 M97,4H22v42h75V4L97,4z"
           id="path140" /></g><text
         id="text148"
         x="24.457945"
         y="20.970634"
         transform="scale(0.96788288,1.0331829)"
         style="font-size:11.61459446px;stroke-width:0.96788287">AVVIO TRICK</text>
</g></g><g
     id="Layer_3" /></svg>
