<?xml version="1.0" encoding="utf-8"?>
<!-- Generator: Adobe Illustrator 19.0.0, SVG Export Plug-In . SVG Version: 6.00 Build 0)  -->
<svg version="1.1" xmlns="http://www.w3.org/2000/svg" xmlns:xlink="http://www.w3.org/1999/xlink" x="0px" y="0px"
	 viewBox="0 0 442 354" style="enable-background:new 0 0 442 354;" xml:space="preserve">
<style type="text/css">
	.st0{fill:none;stroke:#000000;stroke-miterlimit:10;}
	.st1{fill:#8CC63F;}
	.st2{font-family:'ArialMT';}
	.st3{font-size:12px;}
	.st4{fill:#29ABE2;}
	.st5{fill:#0071BC;}
	.st6{font-size:9px;}
	.st7{fill:none;stroke:#B3B3B3;stroke-width:0.5;stroke-miterlimit:10;}
	.st8{font-family:'MS-Gothic';}
	.st9{font-size:11px;}
	.st10{fill:#169ADB;stroke:#9BCCDD;stroke-width:0.5;stroke-miterlimit:10;}
	.st11{fill:url(#SVGID_1_);}
	.st12{fill:#FFFFFF;}
	.st13{font-size:6.6008px;}
	.st14{fill:url(#SVGID_2_);}
	.st15{font-size:8.2909px;}
	.st16{fill:#B3B3B3;}
	.st17{font-size:12.925px;}
</style>
<g id="Layer_1">
	<rect x="24.5" y="100.5" class="st0" width="399" height="215"/>
	
		<image style="overflow:visible;" width="964" height="713" id="Layer_0_xA0_Image" xlink:href="E53A4952.png"  transform="matrix(0.4208 0 0 0.4208 39 -60)">
	</image>
	<path id="vSAN_rectangle" class="st1" d="M409.5,262h-371c-5.2,0-9.5-4.3-9.5-9.5l0,0c0-5.2,4.3-9.5,9.5-9.5h371
		c5.2,0,9.5,4.3,9.5,9.5l0,0C419,257.7,414.7,262,409.5,262z"/>
	<text transform="matrix(1 0 0 1 206 258)" class="st2 st3">vSAN</text>
	<path id="vSphere_rectangle" class="st4" d="M409.5,288h-371c-5.2,0-9.5-4.3-9.5-9.5l0,0c0-5.2,4.3-9.5,9.5-9.5h371
		c5.2,0,9.5,4.3,9.5,9.5l0,0C419,283.7,414.7,288,409.5,288z"/>
	<text transform="matrix(1 0 0 1 189.5 282)" class="st2 st3">vSphere ESXi</text>
	<g>
		<path class="st5" d="M139.5,194.6c0.8-1,1.3-2.3,1.5-3.9l0.6,0.2c0.2,0.1,0.2,0.2,0,0.2c-0.2,0.8-0.4,1.5-0.6,2l0.1,0
			c0.1,0.1,0,0.2-0.1,0.2v5.3h-0.6v-4.5c-0.1,0.3-0.3,0.6-0.6,0.9L139.5,194.6z M146.1,197.9l-0.3,0.7c-0.7-0.4-1.3-0.8-1.7-1.3
			c-0.5,0.5-1,1-1.7,1.4l-0.3-0.6c0.6-0.4,1.2-0.8,1.6-1.4c-0.4-0.8-0.7-1.7-0.8-2.7h-0.5v1.3c0,1.5-0.3,2.6-1,3.4l-0.4-0.6
			c0.6-0.5,0.8-1.5,0.8-2.7v-4.1h4v0.7h-3.4v1.5h2.6l0.1-0.2l0.4,0.4c0.1,0.1,0,0.2-0.1,0.2c-0.3,1.3-0.6,2.3-1.1,3
			C144.9,197.2,145.4,197.6,146.1,197.9z M143.5,194c0.1,0.8,0.3,1.5,0.6,2.2c0.3-0.6,0.6-1.4,0.7-2.2H143.5z"/>
		<path class="st5" d="M149,195.6h-0.6v-2.1c-0.3,0.6-0.7,1.1-1.1,1.5l-0.4-0.6c0.7-0.7,1.2-1.4,1.5-2h-1.2v-0.7h1.3v-1.1h0.5
			c0.2,0,0.2,0.1,0,0.2v0.8h1.1v0.7H149v0.5c0.5,0.3,0.9,0.6,1.2,0.9l-0.4,0.6c-0.2-0.3-0.5-0.6-0.8-0.8V195.6z M148.2,196.5
			c0.1,0.1,0.1,0.1,0,0.2c-0.1,0.6-0.3,1.2-0.6,1.8l-0.5-0.4c0.3-0.6,0.5-1.2,0.6-1.8L148.2,196.5z M149.1,196.3v1.4
			c0,0.2,0.1,0.2,0.2,0.2h1.8c0.2,0,0.3-0.2,0.3-0.7l0.6,0.2c-0.1,0.8-0.3,1.1-0.7,1.1h-2.3c-0.3,0-0.5-0.2-0.5-0.6v-1.9h0.5
			C149.3,196.1,149.3,196.2,149.1,196.3z M149.8,195.5c0.4,0.4,0.7,0.8,1,1.3l-0.5,0.5c-0.2-0.5-0.5-0.9-0.9-1.3L149.8,195.5z
			 M152.4,195.5h-1.7v0.2h-0.5v-4.5h2.6v4.5h-0.5V195.5z M150.8,192.4h1.7v-0.7h-1.7V192.4z M150.8,193.6h1.7v-0.7h-1.7V193.6z
			 M150.8,194.9h1.7v-0.7h-1.7V194.9z M152.8,198.2c-0.2-0.6-0.6-1.1-1-1.6l0.5-0.5c0.4,0.4,0.7,1,1,1.6L152.8,198.2z"/>
		<path class="st5" d="M121.9,205.2c0,1.8-0.6,3.2-1.9,4.1l-0.5-0.7c1.1-0.8,1.7-1.8,1.7-3.2V204h0.6c0.2,0,0.2,0.1,0.1,0.2V205.2
			c0.7-0.7,1.2-1.3,1.6-1.9l-4.6,0.2l-0.1-0.8l5.2-0.2l0.2-0.1l0.4,0.6c0.1,0.1,0,0.1-0.1,0.1c-0.6,0.9-1.3,1.8-2.1,2.6L121.9,205.2
			z"/>
		<path class="st5" d="M126.5,203.6v-0.8h4.2l0.7,0.7c-0.1,2.8-1.4,4.7-3.9,5.6l-0.5-0.8c2.4-0.7,3.6-2.2,3.7-4.7H126.5z M131,202.8
			c-0.2-0.2-0.2-0.4-0.2-0.7s0.1-0.5,0.2-0.7c0.2-0.2,0.3-0.3,0.6-0.3c0.2,0,0.4,0.1,0.6,0.3c0.2,0.2,0.2,0.4,0.2,0.7
			s-0.1,0.5-0.2,0.7c-0.2,0.2-0.3,0.3-0.6,0.3C131.4,203.1,131.2,203,131,202.8z M132,202.6c0.1-0.1,0.1-0.3,0.1-0.5
			c0-0.2,0-0.3-0.1-0.5c-0.1-0.1-0.2-0.2-0.4-0.2c-0.2,0-0.3,0.1-0.4,0.2c-0.1,0.1-0.1,0.3-0.1,0.5c0,0.2,0,0.3,0.1,0.5
			c0.1,0.1,0.2,0.2,0.4,0.2C131.8,202.8,131.9,202.7,132,202.6z"/>
		<path class="st5" d="M134.8,208.8c1.8-0.6,2.9-1.8,3.1-3.7h-4.3v-0.8h4.4l0.3-0.1l0.5,0.4c0.1,0.1,0.1,0.2-0.1,0.3
			c-0.3,2.3-1.4,3.9-3.3,4.6L134.8,208.8z M138,203.1h-3.9v-0.8h3.9V203.1z"/>
		<path class="st5" d="M140.6,206.2c2-1,3.5-2.5,4.5-4.4l0.5,0.6c0.2,0.1,0.1,0.2-0.2,0.3c-0.4,0.6-0.8,1.2-1.4,1.8v4.8h-0.7v-4.1
			c-0.7,0.6-1.4,1.2-2.3,1.7L140.6,206.2z"/>
		<path class="st5" d="M151,205.2c0,1.8-0.6,3.2-1.9,4.1l-0.5-0.7c1.1-0.8,1.7-1.8,1.7-3.2V204h0.6c0.2,0,0.2,0.1,0.1,0.2V205.2
			c0.7-0.7,1.2-1.3,1.6-1.9l-4.6,0.2l-0.1-0.8l5.2-0.2l0.2-0.1l0.4,0.6c0.1,0.1,0,0.1-0.1,0.1c-0.6,0.9-1.3,1.8-2.1,2.6L151,205.2z"
			/>
		<path class="st5" d="M161.2,204.7c-1,2.6-2.7,3.9-5.1,4.1c-0.1,0.3-0.2,0.3-0.3,0.1l-0.2-0.9c2.5-0.1,4.1-1.3,5-3.8L161.2,204.7z
			 M155.7,203.3l0.5-0.7c0.4,0.3,0.9,0.8,1.5,1.5l-0.5,0.7C156.7,204.1,156.2,203.7,155.7,203.3z"/>
		<path class="st5" d="M168.2,208.3l-0.6,0.6c-0.8-1-1.6-1.9-2.3-2.6c-0.7,1-1.6,1.9-2.5,2.6l-0.5-0.6c2-1.6,3.3-3.2,3.9-4.9
			l-3.1,0.2l-0.1-0.8l3.3-0.2l0.3-0.1l0.5,0.6c0.1,0.2,0.1,0.3-0.1,0.3c-0.4,0.8-0.7,1.5-1.1,2.1
			C166.6,206.4,167.4,207.3,168.2,208.3z"/>
	</g>
	<text transform="matrix(1 0 0 1 46.5 223)" class="st5 st2 st6">   VM</text>
	<g>
		<path class="st5" d="M203.7,195.6c0.8-1,1.2-2.3,1.5-3.9l0.6,0.2c0.2,0.1,0.2,0.2,0,0.2c-0.2,0.8-0.4,1.5-0.6,2l0.1,0
			c0.1,0.1,0,0.2-0.1,0.2v5.3h-0.6v-4.5c-0.1,0.3-0.3,0.6-0.6,0.9L203.7,195.6z M210.1,198.9l-0.2,0.7c-0.7-0.4-1.3-0.8-1.6-1.3
			c-0.4,0.5-1,1-1.6,1.4l-0.3-0.6c0.6-0.4,1.1-0.8,1.5-1.4c-0.4-0.8-0.6-1.7-0.7-2.7h-0.5v1.3c0,1.5-0.3,2.6-0.9,3.4l-0.4-0.6
			c0.5-0.5,0.8-1.5,0.8-2.7v-4.1h3.9v0.7h-3.3v1.5h2.5l0.1-0.2l0.4,0.4c0.1,0.1,0,0.2-0.1,0.2c-0.3,1.3-0.6,2.3-1,3
			C208.9,198.2,209.4,198.6,210.1,198.9z M207.6,195c0.1,0.8,0.2,1.5,0.6,2.2c0.3-0.6,0.6-1.4,0.7-2.2H207.6z"/>
		<path class="st5" d="M212.8,196.6h-0.6v-2.1c-0.3,0.6-0.7,1.1-1.1,1.5l-0.4-0.6c0.7-0.7,1.2-1.4,1.4-2h-1.2v-0.7h1.2v-1.1h0.5
			c0.1,0,0.2,0.1,0,0.2v0.8h1v0.7h-1v0.5c0.5,0.3,0.9,0.6,1.1,0.9l-0.4,0.6c-0.2-0.3-0.4-0.6-0.8-0.8V196.6z M212.2,197.5
			c0.1,0.1,0.1,0.1,0,0.2c-0.1,0.6-0.3,1.2-0.6,1.8L211,199c0.3-0.6,0.5-1.2,0.6-1.8L212.2,197.5z M213,197.3v1.4
			c0,0.2,0.1,0.2,0.2,0.2h1.8c0.1,0,0.3-0.2,0.3-0.7l0.6,0.2c-0.1,0.8-0.3,1.1-0.6,1.1H213c-0.3,0-0.5-0.2-0.5-0.6v-1.9h0.5
			C213.1,197.1,213.1,197.2,213,197.3z M213.7,196.5c0.4,0.4,0.7,0.8,1,1.3l-0.5,0.5c-0.2-0.5-0.5-0.9-0.9-1.3L213.7,196.5z
			 M216.2,196.5h-1.6v0.2h-0.5v-4.5h2.5v4.5h-0.5V196.5z M214.6,193.4h1.6v-0.7h-1.6V193.4z M214.6,194.6h1.6v-0.7h-1.6V194.6z
			 M214.6,195.9h1.6v-0.7h-1.6V195.9z M216.6,199.2c-0.2-0.6-0.5-1.1-0.9-1.6l0.5-0.5c0.4,0.4,0.7,1,1,1.6L216.6,199.2z"/>
		<path class="st5" d="M189.6,206.2c0,1.8-0.6,3.2-1.8,4.1l-0.5-0.7c1.1-0.8,1.6-1.8,1.6-3.2V205h0.6c0.2,0,0.2,0.1,0.1,0.2V206.2
			c0.7-0.7,1.2-1.3,1.5-1.9l-4.5,0.2l-0.1-0.8l5-0.2l0.2-0.1l0.4,0.6c0.1,0.1,0,0.1-0.1,0.1c-0.6,0.9-1.2,1.8-2,2.6L189.6,206.2z"/>
		<path class="st5" d="M194,204.6v-0.8h4.1l0.7,0.7c-0.1,2.8-1.4,4.7-3.8,5.6l-0.5-0.8c2.3-0.7,3.5-2.2,3.6-4.7H194z M198.4,203.8
			c-0.1-0.2-0.2-0.4-0.2-0.7s0.1-0.5,0.2-0.7c0.1-0.2,0.3-0.3,0.6-0.3s0.4,0.1,0.6,0.3c0.1,0.2,0.2,0.4,0.2,0.7s-0.1,0.5-0.2,0.7
			c-0.1,0.2-0.3,0.3-0.6,0.3S198.6,204,198.4,203.8z M199.3,203.6c0.1-0.1,0.1-0.3,0.1-0.5c0-0.2,0-0.3-0.1-0.5
			c-0.1-0.1-0.2-0.2-0.4-0.2c-0.1,0-0.3,0.1-0.4,0.2c-0.1,0.1-0.1,0.3-0.1,0.5c0,0.2,0,0.3,0.1,0.5c0.1,0.1,0.2,0.2,0.4,0.2
			C199.1,203.8,199.2,203.7,199.3,203.6z"/>
		<path class="st5" d="M202.1,209.8c1.8-0.6,2.8-1.8,3-3.7h-4.2v-0.8h4.2l0.2-0.1l0.5,0.4c0.1,0.1,0.1,0.2-0.1,0.3
			c-0.3,2.3-1.4,3.9-3.2,4.6L202.1,209.8z M205.2,204.1h-3.8v-0.8h3.8V204.1z"/>
		<path class="st5" d="M207.7,207.2c1.9-1,3.4-2.5,4.4-4.4l0.5,0.6c0.1,0.1,0.1,0.2-0.2,0.3c-0.3,0.6-0.8,1.2-1.4,1.8v4.8h-0.6v-4.1
			c-0.6,0.6-1.4,1.2-2.3,1.7L207.7,207.2z"/>
		<path class="st5" d="M217.8,206.2c0,1.8-0.6,3.2-1.8,4.1l-0.5-0.7c1.1-0.8,1.6-1.8,1.6-3.2V205h0.6c0.2,0,0.2,0.1,0.1,0.2V206.2
			c0.7-0.7,1.2-1.3,1.5-1.9l-4.5,0.2l-0.1-0.8l5-0.2l0.2-0.1l0.4,0.6c0.1,0.1,0,0.1-0.1,0.1c-0.6,0.9-1.2,1.8-2,2.6L217.8,206.2z"/>
		<path class="st5" d="M227.6,205.7c-1,2.6-2.6,3.9-4.9,4.1c-0.1,0.3-0.2,0.3-0.3,0.1l-0.2-0.9c2.4-0.1,4-1.3,4.8-3.8L227.6,205.7z
			 M222.4,204.3l0.5-0.7c0.4,0.3,0.9,0.8,1.5,1.5l-0.5,0.7C223.3,205.1,222.8,204.7,222.4,204.3z"/>
		<path class="st5" d="M234.5,209.3l-0.6,0.6c-0.8-1-1.5-1.9-2.2-2.6c-0.7,1-1.5,1.9-2.5,2.6l-0.5-0.6c1.9-1.6,3.2-3.2,3.7-4.9
			l-3,0.2l-0.1-0.8l3.2-0.2l0.3-0.1l0.4,0.6c0.1,0.2,0.1,0.3-0.1,0.3c-0.3,0.8-0.7,1.5-1.1,2.1C232.9,207.4,233.7,208.3,234.5,209.3
			z"/>
	</g>
	<line class="st7" x1="57" y1="190" x2="94" y2="190"/>
</g>
<g id="cluster">
	<g id="cluster_1_">
		
			<image style="overflow:visible;" width="274" height="70" id="Layer_1_xA0_Image" xlink:href="E53A4956.png"  transform="matrix(0.2588 0 0 0.2429 29 293)">
		</image>
		
			<image style="overflow:visible;" width="274" height="70" id="Layer_1_xA0_Image_1_" xlink:href="E53A4951.png"  transform="matrix(0.2588 0 0 0.2429 135.0308 293)">
		</image>
		
			<image style="overflow:visible;" width="274" height="70" id="Layer_1_xA0_Image_2_" xlink:href="E53A4953.png"  transform="matrix(0.2588 0 0 0.2429 241.0616 293)">
		</image>
		
			<image style="overflow:visible;" width="274" height="70" id="Layer_1_xA0_Image_3_" xlink:href="E53A4950.png"  transform="matrix(0.2588 0 0 0.2429 347.0924 293)">
		</image>
	</g>
	<text transform="matrix(1 0 0 1 341.5 172.5)"><tspan x="0" y="0" class="st2 st6">       NSX</tspan><tspan x="0" y="10.8" class="st8 st6">コントローラー</tspan></text>
	<text transform="matrix(1 0 0 1 263.5 171)"><tspan x="0" y="0" class="st2 st9">    NSX</tspan><tspan x="0" y="13.2" class="st2 st9">Manager</tspan></text>
	<text transform="matrix(0.7273 0 0 1 178 156)"><tspan x="0" y="0" class="st8 st9">プラットフォーム・ </tspan><tspan x="22" y="13.2" class="st8 st9">サービス・ </tspan><tspan x="11" y="26.4" class="st8 st9">コントローラー</tspan></text>
	<text transform="matrix(1 0 0 1 121.2139 154)"><tspan x="0" y="0" class="st2 st9"> vCenter </tspan><tspan x="4.6" y="13.2" class="st2 st9">Server </tspan><tspan x="-3.4" y="26.4" class="st2 st9">Appliance</tspan></text>
	<text transform="matrix(1 0 0 1 64.2217 154.5)"><tspan x="0" y="0" class="st2 st9">IBM</tspan><tspan x="-1.2" y="13.2" class="st8 st9">管理</tspan><tspan x="1.5" y="26.4" class="st2 st9">VM</tspan></text>
	<g>
		<g>
			<g>
				<rect x="178.5" y="79" class="st10" width="27.2" height="27.2"/>
				<linearGradient id="SVGID_1_" gradientUnits="userSpaceOnUse" x1="196.6149" y1="88.6274" x2="190.0207" y2="112.8808">
					<stop  offset="0" style="stop-color:#CCE0F4"/>
					<stop  offset="7.748766e-002" style="stop-color:#C5DDF3"/>
					<stop  offset="0.1918" style="stop-color:#B1D5EF"/>
					<stop  offset="0.329" style="stop-color:#90C9EA"/>
					<stop  offset="0.4838" style="stop-color:#63B7E2"/>
					<stop  offset="0.6515" style="stop-color:#2AA1D9"/>
					<stop  offset="0.6829" style="stop-color:#1E9CD7"/>
					<stop  offset="0.8652" style="stop-color:#0075BE"/>
					<stop  offset="0.9944" style="stop-color:#005B97"/>
				</linearGradient>
				<polygon class="st11" points="179.5,105.2 204.7,80 204.7,105.2 				"/>
			</g>
			<text transform="matrix(1 0 0 1 180.563 99.4219)" class="st12 st2 st13">P</text>
			<text transform="matrix(1 0 0 1 185.5142 104.373)" class="st12 st2 st13">V</text>
			<g>
				<g>
					<g>
						<g>
							<polygon class="st12" points="181.7,84 183.3,89.3 187,85.8 							"/>
						</g>
					</g>
				</g>
				<g>
					<g>
						<g>
							
								<rect x="185.7" y="86.8" transform="matrix(0.7268 -0.6868 0.6868 0.7268 -10.3173 152.7517)" class="st12" width="2.4" height="5.2"/>
						</g>
					</g>
				</g>
			</g>
			<g>
				<g>
					<g>
						<g>
							<polygon class="st12" points="200.4,103.3 194.6,101 198.5,97.3 							"/>
						</g>
					</g>
				</g>
				<g>
					<g>
						<g>
							
								<rect x="193.3" y="94" transform="matrix(0.7268 -0.6868 0.6868 0.7268 -13.478 160.1231)" class="st12" width="2.5" height="6"/>
						</g>
					</g>
				</g>
			</g>
		</g>
		<g>
			<g>
				<rect x="186.7" y="89.8" class="st10" width="27.2" height="27.2"/>
				<linearGradient id="SVGID_2_" gradientUnits="userSpaceOnUse" x1="204.7934" y1="99.3991" x2="198.1992" y2="123.6525">
					<stop  offset="0" style="stop-color:#CCE0F4"/>
					<stop  offset="7.748766e-002" style="stop-color:#C5DDF3"/>
					<stop  offset="0.1918" style="stop-color:#B1D5EF"/>
					<stop  offset="0.329" style="stop-color:#90C9EA"/>
					<stop  offset="0.4838" style="stop-color:#63B7E2"/>
					<stop  offset="0.6515" style="stop-color:#2AA1D9"/>
					<stop  offset="0.6829" style="stop-color:#1E9CD7"/>
					<stop  offset="0.8652" style="stop-color:#0075BE"/>
					<stop  offset="0.9944" style="stop-color:#005B97"/>
				</linearGradient>
				<polygon class="st14" points="187.7,116 212.9,90.8 212.9,116 				"/>
			</g>
			<text transform="matrix(1 0 0 1 188.7422 110.1934)" class="st12 st2 st13">P</text>
			<text transform="matrix(1 0 0 1 193.6924 115.1445)" class="st12 st2 st13">V</text>
			<g>
				<g>
					<g>
						<g>
							<polygon class="st12" points="189.9,94.7 191.4,100 195.1,96.5 							"/>
						</g>
					</g>
				</g>
				<g>
					<g>
						<g>
							
								<rect x="193.9" y="97.5" transform="matrix(0.7268 -0.6868 0.6868 0.7268 -15.4796 161.3168)" class="st12" width="2.4" height="5.2"/>
						</g>
					</g>
				</g>
			</g>
			<g>
				<g>
					<g>
						<g>
							<polygon class="st12" points="208.6,114 202.8,111.8 206.7,108.1 							"/>
						</g>
					</g>
				</g>
				<g>
					<g>
						<g>
							
								<rect x="201.5" y="104.8" transform="matrix(0.7268 -0.6868 0.6868 0.7268 -18.642 168.6828)" class="st12" width="2.5" height="6"/>
						</g>
					</g>
				</g>
			</g>
		</g>
	</g>
	<text transform="matrix(1 0 0 1 213.3247 85.2783)"><tspan x="0" y="0" class="st2 st15">IBM </tspan><tspan x="17" y="0" class="st8 st15">管理</tspan><tspan x="0" y="9.9" class="st2 st15">     </tspan><tspan x="11.5" y="9.9" class="st8 st15">エッジ</tspan></text>
	<g>
		<ellipse class="st16" cx="32.2" cy="98.6" rx="18.4" ry="13.6"/>
		<ellipse class="st16" cx="19.5" cy="111.3" rx="14.5" ry="9.7"/>
		<ellipse class="st16" cx="51.1" cy="107.8" rx="21.5" ry="12.3"/>
		<ellipse class="st16" cx="33.1" cy="115.3" rx="8.8" ry="4.8"/>
	</g>
	<text transform="matrix(1 0 0 1 26.5 110)" class="st2 st9">IBM</text>
	<g>
		<rect x="152.3" y="20.9" class="st0" width="78.7" height="34.1"/>
		<g>
			<ellipse class="st16" cx="153.9" cy="16.4" rx="11.4" ry="8.4"/>
			<ellipse class="st16" cx="146" cy="24.3" rx="9" ry="6"/>
			<ellipse class="st16" cx="165.6" cy="22.2" rx="13.3" ry="7.6"/>
			<ellipse class="st16" cx="154.4" cy="26.8" rx="5.4" ry="3"/>
		</g>
	</g>
	<text transform="matrix(1 0 0 1 171.9126 49.437)" class="st8 st17">自動化</text>
	<text transform="matrix(1 0 0 1 179.5 37)" class="st2 st3">IBM</text>
	<text transform="matrix(1 0 0 1 130 333)" class="st2 st9">VMware Cloud Foundation on IBM Cloud</text>
	<g>
		<g>
			<line class="st0" x1="191.5" y1="61.8" x2="191.5" y2="77.5"/>
			<g>
				<polygon points="197.6,62.6 185.4,62.6 191.5,56.5 				"/>
			</g>
		</g>
	</g>
	<line class="st0" x1="186.5" y1="113.5" x2="104.5" y2="113.5"/>
	<line class="st0" x1="105.5" y1="207.5" x2="105.5" y2="113.5"/>
	<line class="st0" x1="105.5" y1="207.5" x2="93.5" y2="207.5"/>
</g>
</svg>
