<svg id="Layer_1" data-name="Layer 1" xmlns="http://www.w3.org/2000/svg" xmlns:xlink="http://www.w3.org/1999/xlink" viewBox="0 0 730.63 537"><defs><style>.cls-1,.cls-2{fill:none;}.cls-1{clip-rule:evenodd;}.cls-2,.cls-4,.cls-5,.cls-6,.cls-7,.cls-9{fill-rule:evenodd;}.cls-3{fill:#f59c57;}.cls-4{fill:#f1f2f1;}.cls-5{fill:#1da78d;}.cls-6{fill:#4c84c5;}.cls-7{fill:#8d44ff;}.cls-11,.cls-8,.cls-9{fill:#606060;}.cls-8{stroke:#606060;stroke-miterlimit:10;}.cls-11,.cls-8{stroke-width:2px;}.cls-10{clip-path:url(#clip-path);}.cls-11{stroke:#4d4d4d;stroke-miterlimit:8;}.cls-12{font-size:24px;}.cls-12,.cls-18,.cls-29,.cls-33{fill:#fff;}.cls-12,.cls-29{font-family:IBMPlexSans-Bold, IBMPlexSans Bold;font-weight:700;}.cls-13{letter-spacing:0em;}.cls-14{letter-spacing:0em;}.cls-15{letter-spacing:0.01em;}.cls-16{letter-spacing:0.01em;}.cls-17{letter-spacing:0.02em;}.cls-18,.cls-40{font-size:21px;}.cls-18,.cls-33,.cls-40{font-family:IBMPlexSans, IBMPlexSans;}.cls-19{letter-spacing:0.01em;}.cls-20{letter-spacing:0em;}.cls-21{letter-spacing:-0.01em;}.cls-22{letter-spacing:0em;}.cls-23{letter-spacing:-0.01em;}.cls-24{letter-spacing:0em;}.cls-25{letter-spacing:-0.01em;}.cls-26{letter-spacing:0.01em;}.cls-27{letter-spacing:0.03em;}.cls-28{letter-spacing:-0.01em;}.cls-29,.cls-33{font-size:18px;}.cls-30{letter-spacing:0.01em;}.cls-31{letter-spacing:0.02em;}.cls-32{letter-spacing:-0.01em;}.cls-34{letter-spacing:-0.01em;}.cls-35{letter-spacing:0.01em;}.cls-36{letter-spacing:-0.01em;}.cls-37{letter-spacing:0em;}.cls-38{letter-spacing:0.01em;}.cls-39{letter-spacing:0.03em;}.cls-41{letter-spacing:-0.01em;}.cls-42{letter-spacing:0em;}.cls-43{letter-spacing:0em;}.cls-44{letter-spacing:0em;}</style><clipPath id="clip-path" transform="translate(-65.31 -20)"><polygon class="cls-1" points="65.31 589 795.94 589 795.94 20 65.31 20 65.31 589 65.31 589"/></clipPath></defs><title>commonservice_ntp</title><rect class="cls-3" x="32.02" y="373.94" width="186.94" height="163.06"/><polygon class="cls-4" points="0 0 730.63 0 730.63 293.77 0 293.77 0 0 0 0"/><polygon class="cls-5" points="34.12 165.43 680.19 165.43 680.19 261.13 34.12 261.13 34.12 165.43 34.12 165.43"/><polygon class="cls-6" points="34.12 45.25 680.19 45.25 680.19 141.69 34.12 141.69 34.12 45.25 34.12 45.25"/><polygon class="cls-7" points="487.33 373.94 682.69 373.94 682.69 529 487.33 529 487.33 373.94 487.33 373.94"/><line class="cls-8" x1="126.84" y1="272.26" x2="126.84" y2="360.97"/><polygon class="cls-9" points="133.52 358.74 126.84 372.1 120.17 358.74 133.52 358.74 133.52 358.74"/><polygon class="cls-9" points="120.17 274.48 126.84 261.13 133.52 274.48 120.17 274.48 120.17 274.48"/><g class="cls-10"><g class="cls-10"><line class="cls-11" x1="474.35" y1="469.59" x2="231.03" y2="469.59"/><polygon class="cls-9" points="233.3 462.91 219.69 469.59 233.3 476.26 233.3 462.91 233.3 462.91"/><polygon class="cls-9" points="472.08 476.26 485.69 469.59 472.08 462.91 472.08 476.26 472.08 476.26"/></g></g><text class="cls-12" transform="translate(213.69 84.04)"><tspan class="cls-13">G</tspan><tspan x="15.62" y="0">estión de la inf</tspan><tspan class="cls-14" x="161.21" y="0">r</tspan><tspan x="168.93" y="0">aestru</tspan><tspan class="cls-15" x="231.04" y="0">c</tspan><tspan x="242.11" y="0">tu</tspan><tspan class="cls-14" x="263.28" y="0">r</tspan><tspan x="271" y="0">a</tspan></text><text class="cls-12" transform="translate(236.69 203.04)"><tspan class="cls-16">I</tspan><tspan x="5.98" y="0">nf</tspan><tspan class="cls-14" x="26.3" y="0">r</tspan><tspan x="34.03" y="0">aestru</tspan><tspan class="cls-15" x="96.14" y="0">c</tspan><tspan x="107.21" y="0">tu</tspan><tspan class="cls-14" x="128.37" y="0">r</tspan><tspan x="136.1" y="0">a vi</tspan><tspan class="cls-17" x="169.92" y="0">r</tspan><tspan x="178.34" y="0">tual</tspan></text><text class="cls-18" transform="translate(259.69 123)">V<tspan class="cls-19" x="11.72" y="0">M</tspan><tspan class="cls-20" x="28.75" y="0">w</tspan><tspan x="44.12" y="0">a</tspan><tspan class="cls-21" x="54.24" y="0">r</tspan><tspan class="cls-22" x="60.9" y="0">e v</tspan><tspan class="cls-23" x="85.97" y="0">C</tspan><tspan x="97.92" y="0">e</tspan><tspan class="cls-24" x="108.44" y="0">n</tspan><tspan class="cls-25" x="120.01" y="0">t</tspan><tspan class="cls-22" x="126.84" y="0">er </tspan><tspan class="cls-26" x="148.68" y="0">S</tspan><tspan class="cls-22" x="159.16" y="0">e</tspan><tspan class="cls-27" x="169.68" y="0">r</tspan><tspan class="cls-28" x="177.07" y="0">v</tspan><tspan x="186.96" y="0">er</tspan></text><text class="cls-18" transform="translate(280.69 240)">V<tspan class="cls-19" x="11.72" y="0">M</tspan><tspan class="cls-20" x="28.75" y="0">w</tspan><tspan x="44.12" y="0">a</tspan><tspan class="cls-21" x="54.24" y="0">r</tspan><tspan class="cls-22" x="60.9" y="0">e vSphe</tspan><tspan class="cls-21" x="130.45" y="0">r</tspan><tspan x="137.11" y="0">e</tspan></text><text class="cls-29" transform="translate(49.69 418.78)"><tspan class="cls-30">S</tspan><tspan x="8.98" y="0">e</tspan><tspan class="cls-31" x="18" y="0">r</tspan><tspan x="24.34" y="0">vicios </tspan><tspan class="cls-32" x="70.31" y="0">c</tspan><tspan x="78.26" y="0">omunes</tspan></text><text class="cls-33" transform="translate(57.69 468)"><tspan class="cls-34">A</tspan><tspan class="cls-35" x="10.8" y="0">c</tspan><tspan x="19.1" y="0">ti</tspan><tspan class="cls-36" x="29.27" y="0">v</tspan><tspan class="cls-37" x="37.75" y="0">e Di</tspan><tspan class="cls-36" x="66.78" y="0">r</tspan><tspan class="cls-37" x="72.48" y="0">e</tspan><tspan class="cls-38" x="81.5" y="0">c</tspan><tspan class="cls-32" x="89.8" y="0">t</tspan><tspan x="95.65" y="0">o</tspan><tspan class="cls-39" x="105.53" y="0">r</tspan><tspan class="cls-37" x="111.87" y="0">y</tspan></text><text class="cls-33" transform="translate(100.69 503)">DNS</text><text class="cls-29" transform="translate(497.69 416.78)"><tspan class="cls-30">S</tspan><tspan x="8.98" y="0">e</tspan><tspan class="cls-31" x="18" y="0">r</tspan><tspan x="24.34" y="0">vicios de IBM Cloud</tspan></text><text class="cls-33" transform="translate(560.69 467)">DNS</text><text class="cls-33" transform="translate(561.69 502)">NTP</text><text class="cls-40" transform="translate(129.69 316)"><tspan class="cls-41">A</tspan><tspan x="12.6" y="0">u</tspan><tspan class="cls-25" x="24.17" y="0">t</tspan><tspan class="cls-22" x="31" y="0">e</tspan><tspan class="cls-42" x="41.52" y="0">n</tspan><tspan x="53.09" y="0">ticación</tspan><tspan class="cls-43" x="0" y="25.2">R</tspan><tspan x="11.38" y="25.2">esolución de nomb</tspan><tspan class="cls-21" x="179.69" y="25.2">r</tspan><tspan x="186.35" y="25.2">es </tspan><tspan x="0" y="50.4">de dominio</tspan></text><text class="cls-40" transform="translate(424.69 318)">Sinc<tspan class="cls-21" x="36.33" y="0">r</tspan><tspan x="42.99" y="0">onización</tspan><tspan x="0" y="25.2">de ho</tspan><tspan class="cls-44" x="50" y="25.2">r</tspan><tspan x="56.76" y="25.2">a de </tspan><tspan class="cls-28" x="98.15" y="25.2">r</tspan><tspan x="104.81" y="25.2">ed</tspan></text><text class="cls-40" transform="translate(235.69 429)"><tspan class="cls-43">R</tspan><tspan x="11.38" y="0">esolución de nomb</tspan><tspan class="cls-21" x="179.69" y="0">r</tspan><tspan x="186.35" y="0">es </tspan><tspan x="0" y="25.2">de dominio</tspan></text><line class="cls-8" x1="579.84" y1="273.26" x2="579.84" y2="361.97"/><polygon class="cls-9" points="586.52 359.74 579.84 373.1 573.16 359.74 586.52 359.74 586.52 359.74"/><polygon class="cls-9" points="573.16 275.48 579.84 262.13 586.52 275.48 573.16 275.48 573.16 275.48"/></svg>
