<svg id="Layer_1" data-name="Layer 1" xmlns="http://www.w3.org/2000/svg" xmlns:xlink="http://www.w3.org/1999/xlink" viewBox="0 0 829.66 358.5"><defs><style>.cls-1,.cls-2,.cls-3,.cls-42,.cls-54{fill:none;}.cls-1{clip-rule:evenodd;}.cls-2,.cls-5,.cls-51,.cls-6,.cls-7{fill-rule:evenodd;}.cls-4{fill:#f59c57;}.cls-5{fill:#1da78d;}.cls-6{fill:#4c84c5;}.cls-7{fill:#959595;}.cls-28,.cls-8{font-size:18px;}.cls-12,.cls-20,.cls-28,.cls-47,.cls-8{fill:#fff;}.cls-20,.cls-8{font-family:IBMPlexSans-Bold, IBMPlexSans Bold;font-weight:700;}.cls-9{letter-spacing:0.01em;}.cls-10{letter-spacing:0.02em;}.cls-11{letter-spacing:-0.01em;}.cls-12{font-size:16px;}.cls-12,.cls-28{font-family:IBMPlexSans, IBMPlexSans;}.cls-13{letter-spacing:-0.01em;}.cls-14{letter-spacing:-0.01em;}.cls-15{letter-spacing:0em;}.cls-16{letter-spacing:0em;}.cls-17{letter-spacing:0em;}.cls-18{letter-spacing:-0.01em;}.cls-19{letter-spacing:0.02em;}.cls-20{font-size:21px;}.cls-21{letter-spacing:0em;}.cls-22{letter-spacing:0em;}.cls-23{letter-spacing:0.01em;}.cls-24{letter-spacing:0em;}.cls-25{letter-spacing:0.01em;}.cls-26{letter-spacing:0.01em;}.cls-27{letter-spacing:0.02em;}.cls-29{letter-spacing:0em;}.cls-30{letter-spacing:0em;}.cls-31{letter-spacing:0em;}.cls-32{letter-spacing:-0.01em;}.cls-33{letter-spacing:0em;}.cls-34{letter-spacing:0.03em;}.cls-35{letter-spacing:-0.01em;}.cls-36{letter-spacing:-0.01em;}.cls-37{letter-spacing:0em;}.cls-38{letter-spacing:0.01em;}.cls-39{letter-spacing:0em;}.cls-40{letter-spacing:-0.01em;}.cls-41{letter-spacing:-0.01em;}.cls-42,.cls-54{stroke:#fff;stroke-miterlimit:8;}.cls-42{stroke-width:2px;}.cls-43{clip-path:url(#clip-path);}.cls-44{clip-path:url(#clip-path-4);}.cls-45{clip-path:url(#clip-path-9);}.cls-46{clip-path:url(#clip-path-10);}.cls-48{letter-spacing:-0.01em;}.cls-49{letter-spacing:0em;}.cls-50{letter-spacing:0em;}.cls-51{fill:#f2f2f2;}.cls-52{clip-path:url(#clip-path-11);}.cls-53{clip-path:url(#clip-path-12);}.cls-54{stroke-width:0.5px;}</style><clipPath id="clip-path" transform="translate(-9.57 -24.5)"><polygon class="cls-1" points="604.9 237.5 621 237.5 621 217.69 604.9 217.69 604.9 237.5 604.9 237.5"/></clipPath><clipPath id="clip-path-4" transform="translate(-9.57 -24.5)"><polygon class="cls-1" points="234.5 237.5 255.44 237.5 255.44 216 234.5 216 234.5 237.5 234.5 237.5"/></clipPath><clipPath id="clip-path-9" transform="translate(-9.57 -24.5)"><polygon class="cls-1" points="425.51 237.5 446.15 237.5 446.15 216 425.51 216 425.51 237.5 425.51 237.5"/></clipPath><clipPath id="clip-path-10" transform="translate(-9.57 -24.5)"><polygon class="cls-3" points="425.51 237.5 446.15 237.5 446.15 216 425.51 216 425.51 237.5 425.51 237.5"/></clipPath><clipPath id="clip-path-11" transform="translate(-9.57 -24.5)"><polygon class="cls-1" points="281.51 322 307 322 307 296.51 281.51 296.51 281.51 322 281.51 322"/></clipPath><clipPath id="clip-path-12" transform="translate(-9.57 -24.5)"><polygon class="cls-3" points="281.51 322 307 322 307 296.51 281.51 296.51 281.51 322 281.51 322"/></clipPath></defs><title>design_overview</title><rect class="cls-4" x="3.77" y="0.43" width="186.94" height="237.06"/><polygon class="cls-5" points="202.37 123.89 829.66 123.89 829.66 235.53 202.37 235.53 202.37 123.89 202.37 123.89"/><polygon class="cls-6" points="202.37 0 829.66 0 829.66 111.64 202.37 111.64 202.37 0 202.37 0"/><polygon class="cls-7" points="0 247.78 829.66 247.78 829.66 358.5 0 358.5 0 247.78 0 247.78"/><text class="cls-8" transform="translate(21.88 50.28)"><tspan class="cls-9">S</tspan><tspan x="8.98" y="0">e</tspan><tspan class="cls-10" x="18" y="0">r</tspan><tspan x="24.34" y="0">vicios </tspan><tspan class="cls-11" x="70.31" y="0">c</tspan><tspan x="78.26" y="0">omunes</tspan></text><text class="cls-12" transform="translate(46.6 99.5)"><tspan class="cls-13">A</tspan><tspan x="9.6" y="0">u</tspan><tspan class="cls-14" x="18.42" y="0">t</tspan><tspan class="cls-15" x="23.62" y="0">e</tspan><tspan class="cls-16" x="31.63" y="0">n</tspan><tspan x="40.45" y="0">ticación</tspan></text><text class="cls-12" transform="translate(79.17 132.5)">DNS</text><text class="cls-12" transform="translate(79.69 168.5)">NTP</text><text class="cls-12" transform="translate(36.14 198.5)">E<tspan class="cls-17" x="7.87" y="0">n</tspan><tspan x="16.69" y="0">tidad emiso</tspan><tspan class="cls-18" x="95.1" y="0">r</tspan><tspan x="100.25" y="0">a </tspan><tspan x="6.9" y="19.2">de </tspan><tspan class="cls-14" x="27.33" y="19.2">c</tspan><tspan x="34.4" y="19.2">e</tspan><tspan class="cls-19" x="42.42" y="19.2">r</tspan><tspan x="48.03" y="19.2">tificados</tspan></text><text class="cls-20" transform="translate(379.43 33.41)"><tspan class="cls-21">G</tspan><tspan x="13.67" y="0">estión de la inf</tspan><tspan class="cls-22" x="141.05" y="0">r</tspan><tspan x="147.82" y="0">aestru</tspan><tspan class="cls-23" x="202.16" y="0">c</tspan><tspan x="211.84" y="0">tu</tspan><tspan class="cls-24" x="230.37" y="0">r</tspan><tspan x="237.13" y="0">a</tspan></text><text class="cls-20" transform="translate(396.43 162.41)"><tspan class="cls-25">I</tspan><tspan x="5.23" y="0">nf</tspan><tspan class="cls-22" x="23.02" y="0">r</tspan><tspan x="29.78" y="0">aestru</tspan><tspan class="cls-26" x="84.12" y="0">c</tspan><tspan x="93.81" y="0">tu</tspan><tspan class="cls-22" x="112.33" y="0">r</tspan><tspan x="119.09" y="0">a vi</tspan><tspan class="cls-27" x="148.68" y="0">r</tspan><tspan x="156.05" y="0">tual</tspan></text><text class="cls-20" transform="translate(307.43 290.41)"><tspan class="cls-25">I</tspan><tspan x="5.23" y="0">nf</tspan><tspan class="cls-22" x="23.02" y="0">r</tspan><tspan x="29.78" y="0">aestru</tspan><tspan class="cls-26" x="84.12" y="0">c</tspan><tspan x="93.81" y="0">tu</tspan><tspan class="cls-22" x="112.33" y="0">r</tspan><tspan x="119.09" y="0">a física</tspan></text><text class="cls-28" transform="translate(260.43 85.5)"><tspan class="cls-29">P</tspan><tspan class="cls-30" x="9.49" y="0">l</tspan><tspan class="cls-31" x="13.73" y="0">a</tspan><tspan x="22.34" y="0">t</tspan><tspan class="cls-32" x="28.3" y="0">f</tspan><tspan x="33.32" y="0">o</tspan><tspan class="cls-33" x="43.2" y="0">r</tspan><tspan x="49.16" y="0">m </tspan><tspan class="cls-9" x="67.99" y="0">S</tspan><tspan x="76.97" y="0">e</tspan><tspan class="cls-34" x="85.99" y="0">r</tspan><tspan x="92.32" y="0">vi</tspan><tspan class="cls-11" x="105.19" y="0">c</tspan><tspan class="cls-30" x="113.15" y="0">es </tspan><tspan class="cls-35" x="133.11" y="0">C</tspan><tspan x="143.35" y="0">o</tspan><tspan class="cls-31" x="153.23" y="0">n</tspan><tspan x="163.15" y="0">t</tspan><tspan class="cls-36" x="169.11" y="0">r</tspan><tspan class="cls-37" x="174.81" y="0">oller</tspan></text><text class="cls-28" transform="translate(558.43 85.5)">V<tspan class="cls-38" x="10.04" y="0">M</tspan><tspan class="cls-39" x="24.64" y="0">w</tspan><tspan x="37.82" y="0">a</tspan><tspan class="cls-40" x="46.49" y="0">r</tspan><tspan x="52.2" y="0">e v</tspan><tspan class="cls-41" x="73.69" y="0">C</tspan><tspan x="83.93" y="0">e</tspan><tspan class="cls-31" x="92.95" y="0">n</tspan><tspan class="cls-11" x="102.87" y="0">t</tspan><tspan class="cls-30" x="108.72" y="0">er </tspan><tspan class="cls-9" x="127.44" y="0">S</tspan><tspan x="136.42" y="0">e</tspan><tspan class="cls-10" x="145.44" y="0">r</tspan><tspan class="cls-40" x="151.77" y="0">v</tspan><tspan x="160.25" y="0">er</tspan></text><text class="cls-28" transform="translate(251.43 209.57)">V<tspan class="cls-38" x="10.04" y="0">M</tspan><tspan class="cls-39" x="24.64" y="0">w</tspan><tspan x="37.82" y="0">a</tspan><tspan class="cls-40" x="46.49" y="0">r</tspan><tspan x="52.2" y="0">e vSphe</tspan><tspan class="cls-40" x="111.81" y="0">r</tspan><tspan x="117.52" y="0">e</tspan></text><text class="cls-28" transform="translate(442.43 209.57)">V<tspan class="cls-38" x="10.04" y="0">M</tspan><tspan class="cls-39" x="24.64" y="0">w</tspan><tspan x="37.82" y="0">a</tspan><tspan class="cls-40" x="46.49" y="0">r</tspan><tspan x="52.2" y="0">e NSX</tspan></text><text class="cls-28" transform="translate(619.43 209.57)">V<tspan class="cls-38" x="10.04" y="0">M</tspan><tspan class="cls-39" x="24.64" y="0">w</tspan><tspan x="37.82" y="0">a</tspan><tspan class="cls-40" x="46.49" y="0">r</tspan><tspan x="52.2" y="0">e vSAN (opcional)</tspan></text><polygon class="cls-42" points="611.22 196.22 611.22 196.22 611.22 195.98 611.09 195.65 610.64 195.15 609.86 194.69 608.91 194.24 607.75 193.91 606.39 193.66 604.99 193.41 603.38 193.41 601.77 193.41 600.37 193.66 599.01 193.91 597.86 194.24 596.91 194.69 596.12 195.15 595.67 195.65 595.55 195.98 595.55 196.22 595.55 200.82 595.55 201.07 595.67 201.4 596.12 201.9 596.91 202.35 597.86 202.81 599.01 203.14 600.37 203.39 601.77 203.64 603.38 203.64 604.99 203.64 606.39 203.39 607.75 203.14 608.91 202.81 609.86 202.35 610.64 201.9 611.09 201.4 611.22 201.07 611.22 200.82 611.22 196.22 611.22 196.22 611.22 196.22"/><g class="cls-43"><polyline class="cls-42" points="595.55 196.24 595.55 196.24 595.55 196.45 595.67 196.83 596.12 197.29 596.91 197.76 597.86 198.22 599.01 198.6 600.37 198.81 601.77 199.07 603.38 199.07 604.99 199.07 606.39 198.81 607.75 198.6 608.91 198.22 609.86 197.76 610.64 197.29 611.09 196.83 611.22 196.45 611.22 196.24"/><g class="cls-43"><polyline class="cls-42" points="595.55 202.77 595.55 205.47 595.55 205.71 595.67 206.03 596.12 206.51 596.91 206.96 597.86 207.4 599.01 207.72 600.37 207.97 601.77 208.21 603.38 208.21 604.99 208.21 606.39 207.97 607.75 207.72 608.91 207.4 609.86 206.96 610.64 206.51 611.09 206.03 611.22 205.71 611.22 205.47 611.22 202.77"/><g class="cls-43"><polyline class="cls-42" points="595.55 207.34 595.55 210.06 595.55 210.3 595.67 210.63 596.12 211.07 596.91 211.56 597.86 212.01 599.01 212.33 600.37 212.57 601.77 212.78 603.38 212.78 604.99 212.78 606.39 212.57 607.75 212.33 608.91 212.01 609.86 211.56 610.64 211.07 611.09 210.63 611.22 210.3 611.22 210.06 611.22 207.34"/></g></g></g><polygon class="cls-42" points="225.22 212.22 225.22 192.27 225.22 192.05 225.35 191.91 225.49 191.78 225.71 191.78 245.1 191.78 245.32 191.78 245.45 191.91 245.59 192.05 245.59 192.27 245.59 212.22 245.59 212.49 245.45 212.58 245.32 212.71 245.1 212.71 225.71 212.71 225.49 212.71 225.35 212.58 225.22 212.49 225.22 212.22 225.22 212.22 225.22 212.22"/><g class="cls-44"><line class="cls-42" x1="225.22" y1="194.89" x2="245.59" y2="195.17"/><g class="cls-44"><line class="cls-42" x1="226.63" y1="193.19" x2="227.48" y2="193.48"/><g class="cls-44"><line class="cls-42" x1="228.61" y1="193.19" x2="229.46" y2="193.48"/><g class="cls-44"><polygon class="cls-42" points="241.34 202.17 240.45 200.32 239.33 200.72 238.84 200.1 238.22 199.57 238.57 198.47 236.7 197.72 236.21 198.73 235.36 198.73 234.6 198.73 234.11 197.72 232.23 198.47 232.59 199.57 231.96 200.1 231.47 200.72 230.22 200.32 229.46 202.17 230.58 202.79 230.44 203.54 230.58 204.29 229.46 204.91 230.22 206.76 231.47 206.36 231.96 206.98 232.59 207.47 232.23 208.61 234.11 209.32 234.6 208.35 235.36 208.35 236.21 208.35 236.7 209.32 238.57 208.61 238.22 207.47 238.84 206.98 239.33 206.36 240.45 206.76 241.34 204.91 240.23 204.29 240.32 203.54 240.23 202.79 241.34 202.17 241.34 202.17 241.34 202.17"/><g class="cls-44"><polygon class="cls-42" points="237.1 203.38 237.1 203.38 236.96 203.99 236.59 204.6 235.94 204.99 235.28 205.07 234.63 204.99 233.98 204.6 233.56 203.99 233.42 203.38 233.56 202.77 233.98 202.16 234.63 201.81 235.28 201.68 235.94 201.81 236.59 202.16 236.96 202.77 237.1 203.38 237.1 203.38 237.1 203.38"/></g></g></g></g></g><g class="cls-45"><g class="cls-46"><path class="cls-47" d="M443.9,232.13v-5.38h-8.07v-5.46a2.61,2.61,0,0,0,2.24-2.6,2.69,2.69,0,1,0-3.14,2.6v5.46h-7.18v5.47a2.77,2.77,0,0,0-2.24,2.6,2.69,2.69,0,0,0,5.38,0,2.61,2.61,0,0,0-2.24-2.6v-4.57H443v4.57a2.69,2.69,0,0,0-2.25,2.6,2.7,2.7,0,1,0,3.14-2.69Zm-10.31-13.44a1.79,1.79,0,1,1,1.79,1.79,1.79,1.79,0,0,1-1.79-1.79ZM430,234.82a1.8,1.8,0,1,1-1.8-1.79,1.8,1.8,0,0,1,1.8,1.79Zm13.46,1.79a1.79,1.79,0,1,1,1.79-1.79,1.8,1.8,0,0,1-1.79,1.79Z" transform="translate(-9.57 -24.5)"/></g></g><text class="cls-28" transform="translate(71.43 330.5)"><tspan class="cls-48">C</tspan><tspan x="10.31" y="0">álculo físi</tspan><tspan class="cls-11" x="79.97" y="0">c</tspan><tspan x="87.93" y="0">o</tspan></text><text class="cls-28" transform="translate(348.43 330.5)"><tspan class="cls-49">R</tspan><tspan x="9.76" y="0">ed física</tspan></text><text class="cls-28" transform="translate(613.43 330.5)"><tspan class="cls-50">A</tspan><tspan x="10.96" y="0">lma</tspan><tspan class="cls-11" x="38.9" y="0">c</tspan><tspan class="cls-30" x="46.85" y="0">enamie</tspan><tspan class="cls-31" x="102.78" y="0">n</tspan><tspan class="cls-11" x="112.7" y="0">t</tspan><tspan x="118.55" y="0">o físi</tspan><tspan class="cls-11" x="153.05" y="0">c</tspan><tspan class="cls-37" x="161.01" y="0">o</tspan></text><path class="cls-51" d="M364.12,54.92h-2.4l-.74-.74-.06-.06-.09,0-.07,0h-2l-.07.06-.06,0-.06.07,0,.06,0,.09v4.49l0,.1,0,.06.06.06.06,0,.07,0,.08,0,.09,0h5.18l.1,0,.07,0,.08,0,.06,0,.06-.06,0-.06,0-.1V55.25l0-.07,0-.08-.06-.06-.06-.06-.08,0-.07,0Zm-.42,3.45h-4.33V54.92h1.11l.74.73.06.06.08,0,.09,0h2.25v2.59Z" transform="translate(-9.57 -24.5)"/><path class="cls-51" d="M380.58,54.92h-2.42l-.74-.74-.06-.06-.09,0-.08,0h-2l-.07.06-.07,0-.05.07,0,.06,0,.09v4.49l0,.1,0,.06.05.06.07,0,.07,0,.08,0,.1,0h5.19l.08,0,.08,0,.07,0,.06,0,.07-.06,0-.06,0-.1V55.25l0-.07,0-.08-.07-.06-.06-.06-.07,0-.08,0Zm-.45,3.45h-4.32V54.92h1.12l.75.73.06.06.07,0,.09,0h2.23v2.59Z" transform="translate(-9.57 -24.5)"/><path class="cls-51" d="M373.35,57.8h-3.63l-.31-.64,0,0,0,0L369.3,57l0,0-.06,0-.06,0h-2.87l-.08,0-.07.06,0,.06,0,.07,0,.08v5.36l0,.08,0,.08,0,.06.07.06.08,0,.08,0,.09,0h6.91l.08,0,.08,0,.09,0,.06-.06,0-.06.05-.08,0-.08,0-.09V58.22l0-.08,0-.08L373.7,58l0-.07-.06-.05-.09,0-.08,0Zm-.44,4.33h-6V57.8h1.89l.32.62,0,0,0,.06,0,0,.06,0,0,0h3.63v3.46Z" transform="translate(-9.57 -24.5)"/><path class="cls-51" d="M365.13,49.25h4.34v1.81l-.12,0-.1,0-.12.06-.08,0-.11.07-.09.05-.09.07-.08.08-.08.09-.07.09-.07.1,0,.08-.07.11,0,.1,0,.11,0,.12h-6.64l-.08,0-.08.05-.07,0,0,.07,0,.06,0,.09,0,.09v.86l0,.09,0,.08,0,.08,0,.06.07.06.08,0,.08,0h.17l.09,0,.08,0,.06-.06.06-.06,0-.08,0-.08v-.52h6.13l0,.12,0,.1,0,.11.07.1,0,.09.07.1.07.08.08.1.08.07.09.07.09.06.11.07.08,0,.12.05.1,0,.12,0v1.91l0,.08,0,.07.06.07.06,0,.08.05.08,0H370l.07,0,.08-.05.07,0,.05-.07,0-.07,0-.08V54.4l.12,0,.12,0,.1-.05.09,0,.1-.07.09-.06L371,54l.07-.07.08-.1.08-.08.06-.1.07-.09.05-.1,0-.11,0-.1,0-.12h6.12v.52l0,.08,0,.08.06.06.07.06.06,0,.08,0h.17l.09,0,.07,0,.07-.06.05-.06,0-.08,0-.08v-1l0-.09,0-.06-.05-.07-.07,0-.07-.05-.09,0h-6.63l0-.12,0-.11,0-.1-.05-.11-.07-.08-.06-.1-.08-.09-.08-.09-.07-.08-.1-.07-.09-.05-.1-.07-.09,0-.1-.06-.12,0-.12,0V49.25h5l.2,0,.19,0,.2,0,.18,0,.19-.06.19-.06.16-.08.18-.08.16-.07.17-.11.15-.09.15-.12.15-.12.14-.12.15-.13L378,48l.12-.14.11-.14.12-.16.1-.16.1-.15.07-.18.09-.17.07-.18.07-.18,0-.2.05-.17,0-.2,0-.2v-.78l0-.19,0-.18,0-.16-.05-.19-.05-.16-.07-.18-.06-.17-.08-.15-.09-.16-.08-.16-.1-.14-.11-.14-.1-.15-.12-.13-.11-.13-.13-.12-.13-.12-.14-.11-.15-.11-.14-.08-.16-.1-.15-.09-.15-.07-.17-.07-.17-.07-.17,0-.16-.05-.19,0-.18,0-.18,0-.06-.24-.05-.22-.09-.21-.1-.2-.13-.2-.13-.17-.16-.17-.15-.16-.18-.14-.18-.13-.2-.1-.22-.1-.22-.07-.21-.06-.24,0h-.56l-.18-.25-.18-.23-.21-.24-.2-.21-.22-.19-.24-.18-.24-.16-.26-.16-.25-.13-.28-.12-.27-.09-.29-.09-.3-.07-.29,0-.3,0h-.71l-.19,0-.21,0-.19,0-.2,0-.19.05-.19.07-.18.06-.17.08-.19.08-.17.09-.16.1-.18.11-.15.12-.16.12-.15.11-.14.13-.14.14-.13.13-.13.17-.13.14-.12.16-.1.17-.11.16-.1.17-.09.19-.08.17-.07.19-.07.18-.06.2-.06.21-.17.05-.16.06-.18.06-.16.08-.16.08-.15.07-.14.09-.15.1-.16.1-.12.11-.15.11-.13.11-.1.13-.12.12-.12.15-.11.13-.1.14-.11.15-.08.14-.08.15-.07.16-.09.16-.07.16-.06.18,0,.15-.06.19,0,.17,0,.16,0,.19,0,.19v.57l0,.23,0,.22,0,.21.05.2.06.22.06.21.08.2.08.19.1.18.1.18.12.19.12.16.13.16.14.16.14.15.15.15.16.14.15.14.19.12.16.1.18.11.19.09.19.1.2.07.2.07.21.07.2,0,.21,0,.23,0,.21,0Zm5.64,3.49v.07l0,.1,0,.08,0,.08,0,.07-.05.09,0,.06-.06.07-.06,0-.07.05-.07,0-.07,0-.09,0-.09,0h-.33l-.09,0-.08,0-.08,0-.06,0-.07-.05-.06,0-.07-.07,0-.06-.06-.09,0-.07,0-.08v-.18l0-.07,0-.09v-.18l0-.07,0-.08.06-.08,0-.06.07-.07.06,0,.07-.06.06,0,.08,0,.08,0,.09,0h.33l.09,0,.09,0,.07,0,.07,0,.07.06.06,0,.06.07,0,.06.05.08,0,.08,0,.07,0,.09,0,.09v.09Zm-6.33-11.27.06,0,.06,0,0,0,0-.06.05,0,0-.06,0-.06v-.07l0-.16,0-.17,0-.17.06-.16.06-.17.08-.15.07-.15.08-.15.1-.14.08-.14.1-.14.11-.12.11-.13.11-.12.13-.12.11-.11.13-.1.14-.09.13-.1.15-.09.16-.07.14-.08.15-.07.16-.06.15-.06.17-.05.17,0,.15,0,.18,0,.18,0h.6l.26,0,.26,0,.26.07.24.08.24.09.23.1.23.13.21.13.21.17.2.16.18.19.19.19.15.2.16.22L372,40l0,0,.06,0,0,.06.07,0,.06,0h.22l.12,0,.1,0h.39l.17,0,.16,0,.16.07.15.07.15.08.13.11.12.11.11.13.1.13.1.14.06.16.07.15,0,.17,0,.17v.26l0,.1,0,.06.06.07,0,0,.08.05.08,0h.4l.15,0,.14,0,.16,0,.14,0,.15,0,.13.07.14.05.13.07.11.07.13.09.12.09L377,43l.11.09.12.1.09.11.1.1.09.12.08.12.07.13.09.13.06.13.07.13,0,.14.06.15,0,.14,0,.14,0,.16V45l0,.15v.31l0,.16v.16l0,.14,0,.15,0,.15-.06.15,0,.12-.07.15-.06.13-.09.11-.07.13-.08.12-.09.12-.1.1-.09.12-.12.1-.11.1-.11.09-.12.08-.13.08-.11.07-.13.07-.14.06-.13.06-.15.05-.14,0-.16,0-.14,0h-.15l-.15,0H365l-.19,0-.16,0-.18,0-.16,0-.17-.06-.17-.05-.15-.07-.15-.06-.15-.08-.15-.09-.14-.09-.14-.09-.13-.1-.12-.11-.13-.12-.1-.12-.11-.12-.11-.13-.09-.15-.08-.15-.1-.14L362,46.4l-.06-.15-.07-.17-.05-.16,0-.16-.05-.17,0-.18,0-.18v-.8l0-.16.07-.28.08-.29.11-.28.14-.26.15-.24.18-.24.19-.21.21-.2.23-.2.24-.16.25-.14.27-.13.14-.06.14,0,.15-.06.16,0Z" transform="translate(-9.57 -24.5)"/><g class="cls-52"><g class="cls-53"><path class="cls-47" d="M296.38,297.57V321H282.57V297.57Zm1.07-1.06H281.51V322h15.94v-25.5Zm8.5,1.06V321h-5.32V297.57Zm1.06-1.06h-7.44V322H307v-25.5Z" transform="translate(-9.57 -24.5)"/><path class="cls-54" d="M296.38,297.57V321H282.57V297.57Zm1.07-1.06H281.51V322h15.94v-25.5Zm8.5,1.06V321h-5.32V297.57Zm1.06-1.06h-7.44V322H307v-25.5Z" transform="translate(-9.57 -24.5)"/><path class="cls-47" d="M294.26,300.76V305H284.7v-4.25Zm1.06-1.06H283.64v6.37h11.68V299.7Zm8.5,0v1.06h-1.06V299.7Zm1.06-1.07H301.7v3.19h3.18v-3.19ZM303.82,304V305h-1.06V304Zm1.06-1.07H301.7v3.19h3.18v-3.19Zm-1.06,5.32v1.06h-1.06V308.2Zm1.06-1.07H301.7v3.19h3.18v-3.19Zm-1.06,5.32v1.06h-1.06v-1.06Zm1.06-1.07H301.7v3.19h3.18v-3.19Zm-1.06,5.32v1.06h-1.06V316.7Zm1.06-1.06H301.7v3.18h3.18v-3.18Z" transform="translate(-9.57 -24.5)"/><path class="cls-54" d="M294.26,300.76V305H284.7v-4.25Zm1.06-1.06H283.64v6.37h11.68V299.7Zm8.5,0v1.06h-1.06V299.7Zm1.06-1.07H301.7v3.19h3.18v-3.19ZM303.82,304V305h-1.06V304Zm1.06-1.07H301.7v3.19h3.18v-3.19Zm-1.06,5.32v1.06h-1.06V308.2Zm1.06-1.07H301.7v3.19h3.18v-3.19Zm-1.06,5.32v1.06h-1.06v-1.06Zm1.06-1.07H301.7v3.19h3.18v-3.19Zm-1.06,5.32v1.06h-1.06V316.7Zm1.06-1.06H301.7v3.18h3.18v-3.18Z" transform="translate(-9.57 -24.5)"/></g></g></svg>
