<svg id="Layer_1" data-name="Layer 1" xmlns="http://www.w3.org/2000/svg" xmlns:xlink="http://www.w3.org/1999/xlink" viewBox="0 0 2885.47 3159.27"><defs><style>.cls-1,.cls-11,.cls-13,.cls-14,.cls-18,.cls-2,.cls-3,.cls-32,.cls-6{fill:none;}.cls-1{clip-rule:evenodd;}.cls-2,.cls-4,.cls-5,.cls-8{fill-rule:evenodd;}.cls-4{fill:#f1f2f1;}.cls-20,.cls-5{fill:#fff;}.cls-6{stroke:#ffc000;}.cls-11,.cls-13,.cls-18,.cls-32,.cls-6{stroke-miterlimit:8;}.cls-13,.cls-32,.cls-6{stroke-width:2px;}.cls-7{clip-path:url(#clip-path);}.cls-8{fill:#1da78d;}.cls-9{clip-path:url(#clip-path-6);}.cls-10{fill:#a6a6a6;}.cls-11{stroke:#a6a6a6;stroke-width:3px;}.cls-12{clip-path:url(#clip-path-9);}.cls-13{stroke:#959595;}.cls-14{stroke:#000;stroke-linejoin:round;stroke-width:1px;}.cls-15{clip-path:url(#clip-path-65);}.cls-16{clip-path:url(#clip-path-70);}.cls-17{clip-path:url(#clip-path-73);}.cls-18{stroke:#5b9bd5;stroke-width:3px;}.cls-19,.cls-20{font-size:24px;}.cls-19,.cls-20,.cls-28{font-family:IBMPlexSans, IBMPlexSans;}.cls-21{letter-spacing:0.01em;}.cls-22{letter-spacing:0em;}.cls-23{letter-spacing:-0.01em;}.cls-24{letter-spacing:-0.01em;}.cls-25{letter-spacing:0em;}.cls-26{letter-spacing:-0.01em;}.cls-27{letter-spacing:-0.01em;}.cls-28{font-size:18px;}.cls-29{letter-spacing:0.02em;}.cls-30{letter-spacing:0em;}.cls-31{letter-spacing:-0.01em;}.cls-32{stroke:#b3b3b3;}</style><clipPath id="clip-path" transform="translate(1009.96 971)"><polygon class="cls-1" points="-1059.95 -289 -255.05 -289 -255.05 -1208 -1059.95 -1208 -1059.95 -289 -1059.95 -289"/></clipPath><clipPath id="clip-path-6" transform="translate(1009.96 971)"><polygon class="cls-3" points="-827.98 -498 -755.99 -498 -755.99 -570 -827.98 -570 -827.98 -498 -827.98 -498"/></clipPath><clipPath id="clip-path-9" transform="translate(1009.96 971)"><polygon class="cls-3" points="-540.02 -498 -468.03 -498 -468.03 -570 -540.02 -570 -540.02 -498 -540.02 -498"/></clipPath><clipPath id="clip-path-65" transform="translate(1009.96 971)"><polygon class="cls-1" points="124 688.5 768.77 688.5 768.77 106 124 106 124 688.5 124 688.5"/></clipPath><clipPath id="clip-path-70" transform="translate(1009.96 971)"><polygon class="cls-3" points="279.43 509.99 340.92 509.99 340.92 448.5 279.43 448.5 279.43 509.99 279.43 509.99"/></clipPath><clipPath id="clip-path-73" transform="translate(1009.96 971)"><polygon class="cls-3" points="525.38 509.99 586.87 509.99 586.87 448.5 525.38 448.5 525.38 509.99 525.38 509.99"/></clipPath></defs><title>physical_nfs</title><polygon class="cls-4" points="0 0 754.91 0 754.91 682 0 682 0 0 0 0"/><polygon class="cls-5" points="85.99 491 661.92 491 661.92 662 85.99 662 85.99 491 85.99 491"/><polygon class="cls-6" points="85.99 491 661.92 491 661.92 662 85.99 662 85.99 491 85.99 491"/><g class="cls-7"><polygon class="cls-8" points="85.99 146 661.92 146 661.92 218 85.99 218 85.99 146 85.99 146"/><g class="cls-7"><polygon class="cls-8" points="85.99 229 661.92 229 661.92 301 85.99 301 85.99 229 85.99 229"/><g class="cls-7"><polygon class="cls-8" points="85.99 312 661.92 312 661.92 384 85.99 384 85.99 312 85.99 312"/><g class="cls-7"><g class="cls-7"><g class="cls-9"><path class="cls-10" d="M-786-567v66h-39v-66Zm3-3h-45v72h45v-72Zm24,3v66h-15v-66Zm3-3h-21v72h21v-72Z" transform="translate(1009.96 971)"/><path class="cls-11" d="M-786-567v66h-39v-66Zm3-3h-45v72h45v-72Zm24,3v66h-15v-66Zm3-3h-21v72h21v-72Z" transform="translate(1009.96 971)"/><path class="cls-10" d="M-792-558v12h-27v-12Zm3-3h-33v18h33v-18Zm24,0v3h-3v-3Zm3-3h-9v9h9v-9Zm-3,15v3h-3v-3Zm3-3h-9v9h9v-9Zm-3,15v3h-3v-3Zm3-3h-9v9h9v-9Zm-3,15v3h-3v-3Zm3-3h-9v9h9v-9Zm-3,15v3h-3v-3Zm3-3h-9v9h9v-9Z" transform="translate(1009.96 971)"/><path class="cls-11" d="M-792-558v12h-27v-12Zm3-3h-33v18h33v-18Zm24,0v3h-3v-3Zm3-3h-9v9h9v-9Zm-3,15v3h-3v-3Zm3-3h-9v9h9v-9Zm-3,15v3h-3v-3Zm3-3h-9v9h9v-9Zm-3,15v3h-3v-3Zm3-3h-9v9h9v-9Zm-3,15v3h-3v-3Zm3-3h-9v9h9v-9Z" transform="translate(1009.96 971)"/></g></g><g class="cls-7"><g class="cls-7"><g class="cls-12"><path class="cls-10" d="M-498-567v66h-39v-66Zm3-3h-45v72h45v-72Zm24,3v66h-15v-66Zm3-3h-21v72h21v-72Z" transform="translate(1009.96 971)"/><path class="cls-11" d="M-498-567v66h-39v-66Zm3-3h-45v72h45v-72Zm24,3v66h-15v-66Zm3-3h-21v72h21v-72Z" transform="translate(1009.96 971)"/><path class="cls-10" d="M-504-558v12h-27v-12Zm3-3h-33v18h33v-18Zm24,0v3h-3v-3Zm3-3h-9v9h9v-9Zm-3,15v3h-3v-3Zm3-3h-9v9h9v-9Zm-3,15v3h-3v-3Zm3-3h-9v9h9v-9Zm-3,15v3h-3v-3Zm3-3h-9v9h9v-9Zm-3,15v3h-3v-3Zm3-3h-9v9h9v-9Z" transform="translate(1009.96 971)"/><path class="cls-11" d="M-504-558v12h-27v-12Zm3-3h-33v18h33v-18Zm24,0v3h-3v-3Zm3-3h-9v9h9v-9Zm-3,15v3h-3v-3Zm3-3h-9v9h9v-9Zm-3,15v3h-3v-3Zm3-3h-9v9h9v-9Zm-3,15v3h-3v-3Zm3-3h-9v9h9v-9Zm-3,15v3h-3v-3Zm3-3h-9v9h9v-9Z" transform="translate(1009.96 971)"/></g></g><g class="cls-7"><polygon class="cls-13" points="541.93 563.46 541.93 563.46 541.93 562.54 541.37 561.31 539.28 559.46 535.68 557.77 531.32 556.08 526.02 554.85 519.77 553.92 513.33 553 505.94 553 498.55 553 492.11 553.92 485.86 554.85 480.55 556.08 476.19 557.77 472.59 559.46 470.51 561.31 469.94 562.54 469.94 563.46 469.94 580.54 469.94 581.46 470.51 582.69 472.59 584.54 476.19 586.23 480.55 587.92 485.86 589.15 492.11 590.08 498.55 591 505.94 591 513.33 591 519.77 590.08 526.02 589.15 531.32 587.92 535.68 586.23 539.28 584.54 541.37 582.69 541.93 581.46 541.93 580.54 541.93 563.46 541.93 563.46 541.93 563.46"/><g class="cls-7"><polyline class="cls-13" points="469.94 563 469.94 563 469.94 563.75 470.51 565.09 472.59 566.73 476.19 568.37 480.55 570.01 485.86 571.36 492.11 572.11 498.55 573 505.94 573 513.33 573 519.77 572.11 526.02 571.36 531.32 570.01 535.68 568.37 539.28 566.73 541.37 565.09 541.93 563.75 541.93 563"/><g class="cls-7"><polyline class="cls-13" points="469.94 587 469.94 597.42 469.94 598.36 470.51 599.6 472.59 601.47 476.19 603.18 480.55 604.89 485.86 606.13 492.11 607.07 498.55 608 505.94 608 513.33 608 519.77 607.07 526.02 606.13 531.32 604.89 535.68 603.18 539.28 601.47 541.37 599.6 541.93 598.36 541.93 597.42 541.93 587"/><g class="cls-7"><polyline class="cls-13" points="469.94 604 469.94 614.5 469.94 615.44 470.51 616.69 472.59 618.42 476.19 620.3 480.55 622.02 485.86 623.28 492.11 624.22 498.55 625 505.94 625 513.33 625 519.77 624.22 526.02 623.28 531.32 622.02 535.68 620.3 539.28 618.42 541.37 616.69 541.93 615.44 541.93 614.5 541.93 604"/><g class="cls-7"><polygon class="cls-13" points="253.97 563.46 253.97 563.46 253.97 562.54 253.4 561.31 251.32 559.46 247.72 557.77 243.36 556.08 238.06 554.85 231.8 553.92 225.36 553 217.97 553 210.59 553 204.14 553.92 197.89 554.85 192.59 556.08 188.23 557.77 184.63 559.46 182.55 561.31 181.98 562.54 181.98 563.46 181.98 580.54 181.98 581.46 182.55 582.69 184.63 584.54 188.23 586.23 192.59 587.92 197.89 589.15 204.14 590.08 210.59 591 217.97 591 225.36 591 231.8 590.08 238.06 589.15 243.36 587.92 247.72 586.23 251.32 584.54 253.4 582.69 253.97 581.46 253.97 580.54 253.97 563.46 253.97 563.46 253.97 563.46"/><g class="cls-7"><polyline class="cls-13" points="181.98 563 181.98 563 181.98 563.75 182.55 565.09 184.63 566.73 188.23 568.37 192.59 570.01 197.89 571.36 204.14 572.11 210.59 573 217.97 573 225.36 573 231.8 572.11 238.06 571.36 243.36 570.01 247.72 568.37 251.32 566.73 253.4 565.09 253.97 563.75 253.97 563"/><g class="cls-7"><polyline class="cls-13" points="181.98 587 181.98 597.42 181.98 598.36 182.55 599.6 184.63 601.47 188.23 603.18 192.59 604.89 197.89 606.13 204.14 607.07 210.59 608 217.97 608 225.36 608 231.8 607.07 238.06 606.13 243.36 604.89 247.72 603.18 251.32 601.47 253.4 599.6 253.97 598.36 253.97 597.42 253.97 587"/><g class="cls-7"><polyline class="cls-13" points="181.98 604 181.98 614.5 181.98 615.44 182.55 616.69 184.63 618.42 188.23 620.3 192.59 622.02 197.89 623.28 204.14 624.22 210.59 625 217.97 625 225.36 625 231.8 624.22 238.06 623.28 243.36 622.02 247.72 620.3 251.32 618.42 253.4 616.69 253.97 615.44 253.97 614.5 253.97 604"/><g class="cls-7"><line class="cls-14" x1="218.47" y1="23.5" x2="183.48" y2="44.5"/><g class="cls-7"><line class="cls-14" x1="210.47" y1="118.5" x2="169.48" y2="95.5"/><g class="cls-7"><line class="cls-14" x1="261.47" y1="58.5" x2="261.47" y2="106.5"/><g class="cls-7"><line class="cls-14" x1="175.48" y1="88.5" x2="175.48" y2="41.5"/><g class="cls-7"><line class="cls-14" x1="253.47" y1="103.5" x2="218.47" y2="123.5"/><g class="cls-7"><line class="cls-14" x1="227.47" y1="28.5" x2="267.47" y2="52.5"/><g class="cls-7"><polyline class="cls-14" points="203.47 125.25 203.47 125.25 194.48 123 187.73 118.5 180.98 112.5 174.98 106.5 170.48 99 167.48 90.75 164.48 82.5 164.48 74.25 164.48 74.25 164.48 68.25 165.98 63 166.73 57.75 168.98 52.5 173.48 43.5 180.23 35.25 188.48 28.5 197.48 23.25 202.72 21.75 207.22 21 213.22 20.25 218.47 19.5 218.47 51.75 237.22 63 237.22 63 199.72 84.75 199.72 84.75 218.47 96 218.47 127.5 218.47 127.5 224.47 127.5 229.72 126.75 234.97 125.25 240.22 123.75 249.22 118.5 256.72 112.5 264.22 103.5 267.97 94.5 270.97 90 271.72 84.75 272.47 78.75 272.47 74.25 272.47 74.25 272.47 64.5 270.22 56.25 266.47 48 261.22 40.5 255.97 34.5 249.22 28.5 241.72 24 233.47 21.75"/><g class="cls-7"><line class="cls-14" x1="506.44" y1="23.5" x2="471.44" y2="44.5"/><g class="cls-7"><line class="cls-14" x1="498.44" y1="118.5" x2="457.44" y2="95.5"/><g class="cls-7"><line class="cls-14" x1="549.43" y1="58.5" x2="549.43" y2="106.5"/><g class="cls-7"><line class="cls-14" x1="463.44" y1="88.5" x2="463.44" y2="41.5"/><g class="cls-7"><line class="cls-14" x1="541.43" y1="103.5" x2="506.44" y2="123.5"/><g class="cls-7"><line class="cls-14" x1="515.44" y1="28.5" x2="555.43" y2="52.5"/><g class="cls-7"><polyline class="cls-14" points="491.44 125.25 491.44 125.25 482.44 123 475.69 118.5 468.94 112.5 462.94 106.5 458.44 99 455.44 90.75 452.44 82.5 452.44 74.25 452.44 74.25 452.44 68.25 453.94 63 454.69 57.75 456.94 52.5 461.44 43.5 468.19 35.25 476.44 28.5 485.44 23.25 490.69 21.75 495.19 21 501.19 20.25 506.44 19.5 506.44 51.75 525.18 63 525.18 63 487.69 84.75 487.69 84.75 506.44 96 506.44 127.5 506.44 127.5 512.44 127.5 517.69 126.75 522.94 125.25 528.18 123.75 537.18 118.5 544.68 112.5 552.18 103.5 555.93 94.5 558.93 90 559.68 84.75 560.43 78.75 560.43 74.25 560.43 74.25 560.43 64.5 558.18 56.25 554.43 48 549.18 40.5 543.93 34.5 537.18 28.5 529.68 24 521.44 21.75"/><g class="cls-7"><rect class="cls-3" x="469.94" y="401" width="2415.53" height="2758.27"/></g></g></g></g></g></g></g></g></g></g></g></g></g></g></g></g></g></g></g></g></g></g></g></g></g></g></g></g><polygon class="cls-4" points="0 0 754.91 0 754.91 682 0 682 0 0 0 0"/><polygon class="cls-5" points="85.99 491 661.92 491 661.92 662 85.99 662 85.99 491 85.99 491"/><polygon class="cls-6" points="85.99 491 661.92 491 661.92 662 85.99 662 85.99 491 85.99 491"/><g class="cls-7"><polygon class="cls-8" points="85.99 146 661.92 146 661.92 218 85.99 218 85.99 146 85.99 146"/><g class="cls-7"><polygon class="cls-8" points="85.99 229 661.92 229 661.92 301 85.99 301 85.99 229 85.99 229"/><g class="cls-7"><polygon class="cls-8" points="85.99 312 661.92 312 661.92 384 85.99 384 85.99 312 85.99 312"/><g class="cls-7"><g class="cls-7"><g class="cls-9"><path class="cls-10" d="M-786-567v66h-39v-66Zm3-3h-45v72h45v-72Zm24,3v66h-15v-66Zm3-3h-21v72h21v-72Z" transform="translate(1009.96 971)"/><path class="cls-11" d="M-786-567v66h-39v-66Zm3-3h-45v72h45v-72Zm24,3v66h-15v-66Zm3-3h-21v72h21v-72Z" transform="translate(1009.96 971)"/><path class="cls-10" d="M-792-558v12h-27v-12Zm3-3h-33v18h33v-18Zm24,0v3h-3v-3Zm3-3h-9v9h9v-9Zm-3,15v3h-3v-3Zm3-3h-9v9h9v-9Zm-3,15v3h-3v-3Zm3-3h-9v9h9v-9Zm-3,15v3h-3v-3Zm3-3h-9v9h9v-9Zm-3,15v3h-3v-3Zm3-3h-9v9h9v-9Z" transform="translate(1009.96 971)"/><path class="cls-11" d="M-792-558v12h-27v-12Zm3-3h-33v18h33v-18Zm24,0v3h-3v-3Zm3-3h-9v9h9v-9Zm-3,15v3h-3v-3Zm3-3h-9v9h9v-9Zm-3,15v3h-3v-3Zm3-3h-9v9h9v-9Zm-3,15v3h-3v-3Zm3-3h-9v9h9v-9Zm-3,15v3h-3v-3Zm3-3h-9v9h9v-9Z" transform="translate(1009.96 971)"/></g></g><g class="cls-7"><g class="cls-7"><g class="cls-12"><path class="cls-10" d="M-498-567v66h-39v-66Zm3-3h-45v72h45v-72Zm24,3v66h-15v-66Zm3-3h-21v72h21v-72Z" transform="translate(1009.96 971)"/><path class="cls-11" d="M-498-567v66h-39v-66Zm3-3h-45v72h45v-72Zm24,3v66h-15v-66Zm3-3h-21v72h21v-72Z" transform="translate(1009.96 971)"/><path class="cls-10" d="M-504-558v12h-27v-12Zm3-3h-33v18h33v-18Zm24,0v3h-3v-3Zm3-3h-9v9h9v-9Zm-3,15v3h-3v-3Zm3-3h-9v9h9v-9Zm-3,15v3h-3v-3Zm3-3h-9v9h9v-9Zm-3,15v3h-3v-3Zm3-3h-9v9h9v-9Zm-3,15v3h-3v-3Zm3-3h-9v9h9v-9Z" transform="translate(1009.96 971)"/><path class="cls-11" d="M-504-558v12h-27v-12Zm3-3h-33v18h33v-18Zm24,0v3h-3v-3Zm3-3h-9v9h9v-9Zm-3,15v3h-3v-3Zm3-3h-9v9h9v-9Zm-3,15v3h-3v-3Zm3-3h-9v9h9v-9Zm-3,15v3h-3v-3Zm3-3h-9v9h9v-9Zm-3,15v3h-3v-3Zm3-3h-9v9h9v-9Z" transform="translate(1009.96 971)"/></g></g><g class="cls-7"><polygon class="cls-13" points="541.93 563.46 541.93 563.46 541.93 562.54 541.37 561.31 539.28 559.46 535.68 557.77 531.32 556.08 526.02 554.85 519.77 553.92 513.33 553 505.94 553 498.55 553 492.11 553.92 485.86 554.85 480.55 556.08 476.19 557.77 472.59 559.46 470.51 561.31 469.94 562.54 469.94 563.46 469.94 580.54 469.94 581.46 470.51 582.69 472.59 584.54 476.19 586.23 480.55 587.92 485.86 589.15 492.11 590.08 498.55 591 505.94 591 513.33 591 519.77 590.08 526.02 589.15 531.32 587.92 535.68 586.23 539.28 584.54 541.37 582.69 541.93 581.46 541.93 580.54 541.93 563.46 541.93 563.46 541.93 563.46"/><g class="cls-7"><polyline class="cls-13" points="469.94 563 469.94 563 469.94 563.75 470.51 565.09 472.59 566.73 476.19 568.37 480.55 570.01 485.86 571.36 492.11 572.11 498.55 573 505.94 573 513.33 573 519.77 572.11 526.02 571.36 531.32 570.01 535.68 568.37 539.28 566.73 541.37 565.09 541.93 563.75 541.93 563"/><g class="cls-7"><polyline class="cls-13" points="469.94 587 469.94 597.42 469.94 598.36 470.51 599.6 472.59 601.47 476.19 603.18 480.55 604.89 485.86 606.13 492.11 607.07 498.55 608 505.94 608 513.33 608 519.77 607.07 526.02 606.13 531.32 604.89 535.68 603.18 539.28 601.47 541.37 599.6 541.93 598.36 541.93 597.42 541.93 587"/><g class="cls-7"><polyline class="cls-13" points="469.94 604 469.94 614.5 469.94 615.44 470.51 616.69 472.59 618.42 476.19 620.3 480.55 622.02 485.86 623.28 492.11 624.22 498.55 625 505.94 625 513.33 625 519.77 624.22 526.02 623.28 531.32 622.02 535.68 620.3 539.28 618.42 541.37 616.69 541.93 615.44 541.93 614.5 541.93 604"/><g class="cls-7"><polygon class="cls-13" points="253.97 563.46 253.97 563.46 253.97 562.54 253.4 561.31 251.32 559.46 247.72 557.77 243.36 556.08 238.06 554.85 231.8 553.92 225.36 553 217.97 553 210.59 553 204.14 553.92 197.89 554.85 192.59 556.08 188.23 557.77 184.63 559.46 182.55 561.31 181.98 562.54 181.98 563.46 181.98 580.54 181.98 581.46 182.55 582.69 184.63 584.54 188.23 586.23 192.59 587.92 197.89 589.15 204.14 590.08 210.59 591 217.97 591 225.36 591 231.8 590.08 238.06 589.15 243.36 587.92 247.72 586.23 251.32 584.54 253.4 582.69 253.97 581.46 253.97 580.54 253.97 563.46 253.97 563.46 253.97 563.46"/><g class="cls-7"><polyline class="cls-13" points="181.98 563 181.98 563 181.98 563.75 182.55 565.09 184.63 566.73 188.23 568.37 192.59 570.01 197.89 571.36 204.14 572.11 210.59 573 217.97 573 225.36 573 231.8 572.11 238.06 571.36 243.36 570.01 247.72 568.37 251.32 566.73 253.4 565.09 253.97 563.75 253.97 563"/><g class="cls-7"><polyline class="cls-13" points="181.98 587 181.98 597.42 181.98 598.36 182.55 599.6 184.63 601.47 188.23 603.18 192.59 604.89 197.89 606.13 204.14 607.07 210.59 608 217.97 608 225.36 608 231.8 607.07 238.06 606.13 243.36 604.89 247.72 603.18 251.32 601.47 253.4 599.6 253.97 598.36 253.97 597.42 253.97 587"/><g class="cls-7"><polyline class="cls-13" points="181.98 604 181.98 614.5 181.98 615.44 182.55 616.69 184.63 618.42 188.23 620.3 192.59 622.02 197.89 623.28 204.14 624.22 210.59 625 217.97 625 225.36 625 231.8 624.22 238.06 623.28 243.36 622.02 247.72 620.3 251.32 618.42 253.4 616.69 253.97 615.44 253.97 614.5 253.97 604"/><g class="cls-7"><line class="cls-14" x1="218.47" y1="23.5" x2="183.48" y2="44.5"/><g class="cls-7"><line class="cls-14" x1="210.47" y1="118.5" x2="169.48" y2="95.5"/><g class="cls-7"><line class="cls-14" x1="261.47" y1="58.5" x2="261.47" y2="106.5"/><g class="cls-7"><line class="cls-14" x1="175.48" y1="88.5" x2="175.48" y2="41.5"/><g class="cls-7"><line class="cls-14" x1="253.47" y1="103.5" x2="218.47" y2="123.5"/><g class="cls-7"><line class="cls-14" x1="227.47" y1="28.5" x2="267.47" y2="52.5"/><g class="cls-7"><polyline class="cls-14" points="203.47 125.25 203.47 125.25 194.48 123 187.73 118.5 180.98 112.5 174.98 106.5 170.48 99 167.48 90.75 164.48 82.5 164.48 74.25 164.48 74.25 164.48 68.25 165.98 63 166.73 57.75 168.98 52.5 173.48 43.5 180.23 35.25 188.48 28.5 197.48 23.25 202.72 21.75 207.22 21 213.22 20.25 218.47 19.5 218.47 51.75 237.22 63 237.22 63 199.72 84.75 199.72 84.75 218.47 96 218.47 127.5 218.47 127.5 224.47 127.5 229.72 126.75 234.97 125.25 240.22 123.75 249.22 118.5 256.72 112.5 264.22 103.5 267.97 94.5 270.97 90 271.72 84.75 272.47 78.75 272.47 74.25 272.47 74.25 272.47 64.5 270.22 56.25 266.47 48 261.22 40.5 255.97 34.5 249.22 28.5 241.72 24 233.47 21.75"/><g class="cls-7"><line class="cls-14" x1="506.44" y1="23.5" x2="471.44" y2="44.5"/><g class="cls-7"><line class="cls-14" x1="498.44" y1="118.5" x2="457.44" y2="95.5"/><g class="cls-7"><line class="cls-14" x1="549.43" y1="58.5" x2="549.43" y2="106.5"/><g class="cls-7"><line class="cls-14" x1="463.44" y1="88.5" x2="463.44" y2="41.5"/><g class="cls-7"><line class="cls-14" x1="541.43" y1="103.5" x2="506.44" y2="123.5"/><g class="cls-7"><line class="cls-14" x1="515.44" y1="28.5" x2="555.43" y2="52.5"/><g class="cls-7"><polyline class="cls-14" points="491.44 125.25 491.44 125.25 482.44 123 475.69 118.5 468.94 112.5 462.94 106.5 458.44 99 455.44 90.75 452.44 82.5 452.44 74.25 452.44 74.25 452.44 68.25 453.94 63 454.69 57.75 456.94 52.5 461.44 43.5 468.19 35.25 476.44 28.5 485.44 23.25 490.69 21.75 495.19 21 501.19 20.25 506.44 19.5 506.44 51.75 525.18 63 525.18 63 487.69 84.75 487.69 84.75 506.44 96 506.44 127.5 506.44 127.5 512.44 127.5 517.69 126.75 522.94 125.25 528.18 123.75 537.18 118.5 544.68 112.5 552.18 103.5 555.93 94.5 558.93 90 559.68 84.75 560.43 78.75 560.43 74.25 560.43 74.25 560.43 64.5 558.18 56.25 554.43 48 549.18 40.5 543.93 34.5 537.18 28.5 529.68 24 521.44 21.75"/><g class="cls-7"><rect class="cls-3" x="469.94" y="401" width="2415.53" height="2758.27"/></g></g></g></g></g></g></g></g></g></g></g></g></g></g></g></g></g></g></g></g></g></g></g></g></g></g></g></g><polygon class="cls-4" points="1133.96 1077 1778.73 1077 1778.73 1676 1133.96 1676 1133.96 1077 1133.96 1077"/><polygon class="cls-5" points="1207.4 1496.37 1699.31 1496.37 1699.31 1670 1207.4 1670 1207.4 1496.37 1207.4 1496.37"/><polygon class="cls-6" points="1207.4 1496.37 1699.31 1496.37 1699.31 1669 1207.4 1669 1207.4 1496.37 1207.4 1496.37"/><g class="cls-15"><polygon class="cls-8" points="1207.4 1201.7 1699.31 1201.7 1699.31 1263.2 1207.4 1263.2 1207.4 1201.7 1207.4 1201.7"/><g class="cls-15"><polygon class="cls-8" points="1207.4 1272.59 1699.31 1272.59 1699.31 1334.09 1207.4 1334.09 1207.4 1272.59 1207.4 1272.59"/><g class="cls-15"><polygon class="cls-8" points="1207.4 1343.48 1699.31 1343.48 1699.31 1404.98 1207.4 1404.98 1207.4 1343.48 1207.4 1343.48"/><g class="cls-15"><g class="cls-15"><g class="cls-16"><path class="cls-10" d="M315.31,451.06v56.4H282v-56.4Zm2.56-2.56H279.43V510h38.44V448.5Zm20.51,2.56v56.4H325.56v-56.4Zm2.56-2.56H323V510h17.94V448.5Z" transform="translate(1009.96 971)"/><path class="cls-11" d="M315.31,451.06v56.4H282v-56.4Zm2.56-2.56H279.43V510h38.44V448.5Zm20.51,2.56v56.4H325.56v-56.4Zm2.56-2.56H323V510h17.94V448.5Z" transform="translate(1009.96 971)"/><path class="cls-11" d="M310.18,458.75V469H287.12V458.75Zm2.57-2.56h-28.2v15.38h28.2V456.19Zm20.5,0v2.56h-2.56v-2.56Zm2.56-2.57h-7.69v7.7h7.69v-7.7Zm-2.56,12.82V469h-2.56v-2.57Zm2.56-2.56h-7.69v7.69h7.69v-7.69Zm-2.56,12.82v2.56h-2.56V476.7Zm2.56-2.57h-7.69v7.69h7.69v-7.69ZM333.25,487v2.56h-2.56V487Zm2.56-2.56h-7.69v7.69h7.69v-7.69Zm-2.56,12.81v2.57h-2.56V497.2Zm2.56-2.56h-7.69v7.69h7.69v-7.69Z" transform="translate(1009.96 971)"/></g></g><g class="cls-15"><g class="cls-15"><g class="cls-17"><path class="cls-10" d="M561.26,451.06v56.4H527.94v-56.4Zm2.57-2.56H525.38V510h38.45V448.5Zm20.5,2.56v56.4H571.51v-56.4Zm2.56-2.56H569V510h17.94V448.5Z" transform="translate(1009.96 971)"/><path class="cls-11" d="M561.26,451.06v56.4H527.94v-56.4Zm2.57-2.56H525.38V510h38.45V448.5Zm20.5,2.56v56.4H571.51v-56.4Zm2.56-2.56H569V510h17.94V448.5Z" transform="translate(1009.96 971)"/><path class="cls-10" d="M556.14,458.75V469H533.07V458.75Zm2.56-2.56H530.51v15.38H558.7V456.19Zm20.5,0v2.56h-2.56v-2.56Zm2.57-2.57h-7.69v7.7h7.69v-7.7Zm-2.57,12.82V469h-2.56v-2.57Zm2.57-2.56h-7.69v7.69h7.69v-7.69ZM579.2,476.7v2.56h-2.56V476.7Zm2.57-2.57h-7.69v7.69h7.69v-7.69ZM579.2,487v2.56h-2.56V487Zm2.57-2.56h-7.69v7.69h7.69v-7.69ZM579.2,497.2v2.57h-2.56V497.2Zm2.57-2.56h-7.69v7.69h7.69v-7.69Z" transform="translate(1009.96 971)"/><path class="cls-11" d="M556.14,458.75V469H533.07V458.75Zm2.56-2.56H530.51v15.38H558.7V456.19Zm20.5,0v2.56h-2.56v-2.56Zm2.57-2.57h-7.69v7.7h7.69v-7.7Zm-2.57,12.82V469h-2.56v-2.57Zm2.57-2.56h-7.69v7.69h7.69v-7.69ZM579.2,476.7v2.56h-2.56V476.7Zm2.57-2.57h-7.69v7.69h7.69v-7.69ZM579.2,487v2.56h-2.56V487Zm2.57-2.56h-7.69v7.69h7.69v-7.69ZM579.2,497.2v2.57h-2.56V497.2Zm2.57-2.56h-7.69v7.69h7.69v-7.69Z" transform="translate(1009.96 971)"/></g></g><g class="cls-15"><polygon class="cls-13" points="1596.83 1558.26 1596.83 1558.26 1596.83 1557.47 1596.34 1556.42 1594.56 1554.84 1591.49 1553.4 1587.77 1551.95 1583.24 1550.9 1577.9 1550.11 1572.39 1549.32 1566.09 1549.32 1559.77 1549.32 1554.27 1550.11 1548.93 1550.9 1544.4 1551.95 1540.68 1553.4 1537.61 1554.84 1535.83 1556.42 1535.34 1557.47 1535.34 1558.26 1535.34 1572.84 1535.34 1573.63 1535.83 1574.68 1537.61 1576.26 1540.68 1577.7 1544.4 1579.15 1548.93 1580.2 1554.27 1580.99 1559.77 1581.78 1566.09 1581.78 1572.39 1581.78 1577.9 1580.99 1583.24 1580.2 1587.77 1579.15 1591.49 1577.7 1594.56 1576.26 1596.34 1574.68 1596.83 1573.63 1596.83 1572.84 1596.83 1558.26 1596.83 1558.26 1596.83 1558.26"/><g class="cls-15"><polyline class="cls-13" points="1535.34 1557.86 1535.34 1557.86 1535.34 1558.5 1535.83 1559.65 1537.61 1561.05 1540.68 1562.45 1544.4 1563.86 1548.93 1565 1554.27 1565.64 1559.77 1566.4 1566.09 1566.4 1572.39 1566.4 1577.9 1565.64 1583.24 1565 1587.77 1563.86 1591.49 1562.45 1594.56 1561.05 1596.34 1559.65 1596.83 1558.5 1596.83 1557.86"/><g class="cls-15"><polyline class="cls-13" points="1535.34 1578.36 1535.34 1587.26 1535.34 1588.06 1535.83 1589.12 1537.61 1590.72 1540.68 1592.18 1544.4 1593.64 1548.93 1594.7 1554.27 1595.5 1559.77 1596.3 1566.09 1596.3 1572.39 1596.3 1577.9 1595.5 1583.24 1594.7 1587.77 1593.64 1591.49 1592.18 1594.56 1590.72 1596.34 1589.12 1596.83 1588.06 1596.83 1587.26 1596.83 1578.36"/><g class="cls-15"><polyline class="cls-13" points="1535.34 1592.88 1535.34 1601.85 1535.34 1602.65 1535.83 1603.72 1537.61 1605.2 1540.68 1606.8 1544.4 1608.28 1548.93 1609.35 1554.27 1610.15 1559.77 1610.82 1566.09 1610.82 1572.39 1610.82 1577.9 1610.15 1583.24 1609.35 1587.77 1608.28 1591.49 1606.8 1594.56 1605.2 1596.34 1603.72 1596.83 1602.65 1596.83 1601.85 1596.83 1592.88"/><g class="cls-15"><polygon class="cls-13" points="1350.88 1558.26 1350.88 1558.26 1350.88 1557.47 1350.39 1556.42 1348.61 1554.84 1345.54 1553.4 1341.81 1551.95 1337.28 1550.9 1331.94 1550.11 1326.44 1549.32 1320.13 1549.32 1313.82 1549.32 1308.32 1550.11 1302.98 1550.9 1298.45 1551.95 1294.73 1553.4 1291.65 1554.84 1289.87 1556.42 1289.39 1557.47 1289.39 1558.26 1289.39 1572.84 1289.39 1573.63 1289.87 1574.68 1291.65 1576.26 1294.73 1577.7 1298.45 1579.15 1302.98 1580.2 1308.32 1580.99 1313.82 1581.78 1320.13 1581.78 1326.44 1581.78 1331.94 1580.99 1337.28 1580.2 1341.81 1579.15 1345.54 1577.7 1348.61 1576.26 1350.39 1574.68 1350.88 1573.63 1350.88 1572.84 1350.88 1558.26 1350.88 1558.26 1350.88 1558.26"/><g class="cls-15"><polyline class="cls-13" points="1289.39 1557.86 1289.39 1557.86 1289.39 1558.5 1289.87 1559.65 1291.65 1561.05 1294.73 1562.45 1298.45 1563.86 1302.98 1565 1308.32 1565.64 1313.82 1566.4 1320.13 1566.4 1326.44 1566.4 1331.94 1565.64 1337.28 1565 1341.81 1563.86 1345.54 1562.45 1348.61 1561.05 1350.39 1559.65 1350.88 1558.5 1350.88 1557.86"/><g class="cls-15"><polyline class="cls-13" points="1289.39 1578.36 1289.39 1587.26 1289.39 1588.06 1289.87 1589.12 1291.65 1590.72 1294.73 1592.18 1298.45 1593.64 1302.98 1594.7 1308.32 1595.5 1313.82 1596.3 1320.13 1596.3 1326.44 1596.3 1331.94 1595.5 1337.28 1594.7 1341.81 1593.64 1345.54 1592.18 1348.61 1590.72 1350.39 1589.12 1350.88 1588.06 1350.88 1587.26 1350.88 1578.36"/><g class="cls-15"><polyline class="cls-13" points="1289.39 1592.88 1289.39 1601.85 1289.39 1602.65 1289.87 1603.72 1291.65 1605.2 1294.73 1606.8 1298.45 1608.28 1302.98 1609.35 1308.32 1610.15 1313.82 1610.82 1320.13 1610.82 1326.44 1610.82 1331.94 1610.15 1337.28 1609.35 1341.81 1608.28 1345.54 1606.8 1348.61 1605.2 1350.39 1603.72 1350.88 1602.65 1350.88 1601.85 1350.88 1592.88"/><g class="cls-15"><line class="cls-14" x1="1320.56" y1="1097.07" x2="1290.67" y2="1115.01"/><g class="cls-15"><line class="cls-14" x1="1313.73" y1="1178.21" x2="1278.71" y2="1158.57"/><g class="cls-15"><line class="cls-14" x1="1357.28" y1="1126.97" x2="1357.28" y2="1167.96"/><g class="cls-15"><line class="cls-14" x1="1283.84" y1="1152.59" x2="1283.84" y2="1112.45"/><g class="cls-15"><line class="cls-14" x1="1350.45" y1="1165.4" x2="1320.56" y2="1182.48"/><g class="cls-15"><line class="cls-14" x1="1328.24" y1="1101.34" x2="1362.4" y2="1121.84"/><g class="cls-15"><polyline class="cls-14" points="1307.75 1183.98 1307.75 1183.98 1300.06 1182.06 1294.3 1178.21 1288.53 1173.09 1283.41 1167.96 1279.57 1161.56 1277.01 1154.51 1274.44 1147.46 1274.44 1140.42 1274.44 1140.42 1274.44 1135.29 1275.72 1130.81 1276.36 1126.33 1278.29 1121.84 1282.13 1114.15 1287.89 1107.11 1294.94 1101.34 1302.63 1096.86 1307.11 1095.58 1310.95 1094.94 1316.08 1094.3 1320.56 1093.65 1320.56 1121.2 1336.57 1130.81 1336.57 1130.81 1304.55 1149.39 1304.55 1149.39 1320.56 1158.99 1320.56 1185.9 1320.56 1185.9 1325.68 1185.9 1330.17 1185.26 1334.65 1183.98 1339.13 1182.7 1346.82 1178.21 1353.22 1173.09 1359.63 1165.4 1362.83 1157.71 1365.39 1153.87 1366.03 1149.39 1366.67 1144.26 1366.67 1140.42 1366.67 1140.42 1366.67 1132.09 1364.75 1125.04 1361.55 1118 1357.07 1111.59 1352.58 1106.47 1346.82 1101.34 1340.41 1097.5 1333.37 1095.58"/><g class="cls-15"><line class="cls-14" x1="1566.51" y1="1097.07" x2="1536.62" y2="1115.01"/><g class="cls-15"><line class="cls-14" x1="1559.68" y1="1178.21" x2="1524.67" y2="1158.57"/><g class="cls-15"><line class="cls-14" x1="1603.23" y1="1126.97" x2="1603.23" y2="1167.96"/><g class="cls-15"><line class="cls-14" x1="1529.79" y1="1152.59" x2="1529.79" y2="1112.45"/><g class="cls-15"><line class="cls-14" x1="1596.4" y1="1165.4" x2="1566.51" y2="1182.48"/><g class="cls-15"><line class="cls-14" x1="1574.2" y1="1101.34" x2="1608.36" y2="1121.84"/><g class="cls-15"><polyline class="cls-14" points="1553.7 1183.98 1553.7 1183.98 1546.02 1182.06 1540.25 1178.21 1534.49 1173.09 1529.36 1167.96 1525.52 1161.56 1522.96 1154.51 1520.4 1147.46 1520.4 1140.42 1520.4 1140.42 1520.4 1135.29 1521.68 1130.81 1522.32 1126.33 1524.24 1121.84 1528.08 1114.15 1533.85 1107.11 1540.89 1101.34 1548.58 1096.86 1553.06 1095.58 1556.9 1094.94 1562.03 1094.3 1566.51 1093.65 1566.51 1121.2 1582.52 1130.81 1582.52 1130.81 1550.5 1149.39 1550.5 1149.39 1566.51 1158.99 1566.51 1185.9 1566.51 1185.9 1571.64 1185.9 1576.12 1185.26 1580.6 1183.98 1585.09 1182.7 1592.77 1178.21 1599.18 1173.09 1605.58 1165.4 1608.79 1157.71 1611.35 1153.87 1611.99 1149.39 1612.63 1144.26 1612.63 1140.42 1612.63 1140.42 1612.63 1132.09 1610.71 1125.04 1607.5 1118 1603.02 1111.59 1598.54 1106.47 1592.77 1101.34 1586.37 1097.5 1579.32 1095.58"/></g></g></g></g></g></g></g></g></g></g></g></g></g></g></g></g></g></g></g></g></g></g></g></g></g></g></g><path class="cls-5" d="M241.46,57.34h-2A30.38,30.38,0,0,0,226.7,32.65,30.72,30.72,0,0,0,199,28.8a36.38,36.38,0,0,0-68.77,16.39v.41A30.4,30.4,0,0,0,97.84,88.5a30.93,30.93,0,0,0,26.09,17.41v.2H241.26a24.36,24.36,0,0,0,24.28-24.29c0-13.35-10.73-24.48-24.08-24.48Z" transform="translate(1009.96 971)"/><path class="cls-18" d="M241.46,57.34h-2A30.38,30.38,0,0,0,226.7,32.65,30.72,30.72,0,0,0,199,28.8a36.38,36.38,0,0,0-68.77,16.39v.41A30.4,30.4,0,0,0,97.84,88.5a30.93,30.93,0,0,0,26.09,17.41v.2H241.26a24.36,24.36,0,0,0,24.28-24.29c0-13.35-10.73-24.48-24.08-24.48Z" transform="translate(1009.96 971)"/><text class="cls-19" transform="translate(1131.96 1050.04)">IBM Cloud</text><text class="cls-20" transform="translate(1376.29 1244.04)">V<tspan class="cls-21" x="13.39" y="0">M</tspan><tspan class="cls-22" x="32.86" y="0">w</tspan><tspan x="50.42" y="0">a</tspan><tspan class="cls-23" x="61.99" y="0">r</tspan><tspan x="69.6" y="0">e NSX</tspan></text><text class="cls-20" transform="translate(1359.29 1315.04)">V<tspan class="cls-21" x="13.39" y="0">M</tspan><tspan class="cls-22" x="32.86" y="0">w</tspan><tspan x="50.42" y="0">a</tspan><tspan class="cls-23" x="61.99" y="0">r</tspan><tspan x="69.6" y="0">e v</tspan><tspan class="cls-24" x="98.25" y="0">C</tspan><tspan x="111.91" y="0">e</tspan><tspan class="cls-25" x="123.93" y="0">n</tspan><tspan class="cls-26" x="137.16" y="0">t</tspan><tspan x="144.96" y="0">er</tspan></text><text class="cls-20" transform="translate(1356.29 1382.04)">V<tspan class="cls-21" x="13.39" y="0">M</tspan><tspan class="cls-22" x="32.86" y="0">w</tspan><tspan x="50.42" y="0">a</tspan><tspan class="cls-23" x="61.99" y="0">r</tspan><tspan x="69.6" y="0">e vSphe</tspan><tspan class="cls-27" x="149.09" y="0">r</tspan><tspan x="156.69" y="0">e</tspan></text><text class="cls-28" transform="translate(1271.61 1632.78)"><tspan class="cls-24">C</tspan><tspan x="10.24" y="0">ompa</tspan><tspan class="cls-29" x="54.05" y="0">r</tspan><tspan x="60.37" y="0">tición </tspan><tspan x="-4.92" y="21.6">NFS de gestión</tspan></text><text class="cls-28" transform="translate(1494.96 1633.78)"><tspan class="cls-24">C</tspan><tspan x="10.24" y="0">ompa</tspan><tspan class="cls-29" x="54.05" y="0">r</tspan><tspan x="60.37" y="0">tición NFS</tspan><tspan x="-28.86" y="21.6">especificada por el clie</tspan><tspan class="cls-30" x="140.07" y="21.6">n</tspan><tspan class="cls-31" x="149.98" y="21.6">t</tspan><tspan x="155.83" y="21.6">e</tspan></text><line class="cls-3" x1="1319.96" y1="1549" x2="1319.96" y2="1478"/><line class="cls-32" x1="1319.96" y1="1481" x2="1319.96" y2="1548"/><line class="cls-32" x1="1564.96" y1="1481" x2="1564.96" y2="1548"/><line class="cls-32" x1="1327.96" y1="1481" x2="1550.96" y2="1550"/><line class="cls-32" x1="1331.96" y1="1550" x2="1553.96" y2="1481"/><text class="cls-19" transform="translate(1295.96 1134.04)">F</text><text class="cls-19" transform="translate(1329.96 1159.04)">V</text><text class="cls-19" transform="translate(1575.96 1159.04)">V</text><text class="cls-19" transform="translate(1543.96 1134.04)">F</text></svg>
