<svg id="Layer_1" data-name="Layer 1" xmlns="http://www.w3.org/2000/svg" viewBox="0 0 711 396.79"><defs><style>.cls-1{fill:#606060;opacity:0.5;}.cls-1,.cls-4,.cls-8{isolation:isolate;}.cls-2{fill:#5b9bd5;}.cls-11,.cls-12,.cls-13,.cls-3,.cls-6,.cls-7{fill:none;}.cls-4{font-size:18px;font-family:IBMPlexSans, IBMPlexSans;}.cls-5{letter-spacing:-0.01em;}.cls-6,.cls-7{stroke:aqua;}.cls-11,.cls-12,.cls-13,.cls-6,.cls-7{stroke-miterlimit:8;stroke-width:2px;}.cls-7{stroke-dasharray:10.64 10.64;}.cls-9{letter-spacing:0em;}.cls-10{letter-spacing:0em;}.cls-11{stroke:#29abe2;}.cls-12{stroke:#39b54a;}.cls-13{stroke:#8cc63f;}</style></defs><title>physical_nic_connection</title><polygon class="cls-1" points="234.4 273.39 426.9 273.39 426.9 341.99 234.4 341.99 234.4 273.39"/><path class="cls-2" d="M462.1,90.1l-.1-.8-.2-.8-.1-.8-.3-.7-.3-.8-.2-.7-.3-.7-.3-.8-.4-.6-.4-.6-.4-.6-.4-.5-.5-.6-.5-.5-.5-.6-.6-.5-.5-.5-.6-.4-.6-.4-.6-.4-.6-.4L453,77l-.7-.3-.7-.3-.8-.3-.7-.3-.8-.2-.8-.2-.8-.1-.8-.2L446,75h-.8l-.5-.9-.5-.9-.5-.8-.6-.9-1.2-1.6-1.3-1.4-1.4-1.3L437.6,66l-1.5-1.1-1.7-1-1.7-.9-1.7-.8-1.9-.7-1.9-.5-1.9-.5-1.9-.3-1-.1-1-.1-1.1-.1H418l-1.4.2-1.4.1-1.4.3-1.3.3-1.3.4-1.3.4-1.3.5-1.3.5-1.2.6-1.2.6-1.1.7-1.2.7-1.1.8-1,.9-1,.9-1.1.9-.9,1-.9,1-.9,1.1-.8,1-.8,1.1-.7,1.1-.6,1.2-.5,1.2-.6,1.2-.5,1.3-.4,1.3-.4,1.3-.3,1.3-.3,1.3-.3,1.4-1,.3-1,.4-1,.3-1,.5-1,.4-1,.4-.9.6-.9.5-.9.6-.9.6-.8.7-.8.6-.8.8-.5.8-.7.8-.8.8-.5.9-.6.8-.6.9-.5.9-.4,1-.4,1-.5,1-.4,1-.3,1-.3,1-.3,1-.2,1.1-.2,1.1-.1,1.1-.1,1.1v2.4l.1,1.3.2,1.3.2,1.3.3,1.2.4,1.2.4,1.2.5,1.1.5,1.2.6,1.1.6,1.1.6,1,.8,1,.8,1,.8,1,.9.9.9.9,1,.9,1,.8,1,.7,1.1.6,1.1.6,1.1.6,1.2.5,1.1.5,1.2.4,1.2.4,1.2.3,1.3.3,1.3.1,1.3.1h14.6l.4-.1.3-.2.3-.2.3-.3.2-.4.1-.4.1-.4v-15l-.1-.4-.1-.4-.2-.4-.3-.3-.3-.2-.3-.2-.4-.1-.4-.1h-4.4l12.9-17.8,12.9,17.8h-4.3l-.4.1-.4.1-.4.2-.3.2-.2.3-.2.4-.1.4V148h-6.5l-.3.1-.3.1-.3.1-.2.1-.3.2-.2.2-.2.3-.2.3-.1.3-.1.3-.1.3v.3l.1.3.1.3.1.3.2.3L433,175.4l.3.4.4.3.5.2.5.1.5-.1.4-.2.4-.3.4-.4,17.1-23.6.2-.3.1-.3.1-.3.1-.3v-.3l-.1-.3-.1-.3-.1-.3-.2-.3-.2-.3-.3-.2-.2-.2-.2-.1-.3-.1-.3-.1-.3-.1h-6.4V137.3h16.2l1.1-.1,1.2-.1,1.2-.2,1.1-.3,1.1-.3,1.1-.4,1.1-.4,1-.5,1-.5,1-.6,1-.6,1-.6.9-.7.8-.7.9-.9.8-.8.8-.9.6-.9.7-.9.6-1,.5-1,.5-1,.5-1.1.4-1.1.4-1.1.3-1.2.3-1.1.2-1.2.2-1.2.1-1.2.1-1.2-.1-1.1-.1-1.2-.2-1.1-.2-1.2-.3-1.1-.3-1-.3-1-.4-1-.4-1-.5-1-.5-1-.6-1-.6-.9-.6-.9-.7-.8-.7-.9-.8-.8-.8-.7-.8-.7-.9-.6-.8-.6-.9-.6-1-.6-1-.5-1-.5-1-.4-1-.3-1-.3-1.1-.3-1.1-.2-1.1-.2-1.1.1Zm-2,42.9H443l-.5.1-.4.2-.3.2-.3.3-.3.3-.2.4-.2.4-.1.4v15l.1.4.2.4.2.4.3.3.3.2.3.2.4.1h4.8l-13,17.9-12.9-17.9h4.8l.4-.1.4-.2.3-.2.3-.3.2-.4.2-.4V122.4h6.7l.3-.1.3-.1.3-.1.3-.2.2-.2.2-.3.2-.3.1-.3.2-.3v-.6l-.1-.2-.1-.3-.1-.3-.1-.3L419,95.2l-.3-.3-.4-.3-.5-.2h-1l-.5.2-.4.3-.4.3-17.2,23.6-.2.3-.1.3-.1.3v.8l.1.3.2.3.2.3.2.3.2.2.2.2.3.1.3.1.3.1h6.7V133H394.8l-1.1-.1-1.1-.1-1-.2-1-.3-1-.3-1-.3-1-.4-1-.4-.9-.5-.9-.5-.9-.6-.9-.6-.8-.6-.9-.6-.7-.8-.6-.7-.7-.8-.6-.9-.6-.9-.6-.9-.5-.9-.5-.9-.4-1-.4-1-.3-1-.3-1-.2-1.1-.2-1-.2-1.1-.1-1.1v-2.1l.1-1,.1-1,.2-.9.2-1,.2-.9.3-.9.3-.9.4-.9.3-.8.4-.9.5-.8.4-.9.5-.7.5-.8.6-.7.6-.7.6-.6.6-.6.7-.6.7-.6.7-.5.8-.5.8-.5.9-.4.8-.4.9-.4.9-.4.9-.3.9-.2,1-.3.9-.2.4-.1.3-.1.2.2.3-.3.2-.3.1-.3.2-.4.1-.3.1-1.3V86l.3-1.2.2-1.2.3-1.1.5-1.2.4-1.1.5-1.1.5-1.1.6-1,.6-1,.7-1,.7-1,.8-.9.8-.9.9-.8.8-.9,1-.7,1-.8,1-.6,1-.6,1-.6,1.1-.5,1.1-.5,1.2-.4,1.1-.4,1.2-.3,1.2-.3,1.2-.2,1.3-.1,1.2-.1h1.3l1.8.1,1.7.2,1.8.3,1.7.4,1.7.5,1.6.6,1.6.8,1.4.9,1.5,1,1.3,1,1.3,1.2,1.2,1.2,1.1,1.3,1.1,1.5,1,1.5.9,1.6.2.3.2.2.3.3.3.2.3.1.3.1h2l.6.1.6.1.6.1,1.2.3,1.2.4,1.1.6,1.1.6,1,.8,1,.9.9.9.7,1,.6,1.1.5,1.1.4,1.2.3,1.2.1.6.1.6.1.6.1.6v.4l.1.4.2.4.2.3.3.3.4.2.4.1.4.1h1l1,.1,1,.1.9.2,1,.2.9.3.9.3.9.3.9.4.8.4.9.5.8.5.8.6.8.6.7.6.7.6.6.6.6.7.5.8.5.7.5.9.5.8.4.9.4.9.4.9.2.9.3,1,.3.9.1,1,.2,1,.1,1,.1,1-.1,1-.1,1-.2,1-.1,1-.3,1-.3.9-.2.9-.4.9-.4.9-.4.8-.5.9-.5.8-.5.8-.7-.3-.6.7-.6.6-.7.6-.7.6-.8.6-.8.5-.8.5-.9.4-.8.5-.9.4-.9.3-.9.3-.9.3-1,.2-.9.2-1,.1-1,.1h-.7v.1Z" transform="translate(-84 -13.71)"/><polygon class="cls-1" points="314.25 342.04 333.15 342.04 333.15 362.91 314.25 362.91 314.25 342.04"/><polygon class="cls-1" points="365.49 250.69 385.29 250.69 385.29 273.41 365.49 273.41 365.49 250.69"/><polygon class="cls-1" points="313.93 250.35 333.73 250.35 333.73 273.37 313.93 273.37 313.93 250.35"/><polygon class="cls-1" points="365.49 342.04 385.29 342.04 385.29 363.29 365.49 363.29 365.49 342.04"/><path class="cls-2" d="M737.7,191.1l-.1-.8-.2-.8-.1-.8-.3-.7-.3-.8-.2-.7-.3-.7-.3-.8-.4-.6-.4-.6-.4-.6-.4-.5-.5-.6-.5-.5-.5-.6-.6-.5-.5-.5-.6-.4-.6-.4-.6-.4-.6-.4-.7-.4-.7-.3-.7-.3-.8-.3-.7-.3-.8-.2-.8-.2-.8-.1-.8-.2-.9-.1h-.8l-.5-.9-.5-.9-.5-.8-.6-.9-1.2-1.6-1.3-1.4-1.4-1.3-1.6-1.2-1.5-1.1-1.7-1-1.7-.9-1.7-.8-1.9-.7-1.9-.5-1.9-.5-1.9-.3-1-.1-1-.1-1.1-.1h-2.3l-1.4.2-1.4.1-1.4.3-1.3.3-1.3.4-1.3.4-1.3.5-1.3.5-1.2.6-1.2.6-1.1.7-1.2.7-1.1.8-1,.9-1,.9-1.1.9-.9,1-.9,1-.9,1.1-.8,1-.8,1.1L669,176l-.6,1.2-.5,1.2-.6,1.2-.5,1.3-.4,1.3-.4,1.3-.3,1.3-.3,1.3-.3,1.4-1,.3-1,.4-1,.3-1,.5-1,.4-1,.4-.9.6-.9.5-.9.6-.9.6-.8.7-.8.6-.8.8-.7.8-.7.8-.8.8-.5.9-.6.8-.6.9-.5.9-.4,1-.4,1-.5,1-.4,1-.3,1-.3,1-.3,1-.2,1.1-.2,1.1-.1,1.1-.1,1.1v2.4l.1,1.3.2,1.3.2,1.3.3,1.2.4,1.2.4,1.2.5,1.1.5,1.2.6,1.1.6,1.1.6,1,.8,1,.8,1,.8,1,.9.9.9.9,1,.9,1,.8,1,.7,1.1.6,1.1.6,1.1.6,1.2.5,1.1.5,1.2.4,1.2.4,1.2.3,1.3.3,1.3.1,1.3.1h14.6l.4-.1.3-.2.3-.2.3-.3.2-.4.1-.4.1-.4v-15l-.1-.4-.1-.4-.2-.4-.3-.3-.3-.2-.3-.2-.4-.1-.4-.1H680l12.9-17.8,12.9,17.8h-4.3l-.4.1-.4.1-.4.2-.3.2-.2.3-.2.4-.1.4V249H693l-.3.1-.3.1-.3.1-.2.1-.3.2-.2.2-.2.3-.2.3-.1.3-.1.3-.1.3v.3l.1.3.1.3.1.3.2.3,17.2,23.6.3.4.4.3.5.2.5.1.5-.1.4-.2.4-.3.4-.4,17.1-23.6.2-.3.1-.3.1-.3.1-.3v-.3l-.1-.3-.1-.3-.1-.3-.2-.3-.2-.3-.3-.2-.2-.2-.2-.1-.3-.1-.3-.1-.3-.1h-6.4V238.3h16.2l1.1-.1,1.2-.1,1.2-.2,1.1-.3,1.1-.3,1.1-.4,1.1-.4,1-.5,1-.5,1-.6,1-.6,1-.6.9-.7.8-.7.9-.9.8-.8.8-.9.6-.9.7-.9.6-1,.5-1,.5-1,.5-1.1.4-1.1.4-1.1.3-1.2.3-1.1.2-1.2.2-1.2.1-1.2.1-1.2-.1-1.1-.1-1.2-.2-1.1-.2-1.2-.3-1.1-.3-1-.3-1-.4-1-.4-1-.5-1-.5-1-.6-1-.6-.9-.6-.9-.7-.8-.7-.9-.8-.8-.8-.7-.8-.7-.9-.6-.8-.6-.9-.6-1-.6-1-.5-1-.5-1-.4-1-.3-1-.3-1.1-.3-1.1-.2-1.1-.2Zm-2,42.9H718.6l-.5.1-.4.2-.3.2-.3.3-.3.3-.2.4-.2.4-.1.4v15l.1.4.2.4.2.4.3.3.3.2.3.2.4.1h4.8l-13,17.9L697,253.3h4.8l.4-.1.4-.2.3-.2.3-.3.2-.4.2-.4V223.4h6.7l.3-.1.3-.1.3-.1.3-.2.2-.2.2-.3.2-.3.1-.3.2-.3v-.6l-.1-.2-.1-.3-.1-.3-.1-.3-17.2-23.6-.3-.3-.4-.3-.5-.2h-1l-.5.2-.4.3-.4.3-17.2,23.6-.2.3-.1.3-.1.3v.8l.1.3.2.3.2.3.2.3.2.2.2.2.3.1.3.1.3.1h6.7V234H670.6l-1.1-.1-1.1-.1-1-.2-1-.3-1-.3-1-.3-1-.4-1-.4-.9-.5-.9-.5-.9-.6-.9-.6-.8-.6-.9-.6-.7-.8-.7-.7-.7-.8-.6-.9-.6-.9-.6-.9-.5-.9-.5-.9-.4-1-.4-1-.3-1-.3-1-.2-1.1-.2-1-.2-1.1-.1-1.1v-2.1l.1-1,.1-1,.2-.9.2-1,.2-.9.3-.9.3-.9.4-.9.3-.8.4-.9.5-.8.4-.9.5-.7.5-.8.6-.7.6-.7.6-.6.6-.6.7-.6.7-.6.7-.5.8-.5.8-.5.9-.4.8-.4.9-.4.9-.4.9-.3.9-.2,1-.3.9-.2.4-.1.3-.1.3-.2.3-.3.2-.3.1-.3.2-.4.1-.3.1-1.3.2-1.2.3-1.2.2-1.2.3-1.1.5-1.2.4-1.1.5-1.1.5-1.1.6-1,.6-1,.7-1,.7-1,.8-.9.8-.9.9-.8.8-.9,1-.7,1-.8,1-.6,1-.6,1-.6,1.1-.5,1.1-.5,1.2-.4,1.1-.4,1.2-.3,1.2-.3,1.2-.2,1.3-.1,1.2-.1h1.3l1.8.1,1.7.2,1.8.3,1.7.4,1.7.5,1.6.6,1.6.8,1.4.9,1.5,1,1.3,1,1.3,1.2,1.2,1.2,1.1,1.3,1.1,1.5,1,1.5.9,1.6.2.3.2.2.3.3.3.2.3.1.3.1h2l.6.1.6.1.6.1,1.2.3,1.2.4,1.1.6,1.1.6,1,.8,1,.9.9.9.7,1,.6,1.1.5,1.1.4,1.2.3,1.2.1.6.1.6.1.6.1.6v.4l.1.4.2.4.2.3.3.3.4.2.4.1.4.1h1l1,.1,1,.1.9.2,1,.2.9.3.9.3.9.3.9.4.8.4.9.5.8.5.8.6.8.6.7.6.7.6.6.6.6.7.5.8.5.7.5.9.5.8.4.9.4.9.4.9.2.9.3,1,.3.9.1,1,.2,1,.1,1,.1,1-.1,1-.1,1-.2,1-.1,1-.3,1-.3.9-.2.9-.4.9-.4.9-.4.8-.5.9-.5.8-.5.8-.5.7-.6.7-.6.6-.7.6-.7.6-.8.6-.8.5-.8.5-.9.4-.8.5-.9.4-.9.3-.9.3-.9.3-1,.2-.9.2-1,.1-1,.1h-1.3V234Z" transform="translate(-84 -13.71)"/><path class="cls-2" d="M189.6,195.1l-.1-.8-.2-.8-.1-.8-.3-.7-.3-.8-.2-.7-.3-.7-.3-.8-.4-.6-.4-.6-.4-.6-.4-.5-.5-.6-.5-.5-.5-.6-.6-.5-.5-.5-.6-.4-.6-.4-.6-.4-.6-.4-.7-.4-.7-.3-.7-.3-.8-.3-.7-.3-.8-.2-.8-.2-.8-.1-.8-.2-.9-.1h-.8l-.5-.9-.5-.9-.5-.8-.6-.9-1.2-1.6-1.3-1.4-1.4-1.3-1.6-1.2-1.5-1.1-1.7-1-1.7-.9-1.7-.8-1.9-.7-1.9-.5-1.9-.5-1.9-.3-1-.1-1-.1-1.1-.1h-2.3l-1.4.2-1.4.1-1.4.3-1.3.3-1.3.4-1.3.4-1.3.5-1.3.5-1.2.6-1.2.6-1.1.7-1.2.7-1.1.8-1,.9-1,.9-1.1.9-.9,1-.9,1-.9,1.1-.8,1-.8,1.1-.7,1.1-.6,1.2-.5,1.2-.6,1.2-.5,1.3-.4,1.3-.4,1.3-.3,1.3-.3,1.3-.3,1.4-1,.3-1,.4-1,.3-1,.5-1,.4-1,.4-.9.6-.9.5-.9.6-.9.6-.8.7-.8.6-.8.8-.7.8-.7.8-.8.8-.5.9-.6.8-.6.9-.5.9-.4,1-.4,1-.5,1-.4,1-.3,1-.3,1-.3,1-.2,1.1-.2,1.1-.1,1.1-.1,1.1v2.4l.1,1.3.2,1.3.2,1.3.3,1.2.4,1.2.4,1.2.5,1.1.5,1.2.6,1.1.6,1.1.6,1,.8,1,.8,1,.8,1,.9.9.9.9,1,.9,1,.8,1,.7,1.1.6,1.1.6,1.1.6,1.2.5,1.1.5,1.2.4,1.2.4,1.2.3,1.3.3,1.3.1,1.3.1h14.6l.4-.1.3-.2.3-.2.3-.3.2-.4.1-.4.1-.4v-15l-.1-.4-.1-.4-.2-.4-.3-.3-.3-.2-.3-.2-.4-.1-.4-.1h-4.4l12.9-17.8,12.9,17.8h-4.3l-.4.1-.4.1-.4.2-.3.2-.2.3-.2.4-.1.4V253h-6.5l-.3.1-.3.1-.3.1-.2.1-.3.2-.2.2-.3.2-.2.3-.1.3-.1.3-.1.3v.3l.1.3.1.3.1.3.2.3,17.2,23.6.3.4.4.3.5.2.5.1.5-.1.4-.2.4-.3.4-.4,17.1-23.6.2-.3.1-.3.1-.3.1-.3v-.3l-.1-.3-.1-.3-.1-.3-.2-.3-.2-.3-.3-.2-.2-.2-.2-.1-.3-.1-.3-.1h-6.6V242.3h16.2l1.1-.1,1.2-.1,1.2-.2,1.1-.3,1.1-.3,1.1-.4,1.1-.4,1-.5,1-.5,1-.6,1-.6,1-.6.9-.7.8-.7.9-.9.8-.8.8-.9.6-.9.7-.9.6-1,.5-1,.5-1,.5-1.1.4-1.1.4-1.1.3-1.2.3-1.1.2-1.2.2-1.2.1-1.2.1-1.2-.1-1.1-.1-1.2-.2-1.1-.2-1.2-.3-1.1-.3-1-.3-1-.4-1-.4-1-.5-1-.5-1-.6-1-.6-.9-.6-.9-.7-.8-.7-.9-.8-.8-.8-.7-.8-.7-.9-.6-.8-.6-.9-.6-1-.6-1-.5-1-.5-1-.4-1-.3-1-.3-1.1-.3-1.1-.2-1.1-.2-.9.1Zm-2,42.9H170l-.4.2-.3.2-.3.3-.3.3-.2.4-.2.4-.1.4v15l.1.4.2.4.2.4.3.3.3.2.3.2.4.1h4.8l-13,17.9-12.9-17.9h4.8l.4-.1.4-.2.3-.2.3-.3.2-.4.2-.4V227.3h6.7l.3-.1.3-.1.3-.1.3-.2.2-.2.2-.3.2-.3.1-.3.2-.3v-.6l-.1-.2-.1-.3-.1-.3-.1-.3-17.2-23.6-.3-.3-.4-.3-.5-.2h-1l-.5.2-.4.3-.4.3L126,223.7l-.2.3-.1.3-.1.3v.8l.1.3.2.3.2.3.2.3.2.2.2.2.3.1.3.1.3.1h6.7V238H122.5l-1.1-.1-1.1-.1-1-.2-1-.3-1-.3-1-.3-1-.4-1-.4-.9-.5-.9-.5-.9-.6-.9-.6-.8-.6-.9-.6-.7-.8-.7-.7-.7-.8-.6-.9-.6-.9-.6-.9-.5-.9-.5-.9-.4-1-.4-1-.3-1-.3-1-.2-1.1-.2-1-.2-1.1-.1-1.1v-2.1l.1-1,.1-1,.2-.9.2-1,.2-.9.3-.9.3-.9.4-.9.3-.8.4-.9.5-.8.4-.9.5-.7.5-.8.6-.7.6-.7.6-.6.6-.6.7-.6.7-.6.7-.5.8-.5.8-.5.9-.4.8-.4.9-.4.9-.4.9-.3.9-.2,1-.3.9-.2.4-.1.3-.1.3-.2.3-.3.2-.3.1-.3.2-.4.1-.3.1-1.3.2-1.2.3-1.2.2-1.2.3-1.1.5-1.2.4-1.1.5-1.1.5-1.1.6-1,.6-1,.7-1,.7-1,.8-.9.8-.9.9-.8.8-.9,1-.7,1-.8,1-.6,1-.6,1-.6,1.1-.5,1.1-.5,1.2-.4,1.1-.4,1.2-.3,1.2-.3,1.2-.2,1.3-.1,1.2-.1h1.3l1.8.1,1.7.2,1.8.3,1.7.4,1.7.5,1.6.6,1.6.8,1.4.9,1.5,1,1.3,1,1.3,1.2,1.2,1.2,1.1,1.3,1.1,1.5,1,1.5.9,1.6.2.3.2.2.3.3.3.2.3.1.3.1h2l.6.1.6.1.6.1,1.2.3,1.2.4,1.1.6,1.1.6,1,.8,1,.9.9.9.7,1,.6,1.1.5,1.1.4,1.2.3,1.2.1.6.1.6.1.6.1.6v.4l.1.4.2.4.2.3.3.3.4.2.4.1.4.1h1l1,.1,1,.1.9.2,1,.2.9.3.9.3.9.3.9.4.8.4.9.5.8.5.8.6.8.6.7.6.7.6.6.6.6.7.5.8.5.7.5.9.5.8.4.9.4.9.4.9.2.9.3,1,.3.9.1,1,.2,1,.1,1,.1,1-.1,1-.1,1-.2,1-.1,1-.3,1-.3.9-.2.9-.4.9-.4.9-.4.8-.5.9-.5.8-.5.8-.5.7-.6.7-.6.6-.7.6-.7.6-.8.6-.8.5-.8.5-.9.4-.8.5-.9.4-.9.3-.9.3-.9.3-1,.2-.9.2-1,.1-1,.1h-1.3V238Z" transform="translate(-84 -13.71)"/><polygon class="cls-1" points="211.7 317.29 211.7 298.29 234.33 298.29 234.33 317.29 211.7 317.29"/><rect class="cls-3" x="286" y="318.29" width="48" height="23"/><text class="cls-4" transform="translate(303 329.23)">eth0</text><rect class="cls-3" x="333" y="318.29" width="48" height="23"/><text class="cls-4" transform="translate(355.91 329.23)">eth2</text><rect class="cls-3" x="286" y="281.29" width="48" height="23"/><text class="cls-4" transform="translate(304.35 297.23)">eth1</text><rect class="cls-3" x="334" y="281.29" width="48" height="23"/><text class="cls-4" transform="translate(355.91 298.23)">eth3</text><rect class="cls-3" x="239" y="303.29" width="48" height="23"/><text class="cls-4" transform="translate(249 313.23)">I<tspan class="cls-5" x="4.3" y="0">P</tspan><tspan x="13.66" y="0">MI</tspan></text><path d="M789,298" transform="translate(-84 -13.71)"/><line class="cls-6" x1="374.5" y1="249.45" x2="374.5" y2="243.41"/><line class="cls-7" x1="374.5" y1="232.73" x2="374.5" y2="173.67"/><line class="cls-6" x1="374.5" y1="168.33" x2="374.5" y2="162.29"/><rect class="cls-3" x="267" y="2.29" width="127" height="44"/><g class="cls-8"><text class="cls-4" transform="translate(295 15.07)">IBM Cloud</text><text class="cls-4" transform="translate(295 36.67)"><tspan class="cls-9">R</tspan><tspan x="9.76" y="0">ed pública</tspan></text></g><rect class="cls-3" x="566" y="96.29" width="145" height="44"/><g class="cls-8"><text class="cls-4" transform="translate(566 109.07)">IBM Cloud </text><text class="cls-4" transform="translate(566 130.67)"><tspan class="cls-9">R</tspan><tspan x="9.76" y="0">ed p</tspan><tspan class="cls-9" x="42.98" y="0">r</tspan><tspan x="48.94" y="0">i</tspan><tspan class="cls-10" x="53.15" y="0">v</tspan><tspan x="61.74" y="0">ada</tspan></text></g><rect class="cls-3" y="96.29" width="177" height="44"/><g class="cls-8"><text class="cls-4" transform="translate(0 116.07)">IBM Cloud </text><text class="cls-4" transform="translate(0 137.67)"><tspan class="cls-9">R</tspan><tspan x="9.76" y="0">ed de gestión</tspan></text></g><line class="cls-11" x1="374.25" y1="375.04" x2="599" y2="376.29"/><line class="cls-11" x1="323" y1="394.54" x2="638.5" y2="395.79"/><line class="cls-11" x1="598" y1="268.29" x2="598" y2="377.04"/><line class="cls-11" x1="637.5" y1="272.39" x2="637.5" y2="396.79"/><line class="cls-11" x1="324" y1="363.54" x2="324" y2="395.04"/><line class="cls-11" x1="375" y1="363.79" x2="375" y2="375.79"/><line class="cls-12" x1="62.3" y1="308.79" x2="210.7" y2="308.79"/><line class="cls-13" x1="62.3" y1="267.29" x2="62.3" y2="308.79"/><line class="cls-6" x1="323.5" y1="248.45" x2="323.5" y2="242.41"/><line class="cls-7" x1="323.5" y1="231.73" x2="323.5" y2="172.67"/><line class="cls-6" x1="323.5" y1="167.33" x2="323.5" y2="161.29"/></svg>
