<svg id="Layer_1" data-name="Layer 1" xmlns="http://www.w3.org/2000/svg" xmlns:xlink="http://www.w3.org/1999/xlink" viewBox="0 0 671.59 623.89"><defs><style>.cls-1,.cls-12,.cls-16,.cls-2,.cls-26,.cls-3,.cls-32,.cls-33,.cls-5,.cls-8{fill:none;}.cls-1{clip-rule:evenodd;}.cls-10,.cls-11,.cls-13,.cls-14,.cls-15,.cls-17,.cls-18,.cls-19,.cls-2,.cls-23,.cls-29,.cls-4,.cls-7,.cls-9{fill-rule:evenodd;}.cls-4,.cls-7{fill:#00b0f0;}.cls-14,.cls-4,.cls-5,.cls-9{opacity:0.67;}.cls-26,.cls-32,.cls-5,.cls-8{stroke:#fff;}.cls-12,.cls-26,.cls-32,.cls-33,.cls-5,.cls-8{stroke-miterlimit:8;}.cls-12,.cls-16,.cls-26,.cls-5,.cls-8{stroke-width:2px;}.cls-6{clip-path:url(#clip-path);}.cls-10,.cls-15,.cls-7,.cls-8{opacity:0.22;}.cls-9{fill:#2f5597;}.cls-10{fill:#8faadc;}.cls-11,.cls-22{fill:#fff;}.cls-12,.cls-33{stroke:#a5a5a5;}.cls-13{fill:#ffc000;opacity:0.5;}.cls-14,.cls-15{fill:#92d050;}.cls-16{stroke:#2f5597;stroke-linejoin:round;}.cls-17{fill:#b6df8a;}.cls-18{fill:#f2f2f2;}.cls-19{fill:#ffdf7f;}.cls-20{clip-path:url(#clip-path-29);}.cls-21{clip-path:url(#clip-path-30);}.cls-23{fill:#54caf5;}.cls-24{clip-path:url(#clip-path-31);}.cls-25{clip-path:url(#clip-path-32);}.cls-27{clip-path:url(#clip-path-33);}.cls-28{clip-path:url(#clip-path-38);}.cls-29{fill:#748db9;}.cls-30{clip-path:url(#clip-path-41);}.cls-31{clip-path:url(#clip-path-42);}.cls-32{stroke-width:0.25px;}.cls-33{stroke-width:2px;}.cls-34{clip-path:url(#clip-path-43);}.cls-35{clip-path:url(#clip-path-55);}.cls-36{clip-path:url(#clip-path-67);}.cls-37{font-size:21px;}.cls-37,.cls-47{font-family:IBMPlexSans, IBMPlexSans;}.cls-38{letter-spacing:0.01em;}.cls-39{letter-spacing:0em;}.cls-40{letter-spacing:0.01em;}.cls-41{letter-spacing:-0.02em;}.cls-42{letter-spacing:0.02em;}.cls-43{letter-spacing:-0.01em;}.cls-44{letter-spacing:0em;}.cls-45{letter-spacing:0em;}.cls-46{letter-spacing:-0.01em;}.cls-47{font-size:18px;}.cls-48{letter-spacing:0em;}</style><clipPath id="clip-path" transform="translate(-78.05 -23.61)"><polygon class="cls-1" points="78.05 647.5 749.44 647.5 749.44 24 78.05 24 78.05 647.5 78.05 647.5"/></clipPath><clipPath id="clip-path-29" transform="translate(-78.05 -23.61)"><polygon class="cls-1" points="98.41 198.37 125.51 198.62 125.77 171.51 98.66 171.26 98.41 198.37 98.41 198.37"/></clipPath><clipPath id="clip-path-30" transform="translate(-78.05 -23.61)"><polygon class="cls-3" points="98.41 198.37 125.51 198.62 125.77 171.51 98.66 171.26 98.41 198.37 98.41 198.37"/></clipPath><clipPath id="clip-path-31" transform="translate(-78.05 -23.61)"><polygon class="cls-1" points="97.05 314.46 126.84 314.46 126.84 283.43 97.05 283.43 97.05 314.46 97.05 314.46"/></clipPath><clipPath id="clip-path-32" transform="translate(-78.05 -23.61)"><polygon class="cls-3" points="97.05 314.46 126.84 314.46 126.84 283.43 97.05 283.43 97.05 314.46 97.05 314.46"/></clipPath><clipPath id="clip-path-33" transform="translate(-78.05 -23.61)"><polygon class="cls-1" points="96.9 413.98 126.99 413.98 126.99 383.07 96.9 383.07 96.9 413.98 96.9 413.98"/></clipPath><clipPath id="clip-path-38" transform="translate(-78.05 -23.61)"><polygon class="cls-1" points="97.31 519.47 126.58 519.47 126.58 483.47 97.31 483.47 97.31 519.47 97.31 519.47"/></clipPath><clipPath id="clip-path-41" transform="translate(-78.05 -23.61)"><polygon class="cls-1" points="98.45 630.63 125.44 630.63 125.44 603.63 98.45 603.63 98.45 630.63 98.45 630.63"/></clipPath><clipPath id="clip-path-42" transform="translate(-78.05 -23.61)"><polygon class="cls-3" points="98.45 630.63 125.44 630.63 125.44 603.63 98.45 603.63 98.45 630.63 98.45 630.63"/></clipPath><clipPath id="clip-path-43" transform="translate(-78.05 -23.61)"><polygon class="cls-1" points="363.5 589 402 589 402 550.5 363.5 550.5 363.5 589 363.5 589"/></clipPath><clipPath id="clip-path-55" transform="translate(-78.05 -23.61)"><polygon class="cls-1" points="510.5 589 549 589 549 550.5 510.5 550.5 510.5 589 510.5 589"/></clipPath><clipPath id="clip-path-67" transform="translate(-78.05 -23.61)"><polygon class="cls-1" points="651.5 589 690 589 690 550.5 651.5 550.5 651.5 589 651.5 589"/></clipPath></defs><title>solution_overview</title><polygon class="cls-4" points="94.07 260.49 669.54 260.49 669.54 304.76 94.07 304.76 94.07 260.49 94.07 260.49"/><polygon class="cls-5" points="94.07 260.49 669.54 260.49 669.54 304.76 94.07 304.76 94.07 260.49 94.07 260.49"/><g class="cls-6"><polygon class="cls-7" points="94.07 260.49 128.74 216.21 634.87 216.21 669.54 260.49 94.07 260.49 94.07 260.49"/><polygon class="cls-8" points="94.07 260.49 128.74 216.21 634.87 216.21 669.54 260.49 94.07 260.49 94.07 260.49"/><g class="cls-6"><polygon class="cls-4" points="94.07 362.56 669.54 362.56 669.54 406.83 94.07 406.83 94.07 362.56 94.07 362.56"/><polygon class="cls-5" points="94.07 362.56 669.54 362.56 669.54 406.83 94.07 406.83 94.07 362.56 94.07 362.56"/><g class="cls-6"><polygon class="cls-7" points="94.07 362.56 128.74 318.29 634.87 318.29 669.54 362.56 94.07 362.56 94.07 362.56"/><polygon class="cls-8" points="94.07 362.56 128.74 318.29 634.87 318.29 669.54 362.56 94.07 362.56 94.07 362.56"/><g class="cls-6"><polygon class="cls-4" points="94.07 464.63 669.54 464.63 669.54 508.9 94.07 508.9 94.07 464.63 94.07 464.63"/><polygon class="cls-5" points="94.07 464.63 669.54 464.63 669.54 508.9 94.07 508.9 94.07 464.63 94.07 464.63"/><g class="cls-6"><polygon class="cls-7" points="94.07 464.63 128.74 420.36 634.87 420.36 669.54 464.63 94.07 464.63 94.07 464.63"/><polygon class="cls-8" points="94.07 464.63 128.74 420.36 634.87 420.36 669.54 464.63 94.07 464.63 94.07 464.63"/><g class="cls-6"><polygon class="cls-9" points="94.07 578.39 669.54 578.39 669.54 622.66 94.07 622.66 94.07 578.39 94.07 578.39"/><polygon class="cls-5" points="94.07 578.39 669.54 578.39 669.54 622.66 94.07 622.66 94.07 578.39 94.07 578.39"/><g class="cls-6"><polygon class="cls-10" points="94.07 578.39 128.74 534.12 634.87 534.12 669.54 578.39 94.07 578.39 94.07 578.39"/><polygon class="cls-8" points="94.07 578.39 128.74 534.12 634.87 534.12 669.54 578.39 94.07 578.39 94.07 578.39"/><g class="cls-6"><polygon class="cls-11" points="94.07 138.12 226.87 138.12 226.87 182.4 94.07 182.4 94.07 138.12 94.07 138.12"/><polygon class="cls-12" points="94.07 138.12 226.87 138.12 226.87 182.4 94.07 182.4 94.07 138.12 94.07 138.12"/><g class="cls-6"><polygon class="cls-13" points="103.91 146.73 157.39 146.73 157.39 173.79 103.91 173.79 103.91 146.73 103.91 146.73"/><g class="cls-6"><polygon class="cls-13" points="165.39 146.73 218.88 146.73 218.88 173.79 165.39 173.79 165.39 146.73 165.39 146.73"/><g class="cls-6"><polygon class="cls-11" points="237.94 138.12 370.74 138.12 370.74 182.4 237.94 182.4 237.94 138.12 237.94 138.12"/><polygon class="cls-12" points="237.94 138.12 370.74 138.12 370.74 182.4 237.94 182.4 237.94 138.12 237.94 138.12"/><g class="cls-6"><polygon class="cls-13" points="247.77 146.73 300.65 146.73 300.65 173.79 247.77 173.79 247.77 146.73 247.77 146.73"/><g class="cls-6"><polygon class="cls-13" points="309.25 146.73 362.13 146.73 362.13 173.79 309.25 173.79 309.25 146.73 309.25 146.73"/><g class="cls-6"><polygon class="cls-11" points="381.8 138.12 514.61 138.12 514.61 182.4 381.8 182.4 381.8 138.12 381.8 138.12"/><polygon class="cls-12" points="381.8 138.12 514.61 138.12 514.61 182.4 381.8 182.4 381.8 138.12 381.8 138.12"/><g class="cls-6"><polygon class="cls-13" points="391.64 146.73 444.52 146.73 444.52 173.79 391.64 173.79 391.64 146.73 391.64 146.73"/><g class="cls-6"><polygon class="cls-13" points="453.12 146.73 506 146.73 506 173.79 453.12 173.79 453.12 146.73 453.12 146.73"/><g class="cls-6"><polygon class="cls-11" points="525.67 138.12 658.47 138.12 658.47 182.4 525.67 182.4 525.67 138.12 525.67 138.12"/><polygon class="cls-12" points="525.67 138.12 658.47 138.12 658.47 182.4 525.67 182.4 525.67 138.12 525.67 138.12"/><g class="cls-6"><polygon class="cls-13" points="534.89 146.73 588.38 146.73 588.38 173.79 534.89 173.79 534.89 146.73 534.89 146.73"/><g class="cls-6"><polygon class="cls-13" points="596.99 146.73 649.87 146.73 649.87 173.79 596.99 173.79 596.99 146.73 596.99 146.73"/><g class="cls-6"><polygon class="cls-14" points="279.74 45.27 461.73 45.27 461.73 89.55 279.74 89.55 279.74 45.27 279.74 45.27"/><polygon class="cls-5" points="279.74 45.27 461.73 45.27 461.73 89.55 279.74 89.55 279.74 45.27 279.74 45.27"/><g class="cls-6"><polygon class="cls-15" points="279.74 45.27 314.42 1 427.06 1 461.73 45.27 279.74 45.27 279.74 45.27"/><polygon class="cls-8" points="279.74 45.27 314.42 1 427.06 1 461.73 45.27 279.74 45.27 279.74 45.27"/><g class="cls-6"><polygon class="cls-16" points="176.37 563.63 144.48 563.63 143.81 563.41 143.06 563.19 142.81 562.6 142.64 561.93 142.64 535.44 142.81 534.63 143.31 534.18 150.61 528.41 151.03 528.19 151.78 527.97 169.15 527.97 169.82 528.19 170.33 528.41 177.54 534.18 178.05 534.63 178.3 535.44 178.3 561.93 178.05 562.6 177.79 563.19 177.12 563.41 176.37 563.63 176.37 563.63 176.37 563.63"/><g class="cls-6"><line class="cls-16" x1="142.64" y1="536.58" x2="178.3" y2="537.19"/><g class="cls-6"><line class="cls-16" x1="142.64" y1="545.8" x2="178.3" y2="546.41"/><g class="cls-6"><line class="cls-16" x1="142.64" y1="554.41" x2="178.3" y2="555.02"/><g class="cls-6"><line class="cls-16" x1="174.61" y1="541.49" x2="169.08" y2="542.11"/><g class="cls-6"><line class="cls-16" x1="174.61" y1="550.72" x2="169.08" y2="551.33"/><g class="cls-6"><line class="cls-16" x1="174.61" y1="559.33" x2="169.08" y2="559.94"/><polygon class="cls-3" points="0 623.89 671.38 623.89 671.38 0.39 0 0.39 0 623.89 0 623.89"/></g></g></g></g></g></g></g></g></g></g></g></g></g></g></g></g></g></g></g></g></g></g></g></g></g></g></g></g><path class="cls-17" d="M263.11,75.85a35.1,35.1,0,1,1,35.1,34.84,35,35,0,0,1-35.1-34.84Z" transform="translate(-78.05 -23.61)"/><path class="cls-18" d="M288.61,83.05h-3.89l-1.2-1.19-.1-.11-.14-.07-.13,0h-3.08l-.14,0-.11.09-.1.09-.09.1-.07.11,0,.14v7.28l0,.16.07.1.09.11.1.07.11.07.14,0,.14,0h8.4l.16,0,.12,0,.13-.07.1-.07.09-.11.05-.1.05-.16,0-.12V83.75l0-.16-.05-.12-.05-.12-.09-.11-.1-.08-.13-.08-.12,0Zm-.68,5.6h-7v-5.6h1.81l1.19,1.19.1.09.13.07.14,0h3.65v4.2Z" transform="translate(-78.05 -23.61)"/><path class="cls-18" d="M315.32,83.05h-3.93l-1.2-1.19-.1-.11-.14-.07-.13,0h-3.08l-.13,0-.12.09-.1.09-.09.1-.06.11-.05.14,0,.12v7l0,.12.05.16.06.1.09.11.1.07.12.07.13,0,.15,0h8.43l.14,0,.12,0,.1-.07.11-.07.1-.11.07-.1,0-.16v-5.9l0-.12-.07-.12-.1-.11-.11-.08-.1-.08-.12,0Zm-.72,5.6h-7v-5.6h1.82l1.21,1.19.11.09.1.07.14,0h3.64v4.2Z" transform="translate(-78.05 -23.61)"/><path class="cls-18" d="M303.58,87.73h-5.87l-.51-1,0-.07-.07-.07-.07-.08-.07,0-.09-.05-.1,0h-4.53l-.12,0-.14.09-.11.09-.07.1-.07.11,0,.14,0,.12v8.42l0,.14,0,.14.07.13.07.1L292,96l.14,0,.12,0,.14,0h11.21l.14,0,.13,0,.14,0,.1-.09.07-.1.07-.13,0-.14,0-.14v-7l0-.14,0-.12-.07-.12-.07-.11-.1-.09-.14-.07-.13,0Zm-.7,7h-9.81v-7h3.07l.51,1,.06.09.05.08.07.08.09,0,.07,0,.08,0,.11,0h5.7v5.62Z" transform="translate(-78.05 -23.61)"/><path class="cls-18" d="M290.25,73.85h7v2.93l-.19,0-.16.07-.19.09-.14.09-.18.1-.14.09-.16.11-.12.14-.12.14-.12.14-.11.16-.09.14-.1.18-.07.16-.06.18-.07.19H284.65l-.14,0-.14,0-.12.07-.11.09-.07.11-.07.1,0,.15,0,.14V80.9l0,.16,0,.13.07.12.07.11.11.09.12,0,.14,0,.14,0,.14,0,.14,0,.13,0,.1-.09.09-.11.05-.12,0-.13v-.84h9.93l.07.19.06.16.07.18.1.15.09.16.11.16.12.13.12.16.12.12.16.11.14.1.18.11.14.09.19.07.16.07.19,0v3.1l0,.12.07.13.09.1.1.09.12.07.13,0h.3l.12,0,.12-.07.11-.09.08-.1.08-.13,0-.12v-3.1l.19,0,.2-.07.15-.07.14-.09.18-.11.14-.1.16-.11.12-.12.12-.16.13-.13.1-.16.11-.16.09-.15.07-.18.05-.16.07-.19h9.94v.84l0,.13.07.12.11.11.1.09.11,0,.12,0,.14,0,.14,0,.14,0,.12,0,.11-.09.09-.11.05-.12,0-.13,0-.16V79.51l0-.14,0-.15-.05-.1-.09-.11-.11-.09-.12-.07-.14,0-.14,0H300.7l-.07-.19-.05-.18-.07-.16-.09-.18-.11-.14-.1-.16-.13-.14-.12-.14-.12-.14-.16-.11-.14-.09-.18-.1-.14-.09-.15-.09-.2-.07-.19,0V73.85h8.06l.31,0,.32,0,.32-.06.29-.07.32-.09.3-.1.26-.13.3-.12.25-.12.28-.18.24-.14.25-.2.25-.19.22-.19.23-.22.21-.23.2-.23.17-.23.19-.24.16-.27.16-.25.12-.28.14-.28.13-.29.1-.3.07-.32.07-.28.07-.32,0-.32V66.86l0-.3-.05-.3-.05-.27-.09-.3-.09-.26-.1-.28-.11-.29-.12-.25-.14-.24-.14-.27-.16-.23-.18-.23-.15-.23-.2-.21L310.9,63l-.21-.2-.21-.19-.23-.18-.23-.18-.23-.14-.26-.16-.25-.14-.24-.12-.28-.11-.27-.1-.28-.09-.26-.09-.3,0-.3-.06-.3,0-.08-.39-.09-.35-.14-.34-.16-.34-.21-.32-.21-.28-.26-.26-.25-.27-.3-.23-.28-.21-.33-.16-.35-.16-.36-.11-.35-.1-.38,0h-.65l-.27,0-.28-.41-.29-.37-.34-.39-.33-.33-.35-.32-.39-.28-.4-.27-.42-.25-.41-.21-.45-.19-.44-.16-.46-.14-.49-.11-.48-.07-.49,0-.47,0h-.33l-.34,0-.31,0-.34,0-.31.07-.32.08-.32.08-.29.11-.3.11-.28.12-.3.12-.28.16-.27.16-.28.18-.24.19-.27.2-.24.18-.23.21-.23.23-.21.21-.21.26-.21.23-.19.27-.16.27-.18.26-.17.28-.14.3-.13.29-.12.3-.1.3-.11.32-.09.33-.28.09-.26.09-.28.11-.27.12-.26.12-.25.13-.22.14-.25.16-.25.16-.21.19-.22.18-.21.18-.18.21-.19.19-.2.23-.17.21-.16.23-.18.25-.14.23-.12.25-.12.25-.14.26-.11.27-.1.28-.07.25-.09.3-.07.28,0,.27-.05.3,0,.3,0,.28v.66l0,.37.06.35.05.34.09.33.08.36.11.33.12.32.14.32.16.28.16.3.19.3.2.27.21.27.22.24.23.25.25.25.26.23.25.21.3.19.26.18.3.18.3.14.31.16.32.12.33.11.34.11.33,0,.33.07.37,0,.35.06Zm9.15,5.66v.12l0,.16,0,.12,0,.15-.07.1-.08.14-.06.11-.1.11-.09.07-.12.09-.11.07-.12,0-.14,0-.14,0h-.55l-.14,0-.14,0-.12,0-.1-.07-.11-.09-.11-.07-.1-.11-.05-.11-.09-.14-.07-.1,0-.15v-.12l0-.16,0-.12,0-.14,0-.15v-.14l0-.12.07-.12.09-.13.05-.1.1-.11.11-.09.11-.09.1,0,.12-.07.14,0,.14,0,.13,0h.3l.12,0,.14,0,.14,0,.12.07.11,0,.12.09.09.09.1.11.06.1.08.13.07.12,0,.12,0,.14,0,.15v.14ZM289.13,61.24l.11-.06.08,0,.07,0,.09-.09.07-.07.05-.08.06-.11v-.11l.06-.26.07-.29.08-.26.09-.27.11-.26.12-.25.12-.25.13-.24.15-.23.14-.22.16-.23.18-.19.17-.21.18-.2.21-.19.19-.18.21-.16.23-.16.21-.16.23-.14.26-.12.23-.13.25-.1.26-.11.25-.09.26-.09.28,0,.25,0,.3,0,.28-.05.26,0h.3l.42,0,.42.05.42.06.42.1.39.13.39.16.37.15.38.22.34.21.33.26.33.27.3.3.3.32.24.32.27.35.21.39.05.09.09.07.09.09.1.05.11,0h.35l.19,0,.16-.05.18,0h.15l.3,0,.28.05.27,0,.26.11.25.11.22.14.21.17.21.18.18.21.16.22.16.23.1.24.11.25,0,.28.05.27,0,.3v.12l0,.16.07.11.1.11.07.08.14.07.12.06h.41l.24,0,.25,0,.23.05.26.06.23.07.23.05.21.11.23.09.21.1.19.13.21.14.19.14.18.14.18.16.19.16.14.17.17.16.14.2.13.19.12.22.14.21.11.21.1.21.07.23.09.23.07.23,0,.23.07.27V67l0,.24v.52l0,.25v.26l-.07.23,0,.25-.07.23-.09.25-.07.19-.1.25-.11.21-.14.18-.12.21-.13.19-.14.2-.17.16-.14.19-.19.16-.18.16-.18.16-.19.12-.21.13-.19.12-.21.11-.23.1-.21.09-.23.09-.23,0-.26.06-.23,0-.25,0-.24,0H290l-.3,0-.26,0-.3,0-.26-.07-.27-.09-.28-.09-.24-.11-.25-.1-.25-.13-.22-.14-.23-.14-.23-.16-.21-.16L286.5,71l-.21-.19-.18-.19-.18-.2-.17-.21-.14-.25-.14-.23-.16-.23-.12-.23-.11-.25-.1-.26-.09-.27-.07-.26-.07-.27,0-.3-.05-.28,0-.27v-.54l0-.27,0-.23.05-.25.11-.46.14-.48.17-.44.23-.42.25-.39.28-.39.31-.35.34-.32.37-.32.4-.27.4-.23.44-.21.23-.09.23,0,.23-.09.26,0Z" transform="translate(-78.05 -23.61)"/><path class="cls-19" d="M83.74,186.42A28.21,28.21,0,1,1,112,214.84a28.31,28.31,0,0,1-28.21-28.42Z" transform="translate(-78.05 -23.61)"/><g class="cls-20"><g class="cls-21"><path class="cls-22" d="M105.48,172.73l0,5.54-5.42-.05,0-5.54,5.42,0Zm1.43-1.4-8.25-.07-.08,8.25,8.25.07.08-8.25Zm8,1.49,0,5.54-5.42-.05,0-5.54,5.42,0Zm1.43-1.4-8.25-.08L108,179.6l8.25.07.08-8.25Zm8,1.49,0,5.54-5.54,0,0-5.54,5.54,0Zm1.43-1.4-8.25-.08-.08,8.25,8.25.08.08-8.25Zm-20.38,10.65,0,5.55-5.42-.06,0-5.54,5.42,0Zm1.43-1.4-8.25-.07-.07,8.25,8.24.08.08-8.26Zm8,1.49,0,5.54-5.42,0,.05-5.54,5.42.05Zm1.43-1.4-8.25-.08-.08,8.26,8.25.07.08-8.25Zm8,1.49,0,5.54-5.54,0,0-5.54,5.54.05Zm1.43-1.4-8.25-.08-.08,8.25,8.25.08.08-8.25ZM105.31,191.6l0,5.54-5.43,0,.06-5.55,5.42.06Zm1.42-1.41-8.25-.07-.07,8.25,8.25.08.07-8.26Zm8,1.49,0,5.54-5.42-.05,0-5.54,5.42.05Zm1.43-1.4-8.25-.08-.07,8.26,8.25.07.07-8.25Zm8,1.49,0,5.54-5.54-.05.05-5.54,5.54.05Zm1.43-1.4-8.25-.08-.08,8.25,8.25.08.08-8.25Z" transform="translate(-78.05 -23.61)"/></g></g><path class="cls-23" d="M83,298.94A28.94,28.94,0,1,1,112,327.89,28.94,28.94,0,0,1,83,298.94Z" transform="translate(-78.05 -23.61)"/><g class="cls-24"><g class="cls-25"><path class="cls-22" d="M123.6,306.71V299H112v-7.89a3.77,3.77,0,0,0,3.23-3.75,3.89,3.89,0,1,0-4.53,3.75V299H100.29v7.89a4,4,0,0,0-3.24,3.75,3.89,3.89,0,1,0,7.77,0,3.77,3.77,0,0,0-3.24-3.75v-6.6h20.73v6.6a3.87,3.87,0,0,0-3.24,3.75,3.89,3.89,0,1,0,4.53-3.88Zm-14.89-19.4a2.59,2.59,0,1,1,2.59,2.58,2.59,2.59,0,0,1-2.59-2.58Zm-5.18,23.28a2.59,2.59,0,1,1-2.59-2.58,2.6,2.6,0,0,1,2.59,2.58ZM123,313.18a2.59,2.59,0,1,1,2.59-2.59,2.59,2.59,0,0,1-2.59,2.59Z" transform="translate(-78.05 -23.61)"/></g></g><path class="cls-23" d="M81.33,398.53A30.62,30.62,0,1,1,112,428.92a30.5,30.5,0,0,1-30.62-30.39Z" transform="translate(-78.05 -23.61)"/><polygon class="cls-26" points="19.25 389.26 19.25 360.57 19.25 360.25 19.45 360.06 19.64 359.87 19.95 359.87 47.83 359.87 48.15 359.87 48.34 360.06 48.53 360.25 48.53 360.57 48.53 389.26 48.53 389.64 48.34 389.77 48.15 389.96 47.83 389.96 19.95 389.96 19.64 389.96 19.45 389.77 19.25 389.64 19.25 389.26 19.25 389.26 19.25 389.26"/><g class="cls-27"><line class="cls-26" x1="19.25" y1="364.34" x2="48.53" y2="364.75"/><g class="cls-27"><line class="cls-26" x1="21.29" y1="361.9" x2="22.51" y2="362.31"/><g class="cls-27"><line class="cls-26" x1="24.13" y1="361.9" x2="25.35" y2="362.31"/><g class="cls-27"><polygon class="cls-26" points="42.43 374.81 41.15 372.15 39.54 372.72 38.84 371.83 37.94 371.07 38.45 369.48 35.76 368.41 35.05 369.86 33.83 369.86 32.74 369.86 32.03 368.41 29.33 369.48 29.85 371.07 28.95 371.83 28.24 372.72 26.45 372.15 25.35 374.81 26.96 375.7 26.77 376.77 26.96 377.85 25.35 378.74 26.45 381.4 28.24 380.83 28.95 381.72 29.85 382.42 29.33 384.07 32.03 385.08 32.74 383.69 33.83 383.69 35.05 383.69 35.76 385.08 38.45 384.07 37.94 382.42 38.84 381.72 39.54 380.83 41.15 381.4 42.43 378.74 40.83 377.85 40.96 376.77 40.83 375.7 42.43 374.81 42.43 374.81 42.43 374.81"/><g class="cls-27"><polygon class="cls-26" points="36.33 376.54 36.33 376.54 36.13 377.42 35.6 378.29 34.66 378.86 33.72 378.98 32.79 378.86 31.85 378.29 31.25 377.42 31.05 376.54 31.25 375.66 31.85 374.79 32.79 374.29 33.72 374.1 34.66 374.29 35.6 374.79 36.13 375.66 36.33 376.54 36.33 376.54 36.33 376.54"/></g></g></g></g></g><path class="cls-23" d="M81,501.47a30.95,30.95,0,1,1,31,30.95A30.95,30.95,0,0,1,81,501.47Z" transform="translate(-78.05 -23.61)"/><polygon class="cls-26" points="48.13 465.37 48.13 465.37 48.13 464.92 47.91 464.32 47.08 463.42 45.66 462.59 43.94 461.76 41.84 461.16 39.37 460.7 36.82 460.25 33.89 460.25 30.97 460.25 28.42 460.7 25.95 461.16 23.85 461.76 22.13 462.59 20.7 463.42 19.88 464.32 19.65 464.92 19.65 465.37 19.65 473.73 19.65 474.18 19.88 474.78 20.7 475.69 22.13 476.51 23.85 477.34 25.95 477.94 28.42 478.39 30.97 478.85 33.89 478.85 36.82 478.85 39.37 478.39 41.84 477.94 43.94 477.34 45.66 476.51 47.08 475.69 47.91 474.78 48.13 474.18 48.13 473.73 48.13 465.37 48.13 465.37 48.13 465.37"/><g class="cls-28"><polyline class="cls-26" points="19.65 465.4 19.65 465.4 19.65 465.78 19.88 466.47 20.7 467.32 22.13 468.16 23.85 469 25.95 469.69 28.42 470.08 30.97 470.54 33.89 470.54 36.82 470.54 39.37 470.08 41.84 469.69 43.94 469 45.66 468.16 47.08 467.32 47.91 466.47 48.13 465.78 48.13 465.4"/><g class="cls-28"><polyline class="cls-26" points="19.65 477.26 19.65 482.17 19.65 482.61 19.88 483.2 20.7 484.08 22.13 484.88 23.85 485.69 25.95 486.28 28.42 486.71 30.97 487.15 33.89 487.15 36.82 487.15 39.37 486.71 41.84 486.28 43.94 485.69 45.66 484.88 47.08 484.08 47.91 483.2 48.13 482.61 48.13 482.17 48.13 477.26"/><g class="cls-28"><polyline class="cls-26" points="19.65 485.57 19.65 490.52 19.65 490.96 19.88 491.55 20.7 492.36 22.13 493.25 23.85 494.06 25.95 494.65 28.42 495.09 30.97 495.46 33.89 495.46 36.82 495.46 39.37 495.09 41.84 494.65 43.94 494.06 45.66 493.25 47.08 492.36 47.91 491.55 48.13 490.96 48.13 490.52 48.13 485.57"/></g></g></g><path class="cls-29" d="M82.41,617.13A29.54,29.54,0,1,1,112,646.88a29.65,29.65,0,0,1-29.54-29.75Z" transform="translate(-78.05 -23.61)"/><g class="cls-30"><g class="cls-31"><path class="cls-22" d="M114.2,604.75v24.76H99.57V604.75Zm1.13-1.12H98.45v27h16.88v-27Zm9,1.12v24.76H118.7V604.75Zm1.12-1.12h-7.87v27h7.87v-27Z" transform="translate(-78.05 -23.61)"/><path class="cls-32" d="M114.2,604.75v24.76H99.57V604.75Zm1.13-1.12H98.45v27h16.88v-27Zm9,1.12v24.76H118.7V604.75Zm1.12-1.12h-7.87v27h7.87v-27Z" transform="translate(-78.05 -23.61)"/><path class="cls-22" d="M112,608.13v4.5H101.82v-4.5Zm1.13-1.13H100.7v6.76h12.38V607Zm9,0v1.13H121V607Zm1.12-1.12h-3.37v3.37h3.37v-3.37Zm-1.12,5.62v1.13H121V611.5Zm1.12-1.12h-3.37v3.38h3.37v-3.38ZM122.08,616v1.12H121V616Zm1.12-1.13h-3.37v3.38h3.37v-3.38Zm-1.12,5.63v1.12H121v-1.12Zm1.12-1.13h-3.37v3.38h3.37v-3.38ZM122.08,625v1.13H121V625Zm1.12-1.12h-3.37v3.37h3.37v-3.37Z" transform="translate(-78.05 -23.61)"/><path class="cls-32" d="M112,608.13v4.5H101.82v-4.5Zm1.13-1.13H100.7v6.76h12.38V607Zm9,0v1.13H121V607Zm1.12-1.12h-3.37v3.37h3.37v-3.37Zm-1.12,5.62v1.13H121V611.5Zm1.12-1.12h-3.37v3.38h3.37v-3.38ZM122.08,616v1.12H121V616Zm1.12-1.13h-3.37v3.38h3.37v-3.38Zm-1.12,5.63v1.12H121v-1.12Zm1.12-1.13h-3.37v3.38h3.37v-3.38ZM122.08,625v1.13H121V625Zm1.12-1.12h-3.37v3.37h3.37v-3.37Z" transform="translate(-78.05 -23.61)"/></g></g><polyline class="cls-33" points="297.95 89.39 297.95 113.89 160.95 113.89 160.95 138.38"/><polyline class="cls-33" points="445.95 89.39 445.95 113.89 592.95 113.89 592.95 138.38"/><line class="cls-12" x1="160.45" y1="183.39" x2="160.45" y2="236.39"/><line class="cls-12" x1="301.95" y1="183.39" x2="301.95" y2="236.39"/><line class="cls-12" x1="451.95" y1="183.39" x2="451.95" y2="236.39"/><line class="cls-12" x1="592.95" y1="183.39" x2="592.95" y2="236.39"/><line class="cls-12" x1="160.95" y1="304.39" x2="160.95" y2="342.39"/><line class="cls-12" x1="301.95" y1="304.39" x2="301.95" y2="342.39"/><line class="cls-12" x1="451.95" y1="305.39" x2="451.95" y2="342.39"/><line class="cls-12" x1="592.95" y1="304.39" x2="592.95" y2="342.39"/><line class="cls-12" x1="160.95" y1="406.39" x2="160.95" y2="443.39"/><line class="cls-12" x1="301.95" y1="406.39" x2="301.95" y2="442.39"/><line class="cls-12" x1="451.95" y1="406.39" x2="451.95" y2="441.39"/><line class="cls-12" x1="592.95" y1="406.39" x2="592.95" y2="442.39"/><line class="cls-12" x1="160.95" y1="508.39" x2="160.95" y2="526.39"/><polygon class="cls-16" points="321.29 564.74 288.02 564.74 287.32 564.51 286.53 564.28 286.27 563.66 286.1 562.97 286.1 535.33 286.27 534.48 286.8 534.02 294.41 528 294.85 527.76 295.64 527.53 313.76 527.53 314.46 527.76 314.99 528 322.51 534.02 323.04 534.48 323.3 535.33 323.3 562.97 323.04 563.66 322.78 564.28 322.08 564.51 321.29 564.74 321.29 564.74 321.29 564.74"/><g class="cls-34"><line class="cls-16" x1="286.09" y1="536.51" x2="323.3" y2="537.16"/><g class="cls-34"><line class="cls-16" x1="286.09" y1="545.5" x2="323.3" y2="546.14"/><g class="cls-34"><line class="cls-16" x1="286.09" y1="555.12" x2="323.3" y2="555.76"/><g class="cls-34"><line class="cls-16" x1="319.45" y1="541.65" x2="313.68" y2="542.29"/><g class="cls-34"><line class="cls-16" x1="319.45" y1="550.63" x2="313.68" y2="551.27"/><g class="cls-34"><line class="cls-16" x1="319.45" y1="560.25" x2="313.68" y2="560.89"/><g class="cls-34"><line class="cls-16" x1="291.87" y1="541.65" x2="289.94" y2="542.29"/><g class="cls-34"><line class="cls-16" x1="291.87" y1="550.63" x2="289.94" y2="551.27"/><g class="cls-34"><line class="cls-16" x1="291.87" y1="560.25" x2="289.94" y2="560.89"/><g class="cls-34"><line class="cls-16" x1="295.72" y1="541.65" x2="293.79" y2="542.29"/><g class="cls-34"><line class="cls-16" x1="295.72" y1="550.63" x2="293.79" y2="551.27"/><g class="cls-34"><line class="cls-16" x1="295.72" y1="560.25" x2="293.79" y2="560.89"/></g></g></g></g></g></g></g></g></g></g></g></g><polygon class="cls-16" points="468.29 564.74 435.02 564.74 434.32 564.51 433.53 564.28 433.27 563.66 433.1 562.97 433.1 535.33 433.27 534.48 433.8 534.02 441.41 528 441.85 527.76 442.64 527.53 460.76 527.53 461.46 527.76 461.99 528 469.51 534.02 470.04 534.48 470.3 535.33 470.3 562.97 470.04 563.66 469.78 564.28 469.08 564.51 468.29 564.74 468.29 564.74 468.29 564.74"/><g class="cls-35"><line class="cls-16" x1="433.09" y1="536.51" x2="470.3" y2="537.16"/><g class="cls-35"><line class="cls-16" x1="433.09" y1="545.5" x2="470.3" y2="546.14"/><g class="cls-35"><line class="cls-16" x1="433.09" y1="555.12" x2="470.3" y2="555.76"/><g class="cls-35"><line class="cls-16" x1="466.45" y1="541.65" x2="460.68" y2="542.29"/><g class="cls-35"><line class="cls-16" x1="466.45" y1="550.63" x2="460.68" y2="551.27"/><g class="cls-35"><line class="cls-16" x1="466.45" y1="560.25" x2="460.68" y2="560.89"/><g class="cls-35"><line class="cls-16" x1="438.87" y1="541.65" x2="436.94" y2="542.29"/><g class="cls-35"><line class="cls-16" x1="438.87" y1="550.63" x2="436.94" y2="551.27"/><g class="cls-35"><line class="cls-16" x1="438.87" y1="560.25" x2="436.94" y2="560.89"/><g class="cls-35"><line class="cls-16" x1="442.72" y1="541.65" x2="440.79" y2="542.29"/><g class="cls-35"><line class="cls-16" x1="442.72" y1="550.63" x2="440.79" y2="551.27"/><g class="cls-35"><line class="cls-16" x1="442.72" y1="560.25" x2="440.79" y2="560.89"/></g></g></g></g></g></g></g></g></g></g></g></g><polygon class="cls-16" points="609.29 564.74 576.02 564.74 575.32 564.51 574.53 564.28 574.27 563.66 574.1 562.97 574.1 535.33 574.27 534.48 574.79 534.02 582.41 528 582.85 527.76 583.64 527.53 601.76 527.53 602.46 527.76 602.99 528 610.51 534.02 611.04 534.48 611.3 535.33 611.3 562.97 611.04 563.66 610.78 564.28 610.08 564.51 609.29 564.74 609.29 564.74 609.29 564.74"/><g class="cls-36"><line class="cls-16" x1="574.09" y1="536.51" x2="611.3" y2="537.16"/><g class="cls-36"><line class="cls-16" x1="574.09" y1="545.5" x2="611.3" y2="546.14"/><g class="cls-36"><line class="cls-16" x1="574.09" y1="555.12" x2="611.3" y2="555.76"/><g class="cls-36"><line class="cls-16" x1="607.45" y1="541.65" x2="601.68" y2="542.29"/><g class="cls-36"><line class="cls-16" x1="607.45" y1="550.63" x2="601.68" y2="551.27"/><g class="cls-36"><line class="cls-16" x1="607.45" y1="560.25" x2="601.68" y2="560.89"/><g class="cls-36"><line class="cls-16" x1="579.87" y1="541.65" x2="577.94" y2="542.29"/><g class="cls-36"><line class="cls-16" x1="579.87" y1="550.63" x2="577.94" y2="551.27"/><g class="cls-36"><line class="cls-16" x1="579.87" y1="560.25" x2="577.94" y2="560.89"/><g class="cls-36"><line class="cls-16" x1="583.72" y1="541.65" x2="581.79" y2="542.29"/><g class="cls-36"><line class="cls-16" x1="583.72" y1="550.63" x2="581.79" y2="551.27"/><g class="cls-36"><line class="cls-16" x1="583.72" y1="560.25" x2="581.79" y2="560.89"/></g></g></g></g></g></g></g></g></g></g></g></g><line class="cls-12" x1="301.95" y1="508.39" x2="301.95" y2="526.39"/><line class="cls-12" x1="451.95" y1="508.39" x2="451.95" y2="526.39"/><line class="cls-12" x1="592.95" y1="508.39" x2="592.95" y2="526.39"/><text class="cls-37" transform="translate(294.11 607.29)"><tspan class="cls-38">I</tspan><tspan x="5.23" y="0">nf</tspan><tspan class="cls-39" x="23.02" y="0">r</tspan><tspan x="29.78" y="0">aestru</tspan><tspan class="cls-40" x="84.12" y="0">c</tspan><tspan x="93.81" y="0">tu</tspan><tspan class="cls-39" x="112.33" y="0">r</tspan><tspan x="119.09" y="0">a física</tspan></text><text class="cls-37" transform="translate(180.01 494.29)"><tspan class="cls-41">V</tspan><tspan x="11.38" y="0">i</tspan><tspan class="cls-42" x="16.3" y="0">r</tspan><tspan x="23.67" y="0">tualización de alma</tspan><tspan class="cls-43" x="192.78" y="0">c</tspan><tspan x="202.06" y="0">enamie</tspan><tspan class="cls-44" x="267.31" y="0">n</tspan><tspan class="cls-43" x="278.88" y="0">t</tspan><tspan x="285.7" y="0">o (opcional)</tspan></text><text class="cls-37" transform="translate(265.99 392.29)"><tspan class="cls-41">V</tspan><tspan x="11.38" y="0">i</tspan><tspan class="cls-42" x="16.3" y="0">r</tspan><tspan x="23.67" y="0">tualización de cálculo</tspan></text><text class="cls-37" transform="translate(341.07 73.29)"><tspan class="cls-45">G</tspan><tspan x="13.67" y="0">estión</tspan></text><text class="cls-37" transform="translate(285.18 289.29)"><tspan class="cls-41">V</tspan><tspan x="11.38" y="0">i</tspan><tspan class="cls-42" x="16.3" y="0">r</tspan><tspan x="23.67" y="0">tualización de </tspan><tspan class="cls-46" x="150.06" y="0">r</tspan><tspan x="156.72" y="0">ed</tspan></text><text class="cls-47" transform="translate(108.95 165.16)"><tspan class="cls-48">A</tspan><tspan x="10.96" y="0">pps</tspan></text><text class="cls-47" transform="translate(171.95 165.16)"><tspan class="cls-48">A</tspan><tspan x="10.96" y="0">pps</tspan></text><text class="cls-47" transform="translate(253.95 165.16)"><tspan class="cls-48">A</tspan><tspan x="10.96" y="0">pps</tspan></text><text class="cls-47" transform="translate(314.95 165.16)"><tspan class="cls-48">A</tspan><tspan x="10.96" y="0">pps</tspan></text><text class="cls-47" transform="translate(397.95 165.16)"><tspan class="cls-48">A</tspan><tspan x="10.96" y="0">pps</tspan></text><text class="cls-47" transform="translate(459.95 165.16)"><tspan class="cls-48">A</tspan><tspan x="10.96" y="0">pps</tspan></text><text class="cls-47" transform="translate(540.95 165.16)"><tspan class="cls-48">A</tspan><tspan x="10.96" y="0">pps</tspan></text><text class="cls-47" transform="translate(602.95 165.16)"><tspan class="cls-48">A</tspan><tspan x="10.96" y="0">pps</tspan></text><line class="cls-12" x1="339.95" y1="89.39" x2="339.95" y2="137.39"/><line class="cls-12" x1="405.95" y1="89.39" x2="405.95" y2="137.39"/></svg>
