<svg id="Layer_1" data-name="Layer 1" xmlns="http://www.w3.org/2000/svg" xmlns:xlink="http://www.w3.org/1999/xlink" viewBox="0 0 694.57 598.05"><defs><style>.cls-1,.cls-12,.cls-13,.cls-2,.cls-33,.cls-34,.cls-35,.cls-5,.cls-7,.cls-8,.cls-9{fill:none;}.cls-1{clip-rule:evenodd;}.cls-10,.cls-2,.cls-3,.cls-4{fill-rule:evenodd;}.cls-3{fill:#1da78d;}.cls-4{fill:#4c84c5;}.cls-12,.cls-13,.cls-5,.cls-7{stroke:#fff;}.cls-12,.cls-13,.cls-33,.cls-34,.cls-35,.cls-5,.cls-7,.cls-8{stroke-miterlimit:8;}.cls-35,.cls-5,.cls-7,.cls-8{stroke-width:2px;}.cls-6{clip-path:url(#clip-path);}.cls-7{stroke-dasharray:50800 38100;}.cls-33,.cls-8{stroke:#81a9d6;}.cls-10,.cls-14,.cls-20{fill:#fff;}.cls-11{clip-path:url(#clip-path-29);}.cls-12{stroke-width:2px;}.cls-13{stroke-width:2px;}.cls-14{font-size:18px;}.cls-14,.cls-20,.cls-36{font-family:IBMPlexSans, IBMPlexSans;}.cls-15{letter-spacing:-0.01em;}.cls-16{letter-spacing:0.02em;}.cls-17{letter-spacing:0.01em;}.cls-18{letter-spacing:-0.01em;}.cls-19{letter-spacing:0em;}.cls-20{font-size:14px;}.cls-21{letter-spacing:0.01em;}.cls-22{letter-spacing:0em;}.cls-23{letter-spacing:0em;}.cls-24{letter-spacing:0em;}.cls-25{letter-spacing:-0.01em;}.cls-26{letter-spacing:-0.01em;}.cls-27{letter-spacing:0em;}.cls-28{letter-spacing:-0.02em;}.cls-29{letter-spacing:-0.01em;}.cls-30{letter-spacing:-0.02em;}.cls-31{letter-spacing:0em;}.cls-32{letter-spacing:0em;}.cls-33,.cls-34{stroke-width:3px;}.cls-34{stroke:#60c1af;}.cls-35{stroke:#4472c4;}.cls-36{font-size:24px;}.cls-37{letter-spacing:0em;}.cls-38{letter-spacing:0.01em;}.cls-39{letter-spacing:0em;}.cls-40{letter-spacing:0.01em;}</style><clipPath id="clip-path" transform="translate(-76.43 -12.95)"><polygon class="cls-1" points="78.82 607.5 770.44 607.5 770.44 75 78.82 75 78.82 607.5 78.82 607.5"/></clipPath><clipPath id="clip-path-29" transform="translate(-76.43 -12.95)"><polygon class="cls-1" points="121.66 309.81 148 309.81 148 284 121.66 284 121.66 309.81 121.66 309.81"/></clipPath></defs><title>virtual_network_distributedswitch</title><polygon class="cls-3" points="1 442.48 693.57 442.48 693.57 495.05 1 495.05 1 442.48 1 442.48"/><polygon class="cls-4" points="2.57 344.3 338.57 344.3 338.57 397.05 2.57 397.05 2.57 344.3 2.57 344.3"/><polygon class="cls-4" points="0 545.3 689.57 545.3 689.57 598.05 0 598.05 0 545.3 0 545.3"/><polygon class="cls-4" points="356 344.3 694.57 344.3 694.57 397.05 356 397.05 356 344.3 356 344.3"/><polygon class="cls-4" points="426 158.3 601.57 158.3 601.57 189.05 426 189.05 426 158.3 426 158.3"/><polygon class="cls-4" points="354 62.3 694.57 62.3 694.57 336.05 354 336.05 354 62.3 354 62.3"/><polygon id="mngt_infrastructure_square" data-name="mngt infrastructure square" class="cls-4" points="3 62.3 342.57 62.3 342.57 335.05 3 335.05 3 62.3 3 62.3"/><rect class="cls-5" x="12.68" y="70.28" width="321.11" height="37.74" rx="1.57" ry="1.57"/><g class="cls-6"><rect class="cls-5" x="12.68" y="116.26" width="98.8" height="98.82" rx="4.12" ry="4.12"/><g class="cls-6"><rect class="cls-5" x="123.84" y="116.26" width="98.8" height="98.82" rx="4.12" ry="4.12"/><g class="cls-6"><rect class="cls-5" x="234.99" y="116.95" width="98.8" height="98.82" rx="4.12" ry="4.12"/><g class="cls-6"><rect class="cls-5" x="12.68" y="225.37" width="98.8" height="98.82" rx="4.12" ry="4.12"/><g class="cls-6"><rect class="cls-5" x="123.84" y="225.37" width="98.8" height="98.82" rx="4.12" ry="4.12"/><g class="cls-6"><rect class="cls-5" x="234.99" y="225.37" width="98.8" height="98.82" rx="4.12" ry="4.12"/><g class="cls-6"><g class="cls-6"><rect class="cls-5" x="362.61" y="70.28" width="321.11" height="37.74" rx="1.57" ry="1.57"/><g class="cls-6"><rect class="cls-7" x="385.94" y="173.21" width="263.47" height="150.97" rx="6.29" ry="6.29"/><g class="cls-6"><rect class="cls-5" x="422.99" y="156.75" width="181.82" height="37.74" rx="1.57" ry="1.57"/><g class="cls-6"><rect class="cls-5" x="407.89" y="248.7" width="49.4" height="49.41" rx="2.06" ry="2.06"/><g class="cls-6"><line class="cls-5" x1="412.7" y1="273.4" x2="452.22" y2="273.4"/><g class="cls-6"><rect class="cls-5" x="492.97" y="248.7" width="49.4" height="49.41" rx="2.06" ry="2.06"/><g class="cls-6"><line class="cls-5" x1="497.78" y1="273.4" x2="537.3" y2="273.4"/><g class="cls-6"><rect class="cls-5" x="575.31" y="248.7" width="49.4" height="49.41" rx="2.06" ry="2.06"/><g class="cls-6"><line class="cls-5" x1="580.11" y1="273.4" x2="619.63" y2="273.4"/><g class="cls-6"><rect class="cls-5" x="148.54" y="264.48" width="49.4" height="49.41" rx="2.06" ry="2.06"/><g class="cls-6"><line class="cls-5" x1="153.34" y1="289.19" x2="192.86" y2="289.19"/><g class="cls-6"><rect class="cls-5" x="259.69" y="264.48" width="49.4" height="49.41" rx="2.06" ry="2.06"/><g class="cls-6"><line class="cls-5" x1="264.49" y1="289.19" x2="304.01" y2="289.19"/><g class="cls-6"><g class="cls-6"><g class="cls-6"><g class="cls-6"><g class="cls-6"><path class="cls-8" d="M203.7,417.42a5.16,5.16,0,1,1,5.14,4.81,5,5,0,0,1-5.14-4.81Z" transform="translate(-76.43 -12.95)"/><g class="cls-6"><path class="cls-8" d="M138.52,417.42a5.16,5.16,0,1,1,5.14,4.81,5,5,0,0,1-5.14-4.81Z" transform="translate(-76.43 -12.95)"/><g class="cls-6"><path class="cls-8" d="M204.38,550.2a4.82,4.82,0,1,1,4.81,5.15,5,5,0,0,1-4.81-5.15Z" transform="translate(-76.43 -12.95)"/><g class="cls-6"><path class="cls-8" d="M138.52,451.39a5.15,5.15,0,1,1,5.14,5.15,5.15,5.15,0,0,1-5.14-5.15Z" transform="translate(-76.43 -12.95)"/><polygon class="cls-9" points="2.39 594.55 694.01 594.55 694.01 62.05 2.39 62.05 2.39 594.55 2.39 594.55"/></g></g></g></g></g></g></g></g></g></g></g></g></g></g></g></g></g></g></g></g></g></g></g></g></g></g></g></g><path class="cls-8" d="M481.23,418a5,5,0,1,1,5,5,5,5,0,0,1-5-5Z" transform="translate(-76.43 -12.95)"/><path class="cls-10" d="M133.45,211.4h-.35l-.11-.34-.23-.23h0l-.12-.45-.12-.34-.46-.34-.46-.11h0l-.46.11-.58.34-.12.34-.11.45h0l-.24.23-.11.34h-.58l-3.82-1.81h0l-.11-.34-.12-.12h0v-.33l.12-.34h0l.11-.12.23-.45v-.45l-.34-.46h0l-.35-.34h-.93L124,207h0l-.34.12h-.35l-.12-.12-.34-.11L121,203.14h0v-.57h0l.34-.11.23-.23h0l.47-.11.34-.12.35-.56.12-.46h0l-.12-.45-.35-.45L122,200l-.47-.12h0l-.23-.22-.23-.12h0l-.11-.11v-.34h0l.34-1.13.58-1,1-1.7h0l.23-.11.12-.11h.35l.34.11h0l.23.34h.93l.35-.34h0l.34-.45v-.46l-.23-.45-.11-.23h0l-.12-.22V193h0l.12-.11.11-.34,3.82-1.82H130l.11.23.24.34h0l.11.45.12.34.58.34.46.12h0l.46-.12.46-.34.12-.34.12-.45h0l.23-.34.11-.23h.58l3.82,1.82h0l.11.34.12.11h0v.34l-.12.22h0l-.11.23-.23.45v.46l.34.45h0l.35.34h.93l.34-.34h0l.24-.11h.34l.12.11.35.11,1.85,3.74h0v.56h0l-.35.12-.23.22h0l-.46.12-.35.11-.35.45-.11.45h0l.11.46.35.56.35.12.46.11h0l.23.23.35.11h0v.57l-1.85,3.73h0l-.35.11-.12.12h-.34l-.24-.12h0l-.34-.34H138l-.35.34h0l-.34.46v.45l.23.45.11.12h0l.12.34v.33h0l-.12.12-.11.34-3.82,1.81h-.23Zm-1.85-3.06h0l.69.12.7.34.46.45.46.68,2.32-1.25h0l-.12-.68v-.68l.12-.68.46-.56h0l.58-.45.69-.12h.81l.58.12,1.27-2.27h0l-.69-.45-.46-.45-.24-.68L139,201h0l.23-.67.24-.68.46-.46.69-.45-1.27-2.26h0l-.58.11H138l-.69-.11-.58-.46h0l-.46-.56-.12-.68V194l.12-.57-2.32-1.24h0l-.46.68-.46.45-.7.22-.69.23h0l-.81-.23-.7-.22-.46-.45-.46-.68-2.31,1.24h0l.23.57v.79l-.23.68-.47.56h0l-.58.46-.81.11h-.57l-.81-.11h0l-.7,1-.58,1.24h0l.58.34.7.57.34.68.12.67h0l-.12.8-.34.68-.47.45-.69.45,1.27,2.27h0l.7-.12h.69l.69.12.58.45h0l.47.56.23.68V208l-.23.68,2.31,1.25h0l.46-.68.46-.45.7-.34.81-.12Z" transform="translate(-76.43 -12.95)"/><path class="cls-10" d="M131.6,205.88h0l-1-.23-.93-.22-.93-.33-.7-.67-.7-.67-.23-.88-.35-.89-.23-1h0l.23-.89.35-.89.23-.89.7-.78.7-.55.93-.34.93-.22,1-.22h0l.93.22.93.22.93.34.82.55.58.78.35.89.23.89.23.89h0l-.23,1-.23.89-.35.88-.58.67-.82.67-.93.33-.93.22-.93.23Zm0-8.45h-.82l-.69.33-.59.23-.58.55-.46.56-.35.55-.35.67V201h0v.77l.35.67.35.56.46.55.58.45.59.33.69.33h1.52l.7-.33.58-.33.58-.45.58-.55.23-.56.35-.67V201h0v-.67l-.35-.67-.23-.55-.58-.56-.58-.55-.58-.23-.7-.33Z" transform="translate(-76.43 -12.95)"/><polygon class="cls-10" points="66.62 206.73 66.62 205.93 66.62 205.93 66.39 205.47 66.16 205.24 65.81 205.01 65.35 204.89 65.35 204.89 64.89 205.01 64.55 205.24 64.2 205.47 64.08 205.93 64.08 206.73 63.28 206.39 63.28 206.39 62.01 206.16 60.86 205.47 60.06 205.01 60.63 204.43 60.63 204.43 60.86 204.09 60.98 203.63 60.98 203.63 60.86 203.16 60.63 202.71 60.17 202.59 59.71 202.36 59.71 202.36 59.25 202.59 59.02 202.71 58.33 203.4 57.87 202.59 57.87 202.59 57.3 201.32 56.95 200.06 57.99 199.83 57.99 199.83 58.33 200.52 58.68 201.44 58.68 201.44 59.14 201.21 59.71 201.21 59.71 201.21 60.17 201.21 60.63 201.32 61.44 201.9 62.01 202.71 62.24 203.16 62.24 203.63 62.24 203.63 62.24 204.32 61.9 204.78 61.9 204.78 63.05 205.24 63.05 205.24 63.51 204.55 63.97 204.09 64.55 203.85 65.35 203.63 65.35 203.63 66.16 203.85 66.73 204.09 67.19 204.55 67.65 205.24 67.65 205.24 68.69 204.78 68.69 204.78 68.46 204.32 68.46 203.63 68.46 203.63 68.46 203.16 68.57 202.71 69.15 201.9 69.95 201.32 70.41 201.21 70.87 201.21 70.87 201.21 71.56 201.21 72.02 201.44 72.02 201.44 72.48 200.4 72.48 200.4 71.79 199.94 71.33 199.48 71.1 198.79 70.87 198.1 70.87 198.1 71.1 197.3 71.33 196.72 71.79 196.26 72.48 195.69 72.48 195.69 72.02 194.65 72.02 194.65 71.56 194.99 70.87 194.99 70.87 194.99 70.41 194.99 69.95 194.76 69.15 194.19 68.57 193.38 68.46 192.92 68.46 192.46 68.46 192.46 68.46 191.89 68.69 191.43 68.69 191.43 67.77 191.08 67.08 190.74 67.31 189.7 67.31 189.7 68.57 190.05 69.84 190.62 70.64 191.08 69.95 191.66 69.95 191.66 69.84 192 69.61 192.46 69.61 192.46 69.84 192.92 69.95 193.38 70.41 193.61 70.87 193.73 70.87 193.73 71.33 193.61 71.68 193.38 72.25 192.81 72.72 193.61 72.72 193.61 73.41 194.76 73.75 196.03 73.98 196.84 73.17 196.84 73.17 196.84 72.72 196.95 72.48 197.3 72.25 197.64 72.14 198.1 72.14 198.1 72.25 198.56 72.48 198.79 72.72 199.14 73.17 199.25 73.98 199.25 73.75 200.06 73.75 200.06 73.41 201.32 72.72 202.59 72.25 203.4 71.68 202.71 71.68 202.71 71.33 202.59 70.87 202.36 70.87 202.36 70.41 202.59 69.95 202.71 69.84 203.16 69.61 203.63 69.61 203.63 69.84 204.09 69.95 204.43 70.64 205.01 69.84 205.47 69.84 205.47 68.57 206.16 67.31 206.39 66.62 206.73 66.62 206.73 66.62 206.73"/><path class="cls-10" d="M141.67,214.16H141l-.6-.36-.47-.12-.48-.47-.48-.48-.12-.6-.36-.59v-.6h0v-.72l.36-.59.12-.48.48-.48.48-.48.47-.24.6-.23h1.31l.72.23.48.24.47.48.48.48.12.48.36.59v.72h0v.6l-.36.59-.12.6-.48.48-.47.47-.48.12-.72.36Zm0-5.13h0l-.84.12-.48.48-.47.47-.12.84h0l.12.71.47.48.48.6.84.12h0l.83-.12.48-.6.48-.48.12-.71h0l-.12-.84-.48-.47-.48-.48-.83-.12Z" transform="translate(-76.43 -12.95)"/><path class="cls-10" d="M249.46,210.43h-.36l-.12-.35-.24-.24h0l-.12-.47-.12-.35-.48-.35-.47-.11h0l-.48.11-.6.35-.12.35-.12.47h0l-.24.24-.12.35h-.6l-4-1.87h0l-.12-.36-.12-.11h0v-.35l.12-.36h0l.12-.11.24-.47v-.47l-.36-.47h0l-.36-.35h-1l-.24.35h0l-.36.12h-.36l-.12-.12-.36-.12-1.91-3.86h0v-.58h0l.35-.12.24-.24h0l.48-.11.36-.12.36-.59.12-.46h0l-.12-.47-.36-.47-.36-.12-.48-.12h0l-.24-.23-.23-.12h0l-.12-.11v-.35h0l.35-1.18.6-1.05,1.08-1.76h0l.24-.11.12-.12h.36l.36.12h0l.24.35h1l.36-.35h0l.36-.47v-.47l-.24-.47-.12-.23h0l-.12-.24v-.35h0l.12-.12.12-.35,4-1.87h.6l.12.23.24.36h0l.12.46.12.36.6.35.48.11h0l.47-.11.48-.35.12-.36.12-.46h0l.24-.36.12-.23h.6l4,1.87h0l.12.35.12.12h0v.35l-.12.24h0l-.12.23-.24.47v.47l.36.47h0l.36.35h1l.36-.35h0l.23-.12H256l.12.12.36.11,1.92,3.87h0v.58h0l-.36.12-.24.23h0l-.48.12-.36.12-.36.47-.12.47h0l.12.46.36.59.36.12.48.11h0l.24.24.36.12h0v.58l-1.92,3.86h0l-.36.12L256,206h-.36l-.23-.12h0l-.36-.35h-1l-.36.35h0l-.36.47v.47l.24.47.12.11h0l.12.36v.35h0l-.12.11-.12.36-4,1.87h-.24Zm-1.91-3.16h0l.71.11.72.36.48.46.48.71,2.39-1.29h0l-.12-.7v-.71l.12-.7.48-.58h0l.6-.47.72-.12H255l.59.12,1.32-2.35h0l-.72-.46-.48-.47-.23-.7-.24-.82h0l.24-.71.23-.7.48-.47.72-.47L255.56,195h0l-.59.12h-.84l-.72-.12-.6-.47h0l-.48-.58-.12-.7v-.82l.12-.59-2.39-1.29h0l-.48.7-.48.47-.72.24-.71.23h0l-.84-.23-.72-.24-.48-.47-.48-.7-2.39,1.29h0l.24.59v.82l-.24.7-.48.58h0l-.6.47-.84.12h-.59l-.84-.12h0l-.72,1.06-.6,1.28h0l.6.36.72.58.36.7.12.71h0l-.12.82-.36.7-.48.47-.72.46,1.32,2.35h0l.72-.12h.71l.72.12.6.47h0l.48.58.24.7v.71l-.24.7,2.39,1.29h0l.48-.71.48-.46.72-.36.84-.11Z" transform="translate(-76.43 -12.95)"/><path class="cls-10" d="M247.55,204.71h0l-1.09-.23-1-.23-1-.34-.73-.69-.72-.69-.24-.92-.36-.92-.24-1h0l.24-.92.36-.92.24-.92.72-.81.73-.57,1-.35,1-.23,1.09-.23h0l1,.23,1,.23,1,.35.84.57.6.81.36.92.24.92.24.92h0l-.24,1-.24.92-.36.92-.6.69-.84.69-1,.34-1,.23-1,.23Zm0-8.73h-.85l-.72.34-.6.23-.6.58-.48.57-.37.58-.36.69v.69h0v.8l.36.69.37.58.48.57.6.46.6.35.72.34h1.57l.72-.34.6-.35.61-.46.6-.57.24-.58.36-.69v-.8h0V199l-.36-.69-.24-.58-.6-.57-.61-.58-.6-.23-.72-.34Z" transform="translate(-76.43 -12.95)"/><polygon class="cls-10" points="182.96 206.05 182.96 205.21 182.96 205.21 182.72 204.74 182.48 204.5 182.13 204.26 181.65 204.14 181.65 204.14 181.17 204.26 180.82 204.5 180.46 204.74 180.34 205.21 180.34 206.05 179.51 205.69 179.51 205.69 178.2 205.45 177.01 204.74 176.17 204.26 176.77 203.67 176.77 203.67 177.01 203.31 177.13 202.83 177.13 202.83 177.01 202.36 176.77 201.88 176.29 201.76 175.82 201.52 175.82 201.52 175.34 201.76 175.1 201.88 174.39 202.59 173.91 201.76 173.91 201.76 173.32 200.45 172.96 199.14 174.03 198.91 174.03 198.91 174.39 199.62 174.75 200.57 174.75 200.57 175.22 200.33 175.82 200.33 175.82 200.33 176.29 200.33 176.77 200.45 177.6 201.05 178.2 201.88 178.44 202.36 178.44 202.83 178.44 202.83 178.44 203.55 178.08 204.02 178.08 204.02 179.27 204.5 179.27 204.5 179.74 203.79 180.22 203.31 180.82 203.07 181.65 202.83 181.65 202.83 182.48 203.07 183.08 203.31 183.55 203.79 184.03 204.5 184.03 204.5 185.1 204.02 185.1 204.02 184.86 203.55 184.86 202.83 184.86 202.83 184.86 202.36 184.98 201.88 185.58 201.05 186.41 200.45 186.89 200.33 187.36 200.33 187.36 200.33 188.08 200.33 188.55 200.57 188.55 200.57 189.03 199.5 189.03 199.5 188.31 199.02 187.84 198.55 187.6 197.83 187.36 197.12 187.36 197.12 187.6 196.29 187.84 195.69 188.31 195.21 189.03 194.62 189.03 194.62 188.55 193.55 188.55 193.55 188.08 193.91 187.36 193.91 187.36 193.91 186.89 193.91 186.41 193.67 185.58 193.07 184.98 192.24 184.86 191.76 184.86 191.29 184.86 191.29 184.86 190.69 185.1 190.21 185.1 190.21 184.15 189.86 183.44 189.5 183.67 188.43 183.67 188.43 184.98 188.79 186.29 189.38 187.13 189.86 186.41 190.45 186.41 190.45 186.29 190.81 186.05 191.29 186.05 191.29 186.29 191.76 186.41 192.24 186.89 192.48 187.36 192.59 187.36 192.59 187.84 192.48 188.2 192.24 188.79 191.64 189.27 192.48 189.27 192.48 189.98 193.67 190.34 194.98 190.58 195.81 189.74 195.81 189.74 195.81 189.27 195.93 189.03 196.29 188.79 196.64 188.67 197.12 188.67 197.12 188.79 197.59 189.03 197.83 189.27 198.19 189.74 198.31 190.58 198.31 190.34 199.14 190.34 199.14 189.98 200.45 189.27 201.76 188.79 202.59 188.2 201.88 188.2 201.88 187.84 201.76 187.36 201.52 187.36 201.52 186.89 201.76 186.41 201.88 186.29 202.36 186.05 202.83 186.05 202.83 186.29 203.31 186.41 203.67 187.13 204.26 186.29 204.74 186.29 204.74 184.98 205.45 183.67 205.69 182.96 206.05 182.96 206.05 182.96 206.05"/><path class="cls-10" d="M258,213.29h-.74l-.62-.37-.49-.13-.49-.49-.5-.5-.12-.61-.37-.62V210h0v-.74l.37-.62.12-.49.5-.49.49-.5.49-.24.62-.25h1.36l.74.25.49.24.5.5.49.49.12.49.37.62V210h0v.62l-.37.62-.12.61-.49.5-.5.49-.49.13-.74.37Zm0-5.31h0l-.86.12-.5.49-.49.5L256,210h0l.12.74.49.5.5.61.86.13h0l.87-.13.49-.61.49-.5.13-.74h0l-.13-.86-.49-.5-.49-.49L258,208Z" transform="translate(-76.43 -12.95)"/><path class="cls-10" d="M355.88,211.14h-.37l-.13-.36-.25-.24h0l-.12-.49-.12-.36-.5-.36-.49-.12h0l-.5.12-.62.36-.12.36-.12.49h0l-.25.24-.12.36h-.62l-4.08-1.93h0l-.13-.37-.12-.12h0v-.36l.12-.36h0l.13-.12.24-.49v-.48l-.37-.49h0l-.37-.36h-1l-.24.36h0l-.38.12H345l-.12-.12-.37-.12-2-4h0v-.61h0l.37-.12.25-.24h0l.49-.12.37-.12.37-.61.13-.48h0l-.13-.48L344,199l-.37-.12-.49-.12h0l-.25-.24-.25-.12h0l-.12-.12V198h0l.37-1.21.62-1.09,1.11-1.81h0l.25-.12.12-.12h.37l.38.12h0l.24.36h1l.37-.36h0l.37-.49v-.48l-.24-.48-.13-.25h0l-.12-.24v-.36h0l.12-.12.13-.36,4.08-1.94h.62l.12.24.25.36h0l.12.49.12.36.62.36.5.13h0l.49-.13.5-.36.12-.36.12-.49h0l.25-.36.13-.24h.61l4.08,1.94h0l.13.36.12.12h0v.36l-.12.24h0l-.13.25-.24.48v.48l.37.49h0l.37.36h1l.37-.36h0l.25-.12h.37l.12.12.37.12,2,4h0v.61h0l-.37.12-.25.24h0l-.49.12-.37.12-.37.49-.13.48h0l.13.48.37.61.37.12.49.12h0l.25.24.37.12h0v.61l-2,4h0l-.37.12-.12.12h-.37l-.25-.12h0l-.37-.36h-1l-.37.36h0l-.37.49v.48l.24.49.13.12h0l.12.36v.36h0l-.12.12-.13.37-4.08,1.93h-.24Zm-2-3.26h0l.74.12.74.36.5.48.49.73,2.47-1.33h0l-.12-.73v-.72l.12-.73.5-.6h0L360,205l.74-.12h.87l.61.12,1.36-2.42h0l-.74-.48-.49-.49-.25-.72-.25-.85h0l.25-.73.25-.72.49-.49.74-.48-1.36-2.42h0l-.61.12h-.87l-.74-.12-.62-.48h0l-.5-.61-.12-.72v-.85l.12-.61-2.47-1.33h0l-.49.73-.5.48-.74.24-.74.25h0L353,192l-.74-.24-.49-.48-.5-.73-2.47,1.33h0l.24.61v.85l-.24.72-.5.61h0l-.62.48-.86.12h-.62l-.87-.12h0l-.74,1.09-.62,1.33h0l.62.36.74.61.38.72.12.73h0l-.12.85-.38.72-.49.49-.74.48,1.36,2.42h0l.74-.12H347l.74.12.62.49h0l.5.6.24.73v.72l-.24.73,2.47,1.33h0l.5-.73.49-.48L353,208l.87-.12Z" transform="translate(-76.43 -12.95)"/><path class="cls-10" d="M353.9,205.24h0l-1.12-.24-1-.24-1-.35-.75-.72-.75-.71-.24-.95-.38-.95-.25-1.07h0l.25-.95.38-.95.24-1,.75-.83.75-.59,1-.36,1-.24,1.12-.24h0l1,.24,1,.24,1,.36.87.59.63.83.37,1,.25.95.25.95h0l-.25,1.07-.25.95-.37.95-.63.71-.87.72-1,.35-1,.24-1,.24Zm0-9H353l-.75.36-.62.24-.62.59-.5.59-.37.6-.38.71V200h0v.83l.38.72.37.59.5.59.62.48.62.36.75.35h1.61l.75-.35.62-.36.63-.48.62-.59.25-.59.37-.72V200h0v-.71l-.37-.71-.25-.6-.62-.59-.63-.59-.62-.24-.75-.36Z" transform="translate(-76.43 -12.95)"/><polygon class="cls-10" points="289.7 207.05 289.7 206.19 289.7 206.19 289.46 205.69 289.21 205.45 288.84 205.2 288.35 205.08 288.35 205.08 287.86 205.2 287.49 205.45 287.12 205.69 287 206.19 287 207.05 286.14 206.68 286.14 206.68 284.78 206.43 283.55 205.69 282.69 205.2 283.31 204.59 283.31 204.59 283.55 204.22 283.68 203.73 283.68 203.73 283.55 203.23 283.31 202.74 282.82 202.62 282.32 202.37 282.32 202.37 281.83 202.62 281.59 202.74 280.85 203.48 280.36 202.62 280.36 202.62 279.74 201.27 279.37 199.91 280.48 199.67 280.48 199.67 280.85 200.41 281.22 201.39 281.22 201.39 281.71 201.14 282.32 201.14 282.32 201.14 282.82 201.14 283.31 201.27 284.17 201.88 284.78 202.74 285.03 203.23 285.03 203.73 285.03 203.73 285.03 204.47 284.66 204.96 284.66 204.96 285.89 205.45 285.89 205.45 286.38 204.71 286.88 204.22 287.49 203.97 288.35 203.73 288.35 203.73 289.21 203.97 289.83 204.22 290.32 204.71 290.81 205.45 290.81 205.45 291.92 204.96 291.92 204.96 291.67 204.47 291.67 203.73 291.67 203.73 291.67 203.23 291.8 202.74 292.41 201.88 293.27 201.27 293.76 201.14 294.25 201.14 294.25 201.14 294.99 201.14 295.49 201.39 295.49 201.39 295.98 200.28 295.98 200.28 295.24 199.79 294.75 199.3 294.5 198.56 294.25 197.82 294.25 197.82 294.5 196.96 294.75 196.34 295.24 195.85 295.98 195.24 295.98 195.24 295.49 194.13 295.49 194.13 294.99 194.5 294.25 194.5 294.25 194.5 293.76 194.5 293.27 194.25 292.41 193.64 291.8 192.78 291.67 192.29 291.67 191.79 291.67 191.79 291.67 191.18 291.92 190.69 291.92 190.69 290.93 190.32 290.2 189.95 290.44 188.84 290.44 188.84 291.8 189.21 293.15 189.83 294.01 190.32 293.27 190.93 293.27 190.93 293.15 191.3 292.9 191.79 292.9 191.79 293.15 192.29 293.27 192.78 293.76 193.02 294.25 193.15 294.25 193.15 294.75 193.02 295.12 192.78 295.73 192.16 296.22 193.02 296.22 193.02 296.96 194.25 297.33 195.61 297.58 196.47 296.71 196.47 296.71 196.47 296.22 196.59 295.98 196.96 295.73 197.33 295.61 197.82 295.61 197.82 295.73 198.31 295.98 198.56 296.22 198.93 296.71 199.05 297.58 199.05 297.33 199.91 297.33 199.91 296.96 201.27 296.22 202.62 295.73 203.48 295.12 202.74 295.12 202.74 294.75 202.62 294.25 202.37 294.25 202.37 293.76 202.62 293.27 202.74 293.15 203.23 292.9 203.73 292.9 203.73 293.15 204.22 293.27 204.59 294.01 205.2 293.15 205.69 293.15 205.69 291.8 206.43 290.44 206.68 289.7 207.05 289.7 207.05 289.7 207.05"/><path class="cls-10" d="M364.66,214.1h-.77l-.63-.39-.51-.13-.51-.51-.51-.51-.13-.63-.38-.64v-.64h0v-.76l.38-.64.13-.51.51-.51.51-.51.51-.26.63-.25h1.41l.76.25.51.26.51.51.51.51.13.51.38.64v.76h0v.64l-.38.64-.13.63-.51.51-.51.51-.51.13-.76.39Zm0-5.49h0l-.89.13-.51.51-.51.51-.13.89h0l.13.77.51.51.51.63.89.13h0l.89-.13.51-.63.51-.51.13-.77h0l-.13-.89-.51-.51-.51-.51-.89-.13Z" transform="translate(-76.43 -12.95)"/><path class="cls-5" d="M122.2,296.9a12.63,12.63,0,1,1,12.63,12.37A12.49,12.49,0,0,1,122.2,296.9Z" transform="translate(-76.43 -12.95)"/><g class="cls-11"><line class="cls-12" x1="57.05" y1="284.75" x2="53.25" y2="288.38"/><g class="cls-11"><polygon class="cls-13" points="54.76 289.96 50.09 291.4 51.74 286.8 54.76 289.96 54.76 289.96"/><g class="cls-11"><line class="cls-12" x1="59.87" y1="282.65" x2="63.59" y2="278.93"/><g class="cls-11"><polygon class="cls-12" points="62.04 277.39 66.68 275.84 65.13 280.48 62.04 277.39 62.04 277.39"/></g></g></g></g><path class="cls-10" d="M152.05,329l-.17-.17L150,328l-1.38-1-1.39-1-1.2-1.2-1-1.2-.86-1.2-.87-1.37-.51-1.2-.87-2.57-.51-2.39-.35-2.06v-2.57l.52-.17,2.07-.51,1.9-.69,1.72-1,1.56-.86,2.07-1.71.69-.69.52-.51.52.51.86.69,2.07,1.71,1.38.86,1.73,1,1.9.69,2.07.51.69.17-.17.69v1.88l-.18,2.06-.51,2.39-1,2.57-.52,1.2-.69,1.37-.86,1.2-1,1.2-1.2,1.2-1.39,1-1.55,1-1.73.86-.34.17Zm-9.67-17.64h0v1.54l.35,2.06.51,2.05.87,2.4.52,1,.69,1.2.69,1,1,1.2,1,1,1.21.86,1.2.85,1.56.86,1.55-.86,1.38-.85,1.21-.86,1-1,.86-1.2.86-1,.69-1.2.52-1L161,317l.34-2.05.35-2.06v-1.54l-1.73-.51-1.55-.69-1.56-.68-1.21-.86-2.24-1.54-1.38-1-1.38,1-2.07,1.54-1.39.86-1.55.68-1.55.69-1.73.51Z" transform="translate(-76.43 -12.95)"/><path class="cls-10" d="M152.14,307.18h0l-.34.17v.52l.34.17.33-.17.17-.17-.17-.35-.33-.17Zm0,18.52h0l-.34.17v.69l.34.17.33-.17.17-.35-.17-.34-.33-.17Zm-8.37-14.23h0l-.33.17-.17.17.17.34.33.18.34-.18v-.51l-.34-.17Zm16.89,0h0l-.33.17-.17.17.17.34.33.18.34-.18v-.51l-.34-.17Z" transform="translate(-76.43 -12.95)"/><path class="cls-10" d="M155.46,315.48h-.34v-2.33l-.16-.5-.33-.5-.34-.5-.49-.33-.5-.17-.5-.17-.66-.16h-.5L151,311l-.5.34-.33.33-.5.5-.16.5-.17.5-.16.67v1.66h-.34l-.33.17-.33.17-.17.33-.16.5v3l.16.5.17.33.33.17.33.17h6.65l.33-.17.33-.17.33-.33v-4l-.33-.33-.33-.17-.33-.17Zm-5.32-1.66h0l.17-.84.33-.66.66-.5.84-.17.83.17.66.5.5.66.16.84v1.66h-4.15v-1.66Zm2.83,4h0l-.17.33-.17.17v.83l-.16.33h-.67v-1.16l-.33-.17v-1l.17-.17.33-.16h.5l.16.16.17.17.17.33v.34Z" transform="translate(-76.43 -12.95)"/><path class="cls-8" d="M481.23,451c0-3.93,4.54-6.8,8.66-3.66,3.15,4.12.27,8.66-3.66,8.66a5,5,0,0,1-5-5Z" transform="translate(-76.43 -12.95)"/><path class="cls-8" d="M543.23,418c0-3.93,4.54-6.8,8.66-3.66,3.15,4.12.27,8.66-3.66,8.66a5,5,0,0,1-5-5Z" transform="translate(-76.43 -12.95)"/><path class="cls-8" d="M543.23,550c0-3.93,4.54-6.8,8.66-3.66,3.15,4.12.27,8.66-3.66,8.66a5,5,0,0,1-5-5Z" transform="translate(-76.43 -12.95)"/><text class="cls-14" transform="translate(18.41 144.83)">Dispositi<tspan class="cls-15" x="64.96" y="0">v</tspan><tspan x="73.44" y="0">o </tspan><tspan x="17.67" y="21.6">vi</tspan><tspan class="cls-16" x="30.54" y="21.6">r</tspan><tspan x="36.85" y="21.6">tual</tspan></text><text class="cls-14" transform="translate(131.91 144.83)">Dispositi<tspan class="cls-15" x="64.96" y="0">v</tspan><tspan x="73.44" y="0">o </tspan><tspan x="17.67" y="21.6">vi</tspan><tspan class="cls-16" x="30.54" y="21.6">r</tspan><tspan x="36.85" y="21.6">tual</tspan></text><text class="cls-14" transform="translate(242.91 143.83)">Dispositi<tspan class="cls-15" x="64.96" y="0">v</tspan><tspan x="73.44" y="0">o </tspan><tspan x="17.67" y="21.6">vi</tspan><tspan class="cls-16" x="30.54" y="21.6">r</tspan><tspan x="36.85" y="21.6">tual</tspan></text><text class="cls-14" transform="translate(30.07 243.83)">E<tspan class="cls-17" x="8.86" y="0">x</tspan><tspan x="17.42" y="0">t</tspan><tspan class="cls-18" x="23.38" y="0">r</tspan><tspan x="29.09" y="0">emo</tspan><tspan x="7.38" y="21.6">(</tspan><tspan class="cls-19" x="12.49" y="21.6">E</tspan><tspan x="21.28" y="21.6">dge)</tspan></text><text class="cls-14" transform="translate(159.57 250.83)">VM</text><text class="cls-20" transform="translate(160.57 280.99)">APP</text><text class="cls-20" transform="translate(270.57 281.99)">APP</text><text class="cls-20" transform="translate(417.57 265.99)">APP</text><text class="cls-20" transform="translate(586.57 265.99)">APP</text><text class="cls-20" transform="translate(502.57 264.99)">APP</text><text class="cls-20" transform="translate(163.57 304.99)">SO</text><text class="cls-20" transform="translate(273.57 304.99)">SO</text><text class="cls-20" transform="translate(422.57 287.99)">SO</text><text class="cls-20" transform="translate(506.57 287.99)">SO</text><text class="cls-20" transform="translate(589.57 287.99)">SO</text><text class="cls-14" transform="translate(269.57 250.83)">VM</text><text class="cls-14" transform="translate(15.57 92.83)"><tspan class="cls-21">I</tspan><tspan x="4.48" y="0">nf</tspan><tspan class="cls-22" x="19.73" y="0">r</tspan><tspan x="25.52" y="0">aestru</tspan><tspan class="cls-17" x="72.11" y="0">c</tspan><tspan x="80.4" y="0">tu</tspan><tspan class="cls-23" x="96.28" y="0">r</tspan><tspan x="102.08" y="0">a de gestión/</tspan><tspan class="cls-24" x="199.98" y="0">e</tspan><tspan class="cls-17" x="208.94" y="0">x</tspan><tspan x="217.51" y="0">t</tspan><tspan class="cls-18" x="223.47" y="0">r</tspan><tspan x="229.17" y="0">emo (</tspan><tspan class="cls-19" x="272.01" y="0">E</tspan><tspan x="280.8" y="0">dge)</tspan></text><text class="cls-14" transform="translate(448.57 94.83)"><tspan class="cls-25">C</tspan><tspan x="10.31" y="0">a</tspan><tspan class="cls-26" x="18.99" y="0">r</tspan><tspan x="24.73" y="0">gas de t</tspan><tspan class="cls-23" x="83.36" y="0">r</tspan><tspan x="89.15" y="0">abajo</tspan></text><text class="cls-14" transform="translate(119.57 377.83)">Host ESXi</text><text class="cls-14" transform="translate(471.57 377.83)">Host ESXi</text><text class="cls-14" transform="translate(275.57 473.83)">VD<tspan class="cls-27" x="22.03" y="0">S</tspan><tspan x="31" y="0">-</tspan><tspan class="cls-28" x="36.52" y="0">P</tspan><tspan x="45.83" y="0">úbli</tspan><tspan class="cls-29" x="74.45" y="0">c</tspan><tspan x="82.4" y="0">o</tspan></text><text class="cls-14" transform="translate(273.57 574.83)">VD<tspan class="cls-27" x="22.03" y="0">S</tspan><tspan x="31" y="0">-</tspan><tspan class="cls-30" x="36.52" y="0">P</tspan><tspan class="cls-31" x="45.81" y="0">r</tspan><tspan x="51.77" y="0">i</tspan><tspan class="cls-32" x="55.98" y="0">v</tspan><tspan x="64.56" y="0">ado</tspan></text><line class="cls-33" x1="132.57" y1="409.05" x2="132.57" y2="532.05"/><line class="cls-33" x1="471.57" y1="409.05" x2="471.57" y2="532.05"/><line class="cls-34" x1="67.06" y1="408.04" x2="67.06" y2="433.05"/><line class="cls-34" x1="410.06" y1="408.04" x2="410.06" y2="433.05"/><path class="cls-35" d="M87.55,62.5c0-8.56,1.81-15.5,4-15.5H766c2.23,0,4,6.94,4,15.5" transform="translate(-76.43 -12.95)"/><text class="cls-36" transform="translate(196.57 20.09)"><tspan class="cls-37">G</tspan><tspan x="15.62" y="0">estión / E</tspan><tspan class="cls-38" x="107.42" y="0">x</tspan><tspan class="cls-39" x="118.84" y="0">t</tspan><tspan class="cls-18" x="126.79" y="0">r</tspan><tspan x="134.4" y="0">emo (</tspan><tspan class="cls-19" x="191.52" y="0">E</tspan><tspan x="203.23" y="0">dge) / </tspan><tspan class="cls-25" x="267.43" y="0">C</tspan><tspan x="281.18" y="0">álculo</tspan></text><polygon class="cls-4" points="424 159.3 603.57 159.3 603.57 192.05 424 192.05 424 159.3 424 159.3"/><text class="cls-14" transform="translate(448.57 180.83)"><tspan class="cls-40">M</tspan><tspan x="14.58" y="0">áquinas vi</tspan><tspan class="cls-16" x="90" y="0">r</tspan><tspan x="96.32" y="0">tuales</tspan></text></svg>
