<?xml version="1.0" encoding="utf-8"?>
<!-- Generator: Adobe Illustrator 15.0.2, SVG Export Plug-In . SVG Version: 6.00 Build 0)  -->
<!DOCTYPE svg PUBLIC "-//W3C//DTD SVG 1.1//EN" "http://www.w3.org/Graphics/SVG/1.1/DTD/svg11.dtd">
<svg version="1.1" id="Layer_1" xmlns="http://www.w3.org/2000/svg" xmlns:xlink="http://www.w3.org/1999/xlink" x="0px" y="0px"
	 width="725px" height="406.219px" viewBox="0 0 725 406.219" enable-background="new 0 0 725 406.219" xml:space="preserve">
<rect x="198.53" y="108.004" fill="#4B84C4" width="526.47" height="89.113"/>
<rect x="-0.311" y="309.804" fill="#959595" width="725.311" height="96.383"/>
<rect x="198.53" y="208.831" fill="#1AA78D" width="526.649" height="89.856"/>
<g id="Layer_2">
	<rect x="0.333" y="108.157" fill="#F59C57" width="186.938" height="190.53"/>
</g>
<g id="Layer_4">
	<text transform="matrix(1 0 0 1 25.7256 143.0601)" fill="#FFFFFF" font-family="'IBMPlexSans-Bold'" font-size="18">Common Services</text>
	<text transform="matrix(1 0 0 1 42.1123 182.5688)"><tspan x="0" y="0" fill="#FFFFFF" font-family="'IBMPlexSans'" font-size="16">Authentication</tspan><tspan x="35.616" y="31.417" fill="#FFFFFF" font-family="'IBMPlexSans'" font-size="16">DNS</tspan><tspan x="36.655" y="62.833" fill="#FFFFFF" font-family="'IBMPlexSans'" font-size="16">NTP</tspan><tspan x="-17.296" y="94.25" fill="#FFFFFF" font-family="'IBMPlexSans'" font-size="16">Certificate Authority</tspan></text>
	<rect x="0.343" y="0.627" fill="#B97BBA" width="724.836" height="97.386"/>
</g>
<text transform="matrix(1 0 0 1 341.29 146.0601)"><tspan x="0" y="0" fill="#FFFFFF" font-family="'IBMPlexSans-Bold'" font-size="21">Infrastructure Management</tspan><tspan x="27.111" y="29.833" fill="#FFFFFF" font-family="'IBMPlexSans'" font-size="18">   VMware vCenter Server</tspan></text>
<text transform="matrix(1 0 0 1 363.3901 242.3511)" fill="#FFFFFF" font-family="'IBMPlexSans-Bold'" font-size="21">Virtual Infrastructure</text>
<text transform="matrix(1 0 0 1 410.7432 283.1011)" fill="#FFFFFF" font-family="'IBMPlexSans'" font-size="18">VMware vSAN</text>
<text transform="matrix(1 0 0 1 593.3838 283.1011)"><tspan x="0" y="0" fill="#FFFFFF" font-family="'IBMPlexSans'" font-size="18">VMware NSX</tspan><tspan x="96.155" y="-2.633" fill="#FFFFFF" font-family="'IBMPlexSans'" font-size="18">  </tspan></text>
<text transform="matrix(1 0 0 1 217.2812 283.1011)"><tspan x="0" y="0" fill="#FFFFFF" font-family="'IBMPlexSans'" font-size="18">VMware vSphere</tspan><tspan x="126.844" y="-2.633" fill="#FFFFFF" font-family="'IBMPlexSans'" font-size="18">  </tspan></text>
<text transform="matrix(1 0 0 1 265.6484 343.9595)" fill="#FFFFFF" font-family="'IBMPlexSans-Bold'" font-size="21">Physical Infrastructure</text>
<text transform="matrix(1 0 0 1 246.166 38.0776)" fill="#FFFFFF" font-family="'IBMPlexSans-Bold'" font-size="21">Cloud Networking Services</text>
<text transform="matrix(1 0 0 1 124.1777 387.9956)" fill="#FFFFFF" font-family="'IBMPlexSans'" font-size="18">Compute</text>
<text transform="matrix(1 0 0 1 335.7451 387.9956)" fill="#FFFFFF" font-family="'IBMPlexSans'" font-size="18">Storage </text>
<text transform="matrix(1 0 0 1 258.0669 77.5376)" fill="#FFFFFF" font-family="'IBMPlexSans'" font-size="18">NSX Edge Services Gateway</text>
<text transform="matrix(1 0 0 1 529.8027 387.9956)" fill="#FFFFFF" font-family="'IBMPlexSans'" font-size="18">Network</text>
</svg>
