<?xml version="1.0" encoding="UTF-8" standalone="no"?>
<!-- Generator: Adobe Illustrator 21.0.0, SVG Export Plug-In . SVG Version: 6.00 Build 0)  -->

<svg
   xmlns:dc="http://purl.org/dc/elements/1.1/"
   xmlns:cc="http://creativecommons.org/ns#"
   xmlns:rdf="http://www.w3.org/1999/02/22-rdf-syntax-ns#"
   xmlns:svg="http://www.w3.org/2000/svg"
   xmlns="http://www.w3.org/2000/svg"
   xmlns:sodipodi="http://sodipodi.sourceforge.net/DTD/sodipodi-0.dtd"
   xmlns:inkscape="http://www.inkscape.org/namespaces/inkscape"
   version="1.1"
   x="0px"
   y="0px"
   viewBox="0 0 670 452"
   style="enable-background:new 0 0 670 452;"
   xml:space="preserve"
   id="svg221"
   sodipodi:docname="kmip-key-protect.svg"
   inkscape:version="0.92.2 (5c3e80d, 2017-08-06)"><metadata
     id="metadata227"><rdf:RDF><cc:Work
         rdf:about=""><dc:format>image/svg+xml</dc:format><dc:type
           rdf:resource="http://purl.org/dc/dcmitype/StillImage" /></cc:Work></rdf:RDF></metadata><defs
     id="defs225" /><sodipodi:namedview
     pagecolor="#ffffff"
     bordercolor="#666666"
     borderopacity="1"
     objecttolerance="10"
     gridtolerance="10"
     guidetolerance="10"
     inkscape:pageopacity="0"
     inkscape:pageshadow="2"
     inkscape:window-width="1920"
     inkscape:window-height="1027"
     id="namedview223"
     showgrid="false"
     inkscape:zoom="1.4767894"
     inkscape:cx="454.67269"
     inkscape:cy="229.68072"
     inkscape:window-x="-8"
     inkscape:window-y="-8"
     inkscape:window-maximized="1"
     inkscape:current-layer="svg221" /><style
     type="text/css"
     id="style2">
	.st0{fill:#B6CAEF;stroke:#0071BC;stroke-miterlimit:10;}
	.st1{font-family:'IBMPlexSans';}
	.st2{font-size:14px;}
	.st3{fill:#FFFFFF;}
	.st4{fill:#FFFFFF;stroke:#000000;stroke-miterlimit:10;}
	.st5{fill:#ABD6AD;stroke:#006837;stroke-miterlimit:10;}
	.st6{fill:none;stroke:#000000;stroke-miterlimit:10;}
	.st7{fill:none;stroke:#000000;stroke-miterlimit:10;stroke-dasharray:4.969,4.969;}
	.st8{fill:none;stroke:#000000;stroke-miterlimit:10;stroke-dasharray:5.0236,5.0236;}
</style><g
     id="vCenter_VM_ESXi"><g
       id="ESXi_1"><path
         class="st0"
         d="M205.5,197.5h-179c-6.6,0-12-5.4-12-12v-30c0-6.6,5.4-12,12-12h179c6.6,0,12,5.4,12,12v30    C217.5,192.1,212.1,197.5,205.5,197.5z"
         id="path4" /><text
         transform="matrix(1 0 0 1 104.3335 177.6665)"
         class="st1 st2"
         id="text6">ESXi</text>
</g><g
       id="ESXi_1_1_"><path
         class="st0"
         d="M423.5,197.5h-179c-6.6,0-12-5.4-12-12v-30c0-6.6,5.4-12,12-12h179c6.6,0,12,5.4,12,12v30    C435.5,192.1,430.1,197.5,423.5,197.5z"
         id="path9" /><text
         transform="matrix(1 0 0 1 322.3335 177.6665)"
         class="st1 st2"
         id="text11">ESXi</text>
</g><g
       id="ESXi_1_2_"><path
         class="st0"
         d="M640.5,197.5h-179c-6.6,0-12-5.4-12-12v-30c0-6.6,5.4-12,12-12h179c6.6,0,12,5.4,12,12v30    C652.5,192.1,647.1,197.5,640.5,197.5z"
         id="path14" /><text
         transform="matrix(1 0 0 1 539.3335 177.6665)"
         class="st1 st2"
         id="text16">ESXi</text>
</g><g
       id="vCenter"><g
         id="g23"><rect
           x="37.5"
           y="95.5"
           class="st3"
           width="61"
           height="61"
           id="rect19" /><path
           d="M98,96v60H38V96H98 M99,95H37v62h62V95L99,95z"
           id="path21" /></g><text
         transform="matrix(1 0 0 1 43.5493 130.228)"
         class="st1 st2"
         id="text25">vCenter</text>
</g><g
       id="VM1"><g
         id="g32"><rect
           x="138.5"
           y="95.5"
           class="st3"
           width="61"
           height="61"
           id="rect28" /><path
           d="M199,96v60h-60V96H199 M200,95h-62v62h62V95L200,95z"
           id="path30" /></g><text
         transform="matrix(1 0 0 1 159.053 130.228)"
         class="st1 st2"
         id="text34">VM</text>
</g><g
       id="VM2"><g
         id="g41"><rect
           x="255.5"
           y="95.5"
           class="st3"
           width="61"
           height="61"
           id="rect37" /><path
           d="M316,96v60h-60V96H316 M317,95h-62v62h62V95L317,95z"
           id="path39" /></g><text
         transform="matrix(1 0 0 1 276.053 130.228)"
         class="st1 st2"
         id="text43">VM</text>
</g><g
       id="VM3"><g
         id="g50"><rect
           x="349.5"
           y="95.5"
           class="st3"
           width="61"
           height="61"
           id="rect46" /><path
           d="M410,96v60h-60V96H410 M411,95h-62v62h62V95L411,95z"
           id="path48" /></g><text
         transform="matrix(1 0 0 1 370.053 130.228)"
         class="st1 st2"
         id="text52">VM</text>
</g><g
       id="VM4"><g
         id="g59"><rect
           x="470.5"
           y="95.5"
           class="st3"
           width="61"
           height="61"
           id="rect55" /><path
           d="M531,96v60h-60V96H531 M532,95h-62v62h62V95L532,95z"
           id="path57" /></g><text
         transform="matrix(1 0 0 1 491.053 130.228)"
         class="st1 st2"
         id="text61">VM</text>
</g><g
       id="VM5"><g
         id="g68"><rect
           x="562.5"
           y="95.5"
           class="st3"
           width="61"
           height="61"
           id="rect64" /><path
           d="M623,96v60h-60V96H623 M624,95h-62v62h62V95L624,95z"
           id="path66" /></g><text
         transform="matrix(1 0 0 1 583.053 130.228)"
         class="st1 st2"
         id="text70">VM</text>
</g><g
       id="certificate_top"
       transform="matrix(1.0175614,0,0,0.99982687,-0.88999459,0.01584245)"><path
         class="st4"
         d="m 51,74 v 30.7 c 0,0 17.8,9.7 36.3,0 18.5,-9.7 38,0 38,0 V 74 Z"
         id="path73"
         inkscape:connector-curvature="0"
         style="fill:#ffffff;stroke:#000000;stroke-miterlimit:10" /><text
         transform="scale(0.9618827,1.0396278)"
         class="st1 st2"
         id="text75"
         style="font-size:13.46635818px;font-family:IBMPlexSans;stroke-width:0.96188271"
         x="58.280273"
         y="88.974152">Certificato</text>
</g></g><g
     id="KMIP"><g
       id="g98"><g
         id="g91"><g
           id="g83"><rect
             x="54.5"
             y="302.5"
             class="st5"
             width="127.7"
             height="48"
             id="rect79" /><text
             class="st1 st2"
             id="text81"
             x="65"
             y="333.66699"
             style="font-size:14px;font-family:IBMPlexSans">KMIP for VMware</text>
</g><g
           id="g89"><rect
             x="37.5"
             y="287.5"
             class="st5"
             width="127.7"
             height="48"
             id="rect85" /><text
             transform="matrix(1 0 0 1 48 320.667)"
             class="st1 st2"
             id="text87">KMIP for VMware</text>
</g></g><g
         id="certificate_top_1_"><path
           class="st4"
           d="M108,268v30.7c0,0,17.8,9.7,36.3,0c18.6-9.7,38,0,38,0V268H108z"
           id="path93" /><text
           class="st1 st2"
           id="text95"
           x="109"
           y="286.5"
           style="font-size:14px;font-family:IBMPlexSans">Certificato</text>
</g></g></g><g
     id="Key_protect"><g
       id="g113"><g
         id="g105"><rect
           x="496.5"
           y="302.5"
           class="st5"
           width="127.7"
           height="48"
           id="rect101" /><text
           transform="matrix(1 0 0 1 522 332.667)"
           class="st1 st2"
           id="text103">Key Protect</text>
</g><g
         id="g111"><rect
           x="484.5"
           y="289.5"
           class="st5"
           width="127.7"
           height="48"
           id="rect107" /><text
           transform="matrix(1 0 0 1 510 319.667)"
           class="st1 st2"
           id="text109">Key Protect</text>
</g></g></g><g
     id="CloudHSM_and_Key"><g
       id="g150"><g
         id="g128"><g
           id="g120"><path
             class="st0"
             d="M605.5,441.5h-96c-6.6,0-12-5.4-12-12v-30c0-6.6,5.4-12,12-12h96c6.6,0,12,5.4,12,12v30      C617.5,436.1,612.1,441.5,605.5,441.5z"
             id="path116" /><text
             transform="matrix(1 0 0 1 530.333 419.667)"
             class="st1 st2"
             id="text118">CloudHSM</text>
</g><g
           id="g126"><path
             class="st0"
             d="M595.5,426.5h-98c-6.6,0-12-5.4-12-12v-30c0-6.6,5.4-12,12-12h98c6.6,0,12,5.4,12,12v30      C607.5,421.1,602.1,426.5,595.5,426.5z"
             id="path122" /><text
             transform="matrix(1 0 0 1 512.333 404.667)"
             class="st1 st2"
             id="text124">CloudHSM</text>
</g></g><g
         id="g148"><g
           id="g134"><path
             class="st4"
             d="M592,417.7v21c0,0,12.2,6.6,24.9,0s26,0,26,0v-21H592z"
             id="path130" /><text
             transform="matrix(1 0 0 1 605.6666 431.0458)"
             class="st1 st2"
             id="text132">Chiave</text>
</g><g
           id="g140"><path
             class="st4"
             d="M592,402.7v21c0,0,12.2,6.6,24.9,0s26,0,26,0v-21H592z"
             id="path136" /><text
             transform="matrix(1 0 0 1 605.6666 416.0458)"
             class="st1 st2"
             id="text138">Chiave</text>
</g><g
           id="g146"><path
             class="st4"
             d="M592,388.7v21c0,0,12.2,6.6,24.9,0s26,0,26,0v-21H592z"
             id="path142" /><text
             class="st1 st2"
             id="text144"
             x="605.66663"
             y="402.04581"
             style="font-size:14px;font-family:IBMPlexSans">Chiave</text>
</g></g></g></g><g
     id="dash_lines_and_text_around"><text
       transform="matrix(1 0 0 1 13.3335 38.3335)"
       class="st1 st2"
       id="text153">Account infrastruttura cliente</text>
<text
       transform="matrix(1 0 0 1 561 17.6665)"
       class="st1 st2"
       id="text155">Rete pubblica</text>
<text
       transform="matrix(1 0 0 1 493 228)"
       class="st1 st2"
       id="text157">Rete privata cliente</text>
<text
       transform="matrix(1 0 0 1 449.333 249.333)"
       class="st1 st2"
       id="text159">Reste di gestione IBM Cloud</text>
<g
       id="top_dash_line"><g
         id="g167"><line
           class="st6"
           x1="10"
           y1="24"
           x2="12.5"
           y2="24"
           id="line161" /><line
           class="st7"
           x1="17.5"
           y1="24"
           x2="651"
           y2="24"
           id="line163" /><line
           class="st6"
           x1="653.5"
           y1="24"
           x2="656"
           y2="24"
           id="line165" /></g></g><g
       id="second_dash_line"><g
         id="g176"><line
           class="st6"
           x1="14"
           y1="234"
           x2="16.5"
           y2="234"
           id="line170" /><line
           class="st8"
           x1="21.5"
           y1="234"
           x2="652"
           y2="234"
           id="line172" /><line
           class="st6"
           x1="654.5"
           y1="234"
           x2="657"
           y2="234"
           id="line174" /></g></g></g><g
     id="arrows"><g
       id="g188"><g
         id="g186"><line
           class="st6"
           x1="65.5"
           y1="156.5"
           x2="65.5"
           y2="280.5"
           id="line180" /><g
           id="g184"><path
             d="M65.5,286.5c-1.1-2.8-2.9-6.4-4.8-8.5l4.8,1.7l4.8-1.7C68.4,280.1,66.6,283.7,65.5,286.5z"
             id="path182" /></g></g></g><g
       id="g198"><g
         id="g196"><line
           class="st6"
           x1="86.5"
           y1="197.5"
           x2="86.5"
           y2="280.5"
           id="line190" /><g
           id="g194"><path
             d="M86.5,286.5c-1.1-2.8-2.9-6.4-4.8-8.5l4.8,1.7l4.8-1.7C89.4,280.1,87.6,283.7,86.5,286.5z"
             id="path192" /></g></g></g><g
       id="g208"><g
         id="g206"><line
           class="st6"
           x1="181.5"
           y1="314.5"
           x2="477.5"
           y2="314.5"
           id="line200" /><g
           id="g204"><path
             d="M483.5,314.5c-2.8,1.1-6.4,2.9-8.5,4.8l1.7-4.8l-1.7-4.8C477.1,311.6,480.7,313.4,483.5,314.5z"
             id="path202" /></g></g></g><g
       id="g218"><g
         id="g216"><line
           class="st6"
           x1="548.5"
           y1="336.5"
           x2="548.5"
           y2="366.5"
           id="line210" /><g
           id="g214"><path
             d="M548.5,372.5c-1.1-2.8-2.9-6.4-4.8-8.5l4.8,1.7l4.8-1.7C551.4,366.1,549.6,369.7,548.5,372.5z"
             id="path212" /></g></g></g></g></svg>
