<?xml version="1.0" encoding="UTF-8" standalone="no"?>
<!-- Generator: Adobe Illustrator 21.0.0, SVG Export Plug-In . SVG Version: 6.00 Build 0)  -->

<svg
   xmlns:dc="http://purl.org/dc/elements/1.1/"
   xmlns:cc="http://creativecommons.org/ns#"
   xmlns:rdf="http://www.w3.org/1999/02/22-rdf-syntax-ns#"
   xmlns:svg="http://www.w3.org/2000/svg"
   xmlns="http://www.w3.org/2000/svg"
   xmlns:sodipodi="http://sodipodi.sourceforge.net/DTD/sodipodi-0.dtd"
   xmlns:inkscape="http://www.inkscape.org/namespaces/inkscape"
   version="1.1"
   id="Layer_1"
   x="0px"
   y="0px"
   viewBox="0 0 850 448"
   style="enable-background:new 0 0 850 448;"
   xml:space="preserve"
   inkscape:version="0.47 r22583"
   width="100%"
   height="100%"
   sodipodi:docname="physical_nic_connection.svg"><metadata
   id="metadata103"><rdf:RDF><cc:Work
       rdf:about=""><dc:format>image/svg+xml</dc:format><dc:type
         rdf:resource="http://purl.org/dc/dcmitype/StillImage" /><dc:title></dc:title></cc:Work></rdf:RDF></metadata><defs
   id="defs101"><inkscape:perspective
     sodipodi:type="inkscape:persp3d"
     inkscape:vp_x="0 : 224 : 1"
     inkscape:vp_y="0 : 1000 : 0"
     inkscape:vp_z="850 : 224 : 1"
     inkscape:persp3d-origin="425 : 149.33333 : 1"
     id="perspective105" /></defs><sodipodi:namedview
   pagecolor="#ffffff"
   bordercolor="#666666"
   borderopacity="1"
   objecttolerance="10"
   gridtolerance="10"
   guidetolerance="10"
   inkscape:pageopacity="0"
   inkscape:pageshadow="2"
   inkscape:window-width="1440"
   inkscape:window-height="838"
   id="namedview99"
   showgrid="false"
   inkscape:zoom="1.0535714"
   inkscape:cx="391.77725"
   inkscape:cy="184.90272"
   inkscape:window-x="-8"
   inkscape:window-y="-8"
   inkscape:window-maximized="1"
   inkscape:current-layer="Layer_1" />
<style
   type="text/css"
   id="style3">
	.st0{opacity:0.502;fill:#606060;enable-background:new    ;}
	.st1{fill:#5B9BD5;}
	.st2{fill:none;}
	.st3{font-family:'IBMPlexSans';}
	.st4{font-size:18px;}
	.st5{fill:none;stroke:#00FFFF;stroke-width:2;stroke-miterlimit:8;}
	.st6{fill:none;stroke:#00FFFF;stroke-width:2;stroke-miterlimit:8;stroke-dasharray:10.6429,10.6429;}
	.st7{fill:none;stroke:#29ABE2;stroke-width:2;stroke-miterlimit:8;}
	.st8{fill:none;stroke:#39B54A;stroke-width:2;stroke-miterlimit:8;}
	.st9{fill:none;stroke:#8CC63F;stroke-width:2;stroke-miterlimit:8;}
</style>
<polygon
   class="st0"
   points="318.4,287.1 510.9,287.1 510.9,355.7 318.4,355.7 "
   id="polygon5" />
<path
   class="st1"
   d="M462.1,90.1l-0.1-0.8l-0.2-0.8l-0.1-0.8l-0.3-0.7l-0.3-0.8l-0.2-0.7l-0.3-0.7l-0.3-0.8l-0.4-0.6l-0.4-0.6  l-0.4-0.6l-0.4-0.5l-0.5-0.6l-0.5-0.5l-0.5-0.6l-0.6-0.5l-0.5-0.5l-0.6-0.4l-0.6-0.4l-0.6-0.4l-0.6-0.4L453,77l-0.7-0.3l-0.7-0.3  l-0.8-0.3l-0.7-0.3l-0.8-0.2l-0.8-0.2l-0.8-0.1l-0.8-0.2L446,75h-0.8l-0.5-0.9l-0.5-0.9l-0.5-0.8l-0.6-0.9l-1.2-1.6l-1.3-1.4  l-1.4-1.3l-1.6-1.2l-1.5-1.1l-1.7-1l-1.7-0.9l-1.7-0.8l-1.9-0.7l-1.9-0.5l-1.9-0.5l-1.9-0.3l-1-0.1l-1-0.1l-1.1-0.1h-0.9H418  l-1.4,0.2l-1.4,0.1l-1.4,0.3l-1.3,0.3l-1.3,0.4l-1.3,0.4l-1.3,0.5l-1.3,0.5l-1.2,0.6l-1.2,0.6l-1.1,0.7l-1.2,0.7l-1.1,0.8l-1,0.9  l-1,0.9l-1.1,0.9l-0.9,1l-0.9,1l-0.9,1.1l-0.8,1l-0.8,1.1l-0.7,1.1l-0.6,1.2l-0.5,1.2l-0.6,1.2l-0.5,1.3l-0.4,1.3l-0.4,1.3l-0.3,1.3  l-0.3,1.3l-0.3,1.4l-1,0.3l-1,0.4l-1,0.3l-1,0.5l-1,0.4l-1,0.4l-0.9,0.6l-0.9,0.5l-0.9,0.6l-0.9,0.6l-0.8,0.7l-0.8,0.6l-0.8,0.8  L377,94l-0.7,0.8l-0.8,0.8l-0.5,0.9l-0.6,0.8l-0.6,0.9l-0.5,0.9l-0.4,1l-0.4,1l-0.5,1l-0.4,1l-0.3,1l-0.3,1l-0.3,1l-0.2,1.1  l-0.2,1.1l-0.1,1.1l-0.1,1.1v1.1v1.3l0.1,1.3l0.2,1.3l0.2,1.3l0.3,1.2l0.4,1.2l0.4,1.2l0.5,1.1l0.5,1.2l0.6,1.1l0.6,1.1l0.6,1l0.8,1  l0.8,1l0.8,1l0.9,0.9l0.9,0.9l1,0.9l1,0.8l1,0.7l1.1,0.6l1.1,0.6l1.1,0.6l1.2,0.5l1.1,0.5l1.2,0.4l1.2,0.4l1.2,0.3l1.3,0.3l1.3,0.1  l1.3,0.1h1.3H409h0.4l0.4-0.1l0.3-0.2l0.3-0.2l0.3-0.3l0.2-0.4l0.1-0.4l0.1-0.4v-15l-0.1-0.4l-0.1-0.4l-0.2-0.4l-0.3-0.3l-0.3-0.2  l-0.3-0.2l-0.4-0.1l-0.4-0.1h-4.4l12.9-17.8l12.9,17.8h-4.3l-0.4,0.1l-0.4,0.1l-0.4,0.2l-0.3,0.2l-0.2,0.3l-0.2,0.4l-0.1,0.4v0.4v15  V148h-6.5l-0.3,0.1l-0.3,0.1l-0.3,0.1l-0.2,0.1l-0.3,0.2l-0.2,0.2l-0.2,0.3l-0.2,0.3l-0.1,0.3l-0.1,0.3l-0.1,0.3v0.3l0.1,0.3  l0.1,0.3l0.1,0.3l0.2,0.3l17.2,23.6l0.3,0.4l0.4,0.3l0.5,0.2l0.5,0.1l0.5-0.1l0.4-0.2l0.4-0.3l0.4-0.4l17.1-23.6l0.2-0.3l0.1-0.3  l0.1-0.3l0.1-0.3v-0.3l-0.1-0.3l-0.1-0.3l-0.1-0.3l-0.2-0.3l-0.2-0.3l-0.3-0.2l-0.2-0.2l-0.2-0.1l-0.3-0.1l-0.3-0.1l-0.3-0.1h-6.4  v-10.7h15h1.2l1.1-0.1l1.2-0.1l1.2-0.2l1.1-0.3l1.1-0.3l1.1-0.4l1.1-0.4l1-0.5l1-0.5l1-0.6l1-0.6l1-0.6l0.9-0.7l0.8-0.7l0.9-0.9  l0.8-0.8l0.8-0.9l0.6-0.9l0.7-0.9l0.6-1l0.5-1l0.5-1l0.5-1.1l0.4-1.1l0.4-1.1l0.3-1.2l0.3-1.1l0.2-1.2l0.2-1.2l0.1-1.2l0.1-1.2  l-0.1-1.1l-0.1-1.2l-0.2-1.1l-0.2-1.2l-0.3-1.1l-0.3-1l-0.3-1l-0.4-1l-0.4-1l-0.5-1l-0.5-1l-0.6-1l-0.6-0.9l-0.6-0.9l-0.7-0.8  l-0.7-0.9l-0.8-0.8l-0.8-0.7l-0.8-0.7l-0.9-0.6l-0.8-0.6l-0.9-0.6l-1-0.6l-1-0.5l-1-0.5l-1-0.4l-1-0.3l-1-0.3l-1.1-0.3l-1.1-0.2  l-1.1-0.2L462.1,90.1L462.1,90.1L462.1,90.1z M460.1,133H443l-0.5,0.1l-0.4,0.2l-0.3,0.2l-0.3,0.3l-0.3,0.3l-0.2,0.4l-0.2,0.4  l-0.1,0.4v15l0.1,0.4l0.2,0.4l0.2,0.4l0.3,0.3l0.3,0.2l0.3,0.2l0.4,0.1h0.5h4.3l-13,17.9l-12.9-17.9h4.3h0.5l0.4-0.1l0.4-0.2  l0.3-0.2l0.3-0.3l0.2-0.4l0.2-0.4v-0.4v-15v-12.9h6.4h0.3l0.3-0.1l0.3-0.1l0.3-0.1l0.3-0.2l0.2-0.2l0.2-0.3l0.2-0.3l0.1-0.3l0.2-0.3  v-0.3v-0.3l-0.1-0.2l-0.1-0.3l-0.1-0.3l-0.1-0.3L419,95.2l-0.3-0.3l-0.4-0.3l-0.5-0.2h-0.5h-0.5l-0.5,0.2l-0.4,0.3l-0.4,0.3  l-17.2,23.6l-0.2,0.3l-0.1,0.3l-0.1,0.3v0.2v0.3v0.3l0.1,0.3l0.2,0.3l0.2,0.3l0.2,0.3l0.2,0.2l0.2,0.2l0.3,0.1l0.3,0.1l0.3,0.1h0.3  h6.4V133h-10.7h-1.1l-1.1-0.1l-1.1-0.1l-1-0.2l-1-0.3l-1-0.3l-1-0.3l-1-0.4l-1-0.4l-0.9-0.5l-0.9-0.5l-0.9-0.6l-0.9-0.6l-0.8-0.6  l-0.9-0.6l-0.7-0.8L380,126l-0.7-0.8l-0.6-0.9l-0.6-0.9l-0.6-0.9l-0.5-0.9l-0.5-0.9l-0.4-1l-0.4-1l-0.3-1l-0.3-1l-0.2-1.1l-0.2-1  l-0.2-1.1l-0.1-1.1v-1.1v-1l0.1-1l0.1-1l0.2-0.9l0.2-1l0.2-0.9l0.3-0.9l0.3-0.9l0.4-0.9l0.3-0.8l0.4-0.9l0.5-0.8l0.4-0.9l0.5-0.7  l0.5-0.8l0.6-0.7l0.6-0.7l0.6-0.6l0.6-0.6l0.7-0.6l0.7-0.6l0.7-0.5l0.8-0.5l0.8-0.5l0.9-0.4l0.8-0.4l0.9-0.4l0.9-0.4l0.9-0.3  l0.9-0.2l1-0.3l0.9-0.2l0.4-0.1l0.3-0.1L393,90l0.3-0.3l0.2-0.3l0.1-0.3l0.2-0.4l0.1-0.3l0.1-1.3V86l0.3-1.2l0.2-1.2l0.3-1.1  l0.5-1.2l0.4-1.1l0.5-1.1l0.5-1.1l0.6-1l0.6-1l0.7-1l0.7-1l0.8-0.9l0.8-0.9l0.9-0.8l0.8-0.9l1-0.7l1-0.8l1-0.6l1-0.6l1-0.6l1.1-0.5  l1.1-0.5l1.2-0.4l1.1-0.4l1.2-0.3l1.2-0.3l1.2-0.2l1.3-0.1l1.2-0.1h1.3l1.8,0.1l1.7,0.2l1.8,0.3l1.7,0.4l1.7,0.5l1.6,0.6l1.6,0.8  l1.4,0.9l1.5,1l1.3,1l1.3,1.2l1.2,1.2l1.1,1.3l1.1,1.5l1,1.5l0.9,1.6l0.2,0.3l0.2,0.2l0.3,0.3l0.3,0.2l0.3,0.1l0.3,0.1h0.3h0.3h0.2  h0.3h0.3h0.6l0.6,0.1l0.6,0.1l0.6,0.1l1.2,0.3l1.2,0.4l1.1,0.6l1.1,0.6l1,0.8l1,0.9l0.9,0.9l0.7,1l0.6,1.1l0.5,1.1l0.4,1.2l0.3,1.2  l0.1,0.6l0.1,0.6l0.1,0.6l0.1,0.6v0.4l0.1,0.4l0.2,0.4l0.2,0.3l0.3,0.3l0.4,0.2l0.4,0.1l0.4,0.1h1l1,0.1l1,0.1l0.9,0.2l1,0.2  l0.9,0.3l0.9,0.3l0.9,0.3l0.9,0.4l0.8,0.4l0.9,0.5L471,98l0.8,0.6l0.8,0.6l0.7,0.6l0.7,0.6l0.6,0.6l0.6,0.7l0.5,0.8l0.5,0.7l0.5,0.9  l0.5,0.8l0.4,0.9l0.4,0.9l0.4,0.9l0.2,0.9l0.3,1l0.3,0.9l0.1,1l0.2,1l0.1,1l0.1,1l-0.1,1l-0.1,1l-0.2,1l-0.1,1l-0.3,1l-0.3,0.9  l-0.2,0.9l-0.4,0.9l-0.4,0.9l-0.4,0.8l-0.5,0.9l-0.5,0.8l-0.5,0.8L475,126l-0.6,0.7l-0.6,0.6l-0.7,0.6l-0.7,0.6l-0.8,0.6l-0.8,0.5  l-0.8,0.5l-0.9,0.4l-0.8,0.5l-0.9,0.4l-0.9,0.3l-0.9,0.3l-0.9,0.3l-1,0.2l-0.9,0.2l-1,0.1l-1,0.1h-0.7V133L460.1,133z"
   id="path7" />
<polygon
   class="st0"
   points="398.3,355.8 417.2,355.8 417.2,376.6 398.3,376.6 "
   id="polygon9" />
<polygon
   class="st0"
   points="449.5,264.4 469.3,264.4 469.3,287.1 449.5,287.1 "
   id="polygon11" />
<polygon
   class="st0"
   points="397.9,264.1 417.7,264.1 417.7,287.1 397.9,287.1 "
   id="polygon13" />
<polygon
   class="st0"
   points="449.5,355.8 469.3,355.8 469.3,377 449.5,377 "
   id="polygon15" />
<path
   class="st1"
   d="M737.7,191.1l-0.1-0.8l-0.2-0.8l-0.1-0.8L737,188l-0.3-0.8l-0.2-0.7l-0.3-0.7l-0.3-0.8l-0.4-0.6l-0.4-0.6  l-0.4-0.6l-0.4-0.5l-0.5-0.6l-0.5-0.5l-0.5-0.6l-0.6-0.5l-0.5-0.5l-0.6-0.4l-0.6-0.4l-0.6-0.4l-0.6-0.4l-0.7-0.4l-0.7-0.3l-0.7-0.3  l-0.8-0.3l-0.7-0.3l-0.8-0.2l-0.8-0.2l-0.8-0.1l-0.8-0.2l-0.9-0.1h-0.8l-0.5-0.9l-0.5-0.9l-0.5-0.8l-0.6-0.9l-1.2-1.6l-1.3-1.4  l-1.4-1.3l-1.6-1.2l-1.5-1.1l-1.7-1l-1.7-0.9l-1.7-0.8l-1.9-0.7l-1.9-0.5l-1.9-0.5l-1.9-0.3l-1-0.1l-1-0.1l-1.1-0.1H695h-1.4  l-1.4,0.2l-1.4,0.1l-1.4,0.3l-1.3,0.3l-1.3,0.4l-1.3,0.4l-1.3,0.5l-1.3,0.5l-1.2,0.6l-1.2,0.6l-1.1,0.7l-1.2,0.7l-1.1,0.8l-1,0.9  l-1,0.9l-1.1,0.9l-0.9,1l-0.9,1l-0.9,1.1l-0.8,1l-0.8,1.1L669,176l-0.6,1.2l-0.5,1.2l-0.6,1.2l-0.5,1.3l-0.4,1.3l-0.4,1.3l-0.3,1.3  l-0.3,1.3l-0.3,1.4l-1,0.3l-1,0.4l-1,0.3l-1,0.5l-1,0.4l-1,0.4l-0.9,0.6l-0.9,0.5l-0.9,0.6l-0.9,0.6l-0.8,0.7l-0.8,0.6l-0.8,0.8  l-0.7,0.8l-0.7,0.8l-0.8,0.8l-0.5,0.9l-0.6,0.8l-0.6,0.9l-0.5,0.9l-0.4,1l-0.4,1l-0.5,1l-0.4,1l-0.3,1l-0.3,1l-0.3,1l-0.2,1.1  l-0.2,1.1l-0.1,1.1l-0.1,1.1v1.1v1.3l0.1,1.3l0.2,1.3l0.2,1.3l0.3,1.2l0.4,1.2l0.4,1.2l0.5,1.1l0.5,1.2l0.6,1.1l0.6,1.1l0.6,1l0.8,1  l0.8,1l0.8,1l0.9,0.9l0.9,0.9l1,0.9l1,0.8l1,0.7l1.1,0.6l1.1,0.6l1.1,0.6l1.2,0.5l1.1,0.5l1.2,0.4l1.2,0.4l1.2,0.3l1.3,0.3l1.3,0.1  l1.3,0.1h1.3h12.9h0.4l0.4-0.1l0.3-0.2l0.3-0.2l0.3-0.3l0.2-0.4l0.1-0.4l0.1-0.4v-15l-0.1-0.4l-0.1-0.4l-0.2-0.4l-0.3-0.3l-0.3-0.2  l-0.3-0.2l-0.4-0.1l-0.4-0.1H680l12.9-17.8l12.9,17.8h-4.3l-0.4,0.1l-0.4,0.1l-0.4,0.2L700,220l-0.2,0.3l-0.2,0.4l-0.1,0.4v0.4v15  V249H693l-0.3,0.1l-0.3,0.1l-0.3,0.1l-0.2,0.1l-0.3,0.2l-0.2,0.2l-0.2,0.3l-0.2,0.3l-0.1,0.3l-0.1,0.3l-0.1,0.3v0.3l0.1,0.3l0.1,0.3  l0.1,0.3l0.2,0.3l17.2,23.6l0.3,0.4l0.4,0.3l0.5,0.2l0.5,0.1l0.5-0.1l0.4-0.2l0.4-0.3l0.4-0.4l17.1-23.6l0.2-0.3l0.1-0.3l0.1-0.3  l0.1-0.3v-0.3l-0.1-0.3l-0.1-0.3l-0.1-0.3l-0.2-0.3l-0.2-0.3l-0.3-0.2l-0.2-0.2l-0.2-0.1l-0.3-0.1l-0.3-0.1l-0.3-0.1h-6.4v-10.7h15  h1.2l1.1-0.1l1.2-0.1l1.2-0.2l1.1-0.3l1.1-0.3l1.1-0.4l1.1-0.4l1-0.5l1-0.5l1-0.6l1-0.6l1-0.6l0.9-0.7l0.8-0.7l0.9-0.9l0.8-0.8  l0.8-0.9l0.6-0.9l0.7-0.9l0.6-1l0.5-1l0.5-1l0.5-1.1l0.4-1.1l0.4-1.1l0.3-1.2l0.3-1.1l0.2-1.2l0.2-1.2l0.1-1.2l0.1-1.2l-0.1-1.1  l-0.1-1.2l-0.2-1.1l-0.2-1.2l-0.3-1.1l-0.3-1l-0.3-1l-0.4-1l-0.4-1l-0.5-1l-0.5-1l-0.6-1l-0.6-0.9l-0.6-0.9l-0.7-0.8l-0.7-0.9  l-0.8-0.8l-0.8-0.7l-0.8-0.7l-0.9-0.6l-0.8-0.6l-0.9-0.6l-1-0.6l-1-0.5l-1-0.5l-1-0.4l-1-0.3l-1-0.3l-1.1-0.3l-1.1-0.2l-1.1-0.2  L737.7,191.1z M735.7,234h-17.1l-0.5,0.1l-0.4,0.2l-0.3,0.2l-0.3,0.3l-0.3,0.3l-0.2,0.4l-0.2,0.4l-0.1,0.4v15l0.1,0.4l0.2,0.4  l0.2,0.4l0.3,0.3l0.3,0.2l0.3,0.2l0.4,0.1h0.5h4.3l-13,17.9L697,253.3h4.3h0.5l0.4-0.1l0.4-0.2l0.3-0.2l0.3-0.3l0.2-0.4l0.2-0.4  v-0.4v-15v-12.9h6.4h0.3l0.3-0.1l0.3-0.1l0.3-0.1l0.3-0.2l0.2-0.2l0.2-0.3l0.2-0.3l0.1-0.3l0.2-0.3v-0.3v-0.3l-0.1-0.2l-0.1-0.3  l-0.1-0.3l-0.1-0.3l-17.2-23.6l-0.3-0.3l-0.4-0.3l-0.5-0.2h-0.5h-0.5l-0.5,0.2l-0.4,0.3l-0.4,0.3l-17.2,23.6l-0.2,0.3l-0.1,0.3  l-0.1,0.3v0.2v0.3v0.3l0.1,0.3l0.2,0.3l0.2,0.3l0.2,0.3l0.2,0.2l0.2,0.2l0.3,0.1l0.3,0.1l0.3,0.1h0.3h6.4V234h-10.7h-1.1l-1.1-0.1  l-1.1-0.1l-1-0.2l-1-0.3l-1-0.3l-1-0.3l-1-0.4l-1-0.4l-0.9-0.5l-0.9-0.5l-0.9-0.6l-0.9-0.6l-0.8-0.6l-0.9-0.6l-0.7-0.8l-0.7-0.7  l-0.7-0.8l-0.6-0.9l-0.6-0.9l-0.6-0.9l-0.5-0.9l-0.5-0.9l-0.4-1l-0.4-1l-0.3-1l-0.3-1l-0.2-1.1l-0.2-1l-0.2-1.1l-0.1-1.1v-1.1v-1  l0.1-1l0.1-1l0.2-0.9l0.2-1l0.2-0.9l0.3-0.9l0.3-0.9l0.4-0.9l0.3-0.8l0.4-0.9l0.5-0.8l0.4-0.9l0.5-0.7l0.5-0.8l0.6-0.7l0.6-0.7  l0.6-0.6l0.6-0.6l0.7-0.6l0.7-0.6l0.7-0.5l0.8-0.5l0.8-0.5l0.9-0.4l0.8-0.4l0.9-0.4l0.9-0.4l0.9-0.3l0.9-0.2l1-0.3l0.9-0.2l0.4-0.1  l0.3-0.1l0.3-0.2l0.3-0.3l0.2-0.3l0.1-0.3l0.2-0.4l0.1-0.3l0.1-1.3l0.2-1.2l0.3-1.2l0.2-1.2l0.3-1.1l0.5-1.2l0.4-1.1l0.5-1.1  l0.5-1.1l0.6-1l0.6-1l0.7-1l0.7-1l0.8-0.9l0.8-0.9l0.9-0.8l0.8-0.9l1-0.7l1-0.8l1-0.6l1-0.6l1-0.6l1.1-0.5l1.1-0.5l1.2-0.4l1.1-0.4  l1.2-0.3l1.2-0.3l1.2-0.2l1.3-0.1l1.2-0.1h1.3l1.8,0.1l1.7,0.2l1.8,0.3l1.7,0.4l1.7,0.5l1.6,0.6l1.6,0.8l1.4,0.9l1.5,1l1.3,1  l1.3,1.2l1.2,1.2l1.1,1.3l1.1,1.5l1,1.5l0.9,1.6l0.2,0.3l0.2,0.2l0.3,0.3l0.3,0.2l0.3,0.1l0.3,0.1h0.3h0.3h0.2h0.3h0.3h0.6l0.6,0.1  l0.6,0.1l0.6,0.1l1.2,0.3l1.2,0.4l1.1,0.6l1.1,0.6l1,0.8l1,0.9l0.9,0.9l0.7,1l0.6,1.1l0.5,1.1l0.4,1.2l0.3,1.2l0.1,0.6l0.1,0.6  l0.1,0.6l0.1,0.6v0.4l0.1,0.4l0.2,0.4l0.2,0.3l0.3,0.3l0.4,0.2l0.4,0.1l0.4,0.1h1l1,0.1l1,0.1l0.9,0.2l1,0.2l0.9,0.3l0.9,0.3  l0.9,0.3l0.9,0.4l0.8,0.4l0.9,0.5l0.8,0.5l0.8,0.6l0.8,0.6l0.7,0.6l0.7,0.6l0.6,0.6l0.6,0.7l0.5,0.8l0.5,0.7l0.5,0.9l0.5,0.8  l0.4,0.9l0.4,0.9l0.4,0.9l0.2,0.9l0.3,1l0.3,0.9l0.1,1l0.2,1l0.1,1l0.1,1l-0.1,1l-0.1,1l-0.2,1l-0.1,1l-0.3,1l-0.3,0.9l-0.2,0.9  l-0.4,0.9l-0.4,0.9l-0.4,0.8l-0.5,0.9l-0.5,0.8l-0.5,0.8l-0.5,0.7l-0.6,0.7l-0.6,0.6l-0.7,0.6l-0.7,0.6l-0.8,0.6l-0.8,0.5l-0.8,0.5  l-0.9,0.4l-0.8,0.5l-0.9,0.4l-0.9,0.3l-0.9,0.3l-0.9,0.3l-1,0.2l-0.9,0.2l-1,0.1l-1,0.1h-1.3V234L735.7,234z"
   id="path17" />
<path
   class="st1"
   d="M189.6,195.1l-0.1-0.8l-0.2-0.8l-0.1-0.8l-0.3-0.7l-0.3-0.8l-0.2-0.7l-0.3-0.7l-0.3-0.8l-0.4-0.6l-0.4-0.6  l-0.4-0.6l-0.4-0.5l-0.5-0.6l-0.5-0.5l-0.5-0.6l-0.6-0.5l-0.5-0.5l-0.6-0.4l-0.6-0.4l-0.6-0.4l-0.6-0.4l-0.7-0.4l-0.7-0.3l-0.7-0.3  l-0.8-0.3l-0.7-0.3l-0.8-0.2l-0.8-0.2l-0.8-0.1l-0.8-0.2l-0.9-0.1h-0.8l-0.5-0.9l-0.5-0.9l-0.5-0.8l-0.6-0.9l-1.2-1.6l-1.3-1.4  l-1.4-1.3l-1.6-1.2l-1.5-1.1l-1.7-1l-1.7-0.9l-1.7-0.8l-1.9-0.7l-1.9-0.5l-1.9-0.5l-1.9-0.3l-1-0.1l-1-0.1l-1.1-0.1h-0.9h-1.4  l-1.4,0.2l-1.4,0.1l-1.4,0.3l-1.3,0.3l-1.3,0.4l-1.3,0.4l-1.3,0.5l-1.3,0.5l-1.2,0.6l-1.2,0.6l-1.1,0.7l-1.2,0.7L129,171l-1,0.9  l-1,0.9l-1.1,0.9l-0.9,1l-0.9,1l-0.9,1.1l-0.8,1l-0.8,1.1l-0.7,1.1l-0.6,1.2l-0.5,1.2l-0.6,1.2l-0.5,1.3l-0.4,1.3l-0.4,1.3l-0.3,1.3  l-0.3,1.3l-0.3,1.4l-1,0.3l-1,0.4l-1,0.3l-1,0.5l-1,0.4l-1,0.4l-0.9,0.6l-0.9,0.5l-0.9,0.6l-0.9,0.6l-0.8,0.7l-0.8,0.6l-0.8,0.8  l-0.7,0.8l-0.7,0.8l-0.8,0.8l-0.5,0.9l-0.6,0.8l-0.6,0.9l-0.5,0.9l-0.4,1l-0.4,1l-0.5,1l-0.4,1l-0.3,1l-0.3,1l-0.3,1l-0.2,1.1  l-0.2,1.1l-0.1,1.1l-0.1,1.1v1.1v1.3l0.1,1.3l0.2,1.3l0.2,1.3l0.3,1.2l0.4,1.2l0.4,1.2l0.5,1.1l0.5,1.2l0.6,1.1l0.6,1.1l0.6,1l0.8,1  l0.8,1l0.8,1l0.9,0.9l0.9,0.9l1,0.9l1,0.8l1,0.7l1.1,0.6l1.1,0.6l1.1,0.6l1.2,0.5l1.1,0.5l1.2,0.4l1.2,0.4l1.2,0.3l1.3,0.3l1.3,0.1  l1.3,0.1h1.3h12.9h0.4l0.4-0.1l0.3-0.2l0.3-0.2l0.3-0.3l0.2-0.4l0.1-0.4l0.1-0.4v-15l-0.1-0.4l-0.1-0.4l-0.2-0.4l-0.3-0.3l-0.3-0.2  l-0.3-0.2l-0.4-0.1l-0.4-0.1h-4.4l12.9-17.8l12.9,17.8h-4.3l-0.4,0.1l-0.4,0.1l-0.4,0.2l-0.3,0.2l-0.2,0.3l-0.2,0.4l-0.1,0.4v0.4v15  V253h-6.5l-0.3,0.1l-0.3,0.1l-0.3,0.1l-0.2,0.1l-0.3,0.2l-0.2,0.2L143,254l-0.2,0.3l-0.1,0.3l-0.1,0.3l-0.1,0.3v0.3l0.1,0.3l0.1,0.3  l0.1,0.3l0.2,0.3l17.2,23.6l0.3,0.4l0.4,0.3l0.5,0.2l0.5,0.1l0.5-0.1l0.4-0.2l0.4-0.3l0.4-0.4l17.1-23.6l0.2-0.3l0.1-0.3l0.1-0.3  l0.1-0.3v-0.3l-0.1-0.3l-0.1-0.3l-0.1-0.3l-0.2-0.3l-0.2-0.3l-0.3-0.2l-0.2-0.2l-0.2-0.1l-0.3-0.1l-0.3-0.1H179h-6.4v-10.7h15h1.2  l1.1-0.1l1.2-0.1l1.2-0.2l1.1-0.3l1.1-0.3l1.1-0.4l1.1-0.4l1-0.5l1-0.5l1-0.6l1-0.6l1-0.6l0.9-0.7l0.8-0.7l0.9-0.9l0.8-0.8l0.8-0.9  l0.6-0.9l0.7-0.9l0.6-1l0.5-1l0.5-1l0.5-1.1l0.4-1.1l0.4-1.1l0.3-1.2l0.3-1.1l0.2-1.2l0.2-1.2l0.1-1.2l0.1-1.2l-0.1-1.1l-0.1-1.2  l-0.2-1.1l-0.2-1.2l-0.3-1.1l-0.3-1l-0.3-1l-0.4-1l-0.4-1l-0.5-1l-0.5-1l-0.6-1l-0.6-0.9l-0.6-0.9l-0.7-0.8l-0.7-0.9l-0.8-0.8  l-0.8-0.7l-0.8-0.7l-0.9-0.6l-0.8-0.6l-0.9-0.6l-1-0.6l-1-0.5l-1-0.5l-1-0.4l-1-0.3l-1-0.3l-1.1-0.3l-1.1-0.2l-1.1-0.2L189.6,195.1  L189.6,195.1L189.6,195.1z M187.6,238h-17.1H170l-0.4,0.2l-0.3,0.2l-0.3,0.3l-0.3,0.3l-0.2,0.4l-0.2,0.4l-0.1,0.4v15l0.1,0.4  l0.2,0.4l0.2,0.4l0.3,0.3l0.3,0.2l0.3,0.2l0.4,0.1h0.5h4.3l-13,17.9l-12.9-17.9h4.3h0.5l0.4-0.1l0.4-0.2l0.3-0.2l0.3-0.3l0.2-0.4  l0.2-0.4v-0.4v-15v-12.9h6.4h0.3l0.3-0.1l0.3-0.1l0.3-0.1l0.3-0.2l0.2-0.2l0.2-0.3l0.2-0.3l0.1-0.3l0.2-0.3v-0.3v-0.3l-0.1-0.2  l-0.1-0.3L164,224l-0.1-0.3l-17.2-23.6l-0.3-0.3l-0.4-0.3l-0.5-0.2H145h-0.5l-0.5,0.2l-0.4,0.3l-0.4,0.3L126,223.7l-0.2,0.3  l-0.1,0.3l-0.1,0.3v0.2v0.3v0.3l0.1,0.3l0.2,0.3l0.2,0.3l0.2,0.3l0.2,0.2l0.2,0.2l0.3,0.1l0.3,0.1l0.3,0.1h0.3h6.4V238h-10.7h-1.1  l-1.1-0.1l-1.1-0.1l-1-0.2l-1-0.3l-1-0.3l-1-0.3l-1-0.4l-1-0.4l-0.9-0.5l-0.9-0.5l-0.9-0.6l-0.9-0.6l-0.8-0.6l-0.9-0.6l-0.7-0.8  l-0.7-0.7l-0.7-0.8l-0.6-0.9l-0.6-0.9l-0.6-0.9l-0.5-0.9l-0.5-0.9l-0.4-1l-0.4-1l-0.3-1l-0.3-1l-0.2-1.1l-0.2-1l-0.2-1.1l-0.1-1.1  v-1.1v-1l0.1-1l0.1-1l0.2-0.9l0.2-1l0.2-0.9l0.3-0.9l0.3-0.9l0.4-0.9l0.3-0.8l0.4-0.9l0.5-0.8l0.4-0.9l0.5-0.7l0.5-0.8l0.6-0.7  l0.6-0.7l0.6-0.6l0.6-0.6l0.7-0.6l0.7-0.6l0.7-0.5l0.8-0.5l0.8-0.5l0.9-0.4l0.8-0.4l0.9-0.4l0.9-0.4l0.9-0.3l0.9-0.2l1-0.3l0.9-0.2  l0.4-0.1l0.3-0.1l0.3-0.2l0.3-0.3l0.2-0.3l0.1-0.3l0.2-0.4l0.1-0.3l0.1-1.3l0.2-1.2l0.3-1.2l0.2-1.2l0.3-1.1l0.5-1.2l0.4-1.1  l0.5-1.1l0.5-1.1l0.6-1l0.6-1l0.7-1l0.7-1l0.8-0.9l0.8-0.9l0.9-0.8l0.8-0.9l1-0.7l1-0.8l1-0.6l1-0.6l1-0.6l1.1-0.5l1.1-0.5l1.2-0.4  l1.1-0.4l1.2-0.3l1.2-0.3l1.2-0.2l1.3-0.1l1.2-0.1h1.3l1.8,0.1l1.7,0.2l1.8,0.3l1.7,0.4l1.7,0.5l1.6,0.6l1.6,0.8l1.4,0.9l1.5,1  l1.3,1l1.3,1.2l1.2,1.2l1.1,1.3l1.1,1.5l1,1.5l0.9,1.6l0.2,0.3l0.2,0.2l0.3,0.3l0.3,0.2l0.3,0.1l0.3,0.1h0.3h0.3h0.2h0.3h0.3h0.6  l0.6,0.1l0.6,0.1l0.6,0.1l1.2,0.3l1.2,0.4l1.1,0.6l1.1,0.6l1,0.8l1,0.9l0.9,0.9l0.7,1l0.6,1.1l0.5,1.1l0.4,1.2l0.3,1.2l0.1,0.6  l0.1,0.6l0.1,0.6l0.1,0.6v0.4l0.1,0.4l0.2,0.4l0.2,0.3l0.3,0.3l0.4,0.2l0.4,0.1l0.4,0.1h1l1,0.1l1,0.1l0.9,0.2l1,0.2l0.9,0.3  l0.9,0.3l0.9,0.3l0.9,0.4l0.8,0.4l0.9,0.5l0.8,0.5l0.8,0.6l0.8,0.6l0.7,0.6l0.7,0.6l0.6,0.6l0.6,0.7l0.5,0.8l0.5,0.7l0.5,0.9  l0.5,0.8l0.4,0.9l0.4,0.9l0.4,0.9l0.2,0.9l0.3,1l0.3,0.9l0.1,1l0.2,1l0.1,1l0.1,1l-0.1,1l-0.1,1l-0.2,1l-0.1,1l-0.3,1l-0.3,0.9  l-0.2,0.9l-0.4,0.9l-0.4,0.9l-0.4,0.8l-0.5,0.9l-0.5,0.8l-0.5,0.8l-0.5,0.7l-0.6,0.7l-0.6,0.6l-0.7,0.6l-0.7,0.6l-0.8,0.6l-0.8,0.5  l-0.8,0.5l-0.9,0.4l-0.8,0.5l-0.9,0.4l-0.9,0.3l-0.9,0.3l-0.9,0.3l-1,0.2l-0.9,0.2l-1,0.1l-1,0.1h-1.3V238L187.6,238z"
   id="path19" />
<polygon
   class="st0"
   points="295.7,331 295.7,312 318.3,312 318.3,331 "
   id="polygon21" />
<rect
   x="370"
   y="332"
   class="st2"
   width="48"
   height="23"
   id="rect23" />
<text
   transform="matrix(1 0 0 1 387 342.9395)"
   class="st3 st4"
   id="text25">eth0</text>

<rect
   x="417"
   y="332"
   class="st2"
   width="48"
   height="23"
   id="rect27" />
<text
   transform="matrix(1 0 0 1 439.9122 342.9395)"
   class="st3 st4"
   id="text29">eth2</text>

<rect
   x="370"
   y="295"
   class="st2"
   width="48"
   height="23"
   id="rect31" />
<text
   transform="matrix(1 0 0 1 388.3526 310.9395)"
   class="st3 st4"
   id="text33">eth1</text>

<rect
   x="418"
   y="295"
   class="st2"
   width="48"
   height="23"
   id="rect35" />
<text
   transform="matrix(1 0 0 1 439.9122 311.9395)"
   class="st3 st4"
   id="text37">eth3</text>

<rect
   x="323"
   y="317"
   class="st2"
   width="48"
   height="23"
   id="rect39" />
<text
   transform="matrix(1 0 0 1 333 326.9395)"
   class="st3 st4"
   id="text41">IPMI</text>

<path
   d="M789,298"
   id="path43" />
<g
   id="g45">
	<g
   id="g47">
		<line
   class="st5"
   x1="458.5"
   y1="263.2"
   x2="458.5"
   y2="257.1"
   id="line49" />
		<line
   class="st6"
   x1="458.5"
   y1="246.4"
   x2="458.5"
   y2="187.4"
   id="line51" />
		<line
   class="st5"
   x1="458.5"
   y1="182"
   x2="458.5"
   y2="176"
   id="line53" />
	</g>
</g>
<rect
   x="351"
   y="16"
   class="st2"
   width="127"
   height="44"
   id="rect55" />
<text
   class="st3 st4"
   id="text57"
   x="379"
   y="28.7798"
   style="font-size:18px;font-family:IBMPlexSans">IBM Cloud</text>

<text
   class="st3 st4"
   id="text59"
   x="385"
   y="50.379799"
   style="font-size:18px;font-family:IBMPlexSans"><tspan
     style="font-family:SimHei;-inkscape-font-specification:SimHei"
     id="tspan2911">公用网络</tspan></text>

<rect
   x="650"
   y="110"
   class="st2"
   width="145"
   height="44"
   id="rect61" />
<text
   class="st3 st4"
   id="text63"
   x="654"
   y="122.7798"
   style="font-size:18px;font-family:IBMPlexSans">IBM Cloud</text>

<text
   class="st3 st4"
   id="text65"
   x="658"
   y="144.37981"
   style="font-size:18px;font-family:IBMPlexSans"><tspan
     style="font-family:SimHei;-inkscape-font-specification:SimHei"
     id="tspan2915">专用网络</tspan></text>

<rect
   x="84"
   y="110"
   class="st2"
   width="177"
   height="44"
   id="rect67" />
<text
   class="st3 st4"
   id="text69"
   x="104"
   y="129.7798"
   style="font-size:18px;font-family:IBMPlexSans">IBM Cloud</text>

<text
   class="st3 st4"
   id="text71"
   x="108"
   y="151.37981"
   style="font-size:18px;font-family:IBMPlexSans"><tspan
     style="font-family:SimHei;-inkscape-font-specification:SimHei"
     id="tspan2913">管理网络</tspan></text>

<line
   class="st7"
   x1="458.3"
   y1="388.7"
   x2="683"
   y2="390"
   id="line73" />
<line
   class="st7"
   x1="407"
   y1="408.3"
   x2="722.5"
   y2="409.5"
   id="line75" />
<line
   class="st7"
   x1="682"
   y1="282"
   x2="682"
   y2="390.8"
   id="line77" />
<line
   class="st7"
   x1="721.5"
   y1="286.1"
   x2="721.5"
   y2="410.5"
   id="line79" />
<line
   class="st7"
   x1="408"
   y1="377.3"
   x2="408"
   y2="408.8"
   id="line81" />
<line
   class="st7"
   x1="459"
   y1="377.5"
   x2="459"
   y2="389.5"
   id="line83" />
<line
   class="st8"
   x1="146.3"
   y1="322.5"
   x2="294.7"
   y2="322.5"
   id="line85" />
<line
   class="st9"
   x1="146.3"
   y1="281"
   x2="146.3"
   y2="322.5"
   id="line87" />
<g
   id="g89">
	<g
   id="g91">
		<line
   class="st5"
   x1="407.5"
   y1="262.2"
   x2="407.5"
   y2="256.1"
   id="line93" />
		<line
   class="st6"
   x1="407.5"
   y1="245.4"
   x2="407.5"
   y2="186.4"
   id="line95" />
		<line
   class="st5"
   x1="407.5"
   y1="181"
   x2="407.5"
   y2="175"
   id="line97" />
	</g>
</g>
</svg>
