<?xml version="1.0" encoding="utf-8"?>
<!-- Generator: Adobe Illustrator 23.0.1, SVG Export Plug-In . SVG Version: 6.00 Build 0)  -->
<svg version="1.1" xmlns="http://www.w3.org/2000/svg" xmlns:xlink="http://www.w3.org/1999/xlink" x="0px" y="0px"
	 viewBox="0 0 644 465" style="enable-background:new 0 0 644 465;" xml:space="preserve">
<style type="text/css">
	.st0{fill:#FFFFFF;stroke:#333333;stroke-miterlimit:10;}
	.st1{fill:none;stroke:#FF00FF;stroke-miterlimit:10;}
	.st2{fill:#FFFFFF;stroke:#000000;stroke-miterlimit:10;}
	.st3{fill:none;stroke:#FCEE21;stroke-miterlimit:10;}
	.st4{fill:none;stroke:#0071BC;stroke-miterlimit:10;}
	.st5{fill:none;stroke:#000000;stroke-miterlimit:10;}
	.st6{fill:none;stroke:#0071BC;stroke-miterlimit:10;stroke-dasharray:5.1905,5.1905;}
	.st7{fill:none;stroke:#009245;stroke-miterlimit:10;}
	.st8{fill:none;stroke:#009245;stroke-miterlimit:10;stroke-dasharray:4.7826,4.7826;}
	.st9{fill:none;stroke:#EF8E70;stroke-miterlimit:10;}
	.st10{font-family:'IBMPlexSans';}
	.st11{font-size:21px;}
	.st12{fill:#74CDED;}
	.st13{font-family:'MyriadPro-Regular';}
	.st14{fill:#B3B3B3;}
	.st15{fill:#FFFFFF;}
	.st16{fill:#90DDA6;}
	.st17{fill:#F4AC90;}
	.st18{fill:#0071BC;stroke:#000000;stroke-miterlimit:10;}
	.st19{fill:#FFFFFF;stroke:#808080;stroke-width:2;stroke-miterlimit:10;}
	.st20{fill:none;stroke:#808080;stroke-miterlimit:10;}
	.st21{fill:#009245;stroke:#000000;stroke-miterlimit:10;}
	.st22{fill:#FCEE21;}
</style>
<g id="right_box">
	<path class="st0" d="M595.5,452.5h-227c-6.6,0-12-5.4-12-12v-277c0-6.6,5.4-12,12-12h227c6.6,0,12,5.4,12,12v277
		C607.5,447.1,602.1,452.5,595.5,452.5z"/>
	<line class="st1" x1="137.5" y1="405.5" x2="137.5" y2="422.5"/>
	<path class="st1" d="M507.5,406v11.5c0,0,7,4,0,8v8h76L612,180l0,0l0,0l0,0l-4.5,0.5l0,0"/>
</g>
<g id="left_box">
	<path class="st2" d="M271.5,452.5h-227c-6.6,0-12-5.4-12-12v-277c0-6.6,5.4-12,12-12h227c6.6,0,12,5.4,12,12v277
		C283.5,447.1,278.1,452.5,271.5,452.5z"/>
	<line class="st3" x1="91.5" y1="422.5" x2="218.5" y2="422.5"/>
	<line class="st3" x1="39.5" y1="178.5" x2="91.5" y2="422.5"/>
	<path class="st1" d="M35.33,181l13.17,67.5c0,0,5-10,9,0h9c0,0,4-11,9,0h409v-4c0,0,7-5-1-8v-15"/>
</g>
<g id="blue_line">
	<line class="st4" x1="87.5" y1="240.5" x2="207.5" y2="240.5"/>
	<line class="st4" x1="430.5" y1="240.5" x2="553" y2="240.5"/>
	<line class="st5" x1="139.5" y1="221.5" x2="139.5" y2="239.5"/>
	<line class="st5" x1="497.5" y1="221.5" x2="497.5" y2="240.5"/>
	<line class="st4" x1="87.5" y1="240.5" x2="56.5" y2="162.5"/>
	<g>
		<g>
			<line class="st4" x1="262.5" y1="240.5" x2="265" y2="240.5"/>
			<line class="st6" x1="270.19" y1="240.5" x2="371.4" y2="240.5"/>
			<line class="st4" x1="374" y1="240.5" x2="376.5" y2="240.5"/>
		</g>
	</g>
</g>
<g id="green_line">
	<line class="st7" x1="92.5" y1="338.5" x2="206.5" y2="338.5"/>
	<line class="st7" x1="431" y1="338.5" x2="545" y2="338.5"/>
	<g>
		<g>
			<line class="st7" x1="260.5" y1="338.5" x2="263" y2="338.5"/>
			<line class="st8" x1="267.78" y1="338.5" x2="370.61" y2="338.5"/>
			<line class="st7" x1="373" y1="338.5" x2="375.5" y2="338.5"/>
		</g>
	</g>
	<line class="st5" x1="137.5" y1="314.5" x2="137.5" y2="338.5"/>
	<line class="st5" x1="498.5" y1="314.5" x2="498.5" y2="338.5"/>
	<line class="st7" x1="92.5" y1="338.5" x2="52.5" y2="169.5"/>
</g>
<g id="yellow_line">
</g>
<g id="pink_line">
	<line class="st9" x1="406.5" y1="421.5" x2="562.5" y2="421.5"/>
	<line class="st9" x1="562.5" y1="421.5" x2="595.5" y2="178.5"/>
</g>
<g id="N3">
	<text transform="matrix(1 0 0 1 222 429.667)" class="st10 st11">N3</text>
</g>
<g id="N4">
	<text transform="matrix(1 0 0 1 372.333 429.667)" class="st10 st11">N4</text>
</g>
<g id="N1">
	<text transform="matrix(1 0 0 1 306.1665 236)" class="st10 st11">N1</text>
</g>
<g id="N2">
	<text transform="matrix(1 0 0 1 306.1665 332)" class="st10 st11">N2</text>
	<line class="st5" x1="497.5" y1="405.5" x2="497.5" y2="421.5"/>
</g>
<g id="N1-a">
	<g>
		<g>
			<path class="st12" d="M118.33,221.5c-6.34,0-11.5-5.16-11.5-11.5v-23.52c0-6.34,5.16-11.5,11.5-11.5h42
				c6.34,0,11.5,5.16,11.5,11.5V210c0,6.34-5.16,11.5-11.5,11.5H118.33z"/>
			<path d="M160.33,175.48c6.07,0,11,4.93,11,11V210c0,6.07-4.93,11-11,11h-42c-6.07,0-11-4.93-11-11v-23.52c0-6.07,4.93-11,11-11
				H160.33 M160.33,174.48h-42c-6.6,0-12,5.4-12,12V210c0,6.6,5.4,12,12,12h42c6.6,0,12-5.4,12-12v-23.52
				C172.33,179.88,166.93,174.48,160.33,174.48L160.33,174.48z"/>
		</g>
		<text transform="matrix(1 0 0 1 118.3333 206)" class="st13 st11">N1-a</text>
	</g>
</g>
<g id="N0-a">
	<g>
		<g>
			<path class="st14" d="M214,54.5c-6.34,0-11.5-5.16-11.5-11.5V19.48c0-6.34,5.16-11.5,11.5-11.5h42c6.34,0,11.5,5.16,11.5,11.5V43
				c0,6.34-5.16,11.5-11.5,11.5H214z"/>
			<path d="M256,8.48c6.07,0,11,4.93,11,11V43c0,6.07-4.93,11-11,11h-42c-6.07,0-11-4.93-11-11V19.48c0-6.07,4.93-11,11-11H256
				 M256,7.48h-42c-6.6,0-12,5.4-12,12V43c0,6.6,5.4,12,12,12h42c6.6,0,12-5.4,12-12V19.48C268,12.88,262.6,7.48,256,7.48L256,7.48z
				"/>
		</g>
		<text transform="matrix(1 0 0 1 214 39)" class="st13 st11">N0-a</text>
	</g>
	<g>
		<line class="st5" x1="196.5" y1="73.5" x2="423.5" y2="73.5"/>
	</g>
	<line class="st5" x1="235.5" y1="54.5" x2="235.5" y2="72.5"/>
	<line class="st5" x1="314.5" y1="73.5" x2="314.5" y2="90.5"/>
	<text transform="matrix(1 0 0 1 426 80.5)" class="st10 st11">N0</text>
</g>
<g id="R1">
	<g>
		<g>
			<circle class="st15" cx="32.5" cy="155.5" r="25"/>
			<path d="M32.5,131c13.51,0,24.5,10.99,24.5,24.5c0,13.51-10.99,24.5-24.5,24.5S8,169.01,8,155.5C8,141.99,18.99,131,32.5,131
				 M32.5,130C18.42,130,7,141.42,7,155.5S18.42,181,32.5,181S58,169.58,58,155.5S46.58,130,32.5,130L32.5,130z"/>
		</g>
		<text transform="matrix(1 0 0 1 19 163)" class="st10 st11">R1</text>
	</g>
	<path class="st1" d="M607,128.5c0-14.37-124.12-26-277.5-26"/>
</g>
<g id="R2">
	<g>
		<g>
			<circle class="st15" cx="607.5" cy="155.5" r="25"/>
			<path d="M607.5,131c13.51,0,24.5,10.99,24.5,24.5S621.01,180,607.5,180c-13.51,0-24.5-10.99-24.5-24.5S593.99,131,607.5,131
				 M607.5,130c-14.08,0-25.5,11.42-25.5,25.5s11.42,25.5,25.5,25.5s25.5-11.42,25.5-25.5S621.58,130,607.5,130L607.5,130z"/>
		</g>
		<text transform="matrix(1 0 0 1 594 163)" class="st10 st11">R2</text>
	</g>
	<path class="st1" d="M32,129.5c0-14.92,117.85-27,263.5-27"/>
</g>
<g id="N1-b">
	<g>
		<g>
			<path class="st12" d="M475,221.5c-6.34,0-11.5-5.16-11.5-11.5v-23.52c0-6.34,5.16-11.5,11.5-11.5h42c6.34,0,11.5,5.16,11.5,11.5
				V210c0,6.34-5.16,11.5-11.5,11.5H475z"/>
			<path d="M517,175.48c6.07,0,11,4.93,11,11V210c0,6.07-4.93,11-11,11h-42c-6.07,0-11-4.93-11-11v-23.52c0-6.07,4.93-11,11-11H517
				 M517,174.48h-42c-6.6,0-12,5.4-12,12V210c0,6.6,5.4,12,12,12h42c6.6,0,12-5.4,12-12v-23.52C529,179.88,523.6,174.48,517,174.48
				L517,174.48z"/>
		</g>
		<text transform="matrix(1 0 0 1 475 206)" class="st13 st11">N1-b</text>
	</g>
</g>
<g id="N2-b">
	<g>
		<g>
			<path class="st16" d="M475,314.5c-6.34,0-11.5-5.16-11.5-11.5v-23.52c0-6.34,5.16-11.5,11.5-11.5h42c6.34,0,11.5,5.16,11.5,11.5
				V303c0,6.34-5.16,11.5-11.5,11.5H475z"/>
			<path d="M517,268.48c6.07,0,11,4.93,11,11V303c0,6.07-4.93,11-11,11h-42c-6.07,0-11-4.93-11-11v-23.52c0-6.07,4.93-11,11-11H517
				 M517,267.48h-42c-6.6,0-12,5.4-12,12V303c0,6.6,5.4,12,12,12h42c6.6,0,12-5.4,12-12v-23.52C529,272.88,523.6,267.48,517,267.48
				L517,267.48z"/>
		</g>
		<text transform="matrix(1 0 0 1 475 299)" class="st13 st11">N2-b</text>
	</g>
</g>
<g id="N3-b">
	<g>
		<g>
			<path class="st17" d="M475,405.5c-6.34,0-11.5-5.16-11.5-11.5v-23.52c0-6.34,5.16-11.5,11.5-11.5h42c6.34,0,11.5,5.16,11.5,11.5
				V394c0,6.34-5.16,11.5-11.5,11.5H475z"/>
			<path d="M517,359.48c6.07,0,11,4.93,11,11V394c0,6.07-4.93,11-11,11h-42c-6.07,0-11-4.93-11-11v-23.52c0-6.07,4.93-11,11-11H517
				 M517,358.48h-42c-6.6,0-12,5.4-12,12V394c0,6.6,5.4,12,12,12h42c6.6,0,12-5.4,12-12v-23.52C529,363.88,523.6,358.48,517,358.48
				L517,358.48z"/>
		</g>
		<text transform="matrix(1 0 0 1 475 390)" class="st13 st11">N3-b</text>
	</g>
</g>
<g id="B1a">
	<g>
		<path class="st18" d="M244,269.5h-16c-11.82,0-21.5-9.67-21.5-21.5l0,0c0-11.82,9.68-21.5,21.5-21.5h16
			c11.82,0,21.5,9.68,21.5,21.5l0,0C265.5,259.83,255.82,269.5,244,269.5z"/>
		<text transform="matrix(1 0 0 1 219.5 254.5)" class="st15 st13 st11">B1a</text>
	</g>
</g>
<g id="cloud_icon">
	<path class="st19" d="M340.53,105.88c-3.9,0-7.49,0.98-10.4,2.61c-1.1-9.73-8.42-17.25-17.31-17.25c-9.15,0-16.64,7.96-17.4,18.09
		c-0.79-0.34-1.62-0.52-2.48-0.52c-4.66,0-8.43,5.24-8.43,11.71c0,6.47,3.78,11.71,8.43,11.71c1.03,0,2-0.27,2.91-0.73h38.98
		c1.79,0.47,3.7,0.73,5.7,0.73c9.65,0,17.47-5.9,17.47-13.18C358,111.78,350.18,105.88,340.53,105.88z"/>
	<path class="st20" d="M54,142c0-14.37,103.32-26,231-26"/>
	<path class="st20" d="M589.5,137.5c0-12.16-104.21-22-233-22"/>
</g>
<g id="B1b_1_">
	<g>
		<path class="st18" d="M410.5,269.5h-16c-11.83,0-21.5-9.67-21.5-21.5l0,0c0-11.82,9.67-21.5,21.5-21.5h16
			c11.83,0,21.5,9.68,21.5,21.5l0,0C432,259.83,422.33,269.5,410.5,269.5z"/>
		<text transform="matrix(1 0 0 1 386 254.5)" class="st15 st13 st11">B1b</text>
	</g>
</g>
<g id="B1b">
	<g>
		<path class="st21" d="M244,361.5h-16c-11.82,0-21.5-9.67-21.5-21.5l0,0c0-11.83,9.68-21.5,21.5-21.5h16
			c11.82,0,21.5,9.67,21.5,21.5l0,0C265.5,351.83,255.82,361.5,244,361.5z"/>
		<text transform="matrix(1 0 0 1 219.5 346.5)" class="st15 st13 st11">B2a</text>
	</g>
</g>
<g id="B2b">
	<g>
		<path class="st21" d="M410.5,361.5h-16c-11.83,0-21.5-9.67-21.5-21.5l0,0c0-11.83,9.67-21.5,21.5-21.5h16
			c11.83,0,21.5,9.67,21.5,21.5l0,0C432,351.83,422.33,361.5,410.5,361.5z"/>
		<text transform="matrix(1 0 0 1 386 346.5)" class="st15 st13 st11">B2b</text>
	</g>
</g>
<g id="N2-a">
	<g>
		<g>
			<path class="st16" d="M118.33,314.5c-6.34,0-11.5-5.16-11.5-11.5v-23.52c0-6.34,5.16-11.5,11.5-11.5h42
				c6.34,0,11.5,5.16,11.5,11.5V303c0,6.34-5.16,11.5-11.5,11.5H118.33z"/>
			<path d="M160.33,268.48c6.07,0,11,4.93,11,11V303c0,6.07-4.93,11-11,11h-42c-6.07,0-11-4.93-11-11v-23.52c0-6.07,4.93-11,11-11
				H160.33 M160.33,267.48h-42c-6.6,0-12,5.4-12,12V303c0,6.6,5.4,12,12,12h42c6.6,0,12-5.4,12-12v-23.52
				C172.33,272.88,166.93,267.48,160.33,267.48L160.33,267.48z"/>
		</g>
		<text transform="matrix(1 0 0 1 118.3333 299)" class="st13 st11">N2-a</text>
	</g>
</g>
<g id="N3-a">
	<g>
		<g>
			<path class="st22" d="M118.33,405.5c-6.34,0-11.5-5.16-11.5-11.5v-23.52c0-6.34,5.16-11.5,11.5-11.5h42
				c6.34,0,11.5,5.16,11.5,11.5V394c0,6.34-5.16,11.5-11.5,11.5H118.33z"/>
			<path d="M160.33,359.48c6.07,0,11,4.93,11,11V394c0,6.07-4.93,11-11,11h-42c-6.07,0-11-4.93-11-11v-23.52c0-6.07,4.93-11,11-11
				H160.33 M160.33,358.48h-42c-6.6,0-12,5.4-12,12V394c0,6.6,5.4,12,12,12h42c6.6,0,12-5.4,12-12v-23.52
				C172.33,363.88,166.93,358.48,160.33,358.48L160.33,358.48z"/>
		</g>
		<text transform="matrix(1 0 0 1 118.3333 390)" class="st13 st11">N3-a</text>
	</g>
</g>
</svg>
