<?xml version="1.0" encoding="utf-8"?>
<!-- Generator: Adobe Illustrator 23.0.1, SVG Export Plug-In . SVG Version: 6.00 Build 0)  -->
<svg version="1.1" xmlns="http://www.w3.org/2000/svg" xmlns:xlink="http://www.w3.org/1999/xlink" x="0px" y="0px"
	 viewBox="0 0 856 564" style="enable-background:new 0 0 856 564;" xml:space="preserve">
<style type="text/css">
	.st0{fill:none;stroke:#29ABE2;stroke-width:2;stroke-miterlimit:10;}
	.st1{fill:none;stroke:#22657C;stroke-width:2;stroke-miterlimit:10;}
	.st2{font-family:'MyriadPro-Regular';}
	.st3{font-size:18px;}
	.st4{fill:url(#SVGID_1_);stroke:#000000;stroke-width:0.25;stroke-miterlimit:10;}
	.st5{fill:url(#SVGID_2_);}
	.st6{fill:url(#SVGID_3_);stroke:#000000;stroke-width:0.25;stroke-miterlimit:10;}
	.st7{fill:#808080;}
	.st8{fill:none;stroke:#FFFFFF;stroke-width:2;stroke-miterlimit:10;}
	.st9{fill:#FFFFFF;}
	.st10{font-size:8.1627px;}
	.st11{fill:none;stroke:#666666;stroke-width:4;stroke-miterlimit:10;}
	.st12{font-size:9.0653px;}
	.st13{fill:#808080;stroke:#666666;stroke-miterlimit:10;}
	.st14{fill:none;stroke:#666666;stroke-width:2;stroke-miterlimit:10;}
	.st15{fill:none;stroke:#0071BC;stroke-width:2;stroke-miterlimit:10;}
	.st16{fill:#29ABE2;}
	.st17{fill:#FFFFFF;stroke:#808080;stroke-width:2;stroke-miterlimit:10;}
	.st18{font-size:20.1767px;}
</style>
<g id="right_box">
	<rect x="528.5" y="49.5" class="st0" width="277.5" height="495.5"/>
</g>
<g id="left_box">
	<rect x="25" y="49" class="st1" width="292" height="497"/>
</g>
<g id="Layer_23">
	<text transform="matrix(1 0 0 1 31 22)"><tspan x="0" y="0" class="st2 st3">vSphere 5.5u3+</tspan><tspan x="0" y="21.6" class="st2 st3">vCenter</tspan></text>
</g>
<g id="Layer_24">
	<text transform="matrix(1 0 0 1 217 23)" class="st2 st3">Web-Client</text>
</g>
<g id="right_HCX_on_VCF">
	<text transform="matrix(1 0 0 1 606 41)" class="st2 st3">HCX für VCF</text>
</g>
<g id="middle_bar">
	<g>
		<g>
			<linearGradient id="SVGID_1_" gradientUnits="userSpaceOnUse" x1="525.0101" y1="376" x2="525.0101" y2="297.7211">
				<stop  offset="0.1332" style="stop-color:#1E9CD7"/>
				<stop  offset="0.4442" style="stop-color:#B7E0F4"/>
				<stop  offset="0.4818" style="stop-color:#AEDAF1"/>
				<stop  offset="0.5443" style="stop-color:#94CCEA"/>
				<stop  offset="0.6241" style="stop-color:#6BB3DD"/>
				<stop  offset="0.7169" style="stop-color:#3292CD"/>
				<stop  offset="0.7899" style="stop-color:#0075BE"/>
				<stop  offset="0.9944" style="stop-color:#005B97"/>
			</linearGradient>
			<ellipse class="st4" cx="525.01" cy="341" rx="12.99" ry="35"/>
			<g>
				<linearGradient id="SVGID_2_" gradientUnits="userSpaceOnUse" x1="421.6809" y1="376" x2="421.6809" y2="297.7211">
					<stop  offset="0.1332" style="stop-color:#1E9CD7"/>
					<stop  offset="0.4442" style="stop-color:#B7E0F4"/>
					<stop  offset="0.4818" style="stop-color:#AEDAF1"/>
					<stop  offset="0.5443" style="stop-color:#94CCEA"/>
					<stop  offset="0.6241" style="stop-color:#6BB3DD"/>
					<stop  offset="0.7169" style="stop-color:#3292CD"/>
					<stop  offset="0.7899" style="stop-color:#0075BE"/>
					<stop  offset="0.9944" style="stop-color:#005B97"/>
				</linearGradient>
				<rect x="315.99" y="306" class="st5" width="211.38" height="70"/>
			</g>
			<linearGradient id="SVGID_3_" gradientUnits="userSpaceOnUse" x1="315.99" y1="376" x2="315.99" y2="297.7211">
				<stop  offset="0.1332" style="stop-color:#1E9CD7"/>
				<stop  offset="0.4442" style="stop-color:#B7E0F4"/>
				<stop  offset="0.4818" style="stop-color:#AEDAF1"/>
				<stop  offset="0.5443" style="stop-color:#94CCEA"/>
				<stop  offset="0.6241" style="stop-color:#6BB3DD"/>
				<stop  offset="0.7169" style="stop-color:#3292CD"/>
				<stop  offset="0.7899" style="stop-color:#0075BE"/>
				<stop  offset="0.9944" style="stop-color:#005B97"/>
			</linearGradient>
			<ellipse class="st6" cx="315.99" cy="341" rx="12.99" ry="35"/>
		</g>
		<g>
			<path class="st7" d="M471.26,329.04c-3.29,0-6.32,0.81-8.77,2.17c-0.92-8.1-7.1-14.37-14.61-14.37
				c-7.72,0-14.04,6.63-14.67,15.07c-0.66-0.28-1.37-0.43-2.1-0.43c-3.93,0-7.11,4.37-7.11,9.76c0,5.39,3.19,9.76,7.11,9.76
				c0.86,0,1.69-0.22,2.46-0.61h32.88c1.51,0.39,3.12,0.61,4.81,0.61c8.14,0,14.74-4.92,14.74-10.98
				C486,333.96,479.4,329.04,471.26,329.04z"/>
			<g>
				<path class="st8" d="M456.76,345.2h-16.71c-0.82,0-1.48-0.66-1.48-1.48v-13.41c0-0.82,0.66-1.48,1.48-1.48h16.71
					c0.82,0,1.48,0.66,1.48,1.48v13.41C458.25,344.54,457.58,345.2,456.76,345.2z"/>
				<text transform="matrix(1.1348 0 0 1 441.3848 340.4404)" class="st9 st2 st10">VM</text>
			</g>
		</g>
		<g>
			<path class="st11" d="M413.77,341.58c-3.85,0-7.39,0.94-10.26,2.51c-1.08-9.38-8.31-16.63-17.08-16.63
				c-9.02,0-16.42,7.68-17.16,17.44c-0.77-0.32-1.6-0.5-2.45-0.5c-4.59,0-8.32,5.06-8.32,11.3c0,6.24,3.72,11.3,8.32,11.3
				c1.01,0,1.98-0.26,2.87-0.71h38.45c1.76,0.45,3.65,0.71,5.62,0.71c9.52,0,17.23-5.69,17.23-12.71
				C431,347.27,423.28,341.58,413.77,341.58z"/>
			<g>
				<path d="M395.48,360.8h-17.56c-0.82,0-1.48-0.66-1.48-1.48v-15.98c0-0.82,0.66-1.48,1.48-1.48h17.56c0.82,0,1.48,0.66,1.48,1.48
					v15.98C396.97,360.14,396.3,360.8,395.48,360.8z"/>
				<text transform="matrix(1.0229 0 0 1 379.3701 355.5459)" class="st9 st2 st12">VM</text>
			</g>
		</g>
		<g>
			<polygon points="398,320 405,315 411,326 408,328 			"/>
			<polygon points="388.83,330.66 394.37,324.08 402.92,333.24 400.51,335.92 			"/>
			<polygon points="386.97,340.76 387.38,335.29 395.23,336.85 394.98,339.14 			"/>
			<polygon points="412.42,312.18 420.93,310.96 421.2,323.49 417.62,323.88 			"/>
			<polygon points="427.2,311.7 435.62,313.46 431.6,325.33 428.09,324.48 			"/>
			<polygon points="441.34,316.2 446.32,320.54 439.17,326.97 437.15,325.09 			"/>
		</g>
	</g>
</g>
<g id="right_VM_top_3">
	<g>
		<path class="st7" d="M616,144h-21.17c-6.6,0-12-5.4-12-12v-17.63c0-6.6,5.4-12,12-12H616c6.6,0,12,5.4,12,12V132
			C628,138.6,622.6,144,616,144z"/>
		<text transform="matrix(1 0 0 1 594.0488 129.2397)" class="st9 st2 st3">VM</text>
	</g>
	<g>
		<path class="st7" d="M671,144h-21.17c-6.6,0-12-5.4-12-12v-17.63c0-6.6,5.4-12,12-12H671c6.6,0,12,5.4,12,12V132
			C683,138.6,677.6,144,671,144z"/>
		<text transform="matrix(1 0 0 1 649.0488 129.2397)" class="st9 st2 st3">VM</text>
	</g>
	<g>
		<path class="st13" d="M726,144h-21.17c-6.6,0-12-5.4-12-12v-17.63c0-6.6,5.4-12,12-12H726c6.6,0,12,5.4,12,12V132
			C738,138.6,732.6,144,726,144z"/>
		<text transform="matrix(1 0 0 1 704.0488 129.2397)" class="st9 st2 st3">VM</text>
	</g>
</g>
<g id="lines_top">
	<line class="st14" x1="38" y1="84.5" x2="794" y2="84.5"/>
	<line class="st14" x1="144" y1="83" x2="144" y2="103"/>
	<line class="st14" x1="92" y1="85" x2="92" y2="101"/>
	<line class="st14" x1="602" y1="85" x2="602" y2="103"/>
	<line class="st14" x1="658" y1="85" x2="658" y2="101"/>
	<line class="st14" x1="717" y1="85" x2="717" y2="101"/>
</g>
<g id="line_left">
	<line class="st14" x1="51" y1="66" x2="51" y2="534"/>
</g>
<g id="line_right">
	<line class="st14" x1="784" y1="66" x2="784" y2="532"/>
</g>
<g id="lines_bottom">
	<line class="st14" x1="39" y1="519" x2="285" y2="519"/>
	<line class="st14" x1="559" y1="520" x2="795" y2="520"/>
	<line class="st14" x1="80" y1="506" x2="80" y2="518"/>
	<line class="st14" x1="133" y1="506" x2="133" y2="518"/>
	<line class="st14" x1="641" y1="506" x2="641" y2="520"/>
</g>
<g id="lines_row_3">
	<line class="st14" x1="40" y1="452" x2="284" y2="452"/>
	<line class="st14" x1="560" y1="449" x2="795" y2="449"/>
	<line class="st14" x1="432" y1="615" x2="432" y2="616"/>
	<line class="st14" x1="81" y1="438" x2="81" y2="451"/>
	<line class="st14" x1="132" y1="438" x2="132" y2="451"/>
	<line class="st15" x1="736" y1="368" x2="736" y2="378"/>
	<line class="st15" x1="92" y1="370" x2="92" y2="379"/>
	<line class="st14" x1="185" y1="438" x2="185" y2="451"/>
</g>
<g id="lines_row_2">
	<line class="st15" x1="39" y1="380" x2="282" y2="380"/>
	<line class="st15" x1="556" y1="378" x2="795" y2="378"/>
	<line class="st15" x1="192" y1="346" x2="317" y2="346"/>
	<line class="st15" x1="640" y1="346" x2="538" y2="346"/>
	<line class="st15" x1="251" y1="251" x2="251" y2="284"/>
	<line class="st15" x1="251" y1="321" x2="251" y2="327"/>
	<line class="st15" x1="250" y1="370" x2="250" y2="380"/>
	<line class="st15" x1="251" y1="438" x2="251" y2="451"/>
	<line class="st15" x1="252" y1="506" x2="252" y2="518"/>
	<line class="st15" x1="585" y1="368" x2="585" y2="378"/>
	<line class="st15" x1="585" y1="438" x2="585" y2="448"/>
	<line class="st15" x1="585" y1="506" x2="585" y2="520"/>
	<line class="st15" x1="275" y1="418" x2="562" y2="418"/>
	<line class="st15" x1="276" y1="487" x2="562" y2="487"/>
	<path class="st15" d="M249,169l-1-78c0,0-12-7,0-15V33"/>
</g>
<g id="right_WAN_opt">
	<g>
		<g>
			<path class="st16" d="M675.25,369h-24.37c-6.6,0-12-5.4-12-12v-19.89c0-6.6,5.4-12,12-12h24.37c6.6,0,12,5.4,12,12V357
				C687.25,363.6,681.85,369,675.25,369z"/>
			<g>
				<g>
					<g>
						<g>
							<g>
								<ellipse class="st9" cx="662.92" cy="346.93" rx="12.99" ry="12.54"/>
								<path class="st16" d="M668.74,346.93c0,3.1-2.61,5.62-5.82,5.62c-3.22,0-5.82-2.52-5.82-5.62c0-3.1,2.61-5.62,5.82-5.62
									C666.14,341.31,668.74,343.83,668.74,346.93z"/>
							</g>
							<rect x="659.04" y="330.93" class="st9" width="7.02" height="4.48"/>
							<rect x="659.79" y="357.8" class="st9" width="6.27" height="5.37"/>
						</g>
						<rect x="674.27" y="343.92" class="st9" width="5.37" height="6.27"/>
						<rect x="646.5" y="343.92" class="st9" width="5.37" height="6.27"/>
					</g>
					
						<rect x="649.46" y="334.28" transform="matrix(0.7526 0.6585 -0.6585 0.7526 383.493 -346.1771)" class="st9" width="5.89" height="5.89"/>
					
						<rect x="669.32" y="354.04" transform="matrix(0.7526 0.6585 -0.6585 0.7526 401.6389 -354.975)" class="st9" width="7.74" height="5.89"/>
				</g>
				
					<rect x="671.01" y="334.63" transform="matrix(0.7071 0.7071 -0.7071 0.7071 436.3055 -377.5818)" class="st9" width="5.85" height="6.49"/>
				
					<rect x="650.18" y="353.98" transform="matrix(0.7071 0.7071 -0.7071 0.7071 443.6634 -357.2815)" class="st9" width="5.85" height="5.85"/>
			</g>
		</g>
		<text transform="matrix(1 0 0 1 646 297.3335)"><tspan x="0" y="0" class="st2 st3">WAN</tspan><tspan x="0" y="21.6" class="st2 st3">Opt</tspan></text>
	</g>
</g>
<g id="left_WAN_opt">
	<g>
		<g>
			<path class="st16" d="M181.25,369h-24.37c-6.6,0-12-5.4-12-12v-19.89c0-6.6,5.4-12,12-12h24.37c6.6,0,12,5.4,12,12V357
				C193.25,363.6,187.85,369,181.25,369z"/>
			<g>
				<g>
					<g>
						<g>
							<g>
								<ellipse class="st9" cx="168.92" cy="346.93" rx="12.99" ry="12.54"/>
								<path class="st16" d="M174.74,346.93c0,3.1-2.61,5.62-5.82,5.62c-3.22,0-5.82-2.52-5.82-5.62c0-3.1,2.61-5.62,5.82-5.62
									C172.14,341.31,174.74,343.83,174.74,346.93z"/>
							</g>
							<rect x="165.04" y="330.93" class="st9" width="7.02" height="4.48"/>
							<rect x="165.79" y="357.8" class="st9" width="6.27" height="5.37"/>
						</g>
						<rect x="180.27" y="343.92" class="st9" width="5.37" height="6.27"/>
						<rect x="152.5" y="343.92" class="st9" width="5.37" height="6.27"/>
					</g>
					
						<rect x="155.46" y="334.28" transform="matrix(0.7526 0.6585 -0.6585 0.7526 261.2628 -20.8723)" class="st9" width="5.89" height="5.89"/>
					
						<rect x="175.32" y="354.04" transform="matrix(0.7526 0.6585 -0.6585 0.7526 279.413 -29.6751)" class="st9" width="7.74" height="5.89"/>
				</g>
				
					<rect x="177.01" y="334.63" transform="matrix(0.7071 0.7071 -0.7071 0.7071 291.615 -28.2706)" class="st9" width="5.85" height="6.49"/>
				
					<rect x="156.18" y="353.98" transform="matrix(0.7071 0.7071 -0.7071 0.7071 298.9741 -7.9707)" class="st9" width="5.85" height="5.85"/>
			</g>
		</g>
		<text transform="matrix(1 0 0 1 152 297.3335)"><tspan x="0" y="0" class="st2 st3">WAN</tspan><tspan x="0" y="21.6" class="st2 st3">Opt</tspan></text>
	</g>
</g>
<g id="right_lock_icon">
	<g>
		<path class="st16" d="M597.05,369h-22.51c-6.6,0-12-5.4-12-12v-18.21c0-6.6,5.4-12,12-12h22.51c6.6,0,12,5.4,12,12V357
			C609.05,363.6,603.65,369,597.05,369z"/>
		<g>
			<g>
				<path class="st9" d="M590.34,345.74h-8.24c-2.23,0-4.06-1.83-4.06-4.06v-3.93c0-2.23,1.83-4.06,4.06-4.06h8.24
					c2.23,0,4.06,1.83,4.06,4.06v3.93C594.41,343.91,592.58,345.74,590.34,345.74z"/>
				<path class="st16" d="M588.9,344.02h-5.35c-1.13,0-2.06-0.93-2.06-2.06v-2.87c0-1.13,0.93-2.06,2.06-2.06h5.35
					c1.13,0,2.06,0.93,2.06,2.06v2.87C590.96,343.09,590.03,344.02,588.9,344.02z"/>
				<path class="st9" d="M595.51,362.11h-18.58c-2.23,0-4.06-1.83-4.06-4.06v-10.83c0-2.23,1.83-4.06,4.06-4.06h18.58
					c2.23,0,4.06,1.83,4.06,4.06v10.83C599.57,360.28,597.75,362.11,595.51,362.11z"/>
			</g>
			<g>
				<path class="st16" d="M590.1,350.48c0,1.67-1.54,3.01-3.45,3.01s-3.45-1.35-3.45-3.01c0-1.67,1.54-3.01,3.45-3.01
					S590.1,348.82,590.1,350.48z"/>
				<path class="st16" d="M586.22,359.52L586.22,359.52c-0.71,0-1.29-0.58-1.29-1.29v-6.03c0-0.71,0.58-1.29,1.29-1.29l0,0
					c0.71,0,1.29,0.58,1.29,1.29v6.03C587.51,358.94,586.93,359.52,586.22,359.52z"/>
				<path class="st16" d="M588.81,355.22h-1.72c-0.24,0-0.43-0.19-0.43-0.43l0,0c0-0.24,0.19-0.43,0.43-0.43h1.72
					c0.24,0,0.43,0.19,0.43,0.43l0,0C589.24,355.02,589.04,355.22,588.81,355.22z"/>
				<path class="st16" d="M588.81,356.94h-1.72c-0.24,0-0.43-0.19-0.43-0.43l0,0c0-0.24,0.19-0.43,0.43-0.43h1.72
					c0.24,0,0.43,0.19,0.43,0.43l0,0C589.24,356.75,589.04,356.94,588.81,356.94z"/>
				<path class="st16" d="M588.81,358.66h-1.72c-0.24,0-0.43-0.19-0.43-0.43l0,0c0-0.24,0.19-0.43,0.43-0.43h1.72
					c0.24,0,0.43,0.19,0.43,0.43l0,0C589.24,358.47,589.04,358.66,588.81,358.66z"/>
			</g>
		</g>
	</g>
	<g>
		<g>
			<path class="st16" d="M596.05,369h-22.51c-6.6,0-12-5.4-12-12v-18.21c0-6.6,5.4-12,12-12h22.51c6.6,0,12,5.4,12,12V357
				C608.05,363.6,602.65,369,596.05,369z"/>
			<g>
				<g>
					<path class="st9" d="M589.34,345.74h-8.24c-2.23,0-4.06-1.83-4.06-4.06v-3.93c0-2.23,1.83-4.06,4.06-4.06h8.24
						c2.23,0,4.06,1.83,4.06,4.06v3.93C593.41,343.91,591.58,345.74,589.34,345.74z"/>
					<path class="st16" d="M587.9,344.02h-5.35c-1.13,0-2.06-0.93-2.06-2.06v-2.87c0-1.13,0.93-2.06,2.06-2.06h5.35
						c1.13,0,2.06,0.93,2.06,2.06v2.87C589.96,343.09,589.03,344.02,587.9,344.02z"/>
					<path class="st9" d="M594.51,362.11h-18.58c-2.23,0-4.06-1.83-4.06-4.06v-10.83c0-2.23,1.83-4.06,4.06-4.06h18.58
						c2.23,0,4.06,1.83,4.06,4.06v10.83C598.57,360.28,596.75,362.11,594.51,362.11z"/>
				</g>
				<g>
					<path class="st16" d="M589.1,350.48c0,1.67-1.54,3.01-3.45,3.01s-3.45-1.35-3.45-3.01c0-1.67,1.54-3.01,3.45-3.01
						S589.1,348.82,589.1,350.48z"/>
					<path class="st16" d="M585.22,359.52L585.22,359.52c-0.71,0-1.29-0.58-1.29-1.29v-6.03c0-0.71,0.58-1.29,1.29-1.29l0,0
						c0.71,0,1.29,0.58,1.29,1.29v6.03C586.51,358.94,585.93,359.52,585.22,359.52z"/>
					<path class="st16" d="M587.81,355.22h-1.72c-0.24,0-0.43-0.19-0.43-0.43l0,0c0-0.24,0.19-0.43,0.43-0.43h1.72
						c0.24,0,0.43,0.19,0.43,0.43l0,0C588.24,355.02,588.04,355.22,587.81,355.22z"/>
					<path class="st16" d="M587.81,356.94h-1.72c-0.24,0-0.43-0.19-0.43-0.43l0,0c0-0.24,0.19-0.43,0.43-0.43h1.72
						c0.24,0,0.43,0.19,0.43,0.43l0,0C588.24,356.75,588.04,356.94,587.81,356.94z"/>
					<path class="st16" d="M587.81,358.66h-1.72c-0.24,0-0.43-0.19-0.43-0.43l0,0c0-0.24,0.19-0.43,0.43-0.43h1.72
						c0.24,0,0.43,0.19,0.43,0.43l0,0C588.24,358.47,588.04,358.66,587.81,358.66z"/>
				</g>
			</g>
		</g>
		<text transform="matrix(1 0 0 1 555.333 298.3335)"><tspan x="0" y="0" class="st2 st3">Cloud-</tspan><tspan x="0" y="21.6" class="st2 st3">Gateway</tspan></text>
	</g>
</g>
<g id="left_lock">
	<g>
		<g>
			<path class="st16" d="M262.05,369h-22.51c-6.6,0-12-5.4-12-12v-18.21c0-6.6,5.4-12,12-12h22.51c6.6,0,12,5.4,12,12V357
				C274.05,363.6,268.65,369,262.05,369z"/>
			<g>
				<g>
					<path class="st9" d="M255.34,345.74h-8.24c-2.23,0-4.06-1.83-4.06-4.06v-3.93c0-2.23,1.83-4.06,4.06-4.06h8.24
						c2.23,0,4.06,1.83,4.06,4.06v3.93C259.41,343.91,257.58,345.74,255.34,345.74z"/>
					<path class="st16" d="M253.9,344.02h-5.35c-1.13,0-2.06-0.93-2.06-2.06v-2.87c0-1.13,0.93-2.06,2.06-2.06h5.35
						c1.13,0,2.06,0.93,2.06,2.06v2.87C255.96,343.09,255.03,344.02,253.9,344.02z"/>
					<path class="st9" d="M260.51,362.11h-18.58c-2.23,0-4.06-1.83-4.06-4.06v-10.83c0-2.23,1.83-4.06,4.06-4.06h18.58
						c2.23,0,4.06,1.83,4.06,4.06v10.83C264.57,360.28,262.75,362.11,260.51,362.11z"/>
				</g>
				<g>
					<path class="st16" d="M255.1,350.48c0,1.67-1.54,3.01-3.45,3.01s-3.45-1.35-3.45-3.01c0-1.67,1.54-3.01,3.45-3.01
						S255.1,348.82,255.1,350.48z"/>
					<path class="st16" d="M251.22,359.52L251.22,359.52c-0.71,0-1.29-0.58-1.29-1.29v-6.03c0-0.71,0.58-1.29,1.29-1.29l0,0
						c0.71,0,1.29,0.58,1.29,1.29v6.03C252.51,358.94,251.93,359.52,251.22,359.52z"/>
					<path class="st16" d="M253.81,355.22h-1.72c-0.24,0-0.43-0.19-0.43-0.43l0,0c0-0.24,0.19-0.43,0.43-0.43h1.72
						c0.24,0,0.43,0.19,0.43,0.43l0,0C254.24,355.02,254.04,355.22,253.81,355.22z"/>
					<path class="st16" d="M253.81,356.94h-1.72c-0.24,0-0.43-0.19-0.43-0.43l0,0c0-0.24,0.19-0.43,0.43-0.43h1.72
						c0.24,0,0.43,0.19,0.43,0.43l0,0C254.24,356.75,254.04,356.94,253.81,356.94z"/>
					<path class="st16" d="M253.81,358.66h-1.72c-0.24,0-0.43-0.19-0.43-0.43l0,0c0-0.24,0.19-0.43,0.43-0.43h1.72
						c0.24,0,0.43,0.19,0.43,0.43l0,0C254.24,358.47,254.04,358.66,253.81,358.66z"/>
				</g>
			</g>
		</g>
		<text transform="matrix(1 0 0 1 221.333 298.3335)"><tspan x="0" y="0" class="st2 st3">Cloud-</tspan><tspan x="0" y="21.6" class="st2 st3">Gateway</tspan></text>
	</g>
</g>
<g id="right_concentrator_1">
	<g>
		<g>
			<path class="st16" d="M748.88,369h-23.12c-6.6,0-12-5.4-12-12v-18.75c0-6.6,5.4-12,12-12h23.12c6.6,0,12,5.4,12,12V357
				C760.88,363.6,755.47,369,748.88,369z"/>
			<g>
				<rect x="724.23" y="336.58" class="st9" width="26.18" height="13.91"/>
				<rect x="728.32" y="347.21" class="st9" width="18" height="6.54"/>
				<rect x="728.32" y="341.49" class="st16" width="18" height="1.64"/>
				<rect x="734.86" y="352.12" class="st9" width="4.91" height="11.45"/>
				<rect x="726.68" y="331.67" class="st9" width="4.91" height="9"/>
				<rect x="734.04" y="331.67" class="st9" width="2.45" height="3.27"/>
				<rect x="738.13" y="331.67" class="st9" width="2.45" height="3.27"/>
				<rect x="743.04" y="331.67" class="st9" width="4.91" height="9"/>
			</g>
		</g>
		<text transform="matrix(1 0 0 1 714.667 319.9336)" class="st2 st3">L2 Ext</text>
	</g>
</g>
<g id="left_L2_ext">
	<g>
		<g>
			<path class="st16" d="M104.88,369H81.76c-6.6,0-12-5.4-12-12v-18.75c0-6.6,5.4-12,12-12h23.12c6.6,0,12,5.4,12,12V357
				C116.88,363.6,111.47,369,104.88,369z"/>
			<g>
				<rect x="80.23" y="336.58" class="st9" width="26.18" height="13.91"/>
				<rect x="84.32" y="347.21" class="st9" width="18" height="6.54"/>
				<rect x="84.32" y="341.49" class="st16" width="18" height="1.64"/>
				<rect x="90.86" y="352.12" class="st9" width="4.91" height="11.45"/>
				<rect x="82.68" y="331.67" class="st9" width="4.91" height="9"/>
				<rect x="90.04" y="331.67" class="st9" width="2.45" height="3.27"/>
				<rect x="94.13" y="331.67" class="st9" width="2.45" height="3.27"/>
				<rect x="99.04" y="331.67" class="st9" width="4.91" height="9"/>
			</g>
		</g>
		<text transform="matrix(1 0 0 1 70.667 319.9336)" class="st2 st3">L2 Ext</text>
	</g>
</g>
<g id="right_concentrator_2">
	<g>
		<path class="st16" d="M597.35,438h-23.12c-6.6,0-12-5.4-12-12v-18.75c0-6.6,5.4-12,12-12h23.12c6.6,0,12,5.4,12,12V426
			C609.35,432.6,603.95,438,597.35,438z"/>
		<g>
			<rect x="572.7" y="405.58" class="st9" width="26.18" height="13.91"/>
			<rect x="576.79" y="416.21" class="st9" width="18" height="6.54"/>
			<rect x="576.79" y="410.49" class="st16" width="18" height="1.64"/>
			<rect x="583.34" y="421.12" class="st9" width="4.91" height="11.45"/>
			<rect x="575.16" y="400.67" class="st9" width="4.91" height="9"/>
			<rect x="582.52" y="400.67" class="st9" width="2.45" height="3.27"/>
			<rect x="586.61" y="400.67" class="st9" width="2.45" height="3.27"/>
			<rect x="591.52" y="400.67" class="st9" width="4.91" height="9"/>
		</g>
	</g>
</g>
<g id="left_concentrator_2">
	<g>
		<path class="st16" d="M263.35,439h-23.12c-6.6,0-12-5.4-12-12v-18.75c0-6.6,5.4-12,12-12h23.12c6.6,0,12,5.4,12,12V427
			C275.35,433.6,269.95,439,263.35,439z"/>
		<g>
			<rect x="238.7" y="406.58" class="st9" width="26.18" height="13.91"/>
			<rect x="242.79" y="417.21" class="st9" width="18" height="6.54"/>
			<rect x="242.79" y="411.49" class="st16" width="18" height="1.64"/>
			<rect x="249.34" y="422.12" class="st9" width="4.91" height="11.45"/>
			<rect x="241.16" y="401.67" class="st9" width="4.91" height="9"/>
			<rect x="248.52" y="401.67" class="st9" width="2.45" height="3.27"/>
			<rect x="252.61" y="401.67" class="st9" width="2.45" height="3.27"/>
			<rect x="257.52" y="401.67" class="st9" width="4.91" height="9"/>
		</g>
	</g>
</g>
<g id="right_concentrator_3">
	<g>
		<path class="st16" d="M597.35,506h-23.12c-6.6,0-12-5.4-12-12v-18.75c0-6.6,5.4-12,12-12h23.12c6.6,0,12,5.4,12,12V494
			C609.35,500.6,603.95,506,597.35,506z"/>
		<g>
			<rect x="572.7" y="473.58" class="st9" width="26.18" height="13.91"/>
			<rect x="576.79" y="484.21" class="st9" width="18" height="6.54"/>
			<rect x="576.79" y="478.49" class="st16" width="18" height="1.64"/>
			<rect x="583.34" y="489.12" class="st9" width="4.91" height="11.45"/>
			<rect x="575.16" y="468.67" class="st9" width="4.91" height="9"/>
			<rect x="582.52" y="468.67" class="st9" width="2.45" height="3.27"/>
			<rect x="586.61" y="468.67" class="st9" width="2.45" height="3.27"/>
			<rect x="591.52" y="468.67" class="st9" width="4.91" height="9"/>
		</g>
	</g>
</g>
<g id="left_concentrator_bottom">
	<g>
		<path class="st16" d="M264.35,507h-23.12c-6.6,0-12-5.4-12-12v-18.75c0-6.6,5.4-12,12-12h23.12c6.6,0,12,5.4,12,12V495
			C276.35,501.6,270.95,507,264.35,507z"/>
		<g>
			<rect x="239.7" y="474.58" class="st9" width="26.18" height="13.91"/>
			<rect x="243.79" y="485.21" class="st9" width="18" height="6.54"/>
			<rect x="243.79" y="479.49" class="st16" width="18" height="1.64"/>
			<rect x="250.34" y="490.12" class="st9" width="4.91" height="11.45"/>
			<rect x="242.16" y="469.67" class="st9" width="4.91" height="9"/>
			<rect x="249.52" y="469.67" class="st9" width="2.45" height="3.27"/>
			<rect x="253.61" y="469.67" class="st9" width="2.45" height="3.27"/>
			<rect x="258.52" y="469.67" class="st9" width="4.91" height="9"/>
		</g>
	</g>
</g>
<g id="right_VM_bottom">
	<g>
		<path class="st7" d="M652,506h-21.17c-6.6,0-12-5.4-12-12v-17.63c0-6.6,5.4-12,12-12H652c6.6,0,12,5.4,12,12V494
			C664,500.6,658.6,506,652,506z"/>
		<text transform="matrix(1 0 0 1 630.0488 491.2397)" class="st9 st2 st3">VM</text>
	</g>
</g>
<g id="left_VM_bottom">
	<g>
		<path class="st7" d="M145,506h-21.17c-6.6,0-12-5.4-12-12v-17.63c0-6.6,5.4-12,12-12H145c6.6,0,12,5.4,12,12V494
			C157,500.6,151.6,506,145,506z"/>
		<text transform="matrix(1 0 0 1 123.0488 491.2397)" class="st9 st2 st3">VM</text>
	</g>
	<g>
		<path class="st7" d="M93,506H71.83c-6.6,0-12-5.4-12-12v-17.63c0-6.6,5.4-12,12-12H93c6.6,0,12,5.4,12,12V494
			C105,500.6,99.6,506,93,506z"/>
		<text transform="matrix(1 0 0 1 71.0488 491.2397)" class="st9 st2 st3">VM</text>
	</g>
</g>
<g id="left_VM_middle_3">
	<g>
		<path class="st7" d="M196,438h-21.17c-6.6,0-12-5.4-12-12v-17.63c0-6.6,5.4-12,12-12H196c6.6,0,12,5.4,12,12V426
			C208,432.6,202.6,438,196,438z"/>
		<text transform="matrix(1 0 0 1 174.0488 423.2397)" class="st9 st2 st3">VM</text>
	</g>
	<g>
		<path class="st7" d="M143,438h-21.17c-6.6,0-12-5.4-12-12v-17.63c0-6.6,5.4-12,12-12H143c6.6,0,12,5.4,12,12V426
			C155,432.6,149.6,438,143,438z"/>
		<text transform="matrix(1 0 0 1 121.0488 423.2397)" class="st9 st2 st3">VM</text>
	</g>
	<g>
		<path class="st7" d="M92,438H70.83c-6.6,0-12-5.4-12-12v-17.63c0-6.6,5.4-12,12-12H92c6.6,0,12,5.4,12,12V426
			C104,432.6,98.6,438,92,438z"/>
		<text transform="matrix(1 0 0 1 70.0488 423.2397)" class="st9 st2 st3">VM</text>
	</g>
</g>
<g id="arrow_icon">
	<g>
		<circle class="st16" cx="527.78" cy="84.79" r="22.22"/>
		<g>
			<polygon class="st9" points="521.69,90.4 511.97,84.79 521.69,79.18 			"/>
			<polygon class="st9" points="533.87,90.4 533.87,79.18 543.59,84.79 			"/>
			<rect x="520.56" y="82.57" class="st9" width="14.22" height="4.44"/>
		</g>
	</g>
	<g>
		<circle class="st16" cx="316.78" cy="84.79" r="22.22"/>
		<g>
			<polygon class="st9" points="310.69,90.4 300.97,84.79 310.69,79.18 			"/>
			<polygon class="st9" points="322.87,90.4 322.87,79.18 332.59,84.79 			"/>
			<rect x="309.56" y="82.57" class="st9" width="14.22" height="4.44"/>
		</g>
	</g>
</g>
<g id="left_hybrid_cloud_mngr">
	<g>
		<text transform="matrix(1 0 0 1 225 196)"><tspan x="0" y="0" class="st2 st3">Hybrid-</tspan><tspan x="0" y="21.6" class="st2 st3">Cloud-</tspan><tspan x="0" y="43.2" class="st2 st3">Manager</tspan></text>
		<path class="st0" d="M291,252h-74c-6.6,0-12-5.4-12-12v-57c0-6.6,5.4-12,12-12h74c6.6,0,12,5.4,12,12v57
			C303,246.6,297.6,252,291,252z"/>
	</g>
</g>
<g id="left_VM_top2">
	<g>
		<path class="st7" d="M156,144h-21.17c-6.6,0-12-5.4-12-12v-17.63c0-6.6,5.4-12,12-12H156c6.6,0,12,5.4,12,12V132
			C168,138.6,162.6,144,156,144z"/>
		<text transform="matrix(1 0 0 1 134.0488 129.2397)" class="st9 st2 st3">VM</text>
	</g>
	<g>
		<path class="st7" d="M103,144H81.83c-6.6,0-12-5.4-12-12v-17.63c0-6.6,5.4-12,12-12H103c6.6,0,12,5.4,12,12V132
			C115,138.6,109.6,144,103,144z"/>
		<text transform="matrix(1 0 0 1 77.0488 129.2397)" class="st9 st2 st3">VM</text>
	</g>
</g>
<g id="cloud">
	<g>
		<path class="st17" d="M457.36,53.82c-6.4,0-12.28,1.6-17.05,4.27c-1.8-15.94-13.81-28.28-28.39-28.28
			c-15,0-27.28,13.05-28.52,29.66c-1.29-0.55-2.66-0.85-4.07-0.85c-7.64,0-13.83,8.6-13.83,19.21c0,10.61,6.19,19.2,13.83,19.2
			c1.68,0,3.28-0.44,4.77-1.2h63.91c2.93,0.76,6.07,1.2,9.35,1.2c15.82,0,28.64-9.67,28.64-21.61
			C486,63.5,473.18,53.82,457.36,53.82z"/>
		<text transform="matrix(1 0 0 1 391.0942 79.3945)" class="st2 st18">Internet</text>
	</g>
</g>
</svg>
