<?xml version="1.0" encoding="utf-8"?>
<!-- Generator: Adobe Illustrator 23.0.1, SVG Export Plug-In . SVG Version: 6.00 Build 0)  -->
<svg version="1.1" xmlns="http://www.w3.org/2000/svg" xmlns:xlink="http://www.w3.org/1999/xlink" x="0px" y="0px"
	 viewBox="0 0 686 794" style="enable-background:new 0 0 686 794;" xml:space="preserve">
<style type="text/css">
	.st0{fill:#FFFFFF;}
	.st1{fill:none;stroke:#000000;stroke-miterlimit:10;}
	.st2{fill:none;stroke:#000000;stroke-miterlimit:10;stroke-dasharray:7.9157,7.9157;}
	.st3{fill:none;stroke:#000000;stroke-miterlimit:10;stroke-dasharray:8.052,8.052;}
	.st4{fill:#AADFF2;}
	.st5{fill:none;stroke:#000000;stroke-miterlimit:10;stroke-dasharray:7.9718,7.9718;}
	.st6{fill:none;stroke:#000000;stroke-miterlimit:10;stroke-dasharray:8.1177,8.1177;}
	.st7{font-family:'MyriadPro-Regular';}
	.st8{font-size:21px;}
	.st9{fill:#E1E5BA;}
	.st10{fill:none;stroke:#000000;stroke-miterlimit:10;stroke-dasharray:8.1429,8.1429;}
	.st11{fill:#FFFFFF;stroke:#000000;stroke-width:3;stroke-miterlimit:10;}
	.st12{fill:#FF7BAC;}
	.st13{font-family:'IBMPlexSans';}
	.st14{fill:#29ABE2;}
	.st15{font-size:18px;}
	.st16{fill:#EF7C26;}
	.st17{fill:#F4BA51;}
	.st18{fill:#169ADB;stroke:#9BCCDD;stroke-width:0.5;stroke-miterlimit:10;}
	.st19{fill:url(#SVGID_1_);}
	.st20{font-size:11.4646px;}
	.st21{fill:url(#SVGID_2_);}
	.st22{font-size:9.2282px;}
	.st23{fill:#2B6782;}
	.st24{fill:#1E4C66;}
	.st25{font-size:16.5319px;}
</style>
<g id="Outter_dash_rectangle">
	<g>
		<rect x="9" y="64" class="st0" width="665" height="628"/>
		<g>
			<polyline class="st1" points="674,688 674,692 670,692 			"/>
			<line class="st2" x1="662.08" y1="692" x2="16.96" y2="692"/>
			<polyline class="st1" points="13,692 9,692 9,688 			"/>
			<line class="st3" x1="9" y1="679.95" x2="9" y2="72.03"/>
			<polyline class="st1" points="9,68 9,64 13,64 			"/>
			<line class="st2" x1="20.92" y1="64" x2="666.04" y2="64"/>
			<polyline class="st1" points="670,64 674,64 674,68 			"/>
			<line class="st3" x1="674" y1="76.05" x2="674" y2="683.97"/>
		</g>
	</g>
</g>
<g id="Public_address_space_rectangle">
	<g>
		<rect x="59.5" y="94.5" class="st4" width="574" height="146"/>
		<g>
			<polyline class="st1" points="633.5,236.5 633.5,240.5 629.5,240.5 			"/>
			<line class="st5" x1="621.53" y1="240.5" x2="67.49" y2="240.5"/>
			<polyline class="st1" points="63.5,240.5 59.5,240.5 59.5,236.5 			"/>
			<line class="st6" x1="59.5" y1="228.38" x2="59.5" y2="102.56"/>
			<polyline class="st1" points="59.5,98.5 59.5,94.5 63.5,94.5 			"/>
			<line class="st5" x1="71.47" y1="94.5" x2="625.51" y2="94.5"/>
			<polyline class="st1" points="629.5,94.5 633.5,94.5 633.5,98.5 			"/>
			<line class="st6" x1="633.5" y1="106.62" x2="633.5" y2="232.44"/>
		</g>
	</g>
	<text transform="matrix(1 0 0 1 418 226)" class="st7 st8">Öffentlicher Adressraum</text>
</g>
<g id="Private_address_space_rectangle">
	<g>
		<rect x="59.5" y="251.5" class="st9" width="574" height="407"/>
		<g>
			<polyline class="st1" points="633.5,654.5 633.5,658.5 629.5,658.5 			"/>
			<line class="st5" x1="621.53" y1="658.5" x2="67.49" y2="658.5"/>
			<polyline class="st1" points="63.5,658.5 59.5,658.5 59.5,654.5 			"/>
			<line class="st10" x1="59.5" y1="646.36" x2="59.5" y2="259.57"/>
			<polyline class="st1" points="59.5,255.5 59.5,251.5 63.5,251.5 			"/>
			<line class="st5" x1="71.47" y1="251.5" x2="625.51" y2="251.5"/>
			<polyline class="st1" points="629.5,251.5 633.5,251.5 633.5,255.5 			"/>
			<line class="st10" x1="633.5" y1="263.64" x2="633.5" y2="650.43"/>
		</g>
	</g>
	<text transform="matrix(1 0 0 1 421 643)" class="st7 st8">Privater Adressraum</text>
</g>
<g id="ibm_cloud">
	<path class="st11" d="M141.2,59.93c0-11.36-13.38-20.57-29.88-20.57c-1.62,0-3.2,0.09-4.75,0.26c-1.02-2.17-2.55-4.18-4.59-5.8
		c-4.72-3.76-10.82-4.46-15.73-2.33C83.5,16.93,71.97,6,58.17,6C43.84,6,31.96,17.78,29.8,33.17c-0.12,0-0.23-0.01-0.35-0.01
		c-11.57,0-20.95,10.6-20.95,23.67c0,9.97,5.46,18.5,13.19,21.99v0.91h2.43c1.7,0.5,3.49,0.78,5.33,0.78c1.84,0,3.63-0.27,5.33-0.78
		h68.41c2.58,0.5,5.31,0.78,8.12,0.78c2.82,0,5.54-0.27,8.12-0.78h2.35V79.2C133.13,76.28,141.2,68.75,141.2,59.93z"/>
	<text transform="matrix(1 0 0 1 21 62)" class="st7 st8">IBM Cloud</text>
</g>
<g id="lines">
	<line class="st1" x1="128" y1="190" x2="128" y2="503.5"/>
	<line class="st1" x1="221.5" y1="407.5" x2="221.5" y2="503.5"/>
	<line class="st1" x1="361.5" y1="190.5" x2="361.5" y2="565.5"/>
	<line class="st1" x1="346.5" y1="407.5" x2="346.5" y2="504.5"/>
	<line class="st1" x1="376.5" y1="407.5" x2="376.5" y2="438.5"/>
</g>
<g id="pubic_VLAN_native">
	<g>
		<g>
			<g>
				<g>
					<path class="st12" d="M103.5,190.5v-0.04l-0.43-0.06c-7.73-1.05-13.57-10.25-13.57-21.4s5.83-20.35,13.57-21.4l0.43-0.06v-0.04
						h485.27l0.2,0.02c7.58,0.39,13.53,9.83,13.53,21.48s-5.94,21.09-13.53,21.48l-0.36,0.02H103.5z"/>
					<path d="M588.6,148l0.35,0.02c7.2,0.37,13.05,9.78,13.05,20.98s-5.85,20.61-13.05,20.98L588.7,190H103.83l-0.7-0.1
						C95.77,188.9,90,179.72,90,169s5.77-19.9,13.14-20.9l0.7-0.1H588.6 M589,147H103v0.1c-7.86,1.07-14,10.46-14,21.9
						c0,11.43,6.14,20.82,14,21.9v0.1h486v-0.02c7.78-0.4,14-10.09,14-21.98c0-11.9-6.22-21.58-14-21.98V147L589,147z"/>
				</g>
				<g>
					<path class="st0" d="M587.5,186.91c-5.51,0-10-8.23-10-18.36c0-10.12,4.49-18.36,10-18.36c5.51,0,10,8.23,10,18.36
						C597.5,178.67,593.01,186.91,587.5,186.91z"/>
					<path d="M587.5,150.69c5.15,0,9.5,8.18,9.5,17.86c0,9.68-4.35,17.86-9.5,17.86c-5.15,0-9.5-8.18-9.5-17.86
						C578,158.87,582.35,150.69,587.5,150.69 M587.5,149.69c-5.8,0-10.5,8.44-10.5,18.86c0,10.41,4.7,18.86,10.5,18.86
						s10.5-8.44,10.5-18.86C598,158.14,593.3,149.69,587.5,149.69L587.5,149.69z"/>
				</g>
			</g>
		</g>
		<text transform="matrix(1 0 0 1 247.75 174.75)" class="st13 st8">Öffentliches VLAN (nativ)</text>
		<path d="M512,217"/>
	</g>
</g>
<g id="security_lock_icon">
	<g>
		<path class="st14" d="M377,407.75h-30c-6.6,0-12-5.4-12-12v-25c0-6.6,5.4-12,12-12h30c6.6,0,12,5.4,12,12v25
			C389,402.35,383.6,407.75,377,407.75z"/>
		<g>
			<g>
				<path class="st0" d="M367.94,380.75h-10.88c-2.23,0-4.06-1.83-4.06-4.06v-5.88c0-2.23,1.83-4.06,4.06-4.06h10.88
					c2.23,0,4.06,1.83,4.06,4.06v5.88C372,378.92,370.17,380.75,367.94,380.75z"/>
				<path class="st14" d="M365.94,378.75h-6.88c-1.13,0-2.06-0.93-2.06-2.06v-4c0-1.13,0.93-2.06,2.06-2.06h6.88
					c1.13,0,2.06,0.93,2.06,2.06v4C368,377.82,367.07,378.75,365.94,378.75z"/>
				<path class="st0" d="M373.94,399.75h-22.88c-2.23,0-4.06-1.83-4.06-4.06v-13.88c0-2.23,1.83-4.06,4.06-4.06h22.88
					c2.23,0,4.06,1.83,4.06,4.06v13.88C378,397.92,376.17,399.75,373.94,399.75z"/>
			</g>
			<g>
				<ellipse class="st14" cx="363" cy="386.25" rx="4" ry="3.5"/>
				<path class="st14" d="M362.5,396.75L362.5,396.75c-0.83,0-1.5-0.67-1.5-1.5v-7c0-0.83,0.67-1.5,1.5-1.5l0,0
					c0.83,0,1.5,0.67,1.5,1.5v7C364,396.08,363.33,396.75,362.5,396.75z"/>
				<path class="st14" d="M365.5,391.75h-2c-0.27,0-0.5-0.23-0.5-0.5l0,0c0-0.27,0.23-0.5,0.5-0.5h2c0.27,0,0.5,0.23,0.5,0.5l0,0
					C366,391.52,365.77,391.75,365.5,391.75z"/>
				<path class="st14" d="M365.5,393.75h-2c-0.27,0-0.5-0.23-0.5-0.5l0,0c0-0.27,0.23-0.5,0.5-0.5h2c0.27,0,0.5,0.23,0.5,0.5l0,0
					C366,393.52,365.77,393.75,365.5,393.75z"/>
				<path class="st14" d="M365.5,395.75h-2c-0.27,0-0.5-0.23-0.5-0.5l0,0c0-0.27,0.23-0.5,0.5-0.5h2c0.27,0,0.5,0.23,0.5,0.5l0,0
					C366,395.52,365.77,395.75,365.5,395.75z"/>
			</g>
		</g>
	</g>
</g>
<g id="security_lock_bottom">
	<g>
		<path class="st14" d="M506,759h-19.24c-6.6,0-12-5.4-12-12v-15.23c0-6.6,5.4-12,12-12H506c6.6,0,12,5.4,12,12V747
			C518,753.6,512.6,759,506,759z"/>
		<g>
			<g>
				<path class="st0" d="M500.33,737.38h-7.09c-2.23,0-4.06-1.83-4.06-4.06v-3.08c0-2.23,1.83-4.06,4.06-4.06h7.09
					c2.23,0,4.06,1.83,4.06,4.06v3.08C504.39,735.55,502.56,737.38,500.33,737.38z"/>
				<path class="st14" d="M499.12,735.78h-4.68c-1.13,0-2.06-0.93-2.06-2.06v-2.38c0-1.13,0.93-2.06,2.06-2.06h4.68
					c1.13,0,2.06,0.93,2.06,2.06v2.38C501.18,734.85,500.26,735.78,499.12,735.78z"/>
				<path class="st0" d="M505.13,752.59h-16.7c-2.23,0-4.06-1.83-4.06-4.06v-9.49c0-2.23,1.83-4.06,4.06-4.06h16.7
					c2.23,0,4.06,1.83,4.06,4.06v9.49C509.19,750.77,507.36,752.59,505.13,752.59z"/>
			</g>
			<g>
				<path class="st14" d="M500.38,741.78c0,1.55-1.43,2.8-3.2,2.8c-1.77,0-3.2-1.25-3.2-2.8c0-1.55,1.43-2.8,3.2-2.8
					C498.95,738.98,500.38,740.24,500.38,741.78z"/>
				<path class="st14" d="M496.8,750.19h-0.03c-0.65,0-1.19-0.53-1.19-1.19v-5.63c0-0.65,0.53-1.19,1.19-1.19h0.03
					c0.65,0,1.19,0.53,1.19,1.19v5.63C497.98,749.66,497.45,750.19,496.8,750.19z"/>
				<path class="st14" d="M499.19,746.19h-1.61c-0.22,0-0.4-0.18-0.4-0.4v-0.01c0-0.22,0.18-0.4,0.4-0.4h1.61
					c0.22,0,0.4,0.18,0.4,0.4v0.01C499.58,746.01,499.41,746.19,499.19,746.19z"/>
				<path class="st14" d="M499.19,747.79h-1.61c-0.22,0-0.4-0.18-0.4-0.4v-0.01c0-0.22,0.18-0.4,0.4-0.4h1.61
					c0.22,0,0.4,0.18,0.4,0.4v0.01C499.58,747.61,499.41,747.79,499.19,747.79z"/>
				<path class="st14" d="M499.19,749.39h-1.61c-0.22,0-0.4-0.18-0.4-0.4v-0.01c0-0.22,0.18-0.4,0.4-0.4h1.61
					c0.22,0,0.4,0.18,0.4,0.4V749C499.58,749.21,499.41,749.39,499.19,749.39z"/>
			</g>
		</g>
	</g>
	<text transform="matrix(1 0 0 1 432 780)" class="st7 st15">Cloud-Gateway</text>
</g>
<g id="gear_bottom">
</g>
<g id="gear_icon">
</g>
<g id="vSAN_vMotion">
	<g id="Layer_7">
	</g>
	<g>
		<g>
			<g>
				<path class="st16" d="M103.5,608.5v-0.04l-0.43-0.06c-7.73-1.03-13.57-10.02-13.57-20.9s5.83-19.87,13.57-20.9l0.43-0.06v-0.04
					h485.27l0.2,0.02c7.58,0.38,13.53,9.6,13.53,20.98s-5.94,20.6-13.53,20.98l-0.36,0.02H103.5z"/>
				<path d="M588.6,567l0.35,0.02c7.2,0.36,13.05,9.55,13.05,20.48s-5.85,20.12-13.05,20.48L588.7,608H103.83l-0.7-0.09
					C95.77,606.93,90,597.96,90,587.5c0-10.46,5.77-19.43,13.13-20.41l0.7-0.09H588.6 M589,566H103v0.1c-7.86,1.05-14,10.23-14,21.4
					s6.14,20.35,14,21.4v0.1h486v-0.02c7.78-0.39,14-9.86,14-21.48s-6.22-21.09-14-21.48V566L589,566z"/>
			</g>
			<g>
				<ellipse class="st0" cx="587.5" cy="587.06" rx="10" ry="17.93"/>
				<path d="M587.5,569.63c5.15,0,9.5,7.98,9.5,17.43c0,9.45-4.35,17.43-9.5,17.43c-5.15,0-9.5-7.98-9.5-17.43
					C578,577.61,582.35,569.63,587.5,569.63 M587.5,568.63c-5.8,0-10.5,8.25-10.5,18.43s4.7,18.43,10.5,18.43s10.5-8.25,10.5-18.43
					S593.3,568.63,587.5,568.63L587.5,568.63z"/>
			</g>
		</g>
		<text transform="matrix(1 0 0 1 201 596)" class="st7 st8">vSAN &amp; vMotion -- Privates VLAN B</text>
	</g>
</g>
<g id="Logical_swiitch">
	<g>
		<g>
			<g>
				<g>
					<path class="st14" d="M249.41,480.5v-0.02l-0.41-0.08c-5.33-1-9.51-10.19-9.51-20.91s4.18-19.9,9.51-20.91l0.41-0.08v-0.02
						h343.48l0.16,0.02c5.21,0.37,9.45,9.78,9.45,20.98s-4.24,20.61-9.45,20.98l-0.24,0.02H249.41z"/>
					<path d="M592.79,439l0.23,0.02c4.95,0.35,8.99,9.54,8.99,20.48s-4.03,20.13-8.99,20.48l-0.18,0.02H249.55l-0.45-0.08
						c-5.1-0.96-9.1-9.93-9.1-20.42s4-19.46,9.1-20.42l0.45-0.08H592.79 M593.09,438H248.91v0.1c-5.56,1.05-9.91,10.23-9.91,21.4
						s4.35,20.35,9.91,21.4v0.1h344.17v-0.02c5.51-0.39,9.91-9.86,9.91-21.48s-4.41-21.09-9.91-21.48V438L593.09,438z"/>
				</g>
				<g>
					<ellipse class="st0" cx="589.23" cy="459.06" rx="9.73" ry="17.93"/>
					<path d="M589.23,441.63c5,0,9.23,7.98,9.23,17.43c0,9.45-4.23,17.43-9.23,17.43c-5,0-9.23-7.98-9.23-17.43
						C580,449.61,584.23,441.63,589.23,441.63 M589.23,440.63c-5.65,0-10.23,8.25-10.23,18.43c0,10.18,4.58,18.43,10.23,18.43
						c5.65,0,10.23-8.25,10.23-18.43C599.46,448.88,594.88,440.63,589.23,440.63L589.23,440.63z"/>
				</g>
			</g>
		</g>
		<text transform="matrix(1 0 0 1 276 466)" class="st7 st8">Netz logischer Switches (VXLAN)</text>
	</g>
	<g id="Layer_9">
	</g>
</g>
<g id="management_vxlan">
	<g id="Layer_6">
	</g>
	<g>
		<g>
			<g>
				<path class="st17" d="M103.5,547.5v-0.04l-0.43-0.06c-7.73-1.05-13.57-10.25-13.57-21.4s5.83-20.35,13.57-21.4l0.43-0.06v-0.04
					h485.27l0.2,0.02c7.58,0.39,13.53,9.83,13.53,21.48s-5.94,21.09-13.53,21.48l-0.37,0.02H103.5z"/>
				<path d="M588.6,505l0.35,0.02c7.2,0.37,13.05,9.78,13.05,20.98s-5.85,20.61-13.05,20.98L588.7,547H103.83l-0.7-0.1
					C95.77,545.9,90,536.72,90,526s5.77-19.9,13.14-20.9l0.7-0.1H588.6 M589,504H103v0.1c-7.86,1.07-14,10.46-14,21.9
					s6.14,20.82,14,21.9v0.1h486v-0.02c7.78-0.4,14-10.08,14-21.98c0-11.9-6.22-21.58-14-21.98V504L589,504z"/>
			</g>
			<g>
				<path class="st0" d="M587.5,543.91c-5.51,0-10-8.24-10-18.36c0-10.12,4.49-18.36,10-18.36c5.51,0,10,8.23,10,18.36
					C597.5,535.67,593.01,543.91,587.5,543.91z"/>
				<path d="M587.5,507.69c5.15,0,9.5,8.18,9.5,17.86c0,9.68-4.35,17.86-9.5,17.86c-5.15,0-9.5-8.18-9.5-17.86
					C578,515.87,582.35,507.69,587.5,507.69 M587.5,506.69c-5.8,0-10.5,8.44-10.5,18.86c0,10.41,4.7,18.86,10.5,18.86
					s10.5-8.44,10.5-18.86C598,515.14,593.3,506.69,587.5,506.69L587.5,506.69z"/>
			</g>
		</g>
		<text transform="matrix(1 0 0 1 115 533)" class="st7 st8">Management &amp; VXLAN -- Privates VLAN A (nativ)</text>
	</g>
</g>
<g id="P_x2F_V">
	<g>
		<g>
			<g>
				<rect x="104.5" y="280" class="st18" width="47.29" height="47.29"/>
				<linearGradient id="SVGID_1_" gradientUnits="userSpaceOnUse" x1="135.9627" y1="296.7212" x2="124.5096" y2="338.8456">
					<stop  offset="0" style="stop-color:#CCE0F4"/>
					<stop  offset="0.0775" style="stop-color:#C5DDF3"/>
					<stop  offset="0.1918" style="stop-color:#B1D5EF"/>
					<stop  offset="0.329" style="stop-color:#90C9EA"/>
					<stop  offset="0.4838" style="stop-color:#63B7E2"/>
					<stop  offset="0.6515" style="stop-color:#2AA1D9"/>
					<stop  offset="0.6829" style="stop-color:#1E9CD7"/>
					<stop  offset="0.8652" style="stop-color:#0075BE"/>
					<stop  offset="0.9944" style="stop-color:#005B97"/>
				</linearGradient>
				<polygon class="st19" points="106.32,325.47 149.97,281.82 149.97,325.47 				"/>
			</g>
			<text transform="matrix(1 0 0 1 108.084 315.4692)" class="st0 st13 st20">P</text>
			<text transform="matrix(1 0 0 1 116.6836 324.0688)" class="st0 st13 st20">V</text>
			<g>
				<g>
					<g>
						<g>
							<polygon class="st0" points="110.14,288.61 112.78,297.83 119.2,291.77 							"/>
						</g>
					</g>
				</g>
				<g>
					<g>
						<g>
							
								<rect x="117" y="293.47" transform="matrix(0.7268 -0.6868 0.6868 0.7268 -172.128 163.1521)" class="st0" width="4.09" height="9"/>
						</g>
					</g>
				</g>
			</g>
			<g>
				<g>
					<g>
						<g>
							<polygon class="st0" points="142.58,322.14 132.46,318.19 139.21,311.81 							"/>
						</g>
					</g>
				</g>
				<g>
					<g>
						<g>
							
								<rect x="130.23" y="306.08" transform="matrix(0.7268 -0.6868 0.6868 0.7268 -177.6229 175.9507)" class="st0" width="4.3" height="10.38"/>
						</g>
					</g>
				</g>
			</g>
		</g>
	</g>
</g>
<g id="Layer_15">
	<g>
		<g>
			<g>
				<rect x="170.5" y="720.93" class="st18" width="38.07" height="38.07"/>
				<linearGradient id="SVGID_2_" gradientUnits="userSpaceOnUse" x1="195.8253" y1="734.3933" x2="186.6063" y2="768.3004">
					<stop  offset="0" style="stop-color:#CCE0F4"/>
					<stop  offset="0.0775" style="stop-color:#C5DDF3"/>
					<stop  offset="0.1918" style="stop-color:#B1D5EF"/>
					<stop  offset="0.329" style="stop-color:#90C9EA"/>
					<stop  offset="0.4838" style="stop-color:#63B7E2"/>
					<stop  offset="0.6515" style="stop-color:#2AA1D9"/>
					<stop  offset="0.6829" style="stop-color:#1E9CD7"/>
					<stop  offset="0.8652" style="stop-color:#0075BE"/>
					<stop  offset="0.9944" style="stop-color:#005B97"/>
				</linearGradient>
				<polygon class="st21" points="171.96,757.54 207.1,722.4 207.1,757.54 				"/>
			</g>
			<text transform="matrix(1 0 0 1 173.3848 749.484)" class="st0 st13 st22">P</text>
			<text transform="matrix(1 0 0 1 180.3071 756.4059)" class="st0 st13 st22">V</text>
			<g>
				<g>
					<g>
						<g>
							<polygon class="st0" points="175.04,727.86 177.16,735.29 182.33,730.41 							"/>
						</g>
					</g>
				</g>
				<g>
					<g>
						<g>
							
								<rect x="180.56" y="731.78" transform="matrix(0.7268 -0.6868 0.6868 0.7268 -455.3054 326.0244)" class="st0" width="3.29" height="7.24"/>
						</g>
					</g>
				</g>
			</g>
			<g>
				<g>
					<g>
						<g>
							<polygon class="st0" points="201.15,754.85 193,751.67 198.44,746.53 							"/>
						</g>
					</g>
				</g>
				<g>
					<g>
						<g>
							
								<rect x="191.21" y="741.93" transform="matrix(0.7268 -0.6868 0.6868 0.7268 -459.738 336.3406)" class="st0" width="3.46" height="8.35"/>
						</g>
					</g>
				</g>
			</g>
		</g>
	</g>
	<text transform="matrix(1 0 0 1 153 780)" class="st7 st15">NSX Edge</text>
</g>
<g id="Layer_16">
	<g>
		<g>
			<rect x="273" y="722" class="st23" width="42.95" height="37"/>
			<rect x="315.05" y="722" class="st24" width="93.95" height="37"/>
		</g>
		<text transform="matrix(1 0 0 1 279.2979 746.4043)" class="st0 st7 st25">VM</text>
		<text transform="matrix(1 0 0 1 317.9365 746.4043)" class="st0 st7 st25">HCX-Cloud</text>
	</g>
	<text transform="matrix(1 0 0 1 291 780)" class="st7 st15">HCX-Manager</text>
</g>
<g id="VM_HCX">
	<g>
		<g>
			<rect x="146" y="360.75" class="st23" width="48" height="47"/>
			<rect x="193" y="360.75" class="st24" width="126" height="47"/>
		</g>
		<text transform="matrix(1 0 0 1 154 391.75)" class="st0 st7 st8">VM</text>
		<text transform="matrix(1 0 0 1 200 391.75)" class="st0 st7 st8">HCX-Cloud</text>
	</g>
</g>
</svg>
