<?xml version="1.0" encoding="UTF-8" standalone="no"?>
<!-- Generator: Adobe Illustrator 21.0.0, SVG Export Plug-In . SVG Version: 6.00 Build 0)  -->

<svg
   xmlns:dc="http://purl.org/dc/elements/1.1/"
   xmlns:cc="http://creativecommons.org/ns#"
   xmlns:rdf="http://www.w3.org/1999/02/22-rdf-syntax-ns#"
   xmlns:svg="http://www.w3.org/2000/svg"
   xmlns="http://www.w3.org/2000/svg"
   xmlns:sodipodi="http://sodipodi.sourceforge.net/DTD/sodipodi-0.dtd"
   xmlns:inkscape="http://www.inkscape.org/namespaces/inkscape"
   version="1.1"
   x="0px"
   y="0px"
   viewBox="0 0 745 493"
   style="enable-background:new 0 0 745 493;"
   xml:space="preserve"
   id="svg337"
   sodipodi:docname="source_l2_concentrator.svg"
   inkscape:version="0.92.3 (2405546, 2018-03-11)"><metadata
   id="metadata343"><rdf:RDF><cc:Work
       rdf:about=""><dc:format>image/svg+xml</dc:format><dc:type
         rdf:resource="http://purl.org/dc/dcmitype/StillImage" /><dc:title /></cc:Work></rdf:RDF></metadata><defs
   id="defs341">
	
	

		
		
	
			
			
		
			
			
		
				
				

			
	
	

	
	


	
	
	
	
	
</defs><sodipodi:namedview
   pagecolor="#ffffff"
   bordercolor="#666666"
   borderopacity="1"
   objecttolerance="10"
   gridtolerance="10"
   guidetolerance="10"
   inkscape:pageopacity="0"
   inkscape:pageshadow="2"
   inkscape:window-width="3391"
   inkscape:window-height="1376"
   id="namedview339"
   showgrid="false"
   inkscape:zoom="1.3539732"
   inkscape:cx="-52.226163"
   inkscape:cy="281.36292"
   inkscape:window-x="49"
   inkscape:window-y="27"
   inkscape:window-maximized="1"
   inkscape:current-layer="svg337" />
<style
   type="text/css"
   id="style2">
	.st0{fill:none;stroke:#000000;stroke-width:0.75;stroke-miterlimit:10;}
	.st1{fill:none;stroke:#000000;stroke-width:0.75;stroke-miterlimit:10;stroke-dasharray:5.0216,5.0216;}
	.st2{fill:none;stroke:#000000;stroke-width:0.75;stroke-miterlimit:10;stroke-dasharray:5.0308,5.0308;}
	.st3{fill:#FFFFFF;stroke:#4D4D4D;stroke-width:2;stroke-miterlimit:10;}
	.st4{font-family:'MyriadPro-Regular';}
	.st5{font-size:18px;}
	.st6{fill:#E4EFCA;}
	.st7{fill:none;stroke:#000000;stroke-width:0.75;stroke-miterlimit:10;stroke-dasharray:4.9847,4.9847;}
	.st8{fill:none;stroke:#000000;stroke-width:0.75;stroke-miterlimit:10;stroke-dasharray:4.9455,4.9455;}
	.st9{fill:#A558E8;stroke:#000000;stroke-width:0.75;stroke-miterlimit:10;}
	.st10{fill:#FFFFFF;stroke:#000000;stroke-width:0.75;stroke-miterlimit:10;}
	.st11{font-size:21px;}
	.st12{fill:#009245;stroke:#000000;stroke-width:0.75;stroke-miterlimit:10;}
	.st13{fill:#29ABE2;}
	.st14{fill:#FFFFFF;}
	.st15{fill:#FFFFFF;stroke:#8CC63F;stroke-width:8;stroke-miterlimit:10;}
	.st16{fill:#F9C73D;}
	.st17{fill:#8CC63F;stroke:#009245;stroke-width:0.25;stroke-miterlimit:10;}
	.st18{fill:#29ABE2;stroke:#0071BC;stroke-width:0.25;stroke-miterlimit:10;}
	.st19{fill:#F9C73D;stroke:#000000;stroke-width:0.75;stroke-miterlimit:10;}
	.st20{fill:#F7931E;stroke:#000000;stroke-width:0.75;stroke-miterlimit:10;}
</style>
<g
   id="g22">
				<g
   id="g20">
					<polyline
   style="fill:none;stroke:#000000;stroke-width:0.75;stroke-miterlimit:10"
   id="polyline4"
   points="723,388 723,390.5 720.5,390.5      "
   class="st0" />
					<line
   style="fill:none;stroke:#000000;stroke-width:0.75;stroke-miterlimit:10;stroke-dasharray:5.0216, 5.0216"
   id="line6"
   y2="390.5"
   x2="25"
   y1="390.5"
   x1="715.5"
   class="st1" />
					<polyline
   style="fill:none;stroke:#000000;stroke-width:0.75;stroke-miterlimit:10"
   id="polyline8"
   points="22.5,390.5 20,390.5 20,388      "
   class="st0" />
					<line
   style="fill:none;stroke:#000000;stroke-width:0.75;stroke-miterlimit:10;stroke-dasharray:5.0308, 5.0308"
   id="line10"
   y2="63.5"
   x2="20"
   y1="383"
   x1="20"
   class="st2" />
					<polyline
   style="fill:none;stroke:#000000;stroke-width:0.75;stroke-miterlimit:10"
   id="polyline12"
   points="20,61 20,58.5 22.5,58.5      "
   class="st0" />
					<line
   style="fill:none;stroke:#000000;stroke-width:0.75;stroke-miterlimit:10;stroke-dasharray:5.0216, 5.0216"
   id="line14"
   y2="58.5"
   x2="718"
   y1="58.5"
   x1="27.5"
   class="st1" />
					<polyline
   style="fill:none;stroke:#000000;stroke-width:0.75;stroke-miterlimit:10"
   id="polyline16"
   points="720.5,58.5 723,58.5 723,61      "
   class="st0" />
					<line
   style="fill:none;stroke:#000000;stroke-width:0.75;stroke-miterlimit:10;stroke-dasharray:5.0308, 5.0308"
   id="line18"
   y2="385.5"
   x2="723"
   y1="66"
   x1="723"
   class="st2" />
				</g>
			</g><path
   class="st3"
   d="m 138.72457,32.9 c -8.20616,0 -15.88288,1.5 -21.97132,4.1 C 114.37081,21.8 98.885,10 80.090251,10 60.766074,10 44.883188,22.5 43.294899,38.3 41.574253,37.8 39.853607,37.5 38.000604,37.5 27.941443,37.5 20,45.7 20,55.8 c 0,10.1 7.941443,18.3 17.868247,18.3 2.117718,0 4.235436,-0.4 6.220796,-1.1 h 82.591007 c 3.83836,0.7 7.80909,1.1 12.04452,1.1 20.38304,0 37.06007,-9.2 37.06007,-20.6 -0.13236,-11.4 -16.67703,-20.6 -37.06007,-20.6 z"
   id="path24"
   inkscape:connector-curvature="0"
   style="fill:#ffffff;stroke:#4d4d4d;stroke-width:2.3009336;stroke-miterlimit:10" /><text
   transform="scale(0.9760123,1.0245773)"
   class="st4 st5"
   id="text26"
   style="font-size:17.56822205px;font-family:MyriadPro-Regular;stroke-width:0.97601229"
   x="33.666481"
   y="57.651485"><tspan
     sodipodi:role="line"
     id="tspan17"
     x="33.666481"
     y="57.651485"
     style="stroke-width:0.97601229">Rechenzentrum</tspan></text>
<rect
   style="fill:#e4efca"
   id="rect32"
   height="277"
   width="658"
   class="st6"
   y="89.5"
   x="43.5" /><g
   id="g50">
				<polyline
   style="fill:none;stroke:#000000;stroke-width:0.75;stroke-miterlimit:10"
   id="polyline34"
   points="701.5,364 701.5,366.5 699,366.5     "
   class="st0" />
				<line
   style="fill:none;stroke:#000000;stroke-width:0.75;stroke-miterlimit:10;stroke-dasharray:4.9847, 4.9847"
   id="line36"
   y2="366.5"
   x2="48.5"
   y1="366.5"
   x1="694"
   class="st7" />
				<polyline
   style="fill:none;stroke:#000000;stroke-width:0.75;stroke-miterlimit:10"
   id="polyline38"
   points="46,366.5 43.5,366.5 43.5,364     "
   class="st0" />
				<line
   style="fill:none;stroke:#000000;stroke-width:0.75;stroke-miterlimit:10;stroke-dasharray:4.9455, 4.9455"
   id="line40"
   y2="94.5"
   x2="43.5"
   y1="359.10001"
   x1="43.5"
   class="st8" />
				<polyline
   style="fill:none;stroke:#000000;stroke-width:0.75;stroke-miterlimit:10"
   id="polyline42"
   points="43.5,92 43.5,89.5 46,89.5     "
   class="st0" />
				<line
   style="fill:none;stroke:#000000;stroke-width:0.75;stroke-miterlimit:10;stroke-dasharray:4.9847, 4.9847"
   id="line44"
   y2="89.5"
   x2="696.5"
   y1="89.5"
   x1="51"
   class="st7" />
				<polyline
   style="fill:none;stroke:#000000;stroke-width:0.75;stroke-miterlimit:10"
   id="polyline46"
   points="699,89.5 701.5,89.5 701.5,92     "
   class="st0" />
				<line
   style="fill:none;stroke:#000000;stroke-width:0.75;stroke-miterlimit:10;stroke-dasharray:4.9455, 4.9455"
   id="line48"
   y2="361.5"
   x2="701.5"
   y1="96.900002"
   x1="701.5"
   class="st8" />
			</g><polyline
   style="fill:none;stroke:#000000;stroke-width:0.75;stroke-miterlimit:10"
   id="polyline55"
   points="408.5,176.5 408.5,186.5 445.5,186.5  "
   class="st0" />
<g
   id="g62">
		<path
   style="fill:#a558e8;stroke:#000000;stroke-width:0.75;stroke-miterlimit:10"
   inkscape:connector-curvature="0"
   id="path58"
   d="m 680,126 c 0,-10.8 -2.7,-19.6 -6.1,-20 v 0 H 452.1 v 0 c -3.4,0.4 -6.1,9.2 -6.1,20 0,10.8 2.7,19.6 6.1,20 v 0 h 221.8 v 0 c 3.4,-0.4 6.1,-9.2 6.1,-20 z"
   class="st9" />
		<ellipse
   style="fill:#ffffff;stroke:#000000;stroke-width:0.75;stroke-miterlimit:10"
   id="ellipse60"
   ry="16.6"
   rx="9.6000004"
   cy="126.4"
   cx="668.09998"
   class="st10" />
	</g><text
   style="font-size:21px;font-family:MyriadPro-Regular"
   id="text64"
   class="st4 st11"
   x="457"
   y="133"><tspan
     y="133"
     x="457"
     id="tspan39"
     sodipodi:role="line">Erweitertes Netz 1</tspan></text>
<g
   id="g70">
		<path
   style="fill:#009245;stroke:#000000;stroke-width:0.75;stroke-miterlimit:10"
   inkscape:connector-curvature="0"
   id="path66"
   d="m 680,179 c 0,-10.8 -2.7,-19.6 -6.1,-20 v 0 H 452.1 v 0 c -3.4,0.4 -6.1,9.2 -6.1,20 0,10.8 2.7,19.6 6.1,20 v 0 h 221.8 v 0 c 3.4,-0.4 6.1,-9.2 6.1,-20 z"
   class="st12" />
		<ellipse
   style="fill:#ffffff;stroke:#000000;stroke-width:0.75;stroke-miterlimit:10"
   id="ellipse68"
   ry="16.6"
   rx="9.6000004"
   cy="179.39999"
   cx="668.09998"
   class="st10" />
	</g><text
   style="font-size:21px;font-family:MyriadPro-Regular"
   id="text72"
   class="st4 st11"
   x="457"
   y="186"><tspan
     y="186"
     x="457"
     id="tspan45"
     sodipodi:role="line">Erweitertes Netz 2</tspan></text>

<g
   id="cloud_gateway">
</g>
<g
   id="outter_box">
</g>
<g
   id="lines">
	<g
   id="g107">
		<g
   id="g101">
			<path
   class="st13"
   d="M259,173.5h-27c-6.6,0-12-5.4-12-12v-22.3c0-6.6,5.4-12,12-12h27c6.6,0,12,5.4,12,12v22.3     C271,168.1,265.6,173.5,259,173.5z"
   id="path77" />
			<g
   id="g99">
				<g
   id="g85">
					<path
   class="st14"
   d="M250.9,148h-9.8c-2.2,0-4.1-1.8-4.1-4.1v-5.1c0-2.2,1.8-4.1,4.1-4.1h9.8c2.2,0,4.1,1.8,4.1,4.1v5.1       C254.9,146.1,253.1,148,250.9,148z"
   id="path79" />
					<path
   class="st13"
   d="M249.1,146.1h-6.3c-1.1,0-2.1-0.9-2.1-2.1v-3.5c0-1.1,0.9-2.1,2.1-2.1h6.3c1.1,0,2.1,0.9,2.1,2.1v3.5       C251.2,145.2,250.2,146.1,249.1,146.1z"
   id="path81" />
					<path
   class="st14"
   d="M256.5,165.9h-21.2c-2.2,0-4.1-1.8-4.1-4.1v-12.7c0-2.2,1.8-4.1,4.1-4.1h21.2c2.2,0,4.1,1.8,4.1,4.1v12.7       C260.6,164.1,258.8,165.9,256.5,165.9z"
   id="path83" />
				</g>
				<g
   id="g97">
					<ellipse
   class="st13"
   cx="246.4"
   cy="153.2"
   rx="3.8"
   ry="3.3"
   id="ellipse87" />
					<path
   class="st13"
   d="M246,163.1L246,163.1c-0.8,0-1.4-0.6-1.4-1.4v-6.6c0-0.8,0.6-1.4,1.4-1.4l0,0c0.8,0,1.4,0.6,1.4,1.4v6.6       C247.4,162.4,246.8,163.1,246,163.1z"
   id="path89" />
					<path
   class="st13"
   d="M248.8,158.4h-1.9c-0.3,0-0.5-0.2-0.5-0.5l0,0c0-0.3,0.2-0.5,0.5-0.5h1.9c0.3,0,0.5,0.2,0.5,0.5l0,0       C249.3,158.1,249.1,158.4,248.8,158.4z"
   id="path91" />
					<path
   class="st13"
   d="M248.8,160.3h-1.9c-0.3,0-0.5-0.2-0.5-0.5l0,0c0-0.3,0.2-0.5,0.5-0.5h1.9c0.3,0,0.5,0.2,0.5,0.5l0,0       C249.3,160,249.1,160.3,248.8,160.3z"
   id="path93" />
					<path
   class="st13"
   d="M248.8,162.1h-1.9c-0.3,0-0.5-0.2-0.5-0.5l0,0c0-0.3,0.2-0.5,0.5-0.5h1.9c0.3,0,0.5,0.2,0.5,0.5l0,0       C249.3,161.9,249.1,162.1,248.8,162.1z"
   id="path95" />
				</g>
			</g>
		</g>
		<line
   class="st0"
   x1="250.5"
   y1="173.5"
   x2="250.5"
   y2="286.5"
   id="line103" />
		<line
   class="st0"
   x1="239.5"
   y1="173.5"
   x2="239.5"
   y2="219.5"
   id="line105" />
	</g>
	<polyline
   class="st0"
   points="408.5,127.5 408.5,117.5 445.5,117.5  "
   id="polyline109" />
</g>
<g
   id="g122"
   transform="translate(-1.9)">
		<g
   id="g118">
			<path
   style="fill:#ffffff;stroke:#8cc63f;stroke-width:8;stroke-miterlimit:10"
   inkscape:connector-curvature="0"
   id="path112"
   d="m 128,403.8 h -10.9 c -3.3,0 -6,2.7 -6,6 v 4 h -4 c -3.3,0 -6,2.7 -6,6 V 430 c 0,3.3 2.7,6 6,6 h 10.3 c 3.3,0 6,-2.7 6,-6 v -2.6 h 4.6 c 3.3,0 6,-2.7 6,-6 v -11.6 c 0,-3.3 -2.7,-6 -6,-6 z"
   class="st15" />
			<path
   style="fill:#f9c73d"
   inkscape:connector-curvature="0"
   id="path114"
   d="m 115.8,429.6 h -7.3 c -0.9,0 -1.7,-0.8 -1.7,-1.7 v -6.6 c 0,-0.9 0.8,-1.7 1.7,-1.7 h 7.3 c 0.9,0 1.7,0.8 1.7,1.7 v 6.6 c 0,0.9 -0.8,1.7 -1.7,1.7 z"
   class="st16" />
			<path
   style="fill:#f9c73d"
   inkscape:connector-curvature="0"
   id="path116"
   d="m 125.8,421 h -7.3 c -0.9,0 -1.7,-0.8 -1.7,-1.7 V 412 c 0,-0.9 0.8,-1.7 1.7,-1.7 h 7.3 c 0.9,0 1.7,0.8 1.7,1.7 v 7.3 c 0,1 -0.7,1.7 -1.7,1.7 z"
   class="st16" />
		</g>
		<text
   style="font-size:18px;font-family:MyriadPro-Regular"
   id="text120"
   class="st4 st5"
   transform="translate(142,428.1019)"><tspan
     y="0"
     x="0"
     id="tspan73"
     sodipodi:role="line">vCenter</tspan></text>


	</g><g
   id="g132">
		<g
   id="g128">
			<path
   style="fill:#8cc63f;stroke:#009245;stroke-width:0.25;stroke-miterlimit:10"
   inkscape:connector-curvature="0"
   id="path124"
   d="m 286.3,425.1 v -7.9 c 0,-1.9 -1.5,-3.4 -3.2,-3.4 h -4.2 v -10.1 h 6.9 c 5.1,0 9.2,4.3 9.2,9.7 v 15.3 c 0,5.3 -4.1,9.7 -9.2,9.7 h -6.9 v -9.8 h 4.2 c 1.7,-0.1 3.2,-1.6 3.2,-3.5 z"
   class="st17" />
			<path
   style="fill:#29abe2;stroke:#0071bc;stroke-width:0.25;stroke-miterlimit:10"
   inkscape:connector-curvature="0"
   id="path126"
   d="m 281.3,415.8 h -4.2 v -12.1 h -6.5 c -4.8,0 -8.7,4.3 -8.7,9.7 v 15.3 c 0,5.3 3.9,9.7 8.7,9.7 h 6.5 v -11.3 h 4.2 c 1.3,0 2.4,-1.2 2.4,-2.6 v -6 c -0.1,-1.5 -1.1,-2.7 -2.4,-2.7 z"
   class="st18" />
		</g>
		<text
   style="font-size:18px;font-family:MyriadPro-Regular"
   id="text130"
   class="st4 st5"
   transform="translate(299.9024,426.7726)"><tspan
     y="0"
     x="0"
     id="tspan80"
     sodipodi:role="line">Hybrid-Cloud-Services</tspan></text>


	</g><g
   id="g162"
   transform="translate(22.496102)">
		<g
   id="g158">
			<path
   style="fill:#29abe2"
   inkscape:connector-curvature="0"
   id="path134"
   d="m 531,438.1 h -13 c -6.6,0 -12,-5.4 -12,-12 v -9.6 c 0,-6.6 5.4,-12 12,-12 h 13 c 6.6,0 12,5.4 12,12 v 9.6 c 0,6.6 -5.4,12 -12,12 z"
   class="st13" />
			<g
   id="g156">
				<g
   id="g142">
					<path
   style="fill:#ffffff"
   inkscape:connector-curvature="0"
   id="path136"
   d="m 527.3,419.6 h -4.9 c -2.2,0 -4.1,-1.8 -4.1,-4.1 V 414 c 0,-2.2 1.8,-4.1 4.1,-4.1 h 4.9 c 2.2,0 4.1,1.8 4.1,4.1 v 1.5 c 0,2.3 -1.9,4.1 -4.1,4.1 z"
   class="st14" />
					<path
   style="fill:#29abe2"
   inkscape:connector-curvature="0"
   id="path138"
   d="m 526.5,418.2 h -3.4 c -1.1,0 -2.1,-0.9 -2.1,-2.1 v -1.4 c 0,-1.1 0.9,-2.1 2.1,-2.1 h 3.4 c 1.1,0 2.1,0.9 2.1,2.1 v 1.4 c 0,1.2 -0.9,2.1 -2.1,2.1 z"
   class="st13" />
					<path
   style="fill:#ffffff"
   inkscape:connector-curvature="0"
   id="path140"
   d="m 531.4,432.6 h -13.1 c -2.2,0 -4.1,-1.8 -4.1,-4.1 v -6.9 c 0,-2.2 1.8,-4.1 4.1,-4.1 h 13.1 c 2.2,0 4.1,1.8 4.1,4.1 v 6.9 c 0,2.3 -1.9,4.1 -4.1,4.1 z"
   class="st14" />
				</g>
				<g
   id="g154">
					<ellipse
   style="fill:#29abe2"
   id="ellipse144"
   ry="2.4000001"
   rx="2.7"
   cy="423.39999"
   cx="525.20001"
   class="st13" />
					<path
   style="fill:#29abe2"
   inkscape:connector-curvature="0"
   id="path146"
   d="m 524.8,430.6 v 0 c -0.6,0 -1,-0.5 -1,-1 v -4.8 c 0,-0.6 0.5,-1 1,-1 v 0 c 0.6,0 1,0.5 1,1 v 4.8 c 0.1,0.5 -0.4,1 -1,1 z"
   class="st13" />
					<path
   style="fill:#29abe2"
   inkscape:connector-curvature="0"
   id="path148"
   d="m 526.9,427.1 h -1.4 c -0.2,0 -0.3,-0.2 -0.3,-0.3 v 0 c 0,-0.2 0.2,-0.3 0.3,-0.3 h 1.4 c 0.2,0 0.3,0.2 0.3,0.3 v 0 c 0,0.2 -0.1,0.3 -0.3,0.3 z"
   class="st13" />
					<path
   style="fill:#29abe2"
   inkscape:connector-curvature="0"
   id="path150"
   d="m 526.9,428.5 h -1.4 c -0.2,0 -0.3,-0.2 -0.3,-0.3 v 0 c 0,-0.2 0.2,-0.3 0.3,-0.3 h 1.4 c 0.2,0 0.3,0.2 0.3,0.3 v 0 c 0,0.2 -0.1,0.3 -0.3,0.3 z"
   class="st13" />
					<path
   style="fill:#29abe2"
   inkscape:connector-curvature="0"
   id="path152"
   d="m 526.9,429.9 h -1.4 c -0.2,0 -0.3,-0.2 -0.3,-0.3 v 0 c 0,-0.2 0.2,-0.3 0.3,-0.3 h 1.4 c 0.2,0 0.3,0.2 0.3,0.3 v 0 c 0,0.1 -0.1,0.3 -0.3,0.3 z"
   class="st13" />
				</g>
			</g>
		</g>
		<text
   style="font-size:18px;font-family:MyriadPro-Regular"
   id="text160"
   class="st4 st5"
   transform="translate(546.667,427.333)"><tspan
     y="0"
     x="0"
     id="tspan97"
     sodipodi:role="line">Cloud-Gateway</tspan></text>


	</g><g
   id="g200"
   transform="translate(-80,0.1)">
		<g
   id="g196">
			<path
   style="fill:#29abe2"
   inkscape:connector-curvature="0"
   id="path164"
   d="m 206,480.8 h -18.8 c -6.6,0 -12,-5.4 -12,-12 V 454 c 0,-6.6 5.4,-12 12,-12 H 206 c 6.6,0 12,5.4 12,12 v 14.8 c 0,6.6 -5.4,12 -12,12 z"
   class="st13" />
			<g
   id="g194">
				<g
   id="g188">
					<g
   id="g182">
						<g
   id="g176">
							<g
   id="g170">
								<ellipse
   style="fill:#ffffff"
   id="ellipse166"
   ry="11.1"
   rx="11.5"
   cy="461.20001"
   cx="196.5"
   class="st14" />
								<ellipse
   style="fill:#29abe2"
   id="ellipse168"
   ry="5"
   rx="5.0999999"
   cy="461.20001"
   cx="196.5"
   class="st13" />
							</g>
							<rect
   style="fill:#ffffff"
   id="rect172"
   height="4"
   width="6.1999998"
   class="st14"
   y="447.10001"
   x="193.10001" />
							<rect
   style="fill:#ffffff"
   id="rect174"
   height="4.8000002"
   width="5.5"
   class="st14"
   y="470.89999"
   x="193.7" />
						</g>
						<rect
   style="fill:#ffffff"
   id="rect178"
   height="5.5"
   width="4.8000002"
   class="st14"
   y="458.60001"
   x="206.5" />
						<rect
   style="fill:#ffffff"
   id="rect180"
   height="5.5"
   width="4.8000002"
   class="st14"
   y="458.60001"
   x="182" />
					</g>
					
						<rect
   style="fill:#ffffff"
   id="rect184"
   height="5.1999998"
   width="5.1999998"
   class="st14"
   transform="matrix(0.7526,0.6585,-0.6585,0.7526,344.4036,-11.2706)"
   y="450.10001"
   x="184.60001" />
					
						<rect
   style="fill:#ffffff"
   id="rect186"
   height="5.1999998"
   width="6.8000002"
   class="st14"
   transform="matrix(0.7526,0.6585,-0.6585,0.7526,360.4512,-19.0498)"
   y="467.5"
   x="202.2" />
				</g>
				
					<rect
   style="fill:#ffffff"
   id="rect190"
   height="5.6999998"
   width="5.1999998"
   class="st14"
   transform="matrix(0.7071,0.7071,-0.7071,0.7071,380.8846,-13.0761)"
   y="450.39999"
   x="203.60001" />
				
					<rect
   style="fill:#ffffff"
   id="rect192"
   height="5.1999998"
   width="5.1999998"
   class="st14"
   transform="matrix(0.7071,0.7071,-0.7071,0.7071,387.3958,4.8689)"
   y="467.5"
   x="185.2" />
			</g>
		</g>
		<text
   style="font-size:18px;font-family:MyriadPro-Regular"
   id="text198"
   class="st4 st5"
   transform="translate(223,468)"><tspan
     y="0"
     x="0"
     id="tspan118"
     sodipodi:role="line">WAN-Optimierungsprogramm</tspan></text>


	</g><g
   id="g226"
   transform="translate(91.996102)">
		<text
   style="font-size:18px;font-family:MyriadPro-Regular"
   id="text202"
   class="st4 st5"
   transform="translate(480,470)"><tspan
     y="0"
     x="0"
     id="tspan122"
     sodipodi:role="line">L2-Konzentrator</tspan></text>


		<g
   id="g224">
			<path
   style="fill:#29abe2"
   inkscape:connector-curvature="0"
   id="path204"
   d="m 463,480.9 h -14.5 c -6.6,0 -12,-5.4 -12,-12 V 458 c 0,-6.6 5.4,-12 12,-12 H 463 c 6.6,0 12,5.4 12,12 v 10.9 c 0,6.6 -5.4,12 -12,12 z"
   class="st13" />
			<g
   id="g222">
				<rect
   style="fill:#ffffff"
   id="rect206"
   height="11.4"
   width="21.4"
   class="st14"
   y="454.39999"
   x="445.10001" />
				<rect
   style="fill:#ffffff"
   id="rect208"
   height="5.3000002"
   width="14.7"
   class="st14"
   y="463.10001"
   x="448.39999" />
				<rect
   style="fill:#29abe2"
   id="rect210"
   height="1.3"
   width="14.7"
   class="st13"
   y="458.5"
   x="448.39999" />
				<rect
   style="fill:#ffffff"
   id="rect212"
   height="9.3999996"
   width="4"
   class="st14"
   y="467.10001"
   x="453.70001" />
				<rect
   style="fill:#ffffff"
   id="rect214"
   height="7.4000001"
   width="4"
   class="st14"
   y="450.39999"
   x="447.10001" />
				<rect
   style="fill:#ffffff"
   id="rect216"
   height="2.7"
   width="2"
   class="st14"
   y="450.39999"
   x="453.10001" />
				<rect
   style="fill:#ffffff"
   id="rect218"
   height="2.7"
   width="2"
   class="st14"
   y="450.39999"
   x="456.39999" />
				<rect
   style="fill:#ffffff"
   id="rect220"
   height="7.4000001"
   width="4"
   class="st14"
   y="450.39999"
   x="460.39999" />
			</g>
		</g>
	</g>
<g
   id="L2_concentrator">
	<g
   id="g253">
		<line
   class="st0"
   x1="392.5"
   y1="176.5"
   x2="392.5"
   y2="218.5"
   id="line229" />
		<g
   id="g251">
			<path
   class="st13"
   d="M408.5,176.6h-30c-6.6,0-12-5.4-12-12v-25c0-6.6,5.4-12,12-12h30c6.6,0,12,5.4,12,12v25     C420.5,171.2,415.1,176.6,408.5,176.6z"
   id="path231" />
			<g
   id="g249">
				<rect
   x="378.5"
   y="139.5"
   class="st14"
   width="30"
   height="15.9"
   id="rect233" />
				<rect
   x="383.2"
   y="151.6"
   class="st14"
   width="20.6"
   height="7.5"
   id="rect235" />
				<rect
   x="383.2"
   y="145.1"
   class="st13"
   width="20.6"
   height="1.9"
   id="rect237" />
				<rect
   x="390.7"
   y="157.3"
   class="st14"
   width="5.6"
   height="13.1"
   id="rect239" />
				<rect
   x="381.3"
   y="133.8"
   class="st14"
   width="5.6"
   height="10.3"
   id="rect241" />
				<rect
   x="389.8"
   y="133.8"
   class="st14"
   width="2.8"
   height="3.8"
   id="rect243" />
				<rect
   x="394.4"
   y="133.8"
   class="st14"
   width="2.8"
   height="3.8"
   id="rect245" />
				<rect
   x="400.1"
   y="133.8"
   class="st14"
   width="5.6"
   height="10.3"
   id="rect247" />
			</g>
		</g>
	</g>
</g>
<g
   id="wan_optimizer">
	<g
   id="g292">
		<line
   class="st0"
   x1="317.5"
   y1="175.5"
   x2="317.5"
   y2="219.5"
   id="line256" />
		<g
   id="g290">
			<path
   class="st13"
   d="M333.3,175.8h-30c-6.6,0-12-5.4-12-12v-25c0-6.6,5.4-12,12-12h30c6.6,0,12,5.4,12,12v25     C345.3,170.4,339.9,175.8,333.3,175.8z"
   id="path258" />
			<g
   id="g288">
				<g
   id="g282">
					<g
   id="g276">
						<g
   id="g270">
							<g
   id="g264">
								<ellipse
   class="st14"
   cx="318.1"
   cy="151.1"
   rx="14.5"
   ry="14"
   id="ellipse260" />
								<ellipse
   class="st13"
   cx="318.1"
   cy="151.1"
   rx="6.5"
   ry="6.3"
   id="ellipse262" />
							</g>
							<rect
   x="313.8"
   y="133.3"
   class="st14"
   width="7.8"
   height="5"
   id="rect266" />
							<rect
   x="314.6"
   y="163.3"
   class="st14"
   width="7"
   height="6"
   id="rect268" />
						</g>
						<rect
   x="330.8"
   y="147.8"
   class="st14"
   width="6"
   height="7"
   id="rect272" />
						<rect
   x="299.8"
   y="147.8"
   class="st14"
   width="6"
   height="7"
   id="rect274" />
					</g>
					
						<rect
   x="303.1"
   y="137"
   transform="matrix(0.7526 0.6585 -0.6585 0.7526 168.1729 -167.0228)"
   class="st14"
   width="6.6"
   height="6.6"
   id="rect278" />
					
						<rect
   x="325.2"
   y="159"
   transform="matrix(0.7526 0.6585 -0.6585 0.7526 188.439 -176.8479)"
   class="st14"
   width="8.6"
   height="6.6"
   id="rect280" />
				</g>
				
					<rect
   x="327.1"
   y="137.4"
   transform="matrix(0.7071 0.7071 -0.7071 0.7071 196.4677 -192.3151)"
   class="st14"
   width="6.5"
   height="7.2"
   id="rect284" />
				
					<rect
   x="303.9"
   y="159"
   transform="matrix(0.7071 0.7071 -0.7071 0.7071 204.684 -169.6509)"
   class="st14"
   width="6.5"
   height="6.5"
   id="rect286" />
			</g>
		</g>
	</g>
</g>
<g
   id="hybrid_cloud_services">
	<g
   id="g303">
		<line
   class="st0"
   x1="179.5"
   y1="171.5"
   x2="179.5"
   y2="218.5"
   id="line295" />
		<g
   id="g301">
			<path
   class="st17"
   d="M188.7,154.3v-10.2c0-2.4-1.9-4.4-4.2-4.4H179v-13.1h9c6.6,0,12,5.7,12,12.6V159c0,6.9-5.4,12.6-12,12.6h-9     v-12.8h5.5C186.8,158.8,188.7,156.8,188.7,154.3z"
   id="path297" />
			<path
   class="st18"
   d="M182.2,142.2h-5.4v-15.7h-8.5c-6.2,0-11.3,5.7-11.3,12.6V159c0,6.9,5.1,12.6,11.3,12.6h8.5v-14.7h5.4     c1.7,0,3.1-1.5,3.1-3.4v-7.9C185.3,143.8,183.9,142.2,182.2,142.2z"
   id="path299" />
		</g>
	</g>
</g>
<g
   id="mngt_network">
	<g
   id="g310">
		<path
   class="st19"
   d="M650,243.5c0-12.7-6.7-23-15.1-23.5v0H89.1v0c-8.4,0.5-15.1,10.8-15.1,23.5c0,12.7,6.7,23,15.1,23.5v0h545.9    v0C643.3,266.5,650,256.2,650,243.5z"
   id="path306" />
		<ellipse
   class="st10"
   cx="633.7"
   cy="244"
   rx="10.7"
   ry="19.5"
   id="ellipse308" />
	</g>
	<text
   transform="matrix(1 0 0 1 262 251)"
   class="st4 st11"
   id="text312"><tspan
     sodipodi:role="line"
     id="tspan181">Managementnetz</tspan></text>


</g>
<g
   id="vmotion_network">
	<g
   id="g319">
		<path
   class="st20"
   d="M651,310.5c0-12.7-6.7-23-15.1-23.5v0H90.1v0c-8.4,0.5-15.1,10.8-15.1,23.5s6.7,23,15.1,23.5v0h545.9v0    C644.3,333.5,651,323.2,651,310.5z"
   id="path315" />
		<ellipse
   class="st10"
   cx="634.7"
   cy="311"
   rx="10.7"
   ry="19.5"
   id="ellipse317" />
	</g>
	<text
   transform="matrix(1 0 0 1 283 319)"
   class="st4 st11"
   id="text321"><tspan
     sodipodi:role="line"
     id="tspan188">vMotion-Netz</tspan></text>


</g>
<g
   id="vcenter">
	<g
   id="g334">
		<line
   class="st0"
   x1="101.5"
   y1="174.5"
   x2="101.5"
   y2="218.5"
   id="line324" />
		<g
   id="g332">
			<path
   class="st15"
   d="M124.6,125h-15.2c-4.6,0-8.4,3.8-8.4,8.4v5.6h-5.6c-4.6,0-8.4,3.8-8.4,8.4v14.2c0,4.6,3.8,8.4,8.4,8.4h14.3     c4.6,0,8.4-3.8,8.4-8.4V158h6.4c4.6,0,8.4-3.8,8.4-8.4v-16.2C133,128.8,129.2,125,124.6,125z"
   id="path326" />
			<path
   class="st16"
   d="M108.3,160.9H96.7c-0.9,0-1.7-0.8-1.7-1.7v-10.5c0-0.9,0.8-1.7,1.7-1.7h11.6c0.9,0,1.7,0.8,1.7,1.7v10.5     C110,160.2,109.2,160.9,108.3,160.9z"
   id="path328" />
			<path
   class="st16"
   d="M122.3,149h-11.6c-0.9,0-1.7-0.8-1.7-1.7v-11.6c0-0.9,0.8-1.7,1.7-1.7h11.6c0.9,0,1.7,0.8,1.7,1.7v11.6     C124,148.2,123.2,149,122.3,149z"
   id="path330" />
		</g>
	</g>
</g>
</svg>
