<?xml version="1.0" encoding="utf-8"?>
<!-- Generator: Adobe Illustrator 21.0.0, SVG Export Plug-In . SVG Version: 6.00 Build 0)  -->
<svg version="1.1" id="Layer_1" xmlns="http://www.w3.org/2000/svg" xmlns:xlink="http://www.w3.org/1999/xlink" x="0px" y="0px"
	 viewBox="0 0 600 320" style="enable-background:new 0 0 600 320;" xml:space="preserve">
<style type="text/css">
	.st0{fill:#4C84C5;}
	.st1{fill:#F49C58;}
	.st2{fill:#959595;}
	.st3{fill:#1DA78D;}
	.st4{fill:#FFFFFF;}
	.st5{font-family:'Roboto-Light';}
	.st6{font-size:21px;}
	.st7{font-size:18px;}
	.st8{font-size:14px;}
</style>
<rect y="81.7" class="st0" width="600" height="75.3"/>
<rect x="0.6" y="0.6" class="st1" width="600" height="74.3"/>
<rect y="239.7" class="st2" width="600" height="80.3"/>
<rect y="164" class="st3" width="190" height="68"/>
<rect x="205" y="163.4" class="st3" width="190" height="68.6"/>
<rect x="410" y="164" class="st3" width="190" height="68"/>
<text transform="matrix(1 0 0 1 184.7242 108.3711)"><tspan x="0" y="0" class="st4 st5 st6">Gerenciamento de virtualização</tspan><tspan x="31.5" y="34" class="st4 st5 st7">VMware vCenter Server</tspan></text>
<text transform="matrix(1 0 0 1 8.5747 191.8755)"><tspan x="0" y="0" class="st4 st5 st7">Virtualização de cálculo</tspan><tspan x="37.6" y="23.9" class="st4 st5 st8">VMware vSphere</tspan></text>
<text transform="matrix(1 0 0 1 223.0037 192.8755)"><tspan x="0" y="0" class="st4 st5 st7">Virtualização de armazenamento</tspan><tspan x="39.8" y="23.9" class="st4 st5 st8">VMware vSAN</tspan></text>
<text transform="matrix(1 0 0 1 420.666 193.8755)"><tspan x="0" y="0" class="st4 st5 st7">Network Virtualization</tspan><tspan x="45" y="23.9" class="st4 st5 st8">VMware NSX</tspan></text>
<text transform="matrix(1 0 0 1 146.074 272.5371)" class="st4 st5 st6">Infraestrutura física no IBM Cloud</text>
<text transform="matrix(1 0 0 1 201.7869 27.4924)"><tspan x="0" y="0" class="st4 st5 st6">Hibridismo de infraestrutura</tspan><tspan x="-41.9" y="34" class="st4 st5 st7">VMware Hybrid Cloud Extension (HCX)</tspan></text>
<text transform="matrix(1 0 0 1 273.3247 303.3732)" class="st4 st5 st7">Armazenamento</text>
<text transform="matrix(1 0 0 1 406.9552 303.3732)" class="st4 st5 st7">Rede</text>
<text transform="matrix(1 0 0 1 134.5858 303.373)" class="st4 st5 st7">Cálculo</text>
</svg>
