<?xml version="1.0" encoding="UTF-8" standalone="no"?>
<!-- Generator: Adobe Illustrator 21.0.0, SVG Export Plug-In . SVG Version: 6.00 Build 0)  -->

<svg
   xmlns:dc="http://purl.org/dc/elements/1.1/"
   xmlns:cc="http://creativecommons.org/ns#"
   xmlns:rdf="http://www.w3.org/1999/02/22-rdf-syntax-ns#"
   xmlns:svg="http://www.w3.org/2000/svg"
   xmlns="http://www.w3.org/2000/svg"
   xmlns:sodipodi="http://sodipodi.sourceforge.net/DTD/sodipodi-0.dtd"
   xmlns:inkscape="http://www.inkscape.org/namespaces/inkscape"
   version="1.1"
   x="0px"
   y="0px"
   viewBox="0 0 512 376"
   style="enable-background:new 0 0 512 376;"
   xml:space="preserve"
   id="svg134"
   sodipodi:docname="hcx_multiple_sources.svg"
   inkscape:version="0.92.3 (2405546, 2018-03-11)"><metadata
   id="metadata140"><rdf:RDF><cc:Work
       rdf:about=""><dc:format>image/svg+xml</dc:format><dc:type
         rdf:resource="http://purl.org/dc/dcmitype/StillImage" /><dc:title /></cc:Work></rdf:RDF></metadata><defs
   id="defs138">
	
	

		
		
	
			
			
		
			
			

		
		
		
	
			
			
		
			
			

		
	

		
		

	
	

		
		

	
	

		
		

	</defs><sodipodi:namedview
   pagecolor="#ffffff"
   bordercolor="#666666"
   borderopacity="1"
   objecttolerance="10"
   gridtolerance="10"
   guidetolerance="10"
   inkscape:pageopacity="0"
   inkscape:pageshadow="2"
   inkscape:window-width="3391"
   inkscape:window-height="1376"
   id="namedview136"
   showgrid="false"
   inkscape:zoom="1.2553191"
   inkscape:cx="-341.62272"
   inkscape:cy="14.382287"
   inkscape:window-x="49"
   inkscape:window-y="27"
   inkscape:window-maximized="1"
   inkscape:current-layer="svg134" />
<style
   type="text/css"
   id="style2">
	.st0{fill:#E8CEB5;stroke:#000000;stroke-width:0.5;stroke-miterlimit:10;stroke-dasharray:5;}
	.st1{fill:#D0EFDF;}
	.st2{fill:none;stroke:#000000;stroke-width:0.5;stroke-miterlimit:10;}
	.st3{fill:none;stroke:#000000;stroke-width:0.5;stroke-miterlimit:10;stroke-dasharray:4.9744,4.9744;}
	.st4{fill:none;stroke:#000000;stroke-width:0.5;stroke-miterlimit:10;stroke-dasharray:4.9483,4.9483;}
	.st5{fill:#FFFFFF;stroke:#4D4D4D;stroke-width:2;stroke-miterlimit:10;}
	.st6{font-family:'MyriadPro-Regular';}
	.st7{font-size:18px;}
	.st8{fill:none;stroke:#009245;stroke-width:2;stroke-miterlimit:10;}
	.st9{fill:none;stroke:#000000;stroke-width:2;stroke-miterlimit:10;}
	.st10{fill:#8CC63F;stroke:#009245;stroke-width:0.25;stroke-miterlimit:10;}
	.st11{fill:#29ABE2;stroke:#0071BC;stroke-width:0.25;stroke-miterlimit:10;}
</style>
<g
   id="right_box">
	<rect
   x="226.5"
   y="10.5"
   class="st0"
   width="275"
   height="310"
   id="rect4" />
</g>
<g
   id="left_box"
   transform="matrix(1.0479766,0,0,1,-10.113467,0)">
	<g
   id="g27">
		<rect
   x="11.8"
   y="171"
   class="st1"
   width="199"
   height="148.5"
   id="rect7"
   style="fill:#d0efdf" />
		<g
   id="g25">
			<polyline
   class="st2"
   points="210.8,317 210.8,319.5 208.3,319.5    "
   id="polyline9"
   style="fill:none;stroke:#000000;stroke-width:0.5;stroke-miterlimit:10" />
			<line
   class="st3"
   x1="203.3"
   y1="319.5"
   x2="16.799999"
   y2="319.5"
   id="line11"
   style="fill:none;stroke:#000000;stroke-width:0.5;stroke-miterlimit:10;stroke-dasharray:4.9744, 4.9744" />
			<polyline
   class="st2"
   points="14.3,319.5 11.8,319.5 11.8,317    "
   id="polyline13"
   style="fill:none;stroke:#000000;stroke-width:0.5;stroke-miterlimit:10" />
			<line
   class="st4"
   x1="11.8"
   y1="312.10001"
   x2="11.8"
   y2="176"
   id="line15"
   style="fill:none;stroke:#000000;stroke-width:0.5;stroke-miterlimit:10;stroke-dasharray:4.9483, 4.9483" />
			<polyline
   class="st2"
   points="11.8,173.5 11.8,171 14.3,171    "
   id="polyline17"
   style="fill:none;stroke:#000000;stroke-width:0.5;stroke-miterlimit:10" />
			<line
   class="st3"
   x1="19.299999"
   y1="171"
   x2="205.8"
   y2="171"
   id="line19"
   style="fill:none;stroke:#000000;stroke-width:0.5;stroke-miterlimit:10;stroke-dasharray:4.9744, 4.9744" />
			<polyline
   class="st2"
   points="208.3,171 210.8,171 210.8,173.5    "
   id="polyline21"
   style="fill:none;stroke:#000000;stroke-width:0.5;stroke-miterlimit:10" />
			<line
   class="st4"
   x1="210.8"
   y1="178.39999"
   x2="210.8"
   y2="314.5"
   id="line23"
   style="fill:none;stroke:#000000;stroke-width:0.5;stroke-miterlimit:10;stroke-dasharray:4.9483, 4.9483" />
		</g>
	</g>
	<g
   id="g49">
		<rect
   x="11.8"
   y="11"
   class="st1"
   width="199"
   height="148.5"
   id="rect29"
   style="fill:#d0efdf" />
		<g
   id="g47">
			<polyline
   class="st2"
   points="210.8,157 210.8,159.5 208.3,159.5    "
   id="polyline31"
   style="fill:none;stroke:#000000;stroke-width:0.5;stroke-miterlimit:10" />
			<line
   class="st3"
   x1="203.3"
   y1="159.5"
   x2="16.799999"
   y2="159.5"
   id="line33"
   style="fill:none;stroke:#000000;stroke-width:0.5;stroke-miterlimit:10;stroke-dasharray:4.9744, 4.9744" />
			<polyline
   class="st2"
   points="14.3,159.5 11.8,159.5 11.8,157    "
   id="polyline35"
   style="fill:none;stroke:#000000;stroke-width:0.5;stroke-miterlimit:10" />
			<line
   class="st4"
   x1="11.8"
   y1="152.10001"
   x2="11.8"
   y2="16"
   id="line37"
   style="fill:none;stroke:#000000;stroke-width:0.5;stroke-miterlimit:10;stroke-dasharray:4.9483, 4.9483" />
			<polyline
   class="st2"
   points="11.8,13.5 11.8,11 14.3,11    "
   id="polyline39"
   style="fill:none;stroke:#000000;stroke-width:0.5;stroke-miterlimit:10" />
			<line
   class="st3"
   x1="19.299999"
   y1="11"
   x2="205.8"
   y2="11"
   id="line41"
   style="fill:none;stroke:#000000;stroke-width:0.5;stroke-miterlimit:10;stroke-dasharray:4.9744, 4.9744" />
			<polyline
   class="st2"
   points="208.3,11 210.8,11 210.8,13.5    "
   id="polyline43"
   style="fill:none;stroke:#000000;stroke-width:0.5;stroke-miterlimit:10" />
			<line
   class="st4"
   x1="210.8"
   y1="18.4"
   x2="210.8"
   y2="154.5"
   id="line45"
   style="fill:none;stroke:#000000;stroke-width:0.5;stroke-miterlimit:10;stroke-dasharray:4.9483, 4.9483" />
		</g>
	</g>
</g>
<path
   class="st5"
   d="m 461.62921,149 c -8.56516,0 -16.47981,1.6 -22.98499,4.3 -2.38524,-15.9 -18.53978,-28.3 -38.16376,-28.3 -20.16607,0 -36.7543,13 -38.38059,29.7 -1.73472,-0.6 -3.57786,-0.8 -5.52941,-0.8 -10.29988,0 -18.6482,8.6 -18.6482,19.2 0,10.6 8.34832,19.2 18.6482,19.2 2.27681,0 4.44521,-0.4 6.39676,-1.2 h 85.97688 c 3.90311,0.8 8.13148,1.2 12.57669,1.2 21.25027,0 38.48902,-9.7 38.48902,-21.6 0.10842,-12 -17.13033,-21.7 -38.3806,-21.7 z"
   id="path52"
   inkscape:connector-curvature="0"
   style="fill:#ffffff;stroke:#4d4d4d;stroke-width:2.08249617;stroke-miterlimit:10" /><text
   class="st6 st7"
   id="text54"
   style="font-style:normal;font-variant:normal;font-weight:normal;font-stretch:normal;font-size:14.66666698px;font-family:MyriadPro-Regular;-inkscape-font-specification:'MyriadPro-Regular, Normal';font-variant-ligatures:normal;font-variant-caps:normal;font-variant-numeric:normal;font-feature-settings:normal;text-align:start;writing-mode:lr-tb;text-anchor:start"
   x="364.39957"
   y="177.1221"><tspan
     sodipodi:role="line"
     id="tspan32"
     x="364.39957"
     y="177.1221">IBM Cloud DC2</tspan></text>


<g
   id="lines">
	<line
   class="st8"
   x1="276"
   y1="255"
   x2="198"
   y2="253"
   id="line59" />
	<line
   class="st8"
   x1="337"
   y1="168"
   x2="198"
   y2="253"
   id="line61" />
	<line
   class="st8"
   x1="261"
   y1="82"
   x2="198"
   y2="253"
   id="line63" />
	<line
   class="st9"
   x1="276"
   y1="255"
   x2="197"
   y2="84"
   id="line65" />
	<line
   class="st9"
   x1="339"
   y1="168"
   x2="195"
   y2="82"
   id="line67" />
	<line
   class="st9"
   x1="195"
   y1="82"
   x2="261"
   y2="82"
   id="line69" />
</g>
<g
   id="Layer_8">
	<text
   transform="matrix(1 0 0 1 340.3586 310.333)"
   class="st6 st7"
   id="text72"><tspan
     sodipodi:role="line"
     id="tspan44">Ziel</tspan></text>



	<text
   transform="matrix(1 0 0 1 75.5514 310.333)"
   class="st6 st7"
   id="text74"><tspan
     sodipodi:role="line"
     id="tspan47">artikel</tspan></text>



	<text
   transform="matrix(1 0 0 1 76.5514 142.333)"
   class="st6 st7"
   id="text76"><tspan
     sodipodi:role="line"
     id="tspan50">artikel</tspan></text>



</g>
<path
   class="st5"
   d="m 401.15636,240 c -8.56516,0 -16.4798,1.6 -22.98499,4.3 -2.38523,-15.9 -18.53978,-28.3 -38.16376,-28.3 -20.16607,0 -36.7543,13 -38.38059,29.7 -1.73472,-0.6 -3.57785,-0.8 -5.52941,-0.8 -10.29988,0 -18.6482,8.6 -18.6482,19.2 0,10.6 8.34832,19.2 18.6482,19.2 2.27682,0 4.44521,-0.4 6.39677,-1.2 h 85.97687 c 3.90311,0.8 8.13148,1.2 12.57669,1.2 21.25028,0 38.48902,-9.7 38.48902,-21.6 0.10842,-12 -17.13032,-21.7 -38.3806,-21.7 z"
   id="path79"
   inkscape:connector-curvature="0"
   style="fill:#ffffff;stroke:#4d4d4d;stroke-width:2.08249617;stroke-miterlimit:10" /><text
   class="st6 st7"
   id="text81"
   style="font-style:normal;font-variant:normal;font-weight:normal;font-stretch:normal;font-size:14.66666698px;font-family:MyriadPro-Regular;-inkscape-font-specification:'MyriadPro-Regular, Normal';font-variant-ligatures:normal;font-variant-caps:normal;font-variant-numeric:normal;font-feature-settings:normal;text-align:start;writing-mode:lr-tb;text-anchor:start"
   x="299.88763"
   y="268.1221"><tspan
     sodipodi:role="line"
     id="tspan55"
     x="299.88763"
     y="268.1221">Nicht-IBM Cloud</tspan></text>


<path
   class="st5"
   d="m 387.23019,56 c -8.56516,0 -16.47981,1.6 -22.98499,4.3 -2.38524,-16 -18.53978,-28.3 -38.16376,-28.3 -20.16608,0 -36.7543,13 -38.3806,29.7 -1.73471,-0.6 -3.57785,-0.8 -5.5294,-0.8 -10.29988,0 -18.6482,8.6 -18.6482,19.2 0,10.6 8.34832,19.2 18.6482,19.2 2.27681,0 4.44521,-0.4 6.39676,-1.2 h 85.97688 c 3.90311,0.8 8.13148,1.2 12.57669,1.2 21.25027,0 38.48901,-9.7 38.48901,-21.6 C 425.7192,65.7 408.48046,56 387.23019,56 Z"
   id="path86"
   inkscape:connector-curvature="0"
   style="fill:#ffffff;stroke:#4d4d4d;stroke-width:2.08249617;stroke-miterlimit:10" /><text
   class="st6 st7"
   id="text88"
   style="font-style:normal;font-variant:normal;font-weight:normal;font-stretch:normal;font-size:14.66666698px;font-family:MyriadPro-Regular;-inkscape-font-specification:'MyriadPro-Regular, Normal';font-variant-ligatures:normal;font-variant-caps:normal;font-variant-numeric:normal;font-feature-settings:normal;text-align:start;writing-mode:lr-tb;text-anchor:start"
   x="287.60861"
   y="86.122101"><tspan
     sodipodi:role="line"
     id="tspan61"
     x="287.60861"
     y="86.122101">IBM Cloud DC 1</tspan></text>


<g
   id="DCa">
</g>
<g
   id="bottom_explanation">
	<g
   id="g102">
		<text
   transform="matrix(1 0 0 1 195 357)"
   class="st6 st7"
   id="text94"><tspan
     sodipodi:role="line"
     id="tspan67">Hybrid-Cloud-Services</tspan></text>



		<g
   id="g100">
			<path
   class="st10"
   d="M177.9,353.6v-7.4c0-1.8-1.4-3.2-3-3.2h-4v-9.5h6.5c4.8,0,8.6,4.1,8.6,9.1v14.4c0,5-3.9,9.1-8.6,9.1h-6.5     v-9.2h4C176.5,356.8,177.9,355.3,177.9,353.6z"
   id="path96" />
			<path
   class="st11"
   d="M173.2,344.8h-3.9v-11.3h-6.1c-4.5,0-8.2,4.1-8.2,9.1v14.4c0,5,3.7,9.1,8.2,9.1h6.1v-10.6h3.9     c1.2,0,2.2-1.1,2.2-2.5v-5.7C175.4,345.9,174.4,344.8,173.2,344.8z"
   id="path98" />
		</g>
	</g>
</g>
<path
   style="fill:#ffffff;stroke:#4d4d4d;stroke-width:2.08249617;stroke-miterlimit:10"
   inkscape:connector-curvature="0"
   id="path105"
   d="m 130.27535,233 c -8.56516,0 -16.47981,1.6 -22.98499,4.3 C 104.90512,221.4 88.75058,209 69.126599,209 c -20.166076,0 -36.7543,13 -38.380596,29.7 -1.734716,-0.6 -3.577852,-0.8 -5.529408,-0.8 -10.299878,0 -18.6482,8.6 -18.6482,19.2 0,10.6 8.348322,19.2 18.6482,19.2 2.276815,0 4.44521,-0.4 6.396766,-1.2 h 85.976869 c 3.90312,0.8 8.13149,1.2 12.5767,1.2 21.25027,0 38.48901,-9.7 38.48901,-21.6 0.10842,-12 -17.13032,-21.7 -38.38059,-21.7 z"
   class="st5" /><text
   style="font-style:normal;font-variant:normal;font-weight:normal;font-stretch:normal;font-size:14.66666698px;font-family:MyriadPro-Regular;-inkscape-font-specification:'MyriadPro-Regular, Normal';font-variant-ligatures:normal;font-variant-caps:normal;font-variant-numeric:normal;font-feature-settings:normal;text-align:start;writing-mode:lr-tb;text-anchor:start"
   id="text107"
   class="st6 st7"
   x="22.181759"
   y="261.1221"><tspan
     y="261.1221"
     x="22.181759"
     id="tspan76"
     sodipodi:role="line">Rechenzentrum B</tspan></text>

<path
   style="fill:#8cc63f;stroke:#009245;stroke-width:0.25;stroke-miterlimit:10"
   inkscape:connector-curvature="0"
   id="path111"
   d="m 186.3,258.5 v -9.8 c 0,-2.3 -1.8,-4.2 -4,-4.2 H 177 V 232 h 8.6 c 6.3,0 11.4,5.4 11.4,12 v 19 c 0,6.6 -5.1,12 -11.4,12 H 177 v -12.2 h 5.2 c 2.2,0 4.1,-1.9 4.1,-4.3 z"
   class="st10" /><path
   style="fill:#29abe2;stroke:#0071bc;stroke-width:0.25;stroke-miterlimit:10"
   inkscape:connector-curvature="0"
   id="path113"
   d="m 180.1,247 h -5.2 v -15 h -8.1 c -5.9,0 -10.8,5.4 -10.8,12 v 19 c 0,6.6 4.9,12 10.8,12 h 8.1 v -14 h 5.2 c 1.6,0 2.9,-1.5 2.9,-3.3 v -7.5 c 0,-1.7 -1.3,-3.2 -2.9,-3.2 z"
   class="st11" /><path
   style="fill:#ffffff;stroke:#4d4d4d;stroke-width:2.08249617;stroke-miterlimit:10"
   inkscape:connector-curvature="0"
   id="path119"
   d="m 128.10695,63 c -8.56516,0 -16.4798,1.6 -22.98499,4.3 C 102.73673,51.3 86.58218,39 66.958204,39 46.792128,39 30.203904,52 28.577607,68.7 26.842891,68.1 24.999755,67.9 23.048199,67.9 12.748322,67.9 4.4,76.5 4.4,87.1 c 0,10.6 8.348322,19.2 18.648199,19.2 2.276816,0 4.445211,-0.4 6.396767,-1.2 h 85.976874 c 3.90311,0.8 8.13148,1.2 12.57669,1.2 21.25028,0 38.48902,-9.7 38.48902,-21.6 0.10842,-12 -17.13033,-21.7 -38.3806,-21.7 z"
   class="st5" /><text
   style="font-style:normal;font-variant:normal;font-weight:normal;font-stretch:normal;font-size:14.66666698px;font-family:MyriadPro-Regular;-inkscape-font-specification:'MyriadPro-Regular, Normal';font-variant-ligatures:normal;font-variant-caps:normal;font-variant-numeric:normal;font-feature-settings:normal;text-align:start;writing-mode:lr-tb;text-anchor:start"
   id="text121"
   class="st6 st7"
   x="19.569357"
   y="91.122101"><tspan
     y="91.122101"
     x="19.569357"
     id="tspan85"
     sodipodi:role="line">Rechenzentrum A</tspan></text>

<path
   style="fill:#8cc63f;stroke:#009245;stroke-width:0.25;stroke-miterlimit:10"
   inkscape:connector-curvature="0"
   id="path125"
   d="m 184.3,88.5 v -9.8 c 0,-2.3 -1.8,-4.2 -4,-4.2 H 175 V 62 h 8.6 c 6.3,0 11.4,5.4 11.4,12 v 19 c 0,6.6 -5.1,12 -11.4,12 H 175 V 92.8 h 5.2 c 2.2,0 4.1,-1.9 4.1,-4.3 z"
   class="st10" /><path
   style="fill:#29abe2;stroke:#0071bc;stroke-width:0.25;stroke-miterlimit:10"
   inkscape:connector-curvature="0"
   id="path127"
   d="m 178.1,77 h -5.2 V 62 h -8.1 C 158.9,62 154,67.4 154,74 v 19 c 0,6.6 4.9,12 10.8,12 h 8.1 V 91 h 5.2 c 1.6,0 2.9,-1.5 2.9,-3.3 v -7.5 c 0,-1.7 -1.3,-3.2 -2.9,-3.2 z"
   class="st11" />
</svg>
