<?xml version="1.0" encoding="UTF-8" standalone="no"?>
<!-- Generator: Adobe Illustrator 21.0.0, SVG Export Plug-In . SVG Version: 6.00 Build 0)  -->

<svg
   xmlns:dc="http://purl.org/dc/elements/1.1/"
   xmlns:cc="http://creativecommons.org/ns#"
   xmlns:rdf="http://www.w3.org/1999/02/22-rdf-syntax-ns#"
   xmlns:svg="http://www.w3.org/2000/svg"
   xmlns="http://www.w3.org/2000/svg"
   xmlns:sodipodi="http://sodipodi.sourceforge.net/DTD/sodipodi-0.dtd"
   xmlns:inkscape="http://www.inkscape.org/namespaces/inkscape"
   version="1.1"
   x="0px"
   y="0px"
   viewBox="0 0 512 376"
   style="enable-background:new 0 0 512 376;"
   xml:space="preserve"
   id="svg90"
   sodipodi:docname="hcx_single_source.svg"
   inkscape:version="0.92.3 (2405546, 2018-03-11)"><metadata
   id="metadata96"><rdf:RDF><cc:Work
       rdf:about=""><dc:format>image/svg+xml</dc:format><dc:type
         rdf:resource="http://purl.org/dc/dcmitype/StillImage" /><dc:title /></cc:Work></rdf:RDF></metadata><defs
   id="defs94">
	

		
		
	
			
			
		
			
			

		
	

		
		

	
	

		
		

	
	

		
		

	</defs><sodipodi:namedview
   pagecolor="#ffffff"
   bordercolor="#666666"
   borderopacity="1"
   objecttolerance="10"
   gridtolerance="10"
   guidetolerance="10"
   inkscape:pageopacity="0"
   inkscape:pageshadow="2"
   inkscape:window-width="3391"
   inkscape:window-height="1376"
   id="namedview92"
   showgrid="false"
   inkscape:zoom="2.5106383"
   inkscape:cx="188.18589"
   inkscape:cy="234.75107"
   inkscape:window-x="49"
   inkscape:window-y="27"
   inkscape:window-maximized="1"
   inkscape:current-layer="svg90" />
<style
   type="text/css"
   id="style2">
	.st0{fill:#E8CEB5;stroke:#000000;stroke-width:0.5;stroke-miterlimit:10;stroke-dasharray:5;}
	.st1{fill:#D0EFDF;}
	.st2{fill:none;stroke:#000000;stroke-width:0.5;stroke-miterlimit:10;}
	.st3{fill:none;stroke:#000000;stroke-width:0.5;stroke-miterlimit:10;stroke-dasharray:4.9744,4.9744;}
	.st4{fill:none;stroke:#000000;stroke-width:0.5;stroke-miterlimit:10;stroke-dasharray:4.9836,4.9836;}
	.st5{fill:#FFFFFF;stroke:#4D4D4D;stroke-width:2;stroke-miterlimit:10;}
	.st6{font-family:'MyriadPro-Regular';}
	.st7{font-size:18px;}
	.st8{fill:none;stroke:#000000;stroke-width:2;stroke-miterlimit:10;}
	.st9{fill:#8CC63F;stroke:#000000;stroke-width:0.25;stroke-miterlimit:10;}
	.st10{fill:#29ABE2;stroke:#000000;stroke-width:0.25;stroke-miterlimit:10;}
</style>
<g
   id="right_box">
	<rect
   x="226.5"
   y="11.5"
   class="st0"
   width="275"
   height="310"
   id="rect4" />
</g>
<g
   id="left_box"
   transform="matrix(1.0479766,0,0,1,-10.113467,0)">
	<g
   id="g27">
		<rect
   x="11.8"
   y="11"
   class="st1"
   width="199"
   height="309"
   id="rect7"
   style="fill:#d0efdf" />
		<g
   id="g25">
			<polyline
   class="st2"
   points="210.8,317.5 210.8,320 208.3,320    "
   id="polyline9"
   style="fill:none;stroke:#000000;stroke-width:0.5;stroke-miterlimit:10" />
			<line
   class="st3"
   x1="203.3"
   y1="320"
   x2="16.799999"
   y2="320"
   id="line11"
   style="fill:none;stroke:#000000;stroke-width:0.5;stroke-miterlimit:10;stroke-dasharray:4.9744, 4.9744" />
			<polyline
   class="st2"
   points="14.3,320 11.8,320 11.8,317.5    "
   id="polyline13"
   style="fill:none;stroke:#000000;stroke-width:0.5;stroke-miterlimit:10" />
			<line
   class="st4"
   x1="11.8"
   y1="312.5"
   x2="11.8"
   y2="16"
   id="line15"
   style="fill:none;stroke:#000000;stroke-width:0.5;stroke-miterlimit:10;stroke-dasharray:4.9836, 4.9836" />
			<polyline
   class="st2"
   points="11.8,13.5 11.8,11 14.3,11    "
   id="polyline17"
   style="fill:none;stroke:#000000;stroke-width:0.5;stroke-miterlimit:10" />
			<line
   class="st3"
   x1="19.299999"
   y1="11"
   x2="205.8"
   y2="11"
   id="line19"
   style="fill:none;stroke:#000000;stroke-width:0.5;stroke-miterlimit:10;stroke-dasharray:4.9744, 4.9744" />
			<polyline
   class="st2"
   points="208.3,11 210.8,11 210.8,13.5    "
   id="polyline21"
   style="fill:none;stroke:#000000;stroke-width:0.5;stroke-miterlimit:10" />
			<line
   class="st4"
   x1="210.8"
   y1="18.5"
   x2="210.8"
   y2="315"
   id="line23"
   style="fill:none;stroke:#000000;stroke-width:0.5;stroke-miterlimit:10;stroke-dasharray:4.9836, 4.9836" />
		</g>
	</g>
</g>
<path
   class="st5"
   d="m 452.07635,149 c -8.21771,0 -15.81128,1.6 -22.05258,4.3 -2.28847,-15.9 -17.78769,-28.3 -36.61559,-28.3 -19.34801,0 -35.26331,13 -36.82364,29.7 -1.66434,-0.6 -3.43271,-0.8 -5.3051,-0.8 -9.88204,0 -17.89171,8.6 -17.89171,19.2 0,10.6 8.00967,19.2 17.89171,19.2 2.18446,0 4.26489,-0.4 6.13728,-1.2 h 82.4891 c 3.74478,0.8 7.80162,1.2 12.0665,1.2 20.38823,0 36.92766,-9.7 36.92766,-21.6 0.10402,-12 -16.43541,-21.7 -36.82363,-21.7 z"
   id="path30"
   inkscape:connector-curvature="0"
   style="fill:#ffffff;stroke:#4d4d4d;stroke-width:2.03981924;stroke-miterlimit:10" /><text
   class="st6 st7"
   id="text32"
   style="font-style:normal;font-variant:normal;font-weight:normal;font-stretch:normal;font-size:14.66666698px;font-family:MyriadPro-Regular;-inkscape-font-specification:'MyriadPro-Regular, Normal';font-variant-ligatures:normal;font-variant-caps:normal;font-variant-numeric:normal;font-feature-settings:normal;text-align:start;writing-mode:lr-tb;text-anchor:start"
   x="354.24274"
   y="177.1221"><tspan
     sodipodi:role="line"
     id="tspan21"
     x="354.24274"
     y="177.1221">IBM Cloud DC 2</tspan></text>

<g
   id="lines">
	<line
   class="st8"
   x1="274"
   y1="262"
   x2="199"
   y2="162"
   id="line37" />
	<line
   class="st8"
   x1="339"
   y1="168"
   x2="200"
   y2="163"
   id="line39" />
	<line
   class="st8"
   x1="201"
   y1="163"
   x2="267"
   y2="94"
   id="line41" />
</g>
<g
   id="Layer_8">
	<text
   transform="matrix(1 0 0 1 340.3586 310.333)"
   class="st6 st7"
   id="text44"><tspan
     sodipodi:role="line"
     id="tspan30">Ziel</tspan></text>


	<text
   transform="matrix(1 0 0 1 85.5514 310.333)"
   class="st6 st7"
   id="text46"><tspan
     sodipodi:role="line"
     id="tspan33">artikel</tspan></text>


</g>
<path
   class="st5"
   d="m 384.46233,240 c -8.21771,0 -15.81128,1.6 -22.05258,4.3 -2.28847,-15.9 -17.78769,-28.3 -36.61559,-28.3 -19.34801,0 -35.26331,13 -36.82364,29.7 -1.66434,-0.6 -3.43271,-0.8 -5.3051,-0.8 -9.88204,0 -17.89171,8.6 -17.89171,19.2 0,10.6 8.00967,19.2 17.89171,19.2 2.18446,0 4.26489,-0.4 6.13728,-1.2 h 82.4891 c 3.74478,0.8 7.80162,1.2 12.0665,1.2 20.38823,0 36.92766,-9.7 36.92766,-21.6 0.10402,-12 -16.43541,-21.7 -36.82363,-21.7 z"
   id="path49"
   inkscape:connector-curvature="0"
   style="fill:#ffffff;stroke:#4d4d4d;stroke-width:2.03981924;stroke-miterlimit:10" /><text
   class="st6 st7"
   id="text51"
   style="font-style:normal;font-variant:normal;font-weight:normal;font-stretch:normal;font-size:14.66666698px;font-family:MyriadPro-Regular;-inkscape-font-specification:'MyriadPro-Regular, Normal';font-variant-ligatures:normal;font-variant-caps:normal;font-variant-numeric:normal;font-feature-settings:normal;text-align:start;writing-mode:lr-tb;text-anchor:start"
   x="284.92429"
   y="268.1221"><tspan
     sodipodi:role="line"
     id="tspan38"
     x="284.92429"
     y="268.1221">Nicht-IBM Cloud</tspan></text>

<path
   class="st5"
   d="m 373.01995,58 c -8.2177,0 -15.81128,1.6 -22.05257,4.3 -2.28847,-16 -17.78769,-28.3 -36.61559,-28.3 -19.34801,0 -35.26331,13 -36.82364,29.7 -1.66434,-0.6 -3.43271,-0.8 -5.3051,-0.8 -9.88205,0 -17.89171,8.6 -17.89171,19.2 0,10.6 8.00966,19.2 17.89171,19.2 2.18445,0 4.26489,-0.4 6.13727,-1.2 h 82.48911 c 3.74478,0.8 7.80162,1.2 12.0665,1.2 20.38823,0 36.92766,-9.7 36.92766,-21.6 C 409.94761,67.7 393.40818,58 373.01995,58 Z"
   id="path56"
   inkscape:connector-curvature="0"
   style="fill:#ffffff;stroke:#4d4d4d;stroke-width:2.03981924;stroke-miterlimit:10" /><text
   class="st6 st7"
   id="text58"
   style="font-style:normal;font-variant:normal;font-weight:normal;font-stretch:normal;font-size:14.66666698px;font-family:MyriadPro-Regular;-inkscape-font-specification:'MyriadPro-Regular, Normal';font-variant-ligatures:normal;font-variant-caps:normal;font-variant-numeric:normal;font-feature-settings:normal;text-align:start;writing-mode:lr-tb;text-anchor:start"
   x="275.12906"
   y="86.122101"><tspan
     sodipodi:role="line"
     id="tspan44"
     x="275.12906"
     y="86.122101">IBM Cloud DC 1</tspan></text>

<g
   id="DCa">
</g>
<g
   id="bottom_explanation">
	<g
   id="g72">
		<text
   transform="matrix(1 0 0 1 195 357)"
   class="st6 st7"
   id="text64"><tspan
     sodipodi:role="line"
     id="tspan50">Hybrid-Cloud-Services</tspan></text>


		<g
   id="g70">
			<path
   class="st9"
   d="M177.9,353.6v-7.4c0-1.8-1.4-3.2-3-3.2h-4v-9.5h6.5c4.8,0,8.6,4.1,8.6,9.1v14.4c0,5-3.9,9.1-8.6,9.1h-6.5     v-9.2h4C176.5,356.8,177.9,355.3,177.9,353.6z"
   id="path66" />
			<path
   class="st10"
   d="M173.2,344.8h-3.9v-11.3h-6.1c-4.5,0-8.2,4.1-8.2,9.1v14.4c0,5,3.7,9.1,8.2,9.1h6.1v-10.6h3.9     c1.2,0,2.2-1.1,2.2-2.5v-5.7C175.4,345.9,174.4,344.8,173.2,344.8z"
   id="path68" />
		</g>
	</g>
</g>
<path
   style="fill:#ffffff;stroke:#4d4d4d;stroke-width:2.03981924;stroke-miterlimit:10"
   inkscape:connector-curvature="0"
   id="path75"
   d="m 124.24483,144 c -8.2177,0 -15.81128,1.6 -22.05257,4.3 C 99.903776,132.4 84.404566,120 65.576662,120 46.22865,120 30.31335,133 28.753026,149.7 c -1.664345,-0.6 -3.432711,-0.8 -5.3051,-0.8 -9.882049,0 -17.8917099,8.6 -17.8917099,19.2 0,10.6 8.0096609,19.2 17.8917099,19.2 2.184453,0 4.264885,-0.4 6.137273,-1.2 h 82.489111 c 3.74477,0.8 7.80162,1.2 12.0665,1.2 20.38823,0 36.92766,-9.7 36.92766,-21.6 0.10402,-12 -16.43541,-21.7 -36.82364,-21.7 z"
   class="st5" /><text
   style="font-style:normal;font-variant:normal;font-weight:normal;font-stretch:normal;font-size:14.66666698px;font-family:MyriadPro-Regular;-inkscape-font-specification:'MyriadPro-Regular, Normal';font-variant-ligatures:normal;font-variant-caps:normal;font-variant-numeric:normal;font-feature-settings:normal;text-align:start;writing-mode:lr-tb;text-anchor:start"
   id="text77"
   class="st6 st7"
   x="17.43791"
   y="172.1221"><tspan
     y="172.1221"
     x="17.43791"
     id="tspan59"
     sodipodi:role="line">Rechenzentrum A</tspan></text>
<path
   style="fill:#8cc63f;stroke:#000000;stroke-width:0.25;stroke-miterlimit:10"
   inkscape:connector-curvature="0"
   id="path81"
   d="m 184.3,169.5 v -9.8 c 0,-2.3 -1.8,-4.2 -4,-4.2 H 175 V 143 h 8.6 c 6.3,0 11.4,5.4 11.4,12 v 19 c 0,6.6 -5.1,12 -11.4,12 H 175 v -12.2 h 5.2 c 2.2,0 4.1,-1.9 4.1,-4.3 z"
   class="st9" /><path
   style="fill:#29abe2;stroke:#000000;stroke-width:0.25;stroke-miterlimit:10"
   inkscape:connector-curvature="0"
   id="path83"
   d="m 178.1,158 h -5.2 v -15 h -8.1 c -5.9,0 -10.8,5.4 -10.8,12 v 19 c 0,6.6 4.9,12 10.8,12 h 8.1 v -14 h 5.2 c 1.6,0 2.9,-1.5 2.9,-3.3 v -7.5 c 0,-1.7 -1.3,-3.2 -2.9,-3.2 z"
   class="st10" />
</svg>
