<?xml version="1.0" encoding="UTF-8" standalone="no"?>
<!-- Generator: Adobe Illustrator 21.0.0, SVG Export Plug-In . SVG Version: 6.00 Build 0)  -->

<svg
   xmlns:dc="http://purl.org/dc/elements/1.1/"
   xmlns:cc="http://creativecommons.org/ns#"
   xmlns:rdf="http://www.w3.org/1999/02/22-rdf-syntax-ns#"
   xmlns:svg="http://www.w3.org/2000/svg"
   xmlns="http://www.w3.org/2000/svg"
   xmlns:sodipodi="http://sodipodi.sourceforge.net/DTD/sodipodi-0.dtd"
   xmlns:inkscape="http://www.inkscape.org/namespaces/inkscape"
   version="1.1"
   x="0px"
   y="0px"
   viewBox="0 0 747.3988 824.24414"
   xml:space="preserve"
   id="svg547"
   sodipodi:docname="l2_concentrator_deployment.svg"
   inkscape:version="0.92.3 (2405546, 2018-03-11)"
   width="747.3988"
   height="824.24414"><metadata
   id="metadata553"><rdf:RDF><cc:Work
       rdf:about=""><dc:format>image/svg+xml</dc:format><dc:type
         rdf:resource="http://purl.org/dc/dcmitype/StillImage" /><dc:title></dc:title></cc:Work></rdf:RDF></metadata><defs
   id="defs551">
	
	


	
	


	
	

	
	

		
		

	
	
		
		

	
	
	
	

	
		
		

	
	

		
		

	
	
	


	

		
		

	
	

		
		
		

		

	
	
	


		
		

		

	
	
	


	
	


	
	

</defs><sodipodi:namedview
   pagecolor="#ffffff"
   bordercolor="#666666"
   borderopacity="1"
   objecttolerance="10"
   gridtolerance="10"
   guidetolerance="10"
   inkscape:pageopacity="0"
   inkscape:pageshadow="2"
   inkscape:window-width="3391"
   inkscape:window-height="1376"
   id="namedview549"
   showgrid="false"
   inkscape:zoom="1.1889169"
   inkscape:cx="105.29347"
   inkscape:cy="502.24843"
   inkscape:window-x="49"
   inkscape:window-y="27"
   inkscape:window-maximized="1"
   inkscape:current-layer="svg547"
   fit-margin-top="0"
   fit-margin-left="0"
   fit-margin-right="0"
   fit-margin-bottom="0" />
<style
   type="text/css"
   id="style2">
	.st0{fill:#FFFFFF;}
	.st1{fill:none;stroke:#000000;stroke-miterlimit:10;}
	.st2{fill:none;stroke:#000000;stroke-miterlimit:10;stroke-dasharray:8.0549,8.0549;}
	.st3{fill:none;stroke:#000000;stroke-miterlimit:10;stroke-dasharray:8.052,8.052;}
	.st4{fill:#AADFF2;}
	.st5{fill:none;stroke:#000000;stroke-miterlimit:10;stroke-dasharray:8.0706,8.0706;}
	.st6{fill:none;stroke:#000000;stroke-miterlimit:10;stroke-dasharray:8.1177,8.1177;}
	.st7{font-family:'MyriadPro-Regular';}
	.st8{font-size:21px;}
	.st9{fill:#E1E5BA;}
	.st10{fill:none;stroke:#000000;stroke-miterlimit:10;stroke-dasharray:8.1429,8.1429;}
	.st11{fill:#FFFFFF;stroke:#000000;stroke-width:3;stroke-miterlimit:10;}
	.st12{fill:#FF7BAC;}
	.st13{font-family:'IBMPlexSans';}
	.st14{fill:#29ABE2;}
	.st15{font-size:18px;}
	.st16{fill:#EF7C26;}
	.st17{fill:#C491F2;stroke:#000000;stroke-miterlimit:10;}
	.st18{fill:#FFFFFF;stroke:#000000;stroke-miterlimit:10;}
	.st19{fill:#F4BA51;}
	.st20{fill:#169ADB;stroke:#9BCCDD;stroke-width:0.5;stroke-miterlimit:10;}
	.st21{fill:url(#SVGID_1_);}
	.st22{font-size:11.4646px;}
	.st23{fill:url(#SVGID_2_);}
	.st24{font-size:9.2282px;}
	.st25{fill:#2B6782;}
	.st26{fill:#1E4C66;}
	.st27{font-size:16.5319px;}
</style>
<g
   id="Outter_dash_rectangle"
   transform="translate(-20.9,-4.5)">
	<g
   id="g24">
		<rect
   x="21.5"
   y="64"
   class="st0"
   width="741"
   height="628"
   id="rect4"
   style="fill:#ffffff" />
		<g
   id="g22">
			<polyline
   class="st1"
   points="762.5,688 762.5,692 758.5,692    "
   id="polyline6"
   style="fill:none;stroke:#000000;stroke-miterlimit:10" />
			<line
   class="st2"
   x1="750.40002"
   y1="692"
   x2="29.5"
   y2="692"
   id="line8"
   style="fill:none;stroke:#000000;stroke-miterlimit:10;stroke-dasharray:8.0549, 8.0549" />
			<polyline
   class="st1"
   points="25.5,692 21.5,692 21.5,688    "
   id="polyline10"
   style="fill:none;stroke:#000000;stroke-miterlimit:10" />
			<line
   class="st3"
   x1="21.5"
   y1="679.90002"
   x2="21.5"
   y2="72"
   id="line12"
   style="fill:none;stroke:#000000;stroke-miterlimit:10;stroke-dasharray:8.052, 8.052" />
			<polyline
   class="st1"
   points="21.5,68 21.5,64 25.5,64    "
   id="polyline14"
   style="fill:none;stroke:#000000;stroke-miterlimit:10" />
			<line
   class="st2"
   x1="33.599998"
   y1="64"
   x2="754.5"
   y2="64"
   id="line16"
   style="fill:none;stroke:#000000;stroke-miterlimit:10;stroke-dasharray:8.0549, 8.0549" />
			<polyline
   class="st1"
   points="758.5,64 762.5,64 762.5,68    "
   id="polyline18"
   style="fill:none;stroke:#000000;stroke-miterlimit:10" />
			<line
   class="st3"
   x1="762.5"
   y1="76.099998"
   x2="762.5"
   y2="684"
   id="line20"
   style="fill:none;stroke:#000000;stroke-miterlimit:10;stroke-dasharray:8.052, 8.052" />
		</g>
	</g>
</g>
<g
   id="g47"
   transform="translate(-20.9,-4.5)">
		<rect
   style="fill:#aadff2"
   id="rect27"
   height="146"
   width="694"
   class="st4"
   y="94.5"
   x="45.5" />
		<g
   id="g45">
			<polyline
   style="fill:none;stroke:#000000;stroke-miterlimit:10"
   id="polyline29"
   points="739.5,236.5 739.5,240.5 735.5,240.5    "
   class="st1" />
			<line
   style="fill:none;stroke:#000000;stroke-miterlimit:10;stroke-dasharray:8.0706, 8.0706"
   id="line31"
   y2="240.5"
   x2="53.5"
   y1="240.5"
   x1="727.40002"
   class="st5" />
			<polyline
   style="fill:none;stroke:#000000;stroke-miterlimit:10"
   id="polyline33"
   points="49.5,240.5 45.5,240.5 45.5,236.5    "
   class="st1" />
			<line
   style="fill:none;stroke:#000000;stroke-miterlimit:10;stroke-dasharray:8.1177, 8.1177"
   id="line35"
   y2="102.6"
   x2="45.5"
   y1="228.39999"
   x1="45.5"
   class="st6" />
			<polyline
   style="fill:none;stroke:#000000;stroke-miterlimit:10"
   id="polyline37"
   points="45.5,98.5 45.5,94.5 49.5,94.5    "
   class="st1" />
			<line
   style="fill:none;stroke:#000000;stroke-miterlimit:10;stroke-dasharray:8.0706, 8.0706"
   id="line39"
   y2="94.5"
   x2="731.5"
   y1="94.5"
   x1="57.599998"
   class="st5" />
			<polyline
   style="fill:none;stroke:#000000;stroke-miterlimit:10"
   id="polyline41"
   points="735.5,94.5 739.5,94.5 739.5,98.5    "
   class="st1" />
			<line
   style="fill:none;stroke:#000000;stroke-miterlimit:10;stroke-dasharray:8.1177, 8.1177"
   id="line43"
   y2="232.39999"
   x2="739.5"
   y1="106.6"
   x1="739.5"
   class="st6" />
		</g>
	</g><text
   style="font-size:21px;font-family:MyriadPro-Regular"
   id="text49"
   class="st7 st8"
   x="464.91592"
   y="221.5"><tspan
     y="221.5"
     x="464.91592"
     id="tspan29"
     sodipodi:role="line">Öffentlicher Adressraum</tspan></text>

<g
   id="g72"
   transform="translate(-20.9,-4.5)">
		<rect
   style="fill:#e1e5ba"
   id="rect52"
   height="407"
   width="694"
   class="st9"
   y="251.5"
   x="46.5" />
		<g
   id="g70">
			<polyline
   style="fill:none;stroke:#000000;stroke-miterlimit:10"
   id="polyline54"
   points="740.5,654.5 740.5,658.5 736.5,658.5    "
   class="st1" />
			<line
   style="fill:none;stroke:#000000;stroke-miterlimit:10;stroke-dasharray:8.0706, 8.0706"
   id="line56"
   y2="658.5"
   x2="54.5"
   y1="658.5"
   x1="728.40002"
   class="st5" />
			<polyline
   style="fill:none;stroke:#000000;stroke-miterlimit:10"
   id="polyline58"
   points="50.5,658.5 46.5,658.5 46.5,654.5    "
   class="st1" />
			<line
   style="fill:none;stroke:#000000;stroke-miterlimit:10;stroke-dasharray:8.1429, 8.1429"
   id="line60"
   y2="259.60001"
   x2="46.5"
   y1="646.40002"
   x1="46.5"
   class="st10" />
			<polyline
   style="fill:none;stroke:#000000;stroke-miterlimit:10"
   id="polyline62"
   points="46.5,255.5 46.5,251.5 50.5,251.5    "
   class="st1" />
			<line
   style="fill:none;stroke:#000000;stroke-miterlimit:10;stroke-dasharray:8.0706, 8.0706"
   id="line64"
   y2="251.5"
   x2="732.5"
   y1="251.5"
   x1="58.599998"
   class="st5" />
			<polyline
   style="fill:none;stroke:#000000;stroke-miterlimit:10"
   id="polyline66"
   points="736.5,251.5 740.5,251.5 740.5,255.5    "
   class="st1" />
			<line
   style="fill:none;stroke:#000000;stroke-miterlimit:10;stroke-dasharray:8.1429, 8.1429"
   id="line68"
   y2="650.40002"
   x2="740.5"
   y1="263.60001"
   x1="740.5"
   class="st10" />
		</g>
	</g><text
   style="font-size:21px;font-family:MyriadPro-Regular"
   id="text74"
   class="st7 st8"
   x="507.62881"
   y="638.5"><tspan
     y="638.5"
     x="507.62881"
     id="tspan44"
     sodipodi:role="line">Privater Adressraum</tspan></text>

<g
   id="ibm_cloud"
   transform="translate(-20.9,-4.5)">
	<g
   id="g81">
		<path
   class="st11"
   d="m 155.2,59.9 c 0,-11.4 -13.4,-20.6 -29.9,-20.6 -1.6,0 -3.2,0.1 -4.7,0.3 -1,-2.2 -2.6,-4.2 -4.6,-5.8 C 111.3,30 105.2,29.3 100.3,31.5 97.5,16.9 86,6 72.2,6 57.8,6 46,17.8 43.8,33.2 c -0.1,0 -0.2,0 -0.4,0 -11.6,0 -21,10.6 -21,23.7 0,10 5.5,18.5 13.2,22 v 0.9 H 38 c 1.7,0.5 3.5,0.8 5.3,0.8 1.8,0 3.6,-0.3 5.3,-0.8 H 117 c 2.6,0.5 5.3,0.8 8.1,0.8 2.8,0 5.5,-0.3 8.1,-0.8 h 2.4 v -0.5 c 11.5,-3 19.6,-10.5 19.6,-19.4 z"
   id="path77"
   inkscape:connector-curvature="0"
   style="fill:#ffffff;stroke:#000000;stroke-width:3;stroke-miterlimit:10" />
		<text
   transform="translate(35,62)"
   class="st7 st8"
   id="text79"
   style="font-size:21px;font-family:MyriadPro-Regular"><tspan
     sodipodi:role="line"
     id="tspan49"
     x="0"
     y="0">IBM Cloud</tspan></text>


	</g>
</g>
<g
   id="lines"
   transform="translate(-20.9,-4.5)">
</g>
<g
   id="g99"
   transform="translate(-20.9,-4.5)">
			<g
   id="g97">
				<g
   id="g89">
					<path
   class="st12"
   d="m 102.3,190.5 v 0 l -0.4,-0.1 C 92.6,189.3 85.5,180.1 85.5,169 c 0,-11.1 7,-20.3 16.4,-21.4 l 0.4,-0.1 v -0.1 h 583.6 0.2 c 9.2,0.4 16.4,9.8 16.4,21.5 0,11.7 -7.2,21.1 -16.4,21.5 h -0.4 -583.4 z"
   id="path85"
   inkscape:connector-curvature="0"
   style="fill:#ff7bac" />
					<path
   d="m 685.7,148 h 0.4 c 8.9,0.4 15.9,9.6 15.9,21 0,11.4 -7,20.6 -15.9,21 h -0.3 -583 l -0.9,-0.1 C 92.8,188.9 86,179.9 86,169 c 0,-10.9 6.9,-19.9 15.9,-20.9 l 0.9,-0.1 h 582.9 m 0.5,-1 H 101.8 v 0.1 C 92.4,148.2 85,157.6 85,169 c 0,11.4 7.4,20.8 16.8,21.9 v 0.1 h 584.3 v 0 c 9.3,-0.4 16.8,-10.1 16.8,-22 0.1,-11.9 -7.4,-21.6 -16.7,-22 z"
   id="path87"
   inkscape:connector-curvature="0" />
				</g>
				<g
   id="g95">
					<path
   class="st0"
   d="m 684.4,186.9 c -6.7,0 -12.1,-8.2 -12.1,-18.4 0,-10.1 5.4,-18.4 12.1,-18.4 6.7,0 12.1,8.2 12.1,18.4 0,10.2 -5.5,18.4 -12.1,18.4 z"
   id="path91"
   inkscape:connector-curvature="0"
   style="fill:#ffffff" />
					<path
   d="m 684.4,150.7 c 6.4,0 11.6,8 11.6,17.9 0,9.8 -5.2,17.9 -11.6,17.9 -6.4,0 -11.6,-8 -11.6,-17.9 -0.1,-9.9 5.2,-17.9 11.6,-17.9 m 0,-1 c -7,0 -12.6,8.4 -12.6,18.9 0,10.4 5.7,18.9 12.6,18.9 7,0 12.6,-8.4 12.6,-18.9 0,-10.5 -5.7,-18.9 -12.6,-18.9 z"
   id="path93"
   inkscape:connector-curvature="0" />
				</g>
			</g>
		</g><text
   class="st13 st8"
   id="text101"
   style="font-size:21px;font-family:IBMPlexSans"
   x="240.8674"
   y="171.25"><tspan
     sodipodi:role="line"
     id="tspan63"
     x="240.8674"
     y="171.25">Öffentliches VLAN (nativ)</tspan></text>

<g
   id="security_lock_icon"
   transform="translate(-20.9,-4.5)">
	<g
   id="g138">
		<line
   class="st1"
   x1="334.5"
   y1="190.5"
   x2="334.5"
   y2="565.5"
   id="line106"
   style="fill:none;stroke:#000000;stroke-miterlimit:10" />
		<line
   class="st1"
   x1="319.5"
   y1="407.5"
   x2="319.5"
   y2="504.5"
   id="line108"
   style="fill:none;stroke:#000000;stroke-miterlimit:10" />
		<line
   class="st1"
   x1="349.5"
   y1="407.5"
   x2="349.5"
   y2="438.5"
   id="line110"
   style="fill:none;stroke:#000000;stroke-miterlimit:10" />
		<g
   id="g136">
			<path
   class="st14"
   d="m 350,407.8 h -30 c -6.6,0 -12,-5.4 -12,-12 v -25 c 0,-6.6 5.4,-12 12,-12 h 30 c 6.6,0 12,5.4 12,12 v 25 c 0,6.6 -5.4,12 -12,12 z"
   id="path112"
   inkscape:connector-curvature="0"
   style="fill:#29abe2" />
			<g
   id="g134">
				<g
   id="g120">
					<path
   class="st0"
   d="M 340.9,380.8 H 330 c -2.2,0 -4.1,-1.8 -4.1,-4.1 v -5.9 c 0,-2.2 1.8,-4.1 4.1,-4.1 h 10.9 c 2.2,0 4.1,1.8 4.1,4.1 v 5.9 c 0,2.2 -1.8,4.1 -4.1,4.1 z"
   id="path114"
   inkscape:connector-curvature="0"
   style="fill:#ffffff" />
					<path
   class="st14"
   d="M 338.9,378.8 H 332 c -1.1,0 -2.1,-0.9 -2.1,-2.1 v -4 c 0,-1.1 0.9,-2.1 2.1,-2.1 h 6.9 c 1.1,0 2.1,0.9 2.1,2.1 v 4 c 0,1.1 -0.9,2.1 -2.1,2.1 z"
   id="path116"
   inkscape:connector-curvature="0"
   style="fill:#29abe2" />
					<path
   class="st0"
   d="M 346.9,399.8 H 324 c -2.2,0 -4.1,-1.8 -4.1,-4.1 v -13.9 c 0,-2.2 1.8,-4.1 4.1,-4.1 h 22.9 c 2.2,0 4.1,1.8 4.1,4.1 v 13.9 c 0,2.2 -1.8,4.1 -4.1,4.1 z"
   id="path118"
   inkscape:connector-curvature="0"
   style="fill:#ffffff" />
				</g>
				<g
   id="g132">
					<ellipse
   class="st14"
   cx="336"
   cy="386.29999"
   rx="4"
   ry="3.5"
   id="ellipse122"
   style="fill:#29abe2" />
					<path
   class="st14"
   d="m 335.5,396.8 v 0 c -0.8,0 -1.5,-0.7 -1.5,-1.5 v -7 c 0,-0.8 0.7,-1.5 1.5,-1.5 v 0 c 0.8,0 1.5,0.7 1.5,1.5 v 7 c 0,0.8 -0.7,1.5 -1.5,1.5 z"
   id="path124"
   inkscape:connector-curvature="0"
   style="fill:#29abe2" />
					<path
   class="st14"
   d="m 338.5,391.8 h -2 c -0.3,0 -0.5,-0.2 -0.5,-0.5 v 0 c 0,-0.3 0.2,-0.5 0.5,-0.5 h 2 c 0.3,0 0.5,0.2 0.5,0.5 v 0 c 0,0.2 -0.2,0.5 -0.5,0.5 z"
   id="path126"
   inkscape:connector-curvature="0"
   style="fill:#29abe2" />
					<path
   class="st14"
   d="m 338.5,393.8 h -2 c -0.3,0 -0.5,-0.2 -0.5,-0.5 v 0 c 0,-0.3 0.2,-0.5 0.5,-0.5 h 2 c 0.3,0 0.5,0.2 0.5,0.5 v 0 c 0,0.2 -0.2,0.5 -0.5,0.5 z"
   id="path128"
   inkscape:connector-curvature="0"
   style="fill:#29abe2" />
					<path
   class="st14"
   d="m 338.5,395.8 h -2 c -0.3,0 -0.5,-0.2 -0.5,-0.5 v 0 c 0,-0.3 0.2,-0.5 0.5,-0.5 h 2 c 0.3,0 0.5,0.2 0.5,0.5 v 0 c 0,0.2 -0.2,0.5 -0.5,0.5 z"
   id="path130"
   inkscape:connector-curvature="0"
   style="fill:#29abe2" />
				</g>
			</g>
		</g>
	</g>
</g>
<g
   id="g165"
   transform="translate(-20.9,-4.5)">
		<path
   style="fill:#29abe2"
   inkscape:connector-curvature="0"
   id="path141"
   d="m 383,759 h -19.2 c -6.6,0 -12,-5.4 -12,-12 v -15.2 c 0,-6.6 5.4,-12 12,-12 H 383 c 6.6,0 12,5.4 12,12 V 747 c 0,6.6 -5.4,12 -12,12 z"
   class="st14" />
		<g
   id="g163">
			<g
   id="g149">
				<path
   style="fill:#ffffff"
   inkscape:connector-curvature="0"
   id="path143"
   d="m 377.3,737.4 h -7.1 c -2.2,0 -4.1,-1.8 -4.1,-4.1 v -3.1 c 0,-2.2 1.8,-4.1 4.1,-4.1 h 7.1 c 2.2,0 4.1,1.8 4.1,4.1 v 3.1 c 0,2.3 -1.8,4.1 -4.1,4.1 z"
   class="st0" />
				<path
   style="fill:#29abe2"
   inkscape:connector-curvature="0"
   id="path145"
   d="m 376.1,735.8 h -4.7 c -1.1,0 -2.1,-0.9 -2.1,-2.1 v -2.4 c 0,-1.1 0.9,-2.1 2.1,-2.1 h 4.7 c 1.1,0 2.1,0.9 2.1,2.1 v 2.4 c 0,1.2 -0.9,2.1 -2.1,2.1 z"
   class="st14" />
				<path
   style="fill:#ffffff"
   inkscape:connector-curvature="0"
   id="path147"
   d="m 382.1,752.6 h -16.7 c -2.2,0 -4.1,-1.8 -4.1,-4.1 V 739 c 0,-2.2 1.8,-4.1 4.1,-4.1 h 16.7 c 2.2,0 4.1,1.8 4.1,4.1 v 9.5 c 0,2.3 -1.8,4.1 -4.1,4.1 z"
   class="st0" />
			</g>
			<g
   id="g161">
				<ellipse
   style="fill:#29abe2"
   id="ellipse151"
   ry="2.8"
   rx="3.2"
   cy="741.79999"
   cx="374.20001"
   class="st14" />
				<path
   style="fill:#29abe2"
   inkscape:connector-curvature="0"
   id="path153"
   d="m 373.8,750.2 v 0 c -0.7,0 -1.2,-0.5 -1.2,-1.2 v -5.6 c 0,-0.7 0.5,-1.2 1.2,-1.2 v 0 c 0.7,0 1.2,0.5 1.2,1.2 v 5.6 c 0,0.7 -0.6,1.2 -1.2,1.2 z"
   class="st14" />
				<path
   style="fill:#29abe2"
   inkscape:connector-curvature="0"
   id="path155"
   d="m 376.2,746.2 h -1.6 c -0.2,0 -0.4,-0.2 -0.4,-0.4 v 0 c 0,-0.2 0.2,-0.4 0.4,-0.4 h 1.6 c 0.2,0 0.4,0.2 0.4,0.4 v 0 c 0,0.2 -0.2,0.4 -0.4,0.4 z"
   class="st14" />
				<path
   style="fill:#29abe2"
   inkscape:connector-curvature="0"
   id="path157"
   d="m 376.2,747.8 h -1.6 c -0.2,0 -0.4,-0.2 -0.4,-0.4 v 0 c 0,-0.2 0.2,-0.4 0.4,-0.4 h 1.6 c 0.2,0 0.4,0.2 0.4,0.4 v 0 c 0,0.2 -0.2,0.4 -0.4,0.4 z"
   class="st14" />
				<path
   style="fill:#29abe2"
   inkscape:connector-curvature="0"
   id="path159"
   d="m 376.2,749.4 h -1.6 c -0.2,0 -0.4,-0.2 -0.4,-0.4 v 0 c 0,-0.2 0.2,-0.4 0.4,-0.4 h 1.6 c 0.2,0 0.4,0.2 0.4,0.4 v 0 c 0,0.2 -0.2,0.4 -0.4,0.4 z"
   class="st14" />
			</g>
		</g>
	</g><text
   style="font-size:18px;font-family:MyriadPro-Regular"
   id="text167"
   class="st7 st15"
   x="282.10001"
   y="775.5"><tspan
     y="775.5"
     x="282.10001"
     id="tspan99"
     sodipodi:role="line">Cloud-Gateway</tspan></text>

<g
   id="g202"
   transform="translate(-20.9,-4.5)">
		<path
   style="fill:#29abe2"
   inkscape:connector-curvature="0"
   id="path170"
   d="m 533,759 h -21.8 c -6.6,0 -12,-5.4 -12,-12 v -17.5 c 0,-6.6 5.4,-12 12,-12 H 533 c 6.6,0 12,5.4 12,12 V 747 c 0,6.6 -5.4,12 -12,12 z"
   class="st14" />
		<g
   id="g200">
			<g
   id="g194">
				<g
   id="g188">
					<g
   id="g182">
						<g
   id="g176">
							<ellipse
   style="fill:#ffffff"
   id="ellipse172"
   ry="11.9"
   rx="12.3"
   cy="738.09998"
   cx="522"
   class="st0" />
							<ellipse
   style="fill:#29abe2"
   id="ellipse174"
   ry="5.3000002"
   rx="5.5"
   cy="738.09998"
   cx="522"
   class="st14" />
						</g>
						<rect
   style="fill:#ffffff"
   id="rect178"
   height="4.1999998"
   width="6.5999999"
   class="st0"
   y="723"
   x="518.29999" />
						<rect
   style="fill:#ffffff"
   id="rect180"
   height="5.0999999"
   width="5.9000001"
   class="st0"
   y="748.40002"
   x="519" />
					</g>
					<rect
   style="fill:#ffffff"
   id="rect184"
   height="5.9000001"
   width="5.0999999"
   class="st0"
   y="735.29999"
   x="532.70001" />
					<rect
   style="fill:#ffffff"
   id="rect186"
   height="5.9000001"
   width="5.0999999"
   class="st0"
   y="735.29999"
   x="506.5" />
				</g>
				
					<rect
   style="fill:#ffffff"
   id="rect190"
   height="5.5999999"
   width="5.5999999"
   class="st0"
   transform="matrix(0.7526,0.6585,-0.6585,0.7526,606.7064,-156.8211)"
   y="726.20001"
   x="509.29999" />
				
					<rect
   style="fill:#ffffff"
   id="rect192"
   height="5.5999999"
   width="7.3000002"
   class="st0"
   transform="matrix(0.7526,0.6585,-0.6585,0.7526,623.8824,-165.1461)"
   y="744.90002"
   x="528" />
			</g>
			
				<rect
   style="fill:#ffffff"
   id="rect196"
   height="6.0999999"
   width="5.5"
   class="st0"
   transform="matrix(0.7071,0.7071,-0.7071,0.7071,671.8127,-162.7813)"
   y="726.5"
   x="529.59998" />
			
				<rect
   style="fill:#ffffff"
   id="rect198"
   height="5.5"
   width="5.5"
   class="st0"
   transform="matrix(0.7071,0.7071,-0.7071,0.7071,678.7737,-143.5796)"
   y="744.79999"
   x="509.89999" />
		</g>
	</g><text
   style="font-style:normal;font-variant:normal;font-weight:normal;font-stretch:normal;font-size:18px;font-family:MyriadPro-Regular;-inkscape-font-specification:'MyriadPro-Regular, Normal';font-variant-ligatures:normal;font-variant-caps:normal;font-variant-numeric:normal;font-feature-settings:normal;text-align:center;writing-mode:lr-tb;text-anchor:middle"
   id="text204"
   class="st7 st15"
   x="501.10001"
   y="775.5"><tspan
     y="775.5"
     x="501.10001"
     id="tspan120"
     sodipodi:role="line">WAN-</tspan><tspan
     y="798"
     x="501.10001"
     sodipodi:role="line"
     id="tspan461">Optimierungs-</tspan><tspan
     y="820.5"
     x="501.10001"
     sodipodi:role="line"
     id="tspan463">programm</tspan></text>

<g
   id="gear_icon"
   transform="translate(-20.9,-4.5)">
	<g
   id="g243">
		<line
   class="st1"
   x1="402.5"
   y1="407.5"
   x2="402.5"
   y2="437.5"
   id="line207"
   style="fill:none;stroke:#000000;stroke-miterlimit:10" />
		<g
   id="g241">
			<path
   class="st14"
   d="m 418.3,407.8 h -30 c -6.6,0 -12,-5.4 -12,-12 v -25 c 0,-6.6 5.4,-12 12,-12 h 30 c 6.6,0 12,5.4 12,12 v 25 c 0,6.6 -5.4,12 -12,12 z"
   id="path209"
   inkscape:connector-curvature="0"
   style="fill:#29abe2" />
			<g
   id="g239">
				<g
   id="g233">
					<g
   id="g227">
						<g
   id="g221">
							<g
   id="g215">
								<ellipse
   class="st0"
   cx="403.10001"
   cy="383.10001"
   rx="14.5"
   ry="14"
   id="ellipse211"
   style="fill:#ffffff" />
								<ellipse
   class="st14"
   cx="403.10001"
   cy="383.10001"
   rx="6.5"
   ry="6.3000002"
   id="ellipse213"
   style="fill:#29abe2" />
							</g>
							<rect
   x="398.79999"
   y="365.29999"
   class="st0"
   width="7.8000002"
   height="5"
   id="rect217"
   style="fill:#ffffff" />
							<rect
   x="399.60001"
   y="395.29999"
   class="st0"
   width="7"
   height="6"
   id="rect219"
   style="fill:#ffffff" />
						</g>
						<rect
   x="415.79999"
   y="379.79999"
   class="st0"
   width="6"
   height="7"
   id="rect223"
   style="fill:#ffffff" />
						<rect
   x="384.79999"
   y="379.79999"
   class="st0"
   width="6"
   height="7"
   id="rect225"
   style="fill:#ffffff" />
					</g>
					
						<rect
   x="388.10001"
   y="369"
   transform="matrix(0.7526,0.6585,-0.6585,0.7526,341.9793,-165.5926)"
   class="st0"
   width="6.5999999"
   height="6.5999999"
   id="rect229"
   style="fill:#ffffff" />
					
						<rect
   x="410.20001"
   y="391"
   transform="matrix(0.7526,0.6585,-0.6585,0.7526,362.2429,-175.4187)"
   class="st0"
   width="8.6000004"
   height="6.5999999"
   id="rect231"
   style="fill:#ffffff" />
				</g>
				
					<rect
   x="412.10001"
   y="369.39999"
   transform="matrix(0.7071,0.7071,-0.7071,0.7071,385.4124,-184.4679)"
   class="st0"
   width="6.5"
   height="7.1999998"
   id="rect235"
   style="fill:#ffffff" />
				
					<rect
   x="388.89999"
   y="391"
   transform="matrix(0.7071,0.7071,-0.7071,0.7071,393.6287,-161.8037)"
   class="st0"
   width="6.5"
   height="6.5"
   id="rect237"
   style="fill:#ffffff" />
			</g>
		</g>
	</g>
</g>
<g
   id="L2_concentrator"
   transform="translate(-20.9,-4.5)">
	<g
   id="g270">
		<line
   class="st1"
   x1="469.5"
   y1="408.5"
   x2="469.5"
   y2="437.5"
   id="line246"
   style="fill:none;stroke:#000000;stroke-miterlimit:10" />
		<g
   id="g268">
			<path
   class="st14"
   d="m 485.5,408.6 h -30 c -6.6,0 -12,-5.4 -12,-12 v -25 c 0,-6.6 5.4,-12 12,-12 h 30 c 6.6,0 12,5.4 12,12 v 25 c 0,6.6 -5.4,12 -12,12 z"
   id="path248"
   inkscape:connector-curvature="0"
   style="fill:#29abe2" />
			<g
   id="g266">
				<rect
   x="455.5"
   y="371.5"
   class="st0"
   width="30"
   height="15.9"
   id="rect250"
   style="fill:#ffffff" />
				<rect
   x="460.20001"
   y="383.60001"
   class="st0"
   width="20.6"
   height="7.5"
   id="rect252"
   style="fill:#ffffff" />
				<rect
   x="460.20001"
   y="377.10001"
   class="st14"
   width="20.6"
   height="1.9"
   id="rect254"
   style="fill:#29abe2" />
				<rect
   x="467.70001"
   y="389.29999"
   class="st0"
   width="5.5999999"
   height="13.1"
   id="rect256"
   style="fill:#ffffff" />
				<rect
   x="458.29999"
   y="365.79999"
   class="st0"
   width="5.5999999"
   height="10.3"
   id="rect258"
   style="fill:#ffffff" />
				<rect
   x="466.79999"
   y="365.79999"
   class="st0"
   width="2.8"
   height="3.8"
   id="rect260"
   style="fill:#ffffff" />
				<rect
   x="471.39999"
   y="365.79999"
   class="st0"
   width="2.8"
   height="3.8"
   id="rect262"
   style="fill:#ffffff" />
				<rect
   x="477.10001"
   y="365.79999"
   class="st0"
   width="5.5999999"
   height="10.3"
   id="rect264"
   style="fill:#ffffff" />
			</g>
		</g>
	</g>
</g>
<g
   id="g286"
   transform="matrix(1.0543611,0,0,1,-59.164759,-4.5)">
			<g
   id="g278">
				<path
   class="st16"
   d="m 103.3,608.5 v 0 l -0.4,-0.1 c -9.3,-1 -16.4,-10 -16.4,-20.9 0,-10.9 7,-19.9 16.4,-20.9 h 0.4 v 0 h 583.6 0.2 c 9.2,0.4 16.4,9.6 16.4,21 0,11.4 -7.2,20.6 -16.4,21 h -0.4 -583.4 z"
   id="path274"
   inkscape:connector-curvature="0"
   style="fill:#ef7c26" />
				<path
   d="m 686.7,567 h 0.4 c 8.9,0.4 15.9,9.4 15.9,20.5 0,11.1 -7,20.1 -15.9,20.5 h -0.3 -583 l -0.9,-0.1 c -9.1,-1 -15.9,-9.8 -15.9,-20.4 0,-10.6 6.9,-19.4 15.9,-20.4 l 0.9,-0.1 h 582.9 m 0.5,-1 H 102.8 v 0.1 c -9.4,1 -16.8,10.2 -16.8,21.4 0,11.2 7.4,20.4 16.8,21.4 v 0.1 h 584.3 v 0 c 9.3,-0.4 16.8,-9.9 16.8,-21.5 0,-11.6 -7.4,-21.1 -16.7,-21.5 z"
   id="path276"
   inkscape:connector-curvature="0" />
			</g>
			<g
   id="g284">
				<path
   class="st0"
   d="m 685.4,605 c -6.7,0 -12.1,-8 -12.1,-17.9 0,-9.9 5.4,-17.9 12.1,-17.9 6.7,0 12.1,8 12.1,17.9 0,9.8 -5.5,17.9 -12.1,17.9 z"
   id="path280"
   inkscape:connector-curvature="0"
   style="fill:#ffffff" />
				<path
   d="m 685.4,569.6 c 6.4,0 11.6,7.8 11.6,17.4 0,9.6 -5.2,17.4 -11.6,17.4 -6.4,0 -11.6,-7.8 -11.6,-17.4 -0.1,-9.5 5.2,-17.4 11.6,-17.4 m 0,-1 c -7,0 -12.6,8.3 -12.6,18.4 0,10.1 5.7,18.4 12.6,18.4 7,0 12.6,-8.3 12.6,-18.4 0,-10.1 -5.7,-18.4 -12.6,-18.4 z"
   id="path282"
   inkscape:connector-curvature="0" />
			</g>
		</g><text
   class="st7 st8"
   id="text288"
   style="font-size:21px;font-family:MyriadPro-Regular"
   x="174.32034"
   y="591.5"><tspan
     sodipodi:role="line"
     id="tspan166"
     x="174.32034"
     y="591.5">vSAN &amp; vMotion -- Privates VLAN B</tspan></text>

<g
   id="g307"
   transform="matrix(1.1474524,0,0,1,-124.85394,-4.5)">
			<g
   id="g305">
				<g
   id="g297">
					<path
   class="st14"
   d="m 311.5,480.5 v 0 l -0.4,-0.1 c -6,-1 -10.6,-10.2 -10.6,-20.9 0,-10.7 4.7,-19.9 10.6,-20.9 l 0.4,-0.1 v 0 h 382.2 0.2 c 5.8,0.4 10.6,9.8 10.6,21 0,11.2 -4.7,20.6 -10.6,21 h -0.3 z"
   id="path293"
   inkscape:connector-curvature="0"
   style="fill:#29abe2" />
					<path
   d="m 693.6,439 h 0.3 c 5.6,0.4 10.1,9.5 10.1,20.5 0,11 -4.5,20.1 -10.1,20.5 h -0.2 -382 l -0.5,-0.1 c -5.7,-1 -10.2,-9.9 -10.2,-20.4 0,-10.5 4.5,-19.4 10.2,-20.4 l 0.5,-0.1 h 381.9 m 0.4,-1 H 311 v 0.1 c -6.2,1 -11,10.2 -11,21.4 0,11.2 4.8,20.4 11,21.4 v 0.1 h 383 v 0 c 6.1,-0.4 11,-9.9 11,-21.5 0,-11.6 -4.9,-21.1 -11,-21.5 z"
   id="path295"
   inkscape:connector-curvature="0" />
				</g>
				<g
   id="g303">
					<path
   class="st0"
   d="m 688.2,477 c -6.8,0 -12.4,-8 -12.4,-17.9 0,-9.9 5.6,-17.9 12.4,-17.9 6.8,0 12.4,8 12.4,17.9 0,9.8 -5.6,17.9 -12.4,17.9 z"
   id="path299"
   inkscape:connector-curvature="0"
   style="fill:#ffffff" />
					<path
   d="m 688.2,441.6 c 6.6,0 11.9,7.8 11.9,17.4 0,9.6 -5.3,17.4 -11.9,17.4 -6.6,0 -11.9,-7.8 -11.9,-17.4 0,-9.5 5.3,-17.4 11.9,-17.4 m 0,-1 c -7.1,0 -12.9,8.3 -12.9,18.4 0,10.2 5.8,18.4 12.9,18.4 7.1,0 12.9,-8.3 12.9,-18.4 0,-10.1 -5.8,-18.4 -12.9,-18.4 z"
   id="path301"
   inkscape:connector-curvature="0" />
				</g>
			</g>
		</g><text
   class="st7 st8"
   id="text309"
   style="font-size:21px;font-family:MyriadPro-Regular"
   x="279.63934"
   y="462.5"><tspan
     sodipodi:role="line"
     id="tspan179"
     x="279.63934"
     y="462.5">Netz logischer Switches (VXLAN)</tspan></text>

<g
   id="g319"
   transform="translate(-20.9,-4.5)">
			<path
   class="st17"
   d="M 682.5,368.5 H 529 c -9.4,0 -17,8.3 -17,18.5 0,10.2 7.6,18.5 17,18.5 h 153.5 c 9.4,0 17,-8.3 17,-18.5 0,-10.2 -7.6,-18.5 -17,-18.5 z"
   id="path315"
   inkscape:connector-curvature="0"
   style="fill:#c491f2;stroke:#000000;stroke-miterlimit:10" />
			<ellipse
   class="st18"
   cx="681.90002"
   cy="387"
   rx="11.4"
   ry="15.5"
   id="ellipse317"
   style="fill:#ffffff;stroke:#000000;stroke-miterlimit:10" />
		</g><text
   class="st7 st15"
   id="text321"
   style="font-size:18px;font-family:MyriadPro-Regular"
   x="495.60001"
   y="388.5"><tspan
     sodipodi:role="line"
     id="tspan188"
     x="495.60001"
     y="388.5">Erweitertes Netz</tspan></text>

<g
   id="g339"
   transform="matrix(1.0543611,0,0,1,-59.164759,-4.5)">
			<g
   id="g331">
				<path
   class="st19"
   d="m 102.3,547.5 v 0 l -0.4,-0.1 C 92.6,546.3 85.5,537.1 85.5,526 c 0,-11.1 7,-20.3 16.4,-21.4 l 0.4,-0.1 v -0.1 h 583.6 0.2 c 9.2,0.4 16.4,9.8 16.4,21.5 0,11.7 -7.2,21.1 -16.4,21.5 h -0.4 -583.4 z"
   id="path327"
   inkscape:connector-curvature="0"
   style="fill:#f4ba51" />
				<path
   d="m 685.7,505 h 0.4 c 8.9,0.4 15.9,9.6 15.9,21 0,11.4 -7,20.6 -15.9,21 h -0.3 -583 l -0.9,-0.1 C 92.8,545.9 86,536.9 86,526 c 0,-10.9 6.9,-19.9 15.9,-20.9 l 0.9,-0.1 h 582.9 m 0.5,-1 H 101.8 v 0.1 C 92.4,505.2 85,514.6 85,526 c 0,11.4 7.4,20.8 16.8,21.9 v 0.1 h 584.3 v 0 c 9.3,-0.4 16.8,-10.1 16.8,-22 0.1,-11.9 -7.4,-21.6 -16.7,-22 z"
   id="path329"
   inkscape:connector-curvature="0" />
			</g>
			<g
   id="g337">
				<path
   class="st0"
   d="m 684.4,543.9 c -6.7,0 -12.1,-8.2 -12.1,-18.4 0,-10.1 5.4,-18.4 12.1,-18.4 6.7,0 12.1,8.2 12.1,18.4 0,10.2 -5.5,18.4 -12.1,18.4 z"
   id="path333"
   inkscape:connector-curvature="0"
   style="fill:#ffffff" />
				<path
   d="m 684.4,507.7 c 6.4,0 11.6,8 11.6,17.9 0,9.8 -5.2,17.9 -11.6,17.9 -6.4,0 -11.6,-8 -11.6,-17.9 -0.1,-9.9 5.2,-17.9 11.6,-17.9 m 0,-1 c -7,0 -12.6,8.4 -12.6,18.9 0,10.4 5.7,18.9 12.6,18.9 7,0 12.6,-8.4 12.6,-18.9 0,-10.5 -5.7,-18.9 -12.6,-18.9 z"
   id="path335"
   inkscape:connector-curvature="0" />
			</g>
		</g><text
   class="st7 st8"
   id="text341"
   style="font-size:21px;font-family:MyriadPro-Regular"
   x="100.05874"
   y="528.5"><tspan
     sodipodi:role="line"
     id="tspan201"
     x="100.05874"
     y="528.5">Management &amp; VXLAN -- Privates VLAN A (nativ)</tspan></text>

<g
   id="P_x2F_V"
   transform="translate(-20.9,-4.5)">
	<g
   id="g417">
		<line
   class="st1"
   x1="121"
   y1="190"
   x2="121"
   y2="503.5"
   id="line346"
   style="fill:none;stroke:#000000;stroke-miterlimit:10" />
		<g
   id="g415">
			<g
   id="g413">
				<g
   id="g371">
					<rect
   x="97.5"
   y="280"
   class="st20"
   width="47.299999"
   height="47.299999"
   id="rect348"
   style="fill:#169adb;stroke:#9bccdd;stroke-width:0.5;stroke-miterlimit:10" />
					<linearGradient
   id="SVGID_1_"
   gradientUnits="userSpaceOnUse"
   x1="128.96271"
   y1="296.72119"
   x2="117.5096"
   y2="338.84561">
						<stop
   offset="0"
   style="stop-color:#CCE0F4"
   id="stop350" />
						<stop
   offset="7.748766e-02"
   style="stop-color:#C5DDF3"
   id="stop352" />
						<stop
   offset="0.1918"
   style="stop-color:#B1D5EF"
   id="stop354" />
						<stop
   offset="0.329"
   style="stop-color:#90C9EA"
   id="stop356" />
						<stop
   offset="0.4838"
   style="stop-color:#63B7E2"
   id="stop358" />
						<stop
   offset="0.6515"
   style="stop-color:#2AA1D9"
   id="stop360" />
						<stop
   offset="0.6829"
   style="stop-color:#1E9CD7"
   id="stop362" />
						<stop
   offset="0.8652"
   style="stop-color:#0075BE"
   id="stop364" />
						<stop
   offset="0.9944"
   style="stop-color:#005B97"
   id="stop366" />
					</linearGradient>
					<polygon
   class="st21"
   points="143,281.8 143,325.5 99.3,325.5 "
   id="polygon369"
   style="fill:url(#SVGID_1_)" />
				</g>
				<text
   transform="translate(101.084,315.4692)"
   class="st0 st13 st22"
   id="text373"
   style="font-size:11.46459961px;font-family:IBMPlexSans;fill:#ffffff"><tspan
     sodipodi:role="line"
     id="tspan220"
     x="0"
     y="0">P</tspan></text>


				<text
   transform="translate(109.6836,324.0688)"
   class="st0 st13 st22"
   id="text375"
   style="font-size:11.46459961px;font-family:IBMPlexSans;fill:#ffffff"><tspan
     sodipodi:role="line"
     id="tspan223"
     x="0"
     y="0">V</tspan></text>


				<g
   id="g393">
					<g
   id="g383">
						<g
   id="g381">
							<g
   id="g379">
								<polygon
   class="st0"
   points="105.8,297.8 112.2,291.8 103.1,288.6 "
   id="polygon377"
   style="fill:#ffffff" />
							</g>
						</g>
					</g>
					<g
   id="g391">
						<g
   id="g389">
							<g
   id="g387">
								
									<rect
   x="110"
   y="293.5"
   transform="matrix(0.7268,-0.6868,0.6868,0.7268,-174.0401,158.3445)"
   class="st0"
   width="4.0999999"
   height="9"
   id="rect385"
   style="fill:#ffffff" />
							</g>
						</g>
					</g>
				</g>
				<g
   id="g411">
					<g
   id="g401">
						<g
   id="g399">
							<g
   id="g397">
								<polygon
   class="st0"
   points="125.5,318.2 132.2,311.8 135.6,322.1 "
   id="polygon395"
   style="fill:#ffffff" />
							</g>
						</g>
					</g>
					<g
   id="g409">
						<g
   id="g407">
							<g
   id="g405">
								
									<rect
   x="123.2"
   y="306.10001"
   transform="matrix(0.7268,-0.6868,0.6868,0.7268,-179.5351,171.1431)"
   class="st0"
   width="4.3000002"
   height="10.4"
   id="rect403"
   style="fill:#ffffff" />
							</g>
						</g>
					</g>
				</g>
			</g>
		</g>
	</g>
</g>
<g
   id="g487"
   transform="translate(-20.9,-4.5)">
		<g
   id="g485">
			<g
   id="g443">
				<rect
   style="fill:#169adb;stroke:#9bccdd;stroke-width:0.5;stroke-miterlimit:10"
   id="rect420"
   height="38.099998"
   width="38.099998"
   class="st20"
   y="720.90002"
   x="50.5" />
				<linearGradient
   y2="768.30042"
   x2="66.6063"
   y1="734.39331"
   x1="75.825302"
   gradientUnits="userSpaceOnUse"
   id="SVGID_2_">
					<stop
   id="stop422"
   style="stop-color:#CCE0F4"
   offset="0" />
					<stop
   id="stop424"
   style="stop-color:#C5DDF3"
   offset="7.748766e-02" />
					<stop
   id="stop426"
   style="stop-color:#B1D5EF"
   offset="0.1918" />
					<stop
   id="stop428"
   style="stop-color:#90C9EA"
   offset="0.329" />
					<stop
   id="stop430"
   style="stop-color:#63B7E2"
   offset="0.4838" />
					<stop
   id="stop432"
   style="stop-color:#2AA1D9"
   offset="0.6515" />
					<stop
   id="stop434"
   style="stop-color:#1E9CD7"
   offset="0.6829" />
					<stop
   id="stop436"
   style="stop-color:#0075BE"
   offset="0.8652" />
					<stop
   id="stop438"
   style="stop-color:#005B97"
   offset="0.9944" />
				</linearGradient>
				<polygon
   style="fill:url(#SVGID_2_)"
   id="polygon441"
   points="52,757.5 87.1,722.4 87.1,757.5 "
   class="st23" />
			</g>
			<text
   style="font-size:9.22819996px;font-family:IBMPlexSans;fill:#ffffff"
   id="text445"
   class="st0 st13 st24"
   transform="translate(53.3848,749.484)"><tspan
     y="0"
     x="0"
     id="tspan261"
     sodipodi:role="line">P</tspan></text>


			<text
   style="font-size:9.22819996px;font-family:IBMPlexSans;fill:#ffffff"
   id="text447"
   class="st0 st13 st24"
   transform="translate(60.3071,756.4059)"><tspan
     y="0"
     x="0"
     id="tspan264"
     sodipodi:role="line">V</tspan></text>


			<g
   id="g465">
				<g
   id="g455">
					<g
   id="g453">
						<g
   id="g451">
							<polygon
   style="fill:#ffffff"
   id="polygon449"
   points="55,727.9 57.2,735.3 62.3,730.4 "
   class="st0" />
						</g>
					</g>
				</g>
				<g
   id="g463">
					<g
   id="g461">
						<g
   id="g459">
							
								<rect
   style="fill:#ffffff"
   id="rect457"
   height="7.1999998"
   width="3.3"
   class="st0"
   transform="matrix(0.7268,-0.6868,0.6868,0.7268,-488.0847,243.6074)"
   y="731.79999"
   x="60.599998" />
						</g>
					</g>
				</g>
			</g>
			<g
   id="g483">
				<g
   id="g473">
					<g
   id="g471">
						<g
   id="g469">
							<polygon
   style="fill:#ffffff"
   id="polygon467"
   points="81.2,754.9 73,751.7 78.4,746.5 "
   class="st0" />
						</g>
					</g>
				</g>
				<g
   id="g481">
					<g
   id="g479">
						<g
   id="g477">
							
								<rect
   style="fill:#ffffff"
   id="rect475"
   height="8.3999996"
   width="3.5"
   class="st0"
   transform="matrix(0.7268,-0.6868,0.6868,0.7268,-492.5203,253.9219)"
   y="741.90002"
   x="71.199997" />
						</g>
					</g>
				</g>
			</g>
		</g>
	</g><text
   style="font-size:18px;font-family:MyriadPro-Regular"
   id="text489"
   class="st7 st15"
   x="5.1000004"
   y="775.5"><tspan
     y="775.5"
     x="5.1000004"
     id="tspan287"
     sodipodi:role="line">NSX Edge</tspan></text>

<g
   id="g512"
   transform="translate(-20.9,-4.5)">
		<path
   style="fill:#29abe2"
   inkscape:connector-curvature="0"
   id="path492"
   d="m 693,757 h -18.5 c -6.6,0 -12,-5.4 -12,-12 v -15 c 0,-6.6 5.4,-12 12,-12 H 693 c 6.6,0 12,5.4 12,12 v 15 c 0,6.6 -5.4,12 -12,12 z"
   class="st14" />
		<g
   id="g510">
			<rect
   style="fill:#ffffff"
   id="rect494"
   height="12.7"
   width="23.6"
   class="st0"
   y="727.40002"
   x="671.90002" />
			<rect
   style="fill:#ffffff"
   id="rect496"
   height="6"
   width="16.200001"
   class="st0"
   y="737.09998"
   x="675.59998" />
			<rect
   style="fill:#29abe2"
   id="rect498"
   height="1.5"
   width="16.200001"
   class="st14"
   y="731.90002"
   x="675.59998" />
			<rect
   style="fill:#ffffff"
   id="rect500"
   height="10.4"
   width="4.4000001"
   class="st0"
   y="741.59998"
   x="681.5" />
			<rect
   style="fill:#ffffff"
   id="rect502"
   height="8.1999998"
   width="4.4000001"
   class="st0"
   y="722.90002"
   x="674.20001" />
			<rect
   style="fill:#ffffff"
   id="rect504"
   height="3"
   width="2.2"
   class="st0"
   y="722.90002"
   x="680.79999" />
			<rect
   style="fill:#ffffff"
   id="rect506"
   height="3"
   width="2.2"
   class="st0"
   y="722.90002"
   x="684.5" />
			<rect
   style="fill:#ffffff"
   id="rect508"
   height="8.1999998"
   width="4.4000001"
   class="st0"
   y="722.90002"
   x="688.90002" />
		</g>
	</g><text
   style="font-size:18px;font-family:MyriadPro-Regular"
   id="text514"
   class="st7 st15"
   x="589.09998"
   y="775.5"><tspan
     y="775.5"
     x="589.09998"
     id="tspan302"
     sodipodi:role="line">L2-Konzentrator</tspan></text>

<g
   id="g521"
   transform="translate(-20.9,-4.5)">
			<rect
   x="164"
   y="722"
   class="st25"
   width="41.099998"
   height="37"
   id="rect517"
   style="fill:#2b6782" />
			<rect
   x="204.2"
   y="722"
   class="st26"
   width="89.800003"
   height="37"
   id="rect519"
   style="fill:#1e4c66" />
		</g><text
   class="st0 st7 st27"
   id="text523"
   style="font-size:16.53190041px;font-family:MyriadPro-Regular;fill:#ffffff"
   x="149.3979"
   y="741.9043"><tspan
     sodipodi:role="line"
     id="tspan309"
     x="149.3979"
     y="741.9043">VM</tspan></text>
<text
   class="st0 st7 st27"
   id="text525"
   style="font-size:16.53190041px;font-family:MyriadPro-Regular;fill:#ffffff"
   x="184.0365"
   y="741.9043"><tspan
     sodipodi:role="line"
     id="tspan312"
     x="184.0365"
     y="741.9043">HCX-Cloud</tspan></text>
<text
   style="font-size:18px;font-family:MyriadPro-Regular"
   id="text529"
   class="st7 st15"
   x="145.70206"
   y="775.5"><tspan
     y="775.5"
     x="145.70206"
     id="tspan316"
     sodipodi:role="line">HCX-Manager</tspan></text>

<line
   class="st1"
   x1="191.60001"
   y1="403"
   x2="191.60001"
   y2="499"
   id="line532"
   style="fill:none;stroke:#000000;stroke-miterlimit:10" /><g
   id="g538"
   transform="translate(-20.9,-4.5)">
			<rect
   x="137"
   y="360.79999"
   class="st25"
   width="48"
   height="47"
   id="rect534"
   style="fill:#2b6782" />
			<rect
   x="184"
   y="360.79999"
   class="st26"
   width="114"
   height="47"
   id="rect536"
   style="fill:#1e4c66" />
		</g><text
   class="st0 st7 st8"
   id="text540"
   style="font-size:21px;font-family:MyriadPro-Regular;fill:#ffffff"
   x="124.1"
   y="387.25"><tspan
     sodipodi:role="line"
     id="tspan324"
     x="124.1"
     y="387.25">VM</tspan></text>
<text
   class="st0 st7 st8"
   id="text542"
   style="font-size:21px;font-family:MyriadPro-Regular;fill:#ffffff"
   x="164.10001"
   y="387.25"><tspan
     sodipodi:role="line"
     id="tspan327"
     x="164.10001"
     y="387.25">HCX-Cloud</tspan></text>

</svg>
