<?xml version="1.0" encoding="utf-8"?>
<!-- Generator: Adobe Illustrator 23.0.2, SVG Export Plug-In . SVG Version: 6.00 Build 0)  -->
<svg version="1.1" id="Layer_1" xmlns="http://www.w3.org/2000/svg" xmlns:xlink="http://www.w3.org/1999/xlink" x="0px" y="0px"
	 viewBox="0 0 600 302.3" style="enable-background:new 0 0 600 302.3;" xml:space="preserve">
<style type="text/css">
	.st0{fill:#4C84C5;}
	.st1{fill:#959595;}
	.st2{fill:#1DA78D;}
	.st3{fill:#FFFFFF;}
	.st4{font-family:'Roboto-Light';}
	.st5{font-size:21px;}
	.st6{font-size:19px;}
</style>
<rect id="left_blue" x="1.6" class="st0" width="297.7" height="100"/>
<rect id="right_blue" x="305.7" y="0.7" class="st0" width="295.3" height="100"/>
<rect x="2" y="214.7" class="st1" width="600" height="87.3"/>
<rect x="1.7" y="110" class="st2" width="297.5" height="95"/>
<rect x="305.7" y="109.3" class="st2" width="294.7" height="95.7"/>
<text transform="matrix(1 0 0 1 17.8382 42.7046)" class="st3 st4 st5">Virtualisierungsmanagement</text>
<text transform="matrix(1 0 0 1 370.5331 42.7044)" class="st3 st4 st5">Netzmanagement</text>
<text transform="matrix(1 0 0 1 47.5065 153.6688)" class="st3 st4 st5">Rechenvirtualisierung</text>
<text transform="matrix(1 0 0 1 367.2778 153.6689)" class="st3 st4 st5">Netzvirtualisierung</text>
<text transform="matrix(1 0 0 1 132.3168 250.5371)" class="st3 st4 st5">Physische Infrastruktur in IBM Cloud </text>
<text transform="matrix(1 0 0 1 430.4675 283.8423)" class="st3 st4 st6">Netz</text>
<text transform="matrix(1 0 0 1 271.8064 283.8424)" class="st3 st4 st6">Speicher</text>
<text transform="matrix(1 0 0 1 85.717 283.8432)" class="st3 st4 st6">Datenverarbeitung</text>
<text transform="matrix(1 0 0 1 71.5175 186.3333)" class="st3 st4 st6">VMware vSphere</text>
<text transform="matrix(1 0 0 1 396.4631 186.333)" class="st3 st4 st6">VMware NSX</text>
<text transform="matrix(1 0 0 1 52.2764 75.9495)" class="st3 st4 st6">VMware vCenter Server</text>
<text transform="matrix(1 0 0 1 353.9964 76.6162)" class="st3 st4 st6">VMware NSX-Manager</text>
</svg>
