<svg xmlns="http://www.w3.org/2000/svg" viewBox="0 0 481.5 246"><defs><style>.cls-1{fill:none;stroke:#000;stroke-width:0.75px;}.cls-1,.cls-5{stroke-miterlimit:10;}.cls-2,.cls-5{fill:#fff;}.cls-3{font-size:12px;}.cls-3,.cls-6{font-family:IBMPlexSans, IBM Plex Sans;}.cls-4{letter-spacing:-0.06em;}.cls-5{stroke:#29abe2;}.cls-6{font-size:14px;}.cls-7{letter-spacing:-0.01em;}.cls-8{letter-spacing:0.01em;}.cls-9{letter-spacing:-0.01em;}.cls-10{letter-spacing:-0.01em;}.cls-11{letter-spacing:0em;}.cls-12{letter-spacing:0em;}.cls-13{letter-spacing:-0.08em;}.cls-14{letter-spacing:-0.06em;}.cls-15{letter-spacing:-0.01em;}.cls-16{letter-spacing:-0.05em;}.cls-17{letter-spacing:-0.01em;}.cls-18{letter-spacing:-0.06em;}.cls-19{letter-spacing:0em;}.cls-20{letter-spacing:-0.02em;}</style></defs><title>vcscar-skate-language</title><g id="line_from_base_to_trick_complete" data-name="line from base to trick complete"><line class="cls-1" x1="98" y1="87.5" x2="443" y2="87.5"/><line class="cls-1" x1="443" y1="87.5" x2="443" y2="198.12"/><polygon points="439.26 197.02 443 203.5 446.74 197.02 439.26 197.02"/></g><g id="trick_complete" data-name="trick complete"><rect class="cls-2" x="407" y="203.5" width="74" height="42"/><path d="M491,208v41H418V208h73m1-1H417v43h75V207Z" transform="translate(-10.5 -4)"/><text class="cls-3" transform="translate(429.5 236)">ENDE</text><text class="cls-3" transform="translate(425.5 221)">TRIC<tspan class="cls-4" x="26.8" y="0">K</tspan><tspan x="33.74" y="0">-</tspan></text></g><g id="left_black_dot" data-name="left black dot"><circle cx="129" cy="88.5" r="8.5"/></g><g id="right_black_dot" data-name="right black dot"><circle cx="290" cy="88.5" r="8.5"/></g><g id="line_from_trick_start_to_base" data-name="line from trick start to base"><line class="cls-1" x1="44.5" y1="42" x2="44.5" y2="65.62"/><polygon points="40.76 64.52 44.5 71 48.24 64.52 40.76 64.52"/></g><g id="line_from_left_black_dot_to_trick_complete" data-name="line from left black dot to trick complete"><line class="cls-1" x1="400.12" y1="232.5" x2="129" y2="232.5"/><polygon points="399.02 228.76 405.5 232.5 399.02 236.24 399.02 228.76"/><line class="cls-1" x1="129" y1="94.5" x2="129" y2="232.5"/></g><g id="left_line_to_landing" data-name="left line to landing"><line class="cls-1" x1="130" y1="152.5" x2="214.62" y2="152.5"/><polygon points="213.52 156.24 220 152.5 213.52 148.76 213.52 156.24"/></g><g id="top_line_to_landing" data-name="top line to landing"><line class="cls-1" x1="290" y1="92.5" x2="290" y2="129.12"/><polygon points="286.26 128.02 290 134.5 293.74 128.02 286.26 128.02"/></g><g id="line_from_landing_to_complete" data-name="line from landing to complete"><line class="cls-1" x1="400.62" y1="217.5" x2="290" y2="217.5"/><polygon points="399.52 213.76 406 217.5 399.52 221.24 399.52 213.76"/><line class="cls-1" x1="290" y1="167.5" x2="290" y2="217.5"/></g><g id="Layer_16" data-name="Layer 16"><line class="cls-1" x1="290" y1="82.5" x2="290" y2="46.5"/><line class="cls-1" x1="290" y1="46.5" x2="206" y2="46.5"/><line class="cls-1" x1="206" y1="46.5" x2="206" y2="65.12"/><polygon points="202.26 64.02 206 70.5 209.74 64.02 202.26 64.02"/></g><g id="base_combo" data-name="base combo"><rect class="cls-5" x="0.5" y="71" width="98" height="32.5" rx="12"/><text class="cls-6" transform="translate(13.83 92)">basi<tspan class="cls-7" x="25.91" y="0">s</tspan><tspan class="cls-8" x="32.59" y="0">-</tspan><tspan class="cls-9" x="38.32" y="0">c</tspan><tspan x="45.28" y="0">ombo</tspan></text></g><g id="next_combo" data-name="next combo"><rect class="cls-5" x="153" y="71" width="109" height="32.5" rx="12"/><text class="cls-6" transform="translate(155.62 92)">näch<tspan class="cls-10" x="30.42" y="0">s</tspan><tspan class="cls-11" x="37.14" y="0">t</tspan><tspan class="cls-12" x="42" y="0">e</tspan><tspan class="cls-13" x="49.69" y="0">r</tspan><tspan class="cls-14" x="53.7" y="0">_</tspan><tspan class="cls-9" x="60.77" y="0">c</tspan><tspan x="67.73" y="0">ombo</tspan></text></g><g id="landing_combo" data-name="landing combo"><rect class="cls-5" x="223.5" y="135" width="133.5" height="32.5" rx="12"/><text class="cls-6" transform="translate(237.23 155.67)">landung<tspan class="cls-15" x="50.65" y="0">s</tspan><tspan class="cls-8" x="57.33" y="0">-</tspan><tspan class="cls-9" x="63.05" y="0">c</tspan><tspan x="70.01" y="0">ombo</tspan></text></g><g id="trick_start" data-name="trick start"><rect class="cls-2" x="12" y="0.5" width="74" height="41"/><path d="M96,5V45H23V5H96m1-1H22V46H97V4Z" transform="translate(-10.5 -4)"/><text class="cls-3" transform="translate(31.17 17.67)">TRIC<tspan class="cls-16" x="26.8" y="0">K</tspan><tspan x="33.74" y="0">-</tspan><tspan class="cls-17" x="0" y="14.4">S</tspan><tspan class="cls-18" x="6.82" y="14.4">T</tspan><tspan class="cls-19" x="12.9" y="14.4">A</tspan><tspan class="cls-20" x="20.59" y="14.4">R</tspan><tspan x="27.98" y="14.4">T</tspan></text></g></svg>
