<?xml version="1.0" encoding="UTF-8" standalone="no"?>
<!-- Generator: Adobe Illustrator 21.0.0, SVG Export Plug-In . SVG Version: 6.00 Build 0)  -->

<svg
   xmlns:dc="http://purl.org/dc/elements/1.1/"
   xmlns:cc="http://creativecommons.org/ns#"
   xmlns:rdf="http://www.w3.org/1999/02/22-rdf-syntax-ns#"
   xmlns:svg="http://www.w3.org/2000/svg"
   xmlns="http://www.w3.org/2000/svg"
   xmlns:xlink="http://www.w3.org/1999/xlink"
   xmlns:sodipodi="http://sodipodi.sourceforge.net/DTD/sodipodi-0.dtd"
   xmlns:inkscape="http://www.inkscape.org/namespaces/inkscape"
   version="1.1"
   id="Layer_1"
   x="0px"
   y="0px"
   viewBox="0 0 850 625"
   style="enable-background:new 0 0 850 625;"
   xml:space="preserve"
   sodipodi:docname="virtual_network_distributedswitch.svg"
   inkscape:version="0.92.2 (5c3e80d, 2017-08-06)"><metadata
     id="metadata520"><rdf:RDF><cc:Work
         rdf:about=""><dc:format>image/svg+xml</dc:format><dc:type
           rdf:resource="http://purl.org/dc/dcmitype/StillImage" /></cc:Work></rdf:RDF></metadata><defs
     id="defs518" /><sodipodi:namedview
     pagecolor="#ffffff"
     bordercolor="#666666"
     borderopacity="1"
     objecttolerance="10"
     gridtolerance="10"
     guidetolerance="10"
     inkscape:pageopacity="0"
     inkscape:pageshadow="2"
     inkscape:window-width="1920"
     inkscape:window-height="1017"
     id="namedview516"
     showgrid="false"
     inkscape:zoom="0.7552"
     inkscape:cx="497.16213"
     inkscape:cy="399.77598"
     inkscape:window-x="-4"
     inkscape:window-y="-4"
     inkscape:window-maximized="1"
     inkscape:current-layer="Layer_1" /><style
     type="text/css"
     id="style2">
	.st0{fill-rule:evenodd;clip-rule:evenodd;fill:#1DA78D;}
	.st1{fill-rule:evenodd;clip-rule:evenodd;fill:#4C84C5;}
	.st2{fill:none;stroke:#FFFFFF;stroke-width:2;stroke-miterlimit:8;}
	.st3{clip-path:url(#SVGID_2_);fill:none;stroke:#FFFFFF;stroke-width:2;stroke-miterlimit:8;}
	.st4{clip-path:url(#SVGID_2_);}
	.st5{clip-path:url(#SVGID_4_);fill:none;stroke:#FFFFFF;stroke-width:2;stroke-miterlimit:8;}
	.st6{clip-path:url(#SVGID_4_);}
	.st7{clip-path:url(#SVGID_6_);fill:none;stroke:#FFFFFF;stroke-width:2;stroke-miterlimit:8;}
	.st8{clip-path:url(#SVGID_6_);}
	.st9{clip-path:url(#SVGID_8_);fill:none;stroke:#FFFFFF;stroke-width:2;stroke-miterlimit:8;}
	.st10{clip-path:url(#SVGID_8_);}
	.st11{clip-path:url(#SVGID_10_);fill:none;stroke:#FFFFFF;stroke-width:2;stroke-miterlimit:8;}
	.st12{clip-path:url(#SVGID_10_);}
	.st13{clip-path:url(#SVGID_12_);fill:none;stroke:#FFFFFF;stroke-width:2;stroke-miterlimit:8;}
	.st14{clip-path:url(#SVGID_12_);}
	.st15{clip-path:url(#SVGID_14_);}
	.st16{clip-path:url(#SVGID_16_);fill:none;stroke:#FFFFFF;stroke-width:2;stroke-miterlimit:8;}
	.st17{clip-path:url(#SVGID_16_);}
	.st18{clip-path:url(#SVGID_18_);fill:none;stroke:#FFFFFF;stroke-width:2;stroke-miterlimit:8;stroke-dasharray:50800,38100;}
	.st19{clip-path:url(#SVGID_18_);}
	.st20{clip-path:url(#SVGID_20_);fill:none;stroke:#FFFFFF;stroke-width:2;stroke-miterlimit:8;}
	.st21{clip-path:url(#SVGID_20_);}
	.st22{clip-path:url(#SVGID_22_);fill:none;stroke:#FFFFFF;stroke-width:2;stroke-miterlimit:8;}
	.st23{clip-path:url(#SVGID_22_);}
	.st24{clip-path:url(#SVGID_24_);fill:none;stroke:#FFFFFF;stroke-width:2;stroke-miterlimit:8;}
	.st25{clip-path:url(#SVGID_24_);}
	.st26{clip-path:url(#SVGID_26_);fill:none;stroke:#FFFFFF;stroke-width:2;stroke-miterlimit:8;}
	.st27{clip-path:url(#SVGID_26_);}
	.st28{clip-path:url(#SVGID_28_);fill:none;stroke:#FFFFFF;stroke-width:2;stroke-miterlimit:8;}
	.st29{clip-path:url(#SVGID_28_);}
	.st30{clip-path:url(#SVGID_30_);fill:none;stroke:#FFFFFF;stroke-width:2;stroke-miterlimit:8;}
	.st31{clip-path:url(#SVGID_30_);}
	.st32{clip-path:url(#SVGID_32_);fill:none;stroke:#FFFFFF;stroke-width:2;stroke-miterlimit:8;}
	.st33{clip-path:url(#SVGID_32_);}
	.st34{clip-path:url(#SVGID_34_);fill:none;stroke:#FFFFFF;stroke-width:2;stroke-miterlimit:8;}
	.st35{clip-path:url(#SVGID_34_);}
	.st36{clip-path:url(#SVGID_36_);fill:none;stroke:#FFFFFF;stroke-width:2;stroke-miterlimit:8;}
	.st37{clip-path:url(#SVGID_36_);}
	.st38{clip-path:url(#SVGID_38_);fill:none;stroke:#FFFFFF;stroke-width:2;stroke-miterlimit:8;}
	.st39{clip-path:url(#SVGID_38_);}
	.st40{clip-path:url(#SVGID_40_);fill:none;stroke:#FFFFFF;stroke-width:2;stroke-miterlimit:8;}
	.st41{clip-path:url(#SVGID_40_);}
	.st42{clip-path:url(#SVGID_42_);}
	.st43{clip-path:url(#SVGID_44_);}
	.st44{clip-path:url(#SVGID_46_);}
	.st45{clip-path:url(#SVGID_48_);}
	.st46{clip-path:url(#SVGID_50_);fill:none;stroke:#81A9D6;stroke-width:2;stroke-miterlimit:8;}
	.st47{clip-path:url(#SVGID_50_);}
	.st48{clip-path:url(#SVGID_52_);fill:none;stroke:#81A9D6;stroke-width:2;stroke-miterlimit:8;}
	.st49{clip-path:url(#SVGID_52_);}
	.st50{clip-path:url(#SVGID_54_);fill:none;stroke:#81A9D6;stroke-width:2;stroke-miterlimit:8;}
	.st51{clip-path:url(#SVGID_54_);}
	.st52{clip-path:url(#SVGID_56_);fill:none;stroke:#81A9D6;stroke-width:2;stroke-miterlimit:8;}
	.st53{clip-path:url(#SVGID_56_);fill:none;}
	.st54{fill:none;stroke:#81A9D6;stroke-width:2;stroke-miterlimit:8;}
	.st55{fill-rule:evenodd;clip-rule:evenodd;fill:#FFFFFF;}
	.st56{clip-path:url(#SVGID_58_);fill:none;stroke:#FFFFFF;stroke-width:1.9999;stroke-miterlimit:8;}
	.st57{clip-path:url(#SVGID_58_);}
	.st58{clip-path:url(#SVGID_60_);fill:none;stroke:#FFFFFF;stroke-width:1.9999;stroke-miterlimit:8;}
	.st59{clip-path:url(#SVGID_60_);}
	.st60{clip-path:url(#SVGID_62_);fill:none;stroke:#FFFFFF;stroke-width:1.9999;stroke-miterlimit:8;}
	.st61{clip-path:url(#SVGID_62_);}
	.st62{clip-path:url(#SVGID_64_);fill:none;stroke:#FFFFFF;stroke-width:1.9999;stroke-miterlimit:8;}
	.st63{fill:none;}
	.st64{fill:#FFFFFF;}
	.st65{font-family:'IBMPlexSans';}
	.st66{font-size:18px;}
	.st67{font-size:14px;}
	.st68{font-size:21px;}
	.st69{fill:none;stroke:#81A9D6;stroke-width:3;stroke-miterlimit:8;}
	.st70{fill:none;stroke:#60C1AF;stroke-width:3;stroke-miterlimit:8;}
	.st71{fill:none;stroke:#4472C4;stroke-width:2;stroke-miterlimit:8;}
	.st72{font-size:24px;}
</style><polygon
     class="st0"
     points="77.4,455.4 770,455.4 770,508 77.4,508 77.4,455.4 "
     id="polygon4" /><polygon
     class="st1"
     points="79,357.3 415,357.3 415,410 79,410 79,357.3 "
     id="polygon6" /><polygon
     class="st1"
     points="76.4,558.3 766,558.3 766,611 76.4,611 76.4,558.3 "
     id="polygon8" /><polygon
     class="st1"
     points="432.4,357.3 771,357.3 771,410 432.4,410 432.4,357.3 "
     id="polygon10" /><polygon
     class="st1"
     points="502.4,171.3 678,171.3 678,202 502.4,202 502.4,171.3 "
     id="polygon12" /><polygon
     class="st1"
     points="430.4,75.3 771,75.3 771,349 430.4,349 430.4,75.3 "
     id="polygon14" /><polygon
     id="mngt_infrastructure_square"
     class="st1"
     points="79.4,75.3 419,75.3 419,348 79.4,348 79.4,75.3 " /><path
     class="st2"
     d="M89.1,84.8c0-0.9,0.7-1.6,1.6-1.6h318c0.9,0,1.6,0.7,1.6,1.6v34.6c0,0.9-0.7,1.6-1.6,1.6h-318  c-0.9,0-1.6-0.7-1.6-1.6V84.8z"
     id="path17" /><g
     id="g289"><defs
       id="defs20"><polygon
         id="SVGID_1_"
         points="78.8,607.5 770.4,607.5 770.4,75 78.8,75 78.8,607.5   " /></defs><clipPath
       id="SVGID_2_"><use
         xlink:href="#SVGID_1_"
         style="overflow:visible;"
         id="use22" /></clipPath><path
       class="st3"
       d="M89.1,133.3c0-2.3,1.8-4.1,4.1-4.1h90.6c2.3,0,4.1,1.8,4.1,4.1v90.6c0,2.3-1.8,4.1-4.1,4.1H93.2   c-2.3,0-4.1-1.8-4.1-4.1V133.3z"
       clip-path="url(#SVGID_2_)"
       id="path25" /><g
       class="st4"
       clip-path="url(#SVGID_2_)"
       id="g287"><defs
         id="defs28"><polygon
           id="SVGID_3_"
           points="78.8,607.5 770.4,607.5 770.4,75 78.8,75 78.8,607.5    " /></defs><clipPath
         id="SVGID_4_"><use
           xlink:href="#SVGID_3_"
           style="overflow:visible;"
           id="use30" /></clipPath><path
         class="st5"
         d="M200.3,133.3c0-2.3,1.8-4.1,4.1-4.1H295c2.3,0,4.1,1.8,4.1,4.1v90.6c0,2.3-1.8,4.1-4.1,4.1h-90.6    c-2.3,0-4.1-1.8-4.1-4.1V133.3z"
         clip-path="url(#SVGID_4_)"
         id="path33" /><g
         class="st6"
         clip-path="url(#SVGID_4_)"
         id="g285"><defs
           id="defs36"><polygon
             id="SVGID_5_"
             points="78.8,607.5 770.4,607.5 770.4,75 78.8,75 78.8,607.5     " /></defs><clipPath
           id="SVGID_6_"><use
             xlink:href="#SVGID_5_"
             style="overflow:visible;"
             id="use38" /></clipPath><path
           class="st7"
           d="M311.4,134c0-2.3,1.8-4.1,4.1-4.1h90.6c2.3,0,4.1,1.8,4.1,4.1v90.6c0,2.3-1.8,4.1-4.1,4.1h-90.6     c-2.3,0-4.1-1.8-4.1-4.1V134z"
           clip-path="url(#SVGID_6_)"
           id="path41" /><g
           class="st8"
           clip-path="url(#SVGID_6_)"
           id="g283"><defs
             id="defs44"><polygon
               id="SVGID_7_"
               points="78.8,607.5 770.4,607.5 770.4,75 78.8,75 78.8,607.5      " /></defs><clipPath
             id="SVGID_8_"><use
               xlink:href="#SVGID_7_"
               style="overflow:visible;"
               id="use46" /></clipPath><path
             class="st9"
             d="M89.1,242.4c0-2.3,1.8-4.1,4.1-4.1h90.6c2.3,0,4.1,1.8,4.1,4.1V333c0,2.3-1.8,4.1-4.1,4.1H93.2      c-2.3,0-4.1-1.8-4.1-4.1V242.4z"
             clip-path="url(#SVGID_8_)"
             id="path49" /><g
             class="st10"
             clip-path="url(#SVGID_8_)"
             id="g281"><defs
               id="defs52"><polygon
                 id="SVGID_9_"
                 points="78.8,607.5 770.4,607.5 770.4,75 78.8,75 78.8,607.5       " /></defs><clipPath
               id="SVGID_10_"><use
                 xlink:href="#SVGID_9_"
                 style="overflow:visible;"
                 id="use54" /></clipPath><path
               class="st11"
               d="M200.3,242.4c0-2.3,1.8-4.1,4.1-4.1H295c2.3,0,4.1,1.8,4.1,4.1V333c0,2.3-1.8,4.1-4.1,4.1h-90.6       c-2.3,0-4.1-1.8-4.1-4.1V242.4z"
               clip-path="url(#SVGID_10_)"
               id="path57" /><g
               class="st12"
               clip-path="url(#SVGID_10_)"
               id="g279"><defs
                 id="defs60"><polygon
                   id="SVGID_11_"
                   points="78.8,607.5 770.4,607.5 770.4,75 78.8,75 78.8,607.5        " /></defs><clipPath
                 id="SVGID_12_"><use
                   xlink:href="#SVGID_11_"
                   style="overflow:visible;"
                   id="use62" /></clipPath><path
                 class="st13"
                 d="M311.4,242.4c0-2.3,1.8-4.1,4.1-4.1h90.6c2.3,0,4.1,1.8,4.1,4.1V333c0,2.3-1.8,4.1-4.1,4.1h-90.6        c-2.3,0-4.1-1.8-4.1-4.1V242.4z"
                 clip-path="url(#SVGID_12_)"
                 id="path65" /><g
                 class="st14"
                 clip-path="url(#SVGID_12_)"
                 id="g277"><defs
                   id="defs68"><polygon
                     id="SVGID_13_"
                     points="78.8,607.5 770.4,607.5 770.4,75 78.8,75 78.8,607.5         " /></defs><clipPath
                   id="SVGID_14_"><use
                     xlink:href="#SVGID_13_"
                     style="overflow:visible;"
                     id="use70" /></clipPath><g
                   class="st15"
                   clip-path="url(#SVGID_14_)"
                   id="g275"><defs
                     id="defs74"><polygon
                       id="SVGID_15_"
                       points="78.8,607.5 770.4,607.5 770.4,75 78.8,75 78.8,607.5          " /></defs><clipPath
                     id="SVGID_16_"><use
                       xlink:href="#SVGID_15_"
                       style="overflow:visible;"
                       id="use76" /></clipPath><path
                     class="st16"
                     d="M439,84.8c0-0.9,0.7-1.6,1.6-1.6h318c0.9,0,1.6,0.7,1.6,1.6v34.6c0,0.9-0.7,1.6-1.6,1.6h-318          c-0.9,0-1.6-0.7-1.6-1.6V84.8z"
                     clip-path="url(#SVGID_16_)"
                     id="path79" /><g
                     class="st17"
                     clip-path="url(#SVGID_16_)"
                     id="g273"><defs
                       id="defs82"><polygon
                         id="SVGID_17_"
                         points="78.8,607.5 770.4,607.5 770.4,75 78.8,75 78.8,607.5           " /></defs><clipPath
                       id="SVGID_18_"><use
                         xlink:href="#SVGID_17_"
                         style="overflow:visible;"
                         id="use84" /></clipPath><path
                       class="st18"
                       d="M462.4,192.5c0-3.5,2.8-6.3,6.3-6.3h250.9c3.5,0,6.3,2.8,6.3,6.3v138.4c0,3.5-2.8,6.3-6.3,6.3H468.7           c-3.5,0-6.3-2.8-6.3-6.3V192.5z"
                       clip-path="url(#SVGID_18_)"
                       id="path87" /><g
                       class="st19"
                       clip-path="url(#SVGID_18_)"
                       id="g271"><defs
                         id="defs90"><polygon
                           id="SVGID_19_"
                           points="78.8,607.5 770.4,607.5 770.4,75 78.8,75 78.8,607.5            " /></defs><clipPath
                         id="SVGID_20_"><use
                           xlink:href="#SVGID_19_"
                           style="overflow:visible;"
                           id="use92" /></clipPath><path
                         class="st20"
                         d="M499.4,171.3c0-0.9,0.7-1.6,1.6-1.6h178.7c0.9,0,1.6,0.7,1.6,1.6v34.6c0,0.9-0.7,1.6-1.6,1.6H501            c-0.9,0-1.6-0.7-1.6-1.6V171.3z"
                         clip-path="url(#SVGID_20_)"
                         id="path95" /><g
                         class="st21"
                         clip-path="url(#SVGID_20_)"
                         id="g269"><defs
                           id="defs98"><polygon
                             id="SVGID_21_"
                             points="78.8,607.5 770.4,607.5 770.4,75 78.8,75 78.8,607.5             " /></defs><clipPath
                           id="SVGID_22_"><use
                             xlink:href="#SVGID_21_"
                             style="overflow:visible;"
                             id="use100" /></clipPath><path
                           class="st22"
                           d="M484.3,263.7c0-1.1,0.9-2.1,2.1-2.1h45.3c1.1,0,2.1,0.9,2.1,2.1V309c0,1.1-0.9,2.1-2.1,2.1h-45.3             c-1.1,0-2.1-0.9-2.1-2.1V263.7z"
                           clip-path="url(#SVGID_22_)"
                           id="path103" /><g
                           class="st23"
                           clip-path="url(#SVGID_22_)"
                           id="g267"><defs
                             id="defs106"><polygon
                               id="SVGID_23_"
                               points="78.8,607.5 770.4,607.5 770.4,75 78.8,75 78.8,607.5              " /></defs><clipPath
                             id="SVGID_24_"><use
                               xlink:href="#SVGID_23_"
                               style="overflow:visible;"
                               id="use108" /></clipPath><line
                             class="st24"
                             x1="489.1"
                             y1="286.4"
                             x2="528.7"
                             y2="286.4"
                             clip-path="url(#SVGID_24_)"
                             id="line111" /><g
                             class="st25"
                             clip-path="url(#SVGID_24_)"
                             id="g265"><defs
                               id="defs114"><polygon
                                 id="SVGID_25_"
                                 points="78.8,607.5 770.4,607.5 770.4,75 78.8,75 78.8,607.5               " /></defs><clipPath
                               id="SVGID_26_"><use
                                 xlink:href="#SVGID_25_"
                                 style="overflow:visible;"
                                 id="use116" /></clipPath><path
                               class="st26"
                               d="M569.4,263.7c0-1.1,0.9-2.1,2.1-2.1h45.3c1.1,0,2.1,0.9,2.1,2.1V309c0,1.1-0.9,2.1-2.1,2.1h-45.3               c-1.1,0-2.1-0.9-2.1-2.1V263.7z"
                               clip-path="url(#SVGID_26_)"
                               id="path119" /><g
                               class="st27"
                               clip-path="url(#SVGID_26_)"
                               id="g263"><defs
                                 id="defs122"><polygon
                                   id="SVGID_27_"
                                   points="78.8,607.5 770.4,607.5 770.4,75 78.8,75 78.8,607.5                " /></defs><clipPath
                                 id="SVGID_28_"><use
                                   xlink:href="#SVGID_27_"
                                   style="overflow:visible;"
                                   id="use124" /></clipPath><line
                                 class="st28"
                                 x1="574.2"
                                 y1="286.4"
                                 x2="613.7"
                                 y2="286.4"
                                 clip-path="url(#SVGID_28_)"
                                 id="line127" /><g
                                 class="st29"
                                 clip-path="url(#SVGID_28_)"
                                 id="g261"><defs
                                   id="defs130"><polygon
                                   id="SVGID_29_"
                                   points="78.8,607.5 770.4,607.5 770.4,75 78.8,75 78.8,607.5                 " /></defs><clipPath
                                   id="SVGID_30_"><use
                                   xlink:href="#SVGID_29_"
                                   style="overflow:visible;"
                                   id="use132" /></clipPath><path
                                   class="st30"
                                   d="M651.7,263.7c0-1.1,0.9-2.1,2.1-2.1h45.3c1.1,0,2.1,0.9,2.1,2.1V309c0,1.1-0.9,2.1-2.1,2.1                 h-45.3c-1.1,0-2.1-0.9-2.1-2.1V263.7z"
                                   clip-path="url(#SVGID_30_)"
                                   id="path135" /><g
                                   class="st31"
                                   clip-path="url(#SVGID_30_)"
                                   id="g259"><defs
                                   id="defs138"><polygon
                                   id="SVGID_31_"
                                   points="78.8,607.5 770.4,607.5 770.4,75 78.8,75 78.8,607.5                  " /></defs><clipPath
                                   id="SVGID_32_"><use
                                   xlink:href="#SVGID_31_"
                                   style="overflow:visible;"
                                   id="use140" /></clipPath><line
                                   class="st32"
                                   x1="656.5"
                                   y1="286.4"
                                   x2="696.1"
                                   y2="286.4"
                                   clip-path="url(#SVGID_32_)"
                                   id="line143" /><g
                                   class="st33"
                                   clip-path="url(#SVGID_32_)"
                                   id="g257"><defs
                                   id="defs146"><polygon
                                   id="SVGID_33_"
                                   points="78.8,607.5 770.4,607.5 770.4,75 78.8,75 78.8,607.5                   " /></defs><clipPath
                                   id="SVGID_34_"><use
                                   xlink:href="#SVGID_33_"
                                   style="overflow:visible;"
                                   id="use148" /></clipPath><path
                                   class="st34"
                                   d="M225,279.5c0-1.1,0.9-2.1,2.1-2.1h45.3c1.1,0,2.1,0.9,2.1,2.1v45.3c0,1.1-0.9,2.1-2.1,2.1                   H227c-1.1,0-2.1-0.9-2.1-2.1V279.5z"
                                   clip-path="url(#SVGID_34_)"
                                   id="path151" /><g
                                   class="st35"
                                   clip-path="url(#SVGID_34_)"
                                   id="g255"><defs
                                   id="defs154"><polygon
                                   id="SVGID_35_"
                                   points="78.8,607.5 770.4,607.5 770.4,75 78.8,75 78.8,607.5                    " /></defs><clipPath
                                   id="SVGID_36_"><use
                                   xlink:href="#SVGID_35_"
                                   style="overflow:visible;"
                                   id="use156" /></clipPath><line
                                   class="st36"
                                   x1="229.8"
                                   y1="302.1"
                                   x2="269.3"
                                   y2="302.1"
                                   clip-path="url(#SVGID_36_)"
                                   id="line159" /><g
                                   class="st37"
                                   clip-path="url(#SVGID_36_)"
                                   id="g253"><defs
                                   id="defs162"><polygon
                                   id="SVGID_37_"
                                   points="78.8,607.5 770.4,607.5 770.4,75 78.8,75 78.8,607.5                     " /></defs><clipPath
                                   id="SVGID_38_"><use
                                   xlink:href="#SVGID_37_"
                                   style="overflow:visible;"
                                   id="use164" /></clipPath><path
                                   class="st38"
                                   d="M336.1,279.5c0-1.1,0.9-2.1,2.1-2.1h45.3c1.1,0,2.1,0.9,2.1,2.1v45.3                     c0,1.1-0.9,2.1-2.1,2.1h-45.3c-1.1,0-2.1-0.9-2.1-2.1V279.5z"
                                   clip-path="url(#SVGID_38_)"
                                   id="path167" /><g
                                   class="st39"
                                   clip-path="url(#SVGID_38_)"
                                   id="g251"><defs
                                   id="defs170"><polygon
                                   id="SVGID_39_"
                                   points="78.8,607.5 770.4,607.5 770.4,75 78.8,75 78.8,607.5                      " /></defs><clipPath
                                   id="SVGID_40_"><use
                                   xlink:href="#SVGID_39_"
                                   style="overflow:visible;"
                                   id="use172" /></clipPath><line
                                   class="st40"
                                   x1="340.9"
                                   y1="302.1"
                                   x2="380.4"
                                   y2="302.1"
                                   clip-path="url(#SVGID_40_)"
                                   id="line175" /><g
                                   class="st41"
                                   clip-path="url(#SVGID_40_)"
                                   id="g249"><defs
                                   id="defs178"><polygon
                                   id="SVGID_41_"
                                   points="78.8,607.5 770.4,607.5 770.4,75 78.8,75 78.8,607.5                                               " /></defs><clipPath
                                   id="SVGID_42_"><use
                                   xlink:href="#SVGID_41_"
                                   style="overflow:visible;"
                                   id="use180" /></clipPath><g
                                   class="st42"
                                   clip-path="url(#SVGID_42_)"
                                   id="g247"><defs
                                   id="defs184"><polygon
                                   id="SVGID_43_"
                                   points="78.8,607.5 770.4,607.5 770.4,75 78.8,75 78.8,607.5                                                 " /></defs><clipPath
                                   id="SVGID_44_"><use
                                   xlink:href="#SVGID_43_"
                                   style="overflow:visible;"
                                   id="use186" /></clipPath><g
                                   class="st43"
                                   clip-path="url(#SVGID_44_)"
                                   id="g245"><defs
                                   id="defs190"><polygon
                                   id="SVGID_45_"
                                   points="78.8,607.5 770.4,607.5 770.4,75 78.8,75 78.8,607.5                                                   " /></defs><clipPath
                                   id="SVGID_46_"><use
                                   xlink:href="#SVGID_45_"
                                   style="overflow:visible;"
                                   id="use192" /></clipPath><g
                                   class="st44"
                                   clip-path="url(#SVGID_46_)"
                                   id="g243"><defs
                                   id="defs196"><polygon
                                   id="SVGID_47_"
                                   points="78.8,607.5 770.4,607.5 770.4,75 78.8,75 78.8,607.5                                                     " /></defs><clipPath
                                   id="SVGID_48_"><use
                                   xlink:href="#SVGID_47_"
                                   style="overflow:visible;"
                                   id="use198" /></clipPath><g
                                   class="st45"
                                   clip-path="url(#SVGID_48_)"
                                   id="g241"><defs
                                   id="defs202"><polygon
                                   id="SVGID_49_"
                                   points="78.8,607.5 770.4,607.5 770.4,75 78.8,75 78.8,607.5                                                       " /></defs><clipPath
                                   id="SVGID_50_"><use
                                   xlink:href="#SVGID_49_"
                                   style="overflow:visible;"
                                   id="use204" /></clipPath><path
                                   class="st46"
                                   d="M203.7,417.4c0-2.7,2.3-4.8,5.1-4.8c2.8,0,5.1,2.2,5.1,4.8s-2.3,4.8-5.1,4.8                           C206,422.2,203.7,420.1,203.7,417.4L203.7,417.4z"
                                   clip-path="url(#SVGID_50_)"
                                   id="path207" /><g
                                   class="st47"
                                   clip-path="url(#SVGID_50_)"
                                   id="g239"><defs
                                   id="defs210"><polygon
                                   id="SVGID_51_"
                                   points="78.8,607.5 770.4,607.5 770.4,75 78.8,75 78.8,607.5                                                         " /></defs><clipPath
                                   id="SVGID_52_"><use
                                   xlink:href="#SVGID_51_"
                                   style="overflow:visible;"
                                   id="use212" /></clipPath><path
                                   class="st48"
                                   d="M138.5,417.4c0-2.7,2.3-4.8,5.1-4.8c2.8,0,5.1,2.2,5.1,4.8s-2.3,4.8-5.1,4.8                            C140.8,422.2,138.5,420.1,138.5,417.4L138.5,417.4z"
                                   clip-path="url(#SVGID_52_)"
                                   id="path215" /><g
                                   class="st49"
                                   clip-path="url(#SVGID_52_)"
                                   id="g237"><defs
                                   id="defs218"><polygon
                                   id="SVGID_53_"
                                   points="78.8,607.5 770.4,607.5 770.4,75 78.8,75 78.8,607.5                                                           " /></defs><clipPath
                                   id="SVGID_54_"><use
                                   xlink:href="#SVGID_53_"
                                   style="overflow:visible;"
                                   id="use220" /></clipPath><path
                                   class="st50"
                                   d="M204.4,550.2c0-2.8,2.2-5.1,4.8-5.1c2.7,0,4.8,2.3,4.8,5.1s-2.2,5.1-4.8,5.1                             C206.5,555.4,204.4,553,204.4,550.2L204.4,550.2z"
                                   clip-path="url(#SVGID_54_)"
                                   id="path223" /><g
                                   class="st51"
                                   clip-path="url(#SVGID_54_)"
                                   id="g235"><defs
                                   id="defs226"><polygon
                                   id="SVGID_55_"
                                   points="78.8,607.5 770.4,607.5 770.4,75 78.8,75 78.8,607.5                                                             " /></defs><clipPath
                                   id="SVGID_56_"><use
                                   xlink:href="#SVGID_55_"
                                   style="overflow:visible;"
                                   id="use228" /></clipPath><path
                                   class="st52"
                                   d="M138.5,451.4c0-2.8,2.3-5.1,5.1-5.1c2.8,0,5.1,2.3,5.1,5.1c0,2.8-2.3,5.1-5.1,5.1                              C140.8,456.5,138.5,454.2,138.5,451.4L138.5,451.4z"
                                   clip-path="url(#SVGID_56_)"
                                   id="path231" /><polygon
                                   class="st53"
                                   points="78.8,607.5 770.4,607.5 770.4,75 78.8,75 78.8,607.5                                                           "
                                   clip-path="url(#SVGID_56_)"
                                   id="polygon233" /></g></g></g></g></g></g></g></g></g></g></g></g></g></g></g></g></g></g></g></g></g></g></g></g></g></g></g></g><g
     id="g293"><path
       class="st54"
       d="M481.2,418c0-2.8,2.2-5,5-5c2.8,0,5,2.2,5,5c0,2.8-2.2,5-5,5C483.5,423,481.2,420.8,481.2,418L481.2,418z"
       id="path291" /></g><g
     id="g303"><path
       class="st55"
       d="M133.5,211.4L133.5,211.4h-0.3l0,0l-0.1-0.3l-0.2-0.2l0,0l-0.1-0.5l-0.1-0.3l-0.5-0.3l-0.5-0.1l0,0l-0.5,0.1   l-0.6,0.3l-0.1,0.3l-0.1,0.5l0,0l-0.2,0.2l-0.1,0.3l0,0h-0.3h-0.2l-3.8-1.8l0,0l-0.1-0.3l-0.1-0.1l0,0v-0.3l0.1-0.3l0,0l0.1-0.1   l0.2-0.5v-0.5l-0.3-0.5l0,0l-0.3-0.3h-0.5h-0.5L124,207l0,0l-0.3,0.1h-0.3l0,0l-0.1-0.1l-0.3-0.1l-1.9-3.7l0,0v-0.2v-0.3l0,0   l0.3-0.1l0.2-0.2l0,0l0.5-0.1l0.3-0.1l0.3-0.6l0.1-0.5l0,0l-0.1-0.5l-0.3-0.5L122,200l-0.5-0.1l0,0l-0.2-0.2l-0.2-0.1l0,0l-0.1-0.1   v-0.3l0,0l0.3-1.1l0.6-1l1-1.7l0,0l0.2-0.1l0.1-0.1l0,0h0.3l0.3,0.1l0,0l0.2,0.3h0.5h0.5l0.3-0.3l0,0l0.3-0.5v-0.5l-0.2-0.5   l-0.1-0.2l0,0l-0.1-0.2v-0.3l0,0l0.1-0.1l0.1-0.3l3.8-1.8l0,0h0.2h0.3l0,0l0.1,0.2l0.2,0.3l0,0l0.1,0.5l0.1,0.3l0.6,0.3l0.5,0.1   l0,0l0.5-0.1l0.5-0.3l0.1-0.3l0.1-0.5l0,0l0.2-0.3l0.1-0.2l0,0h0.3h0.2l3.8,1.8l0,0l0.1,0.3l0.1,0.1l0,0v0.3l-0.1,0.2l0,0l-0.1,0.2   l-0.2,0.5v0.5l0.3,0.5l0,0l0.3,0.3h0.5h0.5l0.3-0.3l0,0l0.2-0.1h0.3l0,0l0.1,0.1l0.3,0.1l1.9,3.7l0,0v0.2v0.3l0,0l-0.3,0.1   l-0.2,0.2l0,0l-0.5,0.1l-0.3,0.1l-0.3,0.5l-0.1,0.5l0,0l0.1,0.5l0.3,0.6l0.3,0.1l0.5,0.1l0,0l0.2,0.2l0.3,0.1l0,0v0.3v0.2l-1.9,3.7   l0,0l-0.3,0.1l-0.1,0.1l0,0h-0.3l-0.2-0.1l0,0l-0.3-0.3h-0.5H138l-0.3,0.3l0,0l-0.3,0.5v0.5l0.2,0.5l0.1,0.1l0,0l0.1,0.3v0.3l0,0   l-0.1,0.1l-0.1,0.3l-3.8,1.8l0,0H133.5L133.5,211.4L133.5,211.4L133.5,211.4z M131.6,208.3L131.6,208.3l0.7,0.1l0.7,0.3l0.5,0.5   l0.5,0.7l2.3-1.2l0,0l-0.1-0.7v-0.7l0.1-0.7l0.5-0.6l0,0l0.6-0.5l0.7-0.1h0.8l0.6,0.1l1.3-2.3l0,0l-0.7-0.5l-0.5-0.5l-0.2-0.7   L139,201l0,0l0.2-0.7l0.2-0.7l0.5-0.5l0.7-0.5l-1.3-2.3l0,0l-0.6,0.1H138l-0.7-0.1l-0.6-0.5l0,0l-0.5-0.6l-0.1-0.7V194l0.1-0.6   l-2.3-1.2l0,0l-0.5,0.7l-0.5,0.5l-0.7,0.2l-0.7,0.2l0,0l-0.8-0.2l-0.7-0.2l-0.5-0.5l-0.5-0.7l-2.3,1.2l0,0l0.2,0.6v0.8l-0.2,0.7   l-0.5,0.6l0,0l-0.6,0.5l-0.8,0.1h-0.6l-0.8-0.1l0,0l-0.7,1l-0.6,1.2l0,0l0.6,0.3l0.7,0.6l0.3,0.7l0.1,0.7l0,0l-0.1,0.8l-0.3,0.7   l-0.5,0.5l-0.7,0.5l1.3,2.3l0,0l0.7-0.1h0.7l0.7,0.1l0.6,0.5l0,0l0.5,0.6l0.2,0.7v0.7l-0.2,0.7l2.3,1.2l0,0l0.5-0.7l0.5-0.5   l0.7-0.3L131.6,208.3L131.6,208.3L131.6,208.3L131.6,208.3z"
       id="path295" /><path
       class="st55"
       d="M131.6,205.9L131.6,205.9l-1-0.2l-0.9-0.2l-0.9-0.3l-0.7-0.7l-0.7-0.7l-0.2-0.9l-0.3-0.9l-0.2-1l0,0l0.2-0.9   l0.3-0.9l0.2-0.9l0.7-0.8l0.7-0.6l0.9-0.3l0.9-0.2l1-0.2l0,0l0.9,0.2l0.9,0.2l0.9,0.3l0.8,0.6l0.6,0.8l0.3,0.9l0.2,0.9l0.2,0.9l0,0   l-0.2,1l-0.2,0.9l-0.3,0.9l-0.6,0.7l-0.8,0.7l-0.9,0.3l-0.9,0.2L131.6,205.9L131.6,205.9L131.6,205.9L131.6,205.9z M131.6,197.4   L131.6,197.4h-0.8l-0.7,0.3l-0.6,0.2l-0.6,0.6l-0.5,0.6l-0.3,0.6l-0.3,0.7v0.7l0,0v0.8l0.3,0.7l0.3,0.6l0.5,0.6l0.6,0.4l0.6,0.3   l0.7,0.3h0.8l0,0h0.7l0.7-0.3l0.6-0.3l0.6-0.4l0.6-0.6l0.2-0.6l0.3-0.7V201l0,0v-0.7l-0.3-0.7l-0.2-0.6l-0.6-0.6l-0.6-0.6l-0.6-0.2   l-0.7-0.3H131.6L131.6,197.4L131.6,197.4L131.6,197.4z"
       id="path297" /><polygon
       class="st55"
       points="143,219.7 143,218.9 143,218.9 142.8,218.4 142.6,218.2 142.2,218 141.8,217.8 141.8,217.8    141.3,218 141,218.2 140.6,218.4 140.5,218.9 140.5,219.7 139.7,219.3 139.7,219.3 138.4,219.1 137.3,218.4 136.5,218 137.1,217.4    137.1,217.4 137.3,217 137.4,216.6 137.4,216.6 137.3,216.1 137.1,215.7 136.6,215.5 136.1,215.3 136.1,215.3 135.7,215.5    135.5,215.7 134.8,216.3 134.3,215.5 134.3,215.5 133.7,214.3 133.4,213 134.4,212.8 134.4,212.8 134.8,213.5 135.1,214.4    135.1,214.4 135.6,214.2 136.1,214.2 136.1,214.2 136.6,214.2 137.1,214.3 137.9,214.9 138.4,215.7 138.7,216.1 138.7,216.6    138.7,216.6 138.7,217.3 138.3,217.7 138.3,217.7 139.5,218.2 139.5,218.2 139.9,217.5 140.4,217 141,216.8 141.8,216.6    141.8,216.6 142.6,216.8 143.2,217 143.6,217.5 144.1,218.2 144.1,218.2 145.1,217.7 145.1,217.7 144.9,217.3 144.9,216.6    144.9,216.6 144.9,216.1 145,215.7 145.6,214.9 146.4,214.3 146.8,214.2 147.3,214.2 147.3,214.2 148,214.2 148.5,214.4    148.5,214.4 148.9,213.4 148.9,213.4 148.2,212.9 147.8,212.4 147.5,211.7 147.3,211.1 147.3,211.1 147.5,210.2 147.8,209.7    148.2,209.2 148.9,208.6 148.9,208.6 148.5,207.6 148.5,207.6 148,207.9 147.3,207.9 147.3,207.9 146.8,207.9 146.4,207.7    145.6,207.1 145,206.3 144.9,205.9 144.9,205.4 144.9,205.4 144.9,204.8 145.1,204.4 145.1,204.4 144.2,204 143.5,203.7    143.7,202.7 143.7,202.7 145,203 146.3,203.6 147.1,204 146.4,204.6 146.4,204.6 146.3,205 146,205.4 146,205.4 146.3,205.9    146.4,206.3 146.8,206.6 147.3,206.7 147.3,206.7 147.8,206.6 148.1,206.3 148.7,205.8 149.1,206.6 149.1,206.6 149.8,207.7    150.2,209 150.4,209.8 149.6,209.8 149.6,209.8 149.1,209.9 148.9,210.2 148.7,210.6 148.6,211.1 148.6,211.1 148.7,211.5    148.9,211.7 149.1,212.1 149.6,212.2 150.4,212.2 150.2,213 150.2,213 149.8,214.3 149.1,215.5 148.7,216.3 148.1,215.7    148.1,215.7 147.8,215.5 147.3,215.3 147.3,215.3 146.8,215.5 146.4,215.7 146.3,216.1 146,216.6 146,216.6 146.3,217 146.4,217.4    147.1,218 146.3,218.4 146.3,218.4 145,219.1 143.7,219.3 143,219.7 143,219.7  "
       id="polygon299" /><path
       class="st55"
       d="M141.7,214.2L141.7,214.2H141l-0.6-0.4l-0.5-0.1l-0.5-0.5l-0.5-0.5l-0.1-0.6l-0.4-0.6v-0.6l0,0v-0.7l0.4-0.6   l0.1-0.5l0.5-0.5l0.5-0.5l0.5-0.2l0.6-0.2h0.7l0,0h0.6l0.7,0.2l0.5,0.2l0.5,0.5l0.5,0.5l0.1,0.5l0.4,0.6v0.7l0,0v0.6l-0.4,0.6   l-0.1,0.6l-0.5,0.5l-0.5,0.5l-0.5,0.1l-0.7,0.4H141.7L141.7,214.2L141.7,214.2L141.7,214.2z M141.7,209L141.7,209l-0.8,0.1   l-0.5,0.5l-0.5,0.5l-0.1,0.8l0,0l0.1,0.7l0.5,0.5l0.5,0.6l0.8,0.1l0,0l0.8-0.1l0.5-0.6l0.5-0.5l0.1-0.7l0,0l-0.1-0.8l-0.5-0.5   l-0.5-0.5L141.7,209L141.7,209L141.7,209L141.7,209z"
       id="path301" /></g><g
     id="g313"><path
       class="st55"
       d="M249.5,210.4L249.5,210.4h-0.4l0,0l-0.1-0.4l-0.2-0.2l0,0l-0.1-0.5l-0.1-0.4l-0.5-0.4l-0.5-0.1l0,0l-0.5,0.1   l-0.6,0.4l-0.1,0.4l-0.1,0.5l0,0l-0.2,0.2l-0.1,0.4l0,0h-0.4h-0.2l-3.9-1.9l0,0l-0.1-0.4l-0.1-0.1l0,0v-0.4l0.1-0.4l0,0l0.1-0.1   l0.2-0.5v-0.5l-0.4-0.5l0,0l-0.4-0.4h-0.5h-0.5l-0.2,0.4l0,0l-0.4,0.1h-0.4l0,0l-0.1-0.1l-0.4-0.1l-1.9-3.9l0,0v-0.2v-0.4l0,0   l0.4-0.1l0.2-0.2l0,0l0.5-0.1l0.4-0.1l0.4-0.6l0.1-0.5l0,0l-0.1-0.5l-0.4-0.5l-0.4-0.1l-0.5-0.1l0,0l-0.2-0.2l-0.2-0.1l0,0   l-0.1-0.1v-0.4l0,0l0.4-1.2l0.6-1.1l1.1-1.8l0,0l0.2-0.1l0.1-0.1l0,0h0.4l0.4,0.1l0,0l0.2,0.4h0.5h0.5l0.4-0.4l0,0l0.4-0.5v-0.5   l-0.2-0.5l-0.1-0.2l0,0l-0.1-0.2v-0.4l0,0l0.1-0.1l0.1-0.4l3.9-1.9l0,0h0.2h0.4l0,0l0.1,0.2l0.2,0.4l0,0l0.1,0.5l0.1,0.4l0.6,0.4   l0.5,0.1l0,0l0.5-0.1l0.5-0.4l0.1-0.4l0.1-0.5l0,0l0.2-0.4l0.1-0.2l0,0h0.4h0.2l3.9,1.9l0,0l0.1,0.4l0.1,0.1l0,0v0.4l-0.1,0.2l0,0   l-0.1,0.2l-0.2,0.5v0.5l0.4,0.5l0,0l0.4,0.4h0.5h0.5l0.4-0.4l0,0l0.2-0.1h0.4l0,0l0.1,0.1l0.4,0.1l1.9,3.9l0,0v0.2v0.4l0,0   l-0.4,0.1l-0.2,0.2l0,0l-0.5,0.1l-0.4,0.1l-0.4,0.5l-0.1,0.5l0,0l0.1,0.5l0.4,0.6l0.4,0.1l0.5,0.1l0,0l0.2,0.2l0.4,0.1l0,0v0.4v0.2   l-1.9,3.9l0,0l-0.4,0.1L256,206l0,0h-0.4l-0.2-0.1l0,0l-0.4-0.4h-0.5h-0.5l-0.4,0.4l0,0l-0.4,0.5v0.5l0.2,0.5l0.1,0.1l0,0l0.1,0.4   v0.4l0,0l-0.1,0.1l-0.1,0.4l-3.9,1.9l0,0H249.5L249.5,210.4L249.5,210.4L249.5,210.4z M247.5,207.3L247.5,207.3l0.7,0.1l0.7,0.4   l0.5,0.5l0.5,0.7l2.4-1.3l0,0l-0.1-0.7v-0.7l0.1-0.7l0.5-0.6l0,0l0.6-0.5l0.7-0.1h0.8l0.6,0.1l1.3-2.3l0,0l-0.7-0.5l-0.5-0.5   l-0.2-0.7l-0.2-0.8l0,0l0.2-0.7l0.2-0.7l0.5-0.5l0.7-0.5l-1.3-2.3l0,0l-0.6,0.1h-0.8l-0.7-0.1l-0.6-0.5l0,0l-0.5-0.6l-0.1-0.7v-0.8   l0.1-0.6l-2.4-1.3l0,0l-0.5,0.7l-0.5,0.5l-0.7,0.2l-0.7,0.2l0,0l-0.8-0.2l-0.7-0.2l-0.5-0.5l-0.5-0.7l-2.4,1.3l0,0l0.2,0.6v0.8   l-0.2,0.7l-0.5,0.6l0,0l-0.6,0.5l-0.8,0.1h-0.6l-0.8-0.1l0,0l-0.7,1.1l-0.6,1.3l0,0l0.6,0.4l0.7,0.6l0.4,0.7l0.1,0.7l0,0l-0.1,0.8   l-0.4,0.7l-0.5,0.5l-0.7,0.5l1.3,2.3l0,0l0.7-0.1h0.7l0.7,0.1l0.6,0.5l0,0l0.5,0.6l0.2,0.7v0.7l-0.2,0.7l2.4,1.3l0,0l0.5-0.7   l0.5-0.5l0.7-0.4L247.5,207.3L247.5,207.3L247.5,207.3L247.5,207.3z"
       id="path305" /><path
       class="st55"
       d="M247.5,204.7L247.5,204.7l-1.1-0.2l-1-0.2l-1-0.3l-0.7-0.7l-0.7-0.7l-0.2-0.9l-0.4-0.9l-0.2-1l0,0l0.2-0.9   l0.4-0.9l0.2-0.9l0.7-0.8l0.7-0.6l1-0.3l1-0.2l1.1-0.2l0,0l1,0.2l1,0.2l1,0.3l0.8,0.6l0.6,0.8l0.4,0.9l0.2,0.9l0.2,0.9l0,0l-0.2,1   l-0.2,0.9l-0.4,0.9l-0.6,0.7l-0.8,0.7l-1,0.3l-1,0.2L247.5,204.7L247.5,204.7L247.5,204.7L247.5,204.7z M247.5,196L247.5,196h-0.8   l-0.7,0.3l-0.6,0.2l-0.6,0.6l-0.5,0.6l-0.4,0.6l-0.4,0.7v0.7l0,0v0.8l0.4,0.7l0.4,0.6l0.5,0.6l0.6,0.5l0.6,0.3l0.7,0.3h0.8l0,0h0.7   l0.7-0.3l0.6-0.3l0.6-0.5l0.6-0.6l0.2-0.6l0.4-0.7v-0.8l0,0V199l-0.4-0.7l-0.2-0.6l-0.6-0.6l-0.6-0.6l-0.6-0.2l-0.7-0.3H247.5   L247.5,196L247.5,196L247.5,196z"
       id="path307" /><polygon
       class="st55"
       points="259.4,219 259.4,218.2 259.4,218.2 259.2,217.7 258.9,217.5 258.6,217.2 258.1,217.1 258.1,217.1    257.6,217.2 257.2,217.5 256.9,217.7 256.8,218.2 256.8,219 255.9,218.6 255.9,218.6 254.6,218.4 253.4,217.7 252.6,217.2    253.2,216.6 253.2,216.6 253.4,216.3 253.6,215.8 253.6,215.8 253.4,215.3 253.2,214.8 252.7,214.7 252.2,214.5 252.2,214.5    251.8,214.7 251.5,214.8 250.8,215.5 250.3,214.7 250.3,214.7 249.7,213.4 249.4,212.1 250.5,211.9 250.5,211.9 250.8,212.6    251.2,213.5 251.2,213.5 251.7,213.3 252.2,213.3 252.2,213.3 252.7,213.3 253.2,213.4 254,214 254.6,214.8 254.9,215.3    254.9,215.8 254.9,215.8 254.9,216.5 254.5,217 254.5,217 255.7,217.5 255.7,217.5 256.2,216.7 256.7,216.3 257.2,216 258.1,215.8    258.1,215.8 258.9,216 259.5,216.3 260,216.7 260.5,217.5 260.5,217.5 261.5,217 261.5,217 261.3,216.5 261.3,215.8 261.3,215.8    261.3,215.3 261.4,214.8 262,214 262.8,213.4 263.3,213.3 263.8,213.3 263.8,213.3 264.5,213.3 265,213.5 265,213.5 265.5,212.5    265.5,212.5 264.7,212 264.3,211.5 264,210.8 263.8,210.1 263.8,210.1 264,209.2 264.3,208.6 264.7,208.2 265.5,207.6 265.5,207.6    265,206.5 265,206.5 264.5,206.9 263.8,206.9 263.8,206.9 263.3,206.9 262.8,206.6 262,206 261.4,205.2 261.3,204.7 261.3,204.2    261.3,204.2 261.3,203.6 261.5,203.2 261.5,203.2 260.6,202.8 259.9,202.5 260.1,201.4 260.1,201.4 261.4,201.7 262.7,202.3    263.6,202.8 262.8,203.4 262.8,203.4 262.7,203.8 262.5,204.2 262.5,204.2 262.7,204.7 262.8,205.2 263.3,205.4 263.8,205.5    263.8,205.5 264.3,205.4 264.6,205.2 265.2,204.6 265.7,205.4 265.7,205.4 266.4,206.6 266.8,207.9 267,208.8 266.2,208.8    266.2,208.8 265.7,208.9 265.5,209.2 265.2,209.6 265.1,210.1 265.1,210.1 265.2,210.5 265.5,210.8 265.7,211.1 266.2,211.3    267,211.3 266.8,212.1 266.8,212.1 266.4,213.4 265.7,214.7 265.2,215.5 264.6,214.8 264.6,214.8 264.3,214.7 263.8,214.5    263.8,214.5 263.3,214.7 262.8,214.8 262.7,215.3 262.5,215.8 262.5,215.8 262.7,216.3 262.8,216.6 263.6,217.2 262.7,217.7    262.7,217.7 261.4,218.4 260.1,218.6 259.4,219 259.4,219  "
       id="polygon309" /><path
       class="st55"
       d="M258,213.3L258,213.3h-0.7l-0.6-0.4l-0.5-0.1l-0.5-0.5l-0.5-0.5l-0.1-0.6l-0.4-0.6V210l0,0v-0.7l0.4-0.6   l0.1-0.5l0.5-0.5l0.5-0.5l0.5-0.2l0.6-0.2h0.7l0,0h0.6l0.7,0.2l0.5,0.2l0.5,0.5l0.5,0.5l0.1,0.5l0.4,0.6v0.7l0,0v0.6l-0.4,0.6   l-0.1,0.6l-0.5,0.5l-0.5,0.5l-0.5,0.1l-0.7,0.4H258L258,213.3L258,213.3L258,213.3z M258,208L258,208l-0.9,0.1l-0.5,0.5l-0.5,0.5   L256,210l0,0l0.1,0.7l0.5,0.5l0.5,0.6l0.9,0.1l0,0l0.9-0.1l0.5-0.6l0.5-0.5l0.1-0.7l0,0l-0.1-0.9l-0.5-0.5l-0.5-0.5L258,208   L258,208L258,208L258,208z"
       id="path311" /></g><g
     id="g323"><path
       class="st55"
       d="M355.9,211.1L355.9,211.1h-0.4l0,0l-0.1-0.4l-0.2-0.2l0,0l-0.1-0.5l-0.1-0.4l-0.5-0.4l-0.5-0.1l0,0l-0.5,0.1   l-0.6,0.4l-0.1,0.4l-0.1,0.5l0,0l-0.2,0.2l-0.1,0.4l0,0h-0.4h-0.2l-4.1-1.9l0,0l-0.1-0.4l-0.1-0.1l0,0v-0.4l0.1-0.4l0,0l0.1-0.1   l0.2-0.5v-0.5l-0.4-0.5l0,0l-0.4-0.4h-0.5H346l-0.2,0.4l0,0l-0.4,0.1H345l0,0l-0.1-0.1l-0.4-0.1l-2-4l0,0v-0.2v-0.4l0,0l0.4-0.1   l0.2-0.2l0,0l0.5-0.1l0.4-0.1l0.4-0.6l0.1-0.5l0,0l-0.1-0.5L344,199l-0.4-0.1l-0.5-0.1l0,0l-0.2-0.2l-0.2-0.1l0,0l-0.1-0.1V198l0,0   l0.4-1.2l0.6-1.1l1.1-1.8l0,0l0.2-0.1l0.1-0.1l0,0h0.4l0.4,0.1l0,0l0.2,0.4h0.5h0.5l0.4-0.4l0,0l0.4-0.5v-0.5l-0.2-0.5l-0.1-0.2   l0,0l-0.1-0.2v-0.4l0,0l0.1-0.1l0.1-0.4l4.1-1.9l0,0h0.2h0.4l0,0l0.1,0.2l0.2,0.4l0,0l0.1,0.5l0.1,0.4l0.6,0.4l0.5,0.1l0,0l0.5-0.1   l0.5-0.4l0.1-0.4l0.1-0.5l0,0l0.2-0.4l0.1-0.2l0,0h0.4h0.2l4.1,1.9l0,0l0.1,0.4l0.1,0.1l0,0v0.4l-0.1,0.2l0,0l-0.1,0.2l-0.2,0.5   v0.5l0.4,0.5l0,0l0.4,0.4h0.5h0.5l0.4-0.4l0,0l0.2-0.1h0.4l0,0l0.1,0.1l0.4,0.1l2,4l0,0v0.2v0.4l0,0l-0.4,0.1l-0.2,0.2l0,0   l-0.5,0.1l-0.4,0.1l-0.4,0.5l-0.1,0.5l0,0l0.1,0.5l0.4,0.6l0.4,0.1l0.5,0.1l0,0l0.2,0.2l0.4,0.1l0,0v0.4v0.2l-2,4l0,0l-0.4,0.1   l-0.1,0.1l0,0h-0.4l-0.2-0.1l0,0l-0.4-0.4h-0.5h-0.5l-0.4,0.4l0,0l-0.4,0.5v0.5l0.2,0.5l0.1,0.1l0,0l0.1,0.4v0.4l0,0l-0.1,0.1   l-0.1,0.4l-4.1,1.9l0,0H355.9L355.9,211.1L355.9,211.1L355.9,211.1z M353.9,207.9L353.9,207.9l0.7,0.1l0.7,0.4l0.5,0.5l0.5,0.7   l2.5-1.3l0,0l-0.1-0.7v-0.7l0.1-0.7l0.5-0.6l0,0l0.6-0.5l0.7-0.1h0.9l0.6,0.1l1.4-2.4l0,0l-0.7-0.5l-0.5-0.5l-0.2-0.7l-0.2-0.8l0,0   l0.2-0.7l0.2-0.7l0.5-0.5l0.7-0.5l-1.4-2.4l0,0l-0.6,0.1h-0.9l-0.7-0.1l-0.6-0.5l0,0l-0.5-0.6l-0.1-0.7v-0.8l0.1-0.6l-2.5-1.3l0,0   l-0.5,0.7l-0.5,0.5l-0.7,0.2l-0.7,0.2l0,0L353,192l-0.7-0.2l-0.5-0.5l-0.5-0.7l-2.5,1.3l0,0l0.2,0.6v0.8l-0.2,0.7l-0.5,0.6l0,0   l-0.6,0.5l-0.9,0.1h-0.6l-0.9-0.1l0,0l-0.7,1.1l-0.6,1.3l0,0l0.6,0.4l0.7,0.6l0.4,0.7l0.1,0.7l0,0l-0.1,0.8l-0.4,0.7l-0.5,0.5   l-0.7,0.5l1.4,2.4l0,0l0.7-0.1h0.7l0.7,0.1l0.6,0.5l0,0l0.5,0.6l0.2,0.7v0.7l-0.2,0.7l2.5,1.3l0,0l0.5-0.7l0.5-0.5l0.7-0.4   L353.9,207.9L353.9,207.9L353.9,207.9L353.9,207.9z"
       id="path315" /><path
       class="st55"
       d="M353.9,205.2L353.9,205.2l-1.1-0.2l-1-0.2l-1-0.4l-0.7-0.7l-0.7-0.7l-0.2-1l-0.4-1l-0.2-1.1l0,0l0.2-1l0.4-1   l0.2-1l0.7-0.8l0.7-0.6l1-0.4l1-0.2l1.1-0.2l0,0l1,0.2l1,0.2l1,0.4l0.9,0.6l0.6,0.8l0.4,1l0.2,1l0.2,1l0,0l-0.2,1.1l-0.2,1l-0.4,1   l-0.6,0.7l-0.9,0.7l-1,0.4l-1,0.2L353.9,205.2L353.9,205.2L353.9,205.2L353.9,205.2z M353.9,196.2L353.9,196.2H353l-0.7,0.4   l-0.6,0.2l-0.6,0.6l-0.5,0.6l-0.4,0.6l-0.4,0.7v0.7l0,0v0.8l0.4,0.7l0.4,0.6l0.5,0.6l0.6,0.5l0.6,0.4l0.7,0.4h0.9l0,0h0.7l0.7-0.4   l0.6-0.4l0.6-0.5l0.6-0.6l0.2-0.6l0.4-0.7V200l0,0v-0.7l-0.4-0.7l-0.2-0.6l-0.6-0.6l-0.6-0.6l-0.6-0.2l-0.7-0.4H353.9L353.9,196.2   L353.9,196.2L353.9,196.2z"
       id="path317" /><polygon
       class="st55"
       points="366.1,220 366.1,219.1 366.1,219.1 365.9,218.6 365.6,218.4 365.3,218.2 364.8,218 364.8,218    364.3,218.2 363.9,218.4 363.6,218.6 363.4,219.1 363.4,220 362.6,219.6 362.6,219.6 361.2,219.4 360,218.6 359.1,218.2    359.7,217.5 359.7,217.5 360,217.2 360.1,216.7 360.1,216.7 360,216.2 359.7,215.7 359.2,215.6 358.8,215.3 358.8,215.3    358.3,215.6 358,215.7 357.3,216.4 356.8,215.6 356.8,215.6 356.2,214.2 355.8,212.9 356.9,212.6 356.9,212.6 357.3,213.4    357.6,214.3 357.6,214.3 358.1,214.1 358.8,214.1 358.8,214.1 359.2,214.1 359.7,214.2 360.6,214.8 361.2,215.7 361.5,216.2    361.5,216.7 361.5,216.7 361.5,217.4 361.1,217.9 361.1,217.9 362.3,218.4 362.3,218.4 362.8,217.7 363.3,217.2 363.9,216.9    364.8,216.7 364.8,216.7 365.6,216.9 366.3,217.2 366.8,217.7 367.2,218.4 367.2,218.4 368.3,217.9 368.3,217.9 368.1,217.4    368.1,216.7 368.1,216.7 368.1,216.2 368.2,215.7 368.8,214.8 369.7,214.2 370.2,214.1 370.7,214.1 370.7,214.1 371.4,214.1    371.9,214.3 371.9,214.3 372.4,213.2 372.4,213.2 371.7,212.7 371.2,212.3 370.9,211.5 370.7,210.8 370.7,210.8 370.9,209.9    371.2,209.3 371.7,208.8 372.4,208.2 372.4,208.2 371.9,207.1 371.9,207.1 371.4,207.5 370.7,207.5 370.7,207.5 370.2,207.5    369.7,207.2 368.8,206.6 368.2,205.7 368.1,205.2 368.1,204.7 368.1,204.7 368.1,204.1 368.3,203.6 368.3,203.6 367.4,203.3    366.6,202.9 366.9,201.8 366.9,201.8 368.2,202.2 369.6,202.8 370.4,203.3 369.7,203.9 369.7,203.9 369.6,204.3 369.3,204.7    369.3,204.7 369.6,205.2 369.7,205.7 370.2,206 370.7,206.1 370.7,206.1 371.2,206 371.5,205.7 372.2,205.1 372.7,206 372.7,206    373.4,207.2 373.8,208.6 374,209.4 373.1,209.4 373.1,209.4 372.7,209.5 372.4,209.9 372.2,210.3 372,210.8 372,210.8 372.2,211.3    372.4,211.5 372.7,211.9 373.1,212 374,212 373.8,212.9 373.8,212.9 373.4,214.2 372.7,215.6 372.2,216.4 371.5,215.7 371.5,215.7    371.2,215.6 370.7,215.3 370.7,215.3 370.2,215.6 369.7,215.7 369.6,216.2 369.3,216.7 369.3,216.7 369.6,217.2 369.7,217.5    370.4,218.2 369.6,218.6 369.6,218.6 368.2,219.4 366.9,219.6 366.1,220 366.1,220  "
       id="polygon319" /><path
       class="st55"
       d="M364.7,214.1L364.7,214.1h-0.8l-0.6-0.4l-0.5-0.1l-0.5-0.5l-0.5-0.5l-0.1-0.6l-0.4-0.6v-0.6l0,0v-0.8l0.4-0.6   l0.1-0.5l0.5-0.5l0.5-0.5l0.5-0.3l0.6-0.3h0.8l0,0h0.6l0.8,0.3l0.5,0.3l0.5,0.5l0.5,0.5l0.1,0.5l0.4,0.6v0.8l0,0v0.6l-0.4,0.6   l-0.1,0.6l-0.5,0.5l-0.5,0.5l-0.5,0.1l-0.8,0.4H364.7L364.7,214.1L364.7,214.1L364.7,214.1z M364.7,208.6L364.7,208.6l-0.9,0.1   l-0.5,0.5l-0.5,0.5l-0.1,0.9l0,0l0.1,0.8l0.5,0.5l0.5,0.6l0.9,0.1l0,0l0.9-0.1l0.5-0.6l0.5-0.5l0.1-0.8l0,0l-0.1-0.9l-0.5-0.5   l-0.5-0.5L364.7,208.6L364.7,208.6L364.7,208.6L364.7,208.6z"
       id="path321" /></g><g
     id="g367"><path
       class="st2"
       d="M122.2,296.9c0-6.8,5.7-12.4,12.6-12.4c7,0,12.6,5.5,12.6,12.4s-5.7,12.4-12.6,12.4   C127.9,309.3,122.2,303.7,122.2,296.9L122.2,296.9z"
       id="path325" /><g
       id="g365"><defs
         id="defs328"><polygon
           id="SVGID_57_"
           points="121.7,309.8 148,309.8 148,284 121.7,284 121.7,309.8    " /></defs><clipPath
         id="SVGID_58_"><use
           xlink:href="#SVGID_57_"
           style="overflow:visible;"
           id="use330" /></clipPath><line
         class="st56"
         x1="133.5"
         y1="297.7"
         x2="129.7"
         y2="301.3"
         clip-path="url(#SVGID_58_)"
         id="line333" /><g
         class="st57"
         clip-path="url(#SVGID_58_)"
         id="g363"><defs
           id="defs336"><polygon
             id="SVGID_59_"
             points="121.7,309.8 148,309.8 148,284 121.7,284 121.7,309.8     " /></defs><clipPath
           id="SVGID_60_"><use
             xlink:href="#SVGID_59_"
             style="overflow:visible;"
             id="use338" /></clipPath><polygon
           class="st58"
           points="131.2,302.9 126.5,304.4 128.2,299.7 131.2,302.9    "
           clip-path="url(#SVGID_60_)"
           id="polygon341" /><g
           class="st59"
           clip-path="url(#SVGID_60_)"
           id="g361"><defs
             id="defs344"><polygon
               id="SVGID_61_"
               points="121.7,309.8 148,309.8 148,284 121.7,284 121.7,309.8      " /></defs><clipPath
             id="SVGID_62_"><use
               xlink:href="#SVGID_61_"
               style="overflow:visible;"
               id="use346" /></clipPath><line
             class="st60"
             x1="136.3"
             y1="295.6"
             x2="140"
             y2="291.9"
             clip-path="url(#SVGID_62_)"
             id="line349" /><g
             class="st61"
             clip-path="url(#SVGID_62_)"
             id="g359"><defs
               id="defs352"><polygon
                 id="SVGID_63_"
                 points="121.7,309.8 148,309.8 148,284 121.7,284 121.7,309.8       " /></defs><clipPath
               id="SVGID_64_"><use
                 xlink:href="#SVGID_63_"
                 style="overflow:visible;"
                 id="use354" /></clipPath><polygon
               class="st62"
               points="138.5,290.3 143.1,288.8 141.6,293.4 138.5,290.3      "
               clip-path="url(#SVGID_64_)"
               id="polygon357" /></g></g></g></g></g><g
     id="g375"><path
       class="st55"
       d="M152,329l-0.2-0.2L150,328l-1.4-1l-1.4-1l-1.2-1.2l-1-1.2l-0.9-1.2l-0.9-1.4l-0.5-1.2l-0.9-2.6l-0.5-2.4   l-0.3-2.1v-1.9v-0.7l0.5-0.2l2.1-0.5l1.9-0.7l1.7-1l1.6-0.9l2.1-1.7l0.7-0.7l0.5-0.5l0.5,0.5l0.9,0.7l2.1,1.7l1.4,0.9l1.7,1   l1.9,0.7l2.1,0.5l0.7,0.2l-0.2,0.7v1.9l-0.2,2.1l-0.5,2.4l-1,2.6l-0.5,1.2l-0.7,1.4l-0.9,1.2l-1,1.2l-1.2,1.2l-1.4,1l-1.6,1   l-1.7,0.9L152,329L152,329L152,329z M142.4,311.4L142.4,311.4v1.5l0.3,2.1l0.5,2.1l0.9,2.4l0.5,1l0.7,1.2l0.7,1l1,1.2l1,1l1.2,0.9   l1.2,0.9l1.6,0.9l1.6-0.9l1.4-0.9l1.2-0.9l1-1l0.9-1.2l0.9-1l0.7-1.2l0.5-1l0.9-2.4l0.3-2.1l0.3-2.1v-1.5l-1.7-0.5l-1.6-0.7   l-1.6-0.7l-1.2-0.9l-2.2-1.5l-1.4-1l-1.4,1l-2.1,1.5l-1.4,0.9l-1.6,0.7l-1.6,0.7L142.4,311.4L142.4,311.4L142.4,311.4z"
       id="path369" /><path
       class="st55"
       d="M152.1,307.2L152.1,307.2l-0.3,0.2v0.3v0.2l0.3,0.2l0.3-0.2l0.2-0.2l-0.2-0.3L152.1,307.2L152.1,307.2   L152.1,307.2z M152.1,325.7L152.1,325.7l-0.3,0.2v0.3v0.3l0.3,0.2l0.3-0.2l0.2-0.3l-0.2-0.3L152.1,325.7L152.1,325.7L152.1,325.7z    M143.8,311.5L143.8,311.5l-0.3,0.2l-0.2,0.2l0.2,0.3l0.3,0.2l0.3-0.2v-0.3v-0.2L143.8,311.5L143.8,311.5L143.8,311.5z    M160.7,311.5L160.7,311.5l-0.3,0.2l-0.2,0.2l0.2,0.3l0.3,0.2l0.3-0.2v-0.3v-0.2L160.7,311.5L160.7,311.5L160.7,311.5z"
       id="path371" /><path
       class="st55"
       d="M155.5,315.5h-0.3v-1.7v-0.7l-0.2-0.5l-0.3-0.5l-0.3-0.5l-0.5-0.3l-0.5-0.2l-0.5-0.2l-0.7-0.2h-0.5L151,311   l-0.5,0.3l-0.3,0.3l-0.5,0.5l-0.2,0.5l-0.2,0.5l-0.2,0.7v1.7h-0.3l-0.3,0.2l-0.3,0.2l-0.2,0.3l-0.2,0.5v3l0.2,0.5l0.2,0.3l0.3,0.2   l0.3,0.2h6.6l0.3-0.2l0.3-0.2l0.3-0.3v-0.5v-3v-0.5l-0.3-0.3l-0.3-0.2L155.5,315.5L155.5,315.5L155.5,315.5z M150.1,313.8   L150.1,313.8l0.2-0.8l0.3-0.7l0.7-0.5l0.8-0.2l0.8,0.2l0.7,0.5l0.5,0.7l0.2,0.8v1.7h-4.2V313.8L150.1,313.8L150.1,313.8z    M153,317.8L153,317.8l-0.2,0.3l-0.2,0.2v0.8l-0.2,0.3h-0.3h-0.3v-0.3v-0.8l-0.3-0.2v-0.3v-0.3v-0.3l0.2-0.2l0.3-0.2h0.2h0.3   l0.2,0.2l0.2,0.2l0.2,0.3V317.8L153,317.8L153,317.8z"
       id="path373" /></g><g
     id="g379"><path
       class="st54"
       d="M481.2,451c0-3.9,4.5-6.8,8.7-3.7c3.1,4.1,0.3,8.7-3.7,8.7C483.5,456,481.2,453.8,481.2,451L481.2,451z"
       id="path377" /></g><g
     id="g383"><path
       class="st54"
       d="M543.2,418c0-3.9,4.5-6.8,8.7-3.7c3.1,4.1,0.3,8.7-3.7,8.7C545.5,423,543.2,420.8,543.2,418L543.2,418z"
       id="path381" /></g><g
     id="g387"><path
       class="st54"
       d="M543.2,550c0-3.9,4.5-6.8,8.7-3.7c3.1,4.1,0.3,8.7-3.7,8.7C545.5,555,543.2,552.8,543.2,550L543.2,550z"
       id="path385" /></g><rect
     x="96"
     y="145"
     class="st63"
     width="87"
     height="54"
     id="rect389" /><text
     transform="matrix(1 0 0 1 96 158.3198)"
     id="text395"><tspan
       x="0"
       y="0"
       class="st64 st65 st66"
       id="tspan391">   Virtual </tspan><tspan
       x="0"
       y="21.6"
       class="st64 st65 st66"
       id="tspan393">Appliance</tspan></text>
<rect
     x="212"
     y="145"
     class="st63"
     width="86"
     height="47"
     id="rect397" /><text
     transform="matrix(1 0 0 1 212 158.3198)"
     id="text403"><tspan
       x="0"
       y="0"
       class="st64 st65 st66"
       id="tspan399">   Virtual </tspan><tspan
       x="0"
       y="21.6"
       class="st64 st65 st66"
       id="tspan401">Appliance</tspan></text>
<rect
     x="323"
     y="144"
     class="st63"
     width="88"
     height="54"
     id="rect405" /><text
     transform="matrix(1 0 0 1 323 157.3198)"
     id="text411"><tspan
       x="0"
       y="0"
       class="st64 st65 st66"
       id="tspan407">   Virtual </tspan><tspan
       x="0"
       y="21.6"
       class="st64 st65 st66"
       id="tspan409">Appliance</tspan></text>
<rect
     x="115"
     y="252"
     class="st63"
     width="46"
     height="17"
     id="rect413" /><text
     transform="matrix(1 0 0 1 115 265.3193)"
     class="st64 st65 st66"
     id="text415">Edge</text>
<rect
     x="236"
     y="251"
     class="st63"
     width="38"
     height="15"
     id="rect417" /><text
     transform="matrix(1 0 0 1 236 264.3193)"
     class="st64 st65 st66"
     id="text419">VM</text>
<rect
     x="237"
     y="284"
     class="st63"
     width="38"
     height="15"
     id="rect421" /><text
     transform="matrix(1 0 0 1 237 294.3589)"
     class="st64 st65 st67"
     id="text423">APP</text>
<rect
     x="347"
     y="285"
     class="st63"
     width="38"
     height="15"
     id="rect425" /><text
     transform="matrix(1 0 0 1 347 295.3589)"
     class="st64 st65 st67"
     id="text427">APP</text>
<rect
     x="494"
     y="269"
     class="st63"
     width="38"
     height="15"
     id="rect429" /><text
     transform="matrix(1 0 0 1 494 279.3593)"
     class="st64 st65 st67"
     id="text431">APP</text>
<rect
     x="663"
     y="269"
     class="st63"
     width="38"
     height="15"
     id="rect433" /><text
     transform="matrix(1 0 0 1 663 279.3593)"
     class="st64 st65 st67"
     id="text435">APP</text>
<rect
     x="579"
     y="268"
     class="st63"
     width="38"
     height="15"
     id="rect437" /><text
     transform="matrix(1 0 0 1 579 278.3593)"
     class="st64 st65 st67"
     id="text439">APP</text>
<rect
     x="240"
     y="308"
     class="st63"
     width="38"
     height="15"
     id="rect441" /><text
     transform="matrix(1 0 0 1 240 318.3589)"
     class="st64 st65 st67"
     id="text443">BS</text>
<rect
     x="350"
     y="308"
     class="st63"
     width="38"
     height="15"
     id="rect445" /><text
     transform="matrix(1 0 0 1 350 318.3589)"
     class="st64 st65 st67"
     id="text447">BS</text>
<rect
     x="499"
     y="291"
     class="st63"
     width="38"
     height="15"
     id="rect449" /><text
     transform="matrix(1 0 0 1 499 301.3589)"
     class="st64 st65 st67"
     id="text451">BS</text>
<rect
     x="583"
     y="291"
     class="st63"
     width="38"
     height="15"
     id="rect453" /><text
     transform="matrix(1 0 0 1 583 301.3589)"
     class="st64 st65 st67"
     id="text455">BS</text>
<rect
     x="666"
     y="291"
     class="st63"
     width="38"
     height="15"
     id="rect457" /><text
     transform="matrix(1 0 0 1 666 301.3589)"
     class="st64 st65 st67"
     id="text459">BS</text>
<rect
     x="346"
     y="251"
     class="st63"
     width="38"
     height="15"
     id="rect461" /><text
     transform="matrix(1 0 0 1 346 264.3193)"
     class="st64 st65 st66"
     id="text463">VM</text>
<rect
     x="104"
     y="93"
     class="st63"
     width="291"
     height="19"
     id="rect465" /><text
     transform="matrix(1 0 0 1 104 106.3198)"
     class="st64 st65 st66"
     id="text467">Management- / Edge-Infrastruktur</text>
<rect
     x="546"
     y="95"
     class="st63"
     width="92"
     height="19"
     id="rect469" /><text
     transform="matrix(1 0 0 1 546 108.3193)"
     class="st64 st65 st66"
     id="text471">Workloads</text>
<rect
     x="196"
     y="378"
     class="st63"
     width="92"
     height="19"
     id="rect473" /><text
     transform="matrix(1 0 0 1 196 391.3188)"
     class="st64 st65 st66"
     id="text475">ESXi-Host</text>
<rect
     x="548"
     y="378"
     class="st63"
     width="92"
     height="19"
     id="rect477" /><text
     transform="matrix(1 0 0 1 548 391.3188)"
     class="st64 st65 st66"
     id="text479">ESXi-Host</text>
<rect
     x="366"
     y="473"
     class="st63"
     width="119"
     height="21"
     id="rect481" /><text
     transform="matrix(1 0 0 1 366 488.54)"
     class="st64 st65 st68"
     id="text483">ffentliche VDS</text>
<rect
     x="359"
     y="575"
     class="st63"
     width="121"
     height="19"
     id="rect485" /><text
     transform="matrix(1 0 0 1 359 590.54)"
     class="st64 st65 st68"
     id="text487">Private VDS</text>
<line
     class="st69"
     x1="209"
     y1="422"
     x2="209"
     y2="545"
     id="line489" /><line
     class="st69"
     x1="548"
     y1="422"
     x2="548"
     y2="545"
     id="line491" /><g
     id="g495"><line
       class="st70"
       x1="143.5"
       y1="421"
       x2="143.5"
       y2="446"
       id="line493" /></g><g
     id="g499"><line
       class="st70"
       x1="486.5"
       y1="421"
       x2="486.5"
       y2="446"
       id="line497" /></g><g
     id="g503"><path
       class="st71"
       d="M87.5,62.5c0-8.6,1.8-15.5,4-15.5H766c2.2,0,4,6.9,4,15.5"
       id="path501" /></g><rect
     x="273"
     y="16"
     class="st63"
     width="353"
     height="21"
     id="rect505" /><text
     transform="matrix(1 0 0 1 273 33.7598)"
     class="st65 st72"
     id="text507">Management / Edge / Rechenressourcen</text>
<polygon
     class="st1"
     points="500.4,172.3 680,172.3 680,205 500.4,205 500.4,172.3 "
     id="polygon509" /><rect
     x="525"
     y="181"
     class="st63"
     width="142"
     height="19"
     id="rect511" /><text
     class="st64 st65 st66"
     id="text513"
     x="511"
     y="194.31979"
     style="font-size:18px;font-family:IBMPlexSans;fill:#ffffff">Virtuelle Maschinen</text>
</svg>
