<?xml version="1.0" encoding="UTF-8" standalone="no"?>
<!-- Generator: Adobe Illustrator 22.0.1, SVG Export Plug-In . SVG Version: 6.00 Build 0)  -->

<svg
   xmlns:dc="http://purl.org/dc/elements/1.1/"
   xmlns:cc="http://creativecommons.org/ns#"
   xmlns:rdf="http://www.w3.org/1999/02/22-rdf-syntax-ns#"
   xmlns:svg="http://www.w3.org/2000/svg"
   xmlns="http://www.w3.org/2000/svg"
   xmlns:sodipodi="http://sodipodi.sourceforge.net/DTD/sodipodi-0.dtd"
   xmlns:inkscape="http://www.inkscape.org/namespaces/inkscape"
   version="1.1"
   x="0px"
   y="0px"
   viewBox="0 0 686 794"
   style="enable-background:new 0 0 686 794;"
   xml:space="preserve"
   id="svg2"
   inkscape:version="0.91 r13725"
   sodipodi:docname="cloud_gateway_deployment.svg"><metadata
   id="metadata422"><rdf:RDF><cc:Work
       rdf:about=""><dc:format>image/svg+xml</dc:format><dc:type
         rdf:resource="http://purl.org/dc/dcmitype/StillImage" /></cc:Work></rdf:RDF></metadata><defs
   id="defs420">
	
	

	
	
</defs><sodipodi:namedview
   pagecolor="#ffffff"
   bordercolor="#666666"
   borderopacity="1"
   objecttolerance="10"
   gridtolerance="10"
   guidetolerance="10"
   inkscape:pageopacity="0"
   inkscape:pageshadow="2"
   inkscape:window-width="1920"
   inkscape:window-height="1024"
   id="namedview418"
   showgrid="false"
   showguides="false"
   inkscape:zoom="1.0561517"
   inkscape:cx="340.7"
   inkscape:cy="399.87793"
   inkscape:window-x="-4"
   inkscape:window-y="-4"
   inkscape:window-maximized="1"
   inkscape:current-layer="svg2" />
<style
   type="text/css"
   id="style4">
	.st0{fill:#FFFFFF;}
	.st1{fill:none;stroke:#000000;stroke-miterlimit:10;}
	.st2{fill:none;stroke:#000000;stroke-miterlimit:10;stroke-dasharray:7.9157,7.9157;}
	.st3{fill:none;stroke:#000000;stroke-miterlimit:10;stroke-dasharray:8.052,8.052;}
	.st4{fill:#AADFF2;}
	.st5{fill:none;stroke:#000000;stroke-miterlimit:10;stroke-dasharray:7.9718,7.9718;}
	.st6{fill:none;stroke:#000000;stroke-miterlimit:10;stroke-dasharray:8.1177,8.1177;}
	.st7{font-family:'MyriadPro-Regular';}
	.st8{font-size:21px;}
	.st9{fill:#E1E5BA;}
	.st10{fill:none;stroke:#000000;stroke-miterlimit:10;stroke-dasharray:8.1429,8.1429;}
	.st11{fill:#FFFFFF;stroke:#000000;stroke-width:3;stroke-miterlimit:10;}
	.st12{fill:#FF7BAC;}
	.st13{font-family:'IBMPlexSans';}
	.st14{fill:#29ABE2;}
	.st15{font-size:18px;}
	.st16{fill:#EF7C26;}
	.st17{fill:#F4BA51;}
	.st18{fill:#169ADB;stroke:#9BCCDD;stroke-width:0.5;stroke-miterlimit:10;}
	.st19{fill:url(#SVGID_1_);}
	.st20{font-size:11.4646px;}
	.st21{fill:url(#SVGID_2_);}
	.st22{font-size:9.2282px;}
	.st23{fill:#2B6782;}
	.st24{fill:#1E4C66;}
	.st25{font-size:16.5319px;}
</style>
<g
   id="Outter_dash_rectangle">
	<g
   id="g7">
		<rect
   x="9"
   y="64"
   class="st0"
   width="665"
   height="628"
   id="rect9" />
		<g
   id="g11">
			<polyline
   class="st1"
   points="674,688 674,692 670,692    "
   id="polyline13" />
			<line
   class="st2"
   x1="662.1"
   y1="692"
   x2="17"
   y2="692"
   id="line15" />
			<polyline
   class="st1"
   points="13,692 9,692 9,688    "
   id="polyline17" />
			<line
   class="st3"
   x1="9"
   y1="679.9"
   x2="9"
   y2="72"
   id="line19" />
			<polyline
   class="st1"
   points="9,68 9,64 13,64    "
   id="polyline21" />
			<line
   class="st2"
   x1="20.9"
   y1="64"
   x2="666"
   y2="64"
   id="line23" />
			<polyline
   class="st1"
   points="670,64 674,64 674,68    "
   id="polyline25" />
			<line
   class="st3"
   x1="674"
   y1="76.1"
   x2="674"
   y2="684"
   id="line27" />
		</g>
	</g>
</g>
<g
   id="g30">
		<rect
   style="fill:#aadff2"
   id="rect32"
   height="146"
   width="574"
   class="st4"
   y="94.5"
   x="59.5" />
		<g
   id="g34">
			<polyline
   style="fill:none;stroke:#000000;stroke-miterlimit:10"
   id="polyline36"
   points="633.5,236.5 633.5,240.5 629.5,240.5    "
   class="st1" />
			<line
   style="fill:none;stroke:#000000;stroke-miterlimit:10;stroke-dasharray:7.9718, 7.9718"
   id="line38"
   y2="240.5"
   x2="67.5"
   y1="240.5"
   x1="621.5"
   class="st5" />
			<polyline
   style="fill:none;stroke:#000000;stroke-miterlimit:10"
   id="polyline40"
   points="63.5,240.5 59.5,240.5 59.5,236.5    "
   class="st1" />
			<line
   style="fill:none;stroke:#000000;stroke-miterlimit:10;stroke-dasharray:8.1177, 8.1177"
   id="line42"
   y2="102.6"
   x2="59.5"
   y1="228.39999"
   x1="59.5"
   class="st6" />
			<polyline
   style="fill:none;stroke:#000000;stroke-miterlimit:10"
   id="polyline44"
   points="59.5,98.5 59.5,94.5 63.5,94.5    "
   class="st1" />
			<line
   style="fill:none;stroke:#000000;stroke-miterlimit:10;stroke-dasharray:7.9718, 7.9718"
   id="line46"
   y2="94.5"
   x2="625.5"
   y1="94.5"
   x1="71.5"
   class="st5" />
			<polyline
   style="fill:none;stroke:#000000;stroke-miterlimit:10"
   id="polyline48"
   points="629.5,94.5 633.5,94.5 633.5,98.5    "
   class="st1" />
			<line
   style="fill:none;stroke:#000000;stroke-miterlimit:10;stroke-dasharray:8.1177, 8.1177"
   id="line50"
   y2="232.39999"
   x2="633.5"
   y1="106.6"
   x1="633.5"
   class="st6" />
		</g>
	</g><text
   style="font-size:21px;font-family:MyriadPro-Regular"
   id="text52"
   class="st7 st8"
   x="376"
   y="226">Espace adresse public</text>

<g
   id="Private_address_space_rectangle">
	<g
   id="g55">
		<rect
   x="59.5"
   y="251.5"
   class="st9"
   width="574"
   height="407"
   id="rect57" />
		<g
   id="g59">
			<polyline
   class="st1"
   points="633.5,654.5 633.5,658.5 629.5,658.5    "
   id="polyline61" />
			<line
   class="st5"
   x1="621.5"
   y1="658.5"
   x2="67.5"
   y2="658.5"
   id="line63" />
			<polyline
   class="st1"
   points="63.5,658.5 59.5,658.5 59.5,654.5    "
   id="polyline65" />
			<line
   class="st10"
   x1="59.5"
   y1="646.4"
   x2="59.5"
   y2="259.6"
   id="line67" />
			<polyline
   class="st1"
   points="59.5,255.5 59.5,251.5 63.5,251.5    "
   id="polyline69" />
			<line
   class="st5"
   x1="71.5"
   y1="251.5"
   x2="625.5"
   y2="251.5"
   id="line71" />
			<polyline
   class="st1"
   points="629.5,251.5 633.5,251.5 633.5,255.5    "
   id="polyline73" />
			<line
   class="st10"
   x1="633.5"
   y1="263.6"
   x2="633.5"
   y2="650.4"
   id="line75" />
		</g>
	</g>
	<text
   class="st7 st8"
   id="text77"
   x="387"
   y="643"
   style="font-size:21px;font-family:MyriadPro-Regular">Espace adresse privé</text>

</g>
<g
   id="ibm_cloud">
	<path
   class="st11"
   d="M141.2,59.9c0-11.4-13.4-20.6-29.9-20.6c-1.6,0-3.2,0.1-4.7,0.3c-1-2.2-2.6-4.2-4.6-5.8   c-4.7-3.8-10.8-4.5-15.7-2.3C83.5,16.9,72,6,58.2,6C43.8,6,32,17.8,29.8,33.2c-0.1,0-0.2,0-0.4,0c-11.6,0-21,10.6-21,23.7   c0,10,5.5,18.5,13.2,22v0.9h2.4c1.7,0.5,3.5,0.8,5.3,0.8c1.8,0,3.6-0.3,5.3-0.8h68.4c2.6,0.5,5.3,0.8,8.1,0.8   c2.8,0,5.5-0.3,8.1-0.8h2.4v-0.5C133.1,76.3,141.2,68.8,141.2,59.9z"
   id="path80" />
	<text
   transform="matrix(1 0 0 1 21 62)"
   class="st7 st8"
   id="text82">IBM Cloud</text>

</g>
<g
   id="lines">
	<line
   class="st1"
   x1="128"
   y1="190"
   x2="128"
   y2="503.5"
   id="line85" />
	<line
   class="st1"
   x1="221.5"
   y1="407.5"
   x2="221.5"
   y2="503.5"
   id="line87" />
	<line
   class="st1"
   x1="361.5"
   y1="190.5"
   x2="361.5"
   y2="565.5"
   id="line89" />
	<line
   class="st1"
   x1="346.5"
   y1="407.5"
   x2="346.5"
   y2="504.5"
   id="line91" />
	<line
   class="st1"
   x1="376.5"
   y1="407.5"
   x2="376.5"
   y2="438.5"
   id="line93" />
</g>
<g
   id="pubic_VLAN_native">
	<g
   id="g96">
		<g
   id="g98">
			<g
   id="g100">
				<g
   id="g102">
					<path
   class="st12"
   d="M103.5,190.5L103.5,190.5l-0.4-0.1c-7.7-1.1-13.6-10.3-13.6-21.4s5.8-20.3,13.6-21.4l0.4-0.1v0h485.3       l0.2,0c7.6,0.4,13.5,9.8,13.5,21.5s-5.9,21.1-13.5,21.5l-0.4,0H103.5z"
   id="path104" />
					<path
   d="M588.6,148l0.3,0c7.2,0.4,13.1,9.8,13.1,21s-5.9,20.6-13.1,21l-0.2,0H103.8l-0.7-0.1c-7.4-1-13.1-10.2-13.1-20.9       s5.8-19.9,13.1-20.9l0.7-0.1H588.6 M589,147H103v0.1c-7.9,1.1-14,10.5-14,21.9c0,11.4,6.1,20.8,14,21.9v0.1h486v0       c7.8-0.4,14-10.1,14-22C603,157.1,596.8,147.4,589,147L589,147L589,147z"
   id="path106" />
				</g>
				<g
   id="g108">
					<path
   class="st0"
   d="M587.5,186.9c-5.5,0-10-8.2-10-18.4c0-10.1,4.5-18.4,10-18.4c5.5,0,10,8.2,10,18.4       C597.5,178.7,593,186.9,587.5,186.9z"
   id="path110" />
					<path
   d="M587.5,150.7c5.1,0,9.5,8.2,9.5,17.9c0,9.7-4.4,17.9-9.5,17.9c-5.1,0-9.5-8.2-9.5-17.9       C578,158.9,582.4,150.7,587.5,150.7 M587.5,149.7c-5.8,0-10.5,8.4-10.5,18.9c0,10.4,4.7,18.9,10.5,18.9S598,179,598,168.6       C598,158.1,593.3,149.7,587.5,149.7L587.5,149.7z"
   id="path112" />
				</g>
			</g>
		</g>
		<text
   transform="matrix(1 0 0 1 299.75 175.75)"
   class="st13 st8"
   id="text114">VLAN (natif)</text>

	</g>
</g>
<g
   id="security_lock_icon">
	<g
   id="g117">
		<path
   class="st14"
   d="M377,407.8h-30c-6.6,0-12-5.4-12-12v-25c0-6.6,5.4-12,12-12h30c6.6,0,12,5.4,12,12v25    C389,402.4,383.6,407.8,377,407.8z"
   id="path119" />
		<g
   id="g121">
			<g
   id="g123">
				<path
   class="st0"
   d="M367.9,380.8h-10.9c-2.2,0-4.1-1.8-4.1-4.1v-5.9c0-2.2,1.8-4.1,4.1-4.1h10.9c2.2,0,4.1,1.8,4.1,4.1v5.9      C372,378.9,370.2,380.8,367.9,380.8z"
   id="path125" />
				<path
   class="st14"
   d="M365.9,378.8h-6.9c-1.1,0-2.1-0.9-2.1-2.1v-4c0-1.1,0.9-2.1,2.1-2.1h6.9c1.1,0,2.1,0.9,2.1,2.1v4      C368,377.8,367.1,378.8,365.9,378.8z"
   id="path127" />
				<path
   class="st0"
   d="M373.9,399.8h-22.9c-2.2,0-4.1-1.8-4.1-4.1v-13.9c0-2.2,1.8-4.1,4.1-4.1h22.9c2.2,0,4.1,1.8,4.1,4.1v13.9      C378,397.9,376.2,399.8,373.9,399.8z"
   id="path129" />
			</g>
			<g
   id="g131">
				<ellipse
   class="st14"
   cx="363"
   cy="386.3"
   rx="4"
   ry="3.5"
   id="ellipse133" />
				<path
   class="st14"
   d="M362.5,396.8L362.5,396.8c-0.8,0-1.5-0.7-1.5-1.5v-7c0-0.8,0.7-1.5,1.5-1.5l0,0c0.8,0,1.5,0.7,1.5,1.5v7      C364,396.1,363.3,396.8,362.5,396.8z"
   id="path135" />
				<path
   class="st14"
   d="M365.5,391.8h-2c-0.3,0-0.5-0.2-0.5-0.5l0,0c0-0.3,0.2-0.5,0.5-0.5h2c0.3,0,0.5,0.2,0.5,0.5l0,0      C366,391.5,365.8,391.8,365.5,391.8z"
   id="path137" />
				<path
   class="st14"
   d="M365.5,393.8h-2c-0.3,0-0.5-0.2-0.5-0.5l0,0c0-0.3,0.2-0.5,0.5-0.5h2c0.3,0,0.5,0.2,0.5,0.5l0,0      C366,393.5,365.8,393.8,365.5,393.8z"
   id="path139" />
				<path
   class="st14"
   d="M365.5,395.8h-2c-0.3,0-0.5-0.2-0.5-0.5l0,0c0-0.3,0.2-0.5,0.5-0.5h2c0.3,0,0.5,0.2,0.5,0.5l0,0      C366,395.5,365.8,395.8,365.5,395.8z"
   id="path141" />
			</g>
		</g>
	</g>
</g>
<g
   id="security_lock_bottom">
	<g
   id="g144">
		<path
   class="st14"
   d="M506,759h-19.2c-6.6,0-12-5.4-12-12v-15.2c0-6.6,5.4-12,12-12H506c6.6,0,12,5.4,12,12V747    C518,753.6,512.6,759,506,759z"
   id="path146" />
		<g
   id="g148">
			<g
   id="g150">
				<path
   class="st0"
   d="M500.3,737.4h-7.1c-2.2,0-4.1-1.8-4.1-4.1v-3.1c0-2.2,1.8-4.1,4.1-4.1h7.1c2.2,0,4.1,1.8,4.1,4.1v3.1      C504.4,735.6,502.6,737.4,500.3,737.4z"
   id="path152" />
				<path
   class="st14"
   d="M499.1,735.8h-4.7c-1.1,0-2.1-0.9-2.1-2.1v-2.4c0-1.1,0.9-2.1,2.1-2.1h4.7c1.1,0,2.1,0.9,2.1,2.1v2.4      C501.2,734.9,500.3,735.8,499.1,735.8z"
   id="path154" />
				<path
   class="st0"
   d="M505.1,752.6h-16.7c-2.2,0-4.1-1.8-4.1-4.1V739c0-2.2,1.8-4.1,4.1-4.1h16.7c2.2,0,4.1,1.8,4.1,4.1v9.5      C509.2,750.8,507.4,752.6,505.1,752.6z"
   id="path156" />
			</g>
			<g
   id="g158">
				<path
   class="st14"
   d="M500.4,741.8c0,1.5-1.4,2.8-3.2,2.8c-1.8,0-3.2-1.3-3.2-2.8c0-1.5,1.4-2.8,3.2-2.8      C499,739,500.4,740.2,500.4,741.8z"
   id="path160" />
				<path
   class="st14"
   d="M496.8,750.2L496.8,750.2c-0.7,0-1.2-0.5-1.2-1.2v-5.6c0-0.7,0.5-1.2,1.2-1.2h0c0.7,0,1.2,0.5,1.2,1.2v5.6      C498,749.7,497.4,750.2,496.8,750.2z"
   id="path162" />
				<path
   class="st14"
   d="M499.2,746.2h-1.6c-0.2,0-0.4-0.2-0.4-0.4v0c0-0.2,0.2-0.4,0.4-0.4h1.6c0.2,0,0.4,0.2,0.4,0.4v0      C499.6,746,499.4,746.2,499.2,746.2z"
   id="path164" />
				<path
   class="st14"
   d="M499.2,747.8h-1.6c-0.2,0-0.4-0.2-0.4-0.4v0c0-0.2,0.2-0.4,0.4-0.4h1.6c0.2,0,0.4,0.2,0.4,0.4v0      C499.6,747.6,499.4,747.8,499.2,747.8z"
   id="path166" />
				<path
   class="st14"
   d="M499.2,749.4h-1.6c-0.2,0-0.4-0.2-0.4-0.4v0c0-0.2,0.2-0.4,0.4-0.4h1.6c0.2,0,0.4,0.2,0.4,0.4v0      C499.6,749.2,499.4,749.4,499.2,749.4z"
   id="path168" />
			</g>
		</g>
	</g>
	<text
   transform="matrix(1 0 0 1 432 780)"
   class="st7 st15"
   id="text170">Passerelle de cloud</text>

</g>
<g
   id="gear_bottom">
</g>
<g
   id="gear_icon">
</g>
<g
   id="vSAN_vMotion">
	<g
   id="Layer_7">
	</g>
	<g
   id="g176">
		<g
   id="g178">
			<g
   id="g180">
				<path
   class="st16"
   d="M103.5,608.5L103.5,608.5l-0.4-0.1c-7.7-1-13.6-10-13.6-20.9s5.8-19.9,13.6-20.9l0.4-0.1v0h485.3l0.2,0      c7.6,0.4,13.5,9.6,13.5,21s-5.9,20.6-13.5,21l-0.4,0H103.5z"
   id="path182" />
				<path
   d="M588.6,567l0.3,0c7.2,0.4,13.1,9.6,13.1,20.5s-5.9,20.1-13.1,20.5l-0.2,0H103.8l-0.7-0.1c-7.4-1-13.1-9.9-13.1-20.4      c0-10.5,5.8-19.4,13.1-20.4l0.7-0.1H588.6 M589,566H103v0.1c-7.9,1-14,10.2-14,21.4s6.1,20.4,14,21.4v0.1h486v0      c7.8-0.4,14-9.9,14-21.5S596.8,566.4,589,566L589,566L589,566z"
   id="path184" />
			</g>
			<g
   id="g186">
				<ellipse
   class="st0"
   cx="587.5"
   cy="587.1"
   rx="10"
   ry="17.9"
   id="ellipse188" />
				<path
   d="M587.5,569.6c5.1,0,9.5,8,9.5,17.4c0,9.4-4.4,17.4-9.5,17.4c-5.1,0-9.5-8-9.5-17.4C578,577.6,582.4,569.6,587.5,569.6       M587.5,568.6c-5.8,0-10.5,8.3-10.5,18.4s4.7,18.4,10.5,18.4s10.5-8.3,10.5-18.4S593.3,568.6,587.5,568.6L587.5,568.6z"
   id="path190" />
			</g>
		</g>
		<text
   transform="translate(201,596)"
   id="text192"
   style="font-style:normal;font-variant:normal;font-weight:normal;font-stretch:normal;font-size:21px;line-height:125%;font-family:MyriadPro-Regular;-inkscape-font-specification:'MyriadPro-Regular, Normal';text-align:start;writing-mode:lr-tb;text-anchor:start"
   sodipodi:linespacing="125%"><tspan
     sodipodi:role="line"
     id="tspan8534"
     x="0"
     y="0">vSAN &amp; vMotion -- VLAN privé B</tspan></text>

	</g>
</g>
<g
   id="Logical_swiitch">
	<g
   id="g201">
		<g
   id="g203">
			<g
   id="g205">
				<g
   id="g207">
					<path
   class="st14"
   d="M249.4,480.5L249.4,480.5l-0.4-0.1c-5.3-1-9.5-10.2-9.5-20.9s4.2-19.9,9.5-20.9l0.4-0.1v0h343.5l0.2,0       c5.2,0.4,9.4,9.8,9.4,21s-4.2,20.6-9.4,21l-0.2,0H249.4z"
   id="path209" />
					<path
   d="M592.8,439l0.2,0c5,0.4,9,9.5,9,20.5s-4,20.1-9,20.5l-0.2,0H249.5l-0.5-0.1c-5.1-1-9.1-9.9-9.1-20.4s4-19.5,9.1-20.4       l0.5-0.1H592.8 M593.1,438H248.9v0.1c-5.6,1-9.9,10.2-9.9,21.4s4.4,20.4,9.9,21.4v0.1h344.2v0c5.5-0.4,9.9-9.9,9.9-21.5       S598.6,438.4,593.1,438L593.1,438L593.1,438z"
   id="path211" />
				</g>
				<g
   id="g213">
					<ellipse
   class="st0"
   cx="589.2"
   cy="459.1"
   rx="9.7"
   ry="17.9"
   id="ellipse215" />
					<path
   d="M589.2,441.6c5,0,9.2,8,9.2,17.4c0,9.4-4.2,17.4-9.2,17.4c-5,0-9.2-8-9.2-17.4C580,449.6,584.2,441.6,589.2,441.6        M589.2,440.6c-5.6,0-10.2,8.3-10.2,18.4c0,10.2,4.6,18.4,10.2,18.4c5.6,0,10.2-8.3,10.2-18.4       C599.5,448.9,594.9,440.6,589.2,440.6L589.2,440.6z"
   id="path217" />
				</g>
			</g>
		</g>
		<text
   class="st7 st8"
   id="text219"
   x="329"
   y="466"
   style="font-size:21px;font-family:MyriadPro-Regular">Réseau VXLAN</text>

	</g>
	<g
   id="Layer_9">
	</g>
</g>
<g
   id="Layer_6">
	</g><g
   id="g224">
		<g
   id="g226">
			<g
   id="g228">
				<path
   style="fill:#f4ba51"
   inkscape:connector-curvature="0"
   id="path230"
   d="m 103.5,547.5 0,0 -0.4,-0.1 C 95.4,546.3 89.5,537.1 89.5,526 c 0,-11.1 5.8,-20.3 13.6,-21.4 l 0.4,-0.1 0,0 485.3,0 0.2,0 c 7.6,0.4 13.5,9.8 13.5,21.5 0,11.7 -5.9,21.1 -13.5,21.5 l -0.4,0 -485.1,0 z"
   class="st17" />
				<path
   inkscape:connector-curvature="0"
   id="path232"
   d="m 588.6,505 0.3,0 c 7.2,0.4 13.1,9.8 13.1,21 0,11.2 -5.9,20.6 -13.1,21 l -0.2,0 -484.9,0 -0.7,-0.1 C 95.7,545.9 90,536.7 90,526 c 0,-10.7 5.8,-19.9 13.1,-20.9 l 0.7,-0.1 484.8,0 m 0.4,-1 -486,0 0,0.1 c -7.9,1.1 -14,10.5 -14,21.9 0,11.4 6.1,20.8 14,21.9 l 0,0.1 486,0 0,0 c 7.8,-0.4 14,-10.1 14,-22 0,-11.9 -6.2,-21.6 -14,-22 l 0,0 0,0 z" />
			</g>
			<g
   id="g234">
				<path
   style="fill:#ffffff"
   inkscape:connector-curvature="0"
   id="path236"
   d="m 587.5,543.9 c -5.5,0 -10,-8.2 -10,-18.4 0,-10.1 4.5,-18.4 10,-18.4 5.5,0 10,8.2 10,18.4 0,10.2 -4.5,18.4 -10,18.4 z"
   class="st0" />
				<path
   inkscape:connector-curvature="0"
   id="path238"
   d="m 587.5,507.7 c 5.1,0 9.5,8.2 9.5,17.9 0,9.7 -4.4,17.9 -9.5,17.9 -5.1,0 -9.5,-8.2 -9.5,-17.9 0,-9.7 4.4,-17.9 9.5,-17.9 m 0,-1 c -5.8,0 -10.5,8.4 -10.5,18.9 0,10.4 4.7,18.9 10.5,18.9 5.8,0 10.5,-8.5 10.5,-18.9 0,-10.5 -4.7,-18.9 -10.5,-18.9 l 0,0 z" />
			</g>
		</g>
		<text
   id="text240"
   sodipodi:linespacing="125%"
   style="font-size:11.65396786px;line-height:125%"
   x="97.707611"
   y="517.63037"
   transform="scale(0.97116397,1.0296922)"><tspan
     sodipodi:role="line"
     id="tspan8528"
     x="97.707611"
     y="517.63037"
     style="font-size:19.42327881px">Réseau de gestion &amp; VXLAN -- VLAN privé A (natif)</tspan></text>

	</g>
<g
   id="P_x2F_V">
	<g
   id="g249">
		<g
   id="g251">
			<g
   id="g253">
				<rect
   x="104.5"
   y="280"
   class="st18"
   width="47.3"
   height="47.3"
   id="rect255" />
				<linearGradient
   id="SVGID_1_"
   gradientUnits="userSpaceOnUse"
   x1="135.9627"
   y1="296.7212"
   x2="124.5096"
   y2="338.8456">
					<stop
   offset="0"
   style="stop-color:#CCE0F4"
   id="stop258" />
					<stop
   offset="7.748766e-02"
   style="stop-color:#C5DDF3"
   id="stop260" />
					<stop
   offset="0.1918"
   style="stop-color:#B1D5EF"
   id="stop262" />
					<stop
   offset="0.329"
   style="stop-color:#90C9EA"
   id="stop264" />
					<stop
   offset="0.4838"
   style="stop-color:#63B7E2"
   id="stop266" />
					<stop
   offset="0.6515"
   style="stop-color:#2AA1D9"
   id="stop268" />
					<stop
   offset="0.6829"
   style="stop-color:#1E9CD7"
   id="stop270" />
					<stop
   offset="0.8652"
   style="stop-color:#0075BE"
   id="stop272" />
					<stop
   offset="0.9944"
   style="stop-color:#005B97"
   id="stop274" />
				</linearGradient>
				<polygon
   class="st19"
   points="106.3,325.5 150,281.8 150,325.5     "
   id="polygon276" />
			</g>
			<text
   transform="matrix(1 0 0 1 108.084 315.4692)"
   class="st0 st13 st20"
   id="text278">P</text>

			<text
   transform="matrix(1 0 0 1 116.6836 324.0688)"
   class="st0 st13 st20"
   id="text280">V</text>

			<g
   id="g282">
				<g
   id="g284">
					<g
   id="g286">
						<g
   id="g288">
							<polygon
   class="st0"
   points="110.1,288.6 112.8,297.8 119.2,291.8        "
   id="polygon290" />
						</g>
					</g>
				</g>
				<g
   id="g292">
					<g
   id="g294">
						<g
   id="g296">
							
								<rect
   x="117"
   y="293.5"
   transform="matrix(0.7268 -0.6868 0.6868 0.7268 -172.128 163.1521)"
   class="st0"
   width="4.1"
   height="9"
   id="rect298" />
						</g>
					</g>
				</g>
			</g>
			<g
   id="g300">
				<g
   id="g302">
					<g
   id="g304">
						<g
   id="g306">
							<polygon
   class="st0"
   points="142.6,322.1 132.5,318.2 139.2,311.8        "
   id="polygon308" />
						</g>
					</g>
				</g>
				<g
   id="g310">
					<g
   id="g312">
						<g
   id="g314">
							
								<rect
   x="130.2"
   y="306.1"
   transform="matrix(0.7268 -0.6868 0.6868 0.7268 -177.6229 175.9507)"
   class="st0"
   width="4.3"
   height="10.4"
   id="rect316" />
						</g>
					</g>
				</g>
			</g>
		</g>
	</g>
</g>
<g
   id="Layer_15">
	<g
   id="g319">
		<g
   id="g321">
			<g
   id="g323">
				<rect
   x="170.5"
   y="720.9"
   class="st18"
   width="38.1"
   height="38.1"
   id="rect325" />
				<linearGradient
   id="SVGID_2_"
   gradientUnits="userSpaceOnUse"
   x1="195.8253"
   y1="734.3933"
   x2="186.6063"
   y2="768.3004">
					<stop
   offset="0"
   style="stop-color:#CCE0F4"
   id="stop328" />
					<stop
   offset="7.748766e-02"
   style="stop-color:#C5DDF3"
   id="stop330" />
					<stop
   offset="0.1918"
   style="stop-color:#B1D5EF"
   id="stop332" />
					<stop
   offset="0.329"
   style="stop-color:#90C9EA"
   id="stop334" />
					<stop
   offset="0.4838"
   style="stop-color:#63B7E2"
   id="stop336" />
					<stop
   offset="0.6515"
   style="stop-color:#2AA1D9"
   id="stop338" />
					<stop
   offset="0.6829"
   style="stop-color:#1E9CD7"
   id="stop340" />
					<stop
   offset="0.8652"
   style="stop-color:#0075BE"
   id="stop342" />
					<stop
   offset="0.9944"
   style="stop-color:#005B97"
   id="stop344" />
				</linearGradient>
				<polygon
   class="st21"
   points="172,757.5 207.1,722.4 207.1,757.5     "
   id="polygon346" />
			</g>
			<text
   transform="matrix(1 0 0 1 173.3848 749.484)"
   class="st0 st13 st22"
   id="text348">P</text>

			<text
   transform="matrix(1 0 0 1 180.3071 756.4059)"
   class="st0 st13 st22"
   id="text350">V</text>

			<g
   id="g352">
				<g
   id="g354">
					<g
   id="g356">
						<g
   id="g358">
							<polygon
   class="st0"
   points="175,727.9 177.2,735.3 182.3,730.4        "
   id="polygon360" />
						</g>
					</g>
				</g>
				<g
   id="g362">
					<g
   id="g364">
						<g
   id="g366">
							
								<rect
   x="180.6"
   y="731.8"
   transform="matrix(0.7268 -0.6868 0.6868 0.7268 -455.3054 326.0244)"
   class="st0"
   width="3.3"
   height="7.2"
   id="rect368" />
						</g>
					</g>
				</g>
			</g>
			<g
   id="g370">
				<g
   id="g372">
					<g
   id="g374">
						<g
   id="g376">
							<polygon
   class="st0"
   points="201.2,754.9 193,751.7 198.4,746.5        "
   id="polygon378" />
						</g>
					</g>
				</g>
				<g
   id="g380">
					<g
   id="g382">
						<g
   id="g384">
							
								<rect
   x="191.2"
   y="741.9"
   transform="matrix(0.7268 -0.6868 0.6868 0.7268 -459.738 336.3406)"
   class="st0"
   width="3.5"
   height="8.4"
   id="rect386" />
						</g>
					</g>
				</g>
			</g>
		</g>
	</g>
	<text
   transform="matrix(1 0 0 1 153 780)"
   class="st7 st15"
   id="text388">NSX Edge</text>

</g>
<g
   id="Layer_16">
	<g
   id="g391">
		<g
   id="g393">
			<rect
   x="273"
   y="722"
   class="st23"
   width="42.9"
   height="37"
   id="rect395" />
			<rect
   x="315.1"
   y="722"
   class="st24"
   width="93.9"
   height="37"
   id="rect397" />
		</g>
		<text
   transform="matrix(1 0 0 1 279.2979 746.4043)"
   class="st0 st7 st25"
   id="text399">MV</text>

		<text
   transform="matrix(1 0 0 1 317.9365 746.4043)"
   class="st0 st7 st25"
   id="text401">Cloud HCX</text>

	</g>
	<text
   class="st7 st15"
   id="text403"
   x="279"
   y="780"
   style="font-size:18px;font-family:MyriadPro-Regular">HCX Manager</text>

</g>
<g
   id="VM_HCX">
	<g
   id="g406">
		<g
   id="g408">
			<rect
   x="146"
   y="360.8"
   class="st23"
   width="48"
   height="47"
   id="rect410" />
			<rect
   x="193"
   y="360.8"
   class="st24"
   width="126"
   height="47"
   id="rect412" />
		</g>
		<text
   transform="matrix(1 0 0 1 154 391.75)"
   class="st0 st7 st8"
   id="text414">MV</text>

		<text
   transform="matrix(1 0 0 1 200 391.75)"
   class="st0 st7 st8"
   id="text416">Cloud HCX</text>

	</g>
</g>
</svg>
