<?xml version="1.0" encoding="UTF-8" standalone="no"?>
<!-- Generator: Adobe Illustrator 22.0.1, SVG Export Plug-In . SVG Version: 6.00 Build 0)  -->

<svg
   xmlns:dc="http://purl.org/dc/elements/1.1/"
   xmlns:cc="http://creativecommons.org/ns#"
   xmlns:rdf="http://www.w3.org/1999/02/22-rdf-syntax-ns#"
   xmlns:svg="http://www.w3.org/2000/svg"
   xmlns="http://www.w3.org/2000/svg"
   xmlns:sodipodi="http://sodipodi.sourceforge.net/DTD/sodipodi-0.dtd"
   xmlns:inkscape="http://www.inkscape.org/namespaces/inkscape"
   version="1.1"
   x="0px"
   y="0px"
   viewBox="0 0 779 794"
   style="enable-background:new 0 0 779 794;"
   xml:space="preserve"
   id="svg2"
   inkscape:version="0.91 r13725"
   sodipodi:docname="l2_concentrator_deployment.svg"><metadata
   id="metadata569"><rdf:RDF><cc:Work
       rdf:about=""><dc:format>image/svg+xml</dc:format><dc:type
         rdf:resource="http://purl.org/dc/dcmitype/StillImage" /></cc:Work></rdf:RDF></metadata><defs
   id="defs567">
	
	

	

		
		
	
	
	

	
	

		
		
		
	
	

		
		
		
		
	
	
	

	
	

	
	

		
		
	</defs><sodipodi:namedview
   pagecolor="#ffffff"
   bordercolor="#666666"
   borderopacity="1"
   objecttolerance="10"
   gridtolerance="10"
   guidetolerance="10"
   inkscape:pageopacity="0"
   inkscape:pageshadow="2"
   inkscape:window-width="1920"
   inkscape:window-height="1024"
   id="namedview565"
   showgrid="false"
   inkscape:zoom="0.84069119"
   inkscape:cx="448.60651"
   inkscape:cy="467.80608"
   inkscape:window-x="-4"
   inkscape:window-y="-4"
   inkscape:window-maximized="1"
   inkscape:current-layer="svg2" />
<style
   type="text/css"
   id="style4">
	.st0{fill:#FFFFFF;}
	.st1{fill:none;stroke:#000000;stroke-miterlimit:10;}
	.st2{fill:none;stroke:#000000;stroke-miterlimit:10;stroke-dasharray:8.0549,8.0549;}
	.st3{fill:none;stroke:#000000;stroke-miterlimit:10;stroke-dasharray:8.052,8.052;}
	.st4{fill:#AADFF2;}
	.st5{fill:none;stroke:#000000;stroke-miterlimit:10;stroke-dasharray:8.0706,8.0706;}
	.st6{fill:none;stroke:#000000;stroke-miterlimit:10;stroke-dasharray:8.1177,8.1177;}
	.st7{font-family:'MyriadPro-Regular';}
	.st8{font-size:21px;}
	.st9{fill:#E1E5BA;}
	.st10{fill:none;stroke:#000000;stroke-miterlimit:10;stroke-dasharray:8.1429,8.1429;}
	.st11{fill:#FFFFFF;stroke:#000000;stroke-width:3;stroke-miterlimit:10;}
	.st12{fill:#FF7BAC;}
	.st13{font-family:'IBMPlexSans';}
	.st14{fill:#29ABE2;}
	.st15{font-size:18px;}
	.st16{font-size:17.4466px;}
	.st17{fill:#EF7C26;}
	.st18{fill:#C491F2;stroke:#000000;stroke-miterlimit:10;}
	.st19{fill:#FFFFFF;stroke:#000000;stroke-miterlimit:10;}
	.st20{fill:#F4BA51;}
	.st21{fill:#169ADB;stroke:#9BCCDD;stroke-width:0.5;stroke-miterlimit:10;}
	.st22{fill:url(#SVGID_1_);}
	.st23{font-size:11.4646px;}
	.st24{fill:url(#SVGID_2_);}
	.st25{font-size:9.2282px;}
	.st26{fill:#2B6782;}
	.st27{fill:#1E4C66;}
	.st28{font-size:16.5319px;}
</style>
<g
   id="Outter_dash_rectangle">
	<g
   id="g7">
		<rect
   x="21.5"
   y="64"
   class="st0"
   width="741"
   height="628"
   id="rect9" />
		<g
   id="g11">
			<polyline
   class="st1"
   points="762.5,688 762.5,692 758.5,692    "
   id="polyline13" />
			<line
   class="st2"
   x1="750.4"
   y1="692"
   x2="29.5"
   y2="692"
   id="line15" />
			<polyline
   class="st1"
   points="25.5,692 21.5,692 21.5,688    "
   id="polyline17" />
			<line
   class="st3"
   x1="21.5"
   y1="679.9"
   x2="21.5"
   y2="72"
   id="line19" />
			<polyline
   class="st1"
   points="21.5,68 21.5,64 25.5,64    "
   id="polyline21" />
			<line
   class="st2"
   x1="33.6"
   y1="64"
   x2="754.5"
   y2="64"
   id="line23" />
			<polyline
   class="st1"
   points="758.5,64 762.5,64 762.5,68    "
   id="polyline25" />
			<line
   class="st3"
   x1="762.5"
   y1="76.1"
   x2="762.5"
   y2="684"
   id="line27" />
		</g>
	</g>
</g>
<g
   id="g30">
		<rect
   style="fill:#aadff2"
   id="rect32"
   height="146"
   width="694"
   class="st4"
   y="94.5"
   x="45.5" />
		<g
   id="g34">
			<polyline
   style="fill:none;stroke:#000000;stroke-miterlimit:10"
   id="polyline36"
   points="739.5,236.5 739.5,240.5 735.5,240.5    "
   class="st1" />
			<line
   style="fill:none;stroke:#000000;stroke-miterlimit:10;stroke-dasharray:8.0706, 8.0706"
   id="line38"
   y2="240.5"
   x2="53.5"
   y1="240.5"
   x1="727.40002"
   class="st5" />
			<polyline
   style="fill:none;stroke:#000000;stroke-miterlimit:10"
   id="polyline40"
   points="49.5,240.5 45.5,240.5 45.5,236.5    "
   class="st1" />
			<line
   style="fill:none;stroke:#000000;stroke-miterlimit:10;stroke-dasharray:8.1177, 8.1177"
   id="line42"
   y2="102.6"
   x2="45.5"
   y1="228.39999"
   x1="45.5"
   class="st6" />
			<polyline
   style="fill:none;stroke:#000000;stroke-miterlimit:10"
   id="polyline44"
   points="45.5,98.5 45.5,94.5 49.5,94.5    "
   class="st1" />
			<line
   style="fill:none;stroke:#000000;stroke-miterlimit:10;stroke-dasharray:8.0706, 8.0706"
   id="line46"
   y2="94.5"
   x2="731.5"
   y1="94.5"
   x1="57.599998"
   class="st5" />
			<polyline
   style="fill:none;stroke:#000000;stroke-miterlimit:10"
   id="polyline48"
   points="735.5,94.5 739.5,94.5 739.5,98.5    "
   class="st1" />
			<line
   style="fill:none;stroke:#000000;stroke-miterlimit:10;stroke-dasharray:8.1177, 8.1177"
   id="line50"
   y2="232.39999"
   x2="739.5"
   y1="106.6"
   x1="739.5"
   class="st6" />
		</g>
	</g><text
   style="font-size:21px;font-family:MyriadPro-Regular"
   id="text52"
   class="st7 st8"
   x="490"
   y="226">Espace adresse public</text>

<g
   id="g55">
		<rect
   style="fill:#e1e5ba"
   id="rect57"
   height="407"
   width="694"
   class="st9"
   y="251.5"
   x="46.5" />
		<g
   id="g59">
			<polyline
   style="fill:none;stroke:#000000;stroke-miterlimit:10"
   id="polyline61"
   points="740.5,654.5 740.5,658.5 736.5,658.5    "
   class="st1" />
			<line
   style="fill:none;stroke:#000000;stroke-miterlimit:10;stroke-dasharray:8.0706, 8.0706"
   id="line63"
   y2="658.5"
   x2="54.5"
   y1="658.5"
   x1="728.40002"
   class="st5" />
			<polyline
   style="fill:none;stroke:#000000;stroke-miterlimit:10"
   id="polyline65"
   points="50.5,658.5 46.5,658.5 46.5,654.5    "
   class="st1" />
			<line
   style="fill:none;stroke:#000000;stroke-miterlimit:10;stroke-dasharray:8.1429, 8.1429"
   id="line67"
   y2="259.60001"
   x2="46.5"
   y1="646.40002"
   x1="46.5"
   class="st10" />
			<polyline
   style="fill:none;stroke:#000000;stroke-miterlimit:10"
   id="polyline69"
   points="46.5,255.5 46.5,251.5 50.5,251.5    "
   class="st1" />
			<line
   style="fill:none;stroke:#000000;stroke-miterlimit:10;stroke-dasharray:8.0706, 8.0706"
   id="line71"
   y2="251.5"
   x2="732.5"
   y1="251.5"
   x1="58.599998"
   class="st5" />
			<polyline
   style="fill:none;stroke:#000000;stroke-miterlimit:10"
   id="polyline73"
   points="736.5,251.5 740.5,251.5 740.5,255.5    "
   class="st1" />
			<line
   style="fill:none;stroke:#000000;stroke-miterlimit:10;stroke-dasharray:8.1429, 8.1429"
   id="line75"
   y2="650.40002"
   x2="740.5"
   y1="263.60001"
   x1="740.5"
   class="st10" />
		</g>
	</g><text
   style="font-size:21px;font-family:MyriadPro-Regular"
   id="text77"
   class="st7 st8"
   x="501"
   y="643">Espace adresse privé</text>

<g
   id="ibm_cloud">
	<g
   id="g80">
		<path
   class="st11"
   d="M155.2,59.9c0-11.4-13.4-20.6-29.9-20.6c-1.6,0-3.2,0.1-4.7,0.3c-1-2.2-2.6-4.2-4.6-5.8    c-4.7-3.8-10.8-4.5-15.7-2.3C97.5,16.9,86,6,72.2,6C57.8,6,46,17.8,43.8,33.2c-0.1,0-0.2,0-0.4,0c-11.6,0-21,10.6-21,23.7    c0,10,5.5,18.5,13.2,22v0.9h2.4c1.7,0.5,3.5,0.8,5.3,0.8c1.8,0,3.6-0.3,5.3-0.8h68.4c2.6,0.5,5.3,0.8,8.1,0.8    c2.8,0,5.5-0.3,8.1-0.8h2.4v-0.5C147.1,76.3,155.2,68.8,155.2,59.9z"
   id="path82" />
		<text
   transform="matrix(1 0 0 1 35 62)"
   class="st7 st8"
   id="text84">IBM Cloud</text>

	</g>
</g>
<g
   id="lines">
</g>
<g
   id="pubic_VLAN_native">
	<g
   id="g88">
		<g
   id="g90">
			<g
   id="g92">
				<g
   id="g94">
					<path
   class="st12"
   d="M102.3,190.5L102.3,190.5l-0.4-0.1c-9.3-1.1-16.4-10.3-16.4-21.4s7-20.3,16.4-21.4l0.4-0.1v-0.1h583.6       l0.2,0c9.2,0.4,16.4,9.8,16.4,21.5s-7.2,21.1-16.4,21.5l-0.4,0H102.3z"
   id="path96" />
					<path
   d="M685.7,148l0.4,0c8.9,0.4,15.9,9.6,15.9,21s-7,20.6-15.9,21l-0.3,0h-583l-0.9-0.1c-9.1-1-15.9-10-15.9-20.9       s6.9-19.9,15.9-20.9l0.9-0.1H685.7 M686.2,147H101.8v0.1C92.4,148.2,85,157.6,85,169c0,11.4,7.4,20.8,16.8,21.9v0.1h584.3v0       c9.3-0.4,16.8-10.1,16.8-22C703,157.1,695.5,147.4,686.2,147L686.2,147L686.2,147z"
   id="path98" />
				</g>
				<g
   id="g100">
					<path
   class="st0"
   d="M684.4,186.9c-6.7,0-12.1-8.2-12.1-18.4c0-10.1,5.4-18.4,12.1-18.4s12.1,8.2,12.1,18.4       C696.5,178.7,691,186.9,684.4,186.9z"
   id="path102" />
					<path
   d="M684.4,150.7c6.4,0,11.6,8,11.6,17.9c0,9.8-5.2,17.9-11.6,17.9s-11.6-8-11.6-17.9C672.7,158.7,678,150.7,684.4,150.7        M684.4,149.7c-7,0-12.6,8.4-12.6,18.9c0,10.4,5.7,18.9,12.6,18.9c7,0,12.6-8.4,12.6-18.9C697,158.1,691.3,149.7,684.4,149.7       L684.4,149.7z"
   id="path104" />
				</g>
			</g>
		</g>
		<text
   transform="matrix(1 0 0 1 308.75 175.75)"
   class="st13 st8"
   id="text106">VLAN (natif)</text>

	</g>
</g>
<g
   id="security_lock_icon">
	<g
   id="g109">
		<line
   class="st1"
   x1="334.5"
   y1="190.5"
   x2="334.5"
   y2="565.5"
   id="line111" />
		<line
   class="st1"
   x1="319.5"
   y1="407.5"
   x2="319.5"
   y2="504.5"
   id="line113" />
		<line
   class="st1"
   x1="349.5"
   y1="407.5"
   x2="349.5"
   y2="438.5"
   id="line115" />
		<g
   id="g117">
			<path
   class="st14"
   d="M350,407.8h-30c-6.6,0-12-5.4-12-12v-25c0-6.6,5.4-12,12-12h30c6.6,0,12,5.4,12,12v25     C362,402.4,356.6,407.8,350,407.8z"
   id="path119" />
			<g
   id="g121">
				<g
   id="g123">
					<path
   class="st0"
   d="M340.9,380.8h-10.9c-2.2,0-4.1-1.8-4.1-4.1v-5.9c0-2.2,1.8-4.1,4.1-4.1h10.9c2.2,0,4.1,1.8,4.1,4.1v5.9       C345,378.9,343.2,380.8,340.9,380.8z"
   id="path125" />
					<path
   class="st14"
   d="M338.9,378.8h-6.9c-1.1,0-2.1-0.9-2.1-2.1v-4c0-1.1,0.9-2.1,2.1-2.1h6.9c1.1,0,2.1,0.9,2.1,2.1v4       C341,377.8,340.1,378.8,338.9,378.8z"
   id="path127" />
					<path
   class="st0"
   d="M346.9,399.8h-22.9c-2.2,0-4.1-1.8-4.1-4.1v-13.9c0-2.2,1.8-4.1,4.1-4.1h22.9c2.2,0,4.1,1.8,4.1,4.1v13.9       C351,397.9,349.2,399.8,346.9,399.8z"
   id="path129" />
				</g>
				<g
   id="g131">
					<ellipse
   class="st14"
   cx="336"
   cy="386.3"
   rx="4"
   ry="3.5"
   id="ellipse133" />
					<path
   class="st14"
   d="M335.5,396.8L335.5,396.8c-0.8,0-1.5-0.7-1.5-1.5v-7c0-0.8,0.7-1.5,1.5-1.5l0,0c0.8,0,1.5,0.7,1.5,1.5v7       C337,396.1,336.3,396.8,335.5,396.8z"
   id="path135" />
					<path
   class="st14"
   d="M338.5,391.8h-2c-0.3,0-0.5-0.2-0.5-0.5l0,0c0-0.3,0.2-0.5,0.5-0.5h2c0.3,0,0.5,0.2,0.5,0.5l0,0       C339,391.5,338.8,391.8,338.5,391.8z"
   id="path137" />
					<path
   class="st14"
   d="M338.5,393.8h-2c-0.3,0-0.5-0.2-0.5-0.5l0,0c0-0.3,0.2-0.5,0.5-0.5h2c0.3,0,0.5,0.2,0.5,0.5l0,0       C339,393.5,338.8,393.8,338.5,393.8z"
   id="path139" />
					<path
   class="st14"
   d="M338.5,395.8h-2c-0.3,0-0.5-0.2-0.5-0.5l0,0c0-0.3,0.2-0.5,0.5-0.5h2c0.3,0,0.5,0.2,0.5,0.5l0,0       C339,395.5,338.8,395.8,338.5,395.8z"
   id="path141" />
				</g>
			</g>
		</g>
	</g>
</g>
<g
   id="g144">
		<path
   style="fill:#29abe2"
   inkscape:connector-curvature="0"
   id="path146"
   d="m 383,759 -19.2,0 c -6.6,0 -12,-5.4 -12,-12 l 0,-15.2 c 0,-6.6 5.4,-12 12,-12 l 19.2,0 c 6.6,0 12,5.4 12,12 l 0,15.2 c 0,6.6 -5.4,12 -12,12 z"
   class="st14" />
		<g
   id="g148">
			<g
   id="g150">
				<path
   style="fill:#ffffff"
   inkscape:connector-curvature="0"
   id="path152"
   d="m 377.3,737.4 -7.1,0 c -2.2,0 -4.1,-1.8 -4.1,-4.1 l 0,-3.1 c 0,-2.2 1.8,-4.1 4.1,-4.1 l 7.1,0 c 2.2,0 4.1,1.8 4.1,4.1 l 0,3.1 c 0,2.3 -1.8,4.1 -4.1,4.1 z"
   class="st0" />
				<path
   style="fill:#29abe2"
   inkscape:connector-curvature="0"
   id="path154"
   d="m 376.1,735.8 -4.7,0 c -1.1,0 -2.1,-0.9 -2.1,-2.1 l 0,-2.4 c 0,-1.1 0.9,-2.1 2.1,-2.1 l 4.7,0 c 1.1,0 2.1,0.9 2.1,2.1 l 0,2.4 c 0,1.2 -0.9,2.1 -2.1,2.1 z"
   class="st14" />
				<path
   style="fill:#ffffff"
   inkscape:connector-curvature="0"
   id="path156"
   d="m 382.1,752.6 -16.7,0 c -2.2,0 -4.1,-1.8 -4.1,-4.1 l 0,-9.5 c 0,-2.2 1.8,-4.1 4.1,-4.1 l 16.7,0 c 2.2,0 4.1,1.8 4.1,4.1 l 0,9.5 c 0,2.3 -1.8,4.1 -4.1,4.1 z"
   class="st0" />
			</g>
			<g
   id="g158">
				<path
   style="fill:#29abe2"
   inkscape:connector-curvature="0"
   id="path160"
   d="m 377.4,741.8 c 0,1.5 -1.4,2.8 -3.2,2.8 -1.8,0 -3.2,-1.3 -3.2,-2.8 0,-1.5 1.4,-2.8 3.2,-2.8 1.8,0 3.2,1.2 3.2,2.8 z"
   class="st14" />
				<path
   style="fill:#29abe2"
   inkscape:connector-curvature="0"
   id="path162"
   d="m 373.8,750.2 0,0 c -0.7,0 -1.2,-0.5 -1.2,-1.2 l 0,-5.6 c 0,-0.7 0.5,-1.2 1.2,-1.2 l 0,0 c 0.7,0 1.2,0.5 1.2,1.2 l 0,5.6 c 0,0.7 -0.6,1.2 -1.2,1.2 z"
   class="st14" />
				<path
   style="fill:#29abe2"
   inkscape:connector-curvature="0"
   id="path164"
   d="m 376.2,746.2 -1.6,0 c -0.2,0 -0.4,-0.2 -0.4,-0.4 l 0,0 c 0,-0.2 0.2,-0.4 0.4,-0.4 l 1.6,0 c 0.2,0 0.4,0.2 0.4,0.4 l 0,0 c 0,0.2 -0.2,0.4 -0.4,0.4 z"
   class="st14" />
				<path
   style="fill:#29abe2"
   inkscape:connector-curvature="0"
   id="path166"
   d="m 376.2,747.8 -1.6,0 c -0.2,0 -0.4,-0.2 -0.4,-0.4 l 0,0 c 0,-0.2 0.2,-0.4 0.4,-0.4 l 1.6,0 c 0.2,0 0.4,0.2 0.4,0.4 l 0,0 c 0,0.2 -0.2,0.4 -0.4,0.4 z"
   class="st14" />
				<path
   style="fill:#29abe2"
   inkscape:connector-curvature="0"
   id="path168"
   d="m 376.2,749.4 -1.6,0 c -0.2,0 -0.4,-0.2 -0.4,-0.4 l 0,0 c 0,-0.2 0.2,-0.4 0.4,-0.4 l 1.6,0 c 0.2,0 0.4,0.2 0.4,0.4 l 0,0 c 0,0.2 -0.2,0.4 -0.4,0.4 z"
   class="st14" />
			</g>
		</g>
	</g><text
   style="font-size:18px;font-family:MyriadPro-Regular"
   id="text170"
   class="st7 st15"
   x="324.41095"
   y="774.70551">Passerelle </text>
<text
   style="font-size:18px;font-family:MyriadPro-Regular"
   class="st7 st15"
   x="329"
   y="790"
   id="text8701">de cloud</text>

<g
   id="gear_bottom">
	<g
   id="g173">
		<path
   class="st14"
   d="M533,759h-21.8c-6.6,0-12-5.4-12-12v-17.5c0-6.6,5.4-12,12-12H533c6.6,0,12,5.4,12,12V747    C545,753.6,539.6,759,533,759z"
   id="path175" />
		<g
   id="g177">
			<g
   id="g179">
				<g
   id="g181">
					<g
   id="g183">
						<g
   id="g185">
							<ellipse
   class="st0"
   cx="522"
   cy="738.1"
   rx="12.3"
   ry="11.9"
   id="ellipse187" />
							<path
   class="st14"
   d="M527.5,738.1c0,2.9-2.5,5.3-5.5,5.3c-3,0-5.5-2.4-5.5-5.3c0-2.9,2.5-5.3,5.5-5.3         C525,732.8,527.5,735.2,527.5,738.1z"
   id="path189" />
						</g>
						<rect
   x="518.3"
   y="723"
   class="st0"
   width="6.6"
   height="4.2"
   id="rect191" />
						<rect
   x="519"
   y="748.4"
   class="st0"
   width="5.9"
   height="5.1"
   id="rect193" />
					</g>
					<rect
   x="532.7"
   y="735.3"
   class="st0"
   width="5.1"
   height="5.9"
   id="rect195" />
					<rect
   x="506.5"
   y="735.3"
   class="st0"
   width="5.1"
   height="5.9"
   id="rect197" />
				</g>
				
					<rect
   x="509.3"
   y="726.2"
   transform="matrix(0.7526 0.6585 -0.6585 0.7526 606.7064 -156.8211)"
   class="st0"
   width="5.6"
   height="5.6"
   id="rect199" />
				
					<rect
   x="528"
   y="744.9"
   transform="matrix(0.7526 0.6585 -0.6585 0.7526 623.8824 -165.1461)"
   class="st0"
   width="7.3"
   height="5.6"
   id="rect201" />
			</g>
			
				<rect
   x="529.6"
   y="726.5"
   transform="matrix(0.7071 0.7071 -0.7071 0.7071 671.8127 -162.7813)"
   class="st0"
   width="5.5"
   height="6.1"
   id="rect203" />
			
				<rect
   x="509.9"
   y="744.8"
   transform="matrix(0.7071 0.7071 -0.7071 0.7071 678.7737 -143.5796)"
   class="st0"
   width="5.5"
   height="5.5"
   id="rect205" />
		</g>
	</g>
	<text
   transform="matrix(1 0 0 1 470.0107 776.1699)"
   id="text207"><tspan
     x="0"
     y="0"
     class="st7 st16"
     id="tspan209">Optimiseur de </tspan><tspan
     x="9.3"
     y="14.5"
     class="st7 st16"
     id="tspan211">réseau WAN</tspan></text>

</g>
<g
   id="gear_icon">
	<g
   id="g214">
		<line
   class="st1"
   x1="402.5"
   y1="407.5"
   x2="402.5"
   y2="437.5"
   id="line216" />
		<g
   id="g218">
			<path
   class="st14"
   d="M418.3,407.8h-30c-6.6,0-12-5.4-12-12v-25c0-6.6,5.4-12,12-12h30c6.6,0,12,5.4,12,12v25     C430.3,402.4,424.9,407.8,418.3,407.8z"
   id="path220" />
			<g
   id="g222">
				<g
   id="g224">
					<g
   id="g226">
						<g
   id="g228">
							<g
   id="g230">
								<ellipse
   class="st0"
   cx="403.1"
   cy="383.1"
   rx="14.5"
   ry="14"
   id="ellipse232" />
								<path
   class="st14"
   d="M409.6,383.1c0,3.5-2.9,6.3-6.5,6.3c-3.6,0-6.5-2.8-6.5-6.3c0-3.5,2.9-6.3,6.5-6.3          C406.7,376.8,409.6,379.6,409.6,383.1z"
   id="path234" />
							</g>
							<rect
   x="398.8"
   y="365.3"
   class="st0"
   width="7.8"
   height="5"
   id="rect236" />
							<rect
   x="399.6"
   y="395.3"
   class="st0"
   width="7"
   height="6"
   id="rect238" />
						</g>
						<rect
   x="415.8"
   y="379.8"
   class="st0"
   width="6"
   height="7"
   id="rect240" />
						<rect
   x="384.8"
   y="379.8"
   class="st0"
   width="6"
   height="7"
   id="rect242" />
					</g>
					
						<rect
   x="388.1"
   y="369"
   transform="matrix(0.7526 0.6585 -0.6585 0.7526 341.9793 -165.5926)"
   class="st0"
   width="6.6"
   height="6.6"
   id="rect244" />
					
						<rect
   x="410.2"
   y="391"
   transform="matrix(0.7526 0.6585 -0.6585 0.7526 362.2429 -175.4187)"
   class="st0"
   width="8.6"
   height="6.6"
   id="rect246" />
				</g>
				
					<rect
   x="412.1"
   y="369.4"
   transform="matrix(0.7071 0.7071 -0.7071 0.7071 385.4124 -184.4679)"
   class="st0"
   width="6.5"
   height="7.2"
   id="rect248" />
				
					<rect
   x="388.9"
   y="391"
   transform="matrix(0.7071 0.7071 -0.7071 0.7071 393.6287 -161.8037)"
   class="st0"
   width="6.5"
   height="6.5"
   id="rect250" />
			</g>
		</g>
	</g>
</g>
<g
   id="L2_concentrator">
	<g
   id="g253">
		<line
   class="st1"
   x1="469.5"
   y1="408.5"
   x2="469.5"
   y2="437.5"
   id="line255" />
		<g
   id="g257">
			<path
   class="st14"
   d="M485.5,408.6h-30c-6.6,0-12-5.4-12-12v-25c0-6.6,5.4-12,12-12h30c6.6,0,12,5.4,12,12v25     C497.5,403.2,492.1,408.6,485.5,408.6z"
   id="path259" />
			<g
   id="g261">
				<rect
   x="455.5"
   y="371.5"
   class="st0"
   width="30"
   height="15.9"
   id="rect263" />
				<rect
   x="460.2"
   y="383.6"
   class="st0"
   width="20.6"
   height="7.5"
   id="rect265" />
				<rect
   x="460.2"
   y="377.1"
   class="st14"
   width="20.6"
   height="1.9"
   id="rect267" />
				<rect
   x="467.7"
   y="389.3"
   class="st0"
   width="5.6"
   height="13.1"
   id="rect269" />
				<rect
   x="458.3"
   y="365.8"
   class="st0"
   width="5.6"
   height="10.3"
   id="rect271" />
				<rect
   x="466.8"
   y="365.8"
   class="st0"
   width="2.8"
   height="3.8"
   id="rect273" />
				<rect
   x="471.4"
   y="365.8"
   class="st0"
   width="2.8"
   height="3.8"
   id="rect275" />
				<rect
   x="477.1"
   y="365.8"
   class="st0"
   width="5.6"
   height="10.3"
   id="rect277" />
			</g>
		</g>
	</g>
</g>
<g
   id="vSAN_vMotion">
	<g
   id="Layer_7">
	</g>
	<g
   id="g281">
		<g
   id="g283">
			<g
   id="g285">
				<path
   class="st17"
   d="M103.3,608.5L103.3,608.5l-0.4-0.1c-9.3-1-16.4-10-16.4-20.9s7-19.9,16.4-20.9l0.4,0v0h583.6l0.2,0      c9.2,0.4,16.4,9.6,16.4,21s-7.2,20.6-16.4,21l-0.4,0H103.3z"
   id="path287" />
				<path
   d="M686.7,567l0.4,0c8.9,0.4,15.9,9.4,15.9,20.5s-7,20.1-15.9,20.5l-0.3,0h-583l-0.9-0.1c-9.1-1-15.9-9.8-15.9-20.4      s6.9-19.4,15.9-20.4l0.9-0.1H686.7 M687.2,566H102.8v0.1c-9.4,1-16.8,10.2-16.8,21.4c0,11.2,7.4,20.4,16.8,21.4v0.1h584.3v0      c9.3-0.4,16.8-9.9,16.8-21.5S696.5,566.4,687.2,566L687.2,566L687.2,566z"
   id="path289" />
			</g>
			<g
   id="g291">
				<path
   class="st0"
   d="M685.4,605c-6.7,0-12.1-8-12.1-17.9c0-9.9,5.4-17.9,12.1-17.9s12.1,8,12.1,17.9      C697.5,596.9,692,605,685.4,605z"
   id="path293" />
				<path
   d="M685.4,569.6c6.4,0,11.6,7.8,11.6,17.4c0,9.6-5.2,17.4-11.6,17.4s-11.6-7.8-11.6-17.4      C673.7,577.5,679,569.6,685.4,569.6 M685.4,568.6c-7,0-12.6,8.3-12.6,18.4s5.7,18.4,12.6,18.4c7,0,12.6-8.3,12.6-18.4      S692.3,568.6,685.4,568.6L685.4,568.6z"
   id="path295" />
			</g>
		</g>
		<text
   id="text297"
   style="font-style:normal;font-variant:normal;font-weight:normal;font-stretch:normal;font-size:21px;line-height:125%;font-family:MyriadPro-Regular;-inkscape-font-specification:'MyriadPro-Regular, Normal';text-align:start;writing-mode:lr-tb;text-anchor:start"
   sodipodi:linespacing="125%"
   x="216"
   y="596"><tspan
     sodipodi:role="line"
     id="tspan8751"
     x="216"
     y="596">vSAN &amp; vMotion -- VLAN privé B</tspan></text>

	</g>
</g>
<g
   id="Logical_swiitch">
	<g
   id="g306">
		<g
   id="g308">
			<g
   id="g310">
				<g
   id="g312">
					<path
   class="st14"
   d="M311.5,480.5L311.5,480.5l-0.4-0.1c-6-1-10.6-10.2-10.6-20.9s4.7-19.9,10.6-20.9l0.4-0.1v0h382.2l0.2,0       c5.8,0.4,10.6,9.8,10.6,21s-4.7,20.6-10.6,21l-0.3,0H311.5z"
   id="path314" />
					<path
   d="M693.6,439l0.3,0c5.6,0.4,10.1,9.5,10.1,20.5s-4.5,20.1-10.1,20.5l-0.2,0h-382l-0.5-0.1c-5.7-1-10.2-9.9-10.2-20.4       s4.5-19.4,10.2-20.4l0.5-0.1H693.6 M694,438H311v0.1c-6.2,1-11,10.2-11,21.4c0,11.2,4.8,20.4,11,21.4v0.1H694v0       c6.1-0.4,11-9.9,11-21.5S700.1,438.4,694,438L694,438L694,438z"
   id="path316" />
				</g>
				<g
   id="g318">
					<ellipse
   class="st0"
   cx="688.2"
   cy="459.1"
   rx="12.4"
   ry="17.9"
   id="ellipse320" />
					<path
   d="M688.2,441.6c6.6,0,11.9,7.8,11.9,17.4c0,9.6-5.3,17.4-11.9,17.4c-6.6,0-11.9-7.8-11.9-17.4       C676.3,449.5,681.6,441.6,688.2,441.6 M688.2,440.6c-7.1,0-12.9,8.3-12.9,18.4c0,10.2,5.8,18.4,12.9,18.4       c7.1,0,12.9-8.3,12.9-18.4C701.1,448.9,695.3,440.6,688.2,440.6L688.2,440.6z"
   id="path322" />
				</g>
			</g>
		</g>
		<text
   transform="matrix(1 0 0 1 424 467)"
   class="st7 st8"
   id="text324">Réseau VXLAN</text>

	</g>
	<g
   id="Layer_9">
	</g>
</g>
<g
   id="g330">
			<path
   class="st18"
   d="m 682.5,368.5 -153.5,0 c -9.4,0 -17,8.3 -17,18.5 0,10.2 7.6,18.5 17,18.5 l 153.5,0 c 9.4,0 17,-8.3 17,-18.5 0,-10.2 -7.6,-18.5 -17,-18.5 z"
   id="path332"
   inkscape:connector-curvature="0"
   style="fill:#c491f2;stroke:#000000;stroke-miterlimit:10" />
			<ellipse
   class="st19"
   cx="681.90002"
   cy="387"
   rx="11.4"
   ry="15.5"
   id="ellipse334"
   style="fill:#ffffff;stroke:#000000;stroke-miterlimit:10" />
		</g><text
   class="st7 st15"
   id="text336"
   style="font-size:18px;font-family:MyriadPro-Regular"
   x="524.5"
   y="393">Réseau étendu</text>

<g
   id="Layer_6">
	</g><g
   id="g342">
			<g
   id="g344">
				<path
   class="st20"
   d="m 102.3,547.5 0,0 -0.4,-0.1 C 92.6,546.3 85.5,537.1 85.5,526 c 0,-11.1 7,-20.3 16.4,-21.4 l 0.4,-0.1 0,-0.1 583.6,0 0.2,0 c 9.2,0.4 16.4,9.8 16.4,21.5 0,11.7 -7.2,21.1 -16.4,21.5 l -0.4,0 -583.4,0 z"
   id="path346"
   inkscape:connector-curvature="0"
   style="fill:#f4ba51" />
				<path
   d="m 685.7,505 0.4,0 c 8.9,0.4 15.9,9.6 15.9,21 0,11.4 -7,20.6 -15.9,21 l -0.3,0 -583,0 -0.9,-0.1 C 92.8,545.9 86,536.9 86,526 c 0,-10.9 6.9,-19.9 15.9,-20.9 l 0.9,-0.1 582.9,0 m 0.5,-1 -584.4,0 0,0.1 C 92.4,505.2 85,514.6 85,526 c 0,11.4 7.4,20.8 16.8,21.9 l 0,0.1 584.3,0 0,0 c 9.3,-0.4 16.8,-10.1 16.8,-22 0.1,-11.9 -7.4,-21.6 -16.7,-22 l 0,0 0,0 z"
   id="path348"
   inkscape:connector-curvature="0" />
			</g>
			<g
   id="g350">
				<path
   class="st0"
   d="m 684.4,543.9 c -6.7,0 -12.1,-8.2 -12.1,-18.4 0,-10.1 5.4,-18.4 12.1,-18.4 6.7,0 12.1,8.2 12.1,18.4 0,10.2 -5.5,18.4 -12.1,18.4 z"
   id="path352"
   inkscape:connector-curvature="0"
   style="fill:#ffffff" />
				<path
   d="m 684.4,507.7 c 6.4,0 11.6,8 11.6,17.9 0,9.8 -5.2,17.9 -11.6,17.9 -6.4,0 -11.6,-8 -11.6,-17.9 -0.1,-9.9 5.2,-17.9 11.6,-17.9 m 0,-1 c -7,0 -12.6,8.4 -12.6,18.9 0,10.4 5.7,18.9 12.6,18.9 7,0 12.6,-8.4 12.6,-18.9 0,-10.5 -5.7,-18.9 -12.6,-18.9 l 0,0 z"
   id="path354"
   inkscape:connector-curvature="0" />
			</g>
		</g><text
   id="text356"
   x="115"
   y="533"
   style="font-style:normal;font-variant:normal;font-weight:normal;font-stretch:normal;font-size:21px;line-height:125%;font-family:MyriadPro-Regular;-inkscape-font-specification:'MyriadPro-Regular, Normal';text-align:start;writing-mode:lr-tb;text-anchor:start"
   sodipodi:linespacing="125%"><tspan
     sodipodi:role="line"
     id="tspan8745"
     x="115"
     y="533"> Réseau de gestion &amp; VXLAN -- VLAN privé A (natif)</tspan></text>

<g
   id="P_x2F_V">
	<g
   id="g365">
		<line
   class="st1"
   x1="121"
   y1="190"
   x2="121"
   y2="503.5"
   id="line367" />
		<g
   id="g369">
			<g
   id="g371">
				<g
   id="g373">
					<rect
   x="97.5"
   y="280"
   class="st21"
   width="47.3"
   height="47.3"
   id="rect375" />
					<linearGradient
   id="SVGID_1_"
   gradientUnits="userSpaceOnUse"
   x1="128.9627"
   y1="296.7212"
   x2="117.5096"
   y2="338.8456">
						<stop
   offset="0"
   style="stop-color:#CCE0F4"
   id="stop378" />
						<stop
   offset="7.748766e-02"
   style="stop-color:#C5DDF3"
   id="stop380" />
						<stop
   offset="0.1918"
   style="stop-color:#B1D5EF"
   id="stop382" />
						<stop
   offset="0.329"
   style="stop-color:#90C9EA"
   id="stop384" />
						<stop
   offset="0.4838"
   style="stop-color:#63B7E2"
   id="stop386" />
						<stop
   offset="0.6515"
   style="stop-color:#2AA1D9"
   id="stop388" />
						<stop
   offset="0.6829"
   style="stop-color:#1E9CD7"
   id="stop390" />
						<stop
   offset="0.8652"
   style="stop-color:#0075BE"
   id="stop392" />
						<stop
   offset="0.9944"
   style="stop-color:#005B97"
   id="stop394" />
					</linearGradient>
					<polygon
   class="st22"
   points="99.3,325.5 143,281.8 143,325.5      "
   id="polygon396" />
				</g>
				<text
   transform="matrix(1 0 0 1 101.084 315.4692)"
   class="st0 st13 st23"
   id="text398">P</text>

				<text
   transform="matrix(1 0 0 1 109.6836 324.0688)"
   class="st0 st13 st23"
   id="text400">V</text>

				<g
   id="g402">
					<g
   id="g404">
						<g
   id="g406">
							<g
   id="g408">
								<polygon
   class="st0"
   points="103.1,288.6 105.8,297.8 112.2,291.8         "
   id="polygon410" />
							</g>
						</g>
					</g>
					<g
   id="g412">
						<g
   id="g414">
							<g
   id="g416">
								
									<rect
   x="110"
   y="293.5"
   transform="matrix(0.7268 -0.6868 0.6868 0.7268 -174.0401 158.3445)"
   class="st0"
   width="4.1"
   height="9"
   id="rect418" />
							</g>
						</g>
					</g>
				</g>
				<g
   id="g420">
					<g
   id="g422">
						<g
   id="g424">
							<g
   id="g426">
								<polygon
   class="st0"
   points="135.6,322.1 125.5,318.2 132.2,311.8         "
   id="polygon428" />
							</g>
						</g>
					</g>
					<g
   id="g430">
						<g
   id="g432">
							<g
   id="g434">
								
									<rect
   x="123.2"
   y="306.1"
   transform="matrix(0.7268 -0.6868 0.6868 0.7268 -179.5351 171.1431)"
   class="st0"
   width="4.3"
   height="10.4"
   id="rect436" />
							</g>
						</g>
					</g>
				</g>
			</g>
		</g>
	</g>
</g>
<g
   id="Layer_15">
	<g
   id="g439">
		<g
   id="g441">
			<g
   id="g443">
				<rect
   x="50.5"
   y="720.9"
   class="st21"
   width="38.1"
   height="38.1"
   id="rect445" />
				<linearGradient
   id="SVGID_2_"
   gradientUnits="userSpaceOnUse"
   x1="75.8253"
   y1="734.3933"
   x2="66.6063"
   y2="768.3004">
					<stop
   offset="0"
   style="stop-color:#CCE0F4"
   id="stop448" />
					<stop
   offset="7.748766e-02"
   style="stop-color:#C5DDF3"
   id="stop450" />
					<stop
   offset="0.1918"
   style="stop-color:#B1D5EF"
   id="stop452" />
					<stop
   offset="0.329"
   style="stop-color:#90C9EA"
   id="stop454" />
					<stop
   offset="0.4838"
   style="stop-color:#63B7E2"
   id="stop456" />
					<stop
   offset="0.6515"
   style="stop-color:#2AA1D9"
   id="stop458" />
					<stop
   offset="0.6829"
   style="stop-color:#1E9CD7"
   id="stop460" />
					<stop
   offset="0.8652"
   style="stop-color:#0075BE"
   id="stop462" />
					<stop
   offset="0.9944"
   style="stop-color:#005B97"
   id="stop464" />
				</linearGradient>
				<polygon
   class="st24"
   points="52,757.5 87.1,722.4 87.1,757.5     "
   id="polygon466" />
			</g>
			<text
   transform="matrix(1 0 0 1 53.3848 749.484)"
   class="st0 st13 st25"
   id="text468">P</text>

			<text
   transform="matrix(1 0 0 1 60.3071 756.4059)"
   class="st0 st13 st25"
   id="text470">V</text>

			<g
   id="g472">
				<g
   id="g474">
					<g
   id="g476">
						<g
   id="g478">
							<polygon
   class="st0"
   points="55,727.9 57.2,735.3 62.3,730.4        "
   id="polygon480" />
						</g>
					</g>
				</g>
				<g
   id="g482">
					<g
   id="g484">
						<g
   id="g486">
							
								<rect
   x="60.6"
   y="731.8"
   transform="matrix(0.7268 -0.6868 0.6868 0.7268 -488.0847 243.6074)"
   class="st0"
   width="3.3"
   height="7.2"
   id="rect488" />
						</g>
					</g>
				</g>
			</g>
			<g
   id="g490">
				<g
   id="g492">
					<g
   id="g494">
						<g
   id="g496">
							<polygon
   class="st0"
   points="81.2,754.9 73,751.7 78.4,746.5        "
   id="polygon498" />
						</g>
					</g>
				</g>
				<g
   id="g500">
					<g
   id="g502">
						<g
   id="g504">
							
								<rect
   x="71.2"
   y="741.9"
   transform="matrix(0.7268 -0.6868 0.6868 0.7268 -492.5203 253.9219)"
   class="st0"
   width="3.5"
   height="8.4"
   id="rect506" />
						</g>
					</g>
				</g>
			</g>
		</g>
	</g>
	<text
   transform="matrix(1 0 0 1 38 780)"
   class="st7 st15"
   id="text508">NSX Edge</text>

</g>
<g
   id="g511">
		<path
   style="fill:#29abe2"
   inkscape:connector-curvature="0"
   id="path513"
   d="m 693,757 -18.5,0 c -6.6,0 -12,-5.4 -12,-12 l 0,-15 c 0,-6.6 5.4,-12 12,-12 l 18.5,0 c 6.6,0 12,5.4 12,12 l 0,15 c 0,6.6 -5.4,12 -12,12 z"
   class="st14" />
		<g
   id="g515">
			<rect
   style="fill:#ffffff"
   id="rect517"
   height="12.7"
   width="23.6"
   class="st0"
   y="727.40002"
   x="671.90002" />
			<rect
   style="fill:#ffffff"
   id="rect519"
   height="6"
   width="16.200001"
   class="st0"
   y="737.09998"
   x="675.59998" />
			<rect
   style="fill:#29abe2"
   id="rect521"
   height="1.5"
   width="16.200001"
   class="st14"
   y="731.90002"
   x="675.59998" />
			<rect
   style="fill:#ffffff"
   id="rect523"
   height="10.4"
   width="4.4000001"
   class="st0"
   y="741.59998"
   x="681.5" />
			<rect
   style="fill:#ffffff"
   id="rect525"
   height="8.1999998"
   width="4.4000001"
   class="st0"
   y="722.90002"
   x="674.20001" />
			<rect
   style="fill:#ffffff"
   id="rect527"
   height="3"
   width="2.2"
   class="st0"
   y="722.90002"
   x="680.79999" />
			<rect
   style="fill:#ffffff"
   id="rect529"
   height="3"
   width="2.2"
   class="st0"
   y="722.90002"
   x="684.5" />
			<rect
   style="fill:#ffffff"
   id="rect531"
   height="8.1999998"
   width="4.4000001"
   class="st0"
   y="722.90002"
   x="688.90002" />
		</g>
	</g><text
   style="font-size:18px;font-family:MyriadPro-Regular"
   id="text533"
   class="st7 st15"
   x="618"
   y="780">Concentrateur L2</text>

<g
   id="g538">
			<rect
   x="164"
   y="722"
   class="st26"
   width="41.099998"
   height="37"
   id="rect540"
   style="fill:#2b6782" />
			<rect
   x="204.2"
   y="722"
   class="st27"
   width="89.800003"
   height="37"
   id="rect542"
   style="fill:#1e4c66" />
		</g><text
   class="st0 st7 st28"
   id="text544"
   style="font-size:16.53190041px;font-family:MyriadPro-Regular;fill:#ffffff"
   x="170.2979"
   y="746.4043">MV</text>
<text
   class="st0 st7 st28"
   id="text546"
   style="font-size:16.53190041px;font-family:MyriadPro-Regular;fill:#ffffff"
   x="206.93649"
   y="746.4043">Cloud HCX</text>
<text
   style="font-size:18px;font-family:MyriadPro-Regular"
   id="text548"
   class="st7 st15"
   x="164"
   y="780">HCX Manager</text>

<line
   class="st1"
   x1="212.5"
   y1="407.5"
   x2="212.5"
   y2="503.5"
   id="line553"
   style="fill:none;stroke:#000000;stroke-miterlimit:10" /><g
   id="g555">
			<rect
   x="137"
   y="360.79999"
   class="st26"
   width="48"
   height="47"
   id="rect557"
   style="fill:#2b6782" />
			<rect
   x="184"
   y="360.79999"
   class="st27"
   width="114"
   height="47"
   id="rect559"
   style="fill:#1e4c66" />
		</g><text
   class="st0 st7 st8"
   id="text561"
   style="font-size:21px;font-family:MyriadPro-Regular;fill:#ffffff"
   x="145"
   y="391.75">MV</text>
<text
   class="st0 st7 st8"
   id="text563"
   style="font-size:21px;font-family:MyriadPro-Regular;fill:#ffffff"
   x="185"
   y="391.75">Cloud HCX</text>

</svg>
