<?xml version="1.0" encoding="UTF-8" standalone="no"?>
<svg
   xmlns:dc="http://purl.org/dc/elements/1.1/"
   xmlns:cc="http://creativecommons.org/ns#"
   xmlns:rdf="http://www.w3.org/1999/02/22-rdf-syntax-ns#"
   xmlns:svg="http://www.w3.org/2000/svg"
   xmlns="http://www.w3.org/2000/svg"
   xmlns:sodipodi="http://sodipodi.sourceforge.net/DTD/sodipodi-0.dtd"
   xmlns:inkscape="http://www.inkscape.org/namespaces/inkscape"
   width="691px"
   height="759px"
   version="1.1"
   id="svg2"
   inkscape:version="0.91 r13725"
   sodipodi:docname="vcscar-cam-components.svg">
  <defs
     id="defs168" />
  <sodipodi:namedview
     pagecolor="#ffffff"
     bordercolor="#666666"
     borderopacity="1"
     objecttolerance="10"
     gridtolerance="10"
     guidetolerance="10"
     inkscape:pageopacity="0"
     inkscape:pageshadow="2"
     inkscape:window-width="1920"
     inkscape:window-height="1020"
     id="namedview166"
     showgrid="false"
     inkscape:zoom="1.7589165"
     inkscape:cx="443.28245"
     inkscape:cy="556.17678"
     inkscape:window-x="-4"
     inkscape:window-y="-4"
     inkscape:window-maximized="1"
     inkscape:current-layer="svg2" />
  <metadata
     id="metadata4">
    <rdf:RDF>
      <cc:Work
         rdf:about="">
        <dc:format>image/svg+xml</dc:format>
        <dc:type
           rdf:resource="http://purl.org/dc/dcmitype/StillImage" />
        <dc:title />
      </cc:Work>
    </rdf:RDF>
  </metadata>
  <g
     style="fill:none;stroke-width:2"
     id="g8"
     pointer-events="none"
     transform="translate(0.5,0.5)">
    <rect
       style="stroke:#999999"
       id="rect10"
       height="150"
       width="492"
       y="1"
       x="77.5" />
    <circle
       style="stroke:#3333ff"
       r="259"
       id="ellipse12"
       cy="499"
       cx="431" />
    <rect
       style="stroke:#00994d"
       id="rect14"
       height="97"
       width="250"
       y="424"
       x="255" />
    <rect
       style="stroke:#00994d"
       id="rect16"
       height="130"
       width="120"
       y="536"
       x="458.5" />
    <rect
       style="stroke:#000000"
       id="rect18"
       height="60"
       width="160"
       y="51"
       x="351" />
    <rect
       style="stroke:#3333ff"
       id="rect20"
       height="35"
       width="140"
       y="66"
       x="361" />
  </g>
  <g
     style="font-weight:bold;font-size:11px;font-family:Helvetica;text-anchor:middle"
     id="g22"
     font-weight="bold"
     font-size="11px"
     transform="translate(0.5,0.5)">
    <text
       id="text24"
       y="86"
       x="430">CAM</text>
  </g>
  <g
     style="fill:none;stroke:#000000;stroke-width:2;stroke-miterlimit:10"
     id="g26"
     stroke-miterlimit="10"
     pointer-events="none"
     transform="translate(0.5,0.5)">
    <path
       inkscape:connector-curvature="0"
       id="path28"
       d="M 431,111" />
    <path
       inkscape:connector-curvature="0"
       id="path30"
       d="M 431,111" />
    <path
       inkscape:connector-curvature="0"
       id="path32"
       d="M 431,111" />
  </g>
  <g
     style="font-size:11px;font-family:Helvetica;text-anchor:middle"
     id="g34"
     font-size="11px"
     transform="translate(0.5,0.5)">
    <text
       id="text36"
       y="44"
       x="433">Noeuds worker ICP</text>
  </g>
  <g
     style="font-weight:bold;font-size:11px;font-family:Helvetica;text-anchor:middle"
     id="g38"
     font-weight="bold"
     font-size="11px"
     transform="translate(0.5,0.5)">
    <text
       id="text40"
       y="284"
       x="430.5">Cloud Automation Manager (CAM)</text>
  </g>
  <g
     style="fill:none;stroke-width:2"
     id="g42"
     pointer-events="none"
     transform="translate(0.5,0.5)">
    <path
       style="stroke:#3333ff;stroke-miterlimit:10"
       inkscape:connector-curvature="0"
       id="path44"
       stroke-miterlimit="10"
       d="M 248,315 396,101" />
    <path
       style="stroke:#3333ff;stroke-miterlimit:10"
       inkscape:connector-curvature="0"
       id="path46"
       stroke-miterlimit="10"
       d="M 614,315 466,101" />
    <rect
       style="stroke:#000000"
       id="rect48"
       height="60"
       width="171"
       y="51"
       x="101" />
    <path
       style="stroke:#cc6600;stroke-miterlimit:10"
       inkscape:connector-curvature="0"
       id="path50"
       stroke-miterlimit="10"
       d="m 187,99 0,222 242,0 0,25.53" />
    <path
       style="stroke:#cc6600;stroke-miterlimit:10"
       inkscape:connector-curvature="0"
       id="path52"
       stroke-miterlimit="10"
       d="m 425,340.76 4,8 4,-8" />
    <rect
       style="stroke:#999999"
       id="rect54"
       height="35"
       width="140"
       y="63.5"
       x="117" />
  </g>
  <g
     style="font-weight:bold;font-size:11px;font-family:Helvetica;text-anchor:middle"
     id="g56"
     font-weight="bold"
     font-size="11px"
     transform="translate(0.5,0.5)">
    <text
       id="text58"
       y="83.5"
       x="186">Contrôleur Ingress</text>
  </g>
  <g
     style="font-size:11px;font-family:Helvetica;text-anchor:middle"
     id="g60"
     font-size="11px"
     transform="translate(0.5,0.5)">
    <text
       id="text62"
       y="44"
       x="181.5">Noeuds proxy ICP</text>
  </g>
  <rect
     style="fill:none;stroke:#00994d;stroke-width:2"
     id="rect64"
     pointer-events="none"
     height="35"
     width="140"
     y="351.5"
     x="359" />
  <g
     style="font-weight:bold;font-size:11px;font-family:Helvetica;text-anchor:middle"
     id="g66"
     font-weight="bold"
     font-size="11px"
     transform="translate(0.5,0.5)">
    <text
       id="text68"
       y="371"
       x="427.5">Proxy CAM</text>
  </g>
  <rect
     style="fill:none;stroke:#3399ff;stroke-width:2"
     id="rect70"
     pointer-events="none"
     height="35"
     width="90"
     y="447"
     x="279" />
  <g
     style="font-weight:bold;font-size:11px;font-family:Helvetica;text-anchor:middle"
     id="g72"
     font-weight="bold"
     font-size="11px"
     transform="translate(0.5,6.5)">
    <text
       id="text74"
       y="456.5"
       x="322.5">Interfaces</text>
    <text
       y="466.5"
       x="322.5"
       id="text8309">utilisateur CAM</text>
  </g>
  <rect
     style="fill:none;stroke:#3399ff;stroke-width:2"
     id="rect76"
     pointer-events="none"
     height="35"
     width="90"
     y="447"
     x="394" />
  <g
     style="font-weight:bold;font-size:11px;font-family:Helvetica;text-anchor:middle"
     id="g78"
     font-weight="bold"
     font-size="11px"
     transform="translate(0.5,0.5)">
    <text
       id="text80"
       y="466.5"
       x="437.5">API CAM</text>
  </g>
  <rect
     style="fill:none;stroke:#3399ff;stroke-width:2"
     id="rect82"
     pointer-events="none"
     height="35"
     width="140"
     y="447"
     x="515" />
  <g
     style="font-weight:bold;font-size:11px;font-family:Helvetica;text-anchor:middle"
     id="g84"
     font-weight="bold"
     font-size="11px"
     transform="translate(0.5,0.5)">
    <text
       id="text86"
       y="466.5"
       x="583.5">Template Designer</text>
  </g>
  <rect
     style="fill:none;stroke:#3399ff;stroke-width:2"
     id="rect88"
     pointer-events="none"
     height="35"
     width="85"
     y="576.5"
     x="474" />
  <g
     style="font-weight:bold;font-size:11px;font-family:Helvetica;text-anchor:middle"
     id="g90"
     font-weight="bold"
     font-size="11px"
     transform="translate(0.5,0.5)">
    <text
       id="text92"
       y="596"
       x="515">Helm</text>
  </g>
  <rect
     style="fill:none;stroke:#3399ff;stroke-width:2"
     id="rect94"
     pointer-events="none"
     height="35"
     width="85"
     y="616.5"
     x="474" />
  <g
     style="font-weight:bold;font-size:11px;font-family:Helvetica;text-anchor:middle"
     id="g96"
     font-weight="bold"
     font-size="11px"
     transform="translate(0.5,0.5)">
    <text
       id="text98"
       y="636"
       x="515">Terraform</text>
  </g>
  <g
     style="font-weight:bold;font-size:11px;font-family:Helvetica;text-anchor:middle"
     id="g100"
     font-weight="bold"
     font-size="11px"
     transform="matrix(0.92308707,0,0,1,38.567692,0.5)">
    <text
       id="text102"
       y="549"
       x="520.5">Moteurs de déploiement</text>
  </g>
  <path
     style="fill:none;stroke:#999999;stroke-width:2;stroke-miterlimit:10"
     inkscape:connector-curvature="0"
     id="path104"
     stroke-miterlimit="10"
     pointer-events="none"
     d="m 296.5,590.67 0,-23.34 c 0,-3.22 10.52,-5.83 23.5,-5.83 12.98,0 23.5,2.61 23.5,5.83 l 0,23.34 c 0,3.22 -10.52,5.83 -23.5,5.83 -12.98,0 -23.5,-2.61 -23.5,-5.83 z" />
  <path
     style="fill:none;stroke:#999999;stroke-width:2;stroke-miterlimit:10"
     inkscape:connector-curvature="0"
     id="path106"
     stroke-miterlimit="10"
     pointer-events="none"
     d="m 296.5,567.33 c 0,3.22 10.52,5.84 23.5,5.84 12.98,0 23.5,-2.62 23.5,-5.84" />
  <g
     style="font-size:11px;font-family:Helvetica;text-anchor:middle"
     id="g108"
     font-size="11px"
     transform="translate(0.5,0.5)">
    <text
       id="text110"
       y="581"
       x="318.5">Mongo</text>
  </g>
  <path
     style="fill:none;stroke:#999999;stroke-width:2;stroke-miterlimit:10"
     inkscape:connector-curvature="0"
     id="path112"
     stroke-miterlimit="10"
     pointer-events="none"
     d="m 361.5,590.67 0,-23.34 c 0,-3.22 10.52,-5.83 23.5,-5.83 12.98,0 23.5,2.61 23.5,5.83 l 0,23.34 c 0,3.22 -10.52,5.83 -23.5,5.83 -12.98,0 -23.5,-2.61 -23.5,-5.83 z" />
  <path
     style="fill:none;stroke:#999999;stroke-width:2;stroke-miterlimit:10"
     inkscape:connector-curvature="0"
     id="path114"
     stroke-miterlimit="10"
     pointer-events="none"
     d="m 361.5,567.33 c 0,3.22 10.52,5.84 23.5,5.84 12.98,0 23.5,-2.62 23.5,-5.84" />
  <g
     style="font-size:11px;font-family:Helvetica;text-anchor:middle"
     id="g116"
     font-size="11px"
     transform="translate(0.5,0.5)">
    <text
       id="text118"
       y="581"
       x="383.5">Redis</text>
  </g>
  <path
     style="fill:none;stroke:#999999;stroke-width:2;stroke-miterlimit:10"
     inkscape:connector-curvature="0"
     id="path120"
     stroke-miterlimit="10"
     pointer-events="none"
     d="m 609,515.67 0,-23.34 c 0,-3.22 10.52,-5.83 23.5,-5.83 12.98,0 23.5,2.61 23.5,5.83 l 0,23.34 c 0,3.22 -10.52,5.83 -23.5,5.83 -12.98,0 -23.5,-2.61 -23.5,-5.83 z" />
  <path
     style="fill:none;stroke:#999999;stroke-width:2;stroke-miterlimit:10"
     inkscape:connector-curvature="0"
     id="path122"
     stroke-miterlimit="10"
     pointer-events="none"
     d="m 609,492.33 c 0,3.22 10.52,5.84 23.5,5.84 12.98,0 23.5,-2.62 23.5,-5.84" />
  <g
     style="font-size:11px;font-family:Helvetica;text-anchor:middle"
     id="g124"
     font-size="11px"
     transform="translate(0.5,0.5)">
    <text
       id="text126"
       y="506"
       x="631">MariaDB</text>
  </g>
  <rect
     style="fill:none;stroke:#3399ff;stroke-width:2"
     id="rect128"
     pointer-events="none"
     height="35"
     width="118"
     y="611.5"
     x="294.5" />
  <g
     style="font-weight:bold;font-size:11px;font-family:Helvetica;text-anchor:middle"
     id="g130"
     font-weight="bold"
     font-size="11px"
     transform="translate(0.5,0.5)">
    <text
       id="text132"
       y="631"
       x="352">Stockage de journaux</text>
  </g>
  <g
     style="fill:none;stroke-width:2"
     id="g134"
     pointer-events="none"
     transform="translate(0.5,0.5)">
    <path
       style="stroke:#cc6600;stroke-miterlimit:10"
       inkscape:connector-curvature="0"
       id="path136"
       stroke-miterlimit="10"
       d="m 31,81 81.53,0" />
    <path
       style="stroke:#cc6600;stroke-miterlimit:10"
       inkscape:connector-curvature="0"
       id="path138"
       stroke-miterlimit="10"
       d="m 106.76,85 8,-4 -8,-4" />
    <circle
       style="stroke:#3333ff"
       r="7.5"
       id="ellipse140"
       cy="59"
       cx="16" />
    <path
       style="stroke:#3333ff;stroke-miterlimit:10"
       inkscape:connector-curvature="0"
       id="path142"
       stroke-miterlimit="10"
       d="m 16,66 0,25 M 16,71 1,71 m 15,0 15,0 M 16,91 1,111 m 15,-20 15,20" />
  </g>
  <g
     style="font-size:11px;font-family:Helvetica;text-anchor:middle"
     id="g144"
     font-size="11px"
     transform="translate(12.5,0.5)">
    <rect
       style="fill:#ffffff;stroke-width:0"
       id="rect146"
       height="14"
       width="25"
       y="120"
       x="4" />
    <text
       id="text148"
       y="128.5"
       x="15">Utilisateur</text>
  </g>
  <path
     style="fill:none;stroke:#cc6600;stroke-width:2;stroke-miterlimit:10"
     inkscape:connector-curvature="0"
     id="path150"
     stroke-miterlimit="10"
     pointer-events="none"
     d="m 499.5,369.5 86,0 0,73.53" />
  <path
     style="fill:none;stroke:#cc6600;stroke-width:2;stroke-miterlimit:10"
     inkscape:connector-curvature="0"
     id="path152"
     stroke-miterlimit="10"
     pointer-events="none"
     d="m 581.5,437.26 4,8 4,-8" />
  <g
     style="font-weight:bold;font-size:11px;font-family:Helvetica;text-anchor:middle"
     id="g154"
     font-weight="bold"
     font-size="11px"
     transform="translate(0.5,0.5)">
    <text
       id="text156"
       y="501.5"
       x="373.5">Gestion d'instances</text>
  </g>
  <path
     style="fill:none;stroke:#cc6600;stroke-width:2;stroke-miterlimit:10"
     inkscape:connector-curvature="0"
     id="path158"
     stroke-miterlimit="10"
     pointer-events="none"
     d="m 359.5,369.5 -35,0 0,73.53" />
  <path
     style="fill:none;stroke:#cc6600;stroke-width:2;stroke-miterlimit:10"
     inkscape:connector-curvature="0"
     id="path160"
     stroke-miterlimit="10"
     pointer-events="none"
     d="m 320.5,437.26 4,8 4,-8" />
  <g
     style="font-weight:bold;font-size:16px;font-family:Helvetica;text-anchor:middle"
     id="g162"
     font-weight="bold"
     font-size="16px"
     transform="translate(0.5,0.5)">
    <text
       id="text164"
       y="16.5"
       x="319">Plateforme ICP</text>
  </g>
</svg>
