<?xml version="1.0" encoding="utf-8"?>
<!-- Generator: Adobe Illustrator 25.0.0, SVG Export Plug-In . SVG Version: 6.00 Build 0)  -->
<svg version="1.1"
	 id="Layer_1" xmlns:cc="http://creativecommons.org/ns#" xmlns:dc="http://purl.org/dc/elements/1.1/" xmlns:rdf="http://www.w3.org/1999/02/22-rdf-syntax-ns#"
	 xmlns="http://www.w3.org/2000/svg" xmlns:xlink="http://www.w3.org/1999/xlink" x="0px" y="0px" viewBox="0 0 725 387.4"
	 style="enable-background:new 0 0 725 387.4;" xml:space="preserve">
<style type="text/css">
	.st0{fill:#4B84C4;}
	.st1{fill:#959595;}
	.st2{fill:#CBA8CC;}
	.st3{fill:#333333;}
	.st4{font-family:'IBMPlexSans';}
	.st5{font-size:14px;}
	.st6{fill:#FFFFFF;}
	.st7{font-size:12px;}
	.st8{font-size:11.9995px;}
	.st9{font-family:'IBMPlexSans-Bold';}
	.st10{font-size:16px;}
	.st11{fill:#EFEC97;}
</style>
<rect x="17.5" y="43.1" class="st0" width="149.8" height="95.8"/>
<rect x="17.8" y="142.5" class="st0" width="149.8" height="97.1"/>
<rect x="18.2" y="243.1" class="st0" width="149.8" height="101.8"/>
<rect x="172.2" y="142.2" class="st1" width="133" height="99.3"/>
<rect x="309.4" y="141.8" class="st2" width="135.9" height="99.3"/>
<rect x="449.2" y="141.5" class="st1" width="135.9" height="99.3"/>
<rect x="171.9" y="245.1" class="st1" width="273.5" height="99.3"/>
<rect x="171.4" y="42.9" class="st2" width="413.2" height="94.3"/>
<rect x="589.2" y="42.6" class="st2" width="135.9" height="93.9"/>
<rect x="17.3" y="0.6" class="st3" width="150.7" height="39.2"/>
<rect x="170.9" y="0.6" class="st3" width="136.1" height="39.2"/>
<rect x="310.1" y="0.2" class="st3" width="136.1" height="39.2"/>
<rect x="449" y="0.2" class="st3" width="136.1" height="39.2"/>
<rect x="588.9" y="0.9" class="st3" width="136.1" height="39.2"/>
<text transform="matrix(1 0 0 1 343 197.62)" class="st4 st5">Customer</text>
<text transform="matrix(1 0 0 1 220.17 197.62)" class="st4 st5">IBM</text>
<text transform="matrix(1 0 0 1 291.5 302.96)" class="st4 st5">IBM</text>
<text transform="matrix(1 0 0 1 626.5 93.957)" class="st4 st5">Customer</text>
<text transform="matrix(1 0 0 1 343 93.957)" class="st4 st5">Customer</text>
<g id="Bare_Metal">
	<text transform="matrix(1 0 0 1 52.834 330.29)" class="st6 st4 st5">Bare metal</text>
</g>
<g id="Storage">
	<text transform="matrix(1 0 0 1 61.834 307.96)" class="st6 st4 st5">Storage</text>
</g>
<g id="Network">
	<text transform="matrix(1 0 0 1 60.166 285.62)" class="st6 st4 st5">Network</text>
</g>
<g id="data_center">
	<text transform="matrix(1 0 0 1 51.5 263.96)" class="st6 st4 st5">Data Center</text>
</g>
<g id="PSC">
	<text transform="matrix(1 0 0 1 73.5 221.96)" class="st6 st4 st5">PSC</text>
</g>
<g id="NSX">
	<text transform="matrix(1 0 0 1 73.5 196.29)" class="st6 st4 st5">NSX</text>
</g>
<g id="vCenter">
	<text transform="matrix(1 0 0 1 64.834 169.62)" class="st6 st4 st5">vCenter</text>
</g>
<g id="Guest_OS">
	<text transform="matrix(1 0 0 1 62.101 124.58)" class="st6 st4 st5">Guest OS</text>
</g>
<g id="IBM_middleware">
	<text transform="matrix(1 0 0 1 42.219 99.212)" class="st6 st4 st5">IBM Middleware</text>
</g>
<g id="Application_software">
	<text transform="matrix(1 0 0 1 28.722 70.951)" class="st6 st4 st5">Application Software</text>
</g>
<text transform="matrix(-3.440000e-03 -1 1 -3.440000e-03 15.294 334.12)" class="st4 st7">IBM Cloud IaaS</text>
<g id="vmware_vcs">
	<text transform="matrix(-2.045000e-02 -0.9998 0.9998 -2.045000e-02 14.726 223.4599)" class="st4 st7">VMware VCS</text>
</g>
<g id="OS_x2F_APP">
	<text transform="matrix(1.087045e-02 -0.9999 0.9999 1.087045e-02 12.3739 114.1705)" class="st4 st8">OS/App</text>
</g>
<g id="Admin_access">
	<text transform="matrix(1 0 0 1 611.3 24.16)" class="st6 st9 st10">Admin Access</text>
</g>
<g id="Configure">
	<text transform="matrix(1 0 0 1 476.12 24.16)" class="st6 st9 st10">Configure</text>
</g>
<g id="Maintain">
	<text transform="matrix(1 0 0 1 345.36 24.16)" class="st6 st9 st10">Maintain</text>
</g>
<g id="Install">
	<text transform="matrix(1 0 0 1 214.08 24.16)" class="st6 st9 st10">Install</text>
</g>
<g id="Activity">
	<text transform="matrix(1 0 0 1 63.559 24.16)" class="st6 st9 st10">Activity</text>
</g>
<polygon class="st11" points="449.2,141.5 585.2,240.8 449.2,240.8 "/>
<rect x="448.9" y="244.4" class="st1" width="135.9" height="99.3"/>
<polygon class="st11" points="448.9,244.4 584.8,343.7 448.9,343.7 "/>
<rect x="589.1" y="244.4" class="st1" width="135.9" height="99.3"/>
<polygon class="st11" points="589.1,244.4 725.1,343.7 589.1,343.7 "/>
<rect x="589.5" y="141.5" class="st1" width="135.9" height="99.3"/>
<polygon class="st11" points="589.5,141.5 725.4,240.8 589.5,240.8 "/>
<text transform="matrix(1 0 0 1 467.17 219.96)" class="st4 st5">Customer</text>
<text transform="matrix(1 0 0 1 467.17 325.62)" class="st4 st5">Customer</text>
<text transform="matrix(1 0 0 1 603.17 219.96)" class="st4 st5">Customer</text>
<text transform="matrix(1 0 0 1 603.17 325.62)" class="st4 st5">Customer</text>
<text transform="matrix(1 0 0 1 520.17 170.62)" class="st4 st5">IBM*</text>
<text transform="matrix(1 0 0 1 520.17 270.96)" class="st4 st5">IBM*</text>
<text transform="matrix(1 0 0 1 675.5 170.29)" class="st4 st5">IBM*</text>
<text transform="matrix(1 0 0 1 676.83 269.96)" class="st4 st5">IBM*</text>
<text transform="matrix(1 0 0 1 17.6356 372.5659)" class="st4 st5">* With explicit or implicit customer permission</text>
</svg>
