<?xml version="1.0" encoding="UTF-8"?>
<!DOCTYPE svg PUBLIC "-//W3C//DTD SVG 1.1//EN" "http://www.w3.org/Graphics/SVG/1.1/DTD/svg11.dtd">
<svg xmlns="http://www.w3.org/2000/svg" xmlns:xlink="http://www.w3.org/1999/xlink" version="1.1" width="862px" height="581px" viewBox="-0.5 -0.5 862 581"><defs/><g><rect x="0" y="60" width="310" height="260" fill="#ffffff" stroke="#000000" pointer-events="all"/><g fill="#000000" font-family="Helvetica" text-anchor="middle" font-size="12px"><text x="154.5" y="109.5">vCenter </text><text x="154.5" y="123.5">Platform Services Controller</text><text x="154.5" y="137.5">vSphere hosts</text><text x="154.5" y="151.5">NSX Manager </text><text x="154.5" y="165.5">NSX Controller</text><text x="154.5" y="179.5">NSX Edges</text><text x="154.5" y="193.5">HCX</text><text x="154.5" y="207.5">F5</text><text x="154.5" y="221.5">NSX distributed logical routers</text><text x="154.5" y="235.5">NSX universal distributed logical routers</text><text x="154.5" y="249.5">NSX distributed firewall ESXi kernel module</text><text x="154.5" y="263.5">vRealize Operations Manager Analytics cluster nodes</text><text x="154.5" y="277.5">vRealize Operations Manager Remote collectors</text></g><rect x="0" y="330" width="310" height="80" fill="#ffffff" stroke="#000000" pointer-events="all"/><g fill="#000000" font-family="Helvetica" text-anchor="middle" font-size="12px"><text x="154.5" y="373.5">VMs</text><text x="154.5" y="387.5">vRealize Operations</text><text x="154.5" y="401.5">vRealize Business for Cloud</text></g><rect x="500" y="60" width="120" height="60" fill="#dae8fc" stroke="#6c8ebf" pointer-events="all"/><g fill="#000000" font-family="Helvetica" text-anchor="middle" font-size="12px"><text x="559.5" y="79.5">vRealize</text><text x="559.5" y="93.5">Operations</text><text x="559.5" y="107.5">Manager</text></g><rect x="500" y="160" width="120" height="60" fill="#d5e8d4" stroke="#82b366" pointer-events="all"/><g fill="#000000" font-family="Helvetica" text-anchor="middle" font-size="12px"><text x="559.5" y="186.5">vRealize</text><text x="559.5" y="200.5">Log Insight</text></g><rect x="500" y="260" width="120" height="60" fill="#ffe6cc" stroke="#d79b00" pointer-events="all"/><g fill="#000000" font-family="Helvetica" text-anchor="middle" font-size="12px"><text x="559.5" y="286.5">vRealize</text><text x="559.5" y="300.5">Network Insight</text></g><rect x="706" y="184" width="130" height="33" fill="none" stroke="none" pointer-events="all"/><g fill="#000000" font-family="Helvetica" text-anchor="middle" font-size="12px"><text x="770.5" y="197">Event Forwarding from </text><text x="770.5" y="211">non-vSphere sources</text></g><rect x="58" y="70" width="190" height="20" fill="none" stroke="none" pointer-events="all"/><g fill="#000000" font-family="Helvetica" font-weight="bold" text-anchor="middle" font-size="12px"><text x="152.5" y="76.5">Log and Metrics Sources</text></g><path d="M 310 190 L 390 190 Q 400 190 400 180 L 400 100 Q 400 90 410 90 L 493.63 90" fill="none" stroke="#000000" stroke-miterlimit="10" pointer-events="stroke"/><path d="M 498.88 90 L 491.88 93.5 L 493.63 90 L 491.88 86.5 Z" fill="#000000" stroke="#000000" stroke-miterlimit="10" pointer-events="all"/><path d="M 310 190 L 390 190 Q 400 190 410 190 L 493.63 190" fill="none" stroke="#000000" stroke-miterlimit="10" pointer-events="stroke"/><path d="M 498.88 190 L 491.88 193.5 L 493.63 190 L 491.88 186.5 Z" fill="#000000" stroke="#000000" stroke-miterlimit="10" pointer-events="all"/><path d="M 560 160 L 560 155 Q 560 150 560 140 L 560 126.37" fill="none" stroke="#000000" stroke-miterlimit="10" pointer-events="stroke"/><path d="M 560 121.12 L 563.5 128.12 L 560 126.37 L 556.5 128.12 Z" fill="#000000" stroke="#000000" stroke-miterlimit="10" pointer-events="all"/><path d="M 560 260 L 560 226.37" fill="none" stroke="#000000" stroke-miterlimit="10" pointer-events="stroke"/><path d="M 560 221.12 L 563.5 228.12 L 560 226.37 L 556.5 228.12 Z" fill="#000000" stroke="#000000" stroke-miterlimit="10" pointer-events="all"/><path d="M 310 190 L 390 190 Q 400 190 400 200 L 400 280 Q 400 290 410 290 L 493.63 290" fill="none" stroke="#000000" stroke-miterlimit="10" pointer-events="stroke"/><path d="M 498.88 290 L 491.88 293.5 L 493.63 290 L 491.88 286.5 Z" fill="#000000" stroke="#000000" stroke-miterlimit="10" pointer-events="all"/><path d="M 690 190 L 626.37 190" fill="none" stroke="#000000" stroke-miterlimit="10" pointer-events="stroke"/><path d="M 621.12 190 L 628.12 186.5 L 626.37 190 L 628.12 193.5 Z" fill="#000000" stroke="#000000" stroke-miterlimit="10" pointer-events="all"/><path d="M 620 90 L 683.63 90" fill="none" stroke="#000000" stroke-miterlimit="10" pointer-events="stroke"/><path d="M 688.88 90 L 681.88 93.5 L 683.63 90 L 681.88 86.5 Z" fill="#000000" stroke="#000000" stroke-miterlimit="10" pointer-events="all"/><rect x="700" y="84" width="120" height="20" fill="none" stroke="none" pointer-events="all"/><g fill="#000000" font-family="Helvetica" text-anchor="middle" font-size="12px"><text x="759.5" y="83.5">Forwarding to Enterprise</text><text x="759.5" y="97.5">ITSM Tooling</text></g><rect x="58" y="344" width="190" height="20" fill="none" stroke="none" pointer-events="all"/><g fill="#000000" font-family="Helvetica" font-weight="bold" text-anchor="middle" font-size="12px"><text x="152.5" y="343.5">Client configured</text><text x="152.5" y="357.5">Log and Metrics Sources</text></g><path d="M 310 370 L 350 370 Q 360 370 360 360 L 360 200 Q 360 190 370 190 L 390 190 Q 400 190 400 200 L 400 280 Q 400 290 410 290 L 493.63 290" fill="none" stroke="#000000" stroke-miterlimit="10" pointer-events="stroke"/><path d="M 498.88 290 L 491.88 293.5 L 493.63 290 L 491.88 286.5 Z" fill="#000000" stroke="#000000" stroke-miterlimit="10" pointer-events="all"/><rect x="500" y="520" width="120" height="60" fill="#e1d5e7" stroke="#9673a6" pointer-events="all"/><g fill="#000000" font-family="Helvetica" text-anchor="middle" font-size="12px"><text x="559.5" y="553.5">Proxy</text></g><rect x="500" y="440" width="120" height="60" fill="#f8cecc" stroke="#b85450" pointer-events="all"/><g fill="#000000" font-family="Helvetica" text-anchor="middle" font-size="12px"><text x="559.5" y="466.5">VMware Update</text><text x="559.5" y="480.5">Manager</text></g><path d="M 620 563 L 683.63 563" fill="none" stroke="#000000" stroke-miterlimit="10" pointer-events="stroke"/><path d="M 688.88 563 L 681.88 566.5 L 683.63 563 L 681.88 559.5 Z" fill="#000000" stroke="#000000" stroke-miterlimit="10" pointer-events="all"/><rect x="700" y="557" width="120" height="20" fill="none" stroke="none" pointer-events="all"/><g fill="#000000" font-family="Helvetica" text-anchor="middle" font-size="12px"><text x="759.5" y="563.5">Internet Repositories</text></g><path d="M 620 470 L 660 470 Q 670 470 670 480 L 670 525 Q 670 535 660 535 L 626.37 535" fill="none" stroke="#000000" stroke-miterlimit="10" pointer-events="stroke"/><path d="M 621.12 535 L 628.12 531.5 L 626.37 535 L 628.12 538.5 Z" fill="#000000" stroke="#000000" stroke-miterlimit="10" pointer-events="all"/><rect x="0" y="421" width="310" height="99" fill="#ffffff" stroke="#000000" pointer-events="all"/><g fill="#000000" font-family="Helvetica" text-anchor="middle" font-size="12px"><text x="154.5" y="460">vSphere Hosts</text><text x="154.5" y="474">VM Hardware</text><text x="154.5" y="488">VM Tools</text></g><rect x="58" y="435" width="190" height="20" fill="none" stroke="none" pointer-events="all"/><g fill="#000000" font-family="Helvetica" font-weight="bold" text-anchor="middle" font-size="12px"><text x="152.5" y="441.5">Components</text></g><path d="M 500 470 L 316.37 470.48" fill="none" stroke="#000000" stroke-miterlimit="10" pointer-events="stroke"/><path d="M 311.12 470.5 L 318.11 466.98 L 316.37 470.48 L 318.13 473.98 Z" fill="#000000" stroke="#000000" stroke-miterlimit="10" pointer-events="all"/><path d="M 155 520 L 155 520" fill="none" stroke="#6666ff" stroke-miterlimit="10" pointer-events="stroke"/><path d="M 155 520 L 155 520 L 155 520 L 155 520 Z" fill="#6666ff" stroke="#6666ff" stroke-miterlimit="10" pointer-events="all"/><path d="M 620 175 L 687.63 175" fill="none" stroke="#000000" stroke-miterlimit="10" pointer-events="stroke"/><path d="M 692.88 175 L 685.88 178.5 L 687.63 175 L 685.88 171.5 Z" fill="#000000" stroke="#000000" stroke-miterlimit="10" pointer-events="all"/><rect x="734" y="165" width="90" height="20" fill="none" stroke="none" pointer-events="all"/><g fill="#000000" font-family="Helvetica" text-anchor="middle" font-size="12px"><text x="778.5" y="178.5">To Enterpise Log Management</text></g><path d="M 530 60 L 529.58 26.37" fill="none" stroke="#000000" stroke-miterlimit="10" pointer-events="stroke"/><path d="M 529.51 21.12 L 533.1 28.07 L 529.58 26.37 L 526.1 28.16 Z" fill="#000000" stroke="#000000" stroke-miterlimit="10" pointer-events="all"/><rect x="476" y="0" width="107" height="20" fill="none" stroke="none" pointer-events="all"/><g fill="#000000" font-family="Helvetica" text-anchor="middle" font-size="12px"><text x="529" y="13.5">Active Directory</text></g></g></svg>