<?xml version="1.0" encoding="utf-8"?>
<!-- Generator: Adobe Illustrator 22.0.0, SVG Export Plug-In . SVG Version: 6.00 Build 0)  -->
<svg version="1.1" xmlns="http://www.w3.org/2000/svg" xmlns:xlink="http://www.w3.org/1999/xlink" x="0px" y="0px"
	 viewBox="0 0 864.7 370" style="enable-background:new 0 0 864.7 370;" xml:space="preserve">
<style type="text/css">
	.st0{fill:#E8CEB5;stroke:#000000;stroke-width:0.5;stroke-miterlimit:10;stroke-dasharray:5;}
	.st1{fill:#D0EFDF;}
	.st2{fill:none;stroke:#000000;stroke-width:0.5;stroke-miterlimit:10;}
	.st3{fill:none;stroke:#000000;stroke-width:0.5;stroke-miterlimit:10;stroke-dasharray:4.9744,4.9744;}
	.st4{fill:none;stroke:#000000;stroke-width:0.5;stroke-miterlimit:10;stroke-dasharray:4.9483,4.9483;}
	.st5{fill:#FFFFFF;stroke:#4D4D4D;stroke-width:2;stroke-miterlimit:10;}
	.st6{font-family:'MyriadPro-Regular';}
	.st7{font-size:18px;}
	.st8{fill:none;stroke:#009245;stroke-width:2;stroke-miterlimit:10;}
	.st9{fill:none;stroke:#000000;stroke-width:2;stroke-miterlimit:10;}
	.st10{fill:#8CC63F;stroke:#009245;stroke-width:0.25;stroke-miterlimit:10;}
	.st11{fill:#29ABE2;stroke:#0071BC;stroke-width:0.25;stroke-miterlimit:10;}
</style>
<g id="right_box">
	<rect x="406" y="4.5" class="st0" width="275" height="310"/>
</g>
<g id="left_box">
	<g>
		<rect x="191.3" y="165" class="st1" width="199" height="148.5"/>
		<g>
			<polyline class="st2" points="390.3,311 390.3,313.5 387.8,313.5 			"/>
			<line class="st3" x1="382.8" y1="313.5" x2="196.3" y2="313.5"/>
			<polyline class="st2" points="193.8,313.5 191.3,313.5 191.3,311 			"/>
			<line class="st4" x1="191.3" y1="306.1" x2="191.3" y2="170"/>
			<polyline class="st2" points="191.3,167.5 191.3,165 193.8,165 			"/>
			<line class="st3" x1="198.8" y1="165" x2="385.3" y2="165"/>
			<polyline class="st2" points="387.8,165 390.3,165 390.3,167.5 			"/>
			<line class="st4" x1="390.3" y1="172.4" x2="390.3" y2="308.5"/>
		</g>
	</g>
	<g>
		<rect x="191.3" y="5" class="st1" width="199" height="148.5"/>
		<g>
			<polyline class="st2" points="390.3,151 390.3,153.5 387.8,153.5 			"/>
			<line class="st3" x1="382.8" y1="153.5" x2="196.3" y2="153.5"/>
			<polyline class="st2" points="193.8,153.5 191.3,153.5 191.3,151 			"/>
			<line class="st4" x1="191.3" y1="146.1" x2="191.3" y2="10"/>
			<polyline class="st2" points="191.3,7.5 191.3,5 193.8,5 			"/>
			<line class="st3" x1="198.8" y1="5" x2="385.3" y2="5"/>
			<polyline class="st2" points="387.8,5 390.3,5 390.3,7.5 			"/>
			<line class="st4" x1="390.3" y1="12.4" x2="390.3" y2="148.5"/>
		</g>
	</g>
</g>
<g id="Layer_4">
	<g>
		<path class="st5" d="M633,143c-7.9,0-15.2,1.6-21.2,4.3c-2.2-15.9-17.1-28.3-35.2-28.3c-18.6,0-33.9,13-35.4,29.7
			c-1.6-0.6-3.3-0.8-5.1-0.8c-9.5,0-17.2,8.6-17.2,19.2c0,10.6,7.7,19.2,17.2,19.2c2.1,0,4.1-0.4,5.9-1.2h79.3
			c3.6,0.8,7.5,1.2,11.6,1.2c19.6,0,35.5-9.7,35.5-21.6C668.5,152.7,652.6,143,633,143z"/>
		<text transform="matrix(1 0 0 1 532.5 171.1221)" class="st6 st7">IBM Cloud DC2</text>
	</g>
</g>
<g id="lines">
	<line class="st8" x1="455.5" y1="249" x2="377.5" y2="247"/>
	<line class="st8" x1="516.5" y1="162" x2="377.5" y2="247"/>
	<line class="st8" x1="440.5" y1="76" x2="377.5" y2="247"/>
	<line class="st9" x1="455.5" y1="249" x2="376.5" y2="78"/>
	<line class="st9" x1="518.5" y1="162" x2="374.5" y2="76"/>
	<line class="st9" x1="374.5" y1="76" x2="440.5" y2="76"/>
</g>
<g id="Layer_8">
	<text transform="matrix(1 0 0 1 519.8586 304.333)" class="st6 st7">Target</text>
	<text transform="matrix(1 0 0 1 255.0514 304.333)" class="st6 st7">Source</text>
	<text transform="matrix(1 0 0 1 256.0514 136.333)" class="st6 st7">Source</text>
</g>
<g id="Layer_3">
	<g>
		<path class="st5" d="M568,234c-7.9,0-15.2,1.6-21.2,4.3c-2.2-15.9-17.1-28.3-35.2-28.3c-18.6,0-33.9,13-35.4,29.7
			c-1.6-0.6-3.3-0.8-5.1-0.8c-9.5,0-17.2,8.6-17.2,19.2c0,10.6,7.7,19.2,17.2,19.2c2.1,0,4.1-0.4,5.9-1.2h79.3
			c3.6,0.8,7.5,1.2,11.6,1.2c19.6,0,35.5-9.7,35.5-21.6C603.5,243.7,587.6,234,568,234z"/>
		<text transform="matrix(1 0 0 1 467.5 262.1221)" class="st6 st7">Non-IBM Cloud</text>
	</g>
</g>
<g id="Layer_2">
	<g>
		<path class="st5" d="M557,52c-7.9,0-15.2,1.6-21.2,4.3C533.6,40.3,518.7,28,500.6,28c-18.6,0-33.9,13-35.4,29.7
			c-1.6-0.6-3.3-0.8-5.1-0.8c-9.5,0-17.2,8.6-17.2,19.2c0,10.6,7.7,19.2,17.2,19.2c2.1,0,4.1-0.4,5.9-1.2h79.3
			c3.6,0.8,7.5,1.2,11.6,1.2c19.6,0,35.5-9.7,35.5-21.6C592.5,61.7,576.6,52,557,52z"/>
		<text transform="matrix(1 0 0 1 456.5 80.1221)" class="st6 st7">IBM Cloud DC 1</text>
	</g>
</g>
<g id="DCa">
</g>
<g id="bottom_explanation">
	<g>
		<text transform="matrix(1 0 0 1 374.5 351)" class="st6 st7">Hybrid Cloud Services</text>
		<g>
			<path class="st10" d="M357.4,347.6v-7.4c0-1.8-1.4-3.2-3-3.2h-4v-9.5h6.5c4.8,0,8.6,4.1,8.6,9.1v14.4c0,5-3.9,9.1-8.6,9.1h-6.5
				v-9.2h4C356,350.8,357.4,349.3,357.4,347.6z"/>
			<path class="st11" d="M352.7,338.8h-3.9v-11.3h-6.1c-4.5,0-8.2,4.1-8.2,9.1v14.4c0,5,3.7,9.1,8.2,9.1h6.1v-10.6h3.9
				c1.2,0,2.2-1.1,2.2-2.5v-5.7C354.9,339.9,353.9,338.8,352.7,338.8z"/>
		</g>
	</g>
</g>
<g id="Hybrid_cloud_services">
	<g>
		<g>
			<path class="st5" d="M320,227c-7.9,0-15.2,1.6-21.2,4.3c-2.2-15.9-17.1-28.3-35.2-28.3c-18.6,0-33.9,13-35.4,29.7
				c-1.6-0.6-3.3-0.8-5.1-0.8c-9.5,0-17.2,8.6-17.2,19.2c0,10.6,7.7,19.2,17.2,19.2c2.1,0,4.1-0.4,5.9-1.2h79.3
				c3.6,0.8,7.5,1.2,11.6,1.2c19.6,0,35.5-9.7,35.5-21.6C355.5,236.7,339.6,227,320,227z"/>
			<text transform="matrix(1 0 0 1 219.5 255.1221)" class="st6 st7">Data Center B</text>
		</g>
		<g>
			<path class="st10" d="M365.8,252.5v-9.8c0-2.3-1.8-4.2-4-4.2h-5.2V226h8.6c6.3,0,11.4,5.4,11.4,12v19c0,6.6-5.1,12-11.4,12h-8.6
				v-12.2h5.2C363.9,256.8,365.8,254.9,365.8,252.5z"/>
			<path class="st11" d="M359.6,241h-5.2v-15h-8.1c-5.9,0-10.8,5.4-10.8,12v19c0,6.6,4.9,12,10.8,12h8.1v-14h5.2
				c1.6,0,2.9-1.5,2.9-3.3v-7.5C362.5,242.5,361.2,241,359.6,241z"/>
		</g>
	</g>
	<g>
		<g>
			<path class="st5" d="M318,57c-7.9,0-15.2,1.6-21.2,4.3C294.6,45.3,279.7,33,261.6,33c-18.6,0-33.9,13-35.4,29.7
				c-1.6-0.6-3.3-0.8-5.1-0.8c-9.5,0-17.2,8.6-17.2,19.2c0,10.6,7.7,19.2,17.2,19.2c2.1,0,4.1-0.4,5.9-1.2h79.3
				c3.6,0.8,7.5,1.2,11.6,1.2c19.6,0,35.5-9.7,35.5-21.6C353.5,66.7,337.6,57,318,57z"/>
			<text transform="matrix(1 0 0 1 217.5 85.1221)" class="st6 st7">Data Center A</text>
		</g>
		<g>
			<path class="st10" d="M363.8,82.5v-9.8c0-2.3-1.8-4.2-4-4.2h-5.2V56h8.6c6.3,0,11.4,5.4,11.4,12v19c0,6.6-5.1,12-11.4,12h-8.6
				V86.8h5.2C361.9,86.8,363.8,84.9,363.8,82.5z"/>
			<path class="st11" d="M357.6,71h-5.2V56h-8.1c-5.9,0-10.8,5.4-10.8,12v19c0,6.6,4.9,12,10.8,12h8.1V85h5.2c1.6,0,2.9-1.5,2.9-3.3
				v-7.5C360.5,72.5,359.2,71,357.6,71z"/>
		</g>
	</g>
</g>
</svg>
