<?xml version="1.0" encoding="utf-8"?>
<!-- Generator: Adobe Illustrator 22.0.0, SVG Export Plug-In . SVG Version: 6.00 Build 0)  -->
<svg version="1.1" xmlns="http://www.w3.org/2000/svg" xmlns:xlink="http://www.w3.org/1999/xlink" x="0px" y="0px"
	 viewBox="0 0 1127 768" style="enable-background:new 0 0 1127 768;" xml:space="preserve">
<style type="text/css">
	.st0{opacity:0.19;fill:#C1272D;}
	.st1{opacity:0.29;fill:#F7931E;}
	.st2{fill:none;stroke:#F7931E;stroke-width:3;stroke-miterlimit:10;stroke-dasharray:8;}
	.st3{fill:#4D4D4D;}
	.st4{opacity:0.32;}
	.st5{fill:#92C13F;}
	.st6{fill:none;stroke:#39B54A;stroke-width:3;stroke-miterlimit:10;}
	.st7{fill:none;stroke:#39B54A;stroke-width:3;stroke-miterlimit:10;stroke-dasharray:7.9512,7.9512;}
	.st8{fill:none;stroke:#39B54A;stroke-width:3;stroke-miterlimit:10;stroke-dasharray:7.9701,7.9701;}
	.st9{font-family:'IBMPlexSans';}
	.st10{font-size:18px;}
	.st11{opacity:0.24;fill:#999999;}
	.st12{fill:#666666;}
	.st13{fill:#FFFFFF;}
	.st14{fill:#7AC943;}
	.st15{fill:#7AC943;stroke:#FFFFFF;stroke-width:3;stroke-miterlimit:10;}
	.st16{font-family:'IBMPlexSans-Bold';}
	.st17{font-size:21px;}
	.st18{fill:#29ABE2;}
	.st19{fill:#29ABE2;stroke:#FFFFFF;stroke-width:3;stroke-miterlimit:10;}
	.st20{fill:none;stroke:#FFFFFF;stroke-width:2;stroke-miterlimit:10;}
	.st21{fill:none;stroke:#C1272D;stroke-width:3;stroke-miterlimit:10;stroke-dasharray:8;}
	.st22{fill:#FFFFFF;stroke:#FFFFFF;stroke-width:2;stroke-miterlimit:10;}
	.st23{fill:#2E3192;}
	.st24{fill:#2E3192;stroke:#FFFFFF;stroke-width:2;stroke-miterlimit:10;}
	.st25{fill:none;stroke:#FFFFFF;stroke-width:2;stroke-miterlimit:10;stroke-dasharray:4.2613,4.2613;}
	.st26{fill:none;stroke:#FFFFFF;stroke-width:4;stroke-miterlimit:10;}
	.st27{font-size:14px;}
	.st28{fill:none;stroke:#FFFFFF;stroke-miterlimit:10;}
	.st29{fill:#FFFFFF;stroke:#FFFFFF;stroke-miterlimit:10;}
	.st30{fill:#39924A;}
	.st31{fill:none;stroke:#FFFFFF;stroke-width:3;stroke-miterlimit:10;}
	.st32{fill:none;stroke:#C1272D;stroke-width:2;stroke-miterlimit:10;}
	.st33{fill:none;stroke:#4D4D4D;stroke-width:6;stroke-miterlimit:10;}
	.st34{fill:none;stroke:#666666;stroke-width:4;stroke-miterlimit:10;}
	.st35{fill:none;stroke:#999999;stroke-width:3;stroke-miterlimit:10;}
	.st36{fill:none;stroke:#999999;stroke-width:3;stroke-miterlimit:10;stroke-dasharray:8.0127,8.0127;}
	.st37{fill:none;stroke:#999999;stroke-width:3;stroke-miterlimit:10;stroke-dasharray:8.2586,8.2586;}
</style>
<g id="Layer_1">
	<rect x="443" y="193" class="st0" width="641" height="145"/>
	<rect x="444" y="371.5" class="st1" width="640.5" height="85"/>
	<rect x="444" y="371" class="st2" width="641" height="86"/>
	<g>
		<path class="st3" d="M378,123h-8v3h8V123L378,123z M362,123h-8v3h8V123L362,123z M346,123h-8v3h8V123L346,123z M330,123h-8v3h8
			V123L330,123z M314,123h-8v3h8V123L314,123z M298,123h-8v3h8V123L298,123z M282,123h-8v3h8V123L282,123z M266,123h-8v3h8V123
			L266,123z M250,123h-8v3h8V123L250,123z M234,123h-8v3h8V123L234,123z M218,123h-8v3h8V123L218,123z M202,123h-8v3h8V123L202,123z
			 M186,123h-8v3h8V123L186,123z M170,123h-8v3h8V123L170,123z M154,123h-8v3h8V123L154,123z M138,123h-8v3h8V123L138,123z M122,123
			h-8v3h8V123L122,123z M106,123h-8v3h8V123L106,123z M90,123h-8v3h8V123L90,123z M74,123h-8v3h8V123L74,123z M58,123h-8v3h8V123
			L58,123z M42,123h-8v3h8V123L42,123z M26,123h-8v3h8V123L26,123z M13,123h-3v8h3V123L13,123z M13,139h-3v8h3V139L13,139z M13,155
			h-3v8h3V155L13,155z M13,171h-3v8h3V171L13,171z M13,187h-3v8h3V187L13,187z M13,203h-3v8h3V203L13,203z M13,219h-3v8h3V219
			L13,219z M13,235h-3v8h3V235L13,235z M13,251h-3v8h3V251L13,251z M13,267h-3v8h3V267L13,267z M13,283h-3v8h3V283L13,283z M13,299
			h-3v8h3V299L13,299z M13,315h-3v8h3V315L13,315z M13,331h-3v8h3V331L13,331z M13,347h-3v8h3V347L13,347z M13,363h-3v8h3V363
			L13,363z M13,379h-3v8h3V379L13,379z M13,395h-3v8h3V395L13,395z M13,411h-3v8h3V411L13,411z M13,427h-3v8h3V427L13,427z M13,443
			h-3v8h3V443L13,443z M13,459h-3v8h3V459L13,459z M13,475h-3v8h3V475L13,475z M13,491h-3v8h3V491L13,491z M13,507h-3v8h3V507
			L13,507z M13,523h-3v8h3V523L13,523z M13,539h-3v8h3V539L13,539z M13,555h-3v8h3V555L13,555z M13,571h-3v8h3V571L13,571z M13,587
			h-3v8h3V587L13,587z M13,603h-3v8h3V603L13,603z M13,619h-3v8h3V619L13,619z M13,635h-3v8h3V635L13,635z M13,651h-3v8h3V651
			L13,651z M13,667h-3v8h3V667L13,667z M13,683h-3v8h3V683L13,683z M13,699h-3v8h3V699L13,699z M13,715h-3v8h3V715L13,715z M13,731
			h-3v8h3V731L13,731z M13,747h-3v8h3V747L13,747z M25,753h-8v3h8V753L25,753z M41,753h-8v3h8V753L41,753z M57,753h-8v3h8V753
			L57,753z M73,753h-8v3h8V753L73,753z M89,753h-8v3h8V753L89,753z M105,753h-8v3h8V753L105,753z M121,753h-8v3h8V753L121,753z
			 M137,753h-8v3h8V753L137,753z M153,753h-8v3h8V753L153,753z M169,753h-8v3h8V753L169,753z M185,753h-8v3h8V753L185,753z M201,753
			h-8v3h8V753L201,753z M217,753h-8v3h8V753L217,753z M233,753h-8v3h8V753L233,753z M249,753h-8v3h8V753L249,753z M265,753h-8v3h8
			V753L265,753z M281,753h-8v3h8V753L281,753z M297,753h-8v3h8V753L297,753z M313,753h-8v3h8V753L313,753z M329,753h-8v3h8V753
			L329,753z M345,753h-8v3h8V753L345,753z M361,753h-8v3h8V753L361,753z M377,753h-8v3h8V753L377,753z M393,753h-8v3h8V753L393,753z
			 M394,741h-3v8h3V741L394,741z M394,725h-3v8h3V725L394,725z M394,709h-3v8h3V709L394,709z M394,693h-3v8h3V693L394,693z M394,677
			h-3v8h3V677L394,677z M394,661h-3v8h3V661L394,661z M394,645h-3v8h3V645L394,645z M394,629h-3v8h3V629L394,629z M394,613h-3v8h3
			V613L394,613z M394,597h-3v8h3V597L394,597z M394,581h-3v8h3V581L394,581z M394,565h-3v8h3V565L394,565z M394,549h-3v8h3V549
			L394,549z M394,533h-3v8h3V533L394,533z M394,517h-3v8h3V517L394,517z M394,501h-3v8h3V501L394,501z M394,485h-3v8h3V485L394,485z
			 M394,469h-3v8h3V469L394,469z M394,453h-3v8h3V453L394,453z M394,437h-3v8h3V437L394,437z M394,421h-3v8h3V421L394,421z M394,405
			h-3v8h3V405L394,405z M394,389h-3v8h3V389L394,389z M394,373h-3v8h3V373L394,373z M394,357h-3v8h3V357L394,357z M394,341h-3v8h3
			V341L394,341z M394,325h-3v8h3V325L394,325z M394,309h-3v8h3V309L394,309z M394,293h-3v8h3V293L394,293z M394,277h-3v8h3V277
			L394,277z M394,261h-3v8h3V261L394,261z M394,245h-3v8h3V245L394,245z M394,229h-3v8h3V229L394,229z M394,213h-3v8h3V213L394,213z
			 M394,197h-3v8h3V197L394,197z M394,181h-3v8h3V181L394,181z M394,165h-3v8h3V165L394,165z M394,149h-3v8h3V149L394,149z M394,133
			h-3v8h3V133L394,133z M394,123h-8v3h8V123L394,123z"/>
	</g>
	<g>
		<path class="st3" d="M1108,123h-8v3h8V123L1108,123z M1092,123h-8v3h8V123L1092,123z M1076,123h-8v3h8V123L1076,123z M1060,123h-8
			v3h8V123L1060,123z M1044,123h-8v3h8V123L1044,123z M1028,123h-8v3h8V123L1028,123z M1012,123h-8v3h8V123L1012,123z M996,123h-8v3
			h8V123L996,123z M980,123h-8v3h8V123L980,123z M964,123h-8v3h8V123L964,123z M948,123h-8v3h8V123L948,123z M932,123h-8v3h8V123
			L932,123z M916,123h-8v3h8V123L916,123z M900,123h-8v3h8V123L900,123z M884,123h-8v3h8V123L884,123z M868,123h-8v3h8V123L868,123z
			 M852,123h-8v3h8V123L852,123z M836,123h-8v3h8V123L836,123z M820,123h-8v3h8V123L820,123z M804,123h-8v3h8V123L804,123z M788,123
			h-8v3h8V123L788,123z M772,123h-8v3h8V123L772,123z M756,123h-8v3h8V123L756,123z M740,123h-8v3h8V123L740,123z M724,123h-8v3h8
			V123L724,123z M708,123h-8v3h8V123L708,123z M692,123h-8v3h8V123L692,123z M676,123h-8v3h8V123L676,123z M660,123h-8v3h8V123
			L660,123z M644,123h-8v3h8V123L644,123z M628,123h-8v3h8V123L628,123z M612,123h-8v3h8V123L612,123z M596,123h-8v3h8V123L596,123z
			 M580,123h-8v3h8V123L580,123z M564,123h-8v3h8V123L564,123z M548,123h-8v3h8V123L548,123z M532,123h-8v3h8V123L532,123z M516,123
			h-8v3h8V123L516,123z M500,123h-8v3h8V123L500,123z M484,123h-8v3h8V123L484,123z M468,123h-8v3h8V123L468,123z M452,123h-8v3h8
			V123L452,123z M436,123h-8v3h8V123L436,123z M424,124h-3v8h3V124L424,124z M424,140h-3v8h3V140L424,140z M424,156h-3v8h3V156
			L424,156z M424,172h-3v8h3V172L424,172z M424,188h-3v8h3V188L424,188z M424,204h-3v8h3V204L424,204z M424,220h-3v8h3V220L424,220z
			 M424,236h-3v8h3V236L424,236z M424,252h-3v8h3V252L424,252z M424,268h-3v8h3V268L424,268z M424,284h-3v8h3V284L424,284z M424,300
			h-3v8h3V300L424,300z M424,316h-3v8h3V316L424,316z M424,332h-3v8h3V332L424,332z M424,348h-3v8h3V348L424,348z M424,364h-3v8h3
			V364L424,364z M424,380h-3v8h3V380L424,380z M424,396h-3v8h3V396L424,396z M424,412h-3v8h3V412L424,412z M424,428h-3v8h3V428
			L424,428z M424,444h-3v8h3V444L424,444z M424,460h-3v8h3V460L424,460z M424,476h-3v8h3V476L424,476z M424,492h-3v8h3V492L424,492z
			 M424,508h-3v8h3V508L424,508z M424,524h-3v8h3V524L424,524z M424,540h-3v8h3V540L424,540z M424,556h-3v8h3V556L424,556z M424,572
			h-3v8h3V572L424,572z M424,588h-3v8h3V588L424,588z M424,604h-3v8h3V604L424,604z M424,620h-3v8h3V620L424,620z M424,636h-3v8h3
			V636L424,636z M424,652h-3v8h3V652L424,652z M424,668h-3v8h3V668L424,668z M424,684h-3v8h3V684L424,684z M424,700h-3v8h3V700
			L424,700z M424,716h-3v8h3V716L424,716z M424,732h-3v8h3V732L424,732z M424,748h-3v8h3V748L424,748z M437,753h-8v3h8V753L437,753z
			 M453,753h-8v3h8V753L453,753z M469,753h-8v3h8V753L469,753z M485,753h-8v3h8V753L485,753z M501,753h-8v3h8V753L501,753z M517,753
			h-8v3h8V753L517,753z M533,753h-8v3h8V753L533,753z M549,753h-8v3h8V753L549,753z M565,753h-8v3h8V753L565,753z M581,753h-8v3h8
			V753L581,753z M597,753h-8v3h8V753L597,753z M613,753h-8v3h8V753L613,753z M629,753h-8v3h8V753L629,753z M645,753h-8v3h8V753
			L645,753z M661,753h-8v3h8V753L661,753z M677,753h-8v3h8V753L677,753z M693,753h-8v3h8V753L693,753z M709,753h-8v3h8V753L709,753z
			 M725,753h-8v3h8V753L725,753z M741,753h-8v3h8V753L741,753z M757,753h-8v3h8V753L757,753z M773,753h-8v3h8V753L773,753z M789,753
			h-8v3h8V753L789,753z M805,753h-8v3h8V753L805,753z M821,753h-8v3h8V753L821,753z M837,753h-8v3h8V753L837,753z M853,753h-8v3h8
			V753L853,753z M869,753h-8v3h8V753L869,753z M885,753h-8v3h8V753L885,753z M901,753h-8v3h8V753L901,753z M917,753h-8v3h8V753
			L917,753z M933,753h-8v3h8V753L933,753z M949,753h-8v3h8V753L949,753z M965,753h-8v3h8V753L965,753z M981,753h-8v3h8V753L981,753z
			 M997,753h-8v3h8V753L997,753z M1013,753h-8v3h8V753L1013,753z M1029,753h-8v3h8V753L1029,753z M1045,753h-8v3h8V753L1045,753z
			 M1061,753h-8v3h8V753L1061,753z M1077,753h-8v3h8V753L1077,753z M1093,753h-8v3h8V753L1093,753z M1108,753h-7v3h7V753L1108,753z
			 M1108,739h-3v8h3V739L1108,739z M1108,723h-3v8h3V723L1108,723z M1108,707h-3v8h3V707L1108,707z M1108,691h-3v8h3V691L1108,691z
			 M1108,675h-3v8h3V675L1108,675z M1108,659h-3v8h3V659L1108,659z M1108,643h-3v8h3V643L1108,643z M1108,627h-3v8h3V627L1108,627z
			 M1108,611h-3v8h3V611L1108,611z M1108,595h-3v8h3V595L1108,595z M1108,579h-3v8h3V579L1108,579z M1108,563h-3v8h3V563L1108,563z
			 M1108,547h-3v8h3V547L1108,547z M1108,531h-3v8h3V531L1108,531z M1108,515h-3v8h3V515L1108,515z M1108,499h-3v8h3V499L1108,499z
			 M1108,483h-3v8h3V483L1108,483z M1108,467h-3v8h3V467L1108,467z M1108,451h-3v8h3V451L1108,451z M1108,435h-3v8h3V435L1108,435z
			 M1108,419h-3v8h3V419L1108,419z M1108,403h-3v8h3V403L1108,403z M1108,387h-3v8h3V387L1108,387z M1108,371h-3v8h3V371L1108,371z
			 M1108,355h-3v8h3V355L1108,355z M1108,339h-3v8h3V339L1108,339z M1108,323h-3v8h3V323L1108,323z M1108,307h-3v8h3V307L1108,307z
			 M1108,291h-3v8h3V291L1108,291z M1108,275h-3v8h3V275L1108,275z M1108,259h-3v8h3V259L1108,259z M1108,243h-3v8h3V243L1108,243z
			 M1108,227h-3v8h3V227L1108,227z M1108,211h-3v8h3V211L1108,211z M1108,195h-3v8h3V195L1108,195z M1108,179h-3v8h3V179L1108,179z
			 M1108,163h-3v8h3V163L1108,163z M1108,147h-3v8h3V147L1108,147z M1108,131h-3v8h3V131L1108,131z"/>
	</g>
	<g class="st4">
		<rect x="38" y="193" class="st5" width="335" height="542"/>
	</g>
	<g>
		<g>
			<polyline class="st6" points="372.5,730.5 372.5,734.5 368.5,734.5 			"/>
			<line class="st7" x1="360.5" y1="734.5" x2="46.5" y2="734.5"/>
			<polyline class="st6" points="42.5,734.5 38.5,734.5 38.5,730.5 			"/>
			<line class="st8" x1="38.5" y1="722.5" x2="38.5" y2="200.5"/>
			<polyline class="st6" points="38.5,196.5 38.5,192.5 42.5,192.5 			"/>
			<line class="st7" x1="50.5" y1="192.5" x2="364.5" y2="192.5"/>
			<polyline class="st6" points="368.5,192.5 372.5,192.5 372.5,196.5 			"/>
			<line class="st8" x1="372.5" y1="204.5" x2="372.5" y2="726.5"/>
		</g>
	</g>
	<text transform="matrix(1 0 0 1 53 233)" class="st9 st10">Desktop and RDSH Networks</text>
	<rect x="443.5" y="487" class="st11" width="641" height="246.5"/>
	<text transform="matrix(1 0 0 1 853 516)" class="st9 st10">Management Networks</text>
	<text transform="matrix(1 0 0 1 853 407)" class="st9 st10">Internal Facing DMZ</text>
	<text transform="matrix(1 0 0 1 849 222)" class="st9 st10">External Facing DMZ</text>
	<g>
		<rect x="481" y="524" class="st12" width="306" height="34"/>
		<text transform="matrix(1 0 0 1 554 547)" class="st13 st9 st10">NSX Load Balancer</text>
	</g>
	<g>
		<rect x="471" y="212" class="st12" width="306" height="34"/>
		<text transform="matrix(1 0 0 1 544 235)" class="st13 st9 st10">NSX Load Balancer</text>
	</g>
	<text transform="matrix(1 0 0 1 51 64)" class="st9 st10">NSX Edge Services Gateway - Desktops</text>
	<text transform="matrix(1 0 0 1 489 64)" class="st9 st10">NSX Edge Services Gateway - Management</text>
	<g>
		<circle class="st14" cx="131" cy="640" r="44"/>
		<rect x="107" y="618" class="st15" width="47" height="47"/>
		<text transform="matrix(1 0 0 1 115 649)" class="st13 st16 st17">VM</text>
	</g>
	<g>
		<circle class="st14" cx="282" cy="641" r="44"/>
		<rect x="258" y="619" class="st15" width="47" height="47"/>
		<text transform="matrix(1 0 0 1 266 650)" class="st13 st16 st17">VM</text>
	</g>
	<g>
		<circle class="st18" cx="873" cy="636" r="44"/>
		<rect x="849" y="612" class="st19" width="49" height="49"/>
		<g>
			<g>
				<line class="st20" x1="858.5" y1="623.5" x2="886.2" y2="623.5"/>
				<g>
					<polygon class="st13" points="882.2,626.9 885.6,623.5 882.2,620.1 885.1,620.1 888.5,623.5 885.1,626.9 					"/>
				</g>
			</g>
		</g>
		<g>
			<g>
				<line class="st20" x1="888" y1="634" x2="860.3" y2="634"/>
				<g>
					<polygon class="st13" points="864.3,630.6 860.9,634 864.3,637.4 861.4,637.4 858,634 861.4,630.6 					"/>
				</g>
			</g>
		</g>
		<g>
			<g>
				<line class="st20" x1="888" y1="652" x2="860.3" y2="652"/>
				<g>
					<polygon class="st13" points="864.3,648.6 860.9,652 864.3,655.4 861.4,655.4 858,652 861.4,648.6 					"/>
				</g>
			</g>
		</g>
		<g>
			<g>
				<line class="st20" x1="858" y1="643.5" x2="885.7" y2="643.5"/>
				<g>
					<polygon class="st13" points="881.7,646.9 885.1,643.5 881.7,640.1 884.6,640.1 888,643.5 884.6,646.9 					"/>
				</g>
			</g>
		</g>
	</g>
	<rect x="443" y="193" class="st21" width="641" height="145"/>
	<g>
		<circle class="st18" cx="550" cy="364" r="44"/>
		<circle class="st20" cx="549.5" cy="364.5" r="30.5"/>
		<circle class="st20" cx="539.5" cy="355.5" r="4.5"/>
		<circle class="st22" cx="543" cy="382" r="4"/>
		<circle class="st22" cx="561" cy="376" r="4"/>
		<circle class="st22" cx="567" cy="358" r="4"/>
		<line class="st20" x1="539.9" y1="364.1" x2="542.1" y2="374.9"/>
		<line class="st20" x1="546" y1="362" x2="554" y2="369"/>
		<line class="st20" x1="548" y1="354" x2="559" y2="356"/>
	</g>
	<g>
		<circle class="st23" cx="185" cy="123" r="44"/>
		<rect x="157" y="98" class="st24" width="55" height="51"/>
		<g>
			<g>
				<line class="st20" x1="205" y1="104" x2="203.6" y2="105.4"/>
				<line class="st25" x1="200.6" y1="108.4" x2="165.9" y2="143.1"/>
				<line class="st20" x1="164.4" y1="144.6" x2="163" y2="146"/>
			</g>
		</g>
		<g>
			<g>
				<line class="st26" x1="166.7" y1="107.7" x2="201.3" y2="142.3"/>
				<g>
					<polygon class="st13" points="167.6,118.2 167.6,108.6 177.2,108.6 173.1,104.5 163.5,104.5 163.5,114.1 					"/>
				</g>
				<g>
					<polygon class="st13" points="190.8,141.4 200.4,141.4 200.4,131.8 204.5,135.9 204.5,145.5 194.9,145.5 					"/>
				</g>
			</g>
		</g>
		<text transform="matrix(1 0 0 1 163.6665 129.3335)" class="st13 st9 st27">P</text>
		<text transform="matrix(1 0 0 1 196.6665 129.3335)" class="st13 st9 st27">V</text>
	</g>
	<g>
		<circle class="st18" cx="715" cy="361" r="44"/>
		<circle class="st20" cx="714.5" cy="361.5" r="30.5"/>
		<circle class="st20" cx="704.5" cy="352.5" r="4.5"/>
		<circle class="st22" cx="708" cy="379" r="4"/>
		<circle class="st22" cx="726" cy="373" r="4"/>
		<circle class="st22" cx="732" cy="355" r="4"/>
		<line class="st20" x1="704.9" y1="361.1" x2="707.1" y2="371.9"/>
		<line class="st20" x1="711" y1="359" x2="719" y2="366"/>
		<line class="st20" x1="713" y1="351" x2="724" y2="353"/>
	</g>
	<g>
		<circle class="st18" cx="1008" cy="638" r="44"/>
		<path class="st20" d="M1031.3,654h-44.7c-3.1,0-5.7-2.5-5.7-5.7v-28.7c0-3.1,2.5-5.7,5.7-5.7h44.7c3.1,0,5.7,2.5,5.7,5.7v28.7
			C1037,651.5,1034.4,654,1031.3,654z"/>
		<line class="st20" x1="981" y1="647" x2="1037" y2="647"/>
		<rect x="1007.5" y="625" class="st28" width="13" height="8.5"/>
		<rect x="998.5" y="630" class="st28" width="13" height="8.5"/>
		<path class="st29" d="M1009.5,651.5L1009.5,651.5c-0.5,0-1-0.5-1-1l0,0c0-0.5,0.5-1,1-1l0,0c0.5,0,1,0.5,1,1l0,0
			C1010.5,651,1010,651.5,1009.5,651.5z"/>
		<rect x="1008" y="654" class="st13" width="3" height="7"/>
		<rect x="999" y="661" class="st13" width="21" height="3"/>
	</g>
	<g>
		<circle class="st30" cx="551" cy="633" r="44"/>
		<rect x="539" y="611" class="st31" width="23.5" height="47"/>
		<rect x="563" y="630.5" class="st31" width="11.5" height="27.5"/>
		<rect x="527" y="630.5" class="st31" width="11.5" height="27.5"/>
		<line class="st31" x1="542" y1="625.5" x2="558.5" y2="625.5"/>
		<line class="st31" x1="542" y1="632.5" x2="558.5" y2="632.5"/>
		<line class="st31" x1="542" y1="639.5" x2="558.5" y2="639.5"/>
		<line class="st31" x1="542" y1="646.5" x2="558.5" y2="646.5"/>
		<line class="st31" x1="542" y1="652.5" x2="558.5" y2="652.5"/>
		<line class="st31" x1="542" y1="618.5" x2="558.5" y2="618.5"/>
		<line class="st20" x1="565.5" y1="635.5" x2="572" y2="635.5"/>
		<line class="st20" x1="565.5" y1="639.5" x2="572" y2="639.5"/>
		<line class="st20" x1="565.5" y1="643.5" x2="572" y2="643.5"/>
		<line class="st20" x1="565.5" y1="647.5" x2="572" y2="647.5"/>
		<line class="st20" x1="565.5" y1="652.5" x2="572" y2="652.5"/>
		<line class="st20" x1="529.5" y1="635.5" x2="536" y2="635.5"/>
		<line class="st20" x1="529.5" y1="639.5" x2="536" y2="639.5"/>
		<line class="st20" x1="529.5" y1="643.5" x2="536" y2="643.5"/>
		<line class="st20" x1="529.5" y1="647.5" x2="536" y2="647.5"/>
		<line class="st20" x1="529.5" y1="652.5" x2="536" y2="652.5"/>
	</g>
	<g>
		<circle class="st30" cx="718" cy="632" r="44"/>
		<rect x="706" y="610" class="st31" width="23.5" height="47"/>
		<rect x="730" y="629.5" class="st31" width="11.5" height="27.5"/>
		<rect x="694" y="629.5" class="st31" width="11.5" height="27.5"/>
		<line class="st31" x1="709" y1="624.5" x2="725.5" y2="624.5"/>
		<line class="st31" x1="709" y1="631.5" x2="725.5" y2="631.5"/>
		<line class="st31" x1="709" y1="638.5" x2="725.5" y2="638.5"/>
		<line class="st31" x1="709" y1="645.5" x2="725.5" y2="645.5"/>
		<line class="st31" x1="709" y1="651.5" x2="725.5" y2="651.5"/>
		<line class="st31" x1="709" y1="617.5" x2="725.5" y2="617.5"/>
		<line class="st20" x1="732.5" y1="634.5" x2="739" y2="634.5"/>
		<line class="st20" x1="732.5" y1="638.5" x2="739" y2="638.5"/>
		<line class="st20" x1="732.5" y1="642.5" x2="739" y2="642.5"/>
		<line class="st20" x1="732.5" y1="646.5" x2="739" y2="646.5"/>
		<line class="st20" x1="732.5" y1="651.5" x2="739" y2="651.5"/>
		<line class="st20" x1="696.5" y1="634.5" x2="703" y2="634.5"/>
		<line class="st20" x1="696.5" y1="638.5" x2="703" y2="638.5"/>
		<line class="st20" x1="696.5" y1="642.5" x2="703" y2="642.5"/>
		<line class="st20" x1="696.5" y1="646.5" x2="703" y2="646.5"/>
		<line class="st20" x1="696.5" y1="651.5" x2="703" y2="651.5"/>
	</g>
	<g>
		<g>
			<path class="st32" d="M253.3,171h-34.5c-2.6,0-4.8-2.1-4.8-4.8v-31.5c0-2.6,2.1-4.8,4.8-4.8h34.5c2.6,0,4.8,2.1,4.8,4.8v31.5
				C258,168.9,255.9,171,253.3,171z"/>
			<line class="st32" x1="213.5" y1="140.5" x2="257.5" y2="140.5"/>
			<line class="st32" x1="213.5" y1="151.5" x2="257.5" y2="151.5"/>
			<line class="st32" x1="213.5" y1="161.5" x2="257.5" y2="161.5"/>
		</g>
		<line class="st32" x1="235.5" y1="140.5" x2="235.5" y2="151.5"/>
		<line class="st32" x1="235.5" y1="161.5" x2="235.5" y2="170.5"/>
		<line class="st32" x1="223.5" y1="129.5" x2="223.5" y2="140.5"/>
		<line class="st32" x1="246.5" y1="130.5" x2="246.5" y2="140.5"/>
		<line class="st32" x1="223.5" y1="151.5" x2="223.5" y2="161.5"/>
		<line class="st32" x1="246.5" y1="151.5" x2="246.5" y2="161.5"/>
	</g>
	<g>
		<circle class="st23" cx="577" cy="127" r="44"/>
		<rect x="549" y="102" class="st24" width="55" height="51"/>
		<g>
			<g>
				<line class="st20" x1="597" y1="108" x2="595.6" y2="109.4"/>
				<line class="st25" x1="592.6" y1="112.4" x2="557.9" y2="147.1"/>
				<line class="st20" x1="556.4" y1="148.6" x2="555" y2="150"/>
			</g>
		</g>
		<g>
			<g>
				<line class="st26" x1="558.7" y1="111.7" x2="593.3" y2="146.3"/>
				<g>
					<polygon class="st13" points="559.6,122.2 559.6,112.6 569.2,112.6 565.1,108.5 555.5,108.5 555.5,118.1 					"/>
				</g>
				<g>
					<polygon class="st13" points="582.8,145.4 592.4,145.4 592.4,135.8 596.5,139.9 596.5,149.5 586.9,149.5 					"/>
				</g>
			</g>
		</g>
		<text transform="matrix(1 0 0 1 555.6665 133.3335)" class="st13 st9 st27">P</text>
		<text transform="matrix(1 0 0 1 588.6665 133.3335)" class="st13 st9 st27">V</text>
	</g>
	<g>
		<g>
			<path class="st32" d="M645.3,175h-34.5c-2.6,0-4.8-2.1-4.8-4.8v-31.5c0-2.6,2.1-4.8,4.8-4.8h34.5c2.6,0,4.8,2.1,4.8,4.8v31.5
				C650,172.9,647.9,175,645.3,175z"/>
			<line class="st32" x1="605.5" y1="144.5" x2="649.5" y2="144.5"/>
			<line class="st32" x1="605.5" y1="155.5" x2="649.5" y2="155.5"/>
			<line class="st32" x1="605.5" y1="165.5" x2="649.5" y2="165.5"/>
		</g>
		<line class="st32" x1="627.5" y1="144.5" x2="627.5" y2="155.5"/>
		<line class="st32" x1="627.5" y1="165.5" x2="627.5" y2="174.5"/>
		<line class="st32" x1="615.5" y1="133.5" x2="615.5" y2="144.5"/>
		<line class="st32" x1="638.5" y1="134.5" x2="638.5" y2="144.5"/>
		<line class="st32" x1="615.5" y1="155.5" x2="615.5" y2="165.5"/>
		<line class="st32" x1="638.5" y1="155.5" x2="638.5" y2="165.5"/>
	</g>
	<g>
		<g>
			<line class="st33" x1="230.4" y1="98.5" x2="533.6" y2="98.5"/>
			<g>
				<polygon class="st3" points="242.3,108.7 232.1,98.5 242.3,88.3 233.7,88.3 223.5,98.5 233.7,108.7 				"/>
			</g>
			<g>
				<polygon class="st3" points="521.7,108.7 531.9,98.5 521.7,88.3 530.3,88.3 540.5,98.5 530.3,108.7 				"/>
			</g>
		</g>
	</g>
	<g>
		<g>
			<line class="st34" x1="550" y1="558" x2="550.9" y2="584.4"/>
			<g>
				<polygon class="st12" points="543.8,576.7 550.8,583.2 557.4,576.2 557.6,582 551,589 544,582.4 				"/>
			</g>
		</g>
	</g>
	<g>
		<g>
			<line class="st34" x1="549" y1="408" x2="549" y2="519.4"/>
			<g>
				<polygon class="st12" points="542.2,511.5 549,518.2 555.8,511.5 555.8,517.2 549,524 542.2,517.2 				"/>
			</g>
		</g>
	</g>
	<g>
		<g>
			<line class="st34" x1="547" y1="246" x2="547" y2="315.4"/>
			<g>
				<polygon class="st12" points="540.2,307.5 547,314.2 553.8,307.5 553.8,313.2 547,320 540.2,313.2 				"/>
			</g>
		</g>
	</g>
	<g>
		<g>
			<line class="st34" x1="714" y1="244" x2="714" y2="313.4"/>
			<g>
				<polygon class="st12" points="707.2,305.5 714,312.2 720.8,305.5 720.8,311.2 714,318 707.2,311.2 				"/>
			</g>
		</g>
	</g>
	<g>
		<g>
			<line class="st34" x1="715" y1="405" x2="715" y2="519.4"/>
			<g>
				<polygon class="st12" points="708.2,511.5 715,518.2 721.8,511.5 721.8,517.2 715,524 708.2,517.2 				"/>
			</g>
		</g>
	</g>
	<g>
		<g>
			<line class="st34" x1="717" y1="558" x2="717.9" y2="584.4"/>
			<g>
				<polygon class="st12" points="710.8,576.7 717.8,583.2 724.4,576.2 724.6,582 718,589 711,582.4 				"/>
			</g>
		</g>
	</g>
	<g>
		<g>
			<polyline class="st35" points="1085,730 1085,734 1081,734 			"/>
			<line class="st36" x1="1073" y1="734" x2="452" y2="734"/>
			<polyline class="st35" points="448,734 444,734 444,730 			"/>
			<line class="st37" x1="444" y1="721.7" x2="444" y2="494.6"/>
			<polyline class="st35" points="444,490.5 444,486.5 448,486.5 			"/>
			<line class="st36" x1="456" y1="486.5" x2="1077" y2="486.5"/>
			<polyline class="st35" points="1081,486.5 1085,486.5 1085,490.5 			"/>
			<line class="st37" x1="1085" y1="498.8" x2="1085" y2="725.9"/>
		</g>
	</g>
	<g>
		<g>
			<line class="st34" x1="519" y1="395" x2="151" y2="593.8"/>
			<g>
				<polygon class="st12" points="154.8,584.1 152.1,593.3 161.3,596 156.2,598.7 147,596 149.7,586.8 				"/>
			</g>
		</g>
	</g>
	<g>
		<g>
			<line class="st34" x1="519" y1="395" x2="308.3" y2="599.8"/>
			<g>
				<polygon class="st12" points="309.3,589.4 309.1,599 318.7,599.1 314.6,603.1 305,603 305.1,593.4 				"/>
			</g>
		</g>
	</g>
	<line class="st34" x1="685" y1="390" x2="158" y2="590"/>
	<line class="st34" x1="684" y1="392" x2="311" y2="597"/>
</g>
<g id="Layer_2">
	<text transform="matrix(1 0 0 1 99 699)"><tspan x="0" y="0" class="st9 st10">Horizon</tspan><tspan x="0" y="21.6" class="st9 st10">  Agent</tspan></text>
	<text transform="matrix(1 0 0 1 504 698)"><tspan x="0" y="0" class="st9 st10">Connection</tspan><tspan x="0" y="21.6" class="st9 st10">Server 1</tspan></text>
	<text transform="matrix(1 0 0 1 456 290)"><tspan x="0" y="0" class="st9 st27">Unified</tspan><tspan x="0" y="16.8" class="st9 st27">Access</tspan><tspan x="0" y="33.6" class="st9 st27">Gateway 1</tspan></text>
	<text transform="matrix(1 0 0 1 611 290)"><tspan x="0" y="0" class="st9 st27">Unified</tspan><tspan x="0" y="16.8" class="st9 st27">Access</tspan><tspan x="0" y="33.6" class="st9 st27">Gateway 2</tspan></text>
	<text transform="matrix(1 0 0 1 671 698)"><tspan x="0" y="0" class="st9 st10">Connection</tspan><tspan x="0" y="21.6" class="st9 st10">Server 2</tspan></text>
	<text transform="matrix(1 0 0 1 843 698)"><tspan x="0" y="0" class="st9 st10">NSX</tspan><tspan x="0" y="21.6" class="st9 st10">Manager</tspan></text>
	<text transform="matrix(1 0 0 1 977 699)"><tspan x="0" y="0" class="st9 st10">vCenter</tspan><tspan x="0" y="21.6" class="st9 st10">Server</tspan></text>
	<text transform="matrix(1 0 0 1 252 699)"><tspan x="0" y="0" class="st9 st10">Horizon</tspan><tspan x="0" y="21.6" class="st9 st10">  Agent</tspan></text>
</g>
</svg>
