<?xml version="1.0" encoding="utf-8"?>
<!-- Generator: Adobe Illustrator 22.0.0, SVG Export Plug-In . SVG Version: 6.00 Build 0)  -->
<svg version="1.1" id="Layer_1" xmlns="http://www.w3.org/2000/svg" xmlns:xlink="http://www.w3.org/1999/xlink" x="0px" y="0px"
	 viewBox="0 0 223.7 509.7" style="enable-background:new 0 0 223.7 509.7;" xml:space="preserve">
<style type="text/css">
	.st0{fill:#E6E6E6;}
	.st1{fill:#B3B3B3;}
	.st2{fill:#84C841;}
	.st3{fill:#29ABE2;}
	.st4{fill:#FFFFFF;}
	.st5{font-family:'IBMPlexSans';}
	.st6{font-size:14px;}
	.st7{fill:#0071BC;}
	.st8{fill:#00DBFF;}
	.st9{fill:none;stroke:#29ABE2;stroke-miterlimit:10;}
	.st10{fill:none;stroke:#29ABE2;stroke-miterlimit:10;stroke-dasharray:4.0196,4.0196;}
	.st11{fill:none;stroke:#29ABE2;stroke-miterlimit:10;stroke-dasharray:3.9492,3.9492;}
</style>
<rect y="0.3" class="st0" width="224" height="192"/>
<rect y="197.3" class="st1" width="224" height="312"/>
<g>
	<rect x="15" y="46.3" class="st2" width="194" height="32"/>
</g>
<g>
	<rect x="15" y="91.3" class="st2" width="194" height="32"/>
</g>
<g>
	<rect x="15" y="136.3" class="st3" width="194" height="47"/>
</g>
<g>
	<rect x="15" y="206.3" class="st3" width="194" height="31"/>
</g>
<text transform="matrix(1 0 0 1 64.2984 65.9998)" class="st4 st5 st6">Desktop Pools</text>
<text transform="matrix(1 0 0 1 54.9673 112.9998)" class="st4 st5 st6">Application Pools</text>
<g>
	<rect x="15" y="251.3" class="st2" width="194" height="32"/>
</g>
<text transform="matrix(1 0 0 1 48.9688 272.9998)" class="st4 st5 st6">Connection Servers</text>
<g>
	<rect x="15" y="297.3" class="st2" width="194" height="32"/>
</g>
<text transform="matrix(1 0 0 1 39.6934 318.9998)" class="st4 st5 st6">App Volumes Manager</text>
<text transform="matrix(1 0 0 1 83.0091 226.9998)" class="st4 st5 st6">vCenter</text>
<g>
	<rect x="15" y="378.3" class="st7" width="194" height="31"/>
</g>
<text transform="matrix(1 0 0 1 70.5493 398.9998)" class="st4 st5 st6">DB Server(s)</text>
<g>
	<rect x="15" y="338.3" class="st8" width="194" height="31"/>
</g>
<text transform="matrix(1 0 0 1 34.0445 358.9998)" class="st4 st5 st6">Unified Access Gateways</text>
<text transform="matrix(1 0 0 1 59.9795 155.9998)" class="st4 st5 st6">vSphere Cluster</text>
<text transform="matrix(1 0 0 1 75.6101 176.9998)" class="st4 st5 st6">with vSAN</text>
<g>
	<rect x="15" y="418.3" class="st3" width="194" height="47"/>
</g>
<text transform="matrix(1 0 0 1 59.9795 437.9998)" class="st4 st5 st6">vSphere Cluster</text>
<text transform="matrix(1 0 0 1 53.7725 458.9998)" class="st4 st5 st6">with NFS Storage</text>
<text transform="matrix(1 0 0 1 52.1394 28.3333)" class="st5 st6">Desktop Workload</text>
<text transform="matrix(1 0 0 1 44.6565 493.0003)" class="st5 st6">Management Cluster</text>
<g>
	<g>
		<polyline class="st9" points="215,242.3 215,244.3 213,244.3 		"/>
		<line class="st10" x1="209" y1="244.3" x2="10" y2="244.3"/>
		<polyline class="st9" points="8,244.3 6,244.3 6,242.3 		"/>
		<line class="st11" x1="6" y1="238.4" x2="6" y2="11.3"/>
		<polyline class="st9" points="6,9.3 6,7.3 8,7.3 		"/>
		<line class="st10" x1="12" y1="7.3" x2="211" y2="7.3"/>
		<polyline class="st9" points="213,7.3 215,7.3 215,9.3 		"/>
		<line class="st11" x1="215" y1="13.3" x2="215" y2="240.4"/>
	</g>
</g>
</svg>
