<?xml version="1.0" encoding="utf-8"?>
<!-- Generator: Adobe Illustrator 22.0.0, SVG Export Plug-In . SVG Version: 6.00 Build 0)  -->
<svg version="1.1" id="Layer_1" xmlns="http://www.w3.org/2000/svg" xmlns:xlink="http://www.w3.org/1999/xlink" x="0px" y="0px"
	 viewBox="0 0 592.7 523.7" style="enable-background:new 0 0 592.7 523.7;" xml:space="preserve">
<style type="text/css">
	.st0{fill:#E6E6E6;}
	.st1{fill:#B3B3B3;}
	.st2{fill:#84C841;}
	.st3{fill:#29ABE2;}
	.st4{fill:#FFFFFF;}
	.st5{font-family:'IBMPlexSans';}
	.st6{font-size:14px;}
	.st7{fill:#0071BC;}
	.st8{fill:#00DBFF;}
	.st9{fill:none;stroke:#29ABE2;stroke-miterlimit:10;}
	.st10{fill:none;stroke:#29ABE2;stroke-miterlimit:10;stroke-dasharray:4.0196,4.0196;}
	.st11{fill:none;stroke:#29ABE2;stroke-miterlimit:10;stroke-dasharray:3.9492,3.9492;}
</style>
<rect x="180.7" y="8" class="st0" width="224" height="192"/>
<rect x="180.7" y="205" class="st1" width="224" height="312"/>
<g>
	<rect x="195.7" y="54" class="st2" width="194" height="32"/>
</g>
<g>
	<rect x="195.7" y="99" class="st2" width="194" height="32"/>
</g>
<g>
	<rect x="195.7" y="144" class="st3" width="194" height="47"/>
</g>
<g>
	<rect x="195.7" y="214" class="st3" width="194" height="31"/>
</g>
<text transform="matrix(1 0 0 1 242.9651 73.6665)" class="st4 st5 st6">Desktop Pools</text>
<text transform="matrix(1 0 0 1 233.634 120.6665)" class="st4 st5 st6">Application Pools</text>
<g>
	<rect x="195.7" y="259" class="st2" width="194" height="32"/>
</g>
<text transform="matrix(1 0 0 1 227.6355 280.6665)" class="st4 st5 st6">Connection Servers</text>
<g>
	<rect x="195.7" y="305" class="st2" width="194" height="32"/>
</g>
<text transform="matrix(1 0 0 1 218.3601 326.6665)" class="st4 st5 st6">App Volumes Manager</text>
<text transform="matrix(1 0 0 1 261.6758 234.6665)" class="st4 st5 st6">vCenter</text>
<g>
	<rect x="195.7" y="386" class="st7" width="194" height="31"/>
</g>
<text transform="matrix(1 0 0 1 249.216 406.6665)" class="st4 st5 st6">DB Server(s)</text>
<g>
	<rect x="195.7" y="346" class="st8" width="194" height="31"/>
</g>
<text transform="matrix(1 0 0 1 212.7112 366.6665)" class="st4 st5 st6">Unified Access Gateways</text>
<text transform="matrix(1 0 0 1 238.6462 163.6665)" class="st4 st5 st6">vSphere Cluster</text>
<text transform="matrix(1 0 0 1 254.2768 184.6665)" class="st4 st5 st6">with vSAN</text>
<g>
	<rect x="195.7" y="426" class="st3" width="194" height="47"/>
</g>
<text transform="matrix(1 0 0 1 238.6462 445.6665)" class="st4 st5 st6">vSphere Cluster</text>
<text transform="matrix(1 0 0 1 234.4392 466.6665)" class="st4 st5 st6">with NFS Storage</text>
<text transform="matrix(1 0 0 1 230.8062 36)" class="st5 st6">Desktop Workload</text>
<text transform="matrix(1 0 0 1 223.3232 500.667)" class="st5 st6">Management Cluster</text>
<g>
	<g>
		<polyline class="st9" points="395.7,250 395.7,252 393.7,252 		"/>
		<line class="st10" x1="389.6" y1="252" x2="190.7" y2="252"/>
		<polyline class="st9" points="188.7,252 186.7,252 186.7,250 		"/>
		<line class="st11" x1="186.7" y1="246.1" x2="186.7" y2="19"/>
		<polyline class="st9" points="186.7,17 186.7,15 188.7,15 		"/>
		<line class="st10" x1="192.7" y1="15" x2="391.7" y2="15"/>
		<polyline class="st9" points="393.7,15 395.7,15 395.7,17 		"/>
		<line class="st11" x1="395.7" y1="20.9" x2="395.7" y2="248"/>
	</g>
</g>
</svg>
