<?xml version="1.0" encoding="UTF-8"?>
<!DOCTYPE svg PUBLIC "-//W3C//DTD SVG 1.1//EN" "http://www.w3.org/Graphics/SVG/1.1/DTD/svg11.dtd">
<svg xmlns="http://www.w3.org/2000/svg" xmlns:xlink="http://www.w3.org/1999/xlink" version="1.1" width="985px" height="510px" viewBox="-0.5 -0.5 985 510"><defs/><g><rect x="0" y="115" width="316" height="169" fill="none" stroke="#6c8ebf" stroke-dasharray="1 1" pointer-events="all"/><rect x="562" y="371" width="418" height="128" fill="none" stroke="#6c8ebf" stroke-dasharray="1 1" pointer-events="all"/><path d="M 551.76 199.01 L 482.24 199.3" fill="none" stroke="#00cc00" stroke-width="2" stroke-miterlimit="10" stroke-dasharray="6 6" pointer-events="stroke"/><path d="M 557.76 198.98 L 549.78 203.02 L 551.76 199.01 L 549.75 195.02 Z" fill="#00cc00" stroke="#00cc00" stroke-width="2" stroke-miterlimit="10" pointer-events="all"/><path d="M 476.24 199.32 L 484.22 195.29 L 482.24 199.3 L 484.25 203.29 Z" fill="#00cc00" stroke="#00cc00" stroke-width="2" stroke-miterlimit="10" pointer-events="all"/><rect x="560" y="80" width="424" height="251" fill="none" stroke="#6c8ebf" stroke-dasharray="1 1" pointer-events="all"/><rect x="608" y="100" width="178" height="183" fill="none" stroke="#6c8ebf" pointer-events="all"/><rect x="569" y="120" width="178" height="183" fill="#ffffff" stroke="#6c8ebf" pointer-events="all"/><rect x="43" y="141" width="80" height="80" fill="#dae8fc" stroke="#6c8ebf" pointer-events="all"/><rect x="25" y="156" width="80" height="80" fill="#dae8fc" stroke="#6c8ebf" pointer-events="all"/><rect x="31" y="163" width="69" height="28" fill="#fff2cc" stroke="#d6b656" pointer-events="all"/><g fill="#000000" font-family="Helvetica" text-anchor="middle" font-size="12px"><text x="65" y="180.5">PA</text></g><rect x="43" y="213" width="44" height="30" fill="none" stroke="none" pointer-events="all"/><g fill="#000000" font-family="Helvetica" text-anchor="middle" font-size="12px"><text x="64.5" y="230.5">VM</text></g><rect x="214" y="141" width="80" height="80" fill="#dae8fc" stroke="#6c8ebf" pointer-events="all"/><rect x="196" y="156" width="80" height="80" fill="#dae8fc" stroke="#6c8ebf" pointer-events="all"/><rect x="214" y="213" width="44" height="30" fill="none" stroke="none" pointer-events="all"/><g fill="#000000" font-family="Helvetica" text-anchor="middle" font-size="12px"><text x="235.5" y="230.5">HTKS</text></g><rect x="16" y="128" width="114" height="133" fill="none" stroke="#6c8ebf" stroke-dasharray="1 1" pointer-events="all"/><rect x="32" y="243" width="82" height="18" fill="none" stroke="none" pointer-events="all"/><g fill="#000000" font-family="Helvetica" text-anchor="middle" font-size="12px"><text x="72.5" y="255.5">Cloud VM Set</text></g><rect x="114" y="266" width="82" height="18" fill="none" stroke="none" pointer-events="all"/><g fill="#000000" font-family="Helvetica" text-anchor="middle" font-size="12px"><text x="154.5" y="278.5">HTDC</text></g><rect x="394" y="159.5" width="80" height="80" fill="#e1d5e7" stroke="#9673a6" pointer-events="all"/><g fill="#000000" font-family="Helvetica" text-anchor="middle" font-size="12px"><text x="433.5" y="189">Cloud</text><text x="433.5" y="203">Service</text><text x="433.5" y="217">Endpoint</text></g><path d="M 324.24 199.5 L 385.76 199.5" fill="none" stroke="#00cc00" stroke-width="2" stroke-miterlimit="10" stroke-dasharray="6 6" pointer-events="stroke"/><path d="M 318.24 199.5 L 326.24 195.5 L 324.24 199.5 L 326.24 203.5 Z" fill="#00cc00" stroke="#00cc00" stroke-width="2" stroke-miterlimit="10" pointer-events="all"/><path d="M 391.76 199.5 L 383.76 203.5 L 385.76 199.5 L 383.76 195.5 Z" fill="#00cc00" stroke="#00cc00" stroke-width="2" stroke-miterlimit="10" pointer-events="all"/><rect x="578" y="157" width="159" height="58" fill="#d5e8d4" stroke="#82b366" pointer-events="all"/><g fill="#000000" font-family="Helvetica" text-anchor="middle" font-size="12px"><text x="657" y="189.5">Key Management Server</text></g><rect x="578" y="234" width="159" height="58" fill="#d5e8d4" stroke="#82b366" pointer-events="all"/><g fill="#000000" font-family="Helvetica" text-anchor="middle" font-size="12px"><text x="657" y="287.5">HSM</text></g><rect x="808" y="140" width="159" height="136" fill="#e3c800" stroke="#b09500" pointer-events="all"/><rect x="569" y="120" width="176" height="30" fill="none" stroke="none" pointer-events="all"/><g fill="#000000" font-family="Helvetica" text-anchor="middle" font-size="12px"><text x="656.5" y="138.5">Crypto Unit A</text></g><rect x="608" y="94" width="176" height="30" fill="none" stroke="none" pointer-events="all"/><g fill="#000000" font-family="Helvetica" text-anchor="middle" font-size="12px"><text x="695.5" y="112.5">Crypto Unit B</text></g><rect x="808" y="252" width="158" height="30" fill="none" stroke="none" pointer-events="all"/><g fill="#000000" font-family="Helvetica" text-anchor="middle" font-size="12px"><text x="886.5" y="270.5">Key Store</text></g><rect x="691" y="303" width="176" height="30" fill="none" stroke="none" pointer-events="all"/><g fill="#000000" font-family="Helvetica" text-anchor="middle" font-size="12px"><text x="778.5" y="321.5">IBM HPCS Instance</text></g><rect x="684" y="473.5" width="176" height="30" fill="none" stroke="none" pointer-events="all"/><g fill="#000000" font-family="Helvetica" text-anchor="middle" font-size="12px"><text x="771.5" y="492">On-premise</text></g><rect x="597.5" y="394.5" width="159" height="58" fill="#b0e3e6" stroke="#0e8088" pointer-events="all"/><g fill="#000000" font-family="Helvetica" text-anchor="middle" font-size="12px"><text x="676.5" y="427">Key Manager System</text></g><path d="M 677 386.26 L 677 350 L 618 350 L 617.79 300.24" fill="none" stroke="#00cc00" stroke-width="2" stroke-miterlimit="10" stroke-dasharray="6 6" pointer-events="stroke"/><path d="M 677 392.26 L 673 384.26 L 677 386.26 L 681 384.26 Z" fill="#00cc00" stroke="#00cc00" stroke-width="2" stroke-miterlimit="10" pointer-events="all"/><path d="M 617.76 294.24 L 621.79 302.22 L 617.79 300.24 L 613.79 302.25 Z" fill="#00cc00" stroke="#00cc00" stroke-width="2" stroke-miterlimit="10" pointer-events="all"/><rect x="507" y="333" width="116" height="30" fill="none" stroke="none" pointer-events="all"/><g fill="#000000" font-family="Helvetica" text-anchor="middle" font-size="12px"><text x="564.5" y="351.5">EP11 over gRPC</text></g><rect x="778.5" y="394.5" width="159" height="58" fill="#b0e3e6" stroke="#0e8088" pointer-events="all"/><g fill="#000000" font-family="Helvetica" text-anchor="middle" font-size="12px"><text x="857.5" y="427">Cloud TKE</text></g><path d="M 858 386.26 L 858 349 L 697 349 L 697.21 300.24" fill="none" stroke="#00cc00" stroke-width="2" stroke-miterlimit="10" stroke-dasharray="6 6" pointer-events="stroke"/><path d="M 858 392.26 L 854 384.26 L 858 386.26 L 862 384.26 Z" fill="#00cc00" stroke="#00cc00" stroke-width="2" stroke-miterlimit="10" pointer-events="all"/><path d="M 697.24 294.24 L 701.21 302.25 L 697.21 300.24 L 693.21 302.22 Z" fill="#00cc00" stroke="#00cc00" stroke-width="2" stroke-miterlimit="10" pointer-events="all"/><rect x="821.5" y="333" width="116" height="30" fill="none" stroke="none" pointer-events="all"/><g fill="#000000" font-family="Helvetica" text-anchor="middle" font-size="12px"><text x="879" y="351.5">CLI</text></g><rect x="319" y="199.5" width="75" height="30" fill="none" stroke="none" pointer-events="all"/><g fill="#000000" font-family="Helvetica" text-anchor="middle" font-size="12px"><text x="356" y="218">REST API</text></g><rect x="484" y="196.5" width="75" height="30" fill="none" stroke="none" pointer-events="all"/><g fill="#000000" font-family="Helvetica" text-anchor="middle" font-size="12px"><text x="521" y="215">REST API</text></g><path d="M 771 499 L 771 499" fill="none" stroke="#00cc00" stroke-width="2" stroke-miterlimit="10" stroke-dasharray="6 6" pointer-events="stroke"/><path d="M 771 499 L 771 499 L 771 499 L 771 499 Z" fill="#00cc00" stroke="#00cc00" stroke-width="2" stroke-miterlimit="10" pointer-events="all"/><path d="M 771 499 L 771 499 L 771 499 L 771 499 Z" fill="#00cc00" stroke="#00cc00" stroke-width="2" stroke-miterlimit="10" pointer-events="all"/><rect x="657" y="240" width="72" height="30" fill="#76608a" stroke="#432d57" pointer-events="all"/><g fill="#ffffff" font-family="Helvetica" text-anchor="middle" font-size="12px"><text x="692.5" y="258.5">Master Key</text></g><rect x="842" y="152" width="90" height="48" fill="#76608a" stroke="#432d57" pointer-events="all"/><rect x="850" y="160" width="72" height="30" fill="#6d8764" stroke="#3a5431" pointer-events="all"/><g fill="#ffffff" font-family="Helvetica" text-anchor="middle" font-size="12px"><text x="885.5" y="178.5">Root Key</text></g><rect x="843" y="206" width="90" height="48" fill="#76608a" stroke="#432d57" pointer-events="all"/><rect x="851" y="214" width="72" height="30" fill="#6d8764" stroke="#3a5431" pointer-events="all"/><g fill="#ffffff" font-family="Helvetica" text-anchor="middle" font-size="12px"><text x="886.5" y="225.5">Standard</text><text x="886.5" y="239.5">Key</text></g><rect x="205" y="0" width="80" height="80" fill="#bac8d3" stroke="#23445d" pointer-events="all"/><g fill="#000000" font-family="Helvetica" text-anchor="middle" font-size="12px"><text x="244.5" y="43.5">Service ID</text></g><path d="M 244.24 106.77 L 244.76 88.23" fill="none" stroke="#00cc00" stroke-width="2" stroke-miterlimit="10" stroke-dasharray="6 6" pointer-events="stroke"/><path d="M 244.06 112.76 L 240.29 104.65 L 244.24 106.77 L 248.29 104.88 Z" fill="#00cc00" stroke="#00cc00" stroke-width="2" stroke-miterlimit="10" pointer-events="all"/><path d="M 244.94 82.24 L 248.71 90.35 L 244.76 88.23 L 240.71 90.12 Z" fill="#00cc00" stroke="#00cc00" stroke-width="2" stroke-miterlimit="10" pointer-events="all"/><rect x="236.5" y="82" width="75" height="30" fill="none" stroke="none" pointer-events="all"/><g fill="#000000" font-family="Helvetica" text-anchor="middle" font-size="12px"><text x="273.5" y="100.5">API Key</text></g><rect x="209" y="245" width="72" height="30" fill="#d0cee2" stroke="#56517e" pointer-events="all"/><g fill="#000000" font-family="Helvetica" text-anchor="middle" font-size="12px"><text x="244.5" y="263.5">DEK</text></g><rect x="7.5" y="0" width="80" height="80" fill="#bac8d3" stroke="#23445d" pointer-events="all"/><g fill="#000000" font-family="Helvetica" text-anchor="middle" font-size="12px"><text x="47" y="36.5">IBM Cloud</text><text x="47" y="50.5">IAM</text></g><path d="M 46.74 106.77 L 47.26 88.23" fill="none" stroke="#00cc00" stroke-width="2" stroke-miterlimit="10" stroke-dasharray="6 6" pointer-events="stroke"/><path d="M 46.56 112.76 L 42.79 104.65 L 46.74 106.77 L 50.79 104.88 Z" fill="#00cc00" stroke="#00cc00" stroke-width="2" stroke-miterlimit="10" pointer-events="all"/><path d="M 47.44 82.24 L 51.21 90.35 L 47.26 88.23 L 43.21 90.12 Z" fill="#00cc00" stroke="#00cc00" stroke-width="2" stroke-miterlimit="10" pointer-events="all"/><rect x="39" y="82" width="75" height="30" fill="none" stroke="none" pointer-events="all"/><g fill="#000000" font-family="Helvetica" text-anchor="middle" font-size="12px"><text x="76" y="100.5">HTTPS</text></g></g></svg>