<?xml version="1.0" encoding="UTF-8"?>
<!DOCTYPE svg PUBLIC "-//W3C//DTD SVG 1.1//EN" "http://www.w3.org/Graphics/SVG/1.1/DTD/svg11.dtd">
<svg xmlns="http://www.w3.org/2000/svg" xmlns:xlink="http://www.w3.org/1999/xlink" version="1.1" width="1015px" height="485px" viewBox="-0.5 -0.5 1015 485"><defs/><g><rect x="236" y="135" width="320" height="190" fill="rgb(255, 255, 255)" stroke="rgb(0, 0, 0)" stroke-dasharray="3 3" pointer-events="all"/><rect x="336" y="185" width="120" height="60" fill="rgb(255, 255, 255)" stroke="rgb(0, 0, 0)" pointer-events="all"/><ellipse cx="81" cy="67.5" rx="7.5" ry="7.5" fill="rgb(255, 255, 255)" stroke="rgb(0, 0, 0)" pointer-events="all"/><path d="M 81 75 L 81 100 M 81 80 L 66 80 M 81 80 L 96 80 M 81 100 L 66 120 M 81 100 L 96 120" fill="none" stroke="rgb(0, 0, 0)" stroke-miterlimit="10" pointer-events="all"/><g fill="rgb(0, 0, 0)" font-family="Helvetica" text-anchor="middle" font-size="12px"><rect fill="#ffffff" stroke="none" x="2" y="128" width="160" height="16" stroke-width="0"/><text x="80.5" y="137.5">Entrust Security Administrator</text></g><rect x="776" y="185" width="120" height="60" fill="rgb(255, 255, 255)" stroke="rgb(0, 0, 0)" pointer-events="all"/><rect x="321" y="305" width="150" height="20" fill="none" stroke="none" pointer-events="all"/><g fill="rgb(0, 0, 0)" font-family="Helvetica" text-anchor="middle" font-size="12px"><text x="395.5" y="319.5">vCenter Server Instance</text></g><rect x="761" y="225" width="150" height="20" fill="none" stroke="none" pointer-events="all"/><g fill="rgb(0, 0, 0)" font-family="Helvetica" text-anchor="middle" font-size="12px"><text x="835.5" y="239.5">HPCS Instance</text></g><rect x="321" y="225" width="150" height="20" fill="none" stroke="none" pointer-events="all"/><g fill="rgb(0, 0, 0)" font-family="Helvetica" text-anchor="middle" font-size="12px"><text x="395.5" y="239.5">Entrust DataControl</text></g><path d="M 769.63 215 L 462.37 215" fill="none" stroke="rgb(0, 0, 0)" stroke-miterlimit="10" pointer-events="stroke"/><path d="M 774.88 215 L 767.88 218.5 L 769.63 215 L 767.88 211.5 Z" fill="rgb(0, 0, 0)" stroke="rgb(0, 0, 0)" stroke-miterlimit="10" pointer-events="all"/><path d="M 457.12 215 L 464.12 211.5 L 462.37 215 L 464.12 218.5 Z" fill="rgb(0, 0, 0)" stroke="rgb(0, 0, 0)" stroke-miterlimit="10" pointer-events="all"/><rect x="576" y="190" width="150" height="20" fill="none" stroke="none" pointer-events="all"/><g fill="rgb(0, 0, 0)" font-family="Helvetica" text-anchor="middle" font-size="12px"><text x="650.5" y="204.5">IBM Cloud Private Network</text></g><path d="M 96 90 L 330.21 197.35" fill="none" stroke="rgb(0, 0, 0)" stroke-miterlimit="10" pointer-events="stroke"/><path d="M 334.98 199.53 L 327.16 199.8 L 330.21 197.35 L 330.08 193.44 Z" fill="rgb(0, 0, 0)" stroke="rgb(0, 0, 0)" stroke-miterlimit="10" pointer-events="all"/><ellipse cx="81" cy="177.5" rx="7.5" ry="7.5" fill="rgb(255, 255, 255)" stroke="rgb(0, 0, 0)" pointer-events="all"/><path d="M 81 185 L 81 210 M 81 190 L 66 190 M 81 190 L 96 190 M 81 210 L 66 230 M 81 210 L 96 230" fill="none" stroke="rgb(0, 0, 0)" stroke-miterlimit="10" pointer-events="all"/><g fill="rgb(0, 0, 0)" font-family="Helvetica" text-anchor="middle" font-size="12px"><rect fill="#ffffff" stroke="none" x="3" y="238" width="158" height="16" stroke-width="0"/><text x="80.5" y="247.5">Entrust Domain Administrator</text></g><ellipse cx="81" cy="277.5" rx="7.5" ry="7.5" fill="rgb(255, 255, 255)" stroke="rgb(0, 0, 0)" pointer-events="all"/><path d="M 81 285 L 81 310 M 81 290 L 66 290 M 81 290 L 96 290 M 81 310 L 66 330 M 81 310 L 96 330" fill="none" stroke="rgb(0, 0, 0)" stroke-miterlimit="10" pointer-events="all"/><g fill="rgb(0, 0, 0)" font-family="Helvetica" text-anchor="middle" font-size="12px"><rect fill="#ffffff" stroke="none" x="8" y="338" width="148" height="30" stroke-width="0"/><text x="80.5" y="347.5">Entrust Cloud Administrator</text><text x="80.5" y="361.5">HPCS Service User</text></g><path d="M 96 200 L 329.64 214.6" fill="none" stroke="rgb(0, 0, 0)" stroke-miterlimit="10" pointer-events="stroke"/><path d="M 334.88 214.93 L 327.68 217.99 L 329.64 214.6 L 328.12 211 Z" fill="rgb(0, 0, 0)" stroke="rgb(0, 0, 0)" stroke-miterlimit="10" pointer-events="all"/><path d="M 106 300 L 329.91 231.85" fill="none" stroke="rgb(0, 0, 0)" stroke-miterlimit="10" pointer-events="stroke"/><path d="M 334.93 230.33 L 329.25 235.71 L 329.91 231.85 L 327.21 229.02 Z" fill="rgb(0, 0, 0)" stroke="rgb(0, 0, 0)" stroke-miterlimit="10" pointer-events="all"/><ellipse cx="711" cy="347.5" rx="7.5" ry="7.5" fill="rgb(255, 255, 255)" stroke="rgb(0, 0, 0)" pointer-events="all"/><path d="M 711 355 L 711 380 M 711 360 L 696 360 M 711 360 L 726 360 M 711 380 L 696 400 M 711 380 L 726 400" fill="none" stroke="rgb(0, 0, 0)" stroke-miterlimit="10" pointer-events="all"/><g fill="rgb(0, 0, 0)" font-family="Helvetica" text-anchor="middle" font-size="12px"><rect fill="#ffffff" stroke="none" x="657" y="408" width="109" height="16" stroke-width="0"/><text x="710.5" y="417.5">HPCS Administrator</text></g><path d="M 836 330 L 836 251.37" fill="none" stroke="rgb(0, 0, 0)" stroke-miterlimit="10" pointer-events="stroke"/><path d="M 836 246.12 L 839.5 253.12 L 836 251.37 L 832.5 253.12 Z" fill="rgb(0, 0, 0)" stroke="rgb(0, 0, 0)" stroke-miterlimit="10" pointer-events="all"/><ellipse cx="396" cy="410.5" rx="7.5" ry="7.5" fill="rgb(255, 255, 255)" stroke="rgb(0, 0, 0)" pointer-events="all"/><path d="M 396 418 L 396 443 M 396 423 L 381 423 M 396 423 L 411 423 M 396 443 L 381 463 M 396 443 L 411 463" fill="none" stroke="rgb(0, 0, 0)" stroke-miterlimit="10" pointer-events="all"/><g fill="rgb(0, 0, 0)" font-family="Helvetica" text-anchor="middle" font-size="12px"><rect fill="#ffffff" stroke="none" x="337" y="471" width="120" height="16" stroke-width="0"/><text x="395.5" y="480.5">VMware Administrator</text></g><path d="M 396 390 L 396 331.37" fill="none" stroke="rgb(0, 0, 0)" stroke-miterlimit="10" pointer-events="stroke"/><path d="M 396 326.12 L 399.5 333.12 L 396 331.37 L 392.5 333.12 Z" fill="rgb(0, 0, 0)" stroke="rgb(0, 0, 0)" stroke-miterlimit="10" pointer-events="all"/><ellipse cx="836" cy="347.5" rx="7.5" ry="7.5" fill="rgb(255, 255, 255)" stroke="rgb(0, 0, 0)" pointer-events="all"/><path d="M 836 355 L 836 380 M 836 360 L 821 360 M 836 360 L 851 360 M 836 380 L 821 400 M 836 380 L 851 400" fill="none" stroke="rgb(0, 0, 0)" stroke-miterlimit="10" pointer-events="all"/><g fill="rgb(0, 0, 0)" font-family="Helvetica" text-anchor="middle" font-size="12px"><rect fill="#ffffff" stroke="none" x="788" y="408" width="98" height="16" stroke-width="0"/><text x="835.5" y="417.5">HPCS Key Owner</text></g><ellipse cx="961" cy="347.5" rx="7.5" ry="7.5" fill="rgb(255, 255, 255)" stroke="rgb(0, 0, 0)" pointer-events="all"/><path d="M 961 355 L 961 380 M 961 360 L 946 360 M 961 360 L 976 360 M 961 380 L 946 400 M 961 380 L 976 400" fill="none" stroke="rgb(0, 0, 0)" stroke-miterlimit="10" pointer-events="all"/><g fill="rgb(0, 0, 0)" font-family="Helvetica" text-anchor="middle" font-size="12px"><rect fill="#ffffff" stroke="none" x="908" y="408" width="108" height="16" stroke-width="0"/><text x="960.5" y="417.5">HPCS Service User</text></g><path d="M 716 330 L 794.06 249.57" fill="none" stroke="rgb(0, 0, 0)" stroke-miterlimit="10" pointer-events="stroke"/><path d="M 797.72 245.8 L 795.36 253.26 L 794.06 249.57 L 790.33 248.39 Z" fill="rgb(0, 0, 0)" stroke="rgb(0, 0, 0)" stroke-miterlimit="10" pointer-events="all"/><path d="M 956 330 L 877.94 249.57" fill="none" stroke="rgb(0, 0, 0)" stroke-miterlimit="10" pointer-events="stroke"/><path d="M 874.28 245.8 L 881.67 248.39 L 877.94 249.57 L 876.64 253.26 Z" fill="rgb(0, 0, 0)" stroke="rgb(0, 0, 0)" stroke-miterlimit="10" pointer-events="all"/><rect x="556" y="20" width="120" height="60" fill="rgb(255, 255, 255)" stroke="rgb(0, 0, 0)" pointer-events="all"/><rect x="541" y="60" width="150" height="20" fill="none" stroke="none" pointer-events="all"/><g fill="rgb(0, 0, 0)" font-family="Helvetica" text-anchor="middle" font-size="12px"><text x="615.5" y="74.5">Service ID</text></g><ellipse cx="806" cy="27.5" rx="7.5" ry="7.5" fill="rgb(255, 255, 255)" stroke="rgb(0, 0, 0)" pointer-events="all"/><path d="M 806 35 L 806 60 M 806 40 L 791 40 M 806 40 L 821 40 M 806 60 L 791 80 M 806 60 L 821 80" fill="none" stroke="rgb(0, 0, 0)" stroke-miterlimit="10" pointer-events="all"/><g fill="rgb(0, 0, 0)" font-family="Helvetica" text-anchor="middle" font-size="12px"><rect fill="#ffffff" stroke="none" x="741" y="88" width="132" height="16" stroke-width="0"/><text x="805.5" y="97.5">IBM Cloud Administrator</text></g><path d="M 776 50 L 682.37 50" fill="none" stroke="rgb(0, 0, 0)" stroke-miterlimit="10" pointer-events="stroke"/><path d="M 677.12 50 L 684.12 46.5 L 682.37 50 L 684.12 53.5 Z" fill="rgb(0, 0, 0)" stroke="rgb(0, 0, 0)" stroke-miterlimit="10" pointer-events="all"/><path d="M 610.43 83.08 L 431.57 181.92" fill="none" stroke="rgb(0, 0, 0)" stroke-miterlimit="10" stroke-dasharray="3 3" pointer-events="stroke"/><path d="M 615.02 80.54 L 610.59 86.99 L 610.43 83.08 L 607.2 80.86 Z" fill="rgb(0, 0, 0)" stroke="rgb(0, 0, 0)" stroke-miterlimit="10" pointer-events="all"/><path d="M 426.98 184.46 L 431.41 178.01 L 431.57 181.92 L 434.8 184.14 Z" fill="rgb(0, 0, 0)" stroke="rgb(0, 0, 0)" stroke-miterlimit="10" pointer-events="all"/><rect x="329" y="0" width="120" height="60" fill="rgb(255, 255, 255)" stroke="rgb(0, 0, 0)" pointer-events="all"/><rect x="314" y="40" width="150" height="20" fill="none" stroke="none" pointer-events="all"/><g fill="rgb(0, 0, 0)" font-family="Helvetica" text-anchor="middle" font-size="12px"><text x="388.5" y="54.5">IBM Cloud IAM</text></g><path d="M 389 66.37 L 389.04 178.63" fill="none" stroke="rgb(0, 0, 0)" stroke-miterlimit="10" pointer-events="stroke"/><path d="M 389 61.12 L 392.5 68.12 L 389 66.37 L 385.5 68.12 Z" fill="rgb(0, 0, 0)" stroke="rgb(0, 0, 0)" stroke-miterlimit="10" pointer-events="all"/><path d="M 389.04 183.88 L 385.54 176.88 L 389.04 178.63 L 392.54 176.88 Z" fill="rgb(0, 0, 0)" stroke="rgb(0, 0, 0)" stroke-miterlimit="10" pointer-events="all"/><rect x="239" y="90" width="150" height="20" fill="none" stroke="none" pointer-events="all"/><g fill="rgb(0, 0, 0)" font-family="Helvetica" text-anchor="middle" font-size="12px"><text x="313.5" y="104.5">IBM Cloud Public Network</text></g></g></svg>