<?xml version="1.0" encoding="UTF-8"?>
<!DOCTYPE svg PUBLIC "-//W3C//DTD SVG 1.1//EN" "http://www.w3.org/Graphics/SVG/1.1/DTD/svg11.dtd">
<svg xmlns="http://www.w3.org/2000/svg" xmlns:xlink="http://www.w3.org/1999/xlink" version="1.1" width="1017px" height="486px" viewBox="-0.5 -0.5 1017 486"><defs/><g><rect x="238" y="135" width="320" height="190" fill="#ffffff" stroke="#000000" stroke-dasharray="3 3" pointer-events="all"/><rect x="338" y="185" width="120" height="60" fill="#ffffff" stroke="#000000" pointer-events="all"/><ellipse cx="83" cy="67.5" rx="7.5" ry="7.5" fill="#ffffff" stroke="#000000" pointer-events="all"/><path d="M 83 75 L 83 100 M 83 80 L 68 80 M 83 80 L 98 80 M 83 100 L 68 120 M 83 100 L 98 120" fill="none" stroke="#000000" stroke-miterlimit="10" pointer-events="all"/><g fill="#000000" font-family="Helvetica" text-anchor="middle" font-size="12px"><rect fill="#ffffff" stroke="none" x="2" y="129" width="164" height="15" stroke-width="0"/><text x="82.5" y="138.5">HyTrust Security Administrator</text></g><rect x="778" y="185" width="120" height="60" fill="#ffffff" stroke="#000000" pointer-events="all"/><rect x="323" y="305" width="150" height="20" fill="none" stroke="none" pointer-events="all"/><g fill="#000000" font-family="Helvetica" text-anchor="middle" font-size="12px"><text x="397.5" y="318.5">vCenter Server Instance</text></g><rect x="763" y="225" width="150" height="20" fill="none" stroke="none" pointer-events="all"/><g fill="#000000" font-family="Helvetica" text-anchor="middle" font-size="12px"><text x="837.5" y="238.5">HPCS Instance</text></g><rect x="323" y="225" width="150" height="20" fill="none" stroke="none" pointer-events="all"/><g fill="#000000" font-family="Helvetica" text-anchor="middle" font-size="12px"><text x="397.5" y="238.5">HyTrust DataControl</text></g><path d="M 771.63 215 L 464.37 215" fill="none" stroke="#000000" stroke-miterlimit="10" pointer-events="stroke"/><path d="M 776.88 215 L 769.88 218.5 L 771.63 215 L 769.88 211.5 Z" fill="#000000" stroke="#000000" stroke-miterlimit="10" pointer-events="all"/><path d="M 459.12 215 L 466.12 211.5 L 464.37 215 L 466.12 218.5 Z" fill="#000000" stroke="#000000" stroke-miterlimit="10" pointer-events="all"/><rect x="578" y="190" width="150" height="20" fill="none" stroke="none" pointer-events="all"/><g fill="#000000" font-family="Helvetica" text-anchor="middle" font-size="12px"><text x="652.5" y="203.5">IBM Cloud Private Network</text></g><path d="M 98 90 L 332.21 197.35" fill="none" stroke="#000000" stroke-miterlimit="10" pointer-events="stroke"/><path d="M 336.98 199.53 L 329.16 199.8 L 332.21 197.35 L 332.08 193.44 Z" fill="#000000" stroke="#000000" stroke-miterlimit="10" pointer-events="all"/><ellipse cx="83" cy="177.5" rx="7.5" ry="7.5" fill="#ffffff" stroke="#000000" pointer-events="all"/><path d="M 83 185 L 83 210 M 83 190 L 68 190 M 83 190 L 98 190 M 83 210 L 68 230 M 83 210 L 98 230" fill="none" stroke="#000000" stroke-miterlimit="10" pointer-events="all"/><g fill="#000000" font-family="Helvetica" text-anchor="middle" font-size="12px"><rect fill="#ffffff" stroke="none" x="3" y="239" width="162" height="15" stroke-width="0"/><text x="82.5" y="248.5">HyTrust Domain Administrator</text></g><ellipse cx="83" cy="277.5" rx="7.5" ry="7.5" fill="#ffffff" stroke="#000000" pointer-events="all"/><path d="M 83 285 L 83 310 M 83 290 L 68 290 M 83 290 L 98 290 M 83 310 L 68 330 M 83 310 L 98 330" fill="none" stroke="#000000" stroke-miterlimit="10" pointer-events="all"/><g fill="#000000" font-family="Helvetica" text-anchor="middle" font-size="12px"><rect fill="#ffffff" stroke="none" x="8" y="339" width="152" height="29" stroke-width="0"/><text x="82.5" y="348.5">HyTrust Cloud Administrator</text><text x="82.5" y="362.5">HPCS Service User</text></g><path d="M 98 200 L 331.64 214.6" fill="none" stroke="#000000" stroke-miterlimit="10" pointer-events="stroke"/><path d="M 336.88 214.93 L 329.68 217.99 L 331.64 214.6 L 330.12 211 Z" fill="#000000" stroke="#000000" stroke-miterlimit="10" pointer-events="all"/><path d="M 108 300 L 331.91 231.85" fill="none" stroke="#000000" stroke-miterlimit="10" pointer-events="stroke"/><path d="M 336.93 230.33 L 331.25 235.71 L 331.91 231.85 L 329.21 229.02 Z" fill="#000000" stroke="#000000" stroke-miterlimit="10" pointer-events="all"/><ellipse cx="713" cy="347.5" rx="7.5" ry="7.5" fill="#ffffff" stroke="#000000" pointer-events="all"/><path d="M 713 355 L 713 380 M 713 360 L 698 360 M 713 360 L 728 360 M 713 380 L 698 400 M 713 380 L 728 400" fill="none" stroke="#000000" stroke-miterlimit="10" pointer-events="all"/><g fill="#000000" font-family="Helvetica" text-anchor="middle" font-size="12px"><rect fill="#ffffff" stroke="none" x="659" y="409" width="109" height="15" stroke-width="0"/><text x="712.5" y="418.5">HPCS Administrator</text></g><path d="M 838 330 L 838 251.37" fill="none" stroke="#000000" stroke-miterlimit="10" pointer-events="stroke"/><path d="M 838 246.12 L 841.5 253.12 L 838 251.37 L 834.5 253.12 Z" fill="#000000" stroke="#000000" stroke-miterlimit="10" pointer-events="all"/><ellipse cx="398" cy="410.5" rx="7.5" ry="7.5" fill="#ffffff" stroke="#000000" pointer-events="all"/><path d="M 398 418 L 398 443 M 398 423 L 383 423 M 398 423 L 413 423 M 398 443 L 383 463 M 398 443 L 413 463" fill="none" stroke="#000000" stroke-miterlimit="10" pointer-events="all"/><g fill="#000000" font-family="Helvetica" text-anchor="middle" font-size="12px"><rect fill="#ffffff" stroke="none" x="339" y="472" width="119" height="15" stroke-width="0"/><text x="397.5" y="481.5">VMware Administrator</text></g><path d="M 398 390 L 398 331.37" fill="none" stroke="#000000" stroke-miterlimit="10" pointer-events="stroke"/><path d="M 398 326.12 L 401.5 333.12 L 398 331.37 L 394.5 333.12 Z" fill="#000000" stroke="#000000" stroke-miterlimit="10" pointer-events="all"/><ellipse cx="838" cy="347.5" rx="7.5" ry="7.5" fill="#ffffff" stroke="#000000" pointer-events="all"/><path d="M 838 355 L 838 380 M 838 360 L 823 360 M 838 360 L 853 360 M 838 380 L 823 400 M 838 380 L 853 400" fill="none" stroke="#000000" stroke-miterlimit="10" pointer-events="all"/><g fill="#000000" font-family="Helvetica" text-anchor="middle" font-size="12px"><rect fill="#ffffff" stroke="none" x="790" y="409" width="98" height="15" stroke-width="0"/><text x="837.5" y="418.5">HPCS Key Owner</text></g><ellipse cx="963" cy="347.5" rx="7.5" ry="7.5" fill="#ffffff" stroke="#000000" pointer-events="all"/><path d="M 963 355 L 963 380 M 963 360 L 948 360 M 963 360 L 978 360 M 963 380 L 948 400 M 963 380 L 978 400" fill="none" stroke="#000000" stroke-miterlimit="10" pointer-events="all"/><g fill="#000000" font-family="Helvetica" text-anchor="middle" font-size="12px"><rect fill="#ffffff" stroke="none" x="910" y="409" width="107" height="15" stroke-width="0"/><text x="962.5" y="418.5">HPCS Service User</text></g><path d="M 718 330 L 796.06 249.57" fill="none" stroke="#000000" stroke-miterlimit="10" pointer-events="stroke"/><path d="M 799.72 245.8 L 797.36 253.26 L 796.06 249.57 L 792.33 248.39 Z" fill="#000000" stroke="#000000" stroke-miterlimit="10" pointer-events="all"/><path d="M 958 330 L 879.94 249.57" fill="none" stroke="#000000" stroke-miterlimit="10" pointer-events="stroke"/><path d="M 876.28 245.8 L 883.67 248.39 L 879.94 249.57 L 878.64 253.26 Z" fill="#000000" stroke="#000000" stroke-miterlimit="10" pointer-events="all"/><rect x="558" y="20" width="120" height="60" fill="#ffffff" stroke="#000000" pointer-events="all"/><rect x="543" y="60" width="150" height="20" fill="none" stroke="none" pointer-events="all"/><g fill="#000000" font-family="Helvetica" text-anchor="middle" font-size="12px"><text x="617.5" y="73.5">Service ID</text></g><ellipse cx="808" cy="27.5" rx="7.5" ry="7.5" fill="#ffffff" stroke="#000000" pointer-events="all"/><path d="M 808 35 L 808 60 M 808 40 L 793 40 M 808 40 L 823 40 M 808 60 L 793 80 M 808 60 L 823 80" fill="none" stroke="#000000" stroke-miterlimit="10" pointer-events="all"/><g fill="#000000" font-family="Helvetica" text-anchor="middle" font-size="12px"><rect fill="#ffffff" stroke="none" x="743" y="89" width="131" height="15" stroke-width="0"/><text x="807.5" y="98.5">IBM Cloud Administrator</text></g><path d="M 778 50 L 684.37 50" fill="none" stroke="#000000" stroke-miterlimit="10" pointer-events="stroke"/><path d="M 679.12 50 L 686.12 46.5 L 684.37 50 L 686.12 53.5 Z" fill="#000000" stroke="#000000" stroke-miterlimit="10" pointer-events="all"/><path d="M 612.43 83.08 L 433.57 181.92" fill="none" stroke="#000000" stroke-miterlimit="10" stroke-dasharray="3 3" pointer-events="stroke"/><path d="M 617.02 80.54 L 612.59 86.99 L 612.43 83.08 L 609.2 80.86 Z" fill="#000000" stroke="#000000" stroke-miterlimit="10" pointer-events="all"/><path d="M 428.98 184.46 L 433.41 178.01 L 433.57 181.92 L 436.8 184.14 Z" fill="#000000" stroke="#000000" stroke-miterlimit="10" pointer-events="all"/><rect x="331" y="0" width="120" height="60" fill="#ffffff" stroke="#000000" pointer-events="all"/><rect x="316" y="40" width="150" height="20" fill="none" stroke="none" pointer-events="all"/><g fill="#000000" font-family="Helvetica" text-anchor="middle" font-size="12px"><text x="390.5" y="53.5">IBM Cloud IAM</text></g><path d="M 391 66.37 L 391.04 178.63" fill="none" stroke="#000000" stroke-miterlimit="10" pointer-events="stroke"/><path d="M 391 61.12 L 394.5 68.12 L 391 66.37 L 387.5 68.12 Z" fill="#000000" stroke="#000000" stroke-miterlimit="10" pointer-events="all"/><path d="M 391.04 183.88 L 387.54 176.88 L 391.04 178.63 L 394.54 176.88 Z" fill="#000000" stroke="#000000" stroke-miterlimit="10" pointer-events="all"/><rect x="241" y="90" width="150" height="20" fill="none" stroke="none" pointer-events="all"/><g fill="#000000" font-family="Helvetica" text-anchor="middle" font-size="12px"><text x="315.5" y="103.5">IBM Cloud Public Network</text></g></g></svg>