<?xml version="1.0" encoding="utf-8"?>
<!-- Generator: Adobe Illustrator 22.0.0, SVG Export Plug-In . SVG Version: 6.00 Build 0)  -->
<svg version="1.1" xmlns="http://www.w3.org/2000/svg" xmlns:xlink="http://www.w3.org/1999/xlink" x="0px" y="0px"
	 viewBox="0 0 862 480.7" style="enable-background:new 0 0 862 480.7;" xml:space="preserve">
<style type="text/css">
	.st0{fill:#B6CAEF;stroke:#0071BC;stroke-miterlimit:10;}
	.st1{font-family:'IBMPlexSans';}
	.st2{font-size:14px;}
	.st3{fill:#FFFFFF;}
	.st4{fill:#FFFFFF;stroke:#000000;stroke-miterlimit:10;}
	.st5{fill:#ABD6AD;stroke:#006837;stroke-miterlimit:10;}
	.st6{fill:none;stroke:#000000;stroke-miterlimit:10;}
	.st7{fill:none;stroke:#000000;stroke-miterlimit:10;stroke-dasharray:4.969,4.969;}
	.st8{fill:none;stroke:#000000;stroke-miterlimit:10;stroke-dasharray:5.0236,5.0236;}
</style>
<g id="Layer_1">
	<g id="ESXi_1">
		<path class="st0" d="M288.8,213.8h-179c-6.6,0-12-5.4-12-12v-30c0-6.6,5.4-12,12-12h179c6.6,0,12,5.4,12,12v30
			C300.8,208.4,295.4,213.8,288.8,213.8z"/>
		<text transform="matrix(1 0 0 1 187.6668 193.9998)" class="st1 st2">ESXi</text>
	</g>
	<g id="ESXi_1_1_">
		<path class="st0" d="M506.8,213.8h-179c-6.6,0-12-5.4-12-12v-30c0-6.6,5.4-12,12-12h179c6.6,0,12,5.4,12,12v30
			C518.8,208.4,513.4,213.8,506.8,213.8z"/>
		<text transform="matrix(1 0 0 1 405.6668 193.9998)" class="st1 st2">ESXi</text>
	</g>
	<g id="ESXi_1_2_">
		<path class="st0" d="M723.8,213.8h-179c-6.6,0-12-5.4-12-12v-30c0-6.6,5.4-12,12-12h179c6.6,0,12,5.4,12,12v30
			C735.8,208.4,730.4,213.8,723.8,213.8z"/>
		<text transform="matrix(1 0 0 1 622.6668 193.9998)" class="st1 st2">ESXi</text>
	</g>
	<g id="vCenter">
		<g>
			<rect x="120.8" y="111.8" class="st3" width="61" height="61"/>
			<path d="M181.3,112.3v60h-60v-60H181.3 M182.3,111.3h-62v62h62V111.3L182.3,111.3z"/>
		</g>
		<text transform="matrix(1 0 0 1 126.8826 146.5613)" class="st1 st2">vCenter</text>
	</g>
	<g id="VM1">
		<g>
			<rect x="221.8" y="111.8" class="st3" width="61" height="61"/>
			<path d="M282.3,112.3v60h-60v-60H282.3 M283.3,111.3h-62v62h62V111.3L283.3,111.3z"/>
		</g>
		<text transform="matrix(1 0 0 1 242.3863 146.5613)" class="st1 st2">VM</text>
	</g>
	<g id="VM2">
		<g>
			<rect x="338.8" y="111.8" class="st3" width="61" height="61"/>
			<path d="M399.3,112.3v60h-60v-60H399.3 M400.3,111.3h-62v62h62V111.3L400.3,111.3z"/>
		</g>
		<text transform="matrix(1 0 0 1 359.3863 146.5613)" class="st1 st2">VM</text>
	</g>
	<g id="VM3">
		<g>
			<rect x="432.8" y="111.8" class="st3" width="61" height="61"/>
			<path d="M493.3,112.3v60h-60v-60H493.3 M494.3,111.3h-62v62h62V111.3L494.3,111.3z"/>
		</g>
		<text transform="matrix(1 0 0 1 453.3863 146.5613)" class="st1 st2">VM</text>
	</g>
	<g id="VM4">
		<g>
			<rect x="553.8" y="111.8" class="st3" width="61" height="61"/>
			<path d="M614.3,112.3v60h-60v-60H614.3 M615.3,111.3h-62v62h62V111.3L615.3,111.3z"/>
		</g>
		<text transform="matrix(1 0 0 1 574.3863 146.5613)" class="st1 st2">VM</text>
	</g>
	<g id="VM5">
		<g>
			<rect x="645.8" y="111.8" class="st3" width="61" height="61"/>
			<path d="M706.3,112.3v60h-60v-60H706.3 M707.3,111.3h-62v62h62V111.3L707.3,111.3z"/>
		</g>
		<text transform="matrix(1 0 0 1 666.3863 146.5613)" class="st1 st2">VM</text>
	</g>
	<g id="certificate_top">
		<path class="st4" d="M134.3,90.3V121c0,0,17.8,9.7,36.3,0c18.6-9.7,38,0,38,0V90.3H134.3z"/>
		<text transform="matrix(1 0 0 1 139.3333 108.8333)" class="st1 st2">Certificate</text>
	</g>
</g>
<g id="cloudHSM">
</g>
<g id="KMIP">
	<g>
		<g>
			<g>
				<rect x="137.8" y="318.8" class="st5" width="127.7" height="48"/>
				<text transform="matrix(1 0 0 1 148.3333 352.0003)" class="st1 st2">KMIP for VMware</text>
			</g>
			<g>
				<rect x="120.8" y="303.8" class="st5" width="127.7" height="48"/>
				<text transform="matrix(1 0 0 1 131.3333 337.0003)" class="st1 st2">KMIP for VMware</text>
			</g>
		</g>
		<g id="certificate_top_1_">
			<path class="st4" d="M191.3,284.3V315c0,0,17.8,9.7,36.3,0c18.6-9.7,38,0,38,0v-30.7H191.3z"/>
			<text transform="matrix(1 0 0 1 196.3333 302.8333)" class="st1 st2">Certificate</text>
		</g>
	</g>
</g>
<g id="Key_protect">
	<g>
		<g>
			<rect x="579.8" y="318.8" class="st5" width="127.7" height="48"/>
			<text transform="matrix(1 0 0 1 605.3333 349.0003)" class="st1 st2">Key Protect</text>
		</g>
		<g>
			<rect x="567.8" y="305.8" class="st5" width="127.7" height="48"/>
			<text transform="matrix(1 0 0 1 593.3333 336.0003)" class="st1 st2">Key Protect</text>
		</g>
	</g>
</g>
<g id="key">
	<g>
		<g>
			<g>
				<path class="st0" d="M688.8,457.8h-96c-6.6,0-12-5.4-12-12v-30c0-6.6,5.4-12,12-12h96c6.6,0,12,5.4,12,12v30
					C700.8,452.4,695.4,457.8,688.8,457.8z"/>
				<text transform="matrix(1 0 0 1 613.6663 436.0003)" class="st1 st2">CloudHSM</text>
			</g>
			<g>
				<path class="st0" d="M678.8,442.8h-98c-6.6,0-12-5.4-12-12v-30c0-6.6,5.4-12,12-12h98c6.6,0,12,5.4,12,12v30
					C690.8,437.4,685.4,442.8,678.8,442.8z"/>
				<text transform="matrix(1 0 0 1 595.6663 421.0003)" class="st1 st2">CloudHSM</text>
			</g>
		</g>
		<g>
			<g>
				<path class="st4" d="M675.3,434v21c0,0,12.2,6.6,24.9,0c12.7-6.6,26,0,26,0v-21H675.3z"/>
				<text transform="matrix(1 0 0 1 688.9999 447.3791)" class="st1 st2">Key</text>
			</g>
			<g>
				<path class="st4" d="M675.3,419v21c0,0,12.2,6.6,24.9,0c12.7-6.6,26,0,26,0v-21H675.3z"/>
				<text transform="matrix(1 0 0 1 688.9999 432.3791)" class="st1 st2">Key</text>
			</g>
			<g>
				<path class="st4" d="M675.3,405v21c0,0,12.2,6.6,24.9,0c12.7-6.6,26,0,26,0v-21H675.3z"/>
				<text transform="matrix(1 0 0 1 688.9999 418.3791)" class="st1 st2">Key</text>
			</g>
		</g>
	</g>
</g>
<g id="Layer_3">
	<g>
		<g>
			<line class="st6" x1="93.3" y1="40.3" x2="95.8" y2="40.3"/>
			<line class="st7" x1="100.8" y1="40.3" x2="734.3" y2="40.3"/>
			<line class="st6" x1="736.8" y1="40.3" x2="739.3" y2="40.3"/>
		</g>
	</g>
</g>
<g id="Layer_4">
	<text transform="matrix(1 0 0 1 96.6668 54.6668)" class="st1 st2">Customer infrastructure account</text>
	<text transform="matrix(1 0 0 1 644.3333 33.9998)" class="st1 st2">Public network</text>
	<text transform="matrix(1 0 0 1 576.3333 244.3333)" class="st1 st2">Customer private network</text>
	<text transform="matrix(1 0 0 1 532.6663 265.6663)" class="st1 st2">IBM Cloud management network</text>
	<g>
		<g>
			<line class="st6" x1="97.3" y1="250.3" x2="99.8" y2="250.3"/>
			<line class="st8" x1="104.9" y1="250.3" x2="735.3" y2="250.3"/>
			<line class="st6" x1="737.8" y1="250.3" x2="740.3" y2="250.3"/>
		</g>
	</g>
</g>
<g id="arrows">
	<g>
		<g>
			<line class="st6" x1="148.8" y1="172.8" x2="148.8" y2="296.8"/>
			<g>
				<path d="M148.8,302.8c-1.1-2.8-2.9-6.4-4.8-8.5l4.8,1.7l4.8-1.7C151.7,296.5,149.9,300,148.8,302.8z"/>
			</g>
		</g>
	</g>
	<g>
		<g>
			<line class="st6" x1="169.8" y1="213.8" x2="169.8" y2="296.8"/>
			<g>
				<path d="M169.8,302.8c-1.1-2.8-2.9-6.4-4.8-8.5l4.8,1.7l4.8-1.7C172.7,296.5,170.9,300,169.8,302.8z"/>
			</g>
		</g>
	</g>
	<g>
		<g>
			<line class="st6" x1="264.8" y1="330.8" x2="560.8" y2="330.8"/>
			<g>
				<path d="M566.8,330.8c-2.8,1.1-6.4,2.9-8.5,4.8l1.7-4.8l-1.7-4.8C560.5,328,564,329.8,566.8,330.8z"/>
			</g>
		</g>
	</g>
	<g>
		<g>
			<line class="st6" x1="631.8" y1="352.8" x2="631.8" y2="382.8"/>
			<g>
				<path d="M631.8,388.8c-1.1-2.8-2.9-6.4-4.8-8.5l4.8,1.7l4.8-1.7C634.7,382.5,632.9,386,631.8,388.8z"/>
			</g>
		</g>
	</g>
</g>
</svg>
