<?xml version="1.0" encoding="utf-8"?>
<!-- Generator: Adobe Illustrator 22.0.0, SVG Export Plug-In . SVG Version: 6.00 Build 0)  -->
<svg version="1.1" xmlns="http://www.w3.org/2000/svg" xmlns:xlink="http://www.w3.org/1999/xlink" x="0px" y="0px"
	 viewBox="0 0 1434.2 794" style="enable-background:new 0 0 1434.2 794;" xml:space="preserve">
<style type="text/css">
	.st0{fill:#FFFFFF;}
	.st1{fill:none;stroke:#000000;stroke-miterlimit:10;}
	.st2{fill:none;stroke:#000000;stroke-miterlimit:10;stroke-dasharray:8.0549,8.0549;}
	.st3{fill:none;stroke:#000000;stroke-miterlimit:10;stroke-dasharray:8.052,8.052;}
	.st4{fill:#AADFF2;}
	.st5{fill:none;stroke:#000000;stroke-miterlimit:10;stroke-dasharray:8.0706,8.0706;}
	.st6{fill:none;stroke:#000000;stroke-miterlimit:10;stroke-dasharray:8.1177,8.1177;}
	.st7{font-family:'MyriadPro-Regular';}
	.st8{font-size:21px;}
	.st9{fill:#E1E5BA;}
	.st10{fill:none;stroke:#000000;stroke-miterlimit:10;stroke-dasharray:8.1429,8.1429;}
	.st11{fill:#FFFFFF;stroke:#000000;stroke-width:3;stroke-miterlimit:10;}
	.st12{fill:#FF7BAC;}
	.st13{font-family:'IBMPlexSans';}
	.st14{fill:#29ABE2;}
	.st15{font-size:18px;}
	.st16{fill:#EF7C26;}
	.st17{fill:#C491F2;stroke:#000000;stroke-miterlimit:10;}
	.st18{fill:#FFFFFF;stroke:#000000;stroke-miterlimit:10;}
	.st19{fill:#F4BA51;}
	.st20{fill:#169ADB;stroke:#9BCCDD;stroke-width:0.5;stroke-miterlimit:10;}
	.st21{fill:url(#SVGID_1_);}
	.st22{font-size:11.4646px;}
	.st23{fill:url(#SVGID_2_);}
	.st24{font-size:9.2282px;}
	.st25{fill:#2B6782;}
	.st26{fill:#1E4C66;}
	.st27{font-size:16.5319px;}
</style>
<g id="Outter_dash_rectangle">
	<g>
		<rect x="354.7" y="64" class="st0" width="741" height="628"/>
		<g>
			<polyline class="st1" points="1095.7,688 1095.7,692 1091.7,692 			"/>
			<line class="st2" x1="1083.7" y1="692" x2="362.8" y2="692"/>
			<polyline class="st1" points="358.7,692 354.7,692 354.7,688 			"/>
			<line class="st3" x1="354.7" y1="679.9" x2="354.7" y2="72"/>
			<polyline class="st1" points="354.7,68 354.7,64 358.7,64 			"/>
			<line class="st2" x1="366.8" y1="64" x2="1087.7" y2="64"/>
			<polyline class="st1" points="1091.7,64 1095.7,64 1095.7,68 			"/>
			<line class="st3" x1="1095.7" y1="76.1" x2="1095.7" y2="684"/>
		</g>
	</g>
</g>
<g id="Public_address_space_rectangle">
	<g>
		<rect x="378.7" y="94.5" class="st4" width="694" height="146"/>
		<g>
			<polyline class="st1" points="1072.7,236.5 1072.7,240.5 1068.7,240.5 			"/>
			<line class="st5" x1="1060.7" y1="240.5" x2="386.8" y2="240.5"/>
			<polyline class="st1" points="382.7,240.5 378.7,240.5 378.7,236.5 			"/>
			<line class="st6" x1="378.7" y1="228.4" x2="378.7" y2="102.6"/>
			<polyline class="st1" points="378.7,98.5 378.7,94.5 382.7,94.5 			"/>
			<line class="st5" x1="390.8" y1="94.5" x2="1064.7" y2="94.5"/>
			<polyline class="st1" points="1068.7,94.5 1072.7,94.5 1072.7,98.5 			"/>
			<line class="st6" x1="1072.7" y1="106.6" x2="1072.7" y2="232.4"/>
		</g>
	</g>
	<text transform="matrix(1 0 0 1 855.2317 226)" class="st7 st8">Public Address Space</text>
</g>
<g id="Private_address_space_rectangle">
	<g>
		<rect x="379.7" y="251.5" class="st9" width="694" height="407"/>
		<g>
			<polyline class="st1" points="1073.7,654.5 1073.7,658.5 1069.7,658.5 			"/>
			<line class="st5" x1="1061.7" y1="658.5" x2="387.8" y2="658.5"/>
			<polyline class="st1" points="383.7,658.5 379.7,658.5 379.7,654.5 			"/>
			<line class="st10" x1="379.7" y1="646.4" x2="379.7" y2="259.6"/>
			<polyline class="st1" points="379.7,255.5 379.7,251.5 383.7,251.5 			"/>
			<line class="st5" x1="391.8" y1="251.5" x2="1065.7" y2="251.5"/>
			<polyline class="st1" points="1069.7,251.5 1073.7,251.5 1073.7,255.5 			"/>
			<line class="st10" x1="1073.7" y1="263.6" x2="1073.7" y2="650.4"/>
		</g>
	</g>
	<text transform="matrix(1 0 0 1 852.2317 643)" class="st7 st8">Private Address Space</text>
</g>
<g id="ibm_cloud">
	<g>
		<path class="st11" d="M488.4,59.9c0-11.4-13.4-20.6-29.9-20.6c-1.6,0-3.2,0.1-4.7,0.3c-1-2.2-2.6-4.2-4.6-5.8
			c-4.7-3.8-10.8-4.5-15.7-2.3C430.7,16.9,419.2,6,405.4,6c-14.3,0-26.2,11.8-28.4,27.2c-0.1,0-0.2,0-0.4,0c-11.6,0-21,10.6-21,23.7
			c0,10,5.5,18.5,13.2,22v0.9h2.4c1.7,0.5,3.5,0.8,5.3,0.8c1.8,0,3.6-0.3,5.3-0.8h68.4c2.6,0.5,5.3,0.8,8.1,0.8
			c2.8,0,5.5-0.3,8.1-0.8h2.4v-0.5C480.4,76.3,488.4,68.8,488.4,59.9z"/>
		<text transform="matrix(1 0 0 1 368.2317 62)" class="st7 st8">IBM Cloud</text>
	</g>
</g>
<g id="lines">
</g>
<g id="pubic_VLAN_native">
	<g>
		<g>
			<g>
				<g>
					<path class="st12" d="M435.6,190.5L435.6,190.5l-0.4-0.1c-9.3-1.1-16.4-10.3-16.4-21.4s7-20.3,16.4-21.4l0.4-0.1v-0.1h583.6
						l0.2,0c9.2,0.4,16.4,9.8,16.4,21.5s-7.2,21.1-16.4,21.5l-0.4,0H435.6z"/>
					<path d="M1018.9,148l0.4,0c8.9,0.4,15.9,9.6,15.9,21s-7,20.6-15.9,21l-0.3,0H436l-0.9-0.1c-9.1-1-15.9-10-15.9-20.9
						s6.9-19.9,15.9-20.9l0.9-0.1H1018.9 M1019.4,147H435.1v0.1c-9.4,1.1-16.8,10.5-16.8,21.9c0,11.4,7.4,20.8,16.8,21.9v0.1h584.3
						v0c9.3-0.4,16.8-10.1,16.8-22C1036.2,157.1,1028.7,147.4,1019.4,147L1019.4,147L1019.4,147z"/>
				</g>
				<g>
					<path class="st0" d="M1017.6,186.9c-6.7,0-12.1-8.2-12.1-18.4c0-10.1,5.4-18.4,12.1-18.4c6.7,0,12.1,8.2,12.1,18.4
						C1029.7,178.7,1024.3,186.9,1017.6,186.9z"/>
					<path d="M1017.6,150.7c6.4,0,11.6,8,11.6,17.9c0,9.8-5.2,17.9-11.6,17.9c-6.4,0-11.6-8-11.6-17.9
						C1006,158.7,1011.2,150.7,1017.6,150.7 M1017.6,149.7c-7,0-12.6,8.4-12.6,18.9c0,10.4,5.7,18.9,12.6,18.9
						c7,0,12.6-8.4,12.6-18.9C1030.2,158.1,1024.6,149.7,1017.6,149.7L1017.6,149.7z"/>
				</g>
			</g>
		</g>
		<text transform="matrix(1 0 0 1 641.9817 175.75)" class="st13 st8">Public VLAN (native)</text>
	</g>
</g>
<g id="security_lock_icon">
	<g>
		<line class="st1" x1="667.7" y1="190.5" x2="667.7" y2="565.5"/>
		<line class="st1" x1="652.7" y1="407.5" x2="652.7" y2="504.5"/>
		<line class="st1" x1="682.7" y1="407.5" x2="682.7" y2="438.5"/>
		<g>
			<path class="st14" d="M683.2,407.8h-30c-6.6,0-12-5.4-12-12v-25c0-6.6,5.4-12,12-12h30c6.6,0,12,5.4,12,12v25
				C695.2,402.4,689.8,407.8,683.2,407.8z"/>
			<g>
				<g>
					<path class="st0" d="M674.2,380.8h-10.9c-2.2,0-4.1-1.8-4.1-4.1v-5.9c0-2.2,1.8-4.1,4.1-4.1h10.9c2.2,0,4.1,1.8,4.1,4.1v5.9
						C678.2,378.9,676.4,380.8,674.2,380.8z"/>
					<path class="st14" d="M672.2,378.8h-6.9c-1.1,0-2.1-0.9-2.1-2.1v-4c0-1.1,0.9-2.1,2.1-2.1h6.9c1.1,0,2.1,0.9,2.1,2.1v4
						C674.2,377.8,673.3,378.8,672.2,378.8z"/>
					<path class="st0" d="M680.2,399.8h-22.9c-2.2,0-4.1-1.8-4.1-4.1v-13.9c0-2.2,1.8-4.1,4.1-4.1h22.9c2.2,0,4.1,1.8,4.1,4.1v13.9
						C684.2,397.9,682.4,399.8,680.2,399.8z"/>
				</g>
				<g>
					<ellipse class="st14" cx="669.2" cy="386.3" rx="4" ry="3.5"/>
					<path class="st14" d="M668.7,396.8L668.7,396.8c-0.8,0-1.5-0.7-1.5-1.5v-7c0-0.8,0.7-1.5,1.5-1.5l0,0c0.8,0,1.5,0.7,1.5,1.5v7
						C670.2,396.1,669.6,396.8,668.7,396.8z"/>
					<path class="st14" d="M671.7,391.8h-2c-0.3,0-0.5-0.2-0.5-0.5l0,0c0-0.3,0.2-0.5,0.5-0.5h2c0.3,0,0.5,0.2,0.5,0.5l0,0
						C672.2,391.5,672,391.8,671.7,391.8z"/>
					<path class="st14" d="M671.7,393.8h-2c-0.3,0-0.5-0.2-0.5-0.5l0,0c0-0.3,0.2-0.5,0.5-0.5h2c0.3,0,0.5,0.2,0.5,0.5l0,0
						C672.2,393.5,672,393.8,671.7,393.8z"/>
					<path class="st14" d="M671.7,395.8h-2c-0.3,0-0.5-0.2-0.5-0.5l0,0c0-0.3,0.2-0.5,0.5-0.5h2c0.3,0,0.5,0.2,0.5,0.5l0,0
						C672.2,395.5,672,395.8,671.7,395.8z"/>
				</g>
			</g>
		</g>
	</g>
</g>
<g id="security_lock_bottom">
	<g>
		<path class="st14" d="M716.2,759H697c-6.6,0-12-5.4-12-12v-15.2c0-6.6,5.4-12,12-12h19.2c6.6,0,12,5.4,12,12V747
			C728.2,753.6,722.8,759,716.2,759z"/>
		<g>
			<g>
				<path class="st0" d="M710.6,737.4h-7.1c-2.2,0-4.1-1.8-4.1-4.1v-3.1c0-2.2,1.8-4.1,4.1-4.1h7.1c2.2,0,4.1,1.8,4.1,4.1v3.1
					C714.6,735.6,712.8,737.4,710.6,737.4z"/>
				<path class="st14" d="M709.4,735.8h-4.7c-1.1,0-2.1-0.9-2.1-2.1v-2.4c0-1.1,0.9-2.1,2.1-2.1h4.7c1.1,0,2.1,0.9,2.1,2.1v2.4
					C711.4,734.9,710.5,735.8,709.4,735.8z"/>
				<path class="st0" d="M715.4,752.6h-16.7c-2.2,0-4.1-1.8-4.1-4.1V739c0-2.2,1.8-4.1,4.1-4.1h16.7c2.2,0,4.1,1.8,4.1,4.1v9.5
					C719.4,750.8,717.6,752.6,715.4,752.6z"/>
			</g>
			<g>
				<path class="st14" d="M710.6,741.8c0,1.5-1.4,2.8-3.2,2.8c-1.8,0-3.2-1.3-3.2-2.8c0-1.5,1.4-2.8,3.2-2.8
					C709.2,739,710.6,740.2,710.6,741.8z"/>
				<path class="st14" d="M707,750.2L707,750.2c-0.7,0-1.2-0.5-1.2-1.2v-5.6c0-0.7,0.5-1.2,1.2-1.2h0c0.7,0,1.2,0.5,1.2,1.2v5.6
					C708.2,749.7,707.7,750.2,707,750.2z"/>
				<path class="st14" d="M709.4,746.2h-1.6c-0.2,0-0.4-0.2-0.4-0.4v0c0-0.2,0.2-0.4,0.4-0.4h1.6c0.2,0,0.4,0.2,0.4,0.4v0
					C709.8,746,709.6,746.2,709.4,746.2z"/>
				<path class="st14" d="M709.4,747.8h-1.6c-0.2,0-0.4-0.2-0.4-0.4v0c0-0.2,0.2-0.4,0.4-0.4h1.6c0.2,0,0.4,0.2,0.4,0.4v0
					C709.8,747.6,709.6,747.8,709.4,747.8z"/>
				<path class="st14" d="M709.4,749.4h-1.6c-0.2,0-0.4-0.2-0.4-0.4v0c0-0.2,0.2-0.4,0.4-0.4h1.6c0.2,0,0.4,0.2,0.4,0.4v0
					C709.8,749.2,709.6,749.4,709.4,749.4z"/>
			</g>
		</g>
	</g>
	<text transform="matrix(1 0 0 1 650.2317 780)" class="st7 st15">Cloud Gateway</text>
</g>
<g id="gear_bottom">
	<g>
		<path class="st14" d="M866.2,759h-21.8c-6.6,0-12-5.4-12-12v-17.5c0-6.6,5.4-12,12-12h21.8c6.6,0,12,5.4,12,12V747
			C878.2,753.6,872.8,759,866.2,759z"/>
		<g>
			<g>
				<g>
					<g>
						<g>
							<ellipse class="st0" cx="855.2" cy="738.1" rx="12.3" ry="11.9"/>
							<path class="st14" d="M860.7,738.1c0,2.9-2.5,5.3-5.5,5.3c-3,0-5.5-2.4-5.5-5.3c0-2.9,2.5-5.3,5.5-5.3
								C858.3,732.8,860.7,735.2,860.7,738.1z"/>
						</g>
						<rect x="851.5" y="723" class="st0" width="6.6" height="4.2"/>
						<rect x="852.3" y="748.4" class="st0" width="5.9" height="5.1"/>
					</g>
					<rect x="865.9" y="735.3" class="st0" width="5.1" height="5.9"/>
					<rect x="839.7" y="735.3" class="st0" width="5.1" height="5.9"/>
				</g>
				
					<rect x="842.5" y="726.2" transform="matrix(0.7526 0.6585 -0.6585 0.7526 689.1561 -376.2561)" class="st0" width="5.6" height="5.6"/>
				
					<rect x="861.3" y="744.9" transform="matrix(0.7526 0.6585 -0.6585 0.7526 706.3328 -384.582)" class="st0" width="7.3" height="5.6"/>
			</g>
			
				<rect x="862.9" y="726.5" transform="matrix(0.7071 0.7071 -0.7071 0.7071 769.414 -398.4117)" class="st0" width="5.5" height="6.1"/>
			
				<rect x="843.2" y="744.8" transform="matrix(0.7071 0.7071 -0.7071 0.7071 776.375 -379.21)" class="st0" width="5.5" height="5.5"/>
		</g>
	</g>
	<text transform="matrix(1 0 0 1 799.2317 780)" class="st7 st15">WAN Optimizer</text>
</g>
<g id="gear_icon">
	<g>
		<line class="st1" x1="735.7" y1="407.5" x2="735.7" y2="437.5"/>
		<g>
			<path class="st14" d="M751.5,407.8h-30c-6.6,0-12-5.4-12-12v-25c0-6.6,5.4-12,12-12h30c6.6,0,12,5.4,12,12v25
				C763.5,402.4,758.1,407.8,751.5,407.8z"/>
			<g>
				<g>
					<g>
						<g>
							<g>
								<ellipse class="st0" cx="736.3" cy="383.1" rx="14.5" ry="14"/>
								<path class="st14" d="M742.8,383.1c0,3.5-2.9,6.3-6.5,6.3c-3.6,0-6.5-2.8-6.5-6.3c0-3.5,2.9-6.3,6.5-6.3
									C739.9,376.8,742.8,379.6,742.8,383.1z"/>
							</g>
							<rect x="732" y="365.3" class="st0" width="7.8" height="5"/>
							<rect x="732.8" y="395.3" class="st0" width="7" height="6"/>
						</g>
						<rect x="749" y="379.8" class="st0" width="6" height="7"/>
						<rect x="718" y="379.8" class="st0" width="6" height="7"/>
					</g>
					
						<rect x="721.3" y="369" transform="matrix(0.7526 0.6585 -0.6585 0.7526 424.4308 -385.0297)" class="st0" width="6.6" height="6.6"/>
					
						<rect x="743.5" y="391" transform="matrix(0.7526 0.6585 -0.6585 0.7526 444.6919 -394.853)" class="st0" width="8.6" height="6.6"/>
				</g>
				
					<rect x="745.3" y="369.4" transform="matrix(0.7071 0.7071 -0.7071 0.7071 483.0137 -420.0983)" class="st0" width="6.5" height="7.2"/>
				
					<rect x="722.1" y="391" transform="matrix(0.7071 0.7071 -0.7071 0.7071 491.23 -397.4341)" class="st0" width="6.5" height="6.5"/>
			</g>
		</g>
	</g>
</g>
<g id="L2_concentrator">
	<g>
		<line class="st1" x1="802.7" y1="408.5" x2="802.7" y2="437.5"/>
		<g>
			<path class="st14" d="M818.7,408.6h-30c-6.6,0-12-5.4-12-12v-25c0-6.6,5.4-12,12-12h30c6.6,0,12,5.4,12,12v25
				C830.7,403.2,825.3,408.6,818.7,408.6z"/>
			<g>
				<rect x="788.7" y="371.5" class="st0" width="30" height="15.9"/>
				<rect x="793.4" y="383.6" class="st0" width="20.6" height="7.5"/>
				<rect x="793.4" y="377.1" class="st14" width="20.6" height="1.9"/>
				<rect x="800.9" y="389.3" class="st0" width="5.6" height="13.1"/>
				<rect x="791.5" y="365.8" class="st0" width="5.6" height="10.3"/>
				<rect x="800" y="365.8" class="st0" width="2.8" height="3.8"/>
				<rect x="804.7" y="365.8" class="st0" width="2.8" height="3.8"/>
				<rect x="810.3" y="365.8" class="st0" width="5.6" height="10.3"/>
			</g>
		</g>
	</g>
</g>
<g id="vSAN_vMotion">
	<g id="Layer_7">
	</g>
	<g>
		<g>
			<g>
				<path class="st16" d="M436.6,608.5L436.6,608.5l-0.4-0.1c-9.3-1-16.4-10-16.4-20.9s7-19.9,16.4-20.9l0.4,0v0h583.6l0.2,0
					c9.2,0.4,16.4,9.6,16.4,21s-7.2,20.6-16.4,21l-0.4,0H436.6z"/>
				<path d="M1019.9,567l0.4,0c8.9,0.4,15.9,9.4,15.9,20.5s-7,20.1-15.9,20.5l-0.3,0H437l-0.9-0.1c-9.1-1-15.9-9.8-15.9-20.4
					s6.9-19.4,15.9-20.4l0.9-0.1H1019.9 M1020.4,566H436.1v0.1c-9.4,1-16.8,10.2-16.8,21.4c0,11.2,7.4,20.4,16.8,21.4v0.1h584.3v0
					c9.3-0.4,16.8-9.9,16.8-21.5S1029.7,566.4,1020.4,566L1020.4,566L1020.4,566z"/>
			</g>
			<g>
				<path class="st0" d="M1018.6,605c-6.7,0-12.1-8-12.1-17.9c0-9.9,5.4-17.9,12.1-17.9c6.7,0,12.1,8,12.1,17.9
					C1030.7,596.9,1025.3,605,1018.6,605z"/>
				<path d="M1018.6,569.6c6.4,0,11.6,7.8,11.6,17.4c0,9.6-5.2,17.4-11.6,17.4c-6.4,0-11.6-7.8-11.6-17.4
					C1007,577.5,1012.2,569.6,1018.6,569.6 M1018.6,568.6c-7,0-12.6,8.3-12.6,18.4s5.7,18.4,12.6,18.4c7,0,12.6-8.3,12.6-18.4
					S1025.6,568.6,1018.6,568.6L1018.6,568.6z"/>
			</g>
		</g>
		<text transform="matrix(1 0 0 1 595.2317 596)" class="st7 st8">vSAN &amp; vMotion -- Private VLAN B</text>
	</g>
</g>
<g id="Logical_swiitch">
	<g>
		<g>
			<g>
				<g>
					<path class="st14" d="M644.8,480.5L644.8,480.5l-0.4-0.1c-6-1-10.6-10.2-10.6-20.9s4.7-19.9,10.6-20.9l0.4-0.1v0H1027l0.2,0
						c5.8,0.4,10.6,9.8,10.6,21s-4.7,20.6-10.6,21l-0.3,0H644.8z"/>
					<path d="M1026.9,439l0.3,0c5.6,0.4,10.1,9.5,10.1,20.5s-4.5,20.1-10.1,20.5l-0.2,0H645l-0.5-0.1c-5.7-1-10.2-9.9-10.2-20.4
						s4.5-19.4,10.2-20.4l0.5-0.1H1026.9 M1027.2,438H644.3v0.1c-6.2,1-11,10.2-11,21.4c0,11.2,4.8,20.4,11,21.4v0.1h382.9v0
						c6.1-0.4,11-9.9,11-21.5S1033.3,438.4,1027.2,438L1027.2,438L1027.2,438z"/>
				</g>
				<g>
					<ellipse class="st0" cx="1021.4" cy="459.1" rx="12.4" ry="17.9"/>
					<path d="M1021.4,441.6c6.6,0,11.9,7.8,11.9,17.4c0,9.6-5.3,17.4-11.9,17.4s-11.9-7.8-11.9-17.4
						C1009.5,449.5,1014.8,441.6,1021.4,441.6 M1021.4,440.6c-7.1,0-12.9,8.3-12.9,18.4c0,10.2,5.8,18.4,12.9,18.4
						c7.1,0,12.9-8.3,12.9-18.4C1034.3,448.9,1028.5,440.6,1021.4,440.6L1021.4,440.6z"/>
				</g>
			</g>
		</g>
		<text transform="matrix(1 0 0 1 692.2317 467)" class="st7 st8">Logical Switch Network (VXLAN)</text>
	</g>
	<g id="Layer_9">
	</g>
</g>
<g id="extended_network">
	<g>
		<g>
			<path class="st17" d="M1015.7,368.5H862.2c-9.4,0-17,8.3-17,18.5c0,10.2,7.6,18.5,17,18.5h153.5c9.4,0,17-8.3,17-18.5
				C1032.7,376.8,1025.1,368.5,1015.7,368.5z"/>
			<ellipse class="st18" cx="1015.1" cy="387" rx="11.4" ry="15.5"/>
		</g>
		<text transform="matrix(1 0 0 1 857.7317 393)" class="st7 st15">Extended Network</text>
	</g>
</g>
<g id="management_vxlan">
	<g id="Layer_6">
	</g>
	<g>
		<g>
			<g>
				<path class="st19" d="M435.6,547.5L435.6,547.5l-0.4-0.1c-9.3-1.1-16.4-10.3-16.4-21.4s7-20.3,16.4-21.4l0.4-0.1v-0.1h583.6
					l0.2,0c9.2,0.4,16.4,9.8,16.4,21.5s-7.2,21.1-16.4,21.5l-0.4,0H435.6z"/>
				<path d="M1018.9,505l0.4,0c8.9,0.4,15.9,9.6,15.9,21s-7,20.6-15.9,21l-0.3,0H436l-0.9-0.1c-9.1-1-15.9-10-15.9-20.9
					s6.9-19.9,15.9-20.9l0.9-0.1H1018.9 M1019.4,504H435.1v0.1c-9.4,1.1-16.8,10.5-16.8,21.9c0,11.4,7.4,20.8,16.8,21.9v0.1h584.3v0
					c9.3-0.4,16.8-10.1,16.8-22C1036.2,514.1,1028.7,504.4,1019.4,504L1019.4,504L1019.4,504z"/>
			</g>
			<g>
				<path class="st0" d="M1017.6,543.9c-6.7,0-12.1-8.2-12.1-18.4c0-10.1,5.4-18.4,12.1-18.4c6.7,0,12.1,8.2,12.1,18.4
					C1029.7,535.7,1024.3,543.9,1017.6,543.9z"/>
				<path d="M1017.6,507.7c6.4,0,11.6,8,11.6,17.9c0,9.8-5.2,17.9-11.6,17.9c-6.4,0-11.6-8-11.6-17.9
					C1006,515.7,1011.2,507.7,1017.6,507.7 M1017.6,506.7c-7,0-12.6,8.4-12.6,18.9c0,10.4,5.7,18.9,12.6,18.9
					c7,0,12.6-8.4,12.6-18.9C1030.2,515.1,1024.6,506.7,1017.6,506.7L1017.6,506.7z"/>
			</g>
		</g>
		<text transform="matrix(1 0 0 1 536.2317 533)" class="st7 st8">Management &amp; VXLAN -- Private VLAN A (native)</text>
	</g>
</g>
<g id="P_x2F_V">
	<g>
		<line class="st1" x1="454.2" y1="190" x2="454.2" y2="503.5"/>
		<g>
			<g>
				<g>
					<rect x="430.7" y="280" class="st20" width="47.3" height="47.3"/>
					<linearGradient id="SVGID_1_" gradientUnits="userSpaceOnUse" x1="462.1944" y1="296.7212" x2="450.7413" y2="338.8456">
						<stop  offset="0" style="stop-color:#CCE0F4"/>
						<stop  offset="7.748766e-02" style="stop-color:#C5DDF3"/>
						<stop  offset="0.1918" style="stop-color:#B1D5EF"/>
						<stop  offset="0.329" style="stop-color:#90C9EA"/>
						<stop  offset="0.4838" style="stop-color:#63B7E2"/>
						<stop  offset="0.6515" style="stop-color:#2AA1D9"/>
						<stop  offset="0.6829" style="stop-color:#1E9CD7"/>
						<stop  offset="0.8652" style="stop-color:#0075BE"/>
						<stop  offset="0.9944" style="stop-color:#005B97"/>
					</linearGradient>
					<polygon class="st21" points="432.6,325.5 476.2,281.8 476.2,325.5 					"/>
				</g>
				<text transform="matrix(1 0 0 1 434.3157 315.4692)" class="st0 st13 st22">P</text>
				<text transform="matrix(1 0 0 1 442.9153 324.0688)" class="st0 st13 st22">V</text>
				<g>
					<g>
						<g>
							<g>
								<polygon class="st0" points="436.4,288.6 439,297.8 445.4,291.8 								"/>
							</g>
						</g>
					</g>
					<g>
						<g>
							<g>
								
									<rect x="443.2" y="293.5" transform="matrix(0.7268 -0.6868 0.6868 0.7268 -83.0167 387.2081)" class="st0" width="4.1" height="9"/>
							</g>
						</g>
					</g>
				</g>
				<g>
					<g>
						<g>
							<g>
								<polygon class="st0" points="468.8,322.1 458.7,318.2 465.4,311.8 								"/>
							</g>
						</g>
					</g>
					<g>
						<g>
							<g>
								
									<rect x="456.5" y="306.1" transform="matrix(0.7268 -0.6868 0.6868 0.7268 -88.5076 400.0109)" class="st0" width="4.3" height="10.4"/>
							</g>
						</g>
					</g>
				</g>
			</g>
		</g>
	</g>
</g>
<g id="Layer_15">
	<g>
		<g>
			<g>
				<rect x="383.7" y="720.9" class="st20" width="38.1" height="38.1"/>
				<linearGradient id="SVGID_2_" gradientUnits="userSpaceOnUse" x1="409.057" y1="734.3933" x2="399.838" y2="768.3004">
					<stop  offset="0" style="stop-color:#CCE0F4"/>
					<stop  offset="7.748766e-02" style="stop-color:#C5DDF3"/>
					<stop  offset="0.1918" style="stop-color:#B1D5EF"/>
					<stop  offset="0.329" style="stop-color:#90C9EA"/>
					<stop  offset="0.4838" style="stop-color:#63B7E2"/>
					<stop  offset="0.6515" style="stop-color:#2AA1D9"/>
					<stop  offset="0.6829" style="stop-color:#1E9CD7"/>
					<stop  offset="0.8652" style="stop-color:#0075BE"/>
					<stop  offset="0.9944" style="stop-color:#005B97"/>
				</linearGradient>
				<polygon class="st23" points="385.2,757.5 420.3,722.4 420.3,757.5 				"/>
			</g>
			<text transform="matrix(1 0 0 1 386.6165 749.484)" class="st0 st13 st24">P</text>
			<text transform="matrix(1 0 0 1 393.5388 756.4059)" class="st0 st13 st24">V</text>
			<g>
				<g>
					<g>
						<g>
							<polygon class="st0" points="388.3,727.9 390.4,735.3 395.6,730.4 							"/>
						</g>
					</g>
				</g>
				<g>
					<g>
						<g>
							
								<rect x="393.8" y="731.8" transform="matrix(0.7268 -0.6868 0.6868 0.7268 -397.0587 472.4736)" class="st0" width="3.3" height="7.2"/>
						</g>
					</g>
				</g>
			</g>
			<g>
				<g>
					<g>
						<g>
							<polygon class="st0" points="414.4,754.9 406.2,751.7 411.7,746.5 							"/>
						</g>
					</g>
				</g>
				<g>
					<g>
						<g>
							
								<rect x="404.4" y="741.9" transform="matrix(0.7268 -0.6868 0.6868 0.7268 -401.4876 482.7952)" class="st0" width="3.5" height="8.4"/>
						</g>
					</g>
				</g>
			</g>
		</g>
	</g>
	<text transform="matrix(1 0 0 1 371.2317 780)" class="st7 st15">NSX Edge</text>
</g>
<g id="L2_concentrator_bottom">
	<g>
		<path class="st14" d="M1026.2,757h-18.5c-6.6,0-12-5.4-12-12v-15c0-6.6,5.4-12,12-12h18.5c6.6,0,12,5.4,12,12v15
			C1038.2,751.6,1032.8,757,1026.2,757z"/>
		<g>
			<rect x="1005.2" y="727.4" class="st0" width="23.6" height="12.7"/>
			<rect x="1008.9" y="737.1" class="st0" width="16.2" height="6"/>
			<rect x="1008.9" y="731.9" class="st14" width="16.2" height="1.5"/>
			<rect x="1014.8" y="741.6" class="st0" width="4.4" height="10.4"/>
			<rect x="1007.4" y="722.9" class="st0" width="4.4" height="8.2"/>
			<rect x="1014" y="722.9" class="st0" width="2.2" height="3"/>
			<rect x="1017.7" y="722.9" class="st0" width="2.2" height="3"/>
			<rect x="1022.1" y="722.9" class="st0" width="4.4" height="8.2"/>
		</g>
	</g>
	<text transform="matrix(1 0 0 1 957.2317 780)" class="st7 st15">L2 Concentrator</text>
</g>
<g id="Layer_16">
	<g>
		<g>
			<rect x="497.2" y="722" class="st25" width="41.1" height="37"/>
			<rect x="537.4" y="722" class="st26" width="89.8" height="37"/>
		</g>
		<text transform="matrix(1 0 0 1 503.5295 746.4043)" class="st0 st7 st27">VM</text>
		<text transform="matrix(1 0 0 1 542.1682 746.4043)" class="st0 st7 st27">HCX Cloud</text>
	</g>
	<text transform="matrix(1 0 0 1 509.2317 780)" class="st7 st15">HCX Manager</text>
</g>
<g id="VM_HCX">
	<g>
		<line class="st1" x1="545.7" y1="407.5" x2="545.7" y2="503.5"/>
		<g>
			<rect x="470.2" y="360.8" class="st25" width="48" height="47"/>
			<rect x="517.2" y="360.8" class="st26" width="114" height="47"/>
		</g>
		<text transform="matrix(1 0 0 1 478.2317 391.75)" class="st0 st7 st8">VM</text>
		<text transform="matrix(1 0 0 1 522.2317 391.75)" class="st0 st7 st8">HCX Cloud</text>
	</g>
</g>
</svg>
