<?xml version="1.0" encoding="utf-8"?>
<!-- Generator: Adobe Illustrator 22.0.0, SVG Export Plug-In . SVG Version: 6.00 Build 0)  -->
<svg version="1.1" xmlns="http://www.w3.org/2000/svg" xmlns:xlink="http://www.w3.org/1999/xlink" x="0px" y="0px"
	 viewBox="0 0 768.7 431.9" style="enable-background:new 0 0 768.7 431.9;" xml:space="preserve">
<style type="text/css">
	.st0{fill:#808080;}
	.st1{fill:#0000FF;}
	.st2{fill:#FFFFFF;}
	.st3{fill:#CCCCCC;}
	.st4{font-family:'IBMPlexSans';}
	.st5{font-size:18px;}
	.st6{font-size:14px;}
	.st7{fill:#8467FF;}
	.st8{fill:#BA91F2;}
	.st9{fill:none;stroke:#808080;stroke-width:2;stroke-miterlimit:10;}
</style>
<g id="_x31_st_site_group">
	<g>
		<g id="biggest_rectangle_1_">
			<path class="st0" d="M359.3,248v174H8.3V248H359.3 M361.3,246H6.3v178h355V246L361.3,246z"/>
		</g>
		<g id="middle_colored_rectangle_1_">
			<rect x="26.3" y="293" class="st1" width="316" height="87"/>
			<path class="st0" d="M341.3,294v85h-314v-85H341.3 M343.3,292h-318v89h318V292L343.3,292z"/>
		</g>
		<g id="smallest_rectangle_1_">
			<rect x="306.3" y="341.7" class="st2" width="17" height="16.3"/>
			<path class="st0" d="M322.3,342.7V357h-15v-14.3H322.3 M324.3,340.7h-19V359h19V340.7L324.3,340.7z"/>
		</g>
		<g id="smallest_rectangle_2_">
			<rect x="306.3" y="312.7" class="st3" width="17" height="16.3"/>
			<path class="st0" d="M322.3,313.7V328h-15v-14.3H322.3 M324.3,311.7h-19V330h19V311.7L324.3,311.7z"/>
		</g>
		<text transform="matrix(1 0 0 1 31.3333 278)" class="st4 st5">1st Site - Site A in an Availability Zone</text>
		<text transform="matrix(1 0 0 1 142.3333 406)" class="st4 st5">10.72.x.x</text>
		<text transform="matrix(1 0 0 1 67.3333 325)" class="st2 st4 st6">vCenter Server Appliance (Active)</text>
		<text transform="matrix(1 0 0 1 45.3333 355)" class="st2 st4 st6">Embedded Platform Services Controller</text>
	</g>
</g>
<g id="_x32_nd_site_group">
	<g>
		<g id="biggest_rectangle_2_">
			<path class="st0" d="M758.3,248v174h-351V248H758.3 M760.3,246h-355v178h355V246L760.3,246z"/>
		</g>
		<g id="middle_colored_rectangle_2_">
			<rect x="425.3" y="293" class="st7" width="316" height="87"/>
			<path class="st0" d="M740.3,294v85h-314v-85H740.3 M742.3,292h-318v89h318V292L742.3,292z"/>
		</g>
		<g id="smallest_rectangle_6_">
			<rect x="445.3" y="341.7" class="st2" width="17" height="16.3"/>
			<path class="st0" d="M461.3,342.7V357h-15v-14.3H461.3 M463.3,340.7h-19V359h19V340.7L463.3,340.7z"/>
		</g>
		<g id="smallest_rectangle_3_">
			<rect x="445.3" y="312.7" class="st3" width="17" height="16.3"/>
			<path class="st0" d="M461.3,313.7V328h-15v-14.3H461.3 M463.3,311.7h-19V330h19V311.7L463.3,311.7z"/>
		</g>
		<text transform="matrix(1 0 0 1 430.3333 278)" class="st4 st5">2nd Site - Site B in an Availability Zone</text>
		<text transform="matrix(1 0 0 1 541.3333 406)" class="st4 st5">10.128.x.x</text>
		<text transform="matrix(1 0 0 1 488.3333 325)" class="st2 st4 st6">vCenter Server Appliance (Passive)</text>
		<text transform="matrix(1 0 0 1 472.3333 355)" class="st2 st4 st6">Embedded Platform Services Controller</text>
	</g>
</g>
<g id="_x33_rd_site_group">
	<g>
		<g id="biggest_rectangle">
			<path class="st0" d="M554.3,8v196h-329V8H554.3 M556.3,6h-333v200h333V6L556.3,6z"/>
		</g>
		<g id="middle_colored_rectangle">
			<rect x="243.3" y="89" class="st8" width="286.4" height="107"/>
			<path class="st0" d="M528.7,90v105H244.3V90H528.7 M530.7,88H242.3v109h288.4V88L530.7,88z"/>
		</g>
		<g id="smallest_rectangle">
			<rect x="375.3" y="167.7" class="st2" width="17" height="16.3"/>
			<path class="st0" d="M391.3,168.7V183h-15v-14.3H391.3 M393.3,166.7h-19V185h19V166.7L393.3,166.7z"/>
		</g>
		<text transform="matrix(1 0 0 1 234.3333 38)" class="st4 st5">3rd Site - Site C in an Availability Zone</text>
		<text transform="matrix(1 0 0 1 336.3333 78)" class="st4 st5">10.196.x.x</text>
		<text transform="matrix(1 0 0 1 270.3333 120)" class="st2 st4 st6">vCenter Server Appliance (Witness)</text>
		<text transform="matrix(1 0 0 1 262.3333 153)" class="st2 st4 st6">Embedded Platform Services Controller</text>
	</g>
</g>
<g id="lines">
	<line class="st9" x1="379.3" y1="184" x2="323.3" y2="341"/>
	<line class="st9" x1="389.3" y1="184" x2="446.3" y2="341"/>
	<line class="st9" x1="324.3" y1="350" x2="444.3" y2="350"/>
</g>
</svg>
