<?xml version="1.0" encoding="utf-8"?>
<!-- Generator: Adobe Illustrator 22.0.0, SVG Export Plug-In . SVG Version: 6.00 Build 0)  -->
<svg version="1.1" id="Layer_1" xmlns="http://www.w3.org/2000/svg" xmlns:xlink="http://www.w3.org/1999/xlink" x="0px" y="0px"
	 viewBox="0 0 922 341" style="enable-background:new 0 0 922 341;" xml:space="preserve">
<style type="text/css">
	.st0{fill:#00ABB0;stroke:#00ABB0;stroke-miterlimit:10;}
	.st1{fill:#FFFFFF;}
	.st2{font-family:'IBMPlexSans';}
	.st3{font-size:17.9367px;}
	.st4{fill:#118ACB;stroke:#118ACB;stroke-miterlimit:10;}
	.st5{fill:none;stroke:#118ACB;stroke-miterlimit:10;}
	.st6{fill:#118ACB;}
</style>
<g>
	<rect x="357.1" y="141.9" class="st0" width="178.7" height="54.8"/>
	<text transform="matrix(0.9982 0 0 1 377.8291 174.515)" class="st1 st2 st3">Primary Instance</text>
	<g>
		<rect x="146" y="7.3" class="st4" width="178.7" height="54.8"/>
		<text transform="matrix(0.9982 0 0 1 155.3139 39.9681)" class="st1 st2 st3">Secondary Instance</text>
		<rect x="567.3" y="7.3" class="st4" width="178.7" height="54.8"/>
		<text transform="matrix(0.9982 0 0 1 576.6318 39.9681)" class="st1 st2 st3">Secondary Instance</text>
	</g>
	<g>
		<rect x="146" y="277.5" class="st4" width="178.7" height="54.8"/>
		<text transform="matrix(0.9982 0 0 1 155.3139 310.182)" class="st1 st2 st3">Secondary Instance</text>
		<rect x="567.3" y="277.5" class="st4" width="178.7" height="54.8"/>
		<text transform="matrix(0.9982 0 0 1 576.6318 310.182)" class="st1 st2 st3">Secondary Instance</text>
	</g>
	<g>
		<g>
			<g>
				<line class="st5" x1="328.4" y1="34.7" x2="440.7" y2="136.2"/>
				<g>
					<path class="st6" d="M443.4,138.6c-1.7-0.7-4-1.3-5.7-1.3l2.7-1.4l1.1-2.8C441.7,134.8,442.5,137,443.4,138.6z"/>
				</g>
			</g>
		</g>
		<g>
			<g>
				<line class="st5" x1="563.1" y1="34.7" x2="450.9" y2="136.2"/>
				<g>
					<path class="st6" d="M448.2,138.6c0.8-1.6,1.7-3.8,1.9-5.6l1.1,2.8l2.7,1.4C452.2,137.3,449.9,137.9,448.2,138.6z"/>
				</g>
			</g>
		</g>
	</g>
	<g>
		<g>
			<g>
				<line class="st5" x1="328.4" y1="304.6" x2="440.7" y2="203.1"/>
				<g>
					<path class="st6" d="M443.4,200.7c-0.8,1.6-1.7,3.8-1.9,5.6l-1.1-2.8l-2.7-1.4C439.4,202,441.7,201.3,443.4,200.7z"/>
				</g>
			</g>
		</g>
		<g>
			<g>
				<line class="st5" x1="563.1" y1="304.6" x2="450.9" y2="203.1"/>
				<g>
					<path class="st6" d="M448.2,200.7c1.7,0.7,4,1.3,5.7,1.3l-2.7,1.4l-1.1,2.8C449.9,204.5,449,202.3,448.2,200.7z"/>
				</g>
			</g>
		</g>
	</g>
	<g>
		<path class="st4" d="M229.1,114.2c0,1.8-1.4,3.2-3.2,3.2c-1.8,0-3.2-1.4-3.2-3.2s1.4-3.2,3.2-3.2
			C227.7,111,229.1,112.4,229.1,114.2z"/>
		<path class="st4" d="M229.1,173.5c0,1.8-1.4,3.2-3.2,3.2c-1.8,0-3.2-1.4-3.2-3.2c0-1.8,1.4-3.2,3.2-3.2
			C227.7,170.3,229.1,171.7,229.1,173.5z"/>
		<path class="st4" d="M229.1,224c0,1.8-1.4,3.2-3.2,3.2c-1.8,0-3.2-1.4-3.2-3.2c0-1.8,1.4-3.2,3.2-3.2
			C227.7,220.8,229.1,222.3,229.1,224z"/>
	</g>
	<g>
		<path class="st4" d="M653.3,120.9c0,1.8-1.4,3.2-3.2,3.2c-1.8,0-3.2-1.4-3.2-3.2c0-1.8,1.4-3.2,3.2-3.2
			C651.8,117.7,653.3,119.2,653.3,120.9z"/>
		<path class="st4" d="M653.3,180.2c0,1.8-1.4,3.2-3.2,3.2c-1.8,0-3.2-1.4-3.2-3.2c0-1.8,1.4-3.2,3.2-3.2
			C651.8,177,653.3,178.4,653.3,180.2z"/>
		<path class="st4" d="M653.3,230.8c0,1.8-1.4,3.2-3.2,3.2c-1.8,0-3.2-1.4-3.2-3.2c0-1.8,1.4-3.2,3.2-3.2
			C651.8,227.6,653.3,229,653.3,230.8z"/>
	</g>
</g>
</svg>
