<?xml version="1.0" encoding="UTF-8"?>
<svg xmlns="http://www.w3.org/2000/svg" xmlns:xlink="http://www.w3.org/1999/xlink" version="1.1" width="625px" height="334px" viewBox="-0.5 -0.5 625 334"><defs/><g><rect x="0" y="3" width="143" height="270" rx="21.45" ry="21.45" fill="#dae8fc" stroke="#6c8ebf" pointer-events="none"/><rect x="150" y="202" width="400" height="67" fill="#bac8d3" stroke="#23445d" pointer-events="none"/><g fill="#000000" font-family="Helvetica" text-anchor="middle" font-size="18px"><text x="349.5" y="246.5">Physical Layer</text></g><rect x="150" y="135" width="400" height="67" fill="#e1d5e7" stroke="#9673a6" pointer-events="none"/><rect x="150" y="68" width="400" height="67" fill="#d5e8d4" stroke="#82b366" pointer-events="none"/><rect x="150" y="1" width="400" height="67" fill="#fff2cc" stroke="#d6b656" pointer-events="none"/><rect x="-20.5" y="111" width="247" height="60" fill="#ffffff" stroke="#000000" transform="rotate(-90,103,141)" pointer-events="none"/><g fill="#000000" font-family="Helvetica" text-anchor="middle" font-size="18px" transform="rotate(-90,103,141)"><text x="102.5" y="147.5">Operational Management</text></g><rect x="11" y="142" width="60" height="61" fill="#ffffff" stroke="#000000" transform="rotate(-90,41,172.5)" pointer-events="none"/><g fill="#000000" font-family="Helvetica" text-anchor="middle" font-size="13px" transform="rotate(-90,41,172.5)"><text x="40.5" y="176.5">vROps</text></g><rect x="11" y="79" width="60" height="61" fill="#ffffff" stroke="#000000" transform="rotate(-90,41,109.5)" pointer-events="none"/><g fill="#000000" font-family="Helvetica" text-anchor="middle" font-size="13px" transform="rotate(-90,41,109.5)"><text x="40.5" y="113.5">vRLI</text></g><rect x="11" y="17" width="60" height="61" fill="#ffffff" stroke="#000000" transform="rotate(-90,41,47.5)" pointer-events="none"/><g fill="#000000" font-family="Helvetica" text-anchor="middle" font-size="13px" transform="rotate(-90,41,47.5)"><text x="40.5" y="51.5">vRNI</text></g><rect x="11" y="204" width="60" height="61" fill="#ffffff" stroke="#000000" transform="rotate(-90,41,234.5)" pointer-events="none"/><g fill="#000000" font-family="Helvetica" text-anchor="middle" font-size="13px" transform="rotate(-90,41,234.5)"><text x="40.5" y="238.5">VUM</text></g><rect x="286.5" y="-3.5" width="50" height="623" fill="#ffe6cc" stroke="#d79b00" transform="rotate(90,311.5,308)" pointer-events="none"/><g fill="#000000" font-family="Helvetica" text-anchor="middle" font-size="18px"><text x="372" y="114.5">Business Continuity Layer</text></g><g fill="#000000" font-family="Helvetica" text-anchor="middle" font-size="18px"><text x="349.5" y="37.5">Security Layer</text></g><rect x="459" y="105" width="270" height="60" fill="#f5f5f5" stroke="#666666" transform="rotate(-90,594,135)" pointer-events="none"/><g fill="#000000" font-family="Helvetica" text-anchor="middle" font-size="18px"><text x="349.5" y="174.5">Virtual Infrastructure Layer</text></g><g fill="#000000" font-family="Helvetica" text-anchor="middle" font-size="18px"><text x="319.5" y="314.5">Service Management Layer</text></g><g fill="#000000" font-family="Helvetica" text-anchor="middle" font-size="18px" transform="rotate(-90,593.5,138)"><text x="593" y="144.5">Cloud Management</text></g></g></svg>
