<?xml version="1.0" encoding="UTF-8"?>
<!DOCTYPE svg PUBLIC "-//W3C//DTD SVG 1.1//EN" "http://www.w3.org/Graphics/SVG/1.1/DTD/svg11.dtd">
<svg xmlns="http://www.w3.org/2000/svg" xmlns:xlink="http://www.w3.org/1999/xlink" version="1.1" width="881px" height="646px" viewBox="-0.5 -0.5 881 646"><defs/><g><rect x="0" y="481" width="310" height="99" fill="rgb(255, 255, 255)" stroke="rgb(0, 0, 0)" pointer-events="all"/><g fill="rgb(0, 0, 0)" font-family="Helvetica" text-anchor="middle" font-size="12px"><text x="154.5" y="521">vSphere hosts</text><text x="154.5" y="535">VM Hardware</text><text x="154.5" y="549">VM Tools</text></g><rect x="0" y="390" width="310" height="80" fill="rgb(255, 255, 255)" stroke="rgb(0, 0, 0)" pointer-events="all"/><g fill="rgb(0, 0, 0)" font-family="Helvetica" text-anchor="middle" font-size="12px"><text x="154.5" y="434.5">VMs</text><text x="154.5" y="448.5">vRealize Operations</text><text x="154.5" y="462.5">vRealize Business for Cloud</text></g><rect x="0" y="120" width="310" height="260" fill="rgb(255, 255, 255)" stroke="rgb(0, 0, 0)" pointer-events="all"/><g fill="rgb(0, 0, 0)" font-family="Helvetica" text-anchor="middle" font-size="12px"><text x="154.5" y="170.5">vCenter</text><text x="154.5" y="184.5">Platform Services Controller</text><text x="154.5" y="198.5">Microsoft AD Servers</text><text x="154.5" y="212.5">vSphere hosts</text><text x="154.5" y="226.5">NSX Manager</text><text x="154.5" y="240.5">NSX Edges</text><text x="154.5" y="254.5">HCX</text><text x="154.5" y="268.5">F5</text><text x="154.5" y="282.5">NSX logical switches</text><text x="154.5" y="296.5">NSX logical routers</text><text x="154.5" y="310.5">NSX distributed firewall ESXi kernel module</text><text x="154.5" y="324.5">vRealize Operations Manager Analytics cluster nodes</text><text x="154.5" y="338.5">vRealize Operations Manager Remote collectors</text></g><rect x="0" y="120" width="310" height="40" fill="none" stroke="none" pointer-events="all"/><g fill="rgb(0, 0, 0)" font-family="Helvetica" font-weight="bold" text-anchor="middle" font-size="12px"><text x="154.5" y="137.5">Log and metrics sources</text></g><rect x="0" y="385" width="310" height="40" fill="none" stroke="none" pointer-events="all"/><g fill="rgb(0, 0, 0)" font-family="Helvetica" font-weight="bold" text-anchor="middle" font-size="12px"><text x="154.5" y="402.5">Client-configured</text><text x="154.5" y="416.5">log and metrics sources</text></g><rect x="0" y="481" width="310" height="40" fill="none" stroke="none" pointer-events="all"/><g fill="rgb(0, 0, 0)" font-family="Helvetica" font-weight="bold" text-anchor="middle" font-size="12px"><text x="154.5" y="498.5">Components</text></g><rect x="500" y="120" width="120" height="60" fill="#dae8fc" stroke="#6c8ebf" pointer-events="all"/><g fill="rgb(0, 0, 0)" font-family="Helvetica" text-anchor="middle" font-size="12px"><text x="559.5" y="140.5">vRealize</text><text x="559.5" y="154.5">Operations</text><text x="559.5" y="168.5">Manager</text></g><rect x="500" y="220" width="120" height="60" fill="#d5e8d4" stroke="#82b366" pointer-events="all"/><g fill="rgb(0, 0, 0)" font-family="Helvetica" text-anchor="middle" font-size="12px"><text x="559.5" y="247.5">vRealize</text><text x="559.5" y="261.5">Log Insight</text></g><rect x="500" y="320" width="120" height="60" fill="#ffe6cc" stroke="#d79b00" pointer-events="all"/><g fill="rgb(0, 0, 0)" font-family="Helvetica" text-anchor="middle" font-size="12px"><text x="559.5" y="347.5">vRealize</text><text x="559.5" y="361.5">Network Insight</text></g><rect x="500" y="500" width="120" height="60" fill="#f8cecc" stroke="#b85450" pointer-events="all"/><g fill="rgb(0, 0, 0)" font-family="Helvetica" text-anchor="middle" font-size="12px"><text x="559.5" y="527.5">VMware Update</text><text x="559.5" y="541.5">Manager</text></g><rect x="500" y="581" width="120" height="60" fill="#e1d5e7" stroke="#9673a6" pointer-events="all"/><g fill="rgb(0, 0, 0)" font-family="Helvetica" text-anchor="middle" font-size="12px"><text x="559.5" y="615.5">Proxy</text></g><path d="M 310 250 L 390 250 Q 400 250 400 240 L 400 160 Q 400 150 410 150 L 493.63 150" fill="none" stroke="rgb(0, 0, 0)" stroke-miterlimit="10" pointer-events="stroke"/><path d="M 498.88 150 L 491.88 153.5 L 493.63 150 L 491.88 146.5 Z" fill="rgb(0, 0, 0)" stroke="rgb(0, 0, 0)" stroke-miterlimit="10" pointer-events="all"/><path d="M 310 250 L 493.63 250" fill="none" stroke="rgb(0, 0, 0)" stroke-miterlimit="10" pointer-events="stroke"/><path d="M 498.88 250 L 491.88 253.5 L 493.63 250 L 491.88 246.5 Z" fill="rgb(0, 0, 0)" stroke="rgb(0, 0, 0)" stroke-miterlimit="10" pointer-events="all"/><path d="M 310 430 L 340 430 Q 350 430 350 420 L 350 260 Q 350 250 360 250 L 493.63 250" fill="none" stroke="rgb(0, 0, 0)" stroke-miterlimit="10" pointer-events="stroke"/><path d="M 498.88 250 L 491.88 253.5 L 493.63 250 L 491.88 246.5 Z" fill="rgb(0, 0, 0)" stroke="rgb(0, 0, 0)" stroke-miterlimit="10" pointer-events="all"/><path d="M 310 250 L 390 250 Q 400 250 400 260 L 400 340 Q 400 350 410 350 L 493.63 350" fill="none" stroke="rgb(0, 0, 0)" stroke-miterlimit="10" pointer-events="stroke"/><path d="M 498.88 350 L 491.88 353.5 L 493.63 350 L 491.88 346.5 Z" fill="rgb(0, 0, 0)" stroke="rgb(0, 0, 0)" stroke-miterlimit="10" pointer-events="all"/><path d="M 500 530 L 316.37 530.48" fill="none" stroke="rgb(0, 0, 0)" stroke-miterlimit="10" pointer-events="stroke"/><path d="M 311.12 530.5 L 318.11 526.98 L 316.37 530.48 L 318.13 533.98 Z" fill="rgb(0, 0, 0)" stroke="rgb(0, 0, 0)" stroke-miterlimit="10" pointer-events="all"/><path d="M 620 530 L 660 530 Q 670 530 670 540 L 670 586 Q 670 596 660 596 L 626.37 596" fill="none" stroke="rgb(0, 0, 0)" stroke-miterlimit="10" pointer-events="stroke"/><path d="M 621.12 596 L 628.12 592.5 L 626.37 596 L 628.12 599.5 Z" fill="rgb(0, 0, 0)" stroke="rgb(0, 0, 0)" stroke-miterlimit="10" pointer-events="all"/><path d="M 620 626 L 683.63 626" fill="none" stroke="rgb(0, 0, 0)" stroke-miterlimit="10" pointer-events="stroke"/><path d="M 688.88 626 L 681.88 629.5 L 683.63 626 L 681.88 622.5 Z" fill="rgb(0, 0, 0)" stroke="rgb(0, 0, 0)" stroke-miterlimit="10" pointer-events="all"/><path d="M 620 150 L 683.63 150" fill="none" stroke="rgb(0, 0, 0)" stroke-miterlimit="10" pointer-events="stroke"/><path d="M 688.88 150 L 681.88 153.5 L 683.63 150 L 681.88 146.5 Z" fill="rgb(0, 0, 0)" stroke="rgb(0, 0, 0)" stroke-miterlimit="10" pointer-events="all"/><path d="M 620 235 L 683.63 235" fill="none" stroke="rgb(0, 0, 0)" stroke-miterlimit="10" pointer-events="stroke"/><path d="M 688.88 235 L 681.88 238.5 L 683.63 235 L 681.88 231.5 Z" fill="rgb(0, 0, 0)" stroke="rgb(0, 0, 0)" stroke-miterlimit="10" pointer-events="all"/><path d="M 690 265 L 626.37 265" fill="none" stroke="rgb(0, 0, 0)" stroke-miterlimit="10" pointer-events="stroke"/><path d="M 621.12 265 L 628.12 261.5 L 626.37 265 L 628.12 268.5 Z" fill="rgb(0, 0, 0)" stroke="rgb(0, 0, 0)" stroke-miterlimit="10" pointer-events="all"/><rect x="460" y="40" width="140" height="40" fill="none" stroke="none" pointer-events="all"/><g fill="rgb(0, 0, 0)" font-family="Helvetica" text-anchor="middle" font-size="12px"><text x="529.5" y="64.5">Active Directory</text></g><path d="M 590 113.63 L 590 36.37" fill="none" stroke="rgb(0, 0, 0)" stroke-miterlimit="10" pointer-events="stroke"/><path d="M 590 118.88 L 586.5 111.88 L 590 113.63 L 593.5 111.88 Z" fill="rgb(0, 0, 0)" stroke="rgb(0, 0, 0)" stroke-miterlimit="10" pointer-events="all"/><path d="M 590 31.12 L 593.5 38.12 L 590 36.37 L 586.5 38.12 Z" fill="rgb(0, 0, 0)" stroke="rgb(0, 0, 0)" stroke-miterlimit="10" pointer-events="all"/><path d="M 530 120 L 530 76.37" fill="none" stroke="rgb(0, 0, 0)" stroke-miterlimit="10" pointer-events="stroke"/><path d="M 530 71.12 L 533.5 78.12 L 530 76.37 L 526.5 78.12 Z" fill="rgb(0, 0, 0)" stroke="rgb(0, 0, 0)" stroke-miterlimit="10" pointer-events="all"/><rect x="520" y="0" width="140" height="40" fill="none" stroke="none" pointer-events="all"/><g fill="rgb(0, 0, 0)" font-family="Helvetica" text-anchor="middle" font-size="12px"><text x="589.5" y="24.5">Federation from other vROps Managers</text></g><rect x="689" y="128" width="140" height="40" fill="none" stroke="none" pointer-events="all"/><g fill="rgb(0, 0, 0)" font-family="Helvetica" text-anchor="middle" font-size="12px"><text x="758.5" y="145.5">Forwarding to Enterprise</text><text x="758.5" y="159.5">ITSM Tooling</text></g><rect x="697" y="216" width="170" height="40" fill="none" stroke="none" pointer-events="all"/><g fill="rgb(0, 0, 0)" font-family="Helvetica" text-anchor="middle" font-size="12px"><text x="781.5" y="240.5">To Enterprise Log Management</text></g><rect x="705" y="245" width="170" height="40" fill="none" stroke="none" pointer-events="all"/><g fill="rgb(0, 0, 0)" font-family="Helvetica" text-anchor="middle" font-size="12px"><text x="789.5" y="269.5">Event Forwarding from other vRLI</text></g><rect x="673" y="605" width="170" height="40" fill="none" stroke="none" pointer-events="all"/><g fill="rgb(0, 0, 0)" font-family="Helvetica" text-anchor="middle" font-size="12px"><text x="757.5" y="629.5">Internet repositories</text></g></g></svg>