<?xml version="1.0" encoding="utf-8"?>
<!-- Generator: Adobe Illustrator 22.0.0, SVG Export Plug-In . SVG Version: 6.00 Build 0)  -->
<svg version="1.1" xmlns="http://www.w3.org/2000/svg" xmlns:xlink="http://www.w3.org/1999/xlink" x="0px" y="0px"
	 viewBox="0 0 1274 493" style="enable-background:new 0 0 1274 493;" xml:space="preserve">
<style type="text/css">
	.st0{fill:none;stroke:#000000;stroke-width:0.75;stroke-miterlimit:10;}
	.st1{fill:none;stroke:#000000;stroke-width:0.75;stroke-miterlimit:10;stroke-dasharray:5.0216,5.0216;}
	.st2{fill:none;stroke:#000000;stroke-width:0.75;stroke-miterlimit:10;stroke-dasharray:5.0308,5.0308;}
	.st3{fill:#FFFFFF;stroke:#4D4D4D;stroke-width:2;stroke-miterlimit:10;}
	.st4{font-family:'MyriadPro-Regular';}
	.st5{font-size:18px;}
	.st6{fill:#E4EFCA;}
	.st7{fill:none;stroke:#000000;stroke-width:0.75;stroke-miterlimit:10;stroke-dasharray:4.9847,4.9847;}
	.st8{fill:none;stroke:#000000;stroke-width:0.75;stroke-miterlimit:10;stroke-dasharray:4.9454,4.9454;}
	.st9{fill:#A558E8;stroke:#000000;stroke-width:0.75;stroke-miterlimit:10;}
	.st10{fill:#FFFFFF;stroke:#000000;stroke-width:0.75;stroke-miterlimit:10;}
	.st11{font-size:21px;}
	.st12{fill:#009245;stroke:#000000;stroke-width:0.75;stroke-miterlimit:10;}
	.st13{fill:#29ABE2;}
	.st14{fill:#FFFFFF;}
	.st15{fill:#FFFFFF;stroke:#8CC63F;stroke-width:8;stroke-miterlimit:10;}
	.st16{fill:#F9C73D;}
	.st17{fill:#8CC63F;stroke:#009245;stroke-width:0.25;stroke-miterlimit:10;}
	.st18{fill:#29ABE2;stroke:#0071BC;stroke-width:0.25;stroke-miterlimit:10;}
	.st19{fill:#F9C73D;stroke:#000000;stroke-width:0.75;stroke-miterlimit:10;}
	.st20{fill:#F7931E;stroke:#000000;stroke-width:0.75;stroke-miterlimit:10;}
</style>
<g id="inner_box">
	<g id="Layer_2">
		<g>
			<g>
				<g>
					<polyline class="st0" points="974,388 974,390.5 971.5,390.5 					"/>
					<line class="st1" x1="966.5" y1="390.5" x2="276" y2="390.5"/>
					<polyline class="st0" points="273.5,390.5 271,390.5 271,388 					"/>
					<line class="st2" x1="271" y1="383" x2="271" y2="63.5"/>
					<polyline class="st0" points="271,61 271,58.5 273.5,58.5 					"/>
					<line class="st1" x1="278.5" y1="58.5" x2="969" y2="58.5"/>
					<polyline class="st0" points="971.5,58.5 974,58.5 974,61 					"/>
					<line class="st2" x1="974" y1="66" x2="974" y2="385.5"/>
				</g>
			</g>
			<g>
				<path class="st3" d="M360.7,32.9c-6.2,0-12,1.5-16.6,4.1c-1.8-15.2-13.5-27-27.7-27c-14.6,0-26.6,12.5-27.8,28.3
					c-1.3-0.5-2.6-0.8-4-0.8c-7.5,0-13.5,8.2-13.5,18.3c0,10.1,6,18.3,13.5,18.3c1.6,0,3.2-0.4,4.7-1.1h62.4
					c2.9,0.7,5.9,1.1,9.1,1.1c15.4,0,28-9.2,28-20.6C388.6,42.1,376.1,32.9,360.7,32.9z"/>
				<text transform="matrix(0.9526 0 0 1 283.8589 59.0684)" class="st4 st5">Data Center</text>
			</g>
		</g>
		<g>
			<rect x="294.5" y="89.5" class="st6" width="658" height="277"/>
			<g>
				<polyline class="st0" points="952.5,364 952.5,366.5 950,366.5 				"/>
				<line class="st7" x1="945" y1="366.5" x2="299.5" y2="366.5"/>
				<polyline class="st0" points="297,366.5 294.5,366.5 294.5,364 				"/>
				<line class="st8" x1="294.5" y1="359.1" x2="294.5" y2="94.5"/>
				<polyline class="st0" points="294.5,92 294.5,89.5 297,89.5 				"/>
				<line class="st7" x1="302" y1="89.5" x2="947.5" y2="89.5"/>
				<polyline class="st0" points="950,89.5 952.5,89.5 952.5,92 				"/>
				<line class="st8" x1="952.5" y1="96.9" x2="952.5" y2="361.5"/>
			</g>
		</g>
	</g>
	<polyline class="st0" points="659.5,176.5 659.5,186.5 696.5,186.5 	"/>
</g>
<g id="extended_network_1">
	<g>
		<path class="st9" d="M931,126c0-10.8-2.7-19.6-6.1-20v0H703.1v0c-3.4,0.4-6.1,9.2-6.1,20s2.7,19.6,6.1,20v0h221.8v0
			C928.3,145.6,931,136.8,931,126z"/>
		<ellipse class="st10" cx="919.1" cy="126.4" rx="9.6" ry="16.6"/>
	</g>
	<text transform="matrix(1 0 0 1 716 129)" class="st4 st11">Extended Network 1</text>
	<g>
		<path class="st12" d="M931,179c0-10.8-2.7-19.6-6.1-20v0H703.1v0c-3.4,0.4-6.1,9.2-6.1,20s2.7,19.6,6.1,20v0h221.8v0
			C928.3,198.6,931,189.8,931,179z"/>
		<ellipse class="st10" cx="919.1" cy="179.4" rx="9.6" ry="16.6"/>
	</g>
	<text transform="matrix(1 0 0 1 719 185)" class="st4 st11">Extended Network 2</text>
</g>
<g id="cloud_gateway">
</g>
<g id="outter_box">
</g>
<g id="lines">
	<g>
		<g>
			<path class="st13" d="M510,173.5h-27c-6.6,0-12-5.4-12-12v-22.3c0-6.6,5.4-12,12-12h27c6.6,0,12,5.4,12,12v22.3
				C522,168.1,516.6,173.5,510,173.5z"/>
			<g>
				<g>
					<path class="st14" d="M501.9,148h-9.8c-2.2,0-4.1-1.8-4.1-4.1v-5.1c0-2.2,1.8-4.1,4.1-4.1h9.8c2.2,0,4.1,1.8,4.1,4.1v5.1
						C505.9,146.1,504.1,148,501.9,148z"/>
					<path class="st13" d="M500.1,146.1h-6.3c-1.1,0-2.1-0.9-2.1-2.1v-3.5c0-1.1,0.9-2.1,2.1-2.1h6.3c1.1,0,2.1,0.9,2.1,2.1v3.5
						C502.2,145.2,501.2,146.1,500.1,146.1z"/>
					<path class="st14" d="M507.5,165.9h-21.2c-2.2,0-4.1-1.8-4.1-4.1v-12.7c0-2.2,1.8-4.1,4.1-4.1h21.2c2.2,0,4.1,1.8,4.1,4.1v12.7
						C511.6,164.1,509.8,165.9,507.5,165.9z"/>
				</g>
				<g>
					<path class="st13" d="M501.2,153.2c0,1.8-1.7,3.3-3.8,3.3c-2.1,0-3.8-1.5-3.8-3.3c0-1.8,1.7-3.3,3.8-3.3
						C499.5,149.9,501.2,151.3,501.2,153.2z"/>
					<path class="st13" d="M497,163.1L497,163.1c-0.8,0-1.4-0.6-1.4-1.4v-6.6c0-0.8,0.6-1.4,1.4-1.4l0,0c0.8,0,1.4,0.6,1.4,1.4v6.6
						C498.4,162.4,497.8,163.1,497,163.1z"/>
					<path class="st13" d="M499.8,158.4h-1.9c-0.3,0-0.5-0.2-0.5-0.5l0,0c0-0.3,0.2-0.5,0.5-0.5h1.9c0.3,0,0.5,0.2,0.5,0.5l0,0
						C500.3,158.1,500.1,158.4,499.8,158.4z"/>
					<path class="st13" d="M499.8,160.3h-1.9c-0.3,0-0.5-0.2-0.5-0.5l0,0c0-0.3,0.2-0.5,0.5-0.5h1.9c0.3,0,0.5,0.2,0.5,0.5l0,0
						C500.3,160,500.1,160.3,499.8,160.3z"/>
					<path class="st13" d="M499.8,162.1h-1.9c-0.3,0-0.5-0.2-0.5-0.5l0,0c0-0.3,0.2-0.5,0.5-0.5h1.9c0.3,0,0.5,0.2,0.5,0.5l0,0
						C500.3,161.9,500.1,162.1,499.8,162.1z"/>
				</g>
			</g>
		</g>
		<line class="st0" x1="501.5" y1="173.5" x2="501.5" y2="286.5"/>
		<line class="st0" x1="490.5" y1="173.5" x2="490.5" y2="219.5"/>
	</g>
	<polyline class="st0" points="659.5,127.5 659.5,117.5 696.5,117.5 	"/>
</g>
<g id="bottom_explanation">
	<g>
		<g>
			<path class="st15" d="M379,403.8h-10.9c-3.3,0-6,2.7-6,6v4h-4c-3.3,0-6,2.7-6,6v10.2c0,3.3,2.7,6,6,6h10.3c3.3,0,6-2.7,6-6v-2.6
				h4.6c3.3,0,6-2.7,6-6v-11.6C385,406.5,382.3,403.8,379,403.8z"/>
			<path class="st16" d="M366.8,429.6h-7.3c-0.9,0-1.7-0.8-1.7-1.7v-6.6c0-0.9,0.8-1.7,1.7-1.7h7.3c0.9,0,1.7,0.8,1.7,1.7v6.6
				C368.5,428.8,367.7,429.6,366.8,429.6z"/>
			<path class="st16" d="M376.8,421h-7.3c-0.9,0-1.7-0.8-1.7-1.7V412c0-0.9,0.8-1.7,1.7-1.7h7.3c0.9,0,1.7,0.8,1.7,1.7v7.3
				C378.5,420.3,377.8,421,376.8,421z"/>
		</g>
		<text transform="matrix(1 0 0 1 393 428.1019)" class="st4 st5">vCenter</text>
	</g>
	<g>
		<g>
			<path class="st17" d="M537.3,425.1v-7.9c0-1.9-1.5-3.4-3.2-3.4h-4.2v-10.1h6.9c5.1,0,9.2,4.3,9.2,9.7v15.3c0,5.3-4.1,9.7-9.2,9.7
				h-6.9v-9.8h4.2C535.8,428.5,537.3,427,537.3,425.1z"/>
			<path class="st18" d="M532.3,415.8h-4.2v-12.1h-6.5c-4.8,0-8.7,4.3-8.7,9.7v15.3c0,5.3,3.9,9.7,8.7,9.7h6.5v-11.3h4.2
				c1.3,0,2.4-1.2,2.4-2.6v-6C534.6,417,533.6,415.8,532.3,415.8z"/>
		</g>
		<text transform="matrix(1 0 0 1 550.9024 426.7726)" class="st4 st5">Hybrid Cloud Services</text>
	</g>
	<g>
		<g>
			<path class="st13" d="M782,438.1h-13c-6.6,0-12-5.4-12-12v-9.6c0-6.6,5.4-12,12-12h13c6.6,0,12,5.4,12,12v9.6
				C794,432.7,788.6,438.1,782,438.1z"/>
			<g>
				<g>
					<path class="st14" d="M778.3,419.6h-4.9c-2.2,0-4.1-1.8-4.1-4.1v-1.5c0-2.2,1.8-4.1,4.1-4.1h4.9c2.2,0,4.1,1.8,4.1,4.1v1.5
						C782.4,417.8,780.5,419.6,778.3,419.6z"/>
					<path class="st13" d="M777.5,418.2h-3.4c-1.1,0-2.1-0.9-2.1-2.1v-1.4c0-1.1,0.9-2.1,2.1-2.1h3.4c1.1,0,2.1,0.9,2.1,2.1v1.4
						C779.6,417.3,778.7,418.2,777.5,418.2z"/>
					<path class="st14" d="M782.4,432.6h-13.1c-2.2,0-4.1-1.8-4.1-4.1v-6.9c0-2.2,1.8-4.1,4.1-4.1h13.1c2.2,0,4.1,1.8,4.1,4.1v6.9
						C786.5,430.8,784.6,432.6,782.4,432.6z"/>
				</g>
				<g>
					<path class="st13" d="M778.9,423.4c0,1.3-1.2,2.4-2.7,2.4c-1.5,0-2.7-1.1-2.7-2.4c0-1.3,1.2-2.4,2.7-2.4
						C777.7,421,778.9,422,778.9,423.4z"/>
					<path class="st13" d="M775.8,430.6L775.8,430.6c-0.6,0-1-0.5-1-1v-4.8c0-0.6,0.5-1,1-1l0,0c0.6,0,1,0.5,1,1v4.8
						C776.9,430.1,776.4,430.6,775.8,430.6z"/>
					<path class="st13" d="M777.9,427.1h-1.4c-0.2,0-0.3-0.2-0.3-0.3l0,0c0-0.2,0.2-0.3,0.3-0.3h1.4c0.2,0,0.3,0.2,0.3,0.3l0,0
						C778.2,427,778.1,427.1,777.9,427.1z"/>
					<path class="st13" d="M777.9,428.5h-1.4c-0.2,0-0.3-0.2-0.3-0.3l0,0c0-0.2,0.2-0.3,0.3-0.3h1.4c0.2,0,0.3,0.2,0.3,0.3l0,0
						C778.2,428.4,778.1,428.5,777.9,428.5z"/>
					<path class="st13" d="M777.9,429.9h-1.4c-0.2,0-0.3-0.2-0.3-0.3l0,0c0-0.2,0.2-0.3,0.3-0.3h1.4c0.2,0,0.3,0.2,0.3,0.3l0,0
						C778.2,429.7,778.1,429.9,777.9,429.9z"/>
				</g>
			</g>
		</g>
		<text transform="matrix(1 0 0 1 797.667 427.333)" class="st4 st5">Cloud Gateway</text>
	</g>
	<g>
		<g>
			<path class="st13" d="M457,480.8h-18.8c-6.6,0-12-5.4-12-12V454c0-6.6,5.4-12,12-12H457c6.6,0,12,5.4,12,12v14.8
				C469,475.4,463.6,480.8,457,480.8z"/>
			<g>
				<g>
					<g>
						<g>
							<g>
								<ellipse class="st14" cx="447.5" cy="461.2" rx="11.5" ry="11.1"/>
								<path class="st13" d="M452.6,461.2c0,2.7-2.3,5-5.1,5c-2.8,0-5.1-2.2-5.1-5c0-2.7,2.3-5,5.1-5
									C450.3,456.3,452.6,458.5,452.6,461.2z"/>
							</g>
							<rect x="444.1" y="447.1" class="st14" width="6.2" height="4"/>
							<rect x="444.7" y="470.9" class="st14" width="5.5" height="4.8"/>
						</g>
						<rect x="457.5" y="458.6" class="st14" width="4.8" height="5.5"/>
						<rect x="433" y="458.6" class="st14" width="4.8" height="5.5"/>
					</g>
					
						<rect x="435.6" y="450.1" transform="matrix(0.7526 0.6585 -0.6585 0.7526 406.5077 -176.5563)" class="st14" width="5.2" height="5.2"/>
					
						<rect x="453.2" y="467.5" transform="matrix(0.7526 0.6585 -0.6585 0.7526 422.5555 -184.3358)" class="st14" width="6.8" height="5.2"/>
				</g>
				
					<rect x="454.6" y="450.4" transform="matrix(0.7071 0.7071 -0.7071 0.7071 454.3982 -190.5574)" class="st14" width="5.2" height="5.7"/>
				
					<rect x="436.2" y="467.5" transform="matrix(0.7071 0.7071 -0.7071 0.7071 460.912 -172.6149)" class="st14" width="5.2" height="5.2"/>
			</g>
		</g>
		<text transform="matrix(1 0 0 1 474 468)" class="st4 st5">WAN Optimizer</text>
	</g>
	<g>
		<text transform="matrix(1 0 0 1 731 470)" class="st4 st5">L2 Concentrator</text>
		<g>
			<path class="st13" d="M714,480.9h-14.5c-6.6,0-12-5.4-12-12V458c0-6.6,5.4-12,12-12H714c6.6,0,12,5.4,12,12v10.9
				C726,475.5,720.6,480.9,714,480.9z"/>
			<g>
				<rect x="696.1" y="454.4" class="st14" width="21.4" height="11.4"/>
				<rect x="699.4" y="463.1" class="st14" width="14.7" height="5.3"/>
				<rect x="699.4" y="458.5" class="st13" width="14.7" height="1.3"/>
				<rect x="704.7" y="467.1" class="st14" width="4" height="9.4"/>
				<rect x="698.1" y="450.4" class="st14" width="4" height="7.4"/>
				<rect x="704.1" y="450.4" class="st14" width="2" height="2.7"/>
				<rect x="707.4" y="450.4" class="st14" width="2" height="2.7"/>
				<rect x="711.4" y="450.4" class="st14" width="4" height="7.4"/>
			</g>
		</g>
	</g>
</g>
<g id="L2_concentrator">
	<g>
		<line class="st0" x1="643.5" y1="176.5" x2="643.5" y2="218.5"/>
		<g>
			<path class="st13" d="M659.5,176.6h-30c-6.6,0-12-5.4-12-12v-25c0-6.6,5.4-12,12-12h30c6.6,0,12,5.4,12,12v25
				C671.5,171.2,666.1,176.6,659.5,176.6z"/>
			<g>
				<rect x="629.5" y="139.5" class="st14" width="30" height="15.9"/>
				<rect x="634.2" y="151.6" class="st14" width="20.6" height="7.5"/>
				<rect x="634.2" y="145.1" class="st13" width="20.6" height="1.9"/>
				<rect x="641.7" y="157.3" class="st14" width="5.6" height="13.1"/>
				<rect x="632.3" y="133.8" class="st14" width="5.6" height="10.3"/>
				<rect x="640.8" y="133.8" class="st14" width="2.8" height="3.8"/>
				<rect x="645.4" y="133.8" class="st14" width="2.8" height="3.8"/>
				<rect x="651.1" y="133.8" class="st14" width="5.6" height="10.3"/>
			</g>
		</g>
	</g>
</g>
<g id="wan_optimizer">
	<g>
		<line class="st0" x1="568.5" y1="175.5" x2="568.5" y2="219.5"/>
		<g>
			<path class="st13" d="M584.3,175.8h-30c-6.6,0-12-5.4-12-12v-25c0-6.6,5.4-12,12-12h30c6.6,0,12,5.4,12,12v25
				C596.3,170.4,590.8,175.8,584.3,175.8z"/>
			<g>
				<g>
					<g>
						<g>
							<g>
								<ellipse class="st14" cx="569.1" cy="151.1" rx="14.5" ry="14"/>
								<path class="st13" d="M575.6,151.1c0,3.5-2.9,6.3-6.5,6.3c-3.6,0-6.5-2.8-6.5-6.3c0-3.5,2.9-6.3,6.5-6.3
									C572.7,144.8,575.6,147.6,575.6,151.1z"/>
							</g>
							<rect x="564.8" y="133.3" class="st14" width="7.8" height="5"/>
							<rect x="565.6" y="163.3" class="st14" width="7" height="6"/>
						</g>
						<rect x="581.8" y="147.8" class="st14" width="6" height="7"/>
						<rect x="550.8" y="147.8" class="st14" width="6" height="7"/>
					</g>
					
						<rect x="554.1" y="137" transform="matrix(0.7526 0.6585 -0.6585 0.7526 230.2778 -332.3094)" class="st14" width="6.6" height="6.6"/>
					
						<rect x="576.2" y="159" transform="matrix(0.7526 0.6585 -0.6585 0.7526 250.5421 -342.1324)" class="st14" width="8.6" height="6.6"/>
				</g>
				
					<rect x="578.1" y="137.4" transform="matrix(0.7071 0.7071 -0.7071 0.7071 269.9839 -369.7989)" class="st14" width="6.5" height="7.2"/>
				
					<rect x="554.9" y="159" transform="matrix(0.7071 0.7071 -0.7071 0.7071 278.2002 -347.1347)" class="st14" width="6.5" height="6.5"/>
			</g>
		</g>
	</g>
</g>
<g id="hybrid_cloud_services">
	<g>
		<line class="st0" x1="430.5" y1="171.5" x2="430.5" y2="218.5"/>
		<g>
			<path class="st17" d="M439.7,154.3v-10.2c0-2.4-1.9-4.4-4.2-4.4H430v-13.1h9c6.6,0,12,5.7,12,12.6V159c0,6.9-5.4,12.6-12,12.6h-9
				v-12.8h5.5C437.8,158.8,439.7,156.8,439.7,154.3z"/>
			<path class="st18" d="M433.2,142.2h-5.4v-15.7h-8.5c-6.2,0-11.3,5.7-11.3,12.6V159c0,6.9,5.1,12.6,11.3,12.6h8.5v-14.7h5.4
				c1.7,0,3.1-1.5,3.1-3.4v-7.9C436.3,143.8,434.9,142.2,433.2,142.2z"/>
		</g>
	</g>
</g>
<g id="mngt_network">
	<g>
		<path class="st19" d="M901,243.5c0-12.7-6.7-23-15.1-23.5v0H340.1v0c-8.4,0.5-15.1,10.8-15.1,23.5c0,12.7,6.7,23,15.1,23.5v0
			h545.9v0C894.3,266.5,901,256.2,901,243.5z"/>
		<ellipse class="st10" cx="884.7" cy="244" rx="10.7" ry="19.5"/>
	</g>
	<text transform="matrix(1 0 0 1 513 251)" class="st4 st11">Management Network</text>
</g>
<g id="vmotion_network">
	<g>
		<path class="st20" d="M902,310.5c0-12.7-6.7-23-15.1-23.5v0H341.1v0c-8.4,0.5-15.1,10.8-15.1,23.5s6.7,23,15.1,23.5v0h545.9v0
			C895.3,333.5,902,323.2,902,310.5z"/>
		<ellipse class="st10" cx="885.7" cy="311" rx="10.7" ry="19.5"/>
	</g>
	<text transform="matrix(1 0 0 1 534 319)" class="st4 st11">vMotion Network</text>
</g>
<g id="vcenter">
	<g>
		<line class="st0" x1="352.5" y1="174.5" x2="352.5" y2="218.5"/>
		<g>
			<path class="st15" d="M375.6,125h-15.2c-4.6,0-8.4,3.8-8.4,8.4v5.6h-5.6c-4.6,0-8.4,3.8-8.4,8.4v14.2c0,4.6,3.8,8.4,8.4,8.4h14.3
				c4.6,0,8.4-3.8,8.4-8.4V158h6.4c4.6,0,8.4-3.8,8.4-8.4v-16.2C384,128.8,380.2,125,375.6,125z"/>
			<path class="st16" d="M359.3,160.9h-11.6c-0.9,0-1.7-0.8-1.7-1.7v-10.5c0-0.9,0.8-1.7,1.7-1.7h11.6c0.9,0,1.7,0.8,1.7,1.7v10.5
				C361,160.2,360.2,160.9,359.3,160.9z"/>
			<path class="st16" d="M373.3,149h-11.6c-0.9,0-1.7-0.8-1.7-1.7v-11.6c0-0.9,0.8-1.7,1.7-1.7h11.6c0.9,0,1.7,0.8,1.7,1.7v11.6
				C375,148.2,374.2,149,373.3,149z"/>
		</g>
	</g>
</g>
</svg>
