<?xml version="1.0" encoding="utf-8"?>
<!-- Generator: Adobe Illustrator 22.0.0, SVG Export Plug-In . SVG Version: 6.00 Build 0)  -->
<svg version="1.1" xmlns="http://www.w3.org/2000/svg" xmlns:xlink="http://www.w3.org/1999/xlink" x="0px" y="0px"
	 viewBox="0 0 1204 455" style="enable-background:new 0 0 1204 455;" xml:space="preserve">
<style type="text/css">
	.st0{fill:#E4EFCA;}
	.st1{fill:none;stroke:#000000;stroke-width:0.75;stroke-miterlimit:10;}
	.st2{fill:none;stroke:#000000;stroke-width:0.75;stroke-miterlimit:10;stroke-dasharray:4.9778,4.9778;}
	.st3{fill:none;stroke:#000000;stroke-width:0.75;stroke-miterlimit:10;stroke-dasharray:4.9182,4.9182;}
	.st4{fill:none;stroke:#000000;stroke-width:0.75;stroke-miterlimit:10;stroke-dasharray:4.9864,4.9864;}
	.st5{fill:none;stroke:#000000;stroke-width:0.75;stroke-miterlimit:10;stroke-dasharray:5.0308,5.0308;}
	.st6{fill:#29ABE2;}
	.st7{fill:#FFFFFF;}
	.st8{fill:#FFFFFF;stroke:#8CC63F;stroke-width:8;stroke-miterlimit:10;}
	.st9{fill:#F9C73D;}
	.st10{font-family:'MyriadPro-Regular';}
	.st11{font-size:18px;}
	.st12{fill:#8CC63F;stroke:#009245;stroke-width:0.25;stroke-miterlimit:10;}
	.st13{fill:#29ABE2;stroke:#0071BC;stroke-width:0.25;stroke-miterlimit:10;}
	.st14{fill:#F9C73D;stroke:#000000;stroke-width:0.75;stroke-miterlimit:10;}
	.st15{fill:#FFFFFF;stroke:#000000;stroke-width:0.75;stroke-miterlimit:10;}
	.st16{font-size:21px;}
	.st17{fill:#F7931E;stroke:#000000;stroke-width:0.75;stroke-miterlimit:10;}
	.st18{fill:#FFFFFF;stroke:#4D4D4D;stroke-width:2;stroke-miterlimit:10;}
</style>
<g id="inner_box">
	<g>
		<rect x="225.5" y="91" class="st0" width="677" height="275.5"/>
		<g>
			<polyline class="st1" points="902.5,364 902.5,366.5 900,366.5 			"/>
			<line class="st2" x1="895" y1="366.5" x2="230.5" y2="366.5"/>
			<polyline class="st1" points="228,366.5 225.5,366.5 225.5,364 			"/>
			<line class="st3" x1="225.5" y1="359.1" x2="225.5" y2="96"/>
			<polyline class="st1" points="225.5,93.5 225.5,91 228,91 			"/>
			<line class="st2" x1="233" y1="91" x2="897.5" y2="91"/>
			<polyline class="st1" points="900,91 902.5,91 902.5,93.5 			"/>
			<line class="st3" x1="902.5" y1="98.4" x2="902.5" y2="361.5"/>
		</g>
	</g>
</g>
<g id="cloud_gateway">
</g>
<g id="outter_box">
	<g>
		<g>
			<polyline class="st1" points="933.5,388 933.5,390.5 931,390.5 			"/>
			<line class="st4" x1="926" y1="390.5" x2="200.5" y2="390.5"/>
			<polyline class="st1" points="198,390.5 195.5,390.5 195.5,388 			"/>
			<line class="st5" x1="195.5" y1="383" x2="195.5" y2="63.5"/>
			<polyline class="st1" points="195.5,61 195.5,58.5 198,58.5 			"/>
			<line class="st4" x1="203" y1="58.5" x2="928.5" y2="58.5"/>
			<polyline class="st1" points="931,58.5 933.5,58.5 933.5,61 			"/>
			<line class="st5" x1="933.5" y1="66" x2="933.5" y2="385.5"/>
		</g>
	</g>
</g>
<g id="lines">
	<g>
		<g>
			<path class="st6" d="M504,173.5h-27c-6.6,0-12-5.4-12-12v-22.3c0-6.6,5.4-12,12-12h27c6.6,0,12,5.4,12,12v22.3
				C516,168.1,510.6,173.5,504,173.5z"/>
			<g>
				<g>
					<path class="st7" d="M495.9,148h-9.8c-2.2,0-4.1-1.8-4.1-4.1v-5.1c0-2.2,1.8-4.1,4.1-4.1h9.8c2.2,0,4.1,1.8,4.1,4.1v5.1
						C499.9,146.1,498.1,148,495.9,148z"/>
					<path class="st6" d="M494.1,146.1h-6.3c-1.1,0-2.1-0.9-2.1-2.1v-3.5c0-1.1,0.9-2.1,2.1-2.1h6.3c1.1,0,2.1,0.9,2.1,2.1v3.5
						C496.2,145.2,495.2,146.1,494.1,146.1z"/>
					<path class="st7" d="M501.5,165.9h-21.2c-2.2,0-4.1-1.8-4.1-4.1v-12.7c0-2.2,1.8-4.1,4.1-4.1h21.2c2.2,0,4.1,1.8,4.1,4.1v12.7
						C505.6,164.1,503.8,165.9,501.5,165.9z"/>
				</g>
				<g>
					<path class="st6" d="M495.2,153.2c0,1.8-1.7,3.3-3.8,3.3c-2.1,0-3.8-1.5-3.8-3.3c0-1.8,1.7-3.3,3.8-3.3
						C493.5,149.9,495.2,151.3,495.2,153.2z"/>
					<path class="st6" d="M491,163.1L491,163.1c-0.8,0-1.4-0.6-1.4-1.4v-6.6c0-0.8,0.6-1.4,1.4-1.4l0,0c0.8,0,1.4,0.6,1.4,1.4v6.6
						C492.4,162.4,491.8,163.1,491,163.1z"/>
					<path class="st6" d="M493.8,158.4h-1.9c-0.3,0-0.5-0.2-0.5-0.5l0,0c0-0.3,0.2-0.5,0.5-0.5h1.9c0.3,0,0.5,0.2,0.5,0.5l0,0
						C494.3,158.1,494.1,158.4,493.8,158.4z"/>
					<path class="st6" d="M493.8,160.3h-1.9c-0.3,0-0.5-0.2-0.5-0.5l0,0c0-0.3,0.2-0.5,0.5-0.5h1.9c0.3,0,0.5,0.2,0.5,0.5l0,0
						C494.3,160,494.1,160.3,493.8,160.3z"/>
					<path class="st6" d="M493.8,162.1h-1.9c-0.3,0-0.5-0.2-0.5-0.5l0,0c0-0.3,0.2-0.5,0.5-0.5h1.9c0.3,0,0.5,0.2,0.5,0.5l0,0
						C494.3,161.9,494.1,162.1,493.8,162.1z"/>
				</g>
			</g>
		</g>
		<line class="st1" x1="495.5" y1="173.5" x2="495.5" y2="286.5"/>
		<line class="st1" x1="484.5" y1="173.5" x2="484.5" y2="219.5"/>
	</g>
	<line class="st1" x1="576.5" y1="175.5" x2="576.5" y2="219.5"/>
</g>
<g id="bottom_explanation">
	<g>
		<g>
			<path class="st8" d="M240,403.8h-10.9c-3.3,0-6,2.7-6,6v4h-4c-3.3,0-6,2.7-6,6v10.2c0,3.3,2.7,6,6,6h10.3c3.3,0,6-2.7,6-6v-2.6
				h4.6c3.3,0,6-2.7,6-6v-11.6C246,406.5,243.3,403.8,240,403.8z"/>
			<path class="st9" d="M227.8,429.6h-7.3c-0.9,0-1.7-0.8-1.7-1.7v-6.6c0-0.9,0.8-1.7,1.7-1.7h7.3c0.9,0,1.7,0.8,1.7,1.7v6.6
				C229.5,428.8,228.7,429.6,227.8,429.6z"/>
			<path class="st9" d="M237.8,421h-7.3c-0.9,0-1.7-0.8-1.7-1.7V412c0-0.9,0.8-1.7,1.7-1.7h7.3c0.9,0,1.7,0.8,1.7,1.7v7.3
				C239.5,420.3,238.8,421,237.8,421z"/>
		</g>
		<text transform="matrix(1 0 0 1 254 428.1019)" class="st10 st11">vCenter</text>
	</g>
	<g>
		<g>
			<path class="st12" d="M382.3,422.8V415c0-1.9-1.5-3.4-3.2-3.4h-4.2v-10.1h6.9c5.1,0,9.2,4.3,9.2,9.7v15.3c0,5.3-4.1,9.7-9.2,9.7
				h-6.9v-9.8h4.2C380.9,426.3,382.3,424.7,382.3,422.8z"/>
			<path class="st13" d="M377.4,413.6h-4.2v-12.1h-6.5c-4.8,0-8.7,4.3-8.7,9.7v15.3c0,5.3,3.9,9.7,8.7,9.7h6.5v-11.3h4.2
				c1.3,0,2.4-1.2,2.4-2.6v-6C379.7,414.7,378.7,413.6,377.4,413.6z"/>
		</g>
		<text transform="matrix(1 0 0 1 396 424.5165)" class="st10 st11">Hybrid Cloud Services</text>
	</g>
	<g>
		<g>
			<path class="st6" d="M608,436.1h-13c-6.6,0-12-5.4-12-12v-9.6c0-6.6,5.4-12,12-12h13c6.6,0,12,5.4,12,12v9.6
				C620,430.7,614.6,436.1,608,436.1z"/>
			<g>
				<g>
					<path class="st7" d="M604.3,417.6h-4.9c-2.2,0-4.1-1.8-4.1-4.1v-1.5c0-2.2,1.8-4.1,4.1-4.1h4.9c2.2,0,4.1,1.8,4.1,4.1v1.5
						C608.4,415.8,606.5,417.6,604.3,417.6z"/>
					<path class="st6" d="M603.5,416.2h-3.4c-1.1,0-2.1-0.9-2.1-2.1v-1.4c0-1.1,0.9-2.1,2.1-2.1h3.4c1.1,0,2.1,0.9,2.1,2.1v1.4
						C605.6,415.3,604.7,416.2,603.5,416.2z"/>
					<path class="st7" d="M608.4,430.6h-13.1c-2.2,0-4.1-1.8-4.1-4.1v-6.9c0-2.2,1.8-4.1,4.1-4.1h13.1c2.2,0,4.1,1.8,4.1,4.1v6.9
						C612.5,428.8,610.6,430.6,608.4,430.6z"/>
				</g>
				<g>
					<path class="st6" d="M604.9,421.4c0,1.3-1.2,2.4-2.7,2.4c-1.5,0-2.7-1.1-2.7-2.4c0-1.3,1.2-2.4,2.7-2.4
						C603.7,419,604.9,420,604.9,421.4z"/>
					<path class="st6" d="M601.8,428.6L601.8,428.6c-0.6,0-1-0.5-1-1v-4.8c0-0.6,0.5-1,1-1l0,0c0.6,0,1,0.5,1,1v4.8
						C602.9,428.1,602.4,428.6,601.8,428.6z"/>
					<path class="st6" d="M603.9,425.1h-1.4c-0.2,0-0.3-0.2-0.3-0.3l0,0c0-0.2,0.2-0.3,0.3-0.3h1.4c0.2,0,0.3,0.2,0.3,0.3l0,0
						C604.2,425,604.1,425.1,603.9,425.1z"/>
					<path class="st6" d="M603.9,426.5h-1.4c-0.2,0-0.3-0.2-0.3-0.3l0,0c0-0.2,0.2-0.3,0.3-0.3h1.4c0.2,0,0.3,0.2,0.3,0.3l0,0
						C604.2,426.4,604.1,426.5,603.9,426.5z"/>
					<path class="st6" d="M603.9,427.9h-1.4c-0.2,0-0.3-0.2-0.3-0.3l0,0c0-0.2,0.2-0.3,0.3-0.3h1.4c0.2,0,0.3,0.2,0.3,0.3l0,0
						C604.2,427.7,604.1,427.9,603.9,427.9z"/>
				</g>
			</g>
		</g>
		<text transform="matrix(1 0 0 1 623.667 425.333)" class="st10 st11">Cloud Gateway</text>
	</g>
	<g>
		<g>
			<path class="st6" d="M786,438.8h-18.8c-6.6,0-12-5.4-12-12V412c0-6.6,5.4-12,12-12H786c6.6,0,12,5.4,12,12v14.8
				C798,433.4,792.6,438.8,786,438.8z"/>
			<g>
				<g>
					<g>
						<g>
							<g>
								<ellipse class="st7" cx="776.5" cy="419.2" rx="11.5" ry="11.1"/>
								<path class="st6" d="M781.6,419.2c0,2.7-2.3,5-5.1,5c-2.8,0-5.1-2.2-5.1-5c0-2.7,2.3-5,5.1-5
									C779.3,414.3,781.6,416.5,781.6,419.2z"/>
							</g>
							<rect x="773.1" y="405.1" class="st7" width="6.2" height="4"/>
							<rect x="773.7" y="428.9" class="st7" width="5.5" height="4.8"/>
						</g>
						<rect x="786.5" y="416.6" class="st7" width="4.8" height="5.5"/>
						<rect x="762" y="416.6" class="st7" width="4.8" height="5.5"/>
					</g>
					
						<rect x="764.6" y="408.1" transform="matrix(0.7526 0.6585 -0.6585 0.7526 460.2538 -403.5976)" class="st7" width="5.2" height="5.2"/>
					
						<rect x="782.2" y="425.5" transform="matrix(0.7526 0.6585 -0.6585 0.7526 476.3019 -411.3775)" class="st7" width="6.8" height="5.2"/>
				</g>
				
					<rect x="783.6" y="408.4" transform="matrix(0.7071 0.7071 -0.7071 0.7071 521.0575 -435.4929)" class="st7" width="5.2" height="5.7"/>
				
					<rect x="765.2" y="425.5" transform="matrix(0.7071 0.7071 -0.7071 0.7071 527.5754 -417.5546)" class="st7" width="5.2" height="5.2"/>
			</g>
		</g>
		<text transform="matrix(1 0 0 1 803 426)" class="st10 st11">WAN Optimizer</text>
	</g>
</g>
<g id="wan_optimizer">
	<g>
		<path class="st6" d="M592.3,175.8h-30c-6.6,0-12-5.4-12-12v-25c0-6.6,5.4-12,12-12h30c6.6,0,12,5.4,12,12v25
			C604.3,170.4,598.8,175.8,592.3,175.8z"/>
		<g>
			<g>
				<g>
					<g>
						<g>
							<ellipse class="st7" cx="577.1" cy="151.1" rx="14.5" ry="14"/>
							<path class="st6" d="M583.6,151.1c0,3.5-2.9,6.3-6.5,6.3c-3.6,0-6.5-2.8-6.5-6.3c0-3.5,2.9-6.3,6.5-6.3
								C580.7,144.8,583.6,147.6,583.6,151.1z"/>
						</g>
						<rect x="572.8" y="133.3" class="st7" width="7.8" height="5"/>
						<rect x="573.6" y="163.3" class="st7" width="7" height="6"/>
					</g>
					<rect x="589.8" y="147.8" class="st7" width="6" height="7"/>
					<rect x="558.8" y="147.8" class="st7" width="6" height="7"/>
				</g>
				
					<rect x="562.1" y="137" transform="matrix(0.7526 0.6585 -0.6585 0.7526 232.2573 -337.5775)" class="st7" width="6.6" height="6.6"/>
				
					<rect x="584.2" y="159" transform="matrix(0.7526 0.6585 -0.6585 0.7526 252.5215 -347.4004)" class="st7" width="8.6" height="6.6"/>
			</g>
			
				<rect x="586.1" y="137.4" transform="matrix(0.7071 0.7071 -0.7071 0.7071 272.3271 -375.4557)" class="st7" width="6.5" height="7.2"/>
			
				<rect x="562.9" y="159" transform="matrix(0.7071 0.7071 -0.7071 0.7071 280.5433 -352.7915)" class="st7" width="6.5" height="6.5"/>
		</g>
	</g>
</g>
<g id="hybrid_cloud_services">
	<g>
		<line class="st1" x1="408.5" y1="171.5" x2="408.5" y2="218.5"/>
		<g>
			<path class="st12" d="M417.7,154.3v-10.2c0-2.4-1.9-4.4-4.2-4.4H408v-13.1h9c6.6,0,12,5.7,12,12.6V159c0,6.9-5.4,12.6-12,12.6h-9
				v-12.8h5.5C415.8,158.8,417.7,156.8,417.7,154.3z"/>
			<path class="st13" d="M411.2,142.2h-5.4v-15.7h-8.5c-6.2,0-11.3,5.7-11.3,12.6V159c0,6.9,5.1,12.6,11.3,12.6h8.5v-14.7h5.4
				c1.7,0,3.1-1.5,3.1-3.4v-7.9C414.3,143.8,412.9,142.2,411.2,142.2z"/>
		</g>
	</g>
</g>
<g id="mngt_network">
	<g>
		<path class="st14" d="M850,243.5c0-12.7-6.7-23-15.1-23.5v0H289.1v0c-8.4,0.5-15.1,10.8-15.1,23.5c0,12.7,6.7,23,15.1,23.5v0
			h545.9v0C843.3,266.5,850,256.2,850,243.5z"/>
		<ellipse class="st15" cx="833.7" cy="244" rx="10.7" ry="19.5"/>
	</g>
	<text transform="matrix(1 0 0 1 462 251)" class="st10 st16">Management Network</text>
</g>
<g id="vmotion_network">
	<g>
		<path class="st17" d="M851,310.5c0-12.7-6.7-23-15.1-23.5v0H290.1v0c-8.4,0.5-15.1,10.8-15.1,23.5s6.7,23,15.1,23.5v0h545.9v0
			C844.3,333.5,851,323.2,851,310.5z"/>
		<ellipse class="st15" cx="834.7" cy="311" rx="10.7" ry="19.5"/>
	</g>
	<text transform="matrix(1 0 0 1 483 319)" class="st10 st16">vMotion Network</text>
</g>
<g id="vcenter">
	<g>
		<line class="st1" x1="320.5" y1="174.5" x2="320.5" y2="218.5"/>
		<g>
			<path class="st8" d="M343.6,125h-15.2c-4.6,0-8.4,3.8-8.4,8.4v5.6h-5.6c-4.6,0-8.4,3.8-8.4,8.4v14.2c0,4.6,3.8,8.4,8.4,8.4h14.3
				c4.6,0,8.4-3.8,8.4-8.4V158h6.4c4.6,0,8.4-3.8,8.4-8.4v-16.2C352,128.8,348.2,125,343.6,125z"/>
			<path class="st9" d="M327.3,160.9h-11.6c-0.9,0-1.7-0.8-1.7-1.7v-10.5c0-0.9,0.8-1.7,1.7-1.7h11.6c0.9,0,1.7,0.8,1.7,1.7v10.5
				C329,160.2,328.2,160.9,327.3,160.9z"/>
			<path class="st9" d="M341.3,149h-11.6c-0.9,0-1.7-0.8-1.7-1.7v-11.6c0-0.9,0.8-1.7,1.7-1.7h11.6c0.9,0,1.7,0.8,1.7,1.7v11.6
				C343,148.2,342.2,149,341.3,149z"/>
		</g>
	</g>
</g>
<g id="Layer_2">
	<g>
		<path class="st18" d="M289.6,32.9c-6.6,0-12.6,1.5-17.5,4.1c-1.8-15.2-14.1-27-29.1-27c-15.4,0-28,12.5-29.2,28.3
			c-1.3-0.5-2.7-0.8-4.2-0.8c-7.8,0-14.2,8.2-14.2,18.3c0,10.1,6.3,18.3,14.2,18.3c1.7,0,3.4-0.4,4.9-1.1h65.5
			c3,0.7,6.2,1.1,9.6,1.1c16.2,0,29.4-9.2,29.4-20.6C319,42.1,305.9,32.9,289.6,32.9z"/>
		<text transform="matrix(1 0 0 1 209 59.0682)" class="st10 st11">Data Center</text>
	</g>
</g>
</svg>
