<?xml version="1.0" encoding="utf-8"?>
<!-- Generator: Adobe Illustrator 22.0.0, SVG Export Plug-In . SVG Version: 6.00 Build 0)  -->
<svg version="1.1" xmlns="http://www.w3.org/2000/svg" xmlns:xlink="http://www.w3.org/1999/xlink" x="0px" y="0px"
	 viewBox="0 0 1087 455" style="enable-background:new 0 0 1087 455;" xml:space="preserve">
<style type="text/css">
	.st0{fill:#E4EFCA;}
	.st1{fill:none;stroke:#000000;stroke-width:0.75;stroke-miterlimit:10;}
	.st2{fill:none;stroke:#000000;stroke-width:0.75;stroke-miterlimit:10;stroke-dasharray:5.0187,5.0187;}
	.st3{fill:none;stroke:#000000;stroke-width:0.75;stroke-miterlimit:10;stroke-dasharray:4.9182,4.9182;}
	.st4{fill:none;stroke:#000000;stroke-width:0.75;stroke-miterlimit:10;stroke-dasharray:5.0086,5.0086;}
	.st5{fill:none;stroke:#000000;stroke-width:0.75;stroke-miterlimit:10;stroke-dasharray:5.0308,5.0308;}
	.st6{fill:#29ABE2;}
	.st7{fill:#FFFFFF;}
	.st8{fill:#FFFFFF;stroke:#8CC63F;stroke-width:8;stroke-miterlimit:10;}
	.st9{fill:#F9C73D;}
	.st10{font-family:'MyriadPro-Regular';}
	.st11{font-size:18px;}
	.st12{fill:#8CC63F;stroke:#009245;stroke-width:0.25;stroke-miterlimit:10;}
	.st13{fill:#29ABE2;stroke:#0071BC;stroke-width:0.25;stroke-miterlimit:10;}
	.st14{fill:#F9C73D;stroke:#000000;stroke-width:0.75;stroke-miterlimit:10;}
	.st15{fill:#FFFFFF;stroke:#000000;stroke-width:0.75;stroke-miterlimit:10;}
	.st16{font-size:21px;}
	.st17{fill:#F7931E;stroke:#000000;stroke-width:0.75;stroke-miterlimit:10;}
	.st18{fill:#FFFFFF;stroke:#4D4D4D;stroke-width:2;stroke-miterlimit:10;}
</style>
<g id="inner_box">
	<g>
		<rect x="283.5" y="91" class="st0" width="542" height="275.5"/>
		<g>
			<polyline class="st1" points="825.5,364 825.5,366.5 823,366.5 			"/>
			<line class="st2" x1="818" y1="366.5" x2="288.5" y2="366.5"/>
			<polyline class="st1" points="286,366.5 283.5,366.5 283.5,364 			"/>
			<line class="st3" x1="283.5" y1="359.1" x2="283.5" y2="96"/>
			<polyline class="st1" points="283.5,93.5 283.5,91 286,91 			"/>
			<line class="st2" x1="291" y1="91" x2="820.5" y2="91"/>
			<polyline class="st1" points="823,91 825.5,91 825.5,93.5 			"/>
			<line class="st3" x1="825.5" y1="98.4" x2="825.5" y2="361.5"/>
		</g>
	</g>
</g>
<g id="cloud_gateway">
</g>
<g id="outter_box">
	<g>
		<g>
			<polyline class="st1" points="847.5,388 847.5,390.5 845,390.5 			"/>
			<line class="st4" x1="840" y1="390.5" x2="261.5" y2="390.5"/>
			<polyline class="st1" points="259,390.5 256.5,390.5 256.5,388 			"/>
			<line class="st5" x1="256.5" y1="383" x2="256.5" y2="63.5"/>
			<polyline class="st1" points="256.5,61 256.5,58.5 259,58.5 			"/>
			<line class="st4" x1="264" y1="58.5" x2="842.5" y2="58.5"/>
			<polyline class="st1" points="845,58.5 847.5,58.5 847.5,61 			"/>
			<line class="st5" x1="847.5" y1="66" x2="847.5" y2="385.5"/>
		</g>
	</g>
</g>
<g id="lines">
	<g>
		<g>
			<path class="st6" d="M526,173.5h-27c-6.6,0-12-5.4-12-12v-22.3c0-6.6,5.4-12,12-12h27c6.6,0,12,5.4,12,12v22.3
				C538,168.1,532.6,173.5,526,173.5z"/>
			<g>
				<g>
					<path class="st7" d="M517.9,148h-9.8c-2.2,0-4.1-1.8-4.1-4.1v-5.1c0-2.2,1.8-4.1,4.1-4.1h9.8c2.2,0,4.1,1.8,4.1,4.1v5.1
						C521.9,146.1,520.1,148,517.9,148z"/>
					<path class="st6" d="M516.1,146.1h-6.3c-1.1,0-2.1-0.9-2.1-2.1v-3.5c0-1.1,0.9-2.1,2.1-2.1h6.3c1.1,0,2.1,0.9,2.1,2.1v3.5
						C518.2,145.2,517.2,146.1,516.1,146.1z"/>
					<path class="st7" d="M523.5,165.9h-21.2c-2.2,0-4.1-1.8-4.1-4.1v-12.7c0-2.2,1.8-4.1,4.1-4.1h21.2c2.2,0,4.1,1.8,4.1,4.1v12.7
						C527.6,164.1,525.8,165.9,523.5,165.9z"/>
				</g>
				<g>
					<path class="st6" d="M517.2,153.2c0,1.8-1.7,3.3-3.8,3.3c-2.1,0-3.8-1.5-3.8-3.3c0-1.8,1.7-3.3,3.8-3.3
						C515.5,149.9,517.2,151.3,517.2,153.2z"/>
					<path class="st6" d="M513,163.1L513,163.1c-0.8,0-1.4-0.6-1.4-1.4v-6.6c0-0.8,0.6-1.4,1.4-1.4l0,0c0.8,0,1.4,0.6,1.4,1.4v6.6
						C514.4,162.4,513.8,163.1,513,163.1z"/>
					<path class="st6" d="M515.8,158.4h-1.9c-0.3,0-0.5-0.2-0.5-0.5l0,0c0-0.3,0.2-0.5,0.5-0.5h1.9c0.3,0,0.5,0.2,0.5,0.5l0,0
						C516.3,158.1,516.1,158.4,515.8,158.4z"/>
					<path class="st6" d="M515.8,160.3h-1.9c-0.3,0-0.5-0.2-0.5-0.5l0,0c0-0.3,0.2-0.5,0.5-0.5h1.9c0.3,0,0.5,0.2,0.5,0.5l0,0
						C516.3,160,516.1,160.3,515.8,160.3z"/>
					<path class="st6" d="M515.8,162.1h-1.9c-0.3,0-0.5-0.2-0.5-0.5l0,0c0-0.3,0.2-0.5,0.5-0.5h1.9c0.3,0,0.5,0.2,0.5,0.5l0,0
						C516.3,161.9,516.1,162.1,515.8,162.1z"/>
				</g>
			</g>
		</g>
		<line class="st1" x1="517.5" y1="173.5" x2="517.5" y2="286.5"/>
		<line class="st1" x1="506.5" y1="173.5" x2="506.5" y2="219.5"/>
	</g>
</g>
<g id="bottom_explanation">
	<g>
		<g>
			<path class="st8" d="M321,403.8h-10.9c-3.3,0-6,2.7-6,6v4h-4c-3.3,0-6,2.7-6,6v10.2c0,3.3,2.7,6,6,6h10.3c3.3,0,6-2.7,6-6v-2.6
				h4.6c3.3,0,6-2.7,6-6v-11.6C327,406.5,324.3,403.8,321,403.8z"/>
			<path class="st9" d="M308.8,429.6h-7.3c-0.9,0-1.7-0.8-1.7-1.7v-6.6c0-0.9,0.8-1.7,1.7-1.7h7.3c0.9,0,1.7,0.8,1.7,1.7v6.6
				C310.5,428.8,309.7,429.6,308.8,429.6z"/>
			<path class="st9" d="M318.8,421h-7.3c-0.9,0-1.7-0.8-1.7-1.7V412c0-0.9,0.8-1.7,1.7-1.7h7.3c0.9,0,1.7,0.8,1.7,1.7v7.3
				C320.5,420.3,319.8,421,318.8,421z"/>
		</g>
		<text transform="matrix(1 0 0 1 335 428.1019)" class="st10 st11">vCenter</text>
	</g>
	<g>
		<g>
			<path class="st12" d="M454.3,422.8V415c0-1.9-1.5-3.4-3.2-3.4h-4.2v-10.1h6.9c5.1,0,9.2,4.3,9.2,9.7v15.3c0,5.3-4.1,9.7-9.2,9.7
				h-6.9v-9.8h4.2C452.9,426.3,454.3,424.7,454.3,422.8z"/>
			<path class="st13" d="M449.4,413.6h-4.2v-12.1h-6.5c-4.8,0-8.7,4.3-8.7,9.7v15.3c0,5.3,3.9,9.7,8.7,9.7h6.5v-11.3h4.2
				c1.3,0,2.4-1.2,2.4-2.6v-6C451.7,414.7,450.7,413.6,449.4,413.6z"/>
		</g>
		<text transform="matrix(1 0 0 1 468 424.5165)" class="st10 st11">Hybrid Cloud Services</text>
	</g>
	<g>
		<g>
			<path class="st6" d="M690,436.1h-13c-6.6,0-12-5.4-12-12v-9.6c0-6.6,5.4-12,12-12h13c6.6,0,12,5.4,12,12v9.6
				C702,430.7,696.6,436.1,690,436.1z"/>
			<g>
				<g>
					<path class="st7" d="M686.3,417.6h-4.9c-2.2,0-4.1-1.8-4.1-4.1v-1.5c0-2.2,1.8-4.1,4.1-4.1h4.9c2.2,0,4.1,1.8,4.1,4.1v1.5
						C690.4,415.8,688.5,417.6,686.3,417.6z"/>
					<path class="st6" d="M685.5,416.2h-3.4c-1.1,0-2.1-0.9-2.1-2.1v-1.4c0-1.1,0.9-2.1,2.1-2.1h3.4c1.1,0,2.1,0.9,2.1,2.1v1.4
						C687.6,415.3,686.7,416.2,685.5,416.2z"/>
					<path class="st7" d="M690.4,430.6h-13.1c-2.2,0-4.1-1.8-4.1-4.1v-6.9c0-2.2,1.8-4.1,4.1-4.1h13.1c2.2,0,4.1,1.8,4.1,4.1v6.9
						C694.5,428.8,692.6,430.6,690.4,430.6z"/>
				</g>
				<g>
					<path class="st6" d="M686.9,421.4c0,1.3-1.2,2.4-2.7,2.4c-1.5,0-2.7-1.1-2.7-2.4c0-1.3,1.2-2.4,2.7-2.4
						C685.7,419,686.9,420,686.9,421.4z"/>
					<path class="st6" d="M683.8,428.6L683.8,428.6c-0.6,0-1-0.5-1-1v-4.8c0-0.6,0.5-1,1-1l0,0c0.6,0,1,0.5,1,1v4.8
						C684.9,428.1,684.4,428.6,683.8,428.6z"/>
					<path class="st6" d="M685.9,425.1h-1.4c-0.2,0-0.3-0.2-0.3-0.3l0,0c0-0.2,0.2-0.3,0.3-0.3h1.4c0.2,0,0.3,0.2,0.3,0.3l0,0
						C686.2,425,686.1,425.1,685.9,425.1z"/>
					<path class="st6" d="M685.9,426.5h-1.4c-0.2,0-0.3-0.2-0.3-0.3l0,0c0-0.2,0.2-0.3,0.3-0.3h1.4c0.2,0,0.3,0.2,0.3,0.3l0,0
						C686.2,426.4,686.1,426.5,685.9,426.5z"/>
					<path class="st6" d="M685.9,427.9h-1.4c-0.2,0-0.3-0.2-0.3-0.3l0,0c0-0.2,0.2-0.3,0.3-0.3h1.4c0.2,0,0.3,0.2,0.3,0.3l0,0
						C686.2,427.7,686.1,427.9,685.9,427.9z"/>
				</g>
			</g>
		</g>
		<text transform="matrix(1 0 0 1 705.667 425.333)" class="st10 st11">Cloud Gateway</text>
	</g>
</g>
<g id="hybrid_cloud_services">
	<g>
		<line class="st1" x1="445.5" y1="171.5" x2="445.5" y2="218.5"/>
		<g>
			<path class="st12" d="M454.7,154.3v-10.2c0-2.4-1.9-4.4-4.2-4.4H445v-13.1h9c6.6,0,12,5.7,12,12.6V159c0,6.9-5.4,12.6-12,12.6h-9
				v-12.8h5.5C452.8,158.8,454.7,156.8,454.7,154.3z"/>
			<path class="st13" d="M448.2,142.2h-5.4v-15.7h-8.5c-6.2,0-11.3,5.7-11.3,12.6V159c0,6.9,5.1,12.6,11.3,12.6h8.5v-14.7h5.4
				c1.7,0,3.1-1.5,3.1-3.4v-7.9C451.3,143.8,449.9,142.2,448.2,142.2z"/>
		</g>
	</g>
</g>
<g id="mngt_network">
	<g>
		<path class="st14" d="M766,243.5c0-12.7-5.3-23-12-23.5v0H319v0c-6.7,0.5-12,10.8-12,23.5c0,12.7,5.3,23,12,23.5v0h435v0
			C760.7,266.5,766,256.2,766,243.5z"/>
		<ellipse class="st15" cx="753" cy="244" rx="8.5" ry="19.5"/>
	</g>
	<text transform="matrix(1 0 0 1 433 251)" class="st10 st16">Management Network</text>
</g>
<g id="vmotion_network">
	<g>
		<path class="st17" d="M765,310.5c0-12.7-5.3-23-12-23.5v0H318v0c-6.7,0.5-12,10.8-12,23.5s5.3,23,12,23.5v0h435v0
			C759.7,333.5,765,323.2,765,310.5z"/>
		<ellipse class="st15" cx="752" cy="311" rx="8.5" ry="19.5"/>
	</g>
	<text transform="matrix(1 0 0 1 452 319)" class="st10 st16">vMotion Network</text>
</g>
<g id="vcenter">
	<g>
		<line class="st1" x1="366.5" y1="174.5" x2="366.5" y2="218.5"/>
		<g>
			<path class="st8" d="M389.6,125h-15.2c-4.6,0-8.4,3.8-8.4,8.4v5.6h-5.6c-4.6,0-8.4,3.8-8.4,8.4v14.2c0,4.6,3.8,8.4,8.4,8.4h14.3
				c4.6,0,8.4-3.8,8.4-8.4V158h6.4c4.6,0,8.4-3.8,8.4-8.4v-16.2C398,128.8,394.2,125,389.6,125z"/>
			<path class="st9" d="M373.3,160.9h-11.6c-0.9,0-1.7-0.8-1.7-1.7v-10.5c0-0.9,0.8-1.7,1.7-1.7h11.6c0.9,0,1.7,0.8,1.7,1.7v10.5
				C375,160.2,374.2,160.9,373.3,160.9z"/>
			<path class="st9" d="M387.3,149h-11.6c-0.9,0-1.7-0.8-1.7-1.7v-11.6c0-0.9,0.8-1.7,1.7-1.7h11.6c0.9,0,1.7,0.8,1.7,1.7v11.6
				C389,148.2,388.2,149,387.3,149z"/>
		</g>
	</g>
</g>
<g id="Layer_2">
	<g>
		<path class="st18" d="M350.6,32.9c-6.6,0-12.6,1.5-17.5,4.1c-1.8-15.2-14.1-27-29.1-27c-15.4,0-28,12.5-29.2,28.3
			c-1.3-0.5-2.7-0.8-4.2-0.8c-7.8,0-14.2,8.2-14.2,18.3c0,10.1,6.3,18.3,14.2,18.3c1.7,0,3.4-0.4,4.9-1.1h65.5
			c3,0.7,6.2,1.1,9.6,1.1c16.2,0,29.4-9.2,29.4-20.6C380,42.1,366.9,32.9,350.6,32.9z"/>
		<text transform="matrix(1 0 0 1 270 59.0682)" class="st10 st11">Data Center</text>
	</g>
</g>
</svg>
