<?xml version="1.0" encoding="utf-8"?>
<!-- Generator: Adobe Illustrator 22.0.0, SVG Export Plug-In . SVG Version: 6.00 Build 0)  -->
<svg version="1.1" id="Layer_1" xmlns="http://www.w3.org/2000/svg" xmlns:xlink="http://www.w3.org/1999/xlink" x="0px" y="0px"
	 viewBox="0 0 640 523" style="enable-background:new 0 0 640 523;" xml:space="preserve">
<style type="text/css">
	.st0{opacity:0.4;}
	.st1{fill:#5FABE2;}
	.st2{fill:#1B1464;}
	.st3{enable-background:new    ;}
	.st4{clip-path:url(#SVGID_2_);}
	.st5{fill:#3E89DE;}
	.st6{fill:#FFFFFF;}
	.st7{clip-path:url(#SVGID_4_);}
	.st8{clip-path:url(#SVGID_6_);fill:#3E89DE;}
	.st9{clip-path:url(#SVGID_6_);fill:#FFFFFF;}
	.st10{fill:#3E89DE;stroke:#FFFFFF;stroke-width:3;stroke-miterlimit:10;}
	.st11{fill:none;stroke:#FFFFFF;stroke-width:2;stroke-miterlimit:10;}
	.st12{clip-path:url(#SVGID_8_);}
	.st13{clip-path:url(#SVGID_10_);}
	.st14{clip-path:url(#SVGID_12_);fill:#3E89DE;}
	.st15{clip-path:url(#SVGID_12_);fill:#FFFFFF;}
	.st16{clip-path:url(#SVGID_14_);}
	.st17{clip-path:url(#SVGID_16_);}
	.st18{clip-path:url(#SVGID_18_);fill:#3E89DE;}
	.st19{clip-path:url(#SVGID_18_);fill:#FFFFFF;}
	.st20{fill:none;stroke:#FFFFFF;stroke-width:4;stroke-miterlimit:10;}
	.st21{fill:#86C225;}
	.st22{fill:#499100;}
	.st23{fill:#FCEE21;}
	.st24{font-family:'IBMPlexSans-Bold';}
	.st25{font-size:24px;}
</style>
<g class="st0">
	<path class="st1" d="M54,522c-29.8,0-54-24.2-54-54V57C0,27.2,24.2,3,54,3h531c29.8,0,54,24.2,54,54v411c0,29.8-24.2,54-54,54H54z"
		/>
	<path class="st2" d="M585,4c29.2,0,53,23.8,53,53v411c0,29.2-23.8,53-53,53H54c-29.2,0-53-23.8-53-53V57C1,27.8,24.8,4,54,4H585
		 M585,2H54C23.8,2-1,26.8-1,57v411c0,30.3,24.8,55,55,55h531c30.3,0,55-24.8,55-55V57C640,26.8,615.3,2,585,2L585,2z"/>
</g>
<g>
	<g>
		<g>
			<g>
				<g class="st3">
					<defs>
						<polygon id="SVGID_1_" class="st3" points="49.1,234.9 49.3,157.4 74.9,172.2 74.7,249.6 						"/>
					</defs>
					<clipPath id="SVGID_2_">
						<use xlink:href="#SVGID_1_"  style="overflow:visible;"/>
					</clipPath>
					<g class="st4">
						<g>
							<g>
								<g>
									<polyline class="st5" points="72,173.8 52.2,162.3 52,233.2 71.8,244.7 72,173.8 									"/>
									<path class="st6" d="M52,233.2l0.2-70.9L72,173.8l-0.2,70.9L52,233.2 M74.9,172.2l-25.5-14.7l-0.2,77.4l25.5,14.7
										L74.9,172.2"/>
								</g>
							</g>
						</g>
					</g>
				</g>
			</g>
		</g>
		<g>
			<g>
				<g class="st3">
					<defs>
						<rect id="SVGID_3_" x="73.7" y="148.8" class="st3" width="38.5" height="100.4"/>
					</defs>
					<clipPath id="SVGID_4_">
						<use xlink:href="#SVGID_3_"  style="overflow:visible;"/>
					</clipPath>
					<g class="st7">
						<g>
							<g>
								<g>
									<g>
										<defs>
											<polyline id="SVGID_5_" points="112.3,227.1 112,148.8 73.7,170.9 74,249.2 112.3,227.1 											"/>
										</defs>
										<clipPath id="SVGID_6_">
											<use xlink:href="#SVGID_5_"  style="overflow:visible;"/>
										</clipPath>
										<polyline class="st8" points="109.2,153.7 109.4,225.4 76.8,244.3 76.6,172.6 109.2,153.7 										"/>
										<path class="st9" d="M109.4,225.4l-0.2-71.7l-32.6,18.8l0.2,71.7L109.4,225.4 M112,148.8l0.2,78.3L74,249.2l-0.2-78.3
											L112,148.8"/>
									</g>
								</g>
							</g>
						</g>
					</g>
				</g>
			</g>
		</g>
		<polygon class="st10" points="52,157.7 72.9,170 109,149.3 88.1,137 		"/>
	</g>
	<g>
		<line class="st11" x1="57.3" y1="185.4" x2="65.7" y2="189.6"/>
	</g>
	<g>
		<line class="st11" x1="57.3" y1="194.4" x2="65.7" y2="198.6"/>
	</g>
</g>
<g>
	<g>
		<g>
			<g>
				<g class="st3">
					<defs>
						<polygon id="SVGID_7_" class="st3" points="137.1,256.9 137.3,179.4 162.9,194.2 162.7,271.6 						"/>
					</defs>
					<clipPath id="SVGID_8_">
						<use xlink:href="#SVGID_7_"  style="overflow:visible;"/>
					</clipPath>
					<g class="st12">
						<g>
							<g>
								<g>
									<polyline class="st5" points="160,195.8 140.2,184.3 140,255.2 159.8,266.7 160,195.8 									"/>
									<path class="st6" d="M140,255.2l0.2-70.9l19.9,11.5l-0.2,70.9L140,255.2 M162.9,194.2l-25.5-14.7l-0.2,77.4l25.5,14.7
										L162.9,194.2"/>
								</g>
							</g>
						</g>
					</g>
				</g>
			</g>
		</g>
		<g>
			<g>
				<g class="st3">
					<defs>
						<rect id="SVGID_9_" x="161.7" y="170.8" class="st3" width="38.5" height="100.4"/>
					</defs>
					<clipPath id="SVGID_10_">
						<use xlink:href="#SVGID_9_"  style="overflow:visible;"/>
					</clipPath>
					<g class="st13">
						<g>
							<g>
								<g>
									<g>
										<defs>
											<polyline id="SVGID_11_" points="200.3,249.1 200,170.8 161.7,192.9 162,271.2 200.3,249.1 											"/>
										</defs>
										<clipPath id="SVGID_12_">
											<use xlink:href="#SVGID_11_"  style="overflow:visible;"/>
										</clipPath>
										<polyline class="st14" points="197.2,175.7 197.4,247.4 164.8,266.3 164.6,194.6 197.2,175.7 										"/>
										<path class="st15" d="M197.4,247.4l-0.2-71.7l-32.6,18.8l0.2,71.7L197.4,247.4 M200,170.8l0.2,78.3L162,271.2l-0.2-78.3
											L200,170.8"/>
									</g>
								</g>
							</g>
						</g>
					</g>
				</g>
			</g>
		</g>
		<polygon class="st10" points="140,179.7 160.9,192 197,171.3 176.1,159 		"/>
	</g>
	<g>
		<line class="st11" x1="145.3" y1="207.4" x2="153.7" y2="211.6"/>
	</g>
	<g>
		<line class="st11" x1="145.3" y1="216.4" x2="153.7" y2="220.6"/>
	</g>
</g>
<g>
	<g>
		<g>
			<g>
				<g class="st3">
					<defs>
						<polygon id="SVGID_13_" class="st3" points="71.1,337.9 71.3,260.4 96.9,275.2 96.7,352.6 						"/>
					</defs>
					<clipPath id="SVGID_14_">
						<use xlink:href="#SVGID_13_"  style="overflow:visible;"/>
					</clipPath>
					<g class="st16">
						<g>
							<g>
								<g>
									<polyline class="st5" points="94,276.8 74.2,265.3 74,336.2 93.8,347.7 94,276.8 									"/>
									<path class="st6" d="M74,336.2l0.2-70.9L94,276.8l-0.2,70.9L74,336.2 M96.9,275.2l-25.5-14.7l-0.2,77.4l25.5,14.7
										L96.9,275.2"/>
								</g>
							</g>
						</g>
					</g>
				</g>
			</g>
		</g>
		<g>
			<g>
				<g class="st3">
					<defs>
						<rect id="SVGID_15_" x="95.7" y="251.8" class="st3" width="38.5" height="100.4"/>
					</defs>
					<clipPath id="SVGID_16_">
						<use xlink:href="#SVGID_15_"  style="overflow:visible;"/>
					</clipPath>
					<g class="st17">
						<g>
							<g>
								<g>
									<g>
										<defs>
											<polyline id="SVGID_17_" points="134.3,330.1 134,251.8 95.7,273.9 96,352.2 134.3,330.1 											"/>
										</defs>
										<clipPath id="SVGID_18_">
											<use xlink:href="#SVGID_17_"  style="overflow:visible;"/>
										</clipPath>
										<polyline class="st18" points="131.2,256.7 131.4,328.4 98.8,347.3 98.6,275.6 131.2,256.7 										"/>
										<path class="st19" d="M131.4,328.4l-0.2-71.7l-32.6,18.8l0.2,71.7L131.4,328.4 M134,251.8l0.2,78.3L96,352.2l-0.2-78.3
											L134,251.8"/>
									</g>
								</g>
							</g>
						</g>
					</g>
				</g>
			</g>
		</g>
		<polygon class="st10" points="74,260.7 94.9,273 131,252.3 110.1,240 		"/>
	</g>
	<g>
		<line class="st11" x1="79.3" y1="288.4" x2="87.7" y2="292.6"/>
	</g>
	<g>
		<line class="st11" x1="79.3" y1="297.4" x2="87.7" y2="301.6"/>
	</g>
</g>
<g>
	<g>
		<path class="st2" d="M305.8,119.5v6.2H269v-6.2H305.8 M307.8,117.5H267v10.2h40.8V117.5L307.8,117.5z"/>
	</g>
	<g>
		<path class="st2" d="M383,119.5v6.2h-36.8v-6.2H383 M385,117.5h-40.8v10.2H385V117.5L385,117.5z"/>
	</g>
	<g>
		<path class="st2" d="M333.4,107v5.9v2h2h8.8v16.4h-35.7v-16.4h8.8h2v-2V107H333.4 M335.4,105h-18.2v7.9h-10.8v20.4h39.7v-20.4
			h-10.8V105L335.4,105z"/>
	</g>
</g>
<g>
	<g>
		<path class="st2" d="M305.8,152.5v6.2H269v-6.2H305.8 M307.8,150.5H267v10.2h40.8V150.5L307.8,150.5z"/>
	</g>
	<g>
		<path class="st2" d="M383,152.5v6.2h-36.8v-6.2H383 M385,150.5h-40.8v10.2H385V150.5L385,150.5z"/>
	</g>
	<g>
		<path class="st2" d="M333.4,140v5.9v2h2h8.8v16.4h-35.7v-16.4h8.8h2v-2V140H333.4 M335.4,138h-18.2v7.9h-10.8v20.4h39.7v-20.4
			h-10.8V138L335.4,138z"/>
	</g>
</g>
<g>
	<g>
		<path class="st2" d="M305.8,185.5v6.2H269v-6.2H305.8 M307.8,183.5H267v10.2h40.8V183.5L307.8,183.5z"/>
	</g>
	<g>
		<path class="st2" d="M383,185.5v6.2h-36.8v-6.2H383 M385,183.5h-40.8v10.2H385V183.5L385,183.5z"/>
	</g>
	<g>
		<path class="st2" d="M333.4,173v5.9v2h2h8.8v16.4h-35.7v-16.4h8.8h2v-2V173H333.4 M335.4,171h-18.2v7.9h-10.8v20.4h39.7v-20.4
			h-10.8V171L335.4,171z"/>
	</g>
</g>
<g>
	<g>
		<circle class="st1" cx="523.5" cy="173.5" r="37.5"/>
	</g>
	<g>
		<g>
			<path class="st1" d="M524,198c-12.1,0-19.6-2.7-20.9-4.5l-0.1-0.1V156h42v37.4l-0.1,0.1C543.6,195.3,536.1,198,524,198z"/>
			<path class="st6" d="M543,158v34.6c-1.7,1.3-8.5,3.4-19,3.4c-10.6,0-17.3-2.1-19-3.4V158H543 M547,154h-46v40.7h0.5
				c2.1,3,11.4,5.3,22.5,5.3s20.4-2.3,22.5-5.3h0.5V154L547,154z"/>
		</g>
		<g>
			<ellipse class="st1" cx="524" cy="154.5" rx="21" ry="5.5"/>
			<path class="st6" d="M524,151c9.9,0,16.3,2,18.5,3.5c-2.2,1.5-8.6,3.5-18.5,3.5s-16.3-2-18.5-3.5C507.7,153,514.1,151,524,151
				 M524,147c-12.7,0-23,3.4-23,7.5s10.3,7.5,23,7.5c12.7,0,23-3.4,23-7.5S536.7,147,524,147L524,147z"/>
		</g>
		<path class="st20" d="M502,168.5c0,0,23,10.5,44-0.5"/>
		<path class="st20" d="M502,181.5c0,0,23,10.5,44-0.5"/>
	</g>
</g>
<g>
	<g>
		<circle class="st1" cx="486.5" cy="247.5" r="37.5"/>
	</g>
	<g>
		<g>
			<path class="st1" d="M487,272c-12.1,0-19.6-2.7-20.9-4.5l-0.1-0.1V230h42v37.4l-0.1,0.1C506.6,269.3,499.1,272,487,272z"/>
			<path class="st6" d="M506,232v34.6c-1.7,1.3-8.5,3.4-19,3.4c-10.6,0-17.3-2.1-19-3.4V232H506 M510,228h-46v40.7h0.5
				c2.1,3,11.4,5.3,22.5,5.3s20.4-2.3,22.5-5.3h0.5V228L510,228z"/>
		</g>
		<g>
			<ellipse class="st1" cx="487" cy="228.5" rx="21" ry="5.5"/>
			<path class="st6" d="M487,225c9.9,0,16.3,2,18.5,3.5c-2.2,1.5-8.6,3.5-18.5,3.5s-16.3-2-18.5-3.5C470.7,227,477.1,225,487,225
				 M487,221c-12.7,0-23,3.4-23,7.5s10.3,7.5,23,7.5c12.7,0,23-3.4,23-7.5S499.7,221,487,221L487,221z"/>
		</g>
		<path class="st20" d="M465,242.5c0,0,23,10.5,44-0.5"/>
		<path class="st20" d="M465,255.5c0,0,23,10.5,44-0.5"/>
	</g>
</g>
<g>
	<g>
		<circle class="st1" cx="561.5" cy="247.5" r="37.5"/>
	</g>
	<g>
		<g>
			<path class="st1" d="M562,272c-12.1,0-19.6-2.7-20.9-4.5l-0.1-0.1V230h42v37.4l-0.1,0.1C581.6,269.3,574.1,272,562,272z"/>
			<path class="st6" d="M581,232v34.6c-1.7,1.3-8.5,3.4-19,3.4c-10.6,0-17.3-2.1-19-3.4V232H581 M585,228h-46v40.7h0.5
				c2.1,3,11.4,5.3,22.5,5.3s20.4-2.3,22.5-5.3h0.5V228L585,228z"/>
		</g>
		<g>
			<ellipse class="st1" cx="562" cy="228.5" rx="21" ry="5.5"/>
			<path class="st6" d="M562,225c9.9,0,16.3,2,18.5,3.5c-2.2,1.5-8.6,3.5-18.5,3.5s-16.3-2-18.5-3.5C545.7,227,552.1,225,562,225
				 M562,221c-12.7,0-23,3.4-23,7.5s10.3,7.5,23,7.5s23-3.4,23-7.5S574.7,221,562,221L562,221z"/>
		</g>
		<path class="st20" d="M540,242.5c0,0,23,10.5,44-0.5"/>
		<path class="st20" d="M540,255.5c0,0,23,10.5,44-0.5"/>
	</g>
</g>
<g>
	<g>
		<rect x="285" y="220" class="st21" width="75" height="104"/>
	</g>
	<polygon class="st22" points="319,246 319,240 298,240 292,240 292,303 297,303 298,303 318,303 318,297 298,297 298,246 	"/>
	<polygon class="st22" points="319,255 319,250 309,250 307,250 304,250 304,292 307,292 309,292 319,292 319,287 309,287 309,255 	
		"/>
	<rect x="313" y="282" width="6" height="26"/>
	<rect x="321" y="282" width="6" height="26"/>
	<rect x="341" y="282" class="st6" width="9" height="26"/>
	<rect x="316" y="237" width="38" height="21"/>
	<circle class="st6" cx="319.5" cy="271.5" r="3.5"/>
	<polygon class="st22" points="338,269 340,269 343,269 343,258 338,258 338,265 336,265 333,265 331,265 331,293 331,295 331,297 
		341,297 341,293 336,293 336,269 	"/>
	<rect x="360" y="235" class="st23" width="8" height="13"/>
	<rect x="360" y="258" class="st23" width="8" height="39"/>
</g>
<g>
	<g>
		<rect x="240" y="332" class="st21" width="75" height="104"/>
	</g>
	<polygon class="st22" points="274,358 274,352 253,352 247,352 247,415 252,415 253,415 273,415 273,409 253,409 253,358 	"/>
	<polygon class="st22" points="274,367 274,362 264,362 262,362 259,362 259,404 262,404 264,404 274,404 274,399 264,399 264,367 	
		"/>
	<rect x="268" y="394" width="6" height="26"/>
	<rect x="276" y="394" width="6" height="26"/>
	<rect x="296" y="394" class="st6" width="9" height="26"/>
	<rect x="271" y="349" width="38" height="21"/>
	<circle class="st6" cx="274.5" cy="383.5" r="3.5"/>
	<polygon class="st22" points="293,381 295,381 298,381 298,370 293,370 293,377 291,377 288,377 286,377 286,405 286,407 286,409 
		296,409 296,405 291,405 291,381 	"/>
	<rect x="315" y="347" class="st23" width="8" height="13"/>
	<rect x="315" y="370" class="st23" width="8" height="39"/>
</g>
<g>
	<g>
		<rect x="334" y="331" class="st21" width="75" height="104"/>
	</g>
	<polygon class="st22" points="368,357 368,351 347,351 341,351 341,414 346,414 347,414 367,414 367,408 347,408 347,357 	"/>
	<polygon class="st22" points="368,366 368,361 358,361 356,361 353,361 353,403 356,403 358,403 368,403 368,398 358,398 358,366 	
		"/>
	<rect x="362" y="393" width="6" height="26"/>
	<rect x="370" y="393" width="6" height="26"/>
	<rect x="390" y="393" class="st6" width="9" height="26"/>
	<rect x="365" y="348" width="38" height="21"/>
	<circle class="st6" cx="368.5" cy="382.5" r="3.5"/>
	<polygon class="st22" points="387,380 389,380 392,380 392,369 387,369 387,376 385,376 382,376 380,376 380,404 380,406 380,408 
		390,408 390,404 385,404 385,380 	"/>
	<rect x="409" y="346" class="st23" width="8" height="13"/>
	<rect x="409" y="369" class="st23" width="8" height="39"/>
</g>
<text transform="matrix(1 0 0 1 214 53)" class="st24 st25">Virtual Data Center</text>
<text transform="matrix(1 0 0 1 67 484)" class="st24 st25">Compute</text>
<text transform="matrix(1 0 0 1 266 484)" class="st24 st25">Networking</text>
<text transform="matrix(1 0 0 1 484 484)" class="st24 st25">Storage</text>
</svg>
