<?xml version="1.0" encoding="utf-8"?>
<!-- Generator: Adobe Illustrator 22.0.0, SVG Export Plug-In . SVG Version: 6.00 Build 0)  -->
<svg version="1.1" id="Layer_1" xmlns="http://www.w3.org/2000/svg" xmlns:xlink="http://www.w3.org/1999/xlink" x="0px" y="0px"
	 viewBox="0 0 451.7 201.3" style="enable-background:new 0 0 451.7 201.3;" xml:space="preserve">
<style type="text/css">
	.st0{opacity:0.4;}
	.st1{fill:#5FABE2;}
	.st2{fill:#1B1464;}
	.st3{enable-background:new    ;}
	.st4{clip-path:url(#SVGID_2_);}
	.st5{fill:#3E89DE;}
	.st6{fill:#FFFFFF;}
	.st7{clip-path:url(#SVGID_4_);}
	.st8{clip-path:url(#SVGID_6_);fill:#3E89DE;}
	.st9{clip-path:url(#SVGID_6_);fill:#FFFFFF;}
	.st10{fill:#3E89DE;stroke:#FFFFFF;stroke-miterlimit:10;}
	.st11{fill:none;stroke:#FFFFFF;stroke-miterlimit:10;}
	.st12{clip-path:url(#SVGID_8_);}
	.st13{clip-path:url(#SVGID_10_);}
	.st14{clip-path:url(#SVGID_12_);fill:#3E89DE;}
	.st15{clip-path:url(#SVGID_12_);fill:#FFFFFF;}
	.st16{clip-path:url(#SVGID_14_);}
	.st17{clip-path:url(#SVGID_16_);}
	.st18{clip-path:url(#SVGID_18_);fill:#3E89DE;}
	.st19{clip-path:url(#SVGID_18_);fill:#FFFFFF;}
	.st20{fill:#86C225;}
	.st21{fill:#499100;}
	.st22{fill:#FCEE21;}
	.st23{font-family:'IBMPlexSans';}
	.st24{font-size:10px;}
</style>
<g class="st0">
	<path class="st1" d="M104,196.5c-4.9,0-8.9-4-8.9-8.9v-174c0-4.9,4-8.9,8.9-8.9h235c4.9,0,8.9,4,8.9,8.9v174c0,4.9-4,8.9-8.9,8.9
		H104z"/>
	<path class="st2" d="M339,4.9c4.8,0,8.8,3.9,8.8,8.8v174c0,4.8-3.9,8.8-8.8,8.8H104c-4.8,0-8.8-3.9-8.8-8.8v-174
		c0-4.8,3.9-8.8,8.8-8.8H339 M339,4.7H104c-5,0-9,4.1-9,9v174c0,5,4.1,9,9,9h235c5,0,9-4.1,9-9v-174C348,8.7,343.9,4.7,339,4.7
		L339,4.7z"/>
</g>
<g>
	<g>
		<g>
			<g>
				<g class="st3">
					<defs>
						<polygon id="SVGID_1_" class="st3" points="119.5,88.8 119.6,66.1 127,70.4 127,93.1 						"/>
					</defs>
					<clipPath id="SVGID_2_">
						<use xlink:href="#SVGID_1_"  style="overflow:visible;"/>
					</clipPath>
					<g class="st4">
						<g>
							<g>
								<g>
									<polyline class="st5" points="126.3,70.8 120.3,67.4 120.2,88.4 126.3,91.9 126.3,70.8 									"/>
									<path class="st6" d="M120.2,88.4l0.1-21l6.1,3.5l-0.1,21L120.2,88.4 M127,70.4l-7.5-4.3l-0.1,22.7l7.5,4.3L127,70.4"/>
								</g>
							</g>
						</g>
					</g>
				</g>
			</g>
		</g>
		<g>
			<g>
				<g class="st3">
					<defs>
						<rect id="SVGID_3_" x="126.7" y="63.6" class="st3" width="11.3" height="29.4"/>
					</defs>
					<clipPath id="SVGID_4_">
						<use xlink:href="#SVGID_3_"  style="overflow:visible;"/>
					</clipPath>
					<g class="st7">
						<g>
							<g>
								<g>
									<g>
										<defs>
											<polyline id="SVGID_5_" points="138,86.5 137.9,63.6 126.7,70.1 126.8,93 138,86.5 											"/>
										</defs>
										<clipPath id="SVGID_6_">
											<use xlink:href="#SVGID_5_"  style="overflow:visible;"/>
										</clipPath>
										<polyline class="st8" points="137.2,64.8 137.3,86.1 127.5,91.8 127.4,70.5 137.2,64.8 										"/>
										<path class="st9" d="M137.3,86.1l-0.1-21.3l-9.8,5.7l0.1,21.3L137.3,86.1 M137.9,63.6l0.1,22.9L126.8,93l-0.1-22.9
											L137.9,63.6"/>
									</g>
								</g>
							</g>
						</g>
					</g>
				</g>
			</g>
		</g>
		<polygon class="st10" points="120.3,66.2 126.5,69.8 137,63.7 130.9,60.2 		"/>
	</g>
	<g>
		<line class="st11" x1="121.9" y1="74.3" x2="124.4" y2="75.6"/>
	</g>
	<g>
		<line class="st11" x1="121.9" y1="76.9" x2="124.4" y2="78.2"/>
	</g>
</g>
<g>
	<g>
		<g>
			<g>
				<g class="st3">
					<defs>
						<polygon id="SVGID_7_" class="st3" points="145.3,95.2 145.3,72.6 152.8,76.9 152.7,99.6 						"/>
					</defs>
					<clipPath id="SVGID_8_">
						<use xlink:href="#SVGID_7_"  style="overflow:visible;"/>
					</clipPath>
					<g class="st12">
						<g>
							<g>
								<g>
									<polyline class="st5" points="152.1,77.3 146,73.8 146,94.8 152,98.3 152.1,77.3 									"/>
									<path class="st6" d="M146,94.8l0.1-21l6.1,3.5l-0.1,21L146,94.8 M152.8,76.9l-7.5-4.3l-0.1,22.7l7.5,4.3L152.8,76.9"/>
								</g>
							</g>
						</g>
					</g>
				</g>
			</g>
		</g>
		<g>
			<g>
				<g class="st3">
					<defs>
						<rect id="SVGID_9_" x="152.5" y="70.1" class="st3" width="11.3" height="29.4"/>
					</defs>
					<clipPath id="SVGID_10_">
						<use xlink:href="#SVGID_9_"  style="overflow:visible;"/>
					</clipPath>
					<g class="st13">
						<g>
							<g>
								<g>
									<g>
										<defs>
											<polyline id="SVGID_11_" points="163.7,93 163.7,70.1 152.5,76.5 152.5,99.4 163.7,93 											"/>
										</defs>
										<clipPath id="SVGID_12_">
											<use xlink:href="#SVGID_11_"  style="overflow:visible;"/>
										</clipPath>
										<polyline class="st14" points="163,71.3 163,92.6 153.2,98.2 153.2,76.9 163,71.3 										"/>
										<path class="st15" d="M163,92.6L163,71.3l-9.8,5.7l0.1,21.3L163,92.6 M163.7,70.1l0.1,22.9l-11.2,6.5l-0.1-22.9
											L163.7,70.1"/>
									</g>
								</g>
							</g>
						</g>
					</g>
				</g>
			</g>
		</g>
		<polygon class="st10" points="146.1,72.7 152.2,76.3 162.8,70.2 156.7,66.6 		"/>
	</g>
	<g>
		<line class="st11" x1="147.6" y1="80.8" x2="150.1" y2="82"/>
	</g>
	<g>
		<line class="st11" x1="147.6" y1="83.4" x2="150.1" y2="84.6"/>
	</g>
</g>
<g>
	<g>
		<g>
			<g>
				<g class="st3">
					<defs>
						<polygon id="SVGID_13_" class="st3" points="125.9,118.9 126,96.3 133.5,100.6 133.4,123.3 						"/>
					</defs>
					<clipPath id="SVGID_14_">
						<use xlink:href="#SVGID_13_"  style="overflow:visible;"/>
					</clipPath>
					<g class="st16">
						<g>
							<g>
								<g>
									<polyline class="st5" points="132.8,101 126.7,97.5 126.7,118.5 132.7,122 132.8,101 									"/>
									<path class="st6" d="M126.7,118.5l0.1-21l6.1,3.5l-0.1,21L126.7,118.5 M133.5,100.6l-7.5-4.3l-0.1,22.7l7.5,4.3
										L133.5,100.6"/>
								</g>
							</g>
						</g>
					</g>
				</g>
			</g>
		</g>
		<g>
			<g>
				<g class="st3">
					<defs>
						<rect id="SVGID_15_" x="133.1" y="93.8" class="st3" width="11.3" height="29.4"/>
					</defs>
					<clipPath id="SVGID_16_">
						<use xlink:href="#SVGID_15_"  style="overflow:visible;"/>
					</clipPath>
					<g class="st17">
						<g>
							<g>
								<g>
									<g>
										<defs>
											<polyline id="SVGID_17_" points="144.4,116.7 144.4,93.8 133.1,100.2 133.2,123.1 144.4,116.7 											"/>
										</defs>
										<clipPath id="SVGID_18_">
											<use xlink:href="#SVGID_17_"  style="overflow:visible;"/>
										</clipPath>
										<polyline class="st18" points="143.6,95 143.7,116.3 133.9,121.9 133.9,100.6 143.6,95 										"/>
										<path class="st19" d="M143.7,116.3L143.6,95l-9.8,5.7l0.1,21.3L143.7,116.3 M144.4,93.8l0.1,22.9l-11.2,6.5l-0.1-22.9
											L144.4,93.8"/>
									</g>
								</g>
							</g>
						</g>
					</g>
				</g>
			</g>
		</g>
		<polygon class="st10" points="126.8,96.4 132.9,100 143.5,93.9 137.3,90.3 		"/>
	</g>
	<g>
		<line class="st11" x1="128.3" y1="104.5" x2="130.8" y2="105.7"/>
	</g>
	<g>
		<line class="st11" x1="128.3" y1="107.1" x2="130.8" y2="108.3"/>
	</g>
</g>
<g>
	<g>
		<path class="st2" d="M214.8,47.4v2.7H198v-2.7H214.8 M215.8,46.4H197v4.7h18.8V46.4L215.8,46.4z"/>
	</g>
	<g>
		<path class="st2" d="M250.2,47.4v2.7h-16.8v-2.7H250.2 M251.2,46.4h-18.8v4.7h18.8V46.4L251.2,46.4z"/>
	</g>
	<g>
		<path class="st2" d="M227.4,41.7v2.6v1h1h4v7.4h-16.2v-7.4h4h1v-1v-2.6H227.4 M228.4,40.7h-8.3v3.6h-5v9.4h18.2v-9.4h-5V40.7
			L228.4,40.7z"/>
	</g>
</g>
<g>
	<g>
		<path class="st2" d="M214.8,62.6v2.7H198v-2.7H214.8 M215.8,61.6H197v4.7h18.8V61.6L215.8,61.6z"/>
	</g>
	<g>
		<path class="st2" d="M250.2,62.6v2.7h-16.8v-2.7H250.2 M251.2,61.6h-18.8v4.7h18.8V61.6L251.2,61.6z"/>
	</g>
	<g>
		<path class="st2" d="M227.4,56.8v2.6v1h1h4v7.4h-16.2v-7.4h4h1v-1v-2.6H227.4 M228.4,55.8h-8.3v3.6h-5v9.4h18.2v-9.4h-5V55.8
			L228.4,55.8z"/>
	</g>
</g>
<g>
	<g>
		<path class="st2" d="M214.8,77.7v2.7H198v-2.7H214.8 M215.8,76.7H197v4.7h18.8V76.7L215.8,76.7z"/>
	</g>
	<g>
		<path class="st2" d="M250.2,77.7v2.7h-16.8v-2.7H250.2 M251.2,76.7h-18.8v4.7h18.8V76.7L251.2,76.7z"/>
	</g>
	<g>
		<path class="st2" d="M227.4,72v2.6v1h1h4V83h-16.2v-7.4h4h1v-1V72H227.4 M228.4,71h-8.3v3.6h-5V84h18.2v-9.4h-5V71L228.4,71z"/>
	</g>
</g>
<g>
	<g>
		<circle class="st1" cx="305" cy="73.2" r="11.6"/>
	</g>
	<g>
		<g>
			<path class="st1" d="M305.2,80.9c-3.5,0-6.1-0.7-6.5-1.4l-0.1-0.1V67.7h13.2v11.7l-0.1,0.1C311.2,80.2,308.6,80.9,305.2,80.9z"/>
			<path class="st6" d="M311.3,68.2v11c-0.4,0.4-2.5,1.2-6.1,1.2s-5.7-0.7-6.1-1.2v-11H311.3 M312.3,67.2h-14.2v12.6h0.1
				c0.7,0.9,3.5,1.6,7,1.6c3.4,0,6.3-0.7,7-1.6h0.1V67.2L312.3,67.2z"/>
		</g>
		<g>
			<path class="st1" d="M305.2,69.2c-4,0-6.6-1.1-6.6-1.8c0-0.7,2.6-1.8,6.6-1.8s6.6,1.1,6.6,1.8C311.8,68.1,309.2,69.2,305.2,69.2z
				"/>
			<path class="st6" d="M305.2,66.1c3.7,0,5.7,0.9,6.1,1.3c-0.4,0.4-2.4,1.3-6.1,1.3c-3.7,0-5.7-0.9-6.1-1.3
				C299.5,66.9,301.5,66.1,305.2,66.1 M305.2,65.1c-3.9,0-7.1,1-7.1,2.3s3.2,2.3,7.1,2.3c3.9,0,7.1-1,7.1-2.3S309.1,65.1,305.2,65.1
				L305.2,65.1z"/>
		</g>
		<path class="st11" d="M298.4,71.7c0,0,7.1,3.2,13.6-0.2"/>
		<path class="st11" d="M298.4,75.7c0,0,7.1,3.2,13.6-0.2"/>
	</g>
</g>
<g>
	<g>
		<circle class="st1" cx="290.6" cy="96.1" r="11.6"/>
	</g>
	<g>
		<g>
			<path class="st1" d="M290.7,103.8c-3.5,0-6.1-0.7-6.5-1.4l-0.1-0.1V90.6h13.2v11.7l-0.1,0.1C296.8,103,294.2,103.8,290.7,103.8z"
				/>
			<path class="st6" d="M296.8,91.1v11c-0.4,0.4-2.5,1.2-6.1,1.2c-3.6,0-5.7-0.7-6.1-1.2v-11H296.8 M297.8,90.1h-14.2v12.6h0.1
				c0.7,0.9,3.5,1.6,7,1.6c3.4,0,6.3-0.7,7-1.6h0.1V90.1L297.8,90.1z"/>
		</g>
		<g>
			<path class="st1" d="M290.7,92c-4,0-6.6-1.1-6.6-1.8c0-0.7,2.6-1.8,6.6-1.8s6.6,1.1,6.6,1.8C297.3,91,294.8,92,290.7,92z"/>
			<path class="st6" d="M290.7,88.9c3.7,0,5.7,0.9,6.1,1.3c-0.4,0.4-2.4,1.3-6.1,1.3c-3.7,0-5.7-0.9-6.1-1.3
				C285,89.8,287.1,88.9,290.7,88.9 M290.7,87.9c-3.9,0-7.1,1-7.1,2.3c0,1.3,3.2,2.3,7.1,2.3c3.9,0,7.1-1,7.1-2.3
				C297.8,88.9,294.7,87.9,290.7,87.9L290.7,87.9z"/>
		</g>
		<path class="st11" d="M283.9,94.5c0,0,7.1,3.2,13.6-0.2"/>
		<path class="st11" d="M283.9,98.6c0,0,7.1,3.2,13.6-0.2"/>
	</g>
</g>
<g>
	<g>
		<circle class="st1" cx="320.1" cy="96.1" r="11.6"/>
	</g>
	<g>
		<g>
			<path class="st1" d="M320.2,103.8c-3.5,0-6.1-0.7-6.5-1.4l-0.1-0.1V90.6h13.2v11.7l-0.1,0.1C326.3,103,323.7,103.8,320.2,103.8z"
				/>
			<path class="st6" d="M326.3,91.1v11c-0.4,0.4-2.5,1.2-6.1,1.2c-3.6,0-5.7-0.7-6.1-1.2v-11H326.3 M327.3,90.1h-14.2v12.6h0.1
				c0.7,0.9,3.5,1.6,7,1.6c3.4,0,6.3-0.7,7-1.6h0.1V90.1L327.3,90.1z"/>
		</g>
		<g>
			<path class="st1" d="M320.2,92c-4,0-6.6-1.1-6.6-1.8c0-0.7,2.6-1.8,6.6-1.8s6.6,1.1,6.6,1.8C326.8,91,324.3,92,320.2,92z"/>
			<path class="st6" d="M320.2,88.9c3.7,0,5.7,0.9,6.1,1.3c-0.4,0.4-2.4,1.3-6.1,1.3c-3.7,0-5.7-0.9-6.1-1.3
				C314.5,89.8,316.6,88.9,320.2,88.9 M320.2,87.9c-3.9,0-7.1,1-7.1,2.3c0,1.3,3.2,2.3,7.1,2.3c3.9,0,7.1-1,7.1-2.3
				C327.3,88.9,324.2,87.9,320.2,87.9L320.2,87.9z"/>
		</g>
		<path class="st11" d="M313.4,94.5c0,0,7.1,3.2,13.6-0.2"/>
		<path class="st11" d="M313.4,98.6c0,0,7.1,3.2,13.6-0.2"/>
	</g>
</g>
<g>
	<g>
		<rect x="211.2" y="98.2" class="st20" width="22" height="30.6"/>
	</g>
	<polygon class="st21" points="221.2,105.8 221.2,104.1 215,104.1 213.3,104.1 213.3,122.6 214.7,122.6 215,122.6 220.9,122.6 
		220.9,120.8 215,120.8 215,105.8 	"/>
	<polygon class="st21" points="221.2,108.5 221.2,107 218.3,107 217.7,107 216.8,107 216.8,119.4 217.7,119.4 218.3,119.4 
		221.2,119.4 221.2,117.9 218.3,117.9 218.3,108.5 	"/>
	<rect x="219.4" y="116.4" width="1.8" height="7.6"/>
	<rect x="221.8" y="116.4" width="1.8" height="7.6"/>
	<rect x="227.7" y="116.4" class="st6" width="2.6" height="7.6"/>
	<rect x="220.3" y="103.2" width="11.2" height="6.2"/>
	<path class="st6" d="M222.4,113.3c0,0.6-0.5,1-1,1c-0.6,0-1-0.5-1-1c0-0.6,0.5-1,1-1C221.9,112.3,222.4,112.8,222.4,113.3z"/>
	<polygon class="st21" points="226.8,112.6 227.4,112.6 228.3,112.6 228.3,109.4 226.8,109.4 226.8,111.4 226.2,111.4 225.3,111.4 
		224.7,111.4 224.7,119.7 224.7,120.2 224.7,120.8 227.7,120.8 227.7,119.7 226.2,119.7 226.2,112.6 	"/>
	<rect x="233.3" y="102.6" class="st22" width="2.4" height="3.8"/>
	<rect x="233.3" y="109.4" class="st22" width="2.4" height="11.5"/>
</g>
<g>
	<g>
		<rect x="198" y="131.1" class="st20" width="22" height="30.6"/>
	</g>
	<polygon class="st21" points="208,138.8 208,137 201.8,137 200.1,137 200.1,155.5 201.5,155.5 201.8,155.5 207.7,155.5 
		207.7,153.7 201.8,153.7 201.8,138.8 	"/>
	<polygon class="st21" points="208,141.4 208,139.9 205.1,139.9 204.5,139.9 203.6,139.9 203.6,152.3 204.5,152.3 205.1,152.3 
		208,152.3 208,150.8 205.1,150.8 205.1,141.4 	"/>
	<rect x="206.2" y="149.3" width="1.8" height="7.6"/>
	<rect x="208.6" y="149.3" width="1.8" height="7.6"/>
	<rect x="214.5" y="149.3" class="st6" width="2.6" height="7.6"/>
	<rect x="207.1" y="136.1" width="11.2" height="6.2"/>
	<path class="st6" d="M209.2,146.2c0,0.6-0.5,1-1,1s-1-0.5-1-1c0-0.6,0.5-1,1-1S209.2,145.7,209.2,146.2z"/>
	<polygon class="st21" points="213.6,145.5 214.2,145.5 215,145.5 215,142.3 213.6,142.3 213.6,144.3 213,144.3 212.1,144.3 
		211.5,144.3 211.5,152.6 211.5,153.1 211.5,153.7 214.5,153.7 214.5,152.6 213,152.6 213,145.5 	"/>
	<rect x="220" y="135.5" class="st22" width="2.4" height="3.8"/>
	<rect x="220" y="142.3" class="st22" width="2.4" height="11.5"/>
</g>
<g>
	<g>
		<rect x="225.6" y="130.8" class="st20" width="22" height="30.6"/>
	</g>
	<polygon class="st21" points="235.6,138.5 235.6,136.7 229.4,136.7 227.7,136.7 227.7,155.2 229.1,155.2 229.4,155.2 235.3,155.2 
		235.3,153.4 229.4,153.4 229.4,138.5 	"/>
	<polygon class="st21" points="235.6,141.1 235.6,139.6 232.7,139.6 232.1,139.6 231.2,139.6 231.2,152 232.1,152 232.7,152 
		235.6,152 235.6,150.5 232.7,150.5 232.7,141.1 	"/>
	<rect x="233.8" y="149" width="1.8" height="7.6"/>
	<rect x="236.2" y="149" width="1.8" height="7.6"/>
	<rect x="242.1" y="149" class="st6" width="2.6" height="7.6"/>
	<rect x="234.7" y="135.8" width="11.2" height="6.2"/>
	<path class="st6" d="M236.8,145.9c0,0.6-0.5,1-1,1s-1-0.5-1-1s0.5-1,1-1S236.8,145.4,236.8,145.9z"/>
	<polygon class="st21" points="241.2,145.2 241.8,145.2 242.7,145.2 242.7,142 241.2,142 241.2,144 240.6,144 239.7,144 239.1,144 
		239.1,152.3 239.1,152.9 239.1,153.4 242.1,153.4 242.1,152.3 240.6,152.3 240.6,145.2 	"/>
	<rect x="247.6" y="135.2" class="st22" width="2.4" height="3.8"/>
	<rect x="247.6" y="142" class="st22" width="2.4" height="11.5"/>
</g>
<text transform="matrix(1 0 0 1 184 23.6667)" class="st23 st24">Virtual Data Center</text>
<text transform="matrix(1 0 0 1 118 184.6667)" class="st23 st24">Compute</text>
<text transform="matrix(1 0 0 1 200 184.6667)" class="st23 st24">Networking</text>
<text transform="matrix(1 0 0 1 289 184.6667)" class="st23 st24">Storage</text>
</svg>
