<?xml version="1.0" encoding="utf-8"?>
<!-- Generator: Adobe Illustrator 22.0.0, SVG Export Plug-In . SVG Version: 6.00 Build 0)  -->
<svg version="1.1" xmlns="http://www.w3.org/2000/svg" xmlns:xlink="http://www.w3.org/1999/xlink" x="0px" y="0px"
	 viewBox="0 0 1352 794" style="enable-background:new 0 0 1352 794;" xml:space="preserve">
<style type="text/css">
	.st0{fill:#FFFFFF;}
	.st1{fill:none;stroke:#000000;stroke-miterlimit:10;}
	.st2{fill:none;stroke:#000000;stroke-miterlimit:10;stroke-dasharray:7.9157,7.9157;}
	.st3{fill:none;stroke:#000000;stroke-miterlimit:10;stroke-dasharray:8.052,8.052;}
	.st4{fill:#AADFF2;}
	.st5{fill:none;stroke:#000000;stroke-miterlimit:10;stroke-dasharray:7.9718,7.9718;}
	.st6{fill:none;stroke:#000000;stroke-miterlimit:10;stroke-dasharray:8.1177,8.1177;}
	.st7{font-family:'MyriadPro-Regular';}
	.st8{font-size:21px;}
	.st9{fill:#E1E5BA;}
	.st10{fill:none;stroke:#000000;stroke-miterlimit:10;stroke-dasharray:8.1429,8.1429;}
	.st11{fill:#FFFFFF;stroke:#000000;stroke-width:3;stroke-miterlimit:10;}
	.st12{fill:#FF7BAC;}
	.st13{font-family:'IBMPlexSans';}
	.st14{fill:#29ABE2;}
	.st15{font-size:18px;}
	.st16{fill:#EF7C26;}
	.st17{fill:#F4BA51;}
	.st18{fill:#169ADB;stroke:#9BCCDD;stroke-width:0.5;stroke-miterlimit:10;}
	.st19{fill:url(#SVGID_1_);}
	.st20{font-size:11.4646px;}
	.st21{fill:url(#SVGID_2_);}
	.st22{font-size:9.2282px;}
	.st23{fill:#2B6782;}
	.st24{fill:#1E4C66;}
	.st25{font-size:16.5319px;}
</style>
<g id="Outter_dash_rectangle">
	<g>
		<rect x="330" y="64" class="st0" width="665" height="628"/>
		<g>
			<polyline class="st1" points="995,688 995,692 991,692 			"/>
			<line class="st2" x1="983.1" y1="692" x2="338" y2="692"/>
			<polyline class="st1" points="334,692 330,692 330,688 			"/>
			<line class="st3" x1="330" y1="679.9" x2="330" y2="72"/>
			<polyline class="st1" points="330,68 330,64 334,64 			"/>
			<line class="st2" x1="341.9" y1="64" x2="987" y2="64"/>
			<polyline class="st1" points="991,64 995,64 995,68 			"/>
			<line class="st3" x1="995" y1="76.1" x2="995" y2="684"/>
		</g>
	</g>
</g>
<g id="Public_address_space_rectangle">
	<g>
		<rect x="380.5" y="94.5" class="st4" width="574" height="146"/>
		<g>
			<polyline class="st1" points="954.5,236.5 954.5,240.5 950.5,240.5 			"/>
			<line class="st5" x1="942.5" y1="240.5" x2="388.5" y2="240.5"/>
			<polyline class="st1" points="384.5,240.5 380.5,240.5 380.5,236.5 			"/>
			<line class="st6" x1="380.5" y1="228.4" x2="380.5" y2="102.6"/>
			<polyline class="st1" points="380.5,98.5 380.5,94.5 384.5,94.5 			"/>
			<line class="st5" x1="392.5" y1="94.5" x2="946.5" y2="94.5"/>
			<polyline class="st1" points="950.5,94.5 954.5,94.5 954.5,98.5 			"/>
			<line class="st6" x1="954.5" y1="106.6" x2="954.5" y2="232.4"/>
		</g>
	</g>
	<text transform="matrix(1 0 0 1 749 226)" class="st7 st8">Public Address Space</text>
</g>
<g id="Private_address_space_rectangle">
	<g>
		<rect x="380.5" y="251.5" class="st9" width="574" height="407"/>
		<g>
			<polyline class="st1" points="954.5,654.5 954.5,658.5 950.5,658.5 			"/>
			<line class="st5" x1="942.5" y1="658.5" x2="388.5" y2="658.5"/>
			<polyline class="st1" points="384.5,658.5 380.5,658.5 380.5,654.5 			"/>
			<line class="st10" x1="380.5" y1="646.4" x2="380.5" y2="259.6"/>
			<polyline class="st1" points="380.5,255.5 380.5,251.5 384.5,251.5 			"/>
			<line class="st5" x1="392.5" y1="251.5" x2="946.5" y2="251.5"/>
			<polyline class="st1" points="950.5,251.5 954.5,251.5 954.5,255.5 			"/>
			<line class="st10" x1="954.5" y1="263.6" x2="954.5" y2="650.4"/>
		</g>
	</g>
	<text transform="matrix(1 0 0 1 742 643)" class="st7 st8">Private Address Space</text>
</g>
<g id="ibm_cloud">
	<path class="st11" d="M462.2,59.9c0-11.4-13.4-20.6-29.9-20.6c-1.6,0-3.2,0.1-4.7,0.3c-1-2.2-2.6-4.2-4.6-5.8
		c-4.7-3.8-10.8-4.5-15.7-2.3C404.5,16.9,393,6,379.2,6c-14.3,0-26.2,11.8-28.4,27.2c-0.1,0-0.2,0-0.4,0c-11.6,0-21,10.6-21,23.7
		c0,10,5.5,18.5,13.2,22v0.9h2.4c1.7,0.5,3.5,0.8,5.3,0.8c1.8,0,3.6-0.3,5.3-0.8h68.4c2.6,0.5,5.3,0.8,8.1,0.8
		c2.8,0,5.5-0.3,8.1-0.8h2.4v-0.5C454.1,76.3,462.2,68.8,462.2,59.9z"/>
	<text transform="matrix(1 0 0 1 342 62)" class="st7 st8">IBM Cloud</text>
</g>
<g id="lines">
	<line class="st1" x1="449" y1="190" x2="449" y2="503.5"/>
	<line class="st1" x1="542.5" y1="407.5" x2="542.5" y2="503.5"/>
	<line class="st1" x1="682.5" y1="190.5" x2="682.5" y2="565.5"/>
	<line class="st1" x1="667.5" y1="407.5" x2="667.5" y2="504.5"/>
	<line class="st1" x1="697.5" y1="407.5" x2="697.5" y2="438.5"/>
	<line class="st1" x1="771.5" y1="407.5" x2="771.5" y2="437.5"/>
</g>
<g id="pubic_VLAN_native">
	<g>
		<g>
			<g>
				<g>
					<path class="st12" d="M424.5,190.5L424.5,190.5l-0.4-0.1c-7.7-1.1-13.6-10.3-13.6-21.4s5.8-20.3,13.6-21.4l0.4-0.1v0h485.3
						l0.2,0c7.6,0.4,13.5,9.8,13.5,21.5s-5.9,21.1-13.5,21.5l-0.4,0H424.5z"/>
					<path d="M909.6,148l0.3,0c7.2,0.4,13.1,9.8,13.1,21s-5.9,20.6-13.1,21l-0.2,0H424.8l-0.7-0.1c-7.4-1-13.1-10.2-13.1-20.9
						s5.8-19.9,13.1-20.9l0.7-0.1H909.6 M910,147H424v0.1c-7.9,1.1-14,10.5-14,21.9c0,11.4,6.1,20.8,14,21.9v0.1h486v0
						c7.8-0.4,14-10.1,14-22C924,157.1,917.8,147.4,910,147L910,147L910,147z"/>
				</g>
				<g>
					<path class="st0" d="M908.5,186.9c-5.5,0-10-8.2-10-18.4c0-10.1,4.5-18.4,10-18.4c5.5,0,10,8.2,10,18.4
						C918.5,178.7,914,186.9,908.5,186.9z"/>
					<path d="M908.5,150.7c5.1,0,9.5,8.2,9.5,17.9c0,9.7-4.4,17.9-9.5,17.9c-5.1,0-9.5-8.2-9.5-17.9
						C899,158.9,903.4,150.7,908.5,150.7 M908.5,149.7c-5.8,0-10.5,8.4-10.5,18.9c0,10.4,4.7,18.9,10.5,18.9S919,179,919,168.6
						C919,158.1,914.3,149.7,908.5,149.7L908.5,149.7z"/>
				</g>
			</g>
		</g>
		<text transform="matrix(1 0 0 1 568.75 175.75)" class="st13 st8">Public VLAN (native)</text>
	</g>
</g>
<g id="security_lock_icon">
	<g>
		<path class="st14" d="M698,407.8h-30c-6.6,0-12-5.4-12-12v-25c0-6.6,5.4-12,12-12h30c6.6,0,12,5.4,12,12v25
			C710,402.4,704.6,407.8,698,407.8z"/>
		<g>
			<g>
				<path class="st0" d="M688.9,380.8h-10.9c-2.2,0-4.1-1.8-4.1-4.1v-5.9c0-2.2,1.8-4.1,4.1-4.1h10.9c2.2,0,4.1,1.8,4.1,4.1v5.9
					C693,378.9,691.2,380.8,688.9,380.8z"/>
				<path class="st14" d="M686.9,378.8h-6.9c-1.1,0-2.1-0.9-2.1-2.1v-4c0-1.1,0.9-2.1,2.1-2.1h6.9c1.1,0,2.1,0.9,2.1,2.1v4
					C689,377.8,688.1,378.8,686.9,378.8z"/>
				<path class="st0" d="M694.9,399.8h-22.9c-2.2,0-4.1-1.8-4.1-4.1v-13.9c0-2.2,1.8-4.1,4.1-4.1h22.9c2.2,0,4.1,1.8,4.1,4.1v13.9
					C699,397.9,697.2,399.8,694.9,399.8z"/>
			</g>
			<g>
				<ellipse class="st14" cx="684" cy="386.3" rx="4" ry="3.5"/>
				<path class="st14" d="M683.5,396.8L683.5,396.8c-0.8,0-1.5-0.7-1.5-1.5v-7c0-0.8,0.7-1.5,1.5-1.5l0,0c0.8,0,1.5,0.7,1.5,1.5v7
					C685,396.1,684.3,396.8,683.5,396.8z"/>
				<path class="st14" d="M686.5,391.8h-2c-0.3,0-0.5-0.2-0.5-0.5l0,0c0-0.3,0.2-0.5,0.5-0.5h2c0.3,0,0.5,0.2,0.5,0.5l0,0
					C687,391.5,686.8,391.8,686.5,391.8z"/>
				<path class="st14" d="M686.5,393.8h-2c-0.3,0-0.5-0.2-0.5-0.5l0,0c0-0.3,0.2-0.5,0.5-0.5h2c0.3,0,0.5,0.2,0.5,0.5l0,0
					C687,393.5,686.8,393.8,686.5,393.8z"/>
				<path class="st14" d="M686.5,395.8h-2c-0.3,0-0.5-0.2-0.5-0.5l0,0c0-0.3,0.2-0.5,0.5-0.5h2c0.3,0,0.5,0.2,0.5,0.5l0,0
					C687,395.5,686.8,395.8,686.5,395.8z"/>
			</g>
		</g>
	</g>
</g>
<g id="security_lock_bottom">
	<g>
		<path class="st14" d="M765,759h-19.2c-6.6,0-12-5.4-12-12v-15.2c0-6.6,5.4-12,12-12H765c6.6,0,12,5.4,12,12V747
			C777,753.6,771.6,759,765,759z"/>
		<g>
			<g>
				<path class="st0" d="M759.3,737.4h-7.1c-2.2,0-4.1-1.8-4.1-4.1v-3.1c0-2.2,1.8-4.1,4.1-4.1h7.1c2.2,0,4.1,1.8,4.1,4.1v3.1
					C763.4,735.6,761.6,737.4,759.3,737.4z"/>
				<path class="st14" d="M758.1,735.8h-4.7c-1.1,0-2.1-0.9-2.1-2.1v-2.4c0-1.1,0.9-2.1,2.1-2.1h4.7c1.1,0,2.1,0.9,2.1,2.1v2.4
					C760.2,734.9,759.3,735.8,758.1,735.8z"/>
				<path class="st0" d="M764.1,752.6h-16.7c-2.2,0-4.1-1.8-4.1-4.1V739c0-2.2,1.8-4.1,4.1-4.1h16.7c2.2,0,4.1,1.8,4.1,4.1v9.5
					C768.2,750.8,766.4,752.6,764.1,752.6z"/>
			</g>
			<g>
				<path class="st14" d="M759.4,741.8c0,1.5-1.4,2.8-3.2,2.8s-3.2-1.3-3.2-2.8c0-1.5,1.4-2.8,3.2-2.8S759.4,740.2,759.4,741.8z"/>
				<path class="st14" d="M755.8,750.2L755.8,750.2c-0.7,0-1.2-0.5-1.2-1.2v-5.6c0-0.7,0.5-1.2,1.2-1.2h0c0.7,0,1.2,0.5,1.2,1.2v5.6
					C757,749.7,756.4,750.2,755.8,750.2z"/>
				<path class="st14" d="M758.2,746.2h-1.6c-0.2,0-0.4-0.2-0.4-0.4v0c0-0.2,0.2-0.4,0.4-0.4h1.6c0.2,0,0.4,0.2,0.4,0.4v0
					C758.6,746,758.4,746.2,758.2,746.2z"/>
				<path class="st14" d="M758.2,747.8h-1.6c-0.2,0-0.4-0.2-0.4-0.4v0c0-0.2,0.2-0.4,0.4-0.4h1.6c0.2,0,0.4,0.2,0.4,0.4v0
					C758.6,747.6,758.4,747.8,758.2,747.8z"/>
				<path class="st14" d="M758.2,749.4h-1.6c-0.2,0-0.4-0.2-0.4-0.4v0c0-0.2,0.2-0.4,0.4-0.4h1.6c0.2,0,0.4,0.2,0.4,0.4v0
					C758.6,749.2,758.4,749.4,758.2,749.4z"/>
			</g>
		</g>
	</g>
	<text transform="matrix(1 0 0 1 691 780)" class="st7 st15">Cloud Gateway</text>
</g>
<g id="gear_bottom">
	<g>
		<path class="st14" d="M907,759h-21.8c-6.6,0-12-5.4-12-12v-17.5c0-6.6,5.4-12,12-12H907c6.6,0,12,5.4,12,12V747
			C919,753.6,913.6,759,907,759z"/>
		<g>
			<g>
				<g>
					<g>
						<g>
							<ellipse class="st0" cx="896" cy="738.1" rx="12.3" ry="11.9"/>
							<path class="st14" d="M901.5,738.1c0,2.9-2.5,5.3-5.5,5.3c-3,0-5.5-2.4-5.5-5.3c0-2.9,2.5-5.3,5.5-5.3
								C899,732.8,901.5,735.2,901.5,738.1z"/>
						</g>
						<rect x="892.3" y="723" class="st0" width="6.6" height="4.2"/>
						<rect x="893" y="748.4" class="st0" width="5.9" height="5.1"/>
					</g>
					<rect x="906.7" y="735.3" class="st0" width="5.1" height="5.9"/>
					<rect x="880.5" y="735.3" class="st0" width="5.1" height="5.9"/>
				</g>
				
					<rect x="883.3" y="726.2" transform="matrix(0.7526 0.6585 -0.6585 0.7526 699.2431 -403.1023)" class="st0" width="5.6" height="5.6"/>
				
					<rect x="902" y="744.9" transform="matrix(0.7526 0.6585 -0.6585 0.7526 716.42 -411.4283)" class="st0" width="7.3" height="5.6"/>
			</g>
			
				<rect x="903.6" y="726.5" transform="matrix(0.7071 0.7071 -0.7071 0.7071 781.3547 -427.2392)" class="st0" width="5.5" height="6.1"/>
			
				<rect x="883.9" y="744.8" transform="matrix(0.7071 0.7071 -0.7071 0.7071 788.3157 -408.0376)" class="st0" width="5.5" height="5.5"/>
		</g>
	</g>
	<text transform="matrix(1 0 0 1 840 780)" class="st7 st15">WAN Optimizer</text>
</g>
<g id="gear_icon">
	<g>
		<path class="st14" d="M787.3,407.8h-30c-6.6,0-12-5.4-12-12v-25c0-6.6,5.4-12,12-12h30c6.6,0,12,5.4,12,12v25
			C799.3,402.4,793.8,407.8,787.3,407.8z"/>
		<g>
			<g>
				<g>
					<g>
						<g>
							<ellipse class="st0" cx="772.1" cy="383.1" rx="14.5" ry="14"/>
							<path class="st14" d="M778.6,383.1c0,3.5-2.9,6.3-6.5,6.3s-6.5-2.8-6.5-6.3c0-3.5,2.9-6.3,6.5-6.3S778.6,379.6,778.6,383.1z"
								/>
						</g>
						<rect x="767.8" y="365.3" class="st0" width="7.8" height="5"/>
						<rect x="768.6" y="395.3" class="st0" width="7" height="6"/>
					</g>
					<rect x="784.8" y="379.8" class="st0" width="6" height="7"/>
					<rect x="753.8" y="379.8" class="st0" width="6" height="7"/>
				</g>
				
					<rect x="757.1" y="369" transform="matrix(0.7526 0.6585 -0.6585 0.7526 433.2809 -408.5836)" class="st0" width="6.6" height="6.6"/>
				
					<rect x="779.2" y="391" transform="matrix(0.7526 0.6585 -0.6585 0.7526 453.5418 -418.4066)" class="st0" width="8.6" height="6.6"/>
			</g>
			
				<rect x="781.1" y="369.4" transform="matrix(0.7071 0.7071 -0.7071 0.7071 493.4901 -445.3903)" class="st0" width="6.5" height="7.2"/>
			
				<rect x="757.9" y="391" transform="matrix(0.7071 0.7071 -0.7071 0.7071 501.7063 -422.7261)" class="st0" width="6.5" height="6.5"/>
		</g>
	</g>
</g>
<g id="vSAN_vMotion">
	<g id="Layer_7">
	</g>
	<g>
		<g>
			<g>
				<path class="st16" d="M424.5,608.5L424.5,608.5l-0.4-0.1c-7.7-1-13.6-10-13.6-20.9s5.8-19.9,13.6-20.9l0.4-0.1v0h485.3l0.2,0
					c7.6,0.4,13.5,9.6,13.5,21s-5.9,20.6-13.5,21l-0.4,0H424.5z"/>
				<path d="M909.6,567l0.3,0c7.2,0.4,13.1,9.6,13.1,20.5s-5.9,20.1-13.1,20.5l-0.2,0H424.8l-0.7-0.1c-7.4-1-13.1-9.9-13.1-20.4
					c0-10.5,5.8-19.4,13.1-20.4l0.7-0.1H909.6 M910,566H424v0.1c-7.9,1-14,10.2-14,21.4s6.1,20.4,14,21.4v0.1h486v0
					c7.8-0.4,14-9.9,14-21.5S917.8,566.4,910,566L910,566L910,566z"/>
			</g>
			<g>
				<ellipse class="st0" cx="908.5" cy="587.1" rx="10" ry="17.9"/>
				<path d="M908.5,569.6c5.1,0,9.5,8,9.5,17.4c0,9.4-4.4,17.4-9.5,17.4c-5.1,0-9.5-8-9.5-17.4C899,577.6,903.4,569.6,908.5,569.6
					 M908.5,568.6c-5.8,0-10.5,8.3-10.5,18.4s4.7,18.4,10.5,18.4s10.5-8.3,10.5-18.4S914.3,568.6,908.5,568.6L908.5,568.6z"/>
			</g>
		</g>
		<text transform="matrix(1 0 0 1 522 596)" class="st7 st8">vSAN &amp; vMotion -- Private VLAN B</text>
	</g>
</g>
<g id="Logical_swiitch">
	<g>
		<g>
			<g>
				<g>
					<path class="st14" d="M570.4,480.5L570.4,480.5l-0.4-0.1c-5.3-1-9.5-10.2-9.5-20.9s4.2-19.9,9.5-20.9l0.4-0.1v0h343.5l0.2,0
						c5.2,0.4,9.4,9.8,9.4,21s-4.2,20.6-9.4,21l-0.2,0H570.4z"/>
					<path d="M913.8,439l0.2,0c5,0.4,9,9.5,9,20.5s-4,20.1-9,20.5l-0.2,0H570.5l-0.5-0.1c-5.1-1-9.1-9.9-9.1-20.4s4-19.5,9.1-20.4
						l0.5-0.1H913.8 M914.1,438H569.9v0.1c-5.6,1-9.9,10.2-9.9,21.4s4.4,20.4,9.9,21.4v0.1h344.2v0c5.5-0.4,9.9-9.9,9.9-21.5
						S919.6,438.4,914.1,438L914.1,438L914.1,438z"/>
				</g>
				<g>
					<ellipse class="st0" cx="910.2" cy="459.1" rx="9.7" ry="17.9"/>
					<path d="M910.2,441.6c5,0,9.2,8,9.2,17.4c0,9.4-4.2,17.4-9.2,17.4c-5,0-9.2-8-9.2-17.4C901,449.6,905.2,441.6,910.2,441.6
						 M910.2,440.6c-5.6,0-10.2,8.3-10.2,18.4c0,10.2,4.6,18.4,10.2,18.4c5.6,0,10.2-8.3,10.2-18.4
						C920.5,448.9,915.9,440.6,910.2,440.6L910.2,440.6z"/>
				</g>
			</g>
		</g>
		<text transform="matrix(1 0 0 1 597 466)" class="st7 st8">Logical Switch Network (VXLAN)</text>
	</g>
	<g id="Layer_9">
	</g>
</g>
<g id="management_vxlan">
	<g id="Layer_6">
	</g>
	<g>
		<g>
			<path class="st17" d="M424.5,547.5L424.5,547.5l-0.4-0.1c-7.7-1.1-13.6-10.3-13.6-21.4s5.8-20.3,13.6-21.4l0.4-0.1v0h485.3l0.2,0
				c7.6,0.4,13.5,9.8,13.5,21.5s-5.9,21.1-13.5,21.5l-0.4,0H424.5z"/>
			<path d="M909.6,505l0.3,0c7.2,0.4,13.1,9.8,13.1,21s-5.9,20.6-13.1,21l-0.2,0H424.8l-0.7-0.1c-7.4-1-13.1-10.2-13.1-20.9
				s5.8-19.9,13.1-20.9l0.7-0.1H909.6 M910,504H424v0.1c-7.9,1.1-14,10.5-14,21.9s6.1,20.8,14,21.9v0.1h486v0c7.8-0.4,14-10.1,14-22
				C924,514.1,917.8,504.4,910,504L910,504L910,504z"/>
		</g>
		<g>
			<path class="st0" d="M908.5,543.9c-5.5,0-10-8.2-10-18.4c0-10.1,4.5-18.4,10-18.4c5.5,0,10,8.2,10,18.4
				C918.5,535.7,914,543.9,908.5,543.9z"/>
			<path d="M908.5,507.7c5.1,0,9.5,8.2,9.5,17.9c0,9.7-4.4,17.9-9.5,17.9c-5.1,0-9.5-8.2-9.5-17.9
				C899,515.9,903.4,507.7,908.5,507.7 M908.5,506.7c-5.8,0-10.5,8.4-10.5,18.9c0,10.4,4.7,18.9,10.5,18.9S919,536,919,525.6
				C919,515.1,914.3,506.7,908.5,506.7L908.5,506.7z"/>
		</g>
	</g>
	<text transform="matrix(1 0 0 1 442 533)" class="st7 st8">Management &amp; VXLAN -- Private VLAN A (native)</text>
</g>
<g id="P_x2F_V">
	<g>
		<g>
			<g>
				<rect x="425.5" y="280" class="st18" width="47.3" height="47.3"/>
				<linearGradient id="SVGID_1_" gradientUnits="userSpaceOnUse" x1="456.9627" y1="296.7212" x2="445.5096" y2="338.8456">
					<stop  offset="0" style="stop-color:#CCE0F4"/>
					<stop  offset="7.748766e-02" style="stop-color:#C5DDF3"/>
					<stop  offset="0.1918" style="stop-color:#B1D5EF"/>
					<stop  offset="0.329" style="stop-color:#90C9EA"/>
					<stop  offset="0.4838" style="stop-color:#63B7E2"/>
					<stop  offset="0.6515" style="stop-color:#2AA1D9"/>
					<stop  offset="0.6829" style="stop-color:#1E9CD7"/>
					<stop  offset="0.8652" style="stop-color:#0075BE"/>
					<stop  offset="0.9944" style="stop-color:#005B97"/>
				</linearGradient>
				<polygon class="st19" points="427.3,325.5 471,281.8 471,325.5 				"/>
			</g>
			<text transform="matrix(1 0 0 1 429.084 315.4692)" class="st0 st13 st20">P</text>
			<text transform="matrix(1 0 0 1 437.6836 324.0688)" class="st0 st13 st20">V</text>
			<g>
				<g>
					<g>
						<g>
							<polygon class="st0" points="431.1,288.6 433.8,297.8 440.2,291.8 							"/>
						</g>
					</g>
				</g>
				<g>
					<g>
						<g>
							
								<rect x="438" y="293.5" transform="matrix(0.7268 -0.6868 0.6868 0.7268 -84.4457 383.615)" class="st0" width="4.1" height="9"/>
						</g>
					</g>
				</g>
			</g>
			<g>
				<g>
					<g>
						<g>
							<polygon class="st0" points="463.6,322.1 453.5,318.2 460.2,311.8 							"/>
						</g>
					</g>
				</g>
				<g>
					<g>
						<g>
							
								<rect x="451.2" y="306.1" transform="matrix(0.7268 -0.6868 0.6868 0.7268 -89.9368 396.4176)" class="st0" width="4.3" height="10.4"/>
						</g>
					</g>
				</g>
			</g>
		</g>
	</g>
</g>
<g id="Layer_15">
	<g>
		<g>
			<g>
				<rect x="429.5" y="720.9" class="st18" width="38.1" height="38.1"/>
				<linearGradient id="SVGID_2_" gradientUnits="userSpaceOnUse" x1="454.8253" y1="734.3933" x2="445.6063" y2="768.3004">
					<stop  offset="0" style="stop-color:#CCE0F4"/>
					<stop  offset="7.748766e-02" style="stop-color:#C5DDF3"/>
					<stop  offset="0.1918" style="stop-color:#B1D5EF"/>
					<stop  offset="0.329" style="stop-color:#90C9EA"/>
					<stop  offset="0.4838" style="stop-color:#63B7E2"/>
					<stop  offset="0.6515" style="stop-color:#2AA1D9"/>
					<stop  offset="0.6829" style="stop-color:#1E9CD7"/>
					<stop  offset="0.8652" style="stop-color:#0075BE"/>
					<stop  offset="0.9944" style="stop-color:#005B97"/>
				</linearGradient>
				<polygon class="st21" points="431,757.5 466.1,722.4 466.1,757.5 				"/>
			</g>
			<text transform="matrix(1 0 0 1 432.3848 749.484)" class="st0 st13 st22">P</text>
			<text transform="matrix(1 0 0 1 439.3071 756.4059)" class="st0 st13 st22">V</text>
			<g>
				<g>
					<g>
						<g>
							<polygon class="st0" points="434,727.9 436.2,735.3 441.3,730.4 							"/>
						</g>
					</g>
				</g>
				<g>
					<g>
						<g>
							
								<rect x="439.6" y="731.8" transform="matrix(0.7268 -0.6868 0.6868 0.7268 -384.5566 503.9077)" class="st0" width="3.3" height="7.2"/>
						</g>
					</g>
				</g>
			</g>
			<g>
				<g>
					<g>
						<g>
							<polygon class="st0" points="460.2,754.9 452,751.7 457.4,746.5 							"/>
						</g>
					</g>
				</g>
				<g>
					<g>
						<g>
							
								<rect x="450.2" y="741.9" transform="matrix(0.7268 -0.6868 0.6868 0.7268 -388.9843 514.2295)" class="st0" width="3.5" height="8.4"/>
						</g>
					</g>
				</g>
			</g>
		</g>
	</g>
	<text transform="matrix(1 0 0 1 412 780)" class="st7 st15">NSX Edge</text>
</g>
<g id="Layer_16">
	<g>
		<g>
			<rect x="544" y="722" class="st23" width="42" height="37"/>
			<rect x="585.1" y="722" class="st24" width="91.9" height="37"/>
		</g>
		<text transform="matrix(1 0 0 1 550.2979 746.4043)" class="st0 st7 st25">VM</text>
		<text transform="matrix(1 0 0 1 590.9365 746.4043)" class="st0 st7 st25">HCX Cloud</text>
	</g>
	<text transform="matrix(1 0 0 1 550 780)" class="st7 st15">HCX Manager</text>
</g>
<g id="VM_HCX">
	<g>
		<g>
			<rect x="467" y="360.8" class="st23" width="52.1" height="47"/>
			<rect x="518" y="360.8" class="st24" width="114" height="47"/>
		</g>
		<text transform="matrix(1 0 0 1 475 391.75)" class="st0 st7 st8">VM</text>
		<text transform="matrix(1 0 0 1 526 391.75)" class="st0 st7 st8">HCX Cloud</text>
	</g>
</g>
</svg>
