<?xml version="1.0" encoding="UTF-8"?>
<svg width="816px" height="216px" version="1.1" viewBox="-.5 -.5 816 216" xmlns="http://www.w3.org/2000/svg" xmlns:cc="http://creativecommons.org/ns#" xmlns:dc="http://purl.org/dc/elements/1.1/" xmlns:rdf="http://www.w3.org/1999/02/22-rdf-syntax-ns#">
 <metadata>
  <rdf:RDF>
   <cc:Work rdf:about="">
    <dc:format>image/svg+xml</dc:format>
    <dc:type rdf:resource="http://purl.org/dc/dcmitype/StillImage"/>
    <dc:title/>
   </cc:Work>
  </rdf:RDF>
 </metadata>
 <g fill="#f5f5f5" pointer-events="none" stroke="#e6e6e6">
  <rect x="185" y="165.5" width="630" height="50"/>
  <rect x="185" y="110.5" width="630" height="50"/>
  <rect x="185" y="55.5" width="630" height="50"/>
  <rect x="185" y=".5" width="630" height="50"/>
 </g>
 <rect x="25" y=".5" width="160" height="50" fill="#007fff" pointer-events="none"/>
 <g fill="#fff" font-family="Helvetica" font-size="10px" text-anchor="middle">
  <text x="104.5" y="22">RiskForesight</text>
  <text x="104.5" y="34">儀表板</text>
 </g>
 <rect x="25" y="55.5" width="160" height="50" fill="#007fff" pointer-events="none"/>
 <g fill="#fff" font-family="Helvetica" font-size="10px" text-anchor="middle">
  <text x="104.5" y="77">原則編排</text>
  <text x="104.5" y="89">&amp; 強制執行</text>
 </g>
 <rect x="25" y="110.5" width="160" height="50" fill="#007fff" pointer-events="none"/>
 <g fill="#fff" font-family="Helvetica" font-size="10px" text-anchor="middle">
  <text x="104.5" y="132">CaveoIQ</text>
  <text x="104.5" y="144">分析引擎</text>
 </g>
 <rect x="25" y="165.5" width="160" height="50" fill="#007fff" pointer-events="none"/>
 <g fill="#fff" font-family="Helvetica" font-size="10px" text-anchor="middle">
  <text x="104.5" y="187">工作負載、網路</text>
  <text x="104.5" y="199">&amp; 安全</text>
 </g>
 <rect x="223" y="5.5" width="80" height="40" fill="#007fff" pointer-events="none"/>
 <g fill="#fff" font-family="Helvetica" font-size="10px" text-anchor="middle">
  <text x="262.5" y="22">服務提供者</text>
  <text x="262.5" y="34">入口網站</text>
 </g>
 <rect x="343" y="5.5" width="80" height="40" fill="#007fff" pointer-events="none"/>
 <g fill="#fff" font-family="Helvetica" font-size="10px" text-anchor="middle">
  <text x="382.5" y="22">承租戶</text>
  <text x="382.5" y="34">入口網站</text>
 </g>
 <rect x="463" y="5.5" width="80" height="40" fill="#007fff" pointer-events="none"/>
 <g fill="#fff" font-family="Helvetica" font-size="10px" text-anchor="middle">
  <text x="502.5" y="28">網路風險</text>
 </g>
 <rect x="583" y="5.5" width="80" height="40" fill="#007fff" pointer-events="none"/>
 <g fill="#fff" font-family="Helvetica" font-size="10px" text-anchor="middle">
  <text x="622.5" y="22">法規遵循</text>
  <text x="622.5" y="34">風險</text>
 </g>
 <rect x="703" y="5.5" width="80" height="40" fill="#007fff" pointer-events="none"/>
 <g fill="#fff" font-family="Helvetica" font-size="10px" text-anchor="middle">
  <text x="742.5" y="22">鑑識</text>
  <text x="742.5" y="34">分析</text>
 </g>
 <rect x="263" y="60.5" width="80" height="40" fill="#007fff" pointer-events="none"/>
 <g fill="#fff" font-family="Helvetica" font-size="10px" text-anchor="middle">
  <text x="302.5" y="83">RMCP</text>
 </g>
 <rect x="393" y="60.5" width="80" height="40" fill="#007fff" pointer-events="none"/>
 <g fill="#fff" font-family="Helvetica" font-size="10px" text-anchor="middle">
  <text x="432.5" y="77">原則</text>
  <text x="432.5" y="89">強制執行</text>
 </g>
 <rect x="523" y="60.5" width="80" height="40" fill="#007fff" pointer-events="none"/>
 <g fill="#fff" font-family="Helvetica" font-size="10px" text-anchor="middle">
  <text x="562.5" y="77">原則</text>
  <text x="562.5" y="89">分析</text>
 </g>
 <rect x="653" y="60.5" width="80" height="40" fill="#007fff" pointer-events="none"/>
 <g fill="#fff" font-family="Helvetica" font-size="10px" text-anchor="middle">
  <text x="692.5" y="77">原則</text>
  <text x="692.5" y="89">建模</text>
 </g>
 <rect x="323" y="116.5" width="80" height="40" fill="#007fff" pointer-events="none"/>
 <g fill="#fff" font-family="Helvetica" font-size="10px" text-anchor="middle">
  <text x="362.5" y="133">機器</text>
  <text x="362.5" y="145">學習</text>
 </g>
 <rect x="463" y="116.5" width="80" height="40" fill="#007fff" pointer-events="none"/>
 <g fill="#fff" font-family="Helvetica" font-size="10px" text-anchor="middle">
  <text x="502.5" y="133">多維</text>
  <text x="502.5" y="145">分析</text>
 </g>
 <rect x="603" y="116.5" width="80" height="40" fill="#007fff" pointer-events="none"/>
 <g fill="#fff" font-family="Helvetica" font-size="10px" text-anchor="middle">
  <text x="642.5" y="139">風險分析</text>
 </g>
 <rect x="263" y="170.5" width="80" height="40" fill="#007fff" pointer-events="none"/>
 <g fill="#fff" font-family="Helvetica" font-size="10px" text-anchor="middle">
  <text x="302.5" y="187">遠端</text>
  <text x="302.5" y="199">收集器</text>
 </g>
 <rect x="393" y="170.5" width="80" height="40" fill="#007fff" pointer-events="none"/>
 <g fill="#fff" font-family="Helvetica" font-size="10px" text-anchor="middle">
  <text x="432.5" y="187">VMware       </text>
  <text x="432.5" y="199">整合</text>
 </g>
 <rect x="523" y="170.5" width="80" height="40" fill="#007fff" pointer-events="none"/>
 <g fill="#fff" font-family="Helvetica" font-size="10px" text-anchor="middle">
  <text x="562.5" y="187">容器</text>
  <text x="562.5" y="199">整合</text>
 </g>
 <rect x="653" y="170.5" width="80" height="40" fill="#007fff" pointer-events="none"/>
 <g fill="#fff" font-family="Helvetica" font-size="10px" text-anchor="middle">
  <text x="692.5" y="187">公用雲端</text>
  <text x="692.5" y="199">整合</text>
 </g>
 <ellipse cx="26" cy="191" rx="25" ry="25" fill="#fff" pointer-events="none" stroke="#007fff"/>
 <g fill="#06c" font-family="Helvetica" font-size="12px" font-weight="bold" text-anchor="middle">
  <text x="25.5" y="194">偵測</text>
 </g>
 <ellipse cx="25" cy="136" rx="25" ry="25" fill="#fff" pointer-events="none" stroke="#007fff"/>
 <g fill="#06c" font-family="Helvetica" font-size="12px" font-weight="bold" text-anchor="middle">
  <text x="24.5" y="139">預測</text>
 </g>
 <ellipse cx="26" cy="81" rx="25" ry="25" fill="#fff" pointer-events="none" stroke="#007fff"/>
 <g fill="#06c" font-family="Helvetica" font-size="12px" font-weight="bold" text-anchor="middle">
  <text x="25.5" y="84">行動</text>
 </g>
</svg>
