<?xml version="1.0" encoding="utf-8"?>
<!-- Generator: Adobe Illustrator 21.0.0, SVG Export Plug-In . SVG Version: 6.00 Build 0)  -->
<svg version="1.1" xmlns="http://www.w3.org/2000/svg" xmlns:xlink="http://www.w3.org/1999/xlink" x="0px" y="0px"
	 viewBox="0 0 512 376" style="enable-background:new 0 0 512 376;" xml:space="preserve">
<style type="text/css">
	.st0{fill:#E8CEB5;stroke:#000000;stroke-width:0.5;stroke-miterlimit:10;stroke-dasharray:5;}
	.st1{fill:#D0EFDF;}
	.st2{fill:none;stroke:#000000;stroke-width:0.5;stroke-miterlimit:10;}
	.st3{fill:none;stroke:#000000;stroke-width:0.5;stroke-miterlimit:10;stroke-dasharray:4.9744,4.9744;}
	.st4{fill:none;stroke:#000000;stroke-width:0.5;stroke-miterlimit:10;stroke-dasharray:4.9836,4.9836;}
	.st5{fill:#FFFFFF;stroke:#4D4D4D;stroke-width:2;stroke-miterlimit:10;}
	.st6{font-family:'MyriadPro-Regular';}
	.st7{font-size:18px;}
	.st8{fill:none;stroke:#000000;stroke-width:2;stroke-miterlimit:10;}
	.st9{fill:#8CC63F;stroke:#000000;stroke-width:0.25;stroke-miterlimit:10;}
	.st10{fill:#29ABE2;stroke:#000000;stroke-width:0.25;stroke-miterlimit:10;}
</style>
<g id="right_box">
	<rect x="226.5" y="11.5" class="st0" width="275" height="310"/>
</g>
<g id="left_box">
	<g>
		<rect x="11.8" y="11" class="st1" width="199" height="309"/>
		<g>
			<polyline class="st2" points="210.8,317.5 210.8,320 208.3,320 			"/>
			<line class="st3" x1="203.3" y1="320" x2="16.8" y2="320"/>
			<polyline class="st2" points="14.3,320 11.8,320 11.8,317.5 			"/>
			<line class="st4" x1="11.8" y1="312.5" x2="11.8" y2="16"/>
			<polyline class="st2" points="11.8,13.5 11.8,11 14.3,11 			"/>
			<line class="st3" x1="19.3" y1="11" x2="205.8" y2="11"/>
			<polyline class="st2" points="208.3,11 210.8,11 210.8,13.5 			"/>
			<line class="st4" x1="210.8" y1="18.5" x2="210.8" y2="315"/>
		</g>
	</g>
</g>
<g id="Layer_4">
	<g>
		<path class="st5" d="M453.5,149c-7.9,0-15.2,1.6-21.2,4.3c-2.2-15.9-17.1-28.3-35.2-28.3c-18.6,0-33.9,13-35.4,29.7
			c-1.6-0.6-3.3-0.8-5.1-0.8c-9.5,0-17.2,8.6-17.2,19.2c0,10.6,7.7,19.2,17.2,19.2c2.1,0,4.1-0.4,5.9-1.2h79.3
			c3.6,0.8,7.5,1.2,11.6,1.2c19.6,0,35.5-9.7,35.5-21.6C489,158.7,473.1,149,453.5,149z"/>
		<text transform="matrix(1 0 0 1 353 177.1221)" class="st6 st7">IBM Cloud DC 2</text>
	</g>
</g>
<g id="lines">
	<line class="st8" x1="274" y1="262" x2="199" y2="162"/>
	<line class="st8" x1="339" y1="168" x2="200" y2="163"/>
	<line class="st8" x1="201" y1="163" x2="267" y2="94"/>
</g>
<g id="Layer_8">
	<text transform="matrix(1 0 0 1 340.3586 310.333)" class="st6 st7">目標</text>
	<text transform="matrix(1 0 0 1 85.5514 310.333)" class="st6 st7">來源</text>
</g>
<g id="Layer_3">
	<g>
		<path class="st5" d="M388.5,240c-7.9,0-15.2,1.6-21.2,4.3c-2.2-15.9-17.1-28.3-35.2-28.3c-18.6,0-33.9,13-35.4,29.7
			c-1.6-0.6-3.3-0.8-5.1-0.8c-9.5,0-17.2,8.6-17.2,19.2c0,10.6,7.7,19.2,17.2,19.2c2.1,0,4.1-0.4,5.9-1.2h79.3
			c3.6,0.8,7.5,1.2,11.6,1.2c19.6,0,35.5-9.7,35.5-21.6C424,249.7,408.1,240,388.5,240z"/>
		<text transform="matrix(1 0 0 1 288 268.1221)" class="st6 st7">非 IBM Cloud</text>
	</g>
</g>
<g id="Layer_2">
	<g>
		<path class="st5" d="M377.5,58c-7.9,0-15.2,1.6-21.2,4.3C354.1,46.3,339.2,34,321.1,34c-18.6,0-33.9,13-35.4,29.7
			c-1.6-0.6-3.3-0.8-5.1-0.8c-9.5,0-17.2,8.6-17.2,19.2c0,10.6,7.7,19.2,17.2,19.2c2.1,0,4.1-0.4,5.9-1.2h79.3
			c3.6,0.8,7.5,1.2,11.6,1.2c19.6,0,35.5-9.7,35.5-21.6C413,67.7,397.1,58,377.5,58z"/>
		<text transform="matrix(1 0 0 1 277 86.1221)" class="st6 st7">IBM Cloud DC 1</text>
	</g>
</g>
<g id="DCa">
</g>
<g id="bottom_explanation">
	<g>
		<text transform="matrix(1 0 0 1 195 357)" class="st6 st7">混合式雲端服務</text>
		<g>
			<path class="st9" d="M177.9,353.6v-7.4c0-1.8-1.4-3.2-3-3.2h-4v-9.5h6.5c4.8,0,8.6,4.1,8.6,9.1v14.4c0,5-3.9,9.1-8.6,9.1h-6.5
				v-9.2h4C176.5,356.8,177.9,355.3,177.9,353.6z"/>
			<path class="st10" d="M173.2,344.8h-3.9v-11.3h-6.1c-4.5,0-8.2,4.1-8.2,9.1v14.4c0,5,3.7,9.1,8.2,9.1h6.1v-10.6h3.9
				c1.2,0,2.2-1.1,2.2-2.5v-5.7C175.4,345.9,174.4,344.8,173.2,344.8z"/>
		</g>
	</g>
</g>
<g id="Hybrid_cloud_services">
	<g>
		<g>
			<path class="st5" d="M138.5,144c-7.9,0-15.2,1.6-21.2,4.3c-2.2-15.9-17.1-28.3-35.2-28.3c-18.6,0-33.9,13-35.4,29.7
				c-1.6-0.6-3.3-0.8-5.1-0.8c-9.5,0-17.2,8.6-17.2,19.2c0,10.6,7.7,19.2,17.2,19.2c2.1,0,4.1-0.4,5.9-1.2h79.3
				c3.6,0.8,7.5,1.2,11.6,1.2c19.6,0,35.5-9.7,35.5-21.6C174,153.7,158.1,144,138.5,144z"/>
			<text transform="matrix(1 0 0 1 38 172.1221)" class="st6 st7">資料中心 A</text>
		</g>
		<g>
			<path class="st9" d="M184.3,169.5v-9.8c0-2.3-1.8-4.2-4-4.2H175V143h8.6c6.3,0,11.4,5.4,11.4,12v19c0,6.6-5.1,12-11.4,12H175
				v-12.2h5.2C182.4,173.8,184.3,171.9,184.3,169.5z"/>
			<path class="st10" d="M178.1,158h-5.2v-15h-8.1c-5.9,0-10.8,5.4-10.8,12v19c0,6.6,4.9,12,10.8,12h8.1v-14h5.2
				c1.6,0,2.9-1.5,2.9-3.3v-7.5C181,159.5,179.7,158,178.1,158z"/>
		</g>
	</g>
</g>
</svg>
