<?xml version="1.0" encoding="utf-8"?>
<!-- Generator: Adobe Illustrator 21.0.0, SVG Export Plug-In . SVG Version: 6.00 Build 0)  -->
<svg version="1.1" xmlns="http://www.w3.org/2000/svg" xmlns:xlink="http://www.w3.org/1999/xlink" x="0px" y="0px"
	 viewBox="0 0 638 455" style="enable-background:new 0 0 638 455;" xml:space="preserve">
<style type="text/css">
	.st0{fill:#E4EFCA;}
	.st1{fill:none;stroke:#000000;stroke-width:0.75;stroke-miterlimit:10;}
	.st2{fill:none;stroke:#000000;stroke-width:0.75;stroke-miterlimit:10;stroke-dasharray:5.0187,5.0187;}
	.st3{fill:none;stroke:#000000;stroke-width:0.75;stroke-miterlimit:10;stroke-dasharray:4.9182,4.9182;}
	.st4{fill:none;stroke:#000000;stroke-width:0.75;stroke-miterlimit:10;stroke-dasharray:5.0086,5.0086;}
	.st5{fill:none;stroke:#000000;stroke-width:0.75;stroke-miterlimit:10;stroke-dasharray:5.0308,5.0308;}
	.st6{fill:#29ABE2;}
	.st7{fill:#FFFFFF;}
	.st8{fill:#FFFFFF;stroke:#8CC63F;stroke-width:8;stroke-miterlimit:10;}
	.st9{fill:#F9C73D;}
	.st10{font-family:'MyriadPro-Regular';}
	.st11{font-size:18px;}
	.st12{fill:#8CC63F;stroke:#009245;stroke-width:0.25;stroke-miterlimit:10;}
	.st13{fill:#29ABE2;stroke:#0071BC;stroke-width:0.25;stroke-miterlimit:10;}
	.st14{fill:#F9C73D;stroke:#000000;stroke-width:0.75;stroke-miterlimit:10;}
	.st15{fill:#FFFFFF;stroke:#000000;stroke-width:0.75;stroke-miterlimit:10;}
	.st16{font-size:21px;}
	.st17{fill:#F7931E;stroke:#000000;stroke-width:0.75;stroke-miterlimit:10;}
	.st18{fill:#FFFFFF;stroke:#4D4D4D;stroke-width:2;stroke-miterlimit:10;}
</style>
<g id="inner_box">
	<g>
		<rect x="52.5" y="91" class="st0" width="542" height="275.5"/>
		<g>
			<polyline class="st1" points="594.5,364 594.5,366.5 592,366.5 			"/>
			<line class="st2" x1="587" y1="366.5" x2="57.5" y2="366.5"/>
			<polyline class="st1" points="55,366.5 52.5,366.5 52.5,364 			"/>
			<line class="st3" x1="52.5" y1="359.1" x2="52.5" y2="96"/>
			<polyline class="st1" points="52.5,93.5 52.5,91 55,91 			"/>
			<line class="st2" x1="60" y1="91" x2="589.5" y2="91"/>
			<polyline class="st1" points="592,91 594.5,91 594.5,93.5 			"/>
			<line class="st3" x1="594.5" y1="98.4" x2="594.5" y2="361.5"/>
		</g>
	</g>
</g>
<g id="cloud_gateway">
</g>
<g id="outter_box">
	<g>
		<g>
			<polyline class="st1" points="616.5,388 616.5,390.5 614,390.5 			"/>
			<line class="st4" x1="609" y1="390.5" x2="30.5" y2="390.5"/>
			<polyline class="st1" points="28,390.5 25.5,390.5 25.5,388 			"/>
			<line class="st5" x1="25.5" y1="383" x2="25.5" y2="63.5"/>
			<polyline class="st1" points="25.5,61 25.5,58.5 28,58.5 			"/>
			<line class="st4" x1="33" y1="58.5" x2="611.5" y2="58.5"/>
			<polyline class="st1" points="614,58.5 616.5,58.5 616.5,61 			"/>
			<line class="st5" x1="616.5" y1="66" x2="616.5" y2="385.5"/>
		</g>
	</g>
</g>
<g id="lines">
	<g>
		<g>
			<path class="st6" d="M295,173.5h-27c-6.6,0-12-5.4-12-12v-22.3c0-6.6,5.4-12,12-12h27c6.6,0,12,5.4,12,12v22.3
				C307,168.1,301.6,173.5,295,173.5z"/>
			<g>
				<g>
					<path class="st7" d="M286.9,148h-9.8c-2.2,0-4.1-1.8-4.1-4.1v-5.1c0-2.2,1.8-4.1,4.1-4.1h9.8c2.2,0,4.1,1.8,4.1,4.1v5.1
						C290.9,146.1,289.1,148,286.9,148z"/>
					<path class="st6" d="M285.1,146.1h-6.3c-1.1,0-2.1-0.9-2.1-2.1v-3.5c0-1.1,0.9-2.1,2.1-2.1h6.3c1.1,0,2.1,0.9,2.1,2.1v3.5
						C287.2,145.2,286.2,146.1,285.1,146.1z"/>
					<path class="st7" d="M292.5,165.9h-21.2c-2.2,0-4.1-1.8-4.1-4.1v-12.7c0-2.2,1.8-4.1,4.1-4.1h21.2c2.2,0,4.1,1.8,4.1,4.1v12.7
						C296.6,164.1,294.8,165.9,292.5,165.9z"/>
				</g>
				<g>
					<ellipse class="st6" cx="282.4" cy="153.2" rx="3.8" ry="3.3"/>
					<path class="st6" d="M282,163.1L282,163.1c-0.8,0-1.4-0.6-1.4-1.4v-6.6c0-0.8,0.6-1.4,1.4-1.4l0,0c0.8,0,1.4,0.6,1.4,1.4v6.6
						C283.4,162.4,282.8,163.1,282,163.1z"/>
					<path class="st6" d="M284.8,158.4h-1.9c-0.3,0-0.5-0.2-0.5-0.5l0,0c0-0.3,0.2-0.5,0.5-0.5h1.9c0.3,0,0.5,0.2,0.5,0.5l0,0
						C285.3,158.1,285.1,158.4,284.8,158.4z"/>
					<path class="st6" d="M284.8,160.3h-1.9c-0.3,0-0.5-0.2-0.5-0.5l0,0c0-0.3,0.2-0.5,0.5-0.5h1.9c0.3,0,0.5,0.2,0.5,0.5l0,0
						C285.3,160,285.1,160.3,284.8,160.3z"/>
					<path class="st6" d="M284.8,162.1h-1.9c-0.3,0-0.5-0.2-0.5-0.5l0,0c0-0.3,0.2-0.5,0.5-0.5h1.9c0.3,0,0.5,0.2,0.5,0.5l0,0
						C285.3,161.9,285.1,162.1,284.8,162.1z"/>
				</g>
			</g>
		</g>
		<line class="st1" x1="286.5" y1="173.5" x2="286.5" y2="286.5"/>
		<line class="st1" x1="275.5" y1="173.5" x2="275.5" y2="219.5"/>
	</g>
</g>
<g id="bottom_explanation">
	<g>
		<g>
			<path class="st8" d="M90,403.8H79.1c-3.3,0-6,2.7-6,6v4h-4c-3.3,0-6,2.7-6,6v10.2c0,3.3,2.7,6,6,6h10.3c3.3,0,6-2.7,6-6v-2.6H90
				c3.3,0,6-2.7,6-6v-11.6C96,406.5,93.3,403.8,90,403.8z"/>
			<path class="st9" d="M77.8,429.6h-7.3c-0.9,0-1.7-0.8-1.7-1.7v-6.6c0-0.9,0.8-1.7,1.7-1.7h7.3c0.9,0,1.7,0.8,1.7,1.7v6.6
				C79.5,428.8,78.7,429.6,77.8,429.6z"/>
			<path class="st9" d="M87.8,421h-7.3c-0.9,0-1.7-0.8-1.7-1.7V412c0-0.9,0.8-1.7,1.7-1.7h7.3c0.9,0,1.7,0.8,1.7,1.7v7.3
				C89.5,420.3,88.8,421,87.8,421z"/>
		</g>
		<text transform="matrix(1 0 0 1 104 428.1019)" class="st10 st11">vCenter</text>
	</g>
	<g>
		<g>
			<path class="st12" d="M223.3,422.8V415c0-1.9-1.5-3.4-3.2-3.4h-4.2v-10.1h6.9c5.1,0,9.2,4.3,9.2,9.7v15.3c0,5.3-4.1,9.7-9.2,9.7
				h-6.9v-9.8h4.2C221.9,426.3,223.3,424.7,223.3,422.8z"/>
			<path class="st13" d="M218.4,413.6h-4.2v-12.1h-6.5c-4.8,0-8.7,4.3-8.7,9.7v15.3c0,5.3,3.9,9.7,8.7,9.7h6.5v-11.3h4.2
				c1.3,0,2.4-1.2,2.4-2.6v-6C220.7,414.7,219.7,413.6,218.4,413.6z"/>
		</g>
		<text transform="matrix(1 0 0 1 237 424.5165)" class="st10 st11">混合式雲端服務</text>
	</g>
	<g>
		<g>
			<path class="st6" d="M459,436.1h-13c-6.6,0-12-5.4-12-12v-9.6c0-6.6,5.4-12,12-12h13c6.6,0,12,5.4,12,12v9.6
				C471,430.7,465.6,436.1,459,436.1z"/>
			<g>
				<g>
					<path class="st7" d="M455.3,417.6h-4.9c-2.2,0-4.1-1.8-4.1-4.1v-1.5c0-2.2,1.8-4.1,4.1-4.1h4.9c2.2,0,4.1,1.8,4.1,4.1v1.5
						C459.4,415.8,457.5,417.6,455.3,417.6z"/>
					<path class="st6" d="M454.5,416.2h-3.4c-1.1,0-2.1-0.9-2.1-2.1v-1.4c0-1.1,0.9-2.1,2.1-2.1h3.4c1.1,0,2.1,0.9,2.1,2.1v1.4
						C456.6,415.3,455.7,416.2,454.5,416.2z"/>
					<path class="st7" d="M459.4,430.6h-13.1c-2.2,0-4.1-1.8-4.1-4.1v-6.9c0-2.2,1.8-4.1,4.1-4.1h13.1c2.2,0,4.1,1.8,4.1,4.1v6.9
						C463.5,428.8,461.6,430.6,459.4,430.6z"/>
				</g>
				<g>
					<ellipse class="st6" cx="453.2" cy="421.4" rx="2.7" ry="2.4"/>
					<path class="st6" d="M452.8,428.6L452.8,428.6c-0.6,0-1-0.5-1-1v-4.8c0-0.6,0.5-1,1-1l0,0c0.6,0,1,0.5,1,1v4.8
						C453.9,428.1,453.4,428.6,452.8,428.6z"/>
					<path class="st6" d="M454.9,425.1h-1.4c-0.2,0-0.3-0.2-0.3-0.3l0,0c0-0.2,0.2-0.3,0.3-0.3h1.4c0.2,0,0.3,0.2,0.3,0.3l0,0
						C455.2,425,455.1,425.1,454.9,425.1z"/>
					<path class="st6" d="M454.9,426.5h-1.4c-0.2,0-0.3-0.2-0.3-0.3l0,0c0-0.2,0.2-0.3,0.3-0.3h1.4c0.2,0,0.3,0.2,0.3,0.3l0,0
						C455.2,426.4,455.1,426.5,454.9,426.5z"/>
					<path class="st6" d="M454.9,427.9h-1.4c-0.2,0-0.3-0.2-0.3-0.3l0,0c0-0.2,0.2-0.3,0.3-0.3h1.4c0.2,0,0.3,0.2,0.3,0.3l0,0
						C455.2,427.7,455.1,427.9,454.9,427.9z"/>
				</g>
			</g>
		</g>
		<text transform="matrix(1 0 0 1 474.667 425.333)" class="st10 st11">雲端閘道</text>
	</g>
</g>
<g id="hybrid_cloud_services">
	<g>
		<line class="st1" x1="214.5" y1="171.5" x2="214.5" y2="218.5"/>
		<g>
			<path class="st12" d="M223.7,154.3v-10.2c0-2.4-1.9-4.4-4.2-4.4H214v-13.1h9c6.6,0,12,5.7,12,12.6V159c0,6.9-5.4,12.6-12,12.6h-9
				v-12.8h5.5C221.8,158.8,223.7,156.8,223.7,154.3z"/>
			<path class="st13" d="M217.2,142.2h-5.4v-15.7h-8.5c-6.2,0-11.3,5.7-11.3,12.6V159c0,6.9,5.1,12.6,11.3,12.6h8.5v-14.7h5.4
				c1.7,0,3.1-1.5,3.1-3.4v-7.9C220.3,143.8,218.9,142.2,217.2,142.2z"/>
		</g>
	</g>
</g>
<g id="mngt_network">
	<g>
		<path class="st14" d="M535,243.5c0-12.7-5.3-23-12-23.5v0H88v0c-6.7,0.5-12,10.8-12,23.5c0,12.7,5.3,23,12,23.5v0h435v0
			C529.7,266.5,535,256.2,535,243.5z"/>
		<ellipse class="st15" cx="522" cy="244" rx="8.5" ry="19.5"/>
	</g>
	<text transform="matrix(1 0 0 1 250 251)" class="st10 st16">管理網路</text>
</g>
<g id="vmotion_network">
	<g>
		<path class="st17" d="M534,310.5c0-12.7-5.3-23-12-23.5v0H87v0c-6.7,0.5-12,10.8-12,23.5s5.3,23,12,23.5v0h435v0
			C528.7,333.5,534,323.2,534,310.5z"/>
		<ellipse class="st15" cx="521" cy="311" rx="8.5" ry="19.5"/>
	</g>
	<text transform="matrix(1 0 0 1 221 319)" class="st10 st16">vMotion 網路</text>
</g>
<g id="vcenter">
	<g>
		<line class="st1" x1="135.5" y1="174.5" x2="135.5" y2="218.5"/>
		<g>
			<path class="st8" d="M158.6,125h-15.2c-4.6,0-8.4,3.8-8.4,8.4v5.6h-5.6c-4.6,0-8.4,3.8-8.4,8.4v14.2c0,4.6,3.8,8.4,8.4,8.4h14.3
				c4.6,0,8.4-3.8,8.4-8.4V158h6.4c4.6,0,8.4-3.8,8.4-8.4v-16.2C167,128.8,163.2,125,158.6,125z"/>
			<path class="st9" d="M142.3,160.9h-11.6c-0.9,0-1.7-0.8-1.7-1.7v-10.5c0-0.9,0.8-1.7,1.7-1.7h11.6c0.9,0,1.7,0.8,1.7,1.7v10.5
				C144,160.2,143.2,160.9,142.3,160.9z"/>
			<path class="st9" d="M156.3,149h-11.6c-0.9,0-1.7-0.8-1.7-1.7v-11.6c0-0.9,0.8-1.7,1.7-1.7h11.6c0.9,0,1.7,0.8,1.7,1.7v11.6
				C158,148.2,157.2,149,156.3,149z"/>
		</g>
	</g>
</g>
<g id="Layer_2">
	<g>
		<path class="st18" d="M119.6,32.9c-6.6,0-12.6,1.5-17.5,4.1c-1.8-15.2-14.1-27-29.1-27c-15.4,0-28,12.5-29.2,28.3
			c-1.3-0.5-2.7-0.8-4.2-0.8c-7.8,0-14.2,8.2-14.2,18.3c0,10.1,6.3,18.3,14.2,18.3c1.7,0,3.4-0.4,4.9-1.1h65.5
			c3,0.7,6.2,1.1,9.6,1.1c16.2,0,29.4-9.2,29.4-20.6C149,42.1,135.9,32.9,119.6,32.9z"/>
		<text transform="matrix(1 0 0 1 39 59.0682)" class="st10 st11">資料中心</text>
	</g>
</g>
</svg>
