<?xml version="1.0" encoding="utf-8"?>
<!-- Generator: Adobe Illustrator 21.0.0, SVG Export Plug-In . SVG Version: 6.00 Build 0)  -->
<svg version="1.1" id="Layer_1" xmlns="http://www.w3.org/2000/svg" xmlns:xlink="http://www.w3.org/1999/xlink" x="0px" y="0px"
	 viewBox="0 0 600 320" style="enable-background:new 0 0 600 320;" xml:space="preserve">
<style type="text/css">
	.st0{fill:#4C84C5;}
	.st1{fill:#959595;}
	.st2{fill:#1DA78D;}
	.st3{fill:#FFFFFF;}
	.st4{font-family:'Roboto-Light';}
	.st5{font-size:26px;}
	.st6{font-size:21px;}
</style>
<rect class="st0" width="600" height="100"/>
<rect y="220" class="st1" width="600" height="100"/>
<rect y="110" class="st2" width="297.5" height="100"/>
<rect x="305.3" y="110" class="st2" width="294.7" height="100"/>
<text transform="matrix(1 0 0 1 152.4775 43.3711)"><tspan x="60" y="0" class="st3 st4 st5">虛擬化管理</tspan><tspan x="45.3" y="34" class="st3 st4 st6">VMware vCenter Server</tspan></text>
<text transform="matrix(1 0 0 1 19.6601 158.6688)"><tspan x="60" y="0" class="st3 st4 st5">運算虛擬化</tspan><tspan x="51.6" y="23.9" class="st3 st4 st6">VMware vSphere</tspan></text>
<text transform="matrix(1 0 0 1 333.6861 159.7861)"><tspan x="60" y="0" class="st3 st4 st5">網路虛擬化</tspan><tspan x="65" y="23.9" class="st3 st4 st6">VMware NSX </tspan></text>
<text transform="matrix(1 0 0 1 102.3994 263.5371)"><tspan x="0" y="0" class="st3 st4 st5">IBM Cloud 上的實體基礎架構</tspan><tspan x="390.7" y="0" class="st3 st4 st6"> </tspan></text>
<text transform="matrix(1 0 0 1 430 302.2838)" class="st3 st4 st6">網路</text>
<text transform="matrix(1 0 0 1 260 302.8424)" class="st3 st4 st6">儲存空間</text>
<text transform="matrix(1 0 0 1 130 302.7475)" class="st3 st4 st6">運算</text>
</svg>
