<?xml version="1.0" encoding="utf-8"?>
<!-- Generator: Adobe Illustrator 21.0.0, SVG Export Plug-In . SVG Version: 6.00 Build 0)  -->
<svg version="1.1" xmlns="http://www.w3.org/2000/svg" xmlns:xlink="http://www.w3.org/1999/xlink" x="0px" y="0px"
	 viewBox="0 0 500 254" style="enable-background:new 0 0 500 254;" xml:space="preserve">
<style type="text/css">
	.st0{fill:none;stroke:#000000;stroke-width:0.75;stroke-miterlimit:10;}
	.st1{fill:#FFFFFF;}
	.st2{font-family:'IBMPlexSans';}
	.st3{font-size:12px;}
	.st4{fill:#FFFFFF;stroke:#29ABE2;stroke-miterlimit:10;}
	.st5{font-size:14px;}
</style>
<g id="line_from_base_to_trick_complete">
	<g>
		<line class="st0" x1="108.5" y1="91.5" x2="453.5" y2="91.5"/>
		<g>
			<g>
				<line class="st0" x1="453.5" y1="91.5" x2="453.5" y2="202.1"/>
				<g>
					<polygon points="449.8,201 453.5,207.5 457.2,201 					"/>
				</g>
			</g>
		</g>
	</g>
</g>
<g id="trick_complete">
	<g>
		<g>
			<rect x="417.5" y="207.5" class="st1" width="74" height="42"/>
			<path d="M491,208v41h-73v-41H491 M492,207h-75v43h75V207L492,207z"/>
		</g>
		<text transform="matrix(1 0 0 1 440 240)" class="st2 st3">完成</text>
		<text transform="matrix(1 0 0 1 440 225)" class="st2 st3">技巧</text>
	</g>
</g>
<g id="left_black_dot">
	<circle cx="139.5" cy="92.5" r="8.5"/>
</g>
<g id="right_black_dot">
	<circle cx="300.5" cy="92.5" r="8.5"/>
</g>
<g id="line_from_trick_start_to_base">
	<g>
		<g>
			<line class="st0" x1="55" y1="46" x2="55" y2="69.6"/>
			<g>
				<polygon points="51.3,68.5 55,75 58.7,68.5 				"/>
			</g>
		</g>
	</g>
</g>
<g id="line_from_left_black_dot_to_trick_complete">
	<g>
		<g>
			<g>
				<line class="st0" x1="410.6" y1="236.5" x2="139.5" y2="236.5"/>
				<g>
					<polygon points="409.5,232.8 416,236.5 409.5,240.2 					"/>
				</g>
			</g>
		</g>
		<line class="st0" x1="139.5" y1="98.5" x2="139.5" y2="236.5"/>
	</g>
</g>
<g id="left_line_to_landing">
	<g>
		<g>
			<line class="st0" x1="152.5" y1="156.5" x2="238.1" y2="156.5"/>
			<g>
				<polygon points="237,160.2 243.5,156.5 237,152.8 				"/>
			</g>
		</g>
	</g>
	<path class="st0" d="M291,156.5H149c-5.2,0-9.5-4.3-9.5-9.5v-46c0-5.2,4.3-9.5,9.5-9.5h142c5.2,0,9.5,4.3,9.5,9.5v46
		C300.5,152.2,296.2,156.5,291,156.5z"/>
</g>
<g id="top_line_to_landing">
	<g>
		<g>
			<line class="st0" x1="300.5" y1="96.5" x2="300.5" y2="133.1"/>
			<g>
				<polygon points="296.8,132 300.5,138.5 304.2,132 				"/>
			</g>
		</g>
	</g>
</g>
<g id="line_from_landing_to_complete">
	<g>
		<g>
			<g>
				<line class="st0" x1="411.1" y1="221.5" x2="300.5" y2="221.5"/>
				<g>
					<polygon points="410,217.8 416.5,221.5 410,225.2 					"/>
				</g>
			</g>
		</g>
		<line class="st0" x1="300.5" y1="171.5" x2="300.5" y2="221.5"/>
	</g>
</g>
<g id="Layer_16">
	<g>
		<g>
			<line class="st0" x1="218.5" y1="65.5" x2="218.5" y2="69.1"/>
			<g>
				<polygon points="214.8,68 218.5,74.5 222.2,68 				"/>
			</g>
		</g>
	</g>
	<path class="st0" d="M294.8,91.5h-70.5c-3.2,0-5.8-2.6-5.8-5.8V62.3c0-3.2,2.6-5.8,5.8-5.8h70.5c3.2,0,5.8,2.6,5.8,5.8v23.5
		C300.5,88.9,297.9,91.5,294.8,91.5z"/>
</g>
<g id="Layer_14">
</g>
<g id="base_combo">
	<g>
		<path class="st4" d="M97,107.5H23c-6.6,0-12-5.4-12-12V87c0-6.6,5.4-12,12-12h74c6.6,0,12,5.4,12,12v8.5
			C109,102.1,103.6,107.5,97,107.5z"/>
		<text transform="matrix(1 0 0 1 24.3335 96)" class="st2 st5">base_combo</text>
	</g>
</g>
<g id="next_combo">
	<g>
		<path class="st4" d="M255,107.5h-74c-6.6,0-12-5.4-12-12V87c0-6.6,5.4-12,12-12h74c6.6,0,12,5.4,12,12v8.5
			C267,102.1,261.6,107.5,255,107.5z"/>
		<text transform="matrix(1 0 0 1 183.6665 96)" class="st2 st5">next_combo</text>
	</g>
</g>
<g id="landing_combo">
	<g>
		<path class="st4" d="M344.5,171.5H257c-6.6,0-12-5.4-12-12V151c0-6.6,5.4-12,12-12h87.5c6.6,0,12,5.4,12,12v8.5
			C356.5,166.1,351.1,171.5,344.5,171.5z"/>
		<text transform="matrix(1 0 0 1 256.667 159.667)" class="st2 st5">landing_combo</text>
	</g>
</g>
<g id="trick_start">
	<g>
		<g>
			<rect x="22.5" y="4.5" class="st1" width="74" height="41"/>
			<path d="M96,5v40H23V5H96 M97,4H22v42h75V4L97,4z"/>
		</g>
		<text transform="matrix(1 0 0 1 43 21.6665)"><tspan x="0" y="0" class="st2 st3">技巧</tspan><tspan x="0" y="14.4" class="st2 st3">開始</tspan></text>
	</g>
</g>
<g id="Layer_3">
</g>
</svg>
