<?xml version="1.0" encoding="utf-8"?>
<!-- Generator: Adobe Illustrator 22.0.1, SVG Export Plug-In . SVG Version: 6.00 Build 0)  -->
<svg version="1.1" id="Layer_1" xmlns="http://www.w3.org/2000/svg" xmlns:xlink="http://www.w3.org/1999/xlink" x="0px" y="0px"
	 viewBox="0 0 725 406.2" style="enable-background:new 0 0 725 406.2;" xml:space="preserve">
<style type="text/css">
	.st0{fill:#4B84C4;}
	.st1{fill:#959595;}
	.st2{fill:#1AA78D;}
	.st3{fill:#F59C57;}
	.st4{fill:#FFFFFF;}
	.st5{font-family:'IBMPlexSans-Bold';}
	.st6{font-size:18px;}
	.st7{font-family:'IBMPlexSans';}
	.st8{font-size:16px;}
	.st9{fill:#B97BBA;}
	.st10{font-size:21px;}
</style>
<rect x="198.5" y="108" class="st0" width="526.5" height="89.1"/>
<rect x="-0.3" y="309.8" class="st1" width="725.3" height="96.4"/>
<rect x="198.5" y="208.8" class="st2" width="526.6" height="89.9"/>
<g id="Layer_2">
	<rect x="0.3" y="108.2" class="st3" width="186.9" height="190.5"/>
</g>
<g id="Layer_4">
	<text transform="matrix(1 0 0 1 23.3317 143.06)" class="st4 st5 st6">Services communs</text>
	<text transform="matrix(1 0 0 1 37.9283 182.5688)"><tspan x="0" y="0" class="st4 st7 st8">Authentification</tspan><tspan x="39.8" y="31.4" class="st4 st7 st8">DNS</tspan><tspan x="40.8" y="62.8" class="st4 st7 st8">NTP</tspan><tspan x="-24.8" y="94.3" class="st4 st7 st8">Autorité de certification</tspan></text>
	<rect x="0.3" y="0.6" class="st9" width="724.8" height="97.4"/>
</g>
<text transform="matrix(1 0 0 1 348.399 146.06)"><tspan x="0" y="0" class="st4 st5 st10">Gestion de l’infrastructure</tspan><tspan x="20" y="29.8" class="st4 st7 st6">   VMware vCenter Server</tspan></text>
<text transform="matrix(1 0 0 1 356.2605 242.3507)" class="st4 st5 st10">Infrastructure virtuelle</text>
<text transform="matrix(1 0 0 1 410.7433 283.1006)" class="st4 st7 st6">VMware vSAN</text>
<text transform="matrix(1 0 0 1 593.3839 283.1005)"><tspan x="0" y="0" class="st4 st7 st6">VMware NSX</tspan><tspan x="96.2" y="-2.6" class="st4 st7 st6">  </tspan></text>
<text transform="matrix(1 0 0 1 217.2811 283.1007)"><tspan x="0" y="0" class="st4 st7 st6">VMware vSphere</tspan><tspan x="126.8" y="-2.6" class="st4 st7 st6">  </tspan></text>
<text transform="matrix(1 0 0 1 260.5455 343.9594)" class="st4 st5 st10">Infrastructure physique</text>
<text transform="matrix(1 0 0 1 207.2536 38.0771)" class="st4 st5 st10">Services de mise en réseau de cloud</text>
<text transform="matrix(1 0 0 1 136.6153 387.9951)" class="st4 st7 st6">Calcul</text>
<text transform="matrix(1 0 0 1 330.435 387.995)" class="st4 st7 st6">Stockage </text>
<text transform="matrix(1 0 0 1 197.4894 77.5376)" class="st4 st7 st6">Passerelle NSX ESG (Edge Services Gateway)</text>
<text transform="matrix(1 0 0 1 535.2209 387.9953)" class="st4 st7 st6">Réseau</text>
</svg>
