<?xml version="1.0" encoding="utf-8"?>
<!-- Generator: Adobe Illustrator 22.0.1, SVG Export Plug-In . SVG Version: 6.00 Build 0)  -->
<svg version="1.1" xmlns="http://www.w3.org/2000/svg" xmlns:xlink="http://www.w3.org/1999/xlink" x="0px" y="0px"
	 viewBox="0 0 796 734" style="enable-background:new 0 0 796 734;" xml:space="preserve">
<style type="text/css">
	.st0{fill:none;stroke:#808080;stroke-width:2;stroke-miterlimit:10;stroke-dasharray:12;}
	.st1{fill:none;stroke:#009245;stroke-width:2;stroke-miterlimit:10;}
	.st2{font-family:'IBMPlexSans';}
	.st3{font-size:14px;}
	.st4{fill:none;stroke:#808080;stroke-width:2;stroke-miterlimit:10;}
	.st5{font-size:12px;}
	.st6{fill:none;stroke:#0071BC;stroke-width:2;stroke-miterlimit:10;}
	.st7{fill:none;stroke:#F7931E;stroke-width:2;stroke-miterlimit:10;}
	.st8{fill:none;stroke:#00A99D;stroke-width:2;stroke-miterlimit:10;}
	.st9{fill:none;stroke:#C1272D;stroke-width:2;stroke-miterlimit:10;}
	.st10{fill:#00FFFF;}
	.st11{fill:url(#SVGID_1_);}
	.st12{fill:url(#SVGID_2_);}
	.st13{fill:#FFFFFF;}
	.st14{font-size:12.4458px;}
	.st15{fill:url(#SVGID_3_);}
	.st16{fill:url(#SVGID_4_);}
	.st17{fill:#169ADB;stroke:#9BCCDD;stroke-width:0.5;stroke-miterlimit:10;}
	.st18{fill:url(#SVGID_5_);}
	.st19{font-size:9.5538px;}
	.st20{fill:url(#SVGID_6_);}
	.st21{fill:url(#SVGID_7_);}
	.st22{fill:url(#SVGID_8_);}
	.st23{fill:#CCCCCC;stroke:#999999;stroke-miterlimit:10;}
	.st24{fill:#0000FF;}
	.st25{font-size:12.6px;}
	.st26{font-size:11px;}
	.st27{fill:url(#SVGID_9_);}
	.st28{fill:url(#SVGID_10_);}
	.st29{fill:#0071BC;stroke:#073744;stroke-miterlimit:10;}
	.st30{fill:none;stroke:#662D91;stroke-width:2;stroke-miterlimit:10;}
	.st31{fill:url(#SVGID_11_);stroke:#CCCCCC;stroke-miterlimit:10;}
	.st32{fill:url(#SVGID_12_);stroke:#CCCCCC;stroke-miterlimit:10;}
	.st33{fill:#39B54A;}
	.st34{fill:url(#SVGID_13_);}
	.st35{fill:url(#SVGID_14_);}
	.st36{fill:url(#SVGID_15_);}
	.st37{fill:url(#SVGID_16_);}
	.st38{fill:none;stroke:#FFFFFF;stroke-width:0.75;stroke-miterlimit:10;}
	.st39{fill:url(#SVGID_17_);}
	.st40{fill:url(#SVGID_18_);}
	.st41{fill:url(#SVGID_19_);}
	.st42{fill:url(#SVGID_20_);}
	.st43{fill:url(#SVGID_21_);}
	.st44{fill:url(#SVGID_22_);}
	.st45{fill:url(#SVGID_23_);}
	.st46{fill:url(#SVGID_24_);}
</style>
<g id="cluster">
	<g>
		
			<image style="overflow:visible;" width="1166" height="218" id="Layer_1_xA0_Image" xlink:href="81669D93.png"  transform="matrix(0.3086 0 0 0.3086 280 492)">
		</image>
		<rect x="279" y="486" class="st0" width="361" height="77"/>
		<line class="st1" x1="329" y1="554" x2="329" y2="591"/>
		<line class="st1" x1="420" y1="554" x2="420" y2="591"/>
		<line class="st1" x1="507" y1="554" x2="507" y2="591"/>
		<line class="st1" x1="595" y1="555" x2="595" y2="592"/>
		<text transform="matrix(1 0 0 1 391.333 579.667)" class="st2 st3">Cluster convergé</text>
	</g>
	<line class="st1" x1="44" y1="592" x2="674" y2="592"/>
	<line class="st1" x1="76" y1="562" x2="76" y2="592"/>
	<line class="st4" x1="189" y1="562" x2="189" y2="592"/>
	<text transform="matrix(1 0 0 1 45 605.667)" class="st2 st5">Réseau privé SoftLayer (sous-réseau principal)</text>
	<text transform="matrix(1 0 0 1 45 653.667)" class="st2 st5">Réseau de services SoftLayer</text>
	<line class="st1" x1="731" y1="542" x2="698" y2="584"/>
	<g>
		<line class="st6" x1="741" y1="545" x2="741" y2="641"/>
		<line class="st6" x1="43" y1="640" x2="740" y2="640"/>
	</g>
	<g>
		<line class="st7" x1="688" y1="577" x2="688" y2="452"/>
		<line class="st7" x1="42" y1="451" x2="689" y2="451"/>
	</g>
	<text transform="matrix(1 0 0 1 43.6665 465.6665)" class="st2 st5">Internal-Mgmt (sous réseau portable SoftLayer)</text>
	<line class="st7" x1="262" y1="450" x2="262" y2="331"/>
	<line class="st7" x1="606" y1="451" x2="606" y2="190"/>
	<line class="st7" x1="42" y1="452" x2="42" y2="191"/>
	<line class="st7" x1="104" y1="438" x2="104" y2="451"/>
	<line class="st7" x1="340" y1="438" x2="340" y2="450"/>
	<line class="st7" x1="425" y1="438" x2="425" y2="450"/>
	<g>
		<line class="st8" x1="574" y1="156" x2="517" y2="156"/>
		<line class="st8" x1="518" y1="216" x2="518" y2="155"/>
	</g>
	<line class="st9" x1="748" y1="77" x2="13" y2="77"/>
	<line class="st9" x1="40" y1="77" x2="40" y2="135"/>
	<line class="st9" x1="594" y1="78" x2="594" y2="134"/>
	<line class="st9" x1="99" y1="77" x2="99" y2="60"/>
	<g>
		<ellipse class="st10" cx="102.5" cy="33.5" rx="22.5" ry="15.5"/>
		<ellipse class="st10" cx="85.5" cy="49.5" rx="18.5" ry="13.5"/>
		<ellipse class="st10" cx="121.5" cy="50.5" rx="28.5" ry="16.5"/>
	</g>
	<text transform="matrix(1 0 0 1 85.6665 51.3335)" class="st2 st5">Bluemix</text>
	<text transform="matrix(1 0 0 1 318.333 72)" class="st2 st5">Réseau public SoftLayer</text>
	
		<image style="overflow:visible;" width="620" height="76" id="Layer_1_xA0_Image_1_" xlink:href="81669D91.png"  transform="matrix(0.3435 0 0 0.3435 364 652)">
	</image>
	<line class="st4" x1="312" y1="640" x2="312" y2="652"/>
	<line class="st4" x1="417" y1="640" x2="417" y2="656"/>
	<line class="st4" x1="527" y1="640" x2="527" y2="654"/>
</g>
<g id="FCR_1_">
	<g id="FCR">
	</g>
</g>
<g id="MBR">
	<g>
		<g>
			<g>
				
					<linearGradient id="SVGID_1_" gradientUnits="userSpaceOnUse" x1="561.1429" y1="877.9205" x2="593.2814" y2="877.9205" gradientTransform="matrix(0.866 -0.5 0.5 0.866 -198.8992 56.2601)">
					<stop  offset="0" style="stop-color:#FFFFFF"/>
					<stop  offset="1" style="stop-color:#000000"/>
				</linearGradient>
				<path class="st11" d="M753.8,519.9c4.4,7.7,1.8,17.5-5.9,21.9c-7.7,4.4-17.5,1.8-22-5.9c-4.4-7.7-1.8-17.5,5.9-21.9
					C739.6,509.6,749.4,512.2,753.8,519.9z"/>
				<linearGradient id="SVGID_2_" gradientUnits="userSpaceOnUse" x1="723.3492" y1="527.9329" x2="756.5043" y2="527.9329">
					<stop  offset="0" style="stop-color:#FFFFFF"/>
					<stop  offset="1" style="stop-color:#000000"/>
				</linearGradient>
				<path class="st12" d="M740,544.5c-5.7,0-11.3-3-14.4-8.3c-2.2-3.8-2.8-8.3-1.7-12.6c1.1-4.3,3.9-7.8,7.7-10.1
					c7.9-4.6,18.1-1.8,22.6,6.1l0,0c2.2,3.8,2.8,8.3,1.7,12.6c-1.1,4.3-3.9,7.8-7.7,10.1C745.6,543.8,742.8,544.5,740,544.5z
					 M739.9,512.4c-2.6,0-5.3,0.7-7.8,2.1c-3.6,2.1-6.2,5.4-7.3,9.5c-1.1,4-0.5,8.2,1.6,11.8c4.3,7.4,13.8,10,21.3,5.7
					c3.6-2.1,6.2-5.4,7.3-9.5c1.1-4,0.5-8.2-1.6-11.8C750.5,515.2,745.3,512.4,739.9,512.4z"/>
			</g>
			<g>
				<g>
					<g>
						<g>
							<polygon class="st13" points="740.1,513.3 737.3,518.5 742.9,518.5 							"/>
						</g>
					</g>
				</g>
				<g>
					<g>
						<g>
							<rect x="738.8" y="518.5" class="st13" width="2.6" height="5.5"/>
						</g>
					</g>
				</g>
			</g>
			<g>
				<g>
					<g>
						<g>
							<polygon class="st13" points="737.2,527.7 732,524.9 732,530.5 							"/>
						</g>
					</g>
				</g>
				<g>
					<g>
						<g>
							<rect x="726.6" y="526.4" class="st13" width="5.5" height="2.6"/>
						</g>
					</g>
				</g>
			</g>
			<g>
				<g>
					<g>
						<g>
							<polygon class="st13" points="743,527.9 748.2,530.7 748.2,525.1 							"/>
						</g>
					</g>
				</g>
				<g>
					<g>
						<g>
							
								<rect x="749.6" y="525.2" transform="matrix(1.297739e-02 -0.9999 0.9999 1.297739e-02 213.2794 1271.9431)" class="st13" width="2.6" height="5.5"/>
						</g>
					</g>
				</g>
			</g>
			<g>
				<g>
					<g>
						<g>
							<polygon class="st13" points="739.9,542.2 737.1,537 742.7,537 							"/>
						</g>
					</g>
				</g>
				<g>
					<g>
						<g>
							<rect x="738.7" y="531.5" class="st13" width="2.6" height="5.5"/>
						</g>
					</g>
				</g>
			</g>
		</g>
		<text transform="matrix(1.0004 0 0 1 727.8379 505.3467)" class="st2 st14">MBR</text>
	</g>
</g>
<g id="BCR">
	<g>
		<g>
			<g>
				
					<linearGradient id="SVGID_3_" gradientUnits="userSpaceOnUse" x1="482.819" y1="909.9821" x2="515.8141" y2="909.9821" gradientTransform="matrix(0.866 -0.5 0.5 0.866 -198.8992 56.2601)">
					<stop  offset="0" style="stop-color:#FFFFFF"/>
					<stop  offset="1" style="stop-color:#000000"/>
				</linearGradient>
				<circle class="st15" cx="688.5" cy="594.6" r="16.5"/>
				<linearGradient id="SVGID_4_" gradientUnits="userSpaceOnUse" x1="671.4956" y1="594.6465" x2="705.4938" y2="594.6465">
					<stop  offset="0" style="stop-color:#FFFFFF"/>
					<stop  offset="1" style="stop-color:#000000"/>
				</linearGradient>
				<path class="st16" d="M688.5,611.6c-5.9,0-11.6-3-14.7-8.5c-2.3-3.9-2.9-8.5-1.7-12.9c1.2-4.4,4-8.1,7.9-10.3
					c8.1-4.7,18.5-1.9,23.2,6.2c4.7,8.1,1.9,18.5-6.2,23.2C694.3,610.9,691.4,611.6,688.5,611.6z M688.5,578.7c-2.7,0-5.5,0.7-8,2.1
					c-7.6,4.4-10.3,14.2-5.9,21.9c4.4,7.6,14.2,10.3,21.9,5.9c7.6-4.4,10.3-14.2,5.9-21.9C699.4,581.5,694,578.7,688.5,578.7z"/>
			</g>
			<g>
				<g>
					<g>
						<g>
							<polygon class="st13" points="688.7,579.6 685.8,585 691.5,585 							"/>
						</g>
					</g>
				</g>
				<g>
					<g>
						<g>
							<rect x="687.4" y="584.9" class="st13" width="2.7" height="5.7"/>
						</g>
					</g>
				</g>
			</g>
			<g>
				<g>
					<g>
						<g>
							<polygon class="st13" points="685.7,594.4 680.4,591.6 680.4,597.2 							"/>
						</g>
					</g>
				</g>
				<g>
					<g>
						<g>
							<rect x="674.9" y="593.1" class="st13" width="5.6" height="2.6"/>
						</g>
					</g>
				</g>
			</g>
			<g>
				<g>
					<g>
						<g>
							<polygon class="st13" points="691.6,594.6 697,597.5 697,591.8 							"/>
						</g>
					</g>
				</g>
				<g>
					<g>
						<g>
							
								<rect x="698.5" y="591.8" transform="matrix(1.294521e-02 -0.9999 0.9999 1.294521e-02 96.1226 1286.6794)" class="st13" width="2.7" height="5.7"/>
						</g>
					</g>
				</g>
			</g>
			<g>
				<g>
					<g>
						<g>
							<polygon class="st13" points="688.5,609.3 685.6,603.9 691.4,603.9 							"/>
						</g>
					</g>
				</g>
				<g>
					<g>
						<g>
							<rect x="687.2" y="598.3" class="st13" width="2.7" height="5.7"/>
						</g>
					</g>
				</g>
			</g>
		</g>
		<text transform="matrix(1 0 0 1 675 628.667)" class="st2 st3">BCR</text>
	</g>
</g>
<g id="PV">
	<g>
		<g>
			<g>
				<rect x="574.5" y="135" class="st17" width="39.4" height="39.4"/>
				<linearGradient id="SVGID_5_" gradientUnits="userSpaceOnUse" x1="600.7189" y1="148.9344" x2="591.1747" y2="184.038">
					<stop  offset="0" style="stop-color:#CCE0F4"/>
					<stop  offset="7.748766e-02" style="stop-color:#C5DDF3"/>
					<stop  offset="0.1918" style="stop-color:#B1D5EF"/>
					<stop  offset="0.329" style="stop-color:#90C9EA"/>
					<stop  offset="0.4838" style="stop-color:#63B7E2"/>
					<stop  offset="0.6515" style="stop-color:#2AA1D9"/>
					<stop  offset="0.6829" style="stop-color:#1E9CD7"/>
					<stop  offset="0.8652" style="stop-color:#0075BE"/>
					<stop  offset="0.9944" style="stop-color:#005B97"/>
				</linearGradient>
				<polygon class="st18" points="576,172.9 612.4,136.5 612.4,172.9 				"/>
			</g>
			<text transform="matrix(1 0 0 1 577.4863 164.5576)" class="st13 st2 st19">P</text>
			<text transform="matrix(1 0 0 1 584.6523 171.7236)" class="st13 st2 st19">V</text>
			<g>
				<g>
					<g>
						<g>
							<polygon class="st13" points="579.2,142.2 581.4,149.9 586.7,144.8 							"/>
						</g>
					</g>
				</g>
				<g>
					<g>
						<g>
							
								<rect x="584.9" y="146.2" transform="matrix(0.7268 -0.6868 0.6868 0.7268 57.235 443.8578)" class="st13" width="3.4" height="7.5"/>
						</g>
					</g>
				</g>
			</g>
			<g>
				<g>
					<g>
						<g>
							<polygon class="st13" points="606.2,170.1 597.8,166.8 603.4,161.5 							"/>
						</g>
					</g>
				</g>
				<g>
					<g>
						<g>
							
								<rect x="595.9" y="156.7" transform="matrix(0.7268 -0.6868 0.6868 0.7268 52.6642 454.5305)" class="st13" width="3.6" height="8.6"/>
						</g>
					</g>
				</g>
			</g>
		</g>
		<g>
			<g>
				<rect x="586.3" y="150.6" class="st17" width="39.4" height="39.4"/>
				<linearGradient id="SVGID_6_" gradientUnits="userSpaceOnUse" x1="612.5563" y1="164.525" x2="603.012" y2="199.6286">
					<stop  offset="0" style="stop-color:#CCE0F4"/>
					<stop  offset="7.748766e-02" style="stop-color:#C5DDF3"/>
					<stop  offset="0.1918" style="stop-color:#B1D5EF"/>
					<stop  offset="0.329" style="stop-color:#90C9EA"/>
					<stop  offset="0.4838" style="stop-color:#63B7E2"/>
					<stop  offset="0.6515" style="stop-color:#2AA1D9"/>
					<stop  offset="0.6829" style="stop-color:#1E9CD7"/>
					<stop  offset="0.8652" style="stop-color:#0075BE"/>
					<stop  offset="0.9944" style="stop-color:#005B97"/>
				</linearGradient>
				<polygon class="st20" points="587.9,188.5 624.2,152.1 624.2,188.5 				"/>
			</g>
			<text transform="matrix(1 0 0 1 589.3242 180.1484)" class="st13 st2 st19">P</text>
			<text transform="matrix(1 0 0 1 596.4893 187.3145)" class="st13 st2 st19">V</text>
			<g>
				<g>
					<g>
						<g>
							<polygon class="st13" points="591,157.8 593.2,165.5 598.6,160.4 							"/>
						</g>
					</g>
				</g>
				<g>
					<g>
						<g>
							
								<rect x="596.8" y="161.8" transform="matrix(0.7268 -0.6868 0.6868 0.7268 49.7666 456.2573)" class="st13" width="3.4" height="7.5"/>
						</g>
					</g>
				</g>
			</g>
			<g>
				<g>
					<g>
						<g>
							<polygon class="st13" points="618.1,185.7 609.6,182.4 615.3,177.1 							"/>
						</g>
					</g>
				</g>
				<g>
					<g>
						<g>
							
								<rect x="607.8" y="172.3" transform="matrix(0.7268 -0.6868 0.6868 0.7268 45.189 466.9177)" class="st13" width="3.6" height="8.6"/>
						</g>
					</g>
				</g>
			</g>
		</g>
	</g>
	<text transform="matrix(1 0 0 1 623.2197 146.9814)"><tspan x="0" y="0" class="st2 st5">ESG-Workload-NS</tspan><tspan x="0" y="14.4" class="st2 st5">        (Extra grand)</tspan></text>
	<g>
		<g>
			<g>
				<rect x="13.5" y="136" class="st17" width="39.4" height="39.4"/>
				<linearGradient id="SVGID_7_" gradientUnits="userSpaceOnUse" x1="39.719" y1="149.9344" x2="30.1747" y2="185.038">
					<stop  offset="0" style="stop-color:#CCE0F4"/>
					<stop  offset="7.748766e-02" style="stop-color:#C5DDF3"/>
					<stop  offset="0.1918" style="stop-color:#B1D5EF"/>
					<stop  offset="0.329" style="stop-color:#90C9EA"/>
					<stop  offset="0.4838" style="stop-color:#63B7E2"/>
					<stop  offset="0.6515" style="stop-color:#2AA1D9"/>
					<stop  offset="0.6829" style="stop-color:#1E9CD7"/>
					<stop  offset="0.8652" style="stop-color:#0075BE"/>
					<stop  offset="0.9944" style="stop-color:#005B97"/>
				</linearGradient>
				<polygon class="st21" points="15,173.9 51.4,137.5 51.4,173.9 				"/>
			</g>
			<text transform="matrix(1 0 0 1 16.4863 165.5576)" class="st13 st2 st19">P</text>
			<text transform="matrix(1 0 0 1 23.6523 172.7236)" class="st13 st2 st19">V</text>
			<g>
				<g>
					<g>
						<g>
							<polygon class="st13" points="18.2,143.2 20.4,150.9 25.7,145.8 							"/>
						</g>
					</g>
				</g>
				<g>
					<g>
						<g>
							
								<rect x="23.9" y="147.2" transform="matrix(0.7268 -0.6868 0.6868 0.7268 -96.691 58.8361)" class="st13" width="3.4" height="7.5"/>
						</g>
					</g>
				</g>
			</g>
			<g>
				<g>
					<g>
						<g>
							<polygon class="st13" points="45.2,171.1 36.8,167.8 42.4,162.5 							"/>
						</g>
					</g>
				</g>
				<g>
					<g>
						<g>
							
								<rect x="34.9" y="157.7" transform="matrix(0.7268 -0.6868 0.6868 0.7268 -101.2699 69.4997)" class="st13" width="3.6" height="8.6"/>
						</g>
					</g>
				</g>
			</g>
		</g>
		<g>
			<g>
				<rect x="25.3" y="151.6" class="st17" width="39.4" height="39.4"/>
				<linearGradient id="SVGID_8_" gradientUnits="userSpaceOnUse" x1="51.5563" y1="165.525" x2="42.012" y2="200.6286">
					<stop  offset="0" style="stop-color:#CCE0F4"/>
					<stop  offset="7.748766e-02" style="stop-color:#C5DDF3"/>
					<stop  offset="0.1918" style="stop-color:#B1D5EF"/>
					<stop  offset="0.329" style="stop-color:#90C9EA"/>
					<stop  offset="0.4838" style="stop-color:#63B7E2"/>
					<stop  offset="0.6515" style="stop-color:#2AA1D9"/>
					<stop  offset="0.6829" style="stop-color:#1E9CD7"/>
					<stop  offset="0.8652" style="stop-color:#0075BE"/>
					<stop  offset="0.9944" style="stop-color:#005B97"/>
				</linearGradient>
				<polygon class="st22" points="26.9,189.5 63.2,153.1 63.2,189.5 				"/>
			</g>
			<text transform="matrix(1 0 0 1 28.3242 181.1484)" class="st13 st2 st19">P</text>
			<text transform="matrix(1 0 0 1 35.4893 188.3145)" class="st13 st2 st19">V</text>
			<g>
				<g>
					<g>
						<g>
							<polygon class="st13" points="30,158.8 32.2,166.5 37.6,161.4 							"/>
						</g>
					</g>
				</g>
				<g>
					<g>
						<g>
							
								<rect x="35.8" y="162.8" transform="matrix(0.7268 -0.6868 0.6868 0.7268 -104.1672 71.2274)" class="st13" width="3.4" height="7.5"/>
						</g>
					</g>
				</g>
			</g>
			<g>
				<g>
					<g>
						<g>
							<polygon class="st13" points="57.1,186.7 48.6,183.4 54.3,178.1 							"/>
						</g>
					</g>
				</g>
				<g>
					<g>
						<g>
							
								<rect x="46.8" y="173.3" transform="matrix(0.7268 -0.6868 0.6868 0.7268 -108.7441 81.8885)" class="st13" width="3.6" height="8.6"/>
						</g>
					</g>
				</g>
			</g>
		</g>
	</g>
	<text transform="matrix(1 0 0 1 62.2197 147.9814)"><tspan x="0" y="0" class="st2 st5">ESG-Mgmt-NS</tspan><tspan x="0" y="14.4" class="st2 st5">      (Grand)</tspan></text>
</g>
<g id="VMs">
	<g>
		<g>
			<rect x="174.5" y="534.5" class="st23" width="28" height="28"/>
			<text transform="matrix(1 0 0 1 179.3994 553.3999)" class="st24 st2 st25">VM</text>
		</g>
		<text transform="matrix(1 0 0 1 163.6665 515)"><tspan x="0" y="0" class="st2 st26">VSI-MSAD/</tspan><tspan x="0" y="13.2" class="st2 st26">DNS/NTP</tspan></text>
	</g>
	<g>
		<g>
			<rect x="63.5" y="534.5" class="st23" width="28" height="28"/>
			<text transform="matrix(1 0 0 1 68.3994 553.3999)" class="st24 st2 st25">VM</text>
		</g>
		<text transform="matrix(1 0 0 1 44.0313 515)"><tspan x="0" y="0" class="st2 st26">VSI-Serveur de</tspan><tspan x="-13.4" y="13.2" class="st2 st26">sauvegarde (Veeam)</tspan></text>
	</g>
</g>
<g id="Layer_11">
	<g>
		<rect x="91.5" y="410.5" class="st23" width="28" height="28"/>
		<text transform="matrix(1 0 0 1 96.3994 429.3999)" class="st24 st2 st25">VM</text>
	</g>
	<g>
		<line class="st7" x1="186" y1="438" x2="186" y2="450"/>
		<g>
			<rect x="172.5" y="410.5" class="st23" width="28" height="28"/>
			<text transform="matrix(1 0 0 1 177.3994 429.3999)" class="st24 st2 st25">VM</text>
		</g>
	</g>
	<g>
		<rect x="326" y="410.5" class="st23" width="28" height="28"/>
		<text transform="matrix(1 0 0 1 330.8994 429.3999)" class="st24 st2 st25">VM</text>
	</g>
	<g>
		<rect x="411.5" y="410.5" class="st23" width="28" height="28"/>
		<text transform="matrix(1 0 0 1 416.3994 429.3999)" class="st24 st2 st25">VM</text>
	</g>
	<text transform="matrix(1 0 0 1 84.3335 388.6665)"><tspan x="0" y="0" class="st2 st5">  SDDC</tspan><tspan x="0" y="14.4" class="st2 st5">Manager</tspan></text>
	<text transform="matrix(1 0 0 1 158.333 374.3335)"><tspan x="0" y="0" class="st2 st5"> vCenter</tspan><tspan x="0" y="14.4" class="st2 st5">   Server</tspan><tspan x="0" y="28.8" class="st2 st5">Appliance</tspan></text>
</g>
<g id="Softlayer_file_storage">
	<g>
		<g>
			<g>
				
					<linearGradient id="SVGID_9_" gradientUnits="userSpaceOnUse" x1="805.9973" y1="499.6966" x2="841.9922" y2="499.6966" gradientTransform="matrix(0.866 -0.5 0.5 0.866 -198.8992 56.2601)">
					<stop  offset="0" style="stop-color:#FFFFFF"/>
					<stop  offset="1" style="stop-color:#000000"/>
				</linearGradient>
				<path class="st27" d="M780.1,68c5,8.6,2,19.6-6.6,24.6c-8.6,5-19.6,2-24.6-6.6c-5-8.6-2-19.6,6.6-24.6
					C764.1,56.4,775.1,59.4,780.1,68z"/>
				<linearGradient id="SVGID_10_" gradientUnits="userSpaceOnUse" x1="746.0232" y1="76.9942" x2="783.0216" y2="76.9942">
					<stop  offset="0" style="stop-color:#FFFFFF"/>
					<stop  offset="1" style="stop-color:#000000"/>
				</linearGradient>
				<path class="st28" d="M764.6,95.5c-6.4,0-12.6-3.3-16-9.2c-2.5-4.3-3.1-9.3-1.8-14c1.3-4.8,4.3-8.8,8.6-11.2
					c4.3-2.5,9.3-3.1,14-1.8c4.8,1.3,8.8,4.3,11.2,8.6c5.1,8.8,2.1,20.2-6.8,25.3C770.9,94.7,767.7,95.5,764.6,95.5z M764.5,59.5
					c-3,0-6,0.8-8.7,2.4c-4,2.3-6.9,6.1-8.2,10.6c-1.2,4.5-0.6,9.2,1.7,13.3c4.8,8.4,15.5,11.2,23.9,6.4c8.4-4.8,11.2-15.5,6.4-23.9
					c-2.3-4-6.1-6.9-10.6-8.2C767.5,59.7,766,59.5,764.5,59.5z"/>
			</g>
			<g>
				<g>
					<g>
						<g>
							<polygon class="st13" points="764.7,60.6 761.6,66.5 767.8,66.5 							"/>
						</g>
					</g>
				</g>
				<g>
					<g>
						<g>
							<rect x="763.3" y="66.4" class="st13" width="2.9" height="6.2"/>
						</g>
					</g>
				</g>
			</g>
			<g>
				<g>
					<g>
						<g>
							<polygon class="st13" points="761.5,76.7 755.7,73.6 755.7,79.8 							"/>
						</g>
					</g>
				</g>
				<g>
					<g>
						<g>
							<rect x="749.7" y="75.3" class="st13" width="6.1" height="2.9"/>
						</g>
					</g>
				</g>
			</g>
			<g>
				<g>
					<g>
						<g>
							<polygon class="st13" points="767.9,76.9 773.8,80.1 773.8,73.9 							"/>
						</g>
					</g>
				</g>
				<g>
					<g>
						<g>
							
								<rect x="775.4" y="73.9" transform="matrix(1.296264e-02 -0.9999 0.9999 1.296264e-02 689.7685 852.7811)" class="st13" width="2.9" height="6.2"/>
						</g>
					</g>
				</g>
			</g>
			<g>
				<g>
					<g>
						<g>
							<polygon class="st13" points="764.5,93 761.4,87.1 767.7,87.1 							"/>
						</g>
					</g>
				</g>
				<g>
					<g>
						<g>
							<rect x="763.1" y="81" class="st13" width="2.9" height="6.2"/>
						</g>
					</g>
				</g>
			</g>
		</g>
		<text transform="matrix(1 0 0 1 752.333 113.6665)" class="st2 st3">FCR</text>
	</g>
	<g>
		<path class="st29" d="M324.8,662.4h-25c-2.6,0-4.7-2.1-4.7-4.7l0,0c0-2.6,2.1-4.7,4.7-4.7h25c2.6,0,4.7,2.1,4.7,4.7l0,0
			C329.5,660.3,327.4,662.4,324.8,662.4z"/>
		<path class="st29" d="M324.8,670.8h-25c-2.6,0-4.7-2.1-4.7-4.7l0,0c0-2.6,2.1-4.7,4.7-4.7h25c2.6,0,4.7,2.1,4.7,4.7l0,0
			C329.5,668.7,327.4,670.8,324.8,670.8z"/>
		<path class="st29" d="M324.8,680h-25c-2.6,0-4.7-2.1-4.7-4.7l0,0c0-2.6,2.1-4.7,4.7-4.7h25c2.6,0,4.7,2.1,4.7,4.7l0,0
			C329.5,677.9,327.4,680,324.8,680z"/>
	</g>
	<text transform="matrix(0.9493 0 0 1 281.6919 694.4727)"><tspan x="0" y="0" class="st2 st5"> Stockage de</tspan><tspan x="-10.8" y="14.4" class="st2 st5">fichiers SoftLayer</tspan></text>
	<text transform="matrix(1 0 0 1 387.6963 691)"><tspan x="0" y="0" class="st2 st5">Service NTP</tspan><tspan x="5.8" y="14.4" class="st2 st5">SoftLayer</tspan></text>
	<text transform="matrix(1 0 0 1 497.916 693)"><tspan x="0" y="0" class="st2 st5">Service DNS</tspan><tspan x="6.6" y="14.4" class="st2 st5">SoftLayer</tspan></text>
</g>
<g id="DLR">
	<text transform="matrix(1 0 0 1 412.667 151.6665)" class="st2 st5">networkExchange VXLAN</text>
	<g>
		<line class="st30" x1="481" y1="250" x2="334" y2="250"/>
		<text transform="matrix(1 0 0 1 367 261.6665)" class="st2 st5">Workload VXLAN</text>
		<line class="st30" x1="354" y1="238" x2="354" y2="249"/>
		<line class="st30" x1="396" y1="238" x2="396" y2="249"/>
		<line class="st30" x1="437" y1="240" x2="437" y2="249"/>
		<g>
			<rect x="341.5" y="210.5" class="st23" width="28" height="28"/>
			<text transform="matrix(1 0 0 1 346.3994 229.3999)" class="st24 st2 st25">VM</text>
		</g>
		<g>
			<rect x="382.5" y="210.5" class="st23" width="28" height="28"/>
			<text transform="matrix(1 0 0 1 387.3994 229.3999)" class="st24 st2 st25">VM</text>
		</g>
		<g>
			<rect x="423.5" y="211.5" class="st23" width="28" height="28"/>
			<text transform="matrix(1 0 0 1 428.3994 230.3999)" class="st24 st2 st25">VM</text>
		</g>
		<g>
			<g>
				<g>
					
						<linearGradient id="SVGID_11_" gradientUnits="userSpaceOnUse" x1="483.542" y1="543.0453" x2="524.1683" y2="543.0453" gradientTransform="matrix(0.8383 -0.5452 0.5452 0.8383 -217.281 67.2979)">
						<stop  offset="6.000000e-08" style="stop-color:#39B54A"/>
						<stop  offset="0.2095" style="stop-color:#38B44D"/>
						<stop  offset="0.3607" style="stop-color:#35B256"/>
						<stop  offset="0.4937" style="stop-color:#30AF66"/>
						<stop  offset="0.6161" style="stop-color:#29AB7C"/>
						<stop  offset="0.7314" style="stop-color:#20A599"/>
						<stop  offset="0.8412" style="stop-color:#159EBD"/>
						<stop  offset="0.9448" style="stop-color:#0895E6"/>
						<stop  offset="1" style="stop-color:#0090FF"/>
					</linearGradient>
					<circle class="st31" cx="501.2" cy="247.8" r="20.3"/>
					<g>
						<g>
							<g>
								<g>
									<polygon class="st13" points="501.4,229.3 497.8,235.9 504.9,235.9 									"/>
								</g>
							</g>
						</g>
						<g>
							<g>
								<g>
									<rect x="499.8" y="235.9" class="st13" width="3.3" height="7"/>
								</g>
							</g>
						</g>
					</g>
					<g>
						<g>
							<g>
								<g>
									<polygon class="st13" points="497.7,247.5 491.2,244 491.2,251 									"/>
								</g>
							</g>
						</g>
						<g>
							<g>
								<g>
									<rect x="484.4" y="245.9" class="st13" width="6.9" height="3.2"/>
								</g>
							</g>
						</g>
					</g>
					<g>
						<g>
							<g>
								<g>
									<polygon class="st13" points="505,247.7 511.6,251.4 511.7,244.3 									"/>
								</g>
							</g>
						</g>
						<g>
							<g>
								<g>
									
										<rect x="513.4" y="244.3" transform="matrix(1.298594e-02 -0.9999 0.9999 1.298594e-02 260.5572 759.6392)" class="st13" width="3.3" height="7"/>
								</g>
							</g>
						</g>
					</g>
					<g>
						<g>
							<g>
								<g>
									<polygon class="st13" points="501.2,265.9 497.6,259.3 504.7,259.3 									"/>
								</g>
							</g>
						</g>
						<g>
							<g>
								<g>
									<rect x="499.6" y="252.3" class="st13" width="3.3" height="7"/>
								</g>
							</g>
						</g>
					</g>
				</g>
				<g>
					
						<linearGradient id="SVGID_12_" gradientUnits="userSpaceOnUse" x1="503.1447" y1="543.1966" x2="543.7711" y2="543.1966" gradientTransform="matrix(0.8383 -0.5452 0.5452 0.8383 -217.281 67.2979)">
						<stop  offset="6.000000e-08" style="stop-color:#39B54A"/>
						<stop  offset="0.2095" style="stop-color:#38B44D"/>
						<stop  offset="0.3607" style="stop-color:#35B256"/>
						<stop  offset="0.4937" style="stop-color:#30AF66"/>
						<stop  offset="0.6161" style="stop-color:#29AB7C"/>
						<stop  offset="0.7314" style="stop-color:#20A599"/>
						<stop  offset="0.8412" style="stop-color:#159EBD"/>
						<stop  offset="0.9448" style="stop-color:#0895E6"/>
						<stop  offset="1" style="stop-color:#0090FF"/>
					</linearGradient>
					<circle class="st32" cx="517.7" cy="237.3" r="20.3"/>
					<g>
						<g>
							<g>
								<g>
									<polygon class="st13" points="517.9,218.8 514.4,225.4 521.4,225.4 									"/>
								</g>
							</g>
						</g>
						<g>
							<g>
								<g>
									<rect x="516.3" y="225.3" class="st13" width="3.3" height="7"/>
								</g>
							</g>
						</g>
					</g>
					<g>
						<g>
							<g>
								<g>
									<polygon class="st13" points="514.3,237 507.7,233.5 507.7,240.5 									"/>
								</g>
							</g>
						</g>
						<g>
							<g>
								<g>
									<rect x="500.9" y="235.4" class="st13" width="6.9" height="3.2"/>
								</g>
							</g>
						</g>
					</g>
					<g>
						<g>
							<g>
								<g>
									<polygon class="st13" points="521.5,237.2 528.1,240.8 528.2,233.7 									"/>
								</g>
							</g>
						</g>
						<g>
							<g>
								<g>
									
										<rect x="529.9" y="233.8" transform="matrix(1.294650e-02 -0.9999 0.9999 1.294650e-02 287.4387 765.7394)" class="st13" width="3.3" height="7"/>
								</g>
							</g>
						</g>
					</g>
					<g>
						<g>
							<g>
								<g>
									<polygon class="st13" points="517.7,255.3 514.2,248.7 521.2,248.7 									"/>
								</g>
							</g>
						</g>
						<g>
							<g>
								<g>
									<rect x="516.1" y="241.8" class="st13" width="3.3" height="7"/>
								</g>
							</g>
						</g>
					</g>
				</g>
			</g>
			<text transform="matrix(1 0 0 1 496 282)" class="st2 st3">DLR</text>
		</g>
	</g>
	<text transform="matrix(1 0 0 1 313.6318 359.3335)"><tspan x="0" y="0" class="st2 st5">Contrôleur</tspan><tspan x="-7.1" y="14.4" class="st2 st5">PSC (Platform</tspan><tspan x="6.7" y="28.8" class="st2 st5">Services</tspan><tspan x="0.2" y="43.2" class="st2 st5">Controller)</tspan></text>
	<text transform="matrix(1 0 0 1 401.333 388.3335)"><tspan x="0" y="0" class="st2 st5">   NSX</tspan><tspan x="0" y="14.4" class="st2 st5">Manager</tspan></text>
	<text transform="matrix(1 0 0 1 231.9219 291)"><tspan x="0" y="0" class="st2 st5">Contrôleurs</tspan><tspan x="19.1" y="14.4" class="st2 st5">NSX</tspan></text>
</g>
<g id="NSX_Controller">
	<g>
		<g>
			
				<ellipse transform="matrix(0.1705 -0.9854 0.9854 0.1705 -106.8632 520.5885)" class="st33" cx="255.8" cy="323.8" rx="12.8" ry="12.8"/>
			
				<radialGradient id="SVGID_13_" cx="150.5722" cy="646.9824" r="4.0188" gradientTransform="matrix(-0.4545 -0.8908 0.8908 -0.4545 -254.4934 746.5724)" gradientUnits="userSpaceOnUse">
				<stop  offset="0" style="stop-color:#53FF3F"/>
				<stop  offset="2.941853e-02" style="stop-color:#5EFF4B"/>
				<stop  offset="0.1556" style="stop-color:#88FF7B"/>
				<stop  offset="0.2858" style="stop-color:#ADFFA3"/>
				<stop  offset="0.4181" style="stop-color:#CBFFC4"/>
				<stop  offset="0.5532" style="stop-color:#E2FFDE"/>
				<stop  offset="0.6923" style="stop-color:#F2FFF1"/>
				<stop  offset="0.8378" style="stop-color:#FCFFFB"/>
				<stop  offset="1" style="stop-color:#FFFFFF"/>
			</radialGradient>
			<path class="st34" d="M256.2,315l1.6,3.1c0.6,1.1,0.1,2.5-1,3.1l-3.1,1.6c-1.1,0.6-2.5,0.1-3.1-1l-1.6-3.1
				c-0.6-1.1-0.1-2.5,1-3.1l3.1-1.6C254.2,313.5,255.6,313.9,256.2,315z"/>
			<radialGradient id="SVGID_14_" cx="248.8821" cy="328.9389" r="2.0095" gradientUnits="userSpaceOnUse">
				<stop  offset="0" style="stop-color:#53FF3F"/>
				<stop  offset="2.941853e-02" style="stop-color:#5EFF4B"/>
				<stop  offset="0.1556" style="stop-color:#88FF7B"/>
				<stop  offset="0.2858" style="stop-color:#ADFFA3"/>
				<stop  offset="0.4181" style="stop-color:#CBFFC4"/>
				<stop  offset="0.5532" style="stop-color:#E2FFDE"/>
				<stop  offset="0.6923" style="stop-color:#F2FFF1"/>
				<stop  offset="0.8378" style="stop-color:#FCFFFB"/>
				<stop  offset="1" style="stop-color:#FFFFFF"/>
			</radialGradient>
			<path class="st35" d="M249.7,330.9H248c-0.6,0-1.1-0.5-1.1-1.1v-1.7c0-0.6,0.5-1.1,1.1-1.1h1.7c0.6,0,1.1,0.5,1.1,1.1v1.7
				C250.9,330.4,250.4,330.9,249.7,330.9z"/>
			<radialGradient id="SVGID_15_" cx="257.9247" cy="329.9436" r="2.0095" gradientUnits="userSpaceOnUse">
				<stop  offset="0" style="stop-color:#53FF3F"/>
				<stop  offset="2.941853e-02" style="stop-color:#5EFF4B"/>
				<stop  offset="0.1556" style="stop-color:#88FF7B"/>
				<stop  offset="0.2858" style="stop-color:#ADFFA3"/>
				<stop  offset="0.4181" style="stop-color:#CBFFC4"/>
				<stop  offset="0.5532" style="stop-color:#E2FFDE"/>
				<stop  offset="0.6923" style="stop-color:#F2FFF1"/>
				<stop  offset="0.8378" style="stop-color:#FCFFFB"/>
				<stop  offset="1" style="stop-color:#FFFFFF"/>
			</radialGradient>
			<path class="st36" d="M258.8,332h-1.7c-0.6,0-1.1-0.5-1.1-1.1v-1.7c0-0.6,0.5-1.1,1.1-1.1h1.7c0.6,0,1.1,0.5,1.1,1.1v1.7
				C259.9,331.4,259.4,332,258.8,332z"/>
			<radialGradient id="SVGID_16_" cx="263.953" cy="322.9106" r="2.0094" gradientUnits="userSpaceOnUse">
				<stop  offset="0" style="stop-color:#53FF3F"/>
				<stop  offset="2.941853e-02" style="stop-color:#5EFF4B"/>
				<stop  offset="0.1556" style="stop-color:#88FF7B"/>
				<stop  offset="0.2858" style="stop-color:#ADFFA3"/>
				<stop  offset="0.4181" style="stop-color:#CBFFC4"/>
				<stop  offset="0.5532" style="stop-color:#E2FFDE"/>
				<stop  offset="0.6923" style="stop-color:#F2FFF1"/>
				<stop  offset="0.8378" style="stop-color:#FCFFFB"/>
				<stop  offset="1" style="stop-color:#FFFFFF"/>
			</radialGradient>
			<path class="st37" d="M264.8,324.9h-1.7c-0.6,0-1.1-0.5-1.1-1.1V322c0-0.6,0.5-1.1,1.1-1.1h1.7c0.6,0,1.1,0.5,1.1,1.1v1.7
				C266,324.4,265.4,324.9,264.8,324.9z"/>
			<line class="st38" x1="255.2" y1="321.8" x2="257.6" y2="329.1"/>
			<line class="st38" x1="251.4" y1="321.4" x2="249.4" y2="327.4"/>
			<line class="st38" x1="256.4" y1="319.4" x2="262.4" y2="322.4"/>
		</g>
		<g>
			
				<ellipse transform="matrix(8.501118e-02 -0.9964 0.9964 8.501118e-02 -89.9013 563.248)" class="st33" cx="261.7" cy="330.6" rx="12.8" ry="12.8"/>
			
				<radialGradient id="SVGID_17_" cx="141.8004" cy="649.1945" r="4.0187" gradientTransform="matrix(-0.4545 -0.8908 0.8908 -0.4545 -254.4934 746.5724)" gradientUnits="userSpaceOnUse">
				<stop  offset="0" style="stop-color:#53FF3F"/>
				<stop  offset="2.941853e-02" style="stop-color:#5EFF4B"/>
				<stop  offset="0.1556" style="stop-color:#88FF7B"/>
				<stop  offset="0.2858" style="stop-color:#ADFFA3"/>
				<stop  offset="0.4181" style="stop-color:#CBFFC4"/>
				<stop  offset="0.5532" style="stop-color:#E2FFDE"/>
				<stop  offset="0.6923" style="stop-color:#F2FFF1"/>
				<stop  offset="0.8378" style="stop-color:#FCFFFB"/>
				<stop  offset="1" style="stop-color:#FFFFFF"/>
			</radialGradient>
			<path class="st39" d="M262.2,321.8l1.6,3.1c0.6,1.1,0.1,2.5-1,3.1l-3.1,1.6c-1.1,0.6-2.5,0.1-3.1-1l-1.6-3.1
				c-0.6-1.1-0.1-2.5,1-3.1l3.1-1.6C260.2,320.3,261.6,320.7,262.2,321.8z"/>
			<radialGradient id="SVGID_18_" cx="254.8395" cy="335.7473" r="2.0095" gradientUnits="userSpaceOnUse">
				<stop  offset="0" style="stop-color:#53FF3F"/>
				<stop  offset="2.941853e-02" style="stop-color:#5EFF4B"/>
				<stop  offset="0.1556" style="stop-color:#88FF7B"/>
				<stop  offset="0.2858" style="stop-color:#ADFFA3"/>
				<stop  offset="0.4181" style="stop-color:#CBFFC4"/>
				<stop  offset="0.5532" style="stop-color:#E2FFDE"/>
				<stop  offset="0.6923" style="stop-color:#F2FFF1"/>
				<stop  offset="0.8378" style="stop-color:#FCFFFB"/>
				<stop  offset="1" style="stop-color:#FFFFFF"/>
			</radialGradient>
			<path class="st40" d="M255.7,337.8H254c-0.6,0-1.1-0.5-1.1-1.1v-1.7c0-0.6,0.5-1.1,1.1-1.1h1.7c0.6,0,1.1,0.5,1.1,1.1v1.7
				C256.8,337.2,256.3,337.8,255.7,337.8z"/>
			<radialGradient id="SVGID_19_" cx="263.882" cy="336.7521" r="2.0095" gradientUnits="userSpaceOnUse">
				<stop  offset="0" style="stop-color:#53FF3F"/>
				<stop  offset="2.941853e-02" style="stop-color:#5EFF4B"/>
				<stop  offset="0.1556" style="stop-color:#88FF7B"/>
				<stop  offset="0.2858" style="stop-color:#ADFFA3"/>
				<stop  offset="0.4181" style="stop-color:#CBFFC4"/>
				<stop  offset="0.5532" style="stop-color:#E2FFDE"/>
				<stop  offset="0.6923" style="stop-color:#F2FFF1"/>
				<stop  offset="0.8378" style="stop-color:#FCFFFB"/>
				<stop  offset="1" style="stop-color:#FFFFFF"/>
			</radialGradient>
			<path class="st41" d="M264.7,338.8H263c-0.6,0-1.1-0.5-1.1-1.1v-1.7c0-0.6,0.5-1.1,1.1-1.1h1.7c0.6,0,1.1,0.5,1.1,1.1v1.7
				C265.9,338.2,265.4,338.8,264.7,338.8z"/>
			<radialGradient id="SVGID_20_" cx="269.9104" cy="329.719" r="2.0094" gradientUnits="userSpaceOnUse">
				<stop  offset="0" style="stop-color:#53FF3F"/>
				<stop  offset="2.941853e-02" style="stop-color:#5EFF4B"/>
				<stop  offset="0.1556" style="stop-color:#88FF7B"/>
				<stop  offset="0.2858" style="stop-color:#ADFFA3"/>
				<stop  offset="0.4181" style="stop-color:#CBFFC4"/>
				<stop  offset="0.5532" style="stop-color:#E2FFDE"/>
				<stop  offset="0.6923" style="stop-color:#F2FFF1"/>
				<stop  offset="0.8378" style="stop-color:#FCFFFB"/>
				<stop  offset="1" style="stop-color:#FFFFFF"/>
			</radialGradient>
			<path class="st42" d="M270.8,331.7H269c-0.6,0-1.1-0.5-1.1-1.1v-1.7c0-0.6,0.5-1.1,1.1-1.1h1.7c0.6,0,1.1,0.5,1.1,1.1v1.7
				C271.9,331.2,271.4,331.7,270.8,331.7z"/>
			<line class="st38" x1="261.2" y1="328.6" x2="263.6" y2="335.9"/>
			<line class="st38" x1="257.4" y1="328.2" x2="255.3" y2="334.2"/>
			<line class="st38" x1="262.4" y1="326.2" x2="268.4" y2="329.2"/>
		</g>
		<g>
			<path class="st33" d="M278.4,331.3c3.8,5.9,2.2,13.8-3.7,17.7c-5.9,3.8-13.8,2.2-17.7-3.7c-3.8-5.9-2.2-13.8,3.7-17.7
				C266.6,323.7,274.5,325.4,278.4,331.3z"/>
			
				<radialGradient id="SVGID_21_" cx="132.2706" cy="651.02" r="4.0187" gradientTransform="matrix(-0.4545 -0.8908 0.8908 -0.4545 -254.4934 746.5724)" gradientUnits="userSpaceOnUse">
				<stop  offset="0" style="stop-color:#53FF3F"/>
				<stop  offset="2.941853e-02" style="stop-color:#5EFF4B"/>
				<stop  offset="0.1556" style="stop-color:#88FF7B"/>
				<stop  offset="0.2858" style="stop-color:#ADFFA3"/>
				<stop  offset="0.4181" style="stop-color:#CBFFC4"/>
				<stop  offset="0.5532" style="stop-color:#E2FFDE"/>
				<stop  offset="0.6923" style="stop-color:#F2FFF1"/>
				<stop  offset="0.8378" style="stop-color:#FCFFFB"/>
				<stop  offset="1" style="stop-color:#FFFFFF"/>
			</radialGradient>
			<path class="st43" d="M268.1,329.5l1.6,3.1c0.6,1.1,0.1,2.5-1,3.1l-3.1,1.6c-1.1,0.6-2.5,0.1-3.1-1l-1.6-3.1
				c-0.6-1.1-0.1-2.5,1-3.1l3.1-1.6C266.2,327.9,267.5,328.4,268.1,329.5z"/>
			<radialGradient id="SVGID_22_" cx="260.7969" cy="343.4068" r="2.0095" gradientUnits="userSpaceOnUse">
				<stop  offset="0" style="stop-color:#53FF3F"/>
				<stop  offset="2.941853e-02" style="stop-color:#5EFF4B"/>
				<stop  offset="0.1556" style="stop-color:#88FF7B"/>
				<stop  offset="0.2858" style="stop-color:#ADFFA3"/>
				<stop  offset="0.4181" style="stop-color:#CBFFC4"/>
				<stop  offset="0.5532" style="stop-color:#E2FFDE"/>
				<stop  offset="0.6923" style="stop-color:#F2FFF1"/>
				<stop  offset="0.8378" style="stop-color:#FCFFFB"/>
				<stop  offset="1" style="stop-color:#FFFFFF"/>
			</radialGradient>
			<path class="st44" d="M261.7,345.4h-1.7c-0.6,0-1.1-0.5-1.1-1.1v-1.7c0-0.6,0.5-1.1,1.1-1.1h1.7c0.6,0,1.1,0.5,1.1,1.1v1.7
				C262.8,344.9,262.3,345.4,261.7,345.4z"/>
			<radialGradient id="SVGID_23_" cx="269.8394" cy="344.4116" r="2.0094" gradientUnits="userSpaceOnUse">
				<stop  offset="0" style="stop-color:#53FF3F"/>
				<stop  offset="2.941853e-02" style="stop-color:#5EFF4B"/>
				<stop  offset="0.1556" style="stop-color:#88FF7B"/>
				<stop  offset="0.2858" style="stop-color:#ADFFA3"/>
				<stop  offset="0.4181" style="stop-color:#CBFFC4"/>
				<stop  offset="0.5532" style="stop-color:#E2FFDE"/>
				<stop  offset="0.6923" style="stop-color:#F2FFF1"/>
				<stop  offset="0.8378" style="stop-color:#FCFFFB"/>
				<stop  offset="1" style="stop-color:#FFFFFF"/>
			</radialGradient>
			<path class="st45" d="M270.7,346.4H269c-0.6,0-1.1-0.5-1.1-1.1v-1.7c0-0.6,0.5-1.1,1.1-1.1h1.7c0.6,0,1.1,0.5,1.1,1.1v1.7
				C271.8,345.9,271.3,346.4,270.7,346.4z"/>
			<radialGradient id="SVGID_24_" cx="275.8678" cy="337.3785" r="2.0095" gradientUnits="userSpaceOnUse">
				<stop  offset="0" style="stop-color:#53FF3F"/>
				<stop  offset="2.941853e-02" style="stop-color:#5EFF4B"/>
				<stop  offset="0.1556" style="stop-color:#88FF7B"/>
				<stop  offset="0.2858" style="stop-color:#ADFFA3"/>
				<stop  offset="0.4181" style="stop-color:#CBFFC4"/>
				<stop  offset="0.5532" style="stop-color:#E2FFDE"/>
				<stop  offset="0.6923" style="stop-color:#F2FFF1"/>
				<stop  offset="0.8378" style="stop-color:#FCFFFB"/>
				<stop  offset="1" style="stop-color:#FFFFFF"/>
			</radialGradient>
			<path class="st46" d="M276.7,339.4H275c-0.6,0-1.1-0.5-1.1-1.1v-1.7c0-0.6,0.5-1.1,1.1-1.1h1.7c0.6,0,1.1,0.5,1.1,1.1v1.7
				C277.9,338.9,277.4,339.4,276.7,339.4z"/>
			<line class="st38" x1="267.1" y1="336.3" x2="269.5" y2="343.5"/>
			<line class="st38" x1="263.3" y1="335.9" x2="261.3" y2="341.9"/>
			<line class="st38" x1="268.3" y1="333.9" x2="274.4" y2="336.9"/>
		</g>
	</g>
</g>
</svg>
