<?xml version="1.0" encoding="utf-8"?>
<!-- Generator: Adobe Illustrator 22.0.1, SVG Export Plug-In . SVG Version: 6.00 Build 0)  -->
<svg version="1.1" xmlns="http://www.w3.org/2000/svg" xmlns:xlink="http://www.w3.org/1999/xlink" x="0px" y="0px"
	 viewBox="0 0 442 354" style="enable-background:new 0 0 442 354;" xml:space="preserve">
<style type="text/css">
	.st0{fill:none;stroke:#000000;stroke-miterlimit:10;}
	.st1{fill:#8CC63F;}
	.st2{font-family:'MyriadPro-Regular';}
	.st3{font-size:12px;}
	.st4{fill:#29ABE2;}
	.st5{fill:#0071BC;}
	.st6{font-size:9px;}
	.st7{fill:none;stroke:#B3B3B3;stroke-width:0.5;stroke-miterlimit:10;}
	.st8{font-size:11px;}
	.st9{fill:#169ADB;stroke:#9BCCDD;stroke-width:0.5;stroke-miterlimit:10;}
	.st10{fill:url(#SVGID_1_);}
	.st11{fill:#FFFFFF;}
	.st12{font-family:'IBMPlexSans';}
	.st13{font-size:6.6008px;}
	.st14{fill:url(#SVGID_2_);}
	.st15{font-size:8.2909px;}
	.st16{fill:#B3B3B3;}
	.st17{font-size:12.925px;}
</style>
<g id="Layer_1">
	<rect x="24.5" y="100.5" class="st0" width="399" height="215"/>
	
		<image style="overflow:visible;" width="964" height="713" id="Layer_0_xA0_Image" xlink:href="9EF91486.png"  transform="matrix(0.4208 0 0 0.4208 39 -60)">
	</image>
	<path id="vSAN_rectangle" class="st1" d="M409.5,262h-371c-5.2,0-9.5-4.3-9.5-9.5l0,0c0-5.2,4.3-9.5,9.5-9.5h371
		c5.2,0,9.5,4.3,9.5,9.5l0,0C419,257.7,414.7,262,409.5,262z"/>
	<text transform="matrix(1 0 0 1 206 258)" class="st2 st3">vSAN</text>
	<path id="vSphere_rectangle" class="st4" d="M409.5,288h-371c-5.2,0-9.5-4.3-9.5-9.5l0,0c0-5.2,4.3-9.5,9.5-9.5h371
		c5.2,0,9.5,4.3,9.5,9.5l0,0C419,283.7,414.7,288,409.5,288z"/>
	<text transform="matrix(1 0 0 1 189.5 282)" class="st2 st3">vSphere ESXi</text>
	<text transform="matrix(1 0 0 1 125.9458 198)"><tspan x="0" y="0" class="st5 st2 st6">Dispositif</tspan><tspan x="5.6" y="10.8" class="st5 st2 st6">virtuel</tspan></text>
	<text transform="matrix(1 0 0 1 46.5 223)" class="st5 st2 st6">   VM</text>
	<text transform="matrix(1 0 0 1 192.9458 199)"><tspan x="0" y="0" class="st5 st2 st6">Dispositif</tspan><tspan x="5.6" y="10.8" class="st5 st2 st6">virtuel</tspan></text>
	<line class="st7" x1="57" y1="190" x2="94" y2="190"/>
</g>
<g id="cluster">
	<g id="cluster_1_">
		
			<image style="overflow:visible;" width="274" height="70" id="Layer_1_xA0_Image" xlink:href="9EF9148A.png"  transform="matrix(0.2588 0 0 0.2429 29 293)">
		</image>
		
			<image style="overflow:visible;" width="274" height="70" id="Layer_1_xA0_Image_1_" xlink:href="9EF9148D.png"  transform="matrix(0.2588 0 0 0.2429 135.0308 293)">
		</image>
		
			<image style="overflow:visible;" width="274" height="70" id="Layer_1_xA0_Image_2_" xlink:href="9EF9148E.png"  transform="matrix(0.2588 0 0 0.2429 241.0616 293)">
		</image>
		
			<image style="overflow:visible;" width="274" height="70" id="Layer_1_xA0_Image_3_" xlink:href="9EF9148C.png"  transform="matrix(0.2588 0 0 0.2429 347.0924 293)">
		</image>
	</g>
	<text transform="matrix(1 0 0 1 343.5391 172.5)"><tspan x="0" y="0" class="st2 st8">Contrôleurs</tspan><tspan x="17.5" y="13.2" class="st2 st8">NSX</tspan></text>
	<text transform="matrix(1 0 0 1 263.5 171)"><tspan x="0" y="0" class="st2 st8">    NSX</tspan><tspan x="0" y="13.2" class="st2 st8">Manager</tspan></text>
	<text transform="matrix(1 0 0 1 187.2173 144)"><tspan x="0" y="0" class="st2 st8">Contrôleur</tspan><tspan x="-6.5" y="13.2" class="st2 st8">PSC (Platform</tspan><tspan x="6.2" y="26.4" class="st2 st8">Services</tspan><tspan x="0.2" y="39.6" class="st2 st8">Controller)</tspan></text>
	<text transform="matrix(1 0 0 1 121 154)"><tspan x="0" y="0" class="st2 st8"> vCenter</tspan><tspan x="0" y="13.2" class="st2 st8">   Server</tspan><tspan x="0" y="26.4" class="st2 st8">Appliance</tspan></text>
	<text transform="matrix(1 0 0 1 54.1377 142.5)"><tspan x="0" y="0" class="st2 st8">Machines</tspan><tspan x="1" y="13.2" class="st2 st8">virtuelles</tspan><tspan x="6.1" y="26.4" class="st2 st8">IBM de</tspan><tspan x="4.7" y="39.6" class="st2 st8">gestion</tspan></text>
	<g>
		<g>
			<g>
				<rect x="178.5" y="79" class="st9" width="27.2" height="27.2"/>
				<linearGradient id="SVGID_1_" gradientUnits="userSpaceOnUse" x1="196.6149" y1="88.6274" x2="190.0207" y2="112.8808">
					<stop  offset="0" style="stop-color:#CCE0F4"/>
					<stop  offset="7.748766e-02" style="stop-color:#C5DDF3"/>
					<stop  offset="0.1918" style="stop-color:#B1D5EF"/>
					<stop  offset="0.329" style="stop-color:#90C9EA"/>
					<stop  offset="0.4838" style="stop-color:#63B7E2"/>
					<stop  offset="0.6515" style="stop-color:#2AA1D9"/>
					<stop  offset="0.6829" style="stop-color:#1E9CD7"/>
					<stop  offset="0.8652" style="stop-color:#0075BE"/>
					<stop  offset="0.9944" style="stop-color:#005B97"/>
				</linearGradient>
				<polygon class="st10" points="179.5,105.2 204.7,80 204.7,105.2 				"/>
			</g>
			<text transform="matrix(1 0 0 1 180.563 99.4219)" class="st11 st12 st13">P</text>
			<text transform="matrix(1 0 0 1 185.5142 104.373)" class="st11 st12 st13">V</text>
			<g>
				<g>
					<g>
						<g>
							<polygon class="st11" points="181.7,84 183.3,89.3 187,85.8 							"/>
						</g>
					</g>
				</g>
				<g>
					<g>
						<g>
							
								<rect x="185.7" y="86.8" transform="matrix(0.7268 -0.6868 0.6868 0.7268 -10.3173 152.7516)" class="st11" width="2.4" height="5.2"/>
						</g>
					</g>
				</g>
			</g>
			<g>
				<g>
					<g>
						<g>
							<polygon class="st11" points="200.4,103.3 194.6,101 198.5,97.3 							"/>
						</g>
					</g>
				</g>
				<g>
					<g>
						<g>
							
								<rect x="193.3" y="94" transform="matrix(0.7268 -0.6868 0.6868 0.7268 -13.478 160.1231)" class="st11" width="2.5" height="6"/>
						</g>
					</g>
				</g>
			</g>
		</g>
		<g>
			<g>
				<rect x="186.7" y="89.8" class="st9" width="27.2" height="27.2"/>
				<linearGradient id="SVGID_2_" gradientUnits="userSpaceOnUse" x1="204.7934" y1="99.3991" x2="198.1992" y2="123.6525">
					<stop  offset="0" style="stop-color:#CCE0F4"/>
					<stop  offset="7.748766e-02" style="stop-color:#C5DDF3"/>
					<stop  offset="0.1918" style="stop-color:#B1D5EF"/>
					<stop  offset="0.329" style="stop-color:#90C9EA"/>
					<stop  offset="0.4838" style="stop-color:#63B7E2"/>
					<stop  offset="0.6515" style="stop-color:#2AA1D9"/>
					<stop  offset="0.6829" style="stop-color:#1E9CD7"/>
					<stop  offset="0.8652" style="stop-color:#0075BE"/>
					<stop  offset="0.9944" style="stop-color:#005B97"/>
				</linearGradient>
				<polygon class="st14" points="187.7,116 212.9,90.8 212.9,116 				"/>
			</g>
			<text transform="matrix(1 0 0 1 188.7422 110.1934)" class="st11 st12 st13">P</text>
			<text transform="matrix(1 0 0 1 193.6924 115.1445)" class="st11 st12 st13">V</text>
			<g>
				<g>
					<g>
						<g>
							<polygon class="st11" points="189.9,94.7 191.4,100 195.1,96.5 							"/>
						</g>
					</g>
				</g>
				<g>
					<g>
						<g>
							
								<rect x="193.9" y="97.5" transform="matrix(0.7268 -0.6868 0.6868 0.7268 -15.4796 161.3168)" class="st11" width="2.4" height="5.2"/>
						</g>
					</g>
				</g>
			</g>
			<g>
				<g>
					<g>
						<g>
							<polygon class="st11" points="208.6,114 202.8,111.8 206.7,108.1 							"/>
						</g>
					</g>
				</g>
				<g>
					<g>
						<g>
							
								<rect x="201.5" y="104.8" transform="matrix(0.7268 -0.6868 0.6868 0.7268 -18.642 168.6828)" class="st11" width="2.5" height="6"/>
						</g>
					</g>
				</g>
			</g>
		</g>
	</g>
	<text transform="matrix(1 0 0 1 213.3247 85.2783)"><tspan x="0" y="0" class="st12 st15">IBM Management</tspan><tspan x="0" y="9.9" class="st12 st15">     Edge</tspan></text>
	<g>
		<ellipse class="st16" cx="32.2" cy="98.6" rx="18.4" ry="13.6"/>
		<ellipse class="st16" cx="19.5" cy="111.3" rx="14.5" ry="9.7"/>
		<ellipse class="st16" cx="51.1" cy="107.8" rx="21.5" ry="12.3"/>
		<ellipse class="st16" cx="33.1" cy="115.3" rx="8.8" ry="4.8"/>
	</g>
	<text transform="matrix(1 0 0 1 26.5 110)" class="st2 st8">IBM</text>
	<g>
		<g>
			<rect x="152.3" y="20.9" class="st0" width="78.7" height="34.1"/>
			<g>
				<ellipse class="st16" cx="153.9" cy="16.4" rx="11.4" ry="8.4"/>
				<path class="st16" d="M137,24.3c0-3.3,4-6,9-6c5,0,9,2.7,9,6c0,3.3-4,6-9,6C141,30.3,137,27.6,137,24.3z"/>
				<ellipse class="st16" cx="165.6" cy="22.2" rx="13.3" ry="7.6"/>
				<ellipse class="st16" cx="154.4" cy="26.8" rx="5.4" ry="3"/>
			</g>
		</g>
		<text transform="matrix(1 0 0 1 159.9126 48.437)" class="st2 st17">Automation</text>
		<text transform="matrix(1 0 0 1 179.5 37)" class="st2 st3">IBM</text>
	</g>
	<text transform="matrix(1 0 0 1 130 333)" class="st2 st8">VMware Cloud Foundation on IBM Cloud</text>
	<g>
		<g>
			<line class="st0" x1="191.5" y1="61.8" x2="191.5" y2="77.5"/>
			<g>
				<polygon points="197.6,62.6 185.4,62.6 191.5,56.5 				"/>
			</g>
		</g>
	</g>
	<line class="st0" x1="186.5" y1="113.5" x2="104.5" y2="113.5"/>
	<line class="st0" x1="105.5" y1="207.5" x2="105.5" y2="113.5"/>
	<line class="st0" x1="105.5" y1="207.5" x2="93.5" y2="207.5"/>
</g>
</svg>
