<?xml version="1.0" encoding="utf-8"?>
<!-- Generator: Adobe Illustrator 22.1.0, SVG Export Plug-In . SVG Version: 6.00 Build 0)  -->
<svg version="1.1" id="Layer_1" xmlns="http://www.w3.org/2000/svg" xmlns:xlink="http://www.w3.org/1999/xlink" x="0px" y="0px"
	 viewBox="0 0 600 320" style="enable-background:new 0 0 600 320;" xml:space="preserve">
<style type="text/css">
	.st0{fill:#4C85C5;}
	.st1{fill:#969696;}
	.st2{fill:#1DA88E;}
	.st3{fill:#FFFFFF;}
	.st4{font-family:'Roboto-Light';}
	.st5{font-size:26px;}
	.st6{font-size:21px;}
</style>
<rect class="st0" width="600" height="100"/>
<rect y="220" class="st1" width="600" height="100"/>
<rect y="110" class="st2" width="297.5" height="100"/>
<rect x="305.3" y="110" class="st2" width="294.7" height="100"/>
<text transform="matrix(1 0 0 1 135.8555 43.3711)"><tspan x="0" y="0" class="st3 st4 st5">Virtualisierungsmanagement</tspan><tspan x="53.4" y="34" class="st3 st4 st6">VMware vCenter-Server </tspan></text>
<text transform="matrix(1 0 0 1 66.6855 141.6688)"><tspan x="0" y="0" class="st3 st4 st5">Berechnungs-</tspan><tspan x="-1.2" y="31.2" class="st3 st4 st5">virtualisierung</tspan><tspan x="-1.9" y="55.1" class="st3 st4 st6">VMware vSphere </tspan></text>
<text transform="matrix(1 0 0 1 348.6084 159.7861)"><tspan x="0" y="0" class="st3 st4 st5">Netzvirtualisierung</tspan><tspan x="37.8" y="23.9" class="st3 st4 st6">VMware NSX</tspan><tspan x="159.2" y="20.9" class="st3 st4 st6">   </tspan></text>
<text transform="matrix(1 0 0 1 90.5571 263.5371)"><tspan x="0" y="0" class="st3 st4 st5">Physische Infrastruktur in</tspan><tspan x="289.8" y="0" class="st3 st4 st5"> IBM Cloud</tspan><tspan x="413.8" y="0" class="st3 st4 st6"> </tspan></text>
<text transform="matrix(1 0 0 1 426.4333 302.2838)" class="st3 st4 st6">Netz</text>
<text transform="matrix(1 0 0 1 267.949 302.8424)" class="st3 st4 st6">Speicher</text>
<text transform="matrix(1 0 0 1 100.1076 302.7475)" class="st3 st4 st6">Berechnung</text>
</svg>
