<?xml version="1.0" encoding="utf-8"?>
<!-- Generator: Adobe Illustrator 19.2.1, SVG Export Plug-In . SVG Version: 6.00 Build 0)  -->
<svg version="1.1" id="Layer_1" xmlns="http://www.w3.org/2000/svg" xmlns:xlink="http://www.w3.org/1999/xlink" x="0px" y="0px"
	 viewBox="0 0 725 315" style="enable-background:new 0 0 725 315;" xml:space="preserve">
<style type="text/css">
	.st0{fill:#4B84C4;}
	.st1{fill:#959595;}
	.st2{fill:#1AA78D;}
	.st3{fill:#F59C57;}
	.st4{fill:#FFFFFF;}
</style>
<rect x="198.5" y="0.8" class="st0" width="526.5" height="89.1"/>
<rect x="-0.3" y="204.9" class="st1" width="725.3" height="110.1"/>
<rect x="198.5" y="101.6" class="st2" width="170.7" height="89.9"/>
<rect x="375.4" y="103.7" class="st2" width="169.8" height="87.7"/>
<rect x="551.9" y="103.7" class="st2" width="173.1" height="87.7"/>
<g id="Layer_2">
	<rect x="0.3" y="0.9" class="st3" width="186.9" height="190.5"/>
</g>
<g id="Layer_4">
	<g>
		<path class="st4" d="M44.3,22.5c0.4,0,0.7,0.2,0.7,0.6v4h9c0.4,0,0.7,0.2,0.7,0.5c0,0.4-0.2,0.6-0.7,0.6H36.7
			c-0.4,0-0.7-0.2-0.7-0.6c0-0.4,0.2-0.5,0.7-0.5h6.9v-4C43.6,22.7,43.8,22.5,44.3,22.5z M52.1,19.3c0.5,0.4,0.7,0.9,0.7,1.6V22
			c0,0.8-0.1,1.4-0.2,1.8c-0.1,0.5-0.3,1-0.7,1.4c-0.1,0.1-0.3,0.2-0.5,0.2c-0.2,0-0.3,0-0.4-0.1c-0.1-0.1-0.2-0.2-0.3-0.4
			c0-0.2,0-0.3,0.1-0.5c0.2-0.4,0.4-0.7,0.4-1.1c0.1-0.3,0.1-0.8,0.1-1.4V21c0-0.4-0.1-0.6-0.4-0.8c-0.2-0.2-0.6-0.3-1-0.3h-12
			c-0.4,0-0.6-0.2-0.6-0.6s0.2-0.6,0.6-0.6h12.2C51.1,18.8,51.7,18.9,52.1,19.3z M51.3,31.4c1.2,0.5,1.8,1.3,1.8,2.3
			c0,1-0.6,1.7-1.8,2.3c-1.3,0.6-3.3,0.9-5.9,0.9c-2.6,0-4.6-0.3-5.9-0.9c-1.2-0.6-1.8-1.3-1.8-2.3c0-1,0.6-1.8,1.8-2.3
			c1.3-0.6,3.3-0.9,5.9-0.9C48,30.5,49.9,30.8,51.3,31.4z M40.3,32.2c-1,0.4-1.5,0.9-1.5,1.6c0,0.7,0.5,1.2,1.5,1.5
			c1.1,0.4,2.7,0.6,5,0.6c2.2,0,3.9-0.2,5-0.6c1-0.3,1.5-0.8,1.5-1.5c0-0.7-0.5-1.2-1.5-1.6c-1.1-0.4-2.7-0.6-5-0.6
			C43.1,31.6,41.4,31.8,40.3,32.2z"/>
		<path class="st4" d="M68.6,28h8c0.2,0,0.4,0.1,0.5,0.2c0.1,0.1,0.2,0.2,0.2,0.4c0,0.1-0.1,0.3-0.2,0.4c-0.1,0.1-0.3,0.2-0.5,0.2
			H59.3c-0.4,0-0.6-0.2-0.6-0.6c0-0.4,0.2-0.6,0.7-0.6h7.9v-2.5c0-0.3,0.2-0.5,0.6-0.4c0.4,0,0.6,0.2,0.6,0.5V28z M74,31.4
			c1.2,0.5,1.8,1.3,1.8,2.3c0,1-0.6,1.7-1.8,2.3C72.6,36.7,70.7,37,68,37c-2.6,0-4.6-0.3-5.9-0.9c-1.2-0.6-1.8-1.3-1.8-2.3
			c0-1,0.6-1.8,1.8-2.3c1.3-0.6,3.3-0.9,5.9-0.9C70.7,30.5,72.7,30.8,74,31.4z M61.1,24.9c-0.4-0.4-0.6-0.8-0.6-1.4v-3
			c0-0.5,0.2-1,0.6-1.4c0.4-0.3,0.9-0.5,1.5-0.5h12.5c0.2,0,0.3,0.1,0.5,0.2c0.1,0.1,0.2,0.3,0.2,0.4c0,0.1,0,0.3-0.1,0.4
			c-0.1,0.1-0.3,0.2-0.4,0.2H62.9c-0.3,0-0.6,0.1-0.8,0.2c-0.2,0.1-0.3,0.3-0.3,0.6v0.9h13c0.4,0,0.6,0.2,0.6,0.6
			c0,0.4-0.2,0.6-0.6,0.6h-13v0.8c0,0.3,0.1,0.5,0.2,0.7c0.1,0.1,0.4,0.2,0.8,0.2h12.3c0.4,0,0.6,0.2,0.6,0.6c0,0.4-0.2,0.6-0.6,0.6
			H62.7C62,25.4,61.5,25.2,61.1,24.9z M63.1,32.2c-1,0.4-1.5,0.9-1.5,1.6c0,0.7,0.5,1.2,1.5,1.5c1.1,0.4,2.7,0.6,5,0.6
			c2.2,0,3.9-0.2,5-0.6c1-0.3,1.5-0.8,1.5-1.5c0-0.7-0.5-1.2-1.5-1.6c-1.1-0.4-2.7-0.6-5-0.6C65.8,31.6,64.1,31.8,63.1,32.2z"/>
		<path class="st4" d="M92.1,19.1c0.1-0.1,0.3-0.2,0.4-0.2c0.2,0,0.3,0.1,0.4,0.2c0.1,0.1,0.2,0.3,0.2,0.5c0,0.8-0.1,1.8-0.3,2.9
			c-0.2,1.1-0.4,2.1-0.7,3.3c1.2,1.4,2.2,2.8,3.2,4.2c1,1.4,1.9,2.8,2.6,4.1c0.1,0.2,0.1,0.4,0.1,0.6c0,0.2-0.2,0.3-0.3,0.4
			c-0.2,0.1-0.3,0.1-0.5,0c-0.2-0.1-0.3-0.2-0.4-0.4c-0.6-1.2-1.3-2.4-2.2-3.8c-0.9-1.5-1.9-2.8-2.8-3.9c-0.4,1.2-0.9,2.4-1.5,3.6
			c-0.8,1.5-1.7,2.9-2.7,4.3c-0.1,0.1-0.3,0.2-0.5,0.2c-0.2,0-0.3-0.1-0.4-0.2c-0.1-0.1-0.2-0.2-0.2-0.4c0-0.2,0.1-0.4,0.2-0.6
			c1.5-1.9,2.8-4.3,3.7-7.1c0.9-2.7,1.4-5.2,1.4-7.5C91.9,19.4,92,19.2,92.1,19.1z M102.5,36.8c-0.1,0.1-0.3,0.2-0.4,0.2
			c-0.2,0-0.3-0.1-0.5-0.2c-0.1-0.1-0.2-0.3-0.2-0.5v-8.9h-5.9c-0.2,0-0.4-0.1-0.6-0.2c-0.1-0.1-0.2-0.2-0.2-0.4
			c0-0.2,0.1-0.3,0.2-0.4c0.1-0.1,0.3-0.2,0.5-0.2h5.9v-7.1c0-0.2,0.1-0.4,0.2-0.5c0.1-0.1,0.3-0.2,0.5-0.2c0.2,0,0.3,0.1,0.4,0.2
			c0.1,0.1,0.2,0.3,0.2,0.5v17.2C102.7,36.5,102.6,36.6,102.5,36.8z"/>
		<path class="st4" d="M118.8,19c0.4,0,0.6,0.2,0.6,0.6v13.7c0,0.5-0.2,0.9-0.5,1.3c-0.3,0.3-0.8,0.5-1.3,0.5h-5.7
			c-0.5,0-1-0.2-1.3-0.5c-0.3-0.3-0.5-0.8-0.5-1.3V19.7c0-0.2,0.1-0.4,0.2-0.6c0.1-0.1,0.3-0.2,0.4-0.2c0.2,0,0.3,0.1,0.4,0.2
			c0.1,0.1,0.2,0.3,0.2,0.6v5.2h6.8v-5.3C118.1,19.2,118.3,19,118.8,19z M111.3,26v7.1c0,0.3,0.1,0.6,0.2,0.7
			c0.1,0.1,0.4,0.2,0.7,0.2h4.8c0.3,0,0.6-0.1,0.8-0.2c0.2-0.1,0.3-0.4,0.3-0.7V26H111.3z M125.2,36.8c-0.1,0.1-0.3,0.2-0.4,0.2
			c-0.2,0-0.3-0.1-0.5-0.2c-0.1-0.1-0.2-0.3-0.2-0.5V19c0-0.2,0.1-0.3,0.2-0.5c0.1-0.1,0.3-0.1,0.5-0.1c0.2,0,0.3,0,0.4,0.1
			c0.1,0.1,0.2,0.3,0.2,0.5v17.3C125.4,36.5,125.4,36.7,125.2,36.8z"/>
		<path class="st4" d="M150.1,34.5c0.1,0.1,0.2,0.3,0.2,0.4c0,0.1-0.1,0.3-0.2,0.4c-0.1,0.1-0.3,0.2-0.5,0.2h-17.2
			c-0.4,0-0.7-0.2-0.7-0.6c0-0.4,0.2-0.6,0.7-0.6h17.2C149.8,34.3,150,34.4,150.1,34.5z M140.6,18.8c0.1-0.1,0.3-0.2,0.4-0.2
			c0.2,0,0.3,0.1,0.4,0.2c0.1,0.1,0.2,0.3,0.2,0.6c0,2.3,0.8,4.2,2.3,5.8c1.3,1.4,3,2.3,4.9,2.7c0.2,0,0.4,0.1,0.5,0.3
			c0.1,0.1,0.1,0.3,0.1,0.4c0,0.2-0.1,0.3-0.3,0.4c-0.2,0.1-0.4,0.1-0.6,0.1c-1.7-0.4-3.3-1.2-4.7-2.5c-1.4-1.3-2.3-2.6-2.8-4.1
			c-0.4,1.5-1.4,2.9-2.8,4.1c-1.5,1.3-3.1,2.2-4.9,2.6c-0.2,0-0.4,0-0.6-0.1c-0.1-0.1-0.2-0.2-0.2-0.4c0-0.2,0-0.3,0.1-0.4
			c0.1-0.1,0.3-0.2,0.5-0.3c1.8-0.4,3.4-1.3,4.8-2.7c1.6-1.6,2.4-3.6,2.4-5.9C140.4,19.1,140.4,19,140.6,18.8z"/>
	</g>
	<g>
		<path class="st4" d="M84.6,64.8c0.6,0.7,0.9,1.5,0.9,2.5c0,1-0.3,1.9-0.9,2.5C84,70.6,83.1,71,82,71c-1.1,0-2-0.4-2.7-1.2
			c-0.6-0.7-0.9-1.5-0.9-2.5c0-1,0.3-1.9,0.9-2.5c0.7-0.8,1.5-1.2,2.7-1.2C83.1,63.6,84,64,84.6,64.8z M80,65.3
			c-0.4,0.5-0.6,1.2-0.6,2c0,0.8,0.2,1.5,0.6,2c0.5,0.6,1.1,0.9,2,0.9c0.8,0,1.5-0.3,2-0.9c0.4-0.5,0.6-1.2,0.6-2
			c0-0.8-0.2-1.5-0.6-2c-0.5-0.6-1.1-0.9-2-0.9C81.1,64.4,80.5,64.7,80,65.3z M80.3,74.3c0,0.3,0.1,0.5,0.2,0.6
			c0.1,0.1,0.3,0.1,0.6,0.1h8.3c0.3,0,0.4,0.1,0.4,0.4c0,0.3-0.1,0.4-0.4,0.4h-8.5c-0.5,0-0.8-0.1-1.1-0.3c-0.3-0.2-0.4-0.6-0.4-1
			v-2.1c0-0.2,0-0.3,0.1-0.4c0.1-0.1,0.2-0.1,0.3-0.1c0.1,0,0.2,0,0.3,0.1c0.1,0.1,0.2,0.2,0.2,0.4V74.3z M89.2,72.5
			c-0.1,0.1-0.2,0.1-0.3,0.1c-0.1,0-0.2,0-0.3-0.1c-0.1-0.1-0.1-0.2-0.1-0.4v-8.5c0-0.1,0-0.2,0.1-0.3c0.1-0.1,0.2-0.1,0.3-0.1
			c0.1,0,0.2,0,0.3,0.1c0.1,0.1,0.2,0.2,0.2,0.3v8.5C89.3,72.3,89.3,72.4,89.2,72.5z"/>
		<path class="st4" d="M106.6,69.9c0,0.3-0.1,0.4-0.4,0.4H94.1c-0.3,0-0.4-0.1-0.4-0.4c0-0.2,0.2-0.4,0.5-0.4h12
			C106.4,69.6,106.6,69.7,106.6,69.9z M105.5,64c0,0.3-0.1,0.4-0.4,0.4h-4.6c0.1,0.7,0.6,1.3,1.5,1.9c1,0.5,2.1,0.9,3.5,1
			c0.1,0,0.3,0.1,0.3,0.2c0.1,0.1,0.1,0.2,0.1,0.3c0,0.1-0.1,0.2-0.2,0.3c-0.1,0.1-0.2,0.1-0.4,0.1c-1.3-0.1-2.4-0.5-3.4-1
			c-1-0.5-1.6-1-1.9-1.6c-0.3,0.6-0.9,1.1-1.9,1.6c-1,0.5-2.1,0.8-3.4,1c-0.2,0-0.3,0-0.4-0.1c-0.1-0.1-0.1-0.2-0.2-0.3
			c0-0.1,0-0.2,0.1-0.3c0.1-0.1,0.2-0.1,0.4-0.2c1.3-0.1,2.5-0.5,3.4-1c1-0.5,1.5-1.2,1.6-1.9h-4.5c-0.3,0-0.4-0.1-0.4-0.4
			c0-0.3,0.1-0.4,0.4-0.4h9.9C105.4,63.6,105.5,63.7,105.5,64z M104.3,72.3c0.8,0.4,1.3,0.9,1.3,1.6c0,0.7-0.4,1.2-1.3,1.6
			c-0.9,0.4-2.3,0.6-4.1,0.6c-1.8,0-3.2-0.2-4.1-0.6c-0.8-0.4-1.2-0.9-1.2-1.6c0-0.7,0.4-1.2,1.2-1.6c0.9-0.4,2.3-0.6,4.1-0.6
			S103.4,71.9,104.3,72.3z M96.7,72.8c-0.7,0.2-1,0.6-1,1.1c0,0.5,0.3,0.8,1,1c0.8,0.3,1.9,0.4,3.5,0.4c1.6,0,2.7-0.1,3.5-0.4
			c0.7-0.2,1-0.6,1-1c0-0.5-0.3-0.8-1-1.1c-0.8-0.3-1.9-0.4-3.5-0.4C98.6,72.4,97.4,72.6,96.7,72.8z"/>
		<path class="st4" d="M79.1,96.3C80,96.1,80.9,96,82,96c2,0,3.4,0.5,4.3,1.3c0.9,0.9,1.5,2.1,1.5,3.8c0,1.7-0.5,3.2-1.5,4.1
			c-1,1-2.6,1.5-4.7,1.5c-1,0-1.8,0-2.5-0.1V96.3z M80.5,105.7c0.3,0.1,0.9,0.1,1.4,0.1c2.9,0,4.5-1.6,4.5-4.5
			c0-2.5-1.4-4.1-4.3-4.1c-0.7,0-1.2,0.1-1.6,0.1V105.7z"/>
		<path class="st4" d="M89.6,106.8V96.1h1.5l3.4,5.4c0.8,1.2,1.4,2.4,1.9,3.5l0,0c-0.1-1.4-0.2-2.7-0.2-4.4v-4.5h1.3v10.6h-1.4
			l-3.4-5.4c-0.7-1.2-1.5-2.4-2-3.6l0,0c0.1,1.3,0.1,2.6,0.1,4.4v4.5H89.6z"/>
		<path class="st4" d="M99.8,105.1c0.6,0.4,1.5,0.7,2.5,0.7c1.4,0,2.2-0.7,2.2-1.8c0-1-0.6-1.6-2-2.1c-1.7-0.6-2.8-1.5-2.8-3
			c0-1.7,1.4-2.9,3.4-2.9c1.1,0,1.9,0.3,2.4,0.5l-0.4,1.1c-0.3-0.2-1.1-0.5-2-0.5c-1.5,0-2,0.9-2,1.6c0,1,0.6,1.5,2.1,2.1
			c1.8,0.7,2.7,1.6,2.7,3.1c0,1.6-1.2,3.1-3.7,3.1c-1,0-2.1-0.3-2.7-0.7L99.8,105.1z"/>
		<path class="st4" d="M80.1,138.2v-10.6h1.5l3.4,5.4c0.8,1.2,1.4,2.4,1.9,3.5l0,0c-0.1-1.4-0.2-2.7-0.2-4.4v-4.5h1.3v10.6h-1.4
			l-3.4-5.4c-0.7-1.2-1.5-2.4-2-3.6l0,0c0.1,1.3,0.1,2.6,0.1,4.4v4.5H80.1z"/>
		<path class="st4" d="M92.6,128.7h-3.2v-1.2h7.9v1.2h-3.3v9.5h-1.4V128.7z"/>
		<path class="st4" d="M98.4,127.7c0.7-0.1,1.5-0.2,2.6-0.2c1.4,0,2.4,0.3,3,0.9c0.6,0.5,0.9,1.3,0.9,2.2c0,1-0.3,1.7-0.8,2.3
			c-0.7,0.8-1.9,1.2-3.3,1.2c-0.4,0-0.8,0-1.1-0.1v4.3h-1.4V127.7z M99.8,132.8c0.3,0.1,0.7,0.1,1.1,0.1c1.7,0,2.7-0.8,2.7-2.3
			c0-1.4-1-2.1-2.5-2.1c-0.6,0-1.1,0-1.3,0.1V132.8z"/>
		<path class="st4" d="M67.1,159c0.6,0.7,0.9,1.5,0.9,2.5s-0.3,1.9-0.9,2.5c-0.6,0.8-1.5,1.2-2.6,1.2c-1.1,0-2-0.4-2.7-1.2
			c-0.6-0.7-0.9-1.5-0.9-2.5c0-1,0.3-1.9,0.9-2.5c0.7-0.8,1.5-1.2,2.7-1.2C65.6,157.9,66.5,158.3,67.1,159z M62.5,159.6
			c-0.4,0.5-0.6,1.2-0.6,2s0.2,1.5,0.6,2c0.5,0.6,1.1,0.9,2,0.9c0.8,0,1.5-0.3,2-0.9c0.4-0.5,0.6-1.2,0.6-2s-0.2-1.5-0.6-2
			c-0.5-0.6-1.1-0.9-2-0.9C63.7,158.7,63,159,62.5,159.6z M62.9,168.5c0,0.3,0.1,0.5,0.2,0.6c0.1,0.1,0.3,0.1,0.6,0.1h8.3
			c0.3,0,0.4,0.1,0.4,0.4c0,0.3-0.1,0.4-0.4,0.4h-8.5c-0.5,0-0.8-0.1-1.1-0.3c-0.3-0.2-0.4-0.6-0.4-1v-2.1c0-0.2,0-0.3,0.1-0.4
			c0.1-0.1,0.2-0.1,0.3-0.1c0.1,0,0.2,0,0.3,0.1c0.1,0.1,0.2,0.2,0.2,0.4V168.5z M71.7,166.8c-0.1,0.1-0.2,0.1-0.3,0.1
			c-0.1,0-0.2,0-0.3-0.1c-0.1-0.1-0.1-0.2-0.1-0.4v-8.5c0-0.1,0-0.2,0.1-0.3c0.1-0.1,0.2-0.1,0.3-0.1c0.1,0,0.2,0,0.3,0.1
			c0.1,0.1,0.2,0.2,0.2,0.3v8.5C71.9,166.6,71.8,166.7,71.7,166.8z"/>
		<path class="st4" d="M89.1,164.2c0,0.3-0.1,0.4-0.4,0.4H76.6c-0.3,0-0.4-0.1-0.4-0.4c0-0.2,0.2-0.4,0.5-0.4h12
			C89,163.8,89.1,163.9,89.1,164.2z M88.1,158.2c0,0.3-0.1,0.4-0.4,0.4h-4.6c0.1,0.7,0.6,1.3,1.5,1.9c1,0.5,2.1,0.9,3.5,1
			c0.1,0,0.3,0.1,0.3,0.2c0.1,0.1,0.1,0.2,0.1,0.3c0,0.1-0.1,0.2-0.2,0.3c-0.1,0.1-0.2,0.1-0.4,0.1c-1.3-0.1-2.4-0.5-3.4-1
			c-1-0.5-1.6-1-1.9-1.6c-0.3,0.6-0.9,1.1-1.9,1.6c-1,0.5-2.1,0.8-3.4,1c-0.2,0-0.3,0-0.4-0.1c-0.1-0.1-0.1-0.2-0.2-0.3
			c0-0.1,0-0.2,0.1-0.3c0.1-0.1,0.2-0.1,0.4-0.2c1.3-0.1,2.5-0.5,3.4-1c1-0.5,1.5-1.2,1.6-1.9h-4.5c-0.3,0-0.4-0.1-0.4-0.4
			c0-0.3,0.1-0.4,0.4-0.4h9.9C87.9,157.9,88.1,158,88.1,158.2z M86.8,166.5c0.8,0.4,1.3,0.9,1.3,1.6c0,0.7-0.4,1.2-1.3,1.6
			c-0.9,0.4-2.3,0.6-4.1,0.6c-1.8,0-3.2-0.2-4.1-0.6c-0.8-0.4-1.2-0.9-1.2-1.6c0-0.7,0.4-1.2,1.2-1.6c0.9-0.4,2.3-0.6,4.1-0.6
			S85.9,166.1,86.8,166.5z M79.2,167.1c-0.7,0.2-1,0.6-1,1.1c0,0.5,0.3,0.8,1,1c0.8,0.3,1.9,0.4,3.5,0.4c1.6,0,2.7-0.1,3.5-0.4
			c0.7-0.2,1-0.6,1-1c0-0.5-0.3-0.8-1-1.1c-0.8-0.3-1.9-0.4-3.5-0.4C81.1,166.7,80,166.8,79.2,167.1z"/>
		<path class="st4" d="M102,158.4c0.3,0.3,0.4,0.6,0.4,1.1v1.8c0,2.4-0.6,4.2-1.9,5.6c-1.2,1.3-2.7,2-4.6,2.1
			c-0.3,0-0.4-0.1-0.5-0.4c0-0.3,0.1-0.4,0.4-0.4c1.8-0.2,3.1-0.8,4.1-1.9c1-1.2,1.5-2.9,1.5-5v-1.8c0-0.2-0.1-0.4-0.2-0.5
			c-0.1-0.1-0.3-0.2-0.6-0.2h-4.6c-0.3,0-0.4-0.1-0.4-0.4c0-0.3,0.1-0.4,0.4-0.4h4.6C101.3,158,101.7,158.1,102,158.4z M106.6,170.3
			c-0.1,0.1-0.2,0.1-0.3,0.1c-0.1,0-0.2,0-0.3-0.1c-0.1-0.1-0.1-0.2-0.1-0.4v-12c0-0.1,0-0.2,0.1-0.3c0.1-0.1,0.2-0.1,0.3-0.1
			c0.1,0,0.2,0,0.3,0.1c0.1,0.1,0.2,0.2,0.2,0.3v12C106.8,170.1,106.8,170.2,106.6,170.3z"/>
		<path class="st4" d="M114.7,161.1c0.1-0.1,0.2-0.1,0.3-0.1c0.1,0,0.2,0,0.3,0.1c0.1,0.1,0.1,0.2,0.1,0.4v3.1
			c0.7,0,1.4-0.1,2.4-0.2c0.9-0.1,1.7-0.2,2.3-0.4c0.2,0,0.3,0,0.4,0c0.1,0.1,0.2,0.1,0.2,0.2c0,0.1,0,0.2-0.1,0.3s-0.2,0.2-0.3,0.2
			c-1,0.2-2.3,0.4-3.9,0.6c-1.6,0.1-3.2,0.2-4.9,0.2c-0.2,0-0.3,0-0.4-0.1c-0.1-0.1-0.1-0.2-0.1-0.3c0-0.1,0-0.2,0.1-0.3
			c0.1-0.1,0.2-0.1,0.4-0.1c0.5,0,1,0,1.3,0c0.7,0,1.2,0,1.7,0v-3.1C114.6,161.3,114.6,161.2,114.7,161.1z M119,158.3
			c0.3,0.2,0.4,0.6,0.4,1v0.5c0,0.6-0.1,1.2-0.1,1.6c-0.1,0.7-0.4,1.2-0.7,1.6c-0.2,0.2-0.4,0.3-0.7,0.2c-0.2-0.1-0.3-0.3-0.1-0.6
			c0.3-0.4,0.5-0.9,0.6-1.4c0.1-0.4,0.1-0.9,0.1-1.4v-0.4c0-0.2-0.1-0.4-0.2-0.5s-0.3-0.2-0.5-0.2h-5.7c-0.3,0-0.4-0.1-0.4-0.4
			c0-0.3,0.1-0.4,0.4-0.4h5.6C118.3,158,118.7,158.1,119,158.3z M113.5,168.5c0,0.3,0.1,0.5,0.2,0.6c0.1,0.1,0.3,0.1,0.6,0.1h8.1
			c0.3,0,0.4,0.1,0.4,0.4c0,0.3-0.1,0.4-0.4,0.4H114c-0.4,0-0.8-0.1-1-0.4c-0.2-0.3-0.4-0.6-0.4-1v-1.9c0-0.1,0-0.3,0.1-0.3
			c0.1-0.1,0.2-0.1,0.3-0.1c0.1,0,0.2,0,0.3,0.1c0.1,0.1,0.2,0.2,0.2,0.3V168.5z M123.8,162c0.3,0,0.4,0.1,0.4,0.4
			c0,0.3-0.1,0.4-0.4,0.4h-1.7v3.8c0,0.1-0.1,0.3-0.2,0.4c-0.1,0.1-0.2,0.1-0.3,0.1c-0.1,0-0.2,0-0.3-0.1c-0.1-0.1-0.1-0.2-0.1-0.4
			v-8.7c0-0.1,0-0.2,0.1-0.3c0.1-0.1,0.2-0.1,0.3-0.1c0.1,0,0.2,0,0.3,0.1c0.1,0.1,0.2,0.2,0.2,0.3v4.1H123.8z"/>
	</g>
</g>
<g>
	<path class="st4" d="M414,22.6c0.4,0.4,0.6,0.9,0.6,1.5v2.6c0,3.4-0.9,6.1-2.7,8.1c-1.7,1.9-3.9,2.9-6.6,3.1
		c-0.4,0-0.6-0.1-0.7-0.5c0-0.4,0.2-0.6,0.6-0.6c2.6-0.3,4.5-1.2,5.9-2.8c1.5-1.7,2.2-4.2,2.2-7.3v-2.6c0-0.3-0.1-0.5-0.3-0.7
		c-0.2-0.2-0.5-0.2-0.8-0.2h-6.6c-0.4,0-0.6-0.2-0.6-0.6c0-0.4,0.2-0.6,0.6-0.6h6.6C413,22,413.6,22.2,414,22.6z M422.7,30.1
		c0.4,0,0.5,0.2,0.5,0.5c0,0.4-0.2,0.6-0.5,0.6h-2.5v8.1c0,0.2-0.1,0.3-0.2,0.5c-0.1,0.1-0.3,0.2-0.4,0.2c-0.2,0-0.3-0.1-0.4-0.2
		c-0.1-0.1-0.2-0.3-0.2-0.5V22c0-0.2,0.1-0.3,0.2-0.5c0.1-0.1,0.3-0.1,0.4-0.1c0.2,0,0.3,0,0.4,0.1c0.1,0.1,0.2,0.3,0.2,0.5v8.2
		H422.7z"/>
	<path class="st4" d="M432.7,21.8c0.1-0.1,0.3-0.2,0.4-0.2c0.2,0,0.3,0.1,0.4,0.2c0.1,0.1,0.2,0.3,0.2,0.5c0,0.5-0.1,1-0.2,1.5
		c-0.1,0.4-0.2,0.8-0.4,1.3c1.3,0.9,2.4,1.8,3.2,2.6c0.8,0.7,1.6,1.7,2.4,2.7c0.1,0.2,0.2,0.4,0.2,0.6c0,0.2-0.1,0.3-0.2,0.4
		c-0.1,0.1-0.3,0.1-0.5,0.1c-0.2,0-0.4-0.1-0.5-0.3c-0.7-1-1.5-1.8-2.3-2.7c-0.8-0.8-1.7-1.5-2.7-2.3c-0.6,1.2-1.2,2.2-1.8,3
		c-0.7,0.9-1.6,1.8-2.8,2.7c-0.2,0.1-0.4,0.2-0.5,0.1c-0.2,0-0.3-0.1-0.4-0.2c-0.1-0.1-0.1-0.3-0.1-0.5c0-0.2,0.1-0.3,0.4-0.5
		c1.6-1.1,2.8-2.5,3.7-4.4c0.8-1.5,1.1-2.9,1.1-4.1C432.5,22.1,432.6,22,432.7,21.8z M441.7,34.2c1.2,0.6,1.7,1.4,1.7,2.4
		c0,1-0.6,1.8-1.7,2.4c-1.3,0.7-3.1,1-5.5,1c-2.4,0-4.2-0.3-5.5-1c-1.2-0.6-1.7-1.4-1.7-2.4c0-1,0.6-1.8,1.7-2.4
		c1.3-0.7,3.1-1,5.5-1C438.6,33.2,440.4,33.6,441.7,34.2z M431.7,35c-0.9,0.4-1.4,1-1.4,1.6c0,0.7,0.5,1.2,1.4,1.6
		c1,0.4,2.5,0.6,4.5,0.6c2,0,3.5-0.2,4.5-0.6c1-0.4,1.4-0.9,1.4-1.6c0-0.7-0.5-1.2-1.4-1.6c-1-0.4-2.5-0.6-4.5-0.6
		C434.2,34.4,432.7,34.6,431.7,35z M445.4,26.7c0.2,0,0.3,0.1,0.4,0.2c0.1,0.1,0.2,0.3,0.2,0.4c0,0.1,0,0.3-0.1,0.4
		c-0.1,0.1-0.2,0.2-0.4,0.2H443v4.3c0,0.2-0.1,0.4-0.2,0.5c-0.1,0.1-0.3,0.2-0.4,0.2c-0.2,0-0.3-0.1-0.4-0.2
		c-0.1-0.1-0.2-0.3-0.2-0.5V22c0-0.4,0.2-0.6,0.6-0.6c0.4,0,0.7,0.2,0.7,0.6v4.8H445.4z"/>
	<path class="st4" d="M460,36.9c1-0.2,2-0.4,2.9-0.8c0.4-0.1,0.7-0.1,0.8,0.3c0.1,0.3,0,0.6-0.4,0.7c-1.6,0.5-3.5,0.9-5.7,1.2
		c-1.8,0.2-4.2,0.3-7,0.3c-0.3,0-0.4-0.1-0.6-0.2c-0.1-0.1-0.2-0.3-0.2-0.4s0.1-0.3,0.2-0.4c0.1-0.1,0.3-0.2,0.5-0.2
		c0.7,0,1.5,0,2.4,0c1.1,0,2.2-0.1,3.2-0.1v-3.8h1.3v3.7C458.3,37.3,459.1,37.1,460,36.9z M462.5,24.8c0.1,0.1,0.2,0.2,0.2,0.4
		c0,0.1-0.1,0.3-0.2,0.4c-0.1,0.1-0.3,0.2-0.4,0.2h-10.6c-0.4,0-0.6-0.2-0.6-0.6s0.2-0.6,0.6-0.6H462
		C462.2,24.6,462.4,24.7,462.5,24.8z M460.5,28.3c0.8,0.7,1.2,1.5,1.2,2.4c0,1-0.4,1.8-1.2,2.5c-0.9,0.7-2.1,1.1-3.7,1.1
		c-1.6,0-2.8-0.4-3.8-1.1c-0.8-0.7-1.2-1.5-1.2-2.5c0-1,0.4-1.8,1.2-2.4c0.9-0.7,2.2-1.1,3.8-1.1C458.3,27.2,459.5,27.5,460.5,28.3z
		 M460.5,22.5c0,0.4-0.2,0.6-0.6,0.6h-6.2c-0.4,0-0.6-0.2-0.6-0.6s0.2-0.6,0.6-0.6h6.2C460.3,22,460.5,22.2,460.5,22.5z M454,29
		c-0.6,0.4-0.9,1-0.9,1.6c0,0.7,0.3,1.2,0.9,1.7c0.7,0.5,1.6,0.8,2.8,0.8c1.2,0,2.1-0.3,2.7-0.8c0.6-0.4,0.9-1,0.9-1.7
		c0-0.7-0.3-1.2-0.9-1.6c-0.7-0.5-1.6-0.7-2.7-0.7C455.6,28.3,454.7,28.5,454,29z M468.3,30.3c0.2,0,0.3,0.1,0.4,0.2
		s0.2,0.2,0.2,0.4c0,0.1,0,0.3-0.1,0.4c-0.1,0.1-0.2,0.2-0.4,0.2h-2.5v8c0,0.2-0.1,0.3-0.2,0.5c-0.1,0.1-0.3,0.2-0.4,0.2
		c-0.2,0-0.3-0.1-0.4-0.2c-0.1-0.1-0.2-0.3-0.2-0.5V22c0-0.2,0.1-0.3,0.2-0.5c0.1-0.1,0.3-0.2,0.4-0.2c0.2,0,0.3,0.1,0.4,0.2
		c0.1,0.1,0.2,0.3,0.2,0.4v8.3H468.3z"/>
	<path class="st4" d="M482.7,26.6c0.1-0.1,0.3-0.2,0.4-0.2c0.2,0,0.3,0.1,0.4,0.2c0.1,0.1,0.2,0.3,0.2,0.5v4.4c1,0,2.1-0.1,3.4-0.3
		c1.3-0.2,2.4-0.3,3.4-0.6c0.2-0.1,0.4-0.1,0.6,0c0.1,0.1,0.2,0.2,0.3,0.3c0,0.1,0,0.3-0.1,0.4c-0.1,0.1-0.2,0.2-0.4,0.3
		c-1.4,0.3-3.3,0.6-5.6,0.8c-2.3,0.2-4.6,0.3-7.1,0.3c-0.2,0-0.4-0.1-0.6-0.2c-0.1-0.1-0.2-0.2-0.2-0.4c0-0.2,0.1-0.3,0.2-0.4
		c0.1-0.1,0.3-0.2,0.6-0.2c0.8,0,1.4,0,1.9,0c1,0,1.8,0,2.4,0v-4.5C482.6,26.9,482.6,26.7,482.7,26.6z M489,22.6
		c0.4,0.3,0.6,0.8,0.6,1.4v0.7c0,0.9-0.1,1.7-0.2,2.3c-0.2,1-0.6,1.7-1,2.4c-0.3,0.3-0.6,0.4-1,0.2c-0.4-0.2-0.4-0.5-0.1-0.8
		c0.4-0.6,0.7-1.3,0.9-2.1c0.1-0.6,0.2-1.3,0.2-2.1v-0.6c0-0.3-0.1-0.5-0.2-0.7s-0.4-0.2-0.7-0.2h-8.2c-0.4,0-0.6-0.2-0.6-0.6
		c0-0.4,0.2-0.6,0.6-0.6h8.1C488,22,488.5,22.2,489,22.6z M481.1,37.3c0,0.4,0.1,0.7,0.2,0.8c0.1,0.1,0.4,0.2,0.8,0.2h11.8
		c0.4,0,0.6,0.2,0.6,0.6c0,0.4-0.2,0.6-0.6,0.6h-12.2c-0.6,0-1.1-0.2-1.4-0.6c-0.4-0.4-0.5-0.8-0.5-1.4v-2.7c0-0.2,0.1-0.4,0.2-0.5
		c0.1-0.1,0.3-0.2,0.4-0.2c0.2,0,0.3,0.1,0.4,0.2c0.1,0.1,0.2,0.3,0.2,0.5V37.3z M495.9,27.9c0.4,0,0.6,0.2,0.6,0.6
		c0,0.4-0.2,0.6-0.5,0.6h-2.5v5.5c0,0.2-0.1,0.4-0.2,0.5c-0.1,0.1-0.3,0.2-0.4,0.2c-0.2,0-0.3-0.1-0.4-0.2c-0.1-0.1-0.2-0.3-0.2-0.5
		V22c0-0.2,0.1-0.3,0.2-0.5c0.1-0.1,0.3-0.2,0.4-0.2c0.2,0,0.3,0.1,0.4,0.2c0.1,0.1,0.2,0.3,0.2,0.4v5.9H495.9z"/>
	<path class="st4" d="M510,22.4c0.4,0.3,0.6,0.7,0.6,1.3V28c0,0.6-0.2,1-0.5,1.3c-0.3,0.3-0.9,0.5-1.6,0.5h-4.7
		c-0.4,0-0.6,0.1-0.8,0.2c-0.1,0.2-0.2,0.4-0.2,0.8v5c0,0.4,0.1,0.7,0.3,0.9c0.2,0.2,0.5,0.3,0.9,0.3c1.7,0,3.4-0.1,5-0.4
		c1.5-0.3,2.9-0.7,3.9-1.2c0.4-0.2,0.7-0.1,0.8,0.2c0.2,0.4,0.1,0.7-0.3,0.8c-1.2,0.5-2.8,1-4.6,1.2c-1.6,0.3-3.3,0.4-5.1,0.4
		c-0.7,0-1.3-0.2-1.7-0.6c-0.3-0.4-0.5-0.9-0.5-1.6v-5.3c0-0.6,0.2-1.1,0.5-1.5c0.4-0.4,0.9-0.6,1.5-0.6h4.8c0.4,0,0.6-0.1,0.8-0.2
		c0.1-0.1,0.2-0.3,0.2-0.6V24c0-0.3-0.1-0.5-0.3-0.7c-0.2-0.1-0.5-0.2-1-0.2h-6c-0.5,0-0.7-0.2-0.7-0.6c0-0.4,0.2-0.6,0.7-0.6h6.4
		C509.1,22,509.6,22.1,510,22.4z M516.8,39.8c-0.1,0.1-0.3,0.2-0.4,0.2c-0.2,0-0.3-0.1-0.5-0.2c-0.1-0.1-0.2-0.3-0.2-0.5V22
		c0-0.2,0.1-0.3,0.2-0.5c0.1-0.1,0.3-0.1,0.5-0.1c0.2,0,0.3,0,0.4,0.1c0.1,0.1,0.2,0.3,0.2,0.5v17.3C517,39.5,516.9,39.7,516.8,39.8
		z"/>
	<path class="st4" d="M355.9,68.7l-5-15.4h2.1l2.4,7.6c0.7,2.1,1.2,3.9,1.6,5.7h0c0.4-1.8,1.1-3.7,1.8-5.7l2.6-7.6h2.1l-5.5,15.4
		H355.9z"/>
	<path class="st4" d="M378.2,61.9c-0.1-2.1-0.3-4.7-0.2-6.6h-0.1c-0.5,1.8-1.2,3.7-1.9,5.8l-2.7,7.5h-1.5l-2.5-7.3
		c-0.7-2.2-1.3-4.2-1.8-6h0c0,1.9-0.2,4.5-0.3,6.8l-0.4,6.6h-1.9l1.1-15.4h2.5l2.6,7.4c0.6,1.9,1.2,3.6,1.6,5.2h0.1
		c0.4-1.6,0.9-3.2,1.6-5.2l2.7-7.4h2.5l1,15.4h-1.9L378.2,61.9z"/>
	<path class="st4" d="M384.5,57.6l1.5,5.6c0.3,1.2,0.6,2.4,0.8,3.5h0.1c0.3-1.1,0.6-2.3,1-3.5l1.8-5.6h1.7l1.7,5.5
		c0.4,1.3,0.7,2.5,1,3.6h0.1c0.2-1.1,0.5-2.3,0.8-3.6l1.6-5.5h2l-3.6,11h-1.8l-1.7-5.3c-0.4-1.2-0.7-2.3-1-3.6h0
		c-0.3,1.3-0.6,2.5-1,3.6l-1.8,5.2h-1.8l-3.3-11H384.5z"/>
	<path class="st4" d="M406.5,68.7l-0.2-1.4h-0.1c-0.6,0.9-1.8,1.6-3.4,1.6c-2.2,0-3.4-1.6-3.4-3.2c0-2.7,2.4-4.1,6.6-4.1v-0.2
		c0-0.9-0.3-2.6-2.5-2.6c-1,0-2.1,0.3-2.9,0.8l-0.5-1.3c0.9-0.6,2.2-1,3.6-1c3.4,0,4.2,2.3,4.2,4.5V66c0,1,0,1.9,0.2,2.6H406.5z
		 M406.2,63c-2.2,0-4.7,0.3-4.7,2.5c0,1.3,0.9,1.9,1.9,1.9c1.4,0,2.3-0.9,2.7-1.8c0.1-0.2,0.1-0.4,0.1-0.6V63z"/>
	<path class="st4" d="M411.4,61.1c0-1.3,0-2.4-0.1-3.4h1.8l0.1,2.2h0.1c0.5-1.5,1.7-2.4,3.1-2.4c0.2,0,0.4,0,0.6,0.1v1.9
		c-0.2,0-0.4-0.1-0.7-0.1c-1.4,0-2.4,1.1-2.7,2.6c0,0.3-0.1,0.6-0.1,0.9v5.9h-2V61.1z"/>
	<path class="st4" d="M419.7,63.5c0,2.7,1.8,3.8,3.8,3.8c1.4,0,2.3-0.3,3.1-0.6l0.3,1.4c-0.7,0.3-1.9,0.7-3.7,0.7
		c-3.4,0-5.4-2.2-5.4-5.6s2-6,5.2-6c3.6,0,4.6,3.2,4.6,5.2c0,0.4,0,0.7-0.1,0.9H419.7z M425.6,62.1c0-1.3-0.5-3.3-2.8-3.3
		c-2,0-2.9,1.9-3.1,3.3H425.6z"/>
	<path class="st4" d="M435.6,57.6l2.2,6.2c0.4,1,0.7,1.9,0.9,2.8h0.1c0.3-0.9,0.6-1.8,0.9-2.8l2.1-6.2h2.1l-4.3,11h-1.9l-4.2-11
		H435.6z"/>
	<path class="st4" d="M456.6,68.2c-0.7,0.4-2.2,0.7-4.1,0.7c-4.3,0-7.6-2.7-7.6-7.8c0-4.8,3.3-8.1,8-8.1c1.9,0,3.1,0.4,3.7,0.7
		l-0.5,1.6c-0.8-0.4-1.8-0.6-3.1-0.6c-3.6,0-6,2.3-6,6.3c0,3.8,2.2,6.2,5.9,6.2c1.2,0,2.4-0.3,3.2-0.6L456.6,68.2z"/>
	<path class="st4" d="M459.9,63.5c0,2.7,1.8,3.8,3.8,3.8c1.4,0,2.3-0.3,3.1-0.6l0.3,1.4c-0.7,0.3-1.9,0.7-3.7,0.7
		c-3.4,0-5.4-2.2-5.4-5.6s2-6,5.2-6c3.6,0,4.6,3.2,4.6,5.2c0,0.4,0,0.7-0.1,0.9H459.9z M465.8,62.1c0-1.3-0.5-3.3-2.8-3.3
		c-2,0-2.9,1.9-3.1,3.3H465.8z"/>
	<path class="st4" d="M470.2,60.6c0-1.1,0-2.1-0.1-3h1.8l0.1,1.8h0c0.5-1,1.8-2.1,3.7-2.1c1.5,0,3.9,0.9,3.9,4.7v6.6h-2v-6.4
		c0-1.8-0.7-3.3-2.6-3.3c-1.3,0-2.3,0.9-2.7,2.1c-0.1,0.3-0.1,0.6-0.1,0.9v6.6h-2V60.6z"/>
	<path class="st4" d="M485.2,54.5v3.2h2.9v1.5h-2.9v6c0,1.4,0.4,2.1,1.5,2.1c0.5,0,0.9-0.1,1.2-0.1l0.1,1.5c-0.4,0.2-1,0.3-1.8,0.3
		c-0.9,0-1.7-0.3-2.2-0.8c-0.6-0.6-0.8-1.6-0.8-2.9v-6h-1.7v-1.5h1.7V55L485.2,54.5z"/>
	<path class="st4" d="M491.3,63.5c0,2.7,1.8,3.8,3.8,3.8c1.4,0,2.3-0.3,3.1-0.6l0.3,1.4c-0.7,0.3-1.9,0.7-3.7,0.7
		c-3.4,0-5.4-2.2-5.4-5.6s2-6,5.2-6c3.6,0,4.6,3.2,4.6,5.2c0,0.4,0,0.7-0.1,0.9H491.3z M497.2,62.1c0-1.3-0.5-3.3-2.8-3.3
		c-2,0-2.9,1.9-3.1,3.3H497.2z"/>
	<path class="st4" d="M501.7,61.1c0-1.3,0-2.4-0.1-3.4h1.8l0.1,2.2h0.1c0.5-1.5,1.7-2.4,3.1-2.4c0.2,0,0.4,0,0.6,0.1v1.9
		c-0.2,0-0.4-0.1-0.7-0.1c-1.4,0-2.4,1.1-2.7,2.6c0,0.3-0.1,0.6-0.1,0.9v5.9h-2V61.1z"/>
	<path class="st4" d="M513.7,66.3c0.9,0.5,2.2,1,3.6,1c2,0,3.2-1.1,3.2-2.6c0-1.4-0.8-2.3-2.9-3.1c-2.5-0.9-4.1-2.2-4.1-4.4
		c0-2.4,2-4.2,5-4.2c1.6,0,2.7,0.4,3.4,0.8l-0.5,1.6c-0.5-0.3-1.5-0.7-2.9-0.7c-2.1,0-2.9,1.3-2.9,2.3c0,1.4,0.9,2.1,3.1,3
		c2.6,1,3.9,2.3,3.9,4.5c0,2.4-1.8,4.4-5.4,4.4c-1.5,0-3.1-0.4-3.9-1L513.7,66.3z"/>
	<path class="st4" d="M526.5,63.5c0,2.7,1.8,3.8,3.8,3.8c1.4,0,2.3-0.3,3.1-0.6l0.3,1.4c-0.7,0.3-1.9,0.7-3.7,0.7
		c-3.4,0-5.4-2.2-5.4-5.6s2-6,5.2-6c3.6,0,4.6,3.2,4.6,5.2c0,0.4,0,0.7-0.1,0.9H526.5z M532.3,62.1c0-1.3-0.5-3.3-2.8-3.3
		c-2,0-2.9,1.9-3.1,3.3H532.3z"/>
	<path class="st4" d="M536.8,61.1c0-1.3,0-2.4-0.1-3.4h1.8l0.1,2.2h0.1c0.5-1.5,1.7-2.4,3.1-2.4c0.2,0,0.4,0,0.6,0.1v1.9
		c-0.2,0-0.4-0.1-0.7-0.1c-1.4,0-2.4,1.1-2.7,2.6c0,0.3-0.1,0.6-0.1,0.9v5.9h-2V61.1z"/>
	<path class="st4" d="M545.6,57.6l2.2,6.2c0.4,1,0.7,1.9,0.9,2.8h0.1c0.3-0.9,0.6-1.8,0.9-2.8l2.1-6.2h2.1l-4.3,11h-1.9l-4.2-11
		H545.6z"/>
	<path class="st4" d="M556.7,63.5c0,2.7,1.8,3.8,3.8,3.8c1.4,0,2.3-0.3,3.1-0.6l0.3,1.4c-0.7,0.3-1.9,0.7-3.7,0.7
		c-3.4,0-5.4-2.2-5.4-5.6s2-6,5.2-6c3.6,0,4.6,3.2,4.6,5.2c0,0.4,0,0.7-0.1,0.9H556.7z M562.5,62.1c0-1.3-0.5-3.3-2.8-3.3
		c-2,0-2.9,1.9-3.1,3.3H562.5z"/>
	<path class="st4" d="M567,61.1c0-1.3,0-2.4-0.1-3.4h1.8l0.1,2.2h0.1c0.5-1.5,1.7-2.4,3.1-2.4c0.2,0,0.4,0,0.6,0.1v1.9
		c-0.2,0-0.4-0.1-0.7-0.1c-1.4,0-2.4,1.1-2.7,2.6c0,0.3-0.1,0.6-0.1,0.9v5.9h-2V61.1z"/>
</g>
<g>
	<path class="st4" d="M239.9,130.6c0.1,0.1,0.2,0.1,0.2,0.2c0,0.1,0,0.2-0.1,0.3c-0.1,0.1-0.2,0.2-0.3,0.2c-0.8,0.1-1.6,0.3-2.5,0.3
		c-1,0.1-1.9,0.2-2.7,0.2c-0.3,0-0.4-0.1-0.4-0.4s0.1-0.4,0.4-0.4c0.8,0,1.6,0,2.6-0.1c0.9-0.1,1.7-0.2,2.4-0.3
		C239.7,130.5,239.8,130.5,239.9,130.6z M240.9,128.4c0.3,0.2,0.4,0.6,0.4,1v0.7c0,1.4-0.5,2.6-1.6,3.5c-1.1,1-2.8,1.6-4.9,1.7
		c-0.2,0-0.3,0-0.4-0.1c-0.1-0.1-0.1-0.2-0.1-0.3c0-0.1,0-0.2,0.1-0.3c0.1-0.1,0.2-0.1,0.4-0.1c1.9-0.1,3.4-0.5,4.4-1.5
		c0.9-0.8,1.3-1.7,1.3-2.9v-0.5c0-0.3-0.1-0.4-0.2-0.6s-0.3-0.2-0.6-0.2H235c-0.2,0-0.3,0-0.4-0.1c-0.1-0.1-0.1-0.2-0.1-0.3
		c0-0.1,0-0.2,0.1-0.3c0.1-0.1,0.2-0.1,0.4-0.1h4.6C240.2,128.1,240.6,128.2,240.9,128.4z M245.3,136.2c0.3,0.2,0.4,0.5,0.4,0.8v2.2
		c0,0.4-0.1,0.7-0.4,0.9c-0.2,0.2-0.6,0.3-1,0.3h-7.2c-0.5,0-0.9-0.1-1.1-0.3c-0.2-0.2-0.3-0.5-0.3-0.9v-2c0-0.3,0.1-0.6,0.3-0.8
		c0.2-0.2,0.5-0.3,0.9-0.3h7.3C244.7,135.9,245,136,245.3,136.2z M244.6,136.8c-0.1-0.1-0.3-0.1-0.5-0.1h-6.8c-0.3,0-0.4,0-0.5,0.1
		c-0.1,0.1-0.1,0.2-0.1,0.4v1.8c0,0.2,0,0.4,0.1,0.4c0.1,0.1,0.3,0.1,0.6,0.1h6.8c0.2,0,0.4,0,0.5-0.1c0.1-0.1,0.2-0.2,0.2-0.4v-1.9
		C244.7,137,244.7,136.9,244.6,136.8z M245.5,134.7c-0.1,0.1-0.2,0.1-0.3,0.1c-0.1,0-0.2,0-0.3-0.1c-0.1-0.1-0.1-0.2-0.1-0.4v-2.2
		h-2.8c-0.2,0-0.3,0-0.4-0.1c-0.1-0.1-0.1-0.2-0.1-0.3c0-0.1,0-0.2,0.1-0.3c0.1-0.1,0.2-0.1,0.3-0.1h2.9v-3.1c0-0.2,0-0.3,0.1-0.4
		c0.1-0.1,0.2-0.1,0.3-0.1c0.1,0,0.2,0,0.3,0.1c0.1,0.1,0.2,0.2,0.2,0.4v6.2C245.7,134.5,245.6,134.6,245.5,134.7z"/>
	<path class="st4" d="M263.2,136.2c0,0.3-0.1,0.4-0.4,0.4h-2.5v3.7c0,0.1-0.1,0.3-0.2,0.4c-0.1,0.1-0.2,0.1-0.3,0.1s-0.2,0-0.3-0.1
		c-0.1-0.1-0.1-0.2-0.1-0.4v-3.7h-5v1.5c0,0.5-0.1,1-0.2,1.5c-0.2,0.4-0.4,0.8-0.6,1.1c-0.1,0.1-0.2,0.2-0.4,0.2
		c-0.1,0-0.2,0-0.3-0.1c-0.1-0.1-0.1-0.2-0.2-0.3c0-0.1,0-0.3,0.2-0.4c0.2-0.3,0.4-0.5,0.5-0.8c0.1-0.3,0.1-0.6,0.1-1.1v-1.5h-2.9
		c-0.1,0-0.2,0-0.3-0.1c-0.1-0.1-0.1-0.2-0.1-0.3c0-0.1,0-0.2,0.1-0.3c0.1-0.1,0.2-0.1,0.4-0.1h12.2
		C263,135.8,263.2,135.9,263.2,136.2z M262.1,133.3c0,0.3-0.1,0.4-0.3,0.4h-10.2c-0.3,0-0.4-0.1-0.4-0.4c0-0.3,0.1-0.4,0.4-0.4h2
		l-0.6-3.2c0-0.1,0-0.3,0.1-0.3c0.1-0.1,0.2-0.1,0.3-0.1c0.1,0,0.2,0,0.3,0.1c0.1,0.1,0.2,0.2,0.2,0.3l0.6,3.3h4.2l0.6-3.3
		c0-0.1,0.1-0.3,0.2-0.3c0.1-0.1,0.2-0.1,0.3-0.1c0.1,0,0.2,0.1,0.3,0.1c0.1,0.1,0.1,0.2,0.1,0.3l-0.6,3.2h2
		C261.9,133,262.1,133.1,262.1,133.3z M262,128.2c0.1,0.1,0.1,0.2,0.1,0.3c0,0.1,0,0.2-0.1,0.3c-0.1,0.1-0.2,0.1-0.3,0.1h-10.1
		c-0.3,0-0.4-0.1-0.4-0.4c0-0.3,0.1-0.4,0.4-0.4h10C261.8,128.1,261.9,128.2,262,128.2z"/>
	<path class="st4" d="M273.9,128.2c0.1,0.1,0.1,0.2,0.1,0.3c0,0.1,0,0.2-0.1,0.3c-0.1,0.1-0.2,0.1-0.4,0.1h-5.1
		c-0.2,0-0.4,0.1-0.5,0.2c-0.1,0.1-0.1,0.3-0.1,0.5v1.2h5.5c0.3,0,0.5,0.1,0.5,0.4c0,0.3-0.2,0.4-0.5,0.4h-5.5v1.7
		c0,0.3,0,0.4,0.1,0.5c0.1,0.1,0.3,0.2,0.5,0.2c1.3,0,2.5-0.1,3.6-0.2c1.2-0.1,2.1-0.3,2.9-0.5c0.1-0.1,0.3-0.1,0.4,0
		c0.1,0,0.2,0.1,0.2,0.2c0,0.1,0,0.2,0,0.3c-0.1,0.1-0.1,0.2-0.3,0.2c-0.8,0.2-1.9,0.4-3.1,0.5c-1.2,0.1-2.4,0.2-3.6,0.2
		c-0.6,0-1-0.1-1.3-0.4c-0.3-0.3-0.4-0.6-0.4-1.2v-3.8c0-0.4,0.1-0.7,0.4-0.9c0.3-0.3,0.6-0.4,1.1-0.4h5.2
		C273.7,128.1,273.8,128.1,273.9,128.2z M276.5,136.7c0.8,0.4,1.2,1,1.2,1.7c0,0.7-0.4,1.2-1.2,1.7c-0.9,0.5-2.2,0.7-3.9,0.7
		c-1.7,0-3-0.2-3.9-0.7c-0.8-0.4-1.2-1-1.2-1.7c0-0.7,0.4-1.3,1.2-1.7c0.9-0.5,2.2-0.7,3.9-0.7C274.3,136,275.6,136.3,276.5,136.7z
		 M269.4,137.3c-0.7,0.3-1,0.7-1,1.2c0,0.5,0.3,0.8,1,1.1c0.7,0.3,1.8,0.5,3.2,0.5c1.4,0,2.5-0.2,3.2-0.5c0.7-0.3,1-0.6,1-1.1
		c0-0.5-0.3-0.9-1-1.2c-0.7-0.3-1.8-0.4-3.2-0.4C271.2,136.8,270.1,137,269.4,137.3z M277.5,135.7c-0.1,0.1-0.2,0.1-0.3,0.1
		c-0.1,0-0.2,0-0.3-0.1c-0.1-0.1-0.1-0.2-0.1-0.4v-7.1c0-0.1,0-0.2,0.1-0.3c0.1-0.1,0.2-0.1,0.3-0.1c0.1,0,0.2,0,0.3,0.1
		c0.1,0.1,0.2,0.2,0.2,0.3v7.2C277.7,135.4,277.6,135.6,277.5,135.7z"/>
	<path class="st4" d="M292.2,128.6c0.3,0.3,0.4,0.6,0.4,1.1v1.8c0,2.4-0.6,4.3-1.9,5.7c-1.2,1.3-2.7,2-4.6,2.1
		c-0.3,0-0.4-0.1-0.5-0.4c0-0.3,0.1-0.4,0.4-0.4c1.8-0.2,3.2-0.8,4.1-2c1-1.2,1.6-2.9,1.6-5.1v-1.8c0-0.2-0.1-0.4-0.2-0.5
		c-0.1-0.1-0.3-0.2-0.6-0.2h-4.6c-0.3,0-0.4-0.1-0.4-0.4c0-0.3,0.1-0.4,0.4-0.4h4.6C291.5,128.2,291.9,128.3,292.2,128.6z
		 M298.3,133.8c0.3,0,0.4,0.1,0.4,0.4c0,0.3-0.1,0.4-0.4,0.4h-1.7v5.7c0,0.1-0.1,0.2-0.2,0.3c-0.1,0.1-0.2,0.1-0.3,0.1
		s-0.2,0-0.3-0.1c-0.1-0.1-0.1-0.2-0.1-0.3v-12.2c0-0.1,0-0.2,0.1-0.3c0.1-0.1,0.2-0.1,0.3-0.1s0.2,0,0.3,0.1
		c0.1,0.1,0.2,0.2,0.2,0.3v5.7H298.3z"/>
	<path class="st4" d="M305.4,128.1c0.1-0.1,0.2-0.1,0.3-0.1s0.2,0,0.3,0.1c0.1,0.1,0.2,0.2,0.2,0.4c0,0.3,0,0.7-0.1,1
		c-0.1,0.3-0.1,0.6-0.3,0.9c0.9,0.7,1.7,1.3,2.3,1.8c0.5,0.5,1.1,1.2,1.7,1.9c0.1,0.1,0.1,0.3,0.1,0.4c0,0.1-0.1,0.2-0.2,0.3
		c-0.1,0.1-0.2,0.1-0.3,0.1c-0.1,0-0.3-0.1-0.3-0.2c-0.5-0.7-1-1.3-1.6-1.9c-0.5-0.5-1.2-1.1-1.9-1.6c-0.4,0.8-0.8,1.5-1.3,2.1
		c-0.5,0.6-1.1,1.2-1.9,1.9c-0.1,0.1-0.3,0.1-0.4,0.1c-0.1,0-0.2-0.1-0.3-0.2c-0.1-0.1-0.1-0.2-0.1-0.3c0-0.1,0.1-0.2,0.3-0.3
		c1.1-0.8,2-1.8,2.6-3.1c0.5-1.1,0.8-2,0.8-2.9C305.2,128.3,305.3,128.1,305.4,128.1z M311.6,136.7c0.8,0.4,1.2,1,1.2,1.7
		c0,0.7-0.4,1.2-1.2,1.7c-0.9,0.5-2.2,0.7-3.8,0.7c-1.7,0-3-0.2-3.9-0.7c-0.8-0.4-1.2-1-1.2-1.7c0-0.7,0.4-1.3,1.2-1.7
		c0.9-0.5,2.2-0.7,3.9-0.7C309.5,136,310.7,136.3,311.6,136.7z M304.6,137.3c-0.7,0.3-1,0.7-1,1.2c0,0.5,0.3,0.8,1,1.1
		c0.7,0.3,1.8,0.5,3.2,0.5c1.4,0,2.4-0.2,3.1-0.5c0.7-0.3,1-0.6,1-1.1c0-0.5-0.3-0.9-1-1.2c-0.7-0.3-1.8-0.4-3.1-0.4
		C306.4,136.8,305.3,137,304.6,137.3z M314.3,131.5c0.1,0,0.2,0,0.3,0.1c0.1,0.1,0.1,0.2,0.1,0.3c0,0.1,0,0.2-0.1,0.3
		c-0.1,0.1-0.2,0.1-0.3,0.1h-1.7v3c0,0.1-0.1,0.3-0.2,0.3c-0.1,0.1-0.2,0.1-0.3,0.1s-0.2,0-0.3-0.1c-0.1-0.1-0.1-0.2-0.1-0.4v-7.2
		c0-0.3,0.2-0.4,0.5-0.4c0.3,0,0.5,0.1,0.5,0.4v3.4H314.3z"/>
	<path class="st4" d="M324.5,138.6c0.7-0.1,1.4-0.3,2-0.5c0.3-0.1,0.5,0,0.5,0.2c0.1,0.2,0,0.4-0.3,0.5c-1.1,0.4-2.4,0.7-4,0.8
		c-1.3,0.1-2.9,0.2-4.9,0.2c-0.2,0-0.3,0-0.4-0.1c-0.1-0.1-0.1-0.2-0.1-0.3c0-0.1,0-0.2,0.1-0.3c0.1-0.1,0.2-0.1,0.4-0.1
		c0.5,0,1,0,1.7,0c0.8,0,1.5,0,2.3-0.1v-2.7h0.9v2.6C323.3,138.9,323.9,138.8,324.5,138.6z M326.2,130.1c0.1,0.1,0.1,0.2,0.1,0.3
		c0,0.1,0,0.2-0.1,0.3c-0.1,0.1-0.2,0.1-0.3,0.1h-7.4c-0.3,0-0.4-0.1-0.4-0.4c0-0.3,0.1-0.4,0.4-0.4h7.4
		C326,130,326.2,130,326.2,130.1z M324.8,132.6c0.6,0.5,0.9,1,0.9,1.7c0,0.7-0.3,1.2-0.9,1.7c-0.6,0.5-1.5,0.8-2.6,0.8
		c-1.1,0-2-0.3-2.6-0.8c-0.6-0.5-0.9-1-0.9-1.7c0-0.7,0.3-1.2,0.9-1.7c0.7-0.5,1.5-0.8,2.6-0.8C323.3,131.8,324.2,132,324.8,132.6z
		 M324.8,128.5c0,0.3-0.1,0.4-0.4,0.4H320c-0.3,0-0.4-0.1-0.4-0.4c0-0.3,0.1-0.4,0.4-0.4h4.3C324.7,128.1,324.8,128.3,324.8,128.5z
		 M320.3,133.1c-0.4,0.3-0.6,0.7-0.6,1.1c0,0.5,0.2,0.9,0.6,1.2c0.5,0.4,1.1,0.5,2,0.5c0.8,0,1.5-0.2,1.9-0.5
		c0.4-0.3,0.6-0.7,0.6-1.2c0-0.5-0.2-0.8-0.6-1.1c-0.5-0.3-1.1-0.5-1.9-0.5C321.4,132.6,320.7,132.8,320.3,133.1z M330.3,134
		c0.1,0,0.2,0,0.3,0.1c0.1,0.1,0.1,0.2,0.1,0.3c0,0.1,0,0.2-0.1,0.3c-0.1,0.1-0.2,0.1-0.3,0.1h-1.8v5.6c0,0.1-0.1,0.2-0.2,0.3
		c-0.1,0.1-0.2,0.1-0.3,0.1s-0.2,0-0.3-0.1c-0.1-0.1-0.1-0.2-0.1-0.3v-12.2c0-0.1,0-0.2,0.1-0.3c0.1-0.1,0.2-0.1,0.3-0.1
		s0.2,0,0.3,0.1c0.1,0.1,0.2,0.2,0.2,0.3v5.8H330.3z"/>
	<path class="st4" d="M229.7,160.9l-3.5-10.8h1.5l1.7,5.3c0.5,1.5,0.9,2.8,1.2,4h0c0.3-1.2,0.8-2.6,1.2-4l1.8-5.3h1.5l-3.9,10.8
		H229.7z"/>
	<path class="st4" d="M245.3,156.2c-0.1-1.5-0.2-3.3-0.2-4.7h0c-0.4,1.3-0.8,2.6-1.4,4.1l-1.9,5.2h-1.1l-1.7-5.1
		c-0.5-1.5-0.9-2.9-1.2-4.2h0c0,1.3-0.1,3.2-0.2,4.8l-0.3,4.6h-1.3l0.8-10.8h1.8l1.8,5.2c0.4,1.3,0.8,2.5,1.1,3.6h0
		c0.3-1.1,0.7-2.3,1.1-3.6l1.9-5.2h1.8l0.7,10.8h-1.4L245.3,156.2z"/>
	<path class="st4" d="M249.7,153.2l1,3.9c0.2,0.9,0.4,1.7,0.6,2.5h0c0.2-0.8,0.4-1.6,0.7-2.4l1.3-4h1.2l1.2,3.9
		c0.3,0.9,0.5,1.7,0.7,2.5h0c0.1-0.8,0.3-1.6,0.6-2.5l1.1-3.9h1.4l-2.5,7.7h-1.3l-1.2-3.7c-0.3-0.9-0.5-1.6-0.7-2.5h0
		c-0.2,0.9-0.4,1.7-0.7,2.6l-1.2,3.7h-1.3l-2.3-7.7H249.7z"/>
	<path class="st4" d="M265.2,160.9l-0.1-1h0c-0.4,0.6-1.3,1.2-2.4,1.2c-1.6,0-2.4-1.1-2.4-2.2c0-1.9,1.7-2.9,4.7-2.9v-0.2
		c0-0.6-0.2-1.8-1.8-1.8c-0.7,0-1.5,0.2-2,0.6l-0.3-0.9c0.6-0.4,1.6-0.7,2.5-0.7c2.4,0,2.9,1.6,2.9,3.2v2.9c0,0.7,0,1.3,0.1,1.9
		H265.2z M265,157c-1.5,0-3.3,0.2-3.3,1.7c0,0.9,0.6,1.3,1.3,1.3c1,0,1.6-0.6,1.9-1.3c0-0.1,0.1-0.3,0.1-0.4V157z"/>
	<path class="st4" d="M268.6,155.6c0-0.9,0-1.7-0.1-2.4h1.2l0,1.5h0.1c0.4-1,1.2-1.7,2.1-1.7c0.2,0,0.3,0,0.4,0v1.3
		c-0.1,0-0.3,0-0.5,0c-1,0-1.7,0.8-1.9,1.8c0,0.2-0.1,0.4-0.1,0.7v4.1h-1.4V155.6z"/>
	<path class="st4" d="M274.4,157.3c0,1.9,1.2,2.7,2.7,2.7c1,0,1.6-0.2,2.1-0.4l0.2,1c-0.5,0.2-1.3,0.5-2.6,0.5
		c-2.4,0-3.8-1.6-3.8-3.9s1.4-4.2,3.6-4.2c2.5,0,3.2,2.2,3.2,3.6c0,0.3,0,0.5,0,0.7H274.4z M278.6,156.3c0-0.9-0.4-2.3-2-2.3
		c-1.4,0-2,1.3-2.2,2.3H278.6z"/>
	<path class="st4" d="M285.6,153.2l1.5,4.4c0.3,0.7,0.5,1.3,0.6,2h0c0.2-0.6,0.4-1.3,0.7-2l1.5-4.4h1.5l-3,7.7h-1.3l-2.9-7.7H285.6z
		"/>
	<path class="st4" d="M292.6,159.2c0.6,0.4,1.5,0.7,2.5,0.7c1.4,0,2.3-0.8,2.3-1.8c0-1-0.6-1.6-2-2.1c-1.8-0.6-2.8-1.5-2.8-3.1
		c0-1.7,1.4-2.9,3.5-2.9c1.1,0,1.9,0.3,2.4,0.5l-0.4,1.1c-0.4-0.2-1.1-0.5-2-0.5c-1.5,0-2,0.9-2,1.6c0,1,0.7,1.5,2.1,2.1
		c1.8,0.7,2.8,1.6,2.8,3.2c0,1.7-1.2,3.1-3.8,3.1c-1,0-2.2-0.3-2.8-0.7L292.6,159.2z"/>
	<path class="st4" d="M300.7,155.7c0-1,0-1.8-0.1-2.5h1.3l0.1,1.3h0c0.6-0.9,1.5-1.5,2.8-1.5c1.9,0,3.3,1.6,3.3,3.9
		c0,2.8-1.7,4.2-3.5,4.2c-1,0-1.9-0.4-2.4-1.2h0v4.2h-1.4V155.7z M302,157.8c0,0.2,0,0.4,0.1,0.6c0.3,1,1.1,1.6,2.1,1.6
		c1.5,0,2.4-1.2,2.4-3c0-1.6-0.8-2.9-2.3-2.9c-1,0-1.9,0.7-2.1,1.7c0,0.2-0.1,0.4-0.1,0.6V157.8z"/>
	<path class="st4" d="M309.8,149.5h1.4v4.8h0c0.2-0.4,0.6-0.8,1-1c0.4-0.2,0.9-0.4,1.4-0.4c1,0,2.7,0.6,2.7,3.3v4.6h-1.4v-4.5
		c0-1.2-0.5-2.3-1.8-2.3c-0.9,0-1.6,0.6-1.9,1.4c-0.1,0.2-0.1,0.4-0.1,0.7v4.7h-1.4V149.5z"/>
	<path class="st4" d="M319.4,157.3c0,1.9,1.2,2.7,2.7,2.7c1,0,1.6-0.2,2.1-0.4l0.2,1c-0.5,0.2-1.3,0.5-2.6,0.5
		c-2.4,0-3.8-1.6-3.8-3.9s1.4-4.2,3.6-4.2c2.5,0,3.2,2.2,3.2,3.6c0,0.3,0,0.5,0,0.7H319.4z M323.5,156.3c0-0.9-0.4-2.3-2-2.3
		c-1.4,0-2,1.3-2.2,2.3H323.5z"/>
	<path class="st4" d="M326.7,155.6c0-0.9,0-1.7-0.1-2.4h1.2l0,1.5h0.1c0.4-1,1.2-1.7,2.1-1.7c0.2,0,0.3,0,0.4,0v1.3
		c-0.1,0-0.3,0-0.5,0c-1,0-1.7,0.8-1.9,1.8c0,0.2-0.1,0.4-0.1,0.7v4.1h-1.4V155.6z"/>
	<path class="st4" d="M332.5,157.3c0,1.9,1.2,2.7,2.7,2.7c1,0,1.6-0.2,2.1-0.4l0.2,1c-0.5,0.2-1.3,0.5-2.6,0.5
		c-2.4,0-3.8-1.6-3.8-3.9s1.4-4.2,3.6-4.2c2.5,0,3.2,2.2,3.2,3.6c0,0.3,0,0.5,0,0.7H332.5z M336.6,156.3c0-0.9-0.4-2.3-2-2.3
		c-1.4,0-2,1.3-2.2,2.3H336.6z"/>
</g>
<g>
	<path class="st4" d="M566.8,141.4v-10.8h1.5l3.5,5.5c0.8,1.3,1.4,2.4,1.9,3.5l0,0c-0.1-1.4-0.2-2.8-0.2-4.4v-4.5h1.3v10.8h-1.4
		l-3.4-5.5c-0.8-1.2-1.5-2.4-2-3.6l0,0c0.1,1.4,0.1,2.7,0.1,4.4v4.6H566.8z"/>
	<path class="st4" d="M578.1,137.8c0,1.9,1.2,2.7,2.7,2.7c1,0,1.6-0.2,2.1-0.4l0.2,1c-0.5,0.2-1.3,0.5-2.6,0.5
		c-2.4,0-3.8-1.6-3.8-3.9s1.4-4.2,3.6-4.2c2.5,0,3.2,2.2,3.2,3.6c0,0.3,0,0.5,0,0.7H578.1z M582.2,136.8c0-0.9-0.4-2.3-2-2.3
		c-1.4,0-2,1.3-2.2,2.3H582.2z"/>
	<path class="st4" d="M587,131.5v2.2h2v1.1h-2v4.2c0,1,0.3,1.5,1.1,1.5c0.4,0,0.6,0,0.8-0.1l0.1,1.1c-0.3,0.1-0.7,0.2-1.2,0.2
		c-0.7,0-1.2-0.2-1.5-0.6c-0.4-0.4-0.5-1.1-0.5-2v-4.2h-1.2v-1.1h1.2v-1.9L587,131.5z"/>
	<path class="st4" d="M592.4,138l-1.1,3.4h-1.4l3.7-10.8h1.7l3.7,10.8h-1.5l-1.2-3.4H592.4z M595.9,137l-1.1-3.1
		c-0.2-0.7-0.4-1.3-0.6-2h0c-0.2,0.6-0.3,1.3-0.5,2l-1.1,3.1H595.9z"/>
	<path class="st4" d="M600.4,136.2c0-1,0-1.8-0.1-2.5h1.3l0.1,1.3h0c0.6-0.9,1.5-1.5,2.8-1.5c1.9,0,3.3,1.6,3.3,3.9
		c0,2.8-1.7,4.2-3.5,4.2c-1,0-1.9-0.4-2.4-1.2h0v4.2h-1.4V136.2z M601.8,138.3c0,0.2,0,0.4,0.1,0.6c0.3,1,1.1,1.6,2.1,1.6
		c1.5,0,2.4-1.2,2.4-3c0-1.6-0.8-2.9-2.3-2.9c-1,0-1.9,0.7-2.1,1.7c0,0.2-0.1,0.4-0.1,0.6V138.3z"/>
	<path class="st4" d="M609.5,136.2c0-1,0-1.8-0.1-2.5h1.3l0.1,1.3h0c0.6-0.9,1.5-1.5,2.8-1.5c1.9,0,3.3,1.6,3.3,3.9
		c0,2.8-1.7,4.2-3.5,4.2c-1,0-1.9-0.4-2.4-1.2h0v4.2h-1.4V136.2z M610.9,138.3c0,0.2,0,0.4,0.1,0.6c0.3,1,1.1,1.6,2.1,1.6
		c1.5,0,2.4-1.2,2.4-3c0-1.6-0.8-2.9-2.3-2.9c-1,0-1.9,0.7-2.1,1.7c0,0.2-0.1,0.4-0.1,0.6V138.3z"/>
	<path class="st4" d="M631.2,135.9c0,3.7-2.3,5.7-5,5.7c-2.8,0-4.8-2.2-4.8-5.5c0-3.4,2.1-5.7,5-5.7
		C629.3,130.5,631.2,132.7,631.2,135.9z M622.9,136.1c0,2.3,1.2,4.4,3.4,4.4c2.2,0,3.5-2,3.5-4.5c0-2.1-1.1-4.4-3.4-4.4
		C624,131.6,622.9,133.7,622.9,136.1z"/>
	<path class="st4" d="M633,141.4v-10.8h1.5l3.5,5.5c0.8,1.3,1.4,2.4,1.9,3.5l0,0c-0.1-1.4-0.2-2.8-0.2-4.4v-4.5h1.3v10.8h-1.4
		l-3.4-5.5c-0.8-1.2-1.5-2.4-2-3.6l0,0c0.1,1.4,0.1,2.7,0.1,4.4v4.6H633z"/>
	<path class="st4" d="M645.6,131.8h-3.3v-1.2h8v1.2H647v9.6h-1.4V131.8z"/>
	<path class="st4" d="M652.1,138l-1.1,3.4h-1.4l3.7-10.8h1.7l3.7,10.8H657l-1.2-3.4H652.1z M655.6,137l-1.1-3.1
		c-0.2-0.7-0.4-1.3-0.6-2h0c-0.2,0.6-0.3,1.3-0.5,2l-1.1,3.1H655.6z"/>
	<path class="st4" d="M660.1,130.8c0.7-0.1,1.6-0.2,2.7-0.2c1.4,0,2.4,0.3,3,0.9c0.6,0.5,0.9,1.3,0.9,2.3c0,1-0.3,1.7-0.8,2.3
		c-0.7,0.8-1.9,1.2-3.3,1.2c-0.4,0-0.8,0-1.1-0.1v4.3h-1.4V130.8z M661.5,136c0.3,0.1,0.7,0.1,1.2,0.1c1.7,0,2.7-0.8,2.7-2.3
		c0-1.4-1-2.1-2.5-2.1c-0.6,0-1.1,0-1.3,0.1V136z"/>
	<path class="st4" d="M671.8,139.7c0.6,0.4,1.5,0.7,2.5,0.7c1.4,0,2.3-0.8,2.3-1.8c0-1-0.6-1.6-2-2.1c-1.8-0.6-2.8-1.5-2.8-3.1
		c0-1.7,1.4-2.9,3.5-2.9c1.1,0,1.9,0.3,2.4,0.5l-0.4,1.1c-0.4-0.2-1.1-0.5-2-0.5c-1.5,0-2,0.9-2,1.6c0,1,0.7,1.5,2.1,2.1
		c1.8,0.7,2.8,1.6,2.8,3.2c0,1.7-1.2,3.1-3.8,3.1c-1,0-2.2-0.3-2.8-0.7L671.8,139.7z"/>
	<path class="st4" d="M680.7,137.8c0,1.9,1.2,2.7,2.7,2.7c1,0,1.6-0.2,2.1-0.4l0.2,1c-0.5,0.2-1.3,0.5-2.6,0.5
		c-2.4,0-3.8-1.6-3.8-3.9s1.4-4.2,3.6-4.2c2.5,0,3.2,2.2,3.2,3.6c0,0.3,0,0.5,0,0.7H680.7z M684.9,136.8c0-0.9-0.4-2.3-2-2.3
		c-1.4,0-2,1.3-2.2,2.3H684.9z"/>
	<path class="st4" d="M688,130.1h1.4v11.4H688V130.1z"/>
	<path class="st4" d="M692.5,137.8c0,1.9,1.2,2.7,2.7,2.7c1,0,1.6-0.2,2.1-0.4l0.2,1c-0.5,0.2-1.3,0.5-2.6,0.5
		c-2.4,0-3.8-1.6-3.8-3.9s1.4-4.2,3.6-4.2c2.5,0,3.2,2.2,3.2,3.6c0,0.3,0,0.5,0,0.7H692.5z M696.7,136.8c0-0.9-0.4-2.3-2-2.3
		c-1.4,0-2,1.3-2.2,2.3H696.7z"/>
	<path class="st4" d="M705.3,141.1c-0.4,0.2-1.2,0.4-2.2,0.4c-2.3,0-3.9-1.6-3.9-4c0-2.4,1.6-4.1,4.2-4.1c0.8,0,1.6,0.2,2,0.4
		L705,135c-0.3-0.2-0.9-0.4-1.6-0.4c-1.8,0-2.7,1.3-2.7,2.9c0,1.8,1.2,2.9,2.7,2.9c0.8,0,1.3-0.2,1.7-0.4L705.3,141.1z"/>
	<path class="st4" d="M708.8,131.5v2.2h2v1.1h-2v4.2c0,1,0.3,1.5,1.1,1.5c0.4,0,0.6,0,0.8-0.1l0.1,1.1c-0.3,0.1-0.7,0.2-1.2,0.2
		c-0.7,0-1.2-0.2-1.5-0.6c-0.4-0.4-0.5-1.1-0.5-2v-4.2h-1.2v-1.1h1.2v-1.9L708.8,131.5z"/>
</g>
<g>
	<path class="st4" d="M404.4,129.2c0.1-0.1,0.2-0.1,0.3-0.1s0.2,0,0.3,0.1c0.1,0.1,0.2,0.2,0.2,0.4v9c0,0.3,0.1,0.5,0.2,0.6
		c0.1,0.1,0.3,0.2,0.6,0.2c0.8,0,1.5-0.1,2.1-0.2c0.6-0.1,1.2-0.2,1.6-0.4c0.1-0.1,0.2-0.1,0.3,0c0.1,0.1,0.2,0.1,0.2,0.2
		c0,0.1,0,0.2,0,0.3c-0.1,0.1-0.2,0.2-0.3,0.3c-0.5,0.2-1.1,0.3-1.8,0.4c-0.7,0.1-1.5,0.1-2.4,0.1c-0.5,0-0.8-0.1-1.1-0.4
		c-0.3-0.3-0.4-0.6-0.4-1.1v-8.9C404.2,129.5,404.3,129.3,404.4,129.2z M412.1,141.6c-0.1,0.1-0.2,0.1-0.3,0.1s-0.2,0-0.3-0.1
		c-0.1-0.1-0.1-0.2-0.1-0.4v-6.8h-2.7c-0.2,0-0.3,0-0.4-0.1c-0.1-0.1-0.1-0.2-0.1-0.3c0-0.1,0-0.2,0.1-0.3c0.1-0.1,0.2-0.1,0.3-0.1
		h2.8v-4.5c0-0.1,0-0.2,0.1-0.3c0.1-0.1,0.2-0.1,0.3-0.1s0.2,0,0.3,0.1c0.1,0.1,0.2,0.2,0.2,0.3v12.2
		C412.2,141.4,412.2,141.6,412.1,141.6z M415.4,141.6c-0.1,0.1-0.2,0.1-0.3,0.1c-0.1,0-0.2,0-0.3-0.1c-0.1-0.1-0.1-0.2-0.1-0.4
		v-12.1c0-0.1,0-0.2,0.1-0.3c0.1-0.1,0.2-0.1,0.3-0.1c0.1,0,0.2,0,0.3,0.1c0.1,0.1,0.2,0.2,0.2,0.3v12.2
		C415.5,141.4,415.5,141.6,415.4,141.6z"/>
	<path class="st4" d="M432.5,140c0.1,0.1,0.1,0.2,0.1,0.3c0,0.1,0,0.2-0.1,0.3c-0.1,0.1-0.2,0.1-0.3,0.1h-12.4c-0.1,0-0.2,0-0.3-0.1
		c-0.1-0.1-0.1-0.2-0.1-0.3c0-0.1,0.1-0.2,0.1-0.3c0.1-0.1,0.2-0.1,0.3-0.1h12.1C432.3,139.9,432.4,139.9,432.5,140z M431.4,129.2
		c0.1,0.1,0.1,0.2,0.1,0.3c0,0.1,0,0.2-0.1,0.3c-0.1,0.1-0.2,0.1-0.3,0.1h-8.6c-0.3,0-0.5,0.1-0.6,0.2c-0.1,0.1-0.2,0.3-0.2,0.5v1.7
		h9.2c0.3,0,0.5,0.1,0.5,0.4c0,0.3-0.2,0.4-0.5,0.4h-9.2v2c0,0.2,0.1,0.4,0.2,0.5c0.1,0.1,0.3,0.2,0.5,0.2h8.7c0.1,0,0.2,0,0.3,0.1
		c0.1,0.1,0.1,0.2,0.1,0.3c0,0.1,0,0.2-0.1,0.3c-0.1,0.1-0.2,0.1-0.3,0.1h-8.8c-0.5,0-0.8-0.1-1.1-0.4c-0.3-0.2-0.4-0.6-0.4-1v-4.8
		c0-0.4,0.1-0.7,0.4-1c0.3-0.3,0.7-0.4,1.2-0.4h8.7C431.2,129.1,431.3,129.2,431.4,129.2z"/>
	<path class="st4" d="M437.8,136.5c-0.8,0-1.4,0-2,0c-0.3,0-0.4-0.1-0.4-0.4c0-0.3,0.2-0.4,0.4-0.4c1.5,0,3,0,4.4-0.1
		c1.7,0,3.1-0.1,4.3-0.2c0.1,0,0.3,0,0.4,0.1c0.1,0.1,0.1,0.1,0.2,0.3c0,0.1,0,0.2-0.1,0.3c-0.1,0.1-0.2,0.1-0.3,0.2
		c-0.6,0.1-1.3,0.1-2,0.1c-0.6,0-1.3,0.1-1.9,0.1v1.9c0,0.7-0.1,1.2-0.3,1.7c-0.2,0.5-0.4,0.8-0.8,1.2c-0.2,0.2-0.4,0.2-0.6,0
		c-0.2-0.2-0.2-0.4,0-0.6c0.3-0.3,0.4-0.6,0.5-0.9c0.1-0.3,0.2-0.8,0.2-1.3v-1.9C439.4,136.5,438.7,136.5,437.8,136.5z M443.4,129.9
		c0.7,0.5,1,1.1,1,1.8c0,0.7-0.3,1.3-1,1.8c-0.8,0.5-1.8,0.8-3.1,0.8c-1.3,0-2.3-0.3-3.1-0.8c-0.7-0.5-1-1.1-1-1.8
		c0-0.7,0.3-1.3,1-1.8c0.8-0.5,1.8-0.8,3.1-0.8C441.6,129.1,442.6,129.4,443.4,129.9z M438,130.4c-0.5,0.3-0.8,0.8-0.8,1.3
		c0,0.5,0.3,0.9,0.8,1.2c0.6,0.4,1.4,0.6,2.4,0.6c1,0,1.8-0.2,2.4-0.6c0.5-0.3,0.8-0.8,0.8-1.2c0-0.5-0.3-0.9-0.8-1.3
		c-0.6-0.4-1.4-0.5-2.4-0.5C439.3,129.9,438.5,130.1,438,130.4z M446.9,141.6c-0.1,0.1-0.2,0.1-0.3,0.1c-0.1,0-0.2,0-0.3-0.1
		c-0.1-0.1-0.1-0.2-0.1-0.4v-3.1h-3c-0.2,0-0.3,0-0.4-0.1c-0.1-0.1-0.1-0.2-0.1-0.3c0-0.1,0-0.2,0.1-0.3c0.1-0.1,0.2-0.1,0.4-0.1h3
		v-8.3c0-0.1,0-0.2,0.1-0.3c0.1-0.1,0.2-0.1,0.3-0.1c0.1,0,0.2,0,0.3,0.1c0.1,0.1,0.2,0.2,0.2,0.3v12.2
		C447.1,141.4,447,141.6,446.9,141.6z"/>
	<path class="st4" d="M464.5,140c0.1,0.1,0.1,0.2,0.1,0.3c0,0.1,0,0.2-0.1,0.3c-0.1,0.1-0.2,0.1-0.3,0.1h-12.4c-0.1,0-0.2,0-0.3-0.1
		c-0.1-0.1-0.1-0.2-0.1-0.3c0-0.1,0.1-0.2,0.1-0.3c0.1-0.1,0.2-0.1,0.3-0.1h12.1C464.3,139.9,464.4,139.9,464.5,140z M462.2,134
		c0,0.3-0.1,0.4-0.4,0.4c-1.3,0.1-2.8,0.3-4.4,0.4c-1.6,0.1-3.2,0.1-4.6,0.1c-0.3,0-0.4-0.1-0.5-0.4c0-0.3,0.1-0.4,0.5-0.4
		c1.4,0,2.9,0,4.5-0.1c1.7-0.1,3.2-0.2,4.5-0.3C462,133.7,462.2,133.8,462.2,134z M462.9,129.5c0.3,0.3,0.5,0.6,0.5,1v3
		c0,1.5-0.1,2.7-0.2,3.5c-0.1,1-0.4,2-0.8,3h-1c0.4-1,0.7-2,0.9-3c0.1-0.7,0.2-1.8,0.2-3.4v-3c0-0.2-0.1-0.4-0.2-0.5
		c-0.1-0.1-0.3-0.2-0.6-0.2h-8.4c-0.3,0-0.4-0.1-0.4-0.4c0-0.3,0.1-0.4,0.4-0.4h8.4C462.2,129.1,462.6,129.2,462.9,129.5z"/>
	<path class="st4" d="M477.7,129.6c0.3,0.3,0.4,0.6,0.4,1.1v1.8c0,2.4-0.6,4.3-1.9,5.7c-1.2,1.3-2.7,2-4.6,2.1
		c-0.3,0-0.4-0.1-0.5-0.4c0-0.3,0.1-0.4,0.4-0.4c1.8-0.2,3.2-0.8,4.1-2c1-1.2,1.6-2.9,1.6-5.1v-1.8c0-0.2-0.1-0.4-0.2-0.5
		c-0.1-0.1-0.3-0.2-0.6-0.2h-4.6c-0.3,0-0.4-0.1-0.4-0.4c0-0.3,0.1-0.4,0.4-0.4h4.6C476.9,129.2,477.3,129.3,477.7,129.6z
		 M483.8,134.8c0.3,0,0.4,0.1,0.4,0.4c0,0.3-0.1,0.4-0.4,0.4H482v5.7c0,0.1-0.1,0.2-0.2,0.3c-0.1,0.1-0.2,0.1-0.3,0.1
		s-0.2,0-0.3-0.1c-0.1-0.1-0.1-0.2-0.1-0.3v-12.2c0-0.1,0-0.2,0.1-0.3c0.1-0.1,0.2-0.1,0.3-0.1s0.2,0,0.3,0.1
		c0.1,0.1,0.2,0.2,0.2,0.3v5.7H483.8z"/>
	<path class="st4" d="M490.8,129.1c0.1-0.1,0.2-0.1,0.3-0.1s0.2,0,0.3,0.1c0.1,0.1,0.2,0.2,0.2,0.4c0,0.3,0,0.7-0.1,1
		c-0.1,0.3-0.1,0.6-0.3,0.9c0.9,0.7,1.7,1.3,2.3,1.8c0.5,0.5,1.1,1.2,1.7,1.9c0.1,0.1,0.1,0.3,0.1,0.4c0,0.1-0.1,0.2-0.2,0.3
		c-0.1,0.1-0.2,0.1-0.3,0.1c-0.1,0-0.3-0.1-0.3-0.2c-0.5-0.7-1-1.3-1.6-1.9c-0.5-0.5-1.2-1.1-1.9-1.6c-0.4,0.8-0.8,1.5-1.3,2.1
		c-0.5,0.6-1.1,1.2-1.9,1.9c-0.1,0.1-0.3,0.1-0.4,0.1c-0.1,0-0.2-0.1-0.3-0.2c-0.1-0.1-0.1-0.2-0.1-0.3c0-0.1,0.1-0.2,0.3-0.3
		c1.1-0.8,2-1.8,2.6-3.1c0.5-1.1,0.8-2,0.8-2.9C490.7,129.3,490.7,129.1,490.8,129.1z M497.1,137.7c0.8,0.4,1.2,1,1.2,1.7
		c0,0.7-0.4,1.2-1.2,1.7c-0.9,0.5-2.2,0.7-3.8,0.7c-1.7,0-3-0.2-3.9-0.7c-0.8-0.4-1.2-1-1.2-1.7c0-0.7,0.4-1.3,1.2-1.7
		c0.9-0.5,2.2-0.7,3.9-0.7C494.9,137,496.2,137.3,497.1,137.7z M490.1,138.3c-0.7,0.3-1,0.7-1,1.2c0,0.5,0.3,0.8,1,1.1
		c0.7,0.3,1.8,0.5,3.2,0.5c1.4,0,2.4-0.2,3.1-0.5c0.7-0.3,1-0.6,1-1.1c0-0.5-0.3-0.9-1-1.2c-0.7-0.3-1.8-0.4-3.1-0.4
		C491.8,137.8,490.8,138,490.1,138.3z M499.7,132.5c0.1,0,0.2,0,0.3,0.1c0.1,0.1,0.1,0.2,0.1,0.3c0,0.1,0,0.2-0.1,0.3
		c-0.1,0.1-0.2,0.1-0.3,0.1H498v3c0,0.1-0.1,0.3-0.2,0.3c-0.1,0.1-0.2,0.1-0.3,0.1s-0.2,0-0.3-0.1c-0.1-0.1-0.1-0.2-0.1-0.4v-7.2
		c0-0.3,0.2-0.4,0.5-0.4c0.3,0,0.5,0.1,0.5,0.4v3.4H499.7z"/>
	<path class="st4" d="M509.9,139.6c0.7-0.1,1.4-0.3,2-0.5c0.3-0.1,0.5,0,0.5,0.2c0.1,0.2,0,0.4-0.3,0.5c-1.1,0.4-2.4,0.7-4,0.8
		c-1.3,0.1-2.9,0.2-4.9,0.2c-0.2,0-0.3,0-0.4-0.1c-0.1-0.1-0.1-0.2-0.1-0.3c0-0.1,0-0.2,0.1-0.3c0.1-0.1,0.2-0.1,0.4-0.1
		c0.5,0,1,0,1.7,0c0.8,0,1.5,0,2.3-0.1v-2.7h0.9v2.6C508.7,139.9,509.3,139.8,509.9,139.6z M511.7,131.1c0.1,0.1,0.1,0.2,0.1,0.3
		c0,0.1,0,0.2-0.1,0.3c-0.1,0.1-0.2,0.1-0.3,0.1h-7.4c-0.3,0-0.4-0.1-0.4-0.4c0-0.3,0.1-0.4,0.4-0.4h7.4
		C511.5,131,511.6,131,511.7,131.1z M510.2,133.6c0.6,0.5,0.9,1,0.9,1.7c0,0.7-0.3,1.2-0.9,1.7c-0.6,0.5-1.5,0.8-2.6,0.8
		c-1.1,0-2-0.3-2.6-0.8c-0.6-0.5-0.9-1-0.9-1.7c0-0.7,0.3-1.2,0.9-1.7c0.7-0.5,1.5-0.8,2.6-0.8C508.7,132.8,509.6,133,510.2,133.6z
		 M510.3,129.5c0,0.3-0.1,0.4-0.4,0.4h-4.4c-0.3,0-0.4-0.1-0.4-0.4c0-0.3,0.1-0.4,0.4-0.4h4.3C510.1,129.1,510.3,129.3,510.3,129.5z
		 M505.7,134.1c-0.4,0.3-0.6,0.7-0.6,1.1c0,0.5,0.2,0.9,0.6,1.2c0.5,0.4,1.1,0.5,2,0.5c0.8,0,1.5-0.2,1.9-0.5
		c0.4-0.3,0.6-0.7,0.6-1.2c0-0.5-0.2-0.8-0.6-1.1c-0.5-0.3-1.1-0.5-1.9-0.5C506.8,133.6,506.2,133.8,505.7,134.1z M515.7,135
		c0.1,0,0.2,0,0.3,0.1c0.1,0.1,0.1,0.2,0.1,0.3c0,0.1,0,0.2-0.1,0.3c-0.1,0.1-0.2,0.1-0.3,0.1H514v5.6c0,0.1-0.1,0.2-0.2,0.3
		c-0.1,0.1-0.2,0.1-0.3,0.1s-0.2,0-0.3-0.1c-0.1-0.1-0.1-0.2-0.1-0.3v-12.2c0-0.1,0-0.2,0.1-0.3c0.1-0.1,0.2-0.1,0.3-0.1
		s0.2,0,0.3,0.1c0.1,0.1,0.2,0.2,0.2,0.3v5.8H515.7z"/>
	<path class="st4" d="M417.3,161.9l-3.5-10.8h1.5l1.7,5.3c0.5,1.5,0.9,2.8,1.2,4h0c0.3-1.2,0.8-2.6,1.2-4l1.8-5.3h1.5l-3.9,10.8
		H417.3z"/>
	<path class="st4" d="M432.9,157.2c-0.1-1.5-0.2-3.3-0.2-4.7h0c-0.4,1.3-0.8,2.6-1.4,4.1l-1.9,5.2h-1.1l-1.7-5.1
		c-0.5-1.5-0.9-2.9-1.2-4.2h0c0,1.3-0.1,3.2-0.2,4.8l-0.3,4.6h-1.3l0.8-10.8h1.8l1.8,5.2c0.4,1.3,0.8,2.5,1.1,3.6h0
		c0.3-1.1,0.7-2.3,1.1-3.6l1.9-5.2h1.8l0.7,10.8h-1.4L432.9,157.2z"/>
	<path class="st4" d="M437.3,154.2l1,3.9c0.2,0.9,0.4,1.7,0.6,2.5h0c0.2-0.8,0.4-1.6,0.7-2.4l1.3-4h1.2l1.2,3.9
		c0.3,0.9,0.5,1.7,0.7,2.5h0c0.1-0.8,0.3-1.6,0.6-2.5l1.1-3.9h1.4l-2.5,7.7h-1.3l-1.2-3.7c-0.3-0.9-0.5-1.6-0.7-2.5h0
		c-0.2,0.9-0.4,1.7-0.7,2.6l-1.2,3.7h-1.3l-2.3-7.7H437.3z"/>
	<path class="st4" d="M452.8,161.9l-0.1-1h0c-0.4,0.6-1.3,1.2-2.4,1.2c-1.6,0-2.4-1.1-2.4-2.2c0-1.9,1.7-2.9,4.7-2.9v-0.2
		c0-0.6-0.2-1.8-1.8-1.8c-0.7,0-1.5,0.2-2,0.6l-0.3-0.9c0.6-0.4,1.6-0.7,2.5-0.7c2.4,0,2.9,1.6,2.9,3.2v2.9c0,0.7,0,1.3,0.1,1.9
		H452.8z M452.6,158c-1.5,0-3.3,0.2-3.3,1.7c0,0.9,0.6,1.3,1.3,1.3c1,0,1.6-0.6,1.9-1.3c0-0.1,0.1-0.3,0.1-0.4V158z"/>
	<path class="st4" d="M456.2,156.6c0-0.9,0-1.7-0.1-2.4h1.2l0,1.5h0.1c0.4-1,1.2-1.7,2.1-1.7c0.2,0,0.3,0,0.4,0v1.3
		c-0.1,0-0.3,0-0.5,0c-1,0-1.7,0.8-1.9,1.8c0,0.2-0.1,0.4-0.1,0.7v4.1h-1.4V156.6z"/>
	<path class="st4" d="M462,158.3c0,1.9,1.2,2.7,2.7,2.7c1,0,1.6-0.2,2.1-0.4l0.2,1c-0.5,0.2-1.3,0.5-2.6,0.5c-2.4,0-3.8-1.6-3.8-3.9
		s1.4-4.2,3.6-4.2c2.5,0,3.2,2.2,3.2,3.6c0,0.3,0,0.5,0,0.7H462z M466.2,157.3c0-0.9-0.4-2.3-2-2.3c-1.4,0-2,1.3-2.2,2.3H466.2z"/>
	<path class="st4" d="M472.7,161.9v-10.8h1.5l3.5,5.5c0.8,1.3,1.4,2.4,1.9,3.5l0,0c-0.1-1.4-0.2-2.8-0.2-4.4v-4.5h1.3v10.8h-1.4
		l-3.4-5.5c-0.8-1.2-1.5-2.4-2-3.6l0,0c0.1,1.4,0.1,2.7,0.1,4.5v4.6H472.7z"/>
	<path class="st4" d="M483.1,160.2c0.6,0.4,1.5,0.7,2.5,0.7c1.4,0,2.3-0.8,2.3-1.8c0-1-0.6-1.6-2-2.1c-1.8-0.6-2.8-1.5-2.8-3.1
		c0-1.7,1.4-2.9,3.5-2.9c1.1,0,1.9,0.3,2.4,0.5l-0.4,1.1c-0.4-0.2-1.1-0.5-2-0.5c-1.5,0-2,0.9-2,1.6c0,1,0.7,1.5,2.1,2.1
		c1.8,0.7,2.8,1.6,2.8,3.2c0,1.7-1.2,3.1-3.8,3.1c-1,0-2.2-0.3-2.8-0.7L483.1,160.2z"/>
	<path class="st4" d="M497,161.9l-1.4-2.4c-0.6-0.9-0.9-1.5-1.2-2.1h0c-0.3,0.6-0.6,1.2-1.2,2.1l-1.3,2.4h-1.6l3.3-5.5l-3.2-5.3h1.6
		l1.4,2.5c0.4,0.7,0.7,1.2,1,1.8h0c0.3-0.6,0.6-1.1,1-1.8l1.5-2.5h1.6l-3.3,5.3l3.4,5.5H497z"/>
</g>
<g>
	<path class="st4" d="M240.4,231.2v15.5h-2v-15.5H240.4z"/>
	<path class="st4" d="M243.9,231.4c0.9-0.2,2.3-0.3,3.7-0.3c2,0,3.3,0.3,4.3,1.1c0.8,0.6,1.3,1.5,1.3,2.7c0,1.5-1,2.8-2.6,3.4v0
		c1.5,0.4,3.2,1.6,3.2,3.9c0,1.3-0.5,2.3-1.3,3.1c-1.1,1-2.8,1.4-5.4,1.4c-1.4,0-2.4-0.1-3.1-0.2V231.4z M245.9,237.8h1.8
		c2.1,0,3.4-1.1,3.4-2.6c0-1.8-1.4-2.5-3.4-2.5c-0.9,0-1.4,0.1-1.8,0.1V237.8z M245.9,245.2c0.4,0.1,1,0.1,1.7,0.1c2.1,0,4-0.8,4-3
		c0-2.1-1.8-3-4-3h-1.7V245.2z"/>
	<path class="st4" d="M269.4,239.9c-0.1-2.2-0.3-4.8-0.2-6.7h-0.1c-0.5,1.8-1.2,3.7-2,5.9l-2.7,7.5h-1.5l-2.5-7.4
		c-0.7-2.2-1.4-4.2-1.8-6h0c0,1.9-0.2,4.5-0.3,6.9l-0.4,6.6H256l1.1-15.5h2.6l2.6,7.5c0.6,1.9,1.2,3.6,1.6,5.2h0.1
		c0.4-1.6,0.9-3.3,1.6-5.2l2.8-7.5h2.6l1,15.5h-2L269.4,239.9z"/>
	<path class="st4" d="M290.6,246.2c-0.7,0.4-2.2,0.7-4.1,0.7c-4.4,0-7.7-2.8-7.7-7.8c0-4.9,3.3-8.1,8.1-8.1c1.9,0,3.2,0.4,3.7,0.7
		l-0.5,1.6c-0.8-0.4-1.8-0.6-3.1-0.6c-3.6,0-6,2.3-6,6.4c0,3.8,2.2,6.2,6,6.2c1.2,0,2.5-0.3,3.3-0.6L290.6,246.2z"/>
	<path class="st4" d="M293,230.4h2v16.3h-2V230.4z"/>
	<path class="st4" d="M308.5,241.1c0,4.1-2.9,5.9-5.5,5.9c-3,0-5.3-2.2-5.3-5.7c0-3.7,2.4-5.9,5.5-5.9
		C306.3,235.4,308.5,237.7,308.5,241.1z M299.7,241.2c0,2.4,1.4,4.3,3.4,4.3c1.9,0,3.4-1.8,3.4-4.3c0-1.9-0.9-4.3-3.3-4.3
		S299.7,239.1,299.7,241.2z"/>
	<path class="st4" d="M320.4,243.7c0,1.1,0,2.2,0.1,3h-1.8l-0.1-1.8h0c-0.5,0.9-1.7,2.1-3.7,2.1c-1.7,0-3.8-1-3.8-4.9v-6.5h2v6.2
		c0,2.1,0.6,3.5,2.5,3.5c1.4,0,2.3-0.9,2.7-1.8c0.1-0.3,0.2-0.7,0.2-1v-6.8h2V243.7z"/>
	<path class="st4" d="M333.3,230.4v13.5c0,1,0,2.1,0.1,2.9h-1.8l-0.1-1.9h0c-0.6,1.2-2,2.2-3.8,2.2c-2.7,0-4.8-2.3-4.8-5.7
		c0-3.7,2.3-6,5-6c1.7,0,2.9,0.8,3.4,1.7h0v-6.6H333.3z M331.3,240.1c0-0.3,0-0.6-0.1-0.9c-0.3-1.3-1.4-2.3-2.9-2.3
		c-2.1,0-3.3,1.8-3.3,4.3c0,2.3,1.1,4.1,3.3,4.1c1.4,0,2.6-0.9,3-2.4c0.1-0.3,0.1-0.6,0.1-0.9V240.1z"/>
	<path class="st4" d="M344.7,243.7c2.6-0.2,4.7-0.4,6.3-0.7c0.2-0.1,0.4-0.1,0.6,0c0.1,0.1,0.2,0.2,0.3,0.3c0,0.1,0,0.3-0.1,0.4
		c-0.1,0.1-0.3,0.2-0.4,0.3c-1.7,0.4-3.9,0.6-6.4,0.8c-2,0.1-4.5,0.2-7.4,0.2c-0.2,0-0.4-0.1-0.5-0.2c-0.1-0.1-0.2-0.2-0.2-0.4
		c0-0.2,0.1-0.3,0.2-0.4c0.1-0.1,0.3-0.2,0.5-0.2C340.3,243.9,342.6,243.8,344.7,243.7z M348,231.2c0.9,0.9,1.4,1.9,1.4,3.2
		c0,1.2-0.5,2.3-1.4,3.2c-1,1-2.4,1.4-4,1.4c-1.7,0-3.1-0.5-4.1-1.4c-0.9-0.9-1.3-1.9-1.3-3.2c0-1.3,0.4-2.3,1.3-3.2
		c1-1,2.4-1.4,4.1-1.4C345.6,229.7,347,230.2,348,231.2z M340.8,231.9c-0.7,0.7-1,1.5-1,2.4s0.3,1.8,1,2.4c0.7,0.7,1.8,1.1,3.1,1.1
		c1.3,0,2.3-0.4,3.1-1.1c0.7-0.6,1-1.5,1-2.4s-0.3-1.8-1-2.4c-0.7-0.7-1.8-1.1-3.1-1.1C342.6,230.9,341.6,231.2,340.8,231.9z
		 M353.5,247.7c-0.1,0.1-0.3,0.2-0.4,0.2c-0.2,0-0.4-0.1-0.5-0.2c-0.1-0.1-0.2-0.3-0.2-0.5v-17.5c0-0.2,0.1-0.4,0.2-0.5
		c0.1-0.1,0.3-0.2,0.5-0.2c0.2,0,0.3,0.1,0.4,0.2c0.1,0.1,0.2,0.3,0.2,0.4v17.5C353.8,247.4,353.7,247.6,353.5,247.7z"/>
	<path class="st4" d="M373.3,229.6c0.1-0.1,0.3-0.2,0.4-0.2s0.3,0.1,0.4,0.2c0.1,0.1,0.2,0.3,0.2,0.5c0,0.4-0.1,0.9-0.2,1.3
		c-0.1,0.3-0.2,0.6-0.3,1.1l0,0.2c1.3,0.7,2.4,1.4,3.2,2.2c0.7,0.7,1.5,1.6,2.4,2.7c0.1,0.2,0.2,0.4,0.2,0.6c0,0.2-0.1,0.3-0.2,0.4
		c-0.1,0.1-0.3,0.1-0.5,0.1c-0.2,0-0.4-0.1-0.5-0.3c-0.7-1-1.5-1.9-2.3-2.7c-0.8-0.8-1.7-1.4-2.7-2c-0.6,1.1-1.2,1.9-1.8,2.7
		c-0.7,0.9-1.7,1.8-2.8,2.6c-0.2,0.1-0.4,0.2-0.5,0.1c-0.2,0-0.3-0.1-0.4-0.2c-0.1-0.1-0.1-0.3-0.1-0.4c0-0.2,0.1-0.3,0.4-0.4
		c1.6-1.1,2.8-2.5,3.8-4.2c0.8-1.4,1.1-2.7,1.1-3.8C373.1,229.9,373.2,229.7,373.3,229.6z M383.9,240.5c0.3,0.3,0.5,0.7,0.5,1.2v1
		c0,0.5-0.2,0.8-0.5,1.1s-0.8,0.4-1.3,0.4H372c-0.3,0-0.5,0.1-0.7,0.2c-0.1,0.1-0.2,0.3-0.2,0.5v0.9c0,0.2,0.1,0.4,0.2,0.5
		c0.1,0.1,0.3,0.1,0.6,0.1h12.4c0.2,0,0.4,0.1,0.5,0.2c0.1,0.1,0.2,0.3,0.2,0.4c0,0.1-0.1,0.3-0.2,0.4s-0.3,0.2-0.4,0.2h-12.8
		c-0.5,0-0.9-0.1-1.2-0.4c-0.3-0.3-0.5-0.7-0.5-1.2v-1.3c0-0.5,0.2-0.9,0.5-1.2s0.7-0.4,1.2-0.4h10.7c0.3,0,0.5,0,0.6-0.1
		c0.2-0.1,0.2-0.2,0.2-0.4V242c0-0.3-0.1-0.5-0.2-0.6s-0.4-0.2-0.7-0.2h-11.7c-0.4,0-0.7-0.2-0.7-0.6c0-0.4,0.2-0.6,0.7-0.6h11.9
		C383,240.1,383.5,240.2,383.9,240.5z M384.2,238.7c-0.1,0.1-0.3,0.2-0.4,0.2c-0.2,0-0.4-0.1-0.5-0.2c-0.1-0.1-0.2-0.3-0.2-0.5v-8.5
		c0-0.2,0.1-0.4,0.2-0.5c0.1-0.1,0.3-0.2,0.5-0.2c0.2,0,0.3,0.1,0.4,0.2c0.1,0.1,0.2,0.3,0.2,0.4v8.5
		C384.4,238.4,384.3,238.6,384.2,238.7z"/>
	<path class="st4" d="M400.4,230.3c0,0.4-0.2,0.6-0.5,0.6h-3.1v3.9c0,2.4,0.4,4.5,1.3,6.5c0.7,1.5,1.6,2.8,2.8,3.8
		c0.2,0.1,0.2,0.3,0.2,0.5c0,0.2-0.1,0.3-0.2,0.4c-0.1,0.1-0.3,0.2-0.5,0.2c-0.2,0-0.4,0-0.5-0.2c-0.9-0.8-1.6-1.9-2.3-3.1
		c-0.7-1.4-1.2-2.7-1.5-4.1c-0.3,1.4-0.8,2.7-1.5,4.1c-0.7,1.3-1.5,2.3-2.5,3.1c-0.2,0.1-0.3,0.2-0.5,0.2c-0.2,0-0.3-0.1-0.4-0.2
		c-0.1-0.1-0.2-0.3-0.2-0.4s0.1-0.4,0.3-0.5c1.1-1,2-2.2,2.7-3.8c0.9-1.9,1.4-4.1,1.4-6.5v-4h-3.1c-0.4,0-0.6-0.2-0.6-0.6
		c0-0.4,0.2-0.6,0.6-0.6h7.5C400.3,229.8,400.4,230,400.4,230.3z M402.6,229.3c0.1-0.1,0.3-0.2,0.5-0.2c0.2,0,0.3,0,0.4,0.1
		c0.1,0.1,0.2,0.3,0.2,0.4v17.5c0,0.2-0.1,0.4-0.2,0.5c-0.1,0.1-0.3,0.2-0.4,0.2c-0.2,0-0.4-0.1-0.5-0.2c-0.1-0.1-0.2-0.3-0.2-0.5
		V238h-3c-0.2,0-0.4-0.1-0.5-0.2c-0.1-0.1-0.2-0.2-0.2-0.4c0-0.2,0.1-0.3,0.2-0.4c0.1-0.1,0.3-0.2,0.5-0.2h3.1v-7.1
		C402.4,229.5,402.5,229.4,402.6,229.3z M407.8,247.7c-0.1,0.1-0.3,0.2-0.4,0.2c-0.2,0-0.3-0.1-0.4-0.2c-0.1-0.1-0.2-0.3-0.2-0.5
		v-17.5c0-0.2,0.1-0.4,0.2-0.5c0.1-0.1,0.3-0.2,0.4-0.2c0.2,0,0.3,0.1,0.4,0.2c0.1,0.1,0.2,0.3,0.2,0.4v17.5
		C408,247.4,407.9,247.6,407.8,247.7z"/>
	<path class="st4" d="M431.2,231.4c0.9,1,1.3,2.2,1.3,3.7s-0.4,2.7-1.3,3.7c-0.9,1.1-2.2,1.7-3.8,1.7c-1.6,0-2.9-0.6-3.9-1.7
		c-0.9-1-1.3-2.3-1.3-3.7c0-1.5,0.4-2.7,1.3-3.7c1-1.1,2.3-1.7,3.9-1.7C429,229.7,430.2,230.2,431.2,231.4z M424.5,232.1
		c-0.6,0.8-0.9,1.8-0.9,2.9s0.3,2.1,0.9,2.9c0.7,0.9,1.7,1.3,2.9,1.3c1.2,0,2.2-0.4,2.9-1.3c0.6-0.8,0.9-1.8,0.9-2.9
		s-0.3-2.1-0.9-2.9c-0.7-0.9-1.6-1.3-2.9-1.3C426.1,230.8,425.2,231.3,424.5,232.1z M425,245.2c0,0.4,0.1,0.7,0.2,0.8
		c0.1,0.1,0.4,0.2,0.9,0.2h12.1c0.4,0,0.6,0.2,0.6,0.6c0,0.4-0.2,0.6-0.6,0.6h-12.3c-0.7,0-1.2-0.2-1.6-0.5
		c-0.4-0.3-0.6-0.8-0.6-1.5v-3c0-0.2,0.1-0.4,0.2-0.6c0.1-0.1,0.3-0.2,0.5-0.2c0.2,0,0.3,0.1,0.4,0.2c0.1,0.1,0.2,0.3,0.2,0.6V245.2
		z M437.9,242.6c-0.1,0.1-0.3,0.2-0.4,0.2c-0.2,0-0.4-0.1-0.5-0.2c-0.1-0.1-0.2-0.3-0.2-0.5v-12.4c0-0.2,0.1-0.4,0.2-0.5
		c0.1-0.1,0.3-0.2,0.5-0.2c0.2,0,0.3,0.1,0.4,0.2c0.1,0.1,0.2,0.3,0.2,0.4v12.4C438.1,242.3,438,242.5,437.9,242.6z"/>
	<path class="st4" d="M463,245.3c0.1,0.1,0.2,0.3,0.2,0.4c0,0.1,0,0.3-0.1,0.4s-0.2,0.2-0.4,0.2h-17.8c-0.2,0-0.3-0.1-0.4-0.2
		s-0.1-0.3-0.1-0.4s0.1-0.3,0.2-0.4c0.1-0.1,0.3-0.2,0.5-0.2h17.4C462.7,245.2,462.9,245.2,463,245.3z M461.7,239.2
		c0,0.4-0.2,0.6-0.5,0.6h-14.6c-0.4,0-0.5-0.2-0.5-0.6c0-0.4,0.2-0.6,0.6-0.6h2.8l-0.7-6.1c0-0.2,0-0.4,0.2-0.5
		c0.1-0.1,0.2-0.2,0.4-0.2s0.3,0,0.5,0.1c0.1,0.1,0.2,0.3,0.3,0.5l0.7,6.2h6.3l0.7-6.2c0-0.2,0.1-0.4,0.2-0.5
		c0.1-0.1,0.3-0.1,0.5-0.1s0.3,0.1,0.4,0.2c0.1,0.1,0.2,0.3,0.2,0.5l-0.7,6.1h2.8C461.5,238.6,461.7,238.8,461.7,239.2z
		 M461.5,229.9c0.1,0.1,0.2,0.2,0.2,0.4c0,0.1,0,0.3-0.1,0.4c-0.1,0.1-0.2,0.2-0.4,0.2h-14.5c-0.4,0-0.6-0.2-0.6-0.6
		c0-0.4,0.2-0.6,0.6-0.6H461C461.2,229.7,461.4,229.8,461.5,229.9z"/>
	<path class="st4" d="M477.1,230.2c0.4,0.3,0.6,0.7,0.6,1.3v4.4c0,0.6-0.2,1-0.5,1.3c-0.3,0.3-0.9,0.5-1.6,0.5h-4.8
		c-0.4,0-0.6,0.1-0.8,0.2c-0.1,0.2-0.2,0.4-0.2,0.8v5c0,0.4,0.1,0.7,0.3,0.9c0.2,0.2,0.5,0.3,0.9,0.3c1.7,0,3.4-0.1,5-0.4
		c1.6-0.3,2.9-0.7,4-1.2c0.4-0.2,0.7-0.1,0.8,0.2c0.2,0.4,0.1,0.7-0.3,0.9c-1.2,0.6-2.8,1-4.6,1.3c-1.6,0.3-3.4,0.4-5.2,0.4
		c-0.7,0-1.3-0.2-1.7-0.6c-0.3-0.4-0.5-0.9-0.5-1.6v-5.3c0-0.6,0.2-1.1,0.5-1.5c0.4-0.4,0.9-0.6,1.5-0.6h4.8c0.4,0,0.6-0.1,0.8-0.2
		c0.1-0.1,0.2-0.3,0.2-0.7v-3.8c0-0.3-0.1-0.5-0.3-0.7c-0.2-0.1-0.5-0.2-1-0.2h-6c-0.5,0-0.7-0.2-0.7-0.6c0-0.4,0.2-0.6,0.7-0.6h6.4
		C476.2,229.8,476.7,229.9,477.1,230.2z M485.9,237.9c0.4,0,0.5,0.2,0.5,0.5c0,0.4-0.2,0.6-0.5,0.6h-2.5v8.2c0,0.2-0.1,0.4-0.2,0.5
		c-0.1,0.1-0.3,0.2-0.4,0.2s-0.3-0.1-0.4-0.2c-0.1-0.1-0.2-0.3-0.2-0.5v-17.5c0-0.2,0.1-0.4,0.2-0.5c0.1-0.1,0.3-0.1,0.4-0.1
		s0.3,0,0.4,0.1c0.1,0.1,0.2,0.3,0.2,0.5v8.2H485.9z"/>
</g>
<g>
	<path class="st4" d="M218,283c0.1,0.1,0.2,0.2,0.2,0.3c0,0.1,0,0.2-0.1,0.3c-0.1,0.1-0.2,0.2-0.4,0.2c-0.9,0.2-1.9,0.3-3,0.4
		c-1.2,0.1-2.3,0.2-3.2,0.2c-0.3,0-0.5-0.2-0.5-0.5c0-0.3,0.2-0.5,0.5-0.5c0.9,0,1.9-0.1,3.1-0.2c1-0.1,2-0.2,2.9-0.4
		C217.8,282.9,217.9,283,218,283z M219.1,280.5c0.3,0.3,0.5,0.7,0.5,1.2v0.8c0,1.7-0.6,3.1-1.9,4.1c-1.3,1.2-3.3,1.8-5.9,2
		c-0.2,0-0.3,0-0.5-0.1c-0.1-0.1-0.2-0.2-0.2-0.3c0-0.1,0-0.3,0.1-0.4c0.1-0.1,0.2-0.1,0.4-0.1c2.3-0.1,4-0.6,5.2-1.7
		c1-0.9,1.5-2.1,1.5-3.5v-0.6c0-0.3-0.1-0.5-0.2-0.7s-0.4-0.2-0.7-0.2h-5.4c-0.2,0-0.3,0-0.4-0.1c-0.1-0.1-0.1-0.2-0.1-0.3
		c0-0.1,0-0.2,0.1-0.3c0.1-0.1,0.2-0.1,0.4-0.1h5.5C218.3,280,218.8,280.2,219.1,280.5z M224.4,289.7c0.3,0.2,0.4,0.6,0.4,0.9v2.6
		c0,0.5-0.1,0.8-0.4,1.1c-0.3,0.2-0.7,0.4-1.2,0.4h-8.6c-0.6,0-1.1-0.1-1.4-0.4c-0.3-0.2-0.4-0.6-0.4-1.1v-2.4c0-0.4,0.1-0.7,0.4-1
		c0.3-0.3,0.6-0.4,1.1-0.4h8.7C223.6,289.3,224.1,289.5,224.4,289.7z M223.5,290.4c-0.1-0.1-0.3-0.1-0.6-0.1h-8.1
		c-0.3,0-0.5,0.1-0.6,0.2c-0.1,0.1-0.1,0.3-0.1,0.5v2.1c0,0.2,0.1,0.4,0.2,0.5c0.1,0.1,0.3,0.1,0.7,0.1h8c0.3,0,0.5,0,0.6-0.1
		c0.1-0.1,0.2-0.3,0.2-0.5v-2.2C223.7,290.7,223.6,290.5,223.5,290.4z M224.6,287.9c-0.1,0.1-0.2,0.1-0.4,0.1c-0.2,0-0.3,0-0.4-0.1
		c-0.1-0.1-0.2-0.3-0.2-0.4v-2.7h-3.3c-0.2,0-0.4-0.1-0.5-0.2c-0.1-0.1-0.2-0.2-0.2-0.3c0-0.1,0-0.2,0.1-0.3
		c0.1-0.1,0.2-0.1,0.4-0.1h3.4v-3.7c0-0.2,0.1-0.3,0.2-0.4c0.1-0.1,0.2-0.1,0.4-0.1c0.1,0,0.3,0,0.4,0.1c0.1,0.1,0.2,0.2,0.2,0.4
		v7.3C224.8,287.7,224.8,287.8,224.6,287.9z"/>
	<path class="st4" d="M245.6,289.7c0,0.3-0.2,0.5-0.5,0.5h-3v4.4c0,0.2-0.1,0.3-0.2,0.4c-0.1,0.1-0.2,0.1-0.4,0.1s-0.3,0-0.4-0.1
		c-0.1-0.1-0.2-0.3-0.2-0.4v-4.4h-5.9v1.8c0,0.6-0.1,1.2-0.3,1.8c-0.2,0.5-0.4,0.9-0.7,1.3c-0.1,0.1-0.3,0.2-0.4,0.2
		c-0.1,0-0.3,0-0.4-0.1c-0.1-0.1-0.2-0.2-0.2-0.4c0-0.2,0-0.3,0.2-0.4c0.3-0.3,0.5-0.6,0.6-1c0.1-0.3,0.1-0.7,0.1-1.3v-1.8h-3.5
		c-0.2,0-0.3-0.1-0.4-0.2c-0.1-0.1-0.1-0.2-0.1-0.3c0-0.1,0-0.2,0.1-0.3c0.1-0.1,0.3-0.1,0.4-0.1h14.5
		C245.4,289.2,245.6,289.4,245.6,289.7z M244.3,286.3c0,0.3-0.1,0.5-0.4,0.5h-12.1c-0.3,0-0.4-0.2-0.4-0.5c0-0.3,0.2-0.5,0.5-0.5
		h2.4l-0.7-3.8c0-0.2,0-0.3,0.1-0.4c0.1-0.1,0.2-0.1,0.4-0.1c0.1,0,0.3,0,0.4,0.1c0.1,0.1,0.2,0.2,0.2,0.4l0.7,3.9h5l0.7-3.9
		c0-0.2,0.1-0.3,0.2-0.4c0.1-0.1,0.2-0.1,0.4-0.1c0.1,0,0.3,0.1,0.4,0.2c0.1,0.1,0.2,0.2,0.1,0.4l-0.7,3.8h2.4
		C244.1,285.8,244.3,286,244.3,286.3z M244.2,280.2c0.1,0.1,0.1,0.2,0.1,0.3c0,0.1,0,0.2-0.1,0.3c-0.1,0.1-0.2,0.1-0.4,0.1h-12
		c-0.3,0-0.5-0.2-0.5-0.5c0-0.3,0.2-0.5,0.5-0.5h11.9C243.9,280.1,244.1,280.1,244.2,280.2z"/>
	<path class="st4" d="M258.3,280.1c0.1,0.1,0.2,0.2,0.2,0.3c0,0.1,0,0.2-0.1,0.3c-0.1,0.1-0.3,0.1-0.4,0.1h-6.1
		c-0.3,0-0.5,0.1-0.6,0.2c-0.1,0.1-0.2,0.4-0.2,0.6v1.4h6.5c0.4,0,0.6,0.2,0.6,0.5c0,0.3-0.2,0.5-0.6,0.5H251v2c0,0.3,0,0.5,0.1,0.6
		c0.1,0.1,0.3,0.2,0.6,0.2c1.6,0,3-0.1,4.3-0.2c1.4-0.1,2.5-0.4,3.5-0.6c0.2-0.1,0.3-0.1,0.5,0c0.1,0,0.2,0.1,0.2,0.3
		c0,0.1,0,0.2,0,0.4c-0.1,0.1-0.2,0.2-0.3,0.3c-1,0.3-2.2,0.5-3.7,0.6c-1.4,0.1-2.8,0.2-4.3,0.2c-0.7,0-1.2-0.2-1.5-0.5
		c-0.3-0.3-0.5-0.8-0.5-1.4v-4.5c0-0.4,0.1-0.8,0.4-1.1c0.3-0.3,0.8-0.5,1.3-0.5h6.2C258,280,258.2,280,258.3,280.1z M261.5,290.3
		c1,0.5,1.5,1.2,1.5,2c0,0.8-0.5,1.5-1.5,2c-1.1,0.6-2.6,0.8-4.6,0.8c-2,0-3.6-0.3-4.7-0.8c-1-0.5-1.4-1.2-1.4-2
		c0-0.9,0.5-1.5,1.4-2c1.1-0.6,2.6-0.8,4.7-0.8C258.9,289.5,260.4,289.8,261.5,290.3z M253,291c-0.8,0.3-1.2,0.8-1.2,1.4
		c0,0.6,0.4,1,1.2,1.3c0.9,0.4,2.1,0.5,3.8,0.5c1.7,0,3-0.2,3.8-0.5c0.8-0.3,1.2-0.8,1.2-1.3c0-0.6-0.4-1-1.2-1.4
		c-0.9-0.3-2.1-0.5-3.8-0.5C255.1,290.5,253.9,290.6,253,291z M262.6,289c-0.1,0.1-0.2,0.1-0.4,0.1c-0.2,0-0.3,0-0.4-0.1
		c-0.1-0.1-0.2-0.3-0.2-0.4v-8.5c0-0.2,0.1-0.3,0.2-0.4c0.1-0.1,0.2-0.1,0.4-0.1c0.1,0,0.3,0,0.4,0.1c0.1,0.1,0.2,0.2,0.2,0.4v8.5
		C262.8,288.8,262.8,288.9,262.6,289z"/>
</g>
<g>
	<path class="st4" d="M343.9,293c0.1,0.1,0.1,0.2,0.1,0.3c0,0.1,0,0.2-0.1,0.3c-0.1,0.1-0.2,0.1-0.4,0.1h-14.4
		c-0.4,0-0.6-0.2-0.6-0.5c0-0.3,0.2-0.5,0.6-0.5h14.4C343.7,292.9,343.8,292.9,343.9,293z M335.9,279.9c0.1-0.1,0.2-0.1,0.4-0.1
		c0.1,0,0.3,0,0.4,0.1c0.1,0.1,0.2,0.3,0.2,0.5c0,1.9,0.6,3.5,1.9,4.8c1.1,1.2,2.5,1.9,4.1,2.2c0.2,0,0.3,0.1,0.4,0.2
		c0.1,0.1,0.1,0.2,0.1,0.4c0,0.1-0.1,0.2-0.2,0.3c-0.1,0.1-0.3,0.1-0.5,0.1c-1.4-0.3-2.8-1-4-2.1c-1.2-1.1-1.9-2.2-2.3-3.5
		c-0.4,1.3-1.1,2.4-2.3,3.5c-1.2,1.1-2.6,1.8-4.1,2.1c-0.2,0-0.3,0-0.5-0.1c-0.1-0.1-0.2-0.2-0.2-0.3c0-0.1,0-0.3,0.1-0.4
		c0.1-0.1,0.2-0.2,0.4-0.2c1.5-0.3,2.9-1.1,4-2.2c1.3-1.4,2-3,2-4.9C335.8,280.2,335.8,280,335.9,279.9z"/>
	<path class="st4" d="M355,288.9c0.1-0.1,0.2-0.1,0.4-0.1c0.1,0,0.3,0,0.4,0.1c0.1,0.1,0.2,0.2,0.2,0.4v3.5h6.6c0.2,0,0.3,0,0.4,0.1
		c0.1,0.1,0.1,0.2,0.1,0.3c0,0.1,0,0.2-0.1,0.3c-0.1,0.1-0.2,0.1-0.4,0.1H348c-0.1,0-0.2,0-0.3-0.1c-0.1-0.1-0.1-0.2-0.1-0.3
		c0-0.1,0.1-0.2,0.1-0.3c0.1-0.1,0.2-0.1,0.4-0.1h6.7v-3.6C354.8,289.1,354.9,289,355,288.9z M361.6,280.2c0.1,0.1,0.1,0.2,0.1,0.3
		c0,0.1,0,0.2-0.1,0.3c-0.1,0.1-0.2,0.2-0.4,0.2h-10.2c-0.3,0-0.6,0.1-0.7,0.2c-0.1,0.1-0.2,0.4-0.2,0.6v2.1h10.9
		c0.4,0,0.5,0.2,0.5,0.5c0,0.3-0.2,0.5-0.5,0.5h-10.9v2.4c0,0.3,0.1,0.4,0.2,0.6c0.1,0.1,0.3,0.2,0.6,0.2h10.3c0.2,0,0.3,0,0.4,0.1
		c0.1,0.1,0.1,0.2,0.1,0.3c0,0.1,0,0.2-0.1,0.3c-0.1,0.1-0.2,0.1-0.4,0.1h-10.5c-0.6,0-1-0.1-1.3-0.4c-0.3-0.3-0.5-0.7-0.5-1.2v-5.6
		c0-0.5,0.1-0.9,0.4-1.2c0.3-0.3,0.8-0.5,1.4-0.5h10.4C361.4,280.1,361.5,280.1,361.6,280.2z"/>
	<path class="st4" d="M374.5,280.5c0.3,0.2,0.5,0.6,0.5,1.1v3.6c0,0.5-0.1,0.8-0.4,1.1c-0.3,0.3-0.7,0.4-1.3,0.4h-4
		c-0.3,0-0.5,0.1-0.6,0.2c-0.1,0.1-0.2,0.4-0.2,0.7v4.2c0,0.3,0.1,0.6,0.2,0.7c0.1,0.2,0.4,0.2,0.8,0.2c1.4,0,2.8-0.1,4.1-0.4
		c1.3-0.2,2.4-0.6,3.3-1c0.3-0.2,0.5-0.1,0.7,0.2c0.1,0.3,0,0.5-0.3,0.7c-1,0.5-2.3,0.8-3.8,1c-1.4,0.2-2.8,0.3-4.3,0.3
		c-0.6,0-1.1-0.2-1.4-0.5c-0.3-0.3-0.4-0.8-0.4-1.3v-4.4c0-0.5,0.1-0.9,0.4-1.2c0.3-0.3,0.7-0.5,1.3-0.5h4c0.3,0,0.5,0,0.6-0.1
		c0.1-0.1,0.2-0.3,0.2-0.5v-3.2c0-0.2-0.1-0.4-0.3-0.6c-0.2-0.1-0.4-0.2-0.8-0.2h-5c-0.4,0-0.6-0.2-0.6-0.5c0-0.3,0.2-0.5,0.6-0.5
		h5.3C373.7,280.1,374.2,280.3,374.5,280.5z M380.1,295c-0.1,0.1-0.2,0.1-0.4,0.1c-0.2,0-0.3,0-0.4-0.1c-0.1-0.1-0.2-0.3-0.2-0.4
		v-14.4c0-0.2,0.1-0.3,0.2-0.4c0.1-0.1,0.2-0.1,0.4-0.1c0.1,0,0.3,0,0.4,0.1c0.1,0.1,0.2,0.2,0.2,0.4v14.4
		C380.3,294.7,380.2,294.8,380.1,295z"/>
	<path class="st4" d="M395.8,280.6c0,0.3-0.2,0.5-0.5,0.5h-3.7v3c0,1.9,0.4,3.7,1.2,5.3c0.8,1.5,1.8,2.7,3.1,3.4
		c0.2,0.1,0.3,0.2,0.3,0.4s0,0.3,0,0.4c-0.1,0.1-0.2,0.2-0.3,0.3c-0.2,0-0.3,0-0.5-0.1c-1-0.5-1.9-1.4-2.7-2.6
		c-0.8-1.2-1.4-2.5-1.6-3.7c-0.2,1.3-0.8,2.5-1.6,3.7c-0.8,1.2-1.8,2.1-2.8,2.6c-0.1,0.1-0.3,0.1-0.4,0c-0.1,0-0.2-0.1-0.3-0.3
		c-0.1-0.1-0.1-0.3-0.1-0.4c0-0.1,0.2-0.3,0.3-0.3c1.2-0.6,2.3-1.7,3.1-3.3c0.8-1.6,1.2-3.4,1.2-5.3v-3h-3.7c-0.3,0-0.5-0.2-0.5-0.5
		c0-0.3,0.2-0.5,0.5-0.5h8.4C395.6,280.2,395.8,280.3,395.8,280.6z M399.1,295c-0.1,0.1-0.2,0.1-0.4,0.1c-0.2,0-0.3,0-0.4-0.1
		c-0.1-0.1-0.2-0.3-0.2-0.4v-14.4c0-0.2,0.1-0.3,0.2-0.4c0.1-0.1,0.2-0.1,0.4-0.1c0.1,0,0.3,0,0.4,0.1c0.1,0.1,0.2,0.2,0.2,0.4v14.4
		C399.3,294.7,399.2,294.8,399.1,295z"/>
</g>
<g>
	<path class="st4" d="M447.7,279.3c0.1-0.1,0.2-0.1,0.4-0.1s0.3,0,0.4,0.1c0.1,0.1,0.2,0.2,0.2,0.4v10.6c0,0.3,0.1,0.6,0.2,0.7
		c0.1,0.1,0.4,0.2,0.7,0.2c0.9,0,1.8-0.1,2.5-0.2c0.7-0.1,1.4-0.2,1.9-0.4c0.1-0.1,0.3-0.1,0.4,0c0.1,0.1,0.2,0.2,0.2,0.3
		c0,0.1,0,0.3-0.1,0.4c-0.1,0.1-0.2,0.2-0.4,0.3c-0.6,0.2-1.3,0.3-2.1,0.4c-0.8,0.1-1.8,0.2-2.9,0.2c-0.6,0-1-0.2-1.3-0.5
		c-0.3-0.3-0.5-0.8-0.5-1.3v-10.6C447.5,279.6,447.6,279.4,447.7,279.3z M456.8,294c-0.1,0.1-0.2,0.1-0.4,0.1s-0.3,0-0.4-0.1
		c-0.1-0.1-0.2-0.3-0.2-0.4v-8.1h-3.2c-0.2,0-0.3,0-0.4-0.1c-0.1-0.1-0.2-0.2-0.2-0.3c0-0.1,0-0.2,0.1-0.3c0.1-0.1,0.2-0.1,0.4-0.1
		h3.3v-5.4c0-0.2,0.1-0.3,0.2-0.4c0.1-0.1,0.2-0.1,0.4-0.1s0.3,0,0.4,0.1c0.1,0.1,0.2,0.2,0.2,0.4v14.4
		C457,293.8,456.9,293.9,456.8,294z M460.7,294c-0.1,0.1-0.2,0.1-0.4,0.1c-0.1,0-0.3,0-0.4-0.1c-0.1-0.1-0.2-0.3-0.2-0.4v-14.4
		c0-0.2,0.1-0.3,0.2-0.4c0.1-0.1,0.2-0.1,0.4-0.1c0.1,0,0.3,0,0.4,0.1c0.1,0.1,0.2,0.2,0.2,0.4v14.4
		C460.9,293.8,460.8,293.9,460.7,294z"/>
	<path class="st4" d="M481,292.1c0.1,0.1,0.2,0.2,0.2,0.3c0,0.1,0,0.2-0.1,0.3c-0.1,0.1-0.2,0.1-0.3,0.1h-14.7c-0.1,0-0.2,0-0.3-0.1
		c-0.1-0.1-0.1-0.2-0.1-0.3c0-0.1,0.1-0.2,0.1-0.3c0.1-0.1,0.2-0.1,0.4-0.1h14.4C480.8,292,480.9,292,481,292.1z M479.8,279.3
		c0.1,0.1,0.1,0.2,0.1,0.3c0,0.1,0,0.2-0.1,0.3c-0.1,0.1-0.2,0.2-0.4,0.2h-10.2c-0.3,0-0.6,0.1-0.7,0.2c-0.1,0.1-0.2,0.4-0.2,0.6
		v2.1h10.9c0.4,0,0.5,0.2,0.5,0.5c0,0.3-0.2,0.5-0.5,0.5h-10.9v2.4c0,0.3,0.1,0.4,0.2,0.6c0.1,0.1,0.3,0.2,0.6,0.2h10.3
		c0.2,0,0.3,0,0.4,0.1c0.1,0.1,0.1,0.2,0.1,0.3c0,0.1,0,0.2-0.1,0.3c-0.1,0.1-0.2,0.1-0.4,0.1h-10.5c-0.6,0-1-0.1-1.3-0.4
		c-0.3-0.3-0.5-0.7-0.5-1.2v-5.6c0-0.5,0.1-0.9,0.4-1.2c0.3-0.3,0.8-0.5,1.4-0.5h10.4C479.5,279.2,479.7,279.2,479.8,279.3z"/>
	<path class="st4" d="M487.3,287.9c-0.9,0-1.7,0-2.4,0c-0.3,0-0.5-0.2-0.4-0.5c0-0.3,0.2-0.5,0.5-0.5c1.8,0,3.5,0,5.3-0.1
		c2,0,3.7-0.1,5-0.2c0.2,0,0.3,0,0.4,0.1c0.1,0.1,0.2,0.2,0.2,0.3c0,0.1,0,0.2-0.1,0.3c-0.1,0.1-0.2,0.2-0.4,0.2
		c-0.7,0.1-1.5,0.1-2.4,0.2c-0.8,0-1.5,0.1-2.2,0.1v2.2c0,0.8-0.1,1.5-0.3,2c-0.2,0.5-0.5,1-0.9,1.4c-0.3,0.2-0.5,0.2-0.8,0
		c-0.2-0.2-0.2-0.5,0-0.7c0.3-0.3,0.5-0.7,0.6-1.1c0.1-0.4,0.2-0.9,0.2-1.5v-2.3C489.2,287.9,488.4,287.9,487.3,287.9z M494,280.1
		c0.8,0.6,1.2,1.3,1.2,2.1c0,0.8-0.4,1.5-1.2,2.1c-0.9,0.6-2.1,1-3.6,1c-1.5,0-2.8-0.3-3.7-1c-0.8-0.6-1.2-1.3-1.2-2.1
		c0-0.8,0.4-1.6,1.2-2.1c0.9-0.6,2.1-0.9,3.7-0.9C491.9,279.1,493.1,279.5,494,280.1z M487.6,280.7c-0.6,0.4-0.9,0.9-0.9,1.5
		c0,0.6,0.3,1,0.9,1.4c0.7,0.4,1.6,0.7,2.8,0.7c1.2,0,2.1-0.2,2.8-0.7c0.6-0.4,0.9-0.9,0.9-1.4c0-0.6-0.3-1.1-0.9-1.5
		c-0.7-0.4-1.6-0.6-2.8-0.6C489.2,280.1,488.3,280.3,487.6,280.7z M498.2,294c-0.1,0.1-0.2,0.1-0.4,0.1c-0.2,0-0.3,0-0.4-0.1
		c-0.1-0.1-0.2-0.3-0.2-0.4V290h-3.5c-0.2,0-0.4-0.1-0.5-0.2c-0.1-0.1-0.2-0.2-0.2-0.3c0-0.1,0-0.2,0.1-0.3c0.1-0.1,0.3-0.1,0.4-0.1
		h3.6v-9.8c0-0.2,0.1-0.3,0.2-0.4c0.1-0.1,0.2-0.1,0.4-0.1c0.1,0,0.3,0,0.4,0.1c0.1,0.1,0.2,0.2,0.2,0.4v14.4
		C498.4,293.8,498.4,293.9,498.2,294z"/>
	<path class="st4" d="M519,292.1c0.1,0.1,0.2,0.2,0.2,0.3c0,0.1,0,0.2-0.1,0.3c-0.1,0.1-0.2,0.1-0.3,0.1h-14.7c-0.1,0-0.2,0-0.3-0.1
		c-0.1-0.1-0.1-0.2-0.1-0.3c0-0.1,0.1-0.2,0.1-0.3c0.1-0.1,0.2-0.1,0.4-0.1h14.4C518.8,292,518.9,292,519,292.1z M516.3,285
		c0,0.3-0.1,0.5-0.4,0.5c-1.6,0.2-3.3,0.3-5.3,0.4c-2,0.1-3.8,0.2-5.4,0.2c-0.3,0-0.5-0.2-0.5-0.5c0-0.3,0.2-0.5,0.5-0.5
		c1.7,0,3.4,0,5.3-0.1c2.1-0.1,3.8-0.2,5.3-0.4C516.2,284.6,516.3,284.7,516.3,285z M517.2,279.6c0.4,0.3,0.6,0.7,0.6,1.2v3.5
		c0,1.8-0.1,3.2-0.2,4.1c-0.2,1.1-0.5,2.3-1,3.5h-1.1c0.5-1.2,0.9-2.4,1-3.5c0.1-0.8,0.2-2.2,0.2-4v-3.6c0-0.2-0.1-0.4-0.2-0.5
		c-0.1-0.1-0.4-0.2-0.7-0.2h-9.9c-0.3,0-0.5-0.2-0.5-0.5c0-0.3,0.2-0.5,0.5-0.5h10C516.3,279.2,516.8,279.3,517.2,279.6z"/>
</g>
<g>
</g>
<g>
</g>
<g>
</g>
</svg>
