<?xml version="1.0" encoding="UTF-8" standalone="no"?>
<!-- Generator: Adobe Illustrator 21.0.0, SVG Export Plug-In . SVG Version: 6.00 Build 0)  -->

<svg
   xmlns:dc="http://purl.org/dc/elements/1.1/"
   xmlns:cc="http://creativecommons.org/ns#"
   xmlns:rdf="http://www.w3.org/1999/02/22-rdf-syntax-ns#"
   xmlns:svg="http://www.w3.org/2000/svg"
   xmlns="http://www.w3.org/2000/svg"
   xmlns:sodipodi="http://sodipodi.sourceforge.net/DTD/sodipodi-0.dtd"
   xmlns:inkscape="http://www.inkscape.org/namespaces/inkscape"
   version="1.1"
   x="0px"
   y="0px"
   viewBox="0 0 567 390"
   style="enable-background:new 0 0 567 390;"
   xml:space="preserve"
   id="svg2"
   inkscape:version="0.91 r13725"
   sodipodi:docname="source_hybrid_cloud_services.svg"><metadata
     id="metadata118"><rdf:RDF><cc:Work
         rdf:about=""><dc:format>image/svg+xml</dc:format><dc:type
           rdf:resource="http://purl.org/dc/dcmitype/StillImage" /></cc:Work></rdf:RDF></metadata><defs
     id="defs116" /><sodipodi:namedview
     pagecolor="#ffffff"
     bordercolor="#666666"
     borderopacity="1"
     objecttolerance="10"
     gridtolerance="10"
     guidetolerance="10"
     inkscape:pageopacity="0"
     inkscape:pageshadow="2"
     inkscape:window-width="1920"
     inkscape:window-height="1015"
     id="namedview114"
     showgrid="false"
     inkscape:zoom="2.3510204"
     inkscape:cx="280.70893"
     inkscape:cy="197.25"
     inkscape:window-x="-8"
     inkscape:window-y="-8"
     inkscape:window-maximized="1"
     inkscape:current-layer="svg2" /><style
     type="text/css"
     id="style4">
	.st0{fill:#E4EFCA;}
	.st1{fill:none;stroke:#000000;stroke-width:0.75;stroke-miterlimit:10;}
	.st2{fill:none;stroke:#000000;stroke-width:0.75;stroke-miterlimit:10;stroke-dasharray:5.0309,5.0309;}
	.st3{fill:none;stroke:#000000;stroke-width:0.75;stroke-miterlimit:10;stroke-dasharray:4.9419,4.9419;}
	.st4{fill:none;stroke:#000000;stroke-width:0.75;stroke-miterlimit:10;stroke-dasharray:5.0381,5.0381;}
	.st5{fill:none;stroke:#000000;stroke-width:0.75;stroke-miterlimit:10;stroke-dasharray:4.9245,4.9245;}
	.st6{fill:#FFFFFF;stroke:#8CC63F;stroke-width:8;stroke-miterlimit:10;}
	.st7{fill:#F9C73D;}
	.st8{font-family:'MyriadPro-Regular';}
	.st9{font-size:18px;}
	.st10{fill:#8CC63F;stroke:#009245;stroke-width:0.25;stroke-miterlimit:10;}
	.st11{fill:#29ABE2;stroke:#0071BC;stroke-width:0.25;stroke-miterlimit:10;}
	.st12{fill:#F9C73D;stroke:#000000;stroke-width:0.75;stroke-miterlimit:10;}
	.st13{fill:#FFFFFF;stroke:#000000;stroke-width:0.75;stroke-miterlimit:10;}
	.st14{font-size:21px;}
	.st15{fill:#FFFFFF;stroke:#4D4D4D;stroke-width:2;stroke-miterlimit:10;}
</style><g
     id="inner_box"><g
       id="g7"><rect
         x="37"
         y="91"
         class="st0"
         width="493"
         height="217.5"
         id="rect9" /><g
         id="g11"><polyline
           class="st1"
           points="530,306 530,308.5 527.5,308.5    "
           id="polyline13" /><line
           class="st2"
           x1="522.5"
           y1="308.5"
           x2="42"
           y2="308.5"
           id="line15" /><polyline
           class="st1"
           points="39.5,308.5 37,308.5 37,306    "
           id="polyline17" /><line
           class="st3"
           x1="37"
           y1="301.1"
           x2="37"
           y2="96"
           id="line19" /><polyline
           class="st1"
           points="37,93.5 37,91 39.5,91    "
           id="polyline21" /><line
           class="st2"
           x1="44.5"
           y1="91"
           x2="525"
           y2="91"
           id="line23" /><polyline
           class="st1"
           points="527.5,91 530,91 530,93.5    "
           id="polyline25" /><line
           class="st3"
           x1="530"
           y1="98.4"
           x2="530"
           y2="303.5"
           id="line27" /></g></g></g><g
     id="outter_box"><g
       id="g30"><g
         id="g32"><polyline
           class="st1"
           points="549.5,322 549.5,324.5 547,324.5    "
           id="polyline34" /><line
           class="st4"
           x1="542"
           y1="324.5"
           x2="20.5"
           y2="324.5"
           id="line36" /><polyline
           class="st1"
           points="18,324.5 15.5,324.5 15.5,322    "
           id="polyline38" /><line
           class="st5"
           x1="15.5"
           y1="317.1"
           x2="15.5"
           y2="63.5"
           id="line40" /><polyline
           class="st1"
           points="15.5,61 15.5,58.5 18,58.5    "
           id="polyline42" /><line
           class="st4"
           x1="23"
           y1="58.5"
           x2="544.5"
           y2="58.5"
           id="line44" /><polyline
           class="st1"
           points="547,58.5 549.5,58.5 549.5,61    "
           id="polyline46" /><line
           class="st5"
           x1="549.5"
           y1="65.9"
           x2="549.5"
           y2="319.5"
           id="line48" /></g></g></g><g
     id="lines" /><g
     id="bottom_explanation"><g
       id="g52"><g
         id="g54"><path
           class="st6"
           d="M142,340.3h-10.9c-3.3,0-6,2.7-6,6v4h-4c-3.3,0-6,2.7-6,6v10.2c0,3.3,2.7,6,6,6h10.3c3.3,0,6-2.7,6-6V364     h4.6c3.3,0,6-2.7,6-6v-11.6C148,343,145.3,340.3,142,340.3z"
           id="path56" /><path
           class="st7"
           d="M129.8,366.1h-7.3c-0.9,0-1.7-0.8-1.7-1.7v-6.6c0-0.9,0.8-1.7,1.7-1.7h7.3c0.9,0,1.7,0.8,1.7,1.7v6.6     C131.5,365.3,130.7,366.1,129.8,366.1z"
           id="path58" /><path
           class="st7"
           d="M139.8,357.5h-7.3c-0.9,0-1.7-0.8-1.7-1.7v-7.3c0-0.9,0.8-1.7,1.7-1.7h7.3c0.9,0,1.7,0.8,1.7,1.7v7.3     C141.5,356.8,140.8,357.5,139.8,357.5z"
           id="path60" /></g><text
         transform="matrix(1 0 0 1 156 364.5854)"
         class="st8 st9"
         id="text62"><tspan
           style="-inkscape-font-specification:Arial;font-family:Arial;font-weight:normal;font-style:normal;font-stretch:normal;font-variant:normal"
           id="tspan4252">vCenter</tspan></text>
</g><g
       id="g64"><g
         id="g66"><path
           class="st10"
           d="M317.3,359.3v-7.9c0-1.9-1.5-3.4-3.2-3.4h-4.2V338h6.9c5.1,0,9.2,4.3,9.2,9.7v15.3c0,5.3-4.1,9.7-9.2,9.7     h-6.9v-9.8h4.2C315.9,362.7,317.3,361.2,317.3,359.3z"
           id="path68" /><path
           class="st11"
           d="M312.4,350h-4.2V338h-6.5c-4.8,0-8.7,4.3-8.7,9.7v15.3c0,5.3,3.9,9.7,8.7,9.7h6.5v-11.3h4.2     c1.3,0,2.4-1.2,2.4-2.6v-6C314.7,351.2,313.7,350,312.4,350z"
           id="path70" /></g><text
         transform="matrix(1 0 0 1 331 361)"
         class="st8 st9"
         id="text72"><tspan
           style="-inkscape-font-specification:Gulim;font-family:Gulim;font-weight:normal;font-style:normal;font-stretch:normal;font-variant:normal;font-size:16.25px"
           id="tspan4250">하이브리드 클라우드 서비스</tspan></text>
</g></g><g
     id="hybrid_cloud_services"><g
       id="g75"><line
         class="st1"
         x1="205.5"
         y1="171.5"
         x2="205.5"
         y2="218.5"
         id="line77" /><g
         id="g79"><path
           class="st10"
           d="M214.7,154.3v-10.2c0-2.4-1.9-4.4-4.2-4.4H205v-13.1h9c6.6,0,12,5.7,12,12.6V159c0,6.9-5.4,12.6-12,12.6h-9     v-12.8h5.5C212.8,158.8,214.7,156.8,214.7,154.3z"
           id="path81" /><path
           class="st11"
           d="M208.2,142.2h-5.4v-15.7h-8.5c-6.2,0-11.3,5.7-11.3,12.6V159c0,6.9,5.1,12.6,11.3,12.6h8.5v-14.7h5.4     c1.7,0,3.1-1.5,3.1-3.4v-7.9C211.3,143.8,209.9,142.2,208.2,142.2z"
           id="path83" /></g></g></g><g
     id="mngt_network"><g
       id="g86"><path
         class="st12"
         d="M512,243.5c0-12.7-5.3-23-12-23.5v0H65v0c-6.7,0.5-12,10.8-12,23.5c0,12.7,5.3,23,12,23.5v0h435v0    C506.7,266.5,512,256.2,512,243.5z"
         id="path88" /><ellipse
         class="st13"
         cx="499"
         cy="244"
         rx="8.5"
         ry="19.5"
         id="ellipse90" /></g><text
       class="st8 st14"
       id="text92"
       x="223"
       y="251"
       style="font-size:21px;font-family:MyriadPro-Regular"><tspan
         style="font-style:normal;font-variant:normal;font-weight:normal;font-stretch:normal;font-family:Gulim;-inkscape-font-specification:Gulim"
         id="tspan4248">관리 네트워크</tspan></text>
</g><g
     id="vcenter"><g
       id="g95"><line
         class="st1"
         x1="117.5"
         y1="174.5"
         x2="117.5"
         y2="218.5"
         id="line97" /><g
         id="g99"><path
           class="st6"
           d="M140.6,125h-15.2c-4.6,0-8.4,3.8-8.4,8.4v5.6h-5.6c-4.6,0-8.4,3.8-8.4,8.4v14.2c0,4.6,3.8,8.4,8.4,8.4h14.3     c4.6,0,8.4-3.8,8.4-8.4V158h6.4c4.6,0,8.4-3.8,8.4-8.4v-16.2C149,128.8,145.2,125,140.6,125z"
           id="path101" /><path
           class="st7"
           d="M124.3,160.9h-11.6c-0.9,0-1.7-0.8-1.7-1.7v-10.5c0-0.9,0.8-1.7,1.7-1.7h11.6c0.9,0,1.7,0.8,1.7,1.7v10.5     C126,160.2,125.2,160.9,124.3,160.9z"
           id="path103" /><path
           class="st7"
           d="M138.3,149h-11.6c-0.9,0-1.7-0.8-1.7-1.7v-11.6c0-0.9,0.8-1.7,1.7-1.7h11.6c0.9,0,1.7,0.8,1.7,1.7v11.6     C140,148.2,139.2,149,138.3,149z"
           id="path105" /></g></g></g><g
     id="Layer_2"><g
       id="g108"><path
         class="st15"
         d="M110.6,32.9c-6.6,0-12.6,1.5-17.5,4.1c-1.8-15.2-14.1-27-29.1-27c-15.4,0-28,12.5-29.2,28.3    c-1.3-0.5-2.7-0.8-4.2-0.8c-7.8,0-14.2,8.2-14.2,18.3c0,10.1,6.3,18.3,14.2,18.3c1.7,0,3.4-0.4,4.9-1.1h65.5    c3,0.7,6.2,1.1,9.6,1.1c16.2,0,29.4-9.2,29.4-20.6C140,42.1,126.9,32.9,110.6,32.9z"
         id="path110" /><text
         transform="matrix(1 0 0 1 30 59.0682)"
         class="st8 st9"
         id="text112"><tspan
           style="-inkscape-font-specification:Gulim;font-family:Gulim;font-weight:normal;font-style:normal;font-stretch:normal;font-variant:normal"
           id="tspan4246">데이터 센터</tspan></text>
</g></g></svg>
