<?xml version="1.0" encoding="utf-8"?>
<!-- Generator: Adobe Illustrator 19.2.1, SVG Export Plug-In . SVG Version: 6.00 Build 0)  -->
<svg version="1.1" id="Layer_1" xmlns="http://www.w3.org/2000/svg" xmlns:xlink="http://www.w3.org/1999/xlink" x="0px" y="0px"
	 viewBox="0 0 600 320" style="enable-background:new 0 0 600 320;" xml:space="preserve">
<style type="text/css">
	.st0{fill:#4C85C5;}
	.st1{fill:#969696;}
	.st2{fill:#1BA88E;}
	.st3{fill:#FFFFFF;}
</style>
<rect class="st0" width="600" height="100"/>
<rect y="220" class="st1" width="600" height="100"/>
<rect y="110" class="st2" width="297.5" height="100"/>
<rect x="305.3" y="110" class="st2" width="294.7" height="100"/>
<g>
	<path class="st3" d="M245.5,24.9c0.5,0.4,0.7,1,0.7,1.8v3c0,3.9-1,7-3.1,9.2c-1.9,2.1-4.4,3.3-7.5,3.5c-0.5,0-0.7-0.2-0.8-0.6
		c0-0.4,0.2-0.7,0.7-0.7c2.9-0.3,5.1-1.4,6.7-3.2c1.7-2,2.5-4.7,2.5-8.3v-3c0-0.4-0.1-0.6-0.3-0.8c-0.2-0.2-0.5-0.3-0.9-0.3h-7.5
		c-0.5,0-0.7-0.2-0.7-0.7c0-0.4,0.2-0.6,0.7-0.6h7.5C244.4,24.2,245.1,24.4,245.5,24.9z M255.5,33.4c0.4,0,0.6,0.2,0.6,0.6
		c0,0.4-0.2,0.6-0.6,0.6h-2.8v9.3c0,0.2-0.1,0.4-0.3,0.5c-0.1,0.1-0.3,0.2-0.5,0.2s-0.4-0.1-0.5-0.2c-0.2-0.1-0.2-0.3-0.2-0.5V24.1
		c0-0.2,0.1-0.4,0.2-0.5c0.1-0.1,0.3-0.2,0.5-0.2s0.4,0.1,0.5,0.2c0.2,0.1,0.3,0.3,0.3,0.5v9.3H255.5z"/>
	<path class="st3" d="M266.9,24c0.1-0.1,0.3-0.2,0.5-0.2s0.4,0.1,0.5,0.2c0.2,0.1,0.3,0.3,0.3,0.6c0,0.5-0.1,1.1-0.2,1.7
		c-0.1,0.4-0.2,0.9-0.4,1.5c1.5,1.1,2.7,2,3.7,2.9c0.9,0.8,1.8,1.9,2.7,3.1c0.2,0.2,0.2,0.4,0.2,0.7c0,0.2-0.1,0.3-0.3,0.5
		c-0.2,0.1-0.3,0.2-0.5,0.1c-0.2,0-0.4-0.2-0.6-0.4c-0.8-1.1-1.7-2.1-2.6-3c-0.9-0.9-1.9-1.8-3.1-2.6c-0.7,1.4-1.3,2.5-2.1,3.4
		c-0.8,1-1.9,2-3.1,3c-0.2,0.1-0.4,0.2-0.6,0.2c-0.2,0-0.3-0.1-0.4-0.3c-0.1-0.2-0.2-0.3-0.1-0.5c0-0.2,0.2-0.4,0.4-0.5
		c1.8-1.2,3.2-2.9,4.2-5c0.9-1.7,1.3-3.3,1.3-4.7C266.7,24.3,266.7,24.1,266.9,24z M277.1,38.1c1.3,0.7,2,1.6,2,2.8
		c0,1.1-0.7,2-2,2.7c-1.5,0.8-3.5,1.1-6.2,1.1c-2.7,0-4.8-0.4-6.3-1.1c-1.3-0.7-2-1.6-2-2.7c0-1.2,0.7-2.1,2-2.8
		c1.5-0.8,3.5-1.1,6.3-1.1C273.6,37,275.7,37.4,277.1,38.1z M265.7,39c-1.1,0.5-1.6,1.1-1.6,1.9c0,0.8,0.5,1.4,1.6,1.8
		c1.2,0.5,2.9,0.7,5.2,0.7c2.2,0,3.9-0.2,5.1-0.7c1.1-0.4,1.6-1,1.6-1.8c0-0.8-0.5-1.4-1.6-1.9c-1.2-0.5-2.9-0.7-5.1-0.7
		C268.6,38.3,266.9,38.5,265.7,39z M281.4,29.6c0.2,0,0.4,0.1,0.5,0.2c0.1,0.1,0.2,0.3,0.2,0.5c0,0.2-0.1,0.3-0.2,0.5
		c-0.1,0.1-0.3,0.2-0.5,0.2h-2.8v5c0,0.2-0.1,0.4-0.3,0.6c-0.1,0.1-0.3,0.2-0.5,0.2s-0.4-0.1-0.5-0.2c-0.2-0.2-0.2-0.3-0.2-0.6V24.1
		c0-0.5,0.2-0.7,0.7-0.7c0.5,0,0.8,0.2,0.8,0.7v5.5H281.4z"/>
	<path class="st3" d="M298,41.2c1.1-0.2,2.2-0.5,3.3-0.9c0.5-0.2,0.8-0.1,0.9,0.3c0.1,0.4,0,0.7-0.4,0.8c-1.8,0.6-4,1.1-6.5,1.3
		c-2.1,0.2-4.7,0.3-8,0.3c-0.3,0-0.5-0.1-0.7-0.2c-0.2-0.1-0.2-0.3-0.2-0.5c0-0.2,0.1-0.3,0.2-0.5c0.2-0.1,0.3-0.2,0.6-0.2
		c0.8,0,1.7,0,2.7,0c1.3,0,2.5-0.1,3.7-0.1v-4.3h1.5v4.2C296,41.6,297,41.4,298,41.2z M300.8,27.4c0.1,0.1,0.2,0.3,0.2,0.5
		c0,0.2-0.1,0.3-0.2,0.4c-0.1,0.2-0.3,0.2-0.5,0.2h-12.1c-0.5,0-0.7-0.2-0.7-0.7c0-0.4,0.2-0.7,0.7-0.7h12
		C300.5,27.2,300.7,27.2,300.8,27.4z M298.5,31.3c0.9,0.8,1.4,1.7,1.4,2.7c0,1.1-0.5,2-1.4,2.8c-1,0.8-2.4,1.3-4.2,1.3
		c-1.8,0-3.2-0.4-4.3-1.3c-0.9-0.8-1.4-1.7-1.4-2.8c0-1.1,0.5-2,1.4-2.7c1.1-0.8,2.5-1.2,4.3-1.2C296.1,30.1,297.5,30.5,298.5,31.3z
		 M298.5,24.8c0,0.4-0.2,0.6-0.7,0.6h-7.1c-0.5,0-0.7-0.2-0.7-0.6c0-0.4,0.2-0.6,0.7-0.6h7C298.3,24.2,298.5,24.4,298.5,24.8z
		 M291.1,32.2c-0.7,0.5-1,1.1-1,1.9c0,0.8,0.3,1.4,1,1.9c0.8,0.6,1.8,0.9,3.2,0.9c1.3,0,2.4-0.3,3.1-0.9c0.7-0.5,1-1.1,1-1.9
		c0-0.7-0.3-1.4-1-1.9c-0.7-0.6-1.8-0.8-3.1-0.8C293,31.4,291.9,31.6,291.1,32.2z M307.4,33.6c0.2,0,0.4,0.1,0.5,0.2
		c0.1,0.1,0.2,0.3,0.2,0.4c0,0.2-0.1,0.3-0.2,0.4c-0.1,0.1-0.2,0.2-0.4,0.2h-2.9v9.1c0,0.2-0.1,0.4-0.3,0.5
		c-0.1,0.1-0.3,0.2-0.5,0.2s-0.4-0.1-0.5-0.2c-0.2-0.1-0.2-0.3-0.2-0.6V24.1c0-0.2,0.1-0.4,0.2-0.5c0.1-0.1,0.3-0.2,0.5-0.2
		s0.4,0.1,0.5,0.2c0.2,0.1,0.3,0.3,0.3,0.5v9.5H307.4z"/>
	<path class="st3" d="M323.9,29.4c0.1-0.1,0.3-0.2,0.5-0.2c0.2,0,0.3,0.1,0.5,0.2c0.2,0.1,0.2,0.3,0.2,0.6V35c1.1,0,2.4-0.2,3.9-0.4
		c1.5-0.2,2.8-0.4,3.8-0.6c0.3-0.1,0.5-0.1,0.6,0c0.2,0.1,0.3,0.2,0.3,0.4c0,0.2,0,0.3-0.1,0.5s-0.3,0.3-0.5,0.3
		c-1.6,0.4-3.7,0.7-6.4,0.9c-2.6,0.2-5.3,0.3-8.1,0.3c-0.3,0-0.5-0.1-0.6-0.2c-0.1-0.1-0.2-0.3-0.2-0.4c0-0.2,0.1-0.3,0.2-0.5
		c0.2-0.1,0.4-0.2,0.6-0.2c0.9,0,1.6,0,2.2,0c1.1,0,2,0,2.7,0V30C323.7,29.7,323.8,29.5,323.9,29.4z M331,24.8
		c0.5,0.4,0.7,0.9,0.7,1.6v0.8c0,1-0.1,1.9-0.2,2.7c-0.2,1.1-0.6,2-1.2,2.7c-0.3,0.4-0.7,0.5-1.1,0.3c-0.4-0.2-0.5-0.5-0.2-1
		c0.5-0.7,0.8-1.5,1-2.4c0.2-0.6,0.2-1.4,0.2-2.4v-0.6c0-0.4-0.1-0.6-0.3-0.8c-0.2-0.2-0.4-0.3-0.8-0.3h-9.4c-0.4,0-0.7-0.2-0.7-0.7
		c0-0.4,0.2-0.6,0.7-0.6h9.2C329.8,24.2,330.5,24.4,331,24.8z M322,41.6c0,0.5,0.1,0.8,0.3,0.9c0.2,0.2,0.5,0.2,1,0.2h13.4
		c0.4,0,0.7,0.2,0.7,0.6c0,0.4-0.2,0.7-0.7,0.7h-13.9c-0.7,0-1.2-0.2-1.7-0.6s-0.6-1-0.6-1.6v-3c0-0.2,0.1-0.4,0.2-0.6
		c0.1-0.1,0.3-0.2,0.5-0.2s0.4,0.1,0.5,0.2c0.2,0.1,0.3,0.3,0.3,0.6V41.6z M339,30.9c0.4,0,0.7,0.2,0.7,0.6c0,0.4-0.2,0.7-0.6,0.7
		h-2.8v6.3c0,0.2-0.1,0.4-0.3,0.6c-0.1,0.1-0.3,0.2-0.5,0.2s-0.4-0.1-0.5-0.2c-0.2-0.2-0.2-0.3-0.2-0.6V24.1c0-0.2,0.1-0.4,0.2-0.5
		c0.1-0.1,0.3-0.2,0.5-0.2s0.4,0.1,0.5,0.2c0.2,0.1,0.3,0.3,0.3,0.5v6.8H339z"/>
	<path class="st3" d="M355,24.7c0.4,0.3,0.7,0.8,0.7,1.4V31c0,0.6-0.2,1.1-0.6,1.5c-0.4,0.4-1,0.5-1.8,0.5h-5.4
		c-0.4,0-0.7,0.1-0.9,0.3c-0.2,0.2-0.2,0.5-0.2,0.9v5.7c0,0.5,0.1,0.8,0.3,1c0.2,0.2,0.6,0.3,1.1,0.3c1.9,0,3.8-0.2,5.7-0.5
		c1.8-0.3,3.3-0.8,4.5-1.3c0.4-0.2,0.7-0.1,0.9,0.3c0.2,0.4,0.1,0.7-0.4,1c-1.4,0.6-3.2,1.1-5.3,1.4c-1.9,0.3-3.8,0.5-5.8,0.5
		c-0.8,0-1.5-0.2-1.9-0.7c-0.4-0.4-0.6-1-0.6-1.8v-6c0-0.7,0.2-1.3,0.6-1.7c0.4-0.4,1-0.7,1.8-0.7h5.5c0.4,0,0.7-0.1,0.9-0.2
		c0.2-0.1,0.3-0.4,0.3-0.7v-4.3c0-0.3-0.1-0.6-0.4-0.8c-0.2-0.2-0.6-0.2-1.1-0.2h-6.8c-0.5,0-0.8-0.2-0.8-0.6c0-0.4,0.3-0.6,0.8-0.6
		h7.3C354,24.2,354.6,24.3,355,24.7z M362.7,44.5c-0.1,0.1-0.3,0.2-0.5,0.2c-0.2,0-0.4-0.1-0.5-0.2c-0.2-0.2-0.2-0.3-0.2-0.6V24.1
		c0-0.2,0.1-0.4,0.2-0.5c0.1-0.1,0.3-0.2,0.5-0.2c0.2,0,0.4,0.1,0.5,0.2c0.2,0.1,0.3,0.3,0.3,0.5v19.8
		C362.9,44.1,362.8,44.3,362.7,44.5z"/>
	<path class="st3" d="M179.3,77.4l-5.7-17.5h2.4l2.7,8.6c0.8,2.4,1.4,4.5,1.9,6.6h0.1c0.5-2,1.2-4.2,2-6.5l3-8.7h2.4l-6.3,17.5
		H179.3z"/>
	<path class="st3" d="M204.8,69.7c-0.1-2.4-0.3-5.4-0.3-7.6h-0.1c-0.6,2.1-1.3,4.2-2.2,6.7l-3.1,8.5h-1.7l-2.8-8.3
		c-0.8-2.5-1.5-4.7-2-6.8h-0.1c-0.1,2.2-0.2,5.1-0.3,7.7l-0.5,7.5h-2.2l1.2-17.5h2.9l3,8.5c0.7,2.2,1.3,4.1,1.8,5.9h0.1
		c0.4-1.8,1.1-3.7,1.8-5.9l3.1-8.5h2.9l1.1,17.5h-2.2L204.8,69.7z"/>
	<path class="st3" d="M211.9,64.8l1.7,6.4c0.4,1.4,0.7,2.7,0.9,4h0.1c0.3-1.3,0.7-2.6,1.1-4l2.1-6.4h1.9l2,6.3
		c0.5,1.5,0.8,2.8,1.1,4.1h0.1c0.2-1.3,0.5-2.6,1-4.1l1.8-6.3h2.3l-4.1,12.6h-2.1l-1.9-6c-0.4-1.4-0.8-2.7-1.1-4.1h-0.1
		c-0.3,1.5-0.7,2.8-1.1,4.2l-2,6h-2.1l-3.8-12.6H211.9z"/>
	<path class="st3" d="M237,77.4l-0.2-1.6h-0.1c-0.7,1-2.1,1.9-3.8,1.9c-2.5,0-3.8-1.8-3.8-3.6c0-3,2.7-4.7,7.6-4.7v-0.3
		c0-1-0.3-2.9-2.9-2.9c-1.2,0-2.4,0.4-3.3,0.9l-0.5-1.5c1-0.7,2.5-1.1,4.1-1.1c3.8,0,4.8,2.6,4.8,5.1v4.7c0,1.1,0.1,2.2,0.2,3H237z
		 M236.7,70.9c-2.5-0.1-5.3,0.4-5.3,2.8c0,1.5,1,2.2,2.2,2.2c1.6,0,2.7-1,3-2.1c0.1-0.2,0.1-0.5,0.1-0.7V70.9z"/>
	<path class="st3" d="M242.6,68.7c0-1.5,0-2.8-0.1-3.9h2l0.1,2.5h0.1c0.6-1.7,2-2.8,3.5-2.8c0.3,0,0.4,0,0.6,0.1v2.2
		c-0.2-0.1-0.5-0.1-0.8-0.1c-1.6,0-2.8,1.2-3.1,2.9c-0.1,0.3-0.1,0.7-0.1,1.1v6.7h-2.3V68.7z"/>
	<path class="st3" d="M252.1,71.5c0.1,3.1,2,4.4,4.3,4.4c1.6,0,2.6-0.3,3.5-0.6l0.4,1.6c-0.8,0.4-2.2,0.8-4.2,0.8
		c-3.9,0-6.2-2.5-6.2-6.3c0-3.8,2.2-6.8,5.9-6.8c4.1,0,5.2,3.6,5.2,5.9c0,0.5-0.1,0.8-0.1,1.1H252.1z M258.8,69.9
		c0-1.5-0.6-3.7-3.2-3.7c-2.3,0-3.3,2.1-3.5,3.7H258.8z"/>
	<path class="st3" d="M270.2,64.8l2.5,7.1c0.4,1.1,0.8,2.2,1,3.2h0.1c0.3-1,0.6-2.1,1.1-3.2l2.4-7.1h2.4l-4.9,12.6h-2.2l-4.8-12.6
		H270.2z"/>
	<path class="st3" d="M294.2,76.8c-0.8,0.4-2.5,0.8-4.6,0.8c-4.9,0-8.7-3.1-8.7-8.9c0-5.5,3.7-9.2,9.2-9.2c2.2,0,3.6,0.5,4.2,0.8
		l-0.5,1.8c-0.9-0.4-2.1-0.7-3.5-0.7c-4.1,0-6.8,2.6-6.8,7.2c0,4.3,2.5,7,6.7,7c1.4,0,2.8-0.3,3.7-0.7L294.2,76.8z"/>
	<path class="st3" d="M297.9,71.5c0.1,3.1,2,4.4,4.3,4.4c1.6,0,2.6-0.3,3.5-0.6l0.4,1.6c-0.8,0.4-2.2,0.8-4.2,0.8
		c-3.9,0-6.2-2.5-6.2-6.3c0-3.8,2.2-6.8,5.9-6.8c4.1,0,5.2,3.6,5.2,5.9c0,0.5-0.1,0.8-0.1,1.1H297.9z M304.6,69.9
		c0-1.5-0.6-3.7-3.2-3.7c-2.3,0-3.3,2.1-3.5,3.7H304.6z"/>
	<path class="st3" d="M309.7,68.2c0-1.3,0-2.4-0.1-3.4h2l0.1,2.1h0.1c0.6-1.2,2.1-2.4,4.2-2.4c1.7,0,4.4,1,4.4,5.4v7.5h-2.3v-7.3
		c0-2-0.8-3.7-2.9-3.7c-1.5,0-2.7,1.1-3.1,2.3c-0.1,0.3-0.2,0.7-0.2,1.1v7.6h-2.3V68.2z"/>
	<path class="st3" d="M326.7,61.2v3.6h3.3v1.7h-3.3v6.8c0,1.6,0.4,2.4,1.7,2.4c0.6,0,1-0.1,1.3-0.2l0.1,1.7c-0.4,0.2-1.1,0.3-2,0.3
		c-1.1,0-1.9-0.3-2.5-1c-0.7-0.7-0.9-1.8-0.9-3.3v-6.9h-1.9v-1.7h1.9v-3L326.7,61.2z"/>
	<path class="st3" d="M333.7,71.5c0.1,3.1,2,4.4,4.3,4.4c1.6,0,2.6-0.3,3.5-0.6l0.4,1.6c-0.8,0.4-2.2,0.8-4.2,0.8
		c-3.9,0-6.2-2.5-6.2-6.3c0-3.8,2.2-6.8,5.9-6.8c4.1,0,5.2,3.6,5.2,5.9c0,0.5-0.1,0.8-0.1,1.1H333.7z M340.4,69.9
		c0-1.5-0.6-3.7-3.2-3.7c-2.3,0-3.3,2.1-3.5,3.7H340.4z"/>
	<path class="st3" d="M345.5,68.7c0-1.5,0-2.8-0.1-3.9h2l0.1,2.5h0.1c0.6-1.7,2-2.8,3.5-2.8c0.3,0,0.4,0,0.6,0.1v2.2
		c-0.2-0.1-0.5-0.1-0.8-0.1c-1.6,0-2.8,1.2-3.1,2.9c-0.1,0.3-0.1,0.7-0.1,1.1v6.7h-2.3V68.7z"/>
	<path class="st3" d="M359.2,74.6c1,0.6,2.5,1.1,4.1,1.1c2.3,0,3.7-1.2,3.7-3c0-1.6-0.9-2.6-3.3-3.5c-2.9-1-4.6-2.5-4.6-5
		c0-2.7,2.3-4.8,5.7-4.8c1.8,0,3.1,0.4,3.9,0.9l-0.6,1.8c-0.6-0.3-1.7-0.8-3.3-0.8c-2.4,0-3.3,1.4-3.3,2.6c0,1.6,1.1,2.4,3.5,3.4
		c3,1.1,4.5,2.6,4.5,5.1c0,2.7-2,5-6.1,5c-1.7,0-3.5-0.5-4.5-1.1L359.2,74.6z"/>
	<path class="st3" d="M373.7,71.5c0.1,3.1,2,4.4,4.3,4.4c1.6,0,2.6-0.3,3.5-0.6l0.4,1.6c-0.8,0.4-2.2,0.8-4.2,0.8
		c-3.9,0-6.2-2.5-6.2-6.3c0-3.8,2.2-6.8,5.9-6.8c4.1,0,5.2,3.6,5.2,5.9c0,0.5-0.1,0.8-0.1,1.1H373.7z M380.4,69.9
		c0-1.5-0.6-3.7-3.2-3.7c-2.3,0-3.3,2.1-3.5,3.7H380.4z"/>
	<path class="st3" d="M385.5,68.7c0-1.5,0-2.8-0.1-3.9h2l0.1,2.5h0.1c0.6-1.7,2-2.8,3.5-2.8c0.3,0,0.4,0,0.7,0.1v2.2
		c-0.2-0.1-0.5-0.1-0.8-0.1c-1.6,0-2.8,1.2-3.1,2.9c-0.1,0.3-0.1,0.7-0.1,1.1v6.7h-2.3V68.7z"/>
	<path class="st3" d="M395.5,64.8l2.5,7.1c0.4,1.1,0.8,2.2,1,3.2h0.1c0.3-1,0.6-2.1,1.1-3.2l2.4-7.1h2.4L400,77.4h-2.2l-4.8-12.6
		H395.5z"/>
	<path class="st3" d="M408.1,71.5c0.1,3.1,2,4.4,4.3,4.4c1.6,0,2.6-0.3,3.5-0.6l0.4,1.6c-0.8,0.4-2.2,0.8-4.2,0.8
		c-3.9,0-6.2-2.5-6.2-6.3c0-3.8,2.2-6.8,5.9-6.8c4.1,0,5.2,3.6,5.2,5.9c0,0.5-0.1,0.8-0.1,1.1H408.1z M414.9,69.9
		c0-1.5-0.6-3.7-3.2-3.7c-2.3,0-3.3,2.1-3.5,3.7H414.9z"/>
	<path class="st3" d="M419.9,68.7c0-1.5,0-2.8-0.1-3.9h2l0.1,2.5h0.1c0.6-1.7,2-2.8,3.5-2.8c0.3,0,0.4,0,0.7,0.1v2.2
		c-0.2-0.1-0.5-0.1-0.8-0.1c-1.6,0-2.8,1.2-3.1,2.9c-0.1,0.3-0.1,0.7-0.1,1.1v6.7h-2.3V68.7z"/>
</g>
<g>
	<path class="st3" d="M76.4,143.4c0.2,0.1,0.3,0.2,0.3,0.4c0,0.2,0,0.3-0.1,0.5c-0.1,0.2-0.3,0.3-0.5,0.3c-1.3,0.2-2.6,0.4-4.1,0.6
		c-1.7,0.2-3.1,0.3-4.4,0.3c-0.5,0-0.7-0.2-0.7-0.7c0-0.4,0.2-0.7,0.7-0.7c1.2,0,2.6-0.1,4.2-0.2c1.4-0.1,2.7-0.3,3.9-0.5
		C76,143.3,76.2,143.3,76.4,143.4z M77.9,139.9c0.4,0.4,0.6,0.9,0.6,1.6v1.1c0,2.3-0.9,4.2-2.6,5.6c-1.8,1.6-4.5,2.5-8,2.7
		c-0.3,0-0.5-0.1-0.6-0.2c-0.1-0.1-0.2-0.3-0.2-0.4c0-0.2,0.1-0.3,0.2-0.5c0.1-0.1,0.3-0.2,0.6-0.2c3.1-0.1,5.5-0.9,7.2-2.4
		c1.4-1.3,2.1-2.8,2.1-4.7v-0.8c0-0.4-0.1-0.7-0.3-0.9s-0.5-0.3-1-0.3h-7.4c-0.3,0-0.5-0.1-0.6-0.2c-0.1-0.1-0.2-0.3-0.2-0.5
		c0-0.2,0.1-0.3,0.2-0.5c0.1-0.1,0.3-0.2,0.6-0.2h7.5C76.7,139.3,77.4,139.5,77.9,139.9z M85,152.5c0.4,0.3,0.6,0.8,0.6,1.3v3.6
		c0,0.6-0.2,1.1-0.6,1.5c-0.4,0.3-0.9,0.5-1.6,0.5H71.7c-0.8,0-1.5-0.2-1.9-0.6c-0.4-0.3-0.5-0.8-0.5-1.5v-3.3c0-0.5,0.2-1,0.6-1.3
		c0.4-0.4,0.9-0.5,1.5-0.5h11.9C84,152.1,84.6,152.2,85,152.5z M83.8,153.5c-0.2-0.1-0.5-0.2-0.9-0.2h-11c-0.4,0-0.7,0.1-0.9,0.2
		c-0.1,0.1-0.2,0.4-0.2,0.7v2.9c0,0.3,0.1,0.6,0.2,0.7c0.2,0.1,0.5,0.2,0.9,0.2h11c0.4,0,0.7-0.1,0.8-0.2c0.2-0.1,0.3-0.3,0.3-0.6
		v-3C84.1,153.9,84,153.7,83.8,153.5z M85.4,150.1c-0.1,0.1-0.3,0.2-0.5,0.2c-0.2,0-0.4-0.1-0.5-0.2c-0.2-0.2-0.2-0.3-0.2-0.6v-3.6
		h-4.6c-0.3,0-0.5-0.1-0.6-0.2c-0.2-0.1-0.2-0.3-0.2-0.4c0-0.2,0-0.3,0.2-0.5c0.1-0.1,0.3-0.2,0.6-0.2h4.7v-5.1
		c0-0.3,0.1-0.4,0.2-0.6c0.1-0.1,0.3-0.2,0.5-0.2c0.2,0,0.4,0.1,0.5,0.2c0.2,0.1,0.3,0.3,0.3,0.6v10C85.6,149.8,85.6,150,85.4,150.1
		z"/>
	<path class="st3" d="M114.1,152.5c0,0.4-0.2,0.7-0.6,0.7h-4.1v6c0,0.2-0.1,0.4-0.3,0.6c-0.1,0.1-0.3,0.2-0.5,0.2s-0.4-0.1-0.5-0.2
		c-0.2-0.2-0.2-0.3-0.2-0.6v-6h-8.1v2.4c0,0.9-0.1,1.7-0.4,2.4c-0.3,0.7-0.6,1.3-1,1.8c-0.2,0.2-0.4,0.3-0.6,0.3
		c-0.2,0-0.4-0.1-0.5-0.2c-0.2-0.1-0.2-0.3-0.3-0.5c0-0.2,0.1-0.4,0.3-0.6c0.4-0.4,0.7-0.9,0.8-1.4c0.1-0.4,0.2-1,0.2-1.8v-2.4h-4.8
		c-0.2,0-0.4-0.1-0.5-0.2c-0.1-0.1-0.1-0.3-0.1-0.4c0-0.2,0.1-0.3,0.2-0.5c0.2-0.1,0.3-0.2,0.6-0.2h19.8
		C113.8,151.9,114.1,152.1,114.1,152.5z M112.3,147.9c0,0.4-0.1,0.6-0.5,0.6H95.2c-0.4,0-0.6-0.2-0.6-0.6c0-0.4,0.2-0.6,0.7-0.6h3.3
		l-0.9-5.3c-0.1-0.2,0-0.4,0.1-0.6c0.1-0.1,0.3-0.2,0.5-0.2c0.2,0,0.4,0,0.6,0.1c0.2,0.1,0.3,0.3,0.3,0.5l0.9,5.4h6.9l0.9-5.3
		c0-0.2,0.1-0.4,0.3-0.5c0.2-0.1,0.3-0.1,0.6-0.1c0.2,0,0.4,0.1,0.5,0.2c0.2,0.2,0.2,0.3,0.2,0.6l-0.9,5.2h3.3
		C112.1,147.3,112.3,147.5,112.3,147.9z M112.1,139.6c0.1,0.1,0.2,0.3,0.2,0.5c0,0.2-0.1,0.3-0.2,0.5c-0.1,0.1-0.3,0.2-0.5,0.2H95.3
		c-0.5,0-0.7-0.2-0.7-0.7c0-0.4,0.2-0.6,0.7-0.6h16.3C111.8,139.4,112,139.5,112.1,139.6z"/>
	<path class="st3" d="M131.5,139.5c0.2,0.1,0.2,0.3,0.2,0.5c0,0.2-0.1,0.3-0.2,0.5c-0.2,0.1-0.3,0.2-0.6,0.2h-8.4
		c-0.4,0-0.7,0.1-0.8,0.3c-0.2,0.2-0.2,0.5-0.2,0.9v2h8.9c0.5,0,0.8,0.2,0.8,0.6c0,0.4-0.3,0.7-0.8,0.7h-8.9v2.7
		c0,0.4,0.1,0.7,0.2,0.9c0.2,0.2,0.5,0.3,0.9,0.3c2.1,0,4.1-0.1,5.8-0.3c1.9-0.2,3.5-0.5,4.7-0.9c0.2-0.1,0.4-0.1,0.6,0
		c0.2,0.1,0.3,0.2,0.3,0.4c0.1,0.2,0.1,0.3,0,0.5c-0.1,0.2-0.2,0.3-0.4,0.4c-1.4,0.4-3,0.6-5,0.8c-1.9,0.2-3.8,0.3-5.9,0.3
		c-0.9,0-1.7-0.2-2.1-0.6c-0.4-0.4-0.6-1-0.6-1.9v-6.1c0-0.6,0.2-1.1,0.6-1.5c0.4-0.4,1-0.6,1.8-0.6h8.5
		C131.1,139.3,131.3,139.4,131.5,139.5z M135.8,153.4c1.3,0.7,2,1.6,2,2.8c0,1.1-0.7,2-2,2.7c-1.5,0.8-3.6,1.1-6.3,1.1
		c-2.8,0-4.9-0.4-6.4-1.1c-1.3-0.7-2-1.6-2-2.7c0-1.2,0.7-2.1,2-2.8c1.5-0.8,3.6-1.1,6.4-1.1C132.2,152.3,134.4,152.7,135.8,153.4z
		 M124.2,154.3c-1.1,0.5-1.6,1.1-1.6,1.9c0,0.8,0.5,1.4,1.6,1.8c1.2,0.5,2.9,0.7,5.3,0.7c2.3,0,4-0.2,5.2-0.7c1.1-0.4,1.7-1,1.7-1.8
		c0-0.8-0.6-1.4-1.7-1.9c-1.2-0.5-2.9-0.7-5.2-0.7C127.1,153.6,125.4,153.8,124.2,154.3z M137.4,151.7c-0.1,0.1-0.3,0.2-0.5,0.2
		c-0.2,0-0.4-0.1-0.5-0.2c-0.2-0.2-0.2-0.4-0.2-0.6v-11.6c0-0.2,0.1-0.4,0.2-0.5c0.1-0.1,0.3-0.2,0.5-0.2c0.2,0,0.4,0.1,0.5,0.2
		c0.2,0.1,0.3,0.3,0.3,0.5v11.6C137.6,151.3,137.6,151.5,137.4,151.7z"/>
	<path class="st3" d="M161.3,140.2c0.5,0.4,0.7,1,0.7,1.8v3c0,3.9-1,7-3.1,9.2c-1.9,2.1-4.4,3.3-7.5,3.5c-0.5,0-0.7-0.2-0.8-0.6
		c0-0.4,0.2-0.7,0.7-0.7c2.9-0.3,5.1-1.4,6.7-3.2c1.7-2,2.5-4.7,2.5-8.3v-3c0-0.4-0.1-0.6-0.3-0.8c-0.2-0.2-0.5-0.3-0.9-0.3h-7.5
		c-0.5,0-0.7-0.2-0.7-0.7c0-0.4,0.2-0.6,0.7-0.6h7.5C160.1,139.5,160.8,139.7,161.3,140.2z M171.2,148.7c0.4,0,0.6,0.2,0.6,0.6
		c0,0.4-0.2,0.6-0.6,0.6h-2.8v9.3c0,0.2-0.1,0.4-0.3,0.5c-0.1,0.1-0.3,0.2-0.5,0.2s-0.4-0.1-0.5-0.2c-0.2-0.1-0.2-0.3-0.2-0.5v-19.8
		c0-0.2,0.1-0.4,0.2-0.5c0.1-0.1,0.3-0.2,0.5-0.2s0.4,0.1,0.5,0.2c0.2,0.1,0.3,0.3,0.3,0.5v9.3H171.2z"/>
	<path class="st3" d="M182.6,139.3c0.1-0.1,0.3-0.2,0.5-0.2s0.4,0.1,0.5,0.2c0.2,0.1,0.3,0.3,0.3,0.6c0,0.5-0.1,1.1-0.2,1.7
		c-0.1,0.4-0.2,0.9-0.4,1.5c1.5,1.1,2.7,2,3.7,2.9c0.9,0.8,1.8,1.9,2.7,3.1c0.2,0.2,0.2,0.4,0.2,0.7c0,0.2-0.1,0.3-0.3,0.5
		c-0.2,0.1-0.3,0.2-0.5,0.1c-0.2,0-0.4-0.2-0.6-0.4c-0.8-1.1-1.7-2.1-2.6-3c-0.9-0.9-1.9-1.8-3.1-2.6c-0.7,1.4-1.3,2.5-2.1,3.4
		c-0.8,1-1.9,2-3.1,3c-0.2,0.1-0.4,0.2-0.6,0.2c-0.2,0-0.3-0.1-0.4-0.3c-0.1-0.2-0.2-0.3-0.1-0.5c0-0.2,0.2-0.4,0.4-0.5
		c1.8-1.2,3.2-2.9,4.2-5c0.9-1.7,1.3-3.3,1.3-4.7C182.4,139.6,182.5,139.4,182.6,139.3z M192.8,153.4c1.3,0.7,2,1.6,2,2.8
		c0,1.1-0.7,2-2,2.7c-1.5,0.8-3.5,1.1-6.2,1.1c-2.7,0-4.8-0.4-6.3-1.1c-1.3-0.7-2-1.6-2-2.7c0-1.2,0.7-2.1,2-2.8
		c1.5-0.8,3.5-1.1,6.3-1.1C189.3,152.3,191.4,152.7,192.8,153.4z M181.4,154.3c-1.1,0.5-1.6,1.1-1.6,1.9c0,0.8,0.5,1.4,1.6,1.8
		c1.2,0.5,2.9,0.7,5.2,0.7c2.2,0,3.9-0.2,5.1-0.7c1.1-0.4,1.6-1,1.6-1.8c0-0.8-0.5-1.4-1.6-1.9c-1.2-0.5-2.9-0.7-5.1-0.7
		C184.3,153.6,182.6,153.8,181.4,154.3z M197.1,144.9c0.2,0,0.4,0.1,0.5,0.2c0.1,0.1,0.2,0.3,0.2,0.5c0,0.2-0.1,0.3-0.2,0.5
		c-0.1,0.1-0.3,0.2-0.5,0.2h-2.8v5c0,0.2-0.1,0.4-0.3,0.6c-0.1,0.1-0.3,0.2-0.5,0.2s-0.4-0.1-0.5-0.2c-0.2-0.2-0.2-0.3-0.2-0.6
		v-11.7c0-0.5,0.2-0.7,0.7-0.7c0.5,0,0.8,0.2,0.8,0.7v5.5H197.1z"/>
	<path class="st3" d="M213.7,156.5c1.1-0.2,2.2-0.5,3.3-0.9c0.5-0.2,0.8-0.1,0.9,0.3c0.1,0.4,0,0.7-0.4,0.8c-1.8,0.6-4,1.1-6.5,1.3
		c-2.1,0.2-4.7,0.3-8,0.3c-0.3,0-0.5-0.1-0.7-0.2c-0.2-0.1-0.2-0.3-0.2-0.5c0-0.2,0.1-0.3,0.2-0.5c0.2-0.1,0.3-0.2,0.6-0.2
		c0.8,0,1.7,0,2.7,0c1.3,0,2.5-0.1,3.7-0.1v-4.3h1.5v4.2C211.8,156.9,212.8,156.7,213.7,156.5z M216.6,142.7
		c0.1,0.1,0.2,0.3,0.2,0.5c0,0.2-0.1,0.3-0.2,0.4c-0.1,0.2-0.3,0.2-0.5,0.2H204c-0.5,0-0.7-0.2-0.7-0.7c0-0.4,0.2-0.7,0.7-0.7h12
		C216.2,142.5,216.4,142.5,216.6,142.7z M214.3,146.6c0.9,0.8,1.4,1.7,1.4,2.7c0,1.1-0.5,2-1.4,2.8c-1,0.8-2.4,1.3-4.2,1.3
		c-1.8,0-3.2-0.4-4.3-1.3c-0.9-0.8-1.4-1.7-1.4-2.8c0-1.1,0.5-2,1.4-2.7c1.1-0.8,2.5-1.2,4.3-1.2
		C211.8,145.4,213.2,145.8,214.3,146.6z M214.3,140.1c0,0.4-0.2,0.6-0.7,0.6h-7.1c-0.5,0-0.7-0.2-0.7-0.6c0-0.4,0.2-0.6,0.7-0.6h7
		C214,139.4,214.3,139.7,214.3,140.1z M206.9,147.5c-0.7,0.5-1,1.1-1,1.9c0,0.8,0.3,1.4,1,1.9c0.8,0.6,1.8,0.9,3.2,0.9
		c1.3,0,2.4-0.3,3.1-0.9c0.7-0.5,1-1.1,1-1.9c0-0.7-0.3-1.4-1-1.9c-0.7-0.6-1.8-0.8-3.1-0.8C208.7,146.7,207.6,146.9,206.9,147.5z
		 M223.1,148.9c0.2,0,0.4,0.1,0.5,0.2c0.1,0.1,0.2,0.3,0.2,0.4c0,0.2-0.1,0.3-0.2,0.4c-0.1,0.1-0.2,0.2-0.4,0.2h-2.9v9.1
		c0,0.2-0.1,0.4-0.3,0.5c-0.1,0.1-0.3,0.2-0.5,0.2s-0.4-0.1-0.5-0.2c-0.2-0.1-0.2-0.3-0.2-0.6v-19.8c0-0.2,0.1-0.4,0.2-0.5
		c0.1-0.1,0.3-0.2,0.5-0.2s0.4,0.1,0.5,0.2c0.2,0.1,0.3,0.3,0.3,0.5v9.5H223.1z"/>
	<path class="st3" d="M59.7,182.5L53.9,165h2.4l2.7,8.6c0.8,2.4,1.4,4.5,1.9,6.6H61c0.5-2,1.2-4.2,2-6.5l3-8.7h2.4l-6.3,17.5H59.7z"
		/>
	<path class="st3" d="M85.1,174.8c-0.1-2.4-0.3-5.4-0.3-7.6h-0.1c-0.6,2.1-1.3,4.2-2.2,6.7l-3.1,8.5h-1.7l-2.8-8.3
		c-0.8-2.5-1.5-4.7-2-6.8h-0.1c-0.1,2.2-0.2,5.1-0.3,7.7l-0.5,7.5h-2.2l1.2-17.5H74l3,8.5c0.7,2.2,1.3,4.1,1.8,5.9h0.1
		c0.4-1.8,1.1-3.7,1.8-5.9l3.1-8.5h2.9l1.1,17.5h-2.2L85.1,174.8z"/>
	<path class="st3" d="M92.2,169.9l1.7,6.4c0.4,1.4,0.7,2.7,0.9,4h0.1c0.3-1.3,0.7-2.6,1.1-4l2.1-6.4h1.9l1.9,6.3
		c0.5,1.5,0.8,2.8,1.1,4.1h0.1c0.2-1.3,0.5-2.6,1-4.1l1.8-6.3h2.3l-4.1,12.6H102l-1.9-6c-0.4-1.4-0.8-2.7-1.1-4.1h-0.1
		c-0.3,1.5-0.7,2.8-1.1,4.2l-2,6h-2.1l-3.8-12.6H92.2z"/>
	<path class="st3" d="M117.3,182.5l-0.2-1.6h-0.1c-0.7,1-2.1,1.9-3.8,1.9c-2.5,0-3.8-1.8-3.8-3.6c0-3,2.7-4.7,7.6-4.7v-0.3
		c0-1-0.3-2.9-2.9-2.9c-1.2,0-2.4,0.4-3.3,0.9l-0.5-1.5c1-0.7,2.5-1.1,4.1-1.1c3.8,0,4.8,2.6,4.8,5.1v4.7c0,1.1,0.1,2.2,0.2,3H117.3
		z M117,176.1c-2.5-0.1-5.3,0.4-5.3,2.8c0,1.5,1,2.2,2.2,2.2c1.6,0,2.7-1,3-2.1c0.1-0.2,0.1-0.5,0.1-0.7V176.1z"/>
	<path class="st3" d="M122.9,173.9c0-1.5,0-2.8-0.1-3.9h2l0.1,2.5h0.1c0.6-1.7,2-2.8,3.5-2.8c0.3,0,0.4,0,0.6,0.1v2.2
		c-0.2-0.1-0.5-0.1-0.8-0.1c-1.6,0-2.8,1.2-3.1,2.9c-0.1,0.3-0.1,0.7-0.1,1.1v6.7h-2.3V173.9z"/>
	<path class="st3" d="M132.4,176.7c0.1,3.1,2,4.4,4.3,4.4c1.6,0,2.6-0.3,3.5-0.7l0.4,1.6c-0.8,0.4-2.2,0.8-4.2,0.8
		c-3.9,0-6.2-2.5-6.2-6.3c0-3.8,2.2-6.8,5.9-6.8c4.1,0,5.2,3.6,5.2,5.9c0,0.5-0.1,0.8-0.1,1.1H132.4z M139.1,175
		c0-1.5-0.6-3.7-3.2-3.7c-2.3,0-3.3,2.1-3.5,3.7H139.1z"/>
	<path class="st3" d="M150.6,169.9l2.5,7.1c0.4,1.1,0.8,2.2,1,3.2h0.1c0.3-1,0.6-2.1,1.1-3.2l2.4-7.1h2.4l-4.9,12.6h-2.2l-4.8-12.6
		H150.6z"/>
	<path class="st3" d="M161.9,179.8c1,0.6,2.5,1.1,4.1,1.1c2.3,0,3.7-1.2,3.7-3c0-1.6-0.9-2.6-3.3-3.5c-2.9-1-4.6-2.5-4.6-5
		c0-2.7,2.3-4.8,5.7-4.8c1.8,0,3.1,0.4,3.9,0.9l-0.6,1.8c-0.6-0.3-1.7-0.8-3.3-0.8c-2.4,0-3.3,1.4-3.3,2.6c0,1.6,1.1,2.4,3.5,3.4
		c3,1.1,4.5,2.6,4.5,5.1c0,2.7-2,5-6.1,5c-1.7,0-3.5-0.5-4.5-1.1L161.9,179.8z"/>
	<path class="st3" d="M175,174.1c0-1.6-0.1-2.9-0.1-4.1h2.1l0.1,2.2h0.1c0.9-1.5,2.4-2.4,4.5-2.4c3,0,5.3,2.6,5.3,6.4
		c0,4.5-2.8,6.8-5.7,6.8c-1.7,0-3.1-0.7-3.9-2h-0.1v6.8H175V174.1z M177.3,177.4c0,0.3,0.1,0.6,0.1,0.9c0.4,1.6,1.8,2.7,3.4,2.7
		c2.4,0,3.8-2,3.8-4.9c0-2.5-1.3-4.7-3.7-4.7c-1.6,0-3,1.1-3.5,2.8c-0.1,0.3-0.2,0.6-0.2,0.9V177.4z"/>
	<path class="st3" d="M189.8,164.1h2.3v7.9h0.1c0.4-0.7,0.9-1.2,1.6-1.6c0.7-0.4,1.5-0.6,2.3-0.6c1.7,0,4.4,1,4.4,5.4v7.5h-2.3v-7.2
		c0-2-0.8-3.7-2.9-3.7c-1.5,0-2.7,1-3.1,2.3c-0.1,0.3-0.2,0.7-0.2,1.1v7.6h-2.3V164.1z"/>
	<path class="st3" d="M205.5,176.7c0.1,3.1,2,4.4,4.3,4.4c1.6,0,2.6-0.3,3.5-0.7l0.4,1.6c-0.8,0.4-2.2,0.8-4.2,0.8
		c-3.9,0-6.2-2.5-6.2-6.3c0-3.8,2.2-6.8,5.9-6.8c4.1,0,5.2,3.6,5.2,5.9c0,0.5-0.1,0.8-0.1,1.1H205.5z M212.2,175
		c0-1.5-0.6-3.7-3.2-3.7c-2.3,0-3.3,2.1-3.5,3.7H212.2z"/>
	<path class="st3" d="M217.2,173.9c0-1.5,0-2.8-0.1-3.9h2l0.1,2.5h0.1c0.6-1.7,2-2.8,3.5-2.8c0.3,0,0.4,0,0.6,0.1v2.2
		c-0.2-0.1-0.5-0.1-0.8-0.1c-1.6,0-2.8,1.2-3.1,2.9c-0.1,0.3-0.1,0.7-0.1,1.1v6.7h-2.3V173.9z"/>
	<path class="st3" d="M226.8,176.7c0.1,3.1,2,4.4,4.3,4.4c1.6,0,2.6-0.3,3.5-0.7l0.4,1.6c-0.8,0.4-2.2,0.8-4.2,0.8
		c-3.9,0-6.2-2.5-6.2-6.3c0-3.8,2.2-6.8,5.9-6.8c4.1,0,5.2,3.6,5.2,5.9c0,0.5-0.1,0.8-0.1,1.1H226.8z M233.5,175
		c0-1.5-0.6-3.7-3.2-3.7c-2.3,0-3.3,2.1-3.5,3.7H233.5z"/>
</g>
<g>
	<path class="st3" d="M364.8,140.7c0.1-0.1,0.3-0.2,0.5-0.2s0.4,0.1,0.5,0.2c0.2,0.1,0.3,0.3,0.3,0.6v14.5c0,0.4,0.1,0.8,0.3,0.9
		c0.2,0.2,0.5,0.3,1,0.3c1.3,0,2.4-0.1,3.5-0.3c1-0.1,1.9-0.3,2.7-0.6c0.2-0.1,0.4-0.1,0.6,0c0.2,0.1,0.3,0.2,0.3,0.4
		c0,0.2,0,0.4-0.1,0.5c-0.1,0.2-0.3,0.3-0.5,0.4c-0.8,0.3-1.8,0.5-2.9,0.6c-1.1,0.2-2.4,0.2-3.9,0.2c-0.8,0-1.4-0.2-1.8-0.7
		c-0.4-0.4-0.6-1-0.6-1.8v-14.5C364.6,141.1,364.6,140.9,364.8,140.7z M377.3,160.9c-0.1,0.1-0.3,0.2-0.5,0.2s-0.4-0.1-0.5-0.2
		c-0.2-0.2-0.2-0.3-0.2-0.6v-11.1h-4.4c-0.3,0-0.5-0.1-0.6-0.2c-0.1-0.1-0.2-0.3-0.2-0.5c0-0.2,0.1-0.3,0.2-0.5
		c0.1-0.1,0.3-0.2,0.5-0.2h4.5v-7.4c0-0.2,0.1-0.4,0.2-0.5c0.1-0.1,0.3-0.2,0.5-0.2s0.4,0.1,0.5,0.2c0.2,0.1,0.3,0.3,0.3,0.5v19.8
		C377.5,160.5,377.4,160.7,377.3,160.9z M382.6,160.9c-0.1,0.1-0.3,0.2-0.5,0.2c-0.2,0-0.4-0.1-0.5-0.2c-0.2-0.2-0.2-0.3-0.2-0.6
		v-19.7c0-0.2,0.1-0.4,0.2-0.5c0.1-0.1,0.3-0.2,0.5-0.2c0.2,0,0.3,0.1,0.5,0.2c0.2,0.1,0.3,0.3,0.3,0.5v19.8
		C382.9,160.5,382.8,160.7,382.6,160.9z"/>
	<path class="st3" d="M410.4,158.2c0.1,0.1,0.2,0.3,0.2,0.5c0,0.2-0.1,0.3-0.2,0.5c-0.1,0.1-0.2,0.2-0.4,0.2H390
		c-0.2,0-0.3-0.1-0.4-0.2c-0.1-0.1-0.1-0.3-0.1-0.5c0-0.2,0.1-0.3,0.2-0.5c0.1-0.1,0.3-0.2,0.6-0.2h19.7
		C410.1,158,410.3,158.1,410.4,158.2z M408.7,140.7c0.1,0.1,0.2,0.3,0.2,0.5c0,0.2,0,0.3-0.2,0.4c-0.1,0.2-0.3,0.2-0.5,0.2h-14
		c-0.4,0-0.8,0.1-1,0.3c-0.2,0.2-0.3,0.5-0.3,0.9v2.8h14.9c0.5,0,0.7,0.2,0.7,0.6c0,0.4-0.2,0.7-0.7,0.7H393v3.3
		c0,0.4,0.1,0.6,0.3,0.8c0.2,0.2,0.5,0.3,0.9,0.3h14.1c0.2,0,0.4,0.1,0.5,0.2c0.1,0.1,0.2,0.3,0.2,0.5c0,0.2,0,0.3-0.2,0.5
		c-0.1,0.1-0.3,0.2-0.5,0.2h-14.4c-0.8,0-1.4-0.2-1.8-0.6c-0.4-0.4-0.6-0.9-0.6-1.6v-7.7c0-0.7,0.2-1.2,0.6-1.6
		c0.4-0.4,1.1-0.7,1.9-0.7h14.2C408.3,140.5,408.5,140.6,408.7,140.7z"/>
	<path class="st3" d="M419,152.5c-1.3,0-2.3,0-3.3,0c-0.4,0-0.6-0.2-0.6-0.6c0-0.4,0.2-0.6,0.7-0.6c2.4,0,4.8,0,7.2-0.1
		c2.7-0.1,5-0.2,6.9-0.3c0.2,0,0.4,0,0.6,0.1c0.1,0.1,0.2,0.2,0.3,0.4c0,0.2,0,0.3-0.1,0.4c-0.1,0.1-0.3,0.2-0.5,0.3
		c-1,0.1-2.1,0.2-3.2,0.2c-1,0.1-2.1,0.1-3,0.2v3.1c0,1.1-0.1,2-0.4,2.8c-0.3,0.7-0.7,1.4-1.2,1.9c-0.4,0.3-0.7,0.3-1,0
		c-0.3-0.3-0.3-0.6,0-1c0.4-0.4,0.7-0.9,0.9-1.5c0.2-0.5,0.3-1.2,0.3-2.1v-3.1C421.6,152.4,420.5,152.5,419,152.5z M428.2,141.8
		c1.1,0.8,1.7,1.8,1.7,2.9c0,1.1-0.6,2.1-1.7,2.9c-1.2,0.9-2.9,1.3-5,1.3c-2.1,0-3.8-0.4-5-1.3c-1.1-0.8-1.6-1.8-1.6-2.9
		c0-1.2,0.5-2.1,1.6-2.9c1.2-0.9,2.9-1.3,5-1.3C425.3,140.5,426.9,140.9,428.2,141.8z M419.3,142.7c-0.8,0.5-1.3,1.2-1.3,2
		c0,0.8,0.4,1.4,1.3,2c0.9,0.6,2.2,0.9,3.9,0.9c1.6,0,2.9-0.3,3.9-0.9c0.9-0.6,1.3-1.2,1.3-2c0-0.8-0.4-1.5-1.3-2
		c-1-0.6-2.3-0.9-3.9-0.9C421.6,141.8,420.3,142.1,419.3,142.7z M433.9,160.9c-0.1,0.1-0.3,0.2-0.5,0.2c-0.2,0-0.4-0.1-0.5-0.2
		c-0.2-0.2-0.2-0.3-0.2-0.6v-5h-4.8c-0.3,0-0.5-0.1-0.6-0.2c-0.2-0.1-0.2-0.3-0.2-0.4c0-0.2,0.1-0.3,0.2-0.5
		c0.2-0.1,0.4-0.2,0.6-0.2h4.9v-13.4c0-0.2,0.1-0.4,0.2-0.5c0.1-0.1,0.3-0.2,0.5-0.2c0.2,0,0.4,0.1,0.5,0.2c0.2,0.1,0.3,0.3,0.3,0.5
		v19.8C434.2,160.5,434.1,160.7,433.9,160.9z"/>
	<path class="st3" d="M462.4,158.2c0.1,0.1,0.2,0.3,0.2,0.5c0,0.2-0.1,0.3-0.2,0.5c-0.1,0.1-0.2,0.2-0.4,0.2H442
		c-0.2,0-0.3-0.1-0.4-0.2c-0.1-0.1-0.1-0.3-0.1-0.5c0-0.2,0.1-0.3,0.2-0.5c0.1-0.1,0.3-0.2,0.6-0.2h19.7
		C462.1,158,462.3,158.1,462.4,158.2z M458.7,148.5c0,0.4-0.2,0.7-0.6,0.7c-2.2,0.2-4.6,0.4-7.2,0.6c-2.7,0.2-5.1,0.2-7.4,0.2
		c-0.5,0-0.7-0.2-0.7-0.7c0-0.4,0.2-0.6,0.7-0.6c2.3,0,4.7-0.1,7.3-0.2c2.8-0.1,5.2-0.3,7.3-0.6
		C458.5,147.9,458.7,148.1,458.7,148.5z M459.8,141.1c0.5,0.4,0.8,0.9,0.8,1.6v4.8c0,2.4-0.1,4.3-0.3,5.6c-0.2,1.6-0.7,3.2-1.3,4.8
		h-1.5c0.7-1.7,1.2-3.3,1.4-4.8c0.2-1.1,0.3-3,0.3-5.5v-4.9c0-0.3-0.1-0.6-0.3-0.7c-0.2-0.2-0.5-0.3-0.9-0.3h-13.6
		c-0.4,0-0.7-0.2-0.7-0.7c0-0.4,0.2-0.7,0.7-0.7h13.7C458.7,140.5,459.3,140.7,459.8,141.1z"/>
	<path class="st3" d="M483.8,141.3c0.5,0.4,0.7,1,0.7,1.8v3c0,3.9-1,7-3.1,9.2c-1.9,2.1-4.4,3.3-7.5,3.5c-0.5,0-0.7-0.2-0.8-0.6
		c0-0.4,0.2-0.7,0.7-0.7c2.9-0.3,5.1-1.4,6.7-3.2c1.7-2,2.5-4.7,2.5-8.3v-3c0-0.4-0.1-0.6-0.3-0.8c-0.2-0.2-0.5-0.3-0.9-0.3h-7.5
		c-0.5,0-0.7-0.2-0.7-0.7c0-0.4,0.2-0.6,0.7-0.6h7.5C482.7,140.6,483.3,140.8,483.8,141.3z M493.8,149.8c0.4,0,0.6,0.2,0.6,0.6
		c0,0.4-0.2,0.6-0.6,0.6h-2.8v9.3c0,0.2-0.1,0.4-0.3,0.5c-0.1,0.1-0.3,0.2-0.5,0.2s-0.4-0.1-0.5-0.2c-0.2-0.1-0.2-0.3-0.2-0.5v-19.8
		c0-0.2,0.1-0.4,0.2-0.5c0.1-0.1,0.3-0.2,0.5-0.2s0.4,0.1,0.5,0.2c0.2,0.1,0.3,0.3,0.3,0.5v9.3H493.8z"/>
	<path class="st3" d="M505.2,140.4c0.1-0.1,0.3-0.2,0.5-0.2s0.4,0.1,0.5,0.2c0.2,0.1,0.3,0.3,0.3,0.6c0,0.5-0.1,1.1-0.2,1.7
		c-0.1,0.4-0.2,0.9-0.4,1.5c1.5,1.1,2.7,2,3.7,2.9c0.9,0.8,1.8,1.9,2.7,3.1c0.2,0.2,0.2,0.4,0.2,0.7c0,0.2-0.1,0.3-0.3,0.5
		c-0.2,0.1-0.3,0.2-0.5,0.1c-0.2,0-0.4-0.2-0.6-0.4c-0.8-1.1-1.7-2.1-2.6-3c-0.9-0.9-1.9-1.8-3.1-2.6c-0.7,1.4-1.3,2.5-2.1,3.4
		c-0.8,1-1.9,2-3.1,3c-0.2,0.1-0.4,0.2-0.6,0.2c-0.2,0-0.3-0.1-0.4-0.3c-0.1-0.2-0.2-0.3-0.1-0.5s0.2-0.4,0.4-0.5
		c1.8-1.2,3.2-2.9,4.2-5c0.9-1.7,1.3-3.3,1.3-4.7C505,140.7,505,140.5,505.2,140.4z M515.4,154.5c1.3,0.7,2,1.6,2,2.8
		c0,1.1-0.7,2-2,2.7c-1.5,0.8-3.5,1.1-6.2,1.1c-2.7,0-4.8-0.4-6.3-1.1c-1.3-0.7-2-1.6-2-2.7c0-1.2,0.7-2.1,2-2.8
		c1.5-0.8,3.5-1.1,6.3-1.1C511.9,153.4,513.9,153.8,515.4,154.5z M504,155.4c-1.1,0.5-1.6,1.1-1.6,1.9c0,0.8,0.5,1.4,1.6,1.8
		c1.2,0.5,2.9,0.7,5.2,0.7c2.2,0,3.9-0.2,5.1-0.7c1.1-0.4,1.6-1,1.6-1.8c0-0.8-0.5-1.4-1.6-1.9c-1.2-0.5-2.9-0.7-5.1-0.7
		C506.9,154.7,505.2,154.9,504,155.4z M519.7,146c0.2,0,0.4,0.1,0.5,0.2c0.1,0.1,0.2,0.3,0.2,0.5c0,0.2-0.1,0.3-0.2,0.5
		c-0.1,0.1-0.3,0.2-0.5,0.2h-2.8v5c0,0.2-0.1,0.4-0.3,0.6c-0.1,0.1-0.3,0.2-0.5,0.2s-0.4-0.1-0.5-0.2c-0.2-0.2-0.2-0.3-0.2-0.6
		v-11.7c0-0.5,0.2-0.7,0.7-0.7c0.5,0,0.8,0.2,0.8,0.7v5.5H519.7z"/>
	<path class="st3" d="M536.3,157.6c1.1-0.2,2.2-0.5,3.3-0.9c0.5-0.2,0.8-0.1,0.9,0.3c0.1,0.4,0,0.7-0.4,0.8c-1.8,0.6-4,1.1-6.5,1.3
		c-2.1,0.2-4.7,0.3-8,0.3c-0.3,0-0.5-0.1-0.7-0.2c-0.2-0.1-0.2-0.3-0.2-0.5c0-0.2,0.1-0.3,0.2-0.5c0.2-0.1,0.3-0.2,0.6-0.2
		c0.8,0,1.7,0,2.7,0c1.3,0,2.5-0.1,3.7-0.1v-4.3h1.5v4.2C534.3,158,535.3,157.8,536.3,157.6z M539.1,143.8c0.1,0.1,0.2,0.3,0.2,0.5
		c0,0.2-0.1,0.3-0.2,0.4c-0.1,0.2-0.3,0.2-0.5,0.2h-12.1c-0.5,0-0.7-0.2-0.7-0.7c0-0.4,0.2-0.7,0.7-0.7h12
		C538.8,143.6,539,143.7,539.1,143.8z M536.8,147.7c0.9,0.8,1.4,1.7,1.4,2.7c0,1.1-0.5,2-1.4,2.8c-1,0.8-2.4,1.3-4.2,1.3
		c-1.8,0-3.2-0.4-4.3-1.3c-0.9-0.8-1.4-1.7-1.4-2.8c0-1.1,0.5-2,1.4-2.7c1.1-0.8,2.5-1.2,4.3-1.2
		C534.4,146.5,535.8,146.9,536.8,147.7z M536.8,141.2c0,0.4-0.2,0.6-0.7,0.6h-7.1c-0.5,0-0.7-0.2-0.7-0.6c0-0.4,0.2-0.6,0.7-0.6h7
		C536.6,140.6,536.8,140.8,536.8,141.2z M529.4,148.6c-0.7,0.5-1,1.1-1,1.9c0,0.8,0.3,1.4,1,1.9c0.8,0.6,1.8,0.9,3.2,0.9
		c1.3,0,2.4-0.3,3.1-0.9c0.7-0.5,1-1.1,1-1.9c0-0.7-0.3-1.4-1-1.9c-0.7-0.6-1.8-0.8-3.1-0.8C531.3,147.8,530.2,148.1,529.4,148.6z
		 M545.7,150c0.2,0,0.4,0.1,0.5,0.2c0.1,0.1,0.2,0.3,0.2,0.4c0,0.2-0.1,0.3-0.2,0.4c-0.1,0.1-0.2,0.2-0.4,0.2h-2.9v9.1
		c0,0.2-0.1,0.4-0.3,0.5c-0.1,0.1-0.3,0.2-0.5,0.2s-0.4-0.1-0.5-0.2c-0.2-0.1-0.2-0.3-0.2-0.6v-19.8c0-0.2,0.1-0.4,0.2-0.5
		c0.1-0.1,0.3-0.2,0.5-0.2s0.4,0.1,0.5,0.2c0.2,0.1,0.3,0.3,0.3,0.5v9.5H545.7z"/>
	<path class="st3" d="M391.3,183.6l-5.7-17.5h2.4l2.7,8.6c0.8,2.4,1.4,4.5,1.9,6.6h0.1c0.5-2,1.2-4.2,2-6.5l3-8.7h2.4l-6.3,17.5
		H391.3z"/>
	<path class="st3" d="M416.7,176c-0.1-2.4-0.3-5.4-0.3-7.6h-0.1c-0.6,2.1-1.3,4.2-2.2,6.7l-3.1,8.5h-1.7l-2.8-8.3
		c-0.8-2.5-1.5-4.7-2-6.8h-0.1c-0.1,2.2-0.2,5.1-0.3,7.7l-0.5,7.5h-2.2l1.2-17.5h2.9l3,8.5c0.7,2.2,1.3,4.1,1.8,5.9h0.1
		c0.4-1.8,1.1-3.7,1.8-5.9l3.1-8.5h2.9l1.1,17.5h-2.2L416.7,176z"/>
	<path class="st3" d="M423.8,171.1l1.7,6.4c0.4,1.4,0.7,2.7,0.9,4h0.1c0.3-1.3,0.7-2.6,1.1-4l2.1-6.4h1.9l2,6.3
		c0.5,1.5,0.8,2.8,1.1,4.1h0.1c0.2-1.3,0.5-2.6,1-4.1l1.8-6.3h2.3l-4.1,12.6h-2.1l-1.9-6c-0.4-1.4-0.8-2.7-1.1-4.1h-0.1
		c-0.3,1.5-0.7,2.8-1.1,4.2l-2,6h-2.1l-3.8-12.6H423.8z"/>
	<path class="st3" d="M448.9,183.6l-0.2-1.6h-0.1c-0.7,1-2.1,1.9-3.8,1.9c-2.5,0-3.8-1.8-3.8-3.6c0-3,2.7-4.7,7.6-4.7v-0.3
		c0-1-0.3-2.9-2.9-2.9c-1.2,0-2.4,0.4-3.3,0.9l-0.5-1.5c1-0.7,2.5-1.1,4.1-1.1c3.8,0,4.8,2.6,4.8,5.1v4.7c0,1.1,0.1,2.2,0.2,3H448.9
		z M448.6,177.2c-2.5-0.1-5.3,0.4-5.3,2.8c0,1.5,1,2.2,2.2,2.2c1.6,0,2.7-1,3-2.1c0.1-0.2,0.1-0.5,0.1-0.7V177.2z"/>
	<path class="st3" d="M454.5,175c0-1.5,0-2.8-0.1-3.9h2l0.1,2.5h0.1c0.6-1.7,2-2.8,3.5-2.8c0.3,0,0.4,0,0.7,0.1v2.2
		c-0.2-0.1-0.5-0.1-0.8-0.1c-1.6,0-2.8,1.2-3.1,2.9c-0.1,0.3-0.1,0.7-0.1,1.1v6.7h-2.3V175z"/>
	<path class="st3" d="M464,177.8c0.1,3.1,2,4.4,4.3,4.4c1.6,0,2.6-0.3,3.5-0.7l0.4,1.6c-0.8,0.4-2.2,0.8-4.2,0.8
		c-3.9,0-6.2-2.5-6.2-6.3c0-3.8,2.2-6.8,5.9-6.8c4.1,0,5.2,3.6,5.2,5.9c0,0.5-0.1,0.8-0.1,1.1H464z M470.7,176.1
		c0-1.5-0.6-3.7-3.2-3.7c-2.3,0-3.3,2.1-3.5,3.7H470.7z"/>
	<path class="st3" d="M481.3,183.6v-17.5h2.5l5.6,8.9c1.3,2.1,2.3,3.9,3.1,5.7l0.1,0c-0.2-2.3-0.3-4.5-0.3-7.2v-7.3h2.1v17.5h-2.3
		l-5.6-8.9c-1.2-2-2.4-4-3.3-5.8l-0.1,0c0.1,2.2,0.2,4.3,0.2,7.2v7.5H481.3z"/>
	<path class="st3" d="M498.1,180.9c1,0.6,2.5,1.1,4.1,1.1c2.3,0,3.7-1.2,3.7-3c0-1.6-0.9-2.6-3.3-3.5c-2.9-1-4.6-2.5-4.6-5
		c0-2.7,2.3-4.8,5.7-4.8c1.8,0,3.1,0.4,3.9,0.9l-0.6,1.8c-0.6-0.3-1.7-0.8-3.3-0.8c-2.4,0-3.3,1.4-3.3,2.6c0,1.6,1.1,2.4,3.5,3.4
		c3,1.1,4.5,2.6,4.5,5.1c0,2.7-2,5-6.1,5c-1.7,0-3.5-0.5-4.5-1.1L498.1,180.9z"/>
	<path class="st3" d="M520.9,183.6l-2.2-3.9c-0.9-1.5-1.5-2.4-2-3.5h-0.1c-0.5,1-1,2-1.9,3.5l-2.1,3.8h-2.6l5.4-8.9l-5.1-8.7h2.6
		l2.3,4.1c0.7,1.1,1.1,2,1.6,3h0.1c0.5-1,0.9-1.8,1.6-3l2.4-4.1h2.6l-5.3,8.5l5.5,9H520.9z"/>
</g>
<g>
	<path class="st3" d="M162,246v17.5h-2.3V246H162z"/>
	<path class="st3" d="M165.9,246.2c1-0.2,2.5-0.4,4.1-0.4c2.3,0,3.7,0.4,4.8,1.3c0.9,0.7,1.5,1.7,1.5,3.1c0,1.7-1.1,3.2-3,3.8v0.1
		c1.7,0.4,3.6,1.8,3.6,4.4c0,1.5-0.6,2.7-1.5,3.5c-1.2,1.1-3.2,1.6-6.1,1.6c-1.6,0-2.8-0.1-3.5-0.2V246.2z M168.2,253.4h2.1
		c2.4,0,3.8-1.2,3.8-2.9c0-2.1-1.6-2.9-3.8-2.9c-1,0-1.6,0.1-2,0.2V253.4z M168.2,261.8c0.4,0.1,1.1,0.1,1.9,0.1
		c2.3,0,4.5-0.9,4.5-3.4c0-2.4-2.1-3.4-4.5-3.4h-1.9V261.8z"/>
	<path class="st3" d="M194.8,255.8c-0.1-2.4-0.3-5.4-0.3-7.6h-0.1c-0.6,2.1-1.3,4.2-2.2,6.7l-3.1,8.5h-1.7l-2.8-8.3
		c-0.8-2.5-1.5-4.7-2-6.8h-0.1c-0.1,2.2-0.2,5.1-0.3,7.7l-0.5,7.5h-2.2l1.2-17.5h2.9l3,8.5c0.7,2.2,1.3,4.1,1.8,5.9h0.1
		c0.4-1.8,1.1-3.7,1.8-5.9l3.1-8.5h2.9l1.1,17.5h-2.2L194.8,255.8z"/>
	<path class="st3" d="M218.7,263c-0.8,0.4-2.5,0.8-4.6,0.8c-4.9,0-8.7-3.1-8.7-8.9c0-5.5,3.7-9.2,9.2-9.2c2.2,0,3.6,0.5,4.2,0.8
		l-0.5,1.8c-0.9-0.4-2.1-0.7-3.5-0.7c-4.1,0-6.8,2.6-6.8,7.2c0,4.3,2.5,7,6.7,7c1.4,0,2.8-0.3,3.7-0.7L218.7,263z"/>
	<path class="st3" d="M221.4,245.1h2.3v18.5h-2.3V245.1z"/>
	<path class="st3" d="M239,257.1c0,4.7-3.2,6.7-6.3,6.7c-3.4,0-6-2.5-6-6.5c0-4.2,2.8-6.7,6.2-6.7C236.5,250.7,239,253.3,239,257.1z
		 M229,257.3c0,2.8,1.6,4.8,3.8,4.8c2.2,0,3.8-2.1,3.8-4.9c0-2.1-1.1-4.8-3.8-4.8S229,254.9,229,257.3z"/>
	<path class="st3" d="M252.4,260.1c0,1.3,0,2.4,0.1,3.4h-2l-0.1-2.1h-0.1c-0.6,1-1.9,2.3-4.2,2.3c-2,0-4.3-1.1-4.3-5.5V251h2.3v7
		c0,2.4,0.7,4,2.8,4c1.5,0,2.6-1.1,3-2.1c0.1-0.3,0.2-0.8,0.2-1.2V251h2.3V260.1z"/>
	<path class="st3" d="M267,245.1v15.2c0,1.1,0,2.4,0.1,3.3h-2.1l-0.1-2.2h-0.1c-0.7,1.4-2.2,2.5-4.3,2.5c-3,0-5.4-2.6-5.4-6.4
		c0-4.2,2.6-6.8,5.6-6.8c1.9,0,3.2,0.9,3.8,1.9h0.1v-7.5H267z M264.8,256.1c0-0.3,0-0.7-0.1-1c-0.3-1.5-1.6-2.7-3.3-2.7
		c-2.4,0-3.8,2.1-3.8,4.9c0,2.5,1.2,4.7,3.7,4.7c1.5,0,2.9-1,3.4-2.7c0.1-0.3,0.1-0.6,0.1-1V256.1z"/>
	<path class="st3" d="M279.9,260.1c2.9-0.2,5.3-0.5,7.2-0.8c0.3-0.1,0.5-0.1,0.7,0c0.2,0.1,0.3,0.2,0.3,0.4c0,0.2,0,0.3-0.1,0.5
		c-0.1,0.2-0.3,0.3-0.5,0.3c-2,0.4-4.4,0.7-7.2,0.9c-2.3,0.2-5.1,0.2-8.3,0.2c-0.3,0-0.5-0.1-0.6-0.2c-0.1-0.1-0.2-0.3-0.2-0.4
		c0-0.2,0.1-0.3,0.2-0.5c0.2-0.1,0.4-0.2,0.6-0.2C274.8,260.3,277.5,260.3,279.9,260.1z M283.6,245.9c1,1,1.5,2.2,1.5,3.6
		c0,1.4-0.5,2.6-1.5,3.6c-1.1,1.1-2.7,1.6-4.6,1.6c-2,0-3.5-0.5-4.6-1.6c-1-1-1.5-2.2-1.5-3.6c0-1.4,0.5-2.6,1.5-3.6
		c1.2-1.1,2.7-1.6,4.6-1.6C280.9,244.3,282.4,244.9,283.6,245.9z M275.5,246.8c-0.7,0.7-1.1,1.7-1.1,2.8c0,1.1,0.4,2,1.1,2.7
		c0.8,0.8,2,1.2,3.6,1.2c1.5,0,2.6-0.4,3.5-1.2c0.7-0.7,1.1-1.6,1.1-2.7c0-1.1-0.4-2-1.1-2.8c-0.8-0.8-2-1.2-3.5-1.2
		C277.5,245.6,276.3,246,275.5,246.8z M289.9,264.6c-0.1,0.1-0.3,0.2-0.5,0.2c-0.2,0-0.4-0.1-0.5-0.2c-0.2-0.2-0.2-0.3-0.2-0.6
		v-19.7c0-0.2,0.1-0.4,0.2-0.5c0.1-0.1,0.3-0.2,0.5-0.2c0.2,0,0.4,0.1,0.5,0.2c0.2,0.1,0.3,0.3,0.3,0.5V264
		C290.1,264.3,290,264.5,289.9,264.6z"/>
	<path class="st3" d="M312.3,244.2c0.1-0.1,0.3-0.2,0.5-0.2s0.4,0.1,0.5,0.2c0.2,0.1,0.3,0.3,0.3,0.6c0,0.5-0.1,1-0.2,1.4
		c-0.1,0.3-0.2,0.7-0.4,1.2l-0.1,0.2c1.4,0.8,2.7,1.6,3.7,2.5c0.8,0.8,1.7,1.8,2.7,3.1c0.2,0.2,0.2,0.4,0.2,0.7
		c0,0.2-0.1,0.4-0.3,0.5c-0.2,0.1-0.3,0.1-0.5,0.1c-0.2,0-0.4-0.2-0.6-0.4c-0.8-1.2-1.7-2.2-2.6-3c-0.9-0.9-2-1.6-3.1-2.2
		c-0.7,1.2-1.4,2.2-2.1,3c-0.8,1-1.9,2-3.1,2.9c-0.2,0.1-0.4,0.2-0.6,0.2c-0.2,0-0.3-0.1-0.4-0.3c-0.1-0.2-0.2-0.3-0.1-0.5
		c0-0.2,0.2-0.4,0.4-0.5c1.8-1.3,3.2-2.8,4.2-4.7c0.9-1.6,1.3-3,1.3-4.2C312,244.5,312.1,244.3,312.3,244.2z M324.2,256.5
		c0.4,0.3,0.6,0.8,0.6,1.4v1.1c0,0.5-0.2,0.9-0.6,1.3c-0.4,0.3-0.9,0.5-1.5,0.5h-12c-0.3,0-0.6,0.1-0.7,0.2
		c-0.1,0.1-0.2,0.3-0.2,0.6v1c0,0.3,0.1,0.4,0.2,0.5c0.1,0.1,0.4,0.2,0.7,0.2h14c0.2,0,0.4,0.1,0.6,0.2c0.1,0.1,0.2,0.3,0.2,0.5
		c0,0.2-0.1,0.3-0.2,0.5c-0.1,0.1-0.3,0.2-0.5,0.2h-14.5c-0.6,0-1-0.2-1.4-0.5c-0.4-0.3-0.6-0.8-0.6-1.3v-1.5c0-0.6,0.2-1,0.5-1.3
		c0.4-0.3,0.8-0.5,1.4-0.5h12.1c0.3,0,0.5-0.1,0.7-0.2c0.2-0.1,0.3-0.3,0.3-0.5v-0.7c0-0.3-0.1-0.5-0.2-0.6
		c-0.2-0.1-0.4-0.2-0.8-0.2H309c-0.5,0-0.8-0.2-0.8-0.7c0-0.4,0.2-0.6,0.8-0.6h13.5C323.2,256,323.8,256.2,324.2,256.5z
		 M324.5,254.4c-0.1,0.1-0.3,0.2-0.5,0.2c-0.2,0-0.4-0.1-0.5-0.2c-0.2-0.1-0.2-0.3-0.2-0.5v-9.6c0-0.2,0.1-0.4,0.2-0.5
		c0.1-0.1,0.3-0.2,0.5-0.2c0.2,0,0.4,0.1,0.5,0.2c0.2,0.1,0.3,0.3,0.3,0.5v9.6C324.8,254.1,324.7,254.3,324.5,254.4z"/>
	<path class="st3" d="M342.9,245c0,0.4-0.2,0.7-0.6,0.7h-3.5v4.4c0,2.7,0.5,5.1,1.5,7.3c0.8,1.7,1.8,3.1,3.1,4.3
		c0.2,0.2,0.3,0.3,0.3,0.6c0,0.2-0.1,0.3-0.3,0.5c-0.2,0.2-0.3,0.2-0.5,0.3c-0.2,0-0.4,0-0.6-0.2c-1-0.9-1.9-2.1-2.6-3.5
		c-0.8-1.5-1.4-3.1-1.7-4.6c-0.3,1.6-0.9,3.1-1.7,4.6c-0.8,1.5-1.7,2.6-2.8,3.5c-0.2,0.1-0.4,0.2-0.6,0.2c-0.2,0-0.3-0.1-0.5-0.2
		c-0.1-0.1-0.2-0.3-0.2-0.5c0-0.2,0.1-0.4,0.4-0.6c1.2-1.1,2.3-2.5,3-4.3c1-2.2,1.5-4.6,1.5-7.3v-4.5h-3.5c-0.5,0-0.7-0.2-0.7-0.7
		c0-0.4,0.2-0.6,0.7-0.6h8.4C342.7,244.4,342.9,244.6,342.9,245z M345.4,243.8c0.1-0.1,0.3-0.2,0.5-0.2c0.2,0,0.4,0,0.5,0.2
		c0.2,0.1,0.3,0.3,0.3,0.5V264c0,0.2-0.1,0.4-0.3,0.6c-0.1,0.1-0.3,0.2-0.5,0.2c-0.2,0-0.4-0.1-0.5-0.2c-0.2-0.2-0.2-0.3-0.2-0.6
		v-10.3h-3.4c-0.3,0-0.4-0.1-0.6-0.2c-0.1-0.1-0.2-0.3-0.2-0.4c0-0.2,0.1-0.3,0.2-0.5c0.1-0.1,0.3-0.2,0.6-0.2h3.5v-8.1
		C345.1,244.1,345.2,243.9,345.4,243.8z M351.2,264.6c-0.1,0.1-0.3,0.2-0.5,0.2c-0.2,0-0.4-0.1-0.5-0.2c-0.2-0.2-0.2-0.3-0.2-0.6
		v-19.7c0-0.2,0.1-0.4,0.2-0.5c0.1-0.1,0.3-0.2,0.5-0.2c0.2,0,0.3,0.1,0.5,0.2c0.2,0.1,0.3,0.3,0.3,0.5V264
		C351.4,264.3,351.4,264.5,351.2,264.6z"/>
	<path class="st3" d="M377.6,246.1c1,1.1,1.4,2.5,1.4,4.2c0,1.7-0.5,3.1-1.4,4.2c-1.1,1.3-2.5,1.9-4.3,1.9c-1.8,0-3.3-0.6-4.4-1.9
		c-1-1.2-1.4-2.5-1.4-4.2c0-1.7,0.5-3.1,1.4-4.2c1.1-1.3,2.5-1.9,4.4-1.9C375.1,244.2,376.6,244.9,377.6,246.1z M370,247
		c-0.7,0.9-1,2-1,3.3s0.3,2.4,1,3.3c0.8,1,1.9,1.5,3.3,1.5c1.4,0,2.4-0.5,3.2-1.5c0.7-0.9,1.1-2,1.1-3.3s-0.4-2.4-1.1-3.3
		c-0.8-1-1.9-1.5-3.2-1.5C371.9,245.5,370.8,246,370,247z M370.6,261.8c0,0.5,0.1,0.8,0.3,0.9c0.2,0.2,0.5,0.2,1,0.2h13.7
		c0.4,0,0.6,0.2,0.6,0.6c0,0.4-0.2,0.7-0.6,0.7h-13.9c-0.8,0-1.4-0.2-1.8-0.6c-0.5-0.4-0.7-1-0.7-1.7v-3.4c0-0.3,0.1-0.5,0.2-0.6
		c0.1-0.1,0.3-0.2,0.5-0.2c0.2,0,0.4,0.1,0.5,0.2c0.2,0.2,0.3,0.4,0.3,0.6V261.8z M385.2,258.9c-0.1,0.1-0.3,0.2-0.5,0.2
		c-0.2,0-0.4-0.1-0.5-0.2c-0.2-0.2-0.2-0.4-0.2-0.6v-14c0-0.2,0.1-0.4,0.2-0.5c0.1-0.1,0.3-0.2,0.5-0.2c0.2,0,0.4,0.1,0.5,0.2
		c0.2,0.1,0.3,0.3,0.3,0.5v14C385.4,258.5,385.3,258.7,385.2,258.9z"/>
	<path class="st3" d="M413.6,262c0.1,0.1,0.2,0.3,0.2,0.5c0,0.2-0.1,0.3-0.2,0.5c-0.1,0.1-0.2,0.2-0.4,0.2h-20.1
		c-0.2,0-0.3-0.1-0.4-0.2c-0.1-0.1-0.1-0.3-0.1-0.5c0-0.2,0.1-0.3,0.2-0.5c0.1-0.1,0.3-0.2,0.6-0.2h19.7
		C413.3,261.8,413.5,261.8,413.6,262z M412.1,255c0,0.4-0.2,0.7-0.6,0.7H395c-0.4,0-0.6-0.2-0.6-0.7c0-0.4,0.2-0.6,0.7-0.6h3.1
		l-0.8-6.9c0-0.2,0-0.4,0.2-0.6c0.1-0.1,0.3-0.2,0.5-0.2c0.2,0,0.4,0,0.5,0.1c0.2,0.1,0.3,0.3,0.3,0.5l0.8,7.1h7.1l0.8-7
		c0-0.2,0.1-0.4,0.3-0.5c0.2-0.1,0.3-0.1,0.5-0.1c0.2,0,0.4,0.1,0.5,0.2c0.2,0.2,0.2,0.4,0.2,0.6l-0.8,6.9h3.1
		C411.9,254.4,412.1,254.6,412.1,255z M411.9,244.5c0.1,0.1,0.2,0.3,0.2,0.5c0,0.2,0,0.3-0.2,0.4c-0.1,0.2-0.3,0.2-0.5,0.2h-16.4
		c-0.5,0-0.7-0.2-0.7-0.7c0-0.4,0.2-0.7,0.7-0.7h16.3C411.6,244.3,411.8,244.3,411.9,244.5z"/>
	<path class="st3" d="M429.5,244.8c0.4,0.3,0.7,0.8,0.7,1.4v4.9c0,0.6-0.2,1.1-0.6,1.5c-0.4,0.4-1,0.5-1.8,0.5h-5.4
		c-0.4,0-0.7,0.1-0.9,0.3c-0.2,0.2-0.2,0.5-0.2,0.9v5.7c0,0.5,0.1,0.8,0.3,1c0.2,0.2,0.6,0.3,1.1,0.3c1.9,0,3.8-0.2,5.7-0.5
		c1.8-0.3,3.3-0.8,4.5-1.3c0.4-0.2,0.7-0.1,0.9,0.3c0.2,0.4,0.1,0.7-0.4,1c-1.4,0.6-3.2,1.1-5.3,1.4c-1.9,0.3-3.8,0.5-5.8,0.5
		c-0.8,0-1.5-0.2-1.9-0.7c-0.4-0.4-0.6-1-0.6-1.8v-6c0-0.7,0.2-1.3,0.6-1.7c0.4-0.4,1-0.7,1.8-0.7h5.5c0.4,0,0.7-0.1,0.9-0.2
		c0.2-0.1,0.3-0.4,0.3-0.7v-4.3c0-0.3-0.1-0.6-0.4-0.8c-0.2-0.2-0.6-0.2-1.1-0.2h-6.8c-0.5,0-0.8-0.2-0.8-0.6c0-0.4,0.3-0.6,0.8-0.6
		h7.3C428.5,244.3,429.1,244.5,429.5,244.8z M439.5,253.6c0.4,0,0.6,0.2,0.6,0.6c0,0.4-0.2,0.6-0.6,0.6h-2.8v9.3
		c0,0.2-0.1,0.4-0.3,0.5c-0.1,0.1-0.3,0.2-0.5,0.2s-0.4-0.1-0.5-0.2c-0.2-0.1-0.2-0.3-0.2-0.5v-19.8c0-0.2,0.1-0.4,0.2-0.5
		c0.1-0.1,0.3-0.2,0.5-0.2s0.4,0.1,0.5,0.2c0.2,0.1,0.3,0.3,0.3,0.5v9.3H439.5z"/>
</g>
<g>
	<path class="st3" d="M408.8,286.9c0.1-0.1,0.2-0.1,0.4-0.1s0.3,0,0.4,0.1c0.1,0.1,0.2,0.3,0.2,0.5v11.8c0,0.4,0.1,0.6,0.3,0.8
		c0.2,0.1,0.4,0.2,0.8,0.2c1,0,1.9-0.1,2.8-0.2c0.8-0.1,1.5-0.3,2.2-0.5c0.2-0.1,0.3-0.1,0.5,0c0.1,0.1,0.2,0.2,0.2,0.3
		c0,0.2,0,0.3-0.1,0.4c-0.1,0.2-0.2,0.3-0.4,0.3c-0.7,0.2-1.5,0.4-2.4,0.5c-0.9,0.1-2,0.2-3.2,0.2c-0.6,0-1.1-0.2-1.4-0.6
		c-0.3-0.4-0.5-0.8-0.5-1.5v-11.7C408.6,287.2,408.7,287,408.8,286.9z M418.9,303.2c-0.1,0.1-0.2,0.2-0.4,0.2s-0.3-0.1-0.4-0.2
		c-0.1-0.1-0.2-0.3-0.2-0.5v-8.9h-3.6c-0.2,0-0.4-0.1-0.5-0.2c-0.1-0.1-0.2-0.2-0.2-0.4c0-0.1,0-0.3,0.1-0.4
		c0.1-0.1,0.2-0.1,0.4-0.1h3.7v-5.9c0-0.2,0.1-0.3,0.2-0.4c0.1-0.1,0.2-0.1,0.4-0.1s0.3,0,0.4,0.1c0.1,0.1,0.2,0.2,0.2,0.4v16
		C419.1,302.9,419.1,303,418.9,303.2z M423.2,303.2c-0.1,0.1-0.2,0.2-0.4,0.2c-0.2,0-0.3-0.1-0.4-0.2c-0.1-0.1-0.2-0.3-0.2-0.5
		v-15.9c0-0.2,0.1-0.3,0.2-0.4c0.1-0.1,0.2-0.1,0.4-0.1c0.2,0,0.3,0,0.4,0.1c0.1,0.1,0.2,0.2,0.2,0.4v16
		C423.4,302.9,423.4,303,423.2,303.2z"/>
	<path class="st3" d="M445.7,301c0.1,0.1,0.2,0.2,0.2,0.4c0,0.1,0,0.3-0.1,0.4s-0.2,0.2-0.3,0.2h-16.2c-0.2,0-0.3-0.1-0.3-0.2
		s-0.1-0.2-0.1-0.4s0.1-0.3,0.2-0.4c0.1-0.1,0.3-0.1,0.5-0.1h15.9C445.4,300.9,445.6,300.9,445.7,301z M444.3,286.9
		c0.1,0.1,0.1,0.2,0.1,0.4c0,0.1,0,0.3-0.1,0.3c-0.1,0.1-0.2,0.2-0.4,0.2h-11.3c-0.4,0-0.6,0.1-0.8,0.2c-0.2,0.2-0.2,0.4-0.2,0.7
		v2.3h12c0.4,0,0.6,0.2,0.6,0.5c0,0.4-0.2,0.5-0.6,0.5h-12v2.7c0,0.3,0.1,0.5,0.2,0.6c0.1,0.1,0.4,0.2,0.7,0.2h11.4
		c0.2,0,0.3,0,0.4,0.1c0.1,0.1,0.1,0.2,0.1,0.4c0,0.1,0,0.3-0.1,0.4s-0.2,0.2-0.4,0.2h-11.6c-0.6,0-1.1-0.2-1.4-0.5
		s-0.5-0.7-0.5-1.3v-6.2c0-0.5,0.2-1,0.5-1.3c0.4-0.4,0.9-0.5,1.5-0.5h11.5C444,286.7,444.2,286.8,444.3,286.9z"/>
	<path class="st3" d="M452.6,296.4c-1,0-1.9,0-2.6,0c-0.3,0-0.5-0.2-0.5-0.5s0.2-0.5,0.6-0.5c2,0,3.9,0,5.8-0.1
		c2.2-0.1,4-0.1,5.6-0.3c0.2,0,0.3,0,0.5,0.1c0.1,0.1,0.2,0.2,0.2,0.3c0,0.1,0,0.2-0.1,0.3c-0.1,0.1-0.2,0.2-0.4,0.2
		c-0.8,0.1-1.7,0.1-2.6,0.2c-0.8,0.1-1.7,0.1-2.5,0.1v2.5c0,0.9-0.1,1.6-0.3,2.3c-0.2,0.6-0.5,1.1-1,1.5c-0.3,0.3-0.6,0.3-0.8,0
		c-0.3-0.2-0.3-0.5,0-0.8c0.3-0.4,0.6-0.8,0.7-1.2c0.1-0.4,0.2-1,0.2-1.7v-2.5C454.7,296.4,453.8,296.4,452.6,296.4z M460,287.7
		c0.9,0.6,1.4,1.4,1.4,2.4c0,0.9-0.5,1.7-1.4,2.3c-1,0.7-2.3,1.1-4,1.1c-1.7,0-3-0.4-4-1.1c-0.9-0.6-1.3-1.4-1.3-2.3
		c0-0.9,0.4-1.7,1.3-2.4c1-0.7,2.3-1,4-1C457.7,286.7,459,287,460,287.7z M452.9,288.5c-0.7,0.4-1,1-1,1.6c0,0.6,0.3,1.1,1,1.6
		c0.8,0.5,1.8,0.7,3.1,0.7c1.3,0,2.3-0.2,3.1-0.7c0.7-0.5,1-1,1-1.6c0-0.6-0.3-1.2-1-1.6c-0.8-0.5-1.8-0.7-3.1-0.7
		C454.7,287.7,453.7,288,452.9,288.5z M464.7,303.2c-0.1,0.1-0.2,0.2-0.4,0.2c-0.2,0-0.3-0.1-0.4-0.2c-0.1-0.1-0.2-0.3-0.2-0.5v-4
		h-3.9c-0.2,0-0.4-0.1-0.5-0.2c-0.1-0.1-0.2-0.2-0.2-0.3c0-0.2,0-0.3,0.1-0.4c0.1-0.1,0.3-0.2,0.5-0.2h3.9v-10.8
		c0-0.2,0.1-0.3,0.2-0.4c0.1-0.1,0.3-0.1,0.4-0.1c0.2,0,0.3,0,0.4,0.1c0.1,0.1,0.2,0.2,0.2,0.4v16
		C464.9,302.9,464.8,303,464.7,303.2z"/>
	<path class="st3" d="M487.7,301c0.1,0.1,0.2,0.2,0.2,0.4c0,0.1,0,0.3-0.1,0.4s-0.2,0.2-0.3,0.2h-16.2c-0.2,0-0.3-0.1-0.3-0.2
		s-0.1-0.2-0.1-0.4s0.1-0.3,0.2-0.4c0.1-0.1,0.3-0.1,0.5-0.1h15.9C487.4,300.9,487.6,300.9,487.7,301z M484.7,293.2
		c0,0.3-0.1,0.5-0.5,0.6c-1.8,0.2-3.7,0.3-5.8,0.5c-2.2,0.1-4.2,0.2-6,0.2c-0.4,0-0.6-0.2-0.6-0.5c0-0.3,0.2-0.5,0.6-0.5
		c1.8,0,3.8-0.1,5.9-0.2c2.3-0.1,4.2-0.3,5.9-0.5C484.5,292.7,484.7,292.8,484.7,293.2z M485.6,287.2c0.4,0.3,0.6,0.8,0.6,1.3v3.9
		c0,2-0.1,3.5-0.2,4.6c-0.2,1.3-0.5,2.6-1.1,3.9h-1.3c0.6-1.3,1-2.6,1.1-3.9c0.1-0.9,0.2-2.4,0.2-4.4v-4c0-0.3-0.1-0.5-0.2-0.6
		c-0.2-0.1-0.4-0.2-0.8-0.2h-11c-0.4,0-0.5-0.2-0.5-0.5s0.2-0.5,0.6-0.5h11C484.7,286.7,485.2,286.9,485.6,287.2z"/>
</g>
<g>
	<path class="st3" d="M284.8,301.6c0.1,0.1,0.2,0.2,0.2,0.4s-0.1,0.3-0.2,0.4s-0.3,0.2-0.4,0.2h-15.9c-0.4,0-0.6-0.2-0.6-0.5
		c0-0.3,0.2-0.5,0.6-0.5h15.9C284.5,301.4,284.7,301.5,284.8,301.6z M276,287.1c0.1-0.1,0.2-0.2,0.4-0.2c0.2,0,0.3,0.1,0.4,0.2
		c0.1,0.1,0.2,0.3,0.2,0.5c0,2.1,0.7,3.9,2.1,5.4c1.2,1.3,2.7,2.1,4.5,2.5c0.2,0,0.4,0.1,0.5,0.3c0.1,0.1,0.1,0.3,0.1,0.4
		c0,0.2-0.1,0.3-0.2,0.3c-0.2,0.1-0.4,0.1-0.6,0.1c-1.6-0.3-3-1.1-4.4-2.3c-1.3-1.2-2.1-2.4-2.6-3.8c-0.4,1.4-1.3,2.7-2.6,3.8
		c-1.4,1.2-2.9,2-4.5,2.4c-0.2,0-0.4,0-0.5-0.1c-0.1-0.1-0.2-0.2-0.2-0.3c0-0.2,0-0.3,0.1-0.4c0.1-0.1,0.3-0.2,0.5-0.3
		c1.7-0.3,3.2-1.2,4.4-2.5c1.5-1.5,2.2-3.3,2.2-5.4C275.8,287.4,275.9,287.2,276,287.1z"/>
	<path class="st3" d="M297,297c0.1-0.1,0.2-0.1,0.4-0.1c0.2,0,0.3,0.1,0.4,0.2c0.1,0.1,0.2,0.3,0.2,0.5v3.9h7.3c0.2,0,0.3,0,0.5,0.1
		c0.1,0.1,0.2,0.2,0.2,0.4s-0.1,0.3-0.2,0.4s-0.3,0.2-0.4,0.2h-16.1c-0.2,0-0.3-0.1-0.3-0.2s-0.1-0.2-0.1-0.4s0.1-0.3,0.2-0.4
		c0.1-0.1,0.3-0.1,0.5-0.1h7.4v-4C296.8,297.3,296.9,297.1,297,297z M304.4,287.4c0.1,0.1,0.1,0.2,0.1,0.4c0,0.1,0,0.3-0.1,0.3
		c-0.1,0.1-0.2,0.2-0.4,0.2h-11.3c-0.4,0-0.6,0.1-0.8,0.2c-0.2,0.2-0.2,0.4-0.2,0.7v2.3h12c0.4,0,0.6,0.2,0.6,0.5
		c0,0.4-0.2,0.5-0.6,0.5h-12v2.7c0,0.3,0.1,0.5,0.2,0.6c0.1,0.1,0.4,0.2,0.7,0.2H304c0.2,0,0.3,0,0.4,0.1c0.1,0.1,0.1,0.2,0.1,0.4
		c0,0.1,0,0.3-0.1,0.4s-0.2,0.2-0.4,0.2h-11.6c-0.6,0-1.1-0.2-1.4-0.5s-0.5-0.7-0.5-1.3v-6.2c0-0.5,0.2-1,0.5-1.3
		c0.4-0.4,0.9-0.5,1.5-0.5h11.5C304.1,287.3,304.3,287.3,304.4,287.4z"/>
	<path class="st3" d="M318.6,287.7c0.4,0.3,0.5,0.7,0.5,1.2v4c0,0.5-0.2,0.9-0.5,1.2c-0.3,0.3-0.8,0.4-1.4,0.4h-4.4
		c-0.3,0-0.6,0.1-0.7,0.2c-0.1,0.2-0.2,0.4-0.2,0.8v4.6c0,0.4,0.1,0.6,0.2,0.8c0.2,0.2,0.5,0.3,0.9,0.3c1.6,0,3.1-0.1,4.6-0.4
		c1.4-0.3,2.6-0.6,3.6-1.1c0.4-0.2,0.6-0.1,0.7,0.2c0.2,0.3,0.1,0.6-0.3,0.8c-1.1,0.5-2.5,0.9-4.2,1.1c-1.5,0.2-3.1,0.4-4.7,0.4
		c-0.7,0-1.2-0.2-1.5-0.6c-0.3-0.4-0.5-0.8-0.5-1.5v-4.8c0-0.6,0.2-1,0.5-1.4c0.3-0.4,0.8-0.5,1.4-0.5h4.4c0.3,0,0.6-0.1,0.7-0.2
		c0.1-0.1,0.2-0.3,0.2-0.6v-3.5c0-0.3-0.1-0.5-0.3-0.6c-0.2-0.1-0.5-0.2-0.9-0.2h-5.5c-0.4,0-0.6-0.2-0.6-0.5c0-0.3,0.2-0.5,0.7-0.5
		h5.9C317.8,287.3,318.2,287.5,318.6,287.7z M324.8,303.7c-0.1,0.1-0.2,0.2-0.4,0.2c-0.2,0-0.3-0.1-0.4-0.2
		c-0.1-0.1-0.2-0.3-0.2-0.5v-16c0-0.2,0.1-0.3,0.2-0.4c0.1-0.1,0.3-0.1,0.4-0.1c0.2,0,0.3,0,0.4,0.1c0.1,0.1,0.2,0.3,0.2,0.4v16
		C325,303.4,324.9,303.6,324.8,303.7z"/>
	<path class="st3" d="M342.1,287.9c0,0.4-0.2,0.5-0.5,0.5h-4.1v3.3c0,2.1,0.5,4.1,1.4,5.8c0.9,1.7,2,2.9,3.5,3.7
		c0.2,0.1,0.3,0.2,0.3,0.4s0,0.3,0,0.5c-0.1,0.2-0.2,0.2-0.4,0.3c-0.2,0.1-0.4,0-0.6-0.1c-1.1-0.6-2.1-1.6-3-2.9
		c-0.9-1.4-1.5-2.7-1.7-4.1c-0.3,1.4-0.9,2.8-1.8,4.1c-0.9,1.4-1.9,2.3-3.1,2.9c-0.2,0.1-0.3,0.1-0.5,0c-0.1-0.1-0.2-0.2-0.3-0.3
		c-0.1-0.2-0.1-0.3-0.1-0.5c0.1-0.2,0.2-0.3,0.3-0.4c1.4-0.7,2.5-1.9,3.4-3.7c0.9-1.8,1.4-3.7,1.4-5.8v-3.3h-4.1
		c-0.4,0-0.6-0.2-0.6-0.5c0-0.3,0.2-0.5,0.6-0.5h9.3C342,287.4,342.1,287.5,342.1,287.9z M345.8,303.7c-0.1,0.1-0.2,0.2-0.4,0.2
		c-0.2,0-0.3-0.1-0.4-0.2c-0.1-0.1-0.2-0.3-0.2-0.5v-16c0-0.2,0.1-0.3,0.2-0.4c0.1-0.1,0.3-0.1,0.4-0.1c0.2,0,0.3,0,0.4,0.1
		c0.1,0.1,0.2,0.3,0.2,0.4v16C346,303.4,345.9,303.6,345.8,303.7z"/>
</g>
<g>
	<path class="st3" d="M133.3,290.4c0.1,0.1,0.2,0.2,0.2,0.3c0,0.1,0,0.3-0.1,0.4c-0.1,0.1-0.2,0.2-0.4,0.2c-1,0.2-2.1,0.3-3.3,0.5
		c-1.4,0.2-2.5,0.2-3.5,0.2c-0.4,0-0.6-0.2-0.6-0.5s0.2-0.5,0.6-0.5c1,0,2.1-0.1,3.4-0.2c1.1-0.1,2.2-0.2,3.2-0.4
		C133,290.3,133.2,290.4,133.3,290.4z M134.5,287.6c0.3,0.3,0.5,0.7,0.5,1.3v0.9c0,1.9-0.7,3.4-2.1,4.6c-1.5,1.3-3.7,2-6.5,2.2
		c-0.2,0-0.4-0.1-0.5-0.2c-0.1-0.1-0.2-0.2-0.2-0.3c0-0.2,0-0.3,0.1-0.4c0.1-0.1,0.3-0.2,0.5-0.2c2.5-0.1,4.5-0.7,5.8-1.9
		c1.1-1,1.7-2.3,1.7-3.8v-0.6c0-0.3-0.1-0.6-0.2-0.7s-0.4-0.2-0.8-0.2h-5.9c-0.2,0-0.4-0.1-0.5-0.2c-0.1-0.1-0.1-0.2-0.1-0.4
		s0-0.3,0.1-0.4c0.1-0.1,0.3-0.1,0.5-0.1h6.1C133.6,287.1,134.2,287.3,134.5,287.6z M140.3,297.8c0.3,0.3,0.5,0.6,0.5,1v2.9
		c0,0.5-0.2,0.9-0.5,1.2c-0.3,0.3-0.7,0.4-1.3,0.4h-9.5c-0.7,0-1.2-0.2-1.5-0.5c-0.3-0.3-0.4-0.7-0.4-1.2v-2.7
		c0-0.4,0.2-0.8,0.5-1.1s0.7-0.4,1.2-0.4h9.6C139.5,297.4,140,297.5,140.3,297.8z M139.4,298.6c-0.1-0.1-0.4-0.1-0.7-0.1h-8.9
		c-0.3,0-0.6,0.1-0.7,0.2c-0.1,0.1-0.2,0.3-0.2,0.6v2.3c0,0.3,0.1,0.5,0.2,0.6c0.1,0.1,0.4,0.2,0.7,0.2h8.9c0.3,0,0.5,0,0.7-0.1
		c0.2-0.1,0.2-0.3,0.2-0.5v-2.4C139.6,298.9,139.5,298.7,139.4,298.6z M140.6,295.8c-0.1,0.1-0.2,0.2-0.4,0.2
		c-0.2,0-0.3-0.1-0.4-0.2c-0.1-0.1-0.2-0.3-0.2-0.5v-2.9h-3.7c-0.2,0-0.4-0.1-0.5-0.2c-0.1-0.1-0.2-0.2-0.2-0.3c0-0.2,0-0.3,0.1-0.4
		c0.1-0.1,0.3-0.2,0.5-0.2h3.8v-4.1c0-0.2,0.1-0.4,0.2-0.5c0.1-0.1,0.3-0.1,0.4-0.1c0.2,0,0.3,0,0.4,0.1c0.1,0.1,0.2,0.3,0.2,0.5
		v8.1C140.8,295.6,140.8,295.7,140.6,295.8z"/>
	<path class="st3" d="M163.8,297.8c0,0.4-0.2,0.5-0.5,0.5H160v4.8c0,0.2-0.1,0.3-0.2,0.5c-0.1,0.1-0.2,0.2-0.4,0.2s-0.3,0-0.4-0.1
		c-0.1-0.1-0.2-0.3-0.2-0.5v-4.8h-6.5v1.9c0,0.7-0.1,1.3-0.3,1.9c-0.2,0.6-0.5,1-0.8,1.4c-0.1,0.1-0.3,0.2-0.5,0.2
		c-0.2,0-0.3-0.1-0.4-0.2s-0.2-0.2-0.2-0.4c0-0.2,0.1-0.3,0.2-0.5c0.3-0.3,0.5-0.7,0.6-1.1c0.1-0.3,0.1-0.8,0.1-1.5v-1.9h-3.9
		c-0.2,0-0.3-0.1-0.4-0.2c-0.1-0.1-0.1-0.2-0.1-0.3c0-0.2,0-0.3,0.1-0.4c0.1-0.1,0.3-0.2,0.5-0.2h16
		C163.6,297.3,163.8,297.4,163.8,297.8z M162.4,294.1c0,0.3-0.1,0.5-0.4,0.5h-13.4c-0.3,0-0.5-0.2-0.5-0.5c0-0.3,0.2-0.5,0.5-0.5
		h2.6l-0.7-4.2c0-0.2,0-0.3,0.1-0.5c0.1-0.1,0.2-0.2,0.4-0.2s0.3,0,0.5,0.1c0.1,0.1,0.2,0.2,0.2,0.4l0.8,4.3h5.5l0.8-4.3
		c0-0.2,0.1-0.3,0.2-0.4c0.1-0.1,0.3-0.1,0.5-0.1c0.2,0,0.3,0.1,0.4,0.2c0.1,0.1,0.2,0.3,0.1,0.5l-0.8,4.2h2.6
		C162.2,293.5,162.4,293.7,162.4,294.1z M162.2,287.3c0.1,0.1,0.2,0.2,0.2,0.4s0,0.3-0.1,0.4c-0.1,0.1-0.2,0.2-0.4,0.2h-13.2
		c-0.4,0-0.6-0.2-0.6-0.5c0-0.3,0.2-0.5,0.6-0.5h13.2C162,287.2,162.1,287.2,162.2,287.3z"/>
	<path class="st3" d="M177.8,287.2c0.1,0.1,0.2,0.2,0.2,0.4s-0.1,0.3-0.2,0.4c-0.1,0.1-0.3,0.2-0.5,0.2h-6.7c-0.3,0-0.5,0.1-0.7,0.2
		c-0.1,0.2-0.2,0.4-0.2,0.7v1.6h7.2c0.4,0,0.6,0.2,0.6,0.5c0,0.4-0.2,0.5-0.6,0.5h-7.2v2.2c0,0.3,0.1,0.6,0.2,0.7
		c0.1,0.2,0.4,0.2,0.7,0.2c1.7,0,3.3-0.1,4.7-0.2c1.5-0.2,2.8-0.4,3.8-0.7c0.2-0.1,0.4-0.1,0.5,0c0.1,0.1,0.2,0.2,0.3,0.3
		c0.1,0.1,0,0.3,0,0.4s-0.2,0.2-0.3,0.3c-1.1,0.3-2.5,0.5-4.1,0.7c-1.5,0.2-3.1,0.2-4.8,0.2c-0.8,0-1.3-0.2-1.7-0.5
		c-0.3-0.3-0.5-0.8-0.5-1.5v-5c0-0.5,0.2-0.9,0.5-1.2c0.4-0.3,0.8-0.5,1.4-0.5h6.8C177.6,287.1,177.7,287.1,177.8,287.2z
		 M181.3,298.5c1.1,0.5,1.6,1.3,1.6,2.2c0,0.9-0.5,1.6-1.6,2.2c-1.2,0.6-2.9,0.9-5.1,0.9s-4-0.3-5.1-0.9c-1.1-0.5-1.6-1.3-1.6-2.2
		c0-0.9,0.5-1.7,1.6-2.2c1.2-0.6,2.9-0.9,5.1-0.9S180.2,297.9,181.3,298.5z M172,299.2c-0.9,0.4-1.3,0.9-1.3,1.5
		c0,0.6,0.4,1.1,1.3,1.5c1,0.4,2.4,0.6,4.2,0.6c1.9,0,3.3-0.2,4.2-0.6c0.9-0.4,1.3-0.8,1.3-1.5c0-0.6-0.4-1.1-1.3-1.5
		c-1-0.4-2.4-0.6-4.2-0.6C174.3,298.6,172.9,298.8,172,299.2z M182.6,297.1c-0.1,0.1-0.2,0.2-0.4,0.2c-0.2,0-0.3-0.1-0.4-0.2
		c-0.1-0.1-0.2-0.3-0.2-0.5v-9.4c0-0.2,0.1-0.3,0.2-0.4c0.1-0.1,0.3-0.1,0.4-0.1c0.2,0,0.3,0,0.4,0.1c0.1,0.1,0.2,0.2,0.2,0.4v9.4
		C182.8,296.8,182.8,297,182.6,297.1z"/>
</g>
<g>
</g>
<g>
</g>
</svg>
