<?xml version="1.0" encoding="UTF-8" standalone="no"?>
<!-- Generator: Adobe Illustrator 21.0.0, SVG Export Plug-In . SVG Version: 6.00 Build 0)  -->

<svg
   xmlns:dc="http://purl.org/dc/elements/1.1/"
   xmlns:cc="http://creativecommons.org/ns#"
   xmlns:rdf="http://www.w3.org/1999/02/22-rdf-syntax-ns#"
   xmlns:svg="http://www.w3.org/2000/svg"
   xmlns="http://www.w3.org/2000/svg"
   xmlns:sodipodi="http://sodipodi.sourceforge.net/DTD/sodipodi-0.dtd"
   xmlns:inkscape="http://www.inkscape.org/namespaces/inkscape"
   version="1.1"
   x="0px"
   y="0px"
   viewBox="0 0 500 254"
   style="enable-background:new 0 0 500 254;"
   xml:space="preserve"
   id="svg2"
   inkscape:version="0.91 r13725"
   sodipodi:docname="vcscar-skate-language.svg"><metadata
     id="metadata160"><rdf:RDF><cc:Work
         rdf:about=""><dc:format>image/svg+xml</dc:format><dc:type
           rdf:resource="http://purl.org/dc/dcmitype/StillImage" /></cc:Work></rdf:RDF></metadata><defs
     id="defs158" /><sodipodi:namedview
     pagecolor="#ffffff"
     bordercolor="#666666"
     borderopacity="1"
     objecttolerance="10"
     gridtolerance="10"
     guidetolerance="10"
     inkscape:pageopacity="0"
     inkscape:pageshadow="2"
     inkscape:window-width="1920"
     inkscape:window-height="1015"
     id="namedview156"
     showgrid="false"
     inkscape:zoom="2.6895119"
     inkscape:cx="245.85869"
     inkscape:cy="127"
     inkscape:window-x="-8"
     inkscape:window-y="-8"
     inkscape:window-maximized="1"
     inkscape:current-layer="svg2" /><style
     type="text/css"
     id="style4">
	.st0{fill:none;stroke:#000000;stroke-width:0.75;stroke-miterlimit:10;}
	.st1{fill:#FFFFFF;}
	.st2{font-family:'IBMPlexSans';}
	.st3{font-size:12px;}
	.st4{fill:#FFFFFF;stroke:#29ABE2;stroke-miterlimit:10;}
	.st5{font-size:14px;}
</style><g
     id="line_from_base_to_trick_complete"><g
       id="g7"><line
         class="st0"
         x1="108.5"
         y1="91.5"
         x2="453.5"
         y2="91.5"
         id="line9" /><g
         id="g11"><g
           id="g13"><line
             class="st0"
             x1="453.5"
             y1="91.5"
             x2="453.5"
             y2="202.1"
             id="line15" /><g
             id="g17"><polygon
               points="449.8,201 453.5,207.5 457.2,201      "
               id="polygon19" /></g></g></g></g></g><g
     id="trick_complete"><g
       id="g22"><g
         id="g24"><rect
           x="417.5"
           y="207.5"
           class="st1"
           width="74"
           height="42"
           id="rect26" /><path
           d="M491,208v41h-73v-41H491 M492,207h-75v43h75V207L492,207z"
           id="path28" /></g><text
         transform="translate(436,225)"
         class="st2 st3"
         id="text32"
         style="font-size:12px;font-family:IBMPlexSans" />
</g></g><g
     id="left_black_dot"><circle
       cx="139.5"
       cy="92.5"
       r="8.5"
       id="circle35" /></g><g
     id="right_black_dot"><circle
       cx="300.5"
       cy="92.5"
       r="8.5"
       id="circle38" /></g><g
     id="line_from_trick_start_to_base"><g
       id="g41"><g
         id="g43"><line
           class="st0"
           x1="55"
           y1="46"
           x2="55"
           y2="69.6"
           id="line45" /><g
           id="g47"><polygon
             points="51.3,68.5 55,75 58.7,68.5     "
             id="polygon49" /></g></g></g></g><g
     id="line_from_left_black_dot_to_trick_complete"><g
       id="g52"><g
         id="g54"><g
           id="g56"><line
             class="st0"
             x1="410.6"
             y1="236.5"
             x2="139.5"
             y2="236.5"
             id="line58" /><g
             id="g60"><polygon
               points="409.5,232.8 416,236.5 409.5,240.2      "
               id="polygon62" /></g></g></g><line
         class="st0"
         x1="139.5"
         y1="98.5"
         x2="139.5"
         y2="236.5"
         id="line64" /></g></g><g
     id="left_line_to_landing"><g
       id="g67"><g
         id="g69"><line
           class="st0"
           x1="152.5"
           y1="156.5"
           x2="238.1"
           y2="156.5"
           id="line71" /><g
           id="g73"><polygon
             points="237,160.2 243.5,156.5 237,152.8     "
             id="polygon75" /></g></g></g><path
       class="st0"
       d="M291,156.5H149c-5.2,0-9.5-4.3-9.5-9.5v-46c0-5.2,4.3-9.5,9.5-9.5h142c5.2,0,9.5,4.3,9.5,9.5v46   C300.5,152.2,296.2,156.5,291,156.5z"
       id="path77" /></g><g
     id="top_line_to_landing"><g
       id="g80"><g
         id="g82"><line
           class="st0"
           x1="300.5"
           y1="96.5"
           x2="300.5"
           y2="133.1"
           id="line84" /><g
           id="g86"><polygon
             points="296.8,132 300.5,138.5 304.2,132     "
             id="polygon88" /></g></g></g></g><g
     id="line_from_landing_to_complete"><g
       id="g91"><g
         id="g93"><g
           id="g95"><line
             class="st0"
             x1="411.1"
             y1="221.5"
             x2="300.5"
             y2="221.5"
             id="line97" /><g
             id="g99"><polygon
               points="410,217.8 416.5,221.5 410,225.2      "
               id="polygon101" /></g></g></g><line
         class="st0"
         x1="300.5"
         y1="171.5"
         x2="300.5"
         y2="221.5"
         id="line103" /></g></g><g
     id="Layer_16"><g
       id="g106"><g
         id="g108"><line
           class="st0"
           x1="218.5"
           y1="65.5"
           x2="218.5"
           y2="69.1"
           id="line110" /><g
           id="g112"><polygon
             points="214.8,68 218.5,74.5 222.2,68     "
             id="polygon114" /></g></g></g><path
       class="st0"
       d="M294.8,91.5h-70.5c-3.2,0-5.8-2.6-5.8-5.8V62.3c0-3.2,2.6-5.8,5.8-5.8h70.5c3.2,0,5.8,2.6,5.8,5.8v23.5   C300.5,88.9,297.9,91.5,294.8,91.5z"
       id="path116" /></g><g
     id="Layer_14" /><g
     id="base_combo"><g
       id="g120"><path
         class="st4"
         d="M97,107.5H23c-6.6,0-12-5.4-12-12V87c0-6.6,5.4-12,12-12h74c6.6,0,12,5.4,12,12v8.5    C109,102.1,103.6,107.5,97,107.5z"
         id="path122" /><text
         transform="matrix(1 0 0 1 24.3335 96)"
         class="st2 st5"
         id="text124">base_combo</text>
</g></g><g
     id="next_combo"><g
       id="g127"><path
         class="st4"
         d="M255,107.5h-74c-6.6,0-12-5.4-12-12V87c0-6.6,5.4-12,12-12h74c6.6,0,12,5.4,12,12v8.5    C267,102.1,261.6,107.5,255,107.5z"
         id="path129" /><text
         transform="matrix(1 0 0 1 183.6665 96)"
         class="st2 st5"
         id="text131">next_combo</text>
</g></g><g
     id="landing_combo"><g
       id="g134"><path
         class="st4"
         d="M344.5,171.5H257c-6.6,0-12-5.4-12-12V151c0-6.6,5.4-12,12-12h87.5c6.6,0,12,5.4,12,12v8.5    C356.5,166.1,351.1,171.5,344.5,171.5z"
         id="path136" /><text
         transform="matrix(1 0 0 1 256.667 159.667)"
         class="st2 st5"
         id="text138">landing_combo</text>
</g></g><g
     id="trick_start"><g
       id="g141"><g
         id="g143"><rect
           x="22.5"
           y="4.5"
           class="st1"
           width="74"
           height="41"
           id="rect145" /><path
           d="M96,5v40H23V5H96 M97,4H22v42h75V4L97,4z"
           id="path147" /></g><text
         id="text149"
         sodipodi:linespacing="125%"
         x="43.6665"
         y="21.6665"
         style="line-height:125%"><tspan
           sodipodi:role="line"
           id="tspan4294"
           style="font-style:normal;font-variant:normal;font-weight:normal;font-stretch:normal;font-family:Gulim;-inkscape-font-specification:Gulim"
           x="43.6665"
           y="21.6665">트릭</tspan><tspan
           sodipodi:role="line"
           id="tspan4296"
           style="font-style:normal;font-variant:normal;font-weight:normal;font-stretch:normal;font-family:Gulim;-inkscape-font-specification:Gulim"
           x="43.6665"
           y="36.6665">시작</tspan></text>
</g></g><g
     id="Layer_3" /><text
     id="text149-7"
     sodipodi:linespacing="125%"
     x="440.8125"
     y="224.03598"
     style="line-height:125%"><tspan
       sodipodi:role="line"
       id="tspan4294-9"
       style="font-style:normal;font-variant:normal;font-weight:normal;font-stretch:normal;font-family:Gulim;-inkscape-font-specification:Gulim"
       x="440.8125"
       y="224.03598">트릭</tspan><tspan
       sodipodi:role="line"
       id="tspan4296-1"
       style="font-style:normal;font-variant:normal;font-weight:normal;font-stretch:normal;font-family:Gulim;-inkscape-font-specification:Gulim"
       x="440.8125"
       y="239.03598">완료</tspan><tspan
       sodipodi:role="line"
       style="font-style:normal;font-variant:normal;font-weight:normal;font-stretch:normal;font-family:Gulim;-inkscape-font-specification:Gulim"
       x="440.8125"
       y="254.03598"
       id="tspan4323" /></text>
</svg>
