<?xml version="1.0" encoding="UTF-8" standalone="no"?>
<!-- Generator: Adobe Illustrator 22.0.1, SVG Export Plug-In . SVG Version: 6.00 Build 0)  -->

<svg
   xmlns:dc="http://purl.org/dc/elements/1.1/"
   xmlns:cc="http://creativecommons.org/ns#"
   xmlns:rdf="http://www.w3.org/1999/02/22-rdf-syntax-ns#"
   xmlns:svg="http://www.w3.org/2000/svg"
   xmlns="http://www.w3.org/2000/svg"
   xmlns:sodipodi="http://sodipodi.sourceforge.net/DTD/sodipodi-0.dtd"
   xmlns:inkscape="http://www.inkscape.org/namespaces/inkscape"
   version="1.1"
   x="0px"
   y="0px"
   viewBox="0 0 856 564"
   style="enable-background:new 0 0 856 564;"
   xml:space="preserve"
   id="svg2"
   inkscape:version="0.91 r13725"
   sodipodi:docname="cloudfoundation_hybrid_cloud_services.svg"><metadata
   id="metadata649"><rdf:RDF><cc:Work
       rdf:about=""><dc:format>image/svg+xml</dc:format><dc:type
         rdf:resource="http://purl.org/dc/dcmitype/StillImage" /></cc:Work></rdf:RDF></metadata><defs
   id="defs647">
	

		
		
	
	
	

		
		
	</defs><sodipodi:namedview
   pagecolor="#ffffff"
   bordercolor="#666666"
   borderopacity="1"
   objecttolerance="10"
   gridtolerance="10"
   guidetolerance="10"
   inkscape:pageopacity="0"
   inkscape:pageshadow="2"
   inkscape:window-width="1920"
   inkscape:window-height="1024"
   id="namedview645"
   showgrid="false"
   inkscape:zoom="0.81308411"
   inkscape:cx="496.73646"
   inkscape:cy="225.35521"
   inkscape:window-x="-4"
   inkscape:window-y="-4"
   inkscape:window-maximized="1"
   inkscape:current-layer="svg2" />
<style
   type="text/css"
   id="style4">
	.st0{fill:none;stroke:#29ABE2;stroke-width:2;stroke-miterlimit:10;}
	.st1{fill:none;stroke:#22657C;stroke-width:2;stroke-miterlimit:10;}
	.st2{font-family:'MyriadPro-Regular';}
	.st3{font-size:18px;}
	.st4{fill:url(#SVGID_1_);stroke:#000000;stroke-width:0.25;stroke-miterlimit:10;}
	.st5{fill:url(#SVGID_2_);}
	.st6{fill:url(#SVGID_3_);stroke:#000000;stroke-width:0.25;stroke-miterlimit:10;}
	.st7{fill:#808080;}
	.st8{fill:none;stroke:#FFFFFF;stroke-width:2;stroke-miterlimit:10;}
	.st9{fill:#FFFFFF;}
	.st10{font-size:8.1627px;}
	.st11{fill:none;stroke:#666666;stroke-width:4;stroke-miterlimit:10;}
	.st12{font-size:9.0653px;}
	.st13{fill:#808080;stroke:#666666;stroke-miterlimit:10;}
	.st14{fill:none;stroke:#666666;stroke-width:2;stroke-miterlimit:10;}
	.st15{fill:none;stroke:#0071BC;stroke-width:2;stroke-miterlimit:10;}
	.st16{fill:#29ABE2;}
	.st17{fill:#FFFFFF;stroke:#808080;stroke-width:2;stroke-miterlimit:10;}
	.st18{font-size:20.1767px;}
</style>
<g
   id="right_box">
	<rect
   x="528.5"
   y="49.5"
   class="st0"
   width="277.5"
   height="495.5"
   id="rect7" />
</g>
<g
   id="left_box">
	<rect
   x="25"
   y="49"
   class="st1"
   width="292"
   height="497"
   id="rect10" />
</g>
<g
   id="Layer_23">
	<text
   transform="matrix(1 0 0 1 31 22)"
   id="text13"><tspan
     x="0"
     y="0"
     class="st2 st3"
     id="tspan15">vSphere 5.5u3+</tspan><tspan
     x="0"
     y="21.6"
     class="st2 st3"
     id="tspan17">vCenter</tspan></text>

</g>
<g
   id="Layer_24">
	<text
   transform="matrix(1 0 0 1 217 23)"
   class="st2 st3"
   id="text20">Client Web</text>

</g>
<g
   id="right_HCX_on_VCF">
	<text
   transform="matrix(1 0 0 1 606 41)"
   class="st2 st3"
   id="text23">HCX on VCF</text>

</g>
<g
   id="middle_bar">
	<g
   id="g26">
		<g
   id="g28">
			<linearGradient
   id="SVGID_1_"
   gradientUnits="userSpaceOnUse"
   x1="525.0101"
   y1="376"
   x2="525.0101"
   y2="297.7211">
				<stop
   offset="0.1332"
   style="stop-color:#1E9CD7"
   id="stop31" />
				<stop
   offset="0.4442"
   style="stop-color:#B7E0F4"
   id="stop33" />
				<stop
   offset="0.4818"
   style="stop-color:#AEDAF1"
   id="stop35" />
				<stop
   offset="0.5443"
   style="stop-color:#94CCEA"
   id="stop37" />
				<stop
   offset="0.6241"
   style="stop-color:#6BB3DD"
   id="stop39" />
				<stop
   offset="0.7169"
   style="stop-color:#3292CD"
   id="stop41" />
				<stop
   offset="0.7899"
   style="stop-color:#0075BE"
   id="stop43" />
				<stop
   offset="0.9944"
   style="stop-color:#005B97"
   id="stop45" />
			</linearGradient>
			<ellipse
   class="st4"
   cx="525"
   cy="341"
   rx="13"
   ry="35"
   id="ellipse47" />
			<g
   id="g49">
				<linearGradient
   id="SVGID_2_"
   gradientUnits="userSpaceOnUse"
   x1="421.6809"
   y1="376"
   x2="421.6809"
   y2="297.7211">
					<stop
   offset="0.1332"
   style="stop-color:#1E9CD7"
   id="stop52" />
					<stop
   offset="0.4442"
   style="stop-color:#B7E0F4"
   id="stop54" />
					<stop
   offset="0.4818"
   style="stop-color:#AEDAF1"
   id="stop56" />
					<stop
   offset="0.5443"
   style="stop-color:#94CCEA"
   id="stop58" />
					<stop
   offset="0.6241"
   style="stop-color:#6BB3DD"
   id="stop60" />
					<stop
   offset="0.7169"
   style="stop-color:#3292CD"
   id="stop62" />
					<stop
   offset="0.7899"
   style="stop-color:#0075BE"
   id="stop64" />
					<stop
   offset="0.9944"
   style="stop-color:#005B97"
   id="stop66" />
				</linearGradient>
				<rect
   x="316"
   y="306"
   class="st5"
   width="211.4"
   height="70"
   id="rect68" />
			</g>
			<linearGradient
   id="SVGID_3_"
   gradientUnits="userSpaceOnUse"
   x1="315.99"
   y1="376"
   x2="315.99"
   y2="297.7211">
				<stop
   offset="0.1332"
   style="stop-color:#1E9CD7"
   id="stop71" />
				<stop
   offset="0.4442"
   style="stop-color:#B7E0F4"
   id="stop73" />
				<stop
   offset="0.4818"
   style="stop-color:#AEDAF1"
   id="stop75" />
				<stop
   offset="0.5443"
   style="stop-color:#94CCEA"
   id="stop77" />
				<stop
   offset="0.6241"
   style="stop-color:#6BB3DD"
   id="stop79" />
				<stop
   offset="0.7169"
   style="stop-color:#3292CD"
   id="stop81" />
				<stop
   offset="0.7899"
   style="stop-color:#0075BE"
   id="stop83" />
				<stop
   offset="0.9944"
   style="stop-color:#005B97"
   id="stop85" />
			</linearGradient>
			<ellipse
   class="st6"
   cx="316"
   cy="341"
   rx="13"
   ry="35"
   id="ellipse87" />
		</g>
		<g
   id="g89">
			<path
   class="st7"
   d="M471.3,329c-3.3,0-6.3,0.8-8.8,2.2c-0.9-8.1-7.1-14.4-14.6-14.4c-7.7,0-14,6.6-14.7,15.1     c-0.7-0.3-1.4-0.4-2.1-0.4c-3.9,0-7.1,4.4-7.1,9.8c0,5.4,3.2,9.8,7.1,9.8c0.9,0,1.7-0.2,2.5-0.6h32.9c1.5,0.4,3.1,0.6,4.8,0.6     c8.1,0,14.7-4.9,14.7-11C486,334,479.4,329,471.3,329z"
   id="path91" />
			<g
   id="g93">
				<path
   class="st8"
   d="M456.8,345.2h-16.7c-0.8,0-1.5-0.7-1.5-1.5v-13.4c0-0.8,0.7-1.5,1.5-1.5h16.7c0.8,0,1.5,0.7,1.5,1.5v13.4      C458.2,344.5,457.6,345.2,456.8,345.2z"
   id="path95" />
				<text
   transform="matrix(1.1348 0 0 1 441.3848 340.4404)"
   class="st9 st2 st10"
   id="text97">MV</text>

			</g>
		</g>
		<g
   id="g99">
			<path
   class="st11"
   d="M413.8,341.6c-3.8,0-7.4,0.9-10.3,2.5c-1.1-9.4-8.3-16.6-17.1-16.6c-9,0-16.4,7.7-17.2,17.4     c-0.8-0.3-1.6-0.5-2.5-0.5c-4.6,0-8.3,5.1-8.3,11.3c0,6.2,3.7,11.3,8.3,11.3c1,0,2-0.3,2.9-0.7h38.5c1.8,0.4,3.7,0.7,5.6,0.7     c9.5,0,17.2-5.7,17.2-12.7C431,347.3,423.3,341.6,413.8,341.6z"
   id="path101" />
			<g
   id="g103">
				<path
   d="M395.5,360.8h-17.6c-0.8,0-1.5-0.7-1.5-1.5v-16c0-0.8,0.7-1.5,1.5-1.5h17.6c0.8,0,1.5,0.7,1.5,1.5v16      C397,360.1,396.3,360.8,395.5,360.8z"
   id="path105" />
				<text
   transform="matrix(1.0229 0 0 1 379.3701 355.5459)"
   class="st9 st2 st12"
   id="text107">MV</text>

			</g>
		</g>
		<g
   id="g109">
			<polygon
   points="398,320 405,315 411,326 408,328    "
   id="polygon111" />
			<polygon
   points="388.8,330.7 394.4,324.1 402.9,333.2 400.5,335.9    "
   id="polygon113" />
			<polygon
   points="387,340.8 387.4,335.3 395.2,336.9 395,339.1    "
   id="polygon115" />
			<polygon
   points="412.4,312.2 420.9,311 421.2,323.5 417.6,323.9    "
   id="polygon117" />
			<polygon
   points="427.2,311.7 435.6,313.5 431.6,325.3 428.1,324.5    "
   id="polygon119" />
			<polygon
   points="441.3,316.2 446.3,320.5 439.2,327 437.1,325.1    "
   id="polygon121" />
		</g>
	</g>
</g>
<g
   id="right_VM_top_3">
	<g
   id="g124">
		<path
   class="st7"
   d="M616,144h-21.2c-6.6,0-12-5.4-12-12v-17.6c0-6.6,5.4-12,12-12H616c6.6,0,12,5.4,12,12V132    C628,138.6,622.6,144,616,144z"
   id="path126" />
		<text
   transform="matrix(1 0 0 1 594.0488 129.2397)"
   class="st9 st2 st3"
   id="text128">MV</text>

	</g>
	<g
   id="g130">
		<path
   class="st7"
   d="M671,144h-21.2c-6.6,0-12-5.4-12-12v-17.6c0-6.6,5.4-12,12-12H671c6.6,0,12,5.4,12,12V132    C683,138.6,677.6,144,671,144z"
   id="path132" />
		<text
   transform="matrix(1 0 0 1 649.0488 129.2397)"
   class="st9 st2 st3"
   id="text134">MV</text>

	</g>
	<g
   id="g136">
		<path
   class="st13"
   d="M726,144h-21.2c-6.6,0-12-5.4-12-12v-17.6c0-6.6,5.4-12,12-12H726c6.6,0,12,5.4,12,12V132    C738,138.6,732.6,144,726,144z"
   id="path138" />
		<text
   transform="matrix(1 0 0 1 704.0488 129.2397)"
   class="st9 st2 st3"
   id="text140">MV</text>

	</g>
</g>
<g
   id="lines_top">
	<line
   class="st14"
   x1="38"
   y1="84.5"
   x2="794"
   y2="84.5"
   id="line143" />
	<line
   class="st14"
   x1="144"
   y1="83"
   x2="144"
   y2="103"
   id="line145" />
	<line
   class="st14"
   x1="92"
   y1="85"
   x2="92"
   y2="101"
   id="line147" />
	<line
   class="st14"
   x1="602"
   y1="85"
   x2="602"
   y2="103"
   id="line149" />
	<line
   class="st14"
   x1="658"
   y1="85"
   x2="658"
   y2="101"
   id="line151" />
	<line
   class="st14"
   x1="717"
   y1="85"
   x2="717"
   y2="101"
   id="line153" />
</g>
<g
   id="line_left">
	<line
   class="st14"
   x1="51"
   y1="66"
   x2="51"
   y2="534"
   id="line156" />
</g>
<g
   id="line_right">
	<line
   class="st14"
   x1="784"
   y1="66"
   x2="784"
   y2="532"
   id="line159" />
</g>
<g
   id="lines_bottom">
	<line
   class="st14"
   x1="39"
   y1="519"
   x2="285"
   y2="519"
   id="line162" />
	<line
   class="st14"
   x1="559"
   y1="520"
   x2="795"
   y2="520"
   id="line164" />
	<line
   class="st14"
   x1="80"
   y1="506"
   x2="80"
   y2="518"
   id="line166" />
	<line
   class="st14"
   x1="133"
   y1="506"
   x2="133"
   y2="518"
   id="line168" />
	<line
   class="st14"
   x1="641"
   y1="506"
   x2="641"
   y2="520"
   id="line170" />
</g>
<g
   id="lines_row_3">
	<line
   class="st14"
   x1="40"
   y1="452"
   x2="284"
   y2="452"
   id="line173" />
	<line
   class="st14"
   x1="560"
   y1="449"
   x2="795"
   y2="449"
   id="line175" />
	<line
   class="st14"
   x1="432"
   y1="615"
   x2="432"
   y2="616"
   id="line177" />
	<line
   class="st14"
   x1="81"
   y1="438"
   x2="81"
   y2="451"
   id="line179" />
	<line
   class="st14"
   x1="132"
   y1="438"
   x2="132"
   y2="451"
   id="line181" />
	<line
   class="st15"
   x1="736"
   y1="368"
   x2="736"
   y2="378"
   id="line183" />
	<line
   class="st15"
   x1="92"
   y1="370"
   x2="92"
   y2="379"
   id="line185" />
	<line
   class="st14"
   x1="185"
   y1="438"
   x2="185"
   y2="451"
   id="line187" />
</g>
<g
   id="lines_row_2">
	<line
   class="st15"
   x1="39"
   y1="380"
   x2="282"
   y2="380"
   id="line190" />
	<line
   class="st15"
   x1="556"
   y1="378"
   x2="795"
   y2="378"
   id="line192" />
	<line
   class="st15"
   x1="192"
   y1="346"
   x2="317"
   y2="346"
   id="line194" />
	<line
   class="st15"
   x1="640"
   y1="346"
   x2="538"
   y2="346"
   id="line196" />
	<line
   class="st15"
   x1="251"
   y1="251"
   x2="251"
   y2="284"
   id="line198" />
	<line
   class="st15"
   x1="251"
   y1="321"
   x2="251"
   y2="327"
   id="line200" />
	<line
   class="st15"
   x1="250"
   y1="370"
   x2="250"
   y2="380"
   id="line202" />
	<line
   class="st15"
   x1="251"
   y1="438"
   x2="251"
   y2="451"
   id="line204" />
	<line
   class="st15"
   x1="252"
   y1="506"
   x2="252"
   y2="518"
   id="line206" />
	<line
   class="st15"
   x1="585"
   y1="368"
   x2="585"
   y2="378"
   id="line208" />
	<line
   class="st15"
   x1="585"
   y1="438"
   x2="585"
   y2="448"
   id="line210" />
	<line
   class="st15"
   x1="585"
   y1="506"
   x2="585"
   y2="520"
   id="line212" />
	<line
   class="st15"
   x1="275"
   y1="418"
   x2="562"
   y2="418"
   id="line214" />
	<line
   class="st15"
   x1="276"
   y1="487"
   x2="562"
   y2="487"
   id="line216" />
	<path
   class="st15"
   d="M249,169l-1-78c0,0-12-7,0-15V33"
   id="path218" />
</g>
<g
   id="right_WAN_opt">
	<g
   id="g221">
		<g
   id="g223">
			<path
   class="st16"
   d="M675.3,369h-24.4c-6.6,0-12-5.4-12-12v-19.9c0-6.6,5.4-12,12-12h24.4c6.6,0,12,5.4,12,12V357     C687.3,363.6,681.9,369,675.3,369z"
   id="path225" />
			<g
   id="g227">
				<g
   id="g229">
					<g
   id="g231">
						<g
   id="g233">
							<g
   id="g235">
								<ellipse
   class="st9"
   cx="662.9"
   cy="346.9"
   rx="13"
   ry="12.5"
   id="ellipse237" />
								<path
   class="st16"
   d="M668.7,346.9c0,3.1-2.6,5.6-5.8,5.6c-3.2,0-5.8-2.5-5.8-5.6c0-3.1,2.6-5.6,5.8-5.6          C666.1,341.3,668.7,343.8,668.7,346.9z"
   id="path239" />
							</g>
							<rect
   x="659"
   y="330.9"
   class="st9"
   width="7"
   height="4.5"
   id="rect241" />
							<rect
   x="659.8"
   y="357.8"
   class="st9"
   width="6.3"
   height="5.4"
   id="rect243" />
						</g>
						<rect
   x="674.3"
   y="343.9"
   class="st9"
   width="5.4"
   height="6.3"
   id="rect245" />
						<rect
   x="646.5"
   y="343.9"
   class="st9"
   width="5.4"
   height="6.3"
   id="rect247" />
					</g>
					
						<rect
   x="649.5"
   y="334.3"
   transform="matrix(0.7526 0.6585 -0.6585 0.7526 383.493 -346.1771)"
   class="st9"
   width="5.9"
   height="5.9"
   id="rect249" />
					
						<rect
   x="669.3"
   y="354"
   transform="matrix(0.7526 0.6585 -0.6585 0.7526 401.6389 -354.975)"
   class="st9"
   width="7.7"
   height="5.9"
   id="rect251" />
				</g>
				
					<rect
   x="671"
   y="334.6"
   transform="matrix(0.7071 0.7071 -0.7071 0.7071 436.3055 -377.5818)"
   class="st9"
   width="5.9"
   height="6.5"
   id="rect253" />
				
					<rect
   x="650.2"
   y="354"
   transform="matrix(0.7071 0.7071 -0.7071 0.7071 443.6634 -357.2815)"
   class="st9"
   width="5.9"
   height="5.9"
   id="rect255" />
			</g>
		</g>
		<text
   transform="matrix(1 0 0 1 646 297.3335)"
   id="text257"><tspan
     x="0"
     y="0"
     class="st2 st3"
     id="tspan259">WAN</tspan><tspan
     x="0"
     y="21.6"
     class="st2 st3"
     id="tspan261">Opt</tspan></text>

	</g>
</g>
<g
   id="left_WAN_opt">
	<g
   id="g264">
		<g
   id="g266">
			<path
   class="st16"
   d="M181.3,369h-24.4c-6.6,0-12-5.4-12-12v-19.9c0-6.6,5.4-12,12-12h24.4c6.6,0,12,5.4,12,12V357     C193.3,363.6,187.9,369,181.3,369z"
   id="path268" />
			<g
   id="g270">
				<g
   id="g272">
					<g
   id="g274">
						<g
   id="g276">
							<g
   id="g278">
								<ellipse
   class="st9"
   cx="168.9"
   cy="346.9"
   rx="13"
   ry="12.5"
   id="ellipse280" />
								<path
   class="st16"
   d="M174.7,346.9c0,3.1-2.6,5.6-5.8,5.6c-3.2,0-5.8-2.5-5.8-5.6c0-3.1,2.6-5.6,5.8-5.6          C172.1,341.3,174.7,343.8,174.7,346.9z"
   id="path282" />
							</g>
							<rect
   x="165"
   y="330.9"
   class="st9"
   width="7"
   height="4.5"
   id="rect284" />
							<rect
   x="165.8"
   y="357.8"
   class="st9"
   width="6.3"
   height="5.4"
   id="rect286" />
						</g>
						<rect
   x="180.3"
   y="343.9"
   class="st9"
   width="5.4"
   height="6.3"
   id="rect288" />
						<rect
   x="152.5"
   y="343.9"
   class="st9"
   width="5.4"
   height="6.3"
   id="rect290" />
					</g>
					
						<rect
   x="155.5"
   y="334.3"
   transform="matrix(0.7526 0.6585 -0.6585 0.7526 261.2628 -20.8723)"
   class="st9"
   width="5.9"
   height="5.9"
   id="rect292" />
					
						<rect
   x="175.3"
   y="354"
   transform="matrix(0.7526 0.6585 -0.6585 0.7526 279.413 -29.6751)"
   class="st9"
   width="7.7"
   height="5.9"
   id="rect294" />
				</g>
				
					<rect
   x="177"
   y="334.6"
   transform="matrix(0.7071 0.7071 -0.7071 0.7071 291.615 -28.2706)"
   class="st9"
   width="5.9"
   height="6.5"
   id="rect296" />
				
					<rect
   x="156.2"
   y="354"
   transform="matrix(0.7071 0.7071 -0.7071 0.7071 298.9741 -7.9707)"
   class="st9"
   width="5.9"
   height="5.9"
   id="rect298" />
			</g>
		</g>
		<text
   transform="matrix(1 0 0 1 152 297.3335)"
   id="text300"><tspan
     x="0"
     y="0"
     class="st2 st3"
     id="tspan302">WAN</tspan><tspan
     x="0"
     y="21.6"
     class="st2 st3"
     id="tspan304">Opt</tspan></text>

	</g>
</g>
<g
   id="g307">
		<path
   style="fill:#29abe2"
   inkscape:connector-curvature="0"
   id="path309"
   d="m 597,369 -22.5,0 c -6.6,0 -12,-5.4 -12,-12 l 0,-18.2 c 0,-6.6 5.4,-12 12,-12 l 22.5,0 c 6.6,0 12,5.4 12,12 l 0,18.2 c 0,6.6 -5.4,12 -12,12 z"
   class="st16" />
		<g
   id="g311">
			<g
   id="g313">
				<path
   style="fill:#ffffff"
   inkscape:connector-curvature="0"
   id="path315"
   d="m 590.3,345.7 -8.2,0 c -2.2,0 -4.1,-1.8 -4.1,-4.1 l 0,-3.9 c 0,-2.2 1.8,-4.1 4.1,-4.1 l 8.2,0 c 2.2,0 4.1,1.8 4.1,4.1 l 0,3.9 c 0,2.3 -1.8,4.1 -4.1,4.1 z"
   class="st9" />
				<path
   style="fill:#29abe2"
   inkscape:connector-curvature="0"
   id="path317"
   d="m 588.9,344 -5.4,0 c -1.1,0 -2.1,-0.9 -2.1,-2.1 l 0,-2.9 c 0,-1.1 0.9,-2.1 2.1,-2.1 l 5.4,0 c 1.1,0 2.1,0.9 2.1,2.1 l 0,2.9 c 0,1.2 -1,2.1 -2.1,2.1 z"
   class="st16" />
				<path
   style="fill:#ffffff"
   inkscape:connector-curvature="0"
   id="path319"
   d="m 595.5,362.1 -18.6,0 c -2.2,0 -4.1,-1.8 -4.1,-4.1 l 0,-10.8 c 0,-2.2 1.8,-4.1 4.1,-4.1 l 18.6,0 c 2.2,0 4.1,1.8 4.1,4.1 l 0,10.8 c 0,2.3 -1.9,4.1 -4.1,4.1 z"
   class="st9" />
			</g>
			<g
   id="g321">
				<path
   style="fill:#29abe2"
   inkscape:connector-curvature="0"
   id="path323"
   d="m 590.1,350.5 c 0,1.7 -1.5,3 -3.4,3 -1.9,0 -3.4,-1.3 -3.4,-3 0,-1.7 1.5,-3 3.4,-3 1.9,0 3.4,1.3 3.4,3 z"
   class="st16" />
				<path
   style="fill:#29abe2"
   inkscape:connector-curvature="0"
   id="path325"
   d="m 586.2,359.5 0,0 c -0.7,0 -1.3,-0.6 -1.3,-1.3 l 0,-6 c 0,-0.7 0.6,-1.3 1.3,-1.3 l 0,0 c 0.7,0 1.3,0.6 1.3,1.3 l 0,6 c 0,0.7 -0.6,1.3 -1.3,1.3 z"
   class="st16" />
				<path
   style="fill:#29abe2"
   inkscape:connector-curvature="0"
   id="path327"
   d="m 588.8,355.2 -1.7,0 c -0.2,0 -0.4,-0.2 -0.4,-0.4 l 0,0 c 0,-0.2 0.2,-0.4 0.4,-0.4 l 1.7,0 c 0.2,0 0.4,0.2 0.4,0.4 l 0,0 c 0,0.2 -0.2,0.4 -0.4,0.4 z"
   class="st16" />
				<path
   style="fill:#29abe2"
   inkscape:connector-curvature="0"
   id="path329"
   d="m 588.8,356.9 -1.7,0 c -0.2,0 -0.4,-0.2 -0.4,-0.4 l 0,0 c 0,-0.2 0.2,-0.4 0.4,-0.4 l 1.7,0 c 0.2,0 0.4,0.2 0.4,0.4 l 0,0 c 0,0.2 -0.2,0.4 -0.4,0.4 z"
   class="st16" />
				<path
   style="fill:#29abe2"
   inkscape:connector-curvature="0"
   id="path331"
   d="m 588.8,358.7 -1.7,0 c -0.2,0 -0.4,-0.2 -0.4,-0.4 l 0,0 c 0,-0.2 0.2,-0.4 0.4,-0.4 l 1.7,0 c 0.2,0 0.4,0.2 0.4,0.4 l 0,0 c 0,0.2 -0.2,0.4 -0.4,0.4 z"
   class="st16" />
			</g>
		</g>
	</g><g
   id="g335">
			<path
   class="st16"
   d="m 596,369 -22.5,0 c -6.6,0 -12,-5.4 -12,-12 l 0,-18.2 c 0,-6.6 5.4,-12 12,-12 l 22.5,0 c 6.6,0 12,5.4 12,12 l 0,18.2 c 0,6.6 -5.4,12 -12,12 z"
   id="path337"
   inkscape:connector-curvature="0"
   style="fill:#29abe2" />
			<g
   id="g339">
				<g
   id="g341">
					<path
   class="st9"
   d="m 589.3,345.7 -8.2,0 c -2.2,0 -4.1,-1.8 -4.1,-4.1 l 0,-3.9 c 0,-2.2 1.8,-4.1 4.1,-4.1 l 8.2,0 c 2.2,0 4.1,1.8 4.1,4.1 l 0,3.9 c 0,2.3 -1.8,4.1 -4.1,4.1 z"
   id="path343"
   inkscape:connector-curvature="0"
   style="fill:#ffffff" />
					<path
   class="st16"
   d="m 587.9,344 -5.4,0 c -1.1,0 -2.1,-0.9 -2.1,-2.1 l 0,-2.9 c 0,-1.1 0.9,-2.1 2.1,-2.1 l 5.4,0 c 1.1,0 2.1,0.9 2.1,2.1 l 0,2.9 c 0,1.2 -1,2.1 -2.1,2.1 z"
   id="path345"
   inkscape:connector-curvature="0"
   style="fill:#29abe2" />
					<path
   class="st9"
   d="m 594.5,362.1 -18.6,0 c -2.2,0 -4.1,-1.8 -4.1,-4.1 l 0,-10.8 c 0,-2.2 1.8,-4.1 4.1,-4.1 l 18.6,0 c 2.2,0 4.1,1.8 4.1,4.1 l 0,10.8 c 0,2.3 -1.9,4.1 -4.1,4.1 z"
   id="path347"
   inkscape:connector-curvature="0"
   style="fill:#ffffff" />
				</g>
				<g
   id="g349">
					<path
   class="st16"
   d="m 589.1,350.5 c 0,1.7 -1.5,3 -3.4,3 -1.9,0 -3.4,-1.3 -3.4,-3 0,-1.7 1.5,-3 3.4,-3 1.9,0 3.4,1.3 3.4,3 z"
   id="path351"
   inkscape:connector-curvature="0"
   style="fill:#29abe2" />
					<path
   class="st16"
   d="m 585.2,359.5 0,0 c -0.7,0 -1.3,-0.6 -1.3,-1.3 l 0,-6 c 0,-0.7 0.6,-1.3 1.3,-1.3 l 0,0 c 0.7,0 1.3,0.6 1.3,1.3 l 0,6 c 0,0.7 -0.6,1.3 -1.3,1.3 z"
   id="path353"
   inkscape:connector-curvature="0"
   style="fill:#29abe2" />
					<path
   class="st16"
   d="m 587.8,355.2 -1.7,0 c -0.2,0 -0.4,-0.2 -0.4,-0.4 l 0,0 c 0,-0.2 0.2,-0.4 0.4,-0.4 l 1.7,0 c 0.2,0 0.4,0.2 0.4,0.4 l 0,0 c 0,0.2 -0.2,0.4 -0.4,0.4 z"
   id="path355"
   inkscape:connector-curvature="0"
   style="fill:#29abe2" />
					<path
   class="st16"
   d="m 587.8,356.9 -1.7,0 c -0.2,0 -0.4,-0.2 -0.4,-0.4 l 0,0 c 0,-0.2 0.2,-0.4 0.4,-0.4 l 1.7,0 c 0.2,0 0.4,0.2 0.4,0.4 l 0,0 c 0,0.2 -0.2,0.4 -0.4,0.4 z"
   id="path357"
   inkscape:connector-curvature="0"
   style="fill:#29abe2" />
					<path
   class="st16"
   d="m 587.8,358.7 -1.7,0 c -0.2,0 -0.4,-0.2 -0.4,-0.4 l 0,0 c 0,-0.2 0.2,-0.4 0.4,-0.4 l 1.7,0 c 0.2,0 0.4,0.2 0.4,0.4 l 0,0 c 0,0.2 -0.2,0.4 -0.4,0.4 z"
   id="path359"
   inkscape:connector-curvature="0"
   style="fill:#29abe2" />
				</g>
			</g>
		</g><text
   id="text361"
   x="541.33301"
   y="298.3335"><tspan
     x="541.33301"
     y="298.3335"
     class="st2 st3"
     id="tspan363"
     style="font-size:18px;font-family:MyriadPro-Regular">Passerelle</tspan><tspan
     x="541.33301"
     y="319.9335"
     class="st2 st3"
     id="tspan365"
     style="font-size:18px;font-family:MyriadPro-Regular">de cloud</tspan></text>

<g
   id="left_lock">
	<g
   id="g368">
		<g
   id="g370">
			<path
   class="st16"
   d="M262,369h-22.5c-6.6,0-12-5.4-12-12v-18.2c0-6.6,5.4-12,12-12H262c6.6,0,12,5.4,12,12V357     C274,363.6,268.6,369,262,369z"
   id="path372" />
			<g
   id="g374">
				<g
   id="g376">
					<path
   class="st9"
   d="M255.3,345.7h-8.2c-2.2,0-4.1-1.8-4.1-4.1v-3.9c0-2.2,1.8-4.1,4.1-4.1h8.2c2.2,0,4.1,1.8,4.1,4.1v3.9       C259.4,343.9,257.6,345.7,255.3,345.7z"
   id="path378" />
					<path
   class="st16"
   d="M253.9,344h-5.4c-1.1,0-2.1-0.9-2.1-2.1v-2.9c0-1.1,0.9-2.1,2.1-2.1h5.4c1.1,0,2.1,0.9,2.1,2.1v2.9       C256,343.1,255,344,253.9,344z"
   id="path380" />
					<path
   class="st9"
   d="M260.5,362.1h-18.6c-2.2,0-4.1-1.8-4.1-4.1v-10.8c0-2.2,1.8-4.1,4.1-4.1h18.6c2.2,0,4.1,1.8,4.1,4.1V358       C264.6,360.3,262.7,362.1,260.5,362.1z"
   id="path382" />
				</g>
				<g
   id="g384">
					<path
   class="st16"
   d="M255.1,350.5c0,1.7-1.5,3-3.4,3s-3.4-1.3-3.4-3c0-1.7,1.5-3,3.4-3S255.1,348.8,255.1,350.5z"
   id="path386" />
					<path
   class="st16"
   d="M251.2,359.5L251.2,359.5c-0.7,0-1.3-0.6-1.3-1.3v-6c0-0.7,0.6-1.3,1.3-1.3l0,0c0.7,0,1.3,0.6,1.3,1.3v6       C252.5,358.9,251.9,359.5,251.2,359.5z"
   id="path388" />
					<path
   class="st16"
   d="M253.8,355.2h-1.7c-0.2,0-0.4-0.2-0.4-0.4l0,0c0-0.2,0.2-0.4,0.4-0.4h1.7c0.2,0,0.4,0.2,0.4,0.4l0,0       C254.2,355,254,355.2,253.8,355.2z"
   id="path390" />
					<path
   class="st16"
   d="M253.8,356.9h-1.7c-0.2,0-0.4-0.2-0.4-0.4l0,0c0-0.2,0.2-0.4,0.4-0.4h1.7c0.2,0,0.4,0.2,0.4,0.4l0,0       C254.2,356.7,254,356.9,253.8,356.9z"
   id="path392" />
					<path
   class="st16"
   d="M253.8,358.7h-1.7c-0.2,0-0.4-0.2-0.4-0.4l0,0c0-0.2,0.2-0.4,0.4-0.4h1.7c0.2,0,0.4,0.2,0.4,0.4l0,0       C254.2,358.5,254,358.7,253.8,358.7z"
   id="path394" />
				</g>
			</g>
		</g>
		<text
   transform="matrix(1 0 0 1 221.333 298.3335)"
   id="text396"><tspan
     x="0"
     y="0"
     class="st2 st3"
     id="tspan398">Passerelle</tspan><tspan
     x="0"
     y="21.6"
     class="st2 st3"
     id="tspan400">de cloud</tspan></text>

	</g>
</g>
<g
   id="right_concentrator_1">
	<g
   id="g403">
		<g
   id="g405">
			<path
   class="st16"
   d="M748.9,369h-23.1c-6.6,0-12-5.4-12-12v-18.8c0-6.6,5.4-12,12-12h23.1c6.6,0,12,5.4,12,12V357     C760.9,363.6,755.5,369,748.9,369z"
   id="path407" />
			<g
   id="g409">
				<rect
   x="724.2"
   y="336.6"
   class="st9"
   width="26.2"
   height="13.9"
   id="rect411" />
				<rect
   x="728.3"
   y="347.2"
   class="st9"
   width="18"
   height="6.5"
   id="rect413" />
				<rect
   x="728.3"
   y="341.5"
   class="st16"
   width="18"
   height="1.6"
   id="rect415" />
				<rect
   x="734.9"
   y="352.1"
   class="st9"
   width="4.9"
   height="11.5"
   id="rect417" />
				<rect
   x="726.7"
   y="331.7"
   class="st9"
   width="4.9"
   height="9"
   id="rect419" />
				<rect
   x="734"
   y="331.7"
   class="st9"
   width="2.5"
   height="3.3"
   id="rect421" />
				<rect
   x="738.1"
   y="331.7"
   class="st9"
   width="2.5"
   height="3.3"
   id="rect423" />
				<rect
   x="743"
   y="331.7"
   class="st9"
   width="4.9"
   height="9"
   id="rect425" />
			</g>
		</g>
		<text
   transform="matrix(1 0 0 1 714.667 319.9336)"
   class="st2 st3"
   id="text427">Ext L2</text>

	</g>
</g>
<g
   id="left_L2_ext">
	<g
   id="g430">
		<g
   id="g432">
			<path
   class="st16"
   d="M104.9,369H81.8c-6.6,0-12-5.4-12-12v-18.8c0-6.6,5.4-12,12-12h23.1c6.6,0,12,5.4,12,12V357     C116.9,363.6,111.5,369,104.9,369z"
   id="path434" />
			<g
   id="g436">
				<rect
   x="80.2"
   y="336.6"
   class="st9"
   width="26.2"
   height="13.9"
   id="rect438" />
				<rect
   x="84.3"
   y="347.2"
   class="st9"
   width="18"
   height="6.5"
   id="rect440" />
				<rect
   x="84.3"
   y="341.5"
   class="st16"
   width="18"
   height="1.6"
   id="rect442" />
				<rect
   x="90.9"
   y="352.1"
   class="st9"
   width="4.9"
   height="11.5"
   id="rect444" />
				<rect
   x="82.7"
   y="331.7"
   class="st9"
   width="4.9"
   height="9"
   id="rect446" />
				<rect
   x="90"
   y="331.7"
   class="st9"
   width="2.5"
   height="3.3"
   id="rect448" />
				<rect
   x="94.1"
   y="331.7"
   class="st9"
   width="2.5"
   height="3.3"
   id="rect450" />
				<rect
   x="99"
   y="331.7"
   class="st9"
   width="4.9"
   height="9"
   id="rect452" />
			</g>
		</g>
		<text
   transform="matrix(1 0 0 1 70.667 319.9336)"
   class="st2 st3"
   id="text454">Ext L2</text>

	</g>
</g>
<g
   id="right_concentrator_2">
	<g
   id="g457">
		<path
   class="st16"
   d="M597.4,438h-23.1c-6.6,0-12-5.4-12-12v-18.8c0-6.6,5.4-12,12-12h23.1c6.6,0,12,5.4,12,12V426    C609.4,432.6,604,438,597.4,438z"
   id="path459" />
		<g
   id="g461">
			<rect
   x="572.7"
   y="405.6"
   class="st9"
   width="26.2"
   height="13.9"
   id="rect463" />
			<rect
   x="576.8"
   y="416.2"
   class="st9"
   width="18"
   height="6.5"
   id="rect465" />
			<rect
   x="576.8"
   y="410.5"
   class="st16"
   width="18"
   height="1.6"
   id="rect467" />
			<rect
   x="583.3"
   y="421.1"
   class="st9"
   width="4.9"
   height="11.5"
   id="rect469" />
			<rect
   x="575.2"
   y="400.7"
   class="st9"
   width="4.9"
   height="9"
   id="rect471" />
			<rect
   x="582.5"
   y="400.7"
   class="st9"
   width="2.5"
   height="3.3"
   id="rect473" />
			<rect
   x="586.6"
   y="400.7"
   class="st9"
   width="2.5"
   height="3.3"
   id="rect475" />
			<rect
   x="591.5"
   y="400.7"
   class="st9"
   width="4.9"
   height="9"
   id="rect477" />
		</g>
	</g>
</g>
<g
   id="left_concentrator_2">
	<g
   id="g480">
		<path
   class="st16"
   d="M263.4,439h-23.1c-6.6,0-12-5.4-12-12v-18.8c0-6.6,5.4-12,12-12h23.1c6.6,0,12,5.4,12,12V427    C275.4,433.6,270,439,263.4,439z"
   id="path482" />
		<g
   id="g484">
			<rect
   x="238.7"
   y="406.6"
   class="st9"
   width="26.2"
   height="13.9"
   id="rect486" />
			<rect
   x="242.8"
   y="417.2"
   class="st9"
   width="18"
   height="6.5"
   id="rect488" />
			<rect
   x="242.8"
   y="411.5"
   class="st16"
   width="18"
   height="1.6"
   id="rect490" />
			<rect
   x="249.3"
   y="422.1"
   class="st9"
   width="4.9"
   height="11.5"
   id="rect492" />
			<rect
   x="241.2"
   y="401.7"
   class="st9"
   width="4.9"
   height="9"
   id="rect494" />
			<rect
   x="248.5"
   y="401.7"
   class="st9"
   width="2.5"
   height="3.3"
   id="rect496" />
			<rect
   x="252.6"
   y="401.7"
   class="st9"
   width="2.5"
   height="3.3"
   id="rect498" />
			<rect
   x="257.5"
   y="401.7"
   class="st9"
   width="4.9"
   height="9"
   id="rect500" />
		</g>
	</g>
</g>
<g
   id="right_concentrator_3">
	<g
   id="g503">
		<path
   class="st16"
   d="M597.4,506h-23.1c-6.6,0-12-5.4-12-12v-18.8c0-6.6,5.4-12,12-12h23.1c6.6,0,12,5.4,12,12V494    C609.4,500.6,604,506,597.4,506z"
   id="path505" />
		<g
   id="g507">
			<rect
   x="572.7"
   y="473.6"
   class="st9"
   width="26.2"
   height="13.9"
   id="rect509" />
			<rect
   x="576.8"
   y="484.2"
   class="st9"
   width="18"
   height="6.5"
   id="rect511" />
			<rect
   x="576.8"
   y="478.5"
   class="st16"
   width="18"
   height="1.6"
   id="rect513" />
			<rect
   x="583.3"
   y="489.1"
   class="st9"
   width="4.9"
   height="11.5"
   id="rect515" />
			<rect
   x="575.2"
   y="468.7"
   class="st9"
   width="4.9"
   height="9"
   id="rect517" />
			<rect
   x="582.5"
   y="468.7"
   class="st9"
   width="2.5"
   height="3.3"
   id="rect519" />
			<rect
   x="586.6"
   y="468.7"
   class="st9"
   width="2.5"
   height="3.3"
   id="rect521" />
			<rect
   x="591.5"
   y="468.7"
   class="st9"
   width="4.9"
   height="9"
   id="rect523" />
		</g>
	</g>
</g>
<g
   id="left_concentrator_bottom">
	<g
   id="g526">
		<path
   class="st16"
   d="M264.4,507h-23.1c-6.6,0-12-5.4-12-12v-18.8c0-6.6,5.4-12,12-12h23.1c6.6,0,12,5.4,12,12V495    C276.4,501.6,271,507,264.4,507z"
   id="path528" />
		<g
   id="g530">
			<rect
   x="239.7"
   y="474.6"
   class="st9"
   width="26.2"
   height="13.9"
   id="rect532" />
			<rect
   x="243.8"
   y="485.2"
   class="st9"
   width="18"
   height="6.5"
   id="rect534" />
			<rect
   x="243.8"
   y="479.5"
   class="st16"
   width="18"
   height="1.6"
   id="rect536" />
			<rect
   x="250.3"
   y="490.1"
   class="st9"
   width="4.9"
   height="11.5"
   id="rect538" />
			<rect
   x="242.2"
   y="469.7"
   class="st9"
   width="4.9"
   height="9"
   id="rect540" />
			<rect
   x="249.5"
   y="469.7"
   class="st9"
   width="2.5"
   height="3.3"
   id="rect542" />
			<rect
   x="253.6"
   y="469.7"
   class="st9"
   width="2.5"
   height="3.3"
   id="rect544" />
			<rect
   x="258.5"
   y="469.7"
   class="st9"
   width="4.9"
   height="9"
   id="rect546" />
		</g>
	</g>
</g>
<g
   id="right_VM_bottom">
	<g
   id="g549">
		<path
   class="st7"
   d="M652,506h-21.2c-6.6,0-12-5.4-12-12v-17.6c0-6.6,5.4-12,12-12H652c6.6,0,12,5.4,12,12V494    C664,500.6,658.6,506,652,506z"
   id="path551" />
		<text
   transform="matrix(1 0 0 1 630.0488 491.2397)"
   class="st9 st2 st3"
   id="text553">MV</text>

	</g>
</g>
<g
   id="left_VM_bottom">
	<g
   id="g556">
		<path
   class="st7"
   d="M145,506h-21.2c-6.6,0-12-5.4-12-12v-17.6c0-6.6,5.4-12,12-12H145c6.6,0,12,5.4,12,12V494    C157,500.6,151.6,506,145,506z"
   id="path558" />
		<text
   transform="matrix(1 0 0 1 123.0488 491.2397)"
   class="st9 st2 st3"
   id="text560">MV</text>

	</g>
	<g
   id="g562">
		<path
   class="st7"
   d="M93,506H71.8c-6.6,0-12-5.4-12-12v-17.6c0-6.6,5.4-12,12-12H93c6.6,0,12,5.4,12,12V494    C105,500.6,99.6,506,93,506z"
   id="path564" />
		<text
   transform="matrix(1 0 0 1 71.0488 491.2397)"
   class="st9 st2 st3"
   id="text566">MV</text>

	</g>
</g>
<g
   id="left_VM_middle_3">
	<g
   id="g569">
		<path
   class="st7"
   d="M196,438h-21.2c-6.6,0-12-5.4-12-12v-17.6c0-6.6,5.4-12,12-12H196c6.6,0,12,5.4,12,12V426    C208,432.6,202.6,438,196,438z"
   id="path571" />
		<text
   transform="matrix(1 0 0 1 174.0488 423.2397)"
   class="st9 st2 st3"
   id="text573">MV</text>

	</g>
	<g
   id="g575">
		<path
   class="st7"
   d="M143,438h-21.2c-6.6,0-12-5.4-12-12v-17.6c0-6.6,5.4-12,12-12H143c6.6,0,12,5.4,12,12V426    C155,432.6,149.6,438,143,438z"
   id="path577" />
		<text
   transform="matrix(1 0 0 1 121.0488 423.2397)"
   class="st9 st2 st3"
   id="text579">MV</text>

	</g>
	<g
   id="g581">
		<path
   class="st7"
   d="M92,438H70.8c-6.6,0-12-5.4-12-12v-17.6c0-6.6,5.4-12,12-12H92c6.6,0,12,5.4,12,12V426    C104,432.6,98.6,438,92,438z"
   id="path583" />
		<text
   transform="matrix(1 0 0 1 70.0488 423.2397)"
   class="st9 st2 st3"
   id="text585">MV</text>

	</g>
</g>
<g
   id="arrow_icon">
	<g
   id="g588">
		<circle
   class="st16"
   cx="527.8"
   cy="84.8"
   r="22.2"
   id="circle590" />
		<g
   id="g592">
			<polygon
   class="st9"
   points="521.7,90.4 512,84.8 521.7,79.2    "
   id="polygon594" />
			<polygon
   class="st9"
   points="533.9,90.4 533.9,79.2 543.6,84.8    "
   id="polygon596" />
			<rect
   x="520.6"
   y="82.6"
   class="st9"
   width="14.2"
   height="4.4"
   id="rect598" />
		</g>
	</g>
	<g
   id="g600">
		<circle
   class="st16"
   cx="316.8"
   cy="84.8"
   r="22.2"
   id="circle602" />
		<g
   id="g604">
			<polygon
   class="st9"
   points="310.7,90.4 301,84.8 310.7,79.2    "
   id="polygon606" />
			<polygon
   class="st9"
   points="322.9,90.4 322.9,79.2 332.6,84.8    "
   id="polygon608" />
			<rect
   x="309.6"
   y="82.6"
   class="st9"
   width="14.2"
   height="4.4"
   id="rect610" />
		</g>
	</g>
</g>
<text
   id="text615"
   x="219"
   y="196"><tspan
     x="219"
     y="196"
     class="st2 st3"
     id="tspan617"
     style="font-size:18px;font-family:MyriadPro-Regular">Hybrid</tspan><tspan
     x="219"
     y="217.60001"
     class="st2 st3"
     id="tspan619"
     style="font-size:18px;font-family:MyriadPro-Regular">Cloud</tspan><tspan
     x="219"
     y="239.2"
     class="st2 st3"
     id="tspan621"
     style="font-size:18px;font-family:MyriadPro-Regular">Manager</tspan></text>
<path
   class="st0"
   d="m 291,252 -74,0 c -6.6,0 -12,-5.4 -12,-12 l 0,-57 c 0,-6.6 5.4,-12 12,-12 l 74,0 c 6.6,0 12,5.4 12,12 l 0,57 c 0,6.6 -5.4,12 -12,12 z"
   id="path623"
   inkscape:connector-curvature="0"
   style="fill:none;stroke:#29abe2;stroke-width:2;stroke-miterlimit:10" />
<g
   id="left_VM_top2">
	<g
   id="g626">
		<path
   class="st7"
   d="M156,144h-21.2c-6.6,0-12-5.4-12-12v-17.6c0-6.6,5.4-12,12-12H156c6.6,0,12,5.4,12,12V132    C168,138.6,162.6,144,156,144z"
   id="path628" />
		<text
   transform="matrix(1 0 0 1 134.0488 129.2397)"
   class="st9 st2 st3"
   id="text630">MV</text>

	</g>
	<g
   id="g632">
		<path
   class="st7"
   d="M103,144H81.8c-6.6,0-12-5.4-12-12v-17.6c0-6.6,5.4-12,12-12H103c6.6,0,12,5.4,12,12V132    C115,138.6,109.6,144,103,144z"
   id="path634" />
		<text
   transform="matrix(1 0 0 1 77.0488 129.2397)"
   class="st9 st2 st3"
   id="text636">MV</text>

	</g>
</g>
<g
   id="cloud">
	<g
   id="g639">
		<path
   class="st17"
   d="M457.4,53.8c-6.4,0-12.3,1.6-17,4.3c-1.8-15.9-13.8-28.3-28.4-28.3c-15,0-27.3,13-28.5,29.7    c-1.3-0.6-2.7-0.8-4.1-0.8c-7.6,0-13.8,8.6-13.8,19.2c0,10.6,6.2,19.2,13.8,19.2c1.7,0,3.3-0.4,4.8-1.2H448    c2.9,0.8,6.1,1.2,9.3,1.2c15.8,0,28.6-9.7,28.6-21.6C486,63.5,473.2,53.8,457.4,53.8z"
   id="path641" />
		<text
   transform="matrix(1 0 0 1 391.0942 79.3945)"
   class="st2 st18"
   id="text643">Internet</text>

	</g>
</g>
</svg>
