<?xml version="1.0" encoding="UTF-8" standalone="no"?>
<!-- Generator: Adobe Illustrator 22.0.1, SVG Export Plug-In . SVG Version: 6.00 Build 0)  -->

<svg
   xmlns:dc="http://purl.org/dc/elements/1.1/"
   xmlns:cc="http://creativecommons.org/ns#"
   xmlns:rdf="http://www.w3.org/1999/02/22-rdf-syntax-ns#"
   xmlns:svg="http://www.w3.org/2000/svg"
   xmlns="http://www.w3.org/2000/svg"
   xmlns:sodipodi="http://sodipodi.sourceforge.net/DTD/sodipodi-0.dtd"
   xmlns:inkscape="http://www.inkscape.org/namespaces/inkscape"
   version="1.1"
   x="0px"
   y="0px"
   viewBox="0 0 512 376"
   style="enable-background:new 0 0 512 376;"
   xml:space="preserve"
   id="svg2"
   inkscape:version="0.91 r13725"
   sodipodi:docname="hcx_multiple_sources.svg"><metadata
   id="metadata148"><rdf:RDF><cc:Work
       rdf:about=""><dc:format>image/svg+xml</dc:format><dc:type
         rdf:resource="http://purl.org/dc/dcmitype/StillImage" /></cc:Work></rdf:RDF></metadata><defs
   id="defs146">
	

		
		
	</defs><sodipodi:namedview
   pagecolor="#ffffff"
   bordercolor="#666666"
   borderopacity="1"
   objecttolerance="10"
   gridtolerance="10"
   guidetolerance="10"
   inkscape:pageopacity="0"
   inkscape:pageshadow="2"
   inkscape:window-width="1920"
   inkscape:window-height="1024"
   id="namedview144"
   showgrid="false"
   inkscape:zoom="1.2553191"
   inkscape:cx="328.61978"
   inkscape:cy="223.54025"
   inkscape:window-x="-4"
   inkscape:window-y="-4"
   inkscape:window-maximized="1"
   inkscape:current-layer="svg2" />
<style
   type="text/css"
   id="style4">
	.st0{fill:#E8CEB5;stroke:#000000;stroke-width:0.5;stroke-miterlimit:10;stroke-dasharray:5;}
	.st1{fill:#D0EFDF;}
	.st2{fill:none;stroke:#000000;stroke-width:0.5;stroke-miterlimit:10;}
	.st3{fill:none;stroke:#000000;stroke-width:0.5;stroke-miterlimit:10;stroke-dasharray:4.9744,4.9744;}
	.st4{fill:none;stroke:#000000;stroke-width:0.5;stroke-miterlimit:10;stroke-dasharray:4.9483,4.9483;}
	.st5{fill:#FFFFFF;stroke:#4D4D4D;stroke-width:2;stroke-miterlimit:10;}
	.st6{font-family:'MyriadPro-Regular';}
	.st7{font-size:18px;}
	.st8{fill:none;stroke:#009245;stroke-width:2;stroke-miterlimit:10;}
	.st9{fill:none;stroke:#000000;stroke-width:2;stroke-miterlimit:10;}
	.st10{fill:#8CC63F;stroke:#009245;stroke-width:0.25;stroke-miterlimit:10;}
	.st11{fill:#29ABE2;stroke:#0071BC;stroke-width:0.25;stroke-miterlimit:10;}
</style>
<g
   id="right_box">
	<rect
   x="226.5"
   y="10.5"
   class="st0"
   width="275"
   height="310"
   id="rect7" />
</g>
<g
   id="left_box">
	<g
   id="g10">
		<rect
   x="11.8"
   y="171"
   class="st1"
   width="199"
   height="148.5"
   id="rect12" />
		<g
   id="g14">
			<polyline
   class="st2"
   points="210.8,317 210.8,319.5 208.3,319.5    "
   id="polyline16" />
			<line
   class="st3"
   x1="203.3"
   y1="319.5"
   x2="16.8"
   y2="319.5"
   id="line18" />
			<polyline
   class="st2"
   points="14.3,319.5 11.8,319.5 11.8,317    "
   id="polyline20" />
			<line
   class="st4"
   x1="11.8"
   y1="312.1"
   x2="11.8"
   y2="176"
   id="line22" />
			<polyline
   class="st2"
   points="11.8,173.5 11.8,171 14.3,171    "
   id="polyline24" />
			<line
   class="st3"
   x1="19.3"
   y1="171"
   x2="205.8"
   y2="171"
   id="line26" />
			<polyline
   class="st2"
   points="208.3,171 210.8,171 210.8,173.5    "
   id="polyline28" />
			<line
   class="st4"
   x1="210.8"
   y1="178.4"
   x2="210.8"
   y2="314.5"
   id="line30" />
		</g>
	</g>
	<g
   id="g32">
		<rect
   x="11.8"
   y="11"
   class="st1"
   width="199"
   height="148.5"
   id="rect34" />
		<g
   id="g36">
			<polyline
   class="st2"
   points="210.8,157 210.8,159.5 208.3,159.5    "
   id="polyline38" />
			<line
   class="st3"
   x1="203.3"
   y1="159.5"
   x2="16.8"
   y2="159.5"
   id="line40" />
			<polyline
   class="st2"
   points="14.3,159.5 11.8,159.5 11.8,157    "
   id="polyline42" />
			<line
   class="st4"
   x1="11.8"
   y1="152.1"
   x2="11.8"
   y2="16"
   id="line44" />
			<polyline
   class="st2"
   points="11.8,13.5 11.8,11 14.3,11    "
   id="polyline46" />
			<line
   class="st3"
   x1="19.3"
   y1="11"
   x2="205.8"
   y2="11"
   id="line48" />
			<polyline
   class="st2"
   points="208.3,11 210.8,11 210.8,13.5    "
   id="polyline50" />
			<line
   class="st4"
   x1="210.8"
   y1="18.4"
   x2="210.8"
   y2="154.5"
   id="line52" />
		</g>
	</g>
</g>
<g
   id="Layer_4">
	<g
   id="g55">
		<path
   class="st5"
   d="M453.5,149c-7.9,0-15.2,1.6-21.2,4.3c-2.2-15.9-17.1-28.3-35.2-28.3c-18.6,0-33.9,13-35.4,29.7    c-1.6-0.6-3.3-0.8-5.1-0.8c-9.5,0-17.2,8.6-17.2,19.2c0,10.6,7.7,19.2,17.2,19.2c2.1,0,4.1-0.4,5.9-1.2h79.3    c3.6,0.8,7.5,1.2,11.6,1.2c19.6,0,35.5-9.7,35.5-21.6C489,158.7,473.1,149,453.5,149z"
   id="path57" />
		<text
   class="st6 st7"
   id="text59"
   style="font-size:18px;font-family:MyriadPro-Regular"
   x="345"
   y="177.1221">IBM Cloud DC 2</text>

	</g>
</g>
<g
   id="lines">
	<line
   class="st8"
   x1="276"
   y1="255"
   x2="198"
   y2="253"
   id="line62" />
	<line
   class="st8"
   x1="337"
   y1="168"
   x2="198"
   y2="253"
   id="line64" />
	<line
   class="st8"
   x1="261"
   y1="82"
   x2="198"
   y2="253"
   id="line66" />
	<line
   class="st9"
   x1="276"
   y1="255"
   x2="197"
   y2="84"
   id="line68" />
	<line
   class="st9"
   x1="339"
   y1="168"
   x2="195"
   y2="82"
   id="line70" />
	<line
   class="st9"
   x1="195"
   y1="82"
   x2="261"
   y2="82"
   id="line72" />
</g>
<g
   id="Layer_8">
	<text
   transform="matrix(1 0 0 1 340.3586 310.333)"
   class="st6 st7"
   id="text75">Cible</text>

	<text
   transform="matrix(1 0 0 1 75.5514 310.333)"
   class="st6 st7"
   id="text77">Source</text>

	<text
   transform="matrix(1 0 0 1 76.5514 142.333)"
   class="st6 st7"
   id="text79">Source</text>

</g>
<g
   id="Layer_3">
	<g
   id="g82">
		<path
   class="st5"
   d="M388.5,240c-7.9,0-15.2,1.6-21.2,4.3c-2.2-15.9-17.1-28.3-35.2-28.3c-18.6,0-33.9,13-35.4,29.7    c-1.6-0.6-3.3-0.8-5.1-0.8c-9.5,0-17.2,8.6-17.2,19.2c0,10.6,7.7,19.2,17.2,19.2c2.1,0,4.1-0.4,5.9-1.2h79.3    c3.6,0.8,7.5,1.2,11.6,1.2c19.6,0,35.5-9.7,35.5-21.6C424,249.7,408.1,240,388.5,240z"
   id="path84" />
		<text
   transform="matrix(1 0 0 1 288 268.1221)"
   class="st6 st7"
   id="text86">Cloud non IBM</text>

	</g>
</g>
<path
   class="st5"
   d="m 377.5,58 c -7.9,0 -15.2,1.6 -21.2,4.3 -2.2,-16 -17.1,-28.3 -35.2,-28.3 -18.6,0 -33.9,13 -35.4,29.7 -1.6,-0.6 -3.3,-0.8 -5.1,-0.8 -9.5,0 -17.2,8.6 -17.2,19.2 0,10.6 7.7,19.2 17.2,19.2 2.1,0 4.1,-0.4 5.9,-1.2 l 79.3,0 c 3.6,0.8 7.5,1.2 11.6,1.2 19.6,0 35.5,-9.7 35.5,-21.6 C 413,67.7 397.1,58 377.5,58 Z"
   id="path91"
   inkscape:connector-curvature="0"
   style="fill:#ffffff;stroke:#4d4d4d;stroke-width:2;stroke-miterlimit:10" /><text
   class="st6 st7"
   id="text93"
   style="font-size:18px;font-family:MyriadPro-Regular"
   x="269"
   y="86.122101">IBM Cloud DC 1</text>

<g
   id="DCa">
</g>
<g
   id="bottom_explanation">
	<g
   id="g97">
		<text
   transform="matrix(1 0 0 1 195 357)"
   class="st6 st7"
   id="text99">Services cloud hybrides</text>

		<g
   id="g101">
			<path
   class="st10"
   d="M177.9,353.6v-7.4c0-1.8-1.4-3.2-3-3.2h-4v-9.5h6.5c4.8,0,8.6,4.1,8.6,9.1v14.4c0,5-3.9,9.1-8.6,9.1h-6.5     v-9.2h4C176.5,356.8,177.9,355.3,177.9,353.6z"
   id="path103" />
			<path
   class="st11"
   d="M173.2,344.8h-3.9v-11.3h-6.1c-4.5,0-8.2,4.1-8.2,9.1v14.4c0,5,3.7,9.1,8.2,9.1h6.1v-10.6h3.9     c1.2,0,2.2-1.1,2.2-2.5v-5.7C175.4,345.9,174.4,344.8,173.2,344.8z"
   id="path105" />
		</g>
	</g>
</g>
<g
   id="Hybrid_cloud_services">
	<g
   id="g108">
		<g
   id="g110">
			<path
   class="st5"
   d="M140.5,233c-7.9,0-15.2,1.6-21.2,4.3c-2.2-15.9-17.1-28.3-35.2-28.3c-18.6,0-33.9,13-35.4,29.7     c-1.6-0.6-3.3-0.8-5.1-0.8c-9.5,0-17.2,8.6-17.2,19.2c0,10.6,7.7,19.2,17.2,19.2c2.1,0,4.1-0.4,5.9-1.2h79.3     c3.6,0.8,7.5,1.2,11.6,1.2c19.6,0,35.5-9.7,35.5-21.6C176,242.7,160.1,233,140.5,233z"
   id="path112" />
			<text
   transform="matrix(1 0 0 1 54 249.1221)"
   id="text114"><tspan
     x="0"
     y="0"
     class="st6 st7"
     id="tspan116">Centre </tspan><tspan
     x="0"
     y="21.6"
     class="st6 st7"
     id="tspan118">données B</tspan></text>

		</g>
		<g
   id="g120">
			<path
   class="st10"
   d="M186.3,258.5v-9.8c0-2.3-1.8-4.2-4-4.2H177V232h8.6c6.3,0,11.4,5.4,11.4,12v19c0,6.6-5.1,12-11.4,12H177     v-12.2h5.2C184.4,262.8,186.3,260.9,186.3,258.5z"
   id="path122" />
			<path
   class="st11"
   d="M180.1,247h-5.2v-15h-8.1c-5.9,0-10.8,5.4-10.8,12v19c0,6.6,4.9,12,10.8,12h8.1v-14h5.2     c1.6,0,2.9-1.5,2.9-3.3v-7.5C183,248.5,181.7,247,180.1,247z"
   id="path124" />
		</g>
	</g>
	<g
   id="g126">
		<g
   id="g128">
			<path
   class="st5"
   d="M138.5,63c-7.9,0-15.2,1.6-21.2,4.3C115.1,51.3,100.2,39,82.1,39c-18.6,0-33.9,13-35.4,29.7     c-1.6-0.6-3.3-0.8-5.1-0.8c-9.5,0-17.2,8.6-17.2,19.2c0,10.6,7.7,19.2,17.2,19.2c2.1,0,4.1-0.4,5.9-1.2h79.3     c3.6,0.8,7.5,1.2,11.6,1.2c19.6,0,35.5-9.7,35.5-21.6C174,72.7,158.1,63,138.5,63z"
   id="path130" />
			<text
   transform="matrix(1 0 0 1 52 78.1221)"
   id="text132"><tspan
     x="0"
     y="0"
     class="st6 st7"
     id="tspan134">Centre </tspan><tspan
     x="0"
     y="21.6"
     class="st6 st7"
     id="tspan136">données A</tspan></text>

		</g>
		<g
   id="g138">
			<path
   class="st10"
   d="M184.3,88.5v-9.8c0-2.3-1.8-4.2-4-4.2H175V62h8.6c6.3,0,11.4,5.4,11.4,12v19c0,6.6-5.1,12-11.4,12H175V92.8     h5.2C182.4,92.8,184.3,90.9,184.3,88.5z"
   id="path140" />
			<path
   class="st11"
   d="M178.1,77h-5.2V62h-8.1c-5.9,0-10.8,5.4-10.8,12v19c0,6.6,4.9,12,10.8,12h8.1V91h5.2c1.6,0,2.9-1.5,2.9-3.3     v-7.5C181,78.5,179.7,77,178.1,77z"
   id="path142" />
		</g>
	</g>
</g>
</svg>
