<?xml version="1.0" encoding="UTF-8" standalone="no"?>
<!-- Generator: Adobe Illustrator 22.0.1, SVG Export Plug-In . SVG Version: 6.00 Build 0)  -->

<svg
   xmlns:dc="http://purl.org/dc/elements/1.1/"
   xmlns:cc="http://creativecommons.org/ns#"
   xmlns:rdf="http://www.w3.org/1999/02/22-rdf-syntax-ns#"
   xmlns:svg="http://www.w3.org/2000/svg"
   xmlns="http://www.w3.org/2000/svg"
   xmlns:sodipodi="http://sodipodi.sourceforge.net/DTD/sodipodi-0.dtd"
   xmlns:inkscape="http://www.inkscape.org/namespaces/inkscape"
   version="1.1"
   x="0px"
   y="0px"
   viewBox="0 0 745 493"
   style="enable-background:new 0 0 745 493;"
   xml:space="preserve"
   id="svg2"
   inkscape:version="0.91 r13725"
   sodipodi:docname="source_l2_concentrator.svg"><metadata
   id="metadata347"><rdf:RDF><cc:Work
       rdf:about=""><dc:format>image/svg+xml</dc:format><dc:type
         rdf:resource="http://purl.org/dc/dcmitype/StillImage" /></cc:Work></rdf:RDF></metadata><defs
   id="defs345">
	
	
</defs><sodipodi:namedview
   pagecolor="#ffffff"
   bordercolor="#666666"
   borderopacity="1"
   objecttolerance="10"
   gridtolerance="10"
   guidetolerance="10"
   inkscape:pageopacity="0"
   inkscape:pageshadow="2"
   inkscape:window-width="1920"
   inkscape:window-height="1024"
   id="namedview343"
   showgrid="false"
   inkscape:zoom="1.7309739"
   inkscape:cx="371.1875"
   inkscape:cy="246.27256"
   inkscape:window-x="-4"
   inkscape:window-y="-4"
   inkscape:window-maximized="1"
   inkscape:current-layer="svg2" />
<style
   type="text/css"
   id="style4">
	.st0{fill:none;stroke:#000000;stroke-width:0.75;stroke-miterlimit:10;}
	.st1{fill:none;stroke:#000000;stroke-width:0.75;stroke-miterlimit:10;stroke-dasharray:5.0216,5.0216;}
	.st2{fill:none;stroke:#000000;stroke-width:0.75;stroke-miterlimit:10;stroke-dasharray:5.0308,5.0308;}
	.st3{fill:#FFFFFF;stroke:#4D4D4D;stroke-width:2;stroke-miterlimit:10;}
	.st4{font-family:'MyriadPro-Regular';}
	.st5{font-size:18px;}
	.st6{fill:#E4EFCA;}
	.st7{fill:none;stroke:#000000;stroke-width:0.75;stroke-miterlimit:10;stroke-dasharray:4.9847,4.9847;}
	.st8{fill:none;stroke:#000000;stroke-width:0.75;stroke-miterlimit:10;stroke-dasharray:4.9454,4.9454;}
	.st9{fill:#A558E8;stroke:#000000;stroke-width:0.75;stroke-miterlimit:10;}
	.st10{fill:#FFFFFF;stroke:#000000;stroke-width:0.75;stroke-miterlimit:10;}
	.st11{font-size:21px;}
	.st12{fill:#009245;stroke:#000000;stroke-width:0.75;stroke-miterlimit:10;}
	.st13{fill:#29ABE2;}
	.st14{fill:#FFFFFF;}
	.st15{fill:#FFFFFF;stroke:#8CC63F;stroke-width:8;stroke-miterlimit:10;}
	.st16{fill:#F9C73D;}
	.st17{fill:#8CC63F;stroke:#009245;stroke-width:0.25;stroke-miterlimit:10;}
	.st18{fill:#29ABE2;stroke:#0071BC;stroke-width:0.25;stroke-miterlimit:10;}
	.st19{fill:#F9C73D;stroke:#000000;stroke-width:0.75;stroke-miterlimit:10;}
	.st20{fill:#F7931E;stroke:#000000;stroke-width:0.75;stroke-miterlimit:10;}
</style>
<g
   id="Layer_2">
		<g
   id="g8">
			<g
   id="g10">
				<g
   id="g12">
					<polyline
   style="fill:none;stroke:#000000;stroke-width:0.75;stroke-miterlimit:10"
   id="polyline14"
   points="723,388 723,390.5 720.5,390.5      "
   class="st0" />
					<line
   style="fill:none;stroke:#000000;stroke-width:0.75;stroke-miterlimit:10;stroke-dasharray:5.0216, 5.0216"
   id="line16"
   y2="390.5"
   x2="25"
   y1="390.5"
   x1="715.5"
   class="st1" />
					<polyline
   style="fill:none;stroke:#000000;stroke-width:0.75;stroke-miterlimit:10"
   id="polyline18"
   points="22.5,390.5 20,390.5 20,388      "
   class="st0" />
					<line
   style="fill:none;stroke:#000000;stroke-width:0.75;stroke-miterlimit:10;stroke-dasharray:5.0308, 5.0308"
   id="line20"
   y2="63.5"
   x2="20"
   y1="383"
   x1="20"
   class="st2" />
					<polyline
   style="fill:none;stroke:#000000;stroke-width:0.75;stroke-miterlimit:10"
   id="polyline22"
   points="20,61 20,58.5 22.5,58.5      "
   class="st0" />
					<line
   style="fill:none;stroke:#000000;stroke-width:0.75;stroke-miterlimit:10;stroke-dasharray:5.0216, 5.0216"
   id="line24"
   y2="58.5"
   x2="718"
   y1="58.5"
   x1="27.5"
   class="st1" />
					<polyline
   style="fill:none;stroke:#000000;stroke-width:0.75;stroke-miterlimit:10"
   id="polyline26"
   points="720.5,58.5 723,58.5 723,61      "
   class="st0" />
					<line
   style="fill:none;stroke:#000000;stroke-width:0.75;stroke-miterlimit:10;stroke-dasharray:5.0308, 5.0308"
   id="line28"
   y2="385.5"
   x2="723"
   y1="66"
   x1="723"
   class="st2" />
				</g>
			</g>
			<g
   id="g30">
				<path
   style="fill:#ffffff;stroke:#4d4d4d;stroke-width:2;stroke-miterlimit:10"
   inkscape:connector-curvature="0"
   id="path32"
   d="m 109.7,32.9 c -6.2,0 -12,1.5 -16.6,4.1 C 91.3,21.8 79.6,10 65.4,10 50.8,10 38.8,22.5 37.6,38.3 36.3,37.8 35,37.5 33.6,37.5 26,37.5 20,45.7 20,55.8 c 0,10.1 6,18.3 13.5,18.3 1.6,0 3.2,-0.4 4.7,-1.1 l 62.4,0 c 2.9,0.7 5.9,1.1 9.1,1.1 15.4,0 28,-9.2 28,-20.6 -0.1,-11.4 -12.6,-20.6 -28,-20.6 z"
   class="st3" />
				<text
   id="text34"
   transform="scale(0.9760123,1.0245773)"
   style="font-style:normal;font-variant:normal;font-weight:normal;font-stretch:normal;font-size:17.56875038px;line-height:89.99999762%;font-family:MyriadPro-Regular;-inkscape-font-specification:'MyriadPro-Regular, Normal';text-align:start;writing-mode:lr-tb;text-anchor:start"
   sodipodi:linespacing="89.999998%"
   x="26.28512"
   y="51.888462"><tspan
     sodipodi:role="line"
     id="tspan8440"
     style="font-style:normal;font-variant:normal;font-weight:normal;font-stretch:normal;font-size:17.56875038px;line-height:89.99999762%;font-family:MyriadPro-Regular;-inkscape-font-specification:'MyriadPro-Regular, Normal';text-align:start;writing-mode:lr-tb;text-anchor:start"
     x="26.28512"
     y="51.888462">Centre </tspan><tspan
     sodipodi:role="line"
     id="tspan8442"
     style="font-style:normal;font-variant:normal;font-weight:normal;font-stretch:normal;font-size:17.56875038px;line-height:89.99999762%;font-family:MyriadPro-Regular;-inkscape-font-specification:'MyriadPro-Regular, Normal';text-align:start;writing-mode:lr-tb;text-anchor:start"
     x="26.28512"
     y="68.088951">de données</tspan></text>

			</g>
		</g>
		<g
   id="g40">
			<rect
   style="fill:#e4efca"
   id="rect42"
   height="277"
   width="658"
   class="st6"
   y="89.5"
   x="43.5" />
			<g
   id="g44">
				<polyline
   style="fill:none;stroke:#000000;stroke-width:0.75;stroke-miterlimit:10"
   id="polyline46"
   points="701.5,364 701.5,366.5 699,366.5     "
   class="st0" />
				<line
   style="fill:none;stroke:#000000;stroke-width:0.75;stroke-miterlimit:10;stroke-dasharray:4.9847, 4.9847"
   id="line48"
   y2="366.5"
   x2="48.5"
   y1="366.5"
   x1="694"
   class="st7" />
				<polyline
   style="fill:none;stroke:#000000;stroke-width:0.75;stroke-miterlimit:10"
   id="polyline50"
   points="46,366.5 43.5,366.5 43.5,364     "
   class="st0" />
				<line
   style="fill:none;stroke:#000000;stroke-width:0.75;stroke-miterlimit:10;stroke-dasharray:4.9454, 4.9454"
   id="line52"
   y2="94.5"
   x2="43.5"
   y1="359.10001"
   x1="43.5"
   class="st8" />
				<polyline
   style="fill:none;stroke:#000000;stroke-width:0.75;stroke-miterlimit:10"
   id="polyline54"
   points="43.5,92 43.5,89.5 46,89.5     "
   class="st0" />
				<line
   style="fill:none;stroke:#000000;stroke-width:0.75;stroke-miterlimit:10;stroke-dasharray:4.9847, 4.9847"
   id="line56"
   y2="89.5"
   x2="696.5"
   y1="89.5"
   x1="51"
   class="st7" />
				<polyline
   style="fill:none;stroke:#000000;stroke-width:0.75;stroke-miterlimit:10"
   id="polyline58"
   points="699,89.5 701.5,89.5 701.5,92     "
   class="st0" />
				<line
   style="fill:none;stroke:#000000;stroke-width:0.75;stroke-miterlimit:10;stroke-dasharray:4.9454, 4.9454"
   id="line60"
   y2="361.5"
   x2="701.5"
   y1="96.900002"
   x1="701.5"
   class="st8" />
			</g>
		</g>
	</g><polyline
   style="fill:none;stroke:#000000;stroke-width:0.75;stroke-miterlimit:10"
   id="polyline62"
   points="408.5,176.5 408.5,186.5 445.5,186.5  "
   class="st0" />
<g
   id="extended_network_1">
	<g
   id="g65">
		<path
   class="st9"
   d="M680,126c0-10.8-2.7-19.6-6.1-20v0H452.1v0c-3.4,0.4-6.1,9.2-6.1,20s2.7,19.6,6.1,20v0h221.8v0    C677.3,145.6,680,136.8,680,126z"
   id="path67" />
		<ellipse
   class="st10"
   cx="668.1"
   cy="126.4"
   rx="9.6"
   ry="16.6"
   id="ellipse69" />
	</g>
	<text
   transform="matrix(1 0 0 1 465 129)"
   class="st4 st11"
   id="text71">Réseau étendu 1</text>

	<g
   id="g73">
		<path
   class="st12"
   d="M680,179c0-10.8-2.7-19.6-6.1-20v0H452.1v0c-3.4,0.4-6.1,9.2-6.1,20s2.7,19.6,6.1,20v0h221.8v0    C677.3,198.6,680,189.8,680,179z"
   id="path75" />
		<ellipse
   class="st10"
   cx="668.1"
   cy="179.4"
   rx="9.6"
   ry="16.6"
   id="ellipse77" />
	</g>
	<text
   transform="matrix(1 0 0 1 468 185)"
   class="st4 st11"
   id="text79">Réseau étendu 2</text>

</g>
<g
   id="cloud_gateway">
</g>
<g
   id="outter_box">
</g>
<g
   id="lines">
	<g
   id="g84">
		<g
   id="g86">
			<path
   class="st13"
   d="M259,173.5h-27c-6.6,0-12-5.4-12-12v-22.3c0-6.6,5.4-12,12-12h27c6.6,0,12,5.4,12,12v22.3     C271,168.1,265.6,173.5,259,173.5z"
   id="path88" />
			<g
   id="g90">
				<g
   id="g92">
					<path
   class="st14"
   d="M250.9,148h-9.8c-2.2,0-4.1-1.8-4.1-4.1v-5.1c0-2.2,1.8-4.1,4.1-4.1h9.8c2.2,0,4.1,1.8,4.1,4.1v5.1       C254.9,146.1,253.1,148,250.9,148z"
   id="path94" />
					<path
   class="st13"
   d="M249.1,146.1h-6.3c-1.1,0-2.1-0.9-2.1-2.1v-3.5c0-1.1,0.9-2.1,2.1-2.1h6.3c1.1,0,2.1,0.9,2.1,2.1v3.5       C251.2,145.2,250.2,146.1,249.1,146.1z"
   id="path96" />
					<path
   class="st14"
   d="M256.5,165.9h-21.2c-2.2,0-4.1-1.8-4.1-4.1v-12.7c0-2.2,1.8-4.1,4.1-4.1h21.2c2.2,0,4.1,1.8,4.1,4.1v12.7       C260.6,164.1,258.8,165.9,256.5,165.9z"
   id="path98" />
				</g>
				<g
   id="g100">
					<path
   class="st13"
   d="M250.2,153.2c0,1.8-1.7,3.3-3.8,3.3c-2.1,0-3.8-1.5-3.8-3.3c0-1.8,1.7-3.3,3.8-3.3       C248.5,149.9,250.2,151.3,250.2,153.2z"
   id="path102" />
					<path
   class="st13"
   d="M246,163.1L246,163.1c-0.8,0-1.4-0.6-1.4-1.4v-6.6c0-0.8,0.6-1.4,1.4-1.4l0,0c0.8,0,1.4,0.6,1.4,1.4v6.6       C247.4,162.4,246.8,163.1,246,163.1z"
   id="path104" />
					<path
   class="st13"
   d="M248.8,158.4h-1.9c-0.3,0-0.5-0.2-0.5-0.5l0,0c0-0.3,0.2-0.5,0.5-0.5h1.9c0.3,0,0.5,0.2,0.5,0.5l0,0       C249.3,158.1,249.1,158.4,248.8,158.4z"
   id="path106" />
					<path
   class="st13"
   d="M248.8,160.3h-1.9c-0.3,0-0.5-0.2-0.5-0.5l0,0c0-0.3,0.2-0.5,0.5-0.5h1.9c0.3,0,0.5,0.2,0.5,0.5l0,0       C249.3,160,249.1,160.3,248.8,160.3z"
   id="path108" />
					<path
   class="st13"
   d="M248.8,162.1h-1.9c-0.3,0-0.5-0.2-0.5-0.5l0,0c0-0.3,0.2-0.5,0.5-0.5h1.9c0.3,0,0.5,0.2,0.5,0.5l0,0       C249.3,161.9,249.1,162.1,248.8,162.1z"
   id="path110" />
				</g>
			</g>
		</g>
		<line
   class="st0"
   x1="250.5"
   y1="173.5"
   x2="250.5"
   y2="286.5"
   id="line112" />
		<line
   class="st0"
   x1="239.5"
   y1="173.5"
   x2="239.5"
   y2="219.5"
   id="line114" />
	</g>
	<polyline
   class="st0"
   points="408.5,127.5 408.5,117.5 445.5,117.5  "
   id="polyline116" />
</g>
<g
   id="bottom_explanation">
	<g
   id="g119">
		<g
   id="g121">
			<path
   class="st15"
   d="M128,403.8h-10.9c-3.3,0-6,2.7-6,6v4h-4c-3.3,0-6,2.7-6,6v10.2c0,3.3,2.7,6,6,6h10.3c3.3,0,6-2.7,6-6v-2.6     h4.6c3.3,0,6-2.7,6-6v-11.6C134,406.5,131.3,403.8,128,403.8z"
   id="path123" />
			<path
   class="st16"
   d="M115.8,429.6h-7.3c-0.9,0-1.7-0.8-1.7-1.7v-6.6c0-0.9,0.8-1.7,1.7-1.7h7.3c0.9,0,1.7,0.8,1.7,1.7v6.6     C117.5,428.8,116.7,429.6,115.8,429.6z"
   id="path125" />
			<path
   class="st16"
   d="M125.8,421h-7.3c-0.9,0-1.7-0.8-1.7-1.7V412c0-0.9,0.8-1.7,1.7-1.7h7.3c0.9,0,1.7,0.8,1.7,1.7v7.3     C127.5,420.3,126.8,421,125.8,421z"
   id="path127" />
		</g>
		<text
   transform="matrix(1 0 0 1 142 428.1019)"
   class="st4 st5"
   id="text129">vCenter</text>

	</g>
	<g
   id="g131">
		<g
   id="g133">
			<path
   class="st17"
   d="M286.3,425.1v-7.9c0-1.9-1.5-3.4-3.2-3.4h-4.2v-10.1h6.9c5.1,0,9.2,4.3,9.2,9.7v15.3c0,5.3-4.1,9.7-9.2,9.7     h-6.9v-9.8h4.2C284.8,428.5,286.3,427,286.3,425.1z"
   id="path135" />
			<path
   class="st18"
   d="M281.3,415.8h-4.2v-12.1h-6.5c-4.8,0-8.7,4.3-8.7,9.7v15.3c0,5.3,3.9,9.7,8.7,9.7h6.5v-11.3h4.2     c1.3,0,2.4-1.2,2.4-2.6v-6C283.6,417,282.6,415.8,281.3,415.8z"
   id="path137" />
		</g>
		<text
   transform="matrix(1 0 0 1 299.9024 426.7726)"
   class="st4 st5"
   id="text139"
   style="-inkscape-font-specification:'MyriadPro-Regular, Normal';font-family:MyriadPro-Regular;font-weight:normal;font-style:normal;font-stretch:normal;font-variant:normal;font-size:17.99999952px;text-anchor:start;text-align:start;writing-mode:lr;line-height:125%;"
   sodipodi:linespacing="90%"><tspan
     sodipodi:role="line"
     id="tspan8407"
     style="-inkscape-font-specification:'MyriadPro-Regular, Normal';font-family:MyriadPro-Regular;font-weight:normal;font-style:normal;font-stretch:normal;font-variant:normal;font-size:17.99999952px;text-anchor:start;text-align:start;writing-mode:lr;line-height:90%">Services cloud </tspan><tspan
     sodipodi:role="line"
     id="tspan8409"
     style="-inkscape-font-specification:'MyriadPro-Regular, Normal';font-family:MyriadPro-Regular;font-weight:normal;font-style:normal;font-stretch:normal;font-variant:normal;font-size:17.99999952px;text-anchor:start;text-align:start;writing-mode:lr;line-height:90%">hybrides</tspan></text>

	</g>
	<g
   id="g141">
		<g
   id="g143">
			<path
   class="st13"
   d="M531,438.1h-13c-6.6,0-12-5.4-12-12v-9.6c0-6.6,5.4-12,12-12h13c6.6,0,12,5.4,12,12v9.6     C543,432.7,537.6,438.1,531,438.1z"
   id="path145" />
			<g
   id="g147">
				<g
   id="g149">
					<path
   class="st14"
   d="M527.3,419.6h-4.9c-2.2,0-4.1-1.8-4.1-4.1v-1.5c0-2.2,1.8-4.1,4.1-4.1h4.9c2.2,0,4.1,1.8,4.1,4.1v1.5       C531.4,417.8,529.5,419.6,527.3,419.6z"
   id="path151" />
					<path
   class="st13"
   d="M526.5,418.2h-3.4c-1.1,0-2.1-0.9-2.1-2.1v-1.4c0-1.1,0.9-2.1,2.1-2.1h3.4c1.1,0,2.1,0.9,2.1,2.1v1.4       C528.6,417.3,527.7,418.2,526.5,418.2z"
   id="path153" />
					<path
   class="st14"
   d="M531.4,432.6h-13.1c-2.2,0-4.1-1.8-4.1-4.1v-6.9c0-2.2,1.8-4.1,4.1-4.1h13.1c2.2,0,4.1,1.8,4.1,4.1v6.9       C535.5,430.8,533.6,432.6,531.4,432.6z"
   id="path155" />
				</g>
				<g
   id="g157">
					<path
   class="st13"
   d="M527.9,423.4c0,1.3-1.2,2.4-2.7,2.4c-1.5,0-2.7-1.1-2.7-2.4c0-1.3,1.2-2.4,2.7-2.4       C526.7,421,527.9,422,527.9,423.4z"
   id="path159" />
					<path
   class="st13"
   d="M524.8,430.6L524.8,430.6c-0.6,0-1-0.5-1-1v-4.8c0-0.6,0.5-1,1-1l0,0c0.6,0,1,0.5,1,1v4.8       C525.9,430.1,525.4,430.6,524.8,430.6z"
   id="path161" />
					<path
   class="st13"
   d="M526.9,427.1h-1.4c-0.2,0-0.3-0.2-0.3-0.3l0,0c0-0.2,0.2-0.3,0.3-0.3h1.4c0.2,0,0.3,0.2,0.3,0.3l0,0       C527.2,427,527.1,427.1,526.9,427.1z"
   id="path163" />
					<path
   class="st13"
   d="M526.9,428.5h-1.4c-0.2,0-0.3-0.2-0.3-0.3l0,0c0-0.2,0.2-0.3,0.3-0.3h1.4c0.2,0,0.3,0.2,0.3,0.3l0,0       C527.2,428.4,527.1,428.5,526.9,428.5z"
   id="path165" />
					<path
   class="st13"
   d="M526.9,429.9h-1.4c-0.2,0-0.3-0.2-0.3-0.3l0,0c0-0.2,0.2-0.3,0.3-0.3h1.4c0.2,0,0.3,0.2,0.3,0.3l0,0       C527.2,429.7,527.1,429.9,526.9,429.9z"
   id="path167" />
				</g>
			</g>
		</g>
		<text
   transform="matrix(1 0 0 1 546.667 427.333)"
   class="st4 st5"
   id="text169">Passerelle de cloud</text>

	</g>
	<g
   id="g171">
		<g
   id="g173">
			<path
   class="st13"
   d="M206,480.8h-18.8c-6.6,0-12-5.4-12-12V454c0-6.6,5.4-12,12-12H206c6.6,0,12,5.4,12,12v14.8     C218,475.4,212.6,480.8,206,480.8z"
   id="path175" />
			<g
   id="g177">
				<g
   id="g179">
					<g
   id="g181">
						<g
   id="g183">
							<g
   id="g185">
								<ellipse
   class="st14"
   cx="196.5"
   cy="461.2"
   rx="11.5"
   ry="11.1"
   id="ellipse187" />
								<path
   class="st13"
   d="M201.6,461.2c0,2.7-2.3,5-5.1,5c-2.8,0-5.1-2.2-5.1-5c0-2.7,2.3-5,5.1-5          C199.3,456.3,201.6,458.5,201.6,461.2z"
   id="path189" />
							</g>
							<rect
   x="193.1"
   y="447.1"
   class="st14"
   width="6.2"
   height="4"
   id="rect191" />
							<rect
   x="193.7"
   y="470.9"
   class="st14"
   width="5.5"
   height="4.8"
   id="rect193" />
						</g>
						<rect
   x="206.5"
   y="458.6"
   class="st14"
   width="4.8"
   height="5.5"
   id="rect195" />
						<rect
   x="182"
   y="458.6"
   class="st14"
   width="4.8"
   height="5.5"
   id="rect197" />
					</g>
					
						<rect
   x="184.6"
   y="450.1"
   transform="matrix(0.7526 0.6585 -0.6585 0.7526 344.4036 -11.2706)"
   class="st14"
   width="5.2"
   height="5.2"
   id="rect199" />
					
						<rect
   x="202.2"
   y="467.5"
   transform="matrix(0.7526 0.6585 -0.6585 0.7526 360.4512 -19.0498)"
   class="st14"
   width="6.8"
   height="5.2"
   id="rect201" />
				</g>
				
					<rect
   x="203.6"
   y="450.4"
   transform="matrix(0.7071 0.7071 -0.7071 0.7071 380.8846 -13.0761)"
   class="st14"
   width="5.2"
   height="5.7"
   id="rect203" />
				
					<rect
   x="185.2"
   y="467.5"
   transform="matrix(0.7071 0.7071 -0.7071 0.7071 387.3958 4.8689)"
   class="st14"
   width="5.2"
   height="5.2"
   id="rect205" />
			</g>
		</g>
		<text
   transform="matrix(1 0 0 1 223 468)"
   class="st4 st5"
   id="text207"
   style="-inkscape-font-specification:'MyriadPro-Regular, Normal';font-family:MyriadPro-Regular;font-weight:normal;font-style:normal;font-stretch:normal;font-variant:normal;font-size:17.99999952px;text-anchor:start;text-align:start;writing-mode:lr;line-height:125%;"
   sodipodi:linespacing="90%"><tspan
     sodipodi:role="line"
     id="tspan8444"
     style="-inkscape-font-specification:'MyriadPro-Regular, Normal';font-family:MyriadPro-Regular;font-weight:normal;font-style:normal;font-stretch:normal;font-variant:normal;font-size:17.99999952px;text-anchor:start;text-align:start;writing-mode:lr;line-height:90%">Optimiseur de </tspan><tspan
     sodipodi:role="line"
     id="tspan8446"
     style="-inkscape-font-specification:'MyriadPro-Regular, Normal';font-family:MyriadPro-Regular;font-weight:normal;font-style:normal;font-stretch:normal;font-variant:normal;font-size:17.99999952px;text-anchor:start;text-align:start;writing-mode:lr;line-height:90%">réseau WAN</tspan></text>

	</g>
	<g
   id="g209">
		<text
   transform="matrix(1 0 0 1 480 470)"
   class="st4 st5"
   id="text211">Concentrateur L2</text>

		<g
   id="g213">
			<path
   class="st13"
   d="M463,480.9h-14.5c-6.6,0-12-5.4-12-12V458c0-6.6,5.4-12,12-12H463c6.6,0,12,5.4,12,12v10.9     C475,475.5,469.6,480.9,463,480.9z"
   id="path215" />
			<g
   id="g217">
				<rect
   x="445.1"
   y="454.4"
   class="st14"
   width="21.4"
   height="11.4"
   id="rect219" />
				<rect
   x="448.4"
   y="463.1"
   class="st14"
   width="14.7"
   height="5.3"
   id="rect221" />
				<rect
   x="448.4"
   y="458.5"
   class="st13"
   width="14.7"
   height="1.3"
   id="rect223" />
				<rect
   x="453.7"
   y="467.1"
   class="st14"
   width="4"
   height="9.4"
   id="rect225" />
				<rect
   x="447.1"
   y="450.4"
   class="st14"
   width="4"
   height="7.4"
   id="rect227" />
				<rect
   x="453.1"
   y="450.4"
   class="st14"
   width="2"
   height="2.7"
   id="rect229" />
				<rect
   x="456.4"
   y="450.4"
   class="st14"
   width="2"
   height="2.7"
   id="rect231" />
				<rect
   x="460.4"
   y="450.4"
   class="st14"
   width="4"
   height="7.4"
   id="rect233" />
			</g>
		</g>
	</g>
</g>
<g
   id="L2_concentrator">
	<g
   id="g236">
		<line
   class="st0"
   x1="392.5"
   y1="176.5"
   x2="392.5"
   y2="218.5"
   id="line238" />
		<g
   id="g240">
			<path
   class="st13"
   d="M408.5,176.6h-30c-6.6,0-12-5.4-12-12v-25c0-6.6,5.4-12,12-12h30c6.6,0,12,5.4,12,12v25     C420.5,171.2,415.1,176.6,408.5,176.6z"
   id="path242" />
			<g
   id="g244">
				<rect
   x="378.5"
   y="139.5"
   class="st14"
   width="30"
   height="15.9"
   id="rect246" />
				<rect
   x="383.2"
   y="151.6"
   class="st14"
   width="20.6"
   height="7.5"
   id="rect248" />
				<rect
   x="383.2"
   y="145.1"
   class="st13"
   width="20.6"
   height="1.9"
   id="rect250" />
				<rect
   x="390.7"
   y="157.3"
   class="st14"
   width="5.6"
   height="13.1"
   id="rect252" />
				<rect
   x="381.3"
   y="133.8"
   class="st14"
   width="5.6"
   height="10.3"
   id="rect254" />
				<rect
   x="389.8"
   y="133.8"
   class="st14"
   width="2.8"
   height="3.8"
   id="rect256" />
				<rect
   x="394.4"
   y="133.8"
   class="st14"
   width="2.8"
   height="3.8"
   id="rect258" />
				<rect
   x="400.1"
   y="133.8"
   class="st14"
   width="5.6"
   height="10.3"
   id="rect260" />
			</g>
		</g>
	</g>
</g>
<g
   id="wan_optimizer">
	<g
   id="g263">
		<line
   class="st0"
   x1="317.5"
   y1="175.5"
   x2="317.5"
   y2="219.5"
   id="line265" />
		<g
   id="g267">
			<path
   class="st13"
   d="M333.3,175.8h-30c-6.6,0-12-5.4-12-12v-25c0-6.6,5.4-12,12-12h30c6.6,0,12,5.4,12,12v25     C345.3,170.4,339.9,175.8,333.3,175.8z"
   id="path269" />
			<g
   id="g271">
				<g
   id="g273">
					<g
   id="g275">
						<g
   id="g277">
							<g
   id="g279">
								<ellipse
   class="st14"
   cx="318.1"
   cy="151.1"
   rx="14.5"
   ry="14"
   id="ellipse281" />
								<path
   class="st13"
   d="M324.6,151.1c0,3.5-2.9,6.3-6.5,6.3c-3.6,0-6.5-2.8-6.5-6.3c0-3.5,2.9-6.3,6.5-6.3          C321.7,144.8,324.6,147.6,324.6,151.1z"
   id="path283" />
							</g>
							<rect
   x="313.8"
   y="133.3"
   class="st14"
   width="7.8"
   height="5"
   id="rect285" />
							<rect
   x="314.6"
   y="163.3"
   class="st14"
   width="7"
   height="6"
   id="rect287" />
						</g>
						<rect
   x="330.8"
   y="147.8"
   class="st14"
   width="6"
   height="7"
   id="rect289" />
						<rect
   x="299.8"
   y="147.8"
   class="st14"
   width="6"
   height="7"
   id="rect291" />
					</g>
					
						<rect
   x="303.1"
   y="137"
   transform="matrix(0.7526 0.6585 -0.6585 0.7526 168.1729 -167.0228)"
   class="st14"
   width="6.6"
   height="6.6"
   id="rect293" />
					
						<rect
   x="325.2"
   y="159"
   transform="matrix(0.7526 0.6585 -0.6585 0.7526 188.439 -176.8479)"
   class="st14"
   width="8.6"
   height="6.6"
   id="rect295" />
				</g>
				
					<rect
   x="327.1"
   y="137.4"
   transform="matrix(0.7071 0.7071 -0.7071 0.7071 196.4677 -192.3151)"
   class="st14"
   width="6.5"
   height="7.2"
   id="rect297" />
				
					<rect
   x="303.9"
   y="159"
   transform="matrix(0.7071 0.7071 -0.7071 0.7071 204.684 -169.6509)"
   class="st14"
   width="6.5"
   height="6.5"
   id="rect299" />
			</g>
		</g>
	</g>
</g>
<g
   id="hybrid_cloud_services">
	<g
   id="g302">
		<line
   class="st0"
   x1="179.5"
   y1="171.5"
   x2="179.5"
   y2="218.5"
   id="line304" />
		<g
   id="g306">
			<path
   class="st17"
   d="M188.7,154.3v-10.2c0-2.4-1.9-4.4-4.2-4.4H179v-13.1h9c6.6,0,12,5.7,12,12.6V159c0,6.9-5.4,12.6-12,12.6h-9     v-12.8h5.5C186.8,158.8,188.7,156.8,188.7,154.3z"
   id="path308" />
			<path
   class="st18"
   d="M182.2,142.2h-5.4v-15.7h-8.5c-6.2,0-11.3,5.7-11.3,12.6V159c0,6.9,5.1,12.6,11.3,12.6h8.5v-14.7h5.4     c1.7,0,3.1-1.5,3.1-3.4v-7.9C185.3,143.8,183.9,142.2,182.2,142.2z"
   id="path310" />
		</g>
	</g>
</g>
<g
   id="mngt_network">
	<g
   id="g313">
		<path
   class="st19"
   d="M650,243.5c0-12.7-6.7-23-15.1-23.5v0H89.1v0c-8.4,0.5-15.1,10.8-15.1,23.5c0,12.7,6.7,23,15.1,23.5v0h545.9    v0C643.3,266.5,650,256.2,650,243.5z"
   id="path315" />
		<ellipse
   class="st10"
   cx="633.7"
   cy="244"
   rx="10.7"
   ry="19.5"
   id="ellipse317" />
	</g>
	<text
   transform="matrix(1 0 0 1 262 251)"
   class="st4 st11"
   id="text319">Réseau de gestion</text>

</g>
<g
   id="vmotion_network">
	<g
   id="g322">
		<path
   class="st20"
   d="M651,310.5c0-12.7-6.7-23-15.1-23.5v0H90.1v0c-8.4,0.5-15.1,10.8-15.1,23.5s6.7,23,15.1,23.5v0h545.9v0    C644.3,333.5,651,323.2,651,310.5z"
   id="path324" />
		<ellipse
   class="st10"
   cx="634.7"
   cy="311"
   rx="10.7"
   ry="19.5"
   id="ellipse326" />
	</g>
	<text
   transform="matrix(1 0 0 1 283 319)"
   class="st4 st11"
   id="text328">Réseau vMotion</text>

</g>
<g
   id="vcenter">
	<g
   id="g331">
		<line
   class="st0"
   x1="101.5"
   y1="174.5"
   x2="101.5"
   y2="218.5"
   id="line333" />
		<g
   id="g335">
			<path
   class="st15"
   d="M124.6,125h-15.2c-4.6,0-8.4,3.8-8.4,8.4v5.6h-5.6c-4.6,0-8.4,3.8-8.4,8.4v14.2c0,4.6,3.8,8.4,8.4,8.4h14.3     c4.6,0,8.4-3.8,8.4-8.4V158h6.4c4.6,0,8.4-3.8,8.4-8.4v-16.2C133,128.8,129.2,125,124.6,125z"
   id="path337" />
			<path
   class="st16"
   d="M108.3,160.9H96.7c-0.9,0-1.7-0.8-1.7-1.7v-10.5c0-0.9,0.8-1.7,1.7-1.7h11.6c0.9,0,1.7,0.8,1.7,1.7v10.5     C110,160.2,109.2,160.9,108.3,160.9z"
   id="path339" />
			<path
   class="st16"
   d="M122.3,149h-11.6c-0.9,0-1.7-0.8-1.7-1.7v-11.6c0-0.9,0.8-1.7,1.7-1.7h11.6c0.9,0,1.7,0.8,1.7,1.7v11.6     C124,148.2,123.2,149,122.3,149z"
   id="path341" />
		</g>
	</g>
</g>
</svg>
