<?xml version="1.0" encoding="UTF-8" standalone="no"?>
<!-- Generator: Adobe Illustrator 22.0.1, SVG Export Plug-In . SVG Version: 6.00 Build 0)  -->

<svg
   xmlns:dc="http://purl.org/dc/elements/1.1/"
   xmlns:cc="http://creativecommons.org/ns#"
   xmlns:rdf="http://www.w3.org/1999/02/22-rdf-syntax-ns#"
   xmlns:svg="http://www.w3.org/2000/svg"
   xmlns="http://www.w3.org/2000/svg"
   xmlns:sodipodi="http://sodipodi.sourceforge.net/DTD/sodipodi-0.dtd"
   xmlns:inkscape="http://www.inkscape.org/namespaces/inkscape"
   version="1.1"
   x="0px"
   y="0px"
   viewBox="0 0 686 794"
   style="enable-background:new 0 0 686 794;"
   xml:space="preserve"
   id="svg2"
   inkscape:version="0.91 r13725"
   sodipodi:docname="wan_optimizer_deployment.svg"><metadata
   id="metadata488"><rdf:RDF><cc:Work
       rdf:about=""><dc:format>image/svg+xml</dc:format><dc:type
         rdf:resource="http://purl.org/dc/dcmitype/StillImage" /></cc:Work></rdf:RDF></metadata><defs
   id="defs486">
	

		
		
		
	
	
	

	
	
	

	
	

		
		
		
	</defs><sodipodi:namedview
   pagecolor="#ffffff"
   bordercolor="#666666"
   borderopacity="1"
   objecttolerance="10"
   gridtolerance="10"
   guidetolerance="10"
   inkscape:pageopacity="0"
   inkscape:pageshadow="2"
   inkscape:window-width="1920"
   inkscape:window-height="1024"
   id="namedview484"
   showgrid="false"
   inkscape:zoom="0.84069119"
   inkscape:cx="357.76768"
   inkscape:cy="442.78739"
   inkscape:window-x="-4"
   inkscape:window-y="-4"
   inkscape:window-maximized="1"
   inkscape:current-layer="svg2" />
<style
   type="text/css"
   id="style4">
	.st0{fill:#FFFFFF;}
	.st1{fill:none;stroke:#000000;stroke-miterlimit:10;}
	.st2{fill:none;stroke:#000000;stroke-miterlimit:10;stroke-dasharray:7.9157,7.9157;}
	.st3{fill:none;stroke:#000000;stroke-miterlimit:10;stroke-dasharray:8.052,8.052;}
	.st4{fill:#AADFF2;}
	.st5{fill:none;stroke:#000000;stroke-miterlimit:10;stroke-dasharray:7.9718,7.9718;}
	.st6{fill:none;stroke:#000000;stroke-miterlimit:10;stroke-dasharray:8.1177,8.1177;}
	.st7{font-family:'MyriadPro-Regular';}
	.st8{font-size:21px;}
	.st9{fill:#E1E5BA;}
	.st10{fill:none;stroke:#000000;stroke-miterlimit:10;stroke-dasharray:8.1429,8.1429;}
	.st11{fill:#FFFFFF;stroke:#000000;stroke-width:3;stroke-miterlimit:10;}
	.st12{fill:#FF7BAC;}
	.st13{font-family:'IBMPlexSans';}
	.st14{fill:#29ABE2;}
	.st15{font-size:18px;}
	.st16{fill:#EF7C26;}
	.st17{fill:#F4BA51;}
	.st18{fill:#169ADB;stroke:#9BCCDD;stroke-width:0.5;stroke-miterlimit:10;}
	.st19{fill:url(#SVGID_1_);}
	.st20{font-size:11.4646px;}
	.st21{fill:url(#SVGID_2_);}
	.st22{font-size:9.2282px;}
	.st23{fill:#2B6782;}
	.st24{fill:#1E4C66;}
	.st25{font-size:16.5319px;}
</style>
<g
   id="Outter_dash_rectangle">
	<g
   id="g7">
		<rect
   x="9"
   y="64"
   class="st0"
   width="665"
   height="628"
   id="rect9" />
		<g
   id="g11">
			<polyline
   class="st1"
   points="674,688 674,692 670,692    "
   id="polyline13" />
			<line
   class="st2"
   x1="662.1"
   y1="692"
   x2="17"
   y2="692"
   id="line15" />
			<polyline
   class="st1"
   points="13,692 9,692 9,688    "
   id="polyline17" />
			<line
   class="st3"
   x1="9"
   y1="679.9"
   x2="9"
   y2="72"
   id="line19" />
			<polyline
   class="st1"
   points="9,68 9,64 13,64    "
   id="polyline21" />
			<line
   class="st2"
   x1="20.9"
   y1="64"
   x2="666"
   y2="64"
   id="line23" />
			<polyline
   class="st1"
   points="670,64 674,64 674,68    "
   id="polyline25" />
			<line
   class="st3"
   x1="674"
   y1="76.1"
   x2="674"
   y2="684"
   id="line27" />
		</g>
	</g>
</g>
<g
   id="Public_address_space_rectangle">
	<g
   id="g30">
		<rect
   x="59.5"
   y="94.5"
   class="st4"
   width="574"
   height="146"
   id="rect32" />
		<g
   id="g34">
			<polyline
   class="st1"
   points="633.5,236.5 633.5,240.5 629.5,240.5    "
   id="polyline36" />
			<line
   class="st5"
   x1="621.5"
   y1="240.5"
   x2="67.5"
   y2="240.5"
   id="line38" />
			<polyline
   class="st1"
   points="63.5,240.5 59.5,240.5 59.5,236.5    "
   id="polyline40" />
			<line
   class="st6"
   x1="59.5"
   y1="228.4"
   x2="59.5"
   y2="102.6"
   id="line42" />
			<polyline
   class="st1"
   points="59.5,98.5 59.5,94.5 63.5,94.5    "
   id="polyline44" />
			<line
   class="st5"
   x1="71.5"
   y1="94.5"
   x2="625.5"
   y2="94.5"
   id="line46" />
			<polyline
   class="st1"
   points="629.5,94.5 633.5,94.5 633.5,98.5    "
   id="polyline48" />
			<line
   class="st6"
   x1="633.5"
   y1="106.6"
   x2="633.5"
   y2="232.4"
   id="line50" />
		</g>
	</g>
	<text
   class="st7 st8"
   id="text52"
   x="388"
   y="226"
   style="font-size:21px;font-family:MyriadPro-Regular">Espace adresse public</text>

</g>
<g
   id="g55">
		<rect
   style="fill:#e1e5ba"
   id="rect57"
   height="407"
   width="574"
   class="st9"
   y="251.5"
   x="59.5" />
		<g
   id="g59">
			<polyline
   style="fill:none;stroke:#000000;stroke-miterlimit:10"
   id="polyline61"
   points="633.5,654.5 633.5,658.5 629.5,658.5    "
   class="st1" />
			<line
   style="fill:none;stroke:#000000;stroke-miterlimit:10;stroke-dasharray:7.9718, 7.9718"
   id="line63"
   y2="658.5"
   x2="67.5"
   y1="658.5"
   x1="621.5"
   class="st5" />
			<polyline
   style="fill:none;stroke:#000000;stroke-miterlimit:10"
   id="polyline65"
   points="63.5,658.5 59.5,658.5 59.5,654.5    "
   class="st1" />
			<line
   style="fill:none;stroke:#000000;stroke-miterlimit:10;stroke-dasharray:8.1429, 8.1429"
   id="line67"
   y2="259.60001"
   x2="59.5"
   y1="646.40002"
   x1="59.5"
   class="st10" />
			<polyline
   style="fill:none;stroke:#000000;stroke-miterlimit:10"
   id="polyline69"
   points="59.5,255.5 59.5,251.5 63.5,251.5    "
   class="st1" />
			<line
   style="fill:none;stroke:#000000;stroke-miterlimit:10;stroke-dasharray:7.9718, 7.9718"
   id="line71"
   y2="251.5"
   x2="625.5"
   y1="251.5"
   x1="71.5"
   class="st5" />
			<polyline
   style="fill:none;stroke:#000000;stroke-miterlimit:10"
   id="polyline73"
   points="629.5,251.5 633.5,251.5 633.5,255.5    "
   class="st1" />
			<line
   style="fill:none;stroke:#000000;stroke-miterlimit:10;stroke-dasharray:8.1429, 8.1429"
   id="line75"
   y2="650.40002"
   x2="633.5"
   y1="263.60001"
   x1="633.5"
   class="st10" />
		</g>
	</g><text
   style="font-size:21px;font-family:MyriadPro-Regular"
   id="text77"
   class="st7 st8"
   x="401"
   y="643">Espace adresse privé</text>

<g
   id="ibm_cloud">
	<path
   class="st11"
   d="M141.2,59.9c0-11.4-13.4-20.6-29.9-20.6c-1.6,0-3.2,0.1-4.7,0.3c-1-2.2-2.6-4.2-4.6-5.8   c-4.7-3.8-10.8-4.5-15.7-2.3C83.5,16.9,72,6,58.2,6C43.8,6,32,17.8,29.8,33.2c-0.1,0-0.2,0-0.4,0c-11.6,0-21,10.6-21,23.7   c0,10,5.5,18.5,13.2,22v0.9h2.4c1.7,0.5,3.5,0.8,5.3,0.8c1.8,0,3.6-0.3,5.3-0.8h68.4c2.6,0.5,5.3,0.8,8.1,0.8   c2.8,0,5.5-0.3,8.1-0.8h2.4v-0.5C133.1,76.3,141.2,68.8,141.2,59.9z"
   id="path80" />
	<text
   transform="matrix(1 0 0 1 21 62)"
   class="st7 st8"
   id="text82">IBM Cloud</text>

</g>
<g
   id="lines">
	<line
   class="st1"
   x1="128"
   y1="190"
   x2="128"
   y2="503.5"
   id="line85" />
	<line
   class="st1"
   x1="221.5"
   y1="407.5"
   x2="221.5"
   y2="503.5"
   id="line87" />
	<line
   class="st1"
   x1="361.5"
   y1="190.5"
   x2="361.5"
   y2="565.5"
   id="line89" />
	<line
   class="st1"
   x1="346.5"
   y1="407.5"
   x2="346.5"
   y2="504.5"
   id="line91" />
	<line
   class="st1"
   x1="376.5"
   y1="407.5"
   x2="376.5"
   y2="438.5"
   id="line93" />
	<line
   class="st1"
   x1="450.5"
   y1="407.5"
   x2="450.5"
   y2="437.5"
   id="line95" />
</g>
<g
   id="pubic_VLAN_native">
	<g
   id="g98">
		<g
   id="g100">
			<g
   id="g102">
				<g
   id="g104">
					<path
   class="st12"
   d="M103.5,190.5L103.5,190.5l-0.4-0.1c-7.7-1.1-13.6-10.3-13.6-21.4s5.8-20.3,13.6-21.4l0.4-0.1v0h485.3       l0.2,0c7.6,0.4,13.5,9.8,13.5,21.5s-5.9,21.1-13.5,21.5l-0.4,0H103.5z"
   id="path106" />
					<path
   d="M588.6,148l0.3,0c7.2,0.4,13.1,9.8,13.1,21s-5.9,20.6-13.1,21l-0.2,0H103.8l-0.7-0.1c-7.4-1-13.1-10.2-13.1-20.9       s5.8-19.9,13.1-20.9l0.7-0.1H588.6 M589,147H103v0.1c-7.9,1.1-14,10.5-14,21.9c0,11.4,6.1,20.8,14,21.9v0.1h486v0       c7.8-0.4,14-10.1,14-22C603,157.1,596.8,147.4,589,147L589,147L589,147z"
   id="path108" />
				</g>
				<g
   id="g110">
					<path
   class="st0"
   d="M587.5,186.9c-5.5,0-10-8.2-10-18.4c0-10.1,4.5-18.4,10-18.4c5.5,0,10,8.2,10,18.4       C597.5,178.7,593,186.9,587.5,186.9z"
   id="path112" />
					<path
   d="M587.5,150.7c5.1,0,9.5,8.2,9.5,17.9c0,9.7-4.4,17.9-9.5,17.9c-5.1,0-9.5-8.2-9.5-17.9       C578,158.9,582.4,150.7,587.5,150.7 M587.5,149.7c-5.8,0-10.5,8.4-10.5,18.9c0,10.4,4.7,18.9,10.5,18.9S598,179,598,168.6       C598,158.1,593.3,149.7,587.5,149.7L587.5,149.7z"
   id="path114" />
				</g>
			</g>
		</g>
		<text
   transform="matrix(1 0 0 1 279.75 175.75)"
   class="st13 st8"
   id="text116">VLAN (natif)</text>

	</g>
</g>
<g
   id="security_lock_icon">
	<g
   id="g119">
		<path
   class="st14"
   d="M377,407.8h-30c-6.6,0-12-5.4-12-12v-25c0-6.6,5.4-12,12-12h30c6.6,0,12,5.4,12,12v25    C389,402.4,383.6,407.8,377,407.8z"
   id="path121" />
		<g
   id="g123">
			<g
   id="g125">
				<path
   class="st0"
   d="M367.9,380.8h-10.9c-2.2,0-4.1-1.8-4.1-4.1v-5.9c0-2.2,1.8-4.1,4.1-4.1h10.9c2.2,0,4.1,1.8,4.1,4.1v5.9      C372,378.9,370.2,380.8,367.9,380.8z"
   id="path127" />
				<path
   class="st14"
   d="M365.9,378.8h-6.9c-1.1,0-2.1-0.9-2.1-2.1v-4c0-1.1,0.9-2.1,2.1-2.1h6.9c1.1,0,2.1,0.9,2.1,2.1v4      C368,377.8,367.1,378.8,365.9,378.8z"
   id="path129" />
				<path
   class="st0"
   d="M373.9,399.8h-22.9c-2.2,0-4.1-1.8-4.1-4.1v-13.9c0-2.2,1.8-4.1,4.1-4.1h22.9c2.2,0,4.1,1.8,4.1,4.1v13.9      C378,397.9,376.2,399.8,373.9,399.8z"
   id="path131" />
			</g>
			<g
   id="g133">
				<ellipse
   class="st14"
   cx="363"
   cy="386.3"
   rx="4"
   ry="3.5"
   id="ellipse135" />
				<path
   class="st14"
   d="M362.5,396.8L362.5,396.8c-0.8,0-1.5-0.7-1.5-1.5v-7c0-0.8,0.7-1.5,1.5-1.5l0,0c0.8,0,1.5,0.7,1.5,1.5v7      C364,396.1,363.3,396.8,362.5,396.8z"
   id="path137" />
				<path
   class="st14"
   d="M365.5,391.8h-2c-0.3,0-0.5-0.2-0.5-0.5l0,0c0-0.3,0.2-0.5,0.5-0.5h2c0.3,0,0.5,0.2,0.5,0.5l0,0      C366,391.5,365.8,391.8,365.5,391.8z"
   id="path139" />
				<path
   class="st14"
   d="M365.5,393.8h-2c-0.3,0-0.5-0.2-0.5-0.5l0,0c0-0.3,0.2-0.5,0.5-0.5h2c0.3,0,0.5,0.2,0.5,0.5l0,0      C366,393.5,365.8,393.8,365.5,393.8z"
   id="path141" />
				<path
   class="st14"
   d="M365.5,395.8h-2c-0.3,0-0.5-0.2-0.5-0.5l0,0c0-0.3,0.2-0.5,0.5-0.5h2c0.3,0,0.5,0.2,0.5,0.5l0,0      C366,395.5,365.8,395.8,365.5,395.8z"
   id="path143" />
			</g>
		</g>
	</g>
</g>
<g
   id="security_lock_bottom">
	<g
   id="g146">
		<path
   class="st14"
   d="M444,759h-19.2c-6.6,0-12-5.4-12-12v-15.2c0-6.6,5.4-12,12-12H444c6.6,0,12,5.4,12,12V747    C456,753.6,450.6,759,444,759z"
   id="path148" />
		<g
   id="g150">
			<g
   id="g152">
				<path
   class="st0"
   d="M438.3,737.4h-7.1c-2.2,0-4.1-1.8-4.1-4.1v-3.1c0-2.2,1.8-4.1,4.1-4.1h7.1c2.2,0,4.1,1.8,4.1,4.1v3.1      C442.4,735.6,440.6,737.4,438.3,737.4z"
   id="path154" />
				<path
   class="st14"
   d="M437.1,735.8h-4.7c-1.1,0-2.1-0.9-2.1-2.1v-2.4c0-1.1,0.9-2.1,2.1-2.1h4.7c1.1,0,2.1,0.9,2.1,2.1v2.4      C439.2,734.9,438.3,735.8,437.1,735.8z"
   id="path156" />
				<path
   class="st0"
   d="M443.1,752.6h-16.7c-2.2,0-4.1-1.8-4.1-4.1V739c0-2.2,1.8-4.1,4.1-4.1h16.7c2.2,0,4.1,1.8,4.1,4.1v9.5      C447.2,750.8,445.4,752.6,443.1,752.6z"
   id="path158" />
			</g>
			<g
   id="g160">
				<path
   class="st14"
   d="M438.4,741.8c0,1.5-1.4,2.8-3.2,2.8c-1.8,0-3.2-1.3-3.2-2.8c0-1.5,1.4-2.8,3.2-2.8      C437,739,438.4,740.2,438.4,741.8z"
   id="path162" />
				<path
   class="st14"
   d="M434.8,750.2L434.8,750.2c-0.7,0-1.2-0.5-1.2-1.2v-5.6c0-0.7,0.5-1.2,1.2-1.2h0c0.7,0,1.2,0.5,1.2,1.2v5.6      C436,749.7,435.4,750.2,434.8,750.2z"
   id="path164" />
				<path
   class="st14"
   d="M437.2,746.2h-1.6c-0.2,0-0.4-0.2-0.4-0.4v0c0-0.2,0.2-0.4,0.4-0.4h1.6c0.2,0,0.4,0.2,0.4,0.4v0      C437.6,746,437.4,746.2,437.2,746.2z"
   id="path166" />
				<path
   class="st14"
   d="M437.2,747.8h-1.6c-0.2,0-0.4-0.2-0.4-0.4v0c0-0.2,0.2-0.4,0.4-0.4h1.6c0.2,0,0.4,0.2,0.4,0.4v0      C437.6,747.6,437.4,747.8,437.2,747.8z"
   id="path168" />
				<path
   class="st14"
   d="M437.2,749.4h-1.6c-0.2,0-0.4-0.2-0.4-0.4v0c0-0.2,0.2-0.4,0.4-0.4h1.6c0.2,0,0.4,0.2,0.4,0.4v0      C437.6,749.2,437.4,749.4,437.2,749.4z"
   id="path170" />
			</g>
		</g>
	</g>
	<text
   transform="matrix(1 0 0 1 393.1211 774)"
   id="text172"><tspan
     x="0"
     y="0"
     class="st7 st15"
     id="tspan174">Passerelle </tspan><tspan
     x="6.3"
     y="18"
     class="st7 st15"
     id="tspan176">de cloud</tspan></text>

</g>
<g
   id="gear_bottom">
	<g
   id="g179">
		<path
   class="st14"
   d="M586,759h-21.8c-6.6,0-12-5.4-12-12v-17.5c0-6.6,5.4-12,12-12H586c6.6,0,12,5.4,12,12V747    C598,753.6,592.6,759,586,759z"
   id="path181" />
		<g
   id="g183">
			<g
   id="g185">
				<g
   id="g187">
					<g
   id="g189">
						<g
   id="g191">
							<ellipse
   class="st0"
   cx="575"
   cy="738.1"
   rx="12.3"
   ry="11.9"
   id="ellipse193" />
							<path
   class="st14"
   d="M580.5,738.1c0,2.9-2.5,5.3-5.5,5.3c-3,0-5.5-2.4-5.5-5.3c0-2.9,2.5-5.3,5.5-5.3         C578,732.8,580.5,735.2,580.5,738.1z"
   id="path195" />
						</g>
						<rect
   x="571.3"
   y="723"
   class="st0"
   width="6.6"
   height="4.2"
   id="rect197" />
						<rect
   x="572"
   y="748.4"
   class="st0"
   width="5.9"
   height="5.1"
   id="rect199" />
					</g>
					<rect
   x="585.7"
   y="735.3"
   class="st0"
   width="5.1"
   height="5.9"
   id="rect201" />
					<rect
   x="559.5"
   y="735.3"
   class="st0"
   width="5.1"
   height="5.9"
   id="rect203" />
				</g>
				
					<rect
   x="562.3"
   y="726.2"
   transform="matrix(0.7526 0.6585 -0.6585 0.7526 619.8199 -191.7219)"
   class="st0"
   width="5.6"
   height="5.6"
   id="rect205" />
				
					<rect
   x="581"
   y="744.9"
   transform="matrix(0.7526 0.6585 -0.6585 0.7526 636.996 -200.0471)"
   class="st0"
   width="7.3"
   height="5.6"
   id="rect207" />
			</g>
			
				<rect
   x="582.6"
   y="726.5"
   transform="matrix(0.7071 0.7071 -0.7071 0.7071 687.336 -200.2579)"
   class="st0"
   width="5.5"
   height="6.1"
   id="rect209" />
			
				<rect
   x="562.9"
   y="744.8"
   transform="matrix(0.7071 0.7071 -0.7071 0.7071 694.2971 -181.0563)"
   class="st0"
   width="5.5"
   height="5.5"
   id="rect211" />
		</g>
	</g>
	<text
   transform="matrix(1 0 0 1 521.6055 774)"
   id="text213"><tspan
     x="0"
     y="0"
     class="st7 st15"
     id="tspan215">Optimiseur de </tspan><tspan
     x="9.6"
     y="18"
     class="st7 st15"
     id="tspan217">réseau WAN</tspan></text>

</g>
<g
   id="gear_icon">
	<g
   id="g220">
		<path
   class="st14"
   d="M466.3,407.8h-30c-6.6,0-12-5.4-12-12v-25c0-6.6,5.4-12,12-12h30c6.6,0,12,5.4,12,12v25    C478.3,402.4,472.9,407.8,466.3,407.8z"
   id="path222" />
		<g
   id="g224">
			<g
   id="g226">
				<g
   id="g228">
					<g
   id="g230">
						<g
   id="g232">
							<ellipse
   class="st0"
   cx="451.1"
   cy="383.1"
   rx="14.5"
   ry="14"
   id="ellipse234" />
							<path
   class="st14"
   d="M457.6,383.1c0,3.5-2.9,6.3-6.5,6.3c-3.6,0-6.5-2.8-6.5-6.3c0-3.5,2.9-6.3,6.5-6.3         C454.7,376.8,457.6,379.6,457.6,383.1z"
   id="path236" />
						</g>
						<rect
   x="446.8"
   y="365.3"
   class="st0"
   width="7.8"
   height="5"
   id="rect238" />
						<rect
   x="447.6"
   y="395.3"
   class="st0"
   width="7"
   height="6"
   id="rect240" />
					</g>
					<rect
   x="463.8"
   y="379.8"
   class="st0"
   width="6"
   height="7"
   id="rect242" />
					<rect
   x="432.8"
   y="379.8"
   class="st0"
   width="6"
   height="7"
   id="rect244" />
				</g>
				
					<rect
   x="436.1"
   y="369"
   transform="matrix(0.7526 0.6585 -0.6585 0.7526 353.8559 -197.2012)"
   class="st0"
   width="6.6"
   height="6.6"
   id="rect246" />
				
					<rect
   x="458.2"
   y="391"
   transform="matrix(0.7526 0.6585 -0.6585 0.7526 374.1191 -207.0269)"
   class="st0"
   width="8.6"
   height="6.6"
   id="rect248" />
			</g>
			
				<rect
   x="460.1"
   y="369.4"
   transform="matrix(0.7071 0.7071 -0.7071 0.7071 399.4713 -218.409)"
   class="st0"
   width="6.5"
   height="7.2"
   id="rect250" />
			
				<rect
   x="436.9"
   y="391"
   transform="matrix(0.7071 0.7071 -0.7071 0.7071 407.6876 -195.7448)"
   class="st0"
   width="6.5"
   height="6.5"
   id="rect252" />
		</g>
	</g>
</g>
<g
   id="vSAN_vMotion">
	<g
   id="Layer_7">
	</g>
	<g
   id="g256">
		<g
   id="g258">
			<g
   id="g260">
				<path
   class="st16"
   d="M103.5,608.5L103.5,608.5l-0.4-0.1c-7.7-1-13.6-10-13.6-20.9s5.8-19.9,13.6-20.9l0.4-0.1v0h485.3l0.2,0      c7.6,0.4,13.5,9.6,13.5,21s-5.9,20.6-13.5,21l-0.4,0H103.5z"
   id="path262" />
				<path
   d="M588.6,567l0.3,0c7.2,0.4,13.1,9.6,13.1,20.5s-5.9,20.1-13.1,20.5l-0.2,0H103.8l-0.7-0.1c-7.4-1-13.1-9.9-13.1-20.4      c0-10.5,5.8-19.4,13.1-20.4l0.7-0.1H588.6 M589,566H103v0.1c-7.9,1-14,10.2-14,21.4s6.1,20.4,14,21.4v0.1h486v0      c7.8-0.4,14-9.9,14-21.5S596.8,566.4,589,566L589,566L589,566z"
   id="path264" />
			</g>
			<g
   id="g266">
				<ellipse
   class="st0"
   cx="587.5"
   cy="587.1"
   rx="10"
   ry="17.9"
   id="ellipse268" />
				<path
   d="M587.5,569.6c5.1,0,9.5,8,9.5,17.4c0,9.4-4.4,17.4-9.5,17.4c-5.1,0-9.5-8-9.5-17.4C578,577.6,582.4,569.6,587.5,569.6       M587.5,568.6c-5.8,0-10.5,8.3-10.5,18.4s4.7,18.4,10.5,18.4s10.5-8.3,10.5-18.4S593.3,568.6,587.5,568.6L587.5,568.6z"
   id="path270" />
			</g>
		</g>
		<text
   transform="matrix(1 0 0 1 201 596)"
   class="st7 st8"
   id="text272">vSAN &amp; vMotion -- VLAN privé B</text>

	</g>
</g>
<g
   id="Logical_swiitch">
	<g
   id="g275">
		<g
   id="g277">
			<g
   id="g279">
				<g
   id="g281">
					<path
   class="st14"
   d="M249.4,480.5L249.4,480.5l-0.4-0.1c-5.3-1-9.5-10.2-9.5-20.9s4.2-19.9,9.5-20.9l0.4-0.1v0h343.5l0.2,0       c5.2,0.4,9.4,9.8,9.4,21s-4.2,20.6-9.4,21l-0.2,0H249.4z"
   id="path283" />
					<path
   d="M592.8,439l0.2,0c5,0.4,9,9.5,9,20.5s-4,20.1-9,20.5l-0.2,0H249.5l-0.5-0.1c-5.1-1-9.1-9.9-9.1-20.4s4-19.5,9.1-20.4       l0.5-0.1H592.8 M593.1,438H248.9v0.1c-5.6,1-9.9,10.2-9.9,21.4s4.4,20.4,9.9,21.4v0.1h344.2v0c5.5-0.4,9.9-9.9,9.9-21.5       S598.6,438.4,593.1,438L593.1,438L593.1,438z"
   id="path285" />
				</g>
				<g
   id="g287">
					<ellipse
   class="st0"
   cx="589.2"
   cy="459.1"
   rx="9.7"
   ry="17.9"
   id="ellipse289" />
					<path
   d="M589.2,441.6c5,0,9.2,8,9.2,17.4c0,9.4-4.2,17.4-9.2,17.4c-5,0-9.2-8-9.2-17.4C580,449.6,584.2,441.6,589.2,441.6        M589.2,440.6c-5.6,0-10.2,8.3-10.2,18.4c0,10.2,4.6,18.4,10.2,18.4c5.6,0,10.2-8.3,10.2-18.4       C599.5,448.9,594.9,440.6,589.2,440.6L589.2,440.6z"
   id="path291" />
				</g>
			</g>
		</g>
		<text
   transform="matrix(1 0 0 1 343 466)"
   class="st7 st8"
   id="text293">Réseau VXLAN</text>

	</g>
	<g
   id="Layer_9">
	</g>
</g>
<g
   id="Layer_6">
	</g><g
   id="g298">
		<g
   id="g300">
			<path
   style="fill:#f4ba51"
   inkscape:connector-curvature="0"
   id="path302"
   d="m 103.5,547.5 0,0 -0.4,-0.1 C 95.4,546.3 89.5,537.1 89.5,526 c 0,-11.1 5.8,-20.3 13.6,-21.4 l 0.4,-0.1 0,0 485.3,0 0.2,0 c 7.6,0.4 13.5,9.8 13.5,21.5 0,11.7 -5.9,21.1 -13.5,21.5 l -0.4,0 -485.1,0 z"
   class="st17" />
			<path
   inkscape:connector-curvature="0"
   id="path304"
   d="m 588.6,505 0.3,0 c 7.2,0.4 13.1,9.8 13.1,21 0,11.2 -5.9,20.6 -13.1,21 l -0.2,0 -484.9,0 -0.7,-0.1 C 95.7,545.9 90,536.7 90,526 c 0,-10.7 5.8,-19.9 13.1,-20.9 l 0.7,-0.1 484.8,0 m 0.4,-1 -486,0 0,0.1 c -7.9,1.1 -14,10.5 -14,21.9 0,11.4 6.1,20.8 14,21.9 l 0,0.1 486,0 0,0 c 7.8,-0.4 14,-10.1 14,-22 0,-11.9 -6.2,-21.6 -14,-22 l 0,0 0,0 z" />
		</g>
		<g
   id="g306">
			<path
   style="fill:#ffffff"
   inkscape:connector-curvature="0"
   id="path308"
   d="m 587.5,543.9 c -5.5,0 -10,-8.2 -10,-18.4 0,-10.1 4.5,-18.4 10,-18.4 5.5,0 10,8.2 10,18.4 0,10.2 -4.5,18.4 -10,18.4 z"
   class="st0" />
			<path
   inkscape:connector-curvature="0"
   id="path310"
   d="m 587.5,507.7 c 5.1,0 9.5,8.2 9.5,17.9 0,9.7 -4.4,17.9 -9.5,17.9 -5.1,0 -9.5,-8.2 -9.5,-17.9 0,-9.7 4.4,-17.9 9.5,-17.9 m 0,-1 c -5.8,0 -10.5,8.4 -10.5,18.9 0,10.4 4.7,18.9 10.5,18.9 5.8,0 10.5,-8.5 10.5,-18.9 0,-10.5 -4.7,-18.9 -10.5,-18.9 l 0,0 z" />
		</g>
	</g><text
   style="font-style:normal;font-variant:normal;font-weight:normal;font-stretch:normal;font-size:20.00542259px;line-height:125%;font-family:MyriadPro-Regular;-inkscape-font-specification:'MyriadPro-Regular, Normal';text-align:start;writing-mode:lr-tb;text-anchor:start"
   id="text312"
   class="st7 st8"
   x="99.923042"
   y="507.75665"
   sodipodi:linespacing="125%"
   transform="scale(0.95263915,1.0497154)"><tspan
     sodipodi:role="line"
     id="tspan8582"
     x="99.923042"
     y="507.75665">Réseau de gestion &amp; VXLAN -- VLAN privé A (natif)</tspan></text>

<g
   id="P_x2F_V">
	<g
   id="g315">
		<g
   id="g317">
			<g
   id="g319">
				<rect
   x="104.5"
   y="280"
   class="st18"
   width="47.3"
   height="47.3"
   id="rect321" />
				<linearGradient
   id="SVGID_1_"
   gradientUnits="userSpaceOnUse"
   x1="135.9627"
   y1="296.7212"
   x2="124.5096"
   y2="338.8456">
					<stop
   offset="0"
   style="stop-color:#CCE0F4"
   id="stop324" />
					<stop
   offset="7.748766e-02"
   style="stop-color:#C5DDF3"
   id="stop326" />
					<stop
   offset="0.1918"
   style="stop-color:#B1D5EF"
   id="stop328" />
					<stop
   offset="0.329"
   style="stop-color:#90C9EA"
   id="stop330" />
					<stop
   offset="0.4838"
   style="stop-color:#63B7E2"
   id="stop332" />
					<stop
   offset="0.6515"
   style="stop-color:#2AA1D9"
   id="stop334" />
					<stop
   offset="0.6829"
   style="stop-color:#1E9CD7"
   id="stop336" />
					<stop
   offset="0.8652"
   style="stop-color:#0075BE"
   id="stop338" />
					<stop
   offset="0.9944"
   style="stop-color:#005B97"
   id="stop340" />
				</linearGradient>
				<polygon
   class="st19"
   points="106.3,325.5 150,281.8 150,325.5     "
   id="polygon342" />
			</g>
			<text
   transform="matrix(1 0 0 1 108.084 315.4692)"
   class="st0 st13 st20"
   id="text344">P</text>

			<text
   transform="matrix(1 0 0 1 116.6836 324.0688)"
   class="st0 st13 st20"
   id="text346">V</text>

			<g
   id="g348">
				<g
   id="g350">
					<g
   id="g352">
						<g
   id="g354">
							<polygon
   class="st0"
   points="110.1,288.6 112.8,297.8 119.2,291.8        "
   id="polygon356" />
						</g>
					</g>
				</g>
				<g
   id="g358">
					<g
   id="g360">
						<g
   id="g362">
							
								<rect
   x="117"
   y="293.5"
   transform="matrix(0.7268 -0.6868 0.6868 0.7268 -172.128 163.1521)"
   class="st0"
   width="4.1"
   height="9"
   id="rect364" />
						</g>
					</g>
				</g>
			</g>
			<g
   id="g366">
				<g
   id="g368">
					<g
   id="g370">
						<g
   id="g372">
							<polygon
   class="st0"
   points="142.6,322.1 132.5,318.2 139.2,311.8        "
   id="polygon374" />
						</g>
					</g>
				</g>
				<g
   id="g376">
					<g
   id="g378">
						<g
   id="g380">
							
								<rect
   x="130.2"
   y="306.1"
   transform="matrix(0.7268 -0.6868 0.6868 0.7268 -177.6229 175.9507)"
   class="st0"
   width="4.3"
   height="10.4"
   id="rect382" />
						</g>
					</g>
				</g>
			</g>
		</g>
	</g>
</g>
<g
   id="Layer_15">
	<g
   id="g385">
		<g
   id="g387">
			<g
   id="g389">
				<rect
   x="108.5"
   y="720.9"
   class="st18"
   width="38.1"
   height="38.1"
   id="rect391" />
				<linearGradient
   id="SVGID_2_"
   gradientUnits="userSpaceOnUse"
   x1="133.8253"
   y1="734.3933"
   x2="124.6063"
   y2="768.3004">
					<stop
   offset="0"
   style="stop-color:#CCE0F4"
   id="stop394" />
					<stop
   offset="7.748766e-02"
   style="stop-color:#C5DDF3"
   id="stop396" />
					<stop
   offset="0.1918"
   style="stop-color:#B1D5EF"
   id="stop398" />
					<stop
   offset="0.329"
   style="stop-color:#90C9EA"
   id="stop400" />
					<stop
   offset="0.4838"
   style="stop-color:#63B7E2"
   id="stop402" />
					<stop
   offset="0.6515"
   style="stop-color:#2AA1D9"
   id="stop404" />
					<stop
   offset="0.6829"
   style="stop-color:#1E9CD7"
   id="stop406" />
					<stop
   offset="0.8652"
   style="stop-color:#0075BE"
   id="stop408" />
					<stop
   offset="0.9944"
   style="stop-color:#005B97"
   id="stop410" />
				</linearGradient>
				<polygon
   class="st21"
   points="110,757.5 145.1,722.4 145.1,757.5     "
   id="polygon412" />
			</g>
			<text
   transform="matrix(1 0 0 1 111.3848 749.484)"
   class="st0 st13 st22"
   id="text414">P</text>

			<text
   transform="matrix(1 0 0 1 118.3071 756.4059)"
   class="st0 st13 st22"
   id="text416">V</text>

			<g
   id="g418">
				<g
   id="g420">
					<g
   id="g422">
						<g
   id="g424">
							<polygon
   class="st0"
   points="113,727.9 115.2,735.3 120.3,730.4        "
   id="polygon426" />
						</g>
					</g>
				</g>
				<g
   id="g428">
					<g
   id="g430">
						<g
   id="g432">
							
								<rect
   x="118.6"
   y="731.8"
   transform="matrix(0.7268 -0.6868 0.6868 0.7268 -472.2414 283.4423)"
   class="st0"
   width="3.3"
   height="7.2"
   id="rect434" />
						</g>
					</g>
				</g>
			</g>
			<g
   id="g436">
				<g
   id="g438">
					<g
   id="g440">
						<g
   id="g442">
							<polygon
   class="st0"
   points="139.2,754.9 131,751.7 136.4,746.5        "
   id="polygon444" />
						</g>
					</g>
				</g>
				<g
   id="g446">
					<g
   id="g448">
						<g
   id="g450">
							
								<rect
   x="129.2"
   y="741.9"
   transform="matrix(0.7268 -0.6868 0.6868 0.7268 -476.6754 293.7574)"
   class="st0"
   width="3.5"
   height="8.4"
   id="rect452" />
						</g>
					</g>
				</g>
			</g>
		</g>
	</g>
	<text
   transform="matrix(1 0 0 1 91 780)"
   class="st7 st15"
   id="text454">NSX Edge</text>

</g>
<g
   id="g459">
			<rect
   x="223"
   y="722"
   class="st23"
   width="42"
   height="37"
   id="rect461"
   style="fill:#2b6782" />
			<rect
   x="264.10001"
   y="722"
   class="st24"
   width="91.900002"
   height="37"
   id="rect463"
   style="fill:#1e4c66" />
		</g><text
   class="st0 st7 st25"
   id="text465"
   style="font-size:16.53190041px;font-family:MyriadPro-Regular;fill:#ffffff"
   x="233.2979"
   y="746.4043">MV</text>
<text
   class="st0 st7 st25"
   id="text467"
   style="font-size:16.53190041px;font-family:MyriadPro-Regular;fill:#ffffff"
   x="265.93649"
   y="746.4043">Cloud HCX</text>
<text
   style="font-size:18px;font-family:MyriadPro-Regular"
   id="text469"
   class="st7 st15"
   x="229"
   y="780">HCX Manager</text>

<g
   id="g474">
			<rect
   x="146"
   y="360.79999"
   class="st23"
   width="52.099998"
   height="47"
   id="rect476"
   style="fill:#2b6782" />
			<rect
   x="197"
   y="360.79999"
   class="st24"
   width="114"
   height="47"
   id="rect478"
   style="fill:#1e4c66" />
		</g><text
   class="st0 st7 st8"
   id="text480"
   style="font-size:21px;font-family:MyriadPro-Regular;fill:#ffffff"
   x="156"
   y="391.75">MV</text>
<text
   class="st0 st7 st8"
   id="text482"
   style="font-size:21px;font-family:MyriadPro-Regular;fill:#ffffff"
   x="199"
   y="391.75">Cloud HCX</text>

</svg>
