<?xml version="1.0" encoding="UTF-8" standalone="no"?>
<!-- Generator: Adobe Illustrator 21.0.0, SVG Export Plug-In . SVG Version: 6.00 Build 0)  -->

<svg
   xmlns:dc="http://purl.org/dc/elements/1.1/"
   xmlns:cc="http://creativecommons.org/ns#"
   xmlns:rdf="http://www.w3.org/1999/02/22-rdf-syntax-ns#"
   xmlns:svg="http://www.w3.org/2000/svg"
   xmlns="http://www.w3.org/2000/svg"
   xmlns:sodipodi="http://sodipodi.sourceforge.net/DTD/sodipodi-0.dtd"
   xmlns:inkscape="http://www.inkscape.org/namespaces/inkscape"
   version="1.1"
   id="Layer_1"
   x="0px"
   y="0px"
   viewBox="0 0 602 322"
   style="enable-background:new 0 0 602 322;"
   xml:space="preserve"
   sodipodi:docname="vcscar-skate-language.svg"
   inkscape:version="0.92.3 (2405546, 2018-03-11)"><metadata
   id="metadata95"><rdf:RDF><cc:Work
       rdf:about=""><dc:format>image/svg+xml</dc:format><dc:type
         rdf:resource="http://purl.org/dc/dcmitype/StillImage" /></cc:Work></rdf:RDF></metadata><defs
   id="defs93">
	
	
	
	
	
	
	
	
	
	

		
		
	</defs><sodipodi:namedview
   pagecolor="#ffffff"
   bordercolor="#666666"
   borderopacity="1"
   objecttolerance="10"
   gridtolerance="10"
   guidetolerance="10"
   inkscape:pageopacity="0"
   inkscape:pageshadow="2"
   inkscape:window-width="1440"
   inkscape:window-height="837"
   id="namedview91"
   showgrid="false"
   inkscape:zoom="1.6726247"
   inkscape:cx="575.07339"
   inkscape:cy="202.28846"
   inkscape:window-x="-8"
   inkscape:window-y="293"
   inkscape:window-maximized="1"
   inkscape:current-layer="Layer_1" />
<style
   type="text/css"
   id="style2">
	.st0{fill:none;stroke:#7EA6E0;stroke-width:2;}
	.st1{font-family:'ArialMT';}
	.st2{font-size:10px;}
	.st3{fill:none;stroke:#000000;stroke-miterlimit:10;}
	.st4{stroke:#000000;stroke-miterlimit:10;}
	.st5{stroke:#000000;stroke-width:2;}
	.st6{fill:none;stroke:#000000;stroke-width:2;}
</style>
<path
   style="fill:none;stroke:#7ea6e0;stroke-width:2"
   inkscape:connector-curvature="0"
   id="path4"
   d="m 9,81.5 h 75 c 4.1,0 7.5,3.4 7.5,7.5 v 35 c 0,4.1 -3.4,7.5 -7.5,7.5 H 9 c -4.1,0 -7.5,-3.4 -7.5,-7.5 V 89 c 0,-4.1 3.4,-7.5 7.5,-7.5 z"
   class="st0"
   pointer-events="none" /><g
   id="g8"
   transform="translate(0.5,0.5)">
		<text
   style="font-size:10px;font-family:ArialMT"
   id="text6"
   class="st1 st2"
   transform="translate(16.8696,108.5)">base_combo</text>

	</g><path
   style="fill:none;stroke:#7ea6e0;stroke-width:2"
   inkscape:connector-curvature="0"
   id="path10"
   d="m 189,81.5 h 75 c 4.1,0 7.5,3.4 7.5,7.5 v 35 c 0,4.1 -3.4,7.5 -7.5,7.5 h -75 c -4.1,0 -7.5,-3.4 -7.5,-7.5 V 89 c 0,-4.1 3.4,-7.5 7.5,-7.5 z"
   class="st0"
   pointer-events="none" /><g
   id="g14"
   transform="translate(0.5,0.5)">
		<text
   style="font-size:10px;font-family:ArialMT"
   id="text12"
   class="st1 st2"
   transform="translate(198.2612,108.5)">next_combo</text>

	</g><g
   id="g42"
   pointer-events="none"
   transform="translate(0.5,0.5)">
		<g
   id="g38">
			<g
   id="g24">
				<path
   style="fill:none;stroke:#000000;stroke-miterlimit:10"
   inkscape:connector-curvature="0"
   id="path16"
   d="M 131,116 V 308.7 H 512.9"
   class="st3" />
				<path
   style="stroke:#000000;stroke-miterlimit:10"
   inkscape:connector-curvature="0"
   id="path18"
   d="m 519.9,308.7 -7,3.5 v -7 z"
   class="st4" />
				<path
   style="fill:none;stroke:#000000;stroke-miterlimit:10"
   inkscape:connector-curvature="0"
   id="path20"
   d="m 131,116 v 60 c 0,6.7 3.3,10 10,10 h 127.2"
   class="st3" />
				<path
   style="stroke:#000000;stroke-miterlimit:10"
   inkscape:connector-curvature="0"
   id="path22"
   d="m 275.2,186 -7,3.5 v -7 z"
   class="st4" />
			</g>
			<circle
   style="stroke:#000000;stroke-width:2"
   id="circle26"
   r="0"
   cy="106"
   cx="131"
   class="st5" />
			<g
   id="g36">
				<path
   style="fill:none;stroke:#000000;stroke-miterlimit:10"
   inkscape:connector-curvature="0"
   id="path28"
   d="m 321,211.3 v 72 h 191.9"
   class="st3" />
				<path
   style="stroke:#000000;stroke-miterlimit:10"
   inkscape:connector-curvature="0"
   id="path30"
   d="m 519.9,283.3 -7,3.5 v -7 z"
   class="st4" />
				<path
   style="fill:none;stroke:#000000;stroke-miterlimit:10"
   inkscape:connector-curvature="0"
   id="path32"
   d="M 331,106 H 561 V 263.2"
   class="st3" />
				<path
   style="stroke:#000000;stroke-miterlimit:10"
   inkscape:connector-curvature="0"
   id="path34"
   d="m 561,270.2 -3.5,-7 h 7 z"
   class="st4" />
			</g>
		</g>
		<path
   style="fill:none;stroke:#7ea6e0;stroke-width:2"
   inkscape:connector-curvature="0"
   id="path40"
   d="m 283.5,161 h 75 c 4.1,0 7.5,3.4 7.5,7.5 v 35 c 0,4.1 -3.4,7.5 -7.5,7.5 h -75 c -4.1,0 -7.5,-3.4 -7.5,-7.5 v -35 c 0,-4.1 3.4,-7.5 7.5,-7.5 z"
   class="st0" />
	</g><g
   id="g46"
   transform="translate(0.5,0.5)">
		<text
   style="font-size:10px;font-family:ArialMT"
   id="text44"
   class="st1 st2"
   transform="translate(286.5864,188.5)">landing_combo</text>

	</g><rect
   style="fill:none;stroke:#000000;stroke-width:2"
   id="rect48"
   height="50"
   width="80"
   class="st6"
   pointer-events="none"
   y="271.5"
   x="521.5" /><text
   class="st1 st2"
   id="text52"
   x="561.83051"
   y="295.10168"
   style="font-style:normal;font-variant:normal;font-weight:normal;font-stretch:normal;font-size:10px;font-family:ArialMT;-inkscape-font-specification:'ArialMT, Normal';font-variant-ligatures:normal;font-variant-caps:normal;font-variant-numeric:normal;font-feature-settings:normal;text-align:center;writing-mode:lr-tb;text-anchor:middle"><tspan
     sodipodi:role="line"
     id="tspan143"
     x="561.83051"
     y="295.10168">TRICK</tspan><tspan
     sodipodi:role="line"
     id="tspan145"
     x="561.83051"
     y="307.60168">TERMINE</tspan></text>
<g
   id="g80"
   pointer-events="none"
   transform="translate(0.5,0.5)">
		<path
   style="fill:none;stroke:#000000;stroke-miterlimit:10"
   inkscape:connector-curvature="0"
   id="path56"
   d="m 91,106 h 30"
   class="st3" />
		<path
   style="fill:none;stroke:#000000;stroke-miterlimit:10"
   inkscape:connector-curvature="0"
   id="path58"
   d="M 140.9,105.9 181,106"
   class="st3" />
		<circle
   style="stroke:#000000;stroke-width:2"
   id="circle60"
   r="0"
   cy="106"
   cx="321"
   class="st5" />
		<g
   id="g76">
			<path
   style="fill:none;stroke:#000000;stroke-miterlimit:10"
   inkscape:connector-curvature="0"
   id="path62"
   d="m 270.9,105.4 h 40"
   class="st3" />
			<path
   style="fill:none;stroke:#000000;stroke-miterlimit:10"
   inkscape:connector-curvature="0"
   id="path64"
   d="M 321,96 V 71 c 0,-6.7 -3.3,-10 -10,-10 h -79 c -6.7,0 -10,1.8 -10.1,5.4 l -0.1,5.4"
   class="st3" />
			<path
   style="stroke:#000000;stroke-miterlimit:10"
   inkscape:connector-curvature="0"
   id="path66"
   d="m 221.7,78.9 -3.4,-7.1 7,0.1 z"
   class="st4" />
			<path
   style="fill:none;stroke:#000000;stroke-miterlimit:10"
   inkscape:connector-curvature="0"
   id="path68"
   d="M 321,153.2 V 116"
   class="st3" />
			<path
   style="stroke:#000000;stroke-miterlimit:10"
   inkscape:connector-curvature="0"
   id="path70"
   d="m 321,160.2 -3.5,-7 h 7 z"
   class="st4" />
			<path
   style="fill:none;stroke:#000000;stroke-miterlimit:10"
   inkscape:connector-curvature="0"
   id="path72"
   d="M 46.3,51.3 V 73.2"
   class="st3" />
			<path
   style="stroke:#000000;stroke-miterlimit:10"
   inkscape:connector-curvature="0"
   id="path74"
   d="m 46.3,80.2 -3.5,-7 h 7 z"
   class="st4" />
		</g>
		<rect
   style="fill:none;stroke:#000000;stroke-width:2"
   id="rect78"
   height="50"
   width="70"
   class="st6"
   y="1"
   x="11" />
	</g><g
   id="g86"
   transform="translate(0.5,0.5)">
		<text
   style="font-size:10px;font-family:ArialMT"
   id="text82"
   class="st1 st2"
   transform="translate(30.5,19.5)">DEBUT</text>

		<text
   style="font-size:10px;font-family:ArialMT"
   id="text84"
   class="st1 st2"
   transform="translate(29.5723,31.5)">TRICK</text>

	</g>
</svg>
