<svg xmlns="http://www.w3.org/2000/svg" viewBox="0 0 481.5 246"><defs><style>.cls-1{fill:none;stroke:#000;stroke-width:0.75px;}.cls-1,.cls-4{stroke-miterlimit:10;}.cls-2,.cls-4{fill:#fff;}.cls-3{font-size:12px;}.cls-3,.cls-5{font-family:IBMPlexSans, IBM Plex Sans;}.cls-4{stroke:#29abe2;}.cls-5{font-size:14px;}.cls-6{letter-spacing:-0.05em;}.cls-7{letter-spacing:-0.06em;}.cls-8{letter-spacing:-0.01em;}.cls-9{letter-spacing:-0.01em;}.cls-10{letter-spacing:0em;}.cls-11{letter-spacing:0.01em;}.cls-12{letter-spacing:0.05em;}.cls-13{letter-spacing:-0.06em;}</style></defs><title>vcscar-skate-language</title><g id="line_from_base_to_trick_complete" data-name="line from base to trick complete"><line class="cls-1" x1="98" y1="87.5" x2="443" y2="87.5"/><line class="cls-1" x1="443" y1="87.5" x2="443" y2="198.12"/><polygon points="439.26 197.02 443 203.5 446.74 197.02 439.26 197.02"/></g><g id="trick_complete" data-name="trick complete"><rect class="cls-2" x="407" y="203.5" width="74" height="42"/><path d="M491,208v41H418V208h73m1-1H417v43h75V207Z" transform="translate(-10.5 -4)"/><text x="-10.5" y="-4"></text><text class="cls-3" transform="translate(426.3 221)">TRICK<tspan x="-8.58" y="14.4">TERMINE</tspan></text></g><g id="left_black_dot" data-name="left black dot"><circle cx="129" cy="88.5" r="8.5"/></g><g id="right_black_dot" data-name="right black dot"><circle cx="290" cy="88.5" r="8.5"/></g><g id="line_from_trick_start_to_base" data-name="line from trick start to base"><line class="cls-1" x1="44.5" y1="42" x2="44.5" y2="65.62"/><polygon points="40.76 64.52 44.5 71 48.24 64.52 40.76 64.52"/></g><g id="line_from_left_black_dot_to_trick_complete" data-name="line from left black dot to trick complete"><line class="cls-1" x1="400.12" y1="232.5" x2="129" y2="232.5"/><polygon points="399.02 228.76 405.5 232.5 399.02 236.24 399.02 228.76"/><line class="cls-1" x1="129" y1="94.5" x2="129" y2="232.5"/></g><g id="left_line_to_landing" data-name="left line to landing"><line class="cls-1" x1="129" y1="152.5" x2="227.62" y2="152.5"/><polygon points="226.52 156.24 233 152.5 226.52 148.76 226.52 156.24"/></g><g id="top_line_to_landing" data-name="top line to landing"><line class="cls-1" x1="290" y1="92.5" x2="290" y2="129.12"/><polygon points="286.26 128.02 290 134.5 293.74 128.02 286.26 128.02"/></g><g id="line_from_landing_to_complete" data-name="line from landing to complete"><line class="cls-1" x1="400.62" y1="217.5" x2="290" y2="217.5"/><polygon points="399.52 213.76 406 217.5 399.52 221.24 399.52 213.76"/><line class="cls-1" x1="290" y1="167.5" x2="290" y2="217.5"/></g><g id="Layer_16" data-name="Layer 16"><line class="cls-1" x1="290" y1="82.5" x2="290" y2="46.5"/><line class="cls-1" x1="290" y1="46.5" x2="206" y2="46.5"/><line class="cls-1" x1="206" y1="46.5" x2="206" y2="65.12"/><polygon points="202.26 64.02 206 70.5 209.74 64.02 202.26 64.02"/></g><g id="base_combo" data-name="base combo"><rect class="cls-4" x="0.5" y="71" width="98" height="32.5" rx="12" ry="12"/><text class="cls-5" transform="translate(13.83 92)">bas<tspan class="cls-6" x="22.41" y="0">e</tspan><tspan class="cls-7" x="29.4" y="0">_</tspan><tspan class="cls-8" x="36.47" y="0">c</tspan><tspan x="43.43" y="0">ombo</tspan></text></g><g id="next_combo" data-name="next combo"><rect class="cls-4" x="158.5" y="71" width="98" height="32.5" rx="12" ry="12"/><text class="cls-5" transform="translate(173.17 92)">n<tspan class="cls-9" x="7.95" y="0">e</tspan><tspan class="cls-10" x="15.47" y="0">x</tspan><tspan class="cls-11" x="22.57" y="0">t</tspan><tspan class="cls-7" x="27.62" y="0">_</tspan><tspan class="cls-8" x="34.69" y="0">c</tspan><tspan x="41.65" y="0">ombo</tspan></text></g><g id="landing_combo" data-name="landing combo"><rect class="cls-4" x="234.5" y="135" width="111.5" height="32.5" rx="12" ry="12"/><text class="cls-5" transform="translate(246.17 155.67)">landin<tspan class="cls-12" x="38.81" y="0">g</tspan><tspan class="cls-13" x="46.9" y="0">_</tspan><tspan class="cls-8" x="53.97" y="0">c</tspan><tspan x="60.93" y="0">ombo</tspan></text></g><g id="trick_start" data-name="trick start"><rect class="cls-2" x="12" y="0.5" width="74" height="41"/><path d="M96,5V45H23V5H96m1-1H22V46H97V4Z" transform="translate(-10.5 -4)"/><text class="cls-3" transform="translate(26.22 17.67)">DEBUT<tspan x="-7.77" y="14.4">DU TRICK</tspan></text></g></svg>
