<?xml version="1.0" encoding="utf-8"?>
<!-- Generator: Adobe Illustrator 16.0.0, SVG Export Plug-In . SVG Version: 6.00 Build 0)  -->
<!DOCTYPE svg PUBLIC "-//W3C//DTD SVG 1.1//EN" "http://www.w3.org/Graphics/SVG/1.1/DTD/svg11.dtd">
<svg version="1.1" id="Layer_1" xmlns="http://www.w3.org/2000/svg" xmlns:xlink="http://www.w3.org/1999/xlink" x="0px" y="0px"
	 width="725px" height="315px" viewBox="0 0 725 315" style="enable-background:new 0 0 725 315;" xml:space="preserve">
<style type="text/css">
<![CDATA[
	.st0{fill:#4B84C4;}
	.st1{font-size:31.4167;}
	.st2{fill:#1AA78D;}
	.st3{fill:#F59C57;}
	.st4{font-size:18.4264;}
	.st5{fill:#959595;}
	.st6{font-size:15.7941;}
	.st7{fill:#FFFFFF;}
	.st8{font-size:22.7167;}
	.st9{font-size:22.8137;}
	.st10{font-family:'Roboto-Light';}
	.st11{font-size:12.2843;}
	.st12{font-size:19;}
	.st13{font-size:23;}
	.st14{font-size:24;}
]]>
</style>
<rect x="198.5" y="-2.2" class="st0" width="526.5" height="89.1"/>
<rect x="-2.7" y="194.1" class="st5" width="727.7" height="120.8"/>
<rect x="198.5" y="95.7" class="st2" width="170.7" height="89.9"/>
<rect x="375.4" y="96.7" class="st2" width="169.8" height="87.7"/>
<rect x="551.9" y="96.7" class="st2" width="173.1" height="87.7"/>
<g id="Layer_2">
	<rect x="-2.7" y="-2.2" class="st3" width="194.7" height="186.7"/>
</g>
<g id="Layer_4">
	<text transform="matrix(1 0 0 1 27.1021 35.8408)" class="st7 st10 st8">Servizi comuni</text>
	<text transform="matrix(1 0 0 1 44.418 75.3496)"><tspan x="0" y="0" class="st7 st10 st6">Autenticazione</tspan><tspan x="35.5" y="31.4" class="st7 st10 st6">DNS</tspan><tspan x="36.5" y="62.8" class="st7 st10 st6">NTP</tspan><tspan x="-32.3" y="94.3" class="st7 st10 st6">CA (Certificate Authority)</tspan></text>
</g>
<text transform="matrix(1 0 0 1 343.0679 35.8408)"><tspan x="0" y="0" class="st7 st10 st9">Gestione virtualizzazione</tspan><tspan x="27" y="29.8" class="st7 st10 st4">VMware vCenter Server </tspan></text>
<text transform="matrix(1 0 0 1 205.5889 136.9746)"><tspan x="0" y="0" class="st7 st10 st6">Virtualizzazione calcolo</tspan><tspan x="32.2" y="20.9" class="st7 st10 st11">VMware vSphere </tspan></text>
<text transform="matrix(1 0 0 1 562.7334 145.4336)" class="st7 st10 st6">NetApp  ONTAP  Select</text>
<text transform="matrix(1 0 0 1 395.1963 136.9746)"><tspan x="0" y="0" class="st7 st10 st6">Virtualizzazione rete</tspan><tspan x="33.8" y="20.9" class="st7 st10 st11">VMware NSX</tspan></text>
<text transform="matrix(1 0 0 1 205.522 246.7402)"><tspan x="0" y="0" class="st7 st10 st13">Infrastruttura fisica su IBM</tspan><tspan x="247.8" y="0" class="st7 st10 st1"> </tspan><tspan x="254.4" y="0" class="st7 st10 st14">Cloud</tspan></text>
<text transform="matrix(1 0 0 1 208.584 294.1611)" class="st7 st10 st12">Calcolo</text>
<text transform="matrix(1 0 0 1 334.1509 294.1611)" class="st7 st10 st12">Archivio</text>
<text transform="matrix(1 0 0 1 465.167 293.2402)" class="st7 st10 st12">Rete</text>
</svg>
