<?xml version="1.0" encoding="utf-8"?>
<!-- Generator: Adobe Illustrator 21.0.0, SVG Export Plug-In . SVG Version: 6.00 Build 0)  -->
<svg version="1.1" xmlns="http://www.w3.org/2000/svg" xmlns:xlink="http://www.w3.org/1999/xlink" x="0px" y="0px"
	 viewBox="0 0 840 455" style="enable-background:new 0 0 840 455;" xml:space="preserve">
<style type="text/css">
	.st0{fill:#E4EFCA;}
	.st1{fill:none;stroke:#000000;stroke-width:0.75;stroke-miterlimit:10;}
	.st2{fill:none;stroke:#000000;stroke-width:0.75;stroke-miterlimit:10;stroke-dasharray:4.9778,4.9778;}
	.st3{fill:none;stroke:#000000;stroke-width:0.75;stroke-miterlimit:10;stroke-dasharray:4.9182,4.9182;}
	.st4{fill:none;stroke:#000000;stroke-width:0.75;stroke-miterlimit:10;stroke-dasharray:4.9864,4.9864;}
	.st5{fill:none;stroke:#000000;stroke-width:0.75;stroke-miterlimit:10;stroke-dasharray:5.0308,5.0308;}
	.st6{fill:#29ABE2;}
	.st7{fill:#FFFFFF;}
	.st8{fill:#FFFFFF;stroke:#8CC63F;stroke-width:8;stroke-miterlimit:10;}
	.st9{fill:#F9C73D;}
	.st10{font-family:'MyriadPro-Regular';}
	.st11{font-size:18px;}
	.st12{fill:#8CC63F;stroke:#009245;stroke-width:0.25;stroke-miterlimit:10;}
	.st13{fill:#29ABE2;stroke:#0071BC;stroke-width:0.25;stroke-miterlimit:10;}
	.st14{fill:#F9C73D;stroke:#000000;stroke-width:0.75;stroke-miterlimit:10;}
	.st15{fill:#FFFFFF;stroke:#000000;stroke-width:0.75;stroke-miterlimit:10;}
	.st16{font-size:21px;}
	.st17{fill:#F7931E;stroke:#000000;stroke-width:0.75;stroke-miterlimit:10;}
	.st18{fill:#FFFFFF;stroke:#4D4D4D;stroke-width:2;stroke-miterlimit:10;}
</style>
<g id="inner_box">
	<g>
		<rect x="75.5" y="91" class="st0" width="677" height="275.5"/>
		<g>
			<polyline class="st1" points="752.5,364 752.5,366.5 750,366.5 			"/>
			<line class="st2" x1="745" y1="366.5" x2="80.5" y2="366.5"/>
			<polyline class="st1" points="78,366.5 75.5,366.5 75.5,364 			"/>
			<line class="st3" x1="75.5" y1="359.1" x2="75.5" y2="96"/>
			<polyline class="st1" points="75.5,93.5 75.5,91 78,91 			"/>
			<line class="st2" x1="83" y1="91" x2="747.5" y2="91"/>
			<polyline class="st1" points="750,91 752.5,91 752.5,93.5 			"/>
			<line class="st3" x1="752.5" y1="98.4" x2="752.5" y2="361.5"/>
		</g>
	</g>
</g>
<g id="cloud_gateway">
</g>
<g id="outter_box">
	<g>
		<g>
			<polyline class="st1" points="783.5,388 783.5,390.5 781,390.5 			"/>
			<line class="st4" x1="776" y1="390.5" x2="50.5" y2="390.5"/>
			<polyline class="st1" points="48,390.5 45.5,390.5 45.5,388 			"/>
			<line class="st5" x1="45.5" y1="383" x2="45.5" y2="63.5"/>
			<polyline class="st1" points="45.5,61 45.5,58.5 48,58.5 			"/>
			<line class="st4" x1="53" y1="58.5" x2="778.5" y2="58.5"/>
			<polyline class="st1" points="781,58.5 783.5,58.5 783.5,61 			"/>
			<line class="st5" x1="783.5" y1="66" x2="783.5" y2="385.5"/>
		</g>
	</g>
</g>
<g id="lines">
	<g>
		<g>
			<path class="st6" d="M354,173.5h-27c-6.6,0-12-5.4-12-12v-22.3c0-6.6,5.4-12,12-12h27c6.6,0,12,5.4,12,12v22.3
				C366,168.1,360.6,173.5,354,173.5z"/>
			<g>
				<g>
					<path class="st7" d="M345.9,148h-9.8c-2.2,0-4.1-1.8-4.1-4.1v-5.1c0-2.2,1.8-4.1,4.1-4.1h9.8c2.2,0,4.1,1.8,4.1,4.1v5.1
						C349.9,146.1,348.1,148,345.9,148z"/>
					<path class="st6" d="M344.1,146.1h-6.3c-1.1,0-2.1-0.9-2.1-2.1v-3.5c0-1.1,0.9-2.1,2.1-2.1h6.3c1.1,0,2.1,0.9,2.1,2.1v3.5
						C346.2,145.2,345.2,146.1,344.1,146.1z"/>
					<path class="st7" d="M351.5,165.9h-21.2c-2.2,0-4.1-1.8-4.1-4.1v-12.7c0-2.2,1.8-4.1,4.1-4.1h21.2c2.2,0,4.1,1.8,4.1,4.1v12.7
						C355.6,164.1,353.8,165.9,351.5,165.9z"/>
				</g>
				<g>
					<ellipse class="st6" cx="341.4" cy="153.2" rx="3.8" ry="3.3"/>
					<path class="st6" d="M341,163.1L341,163.1c-0.8,0-1.4-0.6-1.4-1.4v-6.6c0-0.8,0.6-1.4,1.4-1.4l0,0c0.8,0,1.4,0.6,1.4,1.4v6.6
						C342.4,162.4,341.8,163.1,341,163.1z"/>
					<path class="st6" d="M343.8,158.4h-1.9c-0.3,0-0.5-0.2-0.5-0.5l0,0c0-0.3,0.2-0.5,0.5-0.5h1.9c0.3,0,0.5,0.2,0.5,0.5l0,0
						C344.3,158.1,344.1,158.4,343.8,158.4z"/>
					<path class="st6" d="M343.8,160.3h-1.9c-0.3,0-0.5-0.2-0.5-0.5l0,0c0-0.3,0.2-0.5,0.5-0.5h1.9c0.3,0,0.5,0.2,0.5,0.5l0,0
						C344.3,160,344.1,160.3,343.8,160.3z"/>
					<path class="st6" d="M343.8,162.1h-1.9c-0.3,0-0.5-0.2-0.5-0.5l0,0c0-0.3,0.2-0.5,0.5-0.5h1.9c0.3,0,0.5,0.2,0.5,0.5l0,0
						C344.3,161.9,344.1,162.1,343.8,162.1z"/>
				</g>
			</g>
		</g>
		<line class="st1" x1="345.5" y1="173.5" x2="345.5" y2="286.5"/>
		<line class="st1" x1="334.5" y1="173.5" x2="334.5" y2="219.5"/>
	</g>
	<line class="st1" x1="426.5" y1="175.5" x2="426.5" y2="219.5"/>
</g>
<g id="bottom_explanation">
	<g>
		<g>
			<path class="st8" d="M90,403.8H79.1c-3.3,0-6,2.7-6,6v4h-4c-3.3,0-6,2.7-6,6v10.2c0,3.3,2.7,6,6,6h10.3c3.3,0,6-2.7,6-6v-2.6H90
				c3.3,0,6-2.7,6-6v-11.6C96,406.5,93.3,403.8,90,403.8z"/>
			<path class="st9" d="M77.8,429.6h-7.3c-0.9,0-1.7-0.8-1.7-1.7v-6.6c0-0.9,0.8-1.7,1.7-1.7h7.3c0.9,0,1.7,0.8,1.7,1.7v6.6
				C79.5,428.8,78.7,429.6,77.8,429.6z"/>
			<path class="st9" d="M87.8,421h-7.3c-0.9,0-1.7-0.8-1.7-1.7V412c0-0.9,0.8-1.7,1.7-1.7h7.3c0.9,0,1.7,0.8,1.7,1.7v7.3
				C89.5,420.3,88.8,421,87.8,421z"/>
		</g>
		<text transform="matrix(1 0 0 1 104 428.1019)" class="st10 st11">vCenter</text>
	</g>
	<g>
		<g>
			<path class="st12" d="M232.3,422.8V415c0-1.9-1.5-3.4-3.2-3.4h-4.2v-10.1h6.9c5.1,0,9.2,4.3,9.2,9.7v15.3c0,5.3-4.1,9.7-9.2,9.7
				h-6.9v-9.8h4.2C230.9,426.3,232.3,424.7,232.3,422.8z"/>
			<path class="st13" d="M227.4,413.6h-4.2v-12.1h-6.5c-4.8,0-8.7,4.3-8.7,9.7v15.3c0,5.3,3.9,9.7,8.7,9.7h6.5v-11.3h4.2
				c1.3,0,2.4-1.2,2.4-2.6v-6C229.7,414.7,228.7,413.6,227.4,413.6z"/>
		</g>
		<text transform="matrix(1 0 0 1 246 424.5165)" class="st10 st11">Servicios de nube híbrida</text>
	</g>
	<g>
		<g>
			<path class="st6" d="M458,436.1h-13c-6.6,0-12-5.4-12-12v-9.6c0-6.6,5.4-12,12-12h13c6.6,0,12,5.4,12,12v9.6
				C470,430.7,464.6,436.1,458,436.1z"/>
			<g>
				<g>
					<path class="st7" d="M454.3,417.6h-4.9c-2.2,0-4.1-1.8-4.1-4.1v-1.5c0-2.2,1.8-4.1,4.1-4.1h4.9c2.2,0,4.1,1.8,4.1,4.1v1.5
						C458.4,415.8,456.5,417.6,454.3,417.6z"/>
					<path class="st6" d="M453.5,416.2h-3.4c-1.1,0-2.1-0.9-2.1-2.1v-1.4c0-1.1,0.9-2.1,2.1-2.1h3.4c1.1,0,2.1,0.9,2.1,2.1v1.4
						C455.6,415.3,454.7,416.2,453.5,416.2z"/>
					<path class="st7" d="M458.4,430.6h-13.1c-2.2,0-4.1-1.8-4.1-4.1v-6.9c0-2.2,1.8-4.1,4.1-4.1h13.1c2.2,0,4.1,1.8,4.1,4.1v6.9
						C462.5,428.8,460.6,430.6,458.4,430.6z"/>
				</g>
				<g>
					<ellipse class="st6" cx="452.2" cy="421.4" rx="2.7" ry="2.4"/>
					<path class="st6" d="M451.8,428.6L451.8,428.6c-0.6,0-1-0.5-1-1v-4.8c0-0.6,0.5-1,1-1l0,0c0.6,0,1,0.5,1,1v4.8
						C452.9,428.1,452.4,428.6,451.8,428.6z"/>
					<path class="st6" d="M453.9,425.1h-1.4c-0.2,0-0.3-0.2-0.3-0.3l0,0c0-0.2,0.2-0.3,0.3-0.3h1.4c0.2,0,0.3,0.2,0.3,0.3l0,0
						C454.2,425,454.1,425.1,453.9,425.1z"/>
					<path class="st6" d="M453.9,426.5h-1.4c-0.2,0-0.3-0.2-0.3-0.3l0,0c0-0.2,0.2-0.3,0.3-0.3h1.4c0.2,0,0.3,0.2,0.3,0.3l0,0
						C454.2,426.4,454.1,426.5,453.9,426.5z"/>
					<path class="st6" d="M453.9,427.9h-1.4c-0.2,0-0.3-0.2-0.3-0.3l0,0c0-0.2,0.2-0.3,0.3-0.3h1.4c0.2,0,0.3,0.2,0.3,0.3l0,0
						C454.2,427.7,454.1,427.9,453.9,427.9z"/>
				</g>
			</g>
		</g>
		<text transform="matrix(1 0 0 1 473.667 425.333)" class="st10 st11">Cloud Gateway</text>
	</g>
	<g>
		<g>
			<path class="st6" d="M636,438.8h-18.8c-6.6,0-12-5.4-12-12V412c0-6.6,5.4-12,12-12H636c6.6,0,12,5.4,12,12v14.8
				C648,433.4,642.6,438.8,636,438.8z"/>
			<g>
				<g>
					<g>
						<g>
							<g>
								<ellipse class="st7" cx="626.5" cy="419.2" rx="11.5" ry="11.1"/>
								<ellipse class="st6" cx="626.5" cy="419.2" rx="5.1" ry="5"/>
							</g>
							<rect x="623.1" y="405.1" class="st7" width="6.2" height="4"/>
							<rect x="623.7" y="428.9" class="st7" width="5.5" height="4.8"/>
						</g>
						<rect x="636.5" y="416.6" class="st7" width="4.8" height="5.5"/>
						<rect x="612" y="416.6" class="st7" width="4.8" height="5.5"/>
					</g>
					
						<rect x="614.6" y="408.1" transform="matrix(0.7526 0.6585 -0.6585 0.7526 423.1431 -304.8222)" class="st7" width="5.2" height="5.2"/>
					
						<rect x="632.2" y="425.5" transform="matrix(0.7526 0.6585 -0.6585 0.7526 439.1818 -312.5995)" class="st7" width="6.8" height="5.2"/>
				</g>
				
					<rect x="633.6" y="408.4" transform="matrix(0.7071 0.7071 -0.7071 0.7071 477.1368 -329.4311)" class="st7" width="5.2" height="5.7"/>
				
					<rect x="615.2" y="425.5" transform="matrix(0.7071 0.7071 -0.7071 0.7071 483.6414 -311.4886)" class="st7" width="5.2" height="5.2"/>
			</g>
		</g>
		<text transform="matrix(1 0 0 1 653 426)" class="st10 st11">Optimizador de WAN</text>
	</g>
</g>
<g id="wan_optimizer">
	<g>
		<path class="st6" d="M442.3,175.8h-30c-6.6,0-12-5.4-12-12v-25c0-6.6,5.4-12,12-12h30c6.6,0,12,5.4,12,12v25
			C454.3,170.4,448.9,175.8,442.3,175.8z"/>
		<g>
			<g>
				<g>
					<g>
						<g>
							<ellipse class="st7" cx="427.1" cy="151.1" rx="14.5" ry="14"/>
							<ellipse class="st6" cx="427.1" cy="151.1" rx="6.5" ry="6.3"/>
						</g>
						<rect x="422.8" y="133.3" class="st7" width="7.8" height="5"/>
						<rect x="423.6" y="163.3" class="st7" width="7" height="6"/>
					</g>
					<rect x="439.8" y="147.8" class="st7" width="6" height="7"/>
					<rect x="408.8" y="147.8" class="st7" width="6" height="7"/>
				</g>
				
					<rect x="412.1" y="137" transform="matrix(0.7526 0.6585 -0.6585 0.7526 195.1428 -238.8006)" class="st7" width="6.6" height="6.6"/>
				
					<rect x="434.2" y="159" transform="matrix(0.7526 0.6585 -0.6585 0.7526 215.4081 -248.6248)" class="st7" width="8.6" height="6.6"/>
			</g>
			
				<rect x="436.1" y="137.4" transform="matrix(0.7071 0.7071 -0.7071 0.7071 228.3931 -269.3897)" class="st7" width="6.5" height="7.2"/>
			
				<rect x="412.9" y="159" transform="matrix(0.7071 0.7071 -0.7071 0.7071 236.6093 -246.7255)" class="st7" width="6.5" height="6.5"/>
		</g>
	</g>
</g>
<g id="hybrid_cloud_services">
	<g>
		<line class="st1" x1="258.5" y1="171.5" x2="258.5" y2="218.5"/>
		<g>
			<path class="st12" d="M267.7,154.3v-10.2c0-2.4-1.9-4.4-4.2-4.4H258v-13.1h9c6.6,0,12,5.7,12,12.6V159c0,6.9-5.4,12.6-12,12.6h-9
				v-12.8h5.5C265.8,158.8,267.7,156.8,267.7,154.3z"/>
			<path class="st13" d="M261.2,142.2h-5.4v-15.7h-8.5c-6.2,0-11.3,5.7-11.3,12.6V159c0,6.9,5.1,12.6,11.3,12.6h8.5v-14.7h5.4
				c1.7,0,3.1-1.5,3.1-3.4v-7.9C264.3,143.8,262.9,142.2,261.2,142.2z"/>
		</g>
	</g>
</g>
<g id="mngt_network">
	<g>
		<path class="st14" d="M700,243.5c0-12.7-6.7-23-15.1-23.5v0H139.1v0c-8.4,0.5-15.1,10.8-15.1,23.5s6.7,23,15.1,23.5v0h545.9v0
			C693.3,266.5,700,256.2,700,243.5z"/>
		<ellipse class="st15" cx="683.7" cy="244" rx="10.7" ry="19.5"/>
	</g>
	<text transform="matrix(1 0 0 1 312 251)" class="st10 st16">Red de gestión</text>
</g>
<g id="vmotion_network">
	<g>
		<path class="st17" d="M701,310.5c0-12.7-6.7-23-15.1-23.5v0H140.1v0c-8.4,0.5-15.1,10.8-15.1,23.5s6.7,23,15.1,23.5v0h545.9v0
			C694.3,333.5,701,323.2,701,310.5z"/>
		<ellipse class="st15" cx="684.7" cy="311" rx="10.7" ry="19.5"/>
	</g>
	<text transform="matrix(1 0 0 1 333 319)" class="st10 st16">Red de vMotion</text>
</g>
<g id="vcenter">
	<g>
		<line class="st1" x1="170.5" y1="174.5" x2="170.5" y2="218.5"/>
		<g>
			<path class="st8" d="M193.6,125h-15.2c-4.6,0-8.4,3.8-8.4,8.4v5.6h-5.6c-4.6,0-8.4,3.8-8.4,8.4v14.2c0,4.6,3.8,8.4,8.4,8.4h14.3
				c4.6,0,8.4-3.8,8.4-8.4V158h6.4c4.6,0,8.4-3.8,8.4-8.4v-16.2C202,128.8,198.2,125,193.6,125z"/>
			<path class="st9" d="M177.3,160.9h-11.6c-0.9,0-1.7-0.8-1.7-1.7v-10.5c0-0.9,0.8-1.7,1.7-1.7h11.6c0.9,0,1.7,0.8,1.7,1.7v10.5
				C179,160.2,178.2,160.9,177.3,160.9z"/>
			<path class="st9" d="M191.3,149h-11.6c-0.9,0-1.7-0.8-1.7-1.7v-11.6c0-0.9,0.8-1.7,1.7-1.7h11.6c0.9,0,1.7,0.8,1.7,1.7v11.6
				C193,148.2,192.2,149,191.3,149z"/>
		</g>
	</g>
</g>
<g id="Layer_2">
	<g>
		<path class="st18" d="M139.6,32.9c-6.6,0-12.6,1.5-17.5,4.1c-1.8-15.2-14.1-27-29.1-27c-15.4,0-28,12.5-29.2,28.3
			c-1.3-0.5-2.7-0.8-4.2-0.8c-7.8,0-14.2,8.2-14.2,18.3c0,10.1,6.3,18.3,14.2,18.3c1.7,0,3.4-0.4,4.9-1.1h65.5
			c3,0.7,6.2,1.1,9.6,1.1c16.2,0,29.4-9.2,29.4-20.6C169,42.1,155.9,32.9,139.6,32.9z"/>
		<text transform="matrix(1 0 0 1 59 59.0682)" class="st10 st11"><tspan x="-10">Centro de datos</tspan></text>
	</g>
</g>
</svg>
