<?xml version="1.0" encoding="utf-8"?>
<!-- Generator: Adobe Illustrator 22.0.1, SVG Export Plug-In . SVG Version: 6.00 Build 0)  -->
<svg version="1.1" id="Layer_1" xmlns="http://www.w3.org/2000/svg" xmlns:xlink="http://www.w3.org/1999/xlink" x="0px" y="0px"
	 viewBox="0 0 725 315" style="enable-background:new 0 0 725 315;" xml:space="preserve">
<style type="text/css">
	.st0{fill:#4B84C4;}
	.st1{fill:#959595;}
	.st2{fill:#1AA78D;}
	.st3{fill:#F59C57;}
	.st4{fill:#FFFFFF;}
	.st5{font-family:'Roboto-Light';}
	.st6{font-size:22.7167px;}
	.st7{font-size:15.7941px;}
	.st8{font-size:22.8137px;}
	.st9{font-size:18.4264px;}
	.st10{font-size:16px;}
	.st11{font-size:14px;}
	.st12{font-size:23px;}
	.st13{font-size:31.4167px;}
	.st14{font-size:24px;}
	.st15{font-size:19px;}
</style>
<rect x="198.5" y="0.8" class="st0" width="526.5" height="89.1"/>
<rect x="-0.3" y="204.9" class="st1" width="725.3" height="110.1"/>
<rect x="198.5" y="101.6" class="st2" width="170.7" height="89.9"/>
<rect x="375.4" y="103.7" class="st2" width="169.8" height="87.7"/>
<rect x="551.9" y="103.7" class="st2" width="173.1" height="87.7"/>
<g id="Layer_2">
	<rect x="0.3" y="0.9" class="st3" width="186.9" height="190.5"/>
</g>
<g id="Layer_4">
	<text transform="matrix(1 0 0 1 5.0314 35.8409)" class="st4 st5 st6">Services communs</text>
	<text transform="matrix(1 0 0 1 38.6276 75.3497)"><tspan x="0" y="0" class="st4 st5 st7">Authentification</tspan><tspan x="39.3" y="31.4" class="st4 st5 st7">DNS</tspan><tspan x="40.3" y="62.8" class="st4 st5 st7">NTP</tspan><tspan x="-24.4" y="94.3" class="st4 st5 st7">Autorité de certification</tspan></text>
</g>
<text transform="matrix(1 0 0 1 335.6769 38.8409)"><tspan x="0" y="0" class="st4 st5 st8">Gestion de la virtualisation</tspan><tspan x="36.4" y="29.8" class="st4 st5 st9">VMware vCenter Server</tspan></text>
<text transform="matrix(1 0 0 1 206.8121 139.9747)"><tspan x="0" y="0" class="st4 st5 st10">Virtualisation du calcul</tspan><tspan x="26.2" y="20.9" class="st4 st5 st11">VMware vSphere</tspan></text>
<text transform="matrix(1 0 0 1 561.7472 141.4337)" class="st4 st5 st10">NetApp  ONTAP  Select</text>
<text transform="matrix(1 0 0 1 381.3927 140.9747)"><tspan x="0" y="0" class="st4 st5 st10">Virtualisation du réseau</tspan><tspan x="38" y="20.9" class="st4 st5 st11">VMware NSX</tspan><tspan x="112.8" y="18.3" class="st4 st5 st11">  </tspan></text>
<text transform="matrix(1 0 0 1 179.9923 246.7403)"><tspan x="0" y="0" class="st4 st5 st12">Infrastructure physique sur IBM</tspan><tspan x="298.8" y="0" class="st4 st5 st13"> </tspan><tspan x="305.5" y="0" class="st4 st5 st14">Cloud</tspan></text>
<text transform="matrix(1 0 0 1 213.7806 294.1616)" class="st4 st5 st15">Calcul</text>
<text transform="matrix(1 0 0 1 330.4267 294.1616)" class="st4 st5 st15">Stockage</text>
<text transform="matrix(1 0 0 1 454.7365 293.2401)" class="st4 st5 st15">Réseau</text>
</svg>
