<?xml version="1.0" encoding="utf-8"?>
<!-- Generator: Adobe Illustrator 19.2.1, SVG Export Plug-In . SVG Version: 6.00 Build 0)  -->
<svg version="1.1" id="Layer_1" xmlns="http://www.w3.org/2000/svg" xmlns:xlink="http://www.w3.org/1999/xlink" x="0px" y="0px"
	 viewBox="0 0 500 300" style="enable-background:new 0 0 500 300;" xml:space="preserve">
<style type="text/css">
	.st0{fill:#FFFFFF;}
	.st1{fill:#006837;}
	.st2{fill:#FBB03B;}
	.st3{fill:#534741;}
	.st4{fill:#333333;}
	.st5{fill:#B3B3B3;}
	.st6{fill:#808080;}
	.st7{fill:none;stroke:#000000;stroke-miterlimit:10;}
</style>
<g>
	<g>
		<rect x="16.5" y="57.5" class="st0" width="180" height="53"/>
		<path d="M196,58v52H17V58H196 M197,57H16v54h181V57L197,57z"/>
	</g>
	<g>
		<path d="M26,74.6c-0.7,0-1.3-0.1-1.7-0.4s-0.9-0.6-1.2-1.1l0.7-0.6c0.3,0.4,0.6,0.7,1,0.9c0.4,0.2,0.8,0.3,1.3,0.3
			c0.6,0,1.1-0.1,1.4-0.4c0.3-0.3,0.5-0.7,0.5-1.2c0-0.4-0.1-0.7-0.4-0.9c-0.2-0.2-0.6-0.4-1.2-0.5l-0.7-0.2
			c-0.8-0.2-1.4-0.4-1.8-0.8c-0.4-0.4-0.6-0.9-0.6-1.5c0-0.4,0.1-0.7,0.2-1c0.1-0.3,0.3-0.5,0.6-0.7s0.5-0.3,0.9-0.4
			C25.2,66,25.6,66,26,66c0.6,0,1.2,0.1,1.6,0.3c0.5,0.2,0.8,0.6,1.1,1L28,67.9c-0.2-0.3-0.5-0.6-0.8-0.8c-0.3-0.2-0.7-0.3-1.2-0.3
			c-0.5,0-1,0.1-1.3,0.3s-0.5,0.6-0.5,1c0,0.4,0.1,0.7,0.4,0.9c0.3,0.2,0.7,0.4,1.2,0.5l0.7,0.2c0.8,0.2,1.4,0.5,1.8,0.8
			s0.6,0.9,0.6,1.5c0,0.4-0.1,0.7-0.2,1c-0.1,0.3-0.3,0.6-0.6,0.8c-0.2,0.2-0.6,0.4-0.9,0.5C26.8,74.6,26.4,74.6,26,74.6z"/>
		<path d="M30.6,66.1h2.8c0.5,0,1,0.1,1.4,0.3c0.4,0.2,0.8,0.4,1.1,0.8c0.3,0.3,0.5,0.8,0.7,1.3c0.2,0.5,0.2,1.1,0.2,1.8
			s-0.1,1.3-0.2,1.8c-0.2,0.5-0.4,1-0.7,1.3c-0.3,0.3-0.7,0.6-1.1,0.8c-0.4,0.2-0.9,0.3-1.4,0.3h-2.8V66.1z M33.4,73.6
			c0.3,0,0.7-0.1,0.9-0.2c0.3-0.1,0.5-0.3,0.7-0.5c0.2-0.2,0.4-0.5,0.5-0.8c0.1-0.3,0.2-0.7,0.2-1.1v-1.4c0-0.4-0.1-0.8-0.2-1.1
			c-0.1-0.3-0.3-0.6-0.5-0.8c-0.2-0.2-0.5-0.4-0.7-0.5c-0.3-0.1-0.6-0.2-0.9-0.2h-1.8v6.6H33.4z"/>
		<path d="M38.6,66.1h2.8c0.5,0,1,0.1,1.4,0.3c0.4,0.2,0.8,0.4,1.1,0.8c0.3,0.3,0.5,0.8,0.7,1.3c0.2,0.5,0.2,1.1,0.2,1.8
			s-0.1,1.3-0.2,1.8c-0.2,0.5-0.4,1-0.7,1.3c-0.3,0.3-0.7,0.6-1.1,0.8c-0.4,0.2-0.9,0.3-1.4,0.3h-2.8V66.1z M41.4,73.6
			c0.3,0,0.7-0.1,0.9-0.2c0.3-0.1,0.5-0.3,0.7-0.5c0.2-0.2,0.4-0.5,0.5-0.8c0.1-0.3,0.2-0.7,0.2-1.1v-1.4c0-0.4-0.1-0.8-0.2-1.1
			c-0.1-0.3-0.3-0.6-0.5-0.8c-0.2-0.2-0.5-0.4-0.7-0.5c-0.3-0.1-0.6-0.2-0.9-0.2h-1.8v6.6H41.4z"/>
		<path d="M49.6,74.6c-1.1,0-1.9-0.4-2.5-1.1c-0.6-0.7-0.9-1.8-0.9-3.2c0-1.4,0.3-2.5,0.9-3.2c0.6-0.8,1.4-1.1,2.5-1.1
			c0.7,0,1.3,0.2,1.8,0.5s0.8,0.8,1.1,1.4l-0.8,0.5c-0.2-0.4-0.4-0.8-0.8-1c-0.3-0.3-0.8-0.4-1.3-0.4c-0.4,0-0.7,0.1-1,0.2
			c-0.3,0.1-0.5,0.3-0.7,0.6c-0.2,0.3-0.3,0.6-0.4,0.9c-0.1,0.3-0.2,0.7-0.2,1.2V71c0,0.9,0.2,1.5,0.6,2s1,0.7,1.7,0.7
			c0.5,0,1-0.1,1.3-0.4c0.4-0.3,0.6-0.6,0.8-1.1l0.8,0.5c-0.3,0.6-0.6,1.1-1.1,1.4C50.9,74.5,50.3,74.6,49.6,74.6z"/>
		<path d="M53.6,71.4v-1h3.1v1H53.6z"/>
		<path d="M58.7,66.1h2.8c0.5,0,1,0.1,1.4,0.3c0.4,0.2,0.8,0.4,1.1,0.8c0.3,0.3,0.5,0.8,0.7,1.3c0.2,0.5,0.2,1.1,0.2,1.8
			s-0.1,1.3-0.2,1.8c-0.2,0.5-0.4,1-0.7,1.3c-0.3,0.3-0.7,0.6-1.1,0.8c-0.4,0.2-0.9,0.3-1.4,0.3h-2.8V66.1z M61.5,73.6
			c0.3,0,0.7-0.1,0.9-0.2c0.3-0.1,0.5-0.3,0.7-0.5c0.2-0.2,0.4-0.5,0.5-0.8c0.1-0.3,0.2-0.7,0.2-1.1v-1.4c0-0.4-0.1-0.8-0.2-1.1
			c-0.1-0.3-0.3-0.6-0.5-0.8c-0.2-0.2-0.5-0.4-0.7-0.5c-0.3-0.1-0.6-0.2-0.9-0.2h-1.8v6.6H61.5z"/>
		<path d="M66.7,74.5v-8.4h3.3c0.8,0,1.3,0.2,1.7,0.6c0.4,0.4,0.6,1,0.6,1.8s-0.2,1.3-0.6,1.8c-0.4,0.4-1,0.6-1.7,0.6h-2.3v3.6H66.7
			z M67.8,70h2.3c0.4,0,0.7-0.1,0.9-0.3c0.2-0.2,0.3-0.5,0.3-0.9v-0.6c0-0.4-0.1-0.7-0.3-0.9c-0.2-0.2-0.5-0.3-0.9-0.3h-2.3V70z"/>
		<path d="M79.4,73.3L79.4,73.3c-0.1,0.4-0.4,0.7-0.8,1c-0.4,0.3-0.9,0.4-1.6,0.4c-0.5,0-1-0.1-1.4-0.3c-0.4-0.2-0.8-0.5-1.1-0.8
			c-0.3-0.4-0.5-0.8-0.7-1.4c-0.2-0.5-0.3-1.2-0.3-1.9c0-0.7,0.1-1.3,0.3-1.9c0.2-0.5,0.4-1,0.7-1.4c0.3-0.4,0.7-0.6,1.1-0.8
			s0.9-0.3,1.5-0.3c0.8,0,1.4,0.2,1.9,0.5s0.9,0.8,1.2,1.3l-0.8,0.5c-0.2-0.4-0.5-0.8-0.9-1.1c-0.4-0.3-0.8-0.4-1.4-0.4
			c-0.4,0-0.7,0.1-1,0.2s-0.6,0.3-0.8,0.6c-0.2,0.2-0.4,0.5-0.5,0.9c-0.1,0.3-0.2,0.7-0.2,1.1V71c0,0.4,0.1,0.8,0.2,1.1
			s0.3,0.6,0.5,0.9c0.2,0.2,0.5,0.4,0.8,0.6s0.7,0.2,1.1,0.2c0.3,0,0.6,0,0.8-0.1c0.3-0.1,0.5-0.2,0.7-0.3c0.2-0.2,0.4-0.3,0.5-0.6
			c0.1-0.2,0.2-0.5,0.2-0.8v-0.8h-1.8v-0.9h2.8v4.3h-0.9V73.3z"/>
		<path d="M82.2,71.4v-1h3.1v1H82.2z"/>
		<path d="M93.8,67.4L93.8,67.4L93,68.8l-2,3.6l-2-3.6l-0.7-1.4h-0.1v7.1h-1v-8.4h1.3l2.4,4.5h0.1l2.4-4.5h1.3v8.4h-1V67.4z"/>
		<path d="M102.1,75.2c0,0.6-0.3,1.1-0.8,1.4c-0.5,0.3-1.3,0.4-2.3,0.4c-1,0-1.7-0.1-2.1-0.4c-0.4-0.3-0.6-0.6-0.6-1.1
			c0-0.3,0.1-0.6,0.3-0.8c0.2-0.2,0.4-0.3,0.7-0.4v-0.1c-0.4-0.2-0.6-0.5-0.6-0.9c0-0.3,0.1-0.5,0.3-0.7c0.2-0.2,0.5-0.3,0.8-0.4v0
			c-0.4-0.2-0.7-0.4-0.9-0.8c-0.2-0.3-0.3-0.7-0.3-1.1c0-0.3,0.1-0.6,0.2-0.9c0.1-0.3,0.3-0.5,0.5-0.7c0.2-0.2,0.4-0.3,0.7-0.4
			c0.3-0.1,0.6-0.2,1-0.2c0.4,0,0.8,0.1,1.2,0.2v-0.1c0-0.2,0.1-0.4,0.2-0.6c0.1-0.2,0.3-0.2,0.6-0.2h0.9v0.9h-1.2v0.4
			c0.2,0.2,0.4,0.4,0.5,0.7c0.1,0.3,0.2,0.6,0.2,0.9c0,0.3-0.1,0.6-0.2,0.9c-0.1,0.3-0.3,0.5-0.5,0.7c-0.2,0.2-0.5,0.3-0.7,0.4
			c-0.3,0.1-0.6,0.2-1,0.2c-0.2,0-0.4,0-0.6-0.1c-0.2,0.1-0.4,0.1-0.6,0.2c-0.2,0.1-0.3,0.3-0.3,0.5c0,0.2,0.1,0.3,0.3,0.4
			c0.2,0.1,0.4,0.1,0.7,0.1h1.3c0.8,0,1.3,0.1,1.7,0.4C102,74.3,102.1,74.7,102.1,75.2z M101.2,75.3c0-0.2-0.1-0.4-0.3-0.6
			c-0.2-0.1-0.5-0.2-1-0.2h-2.1c-0.4,0.2-0.6,0.5-0.6,0.8c0,0.3,0.1,0.5,0.3,0.7c0.2,0.2,0.5,0.3,1,0.3h0.9c0.5,0,1-0.1,1.2-0.3
			S101.2,75.6,101.2,75.3z M99.1,71.7c0.4,0,0.7-0.1,1-0.3c0.2-0.2,0.4-0.5,0.4-0.9v-0.3c0-0.4-0.1-0.7-0.4-0.9
			c-0.2-0.2-0.6-0.3-1-0.3c-0.4,0-0.7,0.1-1,0.3c-0.2,0.2-0.4,0.5-0.4,0.9v0.3c0,0.4,0.1,0.7,0.4,0.9C98.4,71.6,98.7,71.7,99.1,71.7
			z"/>
		<path d="M103.2,74.5v-6.2h1v1h0c0.1-0.2,0.2-0.3,0.2-0.4c0.1-0.1,0.2-0.3,0.3-0.4c0.1-0.1,0.3-0.2,0.5-0.2
			c0.2-0.1,0.4-0.1,0.6-0.1c0.4,0,0.8,0.1,1.1,0.3c0.3,0.2,0.6,0.5,0.8,1h0c0.1-0.3,0.3-0.6,0.6-0.9c0.3-0.2,0.7-0.4,1.3-0.4
			c0.6,0,1.1,0.2,1.5,0.6s0.5,1,0.5,1.7v4h-1v-3.8c0-0.6-0.1-1-0.3-1.3c-0.2-0.3-0.6-0.4-1-0.4c-0.2,0-0.4,0-0.5,0.1
			c-0.2,0-0.3,0.1-0.5,0.2s-0.2,0.2-0.3,0.4c-0.1,0.1-0.1,0.3-0.1,0.5v4.3h-1v-3.8c0-0.6-0.1-1-0.3-1.3c-0.2-0.3-0.6-0.4-1-0.4
			c-0.2,0-0.4,0-0.6,0.1c-0.2,0-0.3,0.1-0.5,0.2c-0.1,0.1-0.2,0.2-0.3,0.4s-0.1,0.3-0.1,0.5v4.3H103.2z"/>
		<path d="M115.1,74.5c-0.3,0-0.6-0.1-0.8-0.3s-0.3-0.4-0.3-0.7v-4.3h-1v-0.9h0.6c0.2,0,0.4,0,0.4-0.1c0.1-0.1,0.1-0.2,0.1-0.4v-1.2
			h0.9v1.7h1.4v0.9H115v4.5h1.3v0.9H115.1z"/>
		<path d="M25.5,88.9l-2.8-8.4h1.1l1.4,4.2l0.9,3.1h0.1l0.9-3.1l1.4-4.2h1l-2.8,8.4H25.5z"/>
		<path d="M30.9,88.9v-8.4h1V88h3.6v0.9H30.9z"/>
		<path d="M42.4,88.9l-0.8-2.5h-3.4l-0.8,2.5h-1l2.9-8.4h1.3l2.9,8.4H42.4z M39.9,81.5L39.9,81.5l-1.5,4.1h2.9L39.9,81.5z"/>
		<path d="M46.9,83.8l-1-1.9h0v7h-1v-8.4H46l3.1,5.1l1,1.9h0v-7h1v8.4h-1.2L46.9,83.8z"/>
		<path d="M55.8,88.9v-0.8H57v-6.7h-1.2v-0.8h3.4v0.8H58v6.7h1.2v0.8H55.8z"/>
		<path d="M61,80.5h2.8c0.5,0,1,0.1,1.4,0.3c0.4,0.2,0.8,0.4,1.1,0.8c0.3,0.3,0.5,0.8,0.7,1.3c0.2,0.5,0.2,1.1,0.2,1.8
			S67.1,86,67,86.5c-0.2,0.5-0.4,1-0.7,1.3c-0.3,0.3-0.7,0.6-1.1,0.8c-0.4,0.2-0.9,0.3-1.4,0.3H61V80.5z M63.8,88
			c0.3,0,0.7-0.1,0.9-0.2c0.3-0.1,0.5-0.3,0.7-0.5c0.2-0.2,0.4-0.5,0.5-0.8c0.1-0.3,0.2-0.7,0.2-1.1V84c0-0.4-0.1-0.8-0.2-1.1
			c-0.1-0.3-0.3-0.6-0.5-0.8c-0.2-0.2-0.5-0.4-0.7-0.5c-0.3-0.1-0.6-0.2-0.9-0.2H62V88H63.8z"/>
		<path d="M69.7,84.2c-0.3,0-0.4-0.1-0.6-0.2c-0.1-0.1-0.2-0.3-0.2-0.5v-0.2c0-0.2,0.1-0.4,0.2-0.5c0.1-0.1,0.3-0.2,0.6-0.2
			s0.4,0.1,0.6,0.2c0.1,0.1,0.2,0.3,0.2,0.5v0.2c0,0.2-0.1,0.4-0.2,0.5C70.1,84.1,69.9,84.2,69.7,84.2z M69.7,89
			c-0.3,0-0.4-0.1-0.6-0.2c-0.1-0.1-0.2-0.3-0.2-0.5v-0.2c0-0.2,0.1-0.4,0.2-0.5c0.1-0.1,0.3-0.2,0.6-0.2s0.4,0.1,0.6,0.2
			c0.1,0.1,0.2,0.3,0.2,0.5v0.2c0,0.2-0.1,0.4-0.2,0.5C70.1,89,69.9,89,69.7,89z"/>
		<path d="M75.1,85.8v-1h3.1v1H75.1z"/>
		<path d="M79.9,85.8v-1H83v1H79.9z"/>
		<path d="M24.9,103.3l-2.2-6.2h1l1.1,3.1l0.7,2.1h0.1l0.7-2.1l1.1-3.1h0.9l-2.2,6.2H24.9z"/>
		<path d="M29.4,103.3v-6.2h1v1h0c0.1-0.2,0.2-0.3,0.2-0.4c0.1-0.1,0.2-0.3,0.3-0.4c0.1-0.1,0.3-0.2,0.5-0.2
			c0.2-0.1,0.4-0.1,0.6-0.1c0.4,0,0.8,0.1,1.1,0.3c0.3,0.2,0.6,0.5,0.8,1h0c0.1-0.3,0.3-0.6,0.6-0.9c0.3-0.2,0.7-0.4,1.3-0.4
			c0.6,0,1.1,0.2,1.5,0.6s0.5,1,0.5,1.7v4h-1v-3.8c0-0.6-0.1-1-0.3-1.3c-0.2-0.3-0.6-0.4-1-0.4c-0.2,0-0.4,0-0.5,0.1
			c-0.2,0-0.3,0.1-0.5,0.2s-0.2,0.2-0.3,0.4c-0.1,0.1-0.1,0.3-0.1,0.5v4.3h-1v-3.8c0-0.6-0.1-1-0.3-1.3c-0.2-0.3-0.6-0.4-1-0.4
			c-0.2,0-0.4,0-0.6,0.1c-0.2,0-0.3,0.1-0.5,0.2c-0.1,0.1-0.2,0.2-0.3,0.4s-0.1,0.3-0.1,0.5v4.3H29.4z"/>
		<path d="M39.9,94.4h1v5.6h0l0.9-1.1l1.8-1.9h1.2l-2.3,2.4l2.5,3.7h-1.2l-2.1-3.2l-0.9,0.9v2.2h-1V94.4z"/>
		<path d="M48.8,103.4c-1,0-1.7-0.4-2.2-1.1c-0.5-0.8-0.7-1.8-0.7-3.2s0.2-2.4,0.7-3.2c0.5-0.8,1.2-1.1,2.2-1.1s1.7,0.4,2.2,1.1
			c0.5,0.8,0.7,1.8,0.7,3.2s-0.2,2.4-0.7,3.2C50.5,103.1,49.8,103.4,48.8,103.4z M48.8,102.6c0.3,0,0.6-0.1,0.8-0.2
			c0.2-0.1,0.4-0.3,0.6-0.6c0.1-0.2,0.3-0.5,0.3-0.9s0.1-0.7,0.1-1.1v-1.4c0-0.4,0-0.8-0.1-1.1c-0.1-0.3-0.2-0.6-0.3-0.9
			s-0.3-0.4-0.6-0.6c-0.2-0.1-0.5-0.2-0.8-0.2c-0.3,0-0.6,0.1-0.8,0.2c-0.2,0.1-0.4,0.3-0.6,0.6s-0.3,0.5-0.3,0.9
			C47,97.7,47,98,47,98.4v1.4c0,0.4,0,0.8,0.1,1.1s0.2,0.6,0.3,0.9c0.1,0.2,0.3,0.4,0.6,0.6C48.2,102.5,48.5,102.6,48.8,102.6z"/>
		<path d="M54.2,98.6c-0.3,0-0.4-0.1-0.6-0.2c-0.1-0.1-0.2-0.3-0.2-0.5v-0.2c0-0.2,0.1-0.4,0.2-0.5c0.1-0.1,0.3-0.2,0.6-0.2
			s0.4,0.1,0.6,0.2c0.1,0.1,0.2,0.3,0.2,0.5v0.2c0,0.2-0.1,0.4-0.2,0.5C54.6,98.5,54.4,98.6,54.2,98.6z M54.2,103.4
			c-0.3,0-0.4-0.1-0.6-0.2c-0.1-0.1-0.2-0.3-0.2-0.5v-0.2c0-0.2,0.1-0.4,0.2-0.5c0.1-0.1,0.3-0.2,0.6-0.2s0.4,0.1,0.6,0.2
			c0.1,0.1,0.2,0.3,0.2,0.5v0.2c0,0.2-0.1,0.4-0.2,0.5C54.6,103.4,54.4,103.4,54.2,103.4z"/>
		<path d="M64.9,94.8c0.2,0.2,0.3,0.5,0.3,0.8v1.4c0,1.8-0.5,3.2-1.4,4.3c-0.9,1-2,1.5-3.5,1.6c-0.2,0-0.3-0.1-0.4-0.3
			c0-0.2,0.1-0.3,0.3-0.3c1.3-0.1,2.4-0.6,3.1-1.5c0.8-0.9,1.2-2.2,1.2-3.8v-1.4c0-0.2,0-0.3-0.1-0.4C64.3,95.1,64.2,95,64,95h-3.5
			c-0.2,0-0.3-0.1-0.3-0.3c0-0.2,0.1-0.3,0.3-0.3H64C64.3,94.5,64.7,94.6,64.9,94.8z M68.4,103.8c-0.1,0.1-0.1,0.1-0.2,0.1
			c-0.1,0-0.2,0-0.2-0.1c-0.1-0.1-0.1-0.2-0.1-0.3v-9.1c0-0.1,0-0.2,0.1-0.2c0.1,0,0.1-0.1,0.2-0.1c0.1,0,0.2,0,0.2,0.1
			c0.1,0.1,0.1,0.1,0.1,0.2v9.1C68.5,103.6,68.5,103.7,68.4,103.8z"/>
		<path d="M81.5,99.5c0.1,0.1,0.1,0.1,0.1,0.2s0,0.1-0.1,0.2s-0.1,0.1-0.2,0.1h-9.1c-0.2,0-0.3-0.1-0.3-0.3c0-0.2,0.1-0.3,0.4-0.3
			h4.2V98c0-0.1,0-0.2,0.1-0.2c0.1-0.1,0.1-0.1,0.2-0.1c0.1,0,0.2,0,0.2,0.1c0.1,0,0.1,0.1,0.1,0.2v1.4h4.2
			C81.4,99.4,81.5,99.4,81.5,99.5z M73.1,97.7c-0.2-0.2-0.3-0.4-0.3-0.7v-2.3c0-0.1,0-0.2,0.1-0.3c0.1-0.1,0.1-0.1,0.2-0.1
			c0.1,0,0.2,0,0.2,0.1c0.1,0.1,0.1,0.2,0.1,0.3v0.9H80v-0.9c0-0.1,0-0.2,0.1-0.3c0.1-0.1,0.1-0.1,0.2-0.1c0.1,0,0.2,0,0.2,0.1
			c0.1,0.1,0.1,0.1,0.1,0.3v2.3c0,0.3-0.1,0.6-0.3,0.8c-0.2,0.2-0.5,0.3-0.8,0.3h-5.7C73.5,97.9,73.3,97.8,73.1,97.7z M73.5,102.5
			c0,0.2,0,0.4,0.1,0.4c0.1,0.1,0.2,0.1,0.4,0.1h6.5c0.2,0,0.3,0.1,0.3,0.3c0,0.2-0.1,0.3-0.3,0.3h-6.7c-0.3,0-0.6-0.1-0.7-0.3
			c-0.2-0.2-0.3-0.4-0.3-0.7V101c0-0.1,0-0.2,0.1-0.3c0.1-0.1,0.1-0.1,0.2-0.1c0.1,0,0.2,0,0.2,0.1c0.1,0.1,0.1,0.2,0.1,0.3V102.5z
			 M73.5,96.1v0.7c0,0.2,0,0.3,0.1,0.3c0.1,0.1,0.2,0.1,0.4,0.1h5.5c0.2,0,0.3,0,0.4-0.1C80,97.1,80,97,80,96.9v-0.7H73.5z"/>
		<path d="M89.7,94.4c0.1-0.1,0.1-0.1,0.2-0.1s0.2,0,0.2,0.1c0.1,0.1,0.1,0.1,0.1,0.3c0,0.4,0,0.8-0.1,1.3c-0.1,0.5-0.1,0.9-0.2,1.3
			c0.6,0.8,1.2,1.6,1.7,2.6c0.5,0.9,0.9,1.7,1.2,2.5c0,0.1,0.1,0.2,0,0.3c0,0.1-0.1,0.1-0.2,0.2c-0.1,0-0.2,0-0.2,0
			s-0.2-0.1-0.2-0.2c-0.3-0.8-0.7-1.6-1.1-2.4c-0.5-1-1-1.8-1.4-2.3c-0.3,1-0.6,1.8-1,2.6c-0.4,0.8-0.9,1.6-1.5,2.3
			c-0.1,0.1-0.2,0.1-0.2,0.1c-0.1,0-0.2,0-0.2-0.1c-0.1-0.1-0.1-0.1-0.1-0.2c0-0.1,0-0.2,0.1-0.3c0.9-1,1.6-2.3,2.1-3.8
			c0.4-1.3,0.6-2.6,0.6-3.9C89.6,94.6,89.6,94.5,89.7,94.4z M96.3,98.7c0.2,0,0.3,0.1,0.3,0.3c0,0.2-0.1,0.3-0.3,0.3H95v4.3
			c0,0.1,0,0.2-0.1,0.2c-0.1,0.1-0.1,0.1-0.2,0.1s-0.2,0-0.2-0.1c-0.1-0.1-0.1-0.1-0.1-0.2v-9.1c0-0.1,0-0.2,0.1-0.2
			c0.1,0,0.1-0.1,0.2-0.1s0.2,0,0.2,0.1c0.1,0.1,0.1,0.1,0.1,0.2v4.3H96.3z"/>
		<path d="M101.6,94.4c0.1-0.1,0.2-0.1,0.2-0.1c0.1,0,0.2,0,0.2,0.1c0.1,0.1,0.1,0.2,0.1,0.3c0,0.2,0,0.5-0.1,0.8
			c-0.1,0.3-0.2,0.5-0.3,0.8c0.6,0.3,1.1,0.7,1.6,1.1c0.4,0.3,0.9,0.8,1.4,1.3c0.1,0.1,0.1,0.2,0.1,0.3c0,0.1,0,0.2-0.1,0.2
			c-0.1,0.1-0.2,0.1-0.2,0.1c-0.1,0-0.2-0.1-0.3-0.1c-0.4-0.5-0.9-1-1.4-1.4c-0.4-0.3-0.8-0.6-1.4-1c-0.2,0.5-0.5,0.9-0.9,1.3
			c-0.4,0.4-0.8,0.9-1.4,1.3c-0.1,0.1-0.2,0.1-0.3,0.1c-0.1,0-0.2,0-0.2-0.1c-0.1-0.1-0.1-0.1-0.1-0.2c0-0.1,0.1-0.2,0.2-0.2
			c0.9-0.7,1.5-1.4,2-2.3c0.4-0.7,0.6-1.4,0.6-2C101.5,94.5,101.5,94.4,101.6,94.4z M107.1,100.1c0.2,0.2,0.3,0.4,0.3,0.6v0.5
			c0,0.2-0.1,0.4-0.3,0.6s-0.4,0.2-0.7,0.2h-5.6c-0.2,0-0.3,0-0.3,0.1c-0.1,0.1-0.1,0.2-0.1,0.3v0.5c0,0.1,0,0.2,0.1,0.2
			c0.1,0,0.2,0.1,0.3,0.1h6.4c0.1,0,0.2,0,0.3,0.1c0.1,0.1,0.1,0.1,0.1,0.2c0,0.1,0,0.1-0.1,0.2s-0.1,0.1-0.2,0.1h-6.7
			c-0.3,0-0.5-0.1-0.6-0.2c-0.2-0.2-0.3-0.4-0.3-0.6v-0.7c0-0.3,0.1-0.5,0.2-0.6s0.4-0.2,0.6-0.2h5.6c0.1,0,0.2,0,0.3-0.1
			c0.1,0,0.1-0.1,0.1-0.2v-0.3c0-0.1,0-0.2-0.1-0.3s-0.2-0.1-0.4-0.1h-6.1c-0.2,0-0.4-0.1-0.4-0.3c0-0.2,0.1-0.3,0.4-0.3h6.2
			C106.6,99.8,106.9,99.9,107.1,100.1z M107.2,99.1c-0.1,0.1-0.1,0.1-0.2,0.1c-0.1,0-0.2,0-0.2-0.1c-0.1-0.1-0.1-0.1-0.1-0.2v-2h-3
			c-0.1,0-0.2,0-0.3-0.1c-0.1-0.1-0.1-0.1-0.1-0.2s0-0.1,0.1-0.2c0.1-0.1,0.2-0.1,0.3-0.1h3v-1.8c0-0.1,0-0.2,0.1-0.2
			c0.1-0.1,0.1-0.1,0.2-0.1c0.1,0,0.2,0,0.2,0.1c0.1,0.1,0.1,0.1,0.1,0.2v4.4C107.3,99,107.3,99,107.2,99.1z"/>
		<path d="M123.3,100.1c0,0.2-0.1,0.3-0.3,0.3h-4.3v3.1c0,0.1,0,0.2-0.1,0.3c-0.1,0.1-0.1,0.1-0.2,0.1c-0.1,0-0.2,0-0.2-0.1
			c-0.1-0.1-0.1-0.2-0.1-0.3v-3.1h-4.3c-0.2,0-0.3-0.1-0.3-0.3c0-0.2,0.1-0.3,0.3-0.3h9.1C123.2,99.8,123.3,99.9,123.3,100.1z
			 M122.5,94.7c0,0.2-0.1,0.3-0.3,0.3h-3.5v0.4c0,0.7,0.4,1.3,1.1,1.7c0.7,0.5,1.7,0.8,2.7,0.8c0.1,0,0.2,0,0.3,0.1
			c0.1,0.1,0.1,0.1,0.1,0.2s0,0.2-0.1,0.2c-0.1,0.1-0.1,0.1-0.3,0.1c-1-0.1-2-0.3-2.8-0.8c-0.7-0.4-1.2-0.9-1.4-1.4
			c-0.2,0.5-0.7,1-1.4,1.4c-0.8,0.4-1.7,0.7-2.7,0.8c-0.1,0-0.2,0-0.3-0.1c-0.1-0.1-0.1-0.1-0.1-0.2c0-0.1,0-0.2,0.1-0.2
			c0.1-0.1,0.2-0.1,0.3-0.1c1.1-0.1,2-0.3,2.7-0.8c0.7-0.5,1.1-1.1,1.1-1.8V95h-3.4c-0.2,0-0.3-0.1-0.3-0.3c0-0.2,0.1-0.3,0.3-0.3
			h7.6C122.4,94.4,122.5,94.5,122.5,94.7z"/>
		<path d="M130.2,99.8c0.1-0.1,0.1-0.1,0.2-0.1c0.1,0,0.2,0,0.2,0.1c0.1,0.1,0.1,0.1,0.1,0.3v2.4h4.2c0.1,0,0.2,0,0.3,0.1
			c0.1,0.1,0.1,0.1,0.1,0.2s0,0.1-0.1,0.2s-0.1,0.1-0.2,0.1h-9.2c-0.1,0-0.2,0-0.2-0.1s-0.1-0.1-0.1-0.2s0-0.1,0.1-0.2
			c0.1-0.1,0.1-0.1,0.3-0.1h4.2v-2.4C130.1,100,130.1,99.9,130.2,99.8z M130.2,94.3c0.1-0.1,0.1-0.1,0.2-0.1c0.1,0,0.2,0,0.2,0.1
			c0.1,0.1,0.1,0.2,0.1,0.3c0,1.2,0.4,2.2,1.2,3.1c0.7,0.7,1.6,1.2,2.6,1.4c0.1,0,0.2,0.1,0.3,0.2c0.1,0.1,0.1,0.1,0,0.2
			c0,0.1-0.1,0.2-0.1,0.2c-0.1,0-0.2,0.1-0.3,0c-0.9-0.2-1.7-0.6-2.5-1.3c-0.7-0.7-1.2-1.4-1.5-2.2c-0.2,0.8-0.7,1.5-1.5,2.2
			c-0.8,0.7-1.6,1.2-2.6,1.3c-0.1,0-0.2,0-0.3,0c-0.1,0-0.1-0.1-0.1-0.2c0-0.1,0-0.2,0.1-0.2c0.1-0.1,0.1-0.1,0.3-0.2
			c1-0.2,1.8-0.7,2.5-1.4c0.8-0.9,1.3-1.9,1.3-3.1C130.1,94.5,130.1,94.4,130.2,94.3z"/>
	</g>
</g>
<g>
	<g>
		<rect x="232.5" y="71" class="st0" width="233" height="102"/>
		<path d="M465,71.5v101H233v-101H465 M466,70.5H232v103h234V70.5L466,70.5z"/>
	</g>
</g>
<g>
	<g>
		<rect x="17.5" y="130.5" class="st0" width="180" height="53"/>
		<path d="M197,131v52H18v-52H197 M198,130H17v54h181V130L198,130z"/>
	</g>
	<g>
		<path d="M27,147.6c-0.7,0-1.3-0.1-1.7-0.4s-0.9-0.6-1.2-1.1l0.7-0.6c0.3,0.4,0.6,0.7,1,0.9c0.4,0.2,0.8,0.3,1.3,0.3
			c0.6,0,1.1-0.1,1.4-0.4c0.3-0.3,0.5-0.7,0.5-1.2c0-0.4-0.1-0.7-0.4-0.9c-0.2-0.2-0.6-0.4-1.2-0.5l-0.7-0.2
			c-0.8-0.2-1.4-0.4-1.8-0.8c-0.4-0.4-0.6-0.9-0.6-1.5c0-0.4,0.1-0.7,0.2-1c0.1-0.3,0.3-0.5,0.6-0.7s0.5-0.3,0.9-0.4
			c0.3-0.1,0.7-0.1,1.1-0.1c0.6,0,1.2,0.1,1.6,0.3c0.5,0.2,0.8,0.6,1.1,1l-0.8,0.6c-0.2-0.3-0.5-0.6-0.8-0.8
			c-0.3-0.2-0.7-0.3-1.2-0.3c-0.5,0-1,0.1-1.3,0.3s-0.5,0.6-0.5,1c0,0.4,0.1,0.7,0.4,0.9c0.3,0.2,0.7,0.4,1.2,0.5l0.7,0.2
			c0.8,0.2,1.4,0.5,1.8,0.8s0.6,0.9,0.6,1.5c0,0.4-0.1,0.7-0.2,1c-0.1,0.3-0.3,0.6-0.6,0.8c-0.2,0.2-0.6,0.4-0.9,0.5
			C27.8,147.6,27.4,147.6,27,147.6z"/>
		<path d="M31.6,139.1h2.8c0.5,0,1,0.1,1.4,0.3c0.4,0.2,0.8,0.4,1.1,0.8c0.3,0.3,0.5,0.8,0.7,1.3c0.2,0.5,0.2,1.1,0.2,1.8
			s-0.1,1.3-0.2,1.8c-0.2,0.5-0.4,1-0.7,1.3c-0.3,0.3-0.7,0.6-1.1,0.8c-0.4,0.2-0.9,0.3-1.4,0.3h-2.8V139.1z M34.4,146.6
			c0.3,0,0.7-0.1,0.9-0.2c0.3-0.1,0.5-0.3,0.7-0.5c0.2-0.2,0.4-0.5,0.5-0.8c0.1-0.3,0.2-0.7,0.2-1.1v-1.4c0-0.4-0.1-0.8-0.2-1.1
			c-0.1-0.3-0.3-0.6-0.5-0.8c-0.2-0.2-0.5-0.4-0.7-0.5c-0.3-0.1-0.6-0.2-0.9-0.2h-1.8v6.6H34.4z"/>
		<path d="M39.6,139.1h2.8c0.5,0,1,0.1,1.4,0.3c0.4,0.2,0.8,0.4,1.1,0.8c0.3,0.3,0.5,0.8,0.7,1.3c0.2,0.5,0.2,1.1,0.2,1.8
			s-0.1,1.3-0.2,1.8c-0.2,0.5-0.4,1-0.7,1.3c-0.3,0.3-0.7,0.6-1.1,0.8c-0.4,0.2-0.9,0.3-1.4,0.3h-2.8V139.1z M42.4,146.6
			c0.3,0,0.7-0.1,0.9-0.2c0.3-0.1,0.5-0.3,0.7-0.5c0.2-0.2,0.4-0.5,0.5-0.8c0.1-0.3,0.2-0.7,0.2-1.1v-1.4c0-0.4-0.1-0.8-0.2-1.1
			c-0.1-0.3-0.3-0.6-0.5-0.8c-0.2-0.2-0.5-0.4-0.7-0.5c-0.3-0.1-0.6-0.2-0.9-0.2h-1.8v6.6H42.4z"/>
		<path d="M50.6,147.6c-1.1,0-1.9-0.4-2.5-1.1c-0.6-0.7-0.9-1.8-0.9-3.2c0-1.4,0.3-2.5,0.9-3.2c0.6-0.8,1.4-1.1,2.5-1.1
			c0.7,0,1.3,0.2,1.8,0.5s0.8,0.8,1.1,1.4l-0.8,0.5c-0.2-0.4-0.4-0.8-0.8-1c-0.3-0.3-0.8-0.4-1.3-0.4c-0.4,0-0.7,0.1-1,0.2
			c-0.3,0.1-0.5,0.3-0.7,0.6c-0.2,0.3-0.3,0.6-0.4,0.9c-0.1,0.3-0.2,0.7-0.2,1.2v1.3c0,0.9,0.2,1.5,0.6,2s1,0.7,1.7,0.7
			c0.5,0,1-0.1,1.3-0.4c0.4-0.3,0.6-0.6,0.8-1.1l0.8,0.5c-0.3,0.6-0.6,1.1-1.1,1.4C51.9,147.5,51.3,147.6,50.6,147.6z"/>
		<path d="M54.6,144.4v-1h3.1v1H54.6z"/>
		<path d="M59.7,139.1h2.8c0.5,0,1,0.1,1.4,0.3c0.4,0.2,0.8,0.4,1.1,0.8c0.3,0.3,0.5,0.8,0.7,1.3c0.2,0.5,0.2,1.1,0.2,1.8
			s-0.1,1.3-0.2,1.8c-0.2,0.5-0.4,1-0.7,1.3c-0.3,0.3-0.7,0.6-1.1,0.8c-0.4,0.2-0.9,0.3-1.4,0.3h-2.8V139.1z M62.5,146.6
			c0.3,0,0.7-0.1,0.9-0.2c0.3-0.1,0.5-0.3,0.7-0.5c0.2-0.2,0.4-0.5,0.5-0.8c0.1-0.3,0.2-0.7,0.2-1.1v-1.4c0-0.4-0.1-0.8-0.2-1.1
			c-0.1-0.3-0.3-0.6-0.5-0.8c-0.2-0.2-0.5-0.4-0.7-0.5c-0.3-0.1-0.6-0.2-0.9-0.2h-1.8v6.6H62.5z"/>
		<path d="M67.7,147.5v-8.4h3.3c0.8,0,1.3,0.2,1.7,0.6c0.4,0.4,0.6,1,0.6,1.8s-0.2,1.3-0.6,1.8c-0.4,0.4-1,0.6-1.7,0.6h-2.3v3.6
			H67.7z M68.8,143h2.3c0.4,0,0.7-0.1,0.9-0.3c0.2-0.2,0.3-0.5,0.3-0.9v-0.6c0-0.4-0.1-0.7-0.3-0.9c-0.2-0.2-0.5-0.3-0.9-0.3h-2.3
			V143z"/>
		<path d="M80.4,146.3L80.4,146.3c-0.1,0.4-0.4,0.7-0.8,1c-0.4,0.3-0.9,0.4-1.6,0.4c-0.5,0-1-0.1-1.4-0.3c-0.4-0.2-0.8-0.5-1.1-0.8
			c-0.3-0.4-0.5-0.8-0.7-1.4c-0.2-0.5-0.3-1.2-0.3-1.9c0-0.7,0.1-1.3,0.3-1.9c0.2-0.5,0.4-1,0.7-1.4c0.3-0.4,0.7-0.6,1.1-0.8
			s0.9-0.3,1.5-0.3c0.8,0,1.4,0.2,1.9,0.5s0.9,0.8,1.2,1.3l-0.8,0.5c-0.2-0.4-0.5-0.8-0.9-1.1c-0.4-0.3-0.8-0.4-1.4-0.4
			c-0.4,0-0.7,0.1-1,0.2s-0.6,0.3-0.8,0.6c-0.2,0.2-0.4,0.5-0.5,0.9c-0.1,0.3-0.2,0.7-0.2,1.1v1.4c0,0.4,0.1,0.8,0.2,1.1
			s0.3,0.6,0.5,0.9c0.2,0.2,0.5,0.4,0.8,0.6s0.7,0.2,1.1,0.2c0.3,0,0.6,0,0.8-0.1c0.3-0.1,0.5-0.2,0.7-0.3c0.2-0.2,0.4-0.3,0.5-0.6
			c0.1-0.2,0.2-0.5,0.2-0.8v-0.8h-1.8v-0.9h2.8v4.3h-0.9V146.3z"/>
		<path d="M83.2,144.4v-1h3.1v1H83.2z"/>
		<path d="M89.4,147.5l-2.2-6.2h1l1.1,3.1l0.7,2.1H90l0.7-2.1l1.1-3.1h0.9l-2.2,6.2H89.4z"/>
		<path d="M100.6,140.4L100.6,140.4l-0.8,1.4l-2,3.6l-2-3.6l-0.7-1.4H95v7.1h-1v-8.4h1.3l2.4,4.5h0.1l2.4-4.5h1.3v8.4h-1V140.4z"/>
		<path d="M106,147.6c-0.4,0-0.8-0.1-1.1-0.2c-0.3-0.2-0.6-0.4-0.9-0.7c-0.2-0.3-0.4-0.6-0.6-1c-0.1-0.4-0.2-0.8-0.2-1.3
			c0-0.5,0.1-0.9,0.2-1.3c0.1-0.4,0.3-0.7,0.6-1c0.2-0.3,0.5-0.5,0.9-0.7c0.3-0.2,0.7-0.2,1.1-0.2s0.8,0.1,1.1,0.2
			c0.3,0.2,0.6,0.4,0.9,0.7c0.2,0.3,0.4,0.6,0.6,1c0.1,0.4,0.2,0.8,0.2,1.3c0,0.5-0.1,0.9-0.2,1.3c-0.1,0.4-0.3,0.7-0.6,1
			c-0.2,0.3-0.5,0.5-0.9,0.7C106.8,147.6,106.5,147.6,106,147.6z M106,146.8c0.5,0,0.9-0.2,1.3-0.5s0.5-0.8,0.5-1.5V144
			c0-0.7-0.2-1.1-0.5-1.5s-0.8-0.5-1.3-0.5s-0.9,0.2-1.3,0.5s-0.5,0.8-0.5,1.5v0.9c0,0.7,0.2,1.1,0.5,1.5S105.5,146.8,106,146.8z"/>
		<path d="M111.8,147.5c-0.3,0-0.6-0.1-0.8-0.3s-0.3-0.4-0.3-0.7v-4.3h-1v-0.9h0.6c0.2,0,0.4,0,0.4-0.1c0.1-0.1,0.1-0.2,0.1-0.4
			v-1.2h0.9v1.7h1.4v0.9h-1.4v4.5h1.3v0.9H111.8z"/>
		<path d="M115.1,139.9c-0.2,0-0.4,0-0.5-0.1c-0.1-0.1-0.1-0.2-0.1-0.4v-0.2c0-0.2,0-0.3,0.1-0.4c0.1-0.1,0.2-0.1,0.5-0.1
			s0.4,0,0.5,0.1c0.1,0.1,0.1,0.2,0.1,0.4v0.2c0,0.2,0,0.3-0.1,0.4C115.5,139.8,115.3,139.9,115.1,139.9z M114.6,141.3h1v6.2h-1
			V141.3z"/>
		<path d="M120,147.6c-0.4,0-0.8-0.1-1.1-0.2c-0.3-0.2-0.6-0.4-0.9-0.7c-0.2-0.3-0.4-0.6-0.6-1c-0.1-0.4-0.2-0.8-0.2-1.3
			c0-0.5,0.1-0.9,0.2-1.3c0.1-0.4,0.3-0.7,0.6-1c0.2-0.3,0.5-0.5,0.9-0.7c0.3-0.2,0.7-0.2,1.1-0.2s0.8,0.1,1.1,0.2
			c0.3,0.2,0.6,0.4,0.9,0.7c0.2,0.3,0.4,0.6,0.6,1c0.1,0.4,0.2,0.8,0.2,1.3c0,0.5-0.1,0.9-0.2,1.3c-0.1,0.4-0.3,0.7-0.6,1
			c-0.2,0.3-0.5,0.5-0.9,0.7C120.8,147.6,120.4,147.6,120,147.6z M120,146.8c0.5,0,0.9-0.2,1.3-0.5s0.5-0.8,0.5-1.5V144
			c0-0.7-0.2-1.1-0.5-1.5s-0.8-0.5-1.3-0.5s-0.9,0.2-1.3,0.5s-0.5,0.8-0.5,1.5v0.9c0,0.7,0.2,1.1,0.5,1.5S119.4,146.8,120,146.8z"/>
		<path d="M124.3,147.5v-6.2h1v1h0c0.2-0.3,0.4-0.6,0.6-0.8c0.3-0.2,0.6-0.3,1.1-0.3c0.6,0,1.1,0.2,1.5,0.6s0.6,1,0.6,1.7v4h-1v-3.8
			c0-1.1-0.5-1.7-1.4-1.7c-0.2,0-0.4,0-0.6,0.1c-0.2,0-0.3,0.1-0.5,0.2c-0.1,0.1-0.3,0.2-0.3,0.4s-0.1,0.3-0.1,0.5v4.3H124.3z"/>
		<path d="M26.5,161.9l-2.8-8.4h1.1l1.4,4.2l0.9,3.1h0.1l0.9-3.1l1.4-4.2h1l-2.8,8.4H26.5z"/>
		<path d="M31.9,161.9v-8.4h1v7.5h3.6v0.9H31.9z"/>
		<path d="M43.4,161.9l-0.8-2.5h-3.4l-0.8,2.5h-1l2.9-8.4h1.3l2.9,8.4H43.4z M40.9,154.5L40.9,154.5l-1.5,4.1h2.9L40.9,154.5z"/>
		<path d="M47.9,156.8l-1-1.9h0v7h-1v-8.4H47l3.1,5.1l1,1.9h0v-7h1v8.4h-1.2L47.9,156.8z"/>
		<path d="M56.8,161.9v-0.8H58v-6.7h-1.2v-0.8h3.4v0.8H59v6.7h1.2v0.8H56.8z"/>
		<path d="M62,153.5h2.8c0.5,0,1,0.1,1.4,0.3c0.4,0.2,0.8,0.4,1.1,0.8c0.3,0.3,0.5,0.8,0.7,1.3c0.2,0.5,0.2,1.1,0.2,1.8
			s-0.1,1.3-0.2,1.8c-0.2,0.5-0.4,1-0.7,1.3c-0.3,0.3-0.7,0.6-1.1,0.8c-0.4,0.2-0.9,0.3-1.4,0.3H62V153.5z M64.8,161
			c0.3,0,0.7-0.1,0.9-0.2c0.3-0.1,0.5-0.3,0.7-0.5c0.2-0.2,0.4-0.5,0.5-0.8c0.1-0.3,0.2-0.7,0.2-1.1V157c0-0.4-0.1-0.8-0.2-1.1
			c-0.1-0.3-0.3-0.6-0.5-0.8c-0.2-0.2-0.5-0.4-0.7-0.5c-0.3-0.1-0.6-0.2-0.9-0.2H63v6.6H64.8z"/>
		<path d="M70.7,157.2c-0.3,0-0.4-0.1-0.6-0.2c-0.1-0.1-0.2-0.3-0.2-0.5v-0.2c0-0.2,0.1-0.4,0.2-0.5c0.1-0.1,0.3-0.2,0.6-0.2
			s0.4,0.1,0.6,0.2c0.1,0.1,0.2,0.3,0.2,0.5v0.2c0,0.2-0.1,0.4-0.2,0.5C71.1,157.1,70.9,157.2,70.7,157.2z M70.7,162
			c-0.3,0-0.4-0.1-0.6-0.2c-0.1-0.1-0.2-0.3-0.2-0.5v-0.2c0-0.2,0.1-0.4,0.2-0.5c0.1-0.1,0.3-0.2,0.6-0.2s0.4,0.1,0.6,0.2
			c0.1,0.1,0.2,0.3,0.2,0.5v0.2c0,0.2-0.1,0.4-0.2,0.5C71.1,162,70.9,162,70.7,162z"/>
		<path d="M76.1,158.8v-1h3.1v1H76.1z"/>
		<path d="M80.9,158.8v-1H84v1H80.9z"/>
		<path d="M25.9,176.3l-2.2-6.2h1l1.1,3.1l0.7,2.1h0.1l0.7-2.1l1.1-3.1h0.9l-2.2,6.2H25.9z"/>
		<path d="M30.4,176.3v-6.2h1v1h0c0.1-0.2,0.2-0.3,0.2-0.4c0.1-0.1,0.2-0.3,0.3-0.4c0.1-0.1,0.3-0.2,0.5-0.2
			c0.2-0.1,0.4-0.1,0.6-0.1c0.4,0,0.8,0.1,1.1,0.3c0.3,0.2,0.6,0.5,0.8,1h0c0.1-0.3,0.3-0.6,0.6-0.9c0.3-0.2,0.7-0.4,1.3-0.4
			c0.6,0,1.1,0.2,1.5,0.6s0.5,1,0.5,1.7v4h-1v-3.8c0-0.6-0.1-1-0.3-1.3c-0.2-0.3-0.6-0.4-1-0.4c-0.2,0-0.4,0-0.5,0.1
			c-0.2,0-0.3,0.1-0.5,0.2s-0.2,0.2-0.3,0.4c-0.1,0.1-0.1,0.3-0.1,0.5v4.3h-1v-3.8c0-0.6-0.1-1-0.3-1.3c-0.2-0.3-0.6-0.4-1-0.4
			c-0.2,0-0.4,0-0.6,0.1c-0.2,0-0.3,0.1-0.5,0.2c-0.1,0.1-0.2,0.2-0.3,0.4s-0.1,0.3-0.1,0.5v4.3H30.4z"/>
		<path d="M40.9,167.4h1v5.6h0l0.9-1.1l1.8-1.9h1.2l-2.3,2.4l2.5,3.7h-1.2l-2.1-3.2l-0.9,0.9v2.2h-1V167.4z"/>
		<path d="M47.3,176.3v-0.9h2.3v-6.7h-0.1l-2.1,2l-0.6-0.6l2.2-2.1h1.6v7.5h2.2v0.9H47.3z"/>
		<path d="M55.2,171.6c-0.3,0-0.4-0.1-0.6-0.2c-0.1-0.1-0.2-0.3-0.2-0.5v-0.2c0-0.2,0.1-0.4,0.2-0.5c0.1-0.1,0.3-0.2,0.6-0.2
			s0.4,0.1,0.6,0.2c0.1,0.1,0.2,0.3,0.2,0.5v0.2c0,0.2-0.1,0.4-0.2,0.5C55.6,171.5,55.4,171.6,55.2,171.6z M55.2,176.4
			c-0.3,0-0.4-0.1-0.6-0.2c-0.1-0.1-0.2-0.3-0.2-0.5v-0.2c0-0.2,0.1-0.4,0.2-0.5c0.1-0.1,0.3-0.2,0.6-0.2s0.4,0.1,0.6,0.2
			c0.1,0.1,0.2,0.3,0.2,0.5v0.2c0,0.2-0.1,0.4-0.2,0.5C55.6,176.4,55.4,176.4,55.2,176.4z"/>
		<path d="M65.5,173c0.1-0.1,0.1-0.1,0.2-0.1c0.1,0,0.2,0,0.2,0.1c0.1,0.1,0.1,0.1,0.1,0.3v2.2h4.2c0.1,0,0.2,0,0.3,0.1
			c0.1,0.1,0.1,0.1,0.1,0.2s0,0.1-0.1,0.2s-0.1,0.1-0.2,0.1h-9.2c-0.1,0-0.2,0-0.2-0.1s-0.1-0.1-0.1-0.2s0-0.1,0.1-0.2
			c0.1-0.1,0.1-0.1,0.3-0.1h4.2v-2.3C65.4,173.1,65.4,173,65.5,173z M69.8,172.4c0,0.2-0.1,0.3-0.3,0.3h-7.6c-0.2,0-0.3-0.1-0.3-0.3
			c0-0.2,0.1-0.3,0.3-0.3h1.5l-0.4-3.2c0-0.1,0-0.2,0.1-0.3c0.1-0.1,0.1-0.1,0.2-0.1s0.2,0,0.2,0.1c0.1,0.1,0.1,0.1,0.1,0.2l0.4,3.3
			h3.3l0.4-3.2c0-0.1,0-0.2,0.1-0.2c0.1,0,0.2-0.1,0.2-0.1s0.2,0,0.2,0.1c0.1,0.1,0.1,0.2,0.1,0.3l-0.4,3.2h1.5
			C69.7,172.1,69.8,172.2,69.8,172.4z M69.7,167.5c0.1,0.1,0.1,0.1,0.1,0.2c0,0.1,0,0.1-0.1,0.2c-0.1,0.1-0.1,0.1-0.2,0.1H62
			c-0.2,0-0.3-0.1-0.3-0.3c0-0.2,0.1-0.3,0.3-0.3h7.5C69.6,167.4,69.7,167.4,69.7,167.5z"/>
		<path d="M78.3,167.5c0.1,0.1,0.1,0.1,0.1,0.2c0,0.1,0,0.1-0.1,0.2c-0.1,0.1-0.2,0.1-0.3,0.1h-3.5c-0.2,0-0.3,0-0.4,0.1
			c-0.1,0.1-0.1,0.2-0.1,0.4v2.5h3.6c0.2,0,0.3,0.1,0.3,0.3c0,0.2-0.1,0.3-0.3,0.3h-3.6v3.2c0,0.2,0,0.3,0.1,0.4
			c0.1,0.1,0.2,0.2,0.3,0.2c1,0,1.8-0.1,2.5-0.2c0.7-0.1,1.4-0.3,1.9-0.5c0.2-0.1,0.4,0,0.4,0.2c0.1,0.2,0,0.3-0.2,0.4
			c-0.5,0.2-1.2,0.4-2,0.5c-0.8,0.1-1.7,0.2-2.7,0.2c-0.4,0-0.7-0.1-0.9-0.3c-0.2-0.2-0.2-0.5-0.2-0.8v-6.2c0-0.3,0.1-0.6,0.3-0.8
			c0.2-0.2,0.5-0.4,0.9-0.4h3.5C78.2,167.5,78.3,167.5,78.3,167.5z M81.4,176.8c-0.1,0.1-0.1,0.1-0.2,0.1c-0.1,0-0.2,0-0.2-0.1
			c-0.1-0.1-0.1-0.2-0.1-0.3v-4.6h-1.9c-0.1,0-0.2,0-0.3-0.1c-0.1-0.1-0.1-0.1-0.1-0.2c0-0.1,0-0.1,0.1-0.2c0.1-0.1,0.1-0.1,0.2-0.1
			h2v-3.8c0-0.1,0-0.2,0.1-0.3c0.1-0.1,0.1-0.1,0.2-0.1c0.1,0,0.2,0,0.2,0.1c0.1,0.1,0.1,0.2,0.1,0.3v9
			C81.5,176.6,81.5,176.7,81.4,176.8z"/>
		<path d="M94.6,171.8c0,0.2-0.1,0.3-0.3,0.3h-9.2c-0.2,0-0.3-0.1-0.3-0.3c0-0.2,0.1-0.3,0.4-0.3h9.1
			C94.5,171.5,94.6,171.6,94.6,171.8z M93.4,173.3c0.2,0.1,0.3,0.3,0.3,0.6v0.6c0,0.2-0.1,0.4-0.2,0.6c-0.2,0.2-0.4,0.2-0.6,0.2
			h-5.9c-0.2,0-0.3,0-0.3,0.1c-0.1,0.1-0.1,0.2-0.1,0.3v0.3c0,0.1,0,0.2,0.1,0.2s0.2,0.1,0.3,0.1h6.6c0.1,0,0.2,0,0.3,0.1
			c0.1,0.1,0.1,0.1,0.1,0.2c0,0.1,0,0.1-0.1,0.2s-0.1,0.1-0.2,0.1h-6.9c-0.3,0-0.5-0.1-0.6-0.2c-0.1-0.1-0.2-0.3-0.2-0.6v-0.5
			c0-0.3,0.1-0.5,0.2-0.6c0.2-0.1,0.4-0.2,0.7-0.2h5.9c0.1,0,0.2,0,0.3-0.1c0.1,0,0.1-0.1,0.1-0.2V174c0-0.1,0-0.2-0.1-0.3
			c-0.1-0.1-0.2-0.1-0.4-0.1h-6.4c-0.2,0-0.4-0.1-0.4-0.3c0-0.2,0.1-0.3,0.4-0.3h6.5C92.9,173.1,93.2,173.1,93.4,173.3z M86.1,170.2
			c-0.2-0.2-0.3-0.4-0.3-0.7v-2c0-0.1,0-0.2,0.1-0.3c0.1-0.1,0.1-0.1,0.2-0.1c0.1,0,0.2,0,0.2,0.1c0.1,0.1,0.1,0.2,0.1,0.3v0.6H93
			v-0.7c0-0.1,0-0.2,0.1-0.3c0.1-0.1,0.1-0.1,0.2-0.1c0.1,0,0.2,0,0.2,0.1c0.1,0.1,0.1,0.1,0.1,0.3v2c0,0.3-0.1,0.5-0.3,0.7
			c-0.2,0.2-0.5,0.3-0.8,0.3h-5.8C86.5,170.4,86.3,170.3,86.1,170.2z M86.5,168.7v0.7c0,0.1,0,0.2,0.1,0.3c0.1,0.1,0.2,0.1,0.4,0.1
			h5.5c0.2,0,0.3,0,0.4-0.1c0.1-0.1,0.1-0.2,0.1-0.3v-0.7H86.5z"/>
		<path d="M102.7,167.4c0.1-0.1,0.1-0.1,0.2-0.1s0.2,0,0.2,0.1c0.1,0.1,0.1,0.1,0.1,0.3c0,0.4,0,0.8-0.1,1.3
			c-0.1,0.5-0.1,0.9-0.2,1.3c0.6,0.8,1.2,1.6,1.7,2.6c0.5,0.9,0.9,1.7,1.2,2.5c0,0.1,0.1,0.2,0,0.3c0,0.1-0.1,0.1-0.2,0.2
			c-0.1,0-0.2,0-0.2,0s-0.2-0.1-0.2-0.2c-0.3-0.8-0.7-1.6-1.1-2.4c-0.5-1-1-1.8-1.4-2.3c-0.3,1-0.6,1.8-1,2.6
			c-0.4,0.8-0.9,1.6-1.5,2.3c-0.1,0.1-0.2,0.1-0.2,0.1c-0.1,0-0.2,0-0.2-0.1c-0.1-0.1-0.1-0.1-0.1-0.2c0-0.1,0-0.2,0.1-0.3
			c0.9-1,1.6-2.3,2.1-3.8c0.4-1.3,0.6-2.6,0.6-3.9C102.6,167.6,102.6,167.5,102.7,167.4z M109.3,171.7c0.2,0,0.3,0.1,0.3,0.3
			c0,0.2-0.1,0.3-0.3,0.3H108v4.3c0,0.1,0,0.2-0.1,0.2c-0.1,0.1-0.1,0.1-0.2,0.1s-0.2,0-0.2-0.1c-0.1-0.1-0.1-0.1-0.1-0.2v-9.1
			c0-0.1,0-0.2,0.1-0.2c0.1,0,0.1-0.1,0.2-0.1s0.2,0,0.2,0.1c0.1,0.1,0.1,0.1,0.1,0.2v4.3H109.3z"/>
		<path d="M114.6,167.4c0.1-0.1,0.2-0.1,0.2-0.1c0.1,0,0.2,0,0.2,0.1c0.1,0.1,0.1,0.2,0.1,0.3c0,0.2,0,0.5-0.1,0.8
			c-0.1,0.3-0.2,0.5-0.3,0.8c0.6,0.3,1.1,0.7,1.6,1.1c0.4,0.3,0.9,0.8,1.4,1.3c0.1,0.1,0.1,0.2,0.1,0.3c0,0.1,0,0.2-0.1,0.2
			c-0.1,0.1-0.2,0.1-0.2,0.1c-0.1,0-0.2-0.1-0.3-0.1c-0.4-0.5-0.9-1-1.4-1.4c-0.4-0.3-0.8-0.6-1.4-1c-0.2,0.5-0.5,0.9-0.9,1.3
			c-0.4,0.4-0.8,0.9-1.4,1.3c-0.1,0.1-0.2,0.1-0.3,0.1c-0.1,0-0.2,0-0.2-0.1c-0.1-0.1-0.1-0.1-0.1-0.2c0-0.1,0.1-0.2,0.2-0.2
			c0.9-0.7,1.5-1.4,2-2.3c0.4-0.7,0.6-1.4,0.6-2C114.5,167.5,114.5,167.4,114.6,167.4z M120.1,173.1c0.2,0.2,0.3,0.4,0.3,0.6v0.5
			c0,0.2-0.1,0.4-0.3,0.6s-0.4,0.2-0.7,0.2h-5.6c-0.2,0-0.3,0-0.3,0.1c-0.1,0.1-0.1,0.2-0.1,0.3v0.5c0,0.1,0,0.2,0.1,0.2
			c0.1,0,0.2,0.1,0.3,0.1h6.4c0.1,0,0.2,0,0.3,0.1c0.1,0.1,0.1,0.1,0.1,0.2c0,0.1,0,0.1-0.1,0.2s-0.1,0.1-0.2,0.1h-6.7
			c-0.3,0-0.5-0.1-0.6-0.2c-0.2-0.2-0.3-0.4-0.3-0.6v-0.7c0-0.3,0.1-0.5,0.2-0.6s0.4-0.2,0.6-0.2h5.6c0.1,0,0.2,0,0.3-0.1
			c0.1,0,0.1-0.1,0.1-0.2v-0.3c0-0.1,0-0.2-0.1-0.3s-0.2-0.1-0.4-0.1h-6.1c-0.2,0-0.4-0.1-0.4-0.3c0-0.2,0.1-0.3,0.4-0.3h6.2
			C119.6,172.8,119.9,172.9,120.1,173.1z M120.2,172.1c-0.1,0.1-0.1,0.1-0.2,0.1c-0.1,0-0.2,0-0.2-0.1c-0.1-0.1-0.1-0.1-0.1-0.2v-2
			h-3c-0.1,0-0.2,0-0.3-0.1c-0.1-0.1-0.1-0.1-0.1-0.2s0-0.1,0.1-0.2c0.1-0.1,0.2-0.1,0.3-0.1h3v-1.8c0-0.1,0-0.2,0.1-0.2
			c0.1-0.1,0.1-0.1,0.2-0.1c0.1,0,0.2,0,0.2,0.1c0.1,0.1,0.1,0.1,0.1,0.2v4.4C120.3,172,120.3,172,120.2,172.1z"/>
		<path d="M136.3,173.1c0,0.2-0.1,0.3-0.3,0.3h-4.3v3.1c0,0.1,0,0.2-0.1,0.3c-0.1,0.1-0.1,0.1-0.2,0.1c-0.1,0-0.2,0-0.2-0.1
			c-0.1-0.1-0.1-0.2-0.1-0.3v-3.1h-4.3c-0.2,0-0.3-0.1-0.3-0.3c0-0.2,0.1-0.3,0.3-0.3h9.1C136.2,172.8,136.3,172.9,136.3,173.1z
			 M135.5,167.7c0,0.2-0.1,0.3-0.3,0.3h-3.5v0.4c0,0.7,0.4,1.3,1.1,1.7c0.7,0.5,1.7,0.8,2.7,0.8c0.1,0,0.2,0,0.3,0.1
			c0.1,0.1,0.1,0.1,0.1,0.2s0,0.2-0.1,0.2c-0.1,0.1-0.1,0.1-0.3,0.1c-1-0.1-2-0.3-2.8-0.8c-0.7-0.4-1.2-0.9-1.4-1.4
			c-0.2,0.5-0.7,1-1.4,1.4c-0.8,0.4-1.7,0.7-2.7,0.8c-0.1,0-0.2,0-0.3-0.1c-0.1-0.1-0.1-0.1-0.1-0.2c0-0.1,0-0.2,0.1-0.2
			c0.1-0.1,0.2-0.1,0.3-0.1c1.1-0.1,2-0.3,2.7-0.8c0.7-0.5,1.1-1.1,1.1-1.8V168h-3.4c-0.2,0-0.3-0.1-0.3-0.3c0-0.2,0.1-0.3,0.3-0.3
			h7.6C135.4,167.4,135.5,167.5,135.5,167.7z"/>
		<path d="M143.2,172.8c0.1-0.1,0.1-0.1,0.2-0.1c0.1,0,0.2,0,0.2,0.1c0.1,0.1,0.1,0.1,0.1,0.3v2.4h4.2c0.1,0,0.2,0,0.3,0.1
			c0.1,0.1,0.1,0.1,0.1,0.2s0,0.1-0.1,0.2s-0.1,0.1-0.2,0.1h-9.2c-0.1,0-0.2,0-0.2-0.1s-0.1-0.1-0.1-0.2s0-0.1,0.1-0.2
			c0.1-0.1,0.1-0.1,0.3-0.1h4.2v-2.4C143.1,173,143.1,172.9,143.2,172.8z M143.2,167.3c0.1-0.1,0.1-0.1,0.2-0.1c0.1,0,0.2,0,0.2,0.1
			c0.1,0.1,0.1,0.2,0.1,0.3c0,1.2,0.4,2.2,1.2,3.1c0.7,0.7,1.6,1.2,2.6,1.4c0.1,0,0.2,0.1,0.3,0.2c0.1,0.1,0.1,0.1,0,0.2
			c0,0.1-0.1,0.2-0.1,0.2c-0.1,0-0.2,0.1-0.3,0c-0.9-0.2-1.7-0.6-2.5-1.3c-0.7-0.7-1.2-1.4-1.5-2.2c-0.2,0.8-0.7,1.5-1.5,2.2
			c-0.8,0.7-1.6,1.2-2.6,1.3c-0.1,0-0.2,0-0.3,0c-0.1,0-0.1-0.1-0.1-0.2c0-0.1,0-0.2,0.1-0.2c0.1-0.1,0.1-0.1,0.3-0.2
			c1-0.2,1.8-0.7,2.5-1.4c0.8-0.9,1.3-1.9,1.3-3.1C143.1,167.5,143.1,167.4,143.2,167.3z"/>
	</g>
</g>
<g>
	<g>
		<rect x="16.5" y="201.5" class="st0" width="180" height="53"/>
		<path d="M196,202v52H17v-52H196 M197,201H16v54h181V201L197,201z"/>
	</g>
	<g>
		<path d="M27,218.6c-0.7,0-1.3-0.1-1.7-0.4s-0.9-0.6-1.2-1.1l0.7-0.6c0.3,0.4,0.6,0.7,1,0.9s0.8,0.3,1.3,0.3c0.6,0,1.1-0.1,1.4-0.4
			c0.3-0.3,0.5-0.7,0.5-1.2c0-0.4-0.1-0.7-0.4-0.9c-0.2-0.2-0.6-0.4-1.2-0.5l-0.7-0.2c-0.8-0.2-1.4-0.4-1.8-0.8
			c-0.4-0.4-0.6-0.9-0.6-1.5c0-0.4,0.1-0.7,0.2-1c0.1-0.3,0.3-0.5,0.6-0.7c0.2-0.2,0.5-0.3,0.9-0.4c0.3-0.1,0.7-0.1,1.1-0.1
			c0.6,0,1.2,0.1,1.6,0.3c0.5,0.2,0.8,0.6,1.1,1l-0.8,0.6c-0.2-0.3-0.5-0.6-0.8-0.8c-0.3-0.2-0.7-0.3-1.2-0.3c-0.5,0-1,0.1-1.3,0.3
			s-0.5,0.6-0.5,1c0,0.4,0.1,0.7,0.4,0.9c0.3,0.2,0.7,0.4,1.2,0.5l0.7,0.2c0.8,0.2,1.4,0.5,1.8,0.8s0.6,0.9,0.6,1.5
			c0,0.4-0.1,0.7-0.2,1c-0.1,0.3-0.3,0.6-0.6,0.8c-0.2,0.2-0.6,0.4-0.9,0.5S27.4,218.6,27,218.6z"/>
		<path d="M31.6,210.1h2.8c0.5,0,1,0.1,1.4,0.3c0.4,0.2,0.8,0.4,1.1,0.8c0.3,0.3,0.5,0.8,0.7,1.3c0.2,0.5,0.2,1.1,0.2,1.8
			c0,0.7-0.1,1.3-0.2,1.8c-0.2,0.5-0.4,1-0.7,1.3c-0.3,0.3-0.7,0.6-1.1,0.8c-0.4,0.2-0.9,0.3-1.4,0.3h-2.8V210.1z M34.4,217.6
			c0.3,0,0.7-0.1,0.9-0.2c0.3-0.1,0.5-0.3,0.7-0.5c0.2-0.2,0.4-0.5,0.5-0.8c0.1-0.3,0.2-0.7,0.2-1.1v-1.4c0-0.4-0.1-0.8-0.2-1.1
			c-0.1-0.3-0.3-0.6-0.5-0.8c-0.2-0.2-0.5-0.4-0.7-0.5c-0.3-0.1-0.6-0.2-0.9-0.2h-1.8v6.6H34.4z"/>
		<path d="M39.6,210.1h2.8c0.5,0,1,0.1,1.4,0.3c0.4,0.2,0.8,0.4,1.1,0.8c0.3,0.3,0.5,0.8,0.7,1.3c0.2,0.5,0.2,1.1,0.2,1.8
			c0,0.7-0.1,1.3-0.2,1.8c-0.2,0.5-0.4,1-0.7,1.3c-0.3,0.3-0.7,0.6-1.1,0.8c-0.4,0.2-0.9,0.3-1.4,0.3h-2.8V210.1z M42.4,217.6
			c0.3,0,0.7-0.1,0.9-0.2c0.3-0.1,0.5-0.3,0.7-0.5c0.2-0.2,0.4-0.5,0.5-0.8c0.1-0.3,0.2-0.7,0.2-1.1v-1.4c0-0.4-0.1-0.8-0.2-1.1
			c-0.1-0.3-0.3-0.6-0.5-0.8c-0.2-0.2-0.5-0.4-0.7-0.5c-0.3-0.1-0.6-0.2-0.9-0.2h-1.8v6.6H42.4z"/>
		<path d="M50.6,218.6c-1.1,0-1.9-0.4-2.5-1.1c-0.6-0.7-0.9-1.8-0.9-3.2c0-1.4,0.3-2.5,0.9-3.2c0.6-0.8,1.4-1.1,2.5-1.1
			c0.7,0,1.3,0.2,1.8,0.5s0.8,0.8,1.1,1.4l-0.8,0.5c-0.2-0.4-0.4-0.8-0.8-1c-0.3-0.3-0.8-0.4-1.3-0.4c-0.4,0-0.7,0.1-1,0.2
			c-0.3,0.1-0.5,0.3-0.7,0.6c-0.2,0.3-0.3,0.6-0.4,0.9c-0.1,0.3-0.2,0.7-0.2,1.2v1.3c0,0.9,0.2,1.5,0.6,2s1,0.7,1.7,0.7
			c0.5,0,1-0.1,1.3-0.4c0.4-0.3,0.6-0.6,0.8-1.1l0.8,0.5c-0.3,0.6-0.6,1.1-1.1,1.4C51.9,218.5,51.3,218.6,50.6,218.6z"/>
		<path d="M54.6,215.4v-1h3.1v1H54.6z"/>
		<path d="M59.7,210.1h2.8c0.5,0,1,0.1,1.4,0.3c0.4,0.2,0.8,0.4,1.1,0.8c0.3,0.3,0.5,0.8,0.7,1.3c0.2,0.5,0.2,1.1,0.2,1.8
			c0,0.7-0.1,1.3-0.2,1.8c-0.2,0.5-0.4,1-0.7,1.3c-0.3,0.3-0.7,0.6-1.1,0.8c-0.4,0.2-0.9,0.3-1.4,0.3h-2.8V210.1z M62.5,217.6
			c0.3,0,0.7-0.1,0.9-0.2c0.3-0.1,0.5-0.3,0.7-0.5c0.2-0.2,0.4-0.5,0.5-0.8c0.1-0.3,0.2-0.7,0.2-1.1v-1.4c0-0.4-0.1-0.8-0.2-1.1
			c-0.1-0.3-0.3-0.6-0.5-0.8c-0.2-0.2-0.5-0.4-0.7-0.5c-0.3-0.1-0.6-0.2-0.9-0.2h-1.8v6.6H62.5z"/>
		<path d="M67.7,218.5v-8.4h3.3c0.8,0,1.3,0.2,1.7,0.6c0.4,0.4,0.6,1,0.6,1.8s-0.2,1.3-0.6,1.8c-0.4,0.4-1,0.6-1.7,0.6h-2.3v3.6
			H67.7z M68.8,214h2.3c0.4,0,0.7-0.1,0.9-0.3c0.2-0.2,0.3-0.5,0.3-0.9v-0.6c0-0.4-0.1-0.7-0.3-0.9c-0.2-0.2-0.5-0.3-0.9-0.3h-2.3
			V214z"/>
		<path d="M80.4,217.3L80.4,217.3c-0.1,0.4-0.4,0.7-0.8,1c-0.4,0.3-0.9,0.4-1.6,0.4c-0.5,0-1-0.1-1.4-0.3c-0.4-0.2-0.8-0.5-1.1-0.8
			s-0.5-0.8-0.7-1.4c-0.2-0.5-0.3-1.2-0.3-1.9c0-0.7,0.1-1.3,0.3-1.9c0.2-0.5,0.4-1,0.7-1.4c0.3-0.4,0.7-0.6,1.1-0.8
			c0.4-0.2,0.9-0.3,1.5-0.3c0.8,0,1.4,0.2,1.9,0.5s0.9,0.8,1.2,1.3l-0.8,0.5c-0.2-0.4-0.5-0.8-0.9-1.1c-0.4-0.3-0.8-0.4-1.4-0.4
			c-0.4,0-0.7,0.1-1,0.2c-0.3,0.1-0.6,0.3-0.8,0.6c-0.2,0.2-0.4,0.5-0.5,0.9c-0.1,0.3-0.2,0.7-0.2,1.1v1.4c0,0.4,0.1,0.8,0.2,1.1
			c0.1,0.3,0.3,0.6,0.5,0.9c0.2,0.2,0.5,0.4,0.8,0.6s0.7,0.2,1.1,0.2c0.3,0,0.6,0,0.8-0.1c0.3-0.1,0.5-0.2,0.7-0.3
			c0.2-0.2,0.4-0.3,0.5-0.6c0.1-0.2,0.2-0.5,0.2-0.8v-0.8h-1.8v-0.9h2.8v4.3h-0.9V217.3z"/>
		<path d="M83.2,215.4v-1h3.1v1H83.2z"/>
		<path d="M90.3,213.4l-1-1.9h0v7h-1v-8.4h1.2l3.1,5.1l1,1.9h0v-7h1v8.4h-1.2L90.3,213.4z"/>
		<path d="M96.7,218.5v-8.4h5v0.9h-4v2.8h3.6v0.9h-3.6v3.8H96.7z"/>
		<path d="M105.8,218.6c-0.7,0-1.3-0.1-1.7-0.4s-0.9-0.6-1.2-1.1l0.7-0.6c0.3,0.4,0.6,0.7,1,0.9s0.8,0.3,1.3,0.3
			c0.6,0,1.1-0.1,1.4-0.4c0.3-0.3,0.5-0.7,0.5-1.2c0-0.4-0.1-0.7-0.4-0.9c-0.2-0.2-0.6-0.4-1.2-0.5l-0.7-0.2
			c-0.8-0.2-1.4-0.4-1.8-0.8c-0.4-0.4-0.6-0.9-0.6-1.5c0-0.4,0.1-0.7,0.2-1c0.1-0.3,0.3-0.5,0.6-0.7c0.2-0.2,0.5-0.3,0.9-0.4
			c0.3-0.1,0.7-0.1,1.1-0.1c0.6,0,1.2,0.1,1.6,0.3c0.5,0.2,0.8,0.6,1.1,1l-0.8,0.6c-0.2-0.3-0.5-0.6-0.8-0.8
			c-0.3-0.2-0.7-0.3-1.2-0.3c-0.5,0-1,0.1-1.3,0.3s-0.5,0.6-0.5,1c0,0.4,0.1,0.7,0.4,0.9c0.3,0.2,0.7,0.4,1.2,0.5l0.7,0.2
			c0.8,0.2,1.4,0.5,1.8,0.8s0.6,0.9,0.6,1.5c0,0.4-0.1,0.7-0.2,1c-0.1,0.3-0.3,0.6-0.6,0.8c-0.2,0.2-0.6,0.4-0.9,0.5
			S106.3,218.6,105.8,218.6z"/>
		<path d="M26.5,232.9l-2.8-8.4h1.1l1.4,4.2l0.9,3.1h0.1l0.9-3.1l1.4-4.2h1l-2.8,8.4H26.5z"/>
		<path d="M31.9,232.9v-8.4h1v7.5h3.6v0.9H31.9z"/>
		<path d="M43.4,232.9l-0.8-2.5h-3.4l-0.8,2.5h-1l2.9-8.4h1.3l2.9,8.4H43.4z M40.9,225.5L40.9,225.5l-1.5,4.1h2.9L40.9,225.5z"/>
		<path d="M47.9,227.8l-1-1.9h0v7h-1v-8.4H47l3.1,5.1l1,1.9h0v-7h1v8.4h-1.2L47.9,227.8z"/>
		<path d="M56.8,232.9v-0.8H58v-6.7h-1.2v-0.8h3.4v0.8H59v6.7h1.2v0.8H56.8z"/>
		<path d="M62,224.5h2.8c0.5,0,1,0.1,1.4,0.3c0.4,0.2,0.8,0.4,1.1,0.8c0.3,0.3,0.5,0.8,0.7,1.3c0.2,0.5,0.2,1.1,0.2,1.8
			s-0.1,1.3-0.2,1.8c-0.2,0.5-0.4,1-0.7,1.3c-0.3,0.3-0.7,0.6-1.1,0.8c-0.4,0.2-0.9,0.3-1.4,0.3H62V224.5z M64.8,232
			c0.3,0,0.7-0.1,0.9-0.2c0.3-0.1,0.5-0.3,0.7-0.5c0.2-0.2,0.4-0.5,0.5-0.8c0.1-0.3,0.2-0.7,0.2-1.1V228c0-0.4-0.1-0.8-0.2-1.1
			c-0.1-0.3-0.3-0.6-0.5-0.8c-0.2-0.2-0.5-0.4-0.7-0.5c-0.3-0.1-0.6-0.2-0.9-0.2H63v6.6H64.8z"/>
		<path d="M70.7,228.2c-0.3,0-0.4-0.1-0.6-0.2c-0.1-0.1-0.2-0.3-0.2-0.5v-0.2c0-0.2,0.1-0.4,0.2-0.5c0.1-0.1,0.3-0.2,0.6-0.2
			s0.4,0.1,0.6,0.2c0.1,0.1,0.2,0.3,0.2,0.5v0.2c0,0.2-0.1,0.4-0.2,0.5C71.1,228.1,70.9,228.2,70.7,228.2z M70.7,233
			c-0.3,0-0.4-0.1-0.6-0.2c-0.1-0.1-0.2-0.3-0.2-0.5v-0.2c0-0.2,0.1-0.4,0.2-0.5c0.1-0.1,0.3-0.2,0.6-0.2s0.4,0.1,0.6,0.2
			c0.1,0.1,0.2,0.3,0.2,0.5v0.2c0,0.2-0.1,0.4-0.2,0.5C71.1,233,70.9,233,70.7,233z"/>
		<path d="M76.3,230.1v-1l5-3v1l-4.1,2.4v0.1l4.1,2.4v1L76.3,230.1z"/>
		<path d="M86.6,224c0.1-0.1,0.1-0.1,0.2-0.1s0.2,0,0.2,0.1c0.1,0.1,0.1,0.1,0.1,0.3c0,0.4,0,0.8-0.1,1.3c-0.1,0.5-0.1,0.9-0.2,1.3
			c0.6,0.8,1.2,1.6,1.7,2.6c0.5,0.9,0.9,1.7,1.2,2.5c0,0.1,0.1,0.2,0,0.3c0,0.1-0.1,0.1-0.2,0.2c-0.1,0-0.2,0-0.2,0
			s-0.2-0.1-0.2-0.2c-0.3-0.8-0.7-1.6-1.1-2.4c-0.5-1-1-1.8-1.4-2.3c-0.3,1-0.6,1.8-1,2.6c-0.4,0.8-0.9,1.6-1.5,2.3
			c-0.1,0.1-0.2,0.1-0.2,0.1c-0.1,0-0.2,0-0.2-0.1c-0.1-0.1-0.1-0.1-0.1-0.2c0-0.1,0-0.2,0.1-0.3c0.9-1,1.6-2.3,2.1-3.8
			c0.4-1.3,0.6-2.6,0.6-3.9C86.5,224.2,86.5,224.1,86.6,224z M93.2,228.3c0.2,0,0.3,0.1,0.3,0.3c0,0.2-0.1,0.3-0.3,0.3h-1.3v4.3
			c0,0.1,0,0.2-0.1,0.2c-0.1,0.1-0.1,0.1-0.2,0.1s-0.2,0-0.2-0.1c-0.1-0.1-0.1-0.1-0.1-0.2V224c0-0.1,0-0.2,0.1-0.2
			c0.1,0,0.1-0.1,0.2-0.1s0.2,0,0.2,0.1c0.1,0.1,0.1,0.1,0.1,0.2v4.3H93.2z"/>
		<path d="M98.4,224c0.1-0.1,0.2-0.1,0.2-0.1c0.1,0,0.2,0,0.2,0.1c0.1,0.1,0.1,0.2,0.1,0.3c0,0.2,0,0.5-0.1,0.8
			c-0.1,0.3-0.2,0.5-0.3,0.8c0.6,0.3,1.1,0.7,1.6,1.1c0.4,0.3,0.9,0.8,1.4,1.3c0.1,0.1,0.1,0.2,0.1,0.3c0,0.1,0,0.2-0.1,0.2
			c-0.1,0.1-0.2,0.1-0.2,0.1c-0.1,0-0.2-0.1-0.3-0.1c-0.4-0.5-0.9-1-1.4-1.4c-0.4-0.3-0.8-0.6-1.4-1c-0.2,0.5-0.5,0.9-0.9,1.3
			c-0.4,0.4-0.8,0.9-1.4,1.3c-0.1,0.1-0.2,0.1-0.3,0.1c-0.1,0-0.2,0-0.2-0.1c-0.1-0.1-0.1-0.1-0.1-0.2c0-0.1,0.1-0.2,0.2-0.2
			c0.9-0.7,1.5-1.4,2-2.3c0.4-0.7,0.6-1.4,0.6-2C98.3,224.1,98.4,224,98.4,224z M103.9,229.7c0.2,0.2,0.3,0.4,0.3,0.6v0.5
			c0,0.2-0.1,0.4-0.3,0.6s-0.4,0.2-0.7,0.2h-5.6c-0.2,0-0.3,0-0.3,0.1c-0.1,0.1-0.1,0.2-0.1,0.3v0.5c0,0.1,0,0.2,0.1,0.2
			c0.1,0,0.2,0.1,0.3,0.1h6.4c0.1,0,0.2,0,0.3,0.1c0.1,0.1,0.1,0.1,0.1,0.2c0,0.1,0,0.1-0.1,0.2s-0.1,0.1-0.2,0.1h-6.7
			c-0.3,0-0.5-0.1-0.6-0.2c-0.2-0.2-0.3-0.4-0.3-0.6v-0.7c0-0.3,0.1-0.5,0.2-0.6s0.4-0.2,0.6-0.2h5.6c0.1,0,0.2,0,0.3-0.1
			c0.1,0,0.1-0.1,0.1-0.2v-0.3c0-0.1,0-0.2-0.1-0.3s-0.2-0.1-0.4-0.1h-6.1c-0.2,0-0.4-0.1-0.4-0.3c0-0.2,0.1-0.3,0.4-0.3h6.2
			C103.5,229.4,103.8,229.5,103.9,229.7z M104.1,228.7c-0.1,0.1-0.1,0.1-0.2,0.1c-0.1,0-0.2,0-0.2-0.1c-0.1-0.1-0.1-0.1-0.1-0.2v-2
			h-3c-0.1,0-0.2,0-0.3-0.1c-0.1-0.1-0.1-0.1-0.1-0.2s0-0.1,0.1-0.2c0.1-0.1,0.2-0.1,0.3-0.1h3V224c0-0.1,0-0.2,0.1-0.2
			c0.1-0.1,0.1-0.1,0.2-0.1c0.1,0,0.2,0,0.2,0.1c0.1,0.1,0.1,0.1,0.1,0.2v4.4C104.2,228.6,104.2,228.6,104.1,228.7z"/>
		<path d="M112.3,232.9l-2.8-8.4h1.1l1.4,4.2l0.9,3.1h0.1l0.9-3.1l1.4-4.2h1l-2.8,8.4H112.3z"/>
		<path d="M117.7,232.9v-8.4h1v7.5h3.6v0.9H117.7z"/>
		<path d="M129.2,232.9l-0.8-2.5H125l-0.8,2.5h-1l2.9-8.4h1.3l2.9,8.4H129.2z M126.7,225.5L126.7,225.5l-1.5,4.1h2.9L126.7,225.5z"
			/>
		<path d="M133.7,227.8l-1-1.9h0v7h-1v-8.4h1.2l3.1,5.1l1,1.9h0v-7h1v8.4h-1.2L133.7,227.8z"/>
		<path d="M142.9,224.5h3.4c0.7,0,1.2,0.2,1.6,0.6c0.4,0.4,0.6,0.9,0.6,1.6c0,0.3,0,0.6-0.1,0.8c-0.1,0.2-0.2,0.4-0.3,0.5
			c-0.1,0.1-0.3,0.2-0.4,0.3s-0.3,0.1-0.4,0.1v0.1c0.2,0,0.3,0,0.5,0.1s0.4,0.2,0.5,0.3s0.3,0.4,0.4,0.6c0.1,0.2,0.2,0.5,0.2,0.9
			c0,0.3-0.1,0.7-0.2,1c-0.1,0.3-0.3,0.6-0.5,0.8c-0.2,0.2-0.4,0.4-0.7,0.5c-0.3,0.1-0.6,0.2-0.9,0.2h-3.8V224.5z M144,228.1h2.3
			c0.4,0,0.7-0.1,0.9-0.3c0.2-0.2,0.3-0.5,0.3-0.9v-0.4c0-0.4-0.1-0.7-0.3-0.9s-0.5-0.3-0.9-0.3H144V228.1z M144,232h2.5
			c0.4,0,0.8-0.1,1-0.3c0.2-0.2,0.4-0.5,0.4-1v-0.4c0-0.4-0.1-0.7-0.4-1c-0.2-0.2-0.6-0.3-1-0.3H144V232z"/>
		<path d="M150.7,232l4.1-2.4v-0.1l-4.1-2.4v-1l5,3v1l-5,3V232z"/>
		<path d="M25.9,247.3l-2.2-6.2h1l1.1,3.1l0.7,2.1h0.1l0.7-2.1l1.1-3.1h0.9l-2.2,6.2H25.9z"/>
		<path d="M30.4,247.3v-6.2h1v1h0c0.1-0.2,0.2-0.3,0.2-0.4c0.1-0.1,0.2-0.3,0.3-0.4c0.1-0.1,0.3-0.2,0.5-0.2
			c0.2-0.1,0.4-0.1,0.6-0.1c0.4,0,0.8,0.1,1.1,0.3c0.3,0.2,0.6,0.5,0.8,1h0c0.1-0.3,0.3-0.6,0.6-0.9c0.3-0.2,0.7-0.4,1.3-0.4
			c0.6,0,1.1,0.2,1.5,0.6s0.5,1,0.5,1.7v4h-1v-3.8c0-0.6-0.1-1-0.3-1.3c-0.2-0.3-0.6-0.4-1-0.4c-0.2,0-0.4,0-0.5,0.1
			c-0.2,0-0.3,0.1-0.5,0.2s-0.2,0.2-0.3,0.4c-0.1,0.1-0.1,0.3-0.1,0.5v4.3h-1v-3.8c0-0.6-0.1-1-0.3-1.3c-0.2-0.3-0.6-0.4-1-0.4
			c-0.2,0-0.4,0-0.6,0.1c-0.2,0-0.3,0.1-0.5,0.2c-0.1,0.1-0.2,0.2-0.3,0.4s-0.1,0.3-0.1,0.5v4.3H30.4z"/>
		<path d="M40.9,238.4h1v5.6h0l0.9-1.1l1.8-1.9h1.2l-2.3,2.4l2.5,3.7h-1.2l-2.1-3.2l-0.9,0.9v2.2h-1V238.4z"/>
		<path d="M52.6,247.3h-5.5v-1l2.7-2.5c0.4-0.4,0.7-0.7,1-1.1c0.3-0.4,0.4-0.8,0.4-1.2v-0.1c0-0.5-0.1-0.8-0.4-1.1s-0.6-0.4-1.2-0.4
			c-0.3,0-0.5,0-0.7,0.1s-0.4,0.2-0.5,0.3c-0.1,0.1-0.3,0.3-0.3,0.4c-0.1,0.2-0.2,0.4-0.2,0.6l-0.9-0.3c0.1-0.2,0.2-0.5,0.3-0.7
			c0.1-0.2,0.3-0.4,0.5-0.6s0.5-0.3,0.8-0.4c0.3-0.1,0.7-0.2,1.1-0.2c0.4,0,0.8,0.1,1.1,0.2c0.3,0.1,0.6,0.3,0.8,0.5
			c0.2,0.2,0.4,0.5,0.5,0.8c0.1,0.3,0.2,0.6,0.2,1c0,0.3,0,0.6-0.1,0.9c-0.1,0.3-0.2,0.5-0.4,0.8c-0.2,0.3-0.4,0.5-0.6,0.7
			s-0.5,0.5-0.7,0.7l-2.3,2h4.4V247.3z"/>
		<path d="M55.2,242.6c-0.3,0-0.4-0.1-0.6-0.2c-0.1-0.1-0.2-0.3-0.2-0.5v-0.2c0-0.2,0.1-0.4,0.2-0.5c0.1-0.1,0.3-0.2,0.6-0.2
			s0.4,0.1,0.6,0.2c0.1,0.1,0.2,0.3,0.2,0.5v0.2c0,0.2-0.1,0.4-0.2,0.5C55.6,242.5,55.4,242.6,55.2,242.6z M55.2,247.4
			c-0.3,0-0.4-0.1-0.6-0.2c-0.1-0.1-0.2-0.3-0.2-0.5v-0.2c0-0.2,0.1-0.4,0.2-0.5c0.1-0.1,0.3-0.2,0.6-0.2s0.4,0.1,0.6,0.2
			c0.1,0.1,0.2,0.3,0.2,0.5v0.2c0,0.2-0.1,0.4-0.2,0.5C55.6,247.4,55.4,247.4,55.2,247.4z"/>
		<path d="M65.5,244c0.1-0.1,0.1-0.1,0.2-0.1c0.1,0,0.2,0,0.2,0.1c0.1,0.1,0.1,0.1,0.1,0.3v2.2h4.2c0.1,0,0.2,0,0.3,0.1
			c0.1,0.1,0.1,0.1,0.1,0.2s0,0.1-0.1,0.2s-0.1,0.1-0.2,0.1h-9.2c-0.1,0-0.2,0-0.2-0.1s-0.1-0.1-0.1-0.2s0-0.1,0.1-0.2
			c0.1-0.1,0.1-0.1,0.3-0.1h4.2v-2.3C65.4,244.1,65.4,244,65.5,244z M69.8,243.4c0,0.2-0.1,0.3-0.3,0.3h-7.6c-0.2,0-0.3-0.1-0.3-0.3
			c0-0.2,0.1-0.3,0.3-0.3h1.5l-0.4-3.2c0-0.1,0-0.2,0.1-0.3c0.1-0.1,0.1-0.1,0.2-0.1s0.2,0,0.2,0.1c0.1,0.1,0.1,0.1,0.1,0.2l0.4,3.3
			h3.3l0.4-3.2c0-0.1,0-0.2,0.1-0.2c0.1,0,0.2-0.1,0.2-0.1s0.2,0,0.2,0.1c0.1,0.1,0.1,0.2,0.1,0.3l-0.4,3.2h1.5
			C69.7,243.1,69.8,243.2,69.8,243.4z M69.7,238.5c0.1,0.1,0.1,0.1,0.1,0.2c0,0.1,0,0.1-0.1,0.2c-0.1,0.1-0.1,0.1-0.2,0.1H62
			c-0.2,0-0.3-0.1-0.3-0.3c0-0.2,0.1-0.3,0.3-0.3h7.5C69.6,238.4,69.7,238.4,69.7,238.5z"/>
		<path d="M78.3,238.5c0.1,0.1,0.1,0.1,0.1,0.2c0,0.1,0,0.1-0.1,0.2c-0.1,0.1-0.2,0.1-0.3,0.1h-3.5c-0.2,0-0.3,0-0.4,0.1
			c-0.1,0.1-0.1,0.2-0.1,0.4v2.5h3.6c0.2,0,0.3,0.1,0.3,0.3c0,0.2-0.1,0.3-0.3,0.3h-3.6v3.2c0,0.2,0,0.3,0.1,0.4
			c0.1,0.1,0.2,0.2,0.3,0.2c1,0,1.8-0.1,2.5-0.2c0.7-0.1,1.4-0.3,1.9-0.5c0.2-0.1,0.4,0,0.4,0.2c0.1,0.2,0,0.3-0.2,0.4
			c-0.5,0.2-1.2,0.4-2,0.5c-0.8,0.1-1.7,0.2-2.7,0.2c-0.4,0-0.7-0.1-0.9-0.3c-0.2-0.2-0.2-0.5-0.2-0.8v-6.2c0-0.3,0.1-0.6,0.3-0.8
			c0.2-0.2,0.5-0.4,0.9-0.4h3.5C78.2,238.5,78.3,238.5,78.3,238.5z M81.4,247.8c-0.1,0.1-0.1,0.1-0.2,0.1c-0.1,0-0.2,0-0.2-0.1
			c-0.1-0.1-0.1-0.2-0.1-0.3v-4.6h-1.9c-0.1,0-0.2,0-0.3-0.1c-0.1-0.1-0.1-0.1-0.1-0.2c0-0.1,0-0.1,0.1-0.2c0.1-0.1,0.1-0.1,0.2-0.1
			h2v-3.8c0-0.1,0-0.2,0.1-0.3c0.1-0.1,0.1-0.1,0.2-0.1c0.1,0,0.2,0,0.2,0.1c0.1,0.1,0.1,0.2,0.1,0.3v9
			C81.5,247.6,81.5,247.7,81.4,247.8z"/>
		<path d="M94.6,242.8c0,0.2-0.1,0.3-0.3,0.3h-9.2c-0.2,0-0.3-0.1-0.3-0.3c0-0.2,0.1-0.3,0.4-0.3h9.1
			C94.5,242.5,94.6,242.6,94.6,242.8z M93.4,244.3c0.2,0.1,0.3,0.3,0.3,0.6v0.6c0,0.2-0.1,0.4-0.2,0.6c-0.2,0.2-0.4,0.2-0.6,0.2
			h-5.9c-0.2,0-0.3,0-0.3,0.1c-0.1,0.1-0.1,0.2-0.1,0.3v0.3c0,0.1,0,0.2,0.1,0.2s0.2,0.1,0.3,0.1h6.6c0.1,0,0.2,0,0.3,0.1
			c0.1,0.1,0.1,0.1,0.1,0.2c0,0.1,0,0.1-0.1,0.2s-0.1,0.1-0.2,0.1h-6.9c-0.3,0-0.5-0.1-0.6-0.2c-0.1-0.1-0.2-0.3-0.2-0.6v-0.5
			c0-0.3,0.1-0.5,0.2-0.6c0.2-0.1,0.4-0.2,0.7-0.2h5.9c0.1,0,0.2,0,0.3-0.1c0.1,0,0.1-0.1,0.1-0.2V245c0-0.1,0-0.2-0.1-0.3
			c-0.1-0.1-0.2-0.1-0.4-0.1h-6.4c-0.2,0-0.4-0.1-0.4-0.3c0-0.2,0.1-0.3,0.4-0.3h6.5C92.9,244.1,93.2,244.1,93.4,244.3z M86.1,241.2
			c-0.2-0.2-0.3-0.4-0.3-0.7v-2c0-0.1,0-0.2,0.1-0.3c0.1-0.1,0.1-0.1,0.2-0.1c0.1,0,0.2,0,0.2,0.1c0.1,0.1,0.1,0.2,0.1,0.3v0.6H93
			v-0.7c0-0.1,0-0.2,0.1-0.3c0.1-0.1,0.1-0.1,0.2-0.1c0.1,0,0.2,0,0.2,0.1c0.1,0.1,0.1,0.1,0.1,0.3v2c0,0.3-0.1,0.5-0.3,0.7
			c-0.2,0.2-0.5,0.3-0.8,0.3h-5.8C86.5,241.4,86.3,241.3,86.1,241.2z M86.5,239.7v0.7c0,0.1,0,0.2,0.1,0.3c0.1,0.1,0.2,0.1,0.4,0.1
			h5.5c0.2,0,0.3,0,0.4-0.1c0.1-0.1,0.1-0.2,0.1-0.3v-0.7H86.5z"/>
		<path d="M102.7,238.4c0.1-0.1,0.1-0.1,0.2-0.1s0.2,0,0.2,0.1c0.1,0.1,0.1,0.1,0.1,0.3c0,0.4,0,0.8-0.1,1.3
			c-0.1,0.5-0.1,0.9-0.2,1.3c0.6,0.8,1.2,1.6,1.7,2.6c0.5,0.9,0.9,1.7,1.2,2.5c0,0.1,0.1,0.2,0,0.3c0,0.1-0.1,0.1-0.2,0.2
			c-0.1,0-0.2,0-0.2,0s-0.2-0.1-0.2-0.2c-0.3-0.8-0.7-1.6-1.1-2.4c-0.5-1-1-1.8-1.4-2.3c-0.3,1-0.6,1.8-1,2.6
			c-0.4,0.8-0.9,1.6-1.5,2.3c-0.1,0.1-0.2,0.1-0.2,0.1c-0.1,0-0.2,0-0.2-0.1c-0.1-0.1-0.1-0.1-0.1-0.2c0-0.1,0-0.2,0.1-0.3
			c0.9-1,1.6-2.3,2.1-3.8c0.4-1.3,0.6-2.6,0.6-3.9C102.6,238.6,102.6,238.5,102.7,238.4z M109.3,242.7c0.2,0,0.3,0.1,0.3,0.3
			c0,0.2-0.1,0.3-0.3,0.3H108v4.3c0,0.1,0,0.2-0.1,0.2c-0.1,0.1-0.1,0.1-0.2,0.1s-0.2,0-0.2-0.1c-0.1-0.1-0.1-0.1-0.1-0.2v-9.1
			c0-0.1,0-0.2,0.1-0.2c0.1,0,0.1-0.1,0.2-0.1s0.2,0,0.2,0.1c0.1,0.1,0.1,0.1,0.1,0.2v4.3H109.3z"/>
		<path d="M114.6,238.4c0.1-0.1,0.2-0.1,0.2-0.1c0.1,0,0.2,0,0.2,0.1c0.1,0.1,0.1,0.2,0.1,0.3c0,0.2,0,0.5-0.1,0.8
			c-0.1,0.3-0.2,0.5-0.3,0.8c0.6,0.3,1.1,0.7,1.6,1.1c0.4,0.3,0.9,0.8,1.4,1.3c0.1,0.1,0.1,0.2,0.1,0.3c0,0.1,0,0.2-0.1,0.2
			c-0.1,0.1-0.2,0.1-0.2,0.1c-0.1,0-0.2-0.1-0.3-0.1c-0.4-0.5-0.9-1-1.4-1.4c-0.4-0.3-0.8-0.6-1.4-1c-0.2,0.5-0.5,0.9-0.9,1.3
			c-0.4,0.4-0.8,0.9-1.4,1.3c-0.1,0.1-0.2,0.1-0.3,0.1c-0.1,0-0.2,0-0.2-0.1c-0.1-0.1-0.1-0.1-0.1-0.2c0-0.1,0.1-0.2,0.2-0.2
			c0.9-0.7,1.5-1.4,2-2.3c0.4-0.7,0.6-1.4,0.6-2C114.5,238.5,114.5,238.4,114.6,238.4z M120.1,244.1c0.2,0.2,0.3,0.4,0.3,0.6v0.5
			c0,0.2-0.1,0.4-0.3,0.6s-0.4,0.2-0.7,0.2h-5.6c-0.2,0-0.3,0-0.3,0.1c-0.1,0.1-0.1,0.2-0.1,0.3v0.5c0,0.1,0,0.2,0.1,0.2
			c0.1,0,0.2,0.1,0.3,0.1h6.4c0.1,0,0.2,0,0.3,0.1c0.1,0.1,0.1,0.1,0.1,0.2c0,0.1,0,0.1-0.1,0.2s-0.1,0.1-0.2,0.1h-6.7
			c-0.3,0-0.5-0.1-0.6-0.2c-0.2-0.2-0.3-0.4-0.3-0.6v-0.7c0-0.3,0.1-0.5,0.2-0.6s0.4-0.2,0.6-0.2h5.6c0.1,0,0.2,0,0.3-0.1
			c0.1,0,0.1-0.1,0.1-0.2v-0.3c0-0.1,0-0.2-0.1-0.3s-0.2-0.1-0.4-0.1h-6.1c-0.2,0-0.4-0.1-0.4-0.3c0-0.2,0.1-0.3,0.4-0.3h6.2
			C119.6,243.8,119.9,243.9,120.1,244.1z M120.2,243.1c-0.1,0.1-0.1,0.1-0.2,0.1c-0.1,0-0.2,0-0.2-0.1c-0.1-0.1-0.1-0.1-0.1-0.2v-2
			h-3c-0.1,0-0.2,0-0.3-0.1c-0.1-0.1-0.1-0.1-0.1-0.2s0-0.1,0.1-0.2c0.1-0.1,0.2-0.1,0.3-0.1h3v-1.8c0-0.1,0-0.2,0.1-0.2
			c0.1-0.1,0.1-0.1,0.2-0.1c0.1,0,0.2,0,0.2,0.1c0.1,0.1,0.1,0.1,0.1,0.2v4.4C120.3,243,120.3,243,120.2,243.1z"/>
		<path d="M136.3,244.1c0,0.2-0.1,0.3-0.3,0.3h-4.3v3.1c0,0.1,0,0.2-0.1,0.3c-0.1,0.1-0.1,0.1-0.2,0.1c-0.1,0-0.2,0-0.2-0.1
			c-0.1-0.1-0.1-0.2-0.1-0.3v-3.1h-4.3c-0.2,0-0.3-0.1-0.3-0.3c0-0.2,0.1-0.3,0.3-0.3h9.1C136.2,243.8,136.3,243.9,136.3,244.1z
			 M135.5,238.7c0,0.2-0.1,0.3-0.3,0.3h-3.5v0.4c0,0.7,0.4,1.3,1.1,1.7c0.7,0.5,1.7,0.8,2.7,0.8c0.1,0,0.2,0,0.3,0.1
			c0.1,0.1,0.1,0.1,0.1,0.2s0,0.2-0.1,0.2c-0.1,0.1-0.1,0.1-0.3,0.1c-1-0.1-2-0.3-2.8-0.8c-0.7-0.4-1.2-0.9-1.4-1.4
			c-0.2,0.5-0.7,1-1.4,1.4c-0.8,0.4-1.7,0.7-2.7,0.8c-0.1,0-0.2,0-0.3-0.1c-0.1-0.1-0.1-0.1-0.1-0.2c0-0.1,0-0.2,0.1-0.2
			c0.1-0.1,0.2-0.1,0.3-0.1c1.1-0.1,2-0.3,2.7-0.8c0.7-0.5,1.1-1.1,1.1-1.8V239h-3.4c-0.2,0-0.3-0.1-0.3-0.3c0-0.2,0.1-0.3,0.3-0.3
			h7.6C135.4,238.4,135.5,238.5,135.5,238.7z"/>
		<path d="M143.2,243.8c0.1-0.1,0.1-0.1,0.2-0.1c0.1,0,0.2,0,0.2,0.1c0.1,0.1,0.1,0.1,0.1,0.3v2.4h4.2c0.1,0,0.2,0,0.3,0.1
			c0.1,0.1,0.1,0.1,0.1,0.2s0,0.1-0.1,0.2s-0.1,0.1-0.2,0.1h-9.2c-0.1,0-0.2,0-0.2-0.1s-0.1-0.1-0.1-0.2s0-0.1,0.1-0.2
			c0.1-0.1,0.1-0.1,0.3-0.1h4.2v-2.4C143.1,244,143.1,243.9,143.2,243.8z M143.2,238.3c0.1-0.1,0.1-0.1,0.2-0.1c0.1,0,0.2,0,0.2,0.1
			c0.1,0.1,0.1,0.2,0.1,0.3c0,1.2,0.4,2.2,1.2,3.1c0.7,0.7,1.6,1.2,2.6,1.4c0.1,0,0.2,0.1,0.3,0.2c0.1,0.1,0.1,0.1,0,0.2
			c0,0.1-0.1,0.2-0.1,0.2c-0.1,0-0.2,0.1-0.3,0c-0.9-0.2-1.7-0.6-2.5-1.3c-0.7-0.7-1.2-1.4-1.5-2.2c-0.2,0.8-0.7,1.5-1.5,2.2
			c-0.8,0.7-1.6,1.2-2.6,1.3c-0.1,0-0.2,0-0.3,0c-0.1,0-0.1-0.1-0.1-0.2c0-0.1,0-0.2,0.1-0.2c0.1-0.1,0.1-0.1,0.3-0.2
			c1-0.2,1.8-0.7,2.5-1.4c0.8-0.9,1.3-1.9,1.3-3.1C143.1,238.5,143.1,238.4,143.2,238.3z"/>
	</g>
</g>
<g>
	<g>
		<g>
			<g>
				<g>
					<rect x="272.1" y="81.7" class="st1" width="34.5" height="21.2"/>
					<rect x="276.2" y="102.9" class="st1" width="13.3" height="5.1"/>
				</g>
				<rect x="277.2" y="102.9" class="st2" width="1" height="4.4"/>
				<rect x="279.2" y="102.9" class="st2" width="1" height="4.4"/>
				<rect x="281.3" y="102.9" class="st2" width="1" height="4.4"/>
				<rect x="283.3" y="102.9" class="st2" width="1" height="4.4"/>
				<rect x="285.4" y="102.9" class="st2" width="1" height="4.4"/>
				<rect x="287.4" y="102.9" class="st2" width="1" height="4.4"/>
			</g>
			<g>
				<rect x="271" y="80" class="st3" width="1" height="24.6"/>
				<rect x="269" y="80" class="st3" width="2" height="1.1"/>
			</g>
		</g>
		<rect x="278.9" y="89.9" class="st4" width="5.5" height="3.4"/>
		<rect x="293.9" y="87.9" class="st4" width="5.5" height="2"/>
		<rect x="286.1" y="85.1" class="st4" width="5.5" height="2"/>
		<rect x="278.9" y="96.4" class="st4" width="5.5" height="3.4"/>
		<rect x="293.9" y="93.3" class="st4" width="5.5" height="3.4"/>
	</g>
	<rect x="272.1" y="97.8" class="st2" width="6.8" height="0.7"/>
	<rect x="272.1" y="88.5" class="st2" width="8.2" height="0.7"/>
	<rect x="281" y="85.8" class="st2" width="5.1" height="0.7"/>
	
		<rect x="278.9" y="87.2" transform="matrix(6.123234e-017 -1 1 6.123234e-017 193.0975 368.1219)" class="st2" width="3.4" height="0.7"/>
	
		<rect x="289.7" y="90.1" transform="matrix(6.123234e-017 -1 1 6.123234e-017 200.7805 381.6097)" class="st2" width="3.1" height="0.7"/>
	
		<rect x="276.2" y="89.6" transform="matrix(6.123234e-017 -1 1 6.123234e-017 187.6341 367.439)" class="st2" width="2.7" height="0.7"/>
	
		<rect x="289.1" y="95.7" transform="matrix(6.123234e-017 -1 1 6.123234e-017 194.8048 386.9024)" class="st2" width="3.4" height="0.7"/>
	
		<rect x="290.5" y="97.4" transform="matrix(6.123234e-017 -1 1 6.123234e-017 194.4634 389.9756)" class="st2" width="3.4" height="0.7"/>
	<rect x="277.2" y="91.3" class="st2" width="1.7" height="0.7"/>
	<rect x="284.4" y="98.8" class="st2" width="7.5" height="0.7"/>
	<rect x="284.4" y="97.1" class="st2" width="6.8" height="0.7"/>
	<rect x="290.5" y="94" class="st2" width="3.4" height="0.7"/>
	<rect x="290.9" y="88.5" class="st2" width="3.1" height="0.7"/>
	<rect x="291.9" y="95.4" class="st2" width="2" height="0.7"/>
	<rect x="284.4" y="91.3" class="st2" width="6.8" height="0.7"/>
</g>
<g>
	<g>
		<g>
			<g>
				<g>
					<rect x="271.1" y="131.7" class="st1" width="34.5" height="21.2"/>
					<rect x="275.2" y="152.9" class="st1" width="13.3" height="5.1"/>
				</g>
				<rect x="276.2" y="152.9" class="st2" width="1" height="4.4"/>
				<rect x="278.2" y="152.9" class="st2" width="1" height="4.4"/>
				<rect x="280.3" y="152.9" class="st2" width="1" height="4.4"/>
				<rect x="282.3" y="152.9" class="st2" width="1" height="4.4"/>
				<rect x="284.4" y="152.9" class="st2" width="1" height="4.4"/>
				<rect x="286.4" y="152.9" class="st2" width="1" height="4.4"/>
			</g>
			<g>
				<rect x="270" y="130" class="st3" width="1" height="24.6"/>
				<rect x="268" y="130" class="st3" width="2" height="1.1"/>
			</g>
		</g>
		<rect x="277.9" y="139.9" class="st4" width="5.5" height="3.4"/>
		<rect x="292.9" y="137.9" class="st4" width="5.5" height="2"/>
		<rect x="285.1" y="135.1" class="st4" width="5.5" height="2"/>
		<rect x="277.9" y="146.4" class="st4" width="5.5" height="3.4"/>
		<rect x="292.9" y="143.3" class="st4" width="5.5" height="3.4"/>
	</g>
	<rect x="271.1" y="147.8" class="st2" width="6.8" height="0.7"/>
	<rect x="271.1" y="138.5" class="st2" width="8.2" height="0.7"/>
	<rect x="280" y="135.8" class="st2" width="5.1" height="0.7"/>
	
		<rect x="277.9" y="137.2" transform="matrix(6.123234e-017 -1 1 6.123234e-017 142.0975 417.1219)" class="st2" width="3.4" height="0.7"/>
	
		<rect x="288.7" y="140.1" transform="matrix(6.123234e-017 -1 1 6.123234e-017 149.7805 430.6097)" class="st2" width="3.1" height="0.7"/>
	
		<rect x="275.2" y="139.6" transform="matrix(6.123234e-017 -1 1 6.123234e-017 136.6341 416.439)" class="st2" width="2.7" height="0.7"/>
	
		<rect x="288.1" y="145.7" transform="matrix(6.123234e-017 -1 1 6.123234e-017 143.8048 435.9024)" class="st2" width="3.4" height="0.7"/>
	
		<rect x="289.5" y="147.4" transform="matrix(6.123234e-017 -1 1 6.123234e-017 143.4634 438.9756)" class="st2" width="3.4" height="0.7"/>
	<rect x="276.2" y="141.3" class="st2" width="1.7" height="0.7"/>
	<rect x="283.4" y="148.8" class="st2" width="7.5" height="0.7"/>
	<rect x="283.4" y="147.1" class="st2" width="6.8" height="0.7"/>
	<rect x="289.5" y="144" class="st2" width="3.4" height="0.7"/>
	<rect x="289.9" y="138.5" class="st2" width="3.1" height="0.7"/>
	<rect x="290.9" y="145.4" class="st2" width="2" height="0.7"/>
	<rect x="283.4" y="141.3" class="st2" width="6.8" height="0.7"/>
</g>
<g>
	<path d="M183.8,29.2c-0.8,0-1.5-0.2-2-0.5s-1-0.7-1.4-1.3l0.9-0.7c0.3,0.5,0.7,0.8,1.1,1c0.4,0.2,0.9,0.4,1.5,0.4
		c0.7,0,1.2-0.2,1.6-0.5s0.6-0.8,0.6-1.3c0-0.5-0.1-0.8-0.4-1.1c-0.3-0.3-0.7-0.5-1.4-0.6l-0.8-0.2c-0.9-0.2-1.6-0.5-2.1-0.9
		c-0.5-0.4-0.7-1-0.7-1.8c0-0.4,0.1-0.8,0.2-1.1s0.4-0.6,0.7-0.8c0.3-0.2,0.6-0.4,1-0.5c0.4-0.1,0.8-0.2,1.3-0.2
		c0.7,0,1.4,0.1,1.9,0.4c0.5,0.3,1,0.7,1.3,1.2l-0.9,0.6c-0.3-0.4-0.6-0.7-1-0.9c-0.4-0.2-0.9-0.3-1.4-0.3c-0.6,0-1.1,0.1-1.5,0.4
		s-0.5,0.7-0.5,1.2c0,0.5,0.2,0.8,0.5,1.1s0.8,0.4,1.4,0.6l0.8,0.2c1,0.2,1.7,0.5,2.1,1c0.4,0.4,0.6,1,0.6,1.8
		c0,0.4-0.1,0.9-0.2,1.2c-0.2,0.4-0.4,0.7-0.7,0.9c-0.3,0.3-0.6,0.4-1.1,0.6C184.8,29.1,184.4,29.2,183.8,29.2z"/>
	<path d="M189.2,19.2h3.3c0.6,0,1.2,0.1,1.7,0.3s0.9,0.5,1.3,0.9c0.4,0.4,0.6,0.9,0.8,1.5c0.2,0.6,0.3,1.3,0.3,2.1s-0.1,1.5-0.3,2.1
		c-0.2,0.6-0.5,1.1-0.8,1.5c-0.4,0.4-0.8,0.7-1.3,0.9c-0.5,0.2-1,0.3-1.7,0.3h-3.3V19.2z M192.5,28c0.4,0,0.8-0.1,1.1-0.2
		s0.6-0.3,0.9-0.6s0.4-0.6,0.6-1c0.1-0.4,0.2-0.8,0.2-1.3v-1.6c0-0.5-0.1-0.9-0.2-1.3c-0.1-0.4-0.3-0.7-0.6-1s-0.5-0.5-0.9-0.6
		c-0.3-0.1-0.7-0.2-1.1-0.2h-2.1V28H192.5z"/>
	<path d="M198.6,19.2h3.3c0.6,0,1.2,0.1,1.7,0.3s0.9,0.5,1.3,0.9c0.4,0.4,0.6,0.9,0.8,1.5c0.2,0.6,0.3,1.3,0.3,2.1s-0.1,1.5-0.3,2.1
		c-0.2,0.6-0.5,1.1-0.8,1.5c-0.4,0.4-0.8,0.7-1.3,0.9c-0.5,0.2-1,0.3-1.7,0.3h-3.3V19.2z M201.9,28c0.4,0,0.8-0.1,1.1-0.2
		s0.6-0.3,0.9-0.6s0.4-0.6,0.6-1c0.1-0.4,0.2-0.8,0.2-1.3v-1.6c0-0.5-0.1-0.9-0.2-1.3c-0.1-0.4-0.3-0.7-0.6-1s-0.5-0.5-0.9-0.6
		c-0.3-0.1-0.7-0.2-1.1-0.2h-2.1V28H201.9z"/>
	<path d="M211.5,29.2c-1.2,0-2.2-0.4-2.9-1.3c-0.7-0.8-1-2.1-1-3.7c0-1.6,0.3-2.9,1-3.8c0.7-0.9,1.7-1.3,2.9-1.3
		c0.8,0,1.5,0.2,2.1,0.6c0.6,0.4,1,0.9,1.3,1.6l-1,0.6c-0.2-0.5-0.5-0.9-0.9-1.2c-0.4-0.3-0.9-0.5-1.5-0.5c-0.4,0-0.8,0.1-1.1,0.2
		c-0.3,0.2-0.6,0.4-0.8,0.7c-0.2,0.3-0.4,0.6-0.5,1.1c-0.1,0.4-0.2,0.9-0.2,1.4v1.5c0,1,0.2,1.8,0.7,2.4c0.5,0.6,1.1,0.9,2,0.9
		c0.6,0,1.1-0.2,1.6-0.5c0.4-0.3,0.7-0.7,0.9-1.3l0.9,0.6c-0.3,0.7-0.8,1.2-1.3,1.6C213,29,212.3,29.2,211.5,29.2z"/>
	<path d="M216.1,25.3v-1.2h3.7v1.2H216.1z"/>
	<path d="M222,19.2h3.3c0.6,0,1.2,0.1,1.7,0.3c0.5,0.2,0.9,0.5,1.3,0.9c0.3,0.4,0.6,0.9,0.8,1.5s0.3,1.3,0.3,2.1s-0.1,1.5-0.3,2.1
		s-0.5,1.1-0.8,1.5c-0.3,0.4-0.8,0.7-1.3,0.9c-0.5,0.2-1,0.3-1.7,0.3H222V19.2z M225.3,28c0.4,0,0.8-0.1,1.1-0.2s0.6-0.3,0.9-0.6
		c0.2-0.3,0.4-0.6,0.6-1c0.1-0.4,0.2-0.8,0.2-1.3v-1.6c0-0.5-0.1-0.9-0.2-1.3c-0.1-0.4-0.3-0.7-0.6-1c-0.2-0.3-0.5-0.5-0.9-0.6
		c-0.3-0.1-0.7-0.2-1.1-0.2h-2.1V28H225.3z"/>
	<path d="M233.5,29.2c-0.7,0-1.2-0.1-1.7-0.4c-0.5-0.3-0.8-0.6-1.2-1l0.8-0.6c0.3,0.4,0.6,0.6,0.9,0.8c0.3,0.2,0.7,0.3,1.2,0.3
		c0.5,0,0.8-0.1,1.1-0.3c0.3-0.2,0.4-0.5,0.4-0.9c0-0.3-0.1-0.5-0.3-0.7c-0.2-0.2-0.5-0.3-1-0.4l-0.6-0.1c-0.3,0-0.6-0.1-0.9-0.2
		c-0.3-0.1-0.5-0.2-0.7-0.4c-0.2-0.2-0.4-0.4-0.5-0.6c-0.1-0.2-0.2-0.5-0.2-0.9c0-0.4,0.1-0.7,0.2-0.9c0.1-0.3,0.3-0.5,0.5-0.7
		c0.2-0.2,0.5-0.3,0.8-0.4c0.3-0.1,0.7-0.1,1-0.1c0.6,0,1.1,0.1,1.5,0.3c0.4,0.2,0.7,0.5,1,0.9l-0.7,0.7c-0.2-0.2-0.4-0.4-0.7-0.6
		c-0.3-0.2-0.7-0.3-1.2-0.3s-0.8,0.1-1.1,0.3c-0.2,0.2-0.4,0.5-0.4,0.8c0,0.4,0.1,0.6,0.4,0.8c0.2,0.2,0.6,0.3,1,0.3l0.6,0.1
		c0.8,0.1,1.4,0.4,1.7,0.7s0.5,0.8,0.5,1.3c0,0.7-0.2,1.3-0.7,1.7C235,29,234.3,29.2,233.5,29.2z"/>
	<path d="M237.2,21.8h1.1l0.8,3.1l0.8,3.2h0l0.9-3.2l0.9-3.1h1l0.9,3.1l0.9,3.2h0l0.7-3.2l0.8-3.1h1.1l-1.9,7.2h-1.4l-1-3.5
		l-0.6-2.2h0l-0.6,2.2l-1,3.5h-1.4L237.2,21.8z"/>
	<path d="M249.3,20.1c-0.2,0-0.4-0.1-0.5-0.2s-0.2-0.3-0.2-0.5v-0.2c0-0.2,0.1-0.3,0.2-0.5s0.3-0.2,0.5-0.2c0.2,0,0.4,0.1,0.5,0.2
		c0.1,0.1,0.2,0.3,0.2,0.5v0.2c0,0.2-0.1,0.3-0.2,0.5C249.7,20,249.6,20.1,249.3,20.1z M248.8,21.8h1.1V29h-1.1V21.8z"/>
	<path d="M253.8,29c-0.4,0-0.7-0.1-0.9-0.3c-0.2-0.2-0.3-0.5-0.3-0.9v-5h-1.2v-1h0.7c0.2,0,0.4,0,0.5-0.1s0.1-0.3,0.1-0.5v-1.3h1v2
		h1.6v1h-1.6V28h1.5v1H253.8z"/>
	<path d="M259.8,29.2c-0.5,0-1-0.1-1.4-0.3s-0.7-0.4-1-0.8s-0.5-0.7-0.6-1.2s-0.2-1-0.2-1.6s0.1-1.1,0.2-1.6
		c0.1-0.5,0.4-0.9,0.6-1.2c0.3-0.3,0.6-0.6,1-0.8s0.9-0.3,1.4-0.3c0.7,0,1.3,0.2,1.7,0.5c0.4,0.3,0.8,0.7,1,1.2l-0.9,0.5
		c-0.1-0.4-0.3-0.7-0.6-0.9c-0.3-0.2-0.7-0.3-1.1-0.3c-0.3,0-0.6,0.1-0.9,0.2s-0.5,0.3-0.6,0.4c-0.2,0.2-0.3,0.4-0.4,0.7
		s-0.1,0.6-0.1,0.9V26c0,0.6,0.2,1.2,0.5,1.6c0.3,0.4,0.8,0.6,1.5,0.6c0.9,0,1.6-0.4,2-1.3l0.8,0.5c-0.2,0.5-0.6,0.9-1,1.2
		C261.1,29,260.5,29.2,259.8,29.2z"/>
	<path d="M264.2,18.6h1.1v4.3h0.1c0.2-0.4,0.4-0.7,0.7-1c0.3-0.2,0.8-0.4,1.3-0.4c0.7,0,1.3,0.2,1.8,0.7c0.4,0.5,0.7,1.2,0.7,2V29
		h-1.1v-4.4c0-1.3-0.5-2-1.6-2c-0.2,0-0.4,0-0.7,0.1c-0.2,0.1-0.4,0.1-0.6,0.3s-0.3,0.3-0.4,0.4s-0.1,0.4-0.1,0.6v5h-1.1V18.6z"/>
	<path d="M271.9,25.3v-1.2h3.7v1.2H271.9z"/>
	<path d="M277.8,29v-9.8h3.9c0.9,0,1.6,0.3,2,0.7c0.5,0.5,0.7,1.2,0.7,2.1c0,0.9-0.2,1.6-0.7,2.1s-1.1,0.7-2,0.7H279V29H277.8z
		 M279,23.8h2.7c0.5,0,0.8-0.1,1.1-0.4c0.3-0.2,0.4-0.6,0.4-1v-0.7c0-0.4-0.1-0.8-0.4-1c-0.3-0.2-0.6-0.4-1.1-0.4H279V23.8z"/>
	<path d="M286,29v-7.2h1.1v1.3h0.1c0.1-0.3,0.4-0.7,0.7-0.9s0.8-0.4,1.4-0.4h0.4v1.1h-0.7c-0.6,0-1.1,0.1-1.4,0.3
		c-0.3,0.2-0.5,0.5-0.5,0.9V29H286z"/>
	<path d="M291.7,20.1c-0.2,0-0.4-0.1-0.5-0.2s-0.2-0.3-0.2-0.5v-0.2c0-0.2,0.1-0.3,0.2-0.5s0.3-0.2,0.5-0.2c0.2,0,0.4,0.1,0.5,0.2
		c0.1,0.1,0.2,0.3,0.2,0.5v0.2c0,0.2-0.1,0.3-0.2,0.5C292.2,20,292,20.1,291.7,20.1z M291.2,21.8h1.1V29h-1.1V21.8z"/>
	<path d="M296.3,29l-2.5-7.2h1.1l1.3,3.6l0.8,2.5h0.1l0.8-2.5l1.3-3.6h1.1l-2.5,7.2H296.3z"/>
	<path d="M306.7,29c-0.4,0-0.7-0.1-0.9-0.3s-0.3-0.5-0.3-0.8h-0.1c-0.2,0.4-0.4,0.8-0.8,1s-0.8,0.3-1.3,0.3c-0.8,0-1.4-0.2-1.8-0.6
		s-0.6-0.9-0.6-1.6c0-0.7,0.2-1.2,0.7-1.6c0.5-0.4,1.3-0.5,2.3-0.5h1.4v-0.7c0-0.5-0.1-0.9-0.4-1.2c-0.3-0.3-0.7-0.4-1.3-0.4
		c-0.4,0-0.8,0.1-1.1,0.3c-0.3,0.2-0.5,0.5-0.7,0.8l-0.7-0.6c0.2-0.4,0.5-0.7,0.9-1c0.4-0.3,1-0.4,1.6-0.4c0.9,0,1.6,0.2,2,0.6
		c0.5,0.4,0.7,1,0.7,1.8v4h0.8v1H306.7z M303.5,28.2c0.3,0,0.5,0,0.8-0.1s0.4-0.2,0.6-0.3c0.2-0.1,0.3-0.3,0.4-0.4
		c0.1-0.2,0.1-0.3,0.1-0.5v-1.2h-1.5c-0.6,0-1.1,0.1-1.4,0.3c-0.3,0.2-0.4,0.5-0.4,0.8v0.3c0,0.4,0.1,0.6,0.4,0.8
		C302.7,28.1,303,28.2,303.5,28.2z"/>
	<path d="M310.5,29c-0.4,0-0.7-0.1-0.9-0.3c-0.2-0.2-0.3-0.5-0.3-0.9v-5h-1.2v-1h0.7c0.2,0,0.4,0,0.5-0.1s0.1-0.3,0.1-0.5v-1.3h1v2
		h1.6v1h-1.6V28h1.5v1H310.5z"/>
	<path d="M316.5,29.2c-0.5,0-0.9-0.1-1.3-0.3c-0.4-0.2-0.7-0.4-1-0.8c-0.3-0.3-0.5-0.7-0.7-1.2c-0.2-0.5-0.2-1-0.2-1.6
		c0-0.6,0.1-1.1,0.2-1.6c0.2-0.5,0.4-0.9,0.7-1.2c0.3-0.3,0.6-0.6,1-0.8c0.4-0.2,0.8-0.3,1.3-0.3c0.5,0,0.9,0.1,1.3,0.3
		s0.7,0.4,1,0.7c0.3,0.3,0.5,0.7,0.6,1.1c0.1,0.4,0.2,0.9,0.2,1.4v0.5h-5.2V26c0,0.3,0,0.6,0.1,0.9c0.1,0.3,0.2,0.5,0.4,0.7
		c0.2,0.2,0.4,0.4,0.7,0.5c0.3,0.1,0.6,0.2,0.9,0.2c0.5,0,0.9-0.1,1.2-0.3s0.6-0.5,0.8-0.9l0.8,0.6c-0.2,0.5-0.6,0.9-1.1,1.2
		S317.2,29.2,316.5,29.2z M316.5,22.5c-0.3,0-0.6,0.1-0.8,0.2c-0.3,0.1-0.5,0.3-0.7,0.5s-0.3,0.4-0.4,0.7c-0.1,0.3-0.2,0.6-0.2,0.9
		v0.1h4v-0.2c0-0.6-0.2-1.2-0.5-1.5C317.5,22.7,317.1,22.5,316.5,22.5z"/>
</g>
<g>
	<path d="M322.3,95.5L322.3,95.5c-0.1,0.1-0.2,0.3-0.3,0.4s-0.2,0.3-0.3,0.4s-0.3,0.2-0.5,0.3c-0.2,0.1-0.4,0.1-0.7,0.1
		c-0.6,0-1.1-0.2-1.5-0.6c-0.4-0.4-0.6-1-0.6-1.7v-4h1v3.8c0,1.1,0.5,1.7,1.4,1.7c0.2,0,0.4,0,0.6-0.1c0.2,0,0.3-0.1,0.5-0.2
		s0.3-0.2,0.3-0.4s0.1-0.3,0.1-0.5v-4.3h1v6.2h-1V95.5z"/>
	<path d="M325.3,90.3h1v1h0c0.2-0.4,0.4-0.7,0.7-0.9c0.3-0.2,0.7-0.3,1.1-0.3c0.4,0,0.7,0.1,1,0.2c0.3,0.2,0.6,0.4,0.8,0.6
		c0.2,0.3,0.4,0.6,0.5,1c0.1,0.4,0.2,0.8,0.2,1.3c0,0.5-0.1,0.9-0.2,1.3c-0.1,0.4-0.3,0.7-0.5,1c-0.2,0.3-0.5,0.5-0.8,0.6
		c-0.3,0.2-0.7,0.2-1,0.2c-0.8,0-1.4-0.4-1.8-1.1h0v3.4h-1V90.3z M327.9,95.8c0.5,0,1-0.2,1.3-0.5c0.3-0.3,0.5-0.8,0.5-1.3v-1.1
		c0-0.6-0.2-1-0.5-1.3c-0.3-0.3-0.7-0.5-1.3-0.5c-0.2,0-0.4,0-0.6,0.1c-0.2,0.1-0.4,0.1-0.5,0.2c-0.1,0.1-0.3,0.2-0.3,0.4
		c-0.1,0.1-0.1,0.3-0.1,0.5v2.3c0,0.2,0,0.4,0.1,0.5s0.2,0.3,0.3,0.4c0.1,0.1,0.3,0.2,0.5,0.2S327.7,95.8,327.9,95.8z"/>
	<path d="M333.3,96.5c-0.3,0-0.6-0.1-0.8-0.3c-0.2-0.2-0.3-0.4-0.3-0.7v-7.9h1v8h0.9v0.9H333.3z"/>
	<path d="M336,88.9c-0.2,0-0.4,0-0.5-0.1s-0.1-0.2-0.1-0.4v-0.2c0-0.2,0-0.3,0.1-0.4s0.2-0.1,0.5-0.1s0.4,0,0.5,0.1s0.1,0.2,0.1,0.4
		v0.2c0,0.2,0,0.3-0.1,0.4S336.2,88.9,336,88.9z M335.6,90.3h1v6.2h-1V90.3z"/>
	<path d="M338.6,96.5v-6.2h1v1h0c0.2-0.3,0.4-0.6,0.6-0.8c0.3-0.2,0.6-0.3,1.1-0.3c0.6,0,1.1,0.2,1.5,0.6s0.6,1,0.6,1.7v4h-1v-3.8
		c0-1.1-0.5-1.7-1.4-1.7c-0.2,0-0.4,0-0.6,0.1c-0.2,0-0.3,0.1-0.5,0.2c-0.1,0.1-0.3,0.2-0.3,0.4s-0.1,0.3-0.1,0.5v4.3H338.6z"/>
	<path d="M345.4,87.6h1v5.6h0l0.9-1.1l1.8-1.9h1.2l-2.3,2.4l2.5,3.7h-1.2l-2.1-3.2l-0.9,0.9v2.2h-1V87.6z"/>
	<path d="M351.7,96.5v-0.9h2.3v-6.7H354l-2.1,2l-0.6-0.6l2.2-2.1h1.6v7.5h2.2v0.9H351.7z"/>
	<path d="M358.9,92.8c0-0.6,0.1-1.1,0.2-1.7c0.1-0.5,0.3-1,0.5-1.5s0.4-0.9,0.7-1.3c0.3-0.4,0.5-0.7,0.9-1h0.9
		c-0.3,0.3-0.6,0.6-0.9,1c-0.3,0.4-0.5,0.8-0.7,1.2c-0.2,0.4-0.3,0.9-0.4,1.3c-0.1,0.4-0.2,0.9-0.2,1.3v1c0,0.4,0.1,0.9,0.2,1.3
		c0.1,0.4,0.3,0.9,0.4,1.3s0.4,0.8,0.7,1.2c0.3,0.4,0.6,0.7,0.9,1H361c-0.3-0.2-0.6-0.6-0.8-0.9s-0.5-0.8-0.7-1.3
		c-0.2-0.5-0.4-1-0.5-1.5S358.9,93.3,358.9,92.8z"/>
	<path d="M363,96.5v-0.9h2.3v-6.7h-0.1l-2.1,2l-0.6-0.6l2.2-2.1h1.6v7.5h2.2v0.9H363z"/>
	<path d="M372.2,91.4l-1-1.9h0v7h-1v-8.4h1.2l3.1,5.1l1,1.9h0v-7h1v8.4h-1.2L372.2,91.4z"/>
	<path d="M378.3,96.5v-0.8h1.2V89h-1.2v-0.8h3.4V89h-1.2v6.7h1.2v0.8H378.3z"/>
	<path d="M386.5,96.6c-1.1,0-1.9-0.4-2.5-1.1s-0.9-1.8-0.9-3.2c0-1.4,0.3-2.5,0.9-3.2c0.6-0.8,1.4-1.1,2.5-1.1
		c0.7,0,1.3,0.2,1.8,0.5s0.8,0.8,1.1,1.4l-0.8,0.5c-0.2-0.4-0.4-0.8-0.8-1c-0.3-0.3-0.8-0.4-1.3-0.4c-0.4,0-0.7,0.1-1,0.2
		c-0.3,0.1-0.5,0.3-0.7,0.6c-0.2,0.3-0.3,0.6-0.5,0.9c-0.1,0.3-0.2,0.7-0.2,1.2V93c0,0.9,0.2,1.5,0.6,2s1,0.7,1.7,0.7
		c0.5,0,1-0.1,1.3-0.4c0.4-0.3,0.6-0.6,0.8-1.1l0.8,0.5c-0.3,0.6-0.6,1.1-1.1,1.4S387.2,96.6,386.5,96.6z"/>
	<path d="M398.8,88.9c0.4,0.8,0.7,1.8,0.7,3c0,1.2-0.2,2.2-0.7,3c-0.5,0.9-1.1,1.3-2,1.3c-0.9,0-1.5-0.4-2-1.3
		c-0.4-0.8-0.7-1.8-0.7-3c0-1.2,0.2-2.2,0.7-3c0.5-0.9,1.2-1.3,2-1.3C397.7,87.6,398.4,88,398.8,88.9z M395.4,89.3
		c-0.3,0.7-0.5,1.5-0.5,2.6c0,1,0.2,1.9,0.5,2.6c0.4,0.8,0.9,1.1,1.5,1.1c0.6,0,1.1-0.4,1.5-1.1c0.3-0.7,0.5-1.5,0.5-2.6
		c0-1-0.2-1.9-0.5-2.6c-0.4-0.7-0.9-1.1-1.5-1.1C396.2,88.2,395.7,88.6,395.4,89.3z M402.3,97c-0.1,0.1-0.1,0.1-0.2,0.1
		c-0.1,0-0.2,0-0.2-0.1c-0.1-0.1-0.1-0.2-0.1-0.3v-4.6h-1.9c-0.1,0-0.2,0-0.3-0.1c-0.1-0.1-0.1-0.1-0.1-0.2c0-0.1,0-0.1,0.1-0.2
		c0.1-0.1,0.1-0.1,0.2-0.1h2v-3.8c0-0.1,0-0.2,0.1-0.3c0.1-0.1,0.1-0.1,0.2-0.1c0.1,0,0.2,0,0.2,0.1c0.1,0.1,0.1,0.2,0.1,0.3v9
		C402.4,96.8,402.4,96.9,402.3,97z"/>
	<path d="M410.5,87.9c0,0.2-0.1,0.3-0.4,0.3h-2.7c-0.2,0-0.3,0-0.3,0.1c-0.1,0.1-0.1,0.2-0.1,0.4v2.4c0,0.3,0,0.4,0.1,0.5
		c0.1,0.1,0.3,0.2,0.5,0.2c0.5,0,1.1-0.1,1.8-0.2c0.7-0.1,1.2-0.3,1.7-0.5c0.1-0.1,0.2-0.1,0.3,0c0.1,0,0.1,0.1,0.2,0.2
		c0,0.1,0,0.2,0,0.2c0,0.1-0.1,0.2-0.2,0.2c-0.6,0.3-1.2,0.4-1.9,0.6c-0.6,0.1-1.2,0.1-1.9,0.1c-0.4,0-0.7-0.1-0.9-0.3
		c-0.2-0.2-0.3-0.5-0.3-0.8v-2.6c0-0.3,0.1-0.6,0.3-0.8c0.2-0.2,0.5-0.3,0.9-0.3h2.7C410.3,87.6,410.5,87.7,410.5,87.9z M414.2,93.3
		c0.1-0.1,0.1-0.1,0.2-0.1c0.1,0,0.2,0,0.2,0.1c0.1,0.1,0.1,0.1,0.1,0.3V96c0,0.2-0.1,0.4-0.2,0.6c-0.2,0.2-0.4,0.2-0.7,0.2h-6.1
		c-0.3,0-0.5-0.1-0.6-0.2c-0.1-0.2-0.2-0.4-0.2-0.6v-2.4c0-0.1,0-0.2,0.1-0.3c0.1-0.1,0.1-0.1,0.2-0.1s0.2,0,0.2,0.1
		c0.1,0.1,0.1,0.1,0.1,0.3v0.7h6.5v-0.7C414.1,93.4,414.1,93.4,414.2,93.3z M407.5,94.9v0.9c0,0.1,0,0.2,0.1,0.3
		c0.1,0.1,0.2,0.1,0.3,0.1h5.6c0.2,0,0.3,0,0.3-0.1c0.1-0.1,0.1-0.2,0.1-0.3v-1H407.5z M414.4,87.3c0.2,0,0.3,0.1,0.3,0.3v4.6
		c0,0.1,0,0.2-0.1,0.3c-0.1,0.1-0.1,0.1-0.2,0.1c-0.1,0-0.2,0-0.2-0.1c-0.1-0.1-0.1-0.2-0.1-0.3v-1.4h-1.7v1.4c0,0.1,0,0.2-0.1,0.3
		c-0.1,0.1-0.1,0.1-0.2,0.1s-0.2,0-0.2-0.1c-0.1-0.1-0.1-0.2-0.1-0.3v-4.7c0-0.2,0.1-0.3,0.3-0.3c0.2,0,0.4,0.1,0.4,0.3v2.6h1.7
		v-2.6C414.1,87.4,414.2,87.3,414.4,87.3z"/>
	<path d="M423.3,87.7c0.1,0.1,0.1,0.1,0.1,0.2c0,0.1,0,0.1-0.1,0.2c-0.1,0.1-0.2,0.1-0.3,0.1h-3.5c-0.2,0-0.3,0-0.4,0.1
		c-0.1,0.1-0.1,0.2-0.1,0.4v2.5h3.6c0.2,0,0.3,0.1,0.3,0.3c0,0.2-0.1,0.3-0.3,0.3H419V95c0,0.2,0,0.3,0.1,0.4
		c0.1,0.1,0.2,0.2,0.3,0.2c1,0,1.8-0.1,2.5-0.2c0.7-0.1,1.4-0.3,1.9-0.5c0.2-0.1,0.4,0,0.4,0.2c0.1,0.2,0,0.3-0.2,0.4
		c-0.5,0.2-1.2,0.4-2,0.5c-0.8,0.1-1.7,0.2-2.7,0.2c-0.4,0-0.7-0.1-0.9-0.3c-0.2-0.2-0.2-0.5-0.2-0.8v-6.2c0-0.3,0.1-0.6,0.3-0.8
		c0.2-0.2,0.5-0.4,0.9-0.4h3.5C423.1,87.7,423.2,87.7,423.3,87.7z M426.3,97c-0.1,0.1-0.1,0.1-0.2,0.1c-0.1,0-0.2,0-0.2-0.1
		c-0.1-0.1-0.1-0.2-0.1-0.3v-4.6h-1.9c-0.1,0-0.2,0-0.3-0.1c-0.1-0.1-0.1-0.1-0.1-0.2c0-0.1,0-0.1,0.1-0.2c0.1-0.1,0.1-0.1,0.2-0.1
		h2v-3.8c0-0.1,0-0.2,0.1-0.3c0.1-0.1,0.1-0.1,0.2-0.1c0.1,0,0.2,0,0.2,0.1c0.1,0.1,0.1,0.2,0.1,0.3v9
		C426.4,96.8,426.4,96.9,426.3,97z"/>
	<path d="M431.7,92.8c0,0.6-0.1,1.1-0.2,1.7c-0.1,0.5-0.3,1-0.5,1.5c-0.2,0.5-0.4,0.9-0.7,1.3c-0.3,0.4-0.5,0.7-0.8,0.9h-0.9
		c0.3-0.3,0.6-0.6,0.9-1c0.3-0.4,0.5-0.8,0.7-1.2c0.2-0.4,0.3-0.9,0.5-1.3c0.1-0.4,0.2-0.9,0.2-1.3v-1c0-0.4-0.1-0.8-0.2-1.3
		c-0.1-0.4-0.3-0.9-0.4-1.3c-0.2-0.4-0.4-0.8-0.7-1.2c-0.3-0.4-0.6-0.7-0.9-1h0.9c0.3,0.3,0.6,0.6,0.9,1c0.3,0.4,0.5,0.8,0.7,1.3
		c0.2,0.5,0.4,1,0.5,1.5C431.6,91.6,431.7,92.2,431.7,92.8z"/>
</g>
<g>
	<path d="M323.3,144.5L323.3,144.5c-0.1,0.1-0.2,0.3-0.3,0.4s-0.2,0.3-0.3,0.4s-0.3,0.2-0.5,0.3c-0.2,0.1-0.4,0.1-0.7,0.1
		c-0.6,0-1.1-0.2-1.5-0.6c-0.4-0.4-0.6-1-0.6-1.7v-4h1v3.8c0,1.1,0.5,1.7,1.4,1.7c0.2,0,0.4,0,0.6-0.1c0.2,0,0.3-0.1,0.5-0.2
		s0.3-0.2,0.3-0.4s0.1-0.3,0.1-0.5v-4.3h1v6.2h-1V144.5z"/>
	<path d="M326.3,139.3h1v1h0c0.2-0.4,0.4-0.7,0.7-0.9c0.3-0.2,0.7-0.3,1.1-0.3c0.4,0,0.7,0.1,1,0.2c0.3,0.2,0.6,0.4,0.8,0.6
		c0.2,0.3,0.4,0.6,0.5,1c0.1,0.4,0.2,0.8,0.2,1.3c0,0.5-0.1,0.9-0.2,1.3c-0.1,0.4-0.3,0.7-0.5,1c-0.2,0.3-0.5,0.5-0.8,0.6
		c-0.3,0.2-0.7,0.2-1,0.2c-0.8,0-1.4-0.4-1.8-1.1h0v3.4h-1V139.3z M328.9,144.8c0.5,0,1-0.2,1.3-0.5c0.3-0.3,0.5-0.8,0.5-1.3v-1.1
		c0-0.6-0.2-1-0.5-1.3c-0.3-0.3-0.7-0.5-1.3-0.5c-0.2,0-0.4,0-0.6,0.1c-0.2,0.1-0.4,0.1-0.5,0.2c-0.1,0.1-0.3,0.2-0.3,0.4
		c-0.1,0.1-0.1,0.3-0.1,0.5v2.3c0,0.2,0,0.4,0.1,0.5s0.2,0.3,0.3,0.4c0.1,0.1,0.3,0.2,0.5,0.2S328.7,144.8,328.9,144.8z"/>
	<path d="M334.3,145.5c-0.3,0-0.6-0.1-0.8-0.3c-0.2-0.2-0.3-0.4-0.3-0.7v-7.9h1v8h0.9v0.9H334.3z"/>
	<path d="M337,137.9c-0.2,0-0.4,0-0.5-0.1s-0.1-0.2-0.1-0.4v-0.2c0-0.2,0-0.3,0.1-0.4s0.2-0.1,0.5-0.1s0.4,0,0.5,0.1
		s0.1,0.2,0.1,0.4v0.2c0,0.2,0,0.3-0.1,0.4S337.2,137.9,337,137.9z M336.6,139.3h1v6.2h-1V139.3z"/>
	<path d="M339.6,145.5v-6.2h1v1h0c0.2-0.3,0.4-0.6,0.6-0.8c0.3-0.2,0.6-0.3,1.1-0.3c0.6,0,1.1,0.2,1.5,0.6s0.6,1,0.6,1.7v4h-1v-3.8
		c0-1.1-0.5-1.7-1.4-1.7c-0.2,0-0.4,0-0.6,0.1c-0.2,0-0.3,0.1-0.5,0.2c-0.1,0.1-0.3,0.2-0.3,0.4s-0.1,0.3-0.1,0.5v4.3H339.6z"/>
	<path d="M346.4,136.6h1v5.6h0l0.9-1.1l1.8-1.9h1.2l-2.3,2.4l2.5,3.7h-1.2l-2.1-3.2l-0.9,0.9v2.2h-1V136.6z"/>
	<path d="M358.1,145.5h-5.5v-1l2.7-2.5c0.4-0.4,0.7-0.7,1-1.1s0.4-0.8,0.4-1.2v-0.1c0-0.5-0.1-0.8-0.4-1.1c-0.3-0.3-0.6-0.4-1.2-0.4
		c-0.3,0-0.5,0-0.7,0.1c-0.2,0.1-0.4,0.2-0.5,0.3c-0.1,0.1-0.3,0.3-0.3,0.5s-0.2,0.4-0.2,0.6l-0.9-0.3c0.1-0.2,0.2-0.5,0.3-0.7
		c0.1-0.2,0.3-0.4,0.5-0.6s0.5-0.3,0.8-0.4c0.3-0.1,0.7-0.2,1.1-0.2c0.4,0,0.8,0.1,1.1,0.2c0.3,0.1,0.6,0.3,0.8,0.5s0.4,0.5,0.5,0.8
		c0.1,0.3,0.2,0.6,0.2,1c0,0.3,0,0.6-0.1,0.9c-0.1,0.3-0.2,0.5-0.4,0.8c-0.2,0.3-0.4,0.5-0.6,0.7c-0.2,0.2-0.5,0.5-0.7,0.7l-2.3,2
		h4.4V145.5z"/>
	<path d="M359.9,141.8c0-0.6,0.1-1.1,0.2-1.7c0.1-0.5,0.3-1,0.5-1.5s0.4-0.9,0.7-1.3c0.3-0.4,0.5-0.7,0.9-1h0.9
		c-0.3,0.3-0.6,0.6-0.9,1c-0.3,0.4-0.5,0.8-0.7,1.2c-0.2,0.4-0.3,0.9-0.4,1.3c-0.1,0.4-0.2,0.9-0.2,1.3v1c0,0.4,0.1,0.9,0.2,1.3
		c0.1,0.4,0.3,0.9,0.4,1.3s0.4,0.8,0.7,1.2c0.3,0.4,0.6,0.7,0.9,1H362c-0.3-0.2-0.6-0.6-0.8-0.9s-0.5-0.8-0.7-1.3
		c-0.2-0.5-0.4-1-0.5-1.5S359.9,142.3,359.9,141.8z"/>
	<path d="M364,145.5v-0.9h2.3v-6.7h-0.1l-2.1,2l-0.6-0.6l2.2-2.1h1.6v7.5h2.2v0.9H364z"/>
	<path d="M373.2,140.4l-1-1.9h0v7h-1v-8.4h1.2l3.1,5.1l1,1.9h0v-7h1v8.4h-1.2L373.2,140.4z"/>
	<path d="M379.3,145.5v-0.8h1.2V138h-1.2v-0.8h3.4v0.8h-1.2v6.7h1.2v0.8H379.3z"/>
	<path d="M387.5,145.6c-1.1,0-1.9-0.4-2.5-1.1s-0.9-1.8-0.9-3.2c0-1.4,0.3-2.5,0.9-3.2c0.6-0.8,1.4-1.1,2.5-1.1
		c0.7,0,1.3,0.2,1.8,0.5s0.8,0.8,1.1,1.4l-0.8,0.5c-0.2-0.4-0.4-0.8-0.8-1c-0.3-0.3-0.8-0.4-1.3-0.4c-0.4,0-0.7,0.1-1,0.2
		c-0.3,0.1-0.5,0.3-0.7,0.6c-0.2,0.3-0.3,0.6-0.5,0.9c-0.1,0.3-0.2,0.7-0.2,1.2v1.3c0,0.9,0.2,1.5,0.6,2s1,0.7,1.7,0.7
		c0.5,0,1-0.1,1.3-0.4c0.4-0.3,0.6-0.6,0.8-1.1l0.8,0.5c-0.3,0.6-0.6,1.1-1.1,1.4S388.2,145.6,387.5,145.6z"/>
	<path d="M399.8,137.9c0.4,0.8,0.7,1.8,0.7,3c0,1.2-0.2,2.2-0.7,3c-0.5,0.9-1.1,1.3-2,1.3c-0.9,0-1.5-0.4-2-1.3
		c-0.4-0.8-0.7-1.8-0.7-3c0-1.2,0.2-2.2,0.7-3c0.5-0.9,1.2-1.3,2-1.3C398.7,136.6,399.4,137,399.8,137.9z M396.4,138.3
		c-0.3,0.7-0.5,1.5-0.5,2.6c0,1,0.2,1.9,0.5,2.6c0.4,0.8,0.9,1.1,1.5,1.1c0.6,0,1.1-0.4,1.5-1.1c0.3-0.7,0.5-1.5,0.5-2.6
		c0-1-0.2-1.9-0.5-2.6c-0.4-0.7-0.9-1.1-1.5-1.1C397.2,137.2,396.7,137.6,396.4,138.3z M403.3,146c-0.1,0.1-0.1,0.1-0.2,0.1
		c-0.1,0-0.2,0-0.2-0.1c-0.1-0.1-0.1-0.2-0.1-0.3v-4.6h-1.9c-0.1,0-0.2,0-0.3-0.1c-0.1-0.1-0.1-0.1-0.1-0.2c0-0.1,0-0.1,0.1-0.2
		c0.1-0.1,0.1-0.1,0.2-0.1h2v-3.8c0-0.1,0-0.2,0.1-0.3c0.1-0.1,0.1-0.1,0.2-0.1c0.1,0,0.2,0,0.2,0.1c0.1,0.1,0.1,0.2,0.1,0.3v9
		C403.4,145.8,403.4,145.9,403.3,146z"/>
	<path d="M411.5,136.9c0,0.2-0.1,0.3-0.4,0.3h-2.7c-0.2,0-0.3,0-0.3,0.1c-0.1,0.1-0.1,0.2-0.1,0.4v2.4c0,0.3,0,0.4,0.1,0.5
		c0.1,0.1,0.3,0.2,0.5,0.2c0.5,0,1.1-0.1,1.8-0.2c0.7-0.1,1.2-0.3,1.7-0.5c0.1-0.1,0.2-0.1,0.3,0c0.1,0,0.1,0.1,0.2,0.2
		c0,0.1,0,0.2,0,0.2c0,0.1-0.1,0.2-0.2,0.2c-0.6,0.3-1.2,0.4-1.9,0.6c-0.6,0.1-1.2,0.1-1.9,0.1c-0.4,0-0.7-0.1-0.9-0.3
		c-0.2-0.2-0.3-0.5-0.3-0.8v-2.6c0-0.3,0.1-0.6,0.3-0.8c0.2-0.2,0.5-0.3,0.9-0.3h2.7C411.3,136.6,411.5,136.7,411.5,136.9z
		 M415.2,142.3c0.1-0.1,0.1-0.1,0.2-0.1c0.1,0,0.2,0,0.2,0.1c0.1,0.1,0.1,0.1,0.1,0.3v2.4c0,0.2-0.1,0.4-0.2,0.6
		c-0.2,0.2-0.4,0.2-0.7,0.2h-6.1c-0.3,0-0.5-0.1-0.6-0.2c-0.1-0.2-0.2-0.4-0.2-0.6v-2.4c0-0.1,0-0.2,0.1-0.3
		c0.1-0.1,0.1-0.1,0.2-0.1s0.2,0,0.2,0.1c0.1,0.1,0.1,0.1,0.1,0.3v0.7h6.5v-0.7C415.1,142.4,415.1,142.4,415.2,142.3z M408.5,143.9
		v0.9c0,0.1,0,0.2,0.1,0.3c0.1,0.1,0.2,0.1,0.3,0.1h5.6c0.2,0,0.3,0,0.3-0.1c0.1-0.1,0.1-0.2,0.1-0.3v-1H408.5z M415.4,136.3
		c0.2,0,0.3,0.1,0.3,0.3v4.6c0,0.1,0,0.2-0.1,0.3c-0.1,0.1-0.1,0.1-0.2,0.1c-0.1,0-0.2,0-0.2-0.1c-0.1-0.1-0.1-0.2-0.1-0.3v-1.4
		h-1.7v1.4c0,0.1,0,0.2-0.1,0.3c-0.1,0.1-0.1,0.1-0.2,0.1s-0.2,0-0.2-0.1c-0.1-0.1-0.1-0.2-0.1-0.3v-4.7c0-0.2,0.1-0.3,0.3-0.3
		c0.2,0,0.4,0.1,0.4,0.3v2.6h1.7v-2.6C415.1,136.4,415.2,136.3,415.4,136.3z"/>
	<path d="M424.3,136.7c0.1,0.1,0.1,0.1,0.1,0.2c0,0.1,0,0.1-0.1,0.2c-0.1,0.1-0.2,0.1-0.3,0.1h-3.5c-0.2,0-0.3,0-0.4,0.1
		c-0.1,0.1-0.1,0.2-0.1,0.4v2.5h3.6c0.2,0,0.3,0.1,0.3,0.3c0,0.2-0.1,0.3-0.3,0.3H420v3.2c0,0.2,0,0.3,0.1,0.4
		c0.1,0.1,0.2,0.2,0.3,0.2c1,0,1.8-0.1,2.5-0.2c0.7-0.1,1.4-0.3,1.9-0.5c0.2-0.1,0.4,0,0.4,0.2c0.1,0.2,0,0.3-0.2,0.4
		c-0.5,0.2-1.2,0.4-2,0.5c-0.8,0.1-1.7,0.2-2.7,0.2c-0.4,0-0.7-0.1-0.9-0.3c-0.2-0.2-0.2-0.5-0.2-0.8v-6.2c0-0.3,0.1-0.6,0.3-0.8
		c0.2-0.2,0.5-0.4,0.9-0.4h3.5C424.1,136.7,424.2,136.7,424.3,136.7z M427.3,146c-0.1,0.1-0.1,0.1-0.2,0.1c-0.1,0-0.2,0-0.2-0.1
		c-0.1-0.1-0.1-0.2-0.1-0.3v-4.6h-1.9c-0.1,0-0.2,0-0.3-0.1c-0.1-0.1-0.1-0.1-0.1-0.2c0-0.1,0-0.1,0.1-0.2c0.1-0.1,0.1-0.1,0.2-0.1
		h2v-3.8c0-0.1,0-0.2,0.1-0.3c0.1-0.1,0.1-0.1,0.2-0.1c0.1,0,0.2,0,0.2,0.1c0.1,0.1,0.1,0.2,0.1,0.3v9
		C427.4,145.8,427.4,145.9,427.3,146z"/>
	<path d="M432.7,141.8c0,0.6-0.1,1.1-0.2,1.7c-0.1,0.5-0.3,1-0.5,1.5c-0.2,0.5-0.4,0.9-0.7,1.3c-0.3,0.4-0.5,0.7-0.8,0.9h-0.9
		c0.3-0.3,0.6-0.6,0.9-1c0.3-0.4,0.5-0.8,0.7-1.2c0.2-0.4,0.3-0.9,0.5-1.3c0.1-0.4,0.2-0.9,0.2-1.3v-1c0-0.4-0.1-0.8-0.2-1.3
		c-0.1-0.4-0.3-0.9-0.4-1.3c-0.2-0.4-0.4-0.8-0.7-1.2c-0.3-0.4-0.6-0.7-0.9-1h0.9c0.3,0.3,0.6,0.6,0.9,1c0.3,0.4,0.5,0.8,0.7,1.3
		c0.2,0.5,0.4,1,0.5,1.5C432.6,140.6,432.7,141.2,432.7,141.8z"/>
</g>
<g>
	<path d="M273,117l-1.8-5.2h0.8l0.9,2.6l0.6,1.8h0l0.6-1.8l0.9-2.6h0.8l-1.8,5.2H273z"/>
	<path d="M276.8,117v-5.2h0.8v0.8h0c0.1-0.1,0.1-0.3,0.2-0.4c0.1-0.1,0.2-0.2,0.3-0.3c0.1-0.1,0.2-0.2,0.4-0.2
		c0.1,0,0.3-0.1,0.5-0.1c0.3,0,0.7,0.1,0.9,0.2c0.3,0.2,0.5,0.4,0.6,0.8h0c0.1-0.3,0.3-0.5,0.5-0.7s0.6-0.3,1-0.3
		c0.5,0,0.9,0.2,1.2,0.5c0.3,0.3,0.4,0.8,0.4,1.5v3.3H283v-3.2c0-0.5-0.1-0.8-0.3-1c-0.2-0.2-0.5-0.4-0.9-0.4c-0.2,0-0.3,0-0.5,0.1
		s-0.3,0.1-0.4,0.2c-0.1,0.1-0.2,0.2-0.3,0.3c-0.1,0.1-0.1,0.3-0.1,0.4v3.6h-0.8v-3.2c0-0.5-0.1-0.8-0.3-1c-0.2-0.2-0.5-0.4-0.8-0.4
		c-0.2,0-0.3,0-0.5,0.1s-0.3,0.1-0.4,0.2c-0.1,0.1-0.2,0.2-0.3,0.3s-0.1,0.3-0.1,0.4v3.6H276.8z"/>
	<path d="M287.9,117v-5.2h0.8v0.8h0c0.1-0.3,0.3-0.5,0.5-0.7c0.2-0.2,0.5-0.3,0.9-0.3c0.5,0,1,0.2,1.3,0.5c0.3,0.3,0.5,0.8,0.5,1.5
		v3.3h-0.8v-3.2c0-0.9-0.4-1.4-1.2-1.4c-0.2,0-0.3,0-0.5,0.1c-0.2,0-0.3,0.1-0.4,0.2c-0.1,0.1-0.2,0.2-0.3,0.3s-0.1,0.3-0.1,0.4v3.6
		H287.9z"/>
	<path d="M293.9,110.6c-0.2,0-0.3,0-0.4-0.1c-0.1-0.1-0.1-0.2-0.1-0.3V110c0-0.1,0-0.2,0.1-0.3c0.1-0.1,0.2-0.1,0.4-0.1
		c0.2,0,0.3,0,0.4,0.1c0.1,0.1,0.1,0.2,0.1,0.3v0.1c0,0.1,0,0.2-0.1,0.3C294.2,110.6,294.1,110.6,293.9,110.6z M293.5,111.8h0.8v5.2
		h-0.8V111.8z"/>
	<path d="M298,117.1c-0.4,0-0.7-0.1-1-0.2c-0.3-0.1-0.5-0.3-0.7-0.5c-0.2-0.2-0.3-0.5-0.5-0.9s-0.2-0.7-0.2-1.1
		c0-0.4,0.1-0.8,0.2-1.1c0.1-0.3,0.3-0.6,0.5-0.8c0.2-0.2,0.4-0.4,0.7-0.5c0.3-0.1,0.6-0.2,1-0.2c0.5,0,0.9,0.1,1.2,0.3
		c0.3,0.2,0.5,0.5,0.7,0.9l-0.7,0.3c-0.1-0.3-0.2-0.5-0.5-0.6c-0.2-0.1-0.5-0.2-0.8-0.2c-0.2,0-0.4,0-0.6,0.1
		c-0.2,0.1-0.3,0.2-0.4,0.3c-0.1,0.1-0.2,0.3-0.3,0.5c-0.1,0.2-0.1,0.4-0.1,0.6v0.9c0,0.5,0.1,0.8,0.4,1.1c0.2,0.3,0.6,0.4,1.1,0.4
		c0.6,0,1.1-0.3,1.4-0.9l0.6,0.4c-0.2,0.4-0.4,0.7-0.7,0.9C298.9,117,298.5,117.1,298,117.1z"/>
	<path d="M303.2,117.1c-0.8,0-1.4-0.3-1.8-1c-0.4-0.6-0.6-1.5-0.6-2.7c0-1.1,0.2-2,0.6-2.7c0.4-0.6,1-1,1.8-1s1.4,0.3,1.8,1
		c0.4,0.6,0.6,1.5,0.6,2.7c0,1.1-0.2,2-0.6,2.7C304.7,116.8,304.1,117.1,303.2,117.1z M303.2,116.4c0.3,0,0.5-0.1,0.7-0.2
		c0.2-0.1,0.3-0.3,0.5-0.5s0.2-0.4,0.3-0.7c0.1-0.3,0.1-0.6,0.1-0.9v-1.1c0-0.3,0-0.6-0.1-0.9c-0.1-0.3-0.1-0.5-0.3-0.7
		c-0.1-0.2-0.3-0.4-0.5-0.5s-0.4-0.2-0.7-0.2s-0.5,0.1-0.7,0.2s-0.3,0.3-0.5,0.5c-0.1,0.2-0.2,0.4-0.3,0.7c-0.1,0.3-0.1,0.6-0.1,0.9
		v1.1c0,0.3,0,0.6,0.1,0.9c0.1,0.3,0.1,0.5,0.3,0.7s0.3,0.4,0.5,0.5C302.7,116.3,302.9,116.4,303.2,116.4z"/>
</g>
<g>
	<path d="M272,167l-1.8-5.2h0.8l0.9,2.6l0.6,1.8h0l0.6-1.8l0.9-2.6h0.8l-1.8,5.2H272z"/>
	<path d="M275.8,167v-5.2h0.8v0.8h0c0.1-0.1,0.1-0.3,0.2-0.4c0.1-0.1,0.2-0.2,0.3-0.3c0.1-0.1,0.2-0.2,0.4-0.2
		c0.1-0.1,0.3-0.1,0.5-0.1c0.3,0,0.7,0.1,0.9,0.2c0.3,0.2,0.5,0.4,0.6,0.8h0c0.1-0.3,0.3-0.5,0.5-0.7s0.6-0.3,1-0.3
		c0.5,0,0.9,0.2,1.2,0.5c0.3,0.3,0.4,0.8,0.4,1.5v3.3H282v-3.2c0-0.5-0.1-0.8-0.3-1c-0.2-0.2-0.5-0.4-0.9-0.4c-0.2,0-0.3,0-0.5,0.1
		s-0.3,0.1-0.4,0.2c-0.1,0.1-0.2,0.2-0.3,0.3c-0.1,0.1-0.1,0.3-0.1,0.4v3.6h-0.8v-3.2c0-0.5-0.1-0.8-0.3-1c-0.2-0.2-0.5-0.4-0.8-0.4
		c-0.2,0-0.3,0-0.5,0.1s-0.3,0.1-0.4,0.2c-0.1,0.1-0.2,0.2-0.3,0.3c-0.1,0.1-0.1,0.3-0.1,0.4v3.6H275.8z"/>
	<path d="M286.9,167v-5.2h0.8v0.8h0c0.1-0.3,0.3-0.5,0.5-0.7c0.2-0.2,0.5-0.3,0.9-0.3c0.5,0,1,0.2,1.3,0.5c0.3,0.3,0.5,0.8,0.5,1.5
		v3.3h-0.8v-3.2c0-0.9-0.4-1.4-1.2-1.4c-0.2,0-0.3,0-0.5,0.1c-0.2,0-0.3,0.1-0.4,0.2c-0.1,0.1-0.2,0.2-0.3,0.3
		c-0.1,0.1-0.1,0.3-0.1,0.4v3.6H286.9z"/>
	<path d="M292.9,160.6c-0.2,0-0.3,0-0.4-0.1c-0.1-0.1-0.1-0.2-0.1-0.3V160c0-0.1,0-0.2,0.1-0.3c0.1-0.1,0.2-0.1,0.4-0.1
		c0.2,0,0.3,0,0.4,0.1c0.1,0.1,0.1,0.2,0.1,0.3v0.1c0,0.1,0,0.2-0.1,0.3C293.2,160.6,293.1,160.6,292.9,160.6z M292.5,161.8h0.8v5.2
		h-0.8V161.8z"/>
	<path d="M297,167.1c-0.4,0-0.7-0.1-1-0.2c-0.3-0.1-0.5-0.3-0.7-0.5c-0.2-0.2-0.3-0.5-0.5-0.9s-0.2-0.7-0.2-1.1
		c0-0.4,0.1-0.8,0.2-1.1s0.3-0.6,0.5-0.8c0.2-0.2,0.4-0.4,0.7-0.5c0.3-0.1,0.6-0.2,1-0.2c0.5,0,0.9,0.1,1.2,0.3
		c0.3,0.2,0.5,0.5,0.7,0.9l-0.7,0.3c-0.1-0.3-0.2-0.5-0.5-0.6c-0.2-0.1-0.5-0.2-0.8-0.2c-0.2,0-0.4,0-0.6,0.1
		c-0.2,0.1-0.3,0.2-0.4,0.3c-0.1,0.1-0.2,0.3-0.3,0.5c-0.1,0.2-0.1,0.4-0.1,0.6v0.9c0,0.5,0.1,0.8,0.4,1.1c0.2,0.3,0.6,0.4,1.1,0.4
		c0.6,0,1.1-0.3,1.4-0.9l0.6,0.4c-0.2,0.4-0.4,0.7-0.7,0.9S297.5,167.1,297,167.1z"/>
	<path d="M304.5,167H300v-0.9l2.3-2.1c0.3-0.3,0.6-0.6,0.8-1c0.2-0.3,0.3-0.7,0.3-1v-0.1c0-0.4-0.1-0.7-0.3-0.9
		c-0.2-0.2-0.5-0.4-1-0.4c-0.2,0-0.4,0-0.6,0.1c-0.2,0.1-0.3,0.1-0.4,0.3c-0.1,0.1-0.2,0.2-0.3,0.4c-0.1,0.1-0.1,0.3-0.2,0.5
		l-0.8-0.3c0.1-0.2,0.2-0.4,0.3-0.6c0.1-0.2,0.3-0.4,0.4-0.5s0.4-0.3,0.6-0.4c0.3-0.1,0.5-0.1,0.9-0.1s0.6,0,0.9,0.1
		c0.3,0.1,0.5,0.2,0.7,0.4c0.2,0.2,0.3,0.4,0.4,0.6s0.1,0.5,0.1,0.8c0,0.3,0,0.5-0.1,0.8c-0.1,0.2-0.2,0.5-0.3,0.7
		c-0.1,0.2-0.3,0.4-0.5,0.6c-0.2,0.2-0.4,0.4-0.6,0.6l-1.9,1.7h3.7V167z"/>
</g>
<g>
	<rect x="238" y="87" class="st5" width="18" height="4"/>
	<rect x="238" y="92" width="18" height="8"/>
	<rect x="241" y="90" width="12" height="2"/>
	<rect x="242" y="89" width="10" height="1"/>
	<rect x="244" y="87" width="6" height="2"/>
	<rect x="240" y="96" class="st4" width="14" height="3"/>
	<rect x="239" y="88" class="st6" width="3" height="2"/>
	<rect x="252" y="88" class="st6" width="3" height="2"/>
</g>
<g>
	<rect x="187" y="78" class="st5" width="18" height="4"/>
	<rect x="187" y="83" width="18" height="8"/>
	<rect x="190" y="81" width="12" height="2"/>
	<rect x="191" y="80" width="10" height="1"/>
	<rect x="193" y="78" width="6" height="2"/>
	<rect x="189" y="87" class="st4" width="14" height="3"/>
	<rect x="188" y="79" class="st6" width="3" height="2"/>
	<rect x="201" y="79" class="st6" width="3" height="2"/>
</g>
<g>
	<rect x="239" y="136" class="st5" width="18" height="4"/>
	<rect x="239" y="141" width="18" height="8"/>
	<rect x="242" y="139" width="12" height="2"/>
	<rect x="243" y="138" width="10" height="1"/>
	<rect x="245" y="136" width="6" height="2"/>
	<rect x="241" y="145" class="st4" width="14" height="3"/>
	<rect x="240" y="137" class="st6" width="3" height="2"/>
	<rect x="253" y="137" class="st6" width="3" height="2"/>
</g>
<g>
	<rect x="188" y="150" class="st5" width="18" height="4"/>
	<rect x="188" y="155" width="18" height="8"/>
	<rect x="191" y="153" width="12" height="2"/>
	<rect x="192" y="152" width="10" height="1"/>
	<rect x="194" y="150" width="6" height="2"/>
	<rect x="190" y="159" class="st4" width="14" height="3"/>
	<rect x="189" y="151" class="st6" width="3" height="2"/>
	<rect x="202" y="151" class="st6" width="3" height="2"/>
</g>
<g>
	<rect x="188" y="221" class="st5" width="18" height="4"/>
	<rect x="188" y="226" width="18" height="8"/>
	<rect x="191" y="224" width="12" height="2"/>
	<rect x="192" y="223" width="10" height="1"/>
	<rect x="194" y="221" width="6" height="2"/>
	<rect x="190" y="230" class="st4" width="14" height="3"/>
	<rect x="189" y="222" class="st6" width="3" height="2"/>
	<rect x="202" y="222" class="st6" width="3" height="2"/>
</g>
<line class="st7" x1="205" y1="85" x2="232" y2="85"/>
<line class="st7" x1="205" y1="157.5" x2="232" y2="157.5"/>
<line class="st7" x1="206" y1="227.5" x2="216.5" y2="227.5"/>
<line class="st7" x1="256.5" y1="93.5" x2="270.5" y2="93.5"/>
<line class="st7" x1="256.5" y1="142.5" x2="269.5" y2="142.5"/>
<line class="st7" x1="261.5" y1="71.5" x2="261.5" y2="172.5"/>
<line class="st7" x1="216.5" y1="165.5" x2="216.5" y2="227.5"/>
<line class="st7" x1="233" y1="165.5" x2="216.5" y2="165.5"/>
<g>
</g>
<g>
</g>
<g>
</g>
<g>
</g>
<g>
</g>
<g>
</g>
<g>
</g>
<g>
</g>
<g>
</g>
<g>
</g>
<g>
</g>
<g>
</g>
<g>
</g>
<g>
</g>
<g>
</g>
<g>
</g>
</svg>
