<?xml version="1.0" encoding="utf-8"?>
<!-- Generator: Adobe Illustrator 19.0.0, SVG Export Plug-In . SVG Version: 6.00 Build 0)  -->
<svg version="1.1" id="Layer_1" xmlns="http://www.w3.org/2000/svg" xmlns:xlink="http://www.w3.org/1999/xlink" x="0px" y="0px"
	 viewBox="0 0 725 315" style="enable-background:new 0 0 725 315;" xml:space="preserve">
<style type="text/css">
	.st0{fill:#4B84C4;}
	.st1{fill:#959595;}
	.st2{fill:#1AA78D;}
	.st3{fill:#F59C57;}
	.st4{fill:#FFFFFF;}
	.st5{font-family:'MS-Gothic';}
	.st6{font-size:22.7167px;}
	.st7{font-size:15.7941px;}
	.st8{font-family:'ArialMT';}
	.st9{font-size:22.8137px;}
	.st10{font-size:16px;}
	.st11{font-size:15.2586px;}
	.st12{font-size:23px;}
	.st13{font-size:19px;}
</style>
<rect x="198.5" y="0.8" class="st0" width="526.5" height="89.1"/>
<rect x="-0.3" y="204.9" class="st1" width="725.3" height="110.1"/>
<rect x="198.5" y="101.6" class="st2" width="170.7" height="89.9"/>
<rect x="375.4" y="103.7" class="st2" width="169.8" height="87.7"/>
<rect x="551.9" y="103.7" class="st2" width="173.1" height="87.7"/>
<g id="Layer_2">
	<rect x="0.3" y="0.9" class="st3" width="186.9" height="190.5"/>
</g>
<g id="Layer_4">
	<text transform="matrix(1 0 0 1 25.0211 35.8409)" class="st4 st5 st6">共通サービス</text>
	<text transform="matrix(1 0 0 1 76.4698 75.3497)"><tspan x="0" y="0" class="st4 st5 st7">認証</tspan><tspan x="-0.9" y="31.4" class="st4 st8 st7">DNS</tspan><tspan x="0" y="62.8" class="st4 st8 st7">NTP</tspan><tspan x="-7.9" y="94.3" class="st4 st5 st7">認証局</tspan></text>
</g>
<text transform="matrix(1 0 0 1 393.3243 38.8409)"><tspan x="0" y="0" class="st4 st5 st9">仮想化の管理</tspan><tspan x="-53.3" y="29.8" class="st4 st8 st9">VMware vCenter Server</tspan></text>
<text transform="matrix(1 0 0 1 202.3312 139.9747)"><tspan x="0" y="0" class="st4 st5 st10">コンピュートの仮想化</tspan><tspan x="18.6" y="20.9" class="st4 st8 st10">VMware vSphere</tspan></text>
<text transform="matrix(1 0 0 1 558.1016 141.2363)" class="st4 st8 st11">NetApp  ONTAP  Select</text>
<text transform="matrix(1 0 0 1 379.7677 140.9747)"><tspan x="0" y="0" class="st4 st5 st10">ネットワークの仮想化</tspan><tspan x="27.5" y="20.9" class="st4 st8 st10">VMware NSX  </tspan></text>
<text transform="matrix(1 0 0 1 133.1168 246.7403)"><tspan x="0" y="0" class="st4 st8 st12">IBM Cloud </tspan><tspan x="113.8" y="0" class="st4 st5 st12">上の物理インフラストラクチャー</tspan></text>
<text transform="matrix(1 0 0 1 180.8436 294.1616)" class="st4 st5 st13">コンピュート</text>
<text transform="matrix(1 0 0 1 316.6909 294.1616)"><tspan x="0" y="0" class="st4 st5 st13">ストレージ</tspan><tspan x="95" y="0" class="st4 st8 st13"> </tspan></text>
<text transform="matrix(1 0 0 1 425.9416 293.2401)" class="st4 st5 st13">ネットワーク</text>
</svg>
