<?xml version="1.0" encoding="utf-8"?>
<!-- Generator: Adobe Illustrator 16.0.0, SVG Export Plug-In . SVG Version: 6.00 Build 0)  -->
<!DOCTYPE svg PUBLIC "-//W3C//DTD SVG 1.1//EN" "http://www.w3.org/Graphics/SVG/1.1/DTD/svg11.dtd">
<svg version="1.1" id="Layer_1" xmlns="http://www.w3.org/2000/svg" xmlns:xlink="http://www.w3.org/1999/xlink" x="0px" y="0px"
	 width="600px" height="320px" viewBox="0 0 600 320" style="enable-background:new 0 0 600 320;" xml:space="preserve">
<style type="text/css">
<![CDATA[
	.st0{fill:#4C84C5;}
	.st1{fill:#1DA78D;}
	.st2{fill:#F49C58;}
	.st3{fill:#959595;}
	.st4{fill:#FFFFFF;}
	.st5{font-family:'Roboto-Light';}
	.st6{font-family:'ArialMT';}
	.st7{font-size:14;}
	.st8{font-size:18;}
	.st9{font-size:21;}
]]>
</style>
<rect y="81.7" class="st0" width="600" height="75.3"/>
<rect x="0.6" y="0.6" class="st2" width="600" height="74.3"/>
<rect y="239.7" class="st3" width="600" height="80.3"/>
<rect y="164" class="st1" width="190" height="68"/>
<rect x="205" y="163.4" class="st1" width="190" height="68.6"/>
<rect x="410" y="164" class="st1" width="190" height="68"/>
<text transform="matrix(1 0 0 1 184.7241 110.3711)" class="st4 st6 st9">Gestione virtualizzazione</text>
<text transform="matrix(1 0 0 1 216.2241 144.3711)" class="st4 st6 st8">VMware vCenter Server</text>
<text transform="matrix(1 0 0 1 6.1138 192.875)" class="st4 st5 st8">Virtualizzazione calcolo</text>
<text transform="matrix(1 0 0 1 41.1748 216.7754)" class="st4 st6 st7">VMware vSphere</text>
<text transform="matrix(1 0 0 1 208.2852 192.875)" class="st4 st5 st8">Virtualizzazione archivio</text>
<text transform="matrix(1 0 0 1 255.8037 216.7754)" class="st4 st6 st7">VMware vSAN</text>
<text transform="matrix(1 0 0 1 430.7969 192.875)" class="st4 st5 st8">Virtualizzazione rete</text>
<text transform="matrix(1 0 0 1 462.666 216.7754)" class="st4 st6 st7">VMware NSX </text>
<text transform="matrix(1 0 0 1 146.0742 272.5371)" class="st4 st6 st9">Infrastruttura fisica su IBM Cloud</text>
<text transform="matrix(1 0 0 1 201.7871 27.4922)" class="st4 st6 st9">Infrastruttura ibrida</text>
<text transform="matrix(1 0 0 1 159.8867 61.4922)" class="st4 st6 st8">VMware HCX (Hybrid Cloud Extension)</text>
<text transform="matrix(1 0 0 1 273.3247 303.373)" class="st4 st6 st8">Archivio</text>
<text transform="matrix(1 0 0 1 406.9551 303.373)" class="st4 st6 st8">Rete</text>
<text transform="matrix(1 0 0 1 134.5859 303.373)" class="st4 st6 st8">Calcolo</text>
</svg>
