<?xml version="1.0" encoding="UTF-8" standalone="no"?>
<!-- Generator: Adobe Illustrator 21.0.0, SVG Export Plug-In . SVG Version: 6.00 Build 0)  -->

<svg
   xmlns:dc="http://purl.org/dc/elements/1.1/"
   xmlns:cc="http://creativecommons.org/ns#"
   xmlns:rdf="http://www.w3.org/1999/02/22-rdf-syntax-ns#"
   xmlns:svg="http://www.w3.org/2000/svg"
   xmlns="http://www.w3.org/2000/svg"
   xmlns:sodipodi="http://sodipodi.sourceforge.net/DTD/sodipodi-0.dtd"
   xmlns:inkscape="http://www.inkscape.org/namespaces/inkscape"
   version="1.1"
   x="0px"
   y="0px"
   viewBox="0 0 779 794"
   style="enable-background:new 0 0 779 794;"
   xml:space="preserve"
   id="svg2"
   inkscape:version="0.47 r22583"
   width="100%"
   height="100%"
   sodipodi:docname="l2_concentrator_deployment.svg"><metadata
   id="metadata553"><rdf:RDF><cc:Work
       rdf:about=""><dc:format>image/svg+xml</dc:format><dc:type
         rdf:resource="http://purl.org/dc/dcmitype/StillImage" /><dc:title></dc:title></cc:Work></rdf:RDF></metadata><defs
   id="defs551"><inkscape:perspective
     sodipodi:type="inkscape:persp3d"
     inkscape:vp_x="0 : 397 : 1"
     inkscape:vp_y="0 : 1000 : 0"
     inkscape:vp_z="779 : 397 : 1"
     inkscape:persp3d-origin="389.5 : 264.66667 : 1"
     id="perspective555" /></defs><sodipodi:namedview
   pagecolor="#ffffff"
   bordercolor="#666666"
   borderopacity="1"
   objecttolerance="10"
   gridtolerance="10"
   guidetolerance="10"
   inkscape:pageopacity="0"
   inkscape:pageshadow="2"
   inkscape:window-width="1440"
   inkscape:window-height="838"
   id="namedview549"
   showgrid="false"
   inkscape:zoom="0.29722922"
   inkscape:cx="389.5"
   inkscape:cy="349.4201"
   inkscape:window-x="-8"
   inkscape:window-y="-8"
   inkscape:window-maximized="1"
   inkscape:current-layer="svg2" />
<style
   type="text/css"
   id="style4">
	.st0{fill:#FFFFFF;}
	.st1{fill:none;stroke:#000000;stroke-miterlimit:10;}
	.st2{fill:none;stroke:#000000;stroke-miterlimit:10;stroke-dasharray:8.0549,8.0549;}
	.st3{fill:none;stroke:#000000;stroke-miterlimit:10;stroke-dasharray:8.052,8.052;}
	.st4{fill:#AADFF2;}
	.st5{fill:none;stroke:#000000;stroke-miterlimit:10;stroke-dasharray:8.0706,8.0706;}
	.st6{fill:none;stroke:#000000;stroke-miterlimit:10;stroke-dasharray:8.1177,8.1177;}
	.st7{font-family:'MyriadPro-Regular';}
	.st8{font-size:21px;}
	.st9{fill:#E1E5BA;}
	.st10{fill:none;stroke:#000000;stroke-miterlimit:10;stroke-dasharray:8.1429,8.1429;}
	.st11{fill:#FFFFFF;stroke:#000000;stroke-width:3;stroke-miterlimit:10;}
	.st12{fill:#FF7BAC;}
	.st13{font-family:'IBMPlexSans';}
	.st14{fill:#29ABE2;}
	.st15{font-size:18px;}
	.st16{fill:#EF7C26;}
	.st17{fill:#C491F2;stroke:#000000;stroke-miterlimit:10;}
	.st18{fill:#FFFFFF;stroke:#000000;stroke-miterlimit:10;}
	.st19{fill:#F4BA51;}
	.st20{fill:#169ADB;stroke:#9BCCDD;stroke-width:0.5;stroke-miterlimit:10;}
	.st21{fill:url(#SVGID_1_);}
	.st22{font-size:11.4646px;}
	.st23{fill:url(#SVGID_2_);}
	.st24{font-size:9.2282px;}
	.st25{fill:#2B6782;}
	.st26{fill:#1E4C66;}
	.st27{font-size:16.5319px;}
</style>
<g
   id="Outter_dash_rectangle">
	<g
   id="g7">
		<rect
   x="21.5"
   y="64"
   class="st0"
   width="741"
   height="628"
   id="rect9" />
		<g
   id="g11">
			<polyline
   class="st1"
   points="762.5,688 762.5,692 758.5,692    "
   id="polyline13" />
			<line
   class="st2"
   x1="750.4"
   y1="692"
   x2="29.5"
   y2="692"
   id="line15" />
			<polyline
   class="st1"
   points="25.5,692 21.5,692 21.5,688    "
   id="polyline17" />
			<line
   class="st3"
   x1="21.5"
   y1="679.9"
   x2="21.5"
   y2="72"
   id="line19" />
			<polyline
   class="st1"
   points="21.5,68 21.5,64 25.5,64    "
   id="polyline21" />
			<line
   class="st2"
   x1="33.6"
   y1="64"
   x2="754.5"
   y2="64"
   id="line23" />
			<polyline
   class="st1"
   points="758.5,64 762.5,64 762.5,68    "
   id="polyline25" />
			<line
   class="st3"
   x1="762.5"
   y1="76.1"
   x2="762.5"
   y2="684"
   id="line27" />
		</g>
	</g>
</g>
<g
   id="Public_address_space_rectangle">
	<g
   id="g30">
		<rect
   x="45.5"
   y="94.5"
   class="st4"
   width="694"
   height="146"
   id="rect32" />
		<g
   id="g34">
			<polyline
   class="st1"
   points="739.5,236.5 739.5,240.5 735.5,240.5    "
   id="polyline36" />
			<line
   class="st5"
   x1="727.4"
   y1="240.5"
   x2="53.5"
   y2="240.5"
   id="line38" />
			<polyline
   class="st1"
   points="49.5,240.5 45.5,240.5 45.5,236.5    "
   id="polyline40" />
			<line
   class="st6"
   x1="45.5"
   y1="228.4"
   x2="45.5"
   y2="102.6"
   id="line42" />
			<polyline
   class="st1"
   points="45.5,98.5 45.5,94.5 49.5,94.5    "
   id="polyline44" />
			<line
   class="st5"
   x1="57.6"
   y1="94.5"
   x2="731.5"
   y2="94.5"
   id="line46" />
			<polyline
   class="st1"
   points="735.5,94.5 739.5,94.5 739.5,98.5    "
   id="polyline48" />
			<line
   class="st6"
   x1="739.5"
   y1="106.6"
   x2="739.5"
   y2="232.4"
   id="line50" />
		</g>
	</g>
	<text
   transform="matrix(1 0 0 1 522 226)"
   class="st7 st8"
   id="text52"><tspan
     style="-inkscape-font-specification:SimHei;font-family:SimHei"
     id="tspan3365">公共地址空间</tspan></text>

</g>
<g
   id="Private_address_space_rectangle">
	<g
   id="g55">
		<rect
   x="46.5"
   y="251.5"
   class="st9"
   width="694"
   height="407"
   id="rect57" />
		<g
   id="g59">
			<polyline
   class="st1"
   points="740.5,654.5 740.5,658.5 736.5,658.5    "
   id="polyline61" />
			<line
   class="st5"
   x1="728.4"
   y1="658.5"
   x2="54.5"
   y2="658.5"
   id="line63" />
			<polyline
   class="st1"
   points="50.5,658.5 46.5,658.5 46.5,654.5    "
   id="polyline65" />
			<line
   class="st10"
   x1="46.5"
   y1="646.4"
   x2="46.5"
   y2="259.6"
   id="line67" />
			<polyline
   class="st1"
   points="46.5,255.5 46.5,251.5 50.5,251.5    "
   id="polyline69" />
			<line
   class="st5"
   x1="58.6"
   y1="251.5"
   x2="732.5"
   y2="251.5"
   id="line71" />
			<polyline
   class="st1"
   points="736.5,251.5 740.5,251.5 740.5,255.5    "
   id="polyline73" />
			<line
   class="st10"
   x1="740.5"
   y1="263.6"
   x2="740.5"
   y2="650.4"
   id="line75" />
		</g>
	</g>
	<text
   class="st7 st8"
   id="text77"
   x="525"
   y="643"
   style="font-size:21px;font-family:MyriadPro-Regular"><tspan
     style="font-family:SimHei;-inkscape-font-specification:SimHei"
     id="tspan3383">专用地址空间</tspan></text>

</g>
<g
   id="ibm_cloud">
	<g
   id="g80">
		<path
   class="st11"
   d="M155.2,59.9c0-11.4-13.4-20.6-29.9-20.6c-1.6,0-3.2,0.1-4.7,0.3c-1-2.2-2.6-4.2-4.6-5.8    c-4.7-3.8-10.8-4.5-15.7-2.3C97.5,16.9,86,6,72.2,6C57.8,6,46,17.8,43.8,33.2c-0.1,0-0.2,0-0.4,0c-11.6,0-21,10.6-21,23.7    c0,10,5.5,18.5,13.2,22v0.9h2.4c1.7,0.5,3.5,0.8,5.3,0.8c1.8,0,3.6-0.3,5.3-0.8h68.4c2.6,0.5,5.3,0.8,8.1,0.8    c2.8,0,5.5-0.3,8.1-0.8h2.4v-0.5C147.1,76.3,155.2,68.8,155.2,59.9z"
   id="path82" />
		<text
   transform="matrix(1 0 0 1 35 62)"
   class="st7 st8"
   id="text84">IBM Cloud</text>

	</g>
</g>
<g
   id="lines">
</g>
<g
   id="pubic_VLAN_native">
	<g
   id="g88">
		<g
   id="g90">
			<g
   id="g92">
				<g
   id="g94">
					<path
   class="st12"
   d="M102.3,190.5L102.3,190.5l-0.4-0.1c-9.3-1.1-16.4-10.3-16.4-21.4s7-20.3,16.4-21.4l0.4-0.1v-0.1h583.6       l0.2,0c9.2,0.4,16.4,9.8,16.4,21.5s-7.2,21.1-16.4,21.5l-0.4,0H102.3z"
   id="path96" />
					<path
   d="M685.7,148l0.4,0c8.9,0.4,15.9,9.6,15.9,21s-7,20.6-15.9,21l-0.3,0h-583l-0.9-0.1c-9.1-1-15.9-10-15.9-20.9       s6.9-19.9,15.9-20.9l0.9-0.1H685.7 M686.2,147H101.8v0.1C92.4,148.2,85,157.6,85,169c0,11.4,7.4,20.8,16.8,21.9v0.1h584.3v0       c9.3-0.4,16.8-10.1,16.8-22C703,157.1,695.5,147.4,686.2,147L686.2,147L686.2,147z"
   id="path98" />
				</g>
				<g
   id="g100">
					<path
   class="st0"
   d="M684.4,186.9c-6.7,0-12.1-8.2-12.1-18.4c0-10.1,5.4-18.4,12.1-18.4s12.1,8.2,12.1,18.4       C696.5,178.7,691,186.9,684.4,186.9z"
   id="path102" />
					<path
   d="M684.4,150.7c6.4,0,11.6,8,11.6,17.9c0,9.8-5.2,17.9-11.6,17.9s-11.6-8-11.6-17.9C672.7,158.7,678,150.7,684.4,150.7        M684.4,149.7c-7,0-12.6,8.4-12.6,18.9c0,10.4,5.7,18.9,12.6,18.9c7,0,12.6-8.4,12.6-18.9C697,158.1,691.3,149.7,684.4,149.7       L684.4,149.7z"
   id="path104" />
				</g>
			</g>
		</g>
		<text
   transform="matrix(1 0 0 1 308.75 175.75)"
   class="st13 st8"
   id="text106"><tspan
   style="-inkscape-font-specification:SimHei;font-family:SimHei"
   id="tspan3361">公用</tspan> VLAN<tspan
   style="-inkscape-font-specification:SimHei;font-family:SimHei"
   id="tspan3363">（本机）</tspan></text>

	</g>
</g>
<g
   id="security_lock_icon">
	<g
   id="g109">
		<line
   class="st1"
   x1="334.5"
   y1="190.5"
   x2="334.5"
   y2="565.5"
   id="line111" />
		<line
   class="st1"
   x1="319.5"
   y1="407.5"
   x2="319.5"
   y2="504.5"
   id="line113" />
		<line
   class="st1"
   x1="349.5"
   y1="407.5"
   x2="349.5"
   y2="438.5"
   id="line115" />
		<g
   id="g117">
			<path
   class="st14"
   d="M350,407.8h-30c-6.6,0-12-5.4-12-12v-25c0-6.6,5.4-12,12-12h30c6.6,0,12,5.4,12,12v25     C362,402.4,356.6,407.8,350,407.8z"
   id="path119" />
			<g
   id="g121">
				<g
   id="g123">
					<path
   class="st0"
   d="M340.9,380.8h-10.9c-2.2,0-4.1-1.8-4.1-4.1v-5.9c0-2.2,1.8-4.1,4.1-4.1h10.9c2.2,0,4.1,1.8,4.1,4.1v5.9       C345,378.9,343.2,380.8,340.9,380.8z"
   id="path125" />
					<path
   class="st14"
   d="M338.9,378.8h-6.9c-1.1,0-2.1-0.9-2.1-2.1v-4c0-1.1,0.9-2.1,2.1-2.1h6.9c1.1,0,2.1,0.9,2.1,2.1v4       C341,377.8,340.1,378.8,338.9,378.8z"
   id="path127" />
					<path
   class="st0"
   d="M346.9,399.8h-22.9c-2.2,0-4.1-1.8-4.1-4.1v-13.9c0-2.2,1.8-4.1,4.1-4.1h22.9c2.2,0,4.1,1.8,4.1,4.1v13.9       C351,397.9,349.2,399.8,346.9,399.8z"
   id="path129" />
				</g>
				<g
   id="g131">
					<ellipse
   class="st14"
   cx="336"
   cy="386.3"
   rx="4"
   ry="3.5"
   id="ellipse133" />
					<path
   class="st14"
   d="M335.5,396.8L335.5,396.8c-0.8,0-1.5-0.7-1.5-1.5v-7c0-0.8,0.7-1.5,1.5-1.5l0,0c0.8,0,1.5,0.7,1.5,1.5v7       C337,396.1,336.3,396.8,335.5,396.8z"
   id="path135" />
					<path
   class="st14"
   d="M338.5,391.8h-2c-0.3,0-0.5-0.2-0.5-0.5l0,0c0-0.3,0.2-0.5,0.5-0.5h2c0.3,0,0.5,0.2,0.5,0.5l0,0       C339,391.5,338.8,391.8,338.5,391.8z"
   id="path137" />
					<path
   class="st14"
   d="M338.5,393.8h-2c-0.3,0-0.5-0.2-0.5-0.5l0,0c0-0.3,0.2-0.5,0.5-0.5h2c0.3,0,0.5,0.2,0.5,0.5l0,0       C339,393.5,338.8,393.8,338.5,393.8z"
   id="path139" />
					<path
   class="st14"
   d="M338.5,395.8h-2c-0.3,0-0.5-0.2-0.5-0.5l0,0c0-0.3,0.2-0.5,0.5-0.5h2c0.3,0,0.5,0.2,0.5,0.5l0,0       C339,395.5,338.8,395.8,338.5,395.8z"
   id="path141" />
				</g>
			</g>
		</g>
	</g>
</g>
<g
   id="security_lock_bottom">
	<g
   id="g144">
		<path
   class="st14"
   d="M383,759h-19.2c-6.6,0-12-5.4-12-12v-15.2c0-6.6,5.4-12,12-12H383c6.6,0,12,5.4,12,12V747    C395,753.6,389.6,759,383,759z"
   id="path146" />
		<g
   id="g148">
			<g
   id="g150">
				<path
   class="st0"
   d="M377.3,737.4h-7.1c-2.2,0-4.1-1.8-4.1-4.1v-3.1c0-2.2,1.8-4.1,4.1-4.1h7.1c2.2,0,4.1,1.8,4.1,4.1v3.1      C381.4,735.6,379.6,737.4,377.3,737.4z"
   id="path152" />
				<path
   class="st14"
   d="M376.1,735.8h-4.7c-1.1,0-2.1-0.9-2.1-2.1v-2.4c0-1.1,0.9-2.1,2.1-2.1h4.7c1.1,0,2.1,0.9,2.1,2.1v2.4      C378.2,734.9,377.3,735.8,376.1,735.8z"
   id="path154" />
				<path
   class="st0"
   d="M382.1,752.6h-16.7c-2.2,0-4.1-1.8-4.1-4.1V739c0-2.2,1.8-4.1,4.1-4.1h16.7c2.2,0,4.1,1.8,4.1,4.1v9.5      C386.2,750.8,384.4,752.6,382.1,752.6z"
   id="path156" />
			</g>
			<g
   id="g158">
				<ellipse
   class="st14"
   cx="374.2"
   cy="741.8"
   rx="3.2"
   ry="2.8"
   id="ellipse160" />
				<path
   class="st14"
   d="M373.8,750.2L373.8,750.2c-0.7,0-1.2-0.5-1.2-1.2v-5.6c0-0.7,0.5-1.2,1.2-1.2h0c0.7,0,1.2,0.5,1.2,1.2v5.6      C375,749.7,374.4,750.2,373.8,750.2z"
   id="path162" />
				<path
   class="st14"
   d="M376.2,746.2h-1.6c-0.2,0-0.4-0.2-0.4-0.4v0c0-0.2,0.2-0.4,0.4-0.4h1.6c0.2,0,0.4,0.2,0.4,0.4v0      C376.6,746,376.4,746.2,376.2,746.2z"
   id="path164" />
				<path
   class="st14"
   d="M376.2,747.8h-1.6c-0.2,0-0.4-0.2-0.4-0.4v0c0-0.2,0.2-0.4,0.4-0.4h1.6c0.2,0,0.4,0.2,0.4,0.4v0      C376.6,747.6,376.4,747.8,376.2,747.8z"
   id="path166" />
				<path
   class="st14"
   d="M376.2,749.4h-1.6c-0.2,0-0.4-0.2-0.4-0.4v0c0-0.2,0.2-0.4,0.4-0.4h1.6c0.2,0,0.4,0.2,0.4,0.4v0      C376.6,749.2,376.4,749.4,376.2,749.4z"
   id="path168" />
			</g>
		</g>
	</g>
	<text
   class="st7 st15"
   id="text170"
   style="font-size:18px;font-family:MyriadPro-Regular"
   x="347"
   y="780"><tspan
     style="font-family:SimHei;-inkscape-font-specification:SimHei"
     id="tspan3389">云网关</tspan></text>

</g>
<g
   id="gear_bottom">
	<g
   id="g173">
		<path
   class="st14"
   d="M533,759h-21.8c-6.6,0-12-5.4-12-12v-17.5c0-6.6,5.4-12,12-12H533c6.6,0,12,5.4,12,12V747    C545,753.6,539.6,759,533,759z"
   id="path175" />
		<g
   id="g177">
			<g
   id="g179">
				<g
   id="g181">
					<g
   id="g183">
						<g
   id="g185">
							<ellipse
   class="st0"
   cx="522"
   cy="738.1"
   rx="12.3"
   ry="11.9"
   id="ellipse187" />
							<ellipse
   class="st14"
   cx="522"
   cy="738.1"
   rx="5.5"
   ry="5.3"
   id="ellipse189" />
						</g>
						<rect
   x="518.3"
   y="723"
   class="st0"
   width="6.6"
   height="4.2"
   id="rect191" />
						<rect
   x="519"
   y="748.4"
   class="st0"
   width="5.9"
   height="5.1"
   id="rect193" />
					</g>
					<rect
   x="532.7"
   y="735.3"
   class="st0"
   width="5.1"
   height="5.9"
   id="rect195" />
					<rect
   x="506.5"
   y="735.3"
   class="st0"
   width="5.1"
   height="5.9"
   id="rect197" />
				</g>
				
					<rect
   x="509.3"
   y="726.2"
   transform="matrix(0.7526 0.6585 -0.6585 0.7526 606.7064 -156.8211)"
   class="st0"
   width="5.6"
   height="5.6"
   id="rect199" />
				
					<rect
   x="528"
   y="744.9"
   transform="matrix(0.7526 0.6585 -0.6585 0.7526 623.8824 -165.1461)"
   class="st0"
   width="7.3"
   height="5.6"
   id="rect201" />
			</g>
			
				<rect
   x="529.6"
   y="726.5"
   transform="matrix(0.7071 0.7071 -0.7071 0.7071 671.8127 -162.7813)"
   class="st0"
   width="5.5"
   height="6.1"
   id="rect203" />
			
				<rect
   x="509.9"
   y="744.8"
   transform="matrix(0.7071 0.7071 -0.7071 0.7071 678.7737 -143.5796)"
   class="st0"
   width="5.5"
   height="5.5"
   id="rect205" />
		</g>
	</g>
	<text
   transform="matrix(1 0 0 1 466 780)"
   class="st7 st15"
   id="text207">WAN Optimizer</text>

</g>
<g
   id="gear_icon">
	<g
   id="g210">
		<line
   class="st1"
   x1="402.5"
   y1="407.5"
   x2="402.5"
   y2="437.5"
   id="line212" />
		<g
   id="g214">
			<path
   class="st14"
   d="M418.3,407.8h-30c-6.6,0-12-5.4-12-12v-25c0-6.6,5.4-12,12-12h30c6.6,0,12,5.4,12,12v25     C430.3,402.4,424.9,407.8,418.3,407.8z"
   id="path216" />
			<g
   id="g218">
				<g
   id="g220">
					<g
   id="g222">
						<g
   id="g224">
							<g
   id="g226">
								<ellipse
   class="st0"
   cx="403.1"
   cy="383.1"
   rx="14.5"
   ry="14"
   id="ellipse228" />
								<ellipse
   class="st14"
   cx="403.1"
   cy="383.1"
   rx="6.5"
   ry="6.3"
   id="ellipse230" />
							</g>
							<rect
   x="398.8"
   y="365.3"
   class="st0"
   width="7.8"
   height="5"
   id="rect232" />
							<rect
   x="399.6"
   y="395.3"
   class="st0"
   width="7"
   height="6"
   id="rect234" />
						</g>
						<rect
   x="415.8"
   y="379.8"
   class="st0"
   width="6"
   height="7"
   id="rect236" />
						<rect
   x="384.8"
   y="379.8"
   class="st0"
   width="6"
   height="7"
   id="rect238" />
					</g>
					
						<rect
   x="388.1"
   y="369"
   transform="matrix(0.7526 0.6585 -0.6585 0.7526 341.9793 -165.5926)"
   class="st0"
   width="6.6"
   height="6.6"
   id="rect240" />
					
						<rect
   x="410.2"
   y="391"
   transform="matrix(0.7526 0.6585 -0.6585 0.7526 362.2429 -175.4187)"
   class="st0"
   width="8.6"
   height="6.6"
   id="rect242" />
				</g>
				
					<rect
   x="412.1"
   y="369.4"
   transform="matrix(0.7071 0.7071 -0.7071 0.7071 385.4124 -184.4679)"
   class="st0"
   width="6.5"
   height="7.2"
   id="rect244" />
				
					<rect
   x="388.9"
   y="391"
   transform="matrix(0.7071 0.7071 -0.7071 0.7071 393.6287 -161.8037)"
   class="st0"
   width="6.5"
   height="6.5"
   id="rect246" />
			</g>
		</g>
	</g>
</g>
<g
   id="L2_concentrator">
	<g
   id="g249">
		<line
   class="st1"
   x1="469.5"
   y1="408.5"
   x2="469.5"
   y2="437.5"
   id="line251" />
		<g
   id="g253">
			<path
   class="st14"
   d="M485.5,408.6h-30c-6.6,0-12-5.4-12-12v-25c0-6.6,5.4-12,12-12h30c6.6,0,12,5.4,12,12v25     C497.5,403.2,492.1,408.6,485.5,408.6z"
   id="path255" />
			<g
   id="g257">
				<rect
   x="455.5"
   y="371.5"
   class="st0"
   width="30"
   height="15.9"
   id="rect259" />
				<rect
   x="460.2"
   y="383.6"
   class="st0"
   width="20.6"
   height="7.5"
   id="rect261" />
				<rect
   x="460.2"
   y="377.1"
   class="st14"
   width="20.6"
   height="1.9"
   id="rect263" />
				<rect
   x="467.7"
   y="389.3"
   class="st0"
   width="5.6"
   height="13.1"
   id="rect265" />
				<rect
   x="458.3"
   y="365.8"
   class="st0"
   width="5.6"
   height="10.3"
   id="rect267" />
				<rect
   x="466.8"
   y="365.8"
   class="st0"
   width="2.8"
   height="3.8"
   id="rect269" />
				<rect
   x="471.4"
   y="365.8"
   class="st0"
   width="2.8"
   height="3.8"
   id="rect271" />
				<rect
   x="477.1"
   y="365.8"
   class="st0"
   width="5.6"
   height="10.3"
   id="rect273" />
			</g>
		</g>
	</g>
</g>
<g
   id="vSAN_vMotion">
	<g
   id="Layer_7">
	</g>
	<g
   id="g277">
		<g
   id="g279">
			<g
   id="g281">
				<path
   class="st16"
   d="M103.3,608.5L103.3,608.5l-0.4-0.1c-9.3-1-16.4-10-16.4-20.9s7-19.9,16.4-20.9l0.4,0v0h583.6l0.2,0      c9.2,0.4,16.4,9.6,16.4,21s-7.2,20.6-16.4,21l-0.4,0H103.3z"
   id="path283" />
				<path
   d="M686.7,567l0.4,0c8.9,0.4,15.9,9.4,15.9,20.5s-7,20.1-15.9,20.5l-0.3,0h-583l-0.9-0.1c-9.1-1-15.9-9.8-15.9-20.4      s6.9-19.4,15.9-20.4l0.9-0.1H686.7 M687.2,566H102.8v0.1c-9.4,1-16.8,10.2-16.8,21.4c0,11.2,7.4,20.4,16.8,21.4v0.1h584.3v0      c9.3-0.4,16.8-9.9,16.8-21.5S696.5,566.4,687.2,566L687.2,566L687.2,566z"
   id="path285" />
			</g>
			<g
   id="g287">
				<path
   class="st0"
   d="M685.4,605c-6.7,0-12.1-8-12.1-17.9c0-9.9,5.4-17.9,12.1-17.9s12.1,8,12.1,17.9      C697.5,596.9,692,605,685.4,605z"
   id="path289" />
				<path
   d="M685.4,569.6c6.4,0,11.6,7.8,11.6,17.4c0,9.6-5.2,17.4-11.6,17.4s-11.6-7.8-11.6-17.4      C673.7,577.5,679,569.6,685.4,569.6 M685.4,568.6c-7,0-12.6,8.3-12.6,18.4s5.7,18.4,12.6,18.4c7,0,12.6-8.3,12.6-18.4      S692.3,568.6,685.4,568.6L685.4,568.6z"
   id="path291" />
			</g>
		</g>
		<text
   class="st7 st8"
   id="text293"
   x="246"
   y="596"
   style="font-size:21px;font-family:MyriadPro-Regular">vSAN <tspan
   style="font-family:SimHei;-inkscape-font-specification:SimHei"
   id="tspan3379">和</tspan> vMotion - <tspan
   style="font-family:SimHei;-inkscape-font-specification:SimHei"
   id="tspan3381">专用</tspan> VLAN B</text>

	</g>
</g>
<g
   id="Logical_swiitch">
	<g
   id="g296">
		<g
   id="g298">
			<g
   id="g300">
				<g
   id="g302">
					<path
   class="st14"
   d="M311.5,480.5L311.5,480.5l-0.4-0.1c-6-1-10.6-10.2-10.6-20.9s4.7-19.9,10.6-20.9l0.4-0.1v0h382.2l0.2,0       c5.8,0.4,10.6,9.8,10.6,21s-4.7,20.6-10.6,21l-0.3,0H311.5z"
   id="path304" />
					<path
   d="M693.6,439l0.3,0c5.6,0.4,10.1,9.5,10.1,20.5s-4.5,20.1-10.1,20.5l-0.2,0h-382l-0.5-0.1c-5.7-1-10.2-9.9-10.2-20.4       s4.5-19.4,10.2-20.4l0.5-0.1H693.6 M694,438H311v0.1c-6.2,1-11,10.2-11,21.4c0,11.2,4.8,20.4,11,21.4v0.1H694v0       c6.1-0.4,11-9.9,11-21.5S700.1,438.4,694,438L694,438L694,438z"
   id="path306" />
				</g>
				<g
   id="g308">
					<path
   class="st0"
   d="M688.2,477c-6.8,0-12.4-8-12.4-17.9c0-9.9,5.6-17.9,12.4-17.9c6.8,0,12.4,8,12.4,17.9       C700.6,468.9,695,477,688.2,477z"
   id="path310" />
					<path
   d="M688.2,441.6c6.6,0,11.9,7.8,11.9,17.4c0,9.6-5.3,17.4-11.9,17.4c-6.6,0-11.9-7.8-11.9-17.4       C676.3,449.5,681.6,441.6,688.2,441.6 M688.2,440.6c-7.1,0-12.9,8.3-12.9,18.4c0,10.2,5.8,18.4,12.9,18.4       c7.1,0,12.9-8.3,12.9-18.4C701.1,448.9,695.3,440.6,688.2,440.6L688.2,440.6z"
   id="path312" />
				</g>
			</g>
		</g>
		<text
   class="st7 st8"
   id="text314"
   x="379"
   y="467"
   style="font-size:21px;font-family:MyriadPro-Regular"><tspan
   style="font-family:SimHei;-inkscape-font-specification:SimHei"
   id="tspan3371">逻辑交换机网络</tspan> (VXLAN)</text>

	</g>
	<g
   id="Layer_9">
	</g>
</g>
<g
   id="extended_network">
	<g
   id="g318">
		<g
   id="g320">
			<path
   class="st17"
   d="M682.5,368.5H529c-9.4,0-17,8.3-17,18.5c0,10.2,7.6,18.5,17,18.5h153.5c9.4,0,17-8.3,17-18.5     C699.5,376.8,691.9,368.5,682.5,368.5z"
   id="path322" />
			<ellipse
   class="st18"
   cx="681.9"
   cy="387"
   rx="11.4"
   ry="15.5"
   id="ellipse324" />
		</g>
		<text
   class="st7 st15"
   id="text326"
   x="558.5"
   y="393"
   style="font-size:18px;font-family:MyriadPro-Regular"><tspan
     style="font-family:SimHei;-inkscape-font-specification:SimHei"
     id="tspan3369">扩展网络</tspan></text>

	</g>
</g>
<g
   id="management_vxlan">
	<g
   id="Layer_6">
	</g>
	<g
   id="g330">
		<g
   id="g332">
			<g
   id="g334">
				<path
   class="st19"
   d="M102.3,547.5L102.3,547.5l-0.4-0.1c-9.3-1.1-16.4-10.3-16.4-21.4s7-20.3,16.4-21.4l0.4-0.1v-0.1h583.6      l0.2,0c9.2,0.4,16.4,9.8,16.4,21.5s-7.2,21.1-16.4,21.5l-0.4,0H102.3z"
   id="path336" />
				<path
   d="M685.7,505l0.4,0c8.9,0.4,15.9,9.6,15.9,21s-7,20.6-15.9,21l-0.3,0h-583l-0.9-0.1c-9.1-1-15.9-10-15.9-20.9      s6.9-19.9,15.9-20.9l0.9-0.1H685.7 M686.2,504H101.8v0.1C92.4,505.2,85,514.6,85,526c0,11.4,7.4,20.8,16.8,21.9v0.1h584.3v0      c9.3-0.4,16.8-10.1,16.8-22C703,514.1,695.5,504.4,686.2,504L686.2,504L686.2,504z"
   id="path338" />
			</g>
			<g
   id="g340">
				<path
   class="st0"
   d="M684.4,543.9c-6.7,0-12.1-8.2-12.1-18.4c0-10.1,5.4-18.4,12.1-18.4s12.1,8.2,12.1,18.4      C696.5,535.7,691,543.9,684.4,543.9z"
   id="path342" />
				<path
   d="M684.4,507.7c6.4,0,11.6,8,11.6,17.9c0,9.8-5.2,17.9-11.6,17.9s-11.6-8-11.6-17.9C672.7,515.7,678,507.7,684.4,507.7       M684.4,506.7c-7,0-12.6,8.4-12.6,18.9c0,10.4,5.7,18.9,12.6,18.9c7,0,12.6-8.4,12.6-18.9C697,515.1,691.3,506.7,684.4,506.7      L684.4,506.7z"
   id="path344" />
			</g>
		</g>
		<text
   class="st7 st8"
   id="text346"
   x="215"
   y="533"
   style="font-size:21px;font-family:MyriadPro-Regular"><tspan
   style="font-family:SimHei;-inkscape-font-specification:SimHei"
   id="tspan3373">管理和</tspan> VXLAN - <tspan
   style="font-family:SimHei;-inkscape-font-specification:SimHei"
   id="tspan3375">专用</tspan> VLAN A<tspan
   style="font-family:SimHei;-inkscape-font-specification:SimHei"
   id="tspan3377">（本机）</tspan></text>

	</g>
</g>
<g
   id="P_x2F_V">
	<g
   id="g349">
		<line
   class="st1"
   x1="121"
   y1="190"
   x2="121"
   y2="503.5"
   id="line351" />
		<g
   id="g353">
			<g
   id="g355">
				<g
   id="g357">
					<rect
   x="97.5"
   y="280"
   class="st20"
   width="47.3"
   height="47.3"
   id="rect359" />
					<linearGradient
   id="SVGID_1_"
   gradientUnits="userSpaceOnUse"
   x1="128.9627"
   y1="296.7212"
   x2="117.5096"
   y2="338.8456">
						<stop
   offset="0"
   style="stop-color:#CCE0F4"
   id="stop362" />
						<stop
   offset="7.748766e-02"
   style="stop-color:#C5DDF3"
   id="stop364" />
						<stop
   offset="0.1918"
   style="stop-color:#B1D5EF"
   id="stop366" />
						<stop
   offset="0.329"
   style="stop-color:#90C9EA"
   id="stop368" />
						<stop
   offset="0.4838"
   style="stop-color:#63B7E2"
   id="stop370" />
						<stop
   offset="0.6515"
   style="stop-color:#2AA1D9"
   id="stop372" />
						<stop
   offset="0.6829"
   style="stop-color:#1E9CD7"
   id="stop374" />
						<stop
   offset="0.8652"
   style="stop-color:#0075BE"
   id="stop376" />
						<stop
   offset="0.9944"
   style="stop-color:#005B97"
   id="stop378" />
					</linearGradient>
					<polygon
   class="st21"
   points="99.3,325.5 143,281.8 143,325.5      "
   id="polygon380" />
				</g>
				<text
   transform="matrix(1 0 0 1 101.084 315.4692)"
   class="st0 st13 st22"
   id="text382">P</text>

				<text
   transform="matrix(1 0 0 1 109.6836 324.0688)"
   class="st0 st13 st22"
   id="text384">V</text>

				<g
   id="g386">
					<g
   id="g388">
						<g
   id="g390">
							<g
   id="g392">
								<polygon
   class="st0"
   points="103.1,288.6 105.8,297.8 112.2,291.8         "
   id="polygon394" />
							</g>
						</g>
					</g>
					<g
   id="g396">
						<g
   id="g398">
							<g
   id="g400">
								
									<rect
   x="110"
   y="293.5"
   transform="matrix(0.7268 -0.6868 0.6868 0.7268 -174.0401 158.3445)"
   class="st0"
   width="4.1"
   height="9"
   id="rect402" />
							</g>
						</g>
					</g>
				</g>
				<g
   id="g404">
					<g
   id="g406">
						<g
   id="g408">
							<g
   id="g410">
								<polygon
   class="st0"
   points="135.6,322.1 125.5,318.2 132.2,311.8         "
   id="polygon412" />
							</g>
						</g>
					</g>
					<g
   id="g414">
						<g
   id="g416">
							<g
   id="g418">
								
									<rect
   x="123.2"
   y="306.1"
   transform="matrix(0.7268 -0.6868 0.6868 0.7268 -179.5351 171.1431)"
   class="st0"
   width="4.3"
   height="10.4"
   id="rect420" />
							</g>
						</g>
					</g>
				</g>
			</g>
		</g>
	</g>
</g>
<g
   id="Layer_15">
	<g
   id="g423">
		<g
   id="g425">
			<g
   id="g427">
				<rect
   x="50.5"
   y="720.9"
   class="st20"
   width="38.1"
   height="38.1"
   id="rect429" />
				<linearGradient
   id="SVGID_2_"
   gradientUnits="userSpaceOnUse"
   x1="75.8253"
   y1="734.3933"
   x2="66.6063"
   y2="768.3004">
					<stop
   offset="0"
   style="stop-color:#CCE0F4"
   id="stop432" />
					<stop
   offset="7.748766e-02"
   style="stop-color:#C5DDF3"
   id="stop434" />
					<stop
   offset="0.1918"
   style="stop-color:#B1D5EF"
   id="stop436" />
					<stop
   offset="0.329"
   style="stop-color:#90C9EA"
   id="stop438" />
					<stop
   offset="0.4838"
   style="stop-color:#63B7E2"
   id="stop440" />
					<stop
   offset="0.6515"
   style="stop-color:#2AA1D9"
   id="stop442" />
					<stop
   offset="0.6829"
   style="stop-color:#1E9CD7"
   id="stop444" />
					<stop
   offset="0.8652"
   style="stop-color:#0075BE"
   id="stop446" />
					<stop
   offset="0.9944"
   style="stop-color:#005B97"
   id="stop448" />
				</linearGradient>
				<polygon
   class="st23"
   points="52,757.5 87.1,722.4 87.1,757.5     "
   id="polygon450" />
			</g>
			<text
   transform="matrix(1 0 0 1 53.3848 749.484)"
   class="st0 st13 st24"
   id="text452">P</text>

			<text
   transform="matrix(1 0 0 1 60.3071 756.4059)"
   class="st0 st13 st24"
   id="text454">V</text>

			<g
   id="g456">
				<g
   id="g458">
					<g
   id="g460">
						<g
   id="g462">
							<polygon
   class="st0"
   points="55,727.9 57.2,735.3 62.3,730.4        "
   id="polygon464" />
						</g>
					</g>
				</g>
				<g
   id="g466">
					<g
   id="g468">
						<g
   id="g470">
							
								<rect
   x="60.6"
   y="731.8"
   transform="matrix(0.7268 -0.6868 0.6868 0.7268 -488.0847 243.6074)"
   class="st0"
   width="3.3"
   height="7.2"
   id="rect472" />
						</g>
					</g>
				</g>
			</g>
			<g
   id="g474">
				<g
   id="g476">
					<g
   id="g478">
						<g
   id="g480">
							<polygon
   class="st0"
   points="81.2,754.9 73,751.7 78.4,746.5        "
   id="polygon482" />
						</g>
					</g>
				</g>
				<g
   id="g484">
					<g
   id="g486">
						<g
   id="g488">
							
								<rect
   x="71.2"
   y="741.9"
   transform="matrix(0.7268 -0.6868 0.6868 0.7268 -492.5203 253.9219)"
   class="st0"
   width="3.5"
   height="8.4"
   id="rect490" />
						</g>
					</g>
				</g>
			</g>
		</g>
	</g>
	<text
   transform="matrix(1 0 0 1 38 780)"
   class="st7 st15"
   id="text492">NSX Edge</text>

</g>
<g
   id="L2_concentrator_bottom">
	<g
   id="g495">
		<path
   class="st14"
   d="M693,757h-18.5c-6.6,0-12-5.4-12-12v-15c0-6.6,5.4-12,12-12H693c6.6,0,12,5.4,12,12v15    C705,751.6,699.6,757,693,757z"
   id="path497" />
		<g
   id="g499">
			<rect
   x="671.9"
   y="727.4"
   class="st0"
   width="23.6"
   height="12.7"
   id="rect501" />
			<rect
   x="675.6"
   y="737.1"
   class="st0"
   width="16.2"
   height="6"
   id="rect503" />
			<rect
   x="675.6"
   y="731.9"
   class="st14"
   width="16.2"
   height="1.5"
   id="rect505" />
			<rect
   x="681.5"
   y="741.6"
   class="st0"
   width="4.4"
   height="10.4"
   id="rect507" />
			<rect
   x="674.2"
   y="722.9"
   class="st0"
   width="4.4"
   height="8.2"
   id="rect509" />
			<rect
   x="680.8"
   y="722.9"
   class="st0"
   width="2.2"
   height="3"
   id="rect511" />
			<rect
   x="684.5"
   y="722.9"
   class="st0"
   width="2.2"
   height="3"
   id="rect513" />
			<rect
   x="688.9"
   y="722.9"
   class="st0"
   width="4.4"
   height="8.2"
   id="rect515" />
		</g>
	</g>
	<text
   class="st7 st15"
   id="text517"
   x="648"
   y="780"
   style="font-size:18px;font-family:MyriadPro-Regular">L2 <tspan
   style="font-family:SimHei;-inkscape-font-specification:SimHei"
   id="tspan3387">集中器</tspan></text>

</g>
<g
   id="Layer_16">
	<g
   id="g520">
		<g
   id="g522">
			<rect
   x="164"
   y="722"
   class="st25"
   width="41.1"
   height="37"
   id="rect524" />
			<rect
   x="204.2"
   y="722"
   class="st26"
   width="89.8"
   height="37"
   id="rect526" />
		</g>
		<text
   transform="matrix(1 0 0 1 170.2979 746.4043)"
   class="st0 st7 st27"
   id="text528">VM</text>

		<text
   class="st0 st7 st27"
   id="text530"
   x="218.93649"
   y="746.4043"
   style="font-size:16.53190041px;fill:#ffffff;font-family:MyriadPro-Regular">HCX <tspan
   style="font-family:SimHei;-inkscape-font-specification:SimHei"
   id="tspan3385">云</tspan></text>

	</g>
	<text
   transform="matrix(1 0 0 1 176 780)"
   class="st7 st15"
   id="text532">HCX Manager</text>

</g>
<g
   id="VM_HCX">
	<g
   id="g535">
		<line
   class="st1"
   x1="212.5"
   y1="407.5"
   x2="212.5"
   y2="503.5"
   id="line537" />
		<g
   id="g539">
			<rect
   x="137"
   y="360.8"
   class="st25"
   width="48"
   height="47"
   id="rect541" />
			<rect
   x="184"
   y="360.8"
   class="st26"
   width="114"
   height="47"
   id="rect543" />
		</g>
		<text
   transform="matrix(1 0 0 1 145 391.75)"
   class="st0 st7 st8"
   id="text545">VM</text>

		<text
   class="st0 st7 st8"
   id="text547"
   x="203"
   y="391.75"
   style="font-size:21px;fill:#ffffff;font-family:MyriadPro-Regular">HCX <tspan
   style="font-family:SimHei;-inkscape-font-specification:SimHei"
   id="tspan3367">云</tspan></text>

	</g>
</g>
</svg>
