<?xml version="1.0" encoding="utf-8"?>
<!-- Generator: Adobe Illustrator 22.1.0, SVG Export Plug-In . SVG Version: 6.00 Build 0)  -->
<svg version="1.1" id="Layer_1" xmlns="http://www.w3.org/2000/svg" xmlns:xlink="http://www.w3.org/1999/xlink" x="0px" y="0px"
	 viewBox="0 0 600 320" style="enable-background:new 0 0 600 320;" xml:space="preserve">
<style type="text/css">
	.st0{fill:#4C84C5;}
	.st1{fill:#F49C58;}
	.st2{fill:#959595;}
	.st3{fill:#1DA78D;}
	.st4{fill:#FFFFFF;}
	.st5{font-family:'ArialMT';}
	.st6{font-size:21px;}
	.st7{font-size:18px;}
	.st8{enable-background:new    ;}
	.st9{font-size:14px;}
</style>
<rect y="81.7" class="st0" width="600" height="75.3"/>
<rect x="0.6" y="0.6" class="st1" width="600" height="74.3"/>
<rect y="239.7" class="st2" width="600" height="80.3"/>
<rect y="164" class="st3" width="190" height="68"/>
<rect x="205" y="163.4" class="st3" width="190" height="68.6"/>
<rect x="410" y="164" class="st3" width="190" height="68"/>
<text transform="matrix(1 0 0 1 184.7242 110.3711)" class="st4 st5 st6">Gestión de la virtualización</text>
<text transform="matrix(1 0 0 1 216.2242 144.3711)" class="st4 st5 st7">VMware vCenter Server</text>
<text transform="matrix(1 0 0 1 39.5488 181.8755)" class="st8"><tspan x="0" y="0" class="st4 st5 st7">Virtualización </tspan><tspan x="15.5" y="21.6" class="st4 st5 st7">de cálculo</tspan></text>
<text transform="matrix(1 0 0 1 41.1747 220.7755)" class="st4 st5 st9">VMware vSphere</text>
<text transform="matrix(1 0 0 1 231.4666 181.8755)" class="st8"><tspan x="0" y="0" class="st4 st5 st7">Virtualización de </tspan><tspan x="2.5" y="21.6" class="st4 st5 st7">almacenamiento</tspan></text>
<text transform="matrix(1 0 0 1 255.8037 220.7755)" class="st4 st5 st9">VMware vSAN</text>
<text transform="matrix(1 0 0 1 430.666 192.8755)" class="st4 st5 st7">Virtualización de red</text>
<text transform="matrix(1 0 0 1 462.666 216.7755)" class="st4 st5 st9">VMware NSX </text>
<text transform="matrix(1 0 0 1 146.074 272.5371)" class="st4 st5 st6">Infraestructura física en IBM Cloud</text>
<text transform="matrix(1 0 0 1 201.7869 27.4924)" class="st4 st5 st6">Infraestructura híbrida</text>
<text transform="matrix(1 0 0 1 159.8869 61.4924)" class="st4 st5 st7">VMware Hybrid Cloud Extension (HCX)</text>
<text transform="matrix(1 0 0 1 238.3247 303.3732)" class="st4 st5 st7">Almacenamiento</text>
<text transform="matrix(1 0 0 1 406.9552 303.3732)" class="st4 st5 st7">Red</text>
<text transform="matrix(1 0 0 1 134.5858 303.373)" class="st4 st5 st7">Cálculo</text>
</svg>
