<?xml version="1.0" encoding="utf-8"?>
<!-- Generator: Adobe Illustrator 22.1.0, SVG Export Plug-In . SVG Version: 6.00 Build 0)  -->
<svg version="1.1" id="Layer_1" xmlns="http://www.w3.org/2000/svg" xmlns:xlink="http://www.w3.org/1999/xlink" x="0px" y="0px"
	 viewBox="0 0 600 320" style="enable-background:new 0 0 600 320;" xml:space="preserve">
<style type="text/css">
	.st0{fill:#4C84C5;}
	.st1{fill:#959595;}
	.st2{fill:#1DA78D;}
	.st3{fill:#FFFFFF;}
	.st4{font-family:'Roboto-Light';}
	.st5{font-size:26px;}
	.st6{font-size:21px;}
</style>
<rect class="st0" width="600" height="100"/>
<rect y="220" class="st1" width="600" height="100"/>
<rect y="110" class="st2" width="297.5" height="100"/>
<rect x="305.3" y="110" class="st2" width="294.7" height="100"/>
<text transform="matrix(1 0 0 1 147.2559 43.3711)"><tspan x="0" y="0" class="st3 st4 st5">Gestión de la virtualización</tspan><tspan x="44.6" y="34" class="st3 st4 st6">VMware vCenter Server</tspan></text>
<text transform="matrix(1 0 0 1 7.0937 158.6688)"><tspan x="0" y="0" class="st3 st4 st5">Virtualización de cálculo</tspan><tspan x="60" y="23.9" class="st3 st4 st6">VMware vSphere</tspan></text>
<text transform="matrix(1 0 0 1 339.0298 159.7861)"><tspan x="0" y="0" class="st3 st4 st5">Virtualización de red</tspan><tspan x="54.9" y="23.9" class="st3 st4 st6">VMware NSX</tspan></text>
<text transform="matrix(1 0 0 1 99.7549 263.5371)"><tspan x="0" y="0" class="st3 st4 st5">Infraestructura física en IBM Cloud</tspan><tspan x="395.4" y="0" class="st3 st4 st6"> </tspan></text>
<text transform="matrix(1 0 0 1 429.6941 302.2838)" class="st3 st4 st6">Red</text>
<text transform="matrix(1 0 0 1 229.6609 302.8424)" class="st3 st4 st6">Almacenamiento</text>
<text transform="matrix(1 0 0 1 120.9846 302.7475)" class="st3 st4 st6">Cálculo</text>
</svg>
