<?xml version="1.0" encoding="UTF-8" standalone="no"?>
<!-- Generator: Adobe Illustrator 21.0.0, SVG Export Plug-In . SVG Version: 6.00 Build 0)  -->

<svg
   xmlns:dc="http://purl.org/dc/elements/1.1/"
   xmlns:cc="http://creativecommons.org/ns#"
   xmlns:rdf="http://www.w3.org/1999/02/22-rdf-syntax-ns#"
   xmlns:svg="http://www.w3.org/2000/svg"
   xmlns="http://www.w3.org/2000/svg"
   xmlns:sodipodi="http://sodipodi.sourceforge.net/DTD/sodipodi-0.dtd"
   xmlns:inkscape="http://www.inkscape.org/namespaces/inkscape"
   version="1.1"
   id="Layer_1"
   x="0px"
   y="0px"
   viewBox="0 0 602 322"
   style="enable-background:new 0 0 602 322;"
   xml:space="preserve"
   sodipodi:docname="vcscar-skate-language.svg"
   inkscape:version="0.92.3 (2405546, 2018-03-11)"><metadata
   id="metadata95"><rdf:RDF><cc:Work
       rdf:about=""><dc:format>image/svg+xml</dc:format><dc:type
         rdf:resource="http://purl.org/dc/dcmitype/StillImage" /><dc:title /></cc:Work></rdf:RDF></metadata><defs
   id="defs93">
	
	
	
	
	
	
	
	
	
	

		
		
	
		
		
		
		
		
	
		

		

	</defs><sodipodi:namedview
   pagecolor="#ffffff"
   bordercolor="#666666"
   borderopacity="1"
   objecttolerance="10"
   gridtolerance="10"
   guidetolerance="10"
   inkscape:pageopacity="0"
   inkscape:pageshadow="2"
   inkscape:window-width="3391"
   inkscape:window-height="1376"
   id="namedview91"
   showgrid="false"
   inkscape:zoom="1.4658385"
   inkscape:cx="107.73972"
   inkscape:cy="30.845508"
   inkscape:window-x="49"
   inkscape:window-y="27"
   inkscape:window-maximized="1"
   inkscape:current-layer="Layer_1" />
<style
   type="text/css"
   id="style2">
	.st0{fill:none;stroke:#7EA6E0;stroke-width:2;}
	.st1{font-family:'ArialMT';}
	.st2{font-size:10px;}
	.st3{fill:none;stroke:#000000;stroke-miterlimit:10;}
	.st4{stroke:#000000;stroke-miterlimit:10;}
	.st5{stroke:#000000;stroke-width:2;}
	.st6{fill:none;stroke:#000000;stroke-width:2;}
</style>
<path
   style="fill:none;stroke:#7ea6e0;stroke-width:2"
   inkscape:connector-curvature="0"
   id="path4"
   d="m 9,81.5 h 75 c 4.1,0 7.5,3.4 7.5,7.5 v 35 c 0,4.1 -3.4,7.5 -7.5,7.5 H 9 c -4.1,0 -7.5,-3.4 -7.5,-7.5 V 89 c 0,-4.1 3.4,-7.5 7.5,-7.5 z"
   class="st0"
   pointer-events="none" /><g
   id="g8"
   transform="translate(-2.1152055,0.5)">
		<text
   style="font-size:10px;font-family:ArialMT"
   id="text6"
   class="st1 st2"
   transform="translate(16.8696,108.5)"><tspan
     y="0"
     x="0"
     id="tspan7"
     sodipodi:role="line">basis-combo</tspan></text>


	</g><path
   style="fill:none;stroke:#7ea6e0;stroke-width:2"
   inkscape:connector-curvature="0"
   id="path10"
   d="m 189,81.5 h 75 c 4.1,0 7.5,3.4 7.5,7.5 v 35 c 0,4.1 -3.4,7.5 -7.5,7.5 h -75 c -4.1,0 -7.5,-3.4 -7.5,-7.5 V 89 c 0,-4.1 3.4,-7.5 7.5,-7.5 z"
   class="st0"
   pointer-events="none" /><g
   id="g14"
   transform="translate(-13.233368,0.5)">
		<text
   style="font-size:10px;font-family:ArialMT"
   id="text12"
   class="st1 st2"
   transform="translate(198.2612,108.5)"><tspan
     y="0"
     x="0"
     id="tspan12"
     sodipodi:role="line">nächster_combo</tspan></text>


	</g><g
   id="g38"
   transform="translate(0.5,0.5)">
			<g
   id="g24">
				<path
   class="st3"
   d="M 131,116 V 308.7 H 512.9"
   id="path16"
   inkscape:connector-curvature="0"
   style="fill:none;stroke:#000000;stroke-miterlimit:10" />
				<path
   class="st4"
   d="m 519.9,308.7 -7,3.5 v -7 z"
   id="path18"
   inkscape:connector-curvature="0"
   style="stroke:#000000;stroke-miterlimit:10" />
				<path
   class="st3"
   d="m 131,116 v 60 c 0,6.7 3.3,10 10,10 h 127.2"
   id="path20"
   inkscape:connector-curvature="0"
   style="fill:none;stroke:#000000;stroke-miterlimit:10" />
				<path
   class="st4"
   d="m 275.2,186 -7,3.5 v -7 z"
   id="path22"
   inkscape:connector-curvature="0"
   style="stroke:#000000;stroke-miterlimit:10" />
			</g>
			<circle
   class="st5"
   cx="131"
   cy="106"
   r="0"
   id="circle26"
   style="stroke:#000000;stroke-width:2" />
			<g
   id="g36">
				<path
   class="st3"
   d="m 321,211.3 v 72 h 191.9"
   id="path28"
   inkscape:connector-curvature="0"
   style="fill:none;stroke:#000000;stroke-miterlimit:10" />
				<path
   class="st4"
   d="m 519.9,283.3 -7,3.5 v -7 z"
   id="path30"
   inkscape:connector-curvature="0"
   style="stroke:#000000;stroke-miterlimit:10" />
				<path
   class="st3"
   d="M 331,106 H 561 V 263.2"
   id="path32"
   inkscape:connector-curvature="0"
   style="fill:none;stroke:#000000;stroke-miterlimit:10" />
				<path
   class="st4"
   d="m 561,270.2 -3.5,-7 h 7 z"
   id="path34"
   inkscape:connector-curvature="0"
   style="stroke:#000000;stroke-miterlimit:10" />
			</g>
		</g><path
   class="st0"
   d="m 284,161.5 h 75 c 4.1,0 7.5,3.4 7.5,7.5 v 35 c 0,4.1 -3.4,7.5 -7.5,7.5 h -75 c -4.1,0 -7.5,-3.4 -7.5,-7.5 v -35 c 0,-4.1 3.4,-7.5 7.5,-7.5 z"
   id="path40"
   inkscape:connector-curvature="0"
   style="fill:none;stroke:#7ea6e0;stroke-width:2" /><g
   id="g46"
   transform="translate(-6.936986,0.5)">
		<text
   style="font-size:10px;font-family:ArialMT"
   id="text44"
   class="st1 st2"
   transform="translate(286.5864,188.5)"><tspan
     y="0"
     x="0"
     id="tspan30"
     sodipodi:role="line">landungs-combo</tspan></text>


	</g><rect
   style="fill:none;stroke:#000000;stroke-width:2"
   id="rect48"
   height="50"
   width="80"
   class="st6"
   pointer-events="none"
   y="271.5"
   x="521.5" /><text
   class="st1 st2"
   id="text52"
   style="font-size:10px;font-family:ArialMT"
   x="545.69678"
   y="293.96094"><tspan
     sodipodi:role="line"
     id="tspan38"
     x="545.69678"
     y="293.96094">TRICK-</tspan><tspan
     id="tspan138"
     sodipodi:role="line"
     x="545.69678"
     y="306.46094">ENDE</tspan></text>
<path
   class="st3"
   d="m 91.5,106.5 h 30"
   id="path56"
   inkscape:connector-curvature="0"
   style="fill:none;stroke:#000000;stroke-miterlimit:10" /><path
   class="st3"
   d="m 141.4,106.4 40.1,0.1"
   id="path58"
   inkscape:connector-curvature="0"
   style="fill:none;stroke:#000000;stroke-miterlimit:10" /><circle
   class="st5"
   cx="321.5"
   cy="106.5"
   r="0"
   id="circle60"
   style="stroke:#000000;stroke-width:2" /><g
   id="g76"
   transform="translate(0.5,0.5)">
			<path
   class="st3"
   d="m 270.9,105.4 h 40"
   id="path62"
   inkscape:connector-curvature="0"
   style="fill:none;stroke:#000000;stroke-miterlimit:10" />
			<path
   class="st3"
   d="M 321,96 V 71 c 0,-6.7 -3.3,-10 -10,-10 h -79 c -6.7,0 -10,1.8 -10.1,5.4 l -0.1,5.4"
   id="path64"
   inkscape:connector-curvature="0"
   style="fill:none;stroke:#000000;stroke-miterlimit:10" />
			<path
   class="st4"
   d="m 221.7,78.9 -3.4,-7.1 7,0.1 z"
   id="path66"
   inkscape:connector-curvature="0"
   style="stroke:#000000;stroke-miterlimit:10" />
			<path
   class="st3"
   d="M 321,153.2 V 116"
   id="path68"
   inkscape:connector-curvature="0"
   style="fill:none;stroke:#000000;stroke-miterlimit:10" />
			<path
   class="st4"
   d="m 321,160.2 -3.5,-7 h 7 z"
   id="path70"
   inkscape:connector-curvature="0"
   style="stroke:#000000;stroke-miterlimit:10" />
			<path
   class="st3"
   d="M 46.3,51.3 V 73.2"
   id="path72"
   inkscape:connector-curvature="0"
   style="fill:none;stroke:#000000;stroke-miterlimit:10" />
			<path
   class="st4"
   d="m 46.3,80.2 -3.5,-7 h 7 z"
   id="path74"
   inkscape:connector-curvature="0"
   style="stroke:#000000;stroke-miterlimit:10" />
		</g><rect
   x="11.5"
   y="1.5"
   class="st6"
   width="70"
   height="50"
   id="rect78"
   style="fill:none;stroke:#000000;stroke-width:2" /><g
   id="g86"
   transform="translate(-3.3139992,4.6401367)">
		<text
   style="font-size:10px;font-family:ArialMT"
   id="text82"
   class="st1 st2"
   transform="translate(30.5,19.5)"><tspan
     y="0"
     x="0"
     id="tspan55"
     sodipodi:role="line">TRICK-</tspan></text>


		<text
   style="font-size:10px;font-family:ArialMT"
   id="text84"
   class="st1 st2"
   transform="translate(29.5723,31.5)"><tspan
     y="0"
     x="0"
     id="tspan58"
     sodipodi:role="line">ANFANG</tspan></text>


	</g>
</svg>
