<?xml version="1.0" encoding="UTF-8" standalone="no"?>
<svg
   xmlns:dc="http://purl.org/dc/elements/1.1/"
   xmlns:cc="http://creativecommons.org/ns#"
   xmlns:rdf="http://www.w3.org/1999/02/22-rdf-syntax-ns#"
   xmlns:svg="http://www.w3.org/2000/svg"
   xmlns="http://www.w3.org/2000/svg"
   xmlns:sodipodi="http://sodipodi.sourceforge.net/DTD/sodipodi-0.dtd"
   xmlns:inkscape="http://www.inkscape.org/namespaces/inkscape"
   width="871px"
   height="470px"
   version="1.1"
   id="svg382"
   sodipodi:docname="vcscontent-truehybrid.svg"
   inkscape:version="0.92.2 (5c3e80d, 2017-08-06)">
  <defs
     id="defs386" />
  <sodipodi:namedview
     pagecolor="#ffffff"
     bordercolor="#666666"
     borderopacity="1"
     objecttolerance="10"
     gridtolerance="10"
     guidetolerance="10"
     inkscape:pageopacity="0"
     inkscape:pageshadow="2"
     inkscape:window-width="1920"
     inkscape:window-height="1027"
     id="namedview384"
     showgrid="false"
     inkscape:zoom="1.6670494"
     inkscape:cx="403.24232"
     inkscape:cy="203.86213"
     inkscape:window-x="-8"
     inkscape:window-y="-8"
     inkscape:window-maximized="1"
     inkscape:current-layer="svg382" />
  <metadata
     id="metadata2">
    <rdf:RDF>
      <cc:Work
         rdf:about="">
        <dc:format>image/svg+xml</dc:format>
        <dc:type
           rdf:resource="http://purl.org/dc/dcmitype/StillImage" />
        <dc:title />
      </cc:Work>
    </rdf:RDF>
  </metadata>
  <g
     transform="translate(.5 .5)"
     id="g380">
    <rect
       width="870"
       height="469"
       fill="#f5f5f5"
       pointer-events="none"
       stroke="#666"
       id="rect4" />
    <g
       font-family="Helvetica"
       font-size="24px"
       text-anchor="middle"
       id="g8">
      <text
         x="84.5"
         y="33.5"
         id="text6">Coerenza</text>
    </g>
    <g
       font-family="Helvetica"
       font-size="24px"
       font-weight="bold"
       text-anchor="middle"
       id="g12">
      <text
         x="105.5"
         y="73.5"
         id="text10">Realmente ibrido</text>
    </g>
    <rect
       x="10"
       y="154"
       width="400"
       height="309"
       fill="#fff2cc"
       pointer-events="none"
       stroke="#d6b656"
       id="rect14" />
    <g
       font-family="Helvetica"
       font-size="16px"
       text-anchor="middle"
       id="g18">
      <text
         x="111.5"
         y="175.5"
         id="text16">IBM Cloud Private Hosted</text>
    </g>
    <rect
       x="169"
       y="224"
       width="79"
       height="30"
       fill="#9f9"
       pointer-events="none"
       stroke="#36393d"
       id="rect20" />
    <g
       font-family="Helvetica"
       font-size="10px"
       text-anchor="middle"
       id="g24">
      <text
         x="209.5"
         y="239.5"
         id="text22">DB2</text>
    </g>
    <rect
       x="310"
       y="169"
       width="79"
       height="30"
       fill="#9f9"
       pointer-events="none"
       stroke="#36393d"
       id="rect26" />
    <g
       font-family="Helvetica"
       font-size="10px"
       text-anchor="middle"
       id="g30">
      <text
         x="349"
         y="184.5"
         id="text28">VPN</text>
    </g>
    <rect
       x="310"
       y="209"
       width="79"
       height="30"
       fill="#9f9"
       pointer-events="none"
       stroke="#36393d"
       id="rect32" />
    <g
       font-family="Helvetica"
       font-size="10px"
       text-anchor="middle"
       id="g36">
      <text
         x="349"
         y="224.5"
         id="text34">Redis</text>
    </g>
    <rect
       x="25"
       y="379"
       width="79"
       height="30"
       fill="#9f9"
       pointer-events="none"
       stroke="#36393d"
       id="rect38" />
    <g
       font-family="Helvetica"
       font-size="10px"
       text-anchor="middle"
       id="g42">
      <text
         x="64"
         y="394.5"
         id="text40">Pipeline sviluppo</text>
    </g>
    <g
       pointer-events="none"
       id="g50">
      <path
         d="m310.4 184.2-95.67 37.67"
         fill="none"
         stroke="#000"
         stroke-miterlimit="10"
         id="path44" />
      <path
         d="m209.84 223.79 5.23-5.82-0.34 3.9 2.91 2.61z"
         stroke="#000"
         stroke-miterlimit="10"
         id="path46" />
      <rect
         x="169"
         y="362.5"
         width="79"
         height="30"
         fill="#9f9"
         stroke="#36393d"
         id="rect48" />
    </g>
    <g
       font-family="Helvetica"
       font-size="10px"
       text-anchor="middle"
       id="g54">
      <text
         x="209.5"
         y="378"
         id="text52">MQ</text>
    </g>
    <rect
       x="25"
       y="308"
       width="79"
       height="30"
       fill="#9cf"
       pointer-events="none"
       stroke="#6c8ebf"
       id="rect56" />
    <g
       font-family="Helvetica"
       font-size="10px"
       text-anchor="middle"
       id="g60">
      <text
         x="64"
         y="323.5"
         id="text58">Operatore</text>
    </g>
    <rect
       x="169"
       y="308"
       width="79"
       height="30"
       fill="#9cf"
       pointer-events="none"
       stroke="#6c8ebf"
       id="rect62" />
    <g
       font-family="Helvetica"
       font-size="10px"
       text-anchor="middle"
       id="g66">
      <text
         x="209.5"
         y="323.5"
         id="text64">Portfolio</text>
    </g>
    <rect
       x="169"
       y="419"
       width="79"
       height="30"
       fill="#9cf"
       pointer-events="none"
       stroke="#6c8ebf"
       id="rect68" />
    <g
       font-family="Helvetica"
       font-size="10px"
       text-anchor="middle"
       id="g72">
      <text
         x="208"
         y="434.5"
         id="text70">Messaggistica</text>
    </g>
    <rect
       x="310"
       y="268"
       width="79"
       height="30"
       fill="#9cf"
       pointer-events="none"
       stroke="#6c8ebf"
       id="rect74" />
    <g
       font-family="Helvetica"
       font-size="10px"
       text-anchor="middle"
       id="g78">
      <text
         x="349"
         y="283.5"
         id="text76">Quota Stock</text>
    </g>
    <rect
       x="310"
       y="328"
       width="79"
       height="30"
       fill="#9cf"
       pointer-events="none"
       stroke="#6c8ebf"
       id="rect80" />
    <g
       font-family="Helvetica"
       font-size="10px"
       text-anchor="middle"
       id="g84">
      <text
         x="349"
         y="343.5"
         id="text82">Livello fedeltà</text>
    </g>
    <rect
       x="310"
       y="385.5"
       width="79"
       height="30"
       fill="#9cf"
       pointer-events="none"
       stroke="#6c8ebf"
       id="rect86" />
    <g
       font-family="Helvetica"
       font-size="10px"
       text-anchor="middle"
       id="g92">
      <text
         x="349"
         y="401"
         id="text88">Notifica</text>
      <text
         x="349"
         y="413"
         id="text90">Slack</text>
    </g>
    <rect
       x="310"
       y="427"
       width="79"
       height="30"
       fill="#9cf"
       pointer-events="none"
       stroke="#6c8ebf"
       id="rect94" />
    <g
       font-family="Helvetica"
       font-size="10px"
       text-anchor="middle"
       id="g100">
      <text
         x="349"
         y="442.5"
         id="text96">Notifica</text>
      <text
         x="349"
         y="454.5"
         id="text98">Twitter</text>
    </g>
    <g
       pointer-events="none"
       id="g142">
      <g
         stroke="#000"
         stroke-miterlimit="10"
         id="g138">
        <path
           d="m104 323.4h58.43"
           fill="none"
           id="path102" />
        <path
           d="m167.68 323.4-7 3.5 1.75-3.5-1.75-3.5z"
           id="path104" />
        <path
           d="m248 323.4 57.04-36.56"
           fill="none"
           id="path106" />
        <path
           d="m309.46 284-4.01 6.73-0.41-3.89-3.36-2.01z"
           id="path108" />
        <path
           d="m248 323.4 56.34 18.06"
           fill="none"
           id="path110" />
        <path
           d="m309.34 343.06-7.74 1.2 2.74-2.8-0.6-3.87z"
           id="path112" />
        <path
           d="m210.4 308.2v-48.03"
           fill="none"
           id="path114" />
        <path
           d="m210.4 254.92 3.5 7-3.5-1.75-3.5 1.75z"
           id="path116" />
        <path
           d="m349.6 268.2v-22.43"
           fill="none"
           id="path118" />
        <path
           d="m349.6 240.52 3.5 7-3.5-1.75-3.5 1.75z"
           id="path120" />
        <path
           d="m349.6 357.8-95.35 18.77"
           fill="none"
           id="path122" />
        <path
           d="m249.1 377.58 6.19-4.78-1.04 3.77 2.39 3.1z"
           id="path124" />
        <path
           d="m208.8 392.2 0.15 20.43"
           fill="none"
           id="path126" />
        <path
           d="m208.99 417.88-3.55-6.97 3.51 1.72 3.49-1.77z"
           id="path128" />
        <path
           d="m248 433.8 56.79-30.58"
           fill="none"
           id="path130" />
        <path
           d="m309.42 400.73-4.51 6.4-0.12-3.91-3.2-2.25z"
           id="path132" />
        <path
           d="m248 433.8 56.08 7.19"
           fill="none"
           id="path134" />
        <path
           d="m309.29 441.66-7.39 2.58 2.18-3.25-1.29-3.69z"
           id="path136" />
      </g>
      <rect
         x="460"
         y="154"
         width="400"
         height="309"
         fill="#dae8fc"
         stroke="#6c8ebf"
         id="rect140" />
    </g>
    <g
       font-family="Helvetica"
       font-size="16px"
       text-anchor="middle"
       id="g146">
      <text
         x="767"
         y="175.5"
         id="text144">Servizio IBM Kubernetes</text>
    </g>
    <rect
       x="619"
       y="224"
       width="79"
       height="30"
       fill="#9f9"
       pointer-events="none"
       stroke="#36393d"
       id="rect148" />
    <g
       font-family="Helvetica"
       font-size="10px"
       text-anchor="middle"
       id="g152">
      <text
         x="659.5"
         y="239.5"
         id="text150">DB2</text>
    </g>
    <rect
       x="475"
       y="169"
       width="79"
       height="30"
       fill="#9f9"
       pointer-events="none"
       stroke="#36393d"
       id="rect154" />
    <g
       font-family="Helvetica"
       font-size="10px"
       text-anchor="middle"
       id="g158">
      <text
         x="514"
         y="184.5"
         id="text156">VPN</text>
    </g>
    <rect
       x="760"
       y="209"
       width="79"
       height="30"
       fill="#9f9"
       pointer-events="none"
       stroke="#36393d"
       id="rect160" />
    <g
       font-family="Helvetica"
       font-size="10px"
       text-anchor="middle"
       id="g164">
      <text
         x="799"
         y="224.5"
         id="text162">Redis</text>
    </g>
    <rect
       x="475"
       y="379"
       width="79"
       height="30"
       fill="#9f9"
       pointer-events="none"
       stroke="#36393d"
       id="rect166" />
    <g
       font-family="Helvetica"
       font-size="10px"
       text-anchor="middle"
       id="g170">
      <text
         x="514"
         y="394.5"
         id="text168">Pipeline sviluppo</text>
    </g>
    <g
       pointer-events="none"
       id="g178">
      <path
         d="m554.4 184.2 98.06 37.71"
         fill="none"
         stroke="#000"
         stroke-miterlimit="10"
         id="path172" />
      <path
         d="m657.36 223.8-7.79 0.75 2.89-2.64-0.38-3.89z"
         stroke="#000"
         stroke-miterlimit="10"
         id="path174" />
      <rect
         x="619"
         y="362.5"
         width="79"
         height="30"
         fill="#9f9"
         stroke="#36393d"
         id="rect176" />
    </g>
    <g
       font-family="Helvetica"
       font-size="10px"
       text-anchor="middle"
       id="g182">
      <text
         x="659.5"
         y="378"
         id="text180">MQ</text>
    </g>
    <rect
       x="475"
       y="308"
       width="79"
       height="30"
       fill="#9cf"
       pointer-events="none"
       stroke="#6c8ebf"
       id="rect184" />
    <g
       font-family="Helvetica"
       font-size="10px"
       text-anchor="middle"
       id="g188">
      <text
         x="514"
         y="323.5"
         id="text186">Operatore</text>
    </g>
    <rect
       x="619"
       y="308"
       width="79"
       height="30"
       fill="#9cf"
       pointer-events="none"
       stroke="#6c8ebf"
       id="rect190" />
    <g
       font-family="Helvetica"
       font-size="10px"
       text-anchor="middle"
       id="g194">
      <text
         x="659.5"
         y="323.5"
         id="text192">Portfolio</text>
    </g>
    <rect
       x="619"
       y="419"
       width="79"
       height="30"
       fill="#9cf"
       pointer-events="none"
       stroke="#6c8ebf"
       id="rect196" />
    <g
       font-family="Helvetica"
       font-size="10px"
       text-anchor="middle"
       id="g200">
      <text
         x="658"
         y="434.5"
         id="text198">Messaggistica</text>
    </g>
    <rect
       x="760"
       y="268"
       width="79"
       height="30"
       fill="#9cf"
       pointer-events="none"
       stroke="#6c8ebf"
       id="rect202" />
    <g
       font-family="Helvetica"
       font-size="10px"
       text-anchor="middle"
       id="g206">
      <text
         x="799"
         y="283.5"
         id="text204">Quota Stock</text>
    </g>
    <rect
       x="760"
       y="328"
       width="79"
       height="30"
       fill="#9cf"
       pointer-events="none"
       stroke="#6c8ebf"
       id="rect208" />
    <g
       font-family="Helvetica"
       font-size="10px"
       text-anchor="middle"
       id="g212">
      <text
         x="799"
         y="343.5"
         id="text210">Livello fedeltà</text>
    </g>
    <rect
       x="760"
       y="385.5"
       width="79"
       height="30"
       fill="#9cf"
       pointer-events="none"
       stroke="#6c8ebf"
       id="rect214" />
    <g
       font-family="Helvetica"
       font-size="10px"
       text-anchor="middle"
       id="g220">
      <text
         x="799"
         y="401"
         id="text216">Notifica</text>
      <text
         x="799"
         y="413"
         id="text218">(Slack)</text>
    </g>
    <rect
       x="760"
       y="427"
       width="79"
       height="30"
       fill="#9cf"
       pointer-events="none"
       stroke="#6c8ebf"
       id="rect222" />
    <g
       font-family="Helvetica"
       font-size="10px"
       text-anchor="middle"
       id="g228">
      <text
         x="799"
         y="442.5"
         id="text224">Notifica</text>
      <text
         x="799"
         y="454.5"
         id="text226">(Twitter)</text>
    </g>
    <g
       pointer-events="none"
       id="g270">
      <g
         stroke="#000"
         stroke-miterlimit="10"
         id="g262">
        <path
           d="m554.4 323.4h58.43"
           fill="none"
           id="path230" />
        <path
           d="m618.08 323.4-7 3.5 1.75-3.5-1.75-3.5z"
           id="path232" />
        <path
           d="m698.4 323.4 56.26-36.53"
           fill="none"
           id="path234" />
        <path
           d="m759.06 284.01-3.96 6.75-0.44-3.89-3.37-1.98z"
           id="path236" />
        <path
           d="m698.4 323.4 55.54 18.03"
           fill="none"
           id="path238" />
        <path
           d="m758.94 343.05-7.74 1.17 2.74-2.79-0.58-3.87z"
           id="path240" />
        <path
           d="m660 308.2v-48.03"
           fill="none"
           id="path242" />
        <path
           d="m660 254.92 3.5 7-3.5-1.75-3.5 1.75z"
           id="path244" />
        <path
           d="m799.2 357.8-94.55 18.76"
           fill="none"
           id="path246" />
        <path
           d="m699.5 377.58 6.18-4.79-1.03 3.77 2.39 3.09z"
           id="path248" />
        <path
           d="m658.4 392.2 0.46 20.43"
           fill="none"
           id="path250" />
        <path
           d="m658.97 417.88-3.65-6.92 3.54 1.67 3.46-1.82z"
           id="path252" />
        <path
           d="m698.4 433.8 56.01-30.55"
           fill="none"
           id="path254" />
        <path
           d="m759.02 400.74-4.47 6.42-0.14-3.91-3.21-2.24z"
           id="path256" />
        <path
           d="m698.4 433.8 55.29 7.18"
           fill="none"
           id="path258" />
        <path
           d="m758.89 441.66-7.39 2.57 2.19-3.25-1.29-3.7z"
           id="path260" />
      </g>
      <path
         d="m399.3 186.7v10.5l-10-13 10-13v10.5h65.4v-10.5l10 13-10 13v-10.5z"
         fill="#33f"
         id="path264" />
      <rect
         x="570"
         y="9"
         width="290"
         height="60"
         fill="#f5f5f5"
         stroke="#666"
         id="rect266" />
      <rect
         x="540"
         y="79"
         width="320"
         height="70"
         fill="#dae8fc"
         stroke="#6c8ebf"
         id="rect268" />
    </g>
    <g
       font-family="Helvetica"
       font-size="16px"
       text-anchor="middle"
       id="g274">
      <text
         x="758"
         y="99.5"
         id="text272">Servizi IBM Cloud pubblico</text>
    </g>
    <g
       font-family="Helvetica"
       font-size="16px"
       text-anchor="middle"
       id="g278">
      <text
         x="787"
         y="24.5"
         id="text276">Servizi di terze parti</text>
    </g>
    <rect
       x="760"
       y="114"
       width="79"
       height="30"
       fill="#f8cecc"
       pointer-events="none"
       stroke="#b85450"
       id="rect280" />
    <g
       font-family="Helvetica"
       font-size="10px"
       text-anchor="middle"
       id="g284">
      <text
         x="799"
         y="129.5"
         id="text282">Watson</text>
    </g>
    <rect
       x="660"
       y="114"
       width="79"
       height="30"
       fill="#f8cecc"
       pointer-events="none"
       stroke="#b85450"
       id="rect286" />
    <g
       font-family="Helvetica"
       font-size="10px"
       text-anchor="middle"
       id="g292">
      <text
         x="699"
         y="129.5"
         id="text288">Funzioni</text>
      <text
         x="699"
         y="141.5"
         id="text290">(OpenWhisk)</text>
    </g>
    <rect
       x="560"
       y="114"
       width="79"
       height="30"
       fill="#f8cecc"
       pointer-events="none"
       stroke="#b85450"
       id="rect294" />
    <g
       font-family="Helvetica"
       font-size="10px"
       text-anchor="middle"
       id="g298">
      <text
         x="599"
         y="129.5"
         id="text296">API Connect</text>
    </g>
    <rect
       x="760"
       y="34"
       width="79"
       height="30"
       fill="#ccc"
       pointer-events="none"
       stroke="#666"
       id="rect300" />
    <g
       font-family="Helvetica"
       font-size="10px"
       text-anchor="middle"
       id="g304">
      <text
         x="799"
         y="49.5"
         id="text302">Twitter</text>
    </g>
    <rect
       x="674.5"
       y="34"
       width="79"
       height="30"
       fill="#ccc"
       pointer-events="none"
       stroke="#666"
       id="rect306" />
    <g
       font-family="Helvetica"
       font-size="10px"
       text-anchor="middle"
       id="g310">
      <text
         x="713.5"
         y="49.5"
         id="text308">Slack</text>
    </g>
    <rect
       x="590"
       y="34"
       width="79"
       height="30"
       fill="#ccc"
       pointer-events="none"
       stroke="#666"
       id="rect312" />
    <g
       font-family="Helvetica"
       font-size="10px"
       text-anchor="middle"
       id="g316">
      <text
         x="629"
         y="49.5"
         id="text314">Servizio Stock</text>
    </g>
    <rect
       x="395.5"
       y="88.5"
       width="79"
       height="30"
       fill="#ccc"
       pointer-events="none"
       stroke="#666"
       id="rect318" />
    <g
       font-family="Helvetica"
       font-size="10px"
       text-anchor="middle"
       id="g322">
      <text
         x="434.5"
         y="104"
         id="text320">Browser</text>
    </g>
    <rect
       x="396"
       y="44"
       width="79"
       height="30"
       fill="#ccc"
       pointer-events="none"
       stroke="#666"
       id="rect324" />
    <g
       font-family="Helvetica"
       font-size="10px"
       text-anchor="middle"
       id="g328">
      <text
         x="435"
         y="59.5"
         id="text326">OIDC</text>
    </g>
    <g
       pointer-events="none"
       stroke="#000"
       stroke-miterlimit="10"
       id="g378">
      <path
         d="m435.2 118.6-22.58 30.11"
         fill="none"
         id="path330" />
      <path
         d="m409.47 152.91 1.4-7.7 1.75 3.5 3.85 0.7z"
         id="path332" />
      <path
         d="m435.2 118.6 21.19 30.76"
         fill="none"
         id="path334" />
      <path
         d="m459.37 153.68-6.86-3.78 3.88-0.54 1.89-3.43z"
         id="path336" />
      <path
         d="m104 388 34.78 7.63"
         fill="none"
         id="path338" />
      <path
         d="m143.91 396.76-7.59 1.92 2.46-3.05-0.96-3.79z"
         id="path340" />
      <path
         d="m104 388 34.08 27.96"
         fill="none"
         id="path342" />
      <path
         d="m142.14 419.29-7.64-1.73 3.58-1.6 0.86-3.82z"
         id="path344" />
      <path
         d="m104 388 36.21 48.88"
         fill="none"
         id="path346" />
      <path
         d="m143.33 441.1-6.97-3.54 3.85-0.68 1.77-3.49z"
         id="path348" />
      <path
         d="m104 388 35.88-10.25"
         fill="none"
         id="path350" />
      <path
         d="m144.93 376.31-5.77 5.29 0.72-3.85-2.65-2.89z"
         id="path352" />
      <path
         d="m104 388 34.84-25.26"
         fill="none"
         id="path354" />
      <path
         d="m143.09 359.66-3.61 6.94-0.64-3.86-3.47-1.81z"
         id="path356" />
      <path
         d="m554 388 34.78 7.63"
         fill="none"
         id="path358" />
      <path
         d="m593.91 396.76-7.59 1.92 2.46-3.05-0.96-3.79z"
         id="path360" />
      <path
         d="m554 388 34.08 27.96"
         fill="none"
         id="path362" />
      <path
         d="m592.14 419.29-7.64-1.73 3.58-1.6 0.86-3.82z"
         id="path364" />
      <path
         d="m554 388 36.21 48.88"
         fill="none"
         id="path366" />
      <path
         d="m593.33 441.1-6.97-3.54 3.85-0.68 1.77-3.49z"
         id="path368" />
      <path
         d="m554 388 35.88-10.25"
         fill="none"
         id="path370" />
      <path
         d="m594.93 376.31-5.77 5.29 0.72-3.85-2.65-2.89z"
         id="path372" />
      <path
         d="m554 388 34.84-25.26"
         fill="none"
         id="path374" />
      <path
         d="m593.09 359.66-3.61 6.94-0.64-3.86-3.47-1.81z"
         id="path376" />
    </g>
  </g>
</svg>
