<?xml version="1.0" encoding="UTF-8"?>
<svg width="871px" height="470px" version="1.1" xmlns="http://www.w3.org/2000/svg" xmlns:cc="http://creativecommons.org/ns#" xmlns:dc="http://purl.org/dc/elements/1.1/" xmlns:rdf="http://www.w3.org/1999/02/22-rdf-syntax-ns#">
 <metadata>
  <rdf:RDF>
   <cc:Work rdf:about="">
    <dc:format>image/svg+xml</dc:format>
    <dc:type rdf:resource="http://purl.org/dc/dcmitype/StillImage"/>
    <dc:title/>
   </cc:Work>
  </rdf:RDF>
 </metadata>
 <g transform="translate(.5 .5)">
  <rect width="870" height="469" fill="#f5f5f5" pointer-events="none" stroke="#666"/>
  <g font-family="Helvetica" font-size="24px" text-anchor="middle">
   <text x="84.5" y="33.5">Coherencia</text>
  </g>
  <g font-family="Helvetica" font-size="24px" font-weight="bold" text-anchor="middle">
   <text x="83.5" y="73.5">Hibridación real</text>
  </g>
  <rect x="10" y="154" width="400" height="309" fill="#fff2cc" pointer-events="none" stroke="#d6b656"/>
  <g font-family="Helvetica" font-size="16px" text-anchor="middle">
   <text x="111.5" y="175.5">IBM Cloud Private Hosted</text>
  </g>
  <rect x="169" y="224" width="79" height="30" fill="#9f9" pointer-events="none" stroke="#36393d"/>
  <g font-family="Helvetica" font-size="10px" text-anchor="middle">
   <text x="209.5" y="239.5">DB2</text>
  </g>
  <rect x="310" y="169" width="79" height="30" fill="#9f9" pointer-events="none" stroke="#36393d"/>
  <g font-family="Helvetica" font-size="10px" text-anchor="middle">
   <text x="349" y="184.5">VPN</text>
  </g>
  <rect x="310" y="209" width="79" height="30" fill="#9f9" pointer-events="none" stroke="#36393d"/>
  <g font-family="Helvetica" font-size="10px" text-anchor="middle">
   <text x="349" y="224.5">Redis</text>
  </g>
  <rect x="25" y="379" width="79" height="30" fill="#9f9" pointer-events="none" stroke="#36393d"/>
  <g font-family="Helvetica" font-size="10px" text-anchor="middle">
   <text x="64" y="394.5">Conducto desarr.</text>
  </g>
  <g pointer-events="none">
   <path d="m310.4 184.2-95.67 37.67" fill="none" stroke="#000" stroke-miterlimit="10"/>
   <path d="m209.84 223.79 5.23-5.82-0.34 3.9 2.91 2.61z" stroke="#000" stroke-miterlimit="10"/>
   <rect x="169" y="362.5" width="79" height="30" fill="#9f9" stroke="#36393d"/>
  </g>
  <g font-family="Helvetica" font-size="10px" text-anchor="middle">
   <text x="209.5" y="378">MQ</text>
  </g>
  <rect x="25" y="308" width="79" height="30" fill="#9cf" pointer-events="none" stroke="#6c8ebf"/>
  <g font-family="Helvetica" font-size="10px" text-anchor="middle">
   <text x="64" y="323.5">Operador</text>
  </g>
  <rect x="169" y="308" width="79" height="30" fill="#9cf" pointer-events="none" stroke="#6c8ebf"/>
  <g font-family="Helvetica" font-size="10px" text-anchor="middle">
   <text x="209.5" y="323.5">Cartera</text>
  </g>
  <rect x="169" y="419" width="79" height="30" fill="#9cf" pointer-events="none" stroke="#6c8ebf"/>
  <g font-family="Helvetica" font-size="10px" text-anchor="middle">
   <text x="208" y="434.5">Mensajería</text>
  </g>
  <rect x="310" y="268" width="79" height="30" fill="#9cf" pointer-events="none" stroke="#6c8ebf"/>
  <g font-family="Helvetica" font-size="10px" text-anchor="middle">
   <text x="349" y="283.5">Cotización</text>
  </g>
  <rect x="310" y="328" width="79" height="30" fill="#9cf" pointer-events="none" stroke="#6c8ebf"/>
  <g font-family="Helvetica" font-size="10px" text-anchor="middle">
   <text x="349" y="343.5">Nivel de fidelidad</text>
  </g>
  <rect x="310" y="385.5" width="79" height="30" fill="#9cf" pointer-events="none" stroke="#6c8ebf"/>
  <g font-family="Helvetica" font-size="10px" text-anchor="middle">
   <text x="349" y="401">Notificación</text>
   <text x="349" y="413">de Slack</text>
  </g>
  <rect x="310" y="427" width="79" height="30" fill="#9cf" pointer-events="none" stroke="#6c8ebf"/>
  <g font-family="Helvetica" font-size="10px" text-anchor="middle">
   <text x="349" y="442.5">Notificación</text>
   <text x="349" y="454.5">de Twitter</text>
  </g>
  <g pointer-events="none">
   <g stroke="#000" stroke-miterlimit="10">
    <path d="m104 323.4h58.43" fill="none"/>
    <path d="m167.68 323.4-7 3.5 1.75-3.5-1.75-3.5z"/>
    <path d="m248 323.4 57.04-36.56" fill="none"/>
    <path d="m309.46 284-4.01 6.73-0.41-3.89-3.36-2.01z"/>
    <path d="m248 323.4 56.34 18.06" fill="none"/>
    <path d="m309.34 343.06-7.74 1.2 2.74-2.8-0.6-3.87z"/>
    <path d="m210.4 308.2v-48.03" fill="none"/>
    <path d="m210.4 254.92 3.5 7-3.5-1.75-3.5 1.75z"/>
    <path d="m349.6 268.2v-22.43" fill="none"/>
    <path d="m349.6 240.52 3.5 7-3.5-1.75-3.5 1.75z"/>
    <path d="m349.6 357.8-95.35 18.77" fill="none"/>
    <path d="m249.1 377.58 6.19-4.78-1.04 3.77 2.39 3.1z"/>
    <path d="m208.8 392.2 0.15 20.43" fill="none"/>
    <path d="m208.99 417.88-3.55-6.97 3.51 1.72 3.49-1.77z"/>
    <path d="m248 433.8 56.79-30.58" fill="none"/>
    <path d="m309.42 400.73-4.51 6.4-0.12-3.91-3.2-2.25z"/>
    <path d="m248 433.8 56.08 7.19" fill="none"/>
    <path d="m309.29 441.66-7.39 2.58 2.18-3.25-1.29-3.69z"/>
   </g>
   <rect x="460" y="154" width="400" height="309" fill="#dae8fc" stroke="#6c8ebf"/>
  </g>
  <g font-family="Helvetica" font-size="16px" text-anchor="middle">
   <text x="767" y="175.5">Servicio IBM Kubernetes</text>
  </g>
  <rect x="619" y="224" width="79" height="30" fill="#9f9" pointer-events="none" stroke="#36393d"/>
  <g font-family="Helvetica" font-size="10px" text-anchor="middle">
   <text x="659.5" y="239.5">DB2</text>
  </g>
  <rect x="475" y="169" width="79" height="30" fill="#9f9" pointer-events="none" stroke="#36393d"/>
  <g font-family="Helvetica" font-size="10px" text-anchor="middle">
   <text x="514" y="184.5">VPN</text>
  </g>
  <rect x="760" y="209" width="79" height="30" fill="#9f9" pointer-events="none" stroke="#36393d"/>
  <g font-family="Helvetica" font-size="10px" text-anchor="middle">
   <text x="799" y="224.5">Redis</text>
  </g>
  <rect x="475" y="379" width="79" height="30" fill="#9f9" pointer-events="none" stroke="#36393d"/>
  <g font-family="Helvetica" font-size="10px" text-anchor="middle">
   <text x="514" y="394.5">Conducto desarr.</text>
  </g>
  <g pointer-events="none">
   <path d="m554.4 184.2 98.06 37.71" fill="none" stroke="#000" stroke-miterlimit="10"/>
   <path d="m657.36 223.8-7.79 0.75 2.89-2.64-0.38-3.89z" stroke="#000" stroke-miterlimit="10"/>
   <rect x="619" y="362.5" width="79" height="30" fill="#9f9" stroke="#36393d"/>
  </g>
  <g font-family="Helvetica" font-size="10px" text-anchor="middle">
   <text x="659.5" y="378">MQ</text>
  </g>
  <rect x="475" y="308" width="79" height="30" fill="#9cf" pointer-events="none" stroke="#6c8ebf"/>
  <g font-family="Helvetica" font-size="10px" text-anchor="middle">
   <text x="514" y="323.5">Operador</text>
  </g>
  <rect x="619" y="308" width="79" height="30" fill="#9cf" pointer-events="none" stroke="#6c8ebf"/>
  <g font-family="Helvetica" font-size="10px" text-anchor="middle">
   <text x="659.5" y="323.5">Cartera</text>
  </g>
  <rect x="619" y="419" width="79" height="30" fill="#9cf" pointer-events="none" stroke="#6c8ebf"/>
  <g font-family="Helvetica" font-size="10px" text-anchor="middle">
   <text x="658" y="434.5">Mensajería</text>
  </g>
  <rect x="760" y="268" width="79" height="30" fill="#9cf" pointer-events="none" stroke="#6c8ebf"/>
  <g font-family="Helvetica" font-size="10px" text-anchor="middle">
   <text x="799" y="283.5">Cotización</text>
  </g>
  <rect x="760" y="328" width="79" height="30" fill="#9cf" pointer-events="none" stroke="#6c8ebf"/>
  <g font-family="Helvetica" font-size="10px" text-anchor="middle">
   <text x="799" y="343.5">Nivel de fidelidad</text>
  </g>
  <rect x="760" y="385.5" width="79" height="30" fill="#9cf" pointer-events="none" stroke="#6c8ebf"/>
  <g font-family="Helvetica" font-size="10px" text-anchor="middle">
   <text x="799" y="401">Notificación</text>
   <text x="799" y="413">(Slack)</text>
  </g>
  <rect x="760" y="427" width="79" height="30" fill="#9cf" pointer-events="none" stroke="#6c8ebf"/>
  <g font-family="Helvetica" font-size="10px" text-anchor="middle">
   <text x="799" y="442.5">Notificación</text>
   <text x="799" y="454.5">(Twitter)</text>
  </g>
  <g pointer-events="none">
   <g stroke="#000" stroke-miterlimit="10">
    <path d="m554.4 323.4h58.43" fill="none"/>
    <path d="m618.08 323.4-7 3.5 1.75-3.5-1.75-3.5z"/>
    <path d="m698.4 323.4 56.26-36.53" fill="none"/>
    <path d="m759.06 284.01-3.96 6.75-0.44-3.89-3.37-1.98z"/>
    <path d="m698.4 323.4 55.54 18.03" fill="none"/>
    <path d="m758.94 343.05-7.74 1.17 2.74-2.79-0.58-3.87z"/>
    <path d="m660 308.2v-48.03" fill="none"/>
    <path d="m660 254.92 3.5 7-3.5-1.75-3.5 1.75z"/>
    <path d="m799.2 357.8-94.55 18.76" fill="none"/>
    <path d="m699.5 377.58 6.18-4.79-1.03 3.77 2.39 3.09z"/>
    <path d="m658.4 392.2 0.46 20.43" fill="none"/>
    <path d="m658.97 417.88-3.65-6.92 3.54 1.67 3.46-1.82z"/>
    <path d="m698.4 433.8 56.01-30.55" fill="none"/>
    <path d="m759.02 400.74-4.47 6.42-0.14-3.91-3.21-2.24z"/>
    <path d="m698.4 433.8 55.29 7.18" fill="none"/>
    <path d="m758.89 441.66-7.39 2.57 2.19-3.25-1.29-3.7z"/>
   </g>
   <path d="m399.3 186.7v10.5l-10-13 10-13v10.5h65.4v-10.5l10 13-10 13v-10.5z" fill="#33f"/>
   <rect x="570" y="9" width="290" height="60" fill="#f5f5f5" stroke="#666"/>
   <rect x="540" y="79" width="320" height="70" fill="#dae8fc" stroke="#6c8ebf"/>
  </g>
  <g font-family="Helvetica" font-size="16px" text-anchor="middle">
   <text x="758" y="99.5">Servicios de IBM Cloud Public</text>
  </g>
  <g font-family="Helvetica" font-size="16px" text-anchor="middle">
   <text x="787" y="24.5">Servicios de terceros</text>
  </g>
  <rect x="760" y="114" width="79" height="30" fill="#f8cecc" pointer-events="none" stroke="#b85450"/>
  <g font-family="Helvetica" font-size="10px" text-anchor="middle">
   <text x="799" y="129.5">Watson</text>
  </g>
  <rect x="660" y="114" width="79" height="30" fill="#f8cecc" pointer-events="none" stroke="#b85450"/>
  <g font-family="Helvetica" font-size="10px" text-anchor="middle">
   <text x="699" y="129.5">Functions</text>
   <text x="699" y="141.5">(OpenWhisk)</text>
  </g>
  <rect x="560" y="114" width="79" height="30" fill="#f8cecc" pointer-events="none" stroke="#b85450"/>
  <g font-family="Helvetica" font-size="10px" text-anchor="middle">
   <text x="599" y="129.5">API Connect</text>
  </g>
  <rect x="760" y="34" width="79" height="30" fill="#ccc" pointer-events="none" stroke="#666"/>
  <g font-family="Helvetica" font-size="10px" text-anchor="middle">
   <text x="799" y="49.5">Twitter</text>
  </g>
  <rect x="674.5" y="34" width="79" height="30" fill="#ccc" pointer-events="none" stroke="#666"/>
  <g font-family="Helvetica" font-size="10px" text-anchor="middle">
   <text x="713.5" y="49.5">Slack</text>
  </g>
  <rect x="590" y="34" width="79" height="30" fill="#ccc" pointer-events="none" stroke="#666"/>
  <g font-family="Helvetica" font-size="10px" text-anchor="middle">
   <text x="629" y="49.5">Servicio cotizac.</text>
  </g>
  <rect x="395.5" y="88.5" width="79" height="30" fill="#ccc" pointer-events="none" stroke="#666"/>
  <g font-family="Helvetica" font-size="10px" text-anchor="middle">
   <text x="434.5" y="104">Navegador</text>
  </g>
  <rect x="396" y="44" width="79" height="30" fill="#ccc" pointer-events="none" stroke="#666"/>
  <g font-family="Helvetica" font-size="10px" text-anchor="middle">
   <text x="435" y="59.5">OIDC</text>
  </g>
  <g pointer-events="none" stroke="#000" stroke-miterlimit="10">
   <path d="m435.2 118.6-22.58 30.11" fill="none"/>
   <path d="m409.47 152.91 1.4-7.7 1.75 3.5 3.85 0.7z"/>
   <path d="m435.2 118.6 21.19 30.76" fill="none"/>
   <path d="m459.37 153.68-6.86-3.78 3.88-0.54 1.89-3.43z"/>
   <path d="m104 388 34.78 7.63" fill="none"/>
   <path d="m143.91 396.76-7.59 1.92 2.46-3.05-0.96-3.79z"/>
   <path d="m104 388 34.08 27.96" fill="none"/>
   <path d="m142.14 419.29-7.64-1.73 3.58-1.6 0.86-3.82z"/>
   <path d="m104 388 36.21 48.88" fill="none"/>
   <path d="m143.33 441.1-6.97-3.54 3.85-0.68 1.77-3.49z"/>
   <path d="m104 388 35.88-10.25" fill="none"/>
   <path d="m144.93 376.31-5.77 5.29 0.72-3.85-2.65-2.89z"/>
   <path d="m104 388 34.84-25.26" fill="none"/>
   <path d="m143.09 359.66-3.61 6.94-0.64-3.86-3.47-1.81z"/>
   <path d="m554 388 34.78 7.63" fill="none"/>
   <path d="m593.91 396.76-7.59 1.92 2.46-3.05-0.96-3.79z"/>
   <path d="m554 388 34.08 27.96" fill="none"/>
   <path d="m592.14 419.29-7.64-1.73 3.58-1.6 0.86-3.82z"/>
   <path d="m554 388 36.21 48.88" fill="none"/>
   <path d="m593.33 441.1-6.97-3.54 3.85-0.68 1.77-3.49z"/>
   <path d="m554 388 35.88-10.25" fill="none"/>
   <path d="m594.93 376.31-5.77 5.29 0.72-3.85-2.65-2.89z"/>
   <path d="m554 388 34.84-25.26" fill="none"/>
   <path d="m593.09 359.66-3.61 6.94-0.64-3.86-3.47-1.81z"/>
  </g>
 </g>
</svg>
