<?xml version="1.0" encoding="utf-8"?>
<!-- Generator: Adobe Illustrator 16.0.0, SVG Export Plug-In . SVG Version: 6.00 Build 0)  -->
<!DOCTYPE svg PUBLIC "-//W3C//DTD SVG 1.1//EN" "http://www.w3.org/Graphics/SVG/1.1/DTD/svg11.dtd">
<svg version="1.1" id="Layer_1" xmlns="http://www.w3.org/2000/svg" xmlns:xlink="http://www.w3.org/1999/xlink" x="0px" y="0px"
	 width="603px" height="763px" viewBox="0 0 603 763" enable-background="new 0 0 603 763" xml:space="preserve">
<g transform="translate(0.5,0.5)">
	<rect x="6" y="219" pointer-events="none" fill="#FFFFFF" stroke="#000000" width="151" height="236"/>
	<g transform="translate(68.5,438.5)">
		<text transform="matrix(1 0 0 1 -2.5273 12)" font-family="'Helvetica'" font-size="12">ESG</text>
	</g>
	<rect x="362" y="481" pointer-events="none" fill="#FFFFFF" stroke="#000000" width="78" height="78"/>
	<g transform="translate(383.5,542.5)">
		<text transform="matrix(1 0 0 1 3.3047 12)" font-family="'Helvetica'" font-size="12">VCSA</text>
	</g>
	
		<image overflow="visible" enable-background="new    " width="34" height="33" xlink:href="8CCD2A2A.png"  pointer-events="none" transform="matrix(0.8235 0 0 0.8182 411.5 481.5)">
	</image>
	
		<image overflow="visible" enable-background="new    " width="373" height="376" xlink:href="8CCD2A2E.png"  pointer-events="none" transform="matrix(0.1099 0 0 0.1117 366.5 500.501)">
	</image>
	<g>
		<text transform="matrix(1 0 0 1 397.1055 538.5)" font-family="'Helvetica'" font-size="8">vCenter</text>
	</g>
	
		<image overflow="visible" enable-background="new    " width="201" height="190" xlink:href="8CCD2A29.png"  pointer-events="none" transform="matrix(0.4129 0 0 0.4105 189.5 269.5)">
	</image>
	<rect x="190" y="270" pointer-events="none" fill="none" stroke="#000000" width="83" height="78"/>
	<g>
		<text transform="matrix(1 0 0 1 195.9932 340.5)" fill="#FFFFFF" font-family="'Helvetica-Bold'" font-size="12">Proxy Squid</text>
	</g>
	
		<image overflow="visible" enable-background="new    " width="113" height="108" xlink:href="8CCD2A2B.png"  pointer-events="none" transform="matrix(0.7434 0 0 0.7407 37.4995 347)">
	</image>
	<g>
		<text transform="matrix(1 0 0 1 60.167 420)" font-family="'Helvetica'" font-size="12">Router</text>
	</g>
	<rect x="205" y="641" pointer-events="none" fill="#DAE8FC" stroke="#000000" width="80" height="80"/>
	<g transform="translate(206.5,690.5)">
		<text transform="matrix(1 0 0 1 -0.7021 19)" font-family="'Helvetica'" font-size="11">DNS IBM Cloud</text>
	</g>
	
		<image overflow="visible" enable-background="new    " width="267" height="200" xlink:href="8CCD2A28.png"  pointer-events="none" transform="matrix(0.3258 0 0 0.325 489.5 367.0005)">
	</image>
	<g>
		<text transform="matrix(1 0 0 1 520.001 425)" font-family="'Helvetica'" font-size="12">BCR</text>
	</g>
	<g transform="translate(377.5,483.5)">
		<text transform="matrix(1 0 0 1 -14.002 6.5)" enable-background="new    "><tspan x="0" y="0" font-family="'Helvetica'" font-size="8">Gestore</tspan><tspan x="0" y="9.6" font-family="'Helvetica'" font-size="8">aggiornamento</tspan></text>
	</g>
	<path pointer-events="none" fill="none" stroke="#000000" stroke-miterlimit="10" d="M490,387l-368,0.45"/>
	<path pointer-events="none" fill="none" stroke="#000000" stroke-miterlimit="10" d="M232,388v-40"/>
	<path pointer-events="none" fill="none" stroke="#000000" stroke-miterlimit="10" d="M401,410v71"/>
	<path pointer-events="none" fill="none" stroke="#000000" stroke-miterlimit="10" d="M600,600H200"/>
	<path pointer-events="none" fill="none" stroke="#000000" stroke-miterlimit="10" d="M518,432v168"/>
	<path pointer-events="none" fill="none" stroke="#000000" stroke-miterlimit="10" d="M247,561v40"/>
	
		<image overflow="visible" enable-background="new    " width="267" height="200" xlink:href="8CCD2A36.png"  pointer-events="none" transform="matrix(0.3258 0 0 0.325 490.5 137.5005)">
	</image>
	<g>
		<text transform="matrix(1 0 0 1 521.6689 195.5)" font-family="'Helvetica'" font-size="12">FCR</text>
	</g>
	<path pointer-events="none" fill="none" stroke="#000000" stroke-miterlimit="10" d="M491,171H0"/>
	<path pointer-events="none" fill="none" stroke="#000000" stroke-miterlimit="10" d="M80,170v178"/>
	
		<image overflow="visible" enable-background="new    " width="106" height="105" xlink:href="8CCD2A39.png"  pointer-events="none" transform="matrix(0.8396 0 0 0.8381 37.5 234.9995)">
	</image>
	<g>
		<text transform="matrix(1 0 0 1 59.1162 316)" font-family="'Helvetica'" font-size="12">NAT/FW</text>
	</g>
	<path pointer-events="none" fill="none" stroke="#000000" stroke-miterlimit="10" d="M534,138v-30"/>
	<path pointer-events="none" fill="none" stroke="#000000" stroke-miterlimit="10" d="M561,108.5L460,108"/>
	<path pointer-events="none" fill="none" stroke="#3399FF" stroke-width="3" stroke-miterlimit="10" stroke-dasharray="9,9" d="
		M250,368.1V405c0,6.667,3.333,10,10,10h120c6.667,0,10,3.333,10,10v34.9"/>
	<path pointer-events="none" fill="#3399FF" stroke="#3399FF" stroke-width="3" stroke-miterlimit="10" d="M250,361.35l4.5,9
		l-4.5-2.25l-4.5,2.25L250,361.35z"/>
	<path pointer-events="none" fill="#3399FF" stroke="#3399FF" stroke-width="3" stroke-miterlimit="10" d="M390,466.65l-4.5-9
		l4.5,2.25l4.5-2.25L390,466.65z"/>
	<path pointer-events="none" fill="none" stroke="#3399FF" stroke-width="3" stroke-miterlimit="10" stroke-dasharray="9,9" d="
		M140,335.1V405c0,6.667,3.333,10,10,10h50c6.667,0,10-3.333,10-10v-36.9"/>
	<path pointer-events="none" fill="#3399FF" stroke="#3399FF" stroke-width="3" stroke-miterlimit="10" d="M140,328.35l4.5,9
		l-4.5-2.25l-4.5,2.25L140,328.35z"/>
	<path pointer-events="none" fill="#3399FF" stroke="#3399FF" stroke-width="3" stroke-miterlimit="10" d="M210,361.35l4.5,9
		l-4.5-2.25l-4.5,2.25L210,361.35z"/>
	<rect x="121" pointer-events="none" fill="#DAE8FC" stroke="#000000" width="80" height="80"/>
	<g transform="translate(124.5,63.5)">
		<text transform="matrix(1 0 0 1 2 -19)" font-family="'Helvetica'" font-size="12">Repository</text>
	</g>
	<ellipse pointer-events="none" fill="#FFFFFF" stroke="#000000" cx="400" cy="108" rx="60" ry="30"/>
	<g transform="translate(377.5,101.5)">
		<text transform="matrix(1 0 0 1 -0.002 12)" font-family="'Helvetica'" font-size="12">internet</text>
	</g>
	<path pointer-events="none" fill="none" stroke="#000000" stroke-miterlimit="10" d="M340,108H80"/>
	<path pointer-events="none" fill="none" stroke="#000000" stroke-miterlimit="10" d="M161,80v28"/>
	<rect x="207" y="481" pointer-events="none" fill="#DAE8FC" stroke="#000000" width="80" height="80"/>
	<g transform="translate(223.5,544.5)">
		<text transform="matrix(1 0 0 1 0.9736 12)" font-family="'Helvetica'" font-size="12">AD/DNS</text>
	</g>
	<path pointer-events="none" fill="none" stroke="#00CC00" stroke-width="3" stroke-miterlimit="10" stroke-dasharray="9,9" d="
		M346.9,521H304.1"/>
	<path pointer-events="none" fill="#00CC00" stroke="#00CC00" stroke-width="3" stroke-miterlimit="10" d="M353.65,521l-9,4.5
		l2.25-4.5l-2.25-4.5L353.65,521z"/>
	<path pointer-events="none" fill="#00CC00" stroke="#00CC00" stroke-width="3" stroke-miterlimit="10" d="M297.35,521l9-4.5
		l-2.25,4.5l2.25,4.5L297.35,521z"/>
	<path pointer-events="none" fill="none" stroke="#00CC00" stroke-width="3" stroke-miterlimit="10" stroke-dasharray="9,9" d="
		M227,622.9V583.1"/>
	<path pointer-events="none" fill="#00CC00" stroke="#00CC00" stroke-width="3" stroke-miterlimit="10" d="M227,629.65l-4.5-9
		l4.5,2.25l4.5-2.25L227,629.65z"/>
	<path pointer-events="none" fill="#00CC00" stroke="#00CC00" stroke-width="3" stroke-miterlimit="10" d="M227,576.35l4.5,9
		l-4.5-2.25l-4.5,2.25L227,576.35z"/>
	<path pointer-events="none" fill="none" stroke="#3399FF" stroke-width="3" stroke-miterlimit="10" stroke-dasharray="9,9" d="
		M140,100.1v139.8"/>
	<path pointer-events="none" fill="#3399FF" stroke="#3399FF" stroke-width="3" stroke-miterlimit="10" d="M140,93.35l4.5,9
		l-4.5-2.25l-4.5,2.25L140,93.35z"/>
	<path pointer-events="none" fill="#3399FF" stroke="#3399FF" stroke-width="3" stroke-miterlimit="10" d="M140,246.65l-4.5-9
		l4.5,2.25l4.5-2.25L140,246.65z"/>
	<path pointer-events="none" fill="none" stroke="#000000" stroke-miterlimit="10" d="M551,432v328"/>
	<path pointer-events="none" fill="none" stroke="#000000" stroke-miterlimit="10" d="M600,760H200"/>
	<g transform="translate(173.5,604.5)">
		<text transform="matrix(1 0 0 1 -0.3418 12)" font-family="'Helvetica'" font-size="12">Riferimenti</text>
	</g>
	<path pointer-events="none" fill="none" stroke="#000000" stroke-miterlimit="10" d="M245,721v40"/>
	<g transform="translate(424.5,156.5)">
		<text transform="matrix(1 0 0 1 -13.6758 8)" font-family="'Helvetica'" font-size="11">Rete pubblica</text>
	</g>
	<g transform="translate(462.5,416.5)">
		<text transform="matrix(1 0 0 1 -7.3555 3.5)" font-family="'Helvetica'" font-size="10">Int-Mgt</text>
	</g>
	<g transform="translate(499.5,437.5)">
		<text transform="matrix(1 0 0 1 -1.3555 8)" font-family="'Helvetica'" font-size="10">Mgt</text>
	</g>
	<g transform="translate(553.5,436.5)">
		<text transform="matrix(1 0 0 1 5.1445 9)" font-family="'Helvetica'" font-size="10">Servizio</text>
	</g>
	<g transform="translate(206.5,424.5)">
		<text transform="matrix(1 0 0 1 0.334 8)" fill="#3399FF" font-family="'Helvetica-Bold'" font-size="10">HTTP/HTTPS</text>
	</g>
	<g transform="translate(317.5,498.5)">
		<text transform="matrix(1 0 0 1 -1.3379 8)" font-family="'Helvetica'" font-size="12">DNS</text>
	</g>
	<path pointer-events="none" fill="none" stroke="#000000" stroke-miterlimit="10" d="M491,409.5L360,410"/>
</g>
</svg>
