<?xml version="1.0" encoding="UTF-8" standalone="no"?>
<svg
   xmlns:dc="http://purl.org/dc/elements/1.1/"
   xmlns:cc="http://creativecommons.org/ns#"
   xmlns:rdf="http://www.w3.org/1999/02/22-rdf-syntax-ns#"
   xmlns:svg="http://www.w3.org/2000/svg"
   xmlns="http://www.w3.org/2000/svg"
   xmlns:sodipodi="http://sodipodi.sourceforge.net/DTD/sodipodi-0.dtd"
   xmlns:inkscape="http://www.inkscape.org/namespaces/inkscape"
   width="871px"
   height="470px"
   version="1.1"
   id="svg382"
   sodipodi:docname="vcscontent-truehybrid.svg"
   inkscape:version="0.92.3 (2405546, 2018-03-11)">
  <defs
     id="defs386" />
  <sodipodi:namedview
     pagecolor="#ffffff"
     bordercolor="#666666"
     borderopacity="1"
     objecttolerance="10"
     gridtolerance="10"
     guidetolerance="10"
     inkscape:pageopacity="0"
     inkscape:pageshadow="2"
     inkscape:window-width="1920"
     inkscape:window-height="1017"
     id="namedview384"
     showgrid="false"
     inkscape:zoom="1.6424961"
     inkscape:cx="435.92188"
     inkscape:cy="235"
     inkscape:window-x="-8"
     inkscape:window-y="-8"
     inkscape:window-maximized="1"
     inkscape:current-layer="svg382" />
  <metadata
     id="metadata2">
    <rdf:RDF>
      <cc:Work
         rdf:about="">
        <dc:format>image/svg+xml</dc:format>
        <dc:type
           rdf:resource="http://purl.org/dc/dcmitype/StillImage" />
        <dc:title />
      </cc:Work>
    </rdf:RDF>
  </metadata>
  <rect
     style="fill:#f5f5f5;stroke:#666666"
     y="0.5"
     x="0.5"
     id="rect4"
     pointer-events="none"
     height="469"
     width="870" />
  <g
     style="font-size:24px;font-family:'MS UI Gothic';text-anchor:middle"
     id="g8"
     font-size="24px"
     transform="translate(0.5,0.5)">
    <text
       id="text6"
       y="33.5"
       x="84.5">整合性</text>
  </g>
  <g
     style="font-weight:bold;font-size:24px;font-family:'MS UI Gothic';text-anchor:middle"
     id="g12"
     font-weight="bold"
     font-size="24px"
     transform="translate(0.5,0.5)">
    <text
       id="text10"
       y="73.5"
       x="83.5">真のハイブリッド</text>
  </g>
  <rect
     style="fill:#fff2cc;stroke:#d6b656"
     id="rect14"
     pointer-events="none"
     height="309"
     width="400"
     y="154.5"
     x="10.5" />
  <g
     style="font-size:16px;font-family:'MS UI Gothic';text-anchor:middle"
     id="g18"
     font-size="16px"
     transform="translate(0.5,0.5)">
    <text
       id="text16"
       y="175.5"
       x="111.5">IBM Cloud Private Hosted</text>
  </g>
  <rect
     style="fill:#99ff99;stroke:#36393d"
     id="rect20"
     pointer-events="none"
     height="30"
     width="79"
     y="224.5"
     x="169.5" />
  <g
     style="font-size:10px;font-family:'MS UI Gothic';text-anchor:middle"
     id="g24"
     font-size="10px"
     transform="translate(0.5,0.5)">
    <text
       id="text22"
       y="239.5"
       x="209.5">DB2</text>
  </g>
  <rect
     style="fill:#99ff99;stroke:#36393d"
     id="rect26"
     pointer-events="none"
     height="30"
     width="79"
     y="169.5"
     x="310.5" />
  <g
     style="font-size:10px;font-family:'MS UI Gothic';text-anchor:middle"
     id="g30"
     font-size="10px"
     transform="translate(0.5,0.5)">
    <text
       id="text28"
       y="184.5"
       x="349">VPN</text>
  </g>
  <rect
     style="fill:#99ff99;stroke:#36393d"
     id="rect32"
     pointer-events="none"
     height="30"
     width="79"
     y="209.5"
     x="310.5" />
  <g
     style="font-size:10px;font-family:'MS UI Gothic';text-anchor:middle"
     id="g36"
     font-size="10px"
     transform="translate(0.5,0.5)">
    <text
       id="text34"
       y="224.5"
       x="349">Redis</text>
  </g>
  <rect
     style="fill:#99ff99;stroke:#36393d"
     id="rect38"
     pointer-events="none"
     height="30"
     width="79"
     y="379.5"
     x="25.5" />
  <g
     style="font-size:10px;font-family:'MS UI Gothic';text-anchor:middle"
     id="g42"
     font-size="10px"
     transform="translate(0.5,0.5)">
    <text
       id="text40"
       y="394.5"
       x="64">開発パイプライン</text>
  </g>
  <g
     id="g50"
     pointer-events="none"
     transform="translate(0.5,0.5)">
    <path
       style="fill:none;stroke:#000000;stroke-miterlimit:10"
       inkscape:connector-curvature="0"
       id="path44"
       stroke-miterlimit="10"
       d="m 310.4,184.2 -95.67,37.67" />
    <path
       style="stroke:#000000;stroke-miterlimit:10"
       inkscape:connector-curvature="0"
       id="path46"
       stroke-miterlimit="10"
       d="m 209.84,223.79 5.23,-5.82 -0.34,3.9 2.91,2.61 z" />
    <rect
       style="fill:#99ff99;stroke:#36393d"
       id="rect48"
       height="30"
       width="79"
       y="362.5"
       x="169" />
  </g>
  <g
     style="font-size:10px;font-family:'MS UI Gothic';text-anchor:middle"
     id="g54"
     font-size="10px"
     transform="translate(0.5,0.5)">
    <text
       id="text52"
       y="378"
       x="209.5">MQ</text>
  </g>
  <rect
     style="fill:#99ccff;stroke:#6c8ebf"
     id="rect56"
     pointer-events="none"
     height="30"
     width="79"
     y="308.5"
     x="25.5" />
  <g
     style="font-size:10px;font-family:'MS UI Gothic';text-anchor:middle"
     id="g60"
     font-size="10px"
     transform="translate(0.5,0.5)">
    <text
       id="text58"
       y="323.5"
       x="64">Trader</text>
  </g>
  <rect
     style="fill:#99ccff;stroke:#6c8ebf"
     id="rect62"
     pointer-events="none"
     height="30"
     width="79"
     y="308.5"
     x="169.5" />
  <g
     style="font-size:10px;font-family:'MS UI Gothic';text-anchor:middle"
     id="g66"
     font-size="10px"
     transform="translate(0.5,0.5)">
    <text
       id="text64"
       y="323.5"
       x="209.5">ポートフォリオ</text>
  </g>
  <rect
     style="fill:#99ccff;stroke:#6c8ebf"
     id="rect68"
     pointer-events="none"
     height="30"
     width="79"
     y="419.5"
     x="169.5" />
  <g
     style="font-size:10px;font-family:'MS UI Gothic';text-anchor:middle"
     id="g72"
     font-size="10px"
     transform="translate(0.5,0.5)">
    <text
       id="text70"
       y="434.5"
       x="208">メッセージング</text>
  </g>
  <rect
     style="fill:#99ccff;stroke:#6c8ebf"
     id="rect74"
     pointer-events="none"
     height="30"
     width="79"
     y="268.5"
     x="310.5" />
  <g
     style="font-size:10px;font-family:'MS UI Gothic';text-anchor:middle"
     id="g78"
     font-size="10px"
     transform="translate(0.5,0.5)">
    <text
       id="text76"
       y="283.5"
       x="349">株価</text>
  </g>
  <rect
     style="fill:#99ccff;stroke:#6c8ebf"
     id="rect80"
     pointer-events="none"
     height="30"
     width="79"
     y="328.5"
     x="310.5" />
  <g
     style="font-size:10px;font-family:'MS UI Gothic';text-anchor:middle"
     id="g84"
     font-size="10px"
     transform="matrix(0.84816334,0,0,1,53.538445,0.5)">
    <text
       id="text82"
       y="343.5"
       x="349">ロイヤルティー・レベル</text>
  </g>
  <rect
     style="fill:#99ccff;stroke:#6c8ebf"
     id="rect86"
     pointer-events="none"
     height="30"
     width="79"
     y="386"
     x="310.5" />
  <g
     style="font-size:10px;font-family:'MS UI Gothic';text-anchor:middle"
     id="g92"
     font-size="10px"
     transform="translate(0.5,0.5)">
    <text
       id="text88"
       y="401"
       x="349">通知</text>
    <text
       id="text90"
       y="413"
       x="349">Slack</text>
  </g>
  <rect
     style="fill:#99ccff;stroke:#6c8ebf"
     id="rect94"
     pointer-events="none"
     height="30"
     width="79"
     y="427.5"
     x="310.5" />
  <g
     style="font-size:10px;font-family:'MS UI Gothic';text-anchor:middle"
     id="g100"
     font-size="10px"
     transform="translate(0.5,0.5)">
    <text
       id="text96"
       y="442.5"
       x="349">通知</text>
    <text
       id="text98"
       y="454.5"
       x="349">Twitter</text>
  </g>
  <g
     id="g142"
     pointer-events="none"
     transform="translate(0.5,0.5)">
    <g
       style="stroke:#000000;stroke-miterlimit:10"
       id="g138"
       stroke-miterlimit="10">
      <path
         style="fill:none"
         inkscape:connector-curvature="0"
         id="path102"
         d="m 104,323.4 h 58.43" />
      <path
         inkscape:connector-curvature="0"
         id="path104"
         d="m 167.68,323.4 -7,3.5 1.75,-3.5 -1.75,-3.5 z" />
      <path
         style="fill:none"
         inkscape:connector-curvature="0"
         id="path106"
         d="m 248,323.4 57.04,-36.56" />
      <path
         inkscape:connector-curvature="0"
         id="path108"
         d="m 309.46,284 -4.01,6.73 -0.41,-3.89 -3.36,-2.01 z" />
      <path
         style="fill:none"
         inkscape:connector-curvature="0"
         id="path110"
         d="m 248,323.4 56.34,18.06" />
      <path
         inkscape:connector-curvature="0"
         id="path112"
         d="m 309.34,343.06 -7.74,1.2 2.74,-2.8 -0.6,-3.87 z" />
      <path
         style="fill:none"
         inkscape:connector-curvature="0"
         id="path114"
         d="M 210.4,308.2 V 260.17" />
      <path
         inkscape:connector-curvature="0"
         id="path116"
         d="m 210.4,254.92 3.5,7 -3.5,-1.75 -3.5,1.75 z" />
      <path
         style="fill:none"
         inkscape:connector-curvature="0"
         id="path118"
         d="M 349.6,268.2 V 245.77" />
      <path
         inkscape:connector-curvature="0"
         id="path120"
         d="m 349.6,240.52 3.5,7 -3.5,-1.75 -3.5,1.75 z" />
      <path
         style="fill:none"
         inkscape:connector-curvature="0"
         id="path122"
         d="m 349.6,357.8 -95.35,18.77" />
      <path
         inkscape:connector-curvature="0"
         id="path124"
         d="m 249.1,377.58 6.19,-4.78 -1.04,3.77 2.39,3.1 z" />
      <path
         style="fill:none"
         inkscape:connector-curvature="0"
         id="path126"
         d="m 208.8,392.2 0.15,20.43" />
      <path
         inkscape:connector-curvature="0"
         id="path128"
         d="m 208.99,417.88 -3.55,-6.97 3.51,1.72 3.49,-1.77 z" />
      <path
         style="fill:none"
         inkscape:connector-curvature="0"
         id="path130"
         d="m 248,433.8 56.79,-30.58" />
      <path
         inkscape:connector-curvature="0"
         id="path132"
         d="m 309.42,400.73 -4.51,6.4 -0.12,-3.91 -3.2,-2.25 z" />
      <path
         style="fill:none"
         inkscape:connector-curvature="0"
         id="path134"
         d="m 248,433.8 56.08,7.19" />
      <path
         inkscape:connector-curvature="0"
         id="path136"
         d="m 309.29,441.66 -7.39,2.58 2.18,-3.25 -1.29,-3.69 z" />
    </g>
    <rect
       style="fill:#dae8fc;stroke:#6c8ebf"
       id="rect140"
       height="309"
       width="400"
       y="154"
       x="460" />
  </g>
  <g
     style="font-size:16px;font-family:'MS UI Gothic';text-anchor:middle"
     id="g146"
     font-size="16px"
     transform="translate(0.5,0.5)">
    <text
       id="text144"
       y="175.5"
       x="767">IBM Kubernetes Service</text>
  </g>
  <rect
     style="fill:#99ff99;stroke:#36393d"
     id="rect148"
     pointer-events="none"
     height="30"
     width="79"
     y="224.5"
     x="619.5" />
  <g
     style="font-size:10px;font-family:'MS UI Gothic';text-anchor:middle"
     id="g152"
     font-size="10px"
     transform="translate(0.5,0.5)">
    <text
       id="text150"
       y="239.5"
       x="659.5">DB2</text>
  </g>
  <rect
     style="fill:#99ff99;stroke:#36393d"
     id="rect154"
     pointer-events="none"
     height="30"
     width="79"
     y="169.5"
     x="475.5" />
  <g
     style="font-size:10px;font-family:'MS UI Gothic';text-anchor:middle"
     id="g158"
     font-size="10px"
     transform="translate(0.5,0.5)">
    <text
       id="text156"
       y="184.5"
       x="514">VPN</text>
  </g>
  <rect
     style="fill:#99ff99;stroke:#36393d"
     id="rect160"
     pointer-events="none"
     height="30"
     width="79"
     y="209.5"
     x="760.5" />
  <g
     style="font-size:10px;font-family:'MS UI Gothic';text-anchor:middle"
     id="g164"
     font-size="10px"
     transform="translate(0.5,0.5)">
    <text
       id="text162"
       y="224.5"
       x="799">Redis</text>
  </g>
  <rect
     style="fill:#99ff99;stroke:#36393d"
     id="rect166"
     pointer-events="none"
     height="30"
     width="79"
     y="379.5"
     x="475.5" />
  <g
     style="font-size:10px;font-family:'MS UI Gothic';text-anchor:middle"
     id="g170"
     font-size="10px"
     transform="translate(0.5,0.5)">
    <text
       id="text168"
       y="394.5"
       x="514">開発パイプライン</text>
  </g>
  <g
     id="g178"
     pointer-events="none"
     transform="translate(0.5,0.5)">
    <path
       style="fill:none;stroke:#000000;stroke-miterlimit:10"
       inkscape:connector-curvature="0"
       id="path172"
       stroke-miterlimit="10"
       d="m 554.4,184.2 98.06,37.71" />
    <path
       style="stroke:#000000;stroke-miterlimit:10"
       inkscape:connector-curvature="0"
       id="path174"
       stroke-miterlimit="10"
       d="m 657.36,223.8 -7.79,0.75 2.89,-2.64 -0.38,-3.89 z" />
    <rect
       style="fill:#99ff99;stroke:#36393d"
       id="rect176"
       height="30"
       width="79"
       y="362.5"
       x="619" />
  </g>
  <g
     style="font-size:10px;font-family:'MS UI Gothic';text-anchor:middle"
     id="g182"
     font-size="10px"
     transform="translate(0.5,0.5)">
    <text
       id="text180"
       y="378"
       x="659.5">MQ</text>
  </g>
  <rect
     style="fill:#99ccff;stroke:#6c8ebf"
     id="rect184"
     pointer-events="none"
     height="30"
     width="79"
     y="308.5"
     x="475.5" />
  <g
     style="font-size:10px;font-family:'MS UI Gothic';text-anchor:middle"
     id="g188"
     font-size="10px"
     transform="translate(0.5,0.5)">
    <text
       id="text186"
       y="323.5"
       x="514">Trader</text>
  </g>
  <rect
     style="fill:#99ccff;stroke:#6c8ebf"
     id="rect190"
     pointer-events="none"
     height="30"
     width="79"
     y="308.5"
     x="619.5" />
  <g
     style="font-size:10px;font-family:'MS UI Gothic';text-anchor:middle"
     id="g194"
     font-size="10px"
     transform="translate(0.5,0.5)">
    <text
       id="text192"
       y="323.5"
       x="659.5">ポートフォリオ</text>
  </g>
  <rect
     style="fill:#99ccff;stroke:#6c8ebf"
     id="rect196"
     pointer-events="none"
     height="30"
     width="79"
     y="419.5"
     x="619.5" />
  <g
     style="font-size:10px;font-family:'MS UI Gothic';text-anchor:middle"
     id="g200"
     font-size="10px"
     transform="translate(0.5,0.5)">
    <text
       id="text198"
       y="434.5"
       x="658">メッセージング</text>
  </g>
  <rect
     style="fill:#99ccff;stroke:#6c8ebf"
     id="rect202"
     pointer-events="none"
     height="30"
     width="79"
     y="268.5"
     x="760.5" />
  <g
     style="font-size:10px;font-family:'MS UI Gothic';text-anchor:middle"
     id="g206"
     font-size="10px"
     transform="translate(0.5,0.5)">
    <text
       id="text204"
       y="283.5"
       x="799">株価</text>
  </g>
  <rect
     style="fill:#99ccff;stroke:#6c8ebf"
     id="rect208"
     pointer-events="none"
     height="30"
     width="79"
     y="328.5"
     x="760.5" />
  <g
     style="font-size:10px;font-family:'MS UI Gothic';text-anchor:middle"
     id="g212"
     font-size="10px"
     transform="matrix(0.89371434,0,0,1,85.45546,0.5)">
    <text
       id="text210"
       y="343.5"
       x="799">ロイヤルティー・レベル</text>
  </g>
  <rect
     style="fill:#99ccff;stroke:#6c8ebf"
     id="rect214"
     pointer-events="none"
     height="30"
     width="79"
     y="386"
     x="760.5" />
  <g
     style="font-size:10px;font-family:'MS UI Gothic';text-anchor:middle"
     id="g220"
     font-size="10px"
     transform="translate(0.5,0.5)">
    <text
       id="text216"
       y="401"
       x="799">通知</text>
    <text
       id="text218"
       y="413"
       x="799">(Slack)</text>
  </g>
  <rect
     style="fill:#99ccff;stroke:#6c8ebf"
     id="rect222"
     pointer-events="none"
     height="30"
     width="79"
     y="427.5"
     x="760.5" />
  <g
     style="font-size:10px;font-family:'MS UI Gothic';text-anchor:middle"
     id="g228"
     font-size="10px"
     transform="translate(0.5,0.5)">
    <text
       id="text224"
       y="442.5"
       x="799">通知</text>
    <text
       id="text226"
       y="454.5"
       x="799">(Twitter)</text>
  </g>
  <g
     id="g270"
     pointer-events="none"
     transform="translate(0.5,0.5)">
    <g
       style="stroke:#000000;stroke-miterlimit:10"
       id="g262"
       stroke-miterlimit="10">
      <path
         style="fill:none"
         inkscape:connector-curvature="0"
         id="path230"
         d="m 554.4,323.4 h 58.43" />
      <path
         inkscape:connector-curvature="0"
         id="path232"
         d="m 618.08,323.4 -7,3.5 1.75,-3.5 -1.75,-3.5 z" />
      <path
         style="fill:none"
         inkscape:connector-curvature="0"
         id="path234"
         d="m 698.4,323.4 56.26,-36.53" />
      <path
         inkscape:connector-curvature="0"
         id="path236"
         d="m 759.06,284.01 -3.96,6.75 -0.44,-3.89 -3.37,-1.98 z" />
      <path
         style="fill:none"
         inkscape:connector-curvature="0"
         id="path238"
         d="m 698.4,323.4 55.54,18.03" />
      <path
         inkscape:connector-curvature="0"
         id="path240"
         d="m 758.94,343.05 -7.74,1.17 2.74,-2.79 -0.58,-3.87 z" />
      <path
         style="fill:none"
         inkscape:connector-curvature="0"
         id="path242"
         d="M 660,308.2 V 260.17" />
      <path
         inkscape:connector-curvature="0"
         id="path244"
         d="m 660,254.92 3.5,7 -3.5,-1.75 -3.5,1.75 z" />
      <path
         style="fill:none"
         inkscape:connector-curvature="0"
         id="path246"
         d="m 799.2,357.8 -94.55,18.76" />
      <path
         inkscape:connector-curvature="0"
         id="path248"
         d="m 699.5,377.58 6.18,-4.79 -1.03,3.77 2.39,3.09 z" />
      <path
         style="fill:none"
         inkscape:connector-curvature="0"
         id="path250"
         d="m 658.4,392.2 0.46,20.43" />
      <path
         inkscape:connector-curvature="0"
         id="path252"
         d="m 658.97,417.88 -3.65,-6.92 3.54,1.67 3.46,-1.82 z" />
      <path
         style="fill:none"
         inkscape:connector-curvature="0"
         id="path254"
         d="m 698.4,433.8 56.01,-30.55" />
      <path
         inkscape:connector-curvature="0"
         id="path256"
         d="m 759.02,400.74 -4.47,6.42 -0.14,-3.91 -3.21,-2.24 z" />
      <path
         style="fill:none"
         inkscape:connector-curvature="0"
         id="path258"
         d="m 698.4,433.8 55.29,7.18" />
      <path
         inkscape:connector-curvature="0"
         id="path260"
         d="m 758.89,441.66 -7.39,2.57 2.19,-3.25 -1.29,-3.7 z" />
    </g>
    <path
       style="fill:#3333ff"
       inkscape:connector-curvature="0"
       id="path264"
       d="m 399.3,186.7 v 10.5 l -10,-13 10,-13 v 10.5 h 65.4 v -10.5 l 10,13 -10,13 v -10.5 z" />
    <rect
       style="fill:#f5f5f5;stroke:#666666"
       id="rect266"
       height="60"
       width="290"
       y="9"
       x="570" />
    <rect
       style="fill:#dae8fc;stroke:#6c8ebf"
       id="rect268"
       height="70"
       width="320"
       y="79"
       x="540" />
  </g>
  <g
     style="font-size:16px;font-family:'MS UI Gothic';text-anchor:middle"
     id="g274"
     font-size="16px"
     transform="translate(0.5,0.5)">
    <text
       id="text272"
       y="99.5"
       x="758">IBM Cloud Public のサービス</text>
  </g>
  <g
     style="font-size:16px;font-family:'MS UI Gothic';text-anchor:middle"
     id="g278"
     font-size="16px"
     transform="translate(-17.5,0.5)">
    <text
       id="text276"
       y="24.5"
       x="787">サード・パーティーのサービス</text>
  </g>
  <rect
     style="fill:#f8cecc;stroke:#b85450"
     id="rect280"
     pointer-events="none"
     height="30"
     width="79"
     y="114.5"
     x="760.5" />
  <g
     style="font-size:10px;font-family:'MS UI Gothic';text-anchor:middle"
     id="g284"
     font-size="10px"
     transform="translate(0.5,0.5)">
    <text
       id="text282"
       y="129.5"
       x="799">Watson</text>
  </g>
  <rect
     style="fill:#f8cecc;stroke:#b85450"
     id="rect286"
     pointer-events="none"
     height="30"
     width="79"
     y="114.5"
     x="660.5" />
  <g
     style="font-size:10px;font-family:'MS UI Gothic';text-anchor:middle"
     id="g292"
     font-size="10px"
     transform="translate(0.5,0.5)">
    <text
       id="text288"
       y="129.5"
       x="699">Functions</text>
    <text
       id="text290"
       y="141.5"
       x="699">(OpenWhisk)</text>
  </g>
  <rect
     style="fill:#f8cecc;stroke:#b85450"
     id="rect294"
     pointer-events="none"
     height="30"
     width="79"
     y="114.5"
     x="560.5" />
  <g
     style="font-size:10px;font-family:'MS UI Gothic';text-anchor:middle"
     id="g298"
     font-size="10px"
     transform="translate(0.5,0.5)">
    <text
       id="text296"
       y="129.5"
       x="599">API Connect</text>
  </g>
  <rect
     style="fill:#cccccc;stroke:#666666"
     id="rect300"
     pointer-events="none"
     height="30"
     width="79"
     y="34.5"
     x="760.5" />
  <g
     style="font-size:10px;font-family:'MS UI Gothic';text-anchor:middle"
     id="g304"
     font-size="10px"
     transform="translate(0.5,0.5)">
    <text
       id="text302"
       y="49.5"
       x="799">Twitter</text>
  </g>
  <rect
     style="fill:#cccccc;stroke:#666666"
     id="rect306"
     pointer-events="none"
     height="30"
     width="79"
     y="34.5"
     x="675" />
  <g
     style="font-size:10px;font-family:'MS UI Gothic';text-anchor:middle"
     id="g310"
     font-size="10px"
     transform="translate(0.5,0.5)">
    <text
       id="text308"
       y="49.5"
       x="713.5">Slack</text>
  </g>
  <rect
     style="fill:#cccccc;stroke:#666666"
     id="rect312"
     pointer-events="none"
     height="30"
     width="79"
     y="34.5"
     x="590.5" />
  <g
     style="font-size:10px;font-family:'MS UI Gothic';text-anchor:middle"
     id="g316"
     font-size="10px"
     transform="translate(0.5,0.5)">
    <text
       id="text314"
       y="49.5"
       x="629">Stock Service</text>
  </g>
  <rect
     style="fill:#cccccc;stroke:#666666"
     id="rect318"
     pointer-events="none"
     height="30"
     width="79"
     y="89"
     x="396" />
  <g
     style="font-size:10px;font-family:'MS UI Gothic';text-anchor:middle"
     id="g322"
     font-size="10px"
     transform="translate(0.5,0.5)">
    <text
       id="text320"
       y="104"
       x="434.5">ブラウザー</text>
  </g>
  <rect
     style="fill:#cccccc;stroke:#666666"
     id="rect324"
     pointer-events="none"
     height="30"
     width="79"
     y="44.5"
     x="396.5" />
  <g
     style="font-size:10px;font-family:'MS UI Gothic';text-anchor:middle"
     id="g328"
     font-size="10px"
     transform="translate(0.5,0.5)">
    <text
       id="text326"
       y="59.5"
       x="435">OIDC</text>
  </g>
  <g
     style="stroke:#000000;stroke-miterlimit:10"
     id="g378"
     stroke-miterlimit="10"
     pointer-events="none"
     transform="translate(0.5,0.5)">
    <path
       style="fill:none"
       inkscape:connector-curvature="0"
       id="path330"
       d="m 435.2,118.6 -22.58,30.11" />
    <path
       inkscape:connector-curvature="0"
       id="path332"
       d="m 409.47,152.91 1.4,-7.7 1.75,3.5 3.85,0.7 z" />
    <path
       style="fill:none"
       inkscape:connector-curvature="0"
       id="path334"
       d="m 435.2,118.6 21.19,30.76" />
    <path
       inkscape:connector-curvature="0"
       id="path336"
       d="m 459.37,153.68 -6.86,-3.78 3.88,-0.54 1.89,-3.43 z" />
    <path
       style="fill:none"
       inkscape:connector-curvature="0"
       id="path338"
       d="m 104,388 34.78,7.63" />
    <path
       inkscape:connector-curvature="0"
       id="path340"
       d="m 143.91,396.76 -7.59,1.92 2.46,-3.05 -0.96,-3.79 z" />
    <path
       style="fill:none"
       inkscape:connector-curvature="0"
       id="path342"
       d="m 104,388 34.08,27.96" />
    <path
       inkscape:connector-curvature="0"
       id="path344"
       d="m 142.14,419.29 -7.64,-1.73 3.58,-1.6 0.86,-3.82 z" />
    <path
       style="fill:none"
       inkscape:connector-curvature="0"
       id="path346"
       d="m 104,388 36.21,48.88" />
    <path
       inkscape:connector-curvature="0"
       id="path348"
       d="m 143.33,441.1 -6.97,-3.54 3.85,-0.68 1.77,-3.49 z" />
    <path
       style="fill:none"
       inkscape:connector-curvature="0"
       id="path350"
       d="m 104,388 35.88,-10.25" />
    <path
       inkscape:connector-curvature="0"
       id="path352"
       d="m 144.93,376.31 -5.77,5.29 0.72,-3.85 -2.65,-2.89 z" />
    <path
       style="fill:none"
       inkscape:connector-curvature="0"
       id="path354"
       d="m 104,388 34.84,-25.26" />
    <path
       inkscape:connector-curvature="0"
       id="path356"
       d="m 143.09,359.66 -3.61,6.94 -0.64,-3.86 -3.47,-1.81 z" />
    <path
       style="fill:none"
       inkscape:connector-curvature="0"
       id="path358"
       d="m 554,388 34.78,7.63" />
    <path
       inkscape:connector-curvature="0"
       id="path360"
       d="m 593.91,396.76 -7.59,1.92 2.46,-3.05 -0.96,-3.79 z" />
    <path
       style="fill:none"
       inkscape:connector-curvature="0"
       id="path362"
       d="m 554,388 34.08,27.96" />
    <path
       inkscape:connector-curvature="0"
       id="path364"
       d="m 592.14,419.29 -7.64,-1.73 3.58,-1.6 0.86,-3.82 z" />
    <path
       style="fill:none"
       inkscape:connector-curvature="0"
       id="path366"
       d="m 554,388 36.21,48.88" />
    <path
       inkscape:connector-curvature="0"
       id="path368"
       d="m 593.33,441.1 -6.97,-3.54 3.85,-0.68 1.77,-3.49 z" />
    <path
       style="fill:none"
       inkscape:connector-curvature="0"
       id="path370"
       d="m 554,388 35.88,-10.25" />
    <path
       inkscape:connector-curvature="0"
       id="path372"
       d="m 594.93,376.31 -5.77,5.29 0.72,-3.85 -2.65,-2.89 z" />
    <path
       style="fill:none"
       inkscape:connector-curvature="0"
       id="path374"
       d="m 554,388 34.84,-25.26" />
    <path
       inkscape:connector-curvature="0"
       id="path376"
       d="m 593.09,359.66 -3.61,6.94 -0.64,-3.86 -3.47,-1.81 z" />
  </g>
</svg>
