<?xml version="1.0" encoding="UTF-8"?>
<svg width="871px" height="470px" version="1.1" xmlns="http://www.w3.org/2000/svg" xmlns:cc="http://creativecommons.org/ns#" xmlns:dc="http://purl.org/dc/elements/1.1/" xmlns:rdf="http://www.w3.org/1999/02/22-rdf-syntax-ns#">
 <metadata>
  <rdf:RDF>
   <cc:Work rdf:about="">
    <dc:format>image/svg+xml</dc:format>
    <dc:type rdf:resource="http://purl.org/dc/dcmitype/StillImage"/>
    <dc:title/>
   </cc:Work>
  </rdf:RDF>
 </metadata>
 <g transform="translate(.5 .5)">
  <g pointer-events="none">
   <rect width="870" height="469" fill="#f5f5f5" stroke="#666"/>
   <rect x="130" y="69" width="600" height="394" fill="#dae8fc" stroke="#6c8ebf"/>
   <rect x="570" y="149" width="150" height="310" fill="#dae8fc" stroke="#6c8ebf"/>
  </g>
  <g font-family="MS UI Gothic" font-size="24px" text-anchor="middle">
   <text x="214.5" y="33.5">Stock Trader - モノリシックなプラットフォームの再構築</text>
  </g>
  <rect x="160" y="149" width="400" height="310" fill="#fff2cc" pointer-events="none" stroke="#d6b656"/>
  <g font-family="MS UI Gothic" font-size="16px">
   <text x="165.5" y="169.5">IBM Cloud Private Hosted</text>
  </g>
  <rect x="394" y="93" width="79" height="30" fill="#9f9" pointer-events="none" stroke="#36393d"/>
  <g font-family="MS UI Gothic" font-size="10px" text-anchor="middle">
   <text x="434.5" y="108.5">DB2</text>
  </g>
  <g pointer-events="none">
   <rect x="175" y="189" width="345" height="240" fill="#9cf" stroke="#6c8ebf"/>
   <g stroke="#000" stroke-miterlimit="10">
    <path d="m520 249 69.63-0.92" fill="none"/>
    <path d="m594.88 248.01-6.95 3.6 1.7-3.53-1.79-3.47z"/>
    <path d="m434 189v-59.63" fill="none"/>
    <path d="m434 124.12 3.5 7-3.5-1.75-3.5 1.75z"/>
   </g>
  </g>
  <g font-family="MS UI Gothic" font-size="16px">
   <text x="135.5" y="89">IBM Cloud</text>
  </g>
  <path d="m675 248h64.63" fill="none" pointer-events="none" stroke="#000" stroke-miterlimit="10"/>
  <path d="m744.88 248-7 3.5 1.75-3.5-1.75-3.5z" pointer-events="none" stroke="#000" stroke-miterlimit="10"/>
  <g font-family="MS UI Gothic" font-size="16px" text-anchor="middle">
   <text x="646.5" y="169.5">IBM Cloud サービス</text>
  </g>
  <rect x="595.5" y="233" width="79" height="30" fill="#f8cecc" pointer-events="none" stroke="#b85450"/>
  <g font-family="MS UI Gothic" font-size="10px" text-anchor="middle">
   <text x="634.5" y="248.5">API Connect</text>
  </g>
  <rect x="30" y="332" width="79" height="30" fill="#ccc" pointer-events="none" stroke="#666"/>
  <g font-family="MS UI Gothic" font-size="10px" text-anchor="middle">
   <text x="69" y="347.5">ブラウザー</text>
  </g>
  <rect x="30" y="272" width="79" height="30" fill="#ccc" pointer-events="none" stroke="#666"/>
  <g font-family="MS UI Gothic" font-size="10px" text-anchor="middle">
   <text x="69" y="287.5">OIDC</text>
  </g>
  <g pointer-events="none">
   <g stroke="#000" stroke-miterlimit="10">
    <path d="m109 347 60.48-34.82" fill="none"/>
    <path d="m174.03 309.56-4.32 6.52-0.23-3.9-3.26-2.16z"/>
    <path d="m115.04 289.01 53.92 17.98" fill="none"/>
    <path d="m110.06 287.35 7.75-1.1-2.77 2.76 0.55 3.88z"/>
    <path d="m173.94 308.65-7.75 1.1 2.77-2.76-0.55-3.88z"/>
   </g>
   <rect x="745.5" y="233" width="79" height="30" fill="#ccc" stroke="#666"/>
  </g>
  <g font-family="MS UI Gothic" font-size="10px" text-anchor="middle">
   <text x="784.5" y="250">Stock Service</text>
  </g>
  <g font-family="MS UI Gothic" font-size="16px" text-anchor="middle">
   <text x="341.5" y="283.5">Stock Trader</text>
   <text x="341.5" y="340.5">Web アプリ</text>
  </g>
 </g>
</svg>
