<?xml version="1.0" encoding="utf-8"?>
<!-- Generator: Adobe Illustrator 19.2.1, SVG Export Plug-In . SVG Version: 6.00 Build 0)  -->
<svg version="1.1" id="Layer_1" xmlns="http://www.w3.org/2000/svg" xmlns:xlink="http://www.w3.org/1999/xlink" x="0px" y="0px"
	 viewBox="0 0 725 315" style="enable-background:new 0 0 725 315;" xml:space="preserve">
<style type="text/css">
	.st0{fill:#4B84C4;}
	.st1{fill:#959595;}
	.st2{fill:#1AA78D;}
	.st3{fill:#F59C57;}
	.st4{fill:#FFFFFF;}
	.st5{font-family:'Gulim';}
	.st6{font-size:22.7167px;}
	.st7{font-family:'Roboto-Light';}
	.st8{font-size:15.7941px;}
	.st9{font-size:22.8137px;}
	.st10{font-size:16px;}
	.st11{font-size:23px;}
	.st12{font-size:19px;}
</style>
<rect x="198.5" y="0.8" class="st0" width="526.5" height="89.1"/>
<rect x="-0.3" y="204.9" class="st1" width="725.3" height="110.1"/>
<rect x="198.5" y="101.6" class="st2" width="170.7" height="89.9"/>
<rect x="375.4" y="103.7" class="st2" width="169.8" height="87.7"/>
<rect x="551.9" y="103.7" class="st2" width="173.1" height="87.7"/>
<g id="Layer_2">
	<rect x="0.3" y="0.9" class="st3" width="186.9" height="190.5"/>
</g>
<g id="Layer_4">
	<text transform="matrix(1 0 0 1 33.9713 35.8409)"><tspan x="0" y="0" class="st4 st5 st6">공통</tspan><tspan x="45.4" y="0" class="st4 st7 st6"> </tspan><tspan x="50.2" y="0" class="st4 st5 st6">서비스</tspan></text>
	<text transform="matrix(1 0 0 1 76.4698 75.3497)"><tspan x="0" y="0" class="st4 st5 st8">인증</tspan><tspan x="1.4" y="31.4" class="st4 st7 st8">DNS</tspan><tspan x="2.5" y="62.8" class="st4 st7 st8">NTP</tspan><tspan x="-17.5" y="94.3" class="st4 st5 st8">인증</tspan><tspan x="14.1" y="94.3" class="st4 st7 st8"> </tspan><tspan x="17.5" y="94.3" class="st4 st5 st8">기관</tspan></text>
</g>
<text transform="matrix(1 0 0 1 402.3136 38.8409)"><tspan x="0" y="0" class="st4 st5 st9">가상화</tspan><tspan x="68.4" y="0" class="st4 st7 st9"> </tspan><tspan x="73.3" y="0" class="st4 st5 st9">관리</tspan><tspan x="-51.6" y="29.8" class="st4 st7 st9">VMware vCenter Server</tspan></text>
<text transform="matrix(1 0 0 1 232.6354 139.9747)"><tspan x="0" y="0" class="st4 st5 st10">컴퓨팅</tspan><tspan x="48" y="0" class="st4 st7 st10"> </tspan><tspan x="51.4" y="0" class="st4 st5 st10">가상화</tspan><tspan x="-6.7" y="20.9" class="st4 st7 st10">VMware vSphere</tspan></text>
<text transform="matrix(1 0 0 1 565.1388 141.4337)" class="st4 st7 st10">NetApp ONTAP Select</text>
<text transform="matrix(1 0 0 1 402.0714 140.9747)"><tspan x="0" y="0" class="st4 st5 st10">네트워크</tspan><tspan x="64" y="0" class="st4 st7 st10"> </tspan><tspan x="67.4" y="0" class="st4 st5 st10">가상화</tspan><tspan x="11.6" y="20.9" class="st4 st7 st10">VMware NSX  </tspan></text>
<text transform="matrix(1 0 0 1 189.6681 246.7403)" class="st4 st7 st11">Physical Infrastructure on IBM Cloud</text>
<text transform="matrix(1 0 0 1 209.3436 294.1616)" class="st4 st5 st12">컴퓨팅</text>
<text transform="matrix(1 0 0 1 326.8168 294.1616)"><tspan x="0" y="0" class="st4 st5 st12">스토리지</tspan><tspan x="76" y="0" class="st4 st7 st12"> </tspan></text>
<text transform="matrix(1 0 0 1 444.9416 293.2401)" class="st4 st5 st12">네트워크</text>
</svg>
