<?xml version="1.0" encoding="utf-8"?>
<!-- Generator: Adobe Illustrator 16.0.0, SVG Export Plug-In . SVG Version: 6.00 Build 0)  -->
<!DOCTYPE svg PUBLIC "-//W3C//DTD SVG 1.1//EN" "http://www.w3.org/Graphics/SVG/1.1/DTD/svg11.dtd">
<svg version="1.1" id="Layer_1" xmlns="http://www.w3.org/2000/svg" xmlns:xlink="http://www.w3.org/1999/xlink" x="0px" y="0px"
	 width="600px" height="325px" viewBox="0 0 600 325" enable-background="new 0 0 600 325" xml:space="preserve">
<g>
	<rect x="211.065" y="134.546" fill="#00ABB0" stroke="#00ABB0" stroke-miterlimit="10" width="178.681" height="54.786"/>
	<text transform="matrix(0.9982 0 0 1 231.8291 167.1816)" fill="#FFFFFF" font-family="'Roboto-Regular'" font-size="17.9367">Istanza primaria</text>
	<g>
		<rect fill="#118ACB" stroke="#118ACB" stroke-miterlimit="10" width="178.681" height="54.786"/>
		<text transform="matrix(0.9982 0 0 1 9.314 32.6348)" fill="#FFFFFF" font-family="'Roboto-Regular'" font-size="17.9367">Istanza secondaria</text>
		<rect x="421.32" fill="#118ACB" stroke="#118ACB" stroke-miterlimit="10" width="178.68" height="54.786"/>
		<text transform="matrix(0.9982 0 0 1 430.6318 32.6348)" fill="#FFFFFF" font-family="'Roboto-Regular'" font-size="17.9367">Istanza secondaria</text>
	</g>
	<g>
		<rect y="270.213" fill="#118ACB" stroke="#118ACB" stroke-miterlimit="10" width="178.681" height="54.787"/>
		<text transform="matrix(0.9982 0 0 1 9.314 302.8486)" fill="#FFFFFF" font-family="'Roboto-Regular'" font-size="17.9367">Istanza secondaria</text>
		<rect x="421.32" y="270.213" fill="#118ACB" stroke="#118ACB" stroke-miterlimit="10" width="178.68" height="54.787"/>
		<text transform="matrix(0.9982 0 0 1 430.6318 302.8486)" fill="#FFFFFF" font-family="'Roboto-Regular'" font-size="17.9367">Istanza secondaria</text>
	</g>
	<g>
		<g>
			<g>
				<line fill="none" stroke="#118ACB" stroke-miterlimit="10" x1="182.443" y1="27.393" x2="294.672" y2="128.856"/>
				<g>
					<path fill="#118ACB" d="M297.358,131.284c-1.688-0.674-3.979-1.292-5.718-1.323l2.679-1.424l1.147-2.809
						C295.673,127.455,296.518,129.673,297.358,131.284z"/>
				</g>
			</g>
		</g>
		<g>
			<g>
				<line fill="none" stroke="#118ACB" stroke-miterlimit="10" x1="417.11" y1="27.393" x2="304.881" y2="128.856"/>
				<g>
					<path fill="#118ACB" d="M302.194,131.284c0.84-1.612,1.685-3.83,1.891-5.556l1.148,2.809l2.679,1.424
						C306.174,129.993,303.882,130.61,302.194,131.284z"/>
				</g>
			</g>
		</g>
	</g>
	<g>
		<g>
			<g>
				<line fill="none" stroke="#118ACB" stroke-miterlimit="10" x1="182.443" y1="297.224" x2="294.672" y2="195.762"/>
				<g>
					<path fill="#118ACB" d="M297.358,193.333c-0.84,1.611-1.685,3.83-1.891,5.556l-1.148-2.809l-2.679-1.424
						C293.379,194.625,295.671,194.007,297.358,193.333z"/>
				</g>
			</g>
		</g>
		<g>
			<g>
				<line fill="none" stroke="#118ACB" stroke-miterlimit="10" x1="417.11" y1="297.224" x2="304.881" y2="195.762"/>
				<g>
					<path fill="#118ACB" d="M302.194,193.333c1.688,0.674,3.979,1.291,5.718,1.322l-2.679,1.425l-1.148,2.809
						C303.88,197.162,303.035,194.944,302.194,193.333z"/>
				</g>
			</g>
		</g>
	</g>
	<g>
		<ellipse fill="#118ACB" stroke="#118ACB" stroke-miterlimit="10" cx="79.939" cy="106.871" rx="3.179" ry="3.186"/>
		<ellipse fill="#118ACB" stroke="#118ACB" stroke-miterlimit="10" cx="79.939" cy="166.117" rx="3.179" ry="3.186"/>
		<ellipse fill="#118ACB" stroke="#118ACB" stroke-miterlimit="10" cx="79.939" cy="216.7" rx="3.179" ry="3.186"/>
	</g>
	<g>
		<ellipse fill="#118ACB" stroke="#118ACB" stroke-miterlimit="10" cx="504.094" cy="113.598" rx="3.179" ry="3.186"/>
		<path fill="#118ACB" stroke="#118ACB" stroke-miterlimit="10" d="M507.273,172.846c0,1.759-1.424,3.184-3.18,3.184
			s-3.179-1.425-3.179-3.184c0-1.762,1.423-3.187,3.179-3.187S507.273,171.084,507.273,172.846z"/>
		<ellipse fill="#118ACB" stroke="#118ACB" stroke-miterlimit="10" cx="504.094" cy="223.428" rx="3.179" ry="3.185"/>
	</g>
</g>
</svg>
