<?xml version="1.0" encoding="UTF-8" standalone="no"?>
<!-- Generator: Adobe Illustrator 21.0.0, SVG Export Plug-In . SVG Version: 6.00 Build 0)  -->

<svg
   xmlns:dc="http://purl.org/dc/elements/1.1/"
   xmlns:cc="http://creativecommons.org/ns#"
   xmlns:rdf="http://www.w3.org/1999/02/22-rdf-syntax-ns#"
   xmlns:svg="http://www.w3.org/2000/svg"
   xmlns="http://www.w3.org/2000/svg"
   xmlns:sodipodi="http://sodipodi.sourceforge.net/DTD/sodipodi-0.dtd"
   xmlns:inkscape="http://www.inkscape.org/namespaces/inkscape"
   version="1.1"
   x="0px"
   y="0px"
   viewBox="0 0 670 452"
   style="enable-background:new 0 0 670 452;"
   xml:space="preserve"
   id="svg2"
   inkscape:version="0.91 r13725"
   sodipodi:docname="kmip-key-protect.svg"><metadata
   id="metadata227"><rdf:RDF><cc:Work
       rdf:about=""><dc:format>image/svg+xml</dc:format><dc:type
         rdf:resource="http://purl.org/dc/dcmitype/StillImage" /></cc:Work></rdf:RDF></metadata><defs
   id="defs225" /><sodipodi:namedview
   pagecolor="#ffffff"
   bordercolor="#666666"
   borderopacity="1"
   objecttolerance="10"
   gridtolerance="10"
   guidetolerance="10"
   inkscape:pageopacity="0"
   inkscape:pageshadow="2"
   inkscape:window-width="1280"
   inkscape:window-height="748"
   id="namedview223"
   showgrid="false"
   inkscape:zoom="1.4543181"
   inkscape:cx="420.87213"
   inkscape:cy="166.35691"
   inkscape:window-x="-8"
   inkscape:window-y="-8"
   inkscape:window-maximized="1"
   inkscape:current-layer="g135" />
<style
   type="text/css"
   id="style4">
	.st0{fill:#B6CAEF;stroke:#0071BC;stroke-miterlimit:10;}
	.st1{font-family:'IBMPlexSans';}
	.st2{font-size:14px;}
	.st3{fill:#FFFFFF;}
	.st4{fill:#FFFFFF;stroke:#000000;stroke-miterlimit:10;}
	.st5{fill:#ABD6AD;stroke:#006837;stroke-miterlimit:10;}
	.st6{fill:none;stroke:#000000;stroke-miterlimit:10;}
	.st7{fill:none;stroke:#000000;stroke-miterlimit:10;stroke-dasharray:4.969,4.969;}
	.st8{fill:none;stroke:#000000;stroke-miterlimit:10;stroke-dasharray:5.0236,5.0236;}
</style>
<g
   id="vCenter_VM_ESXi">
	<g
   id="ESXi_1">
		<path
   class="st0"
   d="M205.5,197.5h-179c-6.6,0-12-5.4-12-12v-30c0-6.6,5.4-12,12-12h179c6.6,0,12,5.4,12,12v30    C217.5,192.1,212.1,197.5,205.5,197.5z"
   id="path8" />
		<text
   transform="matrix(1 0 0 1 104.3335 177.6665)"
   class="st1 st2"
   id="text10">ESXi</text>

	</g>
	<g
   id="ESXi_1_1_">
		<path
   class="st0"
   d="M423.5,197.5h-179c-6.6,0-12-5.4-12-12v-30c0-6.6,5.4-12,12-12h179c6.6,0,12,5.4,12,12v30    C435.5,192.1,430.1,197.5,423.5,197.5z"
   id="path13" />
		<text
   transform="matrix(1 0 0 1 322.3335 177.6665)"
   class="st1 st2"
   id="text15">ESXi</text>

	</g>
	<g
   id="ESXi_1_2_">
		<path
   class="st0"
   d="M640.5,197.5h-179c-6.6,0-12-5.4-12-12v-30c0-6.6,5.4-12,12-12h179c6.6,0,12,5.4,12,12v30    C652.5,192.1,647.1,197.5,640.5,197.5z"
   id="path18" />
		<text
   transform="matrix(1 0 0 1 539.3335 177.6665)"
   class="st1 st2"
   id="text20">ESXi</text>

	</g>
	<g
   id="vCenter">
		<g
   id="g23">
			<rect
   x="37.5"
   y="95.5"
   class="st3"
   width="61"
   height="61"
   id="rect25" />
			<path
   d="M98,96v60H38V96H98 M99,95H37v62h62V95L99,95z"
   id="path27" />
		</g>
		<text
   transform="matrix(1 0 0 1 43.5493 130.228)"
   class="st1 st2"
   id="text29">vCenter</text>

	</g>
	<g
   id="VM1">
		<g
   id="g32">
			<rect
   x="138.5"
   y="95.5"
   class="st3"
   width="61"
   height="61"
   id="rect34" />
			<path
   d="M199,96v60h-60V96H199 M200,95h-62v62h62V95L200,95z"
   id="path36" />
		</g>
		<text
   transform="matrix(1 0 0 1 159.053 130.228)"
   class="st1 st2"
   id="text38">MV</text>

	</g>
	<g
   id="VM2">
		<g
   id="g41">
			<rect
   x="255.5"
   y="95.5"
   class="st3"
   width="61"
   height="61"
   id="rect43" />
			<path
   d="M316,96v60h-60V96H316 M317,95h-62v62h62V95L317,95z"
   id="path45" />
		</g>
		<text
   transform="matrix(1 0 0 1 276.053 130.228)"
   class="st1 st2"
   id="text47">MV</text>

	</g>
	<g
   id="VM3">
		<g
   id="g50">
			<rect
   x="349.5"
   y="95.5"
   class="st3"
   width="61"
   height="61"
   id="rect52" />
			<path
   d="M410,96v60h-60V96H410 M411,95h-62v62h62V95L411,95z"
   id="path54" />
		</g>
		<text
   transform="matrix(1 0 0 1 370.053 130.228)"
   class="st1 st2"
   id="text56">MV</text>

	</g>
	<g
   id="VM4">
		<g
   id="g59">
			<rect
   x="470.5"
   y="95.5"
   class="st3"
   width="61"
   height="61"
   id="rect61" />
			<path
   d="M531,96v60h-60V96H531 M532,95h-62v62h62V95L532,95z"
   id="path63" />
		</g>
		<text
   transform="matrix(1 0 0 1 491.053 130.228)"
   class="st1 st2"
   id="text65">MV</text>

	</g>
	<g
   id="VM5">
		<g
   id="g68">
			<rect
   x="562.5"
   y="95.5"
   class="st3"
   width="61"
   height="61"
   id="rect70" />
			<path
   d="M623,96v60h-60V96H623 M624,95h-62v62h62V95L624,95z"
   id="path72" />
		</g>
		<text
   transform="matrix(1 0 0 1 583.053 130.228)"
   class="st1 st2"
   id="text74">MV</text>

	</g>
	<g
   id="certificate_top">
		<path
   class="st4"
   d="M51,74v30.7c0,0,17.8,9.7,36.3,0s38,0,38,0V74H51z"
   id="path77" />
		<text
   transform="matrix(1 0 0 1 56 92.5)"
   class="st1 st2"
   id="text79">Certificado</text>

	</g>
</g>
<g
   id="KMIP">
	<g
   id="g82">
		<g
   id="g84">
			<g
   id="g86">
				<rect
   x="54.5"
   y="302.5"
   class="st5"
   width="127.7"
   height="48"
   id="rect88" />
				<text
   transform="scale(0.9706939,1.0301909)"
   class="st1 st2"
   id="text90"
   x="67.039871"
   y="325.8299"
   style="font-size:13.589715px;font-family:IBMPlexSans">KMIP para VMware</text>

			</g>
			<g
   id="g92">
				<rect
   x="37.5"
   y="287.5"
   class="st5"
   width="127.7"
   height="48"
   id="rect94" />
				<text
   transform="scale(0.96215679,1.0393316)"
   class="st1 st2"
   id="text96"
   x="49.9884"
   y="308.53192"
   style="font-size:13.47019482px;font-family:IBMPlexSans">KMIP para VMware</text>

			</g>
		</g>
		<g
   id="certificate_top_1_">
			<path
   class="st4"
   d="M108,268v30.7c0,0,17.8,9.7,36.3,0c18.6-9.7,38,0,38,0V268H108z"
   id="path99" />
			<text
   transform="matrix(1 0 0 1 113 286.5)"
   class="st1 st2"
   id="text101">Certificado</text>

		</g>
	</g>
</g>
<g
   id="Key_protect">
	<g
   id="g104">
		<g
   id="g106">
			<rect
   x="496.5"
   y="302.5"
   class="st5"
   width="127.7"
   height="48"
   id="rect108" />
			<text
   transform="matrix(1 0 0 1 522 332.667)"
   class="st1 st2"
   id="text110">Key Protect</text>

		</g>
		<g
   id="g112">
			<rect
   x="484.5"
   y="289.5"
   class="st5"
   width="127.7"
   height="48"
   id="rect114" />
			<text
   transform="matrix(1 0 0 1 510 319.667)"
   class="st1 st2"
   id="text116">Key Protect</text>

		</g>
	</g>
</g>
<g
   id="CloudHSM_and_Key">
	<g
   id="g119">
		<g
   id="g121">
			<g
   id="g123">
				<path
   class="st0"
   d="M605.5,441.5h-96c-6.6,0-12-5.4-12-12v-30c0-6.6,5.4-12,12-12h96c6.6,0,12,5.4,12,12v30      C617.5,436.1,612.1,441.5,605.5,441.5z"
   id="path125" />
				<text
   transform="matrix(1 0 0 1 530.333 419.667)"
   class="st1 st2"
   id="text127">CloudHSM</text>

			</g>
			<g
   id="g129">
				<path
   class="st0"
   d="M595.5,426.5h-98c-6.6,0-12-5.4-12-12v-30c0-6.6,5.4-12,12-12h98c6.6,0,12,5.4,12,12v30      C607.5,421.1,602.1,426.5,595.5,426.5z"
   id="path131" />
				<text
   transform="matrix(1 0 0 1 512.333 404.667)"
   class="st1 st2"
   id="text133">CloudHSM</text>

			</g>
		</g>
		<g
   id="g135">
			<g
   id="g137">
				<path
   class="st4"
   d="M592,417.7v21c0,0,12.2,6.6,24.9,0s26,0,26,0v-21H592z"
   id="path139" />
				<text
   class="st1 st2"
   id="text141"
   x="597.66663"
   y="431.04581"
   style="font-size:14px;font-family:IBMPlexSans">Chave</text>

			</g>
			<g
   id="g143">
				<path
   class="st4"
   d="M592,402.7v21c0,0,12.2,6.6,24.9,0s26,0,26,0v-21H592z"
   id="path145" />
				<text
   class="st1 st2"
   id="text147"
   x="597.66663"
   y="416.04581"
   style="font-size:14px;font-family:IBMPlexSans">Chave</text>

			</g>
			<g
   id="g149">
				<path
   class="st4"
   d="M592,388.7v21c0,0,12.2,6.6,24.9,0s26,0,26,0v-21H592z"
   id="path151" />
				<text
   class="st1 st2"
   id="text153"
   x="597.66663"
   y="402.04581"
   style="font-size:14px;font-family:IBMPlexSans">Chave</text>

			</g>
		</g>
	</g>
</g>
<g
   id="dash_lines_and_text_around">
	<text
   transform="matrix(1 0 0 1 13.3335 38.3335)"
   class="st1 st2"
   id="text156">Conta de infraestrutura do cliente</text>

	<text
   transform="matrix(1 0 0 1 561 17.6665)"
   class="st1 st2"
   id="text158">Rede pública</text>

	<text
   transform="matrix(1 0 0 1 493 228)"
   class="st1 st2"
   id="text160">Rede privada do cliente</text>

	<text
   class="st1 st2"
   id="text162"
   x="424.05002"
   y="249.33299"
   style="font-size:14px;font-family:IBMPlexSans">Rede de gerenciamento do IBM Cloud</text>

	<g
   id="top_dash_line">
		<g
   id="g165">
			<line
   class="st6"
   x1="10"
   y1="24"
   x2="12.5"
   y2="24"
   id="line167" />
			<line
   class="st7"
   x1="17.5"
   y1="24"
   x2="651"
   y2="24"
   id="line169" />
			<line
   class="st6"
   x1="653.5"
   y1="24"
   x2="656"
   y2="24"
   id="line171" />
		</g>
	</g>
	<g
   id="second_dash_line">
		<g
   id="g174">
			<line
   class="st6"
   x1="14"
   y1="234"
   x2="16.5"
   y2="234"
   id="line176" />
			<line
   class="st8"
   x1="21.5"
   y1="234"
   x2="652"
   y2="234"
   id="line178" />
			<line
   class="st6"
   x1="654.5"
   y1="234"
   x2="657"
   y2="234"
   id="line180" />
		</g>
	</g>
</g>
<g
   id="arrows">
	<g
   id="g183">
		<g
   id="g185">
			<line
   class="st6"
   x1="65.5"
   y1="156.5"
   x2="65.5"
   y2="280.5"
   id="line187" />
			<g
   id="g189">
				<path
   d="M65.5,286.5c-1.1-2.8-2.9-6.4-4.8-8.5l4.8,1.7l4.8-1.7C68.4,280.1,66.6,283.7,65.5,286.5z"
   id="path191" />
			</g>
		</g>
	</g>
	<g
   id="g193">
		<g
   id="g195">
			<line
   class="st6"
   x1="86.5"
   y1="197.5"
   x2="86.5"
   y2="280.5"
   id="line197" />
			<g
   id="g199">
				<path
   d="M86.5,286.5c-1.1-2.8-2.9-6.4-4.8-8.5l4.8,1.7l4.8-1.7C89.4,280.1,87.6,283.7,86.5,286.5z"
   id="path201" />
			</g>
		</g>
	</g>
	<g
   id="g203">
		<g
   id="g205">
			<line
   class="st6"
   x1="181.5"
   y1="314.5"
   x2="477.5"
   y2="314.5"
   id="line207" />
			<g
   id="g209">
				<path
   d="M483.5,314.5c-2.8,1.1-6.4,2.9-8.5,4.8l1.7-4.8l-1.7-4.8C477.1,311.6,480.7,313.4,483.5,314.5z"
   id="path211" />
			</g>
		</g>
	</g>
	<g
   id="g213">
		<g
   id="g215">
			<line
   class="st6"
   x1="548.5"
   y1="336.5"
   x2="548.5"
   y2="366.5"
   id="line217" />
			<g
   id="g219">
				<path
   d="M548.5,372.5c-1.1-2.8-2.9-6.4-4.8-8.5l4.8,1.7l4.8-1.7C551.4,366.1,549.6,369.7,548.5,372.5z"
   id="path221" />
			</g>
		</g>
	</g>
</g>
</svg>
