<?xml version="1.0" encoding="UTF-8"?>
<svg width="746px" height="472px" style="background-color:rgb(255, 255, 255)" version="1.1" xmlns="http://www.w3.org/2000/svg" xmlns:cc="http://creativecommons.org/ns#" xmlns:dc="http://purl.org/dc/elements/1.1/" xmlns:rdf="http://www.w3.org/1999/02/22-rdf-syntax-ns#">
 <metadata>
  <rdf:RDF>
   <cc:Work rdf:about="">
    <dc:format>image/svg+xml</dc:format>
    <dc:type rdf:resource="http://purl.org/dc/dcmitype/StillImage"/>
    <dc:title/>
   </cc:Work>
  </rdf:RDF>
 </metadata>
 <g transform="translate(.5 .5)">
  <path d="m465 470.5" fill="none" pointer-events="none" stroke="#000" stroke-miterlimit="10"/>
  <path d="m1 248h744v-229h-744v229" fill="none" pointer-events="none" stroke="#00c" stroke-dasharray="6 6" stroke-miterlimit="10" stroke-width="2"/>
  <g fill="#00c" font-family="Helvetica" font-size="12px" text-anchor="middle">
   <text x="372" y="10.5">SDDC-Dswitch-Privado</text>
  </g>
  <path d="m386 367v-73h311v73z" fill="#4495d1" fill-opacity=".5" pointer-events="none"/>
  <path d="m647.24 330.99v-2.34h-18.38v2.34h3.45c0 0.32 1.38 1.03 5.53 1.03 3.87 0 5.81-0.71 5.81-1.03zm-25.71 0v-2.34h-18.38v2.34h3.45c0 0.32 1.38 1.03 5.53 1.03 3.87 0 5.81-0.71 5.81-1.03zm-184.94 4.6c-11.89 0-24.6-1.59-24.6-4.96v-5.22h234.01c14.65 0 25.15 1.94 25.15 4.96v5.22zm-2.35-3.05h118.32v-4.12h-118.32zm161.58-1.55v-2.34h-18.38v2.34h3.45c0 0.32 1.39 1.03 5.53 1.03 3.87 0 5.81-0.71 5.81-1.03z" fill="#4495d1" pointer-events="none"/>
  <g font-family="Helvetica" font-size="12px" text-anchor="middle">
   <text x="541" y="311.5">VDS</text>
   <text x="541" y="325.5">vmk0, vmk1, vmk2, vmk3</text>
  </g>
  <path d="m369 388h347v-102h-347v102" fill="none" pointer-events="none" stroke="#39f" stroke-dasharray="6 6" stroke-miterlimit="10" stroke-width="2"/>
  <g font-family="Helvetica" font-size="12px" text-anchor="middle">
   <text x="541.5" y="406.5">ESXi</text>
  </g>
  <g fill="none" pointer-events="none" stroke="#0070c0" stroke-miterlimit="10" stroke-width="2">
   <path d="m423 285v-103"/>
   <path d="m443 286v-147"/>
   <path d="m464 286v-22q0-10 0-20v-147"/>
   <path d="m484 286v-243"/>
   <path d="m695 286v-243"/>
   <path d="m671 286v-40q0-10 0-20v-129"/>
   <path d="m648 286v-147"/>
   <path d="m625 286v-104"/>
   <path d="m353 182h361"/>
  </g>
  <g font-family="Helvetica" font-size="12px" text-anchor="end">
   <rect x="105" y="179" width="232" height="15" fill="#fff" stroke-width="0"/>
   <text x="334.5" y="182">vmk2 SDDC-DPortGroup-VSAN MTU 9000</text>
  </g>
  <path d="m353 139h361" fill="none" pointer-events="none" stroke="#0070c0" stroke-miterlimit="10" stroke-width="2"/>
  <g font-family="Helvetica" font-size="12px" text-anchor="end">
   <rect x="96" y="135" width="241" height="15" fill="#fff" stroke-width="0"/>
   <text x="334.5" y="138">vmk1 SDDC-DPortGroup-vMotion MTU 9000</text>
  </g>
  <path d="m353 97h361" fill="none" pointer-events="none" stroke="#0070c0" stroke-miterlimit="10" stroke-width="2"/>
  <g font-family="Helvetica" font-size="12px" text-anchor="end">
   <rect x="108" y="81" width="229" height="15" fill="#fff" stroke-width="0"/>
   <text x="334.5" y="90.5">vmk0 SDDC-DPortGroup-Mgmt MTU 1500</text>
  </g>
  <path d="m352 43h361" fill="none" pointer-events="none" stroke="#0070c0" stroke-miterlimit="10" stroke-width="2"/>
  <g font-family="Helvetica" font-size="12px" text-anchor="end">
   <rect x="145" y="36" width="191" height="15" fill="#fff" stroke-width="0"/>
   <text x="333.5" y="46">VTEP designado por NSX MRU 9000</text>
  </g>
  <g fill="none" pointer-events="none" stroke="#0070c0" stroke-miterlimit="10" stroke-width="2">
   <path d="m404 286v-66"/>
   <path d="m606 286v-66"/>
   <path d="m353 220h361"/>
  </g>
  <g font-family="Helvetica" font-size="12px">
   <g text-anchor="end">
    <rect x="114" y="217" width="223" height="15" fill="#fff" stroke-width="0"/>
    <text x="334.5" y="220">vmk3 SDDC-DPortGroup-NFS MTU 9000</text>
   </g>
   <g text-anchor="middle">
    <text x="371.5" y="268.5">vmnic0</text>
   </g>
   <g text-anchor="middle">
    <text x="574.5" y="268.5">vmnic2</text>
   </g>
  </g>
  <g fill="#39f" font-family="Helvetica" font-size="12px" text-anchor="middle">
   <text x="48" y="146.5">Kernel</text>
   <text x="48" y="160.5">Interfaces</text>
  </g>
 </g>
</svg>
