<?xml version="1.0" encoding="UTF-8"?>
<svg width="551px" height="521px" version="1.1" viewBox="-.5 -.5 551 521" xmlns="http://www.w3.org/2000/svg" xmlns:cc="http://creativecommons.org/ns#" xmlns:dc="http://purl.org/dc/elements/1.1/" xmlns:rdf="http://www.w3.org/1999/02/22-rdf-syntax-ns#">
 <metadata>
  <rdf:RDF>
   <cc:Work rdf:about="">
    <dc:format>image/svg+xml</dc:format>
    <dc:type rdf:resource="http://purl.org/dc/dcmitype/StillImage"/>
    <dc:title/>
   </cc:Work>
  </rdf:RDF>
 </metadata>
 <g pointer-events="none">
  <rect x="10" width="530" height="270" rx="40.5" ry="40.5" fill="#a8a8a8" stroke="#666"/>
  <rect y="370" width="200" height="150" rx="22.5" ry="22.5" fill="#ffe6cc" stroke="#d79b00"/>
  <rect x="40" y="20" width="470" height="110" rx="16.5" ry="16.5" fill="#dae8fc" stroke="#6c8ebf"/>
  <rect x="40" y="140" width="470" height="110" rx="16.5" ry="16.5" fill="#d5e8d4" stroke="#82b366"/>
  <rect x="350" y="370" width="200" height="150" rx="22.5" ry="22.5" fill="#fff2cc" stroke="#d6b656"/>
 </g>
 <g font-family="Helvetica" text-anchor="middle">
  <g font-size="18px" font-weight="bold">
   <text x="99.5" y="401.5">Serviços comuns</text>
   <text x="172" y="51.5">Gerenciamento de infraestrutura</text>
   <text x="147" y="171.5">Infraestrutura virtual</text>
   <text x="454.5" y="401.5">IBM Cloud Services</text>
  </g>
  <g font-size="16px">
   <text x="99.5" y="440.5">Active Directory</text>
   <text x="99.5" y="480.5">DNS</text>
   <text x="449.5" y="490.5">NTP</text>
   <text x="274.5" y="110.5">VMware vCenter Server</text>
   <text x="274.5" y="230.5">VMware vSphere</text>
   <text x="449.5" y="445.5">DNS</text>
  </g>
 </g>
 <path d="m219.5 450v10.5l-19-15.5 19-15.5v10.5h111v-10.5l19 15.5-19 15.5v-10.5z" fill="#fff" pointer-events="none" stroke="#000" stroke-linejoin="round" stroke-miterlimit="10"/>
 <g font-family="Helvetica" font-size="16px" text-anchor="middle">
  <rect x="258" y="436" width="36" height="20" fill="#fff" stroke-width="0"/>
  <text x="274.5" y="450.5">DNS</text>
 </g>
 <path d="m447.06 350.09 9.68-4.07-6.93 23.52-21.65-11.52 9.68-4.06-26.9-64.05-9.68 4.07 6.93-23.52 21.65 11.52-9.68 4.06z" fill="#fff" pointer-events="none" stroke="#000" stroke-linejoin="round" stroke-miterlimit="10"/>
 <g font-family="Helvetica" font-size="16px" text-anchor="middle">
  <rect x="321" y="302" width="218" height="39" fill="#fff" stroke-width="0"/>
  <text x="428.59" y="335.21">Sincronização do tempo de rede</text>
 </g>
 <path d="m112.3 354.06 9.64 4.15-21.74 11.33-6.74-23.58 9.65 4.15 27.59-64.17-9.64-4.15 21.74-11.33 6.74 23.58-9.65-4.15z" fill="#fff" pointer-events="none" stroke="#000" stroke-linejoin="round" stroke-miterlimit="10"/>
 <g font-family="Helvetica" font-size="16px" text-anchor="middle">
  <rect x="30" y="292" width="184" height="58" fill="#fff" stroke-width="0"/>
  <text x="120.83" y="316.39">Autenticação</text>
  <text x="120.83" y="335.39">Resolução do nome de domínio</text>
 </g>
</svg>
