<?xml version="1.0" encoding="utf-8"?>
<!-- Generator: Adobe Illustrator 16.0.0, SVG Export Plug-In . SVG Version: 6.00 Build 0)  -->
<!DOCTYPE svg PUBLIC "-//W3C//DTD SVG 1.1//EN" "http://www.w3.org/Graphics/SVG/1.1/DTD/svg11.dtd">
<svg version="1.1" id="Layer_1" xmlns="http://www.w3.org/2000/svg" xmlns:xlink="http://www.w3.org/1999/xlink" x="0px" y="0px"
	 width="850px" height="608px" viewBox="0 0 850 608" style="enable-background:new 0 0 850 608;" xml:space="preserve">
<style type="text/css">
<![CDATA[
	.st0{fill-rule:evenodd;clip-rule:evenodd;fill:none;}
	.st1{font-family:'IBMPlexSans-Bold';}
	.st2{fill-rule:evenodd;clip-rule:evenodd;fill:#4C84C5;}
	.st3{fill:#F59C57;}
	.st4{fill-rule:evenodd;clip-rule:evenodd;fill:#1DA78D;}
	.st5{clip-path:url(#SVGID_2_);}
	.st6{clip-path:url(#SVGID_4_);}
	.st7{fill:#606060;stroke:#4D4D4D;stroke-width:2;stroke-miterlimit:8;}
	.st8{fill-rule:evenodd;clip-rule:evenodd;fill:#8D44FF;}
	.st9{fill:#FFFFFF;}
	.st10{fill-rule:evenodd;clip-rule:evenodd;fill:#F1F2F1;}
	.st11{fill-rule:evenodd;clip-rule:evenodd;fill:#606060;}
	.st12{font-size:18;}
	.st13{font-size:21;}
	.st14{font-size:24;}
	.st15{font-family:'IBMPlexSans';}
	.st16{fill:#606060;stroke:#606060;stroke-width:2;stroke-miterlimit:10;}
]]>
</style>
<rect x="97.3" y="393.9" class="st3" width="186.9" height="163.1"/>
<polygon class="st10" points="65.3,20 795.9,20 795.9,313.8 65.3,313.8 65.3,20 "/>
<polygon class="st4" points="99.4,185.4 745.5,185.4 745.5,281.1 99.4,281.1 99.4,185.4 "/>
<polygon class="st2" points="99.4,65.3 745.5,65.3 745.5,161.7 99.4,161.7 99.4,65.3 "/>
<polygon class="st8" points="552.6,393.9 748,393.9 748,549 552.6,549 552.6,393.9 "/>
<g>
	<line class="st16" x1="192.2" y1="292.3" x2="192.2" y2="381"/>
	<polygon class="st11" points="198.8,378.7 192.2,392.1 185.5,378.7 198.8,378.7 	"/>
	<polygon class="st11" points="185.5,294.5 192.2,281.1 198.8,294.5 185.5,294.5 	"/>
</g>
<g>
	<defs>
		<polygon id="SVGID_1_" points="65.3,589 795.9,589 795.9,20 65.3,20 65.3,589 		"/>
	</defs>
	<clipPath id="SVGID_2_">
		<use xlink:href="#SVGID_1_"  style="overflow:visible;"/>
	</clipPath>
	<g class="st5">
		<defs>
			<polygon id="SVGID_3_" points="65.3,589 795.9,589 795.9,20 65.3,20 65.3,589 			"/>
		</defs>
		<clipPath id="SVGID_4_">
			<use xlink:href="#SVGID_3_"  style="overflow:visible;"/>
		</clipPath>
		<g class="st6">
			<line class="st7" x1="539.7" y1="489.6" x2="296.3" y2="489.6"/>
			<polygon class="st11" points="298.6,482.9 285,489.6 298.6,496.3 298.6,482.9 			"/>
			<polygon class="st11" points="537.4,496.3 551,489.6 537.4,482.9 537.4,496.3 			"/>
		</g>
	</g>
</g>
<rect x="279" y="87" class="st0" width="329" height="45"/>
<text transform="matrix(1 0 0 1 279 104.04)" class="st9 st1 st14">Gestione infrastruttura</text>
<rect x="302" y="206" class="st0" width="283" height="45"/>
<text transform="matrix(1 0 0 1 302 223.04)" class="st9 st1 st14">Infrastruttura virtuale</text>
<text transform="matrix(1 0 0 1 325 143)" class="st9 st15 st13">VMware vCenter Server</text>
<text transform="matrix(1 0 0 1 346 260)" class="st9 st15 st13">VMware vSphere</text>
<rect x="115" y="426" class="st0" width="168" height="45"/>
<text transform="matrix(1 0 0 1 115 438.7793)" class="st9 st1 st12">Servizi comuni</text>
<text transform="matrix(1 0 0 1 123 488)" class="st9 st15 st12">Active Directory</text>
<text transform="matrix(1 0 0 1 166 523)" class="st9 st15 st12">DNS</text>
<rect x="569" y="424" class="st0" width="168" height="45"/>
<text transform="matrix(1 0 0 1 569 436.7793)" class="st9 st1 st12">Servizi IBM Cloud</text>
<text transform="matrix(1 0 0 1 626 487)" class="st9 st15 st12">DNS</text>
<text transform="matrix(1 0 0 1 627 522)" class="st9 st15 st12">NTP</text>
<text transform="matrix(1 0 0 1 195 340)"><tspan x="0" y="0" class="st15 st13">Risoluzione nome dominio</tspan><tspan x="0" y="25.2" class="st15 st13">di autenticazione</tspan></text>
<text transform="matrix(1 0 0 1 490 338)"><tspan x="0" y="0" class="st15 st13">Sincronizzazione</tspan><tspan x="0" y="25.2" class="st15 st13">ora di rete</tspan></text>
<text transform="matrix(1 0 0 1 301 473)" class="st15 st13">Risoluzione nome dominio</text>
<g>
	<line class="st16" x1="645.2" y1="293.3" x2="645.2" y2="382"/>
	<polygon class="st11" points="651.8,379.7 645.2,393.1 638.5,379.7 651.8,379.7 	"/>
	<polygon class="st11" points="638.5,295.5 645.2,282.1 651.8,295.5 638.5,295.5 	"/>
</g>
</svg>
