<?xml version="1.0" encoding="utf-8"?>
<!-- Generator: Adobe Illustrator 16.0.0, SVG Export Plug-In . SVG Version: 6.00 Build 0)  -->
<!DOCTYPE svg PUBLIC "-//W3C//DTD SVG 1.1//EN" "http://www.w3.org/Graphics/SVG/1.1/DTD/svg11.dtd">
<svg version="1.1" id="Layer_1" xmlns="http://www.w3.org/2000/svg" xmlns:xlink="http://www.w3.org/1999/xlink" x="0px" y="0px"
	 width="850px" height="707px" viewBox="0 0 850 707" style="enable-background:new 0 0 850 707;" xml:space="preserve">
<style type="text/css">
<![CDATA[
	.st0{display:none;clip-path:url(#SVGID_140_);fill:#A6A6A6;}
	.st1{clip-path:url(#SVGID_36_);fill:none;stroke:#000000;stroke-width:1.001;stroke-linejoin:round;stroke-miterlimit:10;}
	.st2{clip-path:url(#SVGID_46_);fill:none;stroke:#000000;stroke-width:1.001;stroke-linejoin:round;stroke-miterlimit:10;}
	.st3{clip-path:url(#SVGID_56_);fill:none;stroke:#000000;stroke-width:1.001;stroke-linejoin:round;stroke-miterlimit:10;}
	.st4{clip-path:url(#SVGID_82_);fill:none;stroke:#A6A6A6;stroke-width:3.0044;stroke-miterlimit:8;}
	.st5{clip-path:url(#SVGID_90_);fill:none;stroke:#959595;stroke-width:2;stroke-miterlimit:8;}
	.st6{clip-path:url(#SVGID_104_);fill:none;stroke:#000000;stroke-width:1.001;stroke-linejoin:round;stroke-miterlimit:10;}
	.st7{clip-path:url(#SVGID_134_);fill-rule:evenodd;clip-rule:evenodd;fill:#1DA78D;}
	.st8{clip-path:url(#SVGID_114_);fill:none;stroke:#000000;stroke-width:1.001;stroke-linejoin:round;stroke-miterlimit:10;}
	.st9{clip-path:url(#SVGID_124_);fill:none;stroke:#000000;stroke-width:1.001;stroke-linejoin:round;stroke-miterlimit:10;}
	.st10{clip-path:url(#SVGID_146_);fill:#A6A6A6;}
	.st11{clip-path:url(#SVGID_32_);fill:none;stroke:#959595;stroke-width:2;stroke-miterlimit:8;}
	.st12{fill-rule:evenodd;clip-rule:evenodd;fill:none;}
	.st13{clip-path:url(#SVGID_96_);fill:none;stroke:#959595;stroke-width:2;stroke-miterlimit:8;}
	.st14{clip-path:url(#SVGID_164_);fill:none;stroke:#000000;stroke-width:1.001;stroke-linejoin:round;stroke-miterlimit:10;}
	.st15{clip-path:url(#SVGID_174_);fill:none;stroke:#000000;stroke-width:1.001;stroke-linejoin:round;stroke-miterlimit:10;}
	.st16{clip-path:url(#SVGID_184_);fill:none;stroke:#000000;stroke-width:1.001;stroke-linejoin:round;stroke-miterlimit:10;}
	.st17{clip-path:url(#SVGID_22_);fill:none;stroke:#959595;stroke-width:2;stroke-miterlimit:8;}
	.st18{clip-path:url(#SVGID_86_);fill:none;stroke:#959595;stroke-width:2;stroke-miterlimit:8;}
	.st19{fill:none;stroke:#FFC000;stroke-width:2;stroke-miterlimit:8;}
	.st20{clip-path:url(#SVGID_2_);fill-rule:evenodd;clip-rule:evenodd;fill:#1DA78D;}
	.st21{clip-path:url(#SVGID_154_);fill:none;stroke:#959595;stroke-width:2;stroke-miterlimit:8;}
	.st22{clip-path:url(#SVGID_28_);fill:none;stroke:#959595;stroke-width:2;stroke-miterlimit:8;}
	.st23{clip-path:url(#SVGID_44_);fill:none;stroke:#000000;stroke-width:1.001;stroke-linejoin:round;stroke-miterlimit:10;}
	.st24{clip-path:url(#SVGID_54_);fill:none;stroke:#000000;stroke-width:1.001;stroke-linejoin:round;stroke-miterlimit:10;}
	.st25{clip-path:url(#SVGID_102_);fill:none;stroke:#000000;stroke-width:1.001;stroke-linejoin:round;stroke-miterlimit:10;}
	.st26{clip-path:url(#SVGID_112_);fill:none;stroke:#000000;stroke-width:1.001;stroke-linejoin:round;stroke-miterlimit:10;}
	.st27{clip-path:url(#SVGID_122_);fill:none;stroke:#000000;stroke-width:1.001;stroke-linejoin:round;stroke-miterlimit:10;}
	.st28{clip-path:url(#SVGID_172_);fill:none;stroke:#000000;stroke-width:1.001;stroke-linejoin:round;stroke-miterlimit:10;}
	.st29{clip-path:url(#SVGID_18_);fill:#A6A6A6;}
	.st30{clip-path:url(#SVGID_182_);fill:none;stroke:#000000;stroke-width:1.001;stroke-linejoin:round;stroke-miterlimit:10;}
	.st31{clip-path:url(#SVGID_30_);fill:none;stroke:#959595;stroke-width:2;stroke-miterlimit:8;}
	.st32{clip-path:url(#SVGID_2_);}
	.st33{clip-path:url(#SVGID_4_);}
	.st34{clip-path:url(#SVGID_6_);}
	.st35{clip-path:url(#SVGID_8_);}
	.st36{clip-path:url(#SVGID_94_);fill:none;stroke:#959595;stroke-width:2;stroke-miterlimit:8;}
	.st37{clip-path:url(#SVGID_82_);fill:#A6A6A6;}
	.st38{clip-path:url(#SVGID_20_);fill:none;stroke:#959595;stroke-width:2;stroke-miterlimit:8;}
	.st39{clip-path:url(#SVGID_162_);fill:none;stroke:#959595;stroke-width:2;stroke-miterlimit:8;}
	.st40{clip-path:url(#SVGID_42_);fill:none;stroke:#000000;stroke-width:1.001;stroke-linejoin:round;stroke-miterlimit:10;}
	.st41{clip-path:url(#SVGID_84_);fill:none;stroke:#959595;stroke-width:2;stroke-miterlimit:8;}
	.st42{clip-path:url(#SVGID_4_);fill-rule:evenodd;clip-rule:evenodd;fill:#1DA78D;}
	.st43{clip-path:url(#SVGID_130_);fill-rule:evenodd;clip-rule:evenodd;fill:#1DA78D;}
	.st44{clip-path:url(#SVGID_66_);fill-rule:evenodd;clip-rule:evenodd;fill:#1DA78D;}
	.st45{clip-path:url(#SVGID_52_);fill:none;stroke:#000000;stroke-width:1.001;stroke-linejoin:round;stroke-miterlimit:10;}
	.st46{fill:none;stroke:#B3B3B3;stroke-width:2;stroke-miterlimit:8;}
	.st47{clip-path:url(#SVGID_62_);fill:none;stroke:#000000;stroke-width:1.001;stroke-linejoin:round;stroke-miterlimit:10;}
	.st48{clip-path:url(#SVGID_76_);fill:none;stroke:#A6A6A6;stroke-width:3.0044;stroke-miterlimit:8;}
	.st49{clip-path:url(#SVGID_152_);fill:none;stroke:#959595;stroke-width:2;stroke-miterlimit:8;}
	.st50{clip-path:url(#SVGID_100_);fill:none;stroke:#000000;stroke-width:1.001;stroke-linejoin:round;stroke-miterlimit:10;}
	.st51{fill:#FFFFFF;}
	.st52{clip-path:url(#SVGID_128_);fill:none;}
	.st53{clip-path:url(#SVGID_110_);fill:none;stroke:#000000;stroke-width:1.001;stroke-linejoin:round;stroke-miterlimit:10;}
	.st54{fill-rule:evenodd;clip-rule:evenodd;fill:#F1F2F1;}
	.st55{clip-path:url(#SVGID_26_);fill:none;stroke:#959595;stroke-width:2;stroke-miterlimit:8;}
	.st56{clip-path:url(#SVGID_120_);fill:none;stroke:#000000;stroke-width:1.001;stroke-linejoin:round;stroke-miterlimit:10;}
	.st57{fill:none;}
	.st58{clip-path:url(#SVGID_108_);fill:none;stroke:#000000;stroke-width:1.001;stroke-linejoin:round;stroke-miterlimit:10;}
	.st59{clip-path:url(#SVGID_118_);fill:none;stroke:#000000;stroke-width:1.001;stroke-linejoin:round;stroke-miterlimit:10;}
	.st60{clip-path:url(#SVGID_158_);fill:none;stroke:#959595;stroke-width:2;stroke-miterlimit:8;}
	.st61{clip-path:url(#SVGID_170_);fill:none;stroke:#000000;stroke-width:1.001;stroke-linejoin:round;stroke-miterlimit:10;}
	.st62{clip-path:url(#SVGID_140_);fill:none;stroke:#A6A6A6;stroke-width:3.0044;stroke-miterlimit:8;}
	.st63{clip-path:url(#SVGID_180_);fill:none;stroke:#000000;stroke-width:1.001;stroke-linejoin:round;stroke-miterlimit:10;}
	.st64{clip-path:url(#SVGID_12_);fill:none;stroke:#A6A6A6;stroke-width:3.0044;stroke-miterlimit:8;}
	.st65{clip-path:url(#SVGID_168_);fill:none;stroke:#000000;stroke-width:1.001;stroke-linejoin:round;stroke-miterlimit:10;}
	.st66{clip-path:url(#SVGID_140_);fill:#A6A6A6;}
	.st67{clip-path:url(#SVGID_190_);fill:none;stroke:#000000;stroke-width:1.001;stroke-linejoin:round;stroke-miterlimit:10;}
	.st68{clip-path:url(#SVGID_178_);fill:none;stroke:#000000;stroke-width:1.001;stroke-linejoin:round;stroke-miterlimit:10;}
	.st69{clip-path:url(#SVGID_148_);fill:none;stroke:#959595;stroke-width:2;stroke-miterlimit:8;}
	.st70{clip-path:url(#SVGID_188_);fill:none;stroke:#000000;stroke-width:1.001;stroke-linejoin:round;stroke-miterlimit:10;}
	.st71{clip-path:url(#SVGID_100_);}
	.st72{clip-path:url(#SVGID_102_);}
	.st73{clip-path:url(#SVGID_104_);}
	.st74{clip-path:url(#SVGID_106_);}
	.st75{clip-path:url(#SVGID_108_);}
	.st76{clip-path:url(#SVGID_110_);}
	.st77{clip-path:url(#SVGID_112_);}
	.st78{clip-path:url(#SVGID_114_);}
	.st79{clip-path:url(#SVGID_116_);}
	.st80{clip-path:url(#SVGID_118_);}
	.st81{clip-path:url(#SVGID_120_);}
	.st82{clip-path:url(#SVGID_122_);}
	.st83{clip-path:url(#SVGID_124_);}
	.st84{clip-path:url(#SVGID_126_);}
	.st85{clip-path:url(#SVGID_130_);}
	.st86{clip-path:url(#SVGID_132_);}
	.st87{clip-path:url(#SVGID_134_);}
	.st88{clip-path:url(#SVGID_136_);}
	.st89{clip-path:url(#SVGID_138_);}
	.st90{clip-path:url(#SVGID_142_);}
	.st91{clip-path:url(#SVGID_144_);}
	.st92{clip-path:url(#SVGID_148_);}
	.st93{clip-path:url(#SVGID_150_);}
	.st94{clip-path:url(#SVGID_152_);}
	.st95{clip-path:url(#SVGID_154_);}
	.st96{clip-path:url(#SVGID_156_);}
	.st97{clip-path:url(#SVGID_158_);}
	.st98{clip-path:url(#SVGID_160_);}
	.st99{clip-path:url(#SVGID_162_);}
	.st100{clip-path:url(#SVGID_164_);}
	.st101{clip-path:url(#SVGID_166_);}
	.st102{clip-path:url(#SVGID_168_);}
	.st103{clip-path:url(#SVGID_170_);}
	.st104{clip-path:url(#SVGID_172_);}
	.st105{clip-path:url(#SVGID_174_);}
	.st106{clip-path:url(#SVGID_176_);}
	.st107{clip-path:url(#SVGID_178_);}
	.st108{clip-path:url(#SVGID_180_);}
	.st109{clip-path:url(#SVGID_182_);}
	.st110{clip-path:url(#SVGID_184_);}
	.st111{clip-path:url(#SVGID_186_);}
	.st112{clip-path:url(#SVGID_188_);}
	.st113{clip-path:url(#SVGID_40_);fill:none;stroke:#000000;stroke-width:1.001;stroke-linejoin:round;stroke-miterlimit:10;}
	.st114{clip-path:url(#SVGID_92_);fill:none;stroke:#959595;stroke-width:2;stroke-miterlimit:8;}
	.st115{fill-rule:evenodd;clip-rule:evenodd;fill:#FFFFFF;}
	.st116{clip-path:url(#SVGID_50_);fill:none;stroke:#000000;stroke-width:1.001;stroke-linejoin:round;stroke-miterlimit:10;}
	.st117{clip-path:url(#SVGID_70_);fill-rule:evenodd;clip-rule:evenodd;fill:#1DA78D;}
	.st118{clip-path:url(#SVGID_38_);fill:none;stroke:#000000;stroke-width:1.001;stroke-linejoin:round;stroke-miterlimit:10;}
	.st119{clip-path:url(#SVGID_60_);fill:none;stroke:#000000;stroke-width:1.001;stroke-linejoin:round;stroke-miterlimit:10;}
	.st120{clip-path:url(#SVGID_48_);fill:none;stroke:#000000;stroke-width:1.001;stroke-linejoin:round;stroke-miterlimit:10;}
	.st121{font-size:18;}
	.st122{font-size:24;}
	.st123{clip-path:url(#SVGID_6_);fill-rule:evenodd;clip-rule:evenodd;fill:#1DA78D;}
	.st124{clip-path:url(#SVGID_132_);fill-rule:evenodd;clip-rule:evenodd;fill:#1DA78D;}
	.st125{clip-path:url(#SVGID_160_);fill:none;stroke:#959595;stroke-width:2;stroke-miterlimit:8;}
	.st126{clip-path:url(#SVGID_68_);fill-rule:evenodd;clip-rule:evenodd;fill:#1DA78D;}
	.st127{clip-path:url(#SVGID_58_);fill:none;stroke:#000000;stroke-width:1.001;stroke-linejoin:round;stroke-miterlimit:10;}
	.st128{clip-path:url(#SVGID_34_);fill:none;stroke:#959595;stroke-width:2;stroke-miterlimit:8;}
	.st129{clip-path:url(#SVGID_106_);fill:none;stroke:#000000;stroke-width:1.001;stroke-linejoin:round;stroke-miterlimit:10;}
	.st130{clip-path:url(#SVGID_98_);fill:none;stroke:#959595;stroke-width:2;stroke-miterlimit:8;}
	.st131{clip-path:url(#SVGID_116_);fill:none;stroke:#000000;stroke-width:1.001;stroke-linejoin:round;stroke-miterlimit:10;}
	.st132{clip-path:url(#SVGID_64_);fill:none;}
	.st133{clip-path:url(#SVGID_76_);fill:#A6A6A6;}
	.st134{clip-path:url(#SVGID_126_);fill:none;stroke:#000000;stroke-width:1.001;stroke-linejoin:round;stroke-miterlimit:10;}
	.st135{clip-path:url(#SVGID_150_);fill:none;stroke:#959595;stroke-width:2;stroke-miterlimit:8;}
	.st136{clip-path:url(#SVGID_10_);}
	.st137{clip-path:url(#SVGID_14_);}
	.st138{clip-path:url(#SVGID_16_);}
	.st139{clip-path:url(#SVGID_20_);}
	.st140{clip-path:url(#SVGID_22_);}
	.st141{clip-path:url(#SVGID_24_);}
	.st142{clip-path:url(#SVGID_26_);}
	.st143{clip-path:url(#SVGID_28_);}
	.st144{clip-path:url(#SVGID_30_);}
	.st145{clip-path:url(#SVGID_32_);}
	.st146{clip-path:url(#SVGID_34_);}
	.st147{clip-path:url(#SVGID_36_);}
	.st148{clip-path:url(#SVGID_38_);}
	.st149{clip-path:url(#SVGID_40_);}
	.st150{clip-path:url(#SVGID_42_);}
	.st151{clip-path:url(#SVGID_44_);}
	.st152{clip-path:url(#SVGID_46_);}
	.st153{clip-path:url(#SVGID_48_);}
	.st154{clip-path:url(#SVGID_50_);}
	.st155{clip-path:url(#SVGID_52_);}
	.st156{clip-path:url(#SVGID_54_);}
	.st157{clip-path:url(#SVGID_56_);}
	.st158{clip-path:url(#SVGID_58_);}
	.st159{clip-path:url(#SVGID_60_);}
	.st160{clip-path:url(#SVGID_62_);}
	.st161{clip-path:url(#SVGID_66_);}
	.st162{clip-path:url(#SVGID_68_);}
	.st163{clip-path:url(#SVGID_70_);}
	.st164{clip-path:url(#SVGID_72_);}
	.st165{clip-path:url(#SVGID_74_);}
	.st166{clip-path:url(#SVGID_78_);}
	.st167{clip-path:url(#SVGID_80_);}
	.st168{clip-path:url(#SVGID_84_);}
	.st169{clip-path:url(#SVGID_86_);}
	.st170{clip-path:url(#SVGID_88_);}
	.st171{clip-path:url(#SVGID_90_);}
	.st172{clip-path:url(#SVGID_92_);}
	.st173{clip-path:url(#SVGID_94_);}
	.st174{clip-path:url(#SVGID_96_);}
	.st175{clip-path:url(#SVGID_98_);}
	.st176{fill:none;stroke:#5B9BD5;stroke-width:3;stroke-miterlimit:8;}
	.st177{font-family:'IBMPlexSans';}
	.st178{clip-path:url(#SVGID_24_);fill:none;stroke:#959595;stroke-width:2;stroke-miterlimit:8;}
	.st179{clip-path:url(#SVGID_88_);fill:none;stroke:#959595;stroke-width:2;stroke-miterlimit:8;}
	.st180{clip-path:url(#SVGID_146_);fill:none;stroke:#A6A6A6;stroke-width:3.0044;stroke-miterlimit:8;}
	.st181{clip-path:url(#SVGID_18_);fill:none;stroke:#A6A6A6;stroke-width:3.0044;stroke-miterlimit:8;}
	.st182{clip-path:url(#SVGID_166_);fill:none;stroke:#000000;stroke-width:1.001;stroke-linejoin:round;stroke-miterlimit:10;}
	.st183{clip-path:url(#SVGID_176_);fill:none;stroke:#000000;stroke-width:1.001;stroke-linejoin:round;stroke-miterlimit:10;}
	.st184{clip-path:url(#SVGID_186_);fill:none;stroke:#000000;stroke-width:1.001;stroke-linejoin:round;stroke-miterlimit:10;}
	.st185{clip-path:url(#SVGID_156_);fill:none;stroke:#959595;stroke-width:2;stroke-miterlimit:8;}
	.st186{clip-path:url(#SVGID_12_);fill:#A6A6A6;}
]]>
</style>
<g>
	<polygon class="st54" points="-1010,-971 -255.1,-971 -255.1,-289 -1010,-289 -1010,-971 	"/>
	<polygon class="st115" points="-924,-480 -348,-480 -348,-309 -924,-309 -924,-480 	"/>
	<polygon class="st19" points="-924,-480 -348,-480 -348,-309 -924,-309 -924,-480 	"/>
	<g>
		<defs>
			<polygon id="SVGID_1_" points="-1060,-289 -255.1,-289 -255.1,-1208 -1060,-1208 -1060,-289 			"/>
		</defs>
		<clipPath id="SVGID_2_">
			<use xlink:href="#SVGID_1_"  style="overflow:visible;"/>
		</clipPath>
		<polygon class="st20" points="-924,-825 -348,-825 -348,-753 -924,-753 -924,-825 		"/>
		<g class="st32">
			<defs>
				<polygon id="SVGID_3_" points="-1060,-289 -255.1,-289 -255.1,-1208 -1060,-1208 -1060,-289 				"/>
			</defs>
			<clipPath id="SVGID_4_">
				<use xlink:href="#SVGID_3_"  style="overflow:visible;"/>
			</clipPath>
			<polygon class="st42" points="-924,-742 -348,-742 -348,-670 -924,-670 -924,-742 			"/>
			<g class="st33">
				<defs>
					<polygon id="SVGID_5_" points="-1060,-289 -255.1,-289 -255.1,-1208 -1060,-1208 -1060,-289 					"/>
				</defs>
				<clipPath id="SVGID_6_">
					<use xlink:href="#SVGID_5_"  style="overflow:visible;"/>
				</clipPath>
				<polygon class="st123" points="-924,-659 -348,-659 -348,-587 -924,-587 -924,-659 				"/>
				<g class="st34">
					<defs>
						<polygon id="SVGID_7_" points="-1060,-289 -255.1,-289 -255.1,-1208 -1060,-1208 -1060,-289 						"/>
					</defs>
					<clipPath id="SVGID_8_">
						<use xlink:href="#SVGID_7_"  style="overflow:visible;"/>
					</clipPath>
					<g class="st35">
						<defs>
							<polygon id="SVGID_9_" points="-1060,-289 -255.1,-289 -255.1,-1208 -1060,-1208 -1060,-289 							"/>
						</defs>
						<clipPath id="SVGID_10_">
							<use xlink:href="#SVGID_9_"  style="overflow:visible;"/>
						</clipPath>
						<g class="st136">
							<defs>
								<polygon id="SVGID_11_" points="-828,-498 -756,-498 -756,-570 -828,-570 -828,-498 								"/>
							</defs>
							<clipPath id="SVGID_12_">
								<use xlink:href="#SVGID_11_"  style="overflow:visible;"/>
							</clipPath>
							<path class="st186" d="M-786-567v66h-39v-66H-786L-786-567L-786-567z M-783-570h-45v72h45V-570L-783-570L-783-570z M-759-567
								v66h-15v-66H-759L-759-567L-759-567z M-756-570h-21v72h21V-570L-756-570L-756-570z"/>
							<path class="st64" d="M-786-567v66h-39v-66H-786L-786-567L-786-567z M-783-570h-45v72h45V-570L-783-570L-783-570z M-759-567
								v66h-15v-66H-759L-759-567L-759-567z M-756-570h-21v72h21V-570L-756-570L-756-570z"/>
							<path class="st186" d="M-792-558v12h-27v-12H-792L-792-558L-792-558z M-789-561h-33v18h33V-561L-789-561L-789-561z M-765-561
								v3h-3v-3H-765L-765-561L-765-561z M-762-564h-9v9h9V-564L-762-564L-762-564z M-765-549v3h-3v-3H-765L-765-549L-765-549z
								 M-762-552h-9v9h9V-552L-762-552L-762-552z M-765-537v3h-3v-3H-765L-765-537L-765-537z M-762-540h-9v9h9V-540L-762-540
								L-762-540z M-765-525v3h-3v-3H-765L-765-525L-765-525z M-762-528h-9v9h9V-528L-762-528L-762-528z M-765-513v3h-3v-3H-765
								L-765-513L-765-513z M-762-516h-9v9h9V-516L-762-516L-762-516z"/>
							<path class="st64" d="M-792-558v12h-27v-12H-792L-792-558L-792-558z M-789-561h-33v18h33V-561L-789-561L-789-561z M-765-561
								v3h-3v-3H-765L-765-561L-765-561z M-762-564h-9v9h9V-564L-762-564L-762-564z M-765-549v3h-3v-3H-765L-765-549L-765-549z
								 M-762-552h-9v9h9V-552L-762-552L-762-552z M-765-537v3h-3v-3H-765L-765-537L-765-537z M-762-540h-9v9h9V-540L-762-540
								L-762-540z M-765-525v3h-3v-3H-765L-765-525L-765-525z M-762-528h-9v9h9V-528L-762-528L-762-528z M-765-513v3h-3v-3H-765
								L-765-513L-765-513z M-762-516h-9v9h9V-516L-762-516L-762-516z"/>
						</g>
					</g>
					<g class="st35">
						<defs>
							<polygon id="SVGID_13_" points="-1060,-289 -255.1,-289 -255.1,-1208 -1060,-1208 -1060,-289 							"/>
						</defs>
						<clipPath id="SVGID_14_">
							<use xlink:href="#SVGID_13_"  style="overflow:visible;"/>
						</clipPath>
						<g class="st137">
							<defs>
								<polygon id="SVGID_15_" points="-1060,-289 -255.1,-289 -255.1,-1208 -1060,-1208 -1060,-289 								"/>
							</defs>
							<clipPath id="SVGID_16_">
								<use xlink:href="#SVGID_15_"  style="overflow:visible;"/>
							</clipPath>
							<g class="st138">
								<defs>
									<polygon id="SVGID_17_" points="-540,-498 -468,-498 -468,-570 -540,-570 -540,-498 									"/>
								</defs>
								<clipPath id="SVGID_18_">
									<use xlink:href="#SVGID_17_"  style="overflow:visible;"/>
								</clipPath>
								<path class="st29" d="M-498-567v66h-39v-66H-498L-498-567L-498-567z M-495-570h-45v72h45V-570L-495-570L-495-570z M-471-567
									v66h-15v-66H-471L-471-567L-471-567z M-468-570h-21v72h21V-570L-468-570L-468-570z"/>
								<path class="st181" d="M-498-567v66h-39v-66H-498L-498-567L-498-567z M-495-570h-45v72h45V-570L-495-570L-495-570z
									 M-471-567v66h-15v-66H-471L-471-567L-471-567z M-468-570h-21v72h21V-570L-468-570L-468-570z"/>
								<path class="st29" d="M-504-558v12h-27v-12H-504L-504-558L-504-558z M-501-561h-33v18h33V-561L-501-561L-501-561z M-477-561
									v3h-3v-3H-477L-477-561L-477-561z M-474-564h-9v9h9V-564L-474-564L-474-564z M-477-549v3h-3v-3H-477L-477-549L-477-549z
									 M-474-552h-9v9h9V-552L-474-552L-474-552z M-477-537v3h-3v-3H-477L-477-537L-477-537z M-474-540h-9v9h9V-540L-474-540
									L-474-540z M-477-525v3h-3v-3H-477L-477-525L-477-525z M-474-528h-9v9h9V-528L-474-528L-474-528z M-477-513v3h-3v-3H-477
									L-477-513L-477-513z M-474-516h-9v9h9V-516L-474-516L-474-516z"/>
								<path class="st181" d="M-504-558v12h-27v-12H-504L-504-558L-504-558z M-501-561h-33v18h33V-561L-501-561L-501-561z
									 M-477-561v3h-3v-3H-477L-477-561L-477-561z M-474-564h-9v9h9V-564L-474-564L-474-564z M-477-549v3h-3v-3H-477L-477-549
									L-477-549z M-474-552h-9v9h9V-552L-474-552L-474-552z M-477-537v3h-3v-3H-477L-477-537L-477-537z M-474-540h-9v9h9V-540
									L-474-540L-474-540z M-477-525v3h-3v-3H-477L-477-525L-477-525z M-474-528h-9v9h9V-528L-474-528L-474-528z M-477-513v3h-3
									v-3H-477L-477-513L-477-513z M-474-516h-9v9h9V-516L-474-516L-474-516z"/>
							</g>
						</g>
						<g class="st137">
							<defs>
								<polygon id="SVGID_19_" points="-1060,-289 -255.1,-289 -255.1,-1208 -1060,-1208 -1060,-289 								"/>
							</defs>
							<clipPath id="SVGID_20_">
								<use xlink:href="#SVGID_19_"  style="overflow:visible;"/>
							</clipPath>
							<polygon class="st38" points="-468,-407.5 -468,-407.5 -468,-408.5 -468.6,-409.7 -470.7,-411.5 -474.3,-413.2 
								-478.6,-414.9 -483.9,-416.2 -490.2,-417.1 -496.6,-418 -504,-418 -511.4,-418 -517.9,-417.1 -524.1,-416.2 -529.4,-414.9 
								-533.8,-413.2 -537.4,-411.5 -539.4,-409.7 -540,-408.5 -540,-407.5 -540,-390.5 -540,-389.5 -539.4,-388.3 -537.4,-386.5 
								-533.8,-384.8 -529.4,-383.1 -524.1,-381.8 -517.9,-380.9 -511.4,-380 -504,-380 -496.6,-380 -490.2,-380.9 -483.9,-381.8 
								-478.6,-383.1 -474.3,-384.8 -470.7,-386.5 -468.6,-388.3 -468,-389.5 -468,-390.5 -468,-407.5 -468,-407.5 							"/>
							<g class="st139">
								<defs>
									<polygon id="SVGID_21_" points="-1060,-289 -255.1,-289 -255.1,-1208 -1060,-1208 -1060,-289 									"/>
								</defs>
								<clipPath id="SVGID_22_">
									<use xlink:href="#SVGID_21_"  style="overflow:visible;"/>
								</clipPath>
								<polyline class="st17" points="-540,-408 -540,-408 -540,-407.3 -539.4,-405.9 -537.4,-404.3 -533.8,-402.6 -529.4,-401 
									-524.1,-399.6 -517.9,-398.9 -511.4,-398 -504,-398 -496.6,-398 -490.2,-398.9 -483.9,-399.6 -478.6,-401 -474.3,-402.6 
									-470.7,-404.3 -468.6,-405.9 -468,-407.3 -468,-408 								"/>
								<g class="st140">
									<defs>
										<polygon id="SVGID_23_" points="-1060,-289 -255.1,-289 -255.1,-1208 -1060,-1208 -1060,-289 										"/>
									</defs>
									<clipPath id="SVGID_24_">
										<use xlink:href="#SVGID_23_"  style="overflow:visible;"/>
									</clipPath>
									<polyline class="st178" points="-540,-384 -540,-373.6 -540,-372.6 -539.4,-371.4 -537.4,-369.5 -533.8,-367.8 
										-529.4,-366.1 -524.1,-364.9 -517.9,-363.9 -511.4,-363 -504,-363 -496.6,-363 -490.2,-363.9 -483.9,-364.9 -478.6,-366.1 
										-474.3,-367.8 -470.7,-369.5 -468.6,-371.4 -468,-372.6 -468,-373.6 -468,-384 									"/>
									<g class="st141">
										<defs>
											<polygon id="SVGID_25_" points="-1060,-289 -255.1,-289 -255.1,-1208 -1060,-1208 -1060,-289 											"/>
										</defs>
										<clipPath id="SVGID_26_">
											<use xlink:href="#SVGID_25_"  style="overflow:visible;"/>
										</clipPath>
										<polyline class="st55" points="-540,-367 -540,-356.5 -540,-355.6 -539.4,-354.3 -537.4,-352.6 -533.8,-350.7 
											-529.4,-349 -524.1,-347.7 -517.9,-346.8 -511.4,-346 -504,-346 -496.6,-346 -490.2,-346.8 -483.9,-347.7 -478.6,-349 
											-474.3,-350.7 -470.7,-352.6 -468.6,-354.3 -468,-355.6 -468,-356.5 -468,-367 										"/>
										<g class="st142">
											<defs>
												<polygon id="SVGID_27_" points="-1060,-289 -255.1,-289 -255.1,-1208 -1060,-1208 -1060,-289 												"/>
											</defs>
											<clipPath id="SVGID_28_">
												<use xlink:href="#SVGID_27_"  style="overflow:visible;"/>
											</clipPath>
											<polygon class="st22" points="-756,-407.5 -756,-407.5 -756,-408.5 -756.6,-409.7 -758.6,-411.5 -762.2,-413.2 
												-766.6,-414.9 -771.9,-416.2 -778.2,-417.1 -784.6,-418 -792,-418 -799.4,-418 -805.8,-417.1 -812.1,-416.2 
												-817.4,-414.9 -821.7,-413.2 -825.3,-411.5 -827.4,-409.7 -828,-408.5 -828,-407.5 -828,-390.5 -828,-389.5 
												-827.4,-388.3 -825.3,-386.5 -821.7,-384.8 -817.4,-383.1 -812.1,-381.8 -805.8,-380.9 -799.4,-380 -792,-380 
												-784.6,-380 -778.2,-380.9 -771.9,-381.8 -766.6,-383.1 -762.2,-384.8 -758.6,-386.5 -756.6,-388.3 -756,-389.5 
												-756,-390.5 -756,-407.5 -756,-407.5 											"/>
											<g class="st143">
												<defs>
													<polygon id="SVGID_29_" points="-1060,-289 -255.1,-289 -255.1,-1208 -1060,-1208 -1060,-289 													"/>
												</defs>
												<clipPath id="SVGID_30_">
													<use xlink:href="#SVGID_29_"  style="overflow:visible;"/>
												</clipPath>
												<polyline class="st31" points="-828,-408 -828,-408 -828,-407.3 -827.4,-405.9 -825.3,-404.3 -821.7,-402.6 
													-817.4,-401 -812.1,-399.6 -805.8,-398.9 -799.4,-398 -792,-398 -784.6,-398 -778.2,-398.9 -771.9,-399.6 -766.6,-401 
													-762.2,-402.6 -758.6,-404.3 -756.6,-405.9 -756,-407.3 -756,-408 												"/>
												<g class="st144">
													<defs>
														<polygon id="SVGID_31_" points="-1060,-289 -255.1,-289 -255.1,-1208 -1060,-1208 -1060,-289 														"/>
													</defs>
													<clipPath id="SVGID_32_">
														<use xlink:href="#SVGID_31_"  style="overflow:visible;"/>
													</clipPath>
													<polyline class="st11" points="-828,-384 -828,-373.6 -828,-372.6 -827.4,-371.4 -825.3,-369.5 -821.7,-367.8 
														-817.4,-366.1 -812.1,-364.9 -805.8,-363.9 -799.4,-363 -792,-363 -784.6,-363 -778.2,-363.9 -771.9,-364.9 
														-766.6,-366.1 -762.2,-367.8 -758.6,-369.5 -756.6,-371.4 -756,-372.6 -756,-373.6 -756,-384 													"/>
													<g class="st145">
														<defs>
															<polygon id="SVGID_33_" points="-1060,-289 -255.1,-289 -255.1,-1208 -1060,-1208 -1060,-289 															"/>
														</defs>
														<clipPath id="SVGID_34_">
															<use xlink:href="#SVGID_33_"  style="overflow:visible;"/>
														</clipPath>
														<polyline class="st128" points="-828,-367 -828,-356.5 -828,-355.6 -827.4,-354.3 -825.3,-352.6 -821.7,-350.7 
															-817.4,-349 -812.1,-347.7 -805.8,-346.8 -799.4,-346 -792,-346 -784.6,-346 -778.2,-346.8 -771.9,-347.7 
															-766.6,-349 -762.2,-350.7 -758.6,-352.6 -756.6,-354.3 -756,-355.6 -756,-356.5 -756,-367 														"/>
														<g class="st146">
															<defs>
																<polygon id="SVGID_35_" points="-1060,-289 -255.1,-289 -255.1,-1208 -1060,-1208 -1060,-289 																"/>
															</defs>
															<clipPath id="SVGID_36_">
																<use xlink:href="#SVGID_35_"  style="overflow:visible;"/>
															</clipPath>
															<line class="st1" x1="-791.5" y1="-947.5" x2="-826.5" y2="-926.5"/>
															<g class="st147">
																<defs>
																	<polygon id="SVGID_37_" points="-1060,-289 -255.1,-289 -255.1,-1208 -1060,-1208 -1060,-289 																	"/>
																</defs>
																<clipPath id="SVGID_38_">
																	<use xlink:href="#SVGID_37_"  style="overflow:visible;"/>
																</clipPath>
																<line class="st118" x1="-799.5" y1="-852.5" x2="-840.5" y2="-875.5"/>
																<g class="st148">
																	<defs>
																		<polygon id="SVGID_39_" points="-1060,-289 -255.1,-289 -255.1,-1208 -1060,-1208 -1060,-289 																		
																			"/>
																	</defs>
																	<clipPath id="SVGID_40_">
																		<use xlink:href="#SVGID_39_"  style="overflow:visible;"/>
																	</clipPath>
																	<line class="st113" x1="-748.5" y1="-912.5" x2="-748.5" y2="-864.5"/>
																	<g class="st149">
																		<defs>
																			<polygon id="SVGID_41_" points="-1060,-289 -255.1,-289 -255.1,-1208 -1060,-1208 -1060,-289 
																																							"/>
																		</defs>
																		<clipPath id="SVGID_42_">
																			<use xlink:href="#SVGID_41_"  style="overflow:visible;"/>
																		</clipPath>
																		<line class="st40" x1="-834.5" y1="-882.5" x2="-834.5" y2="-929.5"/>
																		<g class="st150">
																			<defs>
																				<polygon id="SVGID_43_" points="-1060,-289 -255.1,-289 -255.1,-1208 -1060,-1208 -1060,-289 
																																									"/>
																			</defs>
																			<clipPath id="SVGID_44_">
																				<use xlink:href="#SVGID_43_"  style="overflow:visible;"/>
																			</clipPath>
																			<line class="st23" x1="-756.5" y1="-867.5" x2="-791.5" y2="-847.5"/>
																			<g class="st151">
																				<defs>
																					<polygon id="SVGID_45_" points="-1060,-289 -255.1,-289 -255.1,-1208 -1060,-1208 -1060,-289 
																																											"/>
																				</defs>
																				<clipPath id="SVGID_46_">
																					<use xlink:href="#SVGID_45_"  style="overflow:visible;"/>
																				</clipPath>
																				<line class="st2" x1="-782.5" y1="-942.5" x2="-742.5" y2="-918.5"/>
																				<g class="st152">
																					<defs>
																						<polygon id="SVGID_47_" points="-1060,-289 -255.1,-289 -255.1,-1208 -1060,-1208 -1060,-289 
																																													"/>
																					</defs>
																					<clipPath id="SVGID_48_">
																						<use xlink:href="#SVGID_47_"  style="overflow:visible;"/>
																					</clipPath>
																					<polyline class="st120" points="-806.5,-845.8 -806.5,-845.8 -815.5,-848 -822.2,-852.5 -829,-858.5 
																						-835,-864.5 -839.5,-872 -842.5,-880.3 -845.5,-888.5 -845.5,-896.8 -845.5,-896.8 -845.5,-902.8 -844,-908 
																						-843.2,-913.3 -841,-918.5 -836.5,-927.5 -829.7,-935.8 -821.5,-942.5 -812.5,-947.8 -807.2,-949.3 
																						-802.7,-950 -796.7,-950.8 -791.5,-951.5 -791.5,-919.3 -772.7,-908 -772.7,-908 -810.2,-886.3 -810.2,-886.3 
																						-791.5,-875 -791.5,-843.5 -791.5,-843.5 -785.5,-843.5 -780.2,-844.3 -775,-845.8 -769.7,-847.3 
																						-760.7,-852.5 -753.2,-858.5 -745.7,-867.5 -742,-876.5 -739,-881 -738.2,-886.3 -737.5,-892.3 -737.5,-896.8 
																						-737.5,-896.8 -737.5,-906.5 -739.7,-914.8 -743.5,-923 -748.7,-930.5 -754,-936.5 -760.7,-942.5 -768.2,-947 
																						-776.5,-949.3 																					"/>
																					<g class="st153">
																						<defs>
																							<polygon id="SVGID_49_" points="-1060,-289 -255.1,-289 -255.1,-1208 -1060,-1208 -1060,-289 
																																															"/>
																						</defs>
																						<clipPath id="SVGID_50_">
																							<use xlink:href="#SVGID_49_"  style="overflow:visible;"/>
																						</clipPath>
																						<line class="st116" x1="-503.5" y1="-947.5" x2="-538.5" y2="-926.5"/>
																						<g class="st154">
																							<defs>
																								<polygon id="SVGID_51_" points="-1060,-289 -255.1,-289 -255.1,-1208 -1060,-1208 -1060,-289 
																																																	"/>
																							</defs>
																							<clipPath id="SVGID_52_">
																								<use xlink:href="#SVGID_51_"  style="overflow:visible;"/>
																							</clipPath>
																							<line class="st45" x1="-511.5" y1="-852.5" x2="-552.5" y2="-875.5"/>
																							<g class="st155">
																								<defs>
																									<polygon id="SVGID_53_" points="-1060,-289 -255.1,-289 -255.1,-1208 -1060,-1208 -1060,-289 
																																																			"/>
																								</defs>
																								<clipPath id="SVGID_54_">
																									<use xlink:href="#SVGID_53_"  style="overflow:visible;"/>
																								</clipPath>
																								<line class="st24" x1="-460.5" y1="-912.5" x2="-460.5" y2="-864.5"/>
																								<g class="st156">
																									<defs>
																										<polygon id="SVGID_55_" points="-1060,-289 -255.1,-289 -255.1,-1208 -1060,-1208 -1060,-289 
																																																					"/>
																									</defs>
																									<clipPath id="SVGID_56_">
																										<use xlink:href="#SVGID_55_"  style="overflow:visible;"/>
																									</clipPath>
																									<line class="st3" x1="-546.5" y1="-882.5" x2="-546.5" y2="-929.5"/>
																									<g class="st157">
																										<defs>
																											<polygon id="SVGID_57_" points="-1060,-289 -255.1,-289 -255.1,-1208 -1060,-1208 -1060,-289 
																																																							"/>
																										</defs>
																										<clipPath id="SVGID_58_">
																											<use xlink:href="#SVGID_57_"  style="overflow:visible;"/>
																										</clipPath>
																										<line class="st127" x1="-468.5" y1="-867.5" x2="-503.5" y2="-847.5"/>
																										<g class="st158">
																											<defs>
																												<polygon id="SVGID_59_" points="-1060,-289 -255.1,-289 -255.1,-1208 -1060,-1208 -1060,-289 
																																																									"/>
																											</defs>
																											<clipPath id="SVGID_60_">
																												<use xlink:href="#SVGID_59_"  style="overflow:visible;"/>
																											</clipPath>
																											<line class="st119" x1="-494.5" y1="-942.5" x2="-454.5" y2="-918.5"/>
																											<g class="st159">
																												<defs>
																													<polygon id="SVGID_61_" points="-1060,-289 -255.1,-289 -255.1,-1208 -1060,-1208 -1060,-289 
																																																											"/>
																												</defs>
																												<clipPath id="SVGID_62_">
																													<use xlink:href="#SVGID_61_"  style="overflow:visible;"/>
																												</clipPath>
																												<polyline class="st47" points="-518.5,-845.8 -518.5,-845.8 -527.5,-848 -534.3,-852.5 -541,-858.5 
																													-547,-864.5 -551.5,-872 -554.5,-880.3 -557.5,-888.5 -557.5,-896.8 -557.5,-896.8 -557.5,-902.8 
																													-556,-908 -555.3,-913.3 -553,-918.5 -548.5,-927.5 -541.8,-935.8 -533.5,-942.5 -524.5,-947.8 
																													-519.3,-949.3 -514.8,-950 -508.8,-950.8 -503.5,-951.5 -503.5,-919.3 -484.8,-908 -484.8,-908 
																													-522.3,-886.3 -522.3,-886.3 -503.5,-875 -503.5,-843.5 -503.5,-843.5 -497.5,-843.5 -492.3,-844.3 
																													-487,-845.8 -481.8,-847.3 -472.8,-852.5 -465.3,-858.5 -457.8,-867.5 -454,-876.5 -451,-881 
																													-450.3,-886.3 -449.5,-892.3 -449.5,-896.8 -449.5,-896.8 -449.5,-906.5 -451.8,-914.8 -455.5,-923 
																													-460.8,-930.5 -466,-936.5 -472.8,-942.5 -480.3,-947 -488.5,-949.3 																												"/>
																												<g class="st160">
																													<defs>
																														<polygon id="SVGID_63_" points="-1060,-289 -255.1,-289 -255.1,-1208 -1060,-1208 -1060,-289 
																																																													"/>
																													</defs>
																													<clipPath id="SVGID_64_">
																														<use xlink:href="#SVGID_63_"  style="overflow:visible;"/>
																													</clipPath>
																													<rect x="-540" y="-570" class="st132" width="2415.5" height="2758.3"/>
																												</g>
																											</g>
																										</g>
																									</g>
																								</g>
																							</g>
																						</g>
																					</g>
																				</g>
																			</g>
																		</g>
																	</g>
																</g>
															</g>
														</g>
													</g>
												</g>
											</g>
										</g>
									</g>
								</g>
							</g>
						</g>
					</g>
				</g>
			</g>
		</g>
	</g>
</g>
<g>
	<polygon class="st54" points="-1010,-971 -255.1,-971 -255.1,-289 -1010,-289 -1010,-971 	"/>
	<polygon class="st115" points="-924,-480 -348,-480 -348,-309 -924,-309 -924,-480 	"/>
	<polygon class="st19" points="-924,-480 -348,-480 -348,-309 -924,-309 -924,-480 	"/>
	<g>
		<defs>
			<polygon id="SVGID_65_" points="-1060,-289 -255.1,-289 -255.1,-1208 -1060,-1208 -1060,-289 			"/>
		</defs>
		<clipPath id="SVGID_66_">
			<use xlink:href="#SVGID_65_"  style="overflow:visible;"/>
		</clipPath>
		<polygon class="st44" points="-924,-825 -348,-825 -348,-753 -924,-753 -924,-825 		"/>
		<g class="st161">
			<defs>
				<polygon id="SVGID_67_" points="-1060,-289 -255.1,-289 -255.1,-1208 -1060,-1208 -1060,-289 				"/>
			</defs>
			<clipPath id="SVGID_68_">
				<use xlink:href="#SVGID_67_"  style="overflow:visible;"/>
			</clipPath>
			<polygon class="st126" points="-924,-742 -348,-742 -348,-670 -924,-670 -924,-742 			"/>
			<g class="st162">
				<defs>
					<polygon id="SVGID_69_" points="-1060,-289 -255.1,-289 -255.1,-1208 -1060,-1208 -1060,-289 					"/>
				</defs>
				<clipPath id="SVGID_70_">
					<use xlink:href="#SVGID_69_"  style="overflow:visible;"/>
				</clipPath>
				<polygon class="st117" points="-924,-659 -348,-659 -348,-587 -924,-587 -924,-659 				"/>
				<g class="st163">
					<defs>
						<polygon id="SVGID_71_" points="-1060,-289 -255.1,-289 -255.1,-1208 -1060,-1208 -1060,-289 						"/>
					</defs>
					<clipPath id="SVGID_72_">
						<use xlink:href="#SVGID_71_"  style="overflow:visible;"/>
					</clipPath>
					<g class="st164">
						<defs>
							<polygon id="SVGID_73_" points="-1060,-289 -255.1,-289 -255.1,-1208 -1060,-1208 -1060,-289 							"/>
						</defs>
						<clipPath id="SVGID_74_">
							<use xlink:href="#SVGID_73_"  style="overflow:visible;"/>
						</clipPath>
						<g class="st165">
							<defs>
								<polygon id="SVGID_75_" points="-828,-498 -756,-498 -756,-570 -828,-570 -828,-498 								"/>
							</defs>
							<clipPath id="SVGID_76_">
								<use xlink:href="#SVGID_75_"  style="overflow:visible;"/>
							</clipPath>
							<path class="st133" d="M-786-567v66h-39v-66H-786L-786-567L-786-567z M-783-570h-45v72h45V-570L-783-570L-783-570z M-759-567
								v66h-15v-66H-759L-759-567L-759-567z M-756-570h-21v72h21V-570L-756-570L-756-570z"/>
							<path class="st48" d="M-786-567v66h-39v-66H-786L-786-567L-786-567z M-783-570h-45v72h45V-570L-783-570L-783-570z M-759-567
								v66h-15v-66H-759L-759-567L-759-567z M-756-570h-21v72h21V-570L-756-570L-756-570z"/>
							<path class="st133" d="M-792-558v12h-27v-12H-792L-792-558L-792-558z M-789-561h-33v18h33V-561L-789-561L-789-561z M-765-561
								v3h-3v-3H-765L-765-561L-765-561z M-762-564h-9v9h9V-564L-762-564L-762-564z M-765-549v3h-3v-3H-765L-765-549L-765-549z
								 M-762-552h-9v9h9V-552L-762-552L-762-552z M-765-537v3h-3v-3H-765L-765-537L-765-537z M-762-540h-9v9h9V-540L-762-540
								L-762-540z M-765-525v3h-3v-3H-765L-765-525L-765-525z M-762-528h-9v9h9V-528L-762-528L-762-528z M-765-513v3h-3v-3H-765
								L-765-513L-765-513z M-762-516h-9v9h9V-516L-762-516L-762-516z"/>
							<path class="st48" d="M-792-558v12h-27v-12H-792L-792-558L-792-558z M-789-561h-33v18h33V-561L-789-561L-789-561z M-765-561
								v3h-3v-3H-765L-765-561L-765-561z M-762-564h-9v9h9V-564L-762-564L-762-564z M-765-549v3h-3v-3H-765L-765-549L-765-549z
								 M-762-552h-9v9h9V-552L-762-552L-762-552z M-765-537v3h-3v-3H-765L-765-537L-765-537z M-762-540h-9v9h9V-540L-762-540
								L-762-540z M-765-525v3h-3v-3H-765L-765-525L-765-525z M-762-528h-9v9h9V-528L-762-528L-762-528z M-765-513v3h-3v-3H-765
								L-765-513L-765-513z M-762-516h-9v9h9V-516L-762-516L-762-516z"/>
						</g>
					</g>
					<g class="st164">
						<defs>
							<polygon id="SVGID_77_" points="-1060,-289 -255.1,-289 -255.1,-1208 -1060,-1208 -1060,-289 							"/>
						</defs>
						<clipPath id="SVGID_78_">
							<use xlink:href="#SVGID_77_"  style="overflow:visible;"/>
						</clipPath>
						<g class="st166">
							<defs>
								<polygon id="SVGID_79_" points="-1060,-289 -255.1,-289 -255.1,-1208 -1060,-1208 -1060,-289 								"/>
							</defs>
							<clipPath id="SVGID_80_">
								<use xlink:href="#SVGID_79_"  style="overflow:visible;"/>
							</clipPath>
							<g class="st167">
								<defs>
									<polygon id="SVGID_81_" points="-540,-498 -468,-498 -468,-570 -540,-570 -540,-498 									"/>
								</defs>
								<clipPath id="SVGID_82_">
									<use xlink:href="#SVGID_81_"  style="overflow:visible;"/>
								</clipPath>
								<path class="st37" d="M-498-567v66h-39v-66H-498L-498-567L-498-567z M-495-570h-45v72h45V-570L-495-570L-495-570z M-471-567
									v66h-15v-66H-471L-471-567L-471-567z M-468-570h-21v72h21V-570L-468-570L-468-570z"/>
								<path class="st4" d="M-498-567v66h-39v-66H-498L-498-567L-498-567z M-495-570h-45v72h45V-570L-495-570L-495-570z M-471-567
									v66h-15v-66H-471L-471-567L-471-567z M-468-570h-21v72h21V-570L-468-570L-468-570z"/>
								<path class="st37" d="M-504-558v12h-27v-12H-504L-504-558L-504-558z M-501-561h-33v18h33V-561L-501-561L-501-561z M-477-561
									v3h-3v-3H-477L-477-561L-477-561z M-474-564h-9v9h9V-564L-474-564L-474-564z M-477-549v3h-3v-3H-477L-477-549L-477-549z
									 M-474-552h-9v9h9V-552L-474-552L-474-552z M-477-537v3h-3v-3H-477L-477-537L-477-537z M-474-540h-9v9h9V-540L-474-540
									L-474-540z M-477-525v3h-3v-3H-477L-477-525L-477-525z M-474-528h-9v9h9V-528L-474-528L-474-528z M-477-513v3h-3v-3H-477
									L-477-513L-477-513z M-474-516h-9v9h9V-516L-474-516L-474-516z"/>
								<path class="st4" d="M-504-558v12h-27v-12H-504L-504-558L-504-558z M-501-561h-33v18h33V-561L-501-561L-501-561z M-477-561
									v3h-3v-3H-477L-477-561L-477-561z M-474-564h-9v9h9V-564L-474-564L-474-564z M-477-549v3h-3v-3H-477L-477-549L-477-549z
									 M-474-552h-9v9h9V-552L-474-552L-474-552z M-477-537v3h-3v-3H-477L-477-537L-477-537z M-474-540h-9v9h9V-540L-474-540
									L-474-540z M-477-525v3h-3v-3H-477L-477-525L-477-525z M-474-528h-9v9h9V-528L-474-528L-474-528z M-477-513v3h-3v-3H-477
									L-477-513L-477-513z M-474-516h-9v9h9V-516L-474-516L-474-516z"/>
							</g>
						</g>
						<g class="st166">
							<defs>
								<polygon id="SVGID_83_" points="-1060,-289 -255.1,-289 -255.1,-1208 -1060,-1208 -1060,-289 								"/>
							</defs>
							<clipPath id="SVGID_84_">
								<use xlink:href="#SVGID_83_"  style="overflow:visible;"/>
							</clipPath>
							<polygon class="st41" points="-468,-407.5 -468,-407.5 -468,-408.5 -468.6,-409.7 -470.7,-411.5 -474.3,-413.2 
								-478.6,-414.9 -483.9,-416.2 -490.2,-417.1 -496.6,-418 -504,-418 -511.4,-418 -517.9,-417.1 -524.1,-416.2 -529.4,-414.9 
								-533.8,-413.2 -537.4,-411.5 -539.4,-409.7 -540,-408.5 -540,-407.5 -540,-390.5 -540,-389.5 -539.4,-388.3 -537.4,-386.5 
								-533.8,-384.8 -529.4,-383.1 -524.1,-381.8 -517.9,-380.9 -511.4,-380 -504,-380 -496.6,-380 -490.2,-380.9 -483.9,-381.8 
								-478.6,-383.1 -474.3,-384.8 -470.7,-386.5 -468.6,-388.3 -468,-389.5 -468,-390.5 -468,-407.5 -468,-407.5 							"/>
							<g class="st168">
								<defs>
									<polygon id="SVGID_85_" points="-1060,-289 -255.1,-289 -255.1,-1208 -1060,-1208 -1060,-289 									"/>
								</defs>
								<clipPath id="SVGID_86_">
									<use xlink:href="#SVGID_85_"  style="overflow:visible;"/>
								</clipPath>
								<polyline class="st18" points="-540,-408 -540,-408 -540,-407.3 -539.4,-405.9 -537.4,-404.3 -533.8,-402.6 -529.4,-401 
									-524.1,-399.6 -517.9,-398.9 -511.4,-398 -504,-398 -496.6,-398 -490.2,-398.9 -483.9,-399.6 -478.6,-401 -474.3,-402.6 
									-470.7,-404.3 -468.6,-405.9 -468,-407.3 -468,-408 								"/>
								<g class="st169">
									<defs>
										<polygon id="SVGID_87_" points="-1060,-289 -255.1,-289 -255.1,-1208 -1060,-1208 -1060,-289 										"/>
									</defs>
									<clipPath id="SVGID_88_">
										<use xlink:href="#SVGID_87_"  style="overflow:visible;"/>
									</clipPath>
									<polyline class="st179" points="-540,-384 -540,-373.6 -540,-372.6 -539.4,-371.4 -537.4,-369.5 -533.8,-367.8 
										-529.4,-366.1 -524.1,-364.9 -517.9,-363.9 -511.4,-363 -504,-363 -496.6,-363 -490.2,-363.9 -483.9,-364.9 -478.6,-366.1 
										-474.3,-367.8 -470.7,-369.5 -468.6,-371.4 -468,-372.6 -468,-373.6 -468,-384 									"/>
									<g class="st170">
										<defs>
											<polygon id="SVGID_89_" points="-1060,-289 -255.1,-289 -255.1,-1208 -1060,-1208 -1060,-289 											"/>
										</defs>
										<clipPath id="SVGID_90_">
											<use xlink:href="#SVGID_89_"  style="overflow:visible;"/>
										</clipPath>
										<polyline class="st5" points="-540,-367 -540,-356.5 -540,-355.6 -539.4,-354.3 -537.4,-352.6 -533.8,-350.7 -529.4,-349 
											-524.1,-347.7 -517.9,-346.8 -511.4,-346 -504,-346 -496.6,-346 -490.2,-346.8 -483.9,-347.7 -478.6,-349 -474.3,-350.7 
											-470.7,-352.6 -468.6,-354.3 -468,-355.6 -468,-356.5 -468,-367 										"/>
										<g class="st171">
											<defs>
												<polygon id="SVGID_91_" points="-1060,-289 -255.1,-289 -255.1,-1208 -1060,-1208 -1060,-289 												"/>
											</defs>
											<clipPath id="SVGID_92_">
												<use xlink:href="#SVGID_91_"  style="overflow:visible;"/>
											</clipPath>
											<polygon class="st114" points="-756,-407.5 -756,-407.5 -756,-408.5 -756.6,-409.7 -758.6,-411.5 -762.2,-413.2 
												-766.6,-414.9 -771.9,-416.2 -778.2,-417.1 -784.6,-418 -792,-418 -799.4,-418 -805.8,-417.1 -812.1,-416.2 
												-817.4,-414.9 -821.7,-413.2 -825.3,-411.5 -827.4,-409.7 -828,-408.5 -828,-407.5 -828,-390.5 -828,-389.5 
												-827.4,-388.3 -825.3,-386.5 -821.7,-384.8 -817.4,-383.1 -812.1,-381.8 -805.8,-380.9 -799.4,-380 -792,-380 
												-784.6,-380 -778.2,-380.9 -771.9,-381.8 -766.6,-383.1 -762.2,-384.8 -758.6,-386.5 -756.6,-388.3 -756,-389.5 
												-756,-390.5 -756,-407.5 -756,-407.5 											"/>
											<g class="st172">
												<defs>
													<polygon id="SVGID_93_" points="-1060,-289 -255.1,-289 -255.1,-1208 -1060,-1208 -1060,-289 													"/>
												</defs>
												<clipPath id="SVGID_94_">
													<use xlink:href="#SVGID_93_"  style="overflow:visible;"/>
												</clipPath>
												<polyline class="st36" points="-828,-408 -828,-408 -828,-407.3 -827.4,-405.9 -825.3,-404.3 -821.7,-402.6 
													-817.4,-401 -812.1,-399.6 -805.8,-398.9 -799.4,-398 -792,-398 -784.6,-398 -778.2,-398.9 -771.9,-399.6 -766.6,-401 
													-762.2,-402.6 -758.6,-404.3 -756.6,-405.9 -756,-407.3 -756,-408 												"/>
												<g class="st173">
													<defs>
														<polygon id="SVGID_95_" points="-1060,-289 -255.1,-289 -255.1,-1208 -1060,-1208 -1060,-289 														"/>
													</defs>
													<clipPath id="SVGID_96_">
														<use xlink:href="#SVGID_95_"  style="overflow:visible;"/>
													</clipPath>
													<polyline class="st13" points="-828,-384 -828,-373.6 -828,-372.6 -827.4,-371.4 -825.3,-369.5 -821.7,-367.8 
														-817.4,-366.1 -812.1,-364.9 -805.8,-363.9 -799.4,-363 -792,-363 -784.6,-363 -778.2,-363.9 -771.9,-364.9 
														-766.6,-366.1 -762.2,-367.8 -758.6,-369.5 -756.6,-371.4 -756,-372.6 -756,-373.6 -756,-384 													"/>
													<g class="st174">
														<defs>
															<polygon id="SVGID_97_" points="-1060,-289 -255.1,-289 -255.1,-1208 -1060,-1208 -1060,-289 															"/>
														</defs>
														<clipPath id="SVGID_98_">
															<use xlink:href="#SVGID_97_"  style="overflow:visible;"/>
														</clipPath>
														<polyline class="st130" points="-828,-367 -828,-356.5 -828,-355.6 -827.4,-354.3 -825.3,-352.6 -821.7,-350.7 
															-817.4,-349 -812.1,-347.7 -805.8,-346.8 -799.4,-346 -792,-346 -784.6,-346 -778.2,-346.8 -771.9,-347.7 
															-766.6,-349 -762.2,-350.7 -758.6,-352.6 -756.6,-354.3 -756,-355.6 -756,-356.5 -756,-367 														"/>
														<g class="st175">
															<defs>
																<polygon id="SVGID_99_" points="-1060,-289 -255.1,-289 -255.1,-1208 -1060,-1208 -1060,-289 																"/>
															</defs>
															<clipPath id="SVGID_100_">
																<use xlink:href="#SVGID_99_"  style="overflow:visible;"/>
															</clipPath>
															<line class="st50" x1="-791.5" y1="-947.5" x2="-826.5" y2="-926.5"/>
															<g class="st71">
																<defs>
																	<polygon id="SVGID_101_" points="-1060,-289 -255.1,-289 -255.1,-1208 -1060,-1208 -1060,-289 																	
																		"/>
																</defs>
																<clipPath id="SVGID_102_">
																	<use xlink:href="#SVGID_101_"  style="overflow:visible;"/>
																</clipPath>
																<line class="st25" x1="-799.5" y1="-852.5" x2="-840.5" y2="-875.5"/>
																<g class="st72">
																	<defs>
																		<polygon id="SVGID_103_" points="-1060,-289 -255.1,-289 -255.1,-1208 -1060,-1208 -1060,-289 																		
																			"/>
																	</defs>
																	<clipPath id="SVGID_104_">
																		<use xlink:href="#SVGID_103_"  style="overflow:visible;"/>
																	</clipPath>
																	<line class="st6" x1="-748.5" y1="-912.5" x2="-748.5" y2="-864.5"/>
																	<g class="st73">
																		<defs>
																			<polygon id="SVGID_105_" points="-1060,-289 -255.1,-289 -255.1,-1208 -1060,-1208 -1060,-289 
																																							"/>
																		</defs>
																		<clipPath id="SVGID_106_">
																			<use xlink:href="#SVGID_105_"  style="overflow:visible;"/>
																		</clipPath>
																		<line class="st129" x1="-834.5" y1="-882.5" x2="-834.5" y2="-929.5"/>
																		<g class="st74">
																			<defs>
																				<polygon id="SVGID_107_" points="-1060,-289 -255.1,-289 -255.1,-1208 -1060,-1208 -1060,-289 
																																									"/>
																			</defs>
																			<clipPath id="SVGID_108_">
																				<use xlink:href="#SVGID_107_"  style="overflow:visible;"/>
																			</clipPath>
																			<line class="st58" x1="-756.5" y1="-867.5" x2="-791.5" y2="-847.5"/>
																			<g class="st75">
																				<defs>
																					<polygon id="SVGID_109_" points="-1060,-289 -255.1,-289 -255.1,-1208 -1060,-1208 -1060,-289 
																																											"/>
																				</defs>
																				<clipPath id="SVGID_110_">
																					<use xlink:href="#SVGID_109_"  style="overflow:visible;"/>
																				</clipPath>
																				<line class="st53" x1="-782.5" y1="-942.5" x2="-742.5" y2="-918.5"/>
																				<g class="st76">
																					<defs>
																						<polygon id="SVGID_111_" points="-1060,-289 -255.1,-289 -255.1,-1208 -1060,-1208 -1060,-289 
																																													"/>
																					</defs>
																					<clipPath id="SVGID_112_">
																						<use xlink:href="#SVGID_111_"  style="overflow:visible;"/>
																					</clipPath>
																					<polyline class="st26" points="-806.5,-845.8 -806.5,-845.8 -815.5,-848 -822.2,-852.5 -829,-858.5 
																						-835,-864.5 -839.5,-872 -842.5,-880.3 -845.5,-888.5 -845.5,-896.8 -845.5,-896.8 -845.5,-902.8 -844,-908 
																						-843.2,-913.3 -841,-918.5 -836.5,-927.5 -829.7,-935.8 -821.5,-942.5 -812.5,-947.8 -807.2,-949.3 
																						-802.7,-950 -796.7,-950.8 -791.5,-951.5 -791.5,-919.3 -772.7,-908 -772.7,-908 -810.2,-886.3 -810.2,-886.3 
																						-791.5,-875 -791.5,-843.5 -791.5,-843.5 -785.5,-843.5 -780.2,-844.3 -775,-845.8 -769.7,-847.3 
																						-760.7,-852.5 -753.2,-858.5 -745.7,-867.5 -742,-876.5 -739,-881 -738.2,-886.3 -737.5,-892.3 -737.5,-896.8 
																						-737.5,-896.8 -737.5,-906.5 -739.7,-914.8 -743.5,-923 -748.7,-930.5 -754,-936.5 -760.7,-942.5 -768.2,-947 
																						-776.5,-949.3 																					"/>
																					<g class="st77">
																						<defs>
																							<polygon id="SVGID_113_" points="-1060,-289 -255.1,-289 -255.1,-1208 -1060,-1208 -1060,-289 
																																															"/>
																						</defs>
																						<clipPath id="SVGID_114_">
																							<use xlink:href="#SVGID_113_"  style="overflow:visible;"/>
																						</clipPath>
																						<line class="st8" x1="-503.5" y1="-947.5" x2="-538.5" y2="-926.5"/>
																						<g class="st78">
																							<defs>
																								<polygon id="SVGID_115_" points="-1060,-289 -255.1,-289 -255.1,-1208 -1060,-1208 -1060,-289 
																																																	"/>
																							</defs>
																							<clipPath id="SVGID_116_">
																								<use xlink:href="#SVGID_115_"  style="overflow:visible;"/>
																							</clipPath>
																							<line class="st131" x1="-511.5" y1="-852.5" x2="-552.5" y2="-875.5"/>
																							<g class="st79">
																								<defs>
																									<polygon id="SVGID_117_" points="-1060,-289 -255.1,-289 -255.1,-1208 -1060,-1208 -1060,-289 
																																																			"/>
																								</defs>
																								<clipPath id="SVGID_118_">
																									<use xlink:href="#SVGID_117_"  style="overflow:visible;"/>
																								</clipPath>
																								<line class="st59" x1="-460.5" y1="-912.5" x2="-460.5" y2="-864.5"/>
																								<g class="st80">
																									<defs>
																										<polygon id="SVGID_119_" points="-1060,-289 -255.1,-289 -255.1,-1208 -1060,-1208 -1060,-289 
																																																					"/>
																									</defs>
																									<clipPath id="SVGID_120_">
																										<use xlink:href="#SVGID_119_"  style="overflow:visible;"/>
																									</clipPath>
																									<line class="st56" x1="-546.5" y1="-882.5" x2="-546.5" y2="-929.5"/>
																									<g class="st81">
																										<defs>
																											<polygon id="SVGID_121_" points="-1060,-289 -255.1,-289 -255.1,-1208 -1060,-1208 -1060,-289 
																																																							"/>
																										</defs>
																										<clipPath id="SVGID_122_">
																											<use xlink:href="#SVGID_121_"  style="overflow:visible;"/>
																										</clipPath>
																										<line class="st27" x1="-468.5" y1="-867.5" x2="-503.5" y2="-847.5"/>
																										<g class="st82">
																											<defs>
																												<polygon id="SVGID_123_" points="-1060,-289 -255.1,-289 -255.1,-1208 -1060,-1208 -1060,-289 
																																																									"/>
																											</defs>
																											<clipPath id="SVGID_124_">
																												<use xlink:href="#SVGID_123_"  style="overflow:visible;"/>
																											</clipPath>
																											<line class="st9" x1="-494.5" y1="-942.5" x2="-454.5" y2="-918.5"/>
																											<g class="st83">
																												<defs>
																													<polygon id="SVGID_125_" points="-1060,-289 -255.1,-289 -255.1,-1208 -1060,-1208 -1060,-289 
																																																											"/>
																												</defs>
																												<clipPath id="SVGID_126_">
																													<use xlink:href="#SVGID_125_"  style="overflow:visible;"/>
																												</clipPath>
																												<polyline class="st134" points="-518.5,-845.8 -518.5,-845.8 -527.5,-848 -534.3,-852.5 -541,-858.5 
																													-547,-864.5 -551.5,-872 -554.5,-880.3 -557.5,-888.5 -557.5,-896.8 -557.5,-896.8 -557.5,-902.8 
																													-556,-908 -555.3,-913.3 -553,-918.5 -548.5,-927.5 -541.8,-935.8 -533.5,-942.5 -524.5,-947.8 
																													-519.3,-949.3 -514.8,-950 -508.8,-950.8 -503.5,-951.5 -503.5,-919.3 -484.8,-908 -484.8,-908 
																													-522.3,-886.3 -522.3,-886.3 -503.5,-875 -503.5,-843.5 -503.5,-843.5 -497.5,-843.5 -492.3,-844.3 
																													-487,-845.8 -481.8,-847.3 -472.8,-852.5 -465.3,-858.5 -457.8,-867.5 -454,-876.5 -451,-881 
																													-450.3,-886.3 -449.5,-892.3 -449.5,-896.8 -449.5,-896.8 -449.5,-906.5 -451.8,-914.8 -455.5,-923 
																													-460.8,-930.5 -466,-936.5 -472.8,-942.5 -480.3,-947 -488.5,-949.3 																												"/>
																												<g class="st84">
																													<defs>
																														<polygon id="SVGID_127_" points="-1060,-289 -255.1,-289 -255.1,-1208 -1060,-1208 -1060,-289 
																																																													"/>
																													</defs>
																													<clipPath id="SVGID_128_">
																														<use xlink:href="#SVGID_127_"  style="overflow:visible;"/>
																													</clipPath>
																													<rect x="-540" y="-570" class="st52" width="2415.5" height="2758.3"/>
																												</g>
																											</g>
																										</g>
																									</g>
																								</g>
																							</g>
																						</g>
																					</g>
																				</g>
																			</g>
																		</g>
																	</g>
																</g>
															</g>
														</g>
													</g>
												</g>
											</g>
										</g>
									</g>
								</g>
							</g>
						</g>
					</g>
				</g>
			</g>
		</g>
	</g>
</g>
<polygon class="st54" points="124,106 768.8,106 768.8,705 124,705 124,106 "/>
<polygon class="st115" points="197.4,525.4 689.4,525.4 689.4,699 197.4,699 197.4,525.4 "/>
<polygon class="st19" points="197.4,525.4 689.4,525.4 689.4,698 197.4,698 197.4,525.4 "/>
<g>
	<defs>
		<polygon id="SVGID_129_" points="124,688.5 768.8,688.5 768.8,106 124,106 124,688.5 		"/>
	</defs>
	<clipPath id="SVGID_130_">
		<use xlink:href="#SVGID_129_"  style="overflow:visible;"/>
	</clipPath>
	<polygon class="st43" points="197.4,230.7 689.4,230.7 689.4,292.2 197.4,292.2 197.4,230.7 	"/>
	<g class="st85">
		<defs>
			<polygon id="SVGID_131_" points="124,688.5 768.8,688.5 768.8,106 124,106 124,688.5 			"/>
		</defs>
		<clipPath id="SVGID_132_">
			<use xlink:href="#SVGID_131_"  style="overflow:visible;"/>
		</clipPath>
		<polygon class="st124" points="197.4,301.6 689.4,301.6 689.4,363.1 197.4,363.1 197.4,301.6 		"/>
		<g class="st86">
			<defs>
				<polygon id="SVGID_133_" points="124,688.5 768.8,688.5 768.8,106 124,106 124,688.5 				"/>
			</defs>
			<clipPath id="SVGID_134_">
				<use xlink:href="#SVGID_133_"  style="overflow:visible;"/>
			</clipPath>
			<polygon class="st7" points="197.4,372.5 689.4,372.5 689.4,434 197.4,434 197.4,372.5 			"/>
			<g class="st87">
				<defs>
					<polygon id="SVGID_135_" points="124,688.5 768.8,688.5 768.8,106 124,106 124,688.5 					"/>
				</defs>
				<clipPath id="SVGID_136_">
					<use xlink:href="#SVGID_135_"  style="overflow:visible;"/>
				</clipPath>
				<g class="st88">
					<defs>
						<polygon id="SVGID_137_" points="124,688.5 768.8,688.5 768.8,106 124,106 124,688.5 						"/>
					</defs>
					<clipPath id="SVGID_138_">
						<use xlink:href="#SVGID_137_"  style="overflow:visible;"/>
					</clipPath>
					<g class="st89">
						<defs>
							<polygon id="SVGID_139_" points="279.4,510 340.9,510 340.9,448.5 279.4,448.5 279.4,510 							"/>
						</defs>
						<clipPath id="SVGID_140_">
							<use xlink:href="#SVGID_139_"  style="overflow:visible;"/>
						</clipPath>
						<path class="st66" d="M315.3,451.1v56.4H282v-56.4H315.3L315.3,451.1L315.3,451.1z M317.9,448.5h-38.4V510h38.4V448.5
							L317.9,448.5L317.9,448.5z M338.4,451.1v56.4h-12.8v-56.4H338.4L338.4,451.1L338.4,451.1z M340.9,448.5H323V510h17.9V448.5
							L340.9,448.5L340.9,448.5z"/>
						<path class="st62" d="M315.3,451.1v56.4H282v-56.4H315.3L315.3,451.1L315.3,451.1z M317.9,448.5h-38.4V510h38.4V448.5
							L317.9,448.5L317.9,448.5z M338.4,451.1v56.4h-12.8v-56.4H338.4L338.4,451.1L338.4,451.1z M340.9,448.5H323V510h17.9V448.5
							L340.9,448.5L340.9,448.5z"/>
						<path class="st0" d="M310.2,458.8V469h-23.1v-10.3H310.2L310.2,458.8L310.2,458.8z M312.7,456.2h-28.2v15.4h28.2V456.2
							L312.7,456.2L312.7,456.2z M333.2,456.2v2.6h-2.6v-2.6H333.2L333.2,456.2L333.2,456.2z M335.8,453.6h-7.7v7.7h7.7V453.6
							L335.8,453.6L335.8,453.6z M333.2,466.4v2.6h-2.6v-2.6H333.2L333.2,466.4L333.2,466.4z M335.8,463.9h-7.7v7.7h7.7V463.9
							L335.8,463.9L335.8,463.9z M333.2,476.7v2.6h-2.6v-2.6H333.2L333.2,476.7L333.2,476.7z M335.8,474.1h-7.7v7.7h7.7V474.1
							L335.8,474.1L335.8,474.1z M333.2,487v2.6h-2.6V487H333.2L333.2,487L333.2,487z M335.8,484.4h-7.7v7.7h7.7V484.4L335.8,484.4
							L335.8,484.4z M333.2,497.2v2.6h-2.6v-2.6H333.2L333.2,497.2L333.2,497.2z M335.8,494.6h-7.7v7.7h7.7V494.6L335.8,494.6
							L335.8,494.6z"/>
						<path class="st62" d="M310.2,458.8V469h-23.1v-10.3H310.2L310.2,458.8L310.2,458.8z M312.7,456.2h-28.2v15.4h28.2V456.2
							L312.7,456.2L312.7,456.2z M333.2,456.2v2.6h-2.6v-2.6H333.2L333.2,456.2L333.2,456.2z M335.8,453.6h-7.7v7.7h7.7V453.6
							L335.8,453.6L335.8,453.6z M333.2,466.4v2.6h-2.6v-2.6H333.2L333.2,466.4L333.2,466.4z M335.8,463.9h-7.7v7.7h7.7V463.9
							L335.8,463.9L335.8,463.9z M333.2,476.7v2.6h-2.6v-2.6H333.2L333.2,476.7L333.2,476.7z M335.8,474.1h-7.7v7.7h7.7V474.1
							L335.8,474.1L335.8,474.1z M333.2,487v2.6h-2.6V487H333.2L333.2,487L333.2,487z M335.8,484.4h-7.7v7.7h7.7V484.4L335.8,484.4
							L335.8,484.4z M333.2,497.2v2.6h-2.6v-2.6H333.2L333.2,497.2L333.2,497.2z M335.8,494.6h-7.7v7.7h7.7V494.6L335.8,494.6
							L335.8,494.6z"/>
					</g>
				</g>
				<g class="st88">
					<defs>
						<polygon id="SVGID_141_" points="124,688.5 768.8,688.5 768.8,106 124,106 124,688.5 						"/>
					</defs>
					<clipPath id="SVGID_142_">
						<use xlink:href="#SVGID_141_"  style="overflow:visible;"/>
					</clipPath>
					<g class="st90">
						<defs>
							<polygon id="SVGID_143_" points="124,688.5 768.8,688.5 768.8,106 124,106 124,688.5 							"/>
						</defs>
						<clipPath id="SVGID_144_">
							<use xlink:href="#SVGID_143_"  style="overflow:visible;"/>
						</clipPath>
						<g class="st91">
							<defs>
								<polygon id="SVGID_145_" points="525.4,510 586.9,510 586.9,448.5 525.4,448.5 525.4,510 								"/>
							</defs>
							<clipPath id="SVGID_146_">
								<use xlink:href="#SVGID_145_"  style="overflow:visible;"/>
							</clipPath>
							<path class="st10" d="M561.3,451.1v56.4h-33.3v-56.4H561.3L561.3,451.1L561.3,451.1z M563.8,448.5h-38.4V510h38.4V448.5
								L563.8,448.5L563.8,448.5z M584.3,451.1v56.4h-12.8v-56.4H584.3L584.3,451.1L584.3,451.1z M586.9,448.5H569V510h17.9V448.5
								L586.9,448.5L586.9,448.5z"/>
							<path class="st180" d="M561.3,451.1v56.4h-33.3v-56.4H561.3L561.3,451.1L561.3,451.1z M563.8,448.5h-38.4V510h38.4V448.5
								L563.8,448.5L563.8,448.5z M584.3,451.1v56.4h-12.8v-56.4H584.3L584.3,451.1L584.3,451.1z M586.9,448.5H569V510h17.9V448.5
								L586.9,448.5L586.9,448.5z"/>
							<path class="st10" d="M556.1,458.8V469h-23.1v-10.3H556.1L556.1,458.8L556.1,458.8z M558.7,456.2h-28.2v15.4h28.2V456.2
								L558.7,456.2L558.7,456.2z M579.2,456.2v2.6h-2.6v-2.6H579.2L579.2,456.2L579.2,456.2z M581.8,453.6h-7.7v7.7h7.7V453.6
								L581.8,453.6L581.8,453.6z M579.2,466.4v2.6h-2.6v-2.6H579.2L579.2,466.4L579.2,466.4z M581.8,463.9h-7.7v7.7h7.7V463.9
								L581.8,463.9L581.8,463.9z M579.2,476.7v2.6h-2.6v-2.6H579.2L579.2,476.7L579.2,476.7z M581.8,474.1h-7.7v7.7h7.7V474.1
								L581.8,474.1L581.8,474.1z M579.2,487v2.6h-2.6V487H579.2L579.2,487L579.2,487z M581.8,484.4h-7.7v7.7h7.7V484.4L581.8,484.4
								L581.8,484.4z M579.2,497.2v2.6h-2.6v-2.6H579.2L579.2,497.2L579.2,497.2z M581.8,494.6h-7.7v7.7h7.7V494.6L581.8,494.6
								L581.8,494.6z"/>
							<path class="st180" d="M556.1,458.8V469h-23.1v-10.3H556.1L556.1,458.8L556.1,458.8z M558.7,456.2h-28.2v15.4h28.2V456.2
								L558.7,456.2L558.7,456.2z M579.2,456.2v2.6h-2.6v-2.6H579.2L579.2,456.2L579.2,456.2z M581.8,453.6h-7.7v7.7h7.7V453.6
								L581.8,453.6L581.8,453.6z M579.2,466.4v2.6h-2.6v-2.6H579.2L579.2,466.4L579.2,466.4z M581.8,463.9h-7.7v7.7h7.7V463.9
								L581.8,463.9L581.8,463.9z M579.2,476.7v2.6h-2.6v-2.6H579.2L579.2,476.7L579.2,476.7z M581.8,474.1h-7.7v7.7h7.7V474.1
								L581.8,474.1L581.8,474.1z M579.2,487v2.6h-2.6V487H579.2L579.2,487L579.2,487z M581.8,484.4h-7.7v7.7h7.7V484.4L581.8,484.4
								L581.8,484.4z M579.2,497.2v2.6h-2.6v-2.6H579.2L579.2,497.2L579.2,497.2z M581.8,494.6h-7.7v7.7h7.7V494.6L581.8,494.6
								L581.8,494.6z"/>
						</g>
					</g>
					<g class="st90">
						<defs>
							<polygon id="SVGID_147_" points="124,688.5 768.8,688.5 768.8,106 124,106 124,688.5 							"/>
						</defs>
						<clipPath id="SVGID_148_">
							<use xlink:href="#SVGID_147_"  style="overflow:visible;"/>
						</clipPath>
						<polygon class="st69" points="586.9,587.3 586.9,587.3 586.9,586.5 586.4,585.4 584.6,583.8 581.5,582.4 577.8,581 
							573.3,579.9 567.9,579.1 562.4,578.3 556.1,578.3 549.8,578.3 544.3,579.1 539,579.9 534.4,581 530.7,582.4 527.6,583.8 
							525.9,585.4 525.4,586.5 525.4,587.3 525.4,601.8 525.4,602.6 525.9,603.7 527.6,605.3 530.7,606.7 534.4,608.2 539,609.2 
							544.3,610 549.8,610.8 556.1,610.8 562.4,610.8 567.9,610 573.3,609.2 577.8,608.2 581.5,606.7 584.6,605.3 586.4,603.7 
							586.9,602.6 586.9,601.8 586.9,587.3 586.9,587.3 						"/>
						<g class="st92">
							<defs>
								<polygon id="SVGID_149_" points="124,688.5 768.8,688.5 768.8,106 124,106 124,688.5 								"/>
							</defs>
							<clipPath id="SVGID_150_">
								<use xlink:href="#SVGID_149_"  style="overflow:visible;"/>
							</clipPath>
							<polyline class="st135" points="525.4,586.9 525.4,586.9 525.4,587.5 525.9,588.6 527.6,590.1 530.7,591.5 534.4,592.9 
								539,594 544.3,594.6 549.8,595.4 556.1,595.4 562.4,595.4 567.9,594.6 573.3,594 577.8,592.9 581.5,591.5 584.6,590.1 
								586.4,588.6 586.9,587.5 586.9,586.9 							"/>
							<g class="st93">
								<defs>
									<polygon id="SVGID_151_" points="124,688.5 768.8,688.5 768.8,106 124,106 124,688.5 									"/>
								</defs>
								<clipPath id="SVGID_152_">
									<use xlink:href="#SVGID_151_"  style="overflow:visible;"/>
								</clipPath>
								<polyline class="st49" points="525.4,607.4 525.4,616.3 525.4,617.1 525.9,618.1 527.6,619.7 530.7,621.2 534.4,622.6 
									539,623.7 544.3,624.5 549.8,625.3 556.1,625.3 562.4,625.3 567.9,624.5 573.3,623.7 577.8,622.6 581.5,621.2 584.6,619.7 
									586.4,618.1 586.9,617.1 586.9,616.3 586.9,607.4 								"/>
								<g class="st94">
									<defs>
										<polygon id="SVGID_153_" points="124,688.5 768.8,688.5 768.8,106 124,106 124,688.5 										"/>
									</defs>
									<clipPath id="SVGID_154_">
										<use xlink:href="#SVGID_153_"  style="overflow:visible;"/>
									</clipPath>
									<polyline class="st21" points="525.4,621.9 525.4,630.8 525.4,631.7 525.9,632.7 527.6,634.2 530.7,635.8 534.4,637.3 
										539,638.3 544.3,639.1 549.8,639.8 556.1,639.8 562.4,639.8 567.9,639.1 573.3,638.3 577.8,637.3 581.5,635.8 584.6,634.2 
										586.4,632.7 586.9,631.7 586.9,630.8 586.9,621.9 									"/>
									<g class="st95">
										<defs>
											<polygon id="SVGID_155_" points="124,688.5 768.8,688.5 768.8,106 124,106 124,688.5 											"/>
										</defs>
										<clipPath id="SVGID_156_">
											<use xlink:href="#SVGID_155_"  style="overflow:visible;"/>
										</clipPath>
										<polygon class="st185" points="340.9,587.3 340.9,587.3 340.9,586.5 340.4,585.4 338.7,583.8 335.6,582.4 331.9,581 
											327.3,579.9 322,579.1 316.5,578.3 310.2,578.3 303.9,578.3 298.4,579.1 293,579.9 288.5,581 284.8,582.4 281.7,583.8 
											279.9,585.4 279.4,586.5 279.4,587.3 279.4,601.8 279.4,602.6 279.9,603.7 281.7,605.3 284.8,606.7 288.5,608.2 
											293,609.2 298.4,610 303.9,610.8 310.2,610.8 316.5,610.8 322,610 327.3,609.2 331.9,608.2 335.6,606.7 338.7,605.3 
											340.4,603.7 340.9,602.6 340.9,601.8 340.9,587.3 340.9,587.3 										"/>
										<g class="st96">
											<defs>
												<polygon id="SVGID_157_" points="124,688.5 768.8,688.5 768.8,106 124,106 124,688.5 												"/>
											</defs>
											<clipPath id="SVGID_158_">
												<use xlink:href="#SVGID_157_"  style="overflow:visible;"/>
											</clipPath>
											<polyline class="st60" points="279.4,586.9 279.4,586.9 279.4,587.5 279.9,588.6 281.7,590.1 284.8,591.5 288.5,592.9 
												293,594 298.4,594.6 303.9,595.4 310.2,595.4 316.5,595.4 322,594.6 327.3,594 331.9,592.9 335.6,591.5 338.7,590.1 
												340.4,588.6 340.9,587.5 340.9,586.9 											"/>
											<g class="st97">
												<defs>
													<polygon id="SVGID_159_" points="124,688.5 768.8,688.5 768.8,106 124,106 124,688.5 													"/>
												</defs>
												<clipPath id="SVGID_160_">
													<use xlink:href="#SVGID_159_"  style="overflow:visible;"/>
												</clipPath>
												<polyline class="st125" points="279.4,607.4 279.4,616.3 279.4,617.1 279.9,618.1 281.7,619.7 284.8,621.2 288.5,622.6 
													293,623.7 298.4,624.5 303.9,625.3 310.2,625.3 316.5,625.3 322,624.5 327.3,623.7 331.9,622.6 335.6,621.2 
													338.7,619.7 340.4,618.1 340.9,617.1 340.9,616.3 340.9,607.4 												"/>
												<g class="st98">
													<defs>
														<polygon id="SVGID_161_" points="124,688.5 768.8,688.5 768.8,106 124,106 124,688.5 														"/>
													</defs>
													<clipPath id="SVGID_162_">
														<use xlink:href="#SVGID_161_"  style="overflow:visible;"/>
													</clipPath>
													<polyline class="st39" points="279.4,621.9 279.4,630.8 279.4,631.7 279.9,632.7 281.7,634.2 284.8,635.8 288.5,637.3 
														293,638.3 298.4,639.1 303.9,639.8 310.2,639.8 316.5,639.8 322,639.1 327.3,638.3 331.9,637.3 335.6,635.8 
														338.7,634.2 340.4,632.7 340.9,631.7 340.9,630.8 340.9,621.9 													"/>
													<g class="st99">
														<defs>
															<polygon id="SVGID_163_" points="124,688.5 768.8,688.5 768.8,106 124,106 124,688.5 															"/>
														</defs>
														<clipPath id="SVGID_164_">
															<use xlink:href="#SVGID_163_"  style="overflow:visible;"/>
														</clipPath>
														<line class="st14" x1="310.6" y1="126.1" x2="280.7" y2="144"/>
														<g class="st100">
															<defs>
																<polygon id="SVGID_165_" points="124,688.5 768.8,688.5 768.8,106 124,106 124,688.5 																"/>
															</defs>
															<clipPath id="SVGID_166_">
																<use xlink:href="#SVGID_165_"  style="overflow:visible;"/>
															</clipPath>
															<line class="st182" x1="303.8" y1="207.2" x2="268.8" y2="187.6"/>
															<g class="st101">
																<defs>
																	<polygon id="SVGID_167_" points="124,688.5 768.8,688.5 768.8,106 124,106 124,688.5 																	"/>
																</defs>
																<clipPath id="SVGID_168_">
																	<use xlink:href="#SVGID_167_"  style="overflow:visible;"/>
																</clipPath>
																<line class="st65" x1="347.3" y1="156" x2="347.3" y2="197"/>
																<g class="st102">
																	<defs>
																		<polygon id="SVGID_169_" points="124,688.5 768.8,688.5 768.8,106 124,106 124,688.5 																		"/>
																	</defs>
																	<clipPath id="SVGID_170_">
																		<use xlink:href="#SVGID_169_"  style="overflow:visible;"/>
																	</clipPath>
																	<line class="st61" x1="273.9" y1="181.6" x2="273.9" y2="141.4"/>
																	<g class="st103">
																		<defs>
																			<polygon id="SVGID_171_" points="124,688.5 768.8,688.5 768.8,106 124,106 124,688.5 																			"/>
																		</defs>
																		<clipPath id="SVGID_172_">
																			<use xlink:href="#SVGID_171_"  style="overflow:visible;"/>
																		</clipPath>
																		<line class="st28" x1="340.5" y1="194.4" x2="310.6" y2="211.5"/>
																		<g class="st104">
																			<defs>
																				<polygon id="SVGID_173_" points="124,688.5 768.8,688.5 768.8,106 124,106 124,688.5 																				"/>
																			</defs>
																			<clipPath id="SVGID_174_">
																				<use xlink:href="#SVGID_173_"  style="overflow:visible;"/>
																			</clipPath>
																			<line class="st15" x1="318.3" y1="130.3" x2="352.4" y2="150.8"/>
																			<g class="st105">
																				<defs>
																					<polygon id="SVGID_175_" points="124,688.5 768.8,688.5 768.8,106 124,106 124,688.5 																					"/>
																				</defs>
																				<clipPath id="SVGID_176_">
																					<use xlink:href="#SVGID_175_"  style="overflow:visible;"/>
																				</clipPath>
																				<polyline class="st183" points="297.8,213 297.8,213 290.1,211.1 284.3,207.2 278.6,202.1 273.5,197 
																					269.6,190.6 267,183.5 264.5,176.5 264.5,169.4 264.5,169.4 264.5,164.3 265.8,159.8 266.4,155.3 268.3,150.8 
																					272.2,143.2 277.9,136.1 285,130.3 292.7,125.9 297.1,124.6 301,123.9 306.1,123.3 310.6,122.7 310.6,150.2 
																					326.6,159.8 326.6,159.8 294.6,178.4 294.6,178.4 310.6,188 310.6,214.9 310.6,214.9 315.7,214.9 320.2,214.3 
																					324.7,213 329.2,211.7 336.9,207.2 343.3,202.1 349.7,194.4 352.9,186.7 355.4,182.9 356.1,178.4 356.7,173.3 
																					356.7,169.4 356.7,169.4 356.7,161.1 354.8,154 351.6,147 347.1,140.6 342.6,135.5 336.9,130.3 330.5,126.5 
																					323.4,124.6 																				"/>
																				<g class="st106">
																					<defs>
																						<polygon id="SVGID_177_" points="124,688.5 768.8,688.5 768.8,106 124,106 124,688.5 																						
																							"/>
																					</defs>
																					<clipPath id="SVGID_178_">
																						<use xlink:href="#SVGID_177_"  style="overflow:visible;"/>
																					</clipPath>
																					<line class="st68" x1="556.6" y1="126.1" x2="526.7" y2="144"/>
																					<g class="st107">
																						<defs>
																							<polygon id="SVGID_179_" points="124,688.5 768.8,688.5 768.8,106 124,106 124,688.5 
																																															"/>
																						</defs>
																						<clipPath id="SVGID_180_">
																							<use xlink:href="#SVGID_179_"  style="overflow:visible;"/>
																						</clipPath>
																						<line class="st63" x1="549.7" y1="207.2" x2="514.7" y2="187.6"/>
																						<g class="st108">
																							<defs>
																								<polygon id="SVGID_181_" points="124,688.5 768.8,688.5 768.8,106 124,106 124,688.5 
																																																	"/>
																							</defs>
																							<clipPath id="SVGID_182_">
																								<use xlink:href="#SVGID_181_"  style="overflow:visible;"/>
																							</clipPath>
																							<line class="st30" x1="593.3" y1="156" x2="593.3" y2="197"/>
																							<g class="st109">
																								<defs>
																									<polygon id="SVGID_183_" points="124,688.5 768.8,688.5 768.8,106 124,106 124,688.5 
																																																			"/>
																								</defs>
																								<clipPath id="SVGID_184_">
																									<use xlink:href="#SVGID_183_"  style="overflow:visible;"/>
																								</clipPath>
																								<line class="st16" x1="519.8" y1="181.6" x2="519.8" y2="141.4"/>
																								<g class="st110">
																									<defs>
																										<polygon id="SVGID_185_" points="124,688.5 768.8,688.5 768.8,106 124,106 124,688.5 
																																																					"/>
																									</defs>
																									<clipPath id="SVGID_186_">
																										<use xlink:href="#SVGID_185_"  style="overflow:visible;"/>
																									</clipPath>
																									<line class="st184" x1="586.4" y1="194.4" x2="556.6" y2="211.5"/>
																									<g class="st111">
																										<defs>
																											<polygon id="SVGID_187_" points="124,688.5 768.8,688.5 768.8,106 124,106 124,688.5 
																																																							"/>
																										</defs>
																										<clipPath id="SVGID_188_">
																											<use xlink:href="#SVGID_187_"  style="overflow:visible;"/>
																										</clipPath>
																										<line class="st70" x1="564.2" y1="130.3" x2="598.4" y2="150.8"/>
																										<g class="st112">
																											<defs>
																												<polygon id="SVGID_189_" points="124,688.5 768.8,688.5 768.8,106 124,106 124,688.5 
																																																									"/>
																											</defs>
																											<clipPath id="SVGID_190_">
																												<use xlink:href="#SVGID_189_"  style="overflow:visible;"/>
																											</clipPath>
																											<polyline class="st67" points="543.7,213 543.7,213 536.1,211.1 530.3,207.2 524.5,202.1 519.4,197 
																												515.6,190.6 513,183.5 510.4,176.5 510.4,169.4 510.4,169.4 510.4,164.3 511.7,159.8 512.4,155.3 
																												514.3,150.8 518.1,143.2 523.9,136.1 530.9,130.3 538.6,125.9 543.1,124.6 546.9,123.9 552.1,123.3 
																												556.6,122.7 556.6,150.2 572.6,159.8 572.6,159.8 540.5,178.4 540.5,178.4 556.6,188 556.6,214.9 
																												556.6,214.9 561.7,214.9 566.2,214.3 570.6,213 575.1,211.7 582.8,207.2 589.2,202.1 595.6,194.4 
																												598.8,186.7 601.4,182.9 602,178.4 602.7,173.3 602.7,169.4 602.7,169.4 602.7,161.1 600.7,154 
																												597.5,147 593.1,140.6 588.6,135.5 582.8,130.3 576.4,126.5 569.4,124.6 																											"/>
																										</g>
																									</g>
																								</g>
																							</g>
																						</g>
																					</g>
																				</g>
																			</g>
																		</g>
																	</g>
																</g>
															</g>
														</g>
													</g>
												</g>
											</g>
										</g>
									</g>
								</g>
							</g>
						</g>
					</g>
				</g>
			</g>
		</g>
	</g>
</g>
<g>
	<path class="st115" d="M241.5,57.3c-0.6,0-1.4,0-2,0l0,0c0-9.9-4.9-19-12.7-24.7c-8.1-5.7-18.4-7.1-27.7-3.8
		c-7.7-15-24.7-22.7-40.9-18.8c-16.2,3.8-27.9,18.4-27.9,35.2c0,0,0,0.2,0,0.4c-11.1-1.8-22.3,2.8-29.1,11.7
		c-6.7,9.1-7.9,21-3.2,31.2c4.9,10.1,15,16.8,26.1,17.4v0.2h117.3c13.4,0,24.3-10.9,24.3-24.3C265.5,68.5,254.8,57.3,241.5,57.3
		L241.5,57.3z"/>
	<path class="st176" d="M241.5,57.3c-0.6,0-1.4,0-2,0l0,0c0-9.9-4.9-19-12.7-24.7c-8.1-5.7-18.4-7.1-27.7-3.8
		c-7.7-15-24.7-22.7-40.9-18.8c-16.2,3.8-27.9,18.4-27.9,35.2c0,0,0,0.2,0,0.4c-11.1-1.8-22.3,2.8-29.1,11.7
		c-6.7,9.1-7.9,21-3.2,31.2c4.9,10.1,15,16.8,26.1,17.4v0.2h117.3c13.4,0,24.3-10.9,24.3-24.3C265.5,68.5,254.8,57.3,241.5,57.3
		L241.5,57.3z"/>
</g>
<rect x="122" y="62" class="st57" width="122" height="39"/>
<text transform="matrix(1 0 0 1 122 79.04)" class="st177 st122">IBM Cloud</text>
<rect x="366.3" y="256" class="st57" width="145" height="38"/>
<text transform="matrix(1 0 0 1 366.3335 273.04)" class="st51 st177 st122">VMware NSX</text>
<rect x="349.3" y="327" class="st57" width="179" height="45"/>
<text transform="matrix(1 0 0 1 349.3335 344.04)" class="st51 st177 st122">VMware vCenter</text>
<rect x="346.3" y="394" class="st57" width="185" height="45"/>
<text transform="matrix(1 0 0 1 346.3335 411.04)" class="st51 st177 st122">VMware vSphere</text>
<rect x="263" y="649" class="st12" width="147" height="64"/>
<text transform="matrix(1 0 0 1 263 661.7803)"><tspan x="0" y="0" class="st177 st121">Gestione </tspan><tspan x="0" y="21.6" class="st177 st121">condivisione  NFS</tspan></text>
<rect x="484" y="650" class="st12" width="226" height="64"/>
<text transform="matrix(1 0 0 1 484 662.7803)"><tspan x="0" y="0" class="st177 st121">Condivisone NFS</tspan><tspan x="0" y="21.6" class="st177 st121">specificata dallutente</tspan></text>
<line class="st57" x1="310" y1="578" x2="310" y2="507"/>
<line class="st46" x1="310" y1="510" x2="310" y2="577"/>
<line class="st46" x1="555" y1="510" x2="555" y2="577"/>
<line class="st46" x1="318" y1="510" x2="541" y2="579"/>
<line class="st46" x1="322" y1="579" x2="544" y2="510"/>
<rect x="286" y="146" class="st57" width="30" height="25"/>
<text transform="matrix(1 0 0 1 286 163.04)" class="st177 st122">P</text>
<rect x="320" y="171" class="st57" width="30" height="25"/>
<text transform="matrix(1 0 0 1 320 188.04)" class="st177 st122">V</text>
<rect x="566" y="171" class="st57" width="30" height="25"/>
<text transform="matrix(1 0 0 1 566 188.04)" class="st177 st122">V</text>
<rect x="534" y="146" class="st57" width="30" height="25"/>
<text transform="matrix(1 0 0 1 534 163.04)" class="st177 st122">P</text>
</svg>
