<?xml version="1.0" encoding="utf-8"?>
<!-- Generator: Adobe Illustrator 19.2.1, SVG Export Plug-In . SVG Version: 6.00 Build 0)  -->
<svg version="1.1" id="Layer_1" xmlns="http://www.w3.org/2000/svg" xmlns:xlink="http://www.w3.org/1999/xlink" x="0px" y="0px"
	 viewBox="0 0 600 320" style="enable-background:new 0 0 600 320;" xml:space="preserve">
<style type="text/css">
	.st0{fill:#4C84C5;}
	.st1{fill:#F49C58;}
	.st2{fill:#959595;}
	.st3{fill:#1DA78D;}
	.st4{enable-background:new    ;}
	.st5{fill:#FFFFFF;}
</style>
<rect y="81.7" class="st0" width="600" height="75.3"/>
<rect x="0.6" y="0.6" class="st1" width="600" height="74.3"/>
<rect y="239.7" class="st2" width="600" height="80.3"/>
<rect y="164" class="st3" width="190" height="68"/>
<rect x="205" y="163.4" class="st3" width="190" height="68.6"/>
<rect x="410" y="164" class="st3" width="190" height="68"/>
<g class="st4">
	<path class="st5" d="M257.5,95.4c0.4,0.3,0.6,0.8,0.6,1.4v2.4c0,3.1-0.8,5.6-2.5,7.5c-1.5,1.7-3.6,2.6-6.1,2.8
		c-0.4,0-0.6-0.1-0.6-0.5c0-0.3,0.2-0.5,0.5-0.6c2.4-0.2,4.2-1.1,5.4-2.6c1.4-1.6,2.1-3.8,2.1-6.7v-2.4c0-0.3-0.1-0.5-0.2-0.7
		c-0.2-0.2-0.4-0.2-0.7-0.2h-6.1c-0.4,0-0.6-0.2-0.6-0.5c0-0.3,0.2-0.5,0.6-0.5h6.1C256.5,94.9,257.1,95.1,257.5,95.4z M265.5,102.3
		c0.3,0,0.5,0.2,0.5,0.5c0,0.3-0.2,0.5-0.5,0.5h-2.3v7.5c0,0.2-0.1,0.3-0.2,0.4c-0.1,0.1-0.2,0.2-0.4,0.2s-0.3-0.1-0.4-0.2
		c-0.1-0.1-0.2-0.3-0.2-0.4v-16c0-0.2,0.1-0.3,0.2-0.4c0.1-0.1,0.2-0.1,0.4-0.1s0.3,0,0.4,0.1c0.1,0.1,0.2,0.3,0.2,0.4v7.5H265.5z"
		/>
	<path class="st5" d="M274.7,94.7c0.1-0.1,0.2-0.1,0.4-0.1s0.3,0,0.4,0.1c0.1,0.1,0.2,0.3,0.2,0.5c0,0.4-0.1,0.9-0.2,1.4
		c-0.1,0.3-0.2,0.7-0.3,1.2c1.2,0.9,2.2,1.7,3,2.4c0.7,0.7,1.4,1.5,2.2,2.5c0.1,0.2,0.2,0.4,0.2,0.5c0,0.2-0.1,0.3-0.2,0.4
		c-0.1,0.1-0.3,0.1-0.4,0.1c-0.2,0-0.3-0.1-0.5-0.3c-0.7-0.9-1.4-1.7-2.1-2.4c-0.7-0.7-1.5-1.4-2.5-2.1c-0.5,1.1-1.1,2-1.7,2.7
		c-0.7,0.8-1.5,1.6-2.5,2.4c-0.2,0.1-0.3,0.2-0.5,0.1c-0.2,0-0.3-0.1-0.3-0.2c-0.1-0.1-0.1-0.3-0.1-0.4s0.1-0.3,0.3-0.4
		c1.4-1,2.6-2.3,3.4-4c0.7-1.4,1-2.7,1-3.8C274.5,95,274.6,94.8,274.7,94.7z M283,106.1c1.1,0.6,1.6,1.3,1.6,2.2
		c0,0.9-0.5,1.6-1.6,2.2c-1.2,0.6-2.9,0.9-5,0.9c-2.2,0-3.9-0.3-5.1-0.9c-1.1-0.5-1.6-1.3-1.6-2.2c0-0.9,0.5-1.7,1.6-2.2
		c1.2-0.6,2.9-0.9,5.1-0.9C280.1,105.2,281.8,105.5,283,106.1z M273.8,106.8c-0.9,0.4-1.3,0.9-1.3,1.5c0,0.6,0.4,1.1,1.3,1.5
		c1,0.4,2.3,0.6,4.2,0.6c1.8,0,3.2-0.2,4.1-0.6c0.9-0.4,1.3-0.8,1.3-1.5c0-0.6-0.4-1.1-1.3-1.5c-0.9-0.4-2.3-0.6-4.1-0.6
		C276.1,106.3,274.7,106.5,273.8,106.8z M286.4,99.2c0.2,0,0.3,0,0.4,0.1c0.1,0.1,0.2,0.2,0.2,0.4c0,0.1,0,0.3-0.1,0.4
		c-0.1,0.1-0.2,0.2-0.4,0.2h-2.3v4c0,0.2-0.1,0.3-0.2,0.5c-0.1,0.1-0.2,0.1-0.4,0.1s-0.3,0-0.4-0.1c-0.1-0.1-0.2-0.3-0.2-0.5v-9.4
		c0-0.4,0.2-0.6,0.6-0.6c0.4,0,0.6,0.2,0.6,0.5v4.4H286.4z"/>
	<path class="st5" d="M299.8,108.6c0.9-0.2,1.8-0.4,2.7-0.7c0.4-0.1,0.6,0,0.7,0.3c0.1,0.3,0,0.5-0.3,0.7c-1.5,0.5-3.2,0.9-5.2,1.1
		c-1.7,0.2-3.8,0.3-6.5,0.3c-0.2,0-0.4-0.1-0.5-0.2s-0.2-0.2-0.2-0.4s0-0.3,0.1-0.4c0.1-0.1,0.3-0.1,0.5-0.1c0.6,0,1.4,0,2.2,0
		c1,0,2-0.1,3-0.1v-3.5h1.2v3.4C298.2,108.9,299,108.8,299.8,108.6z M302.1,97.5c0.1,0.1,0.2,0.2,0.2,0.4c0,0.1,0,0.3-0.1,0.3
		c-0.1,0.1-0.2,0.2-0.4,0.2H292c-0.4,0-0.6-0.2-0.6-0.5s0.2-0.5,0.6-0.5h9.7C301.9,97.3,302,97.3,302.1,97.5z M300.3,100.6
		c0.8,0.6,1.1,1.4,1.1,2.2c0,0.9-0.4,1.6-1.1,2.3c-0.8,0.7-2,1-3.4,1c-1.5,0-2.6-0.3-3.5-1c-0.8-0.6-1.1-1.4-1.1-2.3
		c0-0.9,0.4-1.6,1.1-2.2c0.9-0.7,2-1,3.5-1C298.3,99.6,299.4,100,300.3,100.6z M300.3,95.4c0,0.3-0.2,0.5-0.6,0.5H294
		c-0.4,0-0.6-0.2-0.6-0.5s0.2-0.5,0.6-0.5h5.7C300.1,94.8,300.3,95,300.3,95.4z M294.3,101.3c-0.5,0.4-0.8,0.9-0.8,1.5
		c0,0.6,0.3,1.1,0.8,1.5c0.6,0.5,1.5,0.7,2.6,0.7c1.1,0,1.9-0.2,2.5-0.7c0.5-0.4,0.8-0.9,0.8-1.5c0-0.6-0.3-1.1-0.8-1.5
		c-0.6-0.5-1.4-0.7-2.5-0.7C295.8,100.7,294.9,100.9,294.3,101.3z M307.4,102.5c0.2,0,0.3,0,0.4,0.1s0.2,0.2,0.2,0.3
		c0,0.1,0,0.3-0.1,0.3c-0.1,0.1-0.2,0.2-0.4,0.2h-2.3v7.3c0,0.2-0.1,0.3-0.2,0.4c-0.1,0.1-0.2,0.2-0.4,0.2s-0.3-0.1-0.4-0.2
		c-0.1-0.1-0.2-0.3-0.2-0.5v-16c0-0.2,0.1-0.3,0.2-0.4c0.1-0.1,0.2-0.1,0.4-0.1s0.3,0,0.4,0.1c0.1,0.1,0.2,0.2,0.2,0.4v7.7H307.4z"
		/>
	<path class="st5" d="M322.1,99.1c0.1-0.1,0.2-0.1,0.4-0.1c0.2,0,0.3,0,0.4,0.1c0.1,0.1,0.2,0.3,0.2,0.5v4.1c0.9,0,1.9-0.1,3.2-0.3
		c1.2-0.2,2.2-0.3,3.1-0.5c0.2-0.1,0.4-0.1,0.5,0c0.1,0.1,0.2,0.2,0.2,0.3c0,0.1,0,0.2-0.1,0.4s-0.2,0.2-0.4,0.3
		c-1.3,0.3-3,0.6-5.2,0.8c-2.1,0.2-4.3,0.3-6.5,0.3c-0.2,0-0.4-0.1-0.5-0.2c-0.1-0.1-0.2-0.2-0.2-0.3c0-0.2,0.1-0.3,0.2-0.4
		c0.1-0.1,0.3-0.2,0.5-0.2c0.7,0,1.3,0,1.8,0c0.9,0,1.6,0,2.2,0v-4.1C322,99.3,322,99.2,322.1,99.1z M327.9,95.4
		c0.4,0.3,0.6,0.8,0.6,1.3v0.7c0,0.8-0.1,1.6-0.2,2.2c-0.2,0.9-0.5,1.6-1,2.2c-0.3,0.3-0.6,0.4-0.9,0.2s-0.4-0.4-0.1-0.8
		c0.4-0.6,0.6-1.2,0.8-1.9c0.1-0.5,0.2-1.2,0.2-1.9v-0.5c0-0.3-0.1-0.5-0.2-0.6s-0.4-0.2-0.6-0.2h-7.6c-0.4,0-0.5-0.2-0.5-0.5
		c0-0.3,0.2-0.5,0.6-0.5h7.4C326.9,94.9,327.5,95.1,327.9,95.4z M320.6,108.9c0,0.4,0.1,0.6,0.2,0.8c0.1,0.1,0.4,0.2,0.8,0.2h10.8
		c0.4,0,0.5,0.2,0.5,0.5c0,0.4-0.2,0.5-0.5,0.5h-11.2c-0.6,0-1-0.2-1.3-0.5s-0.5-0.8-0.5-1.3v-2.5c0-0.2,0.1-0.3,0.2-0.5
		c0.1-0.1,0.2-0.2,0.4-0.2s0.3,0.1,0.4,0.2c0.1,0.1,0.2,0.3,0.2,0.5V108.9z M334.3,100.3c0.4,0,0.5,0.2,0.5,0.5
		c0,0.4-0.2,0.5-0.5,0.5h-2.3v5.1c0,0.2-0.1,0.3-0.2,0.5c-0.1,0.1-0.2,0.2-0.4,0.2s-0.3-0.1-0.4-0.2c-0.1-0.1-0.2-0.3-0.2-0.5V94.8
		c0-0.2,0.1-0.3,0.2-0.4c0.1-0.1,0.2-0.1,0.4-0.1s0.3,0,0.4,0.1c0.1,0.1,0.2,0.2,0.2,0.4v5.5H334.3z"/>
	<path class="st5" d="M347.3,95.3c0.4,0.3,0.5,0.7,0.5,1.2v4c0,0.5-0.2,0.9-0.5,1.2c-0.3,0.3-0.8,0.4-1.4,0.4h-4.4
		c-0.3,0-0.6,0.1-0.7,0.2c-0.1,0.2-0.2,0.4-0.2,0.8v4.6c0,0.4,0.1,0.6,0.2,0.8c0.2,0.2,0.5,0.3,0.9,0.3c1.6,0,3.1-0.1,4.6-0.4
		c1.4-0.3,2.6-0.6,3.6-1.1c0.4-0.2,0.6-0.1,0.7,0.2c0.2,0.3,0.1,0.6-0.3,0.8c-1.1,0.5-2.5,0.9-4.2,1.1c-1.5,0.2-3.1,0.4-4.7,0.4
		c-0.7,0-1.2-0.2-1.5-0.6c-0.3-0.4-0.5-0.8-0.5-1.5v-4.8c0-0.6,0.2-1,0.5-1.4c0.3-0.4,0.8-0.5,1.4-0.5h4.4c0.3,0,0.6-0.1,0.7-0.2
		c0.1-0.1,0.2-0.3,0.2-0.6v-3.5c0-0.3-0.1-0.5-0.3-0.6c-0.2-0.1-0.5-0.2-0.9-0.2h-5.5c-0.4,0-0.6-0.2-0.6-0.5c0-0.3,0.2-0.5,0.7-0.5
		h5.9C346.4,94.9,346.9,95,347.3,95.3z M353.5,111.3c-0.1,0.1-0.2,0.2-0.4,0.2c-0.2,0-0.3-0.1-0.4-0.2c-0.1-0.1-0.2-0.3-0.2-0.5v-16
		c0-0.2,0.1-0.3,0.2-0.4c0.1-0.1,0.3-0.1,0.4-0.1c0.2,0,0.3,0,0.4,0.1c0.1,0.1,0.2,0.3,0.2,0.4v16
		C353.7,111,353.6,111.1,353.5,111.3z"/>
</g>
<g class="st4">
	<path class="st5" d="M221.3,144.4l-5-12.9h1.8l3.3,9.4c0.3,0.8,0.5,1.5,0.7,2.1c0.2-0.7,0.4-1.4,0.7-2.1l3.5-9.4h1.7l-5,12.9H221.3
		z"/>
	<path class="st5" d="M229.6,144.4v-12.9h2.6l3,9.1c0.3,0.8,0.5,1.5,0.6,1.9c0.1-0.5,0.4-1.2,0.7-2.1l3.1-9h2.3v12.9h-1.6v-10.8
		l-3.7,10.8h-1.5l-3.7-11v11H229.6z"/>
	<path class="st5" d="M246.1,144.4l-2.9-9.3h1.6l1.5,5.4l0.6,2c0-0.1,0.2-0.7,0.5-1.9l1.5-5.5h1.6l1.4,5.4l0.5,1.8l0.5-1.8l1.6-5.4
		h1.5l-2.9,9.3h-1.6l-1.5-5.6l-0.4-1.6l-1.9,7.2H246.1z"/>
	<path class="st5" d="M263.5,143.2c-0.6,0.5-1.1,0.8-1.7,1.1s-1.1,0.3-1.7,0.3c-1,0-1.8-0.3-2.4-0.8c-0.6-0.5-0.8-1.1-0.8-1.9
		c0-0.5,0.1-0.9,0.3-1.3c0.2-0.4,0.5-0.7,0.8-0.9s0.7-0.4,1.1-0.5c0.3-0.1,0.8-0.2,1.4-0.2c1.3-0.2,2.2-0.3,2.8-0.5
		c0-0.2,0-0.4,0-0.4c0-0.6-0.1-1.1-0.4-1.4c-0.4-0.4-1-0.5-1.8-0.5c-0.7,0-1.3,0.1-1.6,0.4s-0.6,0.7-0.8,1.4l-1.5-0.2
		c0.1-0.7,0.4-1.2,0.7-1.6c0.3-0.4,0.8-0.7,1.4-0.9c0.6-0.2,1.3-0.3,2.1-0.3c0.8,0,1.4,0.1,1.9,0.3s0.9,0.4,1.1,0.7
		c0.2,0.3,0.4,0.6,0.5,1.1c0.1,0.3,0.1,0.8,0.1,1.5v2.1c0,1.5,0,2.4,0.1,2.8c0.1,0.4,0.2,0.8,0.4,1.1h-1.7
		C263.7,144,263.5,143.7,263.5,143.2z M263.4,139.7c-0.6,0.2-1.4,0.4-2.6,0.6c-0.7,0.1-1.1,0.2-1.4,0.3s-0.5,0.3-0.6,0.5
		s-0.2,0.5-0.2,0.8c0,0.4,0.2,0.8,0.5,1.1s0.8,0.4,1.4,0.4c0.6,0,1.2-0.1,1.6-0.4s0.8-0.6,1-1.1c0.2-0.4,0.3-0.9,0.3-1.6V139.7z"/>
	<path class="st5" d="M267.4,144.4V135h1.4v1.4c0.4-0.7,0.7-1.1,1-1.3s0.6-0.3,1-0.3c0.5,0,1.1,0.2,1.6,0.5l-0.5,1.5
		c-0.4-0.2-0.8-0.3-1.2-0.3c-0.3,0-0.7,0.1-0.9,0.3s-0.5,0.5-0.6,0.9c-0.2,0.6-0.3,1.2-0.3,1.8v4.9H267.4z"/>
	<path class="st5" d="M279.8,141.4l1.6,0.2c-0.3,1-0.7,1.7-1.4,2.2s-1.6,0.8-2.7,0.8c-1.4,0-2.4-0.4-3.2-1.3c-0.8-0.8-1.2-2-1.2-3.5
		c0-1.6,0.4-2.8,1.2-3.7s1.9-1.3,3.1-1.3c1.2,0,2.3,0.4,3.1,1.3s1.2,2,1.2,3.6c0,0.1,0,0.2,0,0.4h-7c0.1,1,0.3,1.8,0.9,2.4
		s1.2,0.8,2,0.8c0.6,0,1.1-0.2,1.5-0.5S279.6,142,279.8,141.4z M274.6,138.8h5.2c-0.1-0.8-0.3-1.4-0.6-1.8c-0.5-0.6-1.2-0.9-2-0.9
		c-0.7,0-1.3,0.2-1.8,0.7S274.7,138,274.6,138.8z"/>
	<path class="st5" d="M291,144.4l-3.6-9.3h1.7l2,5.6c0.2,0.6,0.4,1.2,0.6,1.9c0.1-0.5,0.3-1.1,0.6-1.8l2.1-5.7h1.6l-3.5,9.3H291z"/>
	<path class="st5" d="M306.8,139.9l1.7,0.4c-0.4,1.4-1,2.5-1.9,3.2s-2.1,1.1-3.4,1.1c-1.4,0-2.5-0.3-3.4-0.8c-0.9-0.6-1.5-1.4-2-2.5
		s-0.7-2.2-0.7-3.5c0-1.3,0.3-2.5,0.8-3.5c0.5-1,1.2-1.8,2.2-2.3c0.9-0.5,2-0.8,3.1-0.8c1.3,0,2.4,0.3,3.3,1s1.5,1.6,1.8,2.8
		l-1.7,0.4c-0.3-0.9-0.7-1.6-1.3-2s-1.3-0.6-2.1-0.6c-1,0-1.8,0.2-2.5,0.7s-1.1,1.1-1.4,1.9c-0.3,0.8-0.4,1.6-0.4,2.5
		c0,1.1,0.2,2.1,0.5,2.9c0.3,0.8,0.8,1.4,1.5,1.8c0.7,0.4,1.4,0.6,2.2,0.6c1,0,1.8-0.3,2.4-0.8S306.6,140.9,306.8,139.9z"/>
	<path class="st5" d="M316.8,141.4l1.6,0.2c-0.3,1-0.7,1.7-1.4,2.2s-1.6,0.8-2.7,0.8c-1.4,0-2.4-0.4-3.2-1.3c-0.8-0.8-1.2-2-1.2-3.5
		c0-1.6,0.4-2.8,1.2-3.7s1.9-1.3,3.1-1.3c1.2,0,2.3,0.4,3.1,1.3s1.2,2,1.2,3.6c0,0.1,0,0.2,0,0.4h-7c0.1,1,0.3,1.8,0.9,2.4
		s1.2,0.8,2,0.8c0.6,0,1.1-0.2,1.5-0.5S316.6,142,316.8,141.4z M311.6,138.8h5.2c-0.1-0.8-0.3-1.4-0.6-1.8c-0.5-0.6-1.2-0.9-2-0.9
		c-0.7,0-1.3,0.2-1.8,0.7S311.7,138,311.6,138.8z"/>
	<path class="st5" d="M320.4,144.4V135h1.4v1.3c0.7-1,1.7-1.5,3-1.5c0.6,0,1.1,0.1,1.6,0.3c0.5,0.2,0.8,0.5,1.1,0.8s0.4,0.7,0.5,1.2
		c0.1,0.3,0.1,0.8,0.1,1.5v5.7h-1.6v-5.7c0-0.6-0.1-1.1-0.2-1.4s-0.3-0.6-0.7-0.8c-0.3-0.2-0.7-0.3-1.1-0.3c-0.7,0-1.3,0.2-1.7,0.6
		s-0.7,1.2-0.7,2.4v5.1H320.4z"/>
	<path class="st5" d="M333.9,143l0.2,1.4c-0.4,0.1-0.8,0.1-1.2,0.1c-0.6,0-1-0.1-1.3-0.3s-0.5-0.4-0.7-0.7s-0.2-0.9-0.2-1.9v-5.4
		h-1.2V135h1.2v-2.3l1.6-0.9v3.3h1.6v1.2h-1.6v5.5c0,0.5,0,0.7,0.1,0.9s0.1,0.2,0.3,0.3s0.3,0.1,0.5,0.1
		C333.4,143,333.6,143,333.9,143z"/>
	<path class="st5" d="M341.8,141.4l1.6,0.2c-0.3,1-0.7,1.7-1.4,2.2s-1.6,0.8-2.7,0.8c-1.4,0-2.4-0.4-3.2-1.3c-0.8-0.8-1.2-2-1.2-3.5
		c0-1.6,0.4-2.8,1.2-3.7s1.9-1.3,3.1-1.3c1.2,0,2.3,0.4,3.1,1.3s1.2,2,1.2,3.6c0,0.1,0,0.2,0,0.4h-7c0.1,1,0.3,1.8,0.9,2.4
		s1.2,0.8,2,0.8c0.6,0,1.1-0.2,1.5-0.5S341.6,142,341.8,141.4z M336.6,138.8h5.2c-0.1-0.8-0.3-1.4-0.6-1.8c-0.5-0.6-1.2-0.9-2-0.9
		c-0.7,0-1.3,0.2-1.8,0.7S336.7,138,336.6,138.8z"/>
	<path class="st5" d="M345.4,144.4V135h1.4v1.4c0.4-0.7,0.7-1.1,1-1.3s0.6-0.3,1-0.3c0.5,0,1.1,0.2,1.6,0.5l-0.5,1.5
		c-0.4-0.2-0.8-0.3-1.2-0.3c-0.3,0-0.7,0.1-0.9,0.3s-0.5,0.5-0.6,0.9c-0.2,0.6-0.3,1.2-0.3,1.8v4.9H345.4z"/>
	<path class="st5" d="M356.1,140.2l1.6-0.1c0.1,0.6,0.3,1.2,0.5,1.6c0.3,0.4,0.7,0.7,1.3,1c0.6,0.3,1.2,0.4,2,0.4
		c0.7,0,1.2-0.1,1.7-0.3s0.9-0.5,1.1-0.8s0.4-0.7,0.4-1.1c0-0.4-0.1-0.8-0.4-1.1s-0.6-0.6-1.2-0.8c-0.3-0.1-1.1-0.3-2.3-0.6
		s-2-0.6-2.5-0.8c-0.6-0.3-1.1-0.7-1.4-1.2s-0.5-1-0.5-1.6c0-0.7,0.2-1.3,0.6-1.8s0.9-1,1.6-1.3s1.5-0.4,2.4-0.4
		c1,0,1.8,0.2,2.5,0.5c0.7,0.3,1.3,0.8,1.7,1.4s0.6,1.3,0.6,2l-1.6,0.1c-0.1-0.8-0.4-1.4-0.9-1.8s-1.3-0.6-2.2-0.6
		c-1,0-1.8,0.2-2.3,0.6c-0.5,0.4-0.7,0.8-0.7,1.4c0,0.5,0.2,0.8,0.5,1.1c0.3,0.3,1.2,0.6,2.6,0.9c1.4,0.3,2.3,0.6,2.9,0.8
		c0.8,0.3,1.3,0.8,1.7,1.3s0.5,1.1,0.5,1.8c0,0.7-0.2,1.3-0.6,1.9c-0.4,0.6-1,1.1-1.7,1.4c-0.7,0.3-1.6,0.5-2.5,0.5
		c-1.2,0-2.1-0.2-2.9-0.5s-1.4-0.9-1.9-1.5C356.3,141.9,356.1,141.1,356.1,140.2z"/>
	<path class="st5" d="M374.8,141.4l1.6,0.2c-0.3,1-0.7,1.7-1.4,2.2s-1.6,0.8-2.7,0.8c-1.4,0-2.4-0.4-3.2-1.3c-0.8-0.8-1.2-2-1.2-3.5
		c0-1.6,0.4-2.8,1.2-3.7s1.9-1.3,3.1-1.3c1.2,0,2.3,0.4,3.1,1.3s1.2,2,1.2,3.6c0,0.1,0,0.2,0,0.4h-7c0.1,1,0.3,1.8,0.9,2.4
		s1.2,0.8,2,0.8c0.6,0,1.1-0.2,1.5-0.5S374.6,142,374.8,141.4z M369.7,138.8h5.2c-0.1-0.8-0.3-1.4-0.6-1.8c-0.5-0.6-1.2-0.9-2-0.9
		c-0.7,0-1.3,0.2-1.8,0.7S369.7,138,369.7,138.8z"/>
	<path class="st5" d="M378.5,144.4V135h1.4v1.4c0.4-0.7,0.7-1.1,1-1.3s0.6-0.3,1-0.3c0.5,0,1.1,0.2,1.6,0.5l-0.5,1.5
		c-0.4-0.2-0.8-0.3-1.2-0.3c-0.3,0-0.7,0.1-0.9,0.3s-0.5,0.5-0.6,0.9c-0.2,0.6-0.3,1.2-0.3,1.8v4.9H378.5z"/>
	<path class="st5" d="M387.1,144.4l-3.6-9.3h1.7l2,5.6c0.2,0.6,0.4,1.2,0.6,1.9c0.1-0.5,0.3-1.1,0.6-1.8l2.1-5.7h1.6l-3.5,9.3H387.1
		z"/>
	<path class="st5" d="M399.9,141.4l1.6,0.2c-0.3,1-0.7,1.7-1.4,2.2s-1.6,0.8-2.7,0.8c-1.4,0-2.4-0.4-3.2-1.3c-0.8-0.8-1.2-2-1.2-3.5
		c0-1.6,0.4-2.8,1.2-3.7s1.9-1.3,3.1-1.3c1.2,0,2.3,0.4,3.1,1.3s1.2,2,1.2,3.6c0,0.1,0,0.2,0,0.4h-7c0.1,1,0.3,1.8,0.9,2.4
		s1.2,0.8,2,0.8c0.6,0,1.1-0.2,1.5-0.5S399.6,142,399.9,141.4z M394.7,138.8h5.2c-0.1-0.8-0.3-1.4-0.6-1.8c-0.5-0.6-1.2-0.9-2-0.9
		c-0.7,0-1.3,0.2-1.8,0.7S394.7,138,394.7,138.8z"/>
	<path class="st5" d="M403.5,144.4V135h1.4v1.4c0.4-0.7,0.7-1.1,1-1.3s0.6-0.3,1-0.3c0.5,0,1.1,0.2,1.6,0.5l-0.5,1.5
		c-0.4-0.2-0.8-0.3-1.2-0.3c-0.3,0-0.7,0.1-0.9,0.3s-0.5,0.5-0.6,0.9c-0.2,0.6-0.3,1.2-0.3,1.8v4.9H403.5z"/>
</g>
<g class="st4">
	<path class="st5" d="M45.8,182.3c0.1,0.1,0.2,0.1,0.2,0.3c0,0.1,0,0.2-0.1,0.3c-0.1,0.1-0.2,0.2-0.3,0.2c-0.9,0.2-1.8,0.3-2.8,0.4
		c-1.2,0.1-2.2,0.2-3,0.2c-0.3,0-0.5-0.2-0.5-0.5s0.2-0.5,0.5-0.5c0.9,0,1.8-0.1,2.9-0.2c1-0.1,1.9-0.2,2.7-0.4
		C45.5,182.2,45.7,182.3,45.8,182.3z M46.8,179.9c0.3,0.3,0.4,0.6,0.4,1.1v0.8c0,1.6-0.6,2.9-1.8,3.9c-1.3,1.1-3.1,1.7-5.6,1.9
		c-0.2,0-0.3,0-0.4-0.1c-0.1-0.1-0.1-0.2-0.2-0.3c0-0.1,0-0.2,0.1-0.3c0.1-0.1,0.2-0.1,0.4-0.1c2.2-0.1,3.8-0.6,5-1.6
		c1-0.9,1.4-2,1.4-3.3v-0.5c0-0.3-0.1-0.5-0.2-0.6s-0.4-0.2-0.7-0.2h-5.1c-0.2,0-0.3,0-0.4-0.1c-0.1-0.1-0.1-0.2-0.1-0.3
		s0-0.2,0.1-0.3c0.1-0.1,0.2-0.1,0.4-0.1h5.2C46.1,179.5,46.5,179.6,46.8,179.9z M51.8,188.6c0.3,0.2,0.4,0.5,0.4,0.9v2.5
		c0,0.4-0.1,0.8-0.4,1c-0.3,0.2-0.6,0.3-1.1,0.3h-8.1c-0.6,0-1-0.1-1.3-0.4c-0.2-0.2-0.4-0.6-0.4-1.1v-2.3c0-0.4,0.1-0.7,0.4-0.9
		s0.6-0.4,1-0.4h8.3C51.1,188.3,51.5,188.4,51.8,188.6z M51,189.3c-0.1-0.1-0.3-0.1-0.6-0.1h-7.6c-0.3,0-0.5,0.1-0.6,0.2
		c-0.1,0.1-0.1,0.3-0.1,0.5v2c0,0.2,0.1,0.4,0.2,0.5c0.1,0.1,0.3,0.1,0.6,0.1h7.6c0.3,0,0.5,0,0.6-0.1c0.1-0.1,0.2-0.2,0.2-0.4v-2.1
		C51.2,189.6,51.1,189.4,51,189.3z M52.1,187c-0.1,0.1-0.2,0.1-0.4,0.1c-0.2,0-0.3,0-0.4-0.1c-0.1-0.1-0.2-0.2-0.2-0.4V184H48
		c-0.2,0-0.3-0.1-0.4-0.2c-0.1-0.1-0.2-0.2-0.2-0.3c0-0.1,0-0.2,0.1-0.3c0.1-0.1,0.2-0.1,0.4-0.1h3.3v-3.5c0-0.2,0.1-0.3,0.2-0.4
		c0.1-0.1,0.2-0.1,0.4-0.1c0.1,0,0.3,0,0.4,0.1c0.1,0.1,0.2,0.2,0.2,0.4v6.9C52.2,186.7,52.2,186.8,52.1,187z"/>
	<path class="st5" d="M71.9,188.6c0,0.3-0.1,0.5-0.4,0.5h-2.8v4.1c0,0.2-0.1,0.3-0.2,0.4c-0.1,0.1-0.2,0.1-0.4,0.1s-0.3,0-0.4-0.1
		c-0.1-0.1-0.2-0.2-0.2-0.4v-4.1H62v1.7c0,0.6-0.1,1.2-0.3,1.7c-0.2,0.5-0.4,0.9-0.7,1.2c-0.1,0.1-0.3,0.2-0.4,0.2
		c-0.1,0-0.3,0-0.4-0.1s-0.2-0.2-0.2-0.3c0-0.2,0-0.3,0.2-0.4c0.3-0.3,0.5-0.6,0.5-0.9c0.1-0.3,0.1-0.7,0.1-1.2v-1.7h-3.3
		c-0.2,0-0.3-0.1-0.4-0.2c-0.1-0.1-0.1-0.2-0.1-0.3c0-0.1,0-0.2,0.1-0.3c0.1-0.1,0.2-0.1,0.4-0.1h13.7
		C71.8,188.2,71.9,188.3,71.9,188.6z M70.7,185.4c0,0.3-0.1,0.4-0.4,0.4H58.8c-0.3,0-0.4-0.1-0.4-0.4c0-0.3,0.2-0.4,0.5-0.4h2.3
		l-0.6-3.6c0-0.2,0-0.3,0.1-0.4c0.1-0.1,0.2-0.1,0.3-0.1s0.3,0,0.4,0.1c0.1,0.1,0.2,0.2,0.2,0.4l0.7,3.7h4.7l0.7-3.7
		c0-0.2,0.1-0.3,0.2-0.4c0.1-0.1,0.2-0.1,0.4-0.1c0.1,0,0.3,0.1,0.3,0.2c0.1,0.1,0.1,0.2,0.1,0.4L68,185h2.3
		C70.5,185,70.7,185.1,70.7,185.4z M70.6,179.7c0.1,0.1,0.1,0.2,0.1,0.3s0,0.2-0.1,0.3c-0.1,0.1-0.2,0.1-0.4,0.1H58.9
		c-0.3,0-0.5-0.2-0.5-0.5c0-0.3,0.1-0.4,0.5-0.4h11.3C70.4,179.5,70.5,179.6,70.6,179.7z"/>
	<path class="st5" d="M84,179.6c0.1,0.1,0.2,0.2,0.2,0.3s0,0.2-0.1,0.3c-0.1,0.1-0.2,0.1-0.4,0.1h-5.8c-0.3,0-0.5,0.1-0.6,0.2
		c-0.1,0.1-0.2,0.3-0.2,0.6v1.4h6.2c0.4,0,0.5,0.1,0.5,0.4c0,0.3-0.2,0.5-0.5,0.5h-6.2v1.9c0,0.3,0,0.5,0.1,0.6
		c0.1,0.1,0.3,0.2,0.6,0.2c1.5,0,2.8-0.1,4-0.2c1.3-0.1,2.4-0.3,3.3-0.6c0.2-0.1,0.3-0.1,0.4,0c0.1,0,0.2,0.1,0.2,0.2
		c0,0.1,0,0.2,0,0.4s-0.2,0.2-0.3,0.3c-0.9,0.2-2.1,0.4-3.5,0.6c-1.3,0.1-2.7,0.2-4.1,0.2c-0.7,0-1.1-0.1-1.5-0.4
		c-0.3-0.3-0.4-0.7-0.4-1.3V181c0-0.4,0.1-0.8,0.4-1.1c0.3-0.3,0.7-0.4,1.2-0.4h5.9C83.7,179.5,83.9,179.5,84,179.6z M87,189.2
		c0.9,0.5,1.4,1.1,1.4,1.9c0,0.8-0.5,1.4-1.4,1.9c-1,0.5-2.5,0.8-4.4,0.8s-3.4-0.3-4.4-0.8c-0.9-0.5-1.4-1.1-1.4-1.9
		c0-0.8,0.5-1.4,1.4-1.9c1-0.5,2.5-0.8,4.4-0.8S86,188.7,87,189.2z M78.9,189.9c-0.8,0.3-1.1,0.8-1.1,1.3c0,0.5,0.4,0.9,1.1,1.2
		c0.8,0.3,2,0.5,3.6,0.5c1.6,0,2.8-0.2,3.6-0.5c0.8-0.3,1.1-0.7,1.1-1.2c0-0.6-0.4-1-1.1-1.3c-0.8-0.3-2-0.5-3.6-0.5
		C81,189.4,79.8,189.5,78.9,189.9z M88.1,188c-0.1,0.1-0.2,0.1-0.4,0.1c-0.2,0-0.3,0-0.4-0.1c-0.1-0.1-0.2-0.2-0.2-0.4v-8
		c0-0.2,0.1-0.3,0.2-0.4c0.1-0.1,0.2-0.1,0.4-0.1c0.1,0,0.3,0,0.4,0.1c0.1,0.1,0.2,0.2,0.2,0.4v8.1C88.2,187.8,88.2,187.9,88.1,188z
		"/>
	<path class="st5" d="M105.8,180.1c0.3,0.3,0.5,0.7,0.5,1.2v2.1c0,2.7-0.7,4.8-2.1,6.4c-1.3,1.5-3,2.3-5.2,2.4
		c-0.3,0-0.5-0.1-0.5-0.4c0-0.3,0.1-0.5,0.5-0.5c2-0.2,3.6-0.9,4.6-2.2c1.2-1.4,1.8-3.3,1.8-5.7v-2.1c0-0.2-0.1-0.4-0.2-0.6
		c-0.2-0.1-0.4-0.2-0.6-0.2h-5.2c-0.3,0-0.5-0.2-0.5-0.5c0-0.3,0.1-0.4,0.5-0.4h5.2C105,179.6,105.4,179.8,105.8,180.1z M112.7,186
		c0.3,0,0.4,0.1,0.4,0.4c0,0.3-0.1,0.4-0.4,0.4h-2v6.4c0,0.2-0.1,0.3-0.2,0.4c-0.1,0.1-0.2,0.1-0.4,0.1s-0.3,0-0.4-0.1
		c-0.1-0.1-0.2-0.2-0.2-0.4v-13.7c0-0.2,0.1-0.3,0.2-0.4c0.1-0.1,0.2-0.1,0.4-0.1s0.3,0,0.4,0.1c0.1,0.1,0.2,0.2,0.2,0.4v6.4H112.7z
		"/>
	<path class="st5" d="M120.6,179.5c0.1-0.1,0.2-0.1,0.4-0.1s0.3,0,0.4,0.1c0.1,0.1,0.2,0.2,0.2,0.4c0,0.4,0,0.8-0.1,1.2
		c-0.1,0.3-0.2,0.6-0.3,1c1,0.7,1.9,1.4,2.5,2c0.6,0.6,1.2,1.3,1.9,2.2c0.1,0.2,0.2,0.3,0.1,0.5c0,0.1-0.1,0.2-0.2,0.3
		c-0.1,0.1-0.2,0.1-0.4,0.1c-0.2,0-0.3-0.1-0.4-0.2c-0.6-0.8-1.2-1.5-1.8-2.1c-0.6-0.6-1.3-1.2-2.1-1.8c-0.5,0.9-0.9,1.7-1.4,2.3
		c-0.6,0.7-1.3,1.4-2.2,2.1c-0.1,0.1-0.3,0.1-0.4,0.1c-0.1,0-0.2-0.1-0.3-0.2c-0.1-0.1-0.1-0.2-0.1-0.4s0.1-0.3,0.3-0.4
		c1.2-0.8,2.2-2,2.9-3.4c0.6-1.2,0.9-2.3,0.9-3.3C120.4,179.7,120.5,179.6,120.6,179.5z M127.6,189.2c0.9,0.5,1.4,1.1,1.4,1.9
		c0,0.8-0.5,1.4-1.4,1.9c-1,0.5-2.4,0.8-4.3,0.8c-1.9,0-3.3-0.3-4.3-0.8c-0.9-0.5-1.4-1.1-1.4-1.9c0-0.8,0.5-1.4,1.4-1.9
		c1-0.5,2.5-0.8,4.3-0.8C125.2,188.4,126.6,188.7,127.6,189.2z M119.7,189.9c-0.7,0.3-1.1,0.8-1.1,1.3c0,0.5,0.4,0.9,1.1,1.2
		c0.8,0.3,2,0.5,3.6,0.5c1.5,0,2.7-0.2,3.5-0.5c0.8-0.3,1.1-0.7,1.1-1.2c0-0.6-0.4-1-1.1-1.3c-0.8-0.3-2-0.5-3.5-0.5
		C121.7,189.4,120.6,189.5,119.7,189.9z M130.6,183.3c0.2,0,0.3,0,0.4,0.1c0.1,0.1,0.1,0.2,0.1,0.3c0,0.1,0,0.2-0.1,0.3
		c-0.1,0.1-0.2,0.1-0.3,0.1h-2v3.4c0,0.2-0.1,0.3-0.2,0.4c-0.1,0.1-0.2,0.1-0.4,0.1s-0.3,0-0.4-0.1c-0.1-0.1-0.2-0.2-0.2-0.4v-8.1
		c0-0.3,0.2-0.5,0.5-0.5c0.4,0,0.5,0.2,0.5,0.5v3.8H130.6z"/>
	<path class="st5" d="M142.1,191.4c0.8-0.2,1.6-0.4,2.3-0.6c0.3-0.1,0.5,0,0.6,0.2c0.1,0.3,0,0.5-0.3,0.6c-1.3,0.4-2.8,0.7-4.5,0.9
		c-1.4,0.2-3.3,0.2-5.6,0.2c-0.2,0-0.4,0-0.5-0.1s-0.2-0.2-0.2-0.3s0-0.2,0.1-0.3c0.1-0.1,0.2-0.1,0.4-0.1c0.6,0,1.2,0,1.9,0
		c0.9,0,1.7,0,2.5-0.1v-3h1v2.9C140.7,191.6,141.4,191.5,142.1,191.4z M144.1,181.8c0.1,0.1,0.1,0.2,0.1,0.3c0,0.1,0,0.2-0.1,0.3
		c-0.1,0.1-0.2,0.2-0.4,0.2h-8.4c-0.3,0-0.5-0.2-0.5-0.5s0.2-0.5,0.5-0.5h8.3C143.8,181.7,144,181.7,144.1,181.8z M142.5,184.5
		c0.7,0.5,1,1.2,1,1.9c0,0.8-0.3,1.4-1,1.9c-0.7,0.6-1.7,0.9-2.9,0.9c-1.3,0-2.2-0.3-3-0.9c-0.6-0.5-1-1.2-1-1.9
		c0-0.8,0.3-1.4,1-1.9c0.7-0.6,1.7-0.9,3-0.9C140.8,183.7,141.7,184,142.5,184.5z M142.5,180c0,0.3-0.1,0.4-0.5,0.4h-4.9
		c-0.3,0-0.5-0.1-0.5-0.4s0.2-0.4,0.5-0.4h4.9C142.3,179.6,142.5,179.7,142.5,180z M137.4,185.1c-0.5,0.3-0.7,0.8-0.7,1.3
		c0,0.5,0.2,1,0.7,1.3c0.5,0.4,1.3,0.6,2.2,0.6c0.9,0,1.6-0.2,2.1-0.6c0.5-0.4,0.7-0.8,0.7-1.3c0-0.5-0.2-0.9-0.7-1.3
		c-0.5-0.4-1.2-0.6-2.1-0.6C138.6,184.6,137.9,184.8,137.4,185.1z M148.6,186.1c0.2,0,0.3,0,0.4,0.1c0.1,0.1,0.1,0.2,0.1,0.3
		c0,0.1,0,0.2-0.1,0.3c-0.1,0.1-0.2,0.1-0.3,0.1h-2v6.3c0,0.2-0.1,0.3-0.2,0.4c-0.1,0.1-0.2,0.1-0.4,0.1s-0.3,0-0.4-0.1
		c-0.1-0.1-0.2-0.2-0.2-0.4v-13.7c0-0.2,0.1-0.3,0.2-0.4c0.1-0.1,0.2-0.1,0.4-0.1s0.3,0,0.4,0.1c0.1,0.1,0.2,0.2,0.2,0.4v6.6H148.6z
		"/>
</g>
<g class="st4">
	<path class="st5" d="M45.1,216.8l-3.9-10h1.4l2.6,7.3c0.2,0.6,0.4,1.1,0.5,1.6c0.2-0.5,0.3-1.1,0.5-1.6l2.7-7.3h1.4l-3.9,10H45.1z"
		/>
	<path class="st5" d="M51.6,216.8v-10h2l2.4,7.1c0.2,0.7,0.4,1.2,0.5,1.5c0.1-0.4,0.3-0.9,0.5-1.6l2.4-7h1.8v10h-1.3v-8.4l-2.9,8.4
		h-1.2l-2.9-8.5v8.5H51.6z"/>
	<path class="st5" d="M64.4,216.8l-2.2-7.3h1.3l1.2,4.2l0.4,1.6c0-0.1,0.1-0.6,0.4-1.5l1.2-4.3h1.3l1.1,4.2l0.4,1.4l0.4-1.4l1.2-4.2
		h1.2l-2.3,7.3h-1.3l-1.2-4.3l-0.3-1.2l-1.5,5.6H64.4z"/>
	<path class="st5" d="M77.9,215.9c-0.5,0.4-0.9,0.7-1.3,0.8s-0.9,0.2-1.4,0.2c-0.8,0-1.4-0.2-1.8-0.6c-0.4-0.4-0.6-0.9-0.6-1.5
		c0-0.4,0.1-0.7,0.2-1c0.2-0.3,0.4-0.5,0.6-0.7s0.6-0.3,0.9-0.4c0.2-0.1,0.6-0.1,1.1-0.2c1-0.1,1.7-0.3,2.2-0.4c0-0.2,0-0.3,0-0.3
		c0-0.5-0.1-0.9-0.3-1.1c-0.3-0.3-0.8-0.4-1.4-0.4c-0.6,0-1,0.1-1.3,0.3c-0.3,0.2-0.5,0.6-0.6,1.1l-1.2-0.2c0.1-0.5,0.3-0.9,0.5-1.2
		c0.3-0.3,0.6-0.6,1.1-0.7c0.5-0.2,1-0.3,1.6-0.3c0.6,0,1.1,0.1,1.5,0.2s0.7,0.3,0.9,0.6c0.2,0.2,0.3,0.5,0.4,0.8
		c0,0.2,0.1,0.6,0.1,1.1v1.6c0,1.1,0,1.9,0.1,2.2c0.1,0.3,0.2,0.6,0.3,0.9h-1.3C78.1,216.5,78,216.2,77.9,215.9z M77.8,213.1
		c-0.4,0.2-1.1,0.3-2,0.5c-0.5,0.1-0.9,0.2-1.1,0.2s-0.4,0.2-0.5,0.4c-0.1,0.2-0.2,0.4-0.2,0.6c0,0.3,0.1,0.6,0.4,0.8
		s0.6,0.3,1.1,0.3c0.5,0,0.9-0.1,1.3-0.3c0.4-0.2,0.6-0.5,0.8-0.9c0.1-0.3,0.2-0.7,0.2-1.2V213.1z"/>
	<path class="st5" d="M81,216.8v-7.3h1.1v1.1c0.3-0.5,0.5-0.9,0.8-1s0.5-0.2,0.8-0.2c0.4,0,0.8,0.1,1.3,0.4l-0.4,1.1
		c-0.3-0.2-0.6-0.3-0.9-0.3c-0.3,0-0.5,0.1-0.7,0.2c-0.2,0.2-0.4,0.4-0.5,0.7c-0.1,0.4-0.2,0.9-0.2,1.4v3.8H81z"/>
	<path class="st5" d="M90.6,214.4l1.3,0.2c-0.2,0.7-0.6,1.3-1.1,1.7s-1.2,0.6-2.1,0.6c-1.1,0-1.9-0.3-2.5-1
		c-0.6-0.7-0.9-1.6-0.9-2.8c0-1.2,0.3-2.2,0.9-2.8s1.4-1,2.4-1c1,0,1.8,0.3,2.4,1s0.9,1.6,0.9,2.8c0,0.1,0,0.2,0,0.3h-5.4
		c0,0.8,0.3,1.4,0.7,1.8s0.9,0.6,1.5,0.6c0.5,0,0.8-0.1,1.2-0.4S90.4,215,90.6,214.4z M86.6,212.4h4.1c-0.1-0.6-0.2-1.1-0.5-1.4
		c-0.4-0.5-0.9-0.7-1.5-0.7c-0.6,0-1,0.2-1.4,0.6S86.6,211.8,86.6,212.4z"/>
	<path class="st5" d="M99.3,216.8l-2.8-7.3h1.3l1.6,4.3c0.2,0.5,0.3,1,0.5,1.5c0.1-0.4,0.3-0.8,0.5-1.4l1.6-4.4h1.3l-2.7,7.3H99.3z"
		/>
	<path class="st5" d="M104,213.6l1.3-0.1c0.1,0.5,0.2,0.9,0.4,1.2c0.2,0.3,0.6,0.6,1,0.8c0.5,0.2,1,0.3,1.5,0.3c0.5,0,1-0.1,1.3-0.2
		s0.7-0.4,0.9-0.6c0.2-0.3,0.3-0.5,0.3-0.9c0-0.3-0.1-0.6-0.3-0.8c-0.2-0.2-0.5-0.4-0.9-0.6c-0.3-0.1-0.9-0.3-1.8-0.5
		c-0.9-0.2-1.6-0.4-1.9-0.6c-0.5-0.3-0.8-0.6-1.1-0.9c-0.2-0.4-0.4-0.8-0.4-1.2c0-0.5,0.1-1,0.4-1.4c0.3-0.4,0.7-0.8,1.3-1
		s1.2-0.3,1.8-0.3c0.7,0,1.4,0.1,2,0.4c0.6,0.2,1,0.6,1.3,1.1s0.5,1,0.5,1.6l-1.3,0.1c-0.1-0.6-0.3-1.1-0.7-1.4s-1-0.5-1.7-0.5
		c-0.8,0-1.4,0.1-1.8,0.4c-0.4,0.3-0.6,0.6-0.6,1.1c0,0.4,0.1,0.7,0.4,0.9c0.3,0.2,0.9,0.5,2,0.7c1.1,0.2,1.8,0.5,2.2,0.6
		c0.6,0.3,1,0.6,1.3,1c0.3,0.4,0.4,0.9,0.4,1.4c0,0.5-0.2,1-0.5,1.5c-0.3,0.5-0.7,0.8-1.3,1.1c-0.6,0.3-1.2,0.4-1.9,0.4
		c-0.9,0-1.7-0.1-2.3-0.4s-1.1-0.7-1.4-1.2C104.2,214.8,104.1,214.2,104,213.6z"/>
	<path class="st5" d="M113.7,219.6v-10h1.1v0.9c0.3-0.4,0.6-0.6,0.9-0.8c0.3-0.2,0.7-0.3,1.2-0.3c0.6,0,1.2,0.2,1.6,0.5
		s0.8,0.8,1.1,1.3c0.2,0.6,0.4,1.2,0.4,1.9c0,0.7-0.1,1.4-0.4,2c-0.3,0.6-0.7,1-1.2,1.4c-0.5,0.3-1,0.5-1.6,0.5
		c-0.4,0-0.8-0.1-1.1-0.3s-0.6-0.4-0.8-0.7v3.5H113.7z M114.8,213.2c0,0.9,0.2,1.6,0.6,2.1s0.8,0.7,1.4,0.7c0.5,0,1-0.2,1.4-0.7
		c0.4-0.5,0.6-1.2,0.6-2.2c0-0.9-0.2-1.6-0.6-2.1s-0.8-0.7-1.4-0.7c-0.5,0-1,0.2-1.4,0.7C115,211.5,114.8,212.3,114.8,213.2z"/>
	<path class="st5" d="M121.5,216.8v-10h1.2v3.6c0.6-0.7,1.3-1,2.2-1c0.5,0,1,0.1,1.4,0.3c0.4,0.2,0.7,0.5,0.9,0.9s0.3,0.9,0.3,1.6
		v4.6h-1.2v-4.6c0-0.6-0.1-1.1-0.4-1.3c-0.3-0.3-0.6-0.4-1.1-0.4c-0.4,0-0.7,0.1-1,0.3c-0.3,0.2-0.6,0.4-0.7,0.8s-0.2,0.8-0.2,1.3v4
		H121.5z"/>
	<path class="st5" d="M134.2,214.4l1.3,0.2c-0.2,0.7-0.6,1.3-1.1,1.7s-1.2,0.6-2.1,0.6c-1.1,0-1.9-0.3-2.5-1
		c-0.6-0.7-0.9-1.6-0.9-2.8c0-1.2,0.3-2.2,0.9-2.8s1.4-1,2.4-1c1,0,1.8,0.3,2.4,1s0.9,1.6,0.9,2.8c0,0.1,0,0.2,0,0.3h-5.4
		c0,0.8,0.3,1.4,0.7,1.8s0.9,0.6,1.5,0.6c0.5,0,0.8-0.1,1.2-0.4S134,215,134.2,214.4z M130.2,212.4h4.1c-0.1-0.6-0.2-1.1-0.5-1.4
		c-0.4-0.5-0.9-0.7-1.5-0.7c-0.6,0-1,0.2-1.4,0.6S130.2,211.8,130.2,212.4z"/>
	<path class="st5" d="M137,216.8v-7.3h1.1v1.1c0.3-0.5,0.5-0.9,0.8-1s0.5-0.2,0.8-0.2c0.4,0,0.8,0.1,1.3,0.4l-0.4,1.1
		c-0.3-0.2-0.6-0.3-0.9-0.3c-0.3,0-0.5,0.1-0.7,0.2c-0.2,0.2-0.4,0.4-0.5,0.7c-0.1,0.4-0.2,0.9-0.2,1.4v3.8H137z"/>
	<path class="st5" d="M146.7,214.4l1.3,0.2c-0.2,0.7-0.6,1.3-1.1,1.7s-1.2,0.6-2.1,0.6c-1.1,0-1.9-0.3-2.5-1
		c-0.6-0.7-0.9-1.6-0.9-2.8c0-1.2,0.3-2.2,0.9-2.8s1.4-1,2.4-1c1,0,1.8,0.3,2.4,1s0.9,1.6,0.9,2.8c0,0.1,0,0.2,0,0.3h-5.4
		c0,0.8,0.3,1.4,0.7,1.8s0.9,0.6,1.5,0.6c0.5,0,0.8-0.1,1.2-0.4S146.5,215,146.7,214.4z M142.6,212.4h4.1c-0.1-0.6-0.2-1.1-0.5-1.4
		c-0.4-0.5-0.9-0.7-1.5-0.7c-0.6,0-1,0.2-1.4,0.6S142.7,211.8,142.6,212.4z"/>
</g>
<g class="st4">
	<path class="st5" d="M252.2,191.8c0.1,0.1,0.1,0.2,0.1,0.3s0,0.2-0.1,0.3s-0.2,0.1-0.4,0.1h-13.7c-0.4,0-0.5-0.2-0.5-0.5
		c0-0.3,0.2-0.4,0.5-0.4h13.6C252,191.7,252.1,191.7,252.2,191.8z M244.7,179.4c0.1-0.1,0.2-0.1,0.4-0.1c0.1,0,0.2,0,0.3,0.1
		c0.1,0.1,0.2,0.3,0.2,0.5c0,1.8,0.6,3.3,1.8,4.6c1.1,1.1,2.3,1.8,3.9,2.1c0.2,0,0.3,0.1,0.4,0.2c0.1,0.1,0.1,0.2,0.1,0.4
		c0,0.1-0.1,0.2-0.2,0.3c-0.1,0.1-0.3,0.1-0.5,0.1c-1.4-0.3-2.6-0.9-3.8-2c-1.1-1-1.8-2.1-2.2-3.3c-0.4,1.2-1.1,2.3-2.2,3.3
		c-1.2,1.1-2.4,1.7-3.9,2c-0.2,0-0.3,0-0.4-0.1c-0.1-0.1-0.2-0.2-0.2-0.3c0-0.1,0-0.2,0.1-0.3c0.1-0.1,0.2-0.2,0.4-0.2
		c1.5-0.3,2.7-1,3.8-2.1c1.3-1.3,1.9-2.8,1.9-4.7C244.5,179.6,244.5,179.5,244.7,179.4z"/>
	<path class="st5" d="M262.7,187.9c0.1-0.1,0.2-0.1,0.4-0.1c0.1,0,0.2,0,0.3,0.1c0.1,0.1,0.2,0.2,0.2,0.4v3.4h6.3
		c0.2,0,0.3,0,0.4,0.1c0.1,0.1,0.1,0.2,0.1,0.3s0,0.2-0.1,0.3s-0.2,0.1-0.4,0.1H256c-0.1,0-0.2,0-0.3-0.1s-0.1-0.2-0.1-0.3
		s0.1-0.2,0.1-0.3c0.1-0.1,0.2-0.1,0.4-0.1h6.3v-3.4C262.5,188.1,262.6,188,262.7,187.9z M269,179.7c0.1,0.1,0.1,0.2,0.1,0.3
		c0,0.1,0,0.2-0.1,0.3c-0.1,0.1-0.2,0.2-0.3,0.2H259c-0.3,0-0.5,0.1-0.7,0.2c-0.1,0.1-0.2,0.3-0.2,0.6v2h10.3c0.3,0,0.5,0.1,0.5,0.4
		c0,0.3-0.2,0.5-0.5,0.5h-10.3v2.3c0,0.2,0.1,0.4,0.2,0.5c0.1,0.1,0.3,0.2,0.6,0.2h9.7c0.2,0,0.3,0,0.4,0.1c0.1,0.1,0.1,0.2,0.1,0.3
		c0,0.1,0,0.2-0.1,0.3s-0.2,0.1-0.3,0.1h-9.9c-0.5,0-0.9-0.1-1.2-0.4s-0.4-0.6-0.4-1.1v-5.3c0-0.5,0.1-0.8,0.4-1.1
		c0.3-0.3,0.7-0.5,1.3-0.5h9.8C268.8,179.5,268.9,179.6,269,179.7z"/>
	<path class="st5" d="M281.2,179.9c0.3,0.2,0.5,0.6,0.5,1v3.4c0,0.4-0.1,0.8-0.4,1c-0.3,0.2-0.7,0.4-1.2,0.4h-3.7
		c-0.3,0-0.5,0.1-0.6,0.2c-0.1,0.1-0.2,0.3-0.2,0.7v3.9c0,0.3,0.1,0.6,0.2,0.7c0.1,0.2,0.4,0.2,0.7,0.2c1.3,0,2.7-0.1,3.9-0.4
		c1.2-0.2,2.3-0.5,3.1-0.9c0.3-0.2,0.5-0.1,0.6,0.2c0.1,0.3,0,0.5-0.2,0.7c-1,0.4-2.2,0.8-3.6,1c-1.3,0.2-2.6,0.3-4,0.3
		c-0.6,0-1-0.2-1.3-0.5c-0.3-0.3-0.4-0.7-0.4-1.2v-4.1c0-0.5,0.1-0.9,0.4-1.2c0.3-0.3,0.7-0.5,1.2-0.5h3.8c0.3,0,0.5,0,0.6-0.1
		c0.1-0.1,0.2-0.3,0.2-0.5v-3c0-0.2-0.1-0.4-0.2-0.5c-0.2-0.1-0.4-0.2-0.8-0.2h-4.7c-0.4,0-0.5-0.1-0.5-0.4c0-0.3,0.2-0.4,0.6-0.4h5
		C280.5,179.6,280.9,179.7,281.2,179.9z M286.5,193.6c-0.1,0.1-0.2,0.1-0.4,0.1c-0.2,0-0.3,0-0.4-0.1c-0.1-0.1-0.2-0.2-0.2-0.4
		v-13.7c0-0.2,0.1-0.3,0.2-0.4c0.1-0.1,0.2-0.1,0.4-0.1c0.1,0,0.3,0,0.4,0.1c0.1,0.1,0.2,0.2,0.2,0.4v13.7
		C286.7,193.4,286.6,193.5,286.5,193.6z"/>
	<path class="st5" d="M301.4,180c0,0.3-0.1,0.5-0.4,0.5h-3.5v2.8c0,1.8,0.4,3.5,1.2,5c0.8,1.5,1.7,2.5,3,3.2
		c0.2,0.1,0.2,0.2,0.3,0.3s0,0.3,0,0.4c-0.1,0.1-0.2,0.2-0.3,0.2c-0.2,0-0.3,0-0.5-0.1c-0.9-0.5-1.8-1.3-2.6-2.5
		c-0.8-1.2-1.3-2.4-1.5-3.6c-0.2,1.2-0.7,2.4-1.5,3.6c-0.8,1.2-1.7,2-2.7,2.5c-0.1,0.1-0.3,0.1-0.4,0c-0.1,0-0.2-0.1-0.3-0.2
		c-0.1-0.1-0.1-0.3-0.1-0.4c0-0.1,0.1-0.2,0.3-0.3c1.2-0.6,2.2-1.7,2.9-3.1c0.8-1.5,1.2-3.2,1.2-5v-2.9h-3.5c-0.3,0-0.5-0.2-0.5-0.5
		c0-0.3,0.2-0.4,0.5-0.4h8C301.2,179.6,301.4,179.8,301.4,180z M304.5,193.6c-0.1,0.1-0.2,0.1-0.4,0.1c-0.2,0-0.3,0-0.4-0.1
		c-0.1-0.1-0.2-0.2-0.2-0.4v-13.7c0-0.2,0.1-0.3,0.2-0.4c0.1-0.1,0.2-0.1,0.4-0.1c0.1,0,0.3,0,0.4,0.1c0.1,0.1,0.2,0.2,0.2,0.4v13.7
		C304.7,193.4,304.6,193.5,304.5,193.6z"/>
	<path class="st5" d="M322.2,180.1c0.3,0.3,0.5,0.7,0.5,1.2v2.1c0,2.7-0.7,4.8-2.1,6.4c-1.3,1.5-3,2.3-5.2,2.4
		c-0.3,0-0.5-0.1-0.5-0.4c0-0.3,0.1-0.5,0.5-0.5c2-0.2,3.6-0.9,4.6-2.2c1.2-1.4,1.8-3.3,1.8-5.7v-2.1c0-0.2-0.1-0.4-0.2-0.6
		c-0.2-0.1-0.4-0.2-0.6-0.2h-5.2c-0.3,0-0.5-0.2-0.5-0.5c0-0.3,0.1-0.4,0.5-0.4h5.2C321.4,179.6,321.9,179.8,322.2,180.1z
		 M329.1,186c0.3,0,0.4,0.1,0.4,0.4c0,0.3-0.1,0.4-0.4,0.4h-2v6.4c0,0.2-0.1,0.3-0.2,0.4c-0.1,0.1-0.2,0.1-0.4,0.1s-0.3,0-0.4-0.1
		c-0.1-0.1-0.2-0.2-0.2-0.4v-13.7c0-0.2,0.1-0.3,0.2-0.4c0.1-0.1,0.2-0.1,0.4-0.1s0.3,0,0.4,0.1c0.1,0.1,0.2,0.2,0.2,0.4v6.4H329.1z
		"/>
	<path class="st5" d="M337,179.5c0.1-0.1,0.2-0.1,0.4-0.1s0.3,0,0.4,0.1c0.1,0.1,0.2,0.2,0.2,0.4c0,0.4,0,0.8-0.1,1.2
		c-0.1,0.3-0.2,0.6-0.3,1c1,0.7,1.9,1.4,2.5,2c0.6,0.6,1.2,1.3,1.9,2.2c0.1,0.2,0.2,0.3,0.1,0.5c0,0.1-0.1,0.2-0.2,0.3
		c-0.1,0.1-0.2,0.1-0.4,0.1c-0.2,0-0.3-0.1-0.4-0.2c-0.6-0.8-1.2-1.5-1.8-2.1c-0.6-0.6-1.3-1.2-2.1-1.8c-0.5,0.9-0.9,1.7-1.4,2.3
		c-0.6,0.7-1.3,1.4-2.2,2.1c-0.1,0.1-0.3,0.1-0.4,0.1c-0.1,0-0.2-0.1-0.3-0.2c-0.1-0.1-0.1-0.2-0.1-0.4s0.1-0.3,0.3-0.4
		c1.2-0.8,2.2-2,2.9-3.4c0.6-1.2,0.9-2.3,0.9-3.3C336.8,179.7,336.9,179.6,337,179.5z M344.1,189.2c0.9,0.5,1.4,1.1,1.4,1.9
		c0,0.8-0.5,1.4-1.4,1.9c-1,0.5-2.4,0.8-4.3,0.8c-1.9,0-3.3-0.3-4.3-0.8c-0.9-0.5-1.4-1.1-1.4-1.9c0-0.8,0.5-1.4,1.4-1.9
		c1-0.5,2.5-0.8,4.3-0.8C341.6,188.4,343.1,188.7,344.1,189.2z M336.2,189.9c-0.7,0.3-1.1,0.8-1.1,1.3c0,0.5,0.4,0.9,1.1,1.2
		c0.8,0.3,2,0.5,3.6,0.5c1.5,0,2.7-0.2,3.5-0.5c0.8-0.3,1.1-0.7,1.1-1.2c0-0.6-0.4-1-1.1-1.3c-0.8-0.3-2-0.5-3.5-0.5
		C338.2,189.4,337,189.5,336.2,189.9z M347,183.3c0.2,0,0.3,0,0.4,0.1c0.1,0.1,0.1,0.2,0.1,0.3c0,0.1,0,0.2-0.1,0.3
		c-0.1,0.1-0.2,0.1-0.3,0.1h-2v3.4c0,0.2-0.1,0.3-0.2,0.4c-0.1,0.1-0.2,0.1-0.4,0.1s-0.3,0-0.4-0.1c-0.1-0.1-0.2-0.2-0.2-0.4v-8.1
		c0-0.3,0.2-0.5,0.5-0.5c0.4,0,0.5,0.2,0.5,0.5v3.8H347z"/>
	<path class="st5" d="M358.5,191.4c0.8-0.2,1.6-0.4,2.3-0.6c0.3-0.1,0.5,0,0.6,0.2c0.1,0.3,0,0.5-0.3,0.6c-1.3,0.4-2.8,0.7-4.5,0.9
		c-1.4,0.2-3.3,0.2-5.6,0.2c-0.2,0-0.4,0-0.5-0.1s-0.2-0.2-0.2-0.3s0-0.2,0.1-0.3c0.1-0.1,0.2-0.1,0.4-0.1c0.6,0,1.2,0,1.9,0
		c0.9,0,1.7,0,2.5-0.1v-3h1v2.9C357.2,191.6,357.8,191.5,358.5,191.4z M360.5,181.8c0.1,0.1,0.1,0.2,0.1,0.3c0,0.1,0,0.2-0.1,0.3
		c-0.1,0.1-0.2,0.2-0.4,0.2h-8.4c-0.3,0-0.5-0.2-0.5-0.5s0.2-0.5,0.5-0.5h8.3C360.3,181.7,360.4,181.7,360.5,181.8z M358.9,184.5
		c0.7,0.5,1,1.2,1,1.9c0,0.8-0.3,1.4-1,1.9c-0.7,0.6-1.7,0.9-2.9,0.9c-1.3,0-2.2-0.3-3-0.9c-0.6-0.5-1-1.2-1-1.9
		c0-0.8,0.3-1.4,1-1.9c0.7-0.6,1.7-0.9,3-0.9C357.2,183.7,358.2,184,358.9,184.5z M358.9,180c0,0.3-0.1,0.4-0.5,0.4h-4.9
		c-0.3,0-0.5-0.1-0.5-0.4s0.2-0.4,0.5-0.4h4.9C358.7,179.6,358.9,179.7,358.9,180z M353.8,185.1c-0.5,0.3-0.7,0.8-0.7,1.3
		c0,0.5,0.2,1,0.7,1.3c0.5,0.4,1.3,0.6,2.2,0.6c0.9,0,1.6-0.2,2.1-0.6c0.5-0.4,0.7-0.8,0.7-1.3c0-0.5-0.2-0.9-0.7-1.3
		c-0.5-0.4-1.2-0.6-2.1-0.6C355,184.6,354.3,184.8,353.8,185.1z M365,186.1c0.2,0,0.3,0,0.4,0.1s0.1,0.2,0.1,0.3
		c0,0.1,0,0.2-0.1,0.3c-0.1,0.1-0.2,0.1-0.3,0.1h-2v6.3c0,0.2-0.1,0.3-0.2,0.4c-0.1,0.1-0.2,0.1-0.4,0.1s-0.3,0-0.4-0.1
		c-0.1-0.1-0.2-0.2-0.2-0.4v-13.7c0-0.2,0.1-0.3,0.2-0.4c0.1-0.1,0.2-0.1,0.4-0.1s0.3,0,0.4,0.1c0.1,0.1,0.2,0.2,0.2,0.4v6.6H365z"
		/>
</g>
<g class="st4">
	<path class="st5" d="M259.7,216.8l-3.9-10h1.4l2.6,7.3c0.2,0.6,0.4,1.1,0.5,1.6c0.2-0.5,0.3-1.1,0.5-1.6l2.7-7.3h1.4l-3.9,10H259.7
		z"/>
	<path class="st5" d="M266.2,216.8v-10h2l2.4,7.1c0.2,0.7,0.4,1.2,0.5,1.5c0.1-0.4,0.3-0.9,0.5-1.6l2.4-7h1.8v10h-1.3v-8.4l-2.9,8.4
		h-1.2l-2.9-8.5v8.5H266.2z"/>
	<path class="st5" d="M279.1,216.8l-2.2-7.3h1.3l1.2,4.2l0.4,1.6c0-0.1,0.1-0.6,0.4-1.5l1.2-4.3h1.3l1.1,4.2l0.4,1.4l0.4-1.4
		l1.2-4.2h1.2l-2.3,7.3h-1.3l-1.2-4.3l-0.3-1.2l-1.5,5.6H279.1z"/>
	<path class="st5" d="M292.6,215.9c-0.5,0.4-0.9,0.7-1.3,0.8s-0.9,0.2-1.4,0.2c-0.8,0-1.4-0.2-1.8-0.6c-0.4-0.4-0.6-0.9-0.6-1.5
		c0-0.4,0.1-0.7,0.2-1c0.2-0.3,0.4-0.5,0.6-0.7s0.6-0.3,0.9-0.4c0.2-0.1,0.6-0.1,1.1-0.2c1-0.1,1.7-0.3,2.2-0.4c0-0.2,0-0.3,0-0.3
		c0-0.5-0.1-0.9-0.3-1.1c-0.3-0.3-0.8-0.4-1.4-0.4c-0.6,0-1,0.1-1.3,0.3c-0.3,0.2-0.5,0.6-0.6,1.1l-1.2-0.2c0.1-0.5,0.3-0.9,0.5-1.2
		c0.3-0.3,0.6-0.6,1.1-0.7c0.5-0.2,1-0.3,1.6-0.3c0.6,0,1.1,0.1,1.5,0.2s0.7,0.3,0.9,0.6c0.2,0.2,0.3,0.5,0.4,0.8
		c0,0.2,0.1,0.6,0.1,1.1v1.6c0,1.1,0,1.9,0.1,2.2c0.1,0.3,0.2,0.6,0.3,0.9h-1.3C292.7,216.5,292.6,216.2,292.6,215.9z M292.5,213.1
		c-0.4,0.2-1.1,0.3-2,0.5c-0.5,0.1-0.9,0.2-1.1,0.2s-0.4,0.2-0.5,0.4c-0.1,0.2-0.2,0.4-0.2,0.6c0,0.3,0.1,0.6,0.4,0.8
		s0.6,0.3,1.1,0.3c0.5,0,0.9-0.1,1.3-0.3c0.4-0.2,0.6-0.5,0.8-0.9c0.1-0.3,0.2-0.7,0.2-1.2V213.1z"/>
	<path class="st5" d="M295.6,216.8v-7.3h1.1v1.1c0.3-0.5,0.5-0.9,0.8-1s0.5-0.2,0.8-0.2c0.4,0,0.8,0.1,1.3,0.4l-0.4,1.1
		c-0.3-0.2-0.6-0.3-0.9-0.3c-0.3,0-0.5,0.1-0.7,0.2c-0.2,0.2-0.4,0.4-0.5,0.7c-0.1,0.4-0.2,0.9-0.2,1.4v3.8H295.6z"/>
	<path class="st5" d="M305.3,214.4l1.3,0.2c-0.2,0.7-0.6,1.3-1.1,1.7c-0.5,0.4-1.2,0.6-2.1,0.6c-1.1,0-1.9-0.3-2.5-1
		c-0.6-0.7-0.9-1.6-0.9-2.8c0-1.2,0.3-2.2,0.9-2.8s1.4-1,2.4-1c1,0,1.8,0.3,2.4,1s0.9,1.6,0.9,2.8c0,0.1,0,0.2,0,0.3h-5.4
		c0,0.8,0.3,1.4,0.7,1.8c0.4,0.4,0.9,0.6,1.5,0.6c0.5,0,0.8-0.1,1.2-0.4C304.8,215.3,305.1,215,305.3,214.4z M301.2,212.4h4.1
		c-0.1-0.6-0.2-1.1-0.5-1.4c-0.4-0.5-0.9-0.7-1.5-0.7c-0.6,0-1,0.2-1.4,0.6C301.5,211.3,301.3,211.8,301.2,212.4z"/>
	<path class="st5" d="M314,216.8l-2.8-7.3h1.3l1.6,4.3c0.2,0.5,0.3,1,0.5,1.5c0.1-0.4,0.3-0.8,0.5-1.4l1.6-4.4h1.3l-2.7,7.3H314z"/>
	<path class="st5" d="M318.7,213.6l1.3-0.1c0.1,0.5,0.2,0.9,0.4,1.2c0.2,0.3,0.6,0.6,1,0.8c0.5,0.2,1,0.3,1.5,0.3
		c0.5,0,1-0.1,1.3-0.2c0.4-0.2,0.7-0.4,0.9-0.6c0.2-0.3,0.3-0.5,0.3-0.9c0-0.3-0.1-0.6-0.3-0.8c-0.2-0.2-0.5-0.4-0.9-0.6
		c-0.3-0.1-0.9-0.3-1.8-0.5c-0.9-0.2-1.6-0.4-1.9-0.6c-0.5-0.3-0.8-0.6-1.1-0.9c-0.2-0.4-0.4-0.8-0.4-1.2c0-0.5,0.1-1,0.4-1.4
		c0.3-0.4,0.7-0.8,1.3-1c0.6-0.2,1.2-0.3,1.8-0.3c0.7,0,1.4,0.1,2,0.4c0.6,0.2,1,0.6,1.3,1.1c0.3,0.5,0.5,1,0.5,1.6l-1.3,0.1
		c-0.1-0.6-0.3-1.1-0.7-1.4c-0.4-0.3-1-0.5-1.7-0.5c-0.8,0-1.4,0.1-1.8,0.4c-0.4,0.3-0.5,0.6-0.5,1.1c0,0.4,0.1,0.7,0.4,0.9
		c0.3,0.2,0.9,0.5,2,0.7c1.1,0.2,1.8,0.5,2.2,0.6c0.6,0.3,1,0.6,1.3,1c0.3,0.4,0.4,0.9,0.4,1.4c0,0.5-0.2,1-0.5,1.5
		c-0.3,0.5-0.7,0.8-1.3,1.1c-0.6,0.3-1.2,0.4-1.9,0.4c-0.9,0-1.7-0.1-2.3-0.4c-0.6-0.3-1.1-0.7-1.4-1.2
		C318.9,214.8,318.7,214.2,318.7,213.6z"/>
	<path class="st5" d="M327.4,216.8l3.8-10h1.4l4.1,10h-1.5l-1.2-3h-4.2l-1.1,3H327.4z M330.2,212.7h3.4l-1-2.8
		c-0.3-0.8-0.6-1.5-0.7-2.1c-0.1,0.6-0.3,1.3-0.5,1.9L330.2,212.7z"/>
	<path class="st5" d="M337.8,216.8v-10h1.4l5.3,7.9v-7.9h1.3v10h-1.4l-5.3-7.9v7.9H337.8z"/>
</g>
<g class="st4">
	<path class="st5" d="M447.3,179.7c0.1-0.1,0.2-0.1,0.4-0.1s0.3,0,0.4,0.1c0.1,0.1,0.2,0.2,0.2,0.4v10.1c0,0.3,0.1,0.5,0.2,0.7
		c0.1,0.1,0.4,0.2,0.7,0.2c0.9,0,1.7-0.1,2.4-0.2c0.7-0.1,1.3-0.2,1.8-0.4c0.1-0.1,0.3-0.1,0.4,0c0.1,0.1,0.2,0.1,0.2,0.3
		c0,0.1,0,0.3-0.1,0.4c-0.1,0.1-0.2,0.2-0.3,0.3c-0.6,0.2-1.2,0.3-2,0.4c-0.8,0.1-1.7,0.2-2.7,0.2c-0.5,0-0.9-0.2-1.2-0.5
		c-0.3-0.3-0.4-0.7-0.4-1.3v-10C447.1,179.9,447.2,179.8,447.3,179.7z M455.9,193.6c-0.1,0.1-0.2,0.1-0.4,0.1s-0.3,0-0.4-0.1
		c-0.1-0.1-0.2-0.2-0.2-0.4v-7.7H452c-0.2,0-0.3,0-0.4-0.1c-0.1-0.1-0.1-0.2-0.2-0.3c0-0.1,0-0.2,0.1-0.3c0.1-0.1,0.2-0.1,0.4-0.1
		h3.1v-5.1c0-0.2,0.1-0.3,0.2-0.4c0.1-0.1,0.2-0.1,0.4-0.1s0.3,0,0.4,0.1c0.1,0.1,0.2,0.2,0.2,0.4v13.7
		C456.1,193.4,456,193.5,455.9,193.6z M459.6,193.6c-0.1,0.1-0.2,0.1-0.3,0.1c-0.1,0-0.3,0-0.4-0.1c-0.1-0.1-0.2-0.2-0.2-0.4v-13.7
		c0-0.2,0.1-0.3,0.2-0.4c0.1-0.1,0.2-0.1,0.4-0.1c0.1,0,0.2,0,0.3,0.1c0.1,0.1,0.2,0.2,0.2,0.4v13.7
		C459.8,193.4,459.7,193.5,459.6,193.6z"/>
	<path class="st5" d="M478.9,191.8c0.1,0.1,0.1,0.2,0.2,0.3c0,0.1,0,0.2-0.1,0.3s-0.2,0.1-0.3,0.1h-13.9c-0.1,0-0.2,0-0.3-0.1
		s-0.1-0.2-0.1-0.3s0.1-0.2,0.1-0.3c0.1-0.1,0.2-0.1,0.4-0.1h13.6C478.6,191.7,478.8,191.7,478.9,191.8z M477.7,179.7
		c0.1,0.1,0.1,0.2,0.1,0.3c0,0.1,0,0.2-0.1,0.3c-0.1,0.1-0.2,0.2-0.3,0.2h-9.7c-0.3,0-0.5,0.1-0.7,0.2c-0.1,0.1-0.2,0.3-0.2,0.6v2
		h10.3c0.3,0,0.5,0.1,0.5,0.4c0,0.3-0.2,0.5-0.5,0.5h-10.3v2.3c0,0.2,0.1,0.4,0.2,0.5c0.1,0.1,0.3,0.2,0.6,0.2h9.7
		c0.2,0,0.3,0,0.4,0.1c0.1,0.1,0.1,0.2,0.1,0.3c0,0.1,0,0.2-0.1,0.3s-0.2,0.1-0.3,0.1h-9.9c-0.5,0-0.9-0.1-1.2-0.4s-0.4-0.6-0.4-1.1
		v-5.3c0-0.5,0.1-0.8,0.4-1.1c0.3-0.3,0.7-0.5,1.3-0.5h9.8C477.4,179.5,477.6,179.6,477.7,179.7z"/>
	<path class="st5" d="M484.8,187.8c-0.9,0-1.6,0-2.3,0c-0.3,0-0.4-0.1-0.4-0.4s0.2-0.4,0.5-0.4c1.7,0,3.3,0,5-0.1
		c1.9,0,3.5-0.1,4.8-0.2c0.2,0,0.3,0,0.4,0.1c0.1,0.1,0.2,0.2,0.2,0.3c0,0.1,0,0.2-0.1,0.3c-0.1,0.1-0.2,0.2-0.3,0.2
		c-0.7,0.1-1.4,0.1-2.2,0.2c-0.7,0-1.4,0.1-2.1,0.1v2.1c0,0.8-0.1,1.4-0.3,1.9c-0.2,0.5-0.5,0.9-0.8,1.3c-0.3,0.2-0.5,0.2-0.7,0
		c-0.2-0.2-0.2-0.4,0-0.7c0.3-0.3,0.5-0.7,0.6-1.1c0.1-0.4,0.2-0.8,0.2-1.4v-2.1C486.6,187.8,485.8,187.8,484.8,187.8z M491.2,180.4
		c0.8,0.6,1.2,1.2,1.2,2c0,0.8-0.4,1.4-1.2,2c-0.9,0.6-2,0.9-3.4,0.9c-1.5,0-2.6-0.3-3.5-0.9c-0.8-0.6-1.1-1.2-1.1-2
		c0-0.8,0.4-1.5,1.1-2c0.9-0.6,2-0.9,3.5-0.9C489.2,179.5,490.3,179.8,491.2,180.4z M485,181c-0.6,0.4-0.9,0.8-0.9,1.4
		c0,0.5,0.3,1,0.9,1.4c0.7,0.4,1.5,0.6,2.7,0.6c1.1,0,2-0.2,2.7-0.6c0.6-0.4,0.9-0.8,0.9-1.4c0-0.6-0.3-1-0.9-1.4
		c-0.7-0.4-1.6-0.6-2.7-0.6C486.6,180.4,485.7,180.6,485,181z M495.2,193.6c-0.1,0.1-0.2,0.1-0.4,0.1c-0.2,0-0.3,0-0.4-0.1
		c-0.1-0.1-0.2-0.2-0.2-0.4v-3.4H491c-0.2,0-0.3-0.1-0.4-0.2c-0.1-0.1-0.2-0.2-0.2-0.3c0-0.1,0-0.2,0.1-0.3c0.1-0.1,0.2-0.1,0.4-0.1
		h3.4v-9.3c0-0.2,0.1-0.3,0.2-0.4c0.1-0.1,0.2-0.1,0.4-0.1c0.1,0,0.3,0,0.4,0.1c0.1,0.1,0.2,0.2,0.2,0.4v13.7
		C495.3,193.4,495.3,193.5,495.2,193.6z"/>
	<path class="st5" d="M514.9,191.8c0.1,0.1,0.1,0.2,0.2,0.3c0,0.1,0,0.2-0.1,0.3s-0.2,0.1-0.3,0.1h-13.9c-0.1,0-0.2,0-0.3-0.1
		s-0.1-0.2-0.1-0.3s0.1-0.2,0.1-0.3c0.1-0.1,0.2-0.1,0.4-0.1h13.6C514.6,191.7,514.8,191.7,514.9,191.8z M512.3,185.1
		c0,0.3-0.1,0.5-0.4,0.5c-1.5,0.2-3.2,0.3-5,0.4c-1.9,0.1-3.6,0.2-5.1,0.2c-0.3,0-0.5-0.2-0.5-0.5c0-0.3,0.2-0.4,0.5-0.4
		c1.6,0,3.2,0,5-0.1c1.9-0.1,3.6-0.2,5-0.4C512.1,184.7,512.3,184.8,512.3,185.1z M513.1,180c0.4,0.3,0.5,0.7,0.5,1.1v3.3
		c0,1.7-0.1,3-0.2,3.9c-0.2,1.1-0.5,2.2-0.9,3.4h-1.1c0.5-1.1,0.8-2.3,1-3.3c0.1-0.8,0.2-2.1,0.2-3.8v-3.4c0-0.2-0.1-0.4-0.2-0.5
		c-0.1-0.1-0.4-0.2-0.7-0.2h-9.4c-0.3,0-0.5-0.2-0.5-0.5s0.2-0.5,0.5-0.5h9.5C512.3,179.5,512.7,179.7,513.1,180z"/>
	<path class="st5" d="M530.9,180.1c0.3,0.3,0.5,0.7,0.5,1.2v2.1c0,2.7-0.7,4.8-2.1,6.4c-1.3,1.5-3,2.3-5.2,2.4
		c-0.3,0-0.5-0.1-0.5-0.4c0-0.3,0.1-0.5,0.5-0.5c2-0.2,3.6-0.9,4.6-2.2c1.2-1.4,1.8-3.3,1.8-5.7v-2.1c0-0.2-0.1-0.4-0.2-0.6
		c-0.2-0.1-0.4-0.2-0.6-0.2h-5.2c-0.3,0-0.5-0.2-0.5-0.5c0-0.3,0.1-0.4,0.5-0.4h5.2C530.1,179.6,530.5,179.8,530.9,180.1z
		 M537.8,186c0.3,0,0.4,0.1,0.4,0.4c0,0.3-0.1,0.4-0.4,0.4h-2v6.4c0,0.2-0.1,0.3-0.2,0.4c-0.1,0.1-0.2,0.1-0.4,0.1s-0.3,0-0.4-0.1
		c-0.1-0.1-0.2-0.2-0.2-0.4v-13.7c0-0.2,0.1-0.3,0.2-0.4c0.1-0.1,0.2-0.1,0.4-0.1s0.3,0,0.4,0.1c0.1,0.1,0.2,0.2,0.2,0.4v6.4H537.8z
		"/>
	<path class="st5" d="M545.7,179.5c0.1-0.1,0.2-0.1,0.4-0.1s0.3,0,0.4,0.1c0.1,0.1,0.2,0.2,0.2,0.4c0,0.4,0,0.8-0.1,1.2
		c-0.1,0.3-0.2,0.6-0.3,1c1,0.7,1.9,1.4,2.5,2c0.6,0.6,1.2,1.3,1.9,2.2c0.1,0.2,0.2,0.3,0.1,0.5c0,0.1-0.1,0.2-0.2,0.3
		c-0.1,0.1-0.2,0.1-0.4,0.1c-0.2,0-0.3-0.1-0.4-0.2c-0.6-0.8-1.2-1.5-1.8-2.1c-0.6-0.6-1.3-1.2-2.1-1.8c-0.5,0.9-0.9,1.7-1.4,2.3
		c-0.6,0.7-1.3,1.4-2.2,2.1c-0.1,0.1-0.3,0.1-0.4,0.1c-0.1,0-0.2-0.1-0.3-0.2c-0.1-0.1-0.1-0.2-0.1-0.4s0.1-0.3,0.3-0.4
		c1.2-0.8,2.2-2,2.9-3.4c0.6-1.2,0.9-2.3,0.9-3.3C545.5,179.7,545.6,179.6,545.7,179.5z M552.7,189.2c0.9,0.5,1.4,1.1,1.4,1.9
		c0,0.8-0.5,1.4-1.4,1.9c-1,0.5-2.4,0.8-4.3,0.8c-1.9,0-3.3-0.3-4.3-0.8c-0.9-0.5-1.4-1.1-1.4-1.9c0-0.8,0.5-1.4,1.4-1.9
		c1-0.5,2.5-0.8,4.3-0.8C550.3,188.4,551.7,188.7,552.7,189.2z M544.8,189.9c-0.7,0.3-1.1,0.8-1.1,1.3c0,0.5,0.4,0.9,1.1,1.2
		c0.8,0.3,2,0.5,3.6,0.5c1.5,0,2.7-0.2,3.5-0.5c0.8-0.3,1.1-0.7,1.1-1.2c0-0.6-0.4-1-1.1-1.3c-0.8-0.3-2-0.5-3.5-0.5
		C546.8,189.4,545.6,189.5,544.8,189.9z M555.7,183.3c0.2,0,0.3,0,0.4,0.1c0.1,0.1,0.1,0.2,0.1,0.3c0,0.1,0,0.2-0.1,0.3
		c-0.1,0.1-0.2,0.1-0.3,0.1h-2v3.4c0,0.2-0.1,0.3-0.2,0.4c-0.1,0.1-0.2,0.1-0.4,0.1s-0.3,0-0.4-0.1c-0.1-0.1-0.2-0.2-0.2-0.4v-8.1
		c0-0.3,0.2-0.5,0.5-0.5c0.4,0,0.5,0.2,0.5,0.5v3.8H555.7z"/>
	<path class="st5" d="M567.2,191.4c0.8-0.2,1.6-0.4,2.3-0.6c0.3-0.1,0.5,0,0.6,0.2c0.1,0.3,0,0.5-0.3,0.6c-1.3,0.4-2.8,0.7-4.5,0.9
		c-1.4,0.2-3.3,0.2-5.6,0.2c-0.2,0-0.4,0-0.5-0.1s-0.2-0.2-0.2-0.3s0-0.2,0.1-0.3c0.1-0.1,0.2-0.1,0.4-0.1c0.6,0,1.2,0,1.9,0
		c0.9,0,1.7,0,2.5-0.1v-3h1v2.9C565.8,191.6,566.5,191.5,567.2,191.4z M569.2,181.8c0.1,0.1,0.1,0.2,0.1,0.3c0,0.1,0,0.2-0.1,0.3
		c-0.1,0.1-0.2,0.2-0.4,0.2h-8.4c-0.3,0-0.5-0.2-0.5-0.5s0.2-0.5,0.5-0.5h8.3C568.9,181.7,569.1,181.7,569.2,181.8z M567.5,184.5
		c0.7,0.5,1,1.2,1,1.9c0,0.8-0.3,1.4-1,1.9c-0.7,0.6-1.7,0.9-2.9,0.9c-1.3,0-2.2-0.3-3-0.9c-0.6-0.5-1-1.2-1-1.9
		c0-0.8,0.3-1.4,1-1.9c0.7-0.6,1.7-0.9,3-0.9C565.9,183.7,566.8,184,567.5,184.5z M567.6,180c0,0.3-0.1,0.4-0.5,0.4h-4.9
		c-0.3,0-0.5-0.1-0.5-0.4s0.2-0.4,0.5-0.4h4.9C567.4,179.6,567.6,179.7,567.6,180z M562.5,185.1c-0.5,0.3-0.7,0.8-0.7,1.3
		c0,0.5,0.2,1,0.7,1.3c0.5,0.4,1.3,0.6,2.2,0.6c0.9,0,1.6-0.2,2.1-0.6c0.5-0.4,0.7-0.8,0.7-1.3c0-0.5-0.2-0.9-0.7-1.3
		c-0.5-0.4-1.2-0.6-2.1-0.6C563.7,184.6,563,184.8,562.5,185.1z M573.7,186.1c0.2,0,0.3,0,0.4,0.1c0.1,0.1,0.1,0.2,0.1,0.3
		c0,0.1,0,0.2-0.1,0.3c-0.1,0.1-0.2,0.1-0.3,0.1h-2v6.3c0,0.2-0.1,0.3-0.2,0.4c-0.1,0.1-0.2,0.1-0.4,0.1s-0.3,0-0.4-0.1
		c-0.1-0.1-0.2-0.2-0.2-0.4v-13.7c0-0.2,0.1-0.3,0.2-0.4c0.1-0.1,0.2-0.1,0.4-0.1s0.3,0,0.4,0.1c0.1,0.1,0.2,0.2,0.2,0.4v6.6H573.7z
		"/>
</g>
<g class="st4">
	<path class="st5" d="M466.6,216.8l-3.9-10h1.4l2.6,7.3c0.2,0.6,0.4,1.1,0.5,1.6c0.2-0.5,0.3-1.1,0.5-1.6l2.7-7.3h1.4l-3.9,10H466.6
		z"/>
	<path class="st5" d="M473,216.8v-10h2l2.4,7.1c0.2,0.7,0.4,1.2,0.5,1.5c0.1-0.4,0.3-0.9,0.5-1.6l2.4-7h1.8v10h-1.3v-8.4l-2.9,8.4
		h-1.2l-2.9-8.5v8.5H473z"/>
	<path class="st5" d="M485.9,216.8l-2.2-7.3h1.3l1.2,4.2l0.4,1.6c0-0.1,0.1-0.6,0.4-1.5l1.2-4.3h1.3l1.1,4.2l0.4,1.4l0.4-1.4
		l1.2-4.2h1.2l-2.3,7.3h-1.3l-1.2-4.3l-0.3-1.2l-1.5,5.6H485.9z"/>
	<path class="st5" d="M499.4,215.9c-0.5,0.4-0.9,0.7-1.3,0.8c-0.4,0.2-0.9,0.2-1.4,0.2c-0.8,0-1.4-0.2-1.8-0.6
		c-0.4-0.4-0.6-0.9-0.6-1.5c0-0.4,0.1-0.7,0.2-1c0.2-0.3,0.4-0.5,0.6-0.7c0.3-0.2,0.6-0.3,0.9-0.4c0.2-0.1,0.6-0.1,1.1-0.2
		c1-0.1,1.7-0.3,2.2-0.4c0-0.2,0-0.3,0-0.3c0-0.5-0.1-0.9-0.3-1.1c-0.3-0.3-0.8-0.4-1.4-0.4c-0.6,0-1,0.1-1.3,0.3
		c-0.3,0.2-0.5,0.6-0.6,1.1l-1.2-0.2c0.1-0.5,0.3-0.9,0.5-1.2c0.3-0.3,0.6-0.6,1.1-0.7c0.5-0.2,1-0.3,1.6-0.3c0.6,0,1.1,0.1,1.5,0.2
		s0.7,0.3,0.9,0.6c0.2,0.2,0.3,0.5,0.4,0.8c0,0.2,0.1,0.6,0.1,1.1v1.6c0,1.1,0,1.9,0.1,2.2c0.1,0.3,0.2,0.6,0.3,0.9h-1.3
		C499.6,216.5,499.5,216.2,499.4,215.9z M499.3,213.1c-0.4,0.2-1.1,0.3-2,0.5c-0.5,0.1-0.9,0.2-1.1,0.2s-0.4,0.2-0.5,0.4
		c-0.1,0.2-0.2,0.4-0.2,0.6c0,0.3,0.1,0.6,0.4,0.8c0.2,0.2,0.6,0.3,1.1,0.3c0.5,0,0.9-0.1,1.3-0.3c0.4-0.2,0.6-0.5,0.8-0.9
		c0.1-0.3,0.2-0.7,0.2-1.2V213.1z"/>
	<path class="st5" d="M502.5,216.8v-7.3h1.1v1.1c0.3-0.5,0.5-0.9,0.8-1c0.2-0.2,0.5-0.2,0.8-0.2c0.4,0,0.8,0.1,1.3,0.4l-0.4,1.1
		c-0.3-0.2-0.6-0.3-0.9-0.3c-0.3,0-0.5,0.1-0.7,0.2c-0.2,0.2-0.4,0.4-0.5,0.7c-0.1,0.4-0.2,0.9-0.2,1.4v3.8H502.5z"/>
	<path class="st5" d="M512.1,214.4l1.3,0.2c-0.2,0.7-0.6,1.3-1.1,1.7s-1.2,0.6-2.1,0.6c-1.1,0-1.9-0.3-2.5-1
		c-0.6-0.7-0.9-1.6-0.9-2.8c0-1.2,0.3-2.2,0.9-2.8s1.4-1,2.4-1c1,0,1.8,0.3,2.4,1s0.9,1.6,0.9,2.8c0,0.1,0,0.2,0,0.3H508
		c0,0.8,0.3,1.4,0.7,1.8s0.9,0.6,1.5,0.6c0.5,0,0.8-0.1,1.2-0.4S511.9,215,512.1,214.4z M508.1,212.4h4.1c-0.1-0.6-0.2-1.1-0.5-1.4
		c-0.4-0.5-0.9-0.7-1.5-0.7c-0.6,0-1,0.2-1.4,0.6C508.3,211.3,508.1,211.8,508.1,212.4z"/>
	<path class="st5" d="M519,216.8v-10h1.4l5.3,7.9v-7.9h1.3v10h-1.4l-5.3-7.9v7.9H519z"/>
	<path class="st5" d="M528.6,213.6l1.3-0.1c0.1,0.5,0.2,0.9,0.4,1.2c0.2,0.3,0.6,0.6,1,0.8c0.5,0.2,1,0.3,1.5,0.3
		c0.5,0,1-0.1,1.3-0.2s0.7-0.4,0.9-0.6c0.2-0.3,0.3-0.5,0.3-0.9c0-0.3-0.1-0.6-0.3-0.8c-0.2-0.2-0.5-0.4-0.9-0.6
		c-0.3-0.1-0.9-0.3-1.8-0.5c-0.9-0.2-1.6-0.4-1.9-0.6c-0.5-0.3-0.8-0.6-1.1-0.9c-0.2-0.4-0.4-0.8-0.4-1.2c0-0.5,0.1-1,0.4-1.4
		c0.3-0.4,0.7-0.8,1.3-1s1.2-0.3,1.8-0.3c0.7,0,1.4,0.1,2,0.4c0.6,0.2,1,0.6,1.3,1.1s0.5,1,0.5,1.6l-1.3,0.1
		c-0.1-0.6-0.3-1.1-0.7-1.4c-0.4-0.3-1-0.5-1.7-0.5c-0.8,0-1.4,0.1-1.8,0.4c-0.4,0.3-0.6,0.6-0.6,1.1c0,0.4,0.1,0.7,0.4,0.9
		c0.3,0.2,0.9,0.5,2,0.7c1.1,0.2,1.8,0.5,2.2,0.6c0.6,0.3,1,0.6,1.3,1c0.3,0.4,0.4,0.9,0.4,1.4c0,0.5-0.2,1-0.5,1.5
		c-0.3,0.5-0.7,0.8-1.3,1.1c-0.6,0.3-1.2,0.4-1.9,0.4c-0.9,0-1.7-0.1-2.3-0.4c-0.6-0.3-1.1-0.7-1.4-1.2
		C528.8,214.8,528.7,214.2,528.6,213.6z"/>
	<path class="st5" d="M537.4,216.8l3.9-5.2l-3.4-4.8h1.6l1.8,2.6c0.4,0.5,0.6,0.9,0.8,1.2c0.2-0.4,0.5-0.7,0.8-1.1l2-2.7h1.4
		l-3.5,4.7l3.8,5.3H545l-2.5-3.6c-0.1-0.2-0.3-0.4-0.4-0.7c-0.2,0.4-0.4,0.6-0.5,0.8l-2.5,3.5H537.4z"/>
</g>
<g class="st4">
	<path class="st5" d="M184.6,258.4v14.2h-1.8v-14.2H184.6z"/>
	<path class="st5" d="M187.8,258.6c0.8-0.2,2.1-0.3,3.3-0.3c1.8,0,3,0.3,3.9,1c0.7,0.5,1.2,1.4,1.2,2.5c0,1.4-0.9,2.6-2.4,3.1v0
		c1.3,0.3,2.9,1.4,2.9,3.5c0,1.2-0.5,2.1-1.2,2.8c-1,0.9-2.6,1.3-4.9,1.3c-1.3,0-2.2-0.1-2.8-0.2V258.6z M189.6,264.4h1.7
		c1.9,0,3.1-1,3.1-2.4c0-1.7-1.3-2.3-3.1-2.3c-0.8,0-1.3,0.1-1.6,0.1V264.4z M189.6,271.2c0.4,0.1,0.9,0.1,1.5,0.1
		c1.9,0,3.6-0.7,3.6-2.8c0-1.9-1.7-2.7-3.7-2.7h-1.5V271.2z"/>
	<path class="st5" d="M211.1,266.3c-0.1-2-0.2-4.3-0.2-6.1h-0.1c-0.5,1.7-1.1,3.4-1.8,5.4l-2.5,6.9h-1.4l-2.3-6.7
		c-0.7-2-1.2-3.8-1.6-5.5h0c0,1.8-0.1,4.1-0.3,6.3l-0.4,6.1h-1.7l1-14.2h2.3l2.4,6.8c0.6,1.7,1.1,3.3,1.4,4.8h0.1
		c0.4-1.4,0.9-3,1.5-4.8l2.5-6.8h2.3l0.9,14.2h-1.8L211.1,266.3z"/>
	<path class="st5" d="M230.4,272.1c-0.7,0.3-2,0.7-3.7,0.7c-4,0-7-2.5-7-7.2c0-4.4,3-7.4,7.4-7.4c1.8,0,2.9,0.4,3.4,0.6l-0.4,1.5
		c-0.7-0.3-1.7-0.6-2.9-0.6c-3.3,0-5.5,2.1-5.5,5.8c0,3.5,2,5.7,5.4,5.7c1.1,0,2.2-0.2,3-0.6L230.4,272.1z"/>
	<path class="st5" d="M232.6,257.6h1.8v14.9h-1.8V257.6z"/>
	<path class="st5" d="M246.8,267.4c0,3.8-2.6,5.4-5.1,5.4c-2.8,0-4.9-2-4.9-5.2c0-3.4,2.2-5.4,5-5.4
		C244.8,262.1,246.8,264.3,246.8,267.4z M238.7,267.5c0,2.2,1.3,3.9,3.1,3.9c1.8,0,3.1-1.7,3.1-3.9c0-1.7-0.9-3.9-3-3.9
		S238.7,265.5,238.7,267.5z"/>
	<path class="st5" d="M257.6,269.8c0,1,0,2,0.1,2.8h-1.6l-0.1-1.7h0c-0.5,0.8-1.6,1.9-3.4,1.9c-1.6,0-3.5-0.9-3.5-4.5v-5.9h1.8v5.6
		c0,1.9,0.6,3.2,2.3,3.2c1.2,0,2.1-0.9,2.4-1.7c0.1-0.3,0.2-0.6,0.2-0.9v-6.2h1.8V269.8z"/>
	<path class="st5" d="M269.5,257.6v12.3c0,0.9,0,1.9,0.1,2.6h-1.7l-0.1-1.8h0c-0.6,1.1-1.8,2-3.5,2c-2.5,0-4.3-2.1-4.3-5.2
		c0-3.4,2.1-5.5,4.6-5.5c1.6,0,2.6,0.7,3.1,1.6h0v-6.1H269.5z M267.6,266.5c0-0.2,0-0.5-0.1-0.8c-0.3-1.2-1.3-2.1-2.7-2.1
		c-1.9,0-3,1.7-3,3.9c0,2.1,1,3.8,3,3.8c1.2,0,2.4-0.8,2.7-2.2c0.1-0.3,0.1-0.5,0.1-0.8V266.5z"/>
	<path class="st5" d="M279.8,269.8c2.3-0.2,4.3-0.4,5.8-0.7c0.2-0.1,0.4,0,0.6,0c0.1,0.1,0.2,0.2,0.2,0.3c0,0.1,0,0.2-0.1,0.4
		c-0.1,0.1-0.2,0.2-0.4,0.3c-1.6,0.3-3.5,0.6-5.8,0.7c-1.8,0.1-4.1,0.2-6.7,0.2c-0.2,0-0.4-0.1-0.5-0.2c-0.1-0.1-0.2-0.2-0.2-0.3
		c0-0.2,0.1-0.3,0.2-0.4c0.1-0.1,0.3-0.1,0.5-0.1C275.8,270,277.9,269.9,279.8,269.8z M282.8,258.3c0.8,0.8,1.3,1.8,1.3,2.9
		c0,1.1-0.4,2.1-1.3,2.9c-0.9,0.9-2.1,1.3-3.7,1.3c-1.6,0-2.8-0.4-3.8-1.3c-0.8-0.8-1.2-1.7-1.2-2.9c0-1.2,0.4-2.1,1.2-2.9
		c0.9-0.9,2.2-1.3,3.8-1.3C280.7,257,281.9,257.5,282.8,258.3z M276.3,259c-0.6,0.6-0.9,1.3-0.9,2.2s0.3,1.6,0.9,2.2
		c0.7,0.7,1.6,1,2.9,1c1.2,0,2.1-0.3,2.8-1c0.6-0.6,0.9-1.3,0.9-2.2s-0.3-1.6-0.9-2.2c-0.7-0.7-1.6-1-2.8-1
		C277.9,258,277,258.4,276.3,259z M287.9,273.4c-0.1,0.1-0.2,0.2-0.4,0.2c-0.2,0-0.3-0.1-0.4-0.2c-0.1-0.1-0.2-0.3-0.2-0.5V257
		c0-0.2,0.1-0.3,0.2-0.4c0.1-0.1,0.3-0.1,0.4-0.1c0.2,0,0.3,0,0.4,0.1c0.1,0.1,0.2,0.2,0.2,0.4v16
		C288.1,273.1,288,273.3,287.9,273.4z"/>
	<path class="st5" d="M306,256.9c0.1-0.1,0.2-0.1,0.4-0.1s0.3,0,0.4,0.1c0.1,0.1,0.2,0.3,0.2,0.5c0,0.4,0,0.8-0.1,1.2
		c-0.1,0.2-0.2,0.6-0.3,1l0,0.2c1.2,0.6,2.1,1.3,3,2c0.7,0.6,1.4,1.4,2.2,2.5c0.1,0.2,0.2,0.4,0.2,0.5c0,0.2-0.1,0.3-0.2,0.4
		c-0.1,0.1-0.3,0.1-0.4,0.1c-0.2,0-0.3-0.1-0.5-0.3c-0.7-1-1.4-1.8-2.1-2.4c-0.8-0.7-1.6-1.3-2.5-1.8c-0.6,1-1.1,1.8-1.7,2.4
		c-0.7,0.8-1.5,1.6-2.5,2.4c-0.2,0.1-0.3,0.2-0.5,0.1c-0.2,0-0.3-0.1-0.3-0.2c-0.1-0.1-0.1-0.3-0.1-0.4c0-0.2,0.1-0.3,0.3-0.4
		c1.4-1,2.6-2.3,3.4-3.8c0.7-1.3,1-2.4,1-3.4C305.8,257.2,305.9,257,306,256.9z M315.6,266.9c0.3,0.3,0.5,0.6,0.5,1.1v0.9
		c0,0.4-0.2,0.8-0.5,1s-0.7,0.4-1.2,0.4h-9.7c-0.3,0-0.5,0.1-0.6,0.2c-0.1,0.1-0.1,0.3-0.1,0.5v0.8c0,0.2,0.1,0.3,0.2,0.4
		c0.1,0.1,0.3,0.1,0.5,0.1H316c0.2,0,0.3,0,0.5,0.1c0.1,0.1,0.2,0.2,0.2,0.4c0,0.1,0,0.3-0.1,0.4s-0.2,0.2-0.4,0.2h-11.7
		c-0.5,0-0.8-0.1-1.1-0.4c-0.3-0.3-0.5-0.6-0.5-1.1v-1.2c0-0.5,0.1-0.8,0.4-1.1s0.7-0.4,1.1-0.4h9.8c0.2,0,0.4,0,0.6-0.1
		c0.2-0.1,0.2-0.2,0.2-0.4v-0.6c0-0.2-0.1-0.4-0.2-0.5s-0.3-0.1-0.6-0.1h-10.7c-0.4,0-0.6-0.2-0.6-0.5c0-0.3,0.2-0.5,0.6-0.5h10.9
		C314.8,266.5,315.3,266.6,315.6,266.9z M315.9,265.2c-0.1,0.1-0.2,0.1-0.4,0.1c-0.2,0-0.3,0-0.4-0.1c-0.1-0.1-0.2-0.3-0.2-0.4V257
		c0-0.2,0.1-0.3,0.2-0.4c0.1-0.1,0.3-0.1,0.4-0.1c0.2,0,0.3,0,0.4,0.1c0.1,0.1,0.2,0.2,0.2,0.4v7.8
		C316.1,264.9,316,265.1,315.9,265.2z"/>
	<path class="st5" d="M330.7,257.6c0,0.4-0.2,0.5-0.5,0.5h-2.8v3.6c0,2.2,0.4,4.1,1.2,5.9c0.6,1.4,1.5,2.5,2.5,3.5
		c0.2,0.1,0.2,0.3,0.2,0.5c0,0.2-0.1,0.3-0.2,0.4c-0.1,0.1-0.3,0.2-0.4,0.2c-0.2,0-0.3,0-0.5-0.1c-0.8-0.8-1.5-1.7-2.1-2.9
		c-0.7-1.2-1.1-2.5-1.3-3.7c-0.2,1.3-0.7,2.5-1.4,3.7c-0.7,1.2-1.4,2.1-2.3,2.9c-0.2,0.1-0.3,0.2-0.5,0.2c-0.2,0-0.3-0.1-0.4-0.2
		c-0.1-0.1-0.2-0.2-0.1-0.4s0.1-0.3,0.3-0.5c1-0.9,1.8-2.1,2.5-3.4c0.8-1.8,1.3-3.8,1.3-5.9v-3.6h-2.8c-0.4,0-0.6-0.2-0.6-0.5
		c0-0.3,0.2-0.5,0.6-0.5h6.8C330.6,257.1,330.7,257.2,330.7,257.6z M332.7,256.6c0.1-0.1,0.3-0.1,0.4-0.1c0.2,0,0.3,0,0.4,0.1
		c0.1,0.1,0.2,0.2,0.2,0.4v16c0,0.2-0.1,0.3-0.2,0.5c-0.1,0.1-0.2,0.2-0.4,0.2c-0.2,0-0.3-0.1-0.4-0.2c-0.1-0.1-0.2-0.3-0.2-0.5
		v-8.3h-2.8c-0.2,0-0.4-0.1-0.5-0.2c-0.1-0.1-0.2-0.2-0.2-0.3c0-0.2,0.1-0.3,0.2-0.4c0.1-0.1,0.3-0.2,0.5-0.2h2.8V257
		C332.5,256.8,332.6,256.7,332.7,256.6z M337.4,273.4c-0.1,0.1-0.2,0.2-0.4,0.2c-0.2,0-0.3-0.1-0.4-0.2c-0.1-0.1-0.2-0.3-0.2-0.5
		V257c0-0.2,0.1-0.3,0.2-0.4c0.1-0.1,0.2-0.1,0.4-0.1c0.2,0,0.3,0,0.4,0.1c0.1,0.1,0.2,0.2,0.2,0.4v16
		C337.6,273.1,337.6,273.3,337.4,273.4z"/>
	<path class="st5" d="M358.8,258.5c0.8,0.9,1.2,2,1.2,3.4s-0.4,2.5-1.2,3.4c-0.9,1-2,1.5-3.5,1.5c-1.5,0-2.7-0.5-3.5-1.5
		c-0.8-0.9-1.2-2.1-1.2-3.4c0-1.3,0.4-2.5,1.2-3.4c0.9-1,2.1-1.5,3.5-1.5C356.8,257,357.9,257.5,358.8,258.5z M352.7,259.2
		c-0.6,0.7-0.8,1.6-0.8,2.7s0.3,2,0.8,2.7c0.6,0.8,1.5,1.2,2.6,1.2c1.1,0,2-0.4,2.6-1.2c0.6-0.7,0.9-1.6,0.9-2.7s-0.3-2-0.9-2.7
		c-0.6-0.8-1.5-1.2-2.6-1.2C354.2,258,353.3,258.4,352.7,259.2z M353.1,271.1c0,0.4,0.1,0.6,0.2,0.8c0.1,0.1,0.4,0.2,0.8,0.2h11.1
		c0.3,0,0.5,0.2,0.5,0.5c0,0.4-0.2,0.5-0.5,0.5h-11.3c-0.6,0-1.1-0.2-1.5-0.5c-0.4-0.3-0.6-0.8-0.6-1.4v-2.7c0-0.2,0.1-0.4,0.2-0.5
		c0.1-0.1,0.3-0.2,0.4-0.2c0.2,0,0.3,0.1,0.4,0.2c0.1,0.1,0.2,0.3,0.2,0.5V271.1z M364.9,268.8c-0.1,0.1-0.2,0.2-0.4,0.2
		c-0.2,0-0.3-0.1-0.4-0.2c-0.1-0.1-0.2-0.3-0.2-0.5V257c0-0.2,0.1-0.3,0.2-0.4c0.1-0.1,0.3-0.1,0.4-0.1c0.2,0,0.3,0,0.4,0.1
		c0.1,0.1,0.2,0.2,0.2,0.4v11.3C365.1,268.5,365,268.7,364.9,268.8z"/>
	<path class="st5" d="M387.9,271.3c0.1,0.1,0.2,0.2,0.2,0.4c0,0.1,0,0.3-0.1,0.4s-0.2,0.2-0.3,0.2h-16.2c-0.2,0-0.3-0.1-0.3-0.2
		s-0.1-0.2-0.1-0.4s0.1-0.3,0.2-0.4c0.1-0.1,0.3-0.1,0.5-0.1h15.9C387.6,271.1,387.8,271.2,387.9,271.3z M386.6,265.6
		c0,0.4-0.2,0.5-0.5,0.5h-13.4c-0.3,0-0.5-0.2-0.5-0.5c0-0.3,0.2-0.5,0.5-0.5h2.5l-0.6-5.6c0-0.2,0-0.3,0.1-0.5
		c0.1-0.1,0.2-0.2,0.4-0.2s0.3,0,0.4,0.1c0.1,0.1,0.2,0.2,0.2,0.4l0.6,5.7h5.7l0.7-5.7c0-0.2,0.1-0.3,0.2-0.4
		c0.1-0.1,0.3-0.1,0.4-0.1s0.3,0.1,0.4,0.2c0.1,0.1,0.2,0.3,0.2,0.5l-0.6,5.6h2.5C386.5,265.1,386.6,265.3,386.6,265.6z
		 M386.5,257.1c0.1,0.1,0.1,0.2,0.1,0.4c0,0.1,0,0.3-0.1,0.3c-0.1,0.1-0.2,0.2-0.4,0.2h-13.2c-0.4,0-0.6-0.2-0.6-0.5
		c0-0.4,0.2-0.5,0.6-0.5H386C386.2,257,386.4,257,386.5,257.1z"/>
	<path class="st5" d="M400.7,257.4c0.4,0.3,0.5,0.7,0.5,1.2v4c0,0.5-0.2,0.9-0.5,1.2c-0.3,0.3-0.8,0.4-1.4,0.4h-4.4
		c-0.3,0-0.6,0.1-0.7,0.2c-0.1,0.2-0.2,0.4-0.2,0.8v4.6c0,0.4,0.1,0.6,0.2,0.8c0.2,0.2,0.5,0.3,0.9,0.3c1.6,0,3.1-0.1,4.6-0.4
		c1.4-0.3,2.6-0.6,3.6-1.1c0.4-0.2,0.6-0.1,0.7,0.2c0.2,0.3,0.1,0.6-0.3,0.8c-1.1,0.5-2.5,0.9-4.2,1.1c-1.5,0.2-3.1,0.4-4.7,0.4
		c-0.7,0-1.2-0.2-1.5-0.6c-0.3-0.4-0.5-0.8-0.5-1.5V265c0-0.6,0.2-1,0.5-1.4c0.3-0.4,0.8-0.5,1.4-0.5h4.4c0.3,0,0.6-0.1,0.7-0.2
		c0.1-0.1,0.2-0.3,0.2-0.6v-3.5c0-0.3-0.1-0.5-0.3-0.6c-0.2-0.1-0.5-0.2-0.9-0.2h-5.5c-0.4,0-0.6-0.2-0.6-0.5c0-0.3,0.2-0.5,0.7-0.5
		h5.9C399.9,257,400.3,257.2,400.7,257.4z M408.7,264.5c0.3,0,0.5,0.2,0.5,0.5c0,0.3-0.2,0.5-0.5,0.5h-2.3v7.5
		c0,0.2-0.1,0.3-0.2,0.4c-0.1,0.1-0.2,0.2-0.4,0.2s-0.3-0.1-0.4-0.2c-0.1-0.1-0.2-0.3-0.2-0.4v-16c0-0.2,0.1-0.3,0.2-0.4
		c0.1-0.1,0.2-0.1,0.4-0.1s0.3,0,0.4,0.1c0.1,0.1,0.2,0.3,0.2,0.4v7.5H408.7z"/>
</g>
<g class="st4">
	<path class="st5" d="M218.6,13.4c0.8,0.9,1.2,2,1.2,3.4s-0.4,2.5-1.2,3.4c-0.9,1-2,1.5-3.5,1.5c-1.5,0-2.7-0.5-3.5-1.5
		c-0.8-0.9-1.2-2.1-1.2-3.4c0-1.3,0.4-2.5,1.2-3.4c0.9-1,2.1-1.5,3.5-1.5C216.6,11.9,217.7,12.4,218.6,13.4z M212.5,14.2
		c-0.6,0.7-0.8,1.6-0.8,2.7s0.3,2,0.8,2.7c0.6,0.8,1.5,1.2,2.6,1.2c1.1,0,2-0.4,2.6-1.2c0.6-0.7,0.9-1.6,0.9-2.7s-0.3-2-0.9-2.7
		c-0.6-0.8-1.5-1.2-2.6-1.2C214,13,213.1,13.4,212.5,14.2z M212.9,26.1c0,0.4,0.1,0.6,0.2,0.8c0.1,0.1,0.4,0.2,0.8,0.2H225
		c0.3,0,0.5,0.2,0.5,0.5c0,0.4-0.2,0.5-0.5,0.5h-11.3c-0.6,0-1.1-0.2-1.5-0.5c-0.4-0.3-0.6-0.8-0.6-1.4v-2.7c0-0.2,0.1-0.4,0.2-0.5
		c0.1-0.1,0.3-0.2,0.4-0.2c0.2,0,0.3,0.1,0.4,0.2c0.1,0.1,0.2,0.3,0.2,0.5V26.1z M224.7,23.7c-0.1,0.1-0.2,0.2-0.4,0.2
		c-0.2,0-0.3-0.1-0.4-0.2c-0.1-0.1-0.2-0.3-0.2-0.5V12c0-0.2,0.1-0.3,0.2-0.4c0.1-0.1,0.3-0.1,0.4-0.1c0.2,0,0.3,0,0.4,0.1
		c0.1,0.1,0.2,0.2,0.2,0.4v11.3C224.9,23.5,224.8,23.6,224.7,23.7z"/>
	<path class="st5" d="M247.7,26.2c0.1,0.1,0.2,0.2,0.2,0.4c0,0.1,0,0.3-0.1,0.4s-0.2,0.2-0.3,0.2h-16.2c-0.2,0-0.3-0.1-0.3-0.2
		s-0.1-0.2-0.1-0.4s0.1-0.3,0.2-0.4c0.1-0.1,0.3-0.1,0.5-0.1h15.9C247.4,26.1,247.6,26.1,247.7,26.2z M246.4,20.6
		c0,0.4-0.2,0.5-0.5,0.5h-13.4c-0.3,0-0.5-0.2-0.5-0.5c0-0.3,0.2-0.5,0.5-0.5h2.5l-0.6-5.6c0-0.2,0-0.3,0.1-0.5
		c0.1-0.1,0.2-0.2,0.4-0.2s0.3,0,0.4,0.1c0.1,0.1,0.2,0.2,0.2,0.4l0.6,5.7h5.7l0.7-5.7c0-0.2,0.1-0.3,0.2-0.4
		c0.1-0.1,0.3-0.1,0.4-0.1s0.3,0.1,0.4,0.2c0.1,0.1,0.2,0.3,0.2,0.5l-0.6,5.6h2.5C246.3,20.1,246.4,20.3,246.4,20.6z M246.3,12.1
		c0.1,0.1,0.1,0.2,0.1,0.4c0,0.1,0,0.3-0.1,0.3c-0.1,0.1-0.2,0.2-0.4,0.2h-13.2c-0.4,0-0.6-0.2-0.6-0.5c0-0.4,0.2-0.5,0.6-0.5h13.1
		C246,11.9,246.2,12,246.3,12.1z"/>
	<path class="st5" d="M260.5,12.4c0.4,0.3,0.5,0.7,0.5,1.2v4c0,0.5-0.2,0.9-0.5,1.2c-0.3,0.3-0.8,0.4-1.4,0.4h-4.4
		c-0.3,0-0.6,0.1-0.7,0.2c-0.1,0.2-0.2,0.4-0.2,0.8v4.6c0,0.4,0.1,0.6,0.2,0.8c0.2,0.2,0.5,0.3,0.9,0.3c1.6,0,3.1-0.1,4.6-0.4
		c1.4-0.3,2.6-0.6,3.6-1.1c0.4-0.2,0.6-0.1,0.7,0.2c0.2,0.3,0.1,0.6-0.3,0.8c-1.1,0.5-2.5,0.9-4.2,1.1c-1.5,0.2-3.1,0.4-4.7,0.4
		c-0.7,0-1.2-0.2-1.5-0.6c-0.3-0.4-0.5-0.8-0.5-1.5V20c0-0.6,0.2-1,0.5-1.4c0.3-0.4,0.8-0.5,1.4-0.5h4.4c0.3,0,0.6-0.1,0.7-0.2
		c0.1-0.1,0.2-0.3,0.2-0.6v-3.5c0-0.3-0.1-0.5-0.3-0.6c-0.2-0.1-0.5-0.2-0.9-0.2h-5.5c-0.4,0-0.6-0.2-0.6-0.5c0-0.3,0.2-0.5,0.7-0.5
		h5.9C259.7,12,260.1,12.1,260.5,12.4z M268.6,19.5c0.3,0,0.5,0.2,0.5,0.5c0,0.3-0.2,0.5-0.5,0.5h-2.3v7.5c0,0.2-0.1,0.3-0.2,0.4
		c-0.1,0.1-0.2,0.2-0.4,0.2s-0.3-0.1-0.4-0.2c-0.1-0.1-0.2-0.3-0.2-0.4v-16c0-0.2,0.1-0.3,0.2-0.4c0.1-0.1,0.2-0.1,0.4-0.1
		s0.3,0,0.4,0.1c0.1,0.1,0.2,0.3,0.2,0.4v7.5H268.6z"/>
	<path class="st5" d="M289.6,14.8c0.1,0.1,0.2,0.2,0.2,0.4c0,0.1,0,0.3-0.1,0.3c-0.1,0.1-0.3,0.2-0.4,0.2h-9.8
		c-0.4,0-0.6-0.2-0.6-0.5s0.2-0.5,0.6-0.5h9.8C289.3,14.7,289.5,14.7,289.6,14.8z M287.9,18.8c0.8,0.9,1.2,2.1,1.2,3.4
		s-0.4,2.4-1.2,3.4c-0.9,1-2.1,1.5-3.6,1.5c-1.5,0-2.7-0.5-3.6-1.5c-0.8-0.9-1.2-2.1-1.2-3.4c0-1.3,0.4-2.4,1.2-3.4
		c0.9-1,2.1-1.5,3.6-1.5C285.8,17.3,287,17.8,287.9,18.8z M281.6,19.5c-0.6,0.7-0.9,1.6-0.9,2.6c0,1,0.3,1.9,0.9,2.6
		c0.7,0.8,1.6,1.2,2.7,1.2c1.1,0,2-0.4,2.7-1.2c0.6-0.7,0.9-1.6,0.9-2.6c0-1.1-0.3-1.9-0.9-2.6c-0.7-0.8-1.6-1.2-2.7-1.2
		C283.2,18.3,282.3,18.7,281.6,19.5z M287.5,12.3c0,0.4-0.2,0.5-0.5,0.5h-5.4c-0.4,0-0.6-0.2-0.6-0.5c0-0.3,0.2-0.5,0.6-0.5h5.4
		C287.3,11.8,287.5,11.9,287.5,12.3z M295.4,19.5c0.3,0,0.5,0.2,0.5,0.5c0,0.3-0.2,0.5-0.5,0.5h-2.3v7.5c0,0.2-0.1,0.3-0.2,0.4
		c-0.1,0.1-0.2,0.2-0.4,0.2s-0.3-0.1-0.4-0.2c-0.1-0.1-0.2-0.3-0.2-0.4v-16c0-0.2,0.1-0.3,0.2-0.4c0.1-0.1,0.2-0.1,0.4-0.1
		s0.3,0,0.4,0.1c0.1,0.1,0.2,0.3,0.2,0.4v7.5H295.4z"/>
	<path class="st5" d="M308.4,14.2c0.8,1.4,1.2,3.1,1.2,5.3c0,2.1-0.4,3.8-1.2,5.2c-0.8,1.5-2,2.3-3.5,2.3c-1.5,0-2.7-0.8-3.5-2.3
		c-0.8-1.4-1.2-3.1-1.2-5.2c0-2.1,0.4-3.9,1.2-5.3c0.9-1.5,2-2.3,3.5-2.3C306.4,11.9,307.6,12.7,308.4,14.2z M302.3,14.9
		c-0.6,1.2-0.9,2.7-0.9,4.5c0,1.8,0.3,3.3,0.9,4.5c0.6,1.3,1.5,2,2.6,2c1.1,0,2-0.7,2.6-2c0.6-1.2,0.9-2.7,0.9-4.5
		c0-1.8-0.3-3.3-0.9-4.5c-0.6-1.3-1.5-1.9-2.6-1.9C303.8,13,302.9,13.6,302.3,14.9z M314.5,28.4c-0.1,0.1-0.2,0.2-0.4,0.2
		c-0.2,0-0.3-0.1-0.4-0.2c-0.1-0.1-0.2-0.3-0.2-0.5v-16c0-0.2,0.1-0.3,0.2-0.4c0.1-0.1,0.3-0.1,0.4-0.1c0.2,0,0.3,0,0.4,0.1
		c0.1,0.1,0.2,0.3,0.2,0.4v16C314.7,28.1,314.7,28.3,314.5,28.4z"/>
	<path class="st5" d="M337.5,26.2c0.1,0.1,0.2,0.2,0.2,0.4s-0.1,0.3-0.2,0.4s-0.3,0.2-0.4,0.2h-15.9c-0.4,0-0.6-0.2-0.6-0.5
		c0-0.3,0.2-0.5,0.6-0.5h15.9C337.3,26.1,337.4,26.1,337.5,26.2z M335,11.8c0.1-0.1,0.3-0.2,0.4-0.2c0.2,0,0.3,0,0.4,0.1
		c0.1,0.1,0.2,0.3,0.2,0.5v6.7c0,0.6-0.2,1-0.5,1.3c-0.3,0.3-0.8,0.5-1.5,0.5h-10c-0.6,0-1-0.1-1.4-0.4c-0.4-0.3-0.5-0.7-0.5-1.3
		v-6.7c0-0.2,0.1-0.4,0.2-0.5c0.1-0.1,0.3-0.1,0.4-0.1c0.2,0,0.3,0,0.4,0.1c0.1,0.1,0.2,0.3,0.2,0.5v2.5h11.4v-2.5
		C334.8,12,334.9,11.9,335,11.8z M323.4,15.8v2.9c0,0.3,0.1,0.6,0.2,0.7c0.2,0.1,0.4,0.2,0.8,0.2h9.4c0.4,0,0.6-0.1,0.8-0.2
		c0.2-0.1,0.2-0.4,0.2-0.7v-2.9H323.4z"/>
	<path class="st5" d="M350.3,12.4c0.4,0.3,0.5,0.7,0.5,1.2v4c0,0.5-0.2,0.9-0.5,1.2c-0.3,0.3-0.8,0.4-1.4,0.4h-4.4
		c-0.3,0-0.6,0.1-0.7,0.2c-0.1,0.2-0.2,0.4-0.2,0.8v4.6c0,0.4,0.1,0.6,0.2,0.8c0.2,0.2,0.5,0.3,0.9,0.3c1.6,0,3.1-0.1,4.6-0.4
		c1.4-0.3,2.6-0.6,3.6-1.1c0.4-0.2,0.6-0.1,0.7,0.2c0.2,0.3,0.1,0.6-0.3,0.8c-1.1,0.5-2.5,0.9-4.2,1.1c-1.5,0.2-3.1,0.4-4.7,0.4
		c-0.7,0-1.2-0.2-1.5-0.6c-0.3-0.4-0.5-0.8-0.5-1.5V20c0-0.6,0.2-1,0.5-1.4c0.3-0.4,0.8-0.5,1.4-0.5h4.4c0.3,0,0.6-0.1,0.7-0.2
		c0.1-0.1,0.2-0.3,0.2-0.6v-3.5c0-0.3-0.1-0.5-0.3-0.6c-0.2-0.1-0.5-0.2-0.9-0.2H343c-0.4,0-0.6-0.2-0.6-0.5c0-0.3,0.2-0.5,0.7-0.5
		h5.9C349.5,12,350,12.1,350.3,12.4z M356.5,28.4c-0.1,0.1-0.2,0.2-0.4,0.2c-0.2,0-0.3-0.1-0.4-0.2c-0.1-0.1-0.2-0.3-0.2-0.5v-16
		c0-0.2,0.1-0.3,0.2-0.4c0.1-0.1,0.3-0.1,0.4-0.1c0.2,0,0.3,0,0.4,0.1c0.1,0.1,0.2,0.3,0.2,0.4v16C356.7,28.1,356.7,28.3,356.5,28.4
		z"/>
	<path class="st5" d="M372.6,12.5c0,0.4-0.2,0.5-0.6,0.5h-6.4c-0.3,0-0.6,0.1-0.7,0.2c-0.1,0.2-0.2,0.4-0.2,0.8v10.5
		c0,0.4,0.1,0.7,0.3,0.9c0.2,0.2,0.5,0.3,0.8,0.3c1.6,0,3.1-0.2,4.5-0.5c1.5-0.3,2.7-0.7,3.7-1.3c0.2-0.1,0.3-0.1,0.5-0.1
		c0.1,0,0.2,0.1,0.3,0.3c0.1,0.1,0.1,0.3,0,0.5c-0.1,0.2-0.2,0.3-0.3,0.4c-1.1,0.6-2.4,1-4,1.3c-1.4,0.3-3,0.4-4.7,0.4
		c-0.8,0-1.3-0.2-1.7-0.6c-0.4-0.4-0.6-0.9-0.6-1.6V14c0-0.6,0.2-1.1,0.5-1.4c0.4-0.4,0.9-0.6,1.5-0.6h6.4
		C372.4,12,372.6,12.2,372.6,12.5z M377.5,28.4c-0.1,0.1-0.2,0.2-0.4,0.2c-0.2,0-0.3-0.1-0.4-0.2c-0.1-0.1-0.2-0.3-0.2-0.5v-16
		c0-0.2,0.1-0.3,0.2-0.4c0.1-0.1,0.3-0.1,0.4-0.1c0.2,0,0.3,0,0.4,0.1c0.1,0.1,0.2,0.3,0.2,0.4v16C377.7,28.1,377.7,28.3,377.5,28.4
		z"/>
	<path class="st5" d="M393.7,12.2c0.1,0.1,0.2,0.2,0.2,0.4s-0.1,0.3-0.2,0.4c-0.1,0.1-0.3,0.2-0.5,0.2h-6.7c-0.3,0-0.5,0.1-0.7,0.2
		c-0.1,0.2-0.2,0.4-0.2,0.7v4.2h7.2c0.4,0,0.6,0.2,0.6,0.5c0,0.4-0.2,0.5-0.6,0.5h-7.2v5.4c0,0.5,0.1,0.8,0.2,0.9
		c0.1,0.2,0.4,0.3,0.7,0.3c1.6,0,3.2-0.1,4.7-0.3c1.6-0.2,2.9-0.5,4-0.9c0.2-0.1,0.4-0.1,0.5,0c0.1,0.1,0.2,0.2,0.3,0.3
		c0.1,0.1,0.1,0.3,0,0.4c-0.1,0.1-0.2,0.2-0.3,0.3c-1.1,0.4-2.6,0.7-4.3,1c-1.7,0.2-3.3,0.4-4.9,0.4c-0.7,0-1.2-0.2-1.6-0.6
		c-0.3-0.4-0.5-0.9-0.5-1.5V14c0-0.6,0.2-1.1,0.5-1.4c0.4-0.4,0.9-0.6,1.6-0.6h6.7C393.5,12,393.6,12.1,393.7,12.2z M398.5,28.4
		c-0.1,0.1-0.2,0.2-0.4,0.2c-0.2,0-0.3-0.1-0.4-0.2c-0.1-0.1-0.2-0.3-0.2-0.5v-16c0-0.2,0.1-0.3,0.2-0.4c0.1-0.1,0.3-0.1,0.4-0.1
		c0.2,0,0.3,0,0.4,0.1c0.1,0.1,0.2,0.3,0.2,0.4v16C398.7,28.1,398.7,28.3,398.5,28.4z"/>
</g>
<g class="st4">
	<path class="st5" d="M165,61.5l-5-12.9h1.8l3.3,9.4c0.3,0.8,0.5,1.5,0.7,2.1c0.2-0.7,0.4-1.4,0.7-2.1l3.5-9.4h1.7l-5,12.9H165z"/>
	<path class="st5" d="M173.2,61.5V48.6h2.6l3,9.1c0.3,0.8,0.5,1.5,0.6,1.9c0.1-0.5,0.4-1.2,0.7-2.1l3.1-9h2.3v12.9h-1.6V50.7
		l-3.7,10.8h-1.5l-3.7-11v11H173.2z"/>
	<path class="st5" d="M189.8,61.5l-2.9-9.3h1.6l1.5,5.4l0.6,2c0-0.1,0.2-0.7,0.5-1.9l1.5-5.5h1.6l1.4,5.4l0.5,1.8l0.5-1.8l1.6-5.4
		h1.5l-2.9,9.3h-1.6l-1.5-5.6l-0.4-1.6l-1.9,7.2H189.8z"/>
	<path class="st5" d="M207.2,60.3c-0.6,0.5-1.1,0.8-1.7,1.1s-1.1,0.3-1.7,0.3c-1,0-1.8-0.3-2.4-0.8c-0.6-0.5-0.8-1.1-0.8-1.9
		c0-0.5,0.1-0.9,0.3-1.3c0.2-0.4,0.5-0.7,0.8-0.9s0.7-0.4,1.1-0.5c0.3-0.1,0.8-0.2,1.4-0.2c1.3-0.2,2.2-0.3,2.8-0.5
		c0-0.2,0-0.4,0-0.4c0-0.6-0.1-1.1-0.4-1.4c-0.4-0.4-1-0.5-1.8-0.5c-0.7,0-1.3,0.1-1.6,0.4s-0.6,0.7-0.8,1.4l-1.5-0.2
		c0.1-0.7,0.4-1.2,0.7-1.6c0.3-0.4,0.8-0.7,1.4-0.9c0.6-0.2,1.3-0.3,2.1-0.3c0.8,0,1.4,0.1,1.9,0.3s0.9,0.4,1.1,0.7
		c0.2,0.3,0.4,0.6,0.5,1.1c0.1,0.3,0.1,0.8,0.1,1.5v2.1c0,1.5,0,2.4,0.1,2.8c0.1,0.4,0.2,0.8,0.4,1.1h-1.7
		C207.3,61.2,207.2,60.8,207.2,60.3z M207,56.8c-0.6,0.2-1.4,0.4-2.6,0.6c-0.7,0.1-1.1,0.2-1.4,0.3s-0.5,0.3-0.6,0.5
		s-0.2,0.5-0.2,0.8c0,0.4,0.2,0.8,0.5,1.1s0.8,0.4,1.4,0.4c0.6,0,1.2-0.1,1.6-0.4s0.8-0.6,1-1.1c0.2-0.4,0.3-0.9,0.3-1.6V56.8z"/>
	<path class="st5" d="M211.1,61.5v-9.3h1.4v1.4c0.4-0.7,0.7-1.1,1-1.3s0.6-0.3,1-0.3c0.5,0,1.1,0.2,1.6,0.5l-0.5,1.5
		c-0.4-0.2-0.8-0.3-1.2-0.3c-0.3,0-0.7,0.1-0.9,0.3s-0.5,0.5-0.6,0.9c-0.2,0.6-0.3,1.2-0.3,1.8v4.9H211.1z"/>
	<path class="st5" d="M223.5,58.5l1.6,0.2c-0.3,1-0.7,1.7-1.4,2.2s-1.6,0.8-2.7,0.8c-1.4,0-2.4-0.4-3.2-1.3c-0.8-0.8-1.2-2-1.2-3.5
		c0-1.6,0.4-2.8,1.2-3.7s1.9-1.3,3.1-1.3c1.2,0,2.3,0.4,3.1,1.3s1.2,2,1.2,3.6c0,0.1,0,0.2,0,0.4h-7c0.1,1,0.3,1.8,0.9,2.4
		s1.2,0.8,2,0.8c0.6,0,1.1-0.2,1.5-0.5S223.2,59.2,223.5,58.5z M218.3,55.9h5.2c-0.1-0.8-0.3-1.4-0.6-1.8c-0.5-0.6-1.2-0.9-2-0.9
		c-0.7,0-1.3,0.2-1.8,0.7S218.3,55.1,218.3,55.9z"/>
	<path class="st5" d="M232.3,61.5V48.6h1.7v5.3h6.7v-5.3h1.7v12.9h-1.7v-6.1H234v6.1H232.3z"/>
	<path class="st5" d="M245,65.1l-0.2-1.5c0.3,0.1,0.6,0.1,0.9,0.1c0.4,0,0.6-0.1,0.8-0.2s0.4-0.3,0.5-0.5c0.1-0.2,0.3-0.6,0.5-1.2
		c0-0.1,0.1-0.2,0.1-0.4l-3.5-9.4h1.7l1.9,5.4c0.3,0.7,0.5,1.4,0.7,2.2c0.2-0.7,0.4-1.4,0.7-2.1l2-5.4h1.6l-3.6,9.5
		c-0.4,1-0.7,1.7-0.9,2.1c-0.3,0.5-0.6,0.9-1,1.1c-0.4,0.2-0.8,0.4-1.3,0.4C245.7,65.3,245.4,65.2,245,65.1z"/>
	<path class="st5" d="M255.5,61.5h-1.5V48.6h1.6v4.6c0.7-0.8,1.5-1.3,2.6-1.3c0.6,0,1.1,0.1,1.6,0.3s0.9,0.6,1.3,1
		c0.3,0.4,0.6,0.9,0.8,1.5s0.3,1.2,0.3,1.9c0,1.6-0.4,2.8-1.2,3.7s-1.7,1.3-2.8,1.3c-1.1,0-2-0.5-2.6-1.4V61.5z M255.5,56.8
		c0,1.1,0.2,1.9,0.5,2.4c0.5,0.8,1.2,1.2,2,1.2c0.7,0,1.3-0.3,1.8-0.9s0.8-1.5,0.8-2.7c0-1.2-0.2-2.1-0.7-2.7s-1.1-0.9-1.8-0.9
		c-0.7,0-1.3,0.3-1.8,0.9C255.8,54.8,255.5,55.6,255.5,56.8z"/>
	<path class="st5" d="M264.1,61.5v-9.3h1.4v1.4c0.4-0.7,0.7-1.1,1-1.3s0.6-0.3,1-0.3c0.5,0,1.1,0.2,1.6,0.5l-0.5,1.5
		c-0.4-0.2-0.8-0.3-1.2-0.3c-0.3,0-0.7,0.1-0.9,0.3s-0.5,0.5-0.6,0.9c-0.2,0.6-0.3,1.2-0.3,1.8v4.9H264.1z"/>
	<path class="st5" d="M270.1,50.4v-1.8h1.6v1.8H270.1z M270.1,61.5v-9.3h1.6v9.3H270.1z"/>
	<path class="st5" d="M280.1,61.5v-1.2c-0.6,0.9-1.5,1.4-2.6,1.4c-0.7,0-1.4-0.2-2.1-0.6s-1.1-1-1.5-1.7c-0.3-0.7-0.5-1.6-0.5-2.5
		c0-0.9,0.2-1.8,0.5-2.5s0.8-1.3,1.4-1.7s1.3-0.6,2.1-0.6c0.6,0,1.1,0.1,1.5,0.4c0.4,0.2,0.8,0.5,1.1,0.9v-4.6h1.6v12.9H280.1z
		 M275.1,56.8c0,1.2,0.3,2.1,0.8,2.7s1.1,0.9,1.8,0.9c0.7,0,1.3-0.3,1.8-0.8s0.7-1.4,0.7-2.6c0-1.3-0.2-2.2-0.7-2.8
		s-1.1-0.9-1.8-0.9c-0.7,0-1.3,0.3-1.8,0.9S275.1,55.6,275.1,56.8z"/>
	<path class="st5" d="M298.5,57l1.7,0.4c-0.4,1.4-1,2.5-1.9,3.2s-2.1,1.1-3.4,1.1c-1.4,0-2.5-0.3-3.4-0.8c-0.9-0.6-1.5-1.4-2-2.5
		s-0.7-2.2-0.7-3.5c0-1.3,0.3-2.5,0.8-3.5c0.5-1,1.2-1.8,2.2-2.3c0.9-0.5,2-0.8,3.1-0.8c1.3,0,2.4,0.3,3.3,1s1.5,1.6,1.8,2.8
		l-1.7,0.4c-0.3-0.9-0.7-1.6-1.3-2s-1.3-0.6-2.1-0.6c-1,0-1.8,0.2-2.5,0.7s-1.1,1.1-1.4,1.9c-0.3,0.8-0.4,1.6-0.4,2.5
		c0,1.1,0.2,2.1,0.5,2.9c0.3,0.8,0.8,1.4,1.5,1.8s1.4,0.6,2.2,0.6c1,0,1.8-0.3,2.4-0.8S298.3,58.1,298.5,57z"/>
	<path class="st5" d="M302.1,61.5V48.6h1.6v12.9H302.1z"/>
	<path class="st5" d="M305.5,56.8c0-1.7,0.5-3,1.4-3.8c0.8-0.7,1.8-1,2.9-1c1.3,0,2.3,0.4,3.1,1.3s1.2,2,1.2,3.5
		c0,1.2-0.2,2.1-0.5,2.8c-0.4,0.7-0.9,1.2-1.6,1.6s-1.4,0.6-2.3,0.6c-1.3,0-2.4-0.4-3.2-1.3S305.5,58.4,305.5,56.8z M307.1,56.8
		c0,1.2,0.3,2.1,0.8,2.7c0.5,0.6,1.2,0.9,2,0.9c0.8,0,1.4-0.3,2-0.9s0.8-1.5,0.8-2.7c0-1.2-0.3-2-0.8-2.6c-0.5-0.6-1.2-0.9-2-0.9
		c-0.8,0-1.4,0.3-2,0.9S307.1,55.6,307.1,56.8z"/>
	<path class="st5" d="M322.2,61.5v-1.4c-0.7,1.1-1.7,1.6-3,1.6c-0.6,0-1.1-0.1-1.5-0.3s-0.8-0.5-1.1-0.8s-0.4-0.7-0.5-1.2
		c-0.1-0.3-0.1-0.8-0.1-1.5v-5.8h1.6v5.2c0,0.8,0,1.4,0.1,1.7c0.1,0.4,0.3,0.7,0.6,1c0.3,0.2,0.7,0.4,1.2,0.4s0.9-0.1,1.3-0.4
		s0.7-0.6,0.9-1c0.2-0.4,0.3-1,0.3-1.8v-5h1.6v9.3H322.2z"/>
	<path class="st5" d="M332.2,61.5v-1.2c-0.6,0.9-1.5,1.4-2.6,1.4c-0.7,0-1.4-0.2-2.1-0.6s-1.1-1-1.5-1.7c-0.3-0.7-0.5-1.6-0.5-2.5
		c0-0.9,0.2-1.8,0.5-2.5s0.8-1.3,1.4-1.7s1.3-0.6,2.1-0.6c0.6,0,1.1,0.1,1.5,0.4c0.4,0.2,0.8,0.5,1.1,0.9v-4.6h1.6v12.9H332.2z
		 M327.2,56.8c0,1.2,0.3,2.1,0.8,2.7s1.1,0.9,1.8,0.9c0.7,0,1.3-0.3,1.8-0.8s0.7-1.4,0.7-2.6c0-1.3-0.2-2.2-0.7-2.8
		s-1.1-0.9-1.8-0.9c-0.7,0-1.3,0.3-1.8,0.9S327.2,55.6,327.2,56.8z"/>
	<path class="st5" d="M341.4,61.5V48.6h9.3v1.5h-7.6v3.9h7.1v1.5h-7.1V60h7.9v1.5H341.4z"/>
	<path class="st5" d="M352.1,61.5l3.4-4.9l-3.2-4.5h2l1.4,2.2c0.3,0.4,0.5,0.8,0.7,1c0.3-0.4,0.5-0.7,0.7-1l1.6-2.2h1.9l-3.2,4.4
		l3.5,4.9h-1.9l-1.9-2.9l-0.5-0.8l-2.5,3.7H352.1z"/>
	<path class="st5" d="M365.6,60.1l0.2,1.4c-0.4,0.1-0.8,0.1-1.2,0.1c-0.6,0-1-0.1-1.3-0.3s-0.5-0.4-0.7-0.7s-0.2-0.9-0.2-1.9v-5.4
		h-1.2v-1.2h1.2v-2.3l1.6-0.9v3.3h1.6v1.2H364v5.5c0,0.5,0,0.7,0.1,0.9s0.1,0.2,0.3,0.3s0.3,0.1,0.5,0.1
		C365.1,60.1,365.3,60.1,365.6,60.1z"/>
	<path class="st5" d="M373.5,58.5l1.6,0.2c-0.3,1-0.7,1.7-1.4,2.2s-1.6,0.8-2.7,0.8c-1.4,0-2.4-0.4-3.2-1.3c-0.8-0.8-1.2-2-1.2-3.5
		c0-1.6,0.4-2.8,1.2-3.7s1.9-1.3,3.1-1.3c1.2,0,2.3,0.4,3.1,1.3s1.2,2,1.2,3.6c0,0.1,0,0.2,0,0.4h-7c0.1,1,0.3,1.8,0.9,2.4
		s1.2,0.8,2,0.8c0.6,0,1.1-0.2,1.5-0.5S373.3,59.2,373.5,58.5z M368.3,55.9h5.2c-0.1-0.8-0.3-1.4-0.6-1.8c-0.5-0.6-1.2-0.9-2-0.9
		c-0.7,0-1.3,0.2-1.8,0.7S368.4,55.1,368.3,55.9z"/>
	<path class="st5" d="M377.2,61.5v-9.3h1.4v1.3c0.7-1,1.7-1.5,3-1.5c0.6,0,1.1,0.1,1.6,0.3c0.5,0.2,0.8,0.5,1.1,0.8s0.4,0.7,0.5,1.2
		c0.1,0.3,0.1,0.8,0.1,1.5v5.7h-1.6v-5.7c0-0.6-0.1-1.1-0.2-1.4s-0.3-0.6-0.7-0.8c-0.3-0.2-0.7-0.3-1.1-0.3c-0.7,0-1.3,0.2-1.7,0.6
		s-0.7,1.2-0.7,2.4v5.1H377.2z"/>
	<path class="st5" d="M386.5,58.7l1.6-0.2c0.1,0.6,0.3,1.1,0.7,1.4s1,0.5,1.7,0.5c0.7,0,1.3-0.1,1.6-0.4s0.5-0.6,0.5-1
		c0-0.4-0.2-0.6-0.5-0.8c-0.2-0.1-0.8-0.3-1.6-0.5c-1.2-0.3-2-0.5-2.4-0.8s-0.8-0.5-1-0.9c-0.2-0.4-0.3-0.8-0.3-1.3
		c0-0.4,0.1-0.8,0.3-1.2c0.2-0.4,0.4-0.6,0.8-0.9c0.2-0.2,0.6-0.3,1-0.5s0.9-0.2,1.4-0.2c0.7,0,1.4,0.1,1.9,0.3s1,0.5,1.2,0.9
		c0.3,0.4,0.4,0.8,0.5,1.4l-1.5,0.2c-0.1-0.5-0.3-0.9-0.6-1.1s-0.8-0.4-1.4-0.4c-0.7,0-1.2,0.1-1.6,0.4s-0.5,0.5-0.5,0.8
		c0,0.2,0.1,0.4,0.2,0.6c0.1,0.2,0.3,0.3,0.6,0.4c0.2,0.1,0.6,0.2,1.4,0.4c1.1,0.3,1.9,0.5,2.3,0.7s0.8,0.5,1,0.8s0.4,0.8,0.4,1.4
		c0,0.5-0.2,1-0.5,1.5c-0.3,0.5-0.8,0.8-1.3,1.1c-0.6,0.3-1.2,0.4-2,0.4c-1.2,0-2.1-0.3-2.8-0.8S386.7,59.7,386.5,58.7z"/>
	<path class="st5" d="M396.2,50.4v-1.8h1.6v1.8H396.2z M396.2,61.5v-9.3h1.6v9.3H396.2z"/>
	<path class="st5" d="M399.6,56.8c0-1.7,0.5-3,1.4-3.8c0.8-0.7,1.8-1,2.9-1c1.3,0,2.3,0.4,3.1,1.3s1.2,2,1.2,3.5
		c0,1.2-0.2,2.1-0.5,2.8c-0.4,0.7-0.9,1.2-1.6,1.6s-1.4,0.6-2.3,0.6c-1.3,0-2.4-0.4-3.2-1.3S399.6,58.4,399.6,56.8z M401.2,56.8
		c0,1.2,0.3,2.1,0.8,2.7c0.5,0.6,1.2,0.9,2,0.9c0.8,0,1.4-0.3,2-0.9s0.8-1.5,0.8-2.7c0-1.2-0.3-2-0.8-2.6c-0.5-0.6-1.2-0.9-2-0.9
		c-0.8,0-1.4,0.3-2,0.9S401.2,55.6,401.2,56.8z"/>
	<path class="st5" d="M410.2,61.5v-9.3h1.4v1.3c0.7-1,1.7-1.5,3-1.5c0.6,0,1.1,0.1,1.6,0.3c0.5,0.2,0.8,0.5,1.1,0.8s0.4,0.7,0.5,1.2
		c0.1,0.3,0.1,0.8,0.1,1.5v5.7h-1.6v-5.7c0-0.6-0.1-1.1-0.2-1.4s-0.3-0.6-0.7-0.8c-0.3-0.2-0.7-0.3-1.1-0.3c-0.7,0-1.3,0.2-1.7,0.6
		s-0.7,1.2-0.7,2.4v5.1H410.2z"/>
	<path class="st5" d="M423.2,65.3c-0.9-1.1-1.6-2.4-2.2-3.9s-0.9-3-0.9-4.6c0-1.4,0.2-2.7,0.7-4c0.5-1.5,1.3-3,2.4-4.4h1.1
		c-0.7,1.2-1.2,2.1-1.4,2.6c-0.4,0.8-0.6,1.7-0.8,2.5c-0.3,1.1-0.4,2.2-0.4,3.3c0,2.8,0.9,5.6,2.6,8.4H423.2z"/>
	<path class="st5" d="M426.4,61.5V48.6h1.7v5.3h6.7v-5.3h1.7v12.9h-1.7v-6.1h-6.7v6.1H426.4z"/>
	<path class="st5" d="M448.6,57l1.7,0.4c-0.4,1.4-1,2.5-1.9,3.2s-2.1,1.1-3.4,1.1c-1.4,0-2.5-0.3-3.4-0.8c-0.9-0.6-1.5-1.4-2-2.5
		s-0.7-2.2-0.7-3.5c0-1.3,0.3-2.5,0.8-3.5c0.5-1,1.2-1.8,2.2-2.3c0.9-0.5,2-0.8,3.1-0.8c1.3,0,2.4,0.3,3.3,1s1.5,1.6,1.8,2.8
		l-1.7,0.4c-0.3-0.9-0.7-1.6-1.3-2s-1.3-0.6-2.1-0.6c-1,0-1.8,0.2-2.5,0.7s-1.1,1.1-1.4,1.9c-0.3,0.8-0.4,1.6-0.4,2.5
		c0,1.1,0.2,2.1,0.5,2.9c0.3,0.8,0.8,1.4,1.5,1.8s1.4,0.6,2.2,0.6c1,0,1.8-0.3,2.4-0.8S448.3,58.1,448.6,57z"/>
	<path class="st5" d="M451.1,61.5l5-6.7l-4.4-6.2h2l2.3,3.3c0.5,0.7,0.8,1.2,1,1.6c0.3-0.5,0.6-1,1-1.5l2.6-3.4h1.9l-4.5,6.1
		l4.9,6.8h-2.1l-3.2-4.6c-0.2-0.3-0.4-0.6-0.6-0.9c-0.3,0.5-0.5,0.8-0.6,1l-3.2,4.5H451.1z"/>
	<path class="st5" d="M465.2,65.3h-1.1c1.8-2.8,2.6-5.6,2.6-8.4c0-1.1-0.1-2.2-0.4-3.3c-0.2-0.9-0.5-1.7-0.8-2.5
		c-0.2-0.5-0.7-1.4-1.4-2.6h1.1c1.1,1.5,1.9,2.9,2.4,4.4c0.5,1.3,0.7,2.6,0.7,4c0,1.6-0.3,3.1-0.9,4.6S466.1,64.2,465.2,65.3z"/>
</g>
<g class="st4">
	<path class="st5" d="M289.5,302.3c0.1,0.1,0.1,0.2,0.1,0.3s0,0.2-0.1,0.3s-0.2,0.1-0.4,0.1h-13.7c-0.4,0-0.5-0.2-0.5-0.5
		c0-0.3,0.2-0.4,0.5-0.4h13.6C289.3,302.2,289.4,302.2,289.5,302.3z M282,289.9c0.1-0.1,0.2-0.1,0.4-0.1c0.1,0,0.2,0,0.3,0.1
		c0.1,0.1,0.2,0.3,0.2,0.5c0,1.8,0.6,3.3,1.8,4.6c1.1,1.1,2.3,1.8,3.9,2.1c0.2,0,0.3,0.1,0.4,0.2c0.1,0.1,0.1,0.2,0.1,0.4
		c0,0.1-0.1,0.2-0.2,0.3c-0.1,0.1-0.3,0.1-0.5,0.1c-1.4-0.3-2.6-0.9-3.8-2c-1.1-1-1.8-2.1-2.2-3.3c-0.4,1.2-1.1,2.3-2.2,3.3
		c-1.2,1.1-2.4,1.7-3.9,2c-0.2,0-0.3,0-0.4-0.1c-0.1-0.1-0.2-0.2-0.2-0.3c0-0.1,0-0.2,0.1-0.3c0.1-0.1,0.2-0.2,0.4-0.2
		c1.5-0.3,2.7-1,3.8-2.1c1.3-1.3,1.9-2.8,1.9-4.7C281.8,290.1,281.9,290,282,289.9z"/>
	<path class="st5" d="M300,298.4c0.1-0.1,0.2-0.1,0.4-0.1c0.1,0,0.2,0,0.3,0.1c0.1,0.1,0.2,0.2,0.2,0.4v3.4h6.3c0.2,0,0.3,0,0.4,0.1
		c0.1,0.1,0.1,0.2,0.1,0.3s0,0.2-0.1,0.3s-0.2,0.1-0.4,0.1h-13.8c-0.1,0-0.2,0-0.3-0.1s-0.1-0.2-0.1-0.3s0.1-0.2,0.1-0.3
		c0.1-0.1,0.2-0.1,0.4-0.1h6.3v-3.4C299.8,298.6,299.9,298.5,300,298.4z M306.3,290.2c0.1,0.1,0.1,0.2,0.1,0.3c0,0.1,0,0.2-0.1,0.3
		c-0.1,0.1-0.2,0.2-0.3,0.2h-9.7c-0.3,0-0.5,0.1-0.7,0.2c-0.1,0.1-0.2,0.3-0.2,0.6v2h10.3c0.3,0,0.5,0.1,0.5,0.4
		c0,0.3-0.2,0.5-0.5,0.5h-10.3v2.3c0,0.2,0.1,0.4,0.2,0.5c0.1,0.1,0.3,0.2,0.6,0.2h9.7c0.2,0,0.3,0,0.4,0.1c0.1,0.1,0.1,0.2,0.1,0.3
		c0,0.1,0,0.2-0.1,0.3s-0.2,0.1-0.3,0.1h-9.9c-0.5,0-0.9-0.1-1.2-0.4s-0.4-0.6-0.4-1.1v-5.3c0-0.5,0.1-0.8,0.4-1.1
		c0.3-0.3,0.7-0.5,1.3-0.5h9.8C306.1,290,306.2,290.1,306.3,290.2z"/>
	<path class="st5" d="M318.5,290.4c0.3,0.2,0.5,0.6,0.5,1v3.4c0,0.4-0.1,0.8-0.4,1c-0.3,0.2-0.7,0.4-1.2,0.4h-3.7
		c-0.3,0-0.5,0.1-0.6,0.2c-0.1,0.1-0.2,0.3-0.2,0.7v3.9c0,0.3,0.1,0.6,0.2,0.7c0.1,0.2,0.4,0.2,0.7,0.2c1.3,0,2.7-0.1,3.9-0.4
		c1.2-0.2,2.3-0.5,3.1-0.9c0.3-0.2,0.5-0.1,0.6,0.2c0.1,0.3,0,0.5-0.2,0.7c-1,0.4-2.2,0.8-3.6,1c-1.3,0.2-2.6,0.3-4,0.3
		c-0.6,0-1-0.2-1.3-0.5c-0.3-0.3-0.4-0.7-0.4-1.2v-4.1c0-0.5,0.1-0.9,0.4-1.2c0.3-0.3,0.7-0.5,1.2-0.5h3.8c0.3,0,0.5,0,0.6-0.1
		c0.1-0.1,0.2-0.3,0.2-0.5v-3c0-0.2-0.1-0.4-0.2-0.5c-0.2-0.1-0.4-0.2-0.8-0.2h-4.7c-0.4,0-0.5-0.1-0.5-0.4c0-0.3,0.2-0.4,0.6-0.4h5
		C317.8,290.1,318.2,290.2,318.5,290.4z M323.8,304.1c-0.1,0.1-0.2,0.1-0.4,0.1c-0.2,0-0.3,0-0.4-0.1c-0.1-0.1-0.2-0.2-0.2-0.4V290
		c0-0.2,0.1-0.3,0.2-0.4c0.1-0.1,0.2-0.1,0.4-0.1c0.1,0,0.3,0,0.4,0.1c0.1,0.1,0.2,0.2,0.2,0.4v13.7
		C324,303.9,323.9,304,323.8,304.1z"/>
	<path class="st5" d="M338.7,290.5c0,0.3-0.1,0.5-0.4,0.5h-3.5v2.8c0,1.8,0.4,3.5,1.2,5c0.8,1.5,1.7,2.5,3,3.2
		c0.2,0.1,0.2,0.2,0.3,0.3s0,0.3,0,0.4c-0.1,0.1-0.2,0.2-0.3,0.2c-0.2,0-0.3,0-0.5-0.1c-0.9-0.5-1.8-1.3-2.6-2.5
		c-0.8-1.2-1.3-2.4-1.5-3.6c-0.2,1.2-0.7,2.4-1.5,3.6c-0.8,1.2-1.7,2-2.7,2.5c-0.1,0.1-0.3,0.1-0.4,0c-0.1,0-0.2-0.1-0.3-0.2
		c-0.1-0.1-0.1-0.3-0.1-0.4c0-0.1,0.1-0.2,0.3-0.3c1.2-0.6,2.2-1.7,2.9-3.1c0.8-1.5,1.2-3.2,1.2-5V291h-3.5c-0.3,0-0.5-0.2-0.5-0.5
		c0-0.3,0.2-0.4,0.5-0.4h8C338.5,290.1,338.7,290.2,338.7,290.5z M341.8,304.1c-0.1,0.1-0.2,0.1-0.4,0.1c-0.2,0-0.3,0-0.4-0.1
		c-0.1-0.1-0.2-0.2-0.2-0.4V290c0-0.2,0.1-0.3,0.2-0.4c0.1-0.1,0.2-0.1,0.4-0.1c0.1,0,0.3,0,0.4,0.1c0.1,0.1,0.2,0.2,0.2,0.4v13.7
		C342,303.9,341.9,304,341.8,304.1z"/>
</g>
<g class="st4">
	<path class="st5" d="M409.6,290.2c0.1-0.1,0.2-0.1,0.4-0.1s0.3,0,0.4,0.1c0.1,0.1,0.2,0.2,0.2,0.4v10.1c0,0.3,0.1,0.5,0.2,0.7
		c0.1,0.1,0.4,0.2,0.7,0.2c0.9,0,1.7-0.1,2.4-0.2c0.7-0.1,1.3-0.2,1.8-0.4c0.1-0.1,0.3-0.1,0.4,0c0.1,0.1,0.2,0.1,0.2,0.3
		c0,0.1,0,0.3-0.1,0.4c-0.1,0.1-0.2,0.2-0.3,0.3c-0.6,0.2-1.2,0.3-2,0.4c-0.8,0.1-1.7,0.2-2.7,0.2c-0.5,0-0.9-0.2-1.2-0.5
		c-0.3-0.3-0.4-0.7-0.4-1.3v-10C409.4,290.4,409.5,290.3,409.6,290.2z M418.2,304.1c-0.1,0.1-0.2,0.1-0.4,0.1s-0.3,0-0.4-0.1
		c-0.1-0.1-0.2-0.2-0.2-0.4v-7.7h-3.1c-0.2,0-0.3,0-0.4-0.1c-0.1-0.1-0.1-0.2-0.2-0.3c0-0.1,0-0.2,0.1-0.3c0.1-0.1,0.2-0.1,0.4-0.1
		h3.1v-5.1c0-0.2,0.1-0.3,0.2-0.4c0.1-0.1,0.2-0.1,0.4-0.1s0.3,0,0.4,0.1c0.1,0.1,0.2,0.2,0.2,0.4v13.7
		C418.4,303.9,418.3,304,418.2,304.1z M421.9,304.1c-0.1,0.1-0.2,0.1-0.3,0.1c-0.1,0-0.3,0-0.4-0.1c-0.1-0.1-0.2-0.2-0.2-0.4v-13.7
		c0-0.2,0.1-0.3,0.2-0.4c0.1-0.1,0.2-0.1,0.4-0.1c0.1,0,0.2,0,0.3,0.1c0.1,0.1,0.2,0.2,0.2,0.4v13.7
		C422.1,303.9,422,304,421.9,304.1z"/>
	<path class="st5" d="M441.1,302.3c0.1,0.1,0.1,0.2,0.2,0.3c0,0.1,0,0.2-0.1,0.3s-0.2,0.1-0.3,0.1H427c-0.1,0-0.2,0-0.3-0.1
		s-0.1-0.2-0.1-0.3s0.1-0.2,0.1-0.3c0.1-0.1,0.2-0.1,0.4-0.1h13.6C440.9,302.2,441.1,302.2,441.1,302.3z M439.9,290.2
		c0.1,0.1,0.1,0.2,0.1,0.3c0,0.1,0,0.2-0.1,0.3c-0.1,0.1-0.2,0.2-0.3,0.2h-9.7c-0.3,0-0.5,0.1-0.7,0.2c-0.1,0.1-0.2,0.3-0.2,0.6v2
		h10.3c0.3,0,0.5,0.1,0.5,0.4c0,0.3-0.2,0.5-0.5,0.5h-10.3v2.3c0,0.2,0.1,0.4,0.2,0.5c0.1,0.1,0.3,0.2,0.6,0.2h9.7
		c0.2,0,0.3,0,0.4,0.1c0.1,0.1,0.1,0.2,0.1,0.3c0,0.1,0,0.2-0.1,0.3s-0.2,0.1-0.3,0.1h-9.9c-0.5,0-0.9-0.1-1.2-0.4s-0.4-0.6-0.4-1.1
		v-5.3c0-0.5,0.1-0.8,0.4-1.1c0.3-0.3,0.7-0.5,1.3-0.5h9.8C439.7,290,439.8,290.1,439.9,290.2z"/>
	<path class="st5" d="M447.1,298.3c-0.9,0-1.6,0-2.3,0c-0.3,0-0.4-0.1-0.4-0.4s0.2-0.4,0.5-0.4c1.7,0,3.3,0,5-0.1
		c1.9,0,3.5-0.1,4.8-0.2c0.2,0,0.3,0,0.4,0.1c0.1,0.1,0.2,0.2,0.2,0.3c0,0.1,0,0.2-0.1,0.3c-0.1,0.1-0.2,0.2-0.3,0.2
		c-0.7,0.1-1.4,0.1-2.2,0.2c-0.7,0-1.4,0.1-2.1,0.1v2.1c0,0.8-0.1,1.4-0.3,1.9c-0.2,0.5-0.5,0.9-0.8,1.3c-0.3,0.2-0.5,0.2-0.7,0
		c-0.2-0.2-0.2-0.4,0-0.7c0.3-0.3,0.5-0.7,0.6-1.1c0.1-0.4,0.2-0.8,0.2-1.4v-2.1C448.9,298.3,448.1,298.3,447.1,298.3z M453.4,290.9
		c0.8,0.6,1.2,1.2,1.2,2c0,0.8-0.4,1.4-1.2,2c-0.9,0.6-2,0.9-3.4,0.9c-1.5,0-2.6-0.3-3.5-0.9c-0.8-0.6-1.1-1.2-1.1-2
		c0-0.8,0.4-1.5,1.1-2c0.9-0.6,2-0.9,3.5-0.9C451.4,290,452.6,290.3,453.4,290.9z M447.3,291.5c-0.6,0.4-0.9,0.8-0.9,1.4
		c0,0.5,0.3,1,0.9,1.4c0.7,0.4,1.5,0.6,2.7,0.6c1.1,0,2-0.2,2.7-0.6c0.6-0.4,0.9-0.8,0.9-1.4c0-0.6-0.3-1-0.9-1.4
		c-0.7-0.4-1.6-0.6-2.7-0.6C448.9,290.9,448,291.1,447.3,291.5z M457.4,304.1c-0.1,0.1-0.2,0.1-0.4,0.1c-0.2,0-0.3,0-0.4-0.1
		c-0.1-0.1-0.2-0.2-0.2-0.4v-3.4h-3.3c-0.2,0-0.3-0.1-0.4-0.2c-0.1-0.1-0.2-0.2-0.2-0.3c0-0.1,0-0.2,0.1-0.3
		c0.1-0.1,0.2-0.1,0.4-0.1h3.4v-9.3c0-0.2,0.1-0.3,0.2-0.4c0.1-0.1,0.2-0.1,0.4-0.1c0.1,0,0.3,0,0.4,0.1c0.1,0.1,0.2,0.2,0.2,0.4
		v13.7C457.6,303.9,457.6,304,457.4,304.1z"/>
	<path class="st5" d="M477.1,302.3c0.1,0.1,0.1,0.2,0.2,0.3c0,0.1,0,0.2-0.1,0.3s-0.2,0.1-0.3,0.1H463c-0.1,0-0.2,0-0.3-0.1
		s-0.1-0.2-0.1-0.3s0.1-0.2,0.1-0.3c0.1-0.1,0.2-0.1,0.4-0.1h13.6C476.9,302.2,477.1,302.2,477.1,302.3z M474.6,295.6
		c0,0.3-0.1,0.5-0.4,0.5c-1.5,0.2-3.2,0.3-5,0.4c-1.9,0.1-3.6,0.2-5.1,0.2c-0.3,0-0.5-0.2-0.5-0.5c0-0.3,0.2-0.4,0.5-0.4
		c1.6,0,3.2,0,5-0.1c1.9-0.1,3.6-0.2,5-0.4C474.4,295.2,474.6,295.3,474.6,295.6z M475.4,290.5c0.4,0.3,0.5,0.7,0.5,1.1v3.3
		c0,1.7-0.1,3-0.2,3.9c-0.2,1.1-0.5,2.2-0.9,3.4h-1.1c0.5-1.1,0.8-2.3,1-3.3c0.1-0.8,0.2-2.1,0.2-3.8v-3.4c0-0.2-0.1-0.4-0.2-0.5
		c-0.1-0.1-0.4-0.2-0.7-0.2h-9.4c-0.3,0-0.5-0.2-0.5-0.5s0.2-0.5,0.5-0.5h9.5C474.6,290,475,290.2,475.4,290.5z"/>
</g>
<g class="st4">
	<path class="st5" d="M142.8,292.8c0.1,0.1,0.2,0.1,0.2,0.3c0,0.1,0,0.2-0.1,0.3c-0.1,0.1-0.2,0.2-0.3,0.2c-0.9,0.2-1.8,0.3-2.8,0.4
		c-1.2,0.1-2.2,0.2-3,0.2c-0.3,0-0.5-0.2-0.5-0.5s0.2-0.5,0.5-0.5c0.9,0,1.8-0.1,2.9-0.2c1-0.1,1.9-0.2,2.7-0.4
		C142.6,292.7,142.7,292.8,142.8,292.8z M143.8,290.4c0.3,0.3,0.4,0.6,0.4,1.1v0.8c0,1.6-0.6,2.9-1.8,3.9c-1.3,1.1-3.1,1.7-5.6,1.9
		c-0.2,0-0.3,0-0.4-0.1c-0.1-0.1-0.1-0.2-0.2-0.3c0-0.1,0-0.2,0.1-0.3c0.1-0.1,0.2-0.1,0.4-0.1c2.2-0.1,3.8-0.6,5-1.6
		c1-0.9,1.4-2,1.4-3.3v-0.5c0-0.3-0.1-0.5-0.2-0.6s-0.4-0.2-0.7-0.2h-5.1c-0.2,0-0.3,0-0.4-0.1c-0.1-0.1-0.1-0.2-0.1-0.3
		s0-0.2,0.1-0.3c0.1-0.1,0.2-0.1,0.4-0.1h5.2C143.1,290,143.5,290.1,143.8,290.4z M148.8,299.1c0.3,0.2,0.4,0.5,0.4,0.9v2.5
		c0,0.4-0.1,0.8-0.4,1c-0.3,0.2-0.6,0.3-1.1,0.3h-8.1c-0.6,0-1-0.1-1.3-0.4c-0.2-0.2-0.4-0.6-0.4-1.1v-2.3c0-0.4,0.1-0.7,0.4-0.9
		s0.6-0.4,1-0.4h8.3C148.1,298.8,148.5,298.9,148.8,299.1z M148,299.8c-0.1-0.1-0.3-0.1-0.6-0.1h-7.6c-0.3,0-0.5,0.1-0.6,0.2
		c-0.1,0.1-0.1,0.3-0.1,0.5v2c0,0.2,0.1,0.4,0.2,0.5c0.1,0.1,0.3,0.1,0.6,0.1h7.6c0.3,0,0.5,0,0.6-0.1c0.1-0.1,0.2-0.2,0.2-0.4v-2.1
		C148.2,300.1,148.1,299.9,148,299.8z M149.1,297.4c-0.1,0.1-0.2,0.1-0.4,0.1c-0.2,0-0.3,0-0.4-0.1c-0.1-0.1-0.2-0.2-0.2-0.4v-2.5
		H145c-0.2,0-0.3-0.1-0.4-0.2c-0.1-0.1-0.2-0.2-0.2-0.3c0-0.1,0-0.2,0.1-0.3c0.1-0.1,0.2-0.1,0.4-0.1h3.3v-3.5
		c0-0.2,0.1-0.3,0.2-0.4c0.1-0.1,0.2-0.1,0.4-0.1c0.1,0,0.3,0,0.4,0.1c0.1,0.1,0.2,0.2,0.2,0.4v6.9
		C149.2,297.2,149.2,297.3,149.1,297.4z"/>
	<path class="st5" d="M168.9,299.1c0,0.3-0.1,0.5-0.4,0.5h-2.8v4.1c0,0.2-0.1,0.3-0.2,0.4c-0.1,0.1-0.2,0.1-0.4,0.1s-0.3,0-0.4-0.1
		c-0.1-0.1-0.2-0.2-0.2-0.4v-4.1H159v1.7c0,0.6-0.1,1.2-0.3,1.7c-0.2,0.5-0.4,0.9-0.7,1.2c-0.1,0.1-0.3,0.2-0.4,0.2
		c-0.1,0-0.3,0-0.4-0.1s-0.2-0.2-0.2-0.3c0-0.2,0-0.3,0.2-0.4c0.3-0.3,0.5-0.6,0.5-0.9c0.1-0.3,0.1-0.7,0.1-1.2v-1.7h-3.3
		c-0.2,0-0.3-0.1-0.4-0.2c-0.1-0.1-0.1-0.2-0.1-0.3c0-0.1,0-0.2,0.1-0.3c0.1-0.1,0.2-0.1,0.4-0.1h13.7
		C168.8,298.7,168.9,298.8,168.9,299.1z M167.7,295.9c0,0.3-0.1,0.4-0.4,0.4h-11.5c-0.3,0-0.4-0.1-0.4-0.4c0-0.3,0.2-0.4,0.5-0.4
		h2.3l-0.6-3.6c0-0.2,0-0.3,0.1-0.4c0.1-0.1,0.2-0.1,0.3-0.1s0.3,0,0.4,0.1c0.1,0.1,0.2,0.2,0.2,0.4l0.7,3.7h4.7l0.7-3.7
		c0-0.2,0.1-0.3,0.2-0.4c0.1-0.1,0.2-0.1,0.4-0.1c0.1,0,0.3,0.1,0.3,0.2c0.1,0.1,0.1,0.2,0.1,0.4l-0.7,3.6h2.3
		C167.6,295.5,167.7,295.6,167.7,295.9z M167.6,290.2c0.1,0.1,0.1,0.2,0.1,0.3s0,0.2-0.1,0.3c-0.1,0.1-0.2,0.1-0.4,0.1h-11.3
		c-0.3,0-0.5-0.2-0.5-0.5c0-0.3,0.1-0.4,0.5-0.4h11.3C167.4,290,167.5,290.1,167.6,290.2z"/>
	<path class="st5" d="M181,290.1c0.1,0.1,0.2,0.2,0.2,0.3s0,0.2-0.1,0.3c-0.1,0.1-0.2,0.1-0.4,0.1h-5.8c-0.3,0-0.5,0.1-0.6,0.2
		c-0.1,0.1-0.2,0.3-0.2,0.6v1.4h6.2c0.4,0,0.5,0.1,0.5,0.4c0,0.3-0.2,0.5-0.5,0.5h-6.2v1.9c0,0.3,0,0.5,0.1,0.6
		c0.1,0.1,0.3,0.2,0.6,0.2c1.5,0,2.8-0.1,4-0.2c1.3-0.1,2.4-0.3,3.3-0.6c0.2-0.1,0.3-0.1,0.4,0c0.1,0,0.2,0.1,0.2,0.2
		c0,0.1,0,0.2,0,0.4s-0.2,0.2-0.3,0.3c-0.9,0.2-2.1,0.4-3.5,0.6c-1.3,0.1-2.7,0.2-4.1,0.2c-0.7,0-1.1-0.1-1.5-0.4
		c-0.3-0.3-0.4-0.7-0.4-1.3v-4.3c0-0.4,0.1-0.8,0.4-1.1c0.3-0.3,0.7-0.4,1.2-0.4h5.9C180.7,290,180.9,290,181,290.1z M184,299.7
		c0.9,0.5,1.4,1.1,1.4,1.9c0,0.8-0.5,1.4-1.4,1.9c-1,0.5-2.5,0.8-4.4,0.8s-3.4-0.3-4.4-0.8c-0.9-0.5-1.4-1.1-1.4-1.9
		c0-0.8,0.5-1.4,1.4-1.9c1-0.5,2.5-0.8,4.4-0.8S183,299.2,184,299.7z M175.9,300.3c-0.8,0.3-1.1,0.8-1.1,1.3c0,0.5,0.4,0.9,1.1,1.2
		c0.8,0.3,2,0.5,3.6,0.5c1.6,0,2.8-0.2,3.6-0.5c0.8-0.3,1.1-0.7,1.1-1.2c0-0.6-0.4-1-1.1-1.3c-0.8-0.3-2-0.5-3.6-0.5
		C178,299.9,176.8,300,175.9,300.3z M185.1,298.5c-0.1,0.1-0.2,0.1-0.4,0.1c-0.2,0-0.3,0-0.4-0.1c-0.1-0.1-0.2-0.2-0.2-0.4v-8
		c0-0.2,0.1-0.3,0.2-0.4c0.1-0.1,0.2-0.1,0.4-0.1c0.1,0,0.3,0,0.4,0.1c0.1,0.1,0.2,0.2,0.2,0.4v8.1
		C185.2,298.3,185.2,298.4,185.1,298.5z"/>
</g>
</svg>
