<?xml version="1.0" encoding="utf-8"?>
<!-- Generator: Adobe Illustrator 19.2.1, SVG Export Plug-In . SVG Version: 6.00 Build 0)  -->
<svg version="1.1" id="Layer_1" xmlns="http://www.w3.org/2000/svg" xmlns:xlink="http://www.w3.org/1999/xlink" x="0px" y="0px"
	 viewBox="0 0 600 320" style="enable-background:new 0 0 600 320;" xml:space="preserve">
<style type="text/css">
	.st0{fill:#4C84C5;}
	.st1{fill:#F49C58;}
	.st2{fill:#959595;}
	.st3{fill:#1DA78D;}
	.st4{enable-background:new    ;}
	.st5{fill:#FFFFFF;}
	.st6{font-family:'Gulim';}
	.st7{font-size:21px;}
	.st8{font-family:'ArialMT';}
	.st9{font-size:18px;}
	.st10{font-size:14px;}
</style>
<rect y="81.7" class="st0" width="600" height="75.3"/>
<rect x="0.6" y="0.6" class="st1" width="600" height="74.3"/>
<rect y="239.7" class="st2" width="600" height="80.3"/>
<rect y="164" class="st3" width="190" height="68"/>
<rect x="205" y="163.4" class="st3" width="190" height="68.6"/>
<rect x="410" y="164" class="st3" width="190" height="68"/>
<text transform="matrix(1 0 0 1 246.728 110.3711)" class="st4"><tspan x="0" y="0" class="st5 st6 st7">가상화</tspan><tspan x="63" y="0" class="st5 st8 st7"> </tspan><tspan x="68.8" y="0" class="st5 st6 st7">관리</tspan></text>
<text transform="matrix(1 0 0 1 216.2242 144.3711)" class="st5 st8 st9">VMware vCenter Server</text>
<text transform="matrix(1 0 0 1 37.5768 192.8755)" class="st4"><tspan x="0" y="0" class="st5 st6 st9">컴퓨팅</tspan><tspan x="54" y="0" class="st5 st8 st9"> </tspan><tspan x="59" y="0" class="st5 st6 st9">가상화</tspan></text>
<text transform="matrix(1 0 0 1 41.1747 216.7755)" class="st5 st8 st10">VMware vSphere</text>
<text transform="matrix(1 0 0 1 236.0049 192.8755)" class="st4"><tspan x="0" y="0" class="st5 st6 st9">스토리지</tspan><tspan x="72" y="0" class="st5 st8 st9"> </tspan><tspan x="77" y="0" class="st5 st6 st9">가상화</tspan></text>
<text transform="matrix(1 0 0 1 255.8037 216.7755)" class="st5 st8 st10">VMware vSAN</text>
<text transform="matrix(1 0 0 1 444.6676 192.8755)" class="st4"><tspan x="0" y="0" class="st5 st6 st9">네트워크</tspan><tspan x="72" y="0" class="st5 st8 st9"> </tspan><tspan x="77" y="0" class="st5 st6 st9">가상화</tspan></text>
<text transform="matrix(1 0 0 1 462.666 216.7755)" class="st5 st8 st10">VMware NSX </text>
<text transform="matrix(1 0 0 1 146.074 272.5371)" class="st5 st8 st7">Physical Infrastructure on IBM Cloud</text>
<text transform="matrix(1 0 0 1 216.7878 27.4924)" class="st4"><tspan x="0" y="0" class="st5 st6 st7">인프라</tspan><tspan x="63" y="0" class="st5 st8 st7"> </tspan><tspan x="68.8" y="0" class="st5 st6 st7">하이브리드</tspan></text>
<text transform="matrix(1 0 0 1 159.8869 61.4924)" class="st5 st8 st9">VMware Hybrid Cloud Extension(HCX)</text>
<text transform="matrix(1 0 0 1 273.3247 303.3732)" class="st5 st6 st9">스토리지</text>
<text transform="matrix(1 0 0 1 406.9552 303.3732)" class="st5 st6 st9">네트워크</text>
<text transform="matrix(1 0 0 1 134.5858 303.373)" class="st5 st6 st9">컴퓨팅</text>
</svg>
