<?xml version="1.0" encoding="utf-8"?>
<!-- Generator: Adobe Illustrator 19.2.1, SVG Export Plug-In . SVG Version: 6.00 Build 0)  -->
<svg version="1.1" id="Layer_1" xmlns="http://www.w3.org/2000/svg" xmlns:xlink="http://www.w3.org/1999/xlink" x="0px" y="0px"
	 viewBox="0 0 600 320" style="enable-background:new 0 0 600 320;" xml:space="preserve">
<style type="text/css">
	.st0{fill:#4C84C5;}
	.st1{fill:#959595;}
	.st2{fill:#1BA78D;}
	.st3{fill:#FFFFFF;}
	.st4{font-family:'Gulim';}
	.st5{font-size:26px;}
	.st6{font-family:'Roboto-Light';}
	.st7{font-size:21px;}
</style>
<rect class="st0" width="600" height="100"/>
<rect y="220" class="st1" width="600" height="100"/>
<rect y="110" class="st2" width="297.5" height="100"/>
<rect x="305.3" y="110" class="st2" width="294.7" height="100"/>
<text transform="matrix(1 0 0 1 232.2437 43.3711)"><tspan x="0" y="0" class="st3 st4 st5">가상화</tspan><tspan x="78" y="0" class="st3 st6 st5"> </tspan><tspan x="83.5" y="0" class="st3 st4 st5">관리</tspan><tspan x="-58.8" y="34" class="st3 st6 st5">VMware vCenter Server</tspan></text>
<text transform="matrix(1 0 0 1 64.4692 158.6688)"><tspan x="0" y="0" class="st3 st4 st5">컴퓨팅</tspan><tspan x="78" y="0" class="st3 st6 st5"> </tspan><tspan x="83.5" y="0" class="st3 st4 st5">가상화</tspan><tspan x="-10.9" y="23.9" class="st3 st6 st5">VMware vSphere</tspan></text>
<text transform="matrix(1 0 0 1 361.0235 159.7861)"><tspan x="0" y="0" class="st3 st4 st5">네트워크</tspan><tspan x="104" y="0" class="st3 st6 st5"> </tspan><tspan x="109.5" y="0" class="st3 st4 st5">가상화</tspan><tspan x="24.3" y="23.9" class="st3 st6 st5">VMware NSX</tspan></text>
<text transform="matrix(1 0 0 1 101.8696 263.5371)" class="st3 st6 st5">Physical Infrastructure on IBM Cloud </text>
<text transform="matrix(1 0 0 1 405.7922 302.2838)" class="st3 st4 st7">네트워크</text>
<text transform="matrix(1 0 0 1 265.8928 302.8424)" class="st3 st4 st7">스토리지</text>
<text transform="matrix(1 0 0 1 123.7224 302.7475)" class="st3 st4 st7">컴퓨팅</text>
</svg>
